<?xml version="1.0" encoding="UTF-8" standalone="no"?>
<!-- Created with Inkscape (http://www.inkscape.org/) -->

<svg
   width="22"
   height="22"
   viewBox="0 0 22 22.000001"
   version="1.1"
   id="svg5"
   inkscape:version="1.2.1 (9c6d41e410, 2022-07-14, custom)"
   sodipodi:docname="application-vnd.ms-excel.svg"
   xmlns:inkscape="http://www.inkscape.org/namespaces/inkscape"
   xmlns:sodipodi="http://sodipodi.sourceforge.net/DTD/sodipodi-0.dtd"
   xmlns="http://www.w3.org/2000/svg"
   xmlns:svg="http://www.w3.org/2000/svg">
  <sodipodi:namedview
     id="namedview7"
     pagecolor="#ffffff"
     bordercolor="#000000"
     borderopacity="0.25"
     inkscape:showpageshadow="2"
     inkscape:pageopacity="0.0"
     inkscape:pagecheckerboard="0"
     inkscape:deskcolor="#d1d1d1"
     inkscape:document-units="px"
     showgrid="false"
     inkscape:zoom="36.727273"
     inkscape:cx="10.986386"
     inkscape:cy="11"
     inkscape:window-width="1920"
     inkscape:window-height="1010"
     inkscape:window-x="0"
     inkscape:window-y="0"
     inkscape:window-maximized="1"
     inkscape:current-layer="svg5" />
  <defs
     id="defs2" />
  <path
     id="rect234"
     style="fill:#7d7d7b"
     d="M 4,0 H 16.5 L 20,3.5 V 22 H 4 Z"
     sodipodi:nodetypes="cccccc" />
  <path
     id="rect1746"
     style="fill:#fafafa"
     d="m 5,1 h 10 v 4 h 4 V 21 H 5 Z"
     sodipodi:nodetypes="ccccccc" />
  <rect
     style="fill:#185c37;fill-opacity:1;stroke-width:2.64574;stroke-linecap:round"
     id="rect341"
     width="3"
     height="1"
     x="10"
     y="13" />
  <rect
     style="fill:#107c41;fill-opacity:1;stroke-width:2.64574;stroke-linecap:round"
     id="rect343"
     width="3"
     height="1"
     x="10"
     y="11" />
  <rect
     style="fill:#21a366;fill-opacity:1;stroke-width:1;stroke-linecap:round"
     id="rect345"
     width="3"
     height="1"
     x="10"
     y="9" />
  <rect
     style="fill:#6dc898;fill-opacity:1;stroke-width:2.04939"
     id="rect518"
     width="3"
     height="1"
     x="14"
     y="9" />
  <rect
     style="fill:#4fae7f;fill-opacity:1;stroke-width:2.04939"
     id="rect520"
     width="3"
     height="1"
     x="14"
     y="11" />
  <rect
     style="fill:#134a2c;fill-opacity:1;stroke-width:2.04939"
     id="rect522"
     width="3"
     height="1"
     x="14"
     y="13" />
  <path
     id="rect1800"
     style="fill:#fafafa;stroke-width:0.75"
     d="m 16,1 3,3.0000008 h -3 z"
     sodipodi:nodetypes="cccc" />
  <rect
     style="fill:#3f8858;fill-opacity:1;stroke-width:1.28571;stroke-linecap:round"
     id="rect347"
     width="9"
     height="9"
     x="0"
     y="7"
     ry="1" />
  <path
     id="rect1620"
     style="fill:#ffffff"
     d="M 2 8 L 4 11.5 L 2 15 L 3 15 L 4.5 12.375 L 6 15 L 7 15 L 5 11.5 L 7 8 L 6 8 L 4.5 10.625 L 3 8 L 2 8 z " />
</svg>
