<?xml version="1.0" encoding="UTF-8" standalone="no"?>
<!-- Created with Inkscape (http://www.inkscape.org/) -->

<svg
   width="22"
   height="22"
   viewBox="0 0 22 22.000001"
   version="1.1"
   id="svg5"
   inkscape:version="1.2.1 (9c6d41e410, 2022-07-14, custom)"
   sodipodi:docname="application-xml.svg"
   xmlns:inkscape="http://www.inkscape.org/namespaces/inkscape"
   xmlns:sodipodi="http://sodipodi.sourceforge.net/DTD/sodipodi-0.dtd"
   xmlns:xlink="http://www.w3.org/1999/xlink"
   xmlns="http://www.w3.org/2000/svg"
   xmlns:svg="http://www.w3.org/2000/svg">
  <sodipodi:namedview
     id="namedview7"
     pagecolor="#ffffff"
     bordercolor="#000000"
     borderopacity="0.25"
     inkscape:showpageshadow="2"
     inkscape:pageopacity="0.0"
     inkscape:pagecheckerboard="0"
     inkscape:deskcolor="#d1d1d1"
     inkscape:document-units="px"
     showgrid="false"
     inkscape:zoom="36.818182"
     inkscape:cx="11"
     inkscape:cy="11"
     inkscape:window-width="1920"
     inkscape:window-height="1012"
     inkscape:window-x="0"
     inkscape:window-y="0"
     inkscape:window-maximized="1"
     inkscape:current-layer="svg5" />
  <defs
     id="defs2">
    <linearGradient
       inkscape:collect="always"
       xlink:href="#linearGradient1115"
       id="linearGradient1117"
       x1="46"
       y1="46.787556"
       x2="31.547945"
       y2="24.11208"
       gradientUnits="userSpaceOnUse"
       gradientTransform="matrix(0.5,0,0,0.5,-5.0000003,-4.7255852)" />
    <linearGradient
       inkscape:collect="always"
       id="linearGradient1115">
      <stop
         style="stop-color:#9048bf;stop-opacity:1;"
         offset="0"
         id="stop1111" />
      <stop
         style="stop-color:#a569cd;stop-opacity:1;"
         offset="1"
         id="stop1113" />
    </linearGradient>
  </defs>
  <path
     id="rect234"
     style="fill:#7d7d7b"
     d="M 3,0 H 15.5 L 19,3.5 V 22 H 3 Z"
     sodipodi:nodetypes="cccccc" />
  <path
     id="rect1746"
     style="fill:#fafafa"
     d="m 4,1 h 10 v 4 h 4 V 21 H 4 Z"
     sodipodi:nodetypes="ccccccc" />
  <path
     id="rect1800"
     style="fill:#fafafa;stroke-width:0.75"
     d="m 15,1 3,3.0000008 h -3 z"
     sodipodi:nodetypes="cccc" />
  <path
     id="rect7181"
     style="fill:url(#linearGradient1117);fill-opacity:1;stroke-width:2;stroke-linecap:round"
     d="m 12.855469,7.3310542 c -0.194641,0.0097 -0.373282,0.133881 -0.444336,0.329102 L 8.6494137,17.996093 c -0.09474,0.260295 0.03853,0.546863 0.298828,0.641602 0.260295,0.09474 0.545885,-0.03853 0.640625,-0.298828 L 13.350586,8.0019532 c 0.09474,-0.260295 -0.03853,-0.545886 -0.298828,-0.640625 -0.06507,-0.02369 -0.131409,-0.03351 -0.196289,-0.03027 z m -5.1992193,2.217774 c -0.127809,0 -0.255581,0.0505 -0.353516,0.148437 L 3.9999997,13 l 3.302734,3.302734 c 0.195867,0.195867 0.511164,0.195867 0.707031,0 0.195868,-0.195868 0.195868,-0.511162 0,-0.707031 L 5.4140617,13 8.0097647,10.404297 c 0.195868,-0.195869 0.195868,-0.5111638 0,-0.7070318 -0.09793,-0.09793 -0.225706,-0.148437 -0.353515,-0.148437 z m 6.6875003,0 c -0.127809,0 -0.255582,0.0505 -0.353516,0.148437 -0.195868,0.195868 -0.195868,0.5111628 0,0.7070318 L 16.585937,13 13.990234,15.595703 c -0.195868,0.195869 -0.195868,0.511163 0,0.707031 0.195867,0.195867 0.511164,0.195867 0.707031,0 L 18,13 14.697265,9.6972652 c -0.09793,-0.09793 -0.225706,-0.148437 -0.353515,-0.148437 z" />
</svg>
