<?xml version="1.0" encoding="UTF-8" standalone="no"?>
<!-- Created with Inkscape (http://www.inkscape.org/) -->

<svg
   width="22"
   height="22"
   viewBox="0 0 22 22"
   version="1.1"
   id="svg5"
   inkscape:version="1.2.1 (9c6d41e410, 2022-07-14, custom)"
   sodipodi:docname="application-x-deb.svg"
   xmlns:inkscape="http://www.inkscape.org/namespaces/inkscape"
   xmlns:sodipodi="http://sodipodi.sourceforge.net/DTD/sodipodi-0.dtd"
   xmlns:xlink="http://www.w3.org/1999/xlink"
   xmlns="http://www.w3.org/2000/svg"
   xmlns:svg="http://www.w3.org/2000/svg">
  <sodipodi:namedview
     id="namedview7"
     pagecolor="#ffffff"
     bordercolor="#000000"
     borderopacity="0.25"
     inkscape:showpageshadow="2"
     inkscape:pageopacity="0.0"
     inkscape:pagecheckerboard="0"
     inkscape:deskcolor="#d1d1d1"
     inkscape:document-units="px"
     showgrid="false"
     inkscape:zoom="36.727273"
     inkscape:cx="10.986386"
     inkscape:cy="11"
     inkscape:window-width="1920"
     inkscape:window-height="1010"
     inkscape:window-x="0"
     inkscape:window-y="0"
     inkscape:window-maximized="1"
     inkscape:current-layer="svg5"
     showguides="false" />
  <defs
     id="defs2">
    <linearGradient
       inkscape:collect="always"
       xlink:href="#linearGradient40996"
       id="linearGradient2076"
       x1="5"
       y1="1"
       x2="3"
       y2="3"
       gradientUnits="userSpaceOnUse"
       gradientTransform="translate(1.0000002,1)" />
    <linearGradient
       inkscape:collect="always"
       id="linearGradient40996">
      <stop
         style="stop-color:#f57da7;stop-opacity:1"
         offset="0"
         id="stop40992" />
      <stop
         style="stop-color:#f775a4;stop-opacity:1"
         offset="1"
         id="stop40994" />
    </linearGradient>
    <linearGradient
       inkscape:collect="always"
       xlink:href="#linearGradient26892"
       id="linearGradient2088"
       x1="3"
       y1="5.5"
       x2="7"
       y2="2"
       gradientUnits="userSpaceOnUse"
       gradientTransform="translate(1.0000002,1)" />
    <linearGradient
       inkscape:collect="always"
       id="linearGradient26892">
      <stop
         style="stop-color:#cb6085;stop-opacity:1"
         offset="0"
         id="stop26888" />
      <stop
         style="stop-color:#832949;stop-opacity:1"
         offset="1"
         id="stop26890" />
    </linearGradient>
    <linearGradient
       inkscape:collect="always"
       xlink:href="#linearGradient26892"
       id="linearGradient2090"
       x1="13"
       y1="4"
       x2="13"
       y2="18"
       gradientUnits="userSpaceOnUse"
       gradientTransform="translate(5.0000001,2)" />
    <linearGradient
       inkscape:collect="always"
       xlink:href="#linearGradient56461"
       id="linearGradient2068"
       x1="3"
       y1="3"
       x2="13"
       y2="20"
       gradientUnits="userSpaceOnUse"
       gradientTransform="translate(1.0000002,1)" />
    <linearGradient
       inkscape:collect="always"
       id="linearGradient56461">
      <stop
         style="stop-color:#fb95b9;stop-opacity:1"
         offset="0"
         id="stop56457-9" />
      <stop
         style="stop-color:#f63479;stop-opacity:1"
         offset="1"
         id="stop56459-1" />
    </linearGradient>
    <linearGradient
       inkscape:collect="always"
       xlink:href="#linearGradient70845"
       id="linearGradient2098"
       x1="11"
       y1="0.99999899"
       x2="15"
       y2="13.999999"
       gradientUnits="userSpaceOnUse"
       gradientTransform="translate(3.0000002,6.000001)" />
    <linearGradient
       inkscape:collect="always"
       id="linearGradient70845">
      <stop
         style="stop-color:#d04d79;stop-opacity:1"
         offset="0"
         id="stop70841-7" />
      <stop
         style="stop-color:#b63664;stop-opacity:1"
         offset="1"
         id="stop70843-0" />
    </linearGradient>
    <linearGradient
       inkscape:collect="always"
       xlink:href="#linearGradient40996"
       id="linearGradient2080"
       x1="17"
       y1="5.0000014"
       x2="17"
       y2="6"
       gradientUnits="userSpaceOnUse"
       gradientTransform="translate(1.0000002,1)" />
    <linearGradient
       inkscape:collect="always"
       xlink:href="#linearGradient40996"
       id="linearGradient2078"
       x1="7"
       y1="0"
       x2="15"
       y2="5.0000014"
       gradientUnits="userSpaceOnUse"
       gradientTransform="translate(3.0000002,0.99999995)" />
  </defs>
  <path
     id="rect3961"
     style="fill:url(#linearGradient2076);fill-opacity:1;stroke-width:0.27586"
     d="m 2.0000002,3 4,-1 2,1 L 6,6 4.0000002,4 Z"
     sodipodi:nodetypes="cccccc" />
  <path
     id="rect2034"
     style="fill:url(#linearGradient2088);fill-opacity:1;stroke-width:0.27586"
     d="M 4.0000002,4 8.0000003,3 10,16 8.0000003,17 4.0000002,18 Z"
     sodipodi:nodetypes="cccccc" />
  <path
     id="rect2627"
     style="fill:url(#linearGradient2090);fill-opacity:1;stroke-width:0.27586"
     d="M 8.0000002,3 18,6 V 20 L 8.0000002,17 Z"
     sodipodi:nodetypes="ccccc" />
  <path
     id="rect45418"
     style="fill:url(#linearGradient2068);fill-opacity:1;stroke-width:0.190529"
     d="M 4.0000002,4 14,7.000001 16,8.0000001 14,21 4.0000002,18 Z"
     sodipodi:nodetypes="cccccc" />
  <path
     id="path2"
     style="opacity:0.6;fill:#ffffff;stroke-width:0.0249995"
     d="m 7.8627508,12.203905 c -0.096366,-0.02702 -0.1923299,-0.05706 -0.2871035,-0.07932 l 0.04175,0.02093 c 0.069729,-1.83e-4 0.1713845,0.04842 0.2453575,0.05845 z M 7.4415683,12.094887 C 7.2847959,12.047394 7.0673211,12.049866 7.1344444,12 6.878575,12.021083 6.4243675,12.015958 6.1695231,12.162168 l -0.00796,-0.05647 c -0.1167804,0.09769 -0.5092195,0.233362 -0.5404937,0.403553 l -0.031246,-0.0041 c -0.060772,0.08077 -0.1000843,0.183081 -0.1482887,0.271411 -0.079505,0.106499 -0.1165492,0.0096 -0.1052155,0.03505 -0.1563228,0.260073 -0.2339726,0.498161 -0.301067,0.69216 0.047792,0.08884 0.00117,0.430552 0.019248,0.724179 -0.078519,1.389116 0.9949619,3.156339 2.1683629,3.901165 0.1719993,0.124087 0.4277768,0.21478 0.6453472,0.300321 C 7.6115142,18.262528 7.578325,18.285014 7.3283298,18.106809 7.1479605,17.956215 7.1084323,17.844851 6.9806815,17.687509 l 0.050546,0.107711 C 6.7807071,17.615355 6.8854926,17.632417 6.6816726,17.493678 l 0.053998,-0.05085 C 6.6544461,17.40712 6.5205897,17.227714 6.4839664,17.141991 L 6.395157,17.113174 C 6.288412,16.942592 6.2315361,16.827073 6.2356876,16.755038 l -0.028735,0.04071 c -0.032501,-0.0677 -0.3927275,-0.636917 -0.2058558,-0.466903 -0.034734,-0.0444 -0.080856,-0.0811 -0.1308988,-0.190217 l 0.038027,-0.0296 C 5.818294,15.960636 5.7427098,15.784723 5.74846,15.737467 c 0.047967,0.08226 0.08125,0.106487 0.1141979,0.129594 -0.2270668,-0.64611 -0.2398361,-0.118389 -0.4118554,-0.723477 l 0.03638,0.01025 c -0.027912,-0.0522 -0.044808,-0.103974 -0.06723,-0.15694 L 5.4358001,14.84485 C 5.2722804,14.596352 5.3900788,14.024521 5.4136628,13.695957 5.4300502,13.564803 5.5501217,13.46259 5.6414883,13.266976 l -0.055677,-0.02983 c 0.106358,-0.146857 0.6075008,-0.524222 0.8395448,-0.410965 0.1124779,-0.100286 -0.022354,-0.0086 -0.044338,-0.05221 0.2469443,-0.165691 0.3246046,-0.06238 0.4912496,-0.04771 0.1797449,-0.04127 -0.154217,-0.0145 -0.068992,-0.06579 0.3106679,0.03372 0.2201613,-0.100274 0.6254758,0.0069 0.04275,0.03992 -0.099218,0.0013 -0.1348554,0.02009 0.2588438,-0.03246 0.8192117,0.200301 1.183129,0.500882 0.4223655,0.35112 0.8967848,1.107197 0.9155088,1.662925 l 0.021325,0.0135 c -0.010741,0.214311 0.033367,0.482677 -0.043208,0.686603 l 0.052541,-0.09049 5e-5,1.9e-5 c 0.00625,0.169028 -0.048733,0.22992 -0.098288,0.355132 l -0.089104,0.01212 c -0.072977,0.115087 0.00708,0.09247 -0.045166,0.186148 -0.1138906,0.05977 -0.3455705,0.190964 -0.4197178,0.183654 -0.054071,-0.02088 0.036736,-0.05047 0.048585,-0.07073 -0.1524217,0.04922 -0.1223392,0.1126 -0.3554138,0.09139 l -0.00671,-0.0176 c -0.5750299,0.06112 -1.3736472,-0.765565 -1.3631223,-1.493069 -0.00616,0.04418 -0.017494,0.0285 -0.030226,0.04261 -0.029636,-0.387082 0.1738189,-0.690991 0.5168834,-0.720447 0.3356675,-0.04397 0.7290417,0.167424 0.9694628,0.478979 -0.1320451,-0.22107 -0.3948367,-0.500069 -0.7063307,-0.596296 -0.305195,-0.106224 -0.59065,-0.01623 -0.6859229,0.159564 -0.1563231,0.04155 -0.1744512,0.31591 -0.2425739,0.342512 -0.091618,0.640214 0.1723884,1.027308 0.6190305,1.532165 0.070299,0.07299 0.019785,0.06182 0.029321,0.10135 C 7.4155553,15.924895 7.2796335,15.770519 7.1679138,15.60141 7.2272058,15.709809 7.2911716,15.817421 7.3738671,15.913814 7.23394,15.815464 7.0470005,15.455808 6.9924534,15.424079 7.2336222,15.943697 7.971006,16.537598 8.3571225,16.516663 8.178478,16.458263 7.9514839,16.372699 7.7507376,16.22541 7.6664706,16.15138 7.551779,16.019696 7.5722261,16.010342 c 0.5269639,0.38867 1.0713235,0.53907 1.5272136,0.339505 0.1160208,-0.04813 0.2427366,-0.155664 0.2793372,-0.144471 -0.055141,0.06283 0.00942,0.04327 -0.032967,0.101036 0.115625,-0.144307 -0.050191,-0.09414 0.1194775,-0.27843 l 0.062641,0.109124 c -0.0233,-0.163172 0.1922095,-0.272641 0.1703563,-0.52529 0.049375,-0.05687 0.055116,0.100562 0.00267,0.253644 0.0728,-0.164496 0.019225,-0.214653 0.03795,-0.365428 0.020275,0.06033 0.046666,0.126219 0.060308,0.18708 -0.047366,-0.201777 0.048658,-0.293116 0.072416,-0.391742 -0.023433,-0.01897 -0.073199,0.05495 -0.084577,-0.167208 0.00167,-0.0941 0.026383,-0.04 0.035875,-0.05985 -0.018575,-0.01752 -0.067374,-0.107774 -0.097012,-0.257813 0.021491,-0.02489 0.057516,0.105749 0.086769,0.121224 -0.018842,-0.117574 -0.051233,-0.213748 -0.052583,-0.299162 -0.085517,-0.209849 -0.030266,0.01277 -0.099598,-0.113012 -0.091029,-0.31705 0.075533,-0.03838 0.086769,-0.163287 C 9.8852736,14.606381 9.9639222,14.944762 10,15.08619 9.9724422,14.919714 9.9279175,14.752 9.8735387,14.585584 c 0.041925,0.0329 -0.067483,-0.346447 0.0545,-0.07723 -0.1302199,-0.526682 -0.5574643,-1.130032 -0.9505321,-1.483242 0.0481,0.06151 0.1088318,0.138874 0.087016,0.139579 C 8.8690142,12.977161 8.9033988,12.980631 8.8753762,12.921261 8.7161538,12.798533 8.7056589,12.864626 8.6001876,12.821197 8.3000726,12.552774 8.242268,12.548665 7.9660237,12.348349 l 0.0125,0.06328 C 7.7797029,12.27304 7.7468723,12.352412 7.5319511,12.249293 c -0.013092,-0.01509 0.068842,-0.01187 0.136324,0.0029 -0.1922471,-0.04462 -0.18326,-0.104574 -0.3713779,-0.128279 0.046363,-0.01563 0.095366,-0.01928 0.1448253,-0.02898 z m 0.1554674,0.09261 c 0.055021,0.02987 0.1189291,0.06077 0.1099479,0.07064 0.06017,0.0086 0.073843,0.0015 -0.1099479,-0.07064 z m 0.1099479,0.07064 -0.038929,-0.0062 0.036228,0.01 z m -2.5374458,0.297998 c -5.47e-5,0.0033 2.278e-4,0.0062 7.357e-4,0.0086 -2.087e-4,-0.0028 -4.26e-4,-0.0057 -7.357e-4,-0.0086 z m 7.357e-4,0.0086 c 0.010425,0.146281 -0.1100105,0.156151 0.027598,0.110036 0.071139,-0.134329 -0.018627,-0.06584 -0.027598,-0.110036 z m -0.1150829,0.422019 c -0.089267,0.08165 -0.041062,0.123512 -0.050486,0.197734 0.032304,-0.08741 0.038143,-0.144828 0.050486,-0.197734 z m 3.6750697,2.027103 c -0.012772,-0.0043 -0.029128,0.02214 -0.037357,0.05457 0.019172,0.01698 0.034421,0.143429 0.053028,0.0754 0.00622,-0.0906 -0.00293,-0.125665 -0.015685,-0.129981 z m 1.1275627,0.723334 c -1.58e-5,1.2e-4 -2.5e-5,2.5e-4 -5e-5,3.71e-4 l 1.517e-4,-3.35e-4 z m -5e-5,3.71e-4 -0.014983,0.03215 C 9.8150066,15.956915 9.7550187,16.130315 9.6630644,16.277841 9.7645011,16.12391 9.830259,15.939089 9.8577872,15.737594 Z M 8.6635135,15.372038 c -0.013792,0.06338 -0.050885,0.108961 -0.085882,0.158536 -0.1927679,0.05118 -0.018142,-0.07869 -1.043e-4,-0.145643 -0.2072463,0.18546 -0.028463,0.146083 -0.035986,0.216193 0.06142,-0.06237 0.1061742,-0.138916 0.1219804,-0.229086 z M 8.243213,15.617382 c -0.083841,-0.01 -0.1691244,-0.04059 -0.2551245,-0.07977 -0.1031267,-0.03606 0.019492,0.06024 0.1540989,0.12996 0.0372,-0.01549 0.070978,-0.03262 0.101028,-0.05022 z M 6.9418198,15.157083 c 0.022731,0.0919 0.069274,0.180671 0.1125992,0.26954 L 7.0226634,15.321511 C 6.986792,15.26877 6.9655796,15.213312 6.9418065,15.157082 Z m -0.079342,0.112374 -0.01439,0.06707 c 0.067742,0.116728 0.1215056,0.23607 0.2080511,0.339542 C 6.993896,15.53183 6.9476459,15.464775 6.8625394,15.269476 Z" />
  <path
     id="rect1571"
     style="fill:url(#linearGradient2098);fill-opacity:1;stroke-width:0.237575"
     d="M 14,7.000001 18,6.0000013 V 20 l -4,1 z"
     sodipodi:nodetypes="ccccc" />
  <path
     id="rect4424"
     style="fill:url(#linearGradient2080);fill-opacity:1;stroke-width:0.27586"
     d="m 18,6 h 3 l -3,1 -4,1e-6 z"
     sodipodi:nodetypes="ccccc" />
  <path
     id="rect4774"
     style="fill:url(#linearGradient2078);fill-opacity:1;stroke-width:0.248092"
     d="M 10,0.99999995 20,4.0000013 18,6 8.0000002,3 Z"
     sodipodi:nodetypes="ccccc" />
</svg>
