<?xml version="1.0" encoding="UTF-8" standalone="no"?>
<!-- Created with Inkscape (http://www.inkscape.org/) -->

<svg
   width="22"
   height="22"
   viewBox="0 0 22 22.000001"
   version="1.1"
   id="svg5"
   inkscape:version="1.2.1 (9c6d41e410, 2022-07-14, custom)"
   sodipodi:docname="application-x-trash.svg"
   xmlns:inkscape="http://www.inkscape.org/namespaces/inkscape"
   xmlns:sodipodi="http://sodipodi.sourceforge.net/DTD/sodipodi-0.dtd"
   xmlns="http://www.w3.org/2000/svg"
   xmlns:svg="http://www.w3.org/2000/svg">
  <sodipodi:namedview
     id="namedview7"
     pagecolor="#ffffff"
     bordercolor="#000000"
     borderopacity="0.25"
     inkscape:showpageshadow="2"
     inkscape:pageopacity="0.0"
     inkscape:pagecheckerboard="0"
     inkscape:deskcolor="#d1d1d1"
     inkscape:document-units="px"
     showgrid="false"
     inkscape:zoom="37.590909"
     inkscape:cx="10.281741"
     inkscape:cy="11.026602"
     inkscape:window-width="1920"
     inkscape:window-height="1029"
     inkscape:window-x="0"
     inkscape:window-y="0"
     inkscape:window-maximized="1"
     inkscape:current-layer="svg5" />
  <defs
     id="defs2" />
  <path
     id="rect234"
     style="fill:#7d7d7b"
     d="M 3,0 H 15.5 L 19,3.5 V 22 H 3 Z"
     sodipodi:nodetypes="cccccc" />
  <path
     id="rect1746"
     style="fill:#fafafa"
     d="m 4,1 h 10 v 4 h 4 V 21 H 4 Z"
     sodipodi:nodetypes="ccccccc" />
  <path
     id="rect1800"
     style="fill:#fafafa;stroke-width:0.75"
     d="m 15,1 3,3.0000008 h -3 z"
     sodipodi:nodetypes="cccc" />
  <path
     d="m 9.894745,8.0000027 c -0.462387,0 -0.840935,0.2198286 -1.0723644,0.6222115 l -0.7022358,1.4100908 1.9927862,1.101133 1.010947,-1.946884 0.589613,-1.1865513 z"
     style="fill:#0068ba;fill-opacity:1;stroke-width:0.12599"
     id="path138735"
     sodipodi:nodetypes="scccccs" />
  <path
     d="m 10.284915,8.0000027 1.632716,2.9241183 -0.816595,0.46317 2.60044,0.946483 1.03754,-2.872469 -0.803572,0.475262 -0.851505,-1.6184819 C 12.96155,8.1104643 12.754005,8 12.485909,8 Z"
     style="fill:#0091e6;fill-opacity:1;stroke-width:0.12599"
     id="path142126"
     sodipodi:nodetypes="cccccccsc" />
  <path
     d="m 15.88194,13.902724 -0.752293,-1.384033 -2.045011,1.00081 1.014939,1.944806 0.653507,1.428309 1.11947,-2.37329 c 0.135005,-0.287966 0.08329,-0.484988 0.0094,-0.616602 z"
     style="fill:#0068ba;fill-opacity:1;stroke-width:0.12599"
     id="path138735-0"
     sodipodi:nodetypes="ccccccc" />
  <path
     d="m 15.638504,15.013956 -2.883729,-0.0038 0.0072,-0.938779 -2.049272,2.020158 2.047141,2.093419 -0.0098,-0.933546 h 1.428577 c 0.240995,-0.0022 0.439401,-0.127291 0.574482,-0.35887 z"
     style="fill:#0091e6;fill-opacity:1;stroke-width:0.12599"
     id="path142126-6"
     sodipodi:nodetypes="ccccccccc" />
  <path
     d="m 7.3695499,16.845491 c 0.187714,0.311984 0.3836039,0.327314 0.5469713,0.347228 l 2.0112488,1.77e-4 v -2.405597 l -2.5562774,0.0023 -1.1293667,0.01421 z"
     style="fill:#0068ba;fill-opacity:1;stroke-width:0.12599"
     id="path146733"
     sodipodi:nodetypes="ccccccc" />
  <path
     d="M 7.2879983,16.696652 8.8217748,13.75741 9.651166,14.197259 8.7361503,11.495682 5.934,12.344884 6.7665917,12.767253 6.1069481,14.034416 c -0.1093493,0.214775 -0.079302,0.442133 0.053076,0.67528 z"
     style="fill:#0091e6;fill-opacity:1;stroke-width:0.12599"
     id="path146730"
     sodipodi:nodetypes="cccccccsc" />
</svg>
