<?xml version="1.0" encoding="UTF-8" standalone="no"?>
<!-- Created with Inkscape (http://www.inkscape.org/) -->

<svg
   width="22"
   height="22"
   viewBox="0 0 22 22.000001"
   version="1.1"
   id="svg5"
   inkscape:version="1.2.1 (9c6d41e410, 2022-07-14, custom)"
   sodipodi:docname="application-vnd.ms-word.template.macroenabled.12.svg"
   xmlns:inkscape="http://www.inkscape.org/namespaces/inkscape"
   xmlns:sodipodi="http://sodipodi.sourceforge.net/DTD/sodipodi-0.dtd"
   xmlns="http://www.w3.org/2000/svg"
   xmlns:svg="http://www.w3.org/2000/svg">
  <sodipodi:namedview
     id="namedview7"
     pagecolor="#ffffff"
     bordercolor="#000000"
     borderopacity="0.25"
     inkscape:showpageshadow="2"
     inkscape:pageopacity="0.0"
     inkscape:pagecheckerboard="0"
     inkscape:deskcolor="#d1d1d1"
     inkscape:document-units="px"
     showgrid="false"
     inkscape:zoom="36.727273"
     inkscape:cx="11"
     inkscape:cy="11"
     inkscape:window-width="1920"
     inkscape:window-height="1010"
     inkscape:window-x="0"
     inkscape:window-y="0"
     inkscape:window-maximized="1"
     inkscape:current-layer="svg5" />
  <defs
     id="defs2" />
  <path
     id="rect846"
     style="fill:#7d7d7b;stroke-width:0.999999;stroke-linecap:round;stroke-linejoin:round"
     d="m 3.0000002,0 16.9999968,0.9999994 4e-6,20.9999996 H 5.0000003 v -2 H 3.0000002 Z"
     sodipodi:nodetypes="ccccccc" />
  <path
     id="rect1454"
     style="fill:#fafafa;stroke-width:0.999999;stroke-linecap:round;stroke-linejoin:round"
     d="M 3.9999999,1.0000002 V 19 H 17 V 1.0000002 Z M 18,1.0000002 V 20 H 17 5.9999998 v 1 H 19 V 1.0000002 Z"
     sodipodi:nodetypes="ccccccccccccc" />
  <rect
     style="fill:#1859bb;fill-opacity:1;stroke-width:1.41421;stroke-linecap:round"
     id="rect341"
     width="6"
     height="1"
     x="10"
     y="13" />
  <rect
     style="fill:#2b7cd3;fill-opacity:1;stroke-width:1.41421;stroke-linecap:round"
     id="rect343"
     width="6"
     height="1"
     x="10"
     y="11" />
  <rect
     style="fill:#41a5ee;fill-opacity:1;stroke-width:1.41421;stroke-linecap:round"
     id="rect345"
     width="6"
     height="1"
     x="10"
     y="9" />
  <rect
     style="fill:#1859bb;fill-opacity:1;stroke-width:1.28571;stroke-linecap:round"
     id="rect347"
     width="9"
     height="9"
     x="0"
     y="7"
     ry="1" />
  <path
     id="rect349"
     style="fill:#ffffff;stroke-linecap:round"
     d="M 1,8.0000003 2.4999998,15 H 3.5000002 L 4.5000004,11 5.5,15 h 1 L 8,8.0000003 H 7 L 6,13 4.7500004,8.0000003 h -0.5 L 3,13 2,8.0000003 Z"
     sodipodi:nodetypes="cccccccccccccc" />
  <rect
     style="fill:#41a5ee;fill-opacity:1;stroke-width:0.936281;stroke-linecap:round;stroke-linejoin:round"
     id="rect6964"
     width="15"
     height="4"
     x="3"
     y="2.2752701e-07" />
  <path
     id="rect13579"
     style="fill:#2b7cd3;fill-opacity:1;stroke-width:1.41009;stroke-linecap:round;stroke-linejoin:round"
     d="M 18,0 V 0.99999991 L 20,2.0000002 V 0.99999981 Z M 3.0000007,3 V 4 H 18 V 3 Z"
     sodipodi:nodetypes="cccccccccc" />
</svg>
