<?xml version="1.0" encoding="UTF-8" standalone="no"?>
<!-- Created with Inkscape (http://www.inkscape.org/) -->

<svg
   width="22"
   height="22"
   viewBox="0 0 22 22.000001"
   version="1.1"
   id="svg5"
   inkscape:version="1.2.1 (9c6d41e410, 2022-07-14, custom)"
   sodipodi:docname="application-vnd.ms-access.svg"
   xmlns:inkscape="http://www.inkscape.org/namespaces/inkscape"
   xmlns:sodipodi="http://sodipodi.sourceforge.net/DTD/sodipodi-0.dtd"
   xmlns="http://www.w3.org/2000/svg"
   xmlns:svg="http://www.w3.org/2000/svg">
  <sodipodi:namedview
     id="namedview7"
     pagecolor="#ffffff"
     bordercolor="#000000"
     borderopacity="0.25"
     inkscape:showpageshadow="2"
     inkscape:pageopacity="0.0"
     inkscape:pagecheckerboard="0"
     inkscape:deskcolor="#d1d1d1"
     inkscape:document-units="px"
     showgrid="false"
     inkscape:zoom="36.454545"
     inkscape:cx="10.300499"
     inkscape:cy="11"
     inkscape:window-width="1920"
     inkscape:window-height="1011"
     inkscape:window-x="0"
     inkscape:window-y="0"
     inkscape:window-maximized="1"
     inkscape:current-layer="svg5" />
  <defs
     id="defs2" />
  <path
     id="rect234"
     style="fill:#7d7d7b"
     d="M 4,0 H 16.5 L 20,3.5 V 22 H 4 Z"
     sodipodi:nodetypes="cccccc" />
  <path
     id="rect1746"
     style="fill:#fafafa"
     d="m 5,1 h 10 v 4 h 4 V 21 H 5 Z"
     sodipodi:nodetypes="ccccccc" />
  <path
     id="rect1800"
     style="fill:#fafafa;stroke-width:0.75"
     d="m 16,1 3,3.0000008 h -3 z"
     sodipodi:nodetypes="cccc" />
  <rect
     style="fill:#af2031;fill-opacity:1;stroke-width:1.28571;stroke-linecap:round"
     id="rect347"
     width="9"
     height="9"
     x="0"
     y="7"
     ry="1" />
  <path
     id="rect445"
     style="fill:#c94f60;fill-opacity:1;stroke-linecap:round;stroke-linejoin:round"
     d="m 16,9.0000003 v 5.0000007 h -6 v 1 h 6 c 0.553998,0 1,-0.446002 1,-1 V 9.0000003 Z"
     sodipodi:nodetypes="ccccsscc" />
  <path
     id="rect346"
     style="fill:#e08095;fill-opacity:1;stroke-linecap:round;stroke-linejoin:round"
     d="m 10,8.0000006 h 6 c 0.554,0 1,0.446 1,0.9999997 v 1.0000007 h -7 z"
     sodipodi:nodetypes="cssccc" />
  <path
     id="rect6257"
     style="fill:#ffffff;stroke-linecap:round;stroke-linejoin:round"
     d="M 4 8 L 1 15 L 2 15 L 2.8574219 13 L 6.1425781 13 L 7 15 L 8 15 L 5 8 L 4 8 z M 4.5 9.1660156 L 5.7148438 12 L 3.2851562 12 L 4.5 9.1660156 z " />
</svg>
