<?xml version="1.0" encoding="UTF-8" standalone="no"?>
<!-- Created with Inkscape (http://www.inkscape.org/) -->

<svg
   width="22"
   height="22"
   viewBox="0 0 22 22.000001"
   version="1.1"
   id="svg5"
   inkscape:version="1.2.2 (1:1.2.2+202305151914+b0a8486541)"
   sodipodi:docname="application-x-iso9660-appimage.svg"
   xmlns:inkscape="http://www.inkscape.org/namespaces/inkscape"
   xmlns:sodipodi="http://sodipodi.sourceforge.net/DTD/sodipodi-0.dtd"
   xmlns:xlink="http://www.w3.org/1999/xlink"
   xmlns="http://www.w3.org/2000/svg"
   xmlns:svg="http://www.w3.org/2000/svg">
  <sodipodi:namedview
     id="namedview7"
     pagecolor="#ffffff"
     bordercolor="#000000"
     borderopacity="0.25"
     inkscape:showpageshadow="2"
     inkscape:pageopacity="0.0"
     inkscape:pagecheckerboard="0"
     inkscape:deskcolor="#d1d1d1"
     inkscape:document-units="px"
     showgrid="false"
     inkscape:zoom="37.727273"
     inkscape:cx="10.986747"
     inkscape:cy="11"
     inkscape:window-width="1920"
     inkscape:window-height="1008"
     inkscape:window-x="0"
     inkscape:window-y="0"
     inkscape:window-maximized="1"
     inkscape:current-layer="svg5" />
  <defs
     id="defs2">
    <linearGradient
       inkscape:collect="always"
       xlink:href="#linearGradient984"
       id="linearGradient7728"
       x1="3.2308109"
       y1="2.3813164"
       x2="3.1946909"
       y2="5.3985844"
       gradientUnits="userSpaceOnUse"
       gradientTransform="matrix(3.2401762,0,0,3.2401762,-0.21347737,0.28454544)" />
    <linearGradient
       inkscape:collect="always"
       id="linearGradient984">
      <stop
         style="stop-color:#26b4eb;stop-opacity:1;"
         offset="0"
         id="stop980" />
      <stop
         style="stop-color:#017adc;stop-opacity:1"
         offset="1"
         id="stop982" />
    </linearGradient>
  </defs>
  <path
     id="rect234"
     style="fill:#7d7d7b"
     d="M 3,0 H 15.5 L 19,3.5 V 22 H 3 Z"
     sodipodi:nodetypes="cccccc" />
  <path
     id="rect1746"
     style="fill:#fafafa"
     d="m 4,1 h 10 v 4 h 4 V 21 H 4 Z"
     sodipodi:nodetypes="ccccccc" />
  <path
     id="rect1800"
     style="fill:#fafafa;stroke-width:0.75"
     d="m 15,1 3,3.0000008 h -3 z"
     sodipodi:nodetypes="cccc" />
  <path
     id="path7172"
     style="color:#000000;fill:url(#linearGradient7728);fill-opacity:1;stroke-width:2.69904;stroke-linecap:round;stroke-linejoin:round"
     d="M 10.255859,8 C 9.9189511,8.0147147 9.634019,8.2656461 9.5800781,8.6015625 l -0.25,1.5097655 L 7.9003906,9.5742188 C 7.5741171,9.4497691 7.2056068,9.5794353 7.0292969,9.8808594 L 6.3144531,11.119141 c -0.1761204,0.30384 -0.1064407,0.690512 0.1660157,0.912109 L 7.6601562,13 6.4765625,13.976562 C 6.2086136,14.197842 6.1400869,14.579137 6.3125,14.880859 l 0.7128906,1.238282 c 0.1738615,0.303182 0.5416642,0.434606 0.8691406,0.3125 L 9.328125,15.894531 9.5800781,17.40625 C 9.6380721,17.750906 9.9376107,18.001024 10.287109,18 h 1.427735 c 0.347506,-0.0015 0.643513,-0.251059 0.701172,-0.59375 l 0.251953,-1.511719 1.435547,0.53711 c 0.327476,0.122107 0.695277,-0.0093 0.86914,-0.3125 L 15.6875,14.880859 c 0.172413,-0.301721 0.10193,-0.683018 -0.166016,-0.904297 L 14.339844,13 15.519531,12.03125 c 0.272459,-0.221597 0.342135,-0.60827 0.166016,-0.912109 L 14.970703,9.8808594 C 14.794392,9.5794328 14.425882,9.4497676 14.099609,9.5742188 L 12.667969,10.111328 12.416016,8.6015625 C 12.360657,8.2567763 12.06404,8.001977 11.714844,8 h -1.427735 c -0.01098,-1.9e-5 -0.02037,-4.745e-4 -0.03125,0 z"
     sodipodi:nodetypes="cccccccccccccccccccccccccccccccc" />
  <path
     id="rect1034"
     style="fill:#ffffff;stroke-linecap:square;stroke-linejoin:bevel"
     d="m 11,10 c 0.554,0 1,0.446 1,1 v 3 h 1 l -2,2 -2,-2 h 1 v -3 c 0,-0.554 0.446,-1 1,-1 z"
     sodipodi:nodetypes="sscccccss" />
</svg>
