<?xml version="1.0" encoding="UTF-8" standalone="no"?>
<!-- Created with Inkscape (http://www.inkscape.org/) -->

<svg
   width="22"
   height="22"
   viewBox="0 0 22 22.000001"
   version="1.1"
   id="svg5"
   inkscape:version="1.2.1 (9c6d41e410, 2022-07-14, custom)"
   sodipodi:docname="application-vnd.ms-excel.template.macroenabled.12.svg"
   xmlns:inkscape="http://www.inkscape.org/namespaces/inkscape"
   xmlns:sodipodi="http://sodipodi.sourceforge.net/DTD/sodipodi-0.dtd"
   xmlns="http://www.w3.org/2000/svg"
   xmlns:svg="http://www.w3.org/2000/svg">
  <sodipodi:namedview
     id="namedview7"
     pagecolor="#ffffff"
     bordercolor="#000000"
     borderopacity="0.25"
     inkscape:showpageshadow="2"
     inkscape:pageopacity="0.0"
     inkscape:pagecheckerboard="0"
     inkscape:deskcolor="#d1d1d1"
     inkscape:document-units="px"
     showgrid="false"
     inkscape:zoom="36.727273"
     inkscape:cx="11"
     inkscape:cy="11"
     inkscape:window-width="1920"
     inkscape:window-height="1010"
     inkscape:window-x="0"
     inkscape:window-y="0"
     inkscape:window-maximized="1"
     inkscape:current-layer="svg5" />
  <defs
     id="defs2" />
  <path
     id="rect846"
     style="fill:#7d7d7b;stroke-width:0.999999;stroke-linecap:round;stroke-linejoin:round"
     d="m 3.0000002,0 16.9999968,0.9999994 4e-6,20.9999996 H 5.0000003 v -2 H 3.0000002 Z"
     sodipodi:nodetypes="ccccccc" />
  <path
     id="rect1454"
     style="fill:#fafafa;stroke-width:0.999999;stroke-linecap:round;stroke-linejoin:round"
     d="M 3.9999999,1.0000002 V 19 H 17 V 1.0000002 Z M 18,1.0000002 V 20 H 17 5.9999998 v 1 H 19 V 1.0000002 Z"
     sodipodi:nodetypes="ccccccccccccc" />
  <rect
     style="fill:#41be68;fill-opacity:1;stroke-width:0.936281;stroke-linecap:round;stroke-linejoin:round"
     id="rect6964"
     width="15"
     height="4"
     x="3"
     y="2.2752701e-07" />
  <path
     id="rect13579"
     style="fill:#0c7c42;fill-opacity:1;stroke-width:1.41009;stroke-linecap:round;stroke-linejoin:round"
     d="M 18,0 V 0.99999991 L 20,2.0000002 V 0.99999981 Z M 3.0000007,3 V 4 H 18 V 3 Z"
     sodipodi:nodetypes="cccccccccc" />
  <rect
     style="fill:#185c37;fill-opacity:1;stroke-width:2.16024;stroke-linecap:round"
     id="rect341"
     width="2"
     height="1"
     x="10"
     y="13" />
  <rect
     style="fill:#107c41;fill-opacity:1;stroke-width:2.16024;stroke-linecap:round"
     id="rect343"
     width="2"
     height="1"
     x="10"
     y="11" />
  <rect
     style="fill:#21a366;fill-opacity:1;stroke-width:0.816497;stroke-linecap:round"
     id="rect345"
     width="2"
     height="1"
     x="10"
     y="9" />
  <rect
     style="fill:#6dc898;fill-opacity:1;stroke-width:2.04939"
     id="rect518"
     width="3"
     height="1"
     x="13"
     y="9" />
  <rect
     style="fill:#4fae7f;fill-opacity:1;stroke-width:2.04939"
     id="rect520"
     width="3"
     height="1"
     x="13"
     y="11" />
  <rect
     style="fill:#134a2c;fill-opacity:1;stroke-width:2.04939"
     id="rect522"
     width="3"
     height="1"
     x="13"
     y="13" />
  <rect
     style="fill:#3f8858;fill-opacity:1;stroke-width:1.28571;stroke-linecap:round"
     id="rect347"
     width="9"
     height="9"
     x="0"
     y="7"
     ry="1" />
  <path
     id="rect1620"
     style="fill:#ffffff"
     d="M 2,8.0000001 4,11.5 2,15 H 3 L 4.5,12.375 6,15 H 7 L 5,11.5 7,8.0000001 H 6 L 4.5,10.625 3,8.0000001 Z" />
</svg>
