<?xml version="1.0" encoding="UTF-8" standalone="no"?>
<!-- Created with Inkscape (http://www.inkscape.org/) -->

<svg
   width="22"
   height="22"
   viewBox="0 0 22 22.000001"
   version="1.1"
   id="svg5"
   inkscape:version="1.2.1 (9c6d41e410, 2022-07-14, custom)"
   sodipodi:docname="application-octet-stream.svg"
   xmlns:inkscape="http://www.inkscape.org/namespaces/inkscape"
   xmlns:sodipodi="http://sodipodi.sourceforge.net/DTD/sodipodi-0.dtd"
   xmlns="http://www.w3.org/2000/svg"
   xmlns:svg="http://www.w3.org/2000/svg">
  <sodipodi:namedview
     id="namedview7"
     pagecolor="#ffffff"
     bordercolor="#000000"
     borderopacity="0.25"
     inkscape:showpageshadow="2"
     inkscape:pageopacity="0.0"
     inkscape:pagecheckerboard="0"
     inkscape:deskcolor="#d1d1d1"
     inkscape:document-units="px"
     showgrid="false"
     inkscape:zoom="36.454545"
     inkscape:cx="11"
     inkscape:cy="11"
     inkscape:window-width="1920"
     inkscape:window-height="1011"
     inkscape:window-x="0"
     inkscape:window-y="0"
     inkscape:window-maximized="1"
     inkscape:current-layer="svg5" />
  <defs
     id="defs2" />
  <path
     id="rect234"
     style="fill:#7d7d7b"
     d="M 3,0 H 15.5 L 19,3.5 V 22 H 3 Z"
     sodipodi:nodetypes="cccccc" />
  <path
     id="rect1746"
     style="fill:#fafafa"
     d="m 4,1 h 10 v 4 h 4 V 21 H 4 Z"
     sodipodi:nodetypes="ccccccc" />
  <path
     id="rect1800"
     style="fill:#fafafa;stroke-width:0.75"
     d="m 15,1 3,3.0000008 h -3 z"
     sodipodi:nodetypes="cccc" />
  <path
     id="rect233"
     style="fill:#b4b4b4;stroke-width:1.11803;stroke-linecap:round;stroke-linejoin:round"
     d="M 7.5 6 C 7.000001 6.6101054 6.6689586 6.6833987 6 7 L 6 8 C 6.4099688 7.8928974 6.6666673 7.6666663 7 7.5 L 7 12 L 8 12 L 8 6 L 7.5 6 z M 11 6 A 2 3 0 0 0 9 9 A 2 3 0 0 0 11 12 A 2 3 0 0 0 13 9 A 2 3 0 0 0 11 6 z M 16 6 A 2 3 0 0 0 14 9 A 2 3 0 0 0 16 12 A 2 3 0 0 0 18 9 A 2 3 0 0 0 16 6 z M 11 7 A 1 2 0 0 1 12 9 A 1 2 0 0 1 11 11 A 1 2 0 0 1 10 9 A 1 2 0 0 1 11 7 z M 16 7 A 1 2 0 0 1 17 9 A 1 2 0 0 1 16 11 A 1 2 0 0 1 15 9 A 1 2 0 0 1 16 7 z M 7 13 A 2 3 0 0 0 5 16 A 2 3 0 0 0 7 19 A 2 3 0 0 0 9 16 A 2 3 0 0 0 7 13 z M 11.5 13 C 11.000001 13.610105 10.668959 13.683398 10 14 L 10 15 C 10.40997 14.892897 10.666667 14.666667 11 14.5 L 11 19 L 12 19 L 12 13 L 11.5 13 z M 16 13 A 2 3 0 0 0 14 16 A 2 3 0 0 0 16 19 A 2 3 0 0 0 18 16 A 2 3 0 0 0 16 13 z M 7 14 A 1 2 0 0 1 8 16 A 1 2 0 0 1 7 18 A 1 2 0 0 1 6 16 A 1 2 0 0 1 7 14 z M 16 14 A 1 2 0 0 1 17 16 A 1 2 0 0 1 16 18 A 1 2 0 0 1 15 16 A 1 2 0 0 1 16 14 z " />
</svg>
