<?xml version="1.0" encoding="UTF-8" standalone="no"?>
<!-- Created with Inkscape (http://www.inkscape.org/) -->

<svg
   width="22"
   height="22"
   viewBox="0 0 22 22.000001"
   version="1.1"
   id="svg5"
   inkscape:version="1.2.1 (9c6d41e410, 2022-07-14, custom)"
   sodipodi:docname="application-x-desktop.svg"
   xmlns:inkscape="http://www.inkscape.org/namespaces/inkscape"
   xmlns:sodipodi="http://sodipodi.sourceforge.net/DTD/sodipodi-0.dtd"
   xmlns:xlink="http://www.w3.org/1999/xlink"
   xmlns="http://www.w3.org/2000/svg"
   xmlns:svg="http://www.w3.org/2000/svg">
  <sodipodi:namedview
     id="namedview7"
     pagecolor="#ffffff"
     bordercolor="#000000"
     borderopacity="0.25"
     inkscape:showpageshadow="2"
     inkscape:pageopacity="0.0"
     inkscape:pagecheckerboard="0"
     inkscape:deskcolor="#d1d1d1"
     inkscape:document-units="px"
     showgrid="false"
     inkscape:zoom="38.772727"
     inkscape:cx="11"
     inkscape:cy="11"
     inkscape:window-width="1920"
     inkscape:window-height="1029"
     inkscape:window-x="0"
     inkscape:window-y="0"
     inkscape:window-maximized="1"
     inkscape:current-layer="svg5" />
  <defs
     id="defs2">
    <linearGradient
       inkscape:collect="always"
       xlink:href="#linearGradient239772"
       id="linearGradient7728"
       x1="3.2308109"
       y1="2.3813164"
       x2="3.1946909"
       y2="5.3985844"
       gradientUnits="userSpaceOnUse"
       gradientTransform="matrix(3.2401762,0,0,3.2401762,-0.21347737,0.28454544)" />
    <linearGradient
       inkscape:collect="always"
       id="linearGradient239772">
      <stop
         style="stop-color:#aeb7bc;stop-opacity:1;"
         offset="0"
         id="stop239768" />
      <stop
         style="stop-color:#959ea5;stop-opacity:1"
         offset="1"
         id="stop239770" />
    </linearGradient>
  </defs>
  <path
     id="rect234"
     style="fill:#7d7d7b"
     d="M 3,0 H 15.5 L 19,3.5 V 22 H 3 Z"
     sodipodi:nodetypes="cccccc" />
  <path
     id="rect1746"
     style="fill:#fafafa"
     d="m 4,1 h 10 v 4 h 4 V 21 H 4 Z"
     sodipodi:nodetypes="ccccccc" />
  <path
     id="rect1800"
     style="fill:#fafafa;stroke-width:0.75"
     d="m 15,1 3,3.0000008 h -3 z"
     sodipodi:nodetypes="cccc" />
  <path
     id="path7172"
     style="color:#000000;fill:url(#linearGradient7728);fill-opacity:1;stroke-width:2.69904;stroke-linecap:round;stroke-linejoin:round"
     d="M 10.255859 8 C 9.9189511 8.0147147 9.634019 8.2656461 9.5800781 8.6015625 L 9.3300781 10.111328 L 7.9003906 9.5742188 C 7.5741171 9.4497691 7.2056068 9.5794353 7.0292969 9.8808594 L 6.3144531 11.119141 C 6.1383327 11.422981 6.2080124 11.809653 6.4804688 12.03125 L 7.6601562 13 L 6.4765625 13.976562 C 6.2086136 14.197842 6.1400869 14.579137 6.3125 14.880859 L 7.0253906 16.119141 C 7.1992521 16.422323 7.5670548 16.553747 7.8945312 16.431641 L 9.328125 15.894531 L 9.5800781 17.40625 C 9.6380721 17.750906 9.9376107 18.001024 10.287109 18 L 11.714844 18 C 12.06235 17.9985 12.358357 17.748941 12.416016 17.40625 L 12.667969 15.894531 L 14.103516 16.431641 C 14.430992 16.553748 14.798793 16.422333 14.972656 16.119141 L 15.6875 14.880859 C 15.859913 14.579138 15.78943 14.197841 15.521484 13.976562 L 14.339844 13 L 15.519531 12.03125 C 15.79199 11.809653 15.861666 11.42298 15.685547 11.119141 L 14.970703 9.8808594 C 14.794392 9.5794328 14.425882 9.4497676 14.099609 9.5742188 L 12.667969 10.111328 L 12.416016 8.6015625 C 12.360657 8.2567763 12.06404 8.001977 11.714844 8 L 10.287109 8 C 10.276129 7.999981 10.266739 7.9995255 10.255859 8 z M 11 11 C 12.104567 11 13 11.895432 13 13 C 13 14.104565 12.104567 15 11 15 C 9.895432 15 9 14.104565 9 13 C 9 11.895432 9.895432 11 11 11 z " />
</svg>
