<?xml version="1.0" encoding="UTF-8" standalone="no"?>
<!-- Created with Inkscape (http://www.inkscape.org/) -->

<svg
   width="22"
   height="22"
   viewBox="0 0 22 22.000001"
   version="1.1"
   id="svg5"
   inkscape:version="1.2.1 (9c6d41e410, 2022-07-14, custom)"
   sodipodi:docname="application-vnd.ms-powerpoint.svg"
   xmlns:inkscape="http://www.inkscape.org/namespaces/inkscape"
   xmlns:sodipodi="http://sodipodi.sourceforge.net/DTD/sodipodi-0.dtd"
   xmlns="http://www.w3.org/2000/svg"
   xmlns:svg="http://www.w3.org/2000/svg">
  <sodipodi:namedview
     id="namedview7"
     pagecolor="#ffffff"
     bordercolor="#000000"
     borderopacity="0.25"
     inkscape:showpageshadow="2"
     inkscape:pageopacity="0.0"
     inkscape:pagecheckerboard="0"
     inkscape:deskcolor="#d1d1d1"
     inkscape:document-units="px"
     showgrid="false"
     inkscape:zoom="36.727273"
     inkscape:cx="11"
     inkscape:cy="11"
     inkscape:window-width="1920"
     inkscape:window-height="1010"
     inkscape:window-x="0"
     inkscape:window-y="0"
     inkscape:window-maximized="1"
     inkscape:current-layer="svg5" />
  <defs
     id="defs2" />
  <path
     id="rect234"
     style="fill:#7d7d7b"
     d="M 4,0 H 16.5 L 20,3.5 V 22 H 4 Z"
     sodipodi:nodetypes="cccccc" />
  <path
     id="rect1746"
     style="fill:#fafafa"
     d="m 5,1 h 10 v 4 h 4 V 21 H 5 Z"
     sodipodi:nodetypes="ccccccc" />
  <path
     id="rect1800"
     style="fill:#fafafa;stroke-width:0.75"
     d="m 16,1 3,3.0000008 h -3 z"
     sodipodi:nodetypes="cccc" />
  <rect
     style="fill:#cb3a22;fill-opacity:1;stroke-width:1.28571;stroke-linecap:round"
     id="rect347"
     width="9"
     height="9"
     x="0"
     y="7"
     ry="1" />
  <path
     id="path344"
     style="fill:#f1ab69;fill-opacity:1;stroke-width:1;stroke-linecap:round"
     d="m 14,8 v 3 h 3 A 2.9999995,2.9999995 0 0 0 14,8 Z" />
  <path
     id="rect1758"
     style="fill:#ffffff;fill-opacity:1;stroke-linecap:round"
     d="m 3,8 v 7 H 4 V 12 H 5 C 6.1079945,12 7,11.107995 7,10 7,8.8920055 6.1079945,8 5,8 H 4 Z m 1,1 h 1 c 0.553997,0 1,0.446003 1,1 0,0.553995 -0.446003,1 -1,1 H 4 Z" />
  <path
     id="path345"
     style="fill:#e77d57;fill-opacity:1;stroke-width:1.19989"
     d="m 13,9 a 3,3 0 0 0 -3,3 3,3 0 0 0 3,3 3,3 0 0 0 3,-3 h -3 z" />
  <path
     id="path649"
     style="fill:#ed6c47;stroke-width:1.5;fill-opacity:1"
     d="m 10,12 a 3,3 0 0 0 3,3 3,3 0 0 0 3,-3 z" />
</svg>
