<?xml version="1.0" encoding="UTF-8" standalone="no"?>
<!-- Created with Inkscape (http://www.inkscape.org/) -->

<svg
   width="22"
   height="22"
   viewBox="0 0 22 22.000001"
   version="1.1"
   id="svg5"
   inkscape:version="1.2.1 (9c6d41e410, 2022-07-14, custom)"
   sodipodi:docname="application-pgp-encrypted.svg"
   xmlns:inkscape="http://www.inkscape.org/namespaces/inkscape"
   xmlns:sodipodi="http://sodipodi.sourceforge.net/DTD/sodipodi-0.dtd"
   xmlns:xlink="http://www.w3.org/1999/xlink"
   xmlns="http://www.w3.org/2000/svg"
   xmlns:svg="http://www.w3.org/2000/svg">
  <sodipodi:namedview
     id="namedview7"
     pagecolor="#ffffff"
     bordercolor="#000000"
     borderopacity="0.25"
     inkscape:showpageshadow="2"
     inkscape:pageopacity="0.0"
     inkscape:pagecheckerboard="0"
     inkscape:deskcolor="#d1d1d1"
     inkscape:document-units="px"
     showgrid="false"
     inkscape:zoom="36.454545"
     inkscape:cx="11"
     inkscape:cy="11"
     inkscape:window-width="1920"
     inkscape:window-height="1011"
     inkscape:window-x="0"
     inkscape:window-y="0"
     inkscape:window-maximized="1"
     inkscape:current-layer="svg5" />
  <defs
     id="defs2">
    <linearGradient
       inkscape:collect="always"
       xlink:href="#linearGradient2292"
       id="linearGradient940"
       x1="12"
       y1="13.333334"
       x2="4"
       y2="0"
       gradientUnits="userSpaceOnUse"
       gradientTransform="matrix(0.74999998,0,0,0.74999998,5,5.9999998)" />
    <linearGradient
       inkscape:collect="always"
       id="linearGradient2292">
      <stop
         style="stop-color:#9e670a;stop-opacity:1;"
         offset="0"
         id="stop2288" />
      <stop
         style="stop-color:#e3cb9f;stop-opacity:1;"
         offset="1"
         id="stop2290" />
    </linearGradient>
    <linearGradient
       inkscape:collect="always"
       xlink:href="#linearGradient4736"
       id="linearGradient1337"
       x1="12.999969"
       y1="15.999999"
       x2="7.9999695"
       y2="5.999999"
       gradientUnits="userSpaceOnUse"
       gradientTransform="matrix(0.83333333,0,0,0.8,5.1666922,5.1999997)" />
    <linearGradient
       inkscape:collect="always"
       id="linearGradient4736">
      <stop
         style="stop-color:#e69a10;stop-opacity:1;"
         offset="0"
         id="stop4732" />
      <stop
         style="stop-color:#ffd283;stop-opacity:1;"
         offset="1"
         id="stop4734" />
    </linearGradient>
  </defs>
  <path
     id="rect234"
     style="fill:#7d7d7b"
     d="M 3,0 H 15.5 L 19,3.5 V 22 H 3 Z"
     sodipodi:nodetypes="cccccc" />
  <path
     id="rect1746"
     style="fill:#fafafa"
     d="m 4,1 h 10 v 4 h 4 V 21 H 4 Z"
     sodipodi:nodetypes="ccccccc" />
  <path
     id="rect1800"
     style="fill:#fafafa;stroke-width:0.75"
     d="m 15,1 3,3.0000008 h -3 z"
     sodipodi:nodetypes="cccc" />
  <path
     id="rect376"
     style="fill:url(#linearGradient940);fill-opacity:1;stroke-width:0.75"
     d="M 11,6 C 9.338003,6 8,7.3380034 8,9 v 4 c 0,1.661996 1.338003,3 3,3 1.661996,0 3,-1.338004 3,-3 V 9 C 14,7.3380034 12.661996,6 11,6 Z m 0,1 c 1.107998,0 2,0.8920021 2,2 v 4 c 0,1.107998 -0.892002,2 -2,2 C 9.892002,15 9,14.107998 9,13 V 9 C 9,7.8920021 9.892002,7 11,7 Z" />
  <rect
     style="fill:url(#linearGradient1337);fill-opacity:1;stroke-width:0.816497"
     id="rect378"
     width="10"
     height="8"
     x="6"
     y="9.999999"
     ry="1" />
  <path
     id="rect1645"
     style="opacity:0.1;fill:#000000"
     d="M 7 10 C 6.4460012 10 6 10.446002 6 11 L 16 11 C 16 10.446002 15.553998 10 15 10 L 7 10 z M 6 17 C 6 17.553998 6.4460012 18 7 18 L 15 18 C 15.553998 18 16 17.553998 16 17 L 6 17 z " />
</svg>
