<?xml version="1.0" encoding="UTF-8" standalone="no"?>
<!-- Created with Inkscape (http://www.inkscape.org/) -->

<svg
   width="22"
   height="22"
   viewBox="0 0 22 22.000001"
   version="1.1"
   id="svg5"
   inkscape:version="1.2.1 (9c6d41e410, 2022-07-14, custom)"
   sodipodi:docname="application-x-iso.svg"
   xmlns:inkscape="http://www.inkscape.org/namespaces/inkscape"
   xmlns:sodipodi="http://sodipodi.sourceforge.net/DTD/sodipodi-0.dtd"
   xmlns:xlink="http://www.w3.org/1999/xlink"
   xmlns="http://www.w3.org/2000/svg"
   xmlns:svg="http://www.w3.org/2000/svg">
  <sodipodi:namedview
     id="namedview7"
     pagecolor="#ffffff"
     bordercolor="#000000"
     borderopacity="0.25"
     inkscape:showpageshadow="2"
     inkscape:pageopacity="0.0"
     inkscape:pagecheckerboard="0"
     inkscape:deskcolor="#d1d1d1"
     inkscape:document-units="px"
     showgrid="false"
     inkscape:zoom="36.727273"
     inkscape:cx="11"
     inkscape:cy="11"
     inkscape:window-width="1920"
     inkscape:window-height="1010"
     inkscape:window-x="0"
     inkscape:window-y="0"
     inkscape:window-maximized="1"
     inkscape:current-layer="svg5" />
  <defs
     id="defs2">
    <linearGradient
       inkscape:collect="always"
       xlink:href="#linearGradient162116"
       id="linearGradient162118"
       x1="96.408417"
       y1="238.0069"
       x2="127.77626"
       y2="238.0069"
       gradientUnits="userSpaceOnUse"
       gradientTransform="matrix(0.38255731,0,0,0.36911869,-31.881741,-74.852797)" />
    <linearGradient
       inkscape:collect="always"
       id="linearGradient162116">
      <stop
         style="stop-color:#e3edee;stop-opacity:1;"
         offset="0"
         id="stop162112" />
      <stop
         style="stop-color:#c9cdce;stop-opacity:1"
         offset="1"
         id="stop162114" />
    </linearGradient>
    <linearGradient
       inkscape:collect="always"
       xlink:href="#linearGradient219586"
       id="linearGradient4768"
       gradientUnits="userSpaceOnUse"
       gradientTransform="matrix(0.38255731,0,0,0.3691187,-31.881739,-74.852797)"
       x1="112.09232"
       y1="238.0069"
       x2="112.17286"
       y2="254.33937" />
    <linearGradient
       inkscape:collect="always"
       id="linearGradient219586">
      <stop
         style="stop-color:#b9bfbf;stop-opacity:1;"
         offset="0"
         id="stop219582" />
      <stop
         style="stop-color:#aaacab;stop-opacity:1"
         offset="1"
         id="stop219584" />
    </linearGradient>
    <linearGradient
       inkscape:collect="always"
       xlink:href="#linearGradient2496"
       id="linearGradient2498"
       x1="16.424316"
       y1="54.63533"
       x2="32.331596"
       y2="38.452602"
       gradientUnits="userSpaceOnUse"
       gradientTransform="matrix(0.37500001,0,0,0.37500001,4.625,-2)" />
    <linearGradient
       inkscape:collect="always"
       id="linearGradient2496">
      <stop
         style="stop-color:#ffffff;stop-opacity:0.5"
         offset="0"
         id="stop2492" />
      <stop
         style="stop-color:#ffffff;stop-opacity:0"
         offset="0.44999999"
         id="stop3080" />
      <stop
         style="stop-color:#ffffff;stop-opacity:1"
         offset="0.5"
         id="stop2756" />
      <stop
         style="stop-color:#ffffff;stop-opacity:0"
         offset="0.55000001"
         id="stop3014" />
      <stop
         style="stop-color:#ffffff;stop-opacity:0.2"
         offset="1"
         id="stop2494" />
    </linearGradient>
    <linearGradient
       inkscape:collect="always"
       xlink:href="#linearGradient11941"
       id="linearGradient11943"
       x1="5.1081543"
       y1="42.191895"
       x2="7.4692383"
       y2="33.279785"
       gradientUnits="userSpaceOnUse"
       gradientTransform="matrix(0.37500001,0,0,0.37500001,4.625,-2)" />
    <linearGradient
       inkscape:collect="always"
       id="linearGradient11941">
      <stop
         style="stop-color:#f89af4;stop-opacity:0"
         offset="0"
         id="stop11937" />
      <stop
         style="stop-color:#f89af4;stop-opacity:0"
         offset="0.40000001"
         id="stop12523" />
      <stop
         style="stop-color:#f89af4;stop-opacity:1"
         offset="0.5"
         id="stop12201" />
      <stop
         style="stop-color:#f89af4;stop-opacity:0"
         offset="0.60000002"
         id="stop12781" />
      <stop
         style="stop-color:#f89af4;stop-opacity:0;"
         offset="1"
         id="stop11939" />
    </linearGradient>
    <linearGradient
       inkscape:collect="always"
       xlink:href="#linearGradient16450"
       id="linearGradient16452"
       x1="17.605227"
       y1="29.40974"
       x2="27.150551"
       y2="39.243584"
       gradientUnits="userSpaceOnUse"
       gradientTransform="matrix(0.37500001,0,0,0.37500001,4.625,-2)" />
    <linearGradient
       inkscape:collect="always"
       id="linearGradient16450">
      <stop
         style="stop-color:#6fef7e;stop-opacity:0"
         offset="0"
         id="stop16446" />
      <stop
         style="stop-color:#6fef7e;stop-opacity:0"
         offset="0.44792882"
         id="stop17132" />
      <stop
         style="stop-color:#6fef7e;stop-opacity:1"
         offset="0.5"
         id="stop16680" />
      <stop
         style="stop-color:#6fef7e;stop-opacity:0"
         offset="0.55000001"
         id="stop16938" />
      <stop
         style="stop-color:#6fef7e;stop-opacity:0;"
         offset="1"
         id="stop16448" />
    </linearGradient>
    <linearGradient
       inkscape:collect="always"
       xlink:href="#linearGradient219586"
       id="linearGradient10845"
       gradientUnits="userSpaceOnUse"
       gradientTransform="matrix(0.38255731,0,0,0.3691187,-31.881739,-74.852797)"
       x1="112.09232"
       y1="238.0069"
       x2="112.17286"
       y2="254.33937" />
  </defs>
  <path
     id="rect234"
     style="fill:#7d7d7b"
     d="M 3,0 H 15.5 L 19,3.5 V 22 H 3 Z"
     sodipodi:nodetypes="cccccc" />
  <path
     id="rect1746"
     style="fill:#fafafa"
     d="m 4,1 h 10 v 4 h 4 V 21 H 4 Z"
     sodipodi:nodetypes="ccccccc" />
  <path
     id="rect1800"
     style="fill:#fafafa;stroke-width:0.75"
     d="m 15,1 3,3.0000008 h -3 z"
     sodipodi:nodetypes="cccc" />
  <path
     id="path151229"
     style="fill:url(#linearGradient162118);fill-opacity:1;stroke-width:0.497126;stroke-linecap:round;stroke-linejoin:round"
     d="M 11,7 A 6.0000005,6.0000005 0 0 0 5,13 6.0000005,6.0000005 0 0 0 11,19.000001 6.0000005,6.0000005 0 0 0 17,13 6.0000005,6.0000005 0 0 0 11,7 Z m 0,3.750001 A 2.25,2.25 0 0 1 13.250001,13 a 2.25,2.25 0 0 1 -2.25,2.250001 A 2.25,2.25 0 0 1 8.7500005,13 2.25,2.25 0 0 1 11,10.750001 Z" />
  <path
     id="path151229-3"
     style="fill:url(#linearGradient10845);fill-opacity:1;stroke-width:0.497126;stroke-linecap:round;stroke-linejoin:round"
     d="M 13.244873,13.140624 A 2.25,2.25 0 0 1 11,15.250001 2.25,2.25 0 0 1 9.410645,14.589356 L 6.7607425,17.239259 A 6.0000005,6.0000005 0 0 0 11,19.000001 6.0000005,6.0000005 0 0 0 16.986084,13.374267 Z" />
  <path
     id="path151229-3-3"
     style="fill:url(#linearGradient4768);fill-opacity:1;stroke-width:0.497126;stroke-linecap:round;stroke-linejoin:round"
     d="M 13.244873,13.140624 A 2.25,2.25 0 0 1 11,15.250001 2.25,2.25 0 0 1 9.410645,14.589356 L 6.7607425,17.239259 A 6.0000005,6.0000005 0 0 0 11,19.000001 6.0000005,6.0000005 0 0 0 16.986084,13.374267 Z" />
  <path
     id="rect2336"
     style="opacity:0.5;fill:url(#linearGradient2498);fill-opacity:1;stroke-width:0.75;stroke-linecap:round;stroke-linejoin:round"
     d="m 9.546143,7.183838 a 6.0000005,6.0000005 0 0 0 -4.439209,4.710937 l 3.6481935,0.730225 0.03589,0.0058 a 2.25,2.25 0 0 1 1.6655275,-1.805425 z m 3.662842,6.185303 a 2.2500001,2.2500001 0 0 1 -1.665528,1.805421 l 0.910401,3.641601 a 6.0000005,6.0000005 0 0 0 4.439209,-4.710937 L 13.244873,13.375 Z" />
  <path
     id="path151229-7"
     style="opacity:0.5;fill:url(#linearGradient11943);fill-opacity:1;stroke-width:0.497126;stroke-linecap:round;stroke-linejoin:round"
     d="M 5.7001955,10.194092 C 5.2415125,11.058315 5.001132,12.021597 5,13 c 0.00115,0.978404 0.2415125,1.941686 0.7001955,2.80591 L 9.014405,14.051026 C 8.8419505,13.727461 8.7511825,13.366652 8.7500005,13 c 0.0012,-0.366652 0.09195,-0.72746 0.2644045,-1.051025 z"
     sodipodi:nodetypes="ccccccc" />
  <path
     id="path151229-1"
     style="opacity:0.5;fill:url(#linearGradient16452);fill-opacity:1;stroke-width:0.497126;stroke-linecap:round;stroke-linejoin:round"
     d="M 12.789307,7.2731935 11.670899,10.85254 a 2.25,2.25 0 0 1 1.435547,1.357177 l 3.511229,-1.316163 A 6.0000005,6.0000005 0 0 0 12.789307,7.2731935 Z" />
</svg>
