<?xml version="1.0" encoding="UTF-8" standalone="no"?>
<!-- Created with Inkscape (http://www.inkscape.org/) -->

<svg
   width="22"
   height="22"
   viewBox="0 0 22 22.000001"
   version="1.1"
   id="svg5"
   inkscape:version="1.2.1 (9c6d41e410, 2022-07-14, custom)"
   sodipodi:docname="application-vnd.ms-powerpoint.template.macroenabled.12.svg"
   xmlns:inkscape="http://www.inkscape.org/namespaces/inkscape"
   xmlns:sodipodi="http://sodipodi.sourceforge.net/DTD/sodipodi-0.dtd"
   xmlns="http://www.w3.org/2000/svg"
   xmlns:svg="http://www.w3.org/2000/svg">
  <sodipodi:namedview
     id="namedview7"
     pagecolor="#ffffff"
     bordercolor="#000000"
     borderopacity="0.25"
     inkscape:showpageshadow="2"
     inkscape:pageopacity="0.0"
     inkscape:pagecheckerboard="0"
     inkscape:deskcolor="#d1d1d1"
     inkscape:document-units="px"
     showgrid="false"
     inkscape:zoom="36.727273"
     inkscape:cx="9.9653465"
     inkscape:cy="11"
     inkscape:window-width="1920"
     inkscape:window-height="1010"
     inkscape:window-x="0"
     inkscape:window-y="0"
     inkscape:window-maximized="1"
     inkscape:current-layer="svg5" />
  <defs
     id="defs2" />
  <path
     id="rect846"
     style="fill:#7d7d7b;stroke-width:0.999999;stroke-linecap:round;stroke-linejoin:round"
     d="m 3.0000002,0 16.9999968,0.9999994 4e-6,20.9999996 H 5.0000003 v -2 H 3.0000002 Z"
     sodipodi:nodetypes="ccccccc" />
  <path
     id="rect1454"
     style="fill:#fafafa;stroke-width:0.999999;stroke-linecap:round;stroke-linejoin:round"
     d="M 3.9999999,1.0000002 V 19 H 17 V 1.0000002 Z M 18,1.0000002 V 20 H 17 5.9999998 v 1 H 19 V 1.0000002 Z"
     sodipodi:nodetypes="ccccccccccccc" />
  <rect
     style="fill:#efa276;fill-opacity:1;stroke-width:0.936281;stroke-linecap:round;stroke-linejoin:round"
     id="rect6964"
     width="15"
     height="4"
     x="3"
     y="2.2752701e-07" />
  <path
     id="rect13579"
     style="fill:#dc772e;fill-opacity:1;stroke-width:1.41009;stroke-linecap:round;stroke-linejoin:round"
     d="M 18,0 V 0.99999991 L 20,2.0000002 V 0.99999981 Z M 3.0000007,3 V 4 H 18 V 3 Z"
     sodipodi:nodetypes="cccccccccc" />
  <rect
     style="fill:#cb3a22;fill-opacity:1;stroke-width:1.28571;stroke-linecap:round"
     id="rect347"
     width="9"
     height="9"
     x="-8.7878419e-08"
     y="7"
     ry="1" />
  <path
     id="path344"
     style="fill:#f1ab69;fill-opacity:1;stroke-width:1;stroke-linecap:round"
     d="M 13,7.9999997 V 11 h 3 A 2.9999995,2.9999995 0 0 0 13,7.9999997 Z" />
  <path
     id="rect1758"
     style="fill:#ffffff;fill-opacity:1;stroke-linecap:round"
     d="M 3,7.9999997 V 15 H 4 V 12 H 5 C 6.1079945,12 7,11.107995 7,10 7,8.8920052 6.1079945,7.9999997 5,7.9999997 H 4 Z m 1,1.0000004 h 1 c 0.553997,0 1,0.446003 1,0.9999999 0,0.553995 -0.446003,1 -1,1 H 4 Z" />
  <path
     id="path345"
     style="fill:#e77d57;fill-opacity:1;stroke-width:1.19989"
     d="M 12 9 A 3 3 0 0 0 10 9.7675781 L 10 14.232422 A 3 3 0 0 0 12 15 A 3 3 0 0 0 15 12 L 12 12 L 12 9 z " />
  <path
     id="path649"
     style="fill:#ed6c47;fill-opacity:1;stroke-width:1.5"
     d="M 10 12 L 10 14.228516 A 3 3 0 0 0 12 15 A 3 3 0 0 0 15 12 L 10 12 z " />
</svg>
