<?xml version="1.0" encoding="UTF-8" standalone="no"?>
<!-- Created with Inkscape (http://www.inkscape.org/) -->

<svg
   width="22"
   height="22"
   viewBox="0 0 22 22.000001"
   version="1.1"
   id="svg5"
   inkscape:version="1.2.1 (9c6d41e410, 2022-07-14, custom)"
   sodipodi:docname="application-x-perl.svg"
   xmlns:inkscape="http://www.inkscape.org/namespaces/inkscape"
   xmlns:sodipodi="http://sodipodi.sourceforge.net/DTD/sodipodi-0.dtd"
   xmlns:xlink="http://www.w3.org/1999/xlink"
   xmlns="http://www.w3.org/2000/svg"
   xmlns:svg="http://www.w3.org/2000/svg">
  <sodipodi:namedview
     id="namedview7"
     pagecolor="#ffffff"
     bordercolor="#000000"
     borderopacity="0.25"
     inkscape:showpageshadow="2"
     inkscape:pageopacity="0.0"
     inkscape:pagecheckerboard="0"
     inkscape:deskcolor="#d1d1d1"
     inkscape:document-units="px"
     showgrid="false"
     inkscape:zoom="36.454545"
     inkscape:cx="10.986284"
     inkscape:cy="11"
     inkscape:window-width="1920"
     inkscape:window-height="1011"
     inkscape:window-x="0"
     inkscape:window-y="0"
     inkscape:window-maximized="1"
     inkscape:current-layer="svg5" />
  <defs
     id="defs2">
    <linearGradient
       inkscape:collect="always"
       id="linearGradient3605">
      <stop
         style="stop-color:#0d6eaa;stop-opacity:1;"
         offset="0"
         id="stop3601" />
      <stop
         style="stop-color:#185086;stop-opacity:1"
         offset="1"
         id="stop3603" />
    </linearGradient>
    <linearGradient
       inkscape:collect="always"
       xlink:href="#linearGradient3605"
       id="linearGradient1295"
       x1="17.000011"
       y1="9"
       x2="17.000011"
       y2="19.999998"
       gradientUnits="userSpaceOnUse"
       gradientTransform="translate(-1.0000002,-1.0000001)" />
  </defs>
  <path
     id="rect234"
     style="fill:#7d7d7b"
     d="M 3,0 H 15.5 L 19,3.5 V 22 H 3 Z"
     sodipodi:nodetypes="cccccc" />
  <path
     id="rect1746"
     style="fill:#fafafa"
     d="m 4,1 h 10 v 4 h 4 V 21 H 4 Z"
     sodipodi:nodetypes="ccccccc" />
  <path
     id="rect1800"
     style="fill:#fafafa;stroke-width:0.75"
     d="m 15,1 3,3.0000008 h -3 z"
     sodipodi:nodetypes="cccc" />
  <path
     d="m 12.493556,13.862911 c 0.09804,0.563588 0.16461,0.98211 0.1994,1.552741 0.0096,0.355359 -0.09672,0.704521 -0.303754,0.997123 -0.04871,0.169558 -0.194767,0 -0.299121,0 -0.257418,0 -0.352464,-0.27135 -0.49163,-0.43867 -0.139125,-0.16732 -0.03948,-0.318807 0.05335,-0.452184 0.09972,-0.07009 0.139124,-0.226092 0.282922,-0.226092 0.143759,0 0.125225,-0.192188 0.104354,-0.293939 0.09505,-0.142452 0.03707,-0.202906 0.129858,-0.358912 0.166926,-0.07233 0.118254,-0.325565 0.176233,-0.468017 0.04638,-0.10175 0,-0.296217 0.132155,-0.339157 0,0 0.01611,0 0.0137,0.0224 M 12.331026,8.0518544 c -0.217974,-0.02475 -0.382603,0.1198625 -0.565806,0.201263 -0.152052,0.049335 -0.306891,0.090089 -0.463749,0.122062 -0.113621,0.2261309 -0.375674,0.3595088 -0.517135,0.5720466 -0.144748,0.4223369 -0.41417,0.7935959 -0.774473,1.067209 -0.5147982,0.260036 -0.7745142,0.825286 -0.9437762,1.356631 -0.05798,0.119823 -0.04871,0.296218 -0.1113238,0.39793 -0.2040786,0.05653 -0.09509,-0.203463 -0.118259,-0.327843 -0.03022,-0.185392 0.136828,-0.305215 0.148392,-0.486128 0.06907,-0.128505 0.09808,-0.273898 0.08348,-0.418279 C 9.045006,10.21342 9.144886,9.8200079 8.9107174,9.5554549 8.7715554,9.4763349 8.8156334,9.3090119 8.7646254,9.1801139 8.6263084,8.996018 8.4501919,8.8420211 8.2474904,8.7279302 8.0805654,8.7122102 7.9274994,8.5017994 7.7559004,8.5990334 7.6492499,8.7211342 7.4521464,8.7188552 7.3895344,8.8816571 c -0.039485,0.2035028 -0.273616,0.1492488 -0.426681,0.1989848 -0.194767,0.0746 -0.4452155,0 -0.605211,0.151488 -0.1599955,0.151487 -0.422048,0.373061 -0.343199,0.628579 0.1832035,0.3504321 0.6562195,0.1740761 0.9136385,0.3866151 -0.081298,0.235163 -0.1749505,0.466091 -0.280586,0.691869 -0.04208,0.306586 -0.0483,0.616842 -0.018535,0.924797 0.04871,0.307493 -0.032635,0.703184 0.231915,0.92024 0.1507285,0.05425 0.1414615,0.226092 0.1994005,0.352712 0.057979,0.126619 0.169302,-0.04522 0.2156775,0.07688 0.134491,0.07232 0.013695,0.226092 0.088116,0.316529 0.123747,0.02388 0.2374975,0.08288 0.3269615,0.169598 0.142522,0.09679 0.2752865,0.20656 0.396503,0.327844 0.09275,0.185391 0.211044,-0.180874 0.3130615,-0.04298 0.052196,0.125632 0.2052495,0.178558 0.3269615,0.113065 0.1887996,-0.03103 0.3670494,-0.106302 0.5194314,-0.219335 0.09972,0.345954 0.02297,0.721295 0.06724,1.078524 0.06163,0.260859 0.100413,0.526355 0.115918,0.793621 0.06953,0.263349 0.109953,0.533197 0.12059,0.804934 0.07539,0.564626 -0.02308,1.13836 -0.282882,1.648292 -0.03098,0.159842 -0.158626,0.285203 -0.3223288,0.316569 -0.115957,0.05198 -0.3570986,0.144691 -0.2759526,0.307493 0.2689826,0.226092 0.6956644,0.201224 1.0040924,0.08592 0.204033,-0.09723 0.02781,-0.339157 0.132153,-0.486127 0.136829,-0.515513 0.06958,-1.067209 0.2318752,-1.582723 0.12559,-0.2599 0.173034,-0.549194 0.136829,-0.834321 0.03264,-0.174116 -0.04174,-0.384376 0.07422,-0.526828 0.0018,-0.175184 0.06848,-0.343829 0.187796,-0.474813 0.03779,-0.265992 0.05716,-0.534164 0.05798,-0.802695 0.16332,-0.04978 0.335305,-0.0667 0.505531,-0.04974 0,0.149248 -0.108987,0.321086 -0.07651,0.488405 0.03416,0.187963 -0.003,0.231779 -0.104354,0.395056 -0.07188,0.293939 -0.120591,0.655686 0.06725,0.904408 0.310723,0.332361 0.716534,0.567527 1.011021,0.922518 0.100061,0.07873 0.106494,0.225232 0.0137,0.312011 -0.05403,0.191518 -0.201559,0.344672 -0.394207,0.409244 -0.122887,0.04749 -0.31999,0.226092 -0.176232,0.350472 0.289357,0.06359 0.591422,0.04396 0.86956,-0.05653 0.190174,-0.06785 0.120591,-0.291662 0.194807,-0.431874 0.1024,0.135629 0.196845,0.276801 0.282882,0.422838 0.118295,0.171837 0.322329,0.02946 0.46379,-0.02475 0.01667,-0.251409 -0.03534,-0.502632 -0.150724,-0.728049 -0.06491,-0.149248 -0.317695,-0.153766 -0.306091,-0.336919 0.125224,-0.452184 0.435948,-0.804896 0.681764,-1.187032 0.204033,-0.18991 0.05101,-0.472573 0.06261,-0.712219 -0.06503,-0.615965 0.08797,-1.085243 0.433611,-1.604716 0.07159,0.288554 0.163802,0.571871 0.275953,0.847874 0.08084,0.323606 0.227508,0.628085 0.431315,0.895372 0.09505,0.321086 0.06954,0.678315 0.132155,1.010676 0.08962,0.574721 0.05646,1.161298 -0.09738,1.722935 0.01611,0.205742 -0.183202,0.35723 -0.164629,0.558454 0.05564,0.185431 0.27825,0.03614 0.394207,0.115305 0.209378,0.0634 0.434704,-0.03296 0.528698,-0.226092 -0.04838,-0.157085 -0.08101,-0.318378 -0.09742,-0.48161 -0.159112,-0.475491 -0.194176,-0.982152 -0.102017,-1.474175 0.01853,-0.266793 0.183203,-0.592396 -0.03022,-0.820767 -0.05798,-0.244204 0.04174,-0.508717 -0.01853,-0.759717 -0.142987,-0.643052 -0.159518,-1.306722 -0.04871,-1.955785 0.03707,-0.09044 0,-0.257756 0.09972,-0.307493 0.09868,0.143653 0.142958,0.316335 0.125224,0.488368 0.09016,0.266645 0.101474,0.552661 0.03264,0.825284 -0.169262,0.21026 -0.06491,0.495164 -0.04404,0.73257 0.02781,0.16732 0.206371,0.04749 0.231875,-0.05653 0.155826,-0.282993 0.2817,-0.58072 0.375673,-0.888575 0.106651,-0.140173 0,-0.305253 0,-0.452223 0.164629,-0.02043 0.102017,-0.201224 0.0137,-0.280347 -0.08812,-0.289421 -0.06724,-0.624061 -0.266686,-0.870503 C 15.329122,11.584611 15.067696,11.219796 14.869959,10.821769 14.658915,10.17284 14.056041,9.7409669 13.851968,9.0852799 13.775408,8.7047862 13.54137,8.3718914 13.205016,8.1650409 13.055213,8.0979769 12.900115,8.0427844 12.741225,7.9999999 c -0.135188,0.027505 -0.272464,0.04414 -0.410444,0.049735"
     style="fill:url(#linearGradient1295);fill-opacity:1"
     id="path308" />
</svg>
