<?xml version="1.0" encoding="UTF-8" standalone="no"?>
<!-- Created with Inkscape (http://www.inkscape.org/) -->

<svg
   width="22"
   height="22"
   viewBox="0 0 22 22"
   version="1.1"
   id="svg2112"
   inkscape:version="1.2.1 (9c6d41e410, 2022-07-14, custom)"
   sodipodi:docname="application-7zip.svg"
   xmlns:inkscape="http://www.inkscape.org/namespaces/inkscape"
   xmlns:sodipodi="http://sodipodi.sourceforge.net/DTD/sodipodi-0.dtd"
   xmlns:xlink="http://www.w3.org/1999/xlink"
   xmlns="http://www.w3.org/2000/svg"
   xmlns:svg="http://www.w3.org/2000/svg">
  <sodipodi:namedview
     id="namedview2114"
     pagecolor="#ffffff"
     bordercolor="#000000"
     borderopacity="0.25"
     inkscape:showpageshadow="2"
     inkscape:pageopacity="0.0"
     inkscape:pagecheckerboard="0"
     inkscape:deskcolor="#d1d1d1"
     inkscape:document-units="px"
     showgrid="false"
     inkscape:zoom="36.772727"
     inkscape:cx="11"
     inkscape:cy="11"
     inkscape:window-width="1920"
     inkscape:window-height="1012"
     inkscape:window-x="0"
     inkscape:window-y="0"
     inkscape:window-maximized="1"
     inkscape:current-layer="svg2112"
     showguides="false" />
  <defs
     id="defs2109">
    <linearGradient
       inkscape:collect="always"
       xlink:href="#linearGradient4405"
       id="linearGradient4407"
       x1="32"
       y1="10.5"
       x2="32"
       y2="18.5"
       gradientUnits="userSpaceOnUse"
       gradientTransform="matrix(0.25000002,0,0,0.25000002,4.5000007,1.7501442)" />
    <linearGradient
       inkscape:collect="always"
       id="linearGradient4405">
      <stop
         style="stop-color:#fcbc19;stop-opacity:1;"
         offset="0"
         id="stop4401" />
      <stop
         style="stop-color:#f4b61f;stop-opacity:1"
         offset="1"
         id="stop4403" />
    </linearGradient>
    <linearGradient
       inkscape:collect="always"
       xlink:href="#linearGradient11972"
       id="linearGradient11974"
       x1="5.2916665"
       y1="5.5562496"
       x2="13.758334"
       y2="13.493751"
       gradientUnits="userSpaceOnUse"
       gradientTransform="matrix(0.94488191,0,0,0.94488191,2.5000005,4)" />
    <linearGradient
       inkscape:collect="always"
       id="linearGradient11972">
      <stop
         style="stop-color:#fce798;stop-opacity:1"
         offset="0"
         id="stop11968" />
      <stop
         style="stop-color:#ffc937;stop-opacity:1"
         offset="1"
         id="stop11970" />
    </linearGradient>
    <linearGradient
       inkscape:collect="always"
       xlink:href="#linearGradient12673"
       id="linearGradient5594"
       x1="-10"
       y1="27"
       x2="61.999996"
       y2="27"
       gradientUnits="userSpaceOnUse"
       gradientTransform="matrix(0.25000002,0,0,0.25000002,4.5000007,2.7500724)" />
    <linearGradient
       inkscape:collect="always"
       id="linearGradient12673">
      <stop
         style="stop-color:#ffffff;stop-opacity:1;"
         offset="0"
         id="stop12669" />
      <stop
         style="stop-color:#ffffff;stop-opacity:0;"
         offset="1"
         id="stop12671" />
    </linearGradient>
    <linearGradient
       inkscape:collect="always"
       xlink:href="#linearGradient5150"
       id="linearGradient5152"
       x1="3.4395833"
       y1="3.1750002"
       x2="2.9104166"
       y2="1.8520834"
       gradientUnits="userSpaceOnUse"
       gradientTransform="matrix(3.7795275,0,0,3.7795275,4.0000002,3.0000002)" />
    <linearGradient
       inkscape:collect="always"
       id="linearGradient5150">
      <stop
         style="stop-color:#aaaaaa;stop-opacity:1;"
         offset="0"
         id="stop5146" />
      <stop
         style="stop-color:#f6f6f5;stop-opacity:1"
         offset="1"
         id="stop5148" />
    </linearGradient>
    <linearGradient
       inkscape:collect="always"
       xlink:href="#linearGradient4066"
       id="linearGradient4068"
       x1="1.0583334"
       y1="2.1166668"
       x2="1.0583334"
       y2="3.96875"
       gradientUnits="userSpaceOnUse"
       gradientTransform="matrix(3.7795275,0,0,3.7795275,3.0000001,3.0000002)" />
    <linearGradient
       inkscape:collect="always"
       id="linearGradient4066">
      <stop
         style="stop-color:#d3d3d3;stop-opacity:1;"
         offset="0"
         id="stop4062" />
      <stop
         style="stop-color:#e1e1e1;stop-opacity:1"
         offset="0.2"
         id="stop4454" />
      <stop
         style="stop-color:#a3a3a3;stop-opacity:1"
         offset="1"
         id="stop4064" />
    </linearGradient>
    <linearGradient
       inkscape:collect="always"
       xlink:href="#linearGradient6118"
       id="linearGradient6120"
       x1="4.2333336"
       y1="2.1166668"
       x2="4.2333336"
       y2="2.9104171"
       gradientUnits="userSpaceOnUse"
       gradientTransform="matrix(3.7795275,0,0,3.7795275,4.0000002,3.0000002)" />
    <linearGradient
       inkscape:collect="always"
       id="linearGradient6118">
      <stop
         style="stop-color:#999999;stop-opacity:1;"
         offset="0"
         id="stop6114" />
      <stop
         style="stop-color:#7e7e7e;stop-opacity:1"
         offset="1"
         id="stop6116" />
    </linearGradient>
    <linearGradient
       inkscape:collect="always"
       xlink:href="#linearGradient1798"
       id="linearGradient971"
       x1="24"
       y1="15.999999"
       x2="24"
       y2="21.999998"
       gradientUnits="userSpaceOnUse"
       gradientTransform="matrix(1,0,0,1.1666667,-2.0000005,-3.6666653)" />
    <linearGradient
       inkscape:collect="always"
       id="linearGradient1798">
      <stop
         style="stop-color:#aeb7bc;stop-opacity:1;"
         offset="0"
         id="stop1794" />
      <stop
         style="stop-color:#959ea5;stop-opacity:1"
         offset="1"
         id="stop1796" />
    </linearGradient>
  </defs>
  <path
     id="rect846"
     style="fill:url(#linearGradient4407);fill-opacity:1;stroke-width:0.500001;stroke-linecap:round;stroke-linejoin:round;stroke-dasharray:6, 0.500001"
     d="m 3.0000004,4 c -0.530085,0.00182 -0.9666488,0.4169658 -0.9951172,0.946289 0.01505,1.1195191 -0.00488,7.053856 -0.00488,7.053856 H 20 V 6.5000724 C 20,6.2230708 19.777001,6.0000723 19.500001,6.0000723 h -8.75 L 9.7500006,4.4999998 C 9.4086866,4.1659421 9.1655005,4 8.7500004,4 Z"
     sodipodi:nodetypes="ccccssccsc" />
  <path
     id="rect1170"
     style="fill:url(#linearGradient11974);fill-opacity:1;stroke-width:0.66144;stroke-linecap:round;stroke-linejoin:round;stroke-dasharray:7.93723, 0.66144"
     d="M 11.000001,7 9.2500005,9.0000004 H 3.0000001 C 2.446,9.0000004 2,9.4460006 2,10.000001 v 7.5 c 0,0.277001 0.2230001,0.5 0.5,0.5 h 17 c 0.277002,0 0.5,-0.223 0.5,-0.5 V 7.5000001 C 20,7.2229985 19.777,7 19.5,7 Z"
     sodipodi:nodetypes="ccsccccccsc" />
  <path
     id="rect1170-2"
     style="fill:#e4a729;fill-opacity:1;stroke-width:0.66144;stroke-linecap:round;stroke-linejoin:round;stroke-dasharray:7.93723, 0.66144"
     d="m 2.0000002,16.500001 v 1 c 0,0.277002 0.2229997,0.5 0.5000001,0.5 H 19.5 c 0.277002,0 0.5,-0.223 0.5,-0.5 v -1 c 0,0.276998 -0.222999,0.5 -0.5,0.5 H 2.5000003 c -0.2770016,0 -0.5000001,-0.223 -0.5000001,-0.5 z"
     sodipodi:nodetypes="csssscssc" />
  <path
     id="rect1170-75"
     style="opacity:0.3;fill:url(#linearGradient5594);fill-opacity:1;stroke-width:0.66144;stroke-linecap:round;stroke-linejoin:round;stroke-dasharray:7.93723, 0.66144"
     d="M 11.000001,7 9.2500005,9.0000004 H 3.0000004 c -0.554,0 -1,0.4460002 -1,1.0000006 v 0.5 c 0,-0.5540003 0.452443,-1.0842461 1,-1.0000004 h 6.5 L 11.25,7.5000001 h 8.25 c 0.277002,0 0.5,0.2229997 0.5,0.5000001 V 7.4999997 C 20,7.2229981 19.777001,7 19.5,7 Z"
     sodipodi:nodetypes="ccsscsccscssc" />
  <rect
     style="opacity:0.3;fill:#000000;fill-opacity:1;stroke-width:0.999999"
     id="rect3074"
     width="16"
     height="3"
     x="4.0000005"
     y="11.000001" />
  <rect
     style="fill:#a7a7a7;fill-opacity:1;stroke-width:1.41421"
     id="rect6824"
     width="2"
     height="2.9999998"
     x="2.0000002"
     y="11.000001" />
  <path
     id="rect5034"
     style="fill:url(#linearGradient5152);fill-opacity:1;stroke-width:0.999999"
     d="m 4.0000002,11 v 1.000001 h -2 v 1 h 2 v 1 h 5.0000001 v -1 H 10 v 1 h 1.000001 v -1 H 12 v 1 h 1.000001 v -1 h 1 v 1 H 15 v -1 h 1.000001 v 1 H 17 v -1 h 1.000001 v 1 h 1 V 11 H 17 v 1.000001 H 16.000001 V 11 H 15 v 1.000001 H 14.000001 V 11 h -1 v 1.000001 H 12 V 11 h -0.999999 v 1.000001 H 10 V 11 H 9.0000003 v 1.000001 H 8.0000004 V 11 Z"
     sodipodi:nodetypes="ccccccccccccccccccccccccccccccccccccccccccccccccc" />
  <path
     id="rect1130"
     style="opacity:0.3;stroke-width:0.999999;stroke-linejoin:round"
     d="m 5.0000005,11 h 2.9999999 l 4e-7,7 H 7.0000006 V 16.000001 H 5.0000005 Z"
     sodipodi:nodetypes="ccccccc" />
  <rect
     style="fill:url(#linearGradient4068);fill-opacity:1;stroke-width:0.999999"
     id="rect3442"
     width="3"
     height="7"
     x="4.0000005"
     y="11.000001" />
  <rect
     style="fill:#747474;fill-opacity:1;stroke-width:0.999999"
     id="rect4652"
     width="1"
     height="1"
     x="5.0000005"
     y="12.000001" />
  <rect
     style="fill:url(#linearGradient6120);fill-opacity:1;stroke-width:0.999999"
     id="rect6090"
     width="1.0000006"
     height="3.0000005"
     x="19"
     y="11.000001" />
  <rect
     style="fill:#74550e;fill-opacity:1;stroke-width:0.999999"
     id="rect7104"
     width="1"
     height="1"
     x="5.0000005"
     y="16" />
  <rect
     style="fill:url(#linearGradient971);fill-opacity:1.0;stroke-width:4.04145;stroke-linecap:round;stroke-linejoin:round"
     id="rect332"
     width="14"
     height="7"
     x="8"
     y="15.000001"
     ry="1" />
  <path
     id="rect328"
     style="fill:#ffffff;stroke-width:4;stroke-linecap:round;stroke-linejoin:round"
     d="M 11 16 L 11 17 L 13 17 C 11.997596 18 11.4966 20.166093 11.5 21 L 12.5 21 C 12.5 20.12663 13.058567 17.999999 14 17 L 14 16 L 11 16 z M 15 16 L 15 17 L 17 17 L 15 20 L 15 21 L 18 21 L 18 20 L 16 20 L 18 17 L 18 16 L 15 16 z " />
</svg>
