<?xml version="1.0" encoding="UTF-8" standalone="no"?>
<!-- Created with Inkscape (http://www.inkscape.org/) -->

<svg
   width="22"
   height="22"
   viewBox="0 0 22 22"
   version="1.1"
   id="svg5"
   inkscape:version="1.2.1 (9c6d41e410, 2022-07-14, custom)"
   sodipodi:docname="rpm.svg"
   xmlns:inkscape="http://www.inkscape.org/namespaces/inkscape"
   xmlns:sodipodi="http://sodipodi.sourceforge.net/DTD/sodipodi-0.dtd"
   xmlns:xlink="http://www.w3.org/1999/xlink"
   xmlns="http://www.w3.org/2000/svg"
   xmlns:svg="http://www.w3.org/2000/svg">
  <sodipodi:namedview
     id="namedview7"
     pagecolor="#ffffff"
     bordercolor="#000000"
     borderopacity="0.25"
     inkscape:showpageshadow="2"
     inkscape:pageopacity="0.0"
     inkscape:pagecheckerboard="0"
     inkscape:deskcolor="#d1d1d1"
     inkscape:document-units="px"
     showgrid="false"
     inkscape:zoom="36.727273"
     inkscape:cx="10.986386"
     inkscape:cy="11"
     inkscape:window-width="1920"
     inkscape:window-height="1010"
     inkscape:window-x="0"
     inkscape:window-y="0"
     inkscape:window-maximized="1"
     inkscape:current-layer="svg5"
     showguides="false" />
  <defs
     id="defs2">
    <linearGradient
       inkscape:collect="always"
       xlink:href="#linearGradient10541"
       id="linearGradient18985"
       x1="5"
       y1="1"
       x2="3"
       y2="3"
       gradientUnits="userSpaceOnUse"
       gradientTransform="translate(0.9999999,1)" />
    <linearGradient
       inkscape:collect="always"
       id="linearGradient10541">
      <stop
         style="stop-color:#f1764d;stop-opacity:1"
         offset="0"
         id="stop10537" />
      <stop
         style="stop-color:#f56652;stop-opacity:1"
         offset="1"
         id="stop10539" />
    </linearGradient>
    <linearGradient
       inkscape:collect="always"
       xlink:href="#linearGradient10535"
       id="linearGradient21961"
       x1="3"
       y1="3"
       x2="7"
       y2="5.0000014"
       gradientUnits="userSpaceOnUse"
       gradientTransform="translate(0.9999999,1)" />
    <linearGradient
       inkscape:collect="always"
       id="linearGradient10535">
      <stop
         style="stop-color:#a2362a;stop-opacity:1"
         offset="0"
         id="stop10531" />
      <stop
         style="stop-color:#7a2826;stop-opacity:1"
         offset="1"
         id="stop10533" />
    </linearGradient>
    <linearGradient
       inkscape:collect="always"
       xlink:href="#linearGradient10535"
       id="linearGradient21953"
       x1="17"
       y1="5.0000014"
       x2="17"
       y2="19"
       gradientUnits="userSpaceOnUse"
       gradientTransform="translate(0.9999999,1)" />
    <linearGradient
       inkscape:collect="always"
       xlink:href="#linearGradient56461"
       id="linearGradient23477"
       x1="3"
       y1="3"
       x2="13"
       y2="20"
       gradientUnits="userSpaceOnUse"
       gradientTransform="translate(0.9999999,1)" />
    <linearGradient
       inkscape:collect="always"
       id="linearGradient56461">
      <stop
         style="stop-color:#ff6843;stop-opacity:1"
         offset="0"
         id="stop56457-9" />
      <stop
         style="stop-color:#d3322b;stop-opacity:1"
         offset="1"
         id="stop56459-1" />
    </linearGradient>
    <linearGradient
       inkscape:collect="always"
       xlink:href="#linearGradient70845"
       id="linearGradient15644"
       x1="11"
       y1="1"
       x2="15"
       y2="13.999999"
       gradientUnits="userSpaceOnUse"
       gradientTransform="translate(2.9999999,6.000001)" />
    <linearGradient
       inkscape:collect="always"
       id="linearGradient70845">
      <stop
         style="stop-color:#cd4e41;stop-opacity:1"
         offset="0"
         id="stop70841-7" />
      <stop
         style="stop-color:#a72d0e;stop-opacity:1"
         offset="1"
         id="stop70843-0" />
    </linearGradient>
    <linearGradient
       inkscape:collect="always"
       xlink:href="#linearGradient10541"
       id="linearGradient18975"
       x1="20"
       y1="5"
       x2="13"
       y2="6.000001"
       gradientUnits="userSpaceOnUse"
       gradientTransform="translate(0.9999999,1)" />
    <linearGradient
       inkscape:collect="always"
       xlink:href="#linearGradient10541"
       id="linearGradient18983"
       x1="9"
       y1="0"
       x2="17"
       y2="5.0000014"
       gradientUnits="userSpaceOnUse"
       gradientTransform="translate(0.9999999,1)" />
  </defs>
  <path
     id="rect3961"
     style="fill:url(#linearGradient18985);fill-opacity:1;stroke-width:0.27586"
     d="m 1.9999999,3 4,-1 2,1 L 6,6 3.9999999,4 Z"
     sodipodi:nodetypes="cccccc" />
  <path
     id="rect2034"
     style="fill:url(#linearGradient21961);fill-opacity:1;stroke-width:0.27586"
     d="m 3.9999999,4 4,-1 v 14 l -4,1 z"
     sodipodi:nodetypes="ccccc" />
  <path
     id="rect2627"
     style="fill:url(#linearGradient21953);fill-opacity:1;stroke-width:0.27586"
     d="M 7.9999999,3 18,6.0000013 V 20 L 7.9999999,16.999999 Z"
     sodipodi:nodetypes="ccccc" />
  <path
     id="rect45418"
     style="fill:url(#linearGradient23477);fill-opacity:1;stroke-width:0.190529"
     d="M 3.9999999,4 14,7.000001 16,8 14,21 3.9999999,18 Z"
     sodipodi:nodetypes="cccccc" />
  <path
     id="path7481"
     style="opacity:0.6;fill:#ffffff;fill-opacity:1;stroke-width:0.428568;stroke-linecap:round;stroke-linejoin:round"
     d="m 5.6249999,13 c -0.6316728,0.0014 -1.1885602,0.185551 -1.625,0.521484 v 0.875001 c 0.6071549,-0.424377 1.5527435,-0.656472 3,-0.138672 0.2932917,0.106752 0.5777814,0.25371 0.8457031,0.429687 L 8.6230468,14.191407 C 8.1273003,13.790794 7.5774053,13.467972 6.9999999,13.257813 6.5167517,13.081925 6.0538512,12.999066 5.6249999,13 Z m 4.0175781,1.957032 -2.3183593,1.474609 c -0.1043059,-0.07401 -0.2138599,-0.133395 -0.3242188,-0.173829 -0.5525535,-0.201112 -1.0003808,0.08403 -1,0.636719 3.806e-4,0.552154 0.4479849,1.162365 1,1.363281 0.5521714,0.200974 0.999841,-0.08265 1,-0.634765 -2.05e-4,-0.06337 -0.00737,-0.128771 -0.019531,-0.195313 l 2.3691401,-1.505859 z m 1.066406,2.15039 -0.7929685,0.503906 c 0.05492,0.246992 0.083984,0.494404 0.083984,0.738281 L 11,18.714844 c 0,-0.530838 -0.103253,-1.075589 -0.291016,-1.607422 z" />
  <path
     id="rect1571"
     style="fill:url(#linearGradient15644);fill-opacity:1;stroke-width:0.237575"
     d="M 14,7.000001 18,6.0000013 V 20 l -4,1 z"
     sodipodi:nodetypes="ccccc" />
  <path
     id="rect4424"
     style="fill:url(#linearGradient18975);fill-opacity:1;stroke-width:0.27586"
     d="m 18,6 h 3 l -3,1 -4,1e-6 z"
     sodipodi:nodetypes="ccccc" />
  <path
     id="rect4774"
     style="fill:url(#linearGradient18983);fill-opacity:1;stroke-width:0.248092"
     d="M 9.9999999,1 20,4.0000013 l -2,2 L 7.9999999,3 Z"
     sodipodi:nodetypes="ccccc" />
</svg>
