<?xml version="1.0" encoding="UTF-8" standalone="no"?>
<!-- Created with Inkscape (http://www.inkscape.org/) -->

<svg
   width="22"
   height="22"
   viewBox="0 0 22 22.000001"
   version="1.1"
   id="svg5"
   inkscape:version="1.2.1 (9c6d41e410, 2022-07-14, custom)"
   sodipodi:docname="text-css.svg"
   xmlns:inkscape="http://www.inkscape.org/namespaces/inkscape"
   xmlns:sodipodi="http://sodipodi.sourceforge.net/DTD/sodipodi-0.dtd"
   xmlns="http://www.w3.org/2000/svg"
   xmlns:svg="http://www.w3.org/2000/svg">
  <sodipodi:namedview
     id="namedview7"
     pagecolor="#ffffff"
     bordercolor="#000000"
     borderopacity="0.25"
     inkscape:showpageshadow="2"
     inkscape:pageopacity="0.0"
     inkscape:pagecheckerboard="0"
     inkscape:deskcolor="#d1d1d1"
     inkscape:document-units="px"
     showgrid="false"
     inkscape:zoom="36.454545"
     inkscape:cx="11"
     inkscape:cy="11"
     inkscape:window-width="1920"
     inkscape:window-height="1011"
     inkscape:window-x="0"
     inkscape:window-y="0"
     inkscape:window-maximized="1"
     inkscape:current-layer="svg5" />
  <defs
     id="defs2" />
  <path
     id="rect234"
     style="fill:#7d7d7b"
     d="M 3,0 H 15.5 L 19,3.5 V 22 H 3 Z"
     sodipodi:nodetypes="cccccc" />
  <path
     id="rect1746"
     style="fill:#fafafa"
     d="m 4,1 h 10 v 4 h 4 V 21 H 4 Z"
     sodipodi:nodetypes="ccccccc" />
  <path
     id="rect1800"
     style="fill:#fafafa;stroke-width:0.75"
     d="m 15,1 3,3.0000008 h -3 z"
     sodipodi:nodetypes="cccc" />
  <path
     id="path701"
     style="fill:#999999;fill-opacity:1;stroke-width:0.499998;stroke-linecap:round;stroke-linejoin:round"
     d="M 9 6 C 7.895434 6 7 7.000004 7 9 L 7 11 C 7 11.552283 6.552283 12 6 12 C 5.7238585 12 5.5 12.223858 5.5 12.5 C 5.5 12.776143 5.7238585 13 6 13 C 6.5522829 13 7 13.447719 7 14 L 7 16 C 7 17.999996 7.895434 19 9 19 L 9.5 19 C 9.7769983 19 10 18.777 10 18.5 C 10 18.223 9.7769983 18 9.5 18 L 9 18 C 8.4477173 18 8 17.539997 8 16 L 8 14 C 7.9998456 13.425906 7.7529917 12.879554 7.3222656 12.5 C 7.7529917 12.120445 7.9998456 11.574095 8 11 L 8 9 C 8 7.460003 8.4477173 7 9 7 L 9.5 7 C 9.7769983 7 10 6.7769985 10 6.5 C 10 6.2230015 9.7769983 6 9.5 6 L 9 6 z M 12.5 6 C 12.223001 6 12 6.2230015 12 6.5 C 12 6.7769985 12.223001 7 12.5 7 L 13 7 C 13.552282 7 14 7.4600029 14 9 L 14 11 C 14.000154 11.574095 14.24701 12.120445 14.677734 12.5 C 14.24701 12.879554 14.000154 13.425906 14 14 L 14 16 C 14 17.539998 13.552282 18 13 18 L 12.5 18 C 12.223001 18 12 18.223 12 18.5 C 12 18.777 12.223001 19 12.5 19 L 13 19 C 14.104566 19 15 17.999996 15 16 L 15 14 C 15 13.44772 15.447718 13 16 13 C 16.276142 13 16.5 12.776143 16.5 12.5 C 16.5 12.223858 16.276142 12 16 12 C 15.447718 12 15 11.552283 15 11 L 15 9 C 15 7.0000039 14.104566 6 13 6 L 12.5 6 z M 11 9 C 10.447716 9 10 9.4477156 10 10 C 10 10.552283 10.447716 11 11 11 C 11.552284 11 12 10.552283 12 10 C 12 9.4477156 11.552284 9 11 9 z M 11 14 C 10.447717 14 10 14.447717 10 15 C 10 15.552283 10.447717 16 11 16 C 11.09935 15.999662 11.198086 15.984518 11.292969 15.955078 C 11.247403 16.224656 11.143656 16.539374 11 17 C 11.41198 16.763579 12 15.999997 12 15 C 12 14.447717 11.552283 14 11 14 z " />
</svg>
