<?xml version="1.0" encoding="UTF-8" standalone="no"?>
<!-- Created with Inkscape (http://www.inkscape.org/) -->

<svg
   width="22"
   height="22"
   viewBox="0 0 22 22.000001"
   version="1.1"
   id="svg5"
   inkscape:version="1.3.2 (091e20ef0f, 2023-11-25, custom)"
   sodipodi:docname="text-x-ruby.svg"
   xmlns:inkscape="http://www.inkscape.org/namespaces/inkscape"
   xmlns:sodipodi="http://sodipodi.sourceforge.net/DTD/sodipodi-0.dtd"
   xmlns="http://www.w3.org/2000/svg"
   xmlns:svg="http://www.w3.org/2000/svg">
  <sodipodi:namedview
     id="namedview7"
     pagecolor="#ffffff"
     bordercolor="#000000"
     borderopacity="0.25"
     inkscape:showpageshadow="2"
     inkscape:pageopacity="0.0"
     inkscape:pagecheckerboard="0"
     inkscape:deskcolor="#d1d1d1"
     inkscape:document-units="px"
     showgrid="false"
     inkscape:zoom="36.727273"
     inkscape:cx="11"
     inkscape:cy="11"
     inkscape:window-width="1920"
     inkscape:window-height="1012"
     inkscape:window-x="0"
     inkscape:window-y="0"
     inkscape:window-maximized="1"
     inkscape:current-layer="svg5" />
  <defs
     id="defs2" />
  <path
     id="rect234"
     style="fill:#7d7d7b"
     d="M 3,0 H 15.5 L 19,3.5 V 22 H 3 Z"
     sodipodi:nodetypes="cccccc" />
  <path
     id="rect1746"
     style="fill:#fafafa"
     d="m 4,1 h 10 v 4 h 4 V 21 H 4 Z"
     sodipodi:nodetypes="ccccccc" />
  <path
     id="rect1800"
     style="fill:#fafafa;stroke-width:0.75"
     d="m 15,1 3,3.0000008 h -3 z"
     sodipodi:nodetypes="cccc" />
  <path
     d="m 15.997986,10.227372 -0.555044,7.21557 -7.21557,0.555044 z"
     style="fill:#bf2336;stroke-width:0.277522"
     id="path1" />
  <path
     d="m 12.112679,14.112679 3.330263,3.330263 0.555044,-7.21557 z"
     style="fill:#b31523;stroke-width:0.277522"
     id="path2" />
  <path
     d="M 8.726911,10.726911 C 6.2569659,13.169104 5.2856391,16.166341 6.5622401,17.442942 7.838841,18.719543 10.836078,17.748216 13.278271,15.306023 15.720464,12.86383 16.719543,9.838841 15.442942,8.5622401 14.166341,7.2856391 11.169104,8.2569659 8.726911,10.726911 Z"
     style="fill:#cf1928;stroke-width:0.277522"
     id="path3" />
  <path
     d="M 7.117284,11.059938 9.059938,9.117284 11.280113,8.0071961 12.945245,9.117284 12.112679,11.614981 9.614981,13.835157 7.117284,14.667723 6.0071961,13.002591 Z"
     style="fill:#d9414f;stroke-width:0.277522"
     id="path4" />
  <path
     d="M 12.945245,9.117284 11.280113,8.0071961 h 3.052742 z m 3.052741,1.38761 -3.052741,-1.38761 -0.832566,2.497697 z m -6.383005,3.330263 3.66329,1.443114 -1.165592,-3.66329 z m -2.497697,0.832566 1.110088,3.330263 1.387609,-4.162829 z M 6.0071961,13.002591 v 3.052742 l 1.1100879,-1.38761 z"
     style="fill:#eb6773;stroke-width:0.277522"
     id="path5" />
</svg>
