<?xml version="1.0" encoding="UTF-8" standalone="no"?>
<!-- Created with Inkscape (http://www.inkscape.org/) -->

<svg
   width="22"
   height="22"
   viewBox="0 0 22 22.000001"
   version="1.1"
   id="svg5"
   inkscape:version="1.2.1 (9c6d41e410, 2022-07-14, custom)"
   sodipodi:docname="text-x-html.svg"
   xmlns:inkscape="http://www.inkscape.org/namespaces/inkscape"
   xmlns:sodipodi="http://sodipodi.sourceforge.net/DTD/sodipodi-0.dtd"
   xmlns:xlink="http://www.w3.org/1999/xlink"
   xmlns="http://www.w3.org/2000/svg"
   xmlns:svg="http://www.w3.org/2000/svg">
  <sodipodi:namedview
     id="namedview7"
     pagecolor="#ffffff"
     bordercolor="#000000"
     borderopacity="0.25"
     inkscape:showpageshadow="2"
     inkscape:pageopacity="0.0"
     inkscape:pagecheckerboard="0"
     inkscape:deskcolor="#d1d1d1"
     inkscape:document-units="px"
     showgrid="false"
     inkscape:zoom="36.818182"
     inkscape:cx="11"
     inkscape:cy="11"
     inkscape:window-width="1920"
     inkscape:window-height="1012"
     inkscape:window-x="0"
     inkscape:window-y="0"
     inkscape:window-maximized="1"
     inkscape:current-layer="svg5" />
  <defs
     id="defs2">
    <linearGradient
       inkscape:collect="always"
       xlink:href="#linearGradient984"
       id="linearGradient7450"
       x1="13.809379"
       y1="13.973848"
       x2="2.3889806"
       y2="3.7831419"
       gradientUnits="userSpaceOnUse"
       gradientTransform="matrix(0.78197122,0,0,0.78197122,4.3793095,6.3793133)" />
    <linearGradient
       inkscape:collect="always"
       id="linearGradient984">
      <stop
         style="stop-color:#117bb9;stop-opacity:1;"
         offset="0"
         id="stop980" />
      <stop
         style="stop-color:#15b393;stop-opacity:1"
         offset="1"
         id="stop982" />
    </linearGradient>
  </defs>
  <path
     id="rect234"
     style="fill:#7d7d7b"
     d="M 3,0 H 15.5 L 19,3.5 V 22 H 3 Z"
     sodipodi:nodetypes="cccccc" />
  <path
     id="rect1746"
     style="fill:#fafafa"
     d="m 4,1 h 10 v 4 h 4 V 21 H 4 Z"
     sodipodi:nodetypes="ccccccc" />
  <path
     id="rect1800"
     style="fill:#fafafa;stroke-width:0.75"
     d="m 15,1 3,3.0000008 h -3 z"
     sodipodi:nodetypes="cccc" />
  <circle
     style="fill:url(#linearGradient7450);fill-opacity:1;stroke-width:0.881002;stroke-linecap:round;stroke-linejoin:round"
     id="path7362"
     cx="11"
     cy="13.000002"
     r="6" />
  <path
     id="path1250"
     style="opacity:0.3;fill:#ffffff;stroke-width:2;stroke-linecap:round"
     d="m 11.007812,7.0000003 a 2,6 0 0 1 1.732422,2.9999995 H 9.2753895 A 2,6 0 0 1 11.007812,7.0000003 Z m 0,0 A 6,6 0 0 0 9.3183585,7.2421883 3,7 0 0 0 8.3046865,9.9999998 H 5.8281235 A 6,6 0 0 0 5.3671865,11 h 2.769531 a 3,7 0 0 0 -0.128906,2 3,7 0 0 0 0.128906,2 h -2.769531 a 6,6 0 0 0 0.460937,1 h 2.476563 A 3,7 0 0 0 9.3183585,18.757812 6,6 0 0 0 11.007812,19 2,6 0 0 1 9.2753895,16 H 12.740234 A 2,6 0 0 1 11.007812,19 6,6 0 0 0 12.697265,18.757812 3,7 0 0 0 13.710937,16 H 16.1875 a 6,6 0 0 0 0.460937,-1 h -2.769531 a 3,7 0 0 0 0.128906,-2 3,7 0 0 0 -0.125,-2 h 2.78125 A 6,6 0 0 0 16.201171,9.9999998 H 13.71875 A 3,7 0 0 0 12.705078,7.2460943 6,6 0 0 0 11.007812,7.0000003 Z M 9.1269525,11 h 3.7656255 a 2,6 0 0 1 0.115234,2 2,6 0 0 1 -0.119141,2 H 9.1269525 a 2,6 0 0 1 -0.119141,-2 2,6 0 0 1 0.119141,-2 z" />
</svg>
