<?xml version="1.0" encoding="UTF-8" standalone="no"?>
<!-- Created with Inkscape (http://www.inkscape.org/) -->

<svg
   width="22"
   height="22"
   viewBox="0 0 22 22"
   version="1.1"
   id="svg5"
   inkscape:version="1.2.1 (9c6d41e410, 2022-07-14, custom)"
   sodipodi:docname="video-x-generic.svg"
   xmlns:inkscape="http://www.inkscape.org/namespaces/inkscape"
   xmlns:sodipodi="http://sodipodi.sourceforge.net/DTD/sodipodi-0.dtd"
   xmlns:xlink="http://www.w3.org/1999/xlink"
   xmlns="http://www.w3.org/2000/svg"
   xmlns:svg="http://www.w3.org/2000/svg">
  <sodipodi:namedview
     id="namedview7"
     pagecolor="#ffffff"
     bordercolor="#000000"
     borderopacity="0.25"
     inkscape:showpageshadow="2"
     inkscape:pageopacity="0.0"
     inkscape:pagecheckerboard="0"
     inkscape:deskcolor="#d1d1d1"
     inkscape:document-units="px"
     showgrid="false"
     inkscape:zoom="36.727273"
     inkscape:cx="11"
     inkscape:cy="11"
     inkscape:window-width="1920"
     inkscape:window-height="1010"
     inkscape:window-x="0"
     inkscape:window-y="0"
     inkscape:window-maximized="1"
     inkscape:current-layer="svg5"
     showguides="true" />
  <defs
     id="defs2">
    <linearGradient
       inkscape:collect="always"
       id="linearGradient27684">
      <stop
         style="stop-color:#4a4a4a;stop-opacity:1;"
         offset="0"
         id="stop27680" />
      <stop
         style="stop-color:#232323;stop-opacity:0.74901962"
         offset="1"
         id="stop27682" />
    </linearGradient>
    <linearGradient
       inkscape:collect="always"
       xlink:href="#linearGradient12418"
       id="linearGradient2216"
       x1="42.000004"
       y1="4.000001"
       x2="52.000004"
       y2="21.999998"
       gradientUnits="userSpaceOnUse"
       gradientTransform="translate(-36.000003,-2.0000007)" />
    <linearGradient
       inkscape:collect="always"
       id="linearGradient12418">
      <stop
         style="stop-color:#52e4ff;stop-opacity:1;"
         offset="0"
         id="stop12414" />
      <stop
         style="stop-color:#d29eff;stop-opacity:1"
         offset="1"
         id="stop12416" />
    </linearGradient>
    <linearGradient
       inkscape:collect="always"
       xlink:href="#linearGradient27684"
       id="linearGradient982"
       x1="5.2062192"
       y1="1"
       x2="23"
       y2="26"
       gradientUnits="userSpaceOnUse"
       gradientTransform="matrix(0.9,0,0,0.8,-0.7,0.2)" />
  </defs>
  <rect
     style="fill:url(#linearGradient982);fill-opacity:1;stroke-width:0.848528;stroke-linecap:round"
     id="rect419"
     width="18"
     height="20"
     x="2"
     y="1"
     ry="1" />
  <path
     id="rect1388"
     style="fill:#ffffff;stroke-width:3;stroke-linecap:round;stroke-linejoin:round"
     d="M 3.4746094,2 C 3.2093666,2 3,2.2316553 3,2.5 v 2 C 3,4.7770017 3.2229913,5 3.5,5 h 1 C 4.7770007,5 5,4.7770007 5,4.5 v -2 C 5,2.2229987 4.7770087,2 4.5,2 h -1 z M 17.474609,2 C 17.209367,2 17,2.2316553 17,2.5 v 2 C 17,4.7770017 17.222991,5 17.5,5 h 1 C 18.777001,5 19,4.7770007 19,4.5 v -2 C 19,2.2229987 18.777009,2 18.5,2 h -1 z M 3.4746094,7 C 3.2093666,7 3,7.2316543 3,7.5 v 2 C 3,9.777001 3.2229913,10 3.5,10 h 1 C 4.7770007,10 5,9.777001 5,9.5 v -2 C 5,7.2229983 4.7770087,7 4.5,7 h -1 z M 17.474609,7 C 17.209367,7 17,7.2316543 17,7.5 v 2 c 0,0.277001 0.222991,0.5 0.5,0.5 h 1 C 18.777001,10 19,9.777001 19,9.5 v -2 C 19,7.2229983 18.777009,7 18.5,7 h -1 z M 3.4746094,12 C 3.2093626,12 3,12.231655 3,12.5 v 2 C 3,14.777002 3.2229913,15 3.5,15 h 1 C 4.7770007,15 5,14.777009 5,14.5 v -2 C 5,12.222998 4.7770087,12 4.5,12 h -1 z M 17.474609,12 C 17.209363,12 17,12.231655 17,12.5 v 2 c 0,0.277002 0.222991,0.5 0.5,0.5 h 1 c 0.277001,0 0.5,-0.222991 0.5,-0.5 v -2 C 19,12.222998 18.777009,12 18.5,12 h -1 z M 3.4746094,17 C 3.2093726,17 3,17.23165 3,17.5 v 2 C 3,19.777002 3.2229913,20 3.5,20 h 1 C 4.7770007,20 5,19.777009 5,19.5 v -2 C 5,17.222998 4.7770087,17 4.5,17 h -1 z M 17.474609,17 C 17.209373,17 17,17.23165 17,17.5 v 2 c 0,0.277002 0.222991,0.5 0.5,0.5 h 1 c 0.277001,0 0.5,-0.222991 0.5,-0.5 v -2 C 19,17.222998 18.777009,17 18.5,17 h -1 z"
     sodipodi:nodetypes="sssssssscssssssssscssssssssscssssssssscssssssssscssssssssscssssssssscssssssssscs" />
  <path
     id="rect2063"
     style="fill:url(#linearGradient2216);fill-opacity:1;stroke-width:3;stroke-linecap:round;stroke-linejoin:round"
     d="M 7,2 C 6.4460012,2 6,2.4460012 6,3 v 6 c 0,0.553998 0.4460012,1 1,1 h 8 c 0.553998,0 1,-0.446002 1,-1 V 3 C 16,2.4460012 15.553998,2 15,2 Z m 0,10 c -0.5539988,0 -1,0.446002 -1,1 v 6 c 0,0.553998 0.4460012,1 1,1 h 8 c 0.553998,0 1,-0.446002 1,-1 v -6 c 0,-0.553998 -0.446002,-1 -1,-1 z" />
</svg>
