<?xml version="1.0" encoding="UTF-8" standalone="no"?>
<!-- Created with Inkscape (http://www.inkscape.org/) -->

<svg
   width="22"
   height="22"
   viewBox="0 0 22 22.000001"
   version="1.1"
   id="svg5"
   inkscape:version="1.2.1 (9c6d41e410, 2022-07-14, custom)"
   sodipodi:docname="x-office-document.svg"
   xmlns:inkscape="http://www.inkscape.org/namespaces/inkscape"
   xmlns:sodipodi="http://sodipodi.sourceforge.net/DTD/sodipodi-0.dtd"
   xmlns="http://www.w3.org/2000/svg"
   xmlns:svg="http://www.w3.org/2000/svg">
  <sodipodi:namedview
     id="namedview7"
     pagecolor="#ffffff"
     bordercolor="#000000"
     borderopacity="0.25"
     inkscape:showpageshadow="2"
     inkscape:pageopacity="0.0"
     inkscape:pagecheckerboard="0"
     inkscape:deskcolor="#d1d1d1"
     inkscape:document-units="px"
     showgrid="false"
     inkscape:zoom="38.772727"
     inkscape:cx="11"
     inkscape:cy="11"
     inkscape:window-width="1920"
     inkscape:window-height="1029"
     inkscape:window-x="0"
     inkscape:window-y="0"
     inkscape:window-maximized="1"
     inkscape:current-layer="svg5" />
  <defs
     id="defs2" />
  <path
     id="rect234"
     style="fill:#7d7d7b"
     d="M 3,0 H 15.5 L 19,3.5 V 22 H 3 Z"
     sodipodi:nodetypes="cccccc" />
  <path
     id="rect1746"
     style="fill:#fafafa"
     d="m 4,1 h 10 v 4 h 4 V 21 H 4 Z"
     sodipodi:nodetypes="ccccccc" />
  <path
     id="rect1800"
     style="fill:#fafafa;stroke-width:0.75"
     d="m 15,1 3,3.0000008 h -3 z"
     sodipodi:nodetypes="cccc" />
  <path
     id="path884"
     style="fill:#c0c5cb;fill-opacity:1;stroke-width:3;stroke-linecap:round;stroke-linejoin:round"
     d="m 6,14 v 1 h 3 v -1 z m 5,0 c -0.553999,0 -1,0.446001 -1,1 v 3 c 0,0.553999 0.446001,1 1,1 h 4 c 0.553999,0 1,-0.446001 1,-1 v -3 c 0,-0.553999 -0.446001,-1 -1,-1 z m -5,2 v 1 h 3 v -1 z m 0,2 v 1 h 3 v -1 z"
     sodipodi:nodetypes="cccccssssssssscccccccccc" />
  <rect
     style="fill:#88c0f0;fill-opacity:1;stroke-width:0.999997;stroke-linecap:round"
     id="rect10149"
     width="4"
     height="3"
     x="11"
     y="15" />
  <path
     id="path4039"
     style="font-size:10.5833px;line-height:1.25;font-family:'Noto Sans CJK KR';-inkscape-font-specification:'Noto Sans CJK KR';fill:#2784bd;fill-opacity:1;stroke-width:0.168819"
     d="m 6,12 v 1 h 10 v -1 z"
     sodipodi:nodetypes="ccccc" />
  <path
     id="rect1374"
     style="fill:#69b0ec;fill-opacity:1;stroke-width:3;stroke-linecap:round;stroke-linejoin:round"
     d="m 12,8.000001 v 1 h 4 v -1 z m 0,2 V 11 h 4 v -0.999999 z"
     sodipodi:nodetypes="cccccccccc" />
  <path
     id="path4039-3"
     style="font-size:10.5833px;line-height:1.25;font-family:'Noto Sans CJK KR';-inkscape-font-specification:'Noto Sans CJK KR';fill:#2784bd;fill-opacity:1;stroke-width:0.108972"
     d="M 8,6 6,11 H 7 L 7.4003906,10 H 9.5996094 L 10,11 h 1 L 9,6 Z M 8.5,7.25 9.1992188,9 H 7.8007812 Z" />
</svg>
