<?xml version="1.0" encoding="UTF-8" standalone="no"?>
<!-- Created with Inkscape (http://www.inkscape.org/) -->

<svg
   width="22"
   height="22"
   viewBox="0 0 22 22.000001"
   version="1.1"
   id="svg5"
   inkscape:version="1.2.1 (9c6d41e410, 2022-07-14, custom)"
   sodipodi:docname="x-office-document-template.svg"
   xmlns:inkscape="http://www.inkscape.org/namespaces/inkscape"
   xmlns:sodipodi="http://sodipodi.sourceforge.net/DTD/sodipodi-0.dtd"
   xmlns="http://www.w3.org/2000/svg"
   xmlns:svg="http://www.w3.org/2000/svg">
  <sodipodi:namedview
     id="namedview7"
     pagecolor="#ffffff"
     bordercolor="#000000"
     borderopacity="0.25"
     inkscape:showpageshadow="2"
     inkscape:pageopacity="0.0"
     inkscape:pagecheckerboard="0"
     inkscape:deskcolor="#d1d1d1"
     inkscape:document-units="px"
     showgrid="false"
     inkscape:zoom="38.772727"
     inkscape:cx="11"
     inkscape:cy="11"
     inkscape:window-width="1920"
     inkscape:window-height="1029"
     inkscape:window-x="0"
     inkscape:window-y="0"
     inkscape:window-maximized="1"
     inkscape:current-layer="svg5" />
  <defs
     id="defs2" />
  <path
     id="rect846"
     style="fill:#7d7d7b;stroke-width:0.999999;stroke-linecap:round;stroke-linejoin:round"
     d="m 2,0 17.999997,0.9999994 4e-6,20.9999996 H 4.0000002 v -2 H 2 Z"
     sodipodi:nodetypes="ccccccc" />
  <path
     id="rect1454"
     style="fill:#fafafa;stroke-width:0.999999;stroke-linecap:round;stroke-linejoin:round"
     d="M 2.9999997,1.0000002 V 19 H 17 V 1.0000002 Z M 18,1.0000002 V 20 H 17 4.9999997 v 1 H 19 V 1.0000002 Z"
     sodipodi:nodetypes="ccccccccccccc" />
  <path
     id="path884"
     style="fill:#c0c5cb;fill-opacity:1;stroke-width:3;stroke-linecap:round;stroke-linejoin:round"
     d="m 5,14 v 1 h 5 v -1 z m 7,0 c -0.553999,0 -1,0.446001 -1,1 v 1 c 0,0.553999 0.446001,1 1,1 h 2 c 0.553999,0 1,-0.446001 1,-1 v -1 c 0,-0.553999 -0.446001,-1 -1,-1 z m -7,2 v 1 h 5 v -1 z"
     sodipodi:nodetypes="cccccsssssssssccccc" />
  <rect
     style="fill:#88c0f0;fill-opacity:1;stroke-width:0.408247;stroke-linecap:round"
     id="rect10149"
     width="2"
     height="1"
     x="12"
     y="15" />
  <path
     id="path4039"
     style="font-size:10.5833px;line-height:1.25;font-family:'Noto Sans CJK KR';-inkscape-font-specification:'Noto Sans CJK KR';fill:#2784bd;fill-opacity:1;stroke-width:0.168819"
     d="m 5,12 v 1 h 10 v -1 z"
     sodipodi:nodetypes="ccccc" />
  <path
     id="rect1374"
     style="fill:#69b0ec;fill-opacity:1;stroke-width:3;stroke-linecap:round;stroke-linejoin:round"
     d="m 11,8.000001 v 1 h 4 v -1 z m 0,2 V 11 h 4 v -0.999999 z"
     sodipodi:nodetypes="cccccccccc" />
  <path
     id="path4039-3"
     style="font-size:10.5833px;line-height:1.25;font-family:'Noto Sans CJK KR';-inkscape-font-specification:'Noto Sans CJK KR';fill:#2784bd;fill-opacity:1;stroke-width:0.108972"
     d="M 7,6 5,11 H 6 L 6.4003906,10 H 8.5996094 L 9,11 h 1 L 8,6 Z M 7.5,7.25 8.1992188,9 H 6.8007812 Z"
     sodipodi:nodetypes="ccccccccccccc" />
  <rect
     style="fill:#69b0ec;fill-opacity:1;stroke-width:0.966987;stroke-linecap:round;stroke-linejoin:round"
     id="rect6964"
     width="16"
     height="4"
     x="2"
     y="2.2752701e-07" />
  <path
     id="rect13579"
     style="fill:#2784bd;fill-opacity:1;stroke-width:1.41009;stroke-linecap:round;stroke-linejoin:round"
     d="M 18,0 V 0.99999991 L 20,2.0000002 V 0.99999981 Z M 2.0000005,3 V 4 H 18 V 3 Z"
     sodipodi:nodetypes="cccccccccc" />
</svg>
