<?xml version="1.0" encoding="UTF-8" standalone="no"?>
<!-- Created with Inkscape (http://www.inkscape.org/) -->

<svg
   width="22"
   height="22"
   viewBox="0 0 22 22.000001"
   version="1.1"
   id="svg5"
   inkscape:version="1.2.1 (9c6d41e410, 2022-07-14, custom)"
   sodipodi:docname="x-office-presentation.svg"
   xmlns:inkscape="http://www.inkscape.org/namespaces/inkscape"
   xmlns:sodipodi="http://sodipodi.sourceforge.net/DTD/sodipodi-0.dtd"
   xmlns="http://www.w3.org/2000/svg"
   xmlns:svg="http://www.w3.org/2000/svg">
  <sodipodi:namedview
     id="namedview7"
     pagecolor="#ffffff"
     bordercolor="#000000"
     borderopacity="0.25"
     inkscape:showpageshadow="2"
     inkscape:pageopacity="0.0"
     inkscape:pagecheckerboard="0"
     inkscape:deskcolor="#d1d1d1"
     inkscape:document-units="px"
     showgrid="false"
     inkscape:zoom="37.590909"
     inkscape:cx="11"
     inkscape:cy="11"
     inkscape:window-width="1920"
     inkscape:window-height="1029"
     inkscape:window-x="0"
     inkscape:window-y="0"
     inkscape:window-maximized="1"
     inkscape:current-layer="svg5" />
  <defs
     id="defs2" />
  <path
     id="rect234"
     style="fill:#7d7d7b"
     d="M 3,0 H 15.5 L 19,3.5 V 22 H 3 Z"
     sodipodi:nodetypes="cccccc" />
  <path
     id="rect1746"
     style="fill:#fafafa"
     d="m 4,1 h 10 v 4 h 4 V 21 H 4 Z"
     sodipodi:nodetypes="ccccccc" />
  <path
     id="path844"
     style="fill:#c0c5cb;fill-opacity:1;stroke-width:2;stroke-linejoin:round"
     d="M 11 7 C 8.7908677 7 7 8.7908674 7 11 C 7 13.209132 8.7908677 15 11 15 C 13.209133 15 15 13.209132 15 11 L 11 11 L 11 7 z M 6 16 L 6 17 L 16 17 L 16 16 L 6 16 z M 6 18 L 6 19 L 16 19 L 16 18 L 6 18 z " />
  <path
     id="path1336"
     style="fill:#e8ab72;fill-opacity:1;stroke-width:1.14286;stroke-linejoin:round"
     d="m 12,6 v 4.000001 h 4 A 3.9999999,3.9999999 0 0 0 12,6 Z" />
  <path
     id="rect1800"
     style="fill:#fafafa"
     d="m 15,1 2.999999,3 H 15 Z"
     sodipodi:nodetypes="cccc" />
</svg>
