<?xml version="1.0" encoding="UTF-8" standalone="no"?>
<!-- Created with Inkscape (http://www.inkscape.org/) -->

<svg
   width="24"
   height="24"
   viewBox="0 0 24 24"
   version="1.1"
   id="svg5"
   inkscape:version="1.4.2 (ebf0e940d0, 2025-05-08)"
   sodipodi:docname="application-xml-symbolic.svg"
   xmlns:inkscape="http://www.inkscape.org/namespaces/inkscape"
   xmlns:sodipodi="http://sodipodi.sourceforge.net/DTD/sodipodi-0.dtd"
   xmlns="http://www.w3.org/2000/svg"
   xmlns:svg="http://www.w3.org/2000/svg">
  <sodipodi:namedview
     id="namedview7"
     pagecolor="#ffffff"
     bordercolor="#000000"
     borderopacity="0.25"
     inkscape:showpageshadow="2"
     inkscape:pageopacity="0.0"
     inkscape:pagecheckerboard="0"
     inkscape:deskcolor="#d1d1d1"
     inkscape:document-units="px"
     showgrid="false"
     inkscape:zoom="33.041667"
     inkscape:cx="12"
     inkscape:cy="12"
     inkscape:window-width="1920"
     inkscape:window-height="1007"
     inkscape:window-x="0"
     inkscape:window-y="0"
     inkscape:window-maximized="1"
     inkscape:current-layer="svg5" />
  <defs
     id="defs2">
    <style
       id="current-color-scheme"
       type="text/css">
        .ColorScheme-Text { color:#dedede; } .ColorScheme-Highlight { color:#4285f4; } .ColorScheme-NeutralText { color:#ff9800; } .ColorScheme-PositiveText { color:#4caf50; } .ColorScheme-NegativeText { color:#f44336; }
     </style>
  </defs>
  <path
     id="path1"
     style="fill:currentColor"
     class="ColorScheme-Text"
     d="m 13.855469,6.3305973 c -0.194641,0.0097 -0.373282,0.133881 -0.444336,0.329102 L 9.649414,16.995636 c -0.09474,0.260295 0.03853,0.546863 0.298828,0.641602 0.260295,0.09474 0.545885,-0.03853 0.640625,-0.298828 L 14.350586,7.0014963 c 0.09474,-0.260295 -0.03853,-0.545886 -0.298828,-0.640625 -0.06507,-0.02369 -0.131409,-0.03351 -0.196289,-0.03027 z M 8.65625,8.5483713 c -0.127809,0 -0.255581,0.0505 -0.353516,0.148437 L 5,11.999543 8.302734,15.302277 c 0.195867,0.195867 0.511164,0.195867 0.707031,0 0.195868,-0.195868 0.195868,-0.511162 0,-0.707031 L 6.414062,11.999543 9.009765,9.4038403 c 0.195868,-0.195869 0.195868,-0.511164 0,-0.707032 -0.09793,-0.09793 -0.225706,-0.148437 -0.353515,-0.148437 z m 6.6875,0 c -0.127809,0 -0.255582,0.0505 -0.353516,0.148437 -0.195868,0.195868 -0.195868,0.511163 0,0.707032 l 2.595703,2.5957027 -2.595703,2.595703 c -0.195868,0.195869 -0.195868,0.511163 0,0.707031 0.195867,0.195867 0.511164,0.195867 0.707031,0 L 19,11.999543 15.697265,8.6968083 c -0.09793,-0.09793 -0.225706,-0.148437 -0.353515,-0.148437 z" />
</svg>
