<?xml version="1.0" encoding="UTF-8" standalone="no"?>
<!-- Created with Inkscape (http://www.inkscape.org/) -->

<svg
   width="48"
   height="48"
   viewBox="0 0 48 48"
   version="1.1"
   id="svg5"
   inkscape:version="1.2.1 (9c6d41e410, 2022-07-14, custom)"
   sodipodi:docname="application-x-executable.svg"
   xmlns:inkscape="http://www.inkscape.org/namespaces/inkscape"
   xmlns:sodipodi="http://sodipodi.sourceforge.net/DTD/sodipodi-0.dtd"
   xmlns:xlink="http://www.w3.org/1999/xlink"
   xmlns="http://www.w3.org/2000/svg"
   xmlns:svg="http://www.w3.org/2000/svg">
  <sodipodi:namedview
     id="namedview7"
     pagecolor="#ffffff"
     bordercolor="#000000"
     borderopacity="0.25"
     inkscape:showpageshadow="2"
     inkscape:pageopacity="0.0"
     inkscape:pagecheckerboard="0"
     inkscape:deskcolor="#d1d1d1"
     inkscape:document-units="px"
     showgrid="false"
     inkscape:zoom="16.875"
     inkscape:cx="23.97037"
     inkscape:cy="24"
     inkscape:window-width="1920"
     inkscape:window-height="1012"
     inkscape:window-x="0"
     inkscape:window-y="0"
     inkscape:window-maximized="1"
     inkscape:current-layer="svg5" />
  <defs
     id="defs2">
    <linearGradient
       inkscape:collect="always"
       xlink:href="#linearGradient1738"
       id="linearGradient7562"
       x1="5.1154499"
       y1="4.9610038"
       x2="5.1425061"
       y2="7.2102246"
       gradientUnits="userSpaceOnUse"
       gradientTransform="matrix(5.2324003,0,0,5.2324003,2.3146291,-1.957942)" />
    <linearGradient
       inkscape:collect="always"
       id="linearGradient1738">
      <stop
         style="stop-color:#696f75;stop-opacity:1;"
         offset="0"
         id="stop1734" />
      <stop
         style="stop-color:#4d4e50;stop-opacity:1"
         offset="1"
         id="stop1736" />
    </linearGradient>
    <linearGradient
       inkscape:collect="always"
       xlink:href="#linearGradient1798"
       id="linearGradient7728"
       x1="3.2308109"
       y1="2.3813164"
       x2="3.1946909"
       y2="5.3985844"
       gradientUnits="userSpaceOnUse"
       gradientTransform="matrix(4.5362523,0,0,4.5362523,3.529368,3.1983389)" />
    <linearGradient
       inkscape:collect="always"
       id="linearGradient1798">
      <stop
         style="stop-color:#aeb7bc;stop-opacity:1;"
         offset="0"
         id="stop1794" />
      <stop
         style="stop-color:#959ea5;stop-opacity:1"
         offset="1"
         id="stop1796" />
    </linearGradient>
  </defs>
  <rect
     style="fill:#797774;fill-opacity:1;stroke-width:2;stroke-linejoin:round"
     id="rect924"
     width="44"
     height="31.999998"
     x="2"
     y="8"
     ry="3" />
  <rect
     style="fill:#ffffff;stroke-width:2;stroke-linejoin:round"
     id="rect1289"
     width="42"
     height="28"
     x="3"
     y="11"
     ry="1.9999999" />
  <path
     id="rect1066"
     style="fill:#c4c4c4;fill-opacity:1;stroke-width:1.5;stroke-linecap:round;stroke-linejoin:round"
     d="M 38.000001,9.0000006 V 10.000001 H 39 V 9.0000006 Z m 2.000002,0 v 1.0000004 h 1.000002 V 9.0000006 Z m 2.000001,0 v 1.0000004 h 0.999999 V 9.0000006 Z" />
  <path
     id="path6320"
     style="color:#000000;fill:url(#linearGradient7562);fill-opacity:1;stroke:none;stroke-width:3.4878;stroke-linecap:round;stroke-linejoin:round"
     d="m 29.08249,24.000003 c -0.425675,-0.0014 -0.800295,0.285952 -0.902343,0.69922 l -0.292968,1.640624 -1.5625,-0.558594 c -0.406482,-0.11756 -0.84169,0.05624 -1.054688,0.421876 l -0.921873,1.597655 c -0.214126,0.367906 -0.15454,0.833894 0.15234,1.128906 l 1.265627,1.070312 -1.265623,1.078126 c -0.305034,0.293251 -0.370282,0.757727 -0.16016,1.124999 l 0.925779,1.597656 c 0.213024,0.365618 0.644298,0.53943 1.05078,0.421874 l 1.570314,-0.558592 0.30078,1.632812 c 0.10142,0.410801 0.4714,0.701471 0.894531,0.703123 h 1.839846 c 0.423136,-0.0017 0.793088,-0.292326 0.89453,-0.703123 l 0.300782,-1.632812 1.566405,0.558592 c 0.406484,0.11752 0.841688,-0.05624 1.054688,-0.421874 l 0.921874,-1.597656 c 0.21012,-0.367272 0.14488,-0.831748 -0.16016,-1.124999 l -1.265618,-1.078126 1.265626,-1.070312 c 0.306876,-0.295012 0.370382,-0.761 0.15626,-1.128906 l -0.921886,-1.597655 c -0.21301,-0.365618 -0.648204,-0.539428 -1.054686,-0.421876 l -1.562499,0.558594 -0.300784,-1.640624 c -0.10144,-0.4108 -0.471394,-0.697568 -0.89453,-0.69922 z m 0.91797,3.999999 c 1.104568,0 2,0.895436 2,2 0,1.104566 -0.895432,1.999999 -2,1.999999 -1.104568,0 -2.000001,-0.895431 -2.000001,-1.999999 0,-1.104564 0.895435,-2 2.000001,-2 z" />
  <path
     id="path7172"
     style="color:#000000;fill:url(#linearGradient7728);fill-opacity:1;stroke-width:3.77866;stroke-linecap:round;stroke-linejoin:round"
     d="m 18.183629,14.000292 c -0.471672,0.02054 -0.869792,0.373464 -0.945312,0.843749 l -0.347658,2.109374 -2.003905,-0.75 c -0.456782,-0.17424 -0.971916,0.0076 -1.21875,0.429688 l -1,1.734376 c -0.246566,0.425379 -0.14706,0.963201 0.234376,1.273435 l 1.648436,1.359376 -1.65625,1.367188 c -0.375128,0.309794 -0.471848,0.843211 -0.230468,1.265623 l 1,1.734376 c 0.243404,0.42446 0.756378,0.608452 1.214844,0.4375 l 2.007811,-0.753906 0.351564,2.117185 c 0.08118,0.482518 0.502888,0.83347 0.992186,0.832032 h 2 c 0.486509,-0.0022 0.899745,-0.352264 0.980469,-0.832032 l 0.355468,-2.117185 2.007812,0.753906 c 0.458466,0.17094 0.975342,-0.013 1.218749,-0.4375 l 1,-1.734376 c 0.241376,-0.422412 0.14076,-0.955829 -0.234374,-1.265623 l -1.652343,-1.367188 1.648437,-1.359376 c 0.381444,-0.310234 0.48094,-0.848056 0.234374,-1.273435 l -1,-1.734376 c -0.246835,-0.422 -0.761965,-0.60392 -1.218749,-0.429688 l -2.007812,0.75 -0.351562,-2.109374 C 21.133452,14.36134 20.71938,14.003058 20.230503,14.000292 h -2 c -0.0154,-2.6e-5 -0.03164,-6.42e-4 -0.04688,0 z m 1.042968,3.999999 c 1.656849,0 2.999999,1.343153 2.999999,2.999999 0,1.656848 -1.34315,2.999999 -2.999999,2.999999 -1.65685,0 -3,-1.343149 -3,-2.999999 0,-1.656846 1.343154,-2.999999 3,-2.999999 z" />
</svg>
