<?xml version="1.0" encoding="UTF-8" standalone="no"?>
<!-- Created with Inkscape (http://www.inkscape.org/) -->

<svg
   width="48"
   height="48"
   viewBox="0 0 48 48"
   version="1.1"
   id="svg5"
   inkscape:version="1.2.1 (9c6d41e410, 2022-07-14, custom)"
   sodipodi:docname="application-x-shellscript.svg"
   xmlns:inkscape="http://www.inkscape.org/namespaces/inkscape"
   xmlns:sodipodi="http://sodipodi.sourceforge.net/DTD/sodipodi-0.dtd"
   xmlns:xlink="http://www.w3.org/1999/xlink"
   xmlns="http://www.w3.org/2000/svg"
   xmlns:svg="http://www.w3.org/2000/svg">
  <sodipodi:namedview
     id="namedview7"
     pagecolor="#ffffff"
     bordercolor="#000000"
     borderopacity="0.25"
     inkscape:showpageshadow="2"
     inkscape:pageopacity="0.0"
     inkscape:pagecheckerboard="0"
     inkscape:deskcolor="#d1d1d1"
     inkscape:document-units="px"
     showgrid="false"
     inkscape:zoom="16.708333"
     inkscape:cx="24"
     inkscape:cy="24"
     inkscape:window-width="1920"
     inkscape:window-height="1011"
     inkscape:window-x="0"
     inkscape:window-y="0"
     inkscape:window-maximized="1"
     inkscape:current-layer="svg5" />
  <defs
     id="defs2">
    <linearGradient
       inkscape:collect="always"
       id="linearGradient2996">
      <stop
         style="stop-color:#1a1a1a;stop-opacity:1;"
         offset="0"
         id="stop2992" />
      <stop
         style="stop-color:#525252;stop-opacity:1;"
         offset="1"
         id="stop2994" />
    </linearGradient>
    <linearGradient
       inkscape:collect="always"
       xlink:href="#linearGradient2996"
       id="linearGradient6096"
       x1="45"
       y1="39"
       x2="3"
       y2="11"
       gradientUnits="userSpaceOnUse" />
  </defs>
  <rect
     style="fill:#797774;fill-opacity:1;stroke-width:2;stroke-linejoin:round"
     id="rect924"
     width="44"
     height="31.999998"
     x="2"
     y="8"
     ry="3" />
  <rect
     style="fill:url(#linearGradient6096);stroke-width:2;stroke-linejoin:round;fill-opacity:1"
     id="rect1289"
     width="42"
     height="28"
     x="3"
     y="11"
     ry="1.9999999" />
  <path
     id="rect1066"
     style="fill:#c4c4c4;fill-opacity:1;stroke-width:1.5;stroke-linecap:round;stroke-linejoin:round"
     d="M 38.000001,9.0000006 V 10.000001 H 39 V 9.0000006 Z m 2.000002,0 v 1.0000004 h 1.000002 V 9.0000006 Z m 2.000001,0 v 1.0000004 h 0.999999 V 9.0000006 Z" />
  <path
     id="rect233"
     style="fill:#ffffff;stroke-width:1.22475"
     d="m 8,14 v 2 H 6 v 1 h 2 v 2 H 6 v 1.000001 h 2 v 2 h 1 v -2 h 2 v 2 h 1 v -2 h 2.000001 V 19 H 12 v -2 h 2.000001 V 16 H 12 v -2 h -1 v 2 H 9 v -2 z m 8.000001,0 v 6.000001 h 1 V 14 Z M 9,17 h 2 v 2 H 9 Z m 7.000001,4.000001 v 1 h 1 v -1 z" />
</svg>
