<?xml version="1.0" encoding="UTF-8" standalone="no"?>
<svg
   width="48"
   height="48"
   viewBox="0 0 48 48"
   version="1.1"
   id="svg1886"
   inkscape:version="1.2.1 (9c6d41e410, 2022-07-14, custom)"
   sodipodi:docname="application-x-msi.svg"
   xmlns:inkscape="http://www.inkscape.org/namespaces/inkscape"
   xmlns:sodipodi="http://sodipodi.sourceforge.net/DTD/sodipodi-0.dtd"
   xmlns:xlink="http://www.w3.org/1999/xlink"
   xmlns="http://www.w3.org/2000/svg"
   xmlns:svg="http://www.w3.org/2000/svg"
   xmlns:rdf="http://www.w3.org/1999/02/22-rdf-syntax-ns#"
   xmlns:cc="http://creativecommons.org/ns#"
   xmlns:dc="http://purl.org/dc/elements/1.1/">
  <defs
     id="defs1880">
    <linearGradient
       inkscape:collect="always"
       xlink:href="#linearGradient2986"
       id="linearGradient2988"
       x1="0.092813492"
       y1="10.202362"
       x2="0.092813492"
       y2="13.470933"
       gradientUnits="userSpaceOnUse"
       gradientTransform="matrix(1.7738909,0,0,1.8356649,26.835362,16.271892)" />
    <linearGradient
       inkscape:collect="always"
       id="linearGradient2986">
      <stop
         style="stop-color:#818990;stop-opacity:1;"
         offset="0"
         id="stop2982" />
      <stop
         style="stop-color:#9fa8b0;stop-opacity:1"
         offset="1"
         id="stop2984" />
    </linearGradient>
    <linearGradient
       inkscape:collect="always"
       xlink:href="#linearGradient1116"
       id="linearGradient1118"
       x1="1.0583334"
       y1="7.276042"
       x2="20.108334"
       y2="7.276042"
       gradientUnits="userSpaceOnUse"
       gradientTransform="matrix(1.8897639,0,0,1.8413084,1.0000001,2.1025635)" />
    <linearGradient
       inkscape:collect="always"
       id="linearGradient1116">
      <stop
         style="stop-color:#555a5f;stop-opacity:1;"
         offset="0"
         id="stop1112" />
      <stop
         style="stop-color:#4b4f53;stop-opacity:1"
         offset="1"
         id="stop1114" />
    </linearGradient>
    <linearGradient
       inkscape:collect="always"
       xlink:href="#linearGradient2301"
       id="linearGradient2303"
       x1="1.3229166"
       y1="2.6458333"
       x2="20.006569"
       y2="15.285042"
       gradientUnits="userSpaceOnUse"
       gradientTransform="matrix(2.140909,0,0,2.215329,1.1677558,1.1386081)" />
    <linearGradient
       inkscape:collect="always"
       id="linearGradient2301">
      <stop
         style="stop-color:#3fe3e7;stop-opacity:1;"
         offset="0"
         id="stop2297" />
      <stop
         style="stop-color:#066bbc;stop-opacity:1"
         offset="1"
         id="stop2299" />
    </linearGradient>
    <linearGradient
       inkscape:collect="always"
       xlink:href="#linearGradient6804"
       id="linearGradient6808"
       x1="2.3812499"
       y1="8.4666672"
       x2="6.6145835"
       y2="12.700001"
       gradientUnits="userSpaceOnUse"
       gradientTransform="matrix(0.49999997,0,0,0.49999997,0.13229168,1.0583335)" />
    <linearGradient
       inkscape:collect="always"
       id="linearGradient6804">
      <stop
         style="stop-color:#ffffff;stop-opacity:1;"
         offset="0"
         id="stop6800" />
      <stop
         style="stop-color:#ffffff;stop-opacity:0;"
         offset="1"
         id="stop6802" />
    </linearGradient>
    <linearGradient
       inkscape:collect="always"
       xlink:href="#linearGradient162116"
       id="linearGradient162118"
       x1="96.408417"
       y1="238.0069"
       x2="127.77626"
       y2="238.0069"
       gradientUnits="userSpaceOnUse"
       gradientTransform="matrix(0.13495771,0,0,0.13021686,-12.746474,-24.642512)" />
    <linearGradient
       inkscape:collect="always"
       id="linearGradient162116">
      <stop
         style="stop-color:#e3edee;stop-opacity:1;"
         offset="0"
         id="stop162112" />
      <stop
         style="stop-color:#c9cdce;stop-opacity:1"
         offset="1"
         id="stop162114" />
    </linearGradient>
    <linearGradient
       inkscape:collect="always"
       xlink:href="#linearGradient219586"
       id="linearGradient1070"
       gradientUnits="userSpaceOnUse"
       gradientTransform="matrix(0.13495771,0,0,0.13021686,-12.746474,-24.642512)"
       x1="112.09232"
       y1="238.0069"
       x2="112.17286"
       y2="254.33937" />
    <linearGradient
       inkscape:collect="always"
       id="linearGradient219586">
      <stop
         style="stop-color:#b9bfbf;stop-opacity:1;"
         offset="0"
         id="stop219582" />
      <stop
         style="stop-color:#aaacab;stop-opacity:1"
         offset="1"
         id="stop219584" />
    </linearGradient>
    <linearGradient
       inkscape:collect="always"
       xlink:href="#linearGradient2496"
       id="linearGradient2498"
       x1="16.424316"
       y1="54.63533"
       x2="32.331596"
       y2="38.452602"
       gradientUnits="userSpaceOnUse"
       gradientTransform="matrix(0.13229166,0,0,0.13229166,0.13229168,1.0583335)" />
    <linearGradient
       inkscape:collect="always"
       id="linearGradient2496">
      <stop
         style="stop-color:#ffffff;stop-opacity:0.5"
         offset="0"
         id="stop2492" />
      <stop
         style="stop-color:#ffffff;stop-opacity:0"
         offset="0.44999999"
         id="stop3080" />
      <stop
         style="stop-color:#ffffff;stop-opacity:1"
         offset="0.5"
         id="stop2756" />
      <stop
         style="stop-color:#ffffff;stop-opacity:0"
         offset="0.55000001"
         id="stop3014" />
      <stop
         style="stop-color:#ffffff;stop-opacity:0.2"
         offset="1"
         id="stop2494" />
    </linearGradient>
    <linearGradient
       inkscape:collect="always"
       xlink:href="#linearGradient7820"
       id="linearGradient7822"
       x1="14.532227"
       y1="42.393677"
       x2="19.540161"
       y2="37.501221"
       gradientUnits="userSpaceOnUse"
       gradientTransform="matrix(0.13229166,0,0,0.13229166,0.13229168,1.0583335)" />
    <linearGradient
       inkscape:collect="always"
       id="linearGradient7820">
      <stop
         style="stop-color:#858585;stop-opacity:1"
         offset="0"
         id="stop7816" />
      <stop
         style="stop-color:#ffffff;stop-opacity:1"
         offset="0.5"
         id="stop8592" />
      <stop
         style="stop-color:#868686;stop-opacity:1"
         offset="1"
         id="stop7818" />
    </linearGradient>
    <linearGradient
       inkscape:collect="always"
       xlink:href="#linearGradient7820"
       id="linearGradient10226"
       gradientUnits="userSpaceOnUse"
       x1="14.532227"
       y1="42.393677"
       x2="19.540161"
       y2="37.501221"
       gradientTransform="matrix(0.26458333,0,0,0.26458333,-2.1166667,-4.2333332)" />
    <linearGradient
       inkscape:collect="always"
       xlink:href="#linearGradient11941"
       id="linearGradient11943"
       x1="5.1081543"
       y1="42.191895"
       x2="7.4692383"
       y2="33.279785"
       gradientUnits="userSpaceOnUse"
       gradientTransform="matrix(0.13229166,0,0,0.13229166,0.13229168,1.0583335)" />
    <linearGradient
       inkscape:collect="always"
       id="linearGradient11941">
      <stop
         style="stop-color:#f89af4;stop-opacity:0"
         offset="0"
         id="stop11937" />
      <stop
         style="stop-color:#f89af4;stop-opacity:0"
         offset="0.40000001"
         id="stop12523" />
      <stop
         style="stop-color:#f89af4;stop-opacity:1"
         offset="0.5"
         id="stop12201" />
      <stop
         style="stop-color:#f89af4;stop-opacity:0"
         offset="0.60000002"
         id="stop12781" />
      <stop
         style="stop-color:#f89af4;stop-opacity:0;"
         offset="1"
         id="stop11939" />
    </linearGradient>
    <linearGradient
       inkscape:collect="always"
       xlink:href="#linearGradient16450"
       id="linearGradient16452"
       x1="17.605227"
       y1="29.40974"
       x2="27.150551"
       y2="39.243584"
       gradientUnits="userSpaceOnUse"
       gradientTransform="matrix(0.13229166,0,0,0.13229166,0.13229168,1.0583335)" />
    <linearGradient
       inkscape:collect="always"
       id="linearGradient16450">
      <stop
         style="stop-color:#6fef7e;stop-opacity:0"
         offset="0"
         id="stop16446" />
      <stop
         style="stop-color:#6fef7e;stop-opacity:0"
         offset="0.44792882"
         id="stop17132" />
      <stop
         style="stop-color:#6fef7e;stop-opacity:1"
         offset="0.5"
         id="stop16680" />
      <stop
         style="stop-color:#6fef7e;stop-opacity:0"
         offset="0.55000001"
         id="stop16938" />
      <stop
         style="stop-color:#6fef7e;stop-opacity:0;"
         offset="1"
         id="stop16448" />
    </linearGradient>
    <linearGradient
       inkscape:collect="always"
       xlink:href="#linearGradient219586"
       id="linearGradient771"
       gradientUnits="userSpaceOnUse"
       gradientTransform="matrix(0.13495771,0,0,0.13021686,-12.746474,-24.642512)"
       x1="112.09232"
       y1="238.0069"
       x2="112.17286"
       y2="254.33937" />
  </defs>
  <sodipodi:namedview
     id="base"
     pagecolor="#ffffff"
     bordercolor="#666666"
     borderopacity="1.0"
     inkscape:pageopacity="0.0"
     inkscape:pageshadow="2"
     inkscape:zoom="17.229167"
     inkscape:cx="23.970979"
     inkscape:cy="24"
     inkscape:document-units="px"
     inkscape:current-layer="svg1886"
     inkscape:document-rotation="0"
     showgrid="false"
     units="px"
     inkscape:window-width="1920"
     inkscape:window-height="1029"
     inkscape:window-x="0"
     inkscape:window-y="0"
     inkscape:window-maximized="1"
     inkscape:pagecheckerboard="0"
     inkscape:showpageshadow="2"
     inkscape:deskcolor="#d1d1d1" />
  <metadata
     id="metadata1883">
    <rdf:RDF>
      <cc:Work
         rdf:about="">
        <dc:format>image/svg+xml</dc:format>
        <dc:type
           rdf:resource="http://purl.org/dc/dcmitype/StillImage" />
      </cc:Work>
    </rdf:RDF>
  </metadata>
  <path
     id="rect958"
     style="fill:#bcc5cf;stroke-width:2.11289;stroke-linecap:round;stroke-linejoin:round"
     d="m 15.000002,41.000011 h 18.000002 l 1,1 H 14.000002 Z"
     sodipodi:nodetypes="ccccc" />
  <rect
     style="fill:url(#linearGradient2988);fill-opacity:1;stroke-width:2.38723;stroke-linecap:round;stroke-linejoin:round"
     id="rect2848"
     width="6.0000005"
     height="6.0000005"
     x="21.000002"
     y="35" />
  <path
     id="rect1418"
     style="fill:#b8c2cc;stroke-width:2.50001;stroke-linecap:round;stroke-linejoin:round"
     d="M 6.0000012,5 H 42.000004 c 2,0 2.882606,1.9153441 2.882606,1.9153441 L 45,7.5000002 H 3.0000002 L 3.4568122,6.420253 c 0,0 1.2671397,-1.420253 2.543189,-1.420253 z"
     sodipodi:nodetypes="ssccccs" />
  <path
     id="rect846-3"
     style="fill:url(#linearGradient1118);stroke-width:2.46775;stroke-linecap:round;stroke-linejoin:round"
     d="M 4.5000003,5.9999997 H 43.5 c 0.831004,0 1.5,0.669 1.5,1.5000001 V 34.500001 c 0,0.831001 -0.668996,1.500004 -1.5,1.500004 H 4.5000003 c -0.8309998,0 -1.5000001,-0.669003 -1.5000001,-1.500004 V 7.4999998 c 0,-0.8310001 0.6690003,-1.5000001 1.5000001,-1.5000001 z"
     sodipodi:nodetypes="sssssssss" />
  <rect
     style="fill:#44484c;fill-opacity:1;stroke-width:3.77965;stroke-linecap:round;stroke-linejoin:round"
     id="rect1839"
     width="20.000002"
     height="2.0000002"
     x="14.000003"
     y="41.999992" />
  <path
     id="rect2053"
     style="fill:url(#linearGradient2303);stroke-width:2.88106;stroke-linecap:round;stroke-linejoin:round"
     d="M 4.0000003,6.9999998 H 44.000004 V 35.000002 H 4.0000003 Z"
     sodipodi:nodetypes="ccccc" />
  <g
     id="g900"
     transform="matrix(5.6692922,0,0,5.6692922,-0.50000027,-2.000002)">
    <path
       id="path6272"
       style="opacity:0.4;fill:url(#linearGradient6808);fill-opacity:1;stroke-width:0.264583;stroke-linecap:round;stroke-linejoin:round"
       d="M 2.3812499,5.2916666 A 1.0583333,1.0583333 0 0 0 1.3229166,6.3499998 1.0583333,1.0583333 0 0 0 2.3812499,7.4083331 1.0583333,1.0583333 0 0 0 3.4395831,6.3499998 1.0583333,1.0583333 0 0 0 2.3812499,5.2916666 Z m 0,0.7937499 A 0.26458333,0.26458333 0 0 1 2.6458332,6.3499998 0.26458333,0.26458333 0 0 1 2.3812499,6.6145831 0.26458333,0.26458333 0 0 1 2.1166666,6.3499998 0.26458333,0.26458333 0 0 1 2.3812499,6.0854165 Z" />
    <path
       id="path9538"
       style="opacity:1;fill:#d0d0d0;fill-opacity:1;stroke-width:0.264583;stroke-linecap:round;stroke-linejoin:round"
       d="M 2.3812499,5.4239582 A 0.92604161,0.92604161 0 0 0 1.4552083,6.3499998 0.92604161,0.92604161 0 0 0 2.3812499,7.2760414 0.92604161,0.92604161 0 0 0 3.3072915,6.3499998 0.92604161,0.92604161 0 0 0 2.3812499,5.4239582 Z m 0,0.1984375 A 0.7276041,0.7276041 0 0 1 3.108854,6.3499998 0.7276041,0.7276041 0 0 1 2.3812499,7.077604 0.7276041,0.7276041 0 0 1 1.6536458,6.3499998 0.7276041,0.7276041 0 0 1 2.3812499,5.6223957 Z" />
    <path
       id="path151229"
       style="fill:url(#linearGradient162118);fill-opacity:1;stroke-width:0.175375;stroke-linecap:round;stroke-linejoin:round"
       d="M 2.3812499,4.2333333 A 2.1166667,2.1166667 0 0 0 0.26458334,6.35 2.1166667,2.1166667 0 0 0 2.3812499,8.4666663 2.1166667,2.1166667 0 0 0 4.4979164,6.35 2.1166667,2.1166667 0 0 0 2.3812499,4.2333333 Z m 0,1.3229166 A 0.79374993,0.79374993 0 0 1 3.1749998,6.35 0.79374993,0.79374993 0 0 1 2.3812499,7.14375 0.79374993,0.79374993 0 0 1 1.5874999,6.35 0.79374993,0.79374993 0 0 1 2.3812499,5.5562499 Z" />
    <path
       id="path151229-3"
       style="fill:url(#linearGradient771);fill-opacity:1;stroke-width:0.175375;stroke-linecap:round;stroke-linejoin:round"
       d="M 3.1731911,6.399609 A 0.79374993,0.79374993 0 0 1 2.3812499,7.14375 0.79374993,0.79374993 0 0 1 1.8205606,6.910689 L 0.88573402,7.8455159 A 2.1166667,2.1166667 0 0 0 2.3812499,8.4666663 2.1166667,2.1166667 0 0 0 4.4930072,6.482033 Z" />
    <path
       id="path151229-3-3"
       style="fill:url(#linearGradient1070);fill-opacity:1;stroke-width:0.175375;stroke-linecap:round;stroke-linejoin:round"
       d="M 3.1731911,6.399609 A 0.79374993,0.79374993 0 0 1 2.3812499,7.14375 0.79374993,0.79374993 0 0 1 1.8205606,6.910689 L 0.88573402,7.8455159 A 2.1166667,2.1166667 0 0 0 2.3812499,8.4666663 2.1166667,2.1166667 0 0 0 4.4930073,6.482033 Z" />
    <path
       id="rect2336"
       style="opacity:0.5;fill:url(#linearGradient2498);fill-opacity:1;stroke-width:0.264583;stroke-linecap:round;stroke-linejoin:round"
       d="M 1.8683613,4.2981872 A 2.1166667,2.1166667 0 0 0 0.30230713,5.9601011 l 1.28700147,0.2576071 0.012661,0.00207 A 0.79374994,0.79374994 0 0 1 2.1895303,5.5828633 Z M 3.1605304,6.4802244 A 0.79374996,0.79374996 0 0 1 2.5729695,7.1171364 L 2.8941384,8.4018125 A 2.1166667,2.1166667 0 0 0 4.4601927,6.7398985 L 3.1731911,6.4822915 Z" />
    <path
       id="path7246"
       style="opacity:0.5;fill:url(#linearGradient7822);fill-opacity:1;stroke-width:0.330729;stroke-linecap:round;stroke-linejoin:round"
       d="M 2.3812499,6.0192707 A 0.33072913,0.33072913 0 0 0 2.0505207,6.3499998 0.33072913,0.33072913 0 0 0 2.3812499,6.680729 0.33072913,0.33072913 0 0 0 2.711979,6.3499998 0.33072913,0.33072913 0 0 0 2.3812499,6.0192707 Z m 0,0.066146 A 0.26458333,0.26458333 0 0 1 2.6458332,6.3499998 0.26458333,0.26458333 0 0 1 2.3812499,6.6145831 0.26458333,0.26458333 0 0 1 2.1166666,6.3499998 0.26458333,0.26458333 0 0 1 2.3812499,6.0854167 Z" />
    <path
       id="path7246-2"
       style="opacity:0.5;fill:url(#linearGradient10226);fill-opacity:1;stroke-width:0.661454;stroke-linecap:round;stroke-linejoin:round"
       d="M 2.3812499,5.6885415 A 0.66145825,0.66145825 0 0 0 1.7197916,6.3499998 0.66145825,0.66145825 0 0 0 2.3812499,7.0114581 0.66145825,0.66145825 0 0 0 3.0427082,6.3499998 0.66145825,0.66145825 0 0 0 2.3812499,5.6885415 Z m 0,0.066146 A 0.59531241,0.59531241 0 0 1 2.9765623,6.3499998 0.59531241,0.59531241 0 0 1 2.3812499,6.9453123 0.59531241,0.59531241 0 0 1 1.7859374,6.3499998 0.59531241,0.59531241 0 0 1 2.3812499,5.7546875 Z" />
    <path
       id="path151229-7"
       style="opacity:0.5;fill:url(#linearGradient11943);fill-opacity:1;stroke-width:0.175375;stroke-linecap:round;stroke-linejoin:round"
       d="M 0.51159667,5.3601378 C 0.34978344,5.6650166 0.26498256,6.0048412 0.26458334,6.3499998 0.26498286,6.6951584 0.34978344,7.034983 0.51159667,7.3398618 L 1.6807759,6.7207782 C 1.6199378,6.6066315 1.5879169,6.4793464 1.5874999,6.3499998 1.5879233,6.2206532 1.6199378,6.0933682 1.6807759,5.9792215 Z"
       sodipodi:nodetypes="ccccccc" />
    <path
       id="path151229-1"
       style="opacity:0.5;fill:url(#linearGradient16452);fill-opacity:1;stroke-width:0.175375;stroke-linecap:round;stroke-linejoin:round"
       d="M 3.0124774,4.3297099 2.6179279,5.5924234 A 0.79374994,0.79374994 0 0 1 3.124357,6.0712055 L 4.363041,5.6068927 A 2.1166667,2.1166667 0 0 0 3.0124774,4.3297099 Z" />
    <path
       id="path151229-2"
       style="fill:#d0d0d0;fill-opacity:1;stroke-width:0.175375;stroke-linecap:round;stroke-linejoin:round"
       d="M 2.3812499,4.2333333 A 2.1166667,2.1166667 0 0 0 0.26458334,6.3499998 2.1166667,2.1166667 0 0 0 2.3812499,8.4666664 2.1166667,2.1166667 0 0 0 4.4979164,6.3499998 2.1166667,2.1166667 0 0 0 2.3812499,4.2333333 Z m 0,0.066146 A 2.0505208,2.0505208 0 0 1 4.4317706,6.3499998 2.0505208,2.0505208 0 0 1 2.3812499,8.4005205 2.0505208,2.0505208 0 0 1 0.33072917,6.3499998 2.0505208,2.0505208 0 0 1 2.3812499,4.2994793 Z" />
  </g>
</svg>
