<?xml version="1.0" encoding="UTF-8" standalone="no"?>
<!-- Created with Inkscape (http://www.inkscape.org/) -->

<svg
   width="48"
   height="48"
   viewBox="0 0 48 48"
   version="1.1"
   id="svg5"
   inkscape:version="1.2.1 (9c6d41e410, 2022-07-14, custom)"
   sodipodi:docname="application-vnd.ms-excel.svg"
   xmlns:inkscape="http://www.inkscape.org/namespaces/inkscape"
   xmlns:sodipodi="http://sodipodi.sourceforge.net/DTD/sodipodi-0.dtd"
   xmlns="http://www.w3.org/2000/svg"
   xmlns:svg="http://www.w3.org/2000/svg">
  <sodipodi:namedview
     id="namedview7"
     pagecolor="#ffffff"
     bordercolor="#000000"
     borderopacity="0.25"
     inkscape:showpageshadow="2"
     inkscape:pageopacity="0.0"
     inkscape:pagecheckerboard="0"
     inkscape:deskcolor="#d1d1d1"
     inkscape:document-units="px"
     showgrid="false"
     inkscape:zoom="16.708333"
     inkscape:cx="24"
     inkscape:cy="24"
     inkscape:window-width="1920"
     inkscape:window-height="1011"
     inkscape:window-x="0"
     inkscape:window-y="0"
     inkscape:window-maximized="1"
     inkscape:current-layer="svg5" />
  <defs
     id="defs2" />
  <path
     id="rect846"
     style="fill:#7d7d7b;stroke-width:2;stroke-linecap:round;stroke-linejoin:round"
     d="m 8,2 h 22.5 l 9.499999,9.5 V 46.000003 H 8 Z"
     sodipodi:nodetypes="cccccc" />
  <path
     id="rect1454"
     style="fill:#fafafa;stroke-width:2;stroke-linecap:round;stroke-linejoin:round"
     d="M 9.0000003,3.0000003 V 45.000004 H 39 V 13 h -9 c -0.554003,0 -1,-0.446 -1,-1 V 3.0000003 Z M 30,3.0000003 V 12 h 9 z"
     sodipodi:nodetypes="ccccsscccccc" />
  <rect
     style="fill:#0c7c42;fill-opacity:1;stroke-width:2;stroke-linejoin:round"
     id="rect844"
     width="20"
     height="20"
     x="1"
     y="15"
     ry="1.9999999" />
  <path
     id="rect12096"
     style="fill:#ffffff;fill-opacity:1;stroke-width:1.32746;stroke-linecap:round;stroke-linejoin:round"
     d="M 6.2298842,18.999999 9.734333,25.319241 6.0000001,32.044675 H 8.176991 l 1.663638,-3.239132 c 0.31862,-0.672577 0.654574,-1.326941 1.008561,-2.123412 h 0.07087 c 0.407114,0.796471 0.743999,1.450835 1.080286,2.123412 l 1.716355,3.239132 h 2.283295 l -3.73434,-6.637283 3.486305,-6.407393 h -2.158848 l -1.522769,3.061964 c -0.318619,0.601776 -0.565995,1.18607 -0.902258,1.98254 h -0.07087 c -0.407081,-0.79647 -0.689961,-1.380762 -1.008549,-1.98254 L 8.513182,18.999999 Z" />
  <rect
     style="fill:#185c37;fill-opacity:1;stroke-width:2.64574;stroke-linecap:round"
     id="rect341"
     width="6"
     height="2"
     x="23"
     y="28.999998"
     ry="0.5" />
  <rect
     style="fill:#107c41;fill-opacity:1;stroke-width:2.64574;stroke-linecap:round"
     id="rect343"
     width="6"
     height="2"
     x="23"
     y="23.999998"
     ry="0.5" />
  <rect
     style="fill:#21a366;fill-opacity:1;stroke-width:2.64574;stroke-linecap:round"
     id="rect345"
     width="6"
     height="2"
     x="23"
     y="18.999998"
     ry="0.5" />
  <rect
     style="fill:#6dc898;fill-opacity:1;stroke-width:2.04939"
     id="rect518"
     width="6"
     height="2"
     x="31"
     y="18.999998"
     ry="0.5" />
  <rect
     style="fill:#4fae7f;fill-opacity:1;stroke-width:2.04939"
     id="rect520"
     width="6"
     height="2"
     x="31"
     y="23.999998"
     ry="0.5" />
  <rect
     style="fill:#134a2c;fill-opacity:1;stroke-width:2.04939"
     id="rect522"
     width="6"
     height="2"
     x="31"
     y="28.999998"
     ry="0.5" />
</svg>
