<?xml version="1.0" encoding="UTF-8" standalone="no"?>
<!-- Created with Inkscape (http://www.inkscape.org/) -->

<svg
   width="48"
   height="48"
   viewBox="0 0 48 48"
   version="1.1"
   id="svg5"
   inkscape:version="1.2.1 (9c6d41e410, 2022-07-14, custom)"
   sodipodi:docname="application-x-zoo.svg"
   xmlns:inkscape="http://www.inkscape.org/namespaces/inkscape"
   xmlns:sodipodi="http://sodipodi.sourceforge.net/DTD/sodipodi-0.dtd"
   xmlns:xlink="http://www.w3.org/1999/xlink"
   xmlns="http://www.w3.org/2000/svg"
   xmlns:svg="http://www.w3.org/2000/svg">
  <sodipodi:namedview
     id="namedview7"
     pagecolor="#ffffff"
     bordercolor="#666666"
     borderopacity="1.0"
     inkscape:pageshadow="2"
     inkscape:pageopacity="0.0"
     inkscape:pagecheckerboard="0"
     inkscape:document-units="px"
     showgrid="false"
     units="px"
     height="64px"
     inkscape:zoom="16.708333"
     inkscape:cx="24"
     inkscape:cy="24"
     inkscape:window-width="1920"
     inkscape:window-height="1011"
     inkscape:window-x="0"
     inkscape:window-y="0"
     inkscape:window-maximized="1"
     inkscape:current-layer="svg5"
     showguides="false"
     inkscape:showpageshadow="2"
     inkscape:deskcolor="#d1d1d1" />
  <defs
     id="defs2">
    <linearGradient
       inkscape:collect="always"
       id="linearGradient9539">
      <stop
         style="stop-color:#000000;stop-opacity:1;"
         offset="0"
         id="stop9535" />
      <stop
         style="stop-color:#000000;stop-opacity:0;"
         offset="1"
         id="stop9545" />
      <stop
         style="stop-color:#000000;stop-opacity:0;"
         offset="1"
         id="stop9537" />
    </linearGradient>
    <linearGradient
       inkscape:collect="always"
       id="linearGradient12673">
      <stop
         style="stop-color:#ffffff;stop-opacity:1;"
         offset="0"
         id="stop12669" />
      <stop
         style="stop-color:#ffffff;stop-opacity:0;"
         offset="1"
         id="stop12671" />
    </linearGradient>
    <linearGradient
       inkscape:collect="always"
       xlink:href="#linearGradient12673"
       id="linearGradient5594"
       x1="4"
       y1="22"
       x2="45.936607"
       y2="22.007439"
       gradientUnits="userSpaceOnUse"
       gradientTransform="translate(-1.0000008,-5.9999999)" />
    <linearGradient
       inkscape:collect="always"
       id="linearGradient11972">
      <stop
         style="stop-color:#fce798;stop-opacity:1"
         offset="0"
         id="stop11968" />
      <stop
         style="stop-color:#ffc937;stop-opacity:1"
         offset="1"
         id="stop11970" />
    </linearGradient>
    <linearGradient
       inkscape:collect="always"
       id="linearGradient4405">
      <stop
         style="stop-color:#fcbc19;stop-opacity:1"
         offset="0"
         id="stop4401" />
      <stop
         style="stop-color:#f4b61f;stop-opacity:1"
         offset="1"
         id="stop4403" />
    </linearGradient>
    <linearGradient
       inkscape:collect="always"
       xlink:href="#linearGradient11972"
       id="linearGradient6679"
       x1="17"
       y1="16"
       x2="33.823818"
       y2="34"
       gradientUnits="userSpaceOnUse"
       gradientTransform="translate(-7.7e-7,1.0000001)" />
    <linearGradient
       inkscape:collect="always"
       xlink:href="#linearGradient4405"
       id="linearGradient7109"
       x1="24.272949"
       y1="7.7161407"
       x2="24.264668"
       y2="14.865067"
       gradientUnits="userSpaceOnUse"
       gradientTransform="translate(-7.7e-7,1.0000001)" />
    <linearGradient
       inkscape:collect="always"
       xlink:href="#linearGradient6090"
       id="linearGradient5817"
       gradientUnits="userSpaceOnUse"
       x1="4"
       y1="22"
       x2="58"
       y2="22"
       gradientTransform="translate(-8.0000021,-7.0000002)" />
    <linearGradient
       inkscape:collect="always"
       id="linearGradient6090">
      <stop
         style="stop-color:#e4a729;stop-opacity:1"
         offset="0"
         id="stop6086" />
      <stop
         style="stop-color:#e2b24b;stop-opacity:0"
         offset="1"
         id="stop6088" />
    </linearGradient>
    <linearGradient
       inkscape:collect="always"
       xlink:href="#linearGradient4066"
       id="linearGradient4068"
       x1="1.0583334"
       y1="2.1166668"
       x2="1.0583328"
       y2="4.1371207"
       gradientUnits="userSpaceOnUse"
       gradientTransform="matrix(5.0393704,0,0,5.9392578,4.6665714,12.428571)" />
    <linearGradient
       inkscape:collect="always"
       id="linearGradient4066">
      <stop
         style="stop-color:#d3d3d3;stop-opacity:1;"
         offset="0"
         id="stop4062" />
      <stop
         style="stop-color:#e1e1e1;stop-opacity:1"
         offset="0.2"
         id="stop4454" />
      <stop
         style="stop-color:#a3a3a3;stop-opacity:1"
         offset="1"
         id="stop4064" />
    </linearGradient>
    <linearGradient
       inkscape:collect="always"
       xlink:href="#linearGradient6118"
       id="linearGradient6120"
       x1="3.96875"
       y1="2.1166663"
       x2="4.2333336"
       y2="2.9104171"
       gradientUnits="userSpaceOnUse"
       gradientTransform="matrix(15.118102,0,0,6.299212,-18.999964,10.666671)" />
    <linearGradient
       inkscape:collect="always"
       id="linearGradient6118">
      <stop
         style="stop-color:#b7b7b7;stop-opacity:1;"
         offset="0"
         id="stop6114" />
      <stop
         style="stop-color:#7e7e7e;stop-opacity:1"
         offset="1"
         id="stop6116" />
    </linearGradient>
    <linearGradient
       inkscape:collect="always"
       xlink:href="#linearGradient5150"
       id="linearGradient5152"
       x1="3.4494236"
       y1="1.8520833"
       x2="3.4459186"
       y2="2.9104166"
       gradientUnits="userSpaceOnUse"
       gradientTransform="matrix(3.7795275,0,0,-3.7795275,23,36.000002)" />
    <linearGradient
       inkscape:collect="always"
       id="linearGradient5150">
      <stop
         style="stop-color:#aaaaaa;stop-opacity:1;"
         offset="0"
         id="stop5146" />
      <stop
         style="stop-color:#f6f6f5;stop-opacity:1"
         offset="1"
         id="stop5148" />
    </linearGradient>
    <linearGradient
       inkscape:collect="always"
       xlink:href="#linearGradient3105"
       id="linearGradient3097"
       x1="-1.0583334e-07"
       y1="3.7041669"
       x2="2.645833"
       y2="3.7041671"
       gradientUnits="userSpaceOnUse"
       gradientTransform="matrix(3.7795276,0,0,3.7795276,2.0000004,13)" />
    <linearGradient
       inkscape:collect="always"
       id="linearGradient3105">
      <stop
         style="stop-color:#d3d3d3;stop-opacity:1;"
         offset="0"
         id="stop3099" />
      <stop
         style="stop-color:#e1e1e1;stop-opacity:1"
         offset="0.09999993"
         id="stop3101" />
      <stop
         style="stop-color:#a3a3a3;stop-opacity:1;"
         offset="1"
         id="stop3103" />
    </linearGradient>
    <linearGradient
       inkscape:collect="always"
       xlink:href="#linearGradient5150"
       id="linearGradient5895"
       x1="8.8635416"
       y1="7.9374995"
       x2="8.8635416"
       y2="6.8791666"
       gradientUnits="userSpaceOnUse"
       gradientTransform="matrix(3.7795276,0,0,3.7795276,-3.000001,-0.9999988)" />
    <radialGradient
       inkscape:collect="always"
       xlink:href="#linearGradient9539"
       id="radialGradient9543"
       cx="5.0270848"
       cy="9.5249987"
       fx="5.0270848"
       fy="9.5249987"
       r="0.52916664"
       gradientUnits="userSpaceOnUse"
       gradientTransform="matrix(-6.8743257e-6,7.5110786,-7.5590484,4.679342e-7,77.499852,-4.2629549)" />
    <linearGradient
       inkscape:collect="always"
       xlink:href="#linearGradient6118"
       id="linearGradient21937"
       x1="11.641666"
       y1="6.3499999"
       x2="11.641667"
       y2="7.6729164"
       gradientUnits="userSpaceOnUse"
       gradientTransform="matrix(3.7795276,0,0,3.7795276,-1.0000009,0)" />
    <linearGradient
       inkscape:collect="always"
       xlink:href="#linearGradient1014"
       id="linearGradient971"
       x1="28.000002"
       y1="15.999997"
       x2="28.000002"
       y2="21.399998"
       gradientUnits="userSpaceOnUse"
       gradientTransform="matrix(1.5,0,0,2.2222222,4.9999971,-4.5555483)" />
    <linearGradient
       inkscape:collect="always"
       id="linearGradient1014">
      <stop
         style="stop-color:#33bff0;stop-opacity:1"
         offset="0"
         id="stop1010" />
      <stop
         style="stop-color:#1c9fe3;stop-opacity:1"
         offset="1"
         id="stop1012" />
    </linearGradient>
  </defs>
  <path
     id="rect846"
     style="fill:url(#linearGradient7109);fill-opacity:1;stroke-width:2;stroke-linecap:round;stroke-linejoin:round;stroke-dasharray:24, 2"
     d="M 5.9999992,6 C 4.3431447,6 2.999999,7.3431458 2.999999,9 V 35 H 45 V 12 c 0,-1.108 -0.892003,-2 -2.000002,-2 H 20 L 18,8.0000001 C 16.634743,6.6637686 15.662,6 14,6 Z"
     sodipodi:nodetypes="ssccssccss" />
  <path
     id="rect1170"
     style="fill:url(#linearGradient6679);fill-opacity:1;stroke-width:2.64576;stroke-linecap:round;stroke-linejoin:round;stroke-dasharray:31.749, 2.64576"
     d="m 20,11 -5,3 H 6.9999995 5.9999992 C 4.3431447,14 2.999999,15.343146 2.999999,17 v 1 19.000001 C 2.999999,38.108001 3.8919983,39 4.9999993,39 H 42.999998 C 44.107997,39 45,38.108001 45,37.000001 V 13 c 0,-1.108 -0.891999,-2 -2.000002,-2 z"
     sodipodi:nodetypes="cccsscssssssc" />
  <path
     id="rect1170-75"
     style="opacity:0.3;fill:url(#linearGradient5594);fill-opacity:1;stroke-width:2.64576;stroke-linecap:round;stroke-linejoin:round;stroke-dasharray:31.749, 2.64576"
     d="m 20,11 -5,3 H 5.9999992 C 4.3431447,14 2.999999,15.343146 2.999999,17 v 1 c 0,-1.656854 1.3431457,-3 3.0000002,-3 H 15 l 5,-3 H 42.999998 C 44.108005,12 45,12.892 45,14 v -1 c 0,-1.108 -0.891995,-2 -2.000002,-2 z"
     sodipodi:nodetypes="ccsscsccscssc" />
  <path
     id="rect1170-2"
     style="fill:#e4a729;fill-opacity:1;stroke-width:2.64576;stroke-linecap:round;stroke-linejoin:round;stroke-dasharray:31.749, 2.64576"
     d="m 2.9999994,36.000002 v 1.000002 C 2.9999994,38.108001 3.8919991,39 4.9999993,39 H 42.999998 C 44.107997,39 45,38.108001 45,37.000004 v -1.000002 c 0,1.107998 -0.892003,1.999999 -2.000002,1.999999 H 4.9999993 c -1.1080002,0 -1.9999999,-0.892001 -1.9999999,-1.999999 z"
     sodipodi:nodetypes="csssscssc" />
  <path
     id="rect1170-75-2"
     style="fill:url(#linearGradient5817);fill-opacity:1;stroke-width:2.64576;stroke-linecap:round;stroke-linejoin:round;stroke-dasharray:31.749, 2.64576"
     d="m 20,10 -5,3 H 5.9999992 C 4.3431447,13 2.999999,14.343146 2.999999,16 v 1 c 0,-1.656854 1.3431457,-3 3.0000002,-3 H 15 l 5,-3 H 42.999998 C 44.108001,11 45,11.892 45,13 v -1 c 0,-1.108 -0.891999,-2 -2.000002,-2 z"
     sodipodi:nodetypes="ccsscsccscssc" />
  <rect
     style="fill:#ae9347;fill-opacity:1;stroke-width:1.84198"
     id="rect3074"
     width="36"
     height="5"
     x="6.9999976"
     y="24" />
  <rect
     style="opacity:0.3;fill:#000000;fill-opacity:1;stroke-width:3.17888;stroke-linecap:round"
     id="rect11102"
     width="31.999998"
     height="3"
     x="9.999999"
     y="25.000002" />
  <rect
     style="fill:url(#linearGradient6120);fill-opacity:1;stroke-width:2.58199"
     id="rect6090"
     width="3.9999998"
     height="5"
     x="41"
     y="24" />
  <path
     id="rect5034"
     style="fill:url(#linearGradient5152);fill-opacity:1;stroke-width:0.999999"
     d="m 40.999997,25.000001 v 2 1 h 2.474612 0.02532 c 0.277001,0 0.499997,-0.222999 0.499997,-0.5 v -2 c 0,-0.277001 -0.222992,-0.5 -0.499997,-0.5 h -0.02532 z" />
  <rect
     style="opacity:0.5;fill:url(#radialGradient9543);fill-opacity:1;stroke-width:4.61877;stroke-linecap:round"
     id="rect8144"
     width="3.9999998"
     height="3.9999998"
     x="5.4999027"
     y="33.495876" />
  <path
     id="rect2535"
     style="fill:url(#linearGradient3097);fill-opacity:1;stroke-width:2;stroke-linecap:round"
     d="M 2.9999997,23 C 2.2017947,23.04753 2,23.918149 2,25 v 3 c 0.00605,1.094642 0.1820107,1.896293 0.9999997,2 H 3.9999995 C 5.7896953,29.913239 6.5114672,29.753438 8.314244,29.625935 9.0534686,29.573653 9.9999991,29.175248 9.9999987,28 l 4e-7,-2.999999 C 9.9999987,23.770974 9.107306,23.658438 8.3869647,23.542114 6.4367334,23.22718 5.460534,23.142782 3.9999995,23 Z"
     sodipodi:nodetypes="cccccsccscc" />
  <rect
     style="fill:#838383;fill-opacity:1;stroke-width:1.63299"
     id="rect6824-3"
     width="1.9999999"
     height="3.9999998"
     x="4.9999046"
     y="25" />
  <path
     id="rect3442"
     style="fill:url(#linearGradient4068);fill-opacity:1;stroke-width:1.44748"
     d="m 4.999999,25 v 11.974609 c -2.166e-4,0.0086 0,0.01674 0,0.0254 0,0.553999 0.4460008,1.000001 0.9999998,1.000001 h 3 c 0.553999,0 1.0000003,-0.446002 1.0000003,-1.000001 0,-0.0087 2.169e-4,-0.01678 0,-0.0254 V 25 Z m 0.9999998,1 h 3 v 2 h -3 z m 0,8 h 3 v 3 h -3 z" />
  <path
     id="rect5849"
     style="fill:url(#linearGradient5895);fill-opacity:1;stroke-width:0.999999;stroke-linecap:round"
     d="m 9.9999991,27.000001 h 0.9999999 v -2 H 9.9999991 Z m 0.9999999,0 v 1 h 1 v -1 z m 1,0 h 1 v -2 h -1 z m 1,0 v 1 h 1 v -1 z m 1,0 h 1 v -2 h -1 z m 1,0 v 1 h 1 v -1 z m 1,0 h 1 v -2 h -1 z m 1,0 v 1 h 1 v -1 z m 1,0 h 1 v -2 h -1 z m 1,0 v 1 h 1 v -1 z m 1,0 h 1 v -2 h -1 z m 1,0 v 1 h 1 v -1 z m 1,0 h 1 v -2 h -1 z m 1,0 v 1 h 1 v -1 z m 1,0 h 1 v -2 h -1 z m 1,0 v 1 h 1 v -1 z m 1,0 h 1 v -2 h -1 z m 1,0 v 1 h 1 v -1 z m 1,0 h 1 v -2 h -1 z m 1,0 v 1 h 1 v -1 z m 1,0 h 1 v -2 h -1 z m 1,0 v 1 h 1 v -1 z m 1,0 h 1 v -2 h -1 z m 1,0 v 1 h 1 v -1 z m 1,0 h 1 v -2 h -1 z m 1,0 v 1 h 1 v -1 z m 1,0 H 37 v -2 h -1.000001 z m 1.000001,0 v 1 h 0.999997 v -1 z m 0.999997,0 h 0.999999 v -2 h -0.999999 z m 0.999999,0 v 1 h 1.000002 v -1 z"
     sodipodi:nodetypes="cccccccccccccccccccccccccccccccccccccccccccccccccccccccccccccccccccccccccccccccccccccccccccccccccccccccccccccccccccccccccccccccccccccccccccccccccccccc" />
  <path
     id="rect21929"
     style="opacity:0.6;fill:url(#linearGradient21937);fill-opacity:1;stroke-width:0.999999;stroke-linecap:round"
     d="m 5.9999988,26 v 2 h 3 V 27 H 43.999997 V 26 H 8.9999988 Z" />
  <rect
     style="fill:url(#linearGradient971);fill-opacity:1.0;stroke-width:6.8313;stroke-linecap:round;stroke-linejoin:round"
     id="rect332"
     width="27"
     height="12"
     x="20"
     y="31"
     ry="2" />
  <path
     id="path587"
     style="font-weight:normal;font-size:10.6667px;font-family:'Segoe UI Variable Static Text';-inkscape-font-specification:'Segoe UI Variable Static Text';text-align:center;text-anchor:middle;fill:#ffffff;stroke-linecap:round;stroke-linejoin:round"
     d="m 33.025391,33 c -1.118058,0 -2.001084,0.356986 -2.650391,1.072266 -0.649307,0.715279 -0.974609,1.673608 -0.974609,2.875 0,1.118058 0.317707,2.026691 0.953125,2.724609 0.63889,0.697918 1.487845,1.046875 2.546875,1.046875 1.083336,0 1.947915,-0.354165 2.59375,-1.0625 0.645835,-0.708335 0.96875,-1.671872 0.96875,-2.890625 0,-1.12153 -0.31532,-2.030163 -0.947266,-2.724609 C 34.887152,33.34657 34.056643,33 33.025391,33 Z m 8.041016,0 c -1.118058,0 -2.001084,0.356986 -2.650391,1.072266 -0.649307,0.715279 -0.974609,1.673608 -0.974609,2.875 0,1.118058 0.317707,2.026691 0.953125,2.724609 0.63889,0.697918 1.487845,1.046875 2.546875,1.046875 1.083335,0 1.947915,-0.354165 2.59375,-1.0625 0.645834,-0.708335 0.96875,-1.671872 0.96875,-2.890625 0,-1.12153 -0.31532,-2.030163 -0.947266,-2.724609 C 42.928167,33.34657 42.097659,33 41.066407,33 Z m -17.71875,0.125 v 0.791016 h 3.990234 L 23,40.349609 v 0.244141 h 5.578125 v -0.791016 h -4.271484 l 4.375,-6.46875 V 33.125 Z m 9.615234,0.666016 c 0.805557,0 1.43815,0.270398 1.896484,0.808593 0.458335,0.538197 0.6875,1.299044 0.6875,2.285157 0,0.961807 -0.236761,1.71137 -0.708984,2.246093 -0.472223,0.534724 -1.118054,0.800782 -1.9375,0.800782 -0.767363,0 -1.389973,-0.278862 -1.869141,-0.837891 -0.475695,-0.562501 -0.714843,-1.304468 -0.714843,-2.224609 0,-0.920141 0.24479,-1.662543 0.734375,-2.228516 0.489584,-0.565973 1.127385,-0.849609 1.912109,-0.849609 z m 8.041016,0 c 0.805557,0 1.43815,0.270398 1.896484,0.808593 0.458334,0.538197 0.6875,1.299044 0.6875,2.285157 0,0.961807 -0.236761,1.71137 -0.708984,2.246093 -0.472224,0.534724 -1.118054,0.800782 -1.9375,0.800782 -0.767363,0 -1.389973,-0.278862 -1.869141,-0.837891 -0.475696,-0.562501 -0.712891,-1.304468 -0.712891,-2.224609 0,-0.920141 0.244791,-1.662543 0.734375,-2.228516 0.489585,-0.565973 1.125433,-0.849609 1.910157,-0.849609 z" />
</svg>
