<?xml version="1.0" encoding="UTF-8" standalone="no"?>
<!-- Created with Inkscape (http://www.inkscape.org/) -->

<svg
   width="48"
   height="48"
   viewBox="0 0 48 48"
   version="1.1"
   id="svg5"
   inkscape:version="1.2.1 (9c6d41e410, 2022-07-14, custom)"
   sodipodi:docname="application-vnd.oasis.opendocument.formula.svg"
   xmlns:inkscape="http://www.inkscape.org/namespaces/inkscape"
   xmlns:sodipodi="http://sodipodi.sourceforge.net/DTD/sodipodi-0.dtd"
   xmlns="http://www.w3.org/2000/svg"
   xmlns:svg="http://www.w3.org/2000/svg">
  <sodipodi:namedview
     id="namedview7"
     pagecolor="#ffffff"
     bordercolor="#000000"
     borderopacity="0.25"
     inkscape:showpageshadow="2"
     inkscape:pageopacity="0.0"
     inkscape:pagecheckerboard="0"
     inkscape:deskcolor="#d1d1d1"
     inkscape:document-units="px"
     showgrid="false"
     inkscape:zoom="16.833333"
     inkscape:cx="24"
     inkscape:cy="24"
     inkscape:window-width="1920"
     inkscape:window-height="1010"
     inkscape:window-x="0"
     inkscape:window-y="0"
     inkscape:window-maximized="1"
     inkscape:current-layer="svg5" />
  <defs
     id="defs2" />
  <path
     id="rect846"
     style="fill:#7d7d7b;stroke-width:2;stroke-linecap:round;stroke-linejoin:round"
     d="m 8,2 h 22.5 l 9.499999,9.5 V 46.000003 H 8 Z"
     sodipodi:nodetypes="cccccc" />
  <path
     id="rect1454"
     style="fill:#fafafa;stroke-width:2;stroke-linecap:round;stroke-linejoin:round"
     d="M 9.0000003,3.0000003 V 45.000004 H 39 V 13 h -9 c -0.554003,0 -1,-0.446 -1,-1 V 3.0000003 Z M 30,3.0000003 V 12 h 9 z"
     sodipodi:nodetypes="ccccsscccccc" />
  <path
     id="rect844"
     style="fill:#808080;stroke-width:1.99999;stroke-linecap:round;stroke-linejoin:round"
     d="M 22.5,26 20.6245,34 18.75,31.5 18,32 l 2.9995,4 2.227062,-9 H 30 v -1 h -6.5 z m 1.5,3 2,3 -2,3 h 1 L 26.5,32.75 28,35 h 1 l -2,-3 2,-3 H 28 L 26.5,31.25 25,29 Z"
     sodipodi:nodetypes="ccccccccccccccccccccccc" />
  <path
     id="rect3044"
     style="fill:#b3b3b3;stroke-width:2.05797;stroke-linecap:round;stroke-linejoin:round"
     d="m 14,20 v 3 h -3 v 1 h 3 v 14 h -3 v 1 h 3 v 3 h 1 v -3 h 18 v 3 h 1 v -3 h 3.000001 V 38 H 34 V 24 h 3.000001 V 23 H 34 v -3 h -1 v 3 H 15 v -3 z m 1,4 H 33 V 38 H 15 Z"
     sodipodi:nodetypes="cccccccccccccccccccccccccccccccccc" />
</svg>
