<?xml version="1.0" encoding="UTF-8" standalone="no"?>
<!-- Created with Inkscape (http://www.inkscape.org/) -->

<svg
   width="48"
   height="48"
   viewBox="0 0 48 48"
   version="1.1"
   id="svg5"
   inkscape:version="1.2.1 (9c6d41e410, 2022-07-14, custom)"
   sodipodi:docname="application-vnd.ms-word.svg"
   xmlns:inkscape="http://www.inkscape.org/namespaces/inkscape"
   xmlns:sodipodi="http://sodipodi.sourceforge.net/DTD/sodipodi-0.dtd"
   xmlns="http://www.w3.org/2000/svg"
   xmlns:svg="http://www.w3.org/2000/svg">
  <sodipodi:namedview
     id="namedview7"
     pagecolor="#ffffff"
     bordercolor="#000000"
     borderopacity="0.25"
     inkscape:showpageshadow="2"
     inkscape:pageopacity="0.0"
     inkscape:pagecheckerboard="0"
     inkscape:deskcolor="#d1d1d1"
     inkscape:document-units="px"
     showgrid="false"
     inkscape:zoom="17.770833"
     inkscape:cx="23.971864"
     inkscape:cy="24"
     inkscape:window-width="1920"
     inkscape:window-height="1029"
     inkscape:window-x="0"
     inkscape:window-y="0"
     inkscape:window-maximized="1"
     inkscape:current-layer="svg5" />
  <defs
     id="defs2" />
  <path
     id="rect846"
     style="fill:#7d7d7b;stroke-width:2;stroke-linecap:round;stroke-linejoin:round"
     d="m 8,2 h 22.5 l 9.499999,9.5 V 46.000003 H 8 Z"
     sodipodi:nodetypes="cccccc" />
  <path
     id="rect1454"
     style="fill:#fafafa;stroke-width:2;stroke-linecap:round;stroke-linejoin:round"
     d="M 9.0000003,3.0000003 V 45.000004 H 39 V 13 h -9 c -0.554003,0 -1,-0.446 -1,-1 V 3.0000003 Z M 30,3.0000003 V 12 h 9 z"
     sodipodi:nodetypes="ccccsscccccc" />
  <rect
     style="fill:#103f91;fill-opacity:1;stroke-width:0.591607;stroke-linecap:round"
     id="rect445"
     width="14"
     height="0.99999988"
     x="23"
     y="29"
     ry="0.49999994" />
  <rect
     style="fill:#1859bb;fill-opacity:1;stroke-width:2.16025;stroke-linecap:round"
     id="rect341"
     width="14"
     height="1"
     x="23"
     y="26"
     ry="0.5" />
  <rect
     style="fill:#2b7cd3;fill-opacity:1;stroke-width:2.16025;stroke-linecap:round"
     id="rect343"
     width="14"
     height="1"
     x="23"
     y="23"
     ry="0.5" />
  <rect
     style="fill:#41a5ee;fill-opacity:1;stroke-width:2.16025;stroke-linecap:round"
     id="rect345"
     width="14"
     height="1"
     x="23"
     y="20"
     ry="0.5" />
  <rect
     style="fill:#1859bb;fill-opacity:1;stroke-width:2;stroke-linejoin:round"
     id="rect844"
     width="20"
     height="20"
     x="1"
     y="15"
     ry="1.9999999" />
  <path
     id="rect8731"
     style="fill:#ffffff;fill-opacity:1;stroke-width:1.23964;stroke-linecap:round;stroke-linejoin:round"
     d="m 4.0000003,18.999999 2.463135,12.181709 H 8.793105 l 1.603621,-6.760709 c 0.198342,-0.958655 0.396846,-1.867631 0.578661,-2.793221 h 0.06618 c 0.165282,0.92559 0.363367,1.834566 0.56171,2.793221 l 1.635904,6.760709 h 2.363867 L 18,18.999999 h -1.835245 l -1.156511,6.330552 c -0.198343,1.289217 -0.39688,2.595172 -0.611749,3.917449 h -0.08232 C 14.033192,27.925723 13.768734,26.619768 13.48775,25.330551 L 11.917219,18.999999 H 10.215138 L 8.660749,25.330551 C 8.379767,26.619768 8.082252,27.925723 7.8343233,29.248 h -0.06537 c -0.231399,-1.322277 -0.446917,-2.611705 -0.661786,-3.917449 l -1.14037,-6.330552 z" />
</svg>
