<?xml version="1.0" encoding="UTF-8" standalone="no"?>
<!-- Created with Inkscape (http://www.inkscape.org/) -->

<svg
   width="48"
   height="48"
   viewBox="0 0 48 48"
   version="1.1"
   id="svg5"
   inkscape:version="1.2.1 (9c6d41e410, 2022-07-14, custom)"
   sodipodi:docname="application-x-tar.svg"
   xmlns:inkscape="http://www.inkscape.org/namespaces/inkscape"
   xmlns:sodipodi="http://sodipodi.sourceforge.net/DTD/sodipodi-0.dtd"
   xmlns:xlink="http://www.w3.org/1999/xlink"
   xmlns="http://www.w3.org/2000/svg"
   xmlns:svg="http://www.w3.org/2000/svg">
  <sodipodi:namedview
     id="namedview7"
     pagecolor="#ffffff"
     bordercolor="#666666"
     borderopacity="1.0"
     inkscape:pageshadow="2"
     inkscape:pageopacity="0.0"
     inkscape:pagecheckerboard="0"
     inkscape:document-units="px"
     showgrid="false"
     units="px"
     height="64px"
     inkscape:zoom="16.854167"
     inkscape:cx="24"
     inkscape:cy="24"
     inkscape:window-width="1920"
     inkscape:window-height="1012"
     inkscape:window-x="0"
     inkscape:window-y="0"
     inkscape:window-maximized="1"
     inkscape:current-layer="svg5"
     showguides="false"
     inkscape:showpageshadow="2"
     inkscape:deskcolor="#d1d1d1" />
  <defs
     id="defs2">
    <linearGradient
       inkscape:collect="always"
       id="linearGradient9539">
      <stop
         style="stop-color:#000000;stop-opacity:1;"
         offset="0"
         id="stop9535" />
      <stop
         style="stop-color:#000000;stop-opacity:0;"
         offset="1"
         id="stop9545" />
      <stop
         style="stop-color:#000000;stop-opacity:0;"
         offset="1"
         id="stop9537" />
    </linearGradient>
    <linearGradient
       inkscape:collect="always"
       id="linearGradient12673">
      <stop
         style="stop-color:#ffffff;stop-opacity:1;"
         offset="0"
         id="stop12669" />
      <stop
         style="stop-color:#ffffff;stop-opacity:0;"
         offset="1"
         id="stop12671" />
    </linearGradient>
    <linearGradient
       inkscape:collect="always"
       xlink:href="#linearGradient12673"
       id="linearGradient5594"
       x1="4"
       y1="22"
       x2="45.936607"
       y2="22.007439"
       gradientUnits="userSpaceOnUse"
       gradientTransform="translate(-1.0000008,-5.9999999)" />
    <linearGradient
       inkscape:collect="always"
       id="linearGradient11972">
      <stop
         style="stop-color:#fce798;stop-opacity:1"
         offset="0"
         id="stop11968" />
      <stop
         style="stop-color:#ffc937;stop-opacity:1"
         offset="1"
         id="stop11970" />
    </linearGradient>
    <linearGradient
       inkscape:collect="always"
       id="linearGradient4405">
      <stop
         style="stop-color:#fcbc19;stop-opacity:1"
         offset="0"
         id="stop4401" />
      <stop
         style="stop-color:#f4b61f;stop-opacity:1"
         offset="1"
         id="stop4403" />
    </linearGradient>
    <linearGradient
       inkscape:collect="always"
       xlink:href="#linearGradient11972"
       id="linearGradient6679"
       x1="17"
       y1="16"
       x2="33.823818"
       y2="34"
       gradientUnits="userSpaceOnUse"
       gradientTransform="translate(-7.7e-7,1.0000001)" />
    <linearGradient
       inkscape:collect="always"
       xlink:href="#linearGradient4405"
       id="linearGradient7109"
       x1="24.272949"
       y1="7.7161407"
       x2="24.264668"
       y2="14.865067"
       gradientUnits="userSpaceOnUse"
       gradientTransform="translate(-7.7e-7,1.0000001)" />
    <linearGradient
       inkscape:collect="always"
       xlink:href="#linearGradient6090"
       id="linearGradient5817"
       gradientUnits="userSpaceOnUse"
       x1="4"
       y1="22"
       x2="58"
       y2="22"
       gradientTransform="translate(-8.0000021,-7.0000002)" />
    <linearGradient
       inkscape:collect="always"
       id="linearGradient6090">
      <stop
         style="stop-color:#e4a729;stop-opacity:1"
         offset="0"
         id="stop6086" />
      <stop
         style="stop-color:#e2b24b;stop-opacity:0"
         offset="1"
         id="stop6088" />
    </linearGradient>
    <linearGradient
       inkscape:collect="always"
       xlink:href="#linearGradient4066"
       id="linearGradient4068"
       x1="1.0583334"
       y1="2.1166668"
       x2="1.0583328"
       y2="4.1371207"
       gradientUnits="userSpaceOnUse"
       gradientTransform="matrix(5.0393704,0,0,5.9392578,4.6665714,12.428571)" />
    <linearGradient
       inkscape:collect="always"
       id="linearGradient4066">
      <stop
         style="stop-color:#d3d3d3;stop-opacity:1;"
         offset="0"
         id="stop4062" />
      <stop
         style="stop-color:#e1e1e1;stop-opacity:1"
         offset="0.2"
         id="stop4454" />
      <stop
         style="stop-color:#a3a3a3;stop-opacity:1"
         offset="1"
         id="stop4064" />
    </linearGradient>
    <linearGradient
       inkscape:collect="always"
       xlink:href="#linearGradient6118"
       id="linearGradient6120"
       x1="3.96875"
       y1="2.1166663"
       x2="4.2333336"
       y2="2.9104171"
       gradientUnits="userSpaceOnUse"
       gradientTransform="matrix(15.118102,0,0,6.299212,-18.999964,10.666671)" />
    <linearGradient
       inkscape:collect="always"
       id="linearGradient6118">
      <stop
         style="stop-color:#b7b7b7;stop-opacity:1;"
         offset="0"
         id="stop6114" />
      <stop
         style="stop-color:#7e7e7e;stop-opacity:1"
         offset="1"
         id="stop6116" />
    </linearGradient>
    <linearGradient
       inkscape:collect="always"
       xlink:href="#linearGradient5150"
       id="linearGradient5152"
       x1="3.4494236"
       y1="1.8520833"
       x2="3.4459186"
       y2="2.9104166"
       gradientUnits="userSpaceOnUse"
       gradientTransform="matrix(3.7795275,0,0,-3.7795275,23,36.000002)" />
    <linearGradient
       inkscape:collect="always"
       id="linearGradient5150">
      <stop
         style="stop-color:#aaaaaa;stop-opacity:1;"
         offset="0"
         id="stop5146" />
      <stop
         style="stop-color:#f6f6f5;stop-opacity:1"
         offset="1"
         id="stop5148" />
    </linearGradient>
    <linearGradient
       inkscape:collect="always"
       xlink:href="#linearGradient3105"
       id="linearGradient3097"
       x1="-1.0583334e-07"
       y1="3.7041669"
       x2="2.645833"
       y2="3.7041671"
       gradientUnits="userSpaceOnUse"
       gradientTransform="matrix(3.7795276,0,0,3.7795276,2.0000004,13)" />
    <linearGradient
       inkscape:collect="always"
       id="linearGradient3105">
      <stop
         style="stop-color:#d3d3d3;stop-opacity:1;"
         offset="0"
         id="stop3099" />
      <stop
         style="stop-color:#e1e1e1;stop-opacity:1"
         offset="0.09999993"
         id="stop3101" />
      <stop
         style="stop-color:#a3a3a3;stop-opacity:1;"
         offset="1"
         id="stop3103" />
    </linearGradient>
    <linearGradient
       inkscape:collect="always"
       xlink:href="#linearGradient5150"
       id="linearGradient5895"
       x1="8.8635416"
       y1="7.9374995"
       x2="8.8635416"
       y2="6.8791666"
       gradientUnits="userSpaceOnUse"
       gradientTransform="matrix(3.7795276,0,0,3.7795276,-3.000001,-0.9999988)" />
    <radialGradient
       inkscape:collect="always"
       xlink:href="#linearGradient9539"
       id="radialGradient9543"
       cx="5.0270848"
       cy="9.5249987"
       fx="5.0270848"
       fy="9.5249987"
       r="0.52916664"
       gradientUnits="userSpaceOnUse"
       gradientTransform="matrix(-6.8743257e-6,7.5110786,-7.5590484,4.679342e-7,77.499852,-4.2629549)" />
    <linearGradient
       inkscape:collect="always"
       xlink:href="#linearGradient6118"
       id="linearGradient21937"
       x1="11.641666"
       y1="6.3499999"
       x2="11.641667"
       y2="7.6729164"
       gradientUnits="userSpaceOnUse"
       gradientTransform="matrix(3.7795276,0,0,3.7795276,-1.0000009,0)" />
    <linearGradient
       inkscape:collect="always"
       xlink:href="#linearGradient969"
       id="linearGradient971"
       x1="28.000002"
       y1="21.399998"
       x2="28.000002"
       y2="15.999997"
       gradientUnits="userSpaceOnUse"
       gradientTransform="matrix(1.5,0,0,2.2222222,4.9999971,-4.5555483)" />
    <linearGradient
       inkscape:collect="always"
       id="linearGradient969">
      <stop
         style="stop-color:#ba6b2a;stop-opacity:1;"
         offset="0"
         id="stop965" />
      <stop
         style="stop-color:#d79163;stop-opacity:1;"
         offset="1"
         id="stop967" />
    </linearGradient>
  </defs>
  <path
     id="rect846"
     style="fill:url(#linearGradient7109);fill-opacity:1;stroke-width:2;stroke-linecap:round;stroke-linejoin:round;stroke-dasharray:24, 2"
     d="M 5.9999992,6 C 4.3431447,6 2.999999,7.3431458 2.999999,9 V 35 H 45 V 12 c 0,-1.108 -0.892003,-2 -2.000002,-2 H 20 L 18,8.0000001 C 16.634743,6.6637686 15.662,6 14,6 Z"
     sodipodi:nodetypes="ssccssccss" />
  <path
     id="rect1170"
     style="fill:url(#linearGradient6679);fill-opacity:1;stroke-width:2.64576;stroke-linecap:round;stroke-linejoin:round;stroke-dasharray:31.749, 2.64576"
     d="m 20,11 -5,3 H 6.9999995 5.9999992 C 4.3431447,14 2.999999,15.343146 2.999999,17 v 1 19.000001 C 2.999999,38.108001 3.8919983,39 4.9999993,39 H 42.999998 C 44.107997,39 45,38.108001 45,37.000001 V 13 c 0,-1.108 -0.891999,-2 -2.000002,-2 z"
     sodipodi:nodetypes="cccsscssssssc" />
  <path
     id="rect1170-75"
     style="opacity:0.3;fill:url(#linearGradient5594);fill-opacity:1;stroke-width:2.64576;stroke-linecap:round;stroke-linejoin:round;stroke-dasharray:31.749, 2.64576"
     d="m 20,11 -5,3 H 5.9999992 C 4.3431447,14 2.999999,15.343146 2.999999,17 v 1 c 0,-1.656854 1.3431457,-3 3.0000002,-3 H 15 l 5,-3 H 42.999998 C 44.108005,12 45,12.892 45,14 v -1 c 0,-1.108 -0.891995,-2 -2.000002,-2 z"
     sodipodi:nodetypes="ccsscsccscssc" />
  <path
     id="rect1170-2"
     style="fill:#e4a729;fill-opacity:1;stroke-width:2.64576;stroke-linecap:round;stroke-linejoin:round;stroke-dasharray:31.749, 2.64576"
     d="m 2.9999994,36.000002 v 1.000002 C 2.9999994,38.108001 3.8919991,39 4.9999993,39 H 42.999998 C 44.107997,39 45,38.108001 45,37.000004 v -1.000002 c 0,1.107998 -0.892003,1.999999 -2.000002,1.999999 H 4.9999993 c -1.1080002,0 -1.9999999,-0.892001 -1.9999999,-1.999999 z"
     sodipodi:nodetypes="csssscssc" />
  <path
     id="rect1170-75-2"
     style="fill:url(#linearGradient5817);fill-opacity:1;stroke-width:2.64576;stroke-linecap:round;stroke-linejoin:round;stroke-dasharray:31.749, 2.64576"
     d="m 20,10 -5,3 H 5.9999992 C 4.3431447,13 2.999999,14.343146 2.999999,16 v 1 c 0,-1.656854 1.3431457,-3 3.0000002,-3 H 15 l 5,-3 H 42.999998 C 44.108001,11 45,11.892 45,13 v -1 c 0,-1.108 -0.891999,-2 -2.000002,-2 z"
     sodipodi:nodetypes="ccsscsccscssc" />
  <rect
     style="fill:#ae9347;fill-opacity:1;stroke-width:1.84198"
     id="rect3074"
     width="36"
     height="5"
     x="6.9999976"
     y="24" />
  <rect
     style="opacity:0.3;fill:#000000;fill-opacity:1;stroke-width:3.17888;stroke-linecap:round"
     id="rect11102"
     width="31.999998"
     height="3"
     x="9.999999"
     y="25.000002" />
  <rect
     style="fill:url(#linearGradient6120);fill-opacity:1;stroke-width:2.58199"
     id="rect6090"
     width="3.9999998"
     height="5"
     x="41"
     y="24" />
  <path
     id="rect5034"
     style="fill:url(#linearGradient5152);fill-opacity:1;stroke-width:0.999999"
     d="m 40.999997,25.000001 v 2 1 h 2.474612 0.02532 c 0.277001,0 0.499997,-0.222999 0.499997,-0.5 v -2 c 0,-0.277001 -0.222992,-0.5 -0.499997,-0.5 h -0.02532 z" />
  <rect
     style="opacity:0.5;fill:url(#radialGradient9543);fill-opacity:1;stroke-width:4.61877;stroke-linecap:round"
     id="rect8144"
     width="3.9999998"
     height="3.9999998"
     x="5.4999027"
     y="33.495876" />
  <path
     id="rect2535"
     style="fill:url(#linearGradient3097);fill-opacity:1;stroke-width:2;stroke-linecap:round"
     d="M 2.9999997,23 C 2.2017947,23.04753 2,23.918149 2,25 v 3 c 0.00605,1.094642 0.1820107,1.896293 0.9999997,2 H 3.9999995 C 5.7896953,29.913239 6.5114672,29.753438 8.314244,29.625935 9.0534686,29.573653 9.9999991,29.175248 9.9999987,28 l 4e-7,-2.999999 C 9.9999987,23.770974 9.107306,23.658438 8.3869647,23.542114 6.4367334,23.22718 5.460534,23.142782 3.9999995,23 Z"
     sodipodi:nodetypes="cccccsccscc" />
  <rect
     style="fill:#838383;fill-opacity:1;stroke-width:1.63299"
     id="rect6824-3"
     width="1.9999999"
     height="3.9999998"
     x="4.9999046"
     y="25" />
  <path
     id="rect3442"
     style="fill:url(#linearGradient4068);fill-opacity:1;stroke-width:1.44748"
     d="m 4.999999,25 v 11.974609 c -2.166e-4,0.0086 0,0.01674 0,0.0254 0,0.553999 0.4460008,1.000001 0.9999998,1.000001 h 3 c 0.553999,0 1.0000003,-0.446002 1.0000003,-1.000001 0,-0.0087 2.169e-4,-0.01678 0,-0.0254 V 25 Z m 0.9999998,1 h 3 v 2 h -3 z m 0,8 h 3 v 3 h -3 z" />
  <path
     id="rect5849"
     style="fill:url(#linearGradient5895);fill-opacity:1;stroke-width:0.999999;stroke-linecap:round"
     d="m 9.9999991,27.000001 h 0.9999999 v -2 H 9.9999991 Z m 0.9999999,0 v 1 h 1 v -1 z m 1,0 h 1 v -2 h -1 z m 1,0 v 1 h 1 v -1 z m 1,0 h 1 v -2 h -1 z m 1,0 v 1 h 1 v -1 z m 1,0 h 1 v -2 h -1 z m 1,0 v 1 h 1 v -1 z m 1,0 h 1 v -2 h -1 z m 1,0 v 1 h 1 v -1 z m 1,0 h 1 v -2 h -1 z m 1,0 v 1 h 1 v -1 z m 1,0 h 1 v -2 h -1 z m 1,0 v 1 h 1 v -1 z m 1,0 h 1 v -2 h -1 z m 1,0 v 1 h 1 v -1 z m 1,0 h 1 v -2 h -1 z m 1,0 v 1 h 1 v -1 z m 1,0 h 1 v -2 h -1 z m 1,0 v 1 h 1 v -1 z m 1,0 h 1 v -2 h -1 z m 1,0 v 1 h 1 v -1 z m 1,0 h 1 v -2 h -1 z m 1,0 v 1 h 1 v -1 z m 1,0 h 1 v -2 h -1 z m 1,0 v 1 h 1 v -1 z m 1,0 H 37 v -2 h -1.000001 z m 1.000001,0 v 1 h 0.999997 v -1 z m 0.999997,0 h 0.999999 v -2 h -0.999999 z m 0.999999,0 v 1 h 1.000002 v -1 z"
     sodipodi:nodetypes="cccccccccccccccccccccccccccccccccccccccccccccccccccccccccccccccccccccccccccccccccccccccccccccccccccccccccccccccccccccccccccccccccccccccccccccccccccccc" />
  <path
     id="rect21929"
     style="opacity:0.6;fill:url(#linearGradient21937);fill-opacity:1;stroke-width:0.999999;stroke-linecap:round"
     d="m 5.9999988,26 v 2 h 3 V 27 H 43.999997 V 26 H 8.9999988 Z" />
  <rect
     style="fill:url(#linearGradient971);fill-opacity:1;stroke-width:6.8313;stroke-linecap:round;stroke-linejoin:round"
     id="rect332"
     width="27"
     height="12"
     x="20"
     y="31"
     ry="2" />
  <path
     d="M 29.255384,33.843778 H 27.099062 V 40.469 H 26.151114 V 33.843778 H 24 V 33 h 5.255384 z M 28.937665,40.469 31.786719,33 h 1.01045 l 2.854262,7.469 H 34.599313 L 33.870122,38.510601 H 30.682515 L 29.989783,40.469 Z M 30.9794,37.67724 h 2.593837 l -1.171914,-3.21365 c -0.02431,-0.05556 -0.04514,-0.125004 -0.0625,-0.20834 -0.01736,-0.08334 -0.03646,-0.182298 -0.05729,-0.296885 h -0.02084 c -0.01736,0.10417 -0.03646,0.197923 -0.05729,0.28126 -0.01736,0.08334 -0.0382,0.156255 -0.0625,0.218757 z M 42.203734,40.469 h -1.125038 l -1.25525,-2.09382 C 39.594271,37.98975 39.394612,37.738006 39.224467,37.619946 39.054323,37.501887 38.849455,37.442857 38.609864,37.442857 H 37.78692 V 40.469 H 36.838971 V 33 h 2.2657 c 0.673634,0 1.227473,0.17188 1.661515,0.515642 0.437514,0.343762 0.656271,0.852459 0.656271,1.526093 0,0.524323 -0.138893,0.96531 -0.41668,1.322961 -0.274314,0.357651 -0.652799,0.618076 -1.135454,0.781276 v 0.02084 c 0.163199,0.09028 0.307302,0.196187 0.432306,0.317719 0.125004,0.121532 0.25348,0.291676 0.385429,0.510434 z M 37.78692,33.838569 v 2.765718 h 1.145871 c 0.427098,0 0.781276,-0.137158 1.062536,-0.411472 0.284731,-0.274315 0.427097,-0.63023 0.427097,-1.067744 0,-0.392374 -0.12674,-0.704885 -0.380221,-0.937532 -0.250008,-0.232647 -0.614604,-0.34897 -1.093787,-0.34897 z"
     id="path588"
     style="fill:#ffffff;stroke-width:0.888919" />
</svg>
