<?xml version="1.0" encoding="UTF-8" standalone="no"?>
<!-- Created with Inkscape (http://www.inkscape.org/) -->

<svg
   width="48"
   height="48"
   viewBox="0 0 48 48"
   version="1.1"
   id="svg5"
   inkscape:version="1.2.1 (9c6d41e410, 2022-07-14, custom)"
   sodipodi:docname="application-vnd.ms-access.svg"
   xmlns:inkscape="http://www.inkscape.org/namespaces/inkscape"
   xmlns:sodipodi="http://sodipodi.sourceforge.net/DTD/sodipodi-0.dtd"
   xmlns="http://www.w3.org/2000/svg"
   xmlns:svg="http://www.w3.org/2000/svg">
  <sodipodi:namedview
     id="namedview7"
     pagecolor="#ffffff"
     bordercolor="#000000"
     borderopacity="0.25"
     inkscape:showpageshadow="2"
     inkscape:pageopacity="0.0"
     inkscape:pagecheckerboard="0"
     inkscape:deskcolor="#d1d1d1"
     inkscape:document-units="px"
     showgrid="false"
     inkscape:zoom="16.708333"
     inkscape:cx="24"
     inkscape:cy="24"
     inkscape:window-width="1920"
     inkscape:window-height="1011"
     inkscape:window-x="0"
     inkscape:window-y="0"
     inkscape:window-maximized="1"
     inkscape:current-layer="svg5" />
  <defs
     id="defs2" />
  <path
     id="rect846"
     style="fill:#7d7d7b;stroke-width:2;stroke-linecap:round;stroke-linejoin:round"
     d="m 8,2 h 22.5 l 9.499999,9.5 V 46.000003 H 8 Z"
     sodipodi:nodetypes="cccccc" />
  <path
     id="rect1454"
     style="fill:#fafafa;stroke-width:2;stroke-linecap:round;stroke-linejoin:round"
     d="M 9.0000003,3.0000003 V 45.000004 H 39 V 13 h -9 c -0.554003,0 -1,-0.446 -1,-1 V 3.0000003 Z M 30,3.0000003 V 12 h 9 z"
     sodipodi:nodetypes="ccccsscccccc" />
  <rect
     style="fill:#af2031;fill-opacity:1;stroke-width:2;stroke-linejoin:round"
     id="rect844"
     width="20"
     height="20"
     x="1"
     y="15"
     ry="1.9999999" />
  <rect
     style="fill:#c94f60;fill-opacity:1;stroke-width:0.316227;stroke-linecap:round"
     id="rect445-7"
     width="4"
     height="0.99999988"
     x="28"
     y="27.999998"
     ry="0.49999994" />
  <rect
     style="fill:#e08095;fill-opacity:1;stroke-width:1.1547;stroke-linecap:round"
     id="rect341"
     width="4"
     height="1"
     x="28"
     y="24.999998"
     ry="0.5" />
  <path
     id="rect343"
     style="fill:#af2031;fill-opacity:1;stroke-width:1.1547;stroke-linecap:round"
     d="m 23,28 v 1 h 2.5 C 25.777,29 26,28.777 26,28.5 26,28.223 25.777,28 25.5,28 Z"
     sodipodi:nodetypes="ccsssc" />
  <path
     id="rect345"
     style="fill:#c94f60;fill-opacity:1;stroke-width:1.1547;stroke-linecap:round"
     d="m 23,25 v 1 h 2.5 C 25.777,26 26,25.777 26,25.5 26,25.223 25.777,25 25.5,25 Z"
     sodipodi:nodetypes="ccsssc" />
  <path
     id="rect445"
     style="fill:#c94f60;fill-opacity:1;stroke-linecap:round;stroke-linejoin:round"
     d="M 34 22 L 34 30 C 34 30.552284 33.552284 31 33 31 L 23 31 L 23 32 L 33 32 C 34.104568 32 35 31.104568 35 30 L 35 22 L 34 22 z " />
  <path
     id="rect346"
     style="fill:#e08095;fill-opacity:1;stroke-width:2;stroke-linecap:round;stroke-linejoin:round"
     d="m 23,20 h 10 c 1.108,0 2,0.892 2,2 v 1 H 23 Z"
     sodipodi:nodetypes="cssccc" />
  <path
     d="m 5.1369327,31.160351 4.6089535,-12.30771 h 2.3001858 l 4.574623,12.30771 H 14.380589 L 13.324907,28.190708 H 8.3898078 l -1.0213522,2.969643 z m 3.7850074,-4.651867 h 3.8536689 l -1.707974,-4.892186 q -0.06008,-0.188821 -0.103,-0.377643 -0.04291,-0.197403 -0.08583,-0.480635 h -0.05149 q -0.04291,0.257483 -0.09441,0.454887 -0.04291,0.197403 -0.111585,0.386225 z"
     style="font-weight:600;font-size:11.4254px;font-family:'Segoe UI Variable Static Text';-inkscape-font-specification:'Segoe UI Variable Static Text Semi-Bold';text-align:center;text-anchor:middle;fill:#ffffff;stroke-width:1.46479;stroke-linecap:round;stroke-linejoin:round"
     id="path9147" />
</svg>
