<?xml version="1.0" encoding="UTF-8" standalone="no"?>
<!-- Created with Inkscape (http://www.inkscape.org/) -->

<svg
   width="48"
   height="48"
   viewBox="0 0 48 48"
   version="1.1"
   id="svg5"
   inkscape:version="1.2.1 (9c6d41e410, 2022-07-14, custom)"
   sodipodi:docname="application-vnd.ms-powerpoint.template.macroenabled.12.svg"
   xmlns:inkscape="http://www.inkscape.org/namespaces/inkscape"
   xmlns:sodipodi="http://sodipodi.sourceforge.net/DTD/sodipodi-0.dtd"
   xmlns="http://www.w3.org/2000/svg"
   xmlns:svg="http://www.w3.org/2000/svg">
  <sodipodi:namedview
     id="namedview7"
     pagecolor="#ffffff"
     bordercolor="#000000"
     borderopacity="0.25"
     inkscape:showpageshadow="2"
     inkscape:pageopacity="0.0"
     inkscape:pagecheckerboard="0"
     inkscape:deskcolor="#d1d1d1"
     inkscape:document-units="px"
     showgrid="false"
     inkscape:zoom="16.708333"
     inkscape:cx="24"
     inkscape:cy="24"
     inkscape:window-width="1920"
     inkscape:window-height="1011"
     inkscape:window-x="0"
     inkscape:window-y="0"
     inkscape:window-maximized="1"
     inkscape:current-layer="svg5" />
  <defs
     id="defs2" />
  <path
     id="rect1054"
     style="fill:#7d7d7b;stroke-width:3;stroke-linecap:round;stroke-linejoin:round"
     d="m 8,2 29,4e-7 5,1.9999995 8e-6,42.0000061 H 12 V 42 H 8 Z"
     sodipodi:nodetypes="cccccccc" />
  <rect
     style="fill:#fafafa;fill-opacity:1;stroke-width:2.02685;stroke-linejoin:round"
     id="rect1365"
     width="28"
     height="38"
     x="8.999999"
     y="3" />
  <path
     id="rect2071"
     style="fill:#fafafa;stroke-width:2;stroke-linejoin:round"
     d="M 13,42 H 38.000001 V 3.9999999 h 2.999997 V 45 H 13 Z"
     sodipodi:nodetypes="ccccccc" />
  <path
     id="rect6964"
     style="fill:#efa276;fill-opacity:1;stroke:none;stroke-width:2.78796;stroke-linecap:round;stroke-linejoin:round"
     d="M 7.9999996,2 37,2.0000004 V 11 H 7.9999996 Z"
     sodipodi:nodetypes="ccccc" />
  <path
     id="rect13579"
     style="fill:#dc772e;fill-opacity:1;stroke-width:2.82019;stroke-linecap:round;stroke-linejoin:round"
     d="m 37,2.0000004 v 2.0000003 l 5.000001,1.9999994 V 3.9999999 Z M 7.9999996,10 v 1 H 37 v -1 z"
     sodipodi:nodetypes="cccccccccc" />
  <path
     id="path344"
     style="fill:#f1ab69;fill-opacity:1;stroke-width:2.33333;stroke-linecap:round"
     d="m 30,17.000001 v 7 h 7 a 6.9999988,6.9999988 0 0 0 -7,-7 z" />
  <path
     id="path345"
     style="fill:#e77d57;fill-opacity:1;stroke-width:2.79977"
     d="m 28,19.000001 a 7,7 0 0 0 -5,2.142578 v 9.714844 a 7,7 0 0 0 5,2.142578 7,7 0 0 0 7,-7 h -7 z" />
  <path
     id="path649"
     style="fill:#ed6c47;fill-opacity:1;stroke-width:3.5"
     d="m 23,26.000001 v 4.871094 a 7,7 0 0 0 5,2.128906 7,7 0 0 0 7,-7 z" />
  <rect
     style="fill:#cb3a22;fill-opacity:1;stroke-width:2;stroke-linejoin:round"
     id="rect844"
     width="20"
     height="20"
     x="1"
     y="15"
     ry="1.9999999" />
  <path
     id="rect16145"
     style="fill:#ffffff;fill-opacity:1;stroke-width:1.22115;stroke-linecap:round;stroke-linejoin:round"
     d="m 7.0000006,19.000001 v 12 h 1.888962 v -4.542732 h 1.8070764 c 2.605107,0 4.526036,-1.20462 4.526036,-3.809726 0,-2.71908 -1.920993,-3.647542 -4.591228,-3.647542 z m 1.888962,1.531205 h 1.5630054 c 1.904985,0 2.897841,0.520709 2.897841,2.116337 0,1.546781 -0.928046,2.279316 -2.816749,2.279316 H 8.8889626 Z" />
</svg>
