<?xml version="1.0" encoding="UTF-8" standalone="no"?>
<!-- Created with Inkscape (http://www.inkscape.org/) -->

<svg
   width="48"
   height="48"
   viewBox="0 0 48 48"
   version="1.1"
   id="svg5"
   inkscape:version="1.2.1 (9c6d41e410, 2022-07-14, custom)"
   sodipodi:docname="application-vnd.ms-word.template.macroenabled.12.svg"
   xmlns:inkscape="http://www.inkscape.org/namespaces/inkscape"
   xmlns:sodipodi="http://sodipodi.sourceforge.net/DTD/sodipodi-0.dtd"
   xmlns="http://www.w3.org/2000/svg"
   xmlns:svg="http://www.w3.org/2000/svg">
  <sodipodi:namedview
     id="namedview7"
     pagecolor="#ffffff"
     bordercolor="#000000"
     borderopacity="0.25"
     inkscape:showpageshadow="2"
     inkscape:pageopacity="0.0"
     inkscape:pagecheckerboard="0"
     inkscape:deskcolor="#d1d1d1"
     inkscape:document-units="px"
     showgrid="false"
     inkscape:zoom="17.770833"
     inkscape:cx="23.971864"
     inkscape:cy="24"
     inkscape:window-width="1920"
     inkscape:window-height="1029"
     inkscape:window-x="0"
     inkscape:window-y="0"
     inkscape:window-maximized="1"
     inkscape:current-layer="svg5" />
  <defs
     id="defs2" />
  <path
     id="rect1054"
     style="fill:#7d7d7b;stroke-width:3;stroke-linecap:round;stroke-linejoin:round"
     d="m 8,2 29,4e-7 5,1.9999995 8e-6,42.0000061 H 12 V 42 H 8 Z"
     sodipodi:nodetypes="cccccccc" />
  <rect
     style="fill:#fafafa;fill-opacity:1;stroke-width:2.02685;stroke-linejoin:round"
     id="rect1365"
     width="28"
     height="38"
     x="8.999999"
     y="3" />
  <path
     id="rect2071"
     style="fill:#fafafa;stroke-width:2;stroke-linejoin:round"
     d="M 13,42 H 38.000001 V 3.9999999 h 2.999997 V 45 H 13 Z"
     sodipodi:nodetypes="ccccccc" />
  <path
     id="rect6964"
     style="fill:#41a5ee;fill-opacity:1;stroke:none;stroke-width:2.78796;stroke-linecap:round;stroke-linejoin:round"
     d="M 8.0000002,2 37,2.0000003 V 11.000001 H 8.0000002 Z"
     sodipodi:nodetypes="ccccc" />
  <path
     id="rect13579"
     style="fill:#2b7cd3;fill-opacity:1;stroke-width:2.82019;stroke-linecap:round;stroke-linejoin:round"
     d="m 37,2.0000003 v 2.0000003 l 5,1.9999996 V 3.9999999 Z M 8.0000002,9.9999995 V 11.000001 H 37 V 9.9999995 Z"
     sodipodi:nodetypes="cccccccccc" />
  <rect
     style="fill:#103f91;fill-opacity:1;stroke-width:0.499999;stroke-linecap:round"
     id="rect445"
     width="10"
     height="0.99999988"
     x="24"
     y="29"
     ry="0.49999994" />
  <rect
     style="fill:#1859bb;fill-opacity:1;stroke-width:1.82574;stroke-linecap:round"
     id="rect341"
     width="10"
     height="1"
     x="24"
     y="26"
     ry="0.5" />
  <rect
     style="fill:#2b7cd3;fill-opacity:1;stroke-width:1.82574;stroke-linecap:round"
     id="rect343"
     width="10"
     height="1"
     x="24"
     y="23"
     ry="0.5" />
  <rect
     style="fill:#41a5ee;fill-opacity:1;stroke-width:1.82574;stroke-linecap:round"
     id="rect345"
     width="10"
     height="1"
     x="24"
     y="20"
     ry="0.5" />
  <rect
     style="fill:#1859bb;fill-opacity:1;stroke-width:2;stroke-linejoin:round"
     id="rect844"
     width="20"
     height="20"
     x="1"
     y="15.000001"
     ry="1.9999999" />
  <path
     id="rect8731"
     style="fill:#ffffff;fill-opacity:1;stroke-width:1.23964;stroke-linecap:round;stroke-linejoin:round"
     d="m 3.9999999,19 2.4631348,12.181709 h 2.3299707 l 1.6036206,-6.760708 c 0.198342,-0.958655 0.396846,-1.867631 0.578661,-2.793221 h 0.06618 c 0.165282,0.92559 0.363367,1.834566 0.561711,2.793221 l 1.635903,6.760709 h 2.363867 L 18,19 h -1.835245 l -1.156511,6.330552 c -0.198343,1.289217 -0.39688,2.595172 -0.611748,3.917449 h -0.08232 C 14.033192,27.925724 13.768734,26.619769 13.48775,25.330552 L 11.917219,19 H 10.215138 L 8.6607486,25.330552 C 8.3797668,26.619769 8.0822522,27.925724 7.8343231,29.248001 H 7.7689516 C 7.5375531,27.925724 7.3220354,26.636296 7.1071658,25.330552 L 5.9667958,19 Z" />
</svg>
