<?xml version="1.0" encoding="UTF-8" standalone="no"?>
<!-- Created with Inkscape (http://www.inkscape.org/) -->

<svg
   width="48"
   height="48"
   viewBox="0 0 48 48"
   version="1.1"
   id="svg5"
   inkscape:version="1.2.1 (9c6d41e410, 2022-07-14, custom)"
   sodipodi:docname="application-x-trash.svg"
   xmlns:inkscape="http://www.inkscape.org/namespaces/inkscape"
   xmlns:sodipodi="http://sodipodi.sourceforge.net/DTD/sodipodi-0.dtd"
   xmlns="http://www.w3.org/2000/svg"
   xmlns:svg="http://www.w3.org/2000/svg">
  <sodipodi:namedview
     id="namedview7"
     pagecolor="#ffffff"
     bordercolor="#000000"
     borderopacity="0.25"
     inkscape:showpageshadow="2"
     inkscape:pageopacity="0.0"
     inkscape:pagecheckerboard="0"
     inkscape:deskcolor="#d1d1d1"
     inkscape:document-units="px"
     showgrid="false"
     inkscape:zoom="17.083333"
     inkscape:cx="22.360976"
     inkscape:cy="24"
     inkscape:window-width="1920"
     inkscape:window-height="1029"
     inkscape:window-x="0"
     inkscape:window-y="0"
     inkscape:window-maximized="1"
     inkscape:current-layer="svg5" />
  <defs
     id="defs2" />
  <path
     id="rect846"
     style="fill:#7d7d7b;stroke-width:2;stroke-linecap:round;stroke-linejoin:round"
     d="m 8,2 h 22.5 l 9.499999,9.5 V 46.000003 H 8 Z"
     sodipodi:nodetypes="cccccc" />
  <path
     id="rect1454"
     style="fill:#fafafa;stroke-width:2;stroke-linecap:round;stroke-linejoin:round"
     d="M 9.0000003,3.0000003 V 45.000004 H 39 V 13 h -9 c -0.554003,0 -1,-0.446 -1,-1 V 3.0000003 Z M 30,3.0000003 V 12 h 9 z"
     sodipodi:nodetypes="ccccsscccccc" />
  <path
     d="m 21.694184,18.000003 c -1.014974,0 -1.845925,0.482545 -2.353933,1.36581 l -1.54147,3.095273 4.374341,2.417086 2.219118,-4.273584 1.294252,-2.604585 z"
     style="fill:#0068ba;fill-opacity:1;stroke-width:0.27656"
     id="path138735"
     sodipodi:nodetypes="scccccs" />
  <path
     d="m 22.55064,18.000003 3.583958,6.418697 -1.792499,1.016701 5.708194,2.077613 2.277494,-6.305322 -1.763912,1.043242 -1.869129,-3.552712 C 28.426096,18.242474 27.970509,18 27.382018,18 Z"
     style="fill:#0091e6;fill-opacity:1;stroke-width:0.27656"
     id="path142126"
     sodipodi:nodetypes="cccccccsc" />
  <path
     d="m 34.836606,30.956997 -1.651348,-3.038073 -4.48898,2.196865 2.227881,4.269022 1.434505,3.135264 2.457337,-5.209582 c 0.296353,-0.632106 0.18282,-1.06459 0.02075,-1.353496 z"
     style="fill:#0068ba;fill-opacity:1;stroke-width:0.27656"
     id="path138735-0"
     sodipodi:nodetypes="ccccccc" />
  <path
     d="m 34.302245,33.396251 -6.330041,-0.0083 0.01576,-2.060701 -4.498331,4.434424 4.493653,4.595241 -0.0215,-2.049215 h 3.135854 c 0.529013,-0.0049 0.964528,-0.27942 1.261039,-0.787746 z"
     style="fill:#0091e6;fill-opacity:1;stroke-width:0.27656"
     id="path142126-6"
     sodipodi:nodetypes="ccccccccc" />
  <path
     d="m 16.151159,37.416631 c 0.412048,0.684839 0.842047,0.718481 1.20065,0.762191 l 4.414869,3.86e-4 v -5.280491 l -5.611256,0.005 -2.479058,0.03118 z"
     style="fill:#0068ba;fill-opacity:1;stroke-width:0.27656"
     id="path146733"
     sodipodi:nodetypes="ccccccc" />
  <path
     d="m 15.972146,37.089917 3.366774,-6.451895 1.820586,0.965507 -2.008539,-5.9302 L 13,27.537402 l 1.827612,0.927138 -1.447975,2.781534 c -0.240034,0.471449 -0.174082,0.970527 0.116455,1.482299 z"
     style="fill:#0091e6;fill-opacity:1;stroke-width:0.27656"
     id="path146730"
     sodipodi:nodetypes="cccccccsc" />
</svg>
