<?xml version="1.0" encoding="UTF-8" standalone="no"?>
<!-- Created with Inkscape (http://www.inkscape.org/) -->

<svg
   width="48"
   height="48"
   viewBox="0 0 48 48"
   version="1.1"
   id="svg5"
   inkscape:version="1.2.1 (9c6d41e410, 2022-07-14, custom)"
   sodipodi:docname="application-vnd.ms-excel.template.macroenabled.12.svg"
   xmlns:inkscape="http://www.inkscape.org/namespaces/inkscape"
   xmlns:sodipodi="http://sodipodi.sourceforge.net/DTD/sodipodi-0.dtd"
   xmlns="http://www.w3.org/2000/svg"
   xmlns:svg="http://www.w3.org/2000/svg">
  <sodipodi:namedview
     id="namedview7"
     pagecolor="#ffffff"
     bordercolor="#000000"
     borderopacity="0.25"
     inkscape:showpageshadow="2"
     inkscape:pageopacity="0.0"
     inkscape:pagecheckerboard="0"
     inkscape:deskcolor="#d1d1d1"
     inkscape:document-units="px"
     showgrid="false"
     inkscape:zoom="16.708333"
     inkscape:cx="24"
     inkscape:cy="24"
     inkscape:window-width="1920"
     inkscape:window-height="1011"
     inkscape:window-x="0"
     inkscape:window-y="0"
     inkscape:window-maximized="1"
     inkscape:current-layer="svg5" />
  <defs
     id="defs2" />
  <path
     id="rect1054"
     style="fill:#7d7d7b;stroke-width:3;stroke-linecap:round;stroke-linejoin:round"
     d="m 8,2 29,4e-7 5,1.9999995 8e-6,42.0000061 H 12 V 42 H 8 Z"
     sodipodi:nodetypes="cccccccc" />
  <rect
     style="fill:#fafafa;fill-opacity:1;stroke-width:2.02685;stroke-linejoin:round"
     id="rect1365"
     width="28"
     height="38"
     x="8.999999"
     y="3" />
  <path
     id="rect341"
     style="fill:#185c37;fill-opacity:1;stroke-width:2.64574;stroke-linecap:round"
     d="M 23 29 L 23 31 L 26.5 31 C 26.777 31 27 30.777 27 30.5 L 27 29.5 C 27 29.223 26.777 29 26.5 29 L 23 29 z " />
  <path
     id="rect343"
     style="fill:#107c41;fill-opacity:1;stroke-width:2.64574;stroke-linecap:round"
     d="M 23 24 L 23 26 L 26.5 26 C 26.777 26 27 25.777 27 25.5 L 27 24.5 C 27 24.223 26.777 24 26.5 24 L 23 24 z " />
  <path
     id="rect345"
     style="fill:#21a366;fill-opacity:1;stroke-width:2.64574;stroke-linecap:round"
     d="M 23 19 L 23 21 L 26.5 21 C 26.777 21 27 20.777 27 20.5 L 27 19.5 C 27 19.223 26.777 19 26.5 19 L 23 19 z " />
  <rect
     style="fill:#6dc898;fill-opacity:1;stroke-width:2.04939"
     id="rect518"
     width="6"
     height="2"
     x="29"
     y="19"
     ry="0.5" />
  <rect
     style="fill:#4fae7f;fill-opacity:1;stroke-width:2.04939"
     id="rect520"
     width="6"
     height="2"
     x="29"
     y="24"
     ry="0.5" />
  <rect
     style="fill:#134a2c;fill-opacity:1;stroke-width:2.04939"
     id="rect522"
     width="6"
     height="2"
     x="29"
     y="29"
     ry="0.5" />
  <path
     id="rect2071"
     style="fill:#fafafa;stroke-width:2;stroke-linejoin:round"
     d="M 13,42 H 38.000001 V 3.9999999 h 2.999997 V 45 H 13 Z"
     sodipodi:nodetypes="ccccccc" />
  <rect
     style="fill:#0c7c42;fill-opacity:1;stroke-width:2;stroke-linejoin:round"
     id="rect844"
     width="20"
     height="20"
     x="1"
     y="15"
     ry="1.9999999" />
  <path
     id="rect12096"
     style="fill:#ffffff;fill-opacity:1;stroke-width:1.32746;stroke-linecap:round;stroke-linejoin:round"
     d="m 6.2298842,19 3.504449,6.319242 -3.734333,6.725433 h 2.176991 l 1.663638,-3.239132 c 0.3186198,-0.672576 0.6545738,-1.32694 1.0085608,-2.123412 h 0.07087 c 0.407114,0.796472 0.743999,1.450836 1.080286,2.123412 l 1.716355,3.239132 h 2.283295 L 12.265652,25.407392 15.751957,19 h -2.158848 l -1.522769,3.061963 c -0.318619,0.601777 -0.565995,1.18607 -0.902258,1.982541 h -0.07087 C 10.690131,23.248033 10.407251,22.663741 10.088663,22.061963 L 8.5131782,19 Z" />
  <path
     id="rect6964"
     style="fill:#41be68;fill-opacity:1;stroke:none;stroke-width:2.78796;stroke-linecap:round;stroke-linejoin:round"
     d="M 8.0000002,2 37,2.0000004 V 11 H 8.0000002 Z"
     sodipodi:nodetypes="ccccc" />
  <path
     id="rect13579"
     style="fill:#0c7c42;fill-opacity:1;stroke-width:2.82019;stroke-linecap:round;stroke-linejoin:round"
     d="m 37,2.0000004 v 2.0000003 l 5,1.9999994 V 3.9999999 Z M 8.0000002,10 v 1 H 37 v -1 z"
     sodipodi:nodetypes="cccccccccc" />
</svg>
