<?xml version="1.0" encoding="UTF-8" standalone="no"?>
<!-- Created with Inkscape (http://www.inkscape.org/) -->

<svg
   width="48"
   height="48"
   viewBox="0 0 48 48"
   version="1.1"
   id="svg5"
   inkscape:version="1.2.1 (9c6d41e410, 2022-07-14, custom)"
   sodipodi:docname="application-x-ms-dos-executable.svg"
   xmlns:inkscape="http://www.inkscape.org/namespaces/inkscape"
   xmlns:sodipodi="http://sodipodi.sourceforge.net/DTD/sodipodi-0.dtd"
   xmlns:xlink="http://www.w3.org/1999/xlink"
   xmlns="http://www.w3.org/2000/svg"
   xmlns:svg="http://www.w3.org/2000/svg">
  <sodipodi:namedview
     id="namedview7"
     pagecolor="#ffffff"
     bordercolor="#000000"
     borderopacity="0.25"
     inkscape:showpageshadow="2"
     inkscape:pageopacity="0.0"
     inkscape:pagecheckerboard="0"
     inkscape:deskcolor="#d1d1d1"
     inkscape:document-units="px"
     showgrid="false"
     inkscape:zoom="17.083333"
     inkscape:cx="22.419513"
     inkscape:cy="24.029269"
     inkscape:window-width="1920"
     inkscape:window-height="1029"
     inkscape:window-x="0"
     inkscape:window-y="0"
     inkscape:window-maximized="1"
     inkscape:current-layer="svg5" />
  <defs
     id="defs2">
    <linearGradient
       inkscape:collect="always"
       xlink:href="#linearGradient1394"
       id="linearGradient1800"
       x1="8.4666662"
       y1="3.4395833"
       x2="8.4666662"
       y2="9.7895832"
       gradientUnits="userSpaceOnUse"
       gradientTransform="scale(3.7795276)" />
    <linearGradient
       inkscape:collect="always"
       id="linearGradient1394">
      <stop
         style="stop-color:#1088d6;stop-opacity:1;"
         offset="0"
         id="stop1390" />
      <stop
         style="stop-color:#076cbe;stop-opacity:1"
         offset="1"
         id="stop1392" />
    </linearGradient>
  </defs>
  <rect
     style="fill:#797774;fill-opacity:1;stroke-width:2;stroke-linejoin:round"
     id="rect924"
     width="44"
     height="31.999998"
     x="2"
     y="8"
     ry="3" />
  <rect
     style="fill:#ffffff;stroke-width:2;stroke-linejoin:round"
     id="rect1289"
     width="42"
     height="28"
     x="3"
     y="11"
     ry="1.9999999" />
  <rect
     style="fill:url(#linearGradient1800);fill-opacity:1;stroke-width:2;stroke-linejoin:round"
     id="rect1712"
     width="15.999999"
     height="24"
     x="16"
     y="13.000001"
     ry="1.9999999" />
  <path
     d="m 5.0000003,14.000001 v 1 H 14 v -1 z m 28.9999997,0 v 1 h 8.999999 v -1 z m -28.9999997,4 v 1 H 14 v -1 z m 28.9999997,0 v 1 h 8.999999 v -1 z m -28.9999997,4 v 1 H 14 v -1 z m 28.9999997,0 v 1 h 8.999999 v -1 z m -28.9999997,4 v 1 H 14 v -1 z m 28.9999997,0 v 1 h 8.999999 v -1 z m -28.9999997,4 v 1 H 14 v -1 z m 28.9999997,0 v 1 h 8.999999 v -1 z m -28.9999997,4 v 1.000001 H 14 v -1.000001 z m 28.9999997,0 v 1.000001 h 8.999999 v -1.000001 z"
     style="fill:#bebebe;fill-opacity:1;stroke-width:3.28634;stroke-linecap:round;stroke-linejoin:round"
     id="path302" />
  <path
     id="rect1066"
     style="fill:#c4c4c4;fill-opacity:1;stroke-width:1.5;stroke-linecap:round;stroke-linejoin:round"
     d="M 38.000001,9.0000006 V 10.000001 H 39 V 9.0000006 Z m 2.000002,0 v 1.0000004 h 1.000002 V 9.0000006 Z m 2.000001,0 v 1.0000004 h 0.999999 V 9.0000006 Z" />
</svg>
