<?xml version="1.0" encoding="UTF-8" standalone="no"?>
<!-- Created with Inkscape (http://www.inkscape.org/) -->

<svg
   width="48"
   height="48"
   viewBox="0 0 48 48"
   version="1.1"
   id="svg5"
   inkscape:version="1.2.1 (9c6d41e410, 2022-07-14, custom)"
   sodipodi:docname="application-x-deb.svg"
   xmlns:inkscape="http://www.inkscape.org/namespaces/inkscape"
   xmlns:sodipodi="http://sodipodi.sourceforge.net/DTD/sodipodi-0.dtd"
   xmlns:xlink="http://www.w3.org/1999/xlink"
   xmlns="http://www.w3.org/2000/svg"
   xmlns:svg="http://www.w3.org/2000/svg">
  <sodipodi:namedview
     id="namedview7"
     pagecolor="#ffffff"
     bordercolor="#000000"
     borderopacity="0.25"
     inkscape:showpageshadow="2"
     inkscape:pageopacity="0.0"
     inkscape:pagecheckerboard="0"
     inkscape:deskcolor="#d1d1d1"
     inkscape:document-units="px"
     showgrid="false"
     inkscape:zoom="17.229167"
     inkscape:cx="23.970979"
     inkscape:cy="24"
     inkscape:window-width="1920"
     inkscape:window-height="1029"
     inkscape:window-x="0"
     inkscape:window-y="0"
     inkscape:window-maximized="1"
     inkscape:current-layer="svg5" />
  <defs
     id="defs2">
    <linearGradient
       inkscape:collect="always"
       xlink:href="#linearGradient40996"
       id="linearGradient5955"
       x1="-5.7874956"
       y1="-0.054504178"
       x2="-1.0249975"
       y2="2.8557916"
       gradientUnits="userSpaceOnUse"
       gradientTransform="matrix(3.7795276,0,0,3.7795276,41.874006,2.2059995)" />
    <linearGradient
       inkscape:collect="always"
       id="linearGradient40996">
      <stop
         style="stop-color:#f57da7;stop-opacity:1"
         offset="0"
         id="stop40992" />
      <stop
         style="stop-color:#f775a4;stop-opacity:1"
         offset="1"
         id="stop40994" />
    </linearGradient>
    <linearGradient
       inkscape:collect="always"
       xlink:href="#linearGradient40996"
       id="linearGradient4395"
       x1="-8.168746"
       y1="0.73912501"
       x2="-8.6979141"
       y2="2.8557916"
       gradientUnits="userSpaceOnUse"
       gradientTransform="matrix(3.7795276,0,0,3.7795276,41.874006,2.2059995)" />
    <linearGradient
       inkscape:collect="always"
       xlink:href="#linearGradient26892"
       id="linearGradient3169"
       x1="-8.6979141"
       y1="5.5016246"
       x2="-6.8756237"
       y2="5.8664618"
       gradientUnits="userSpaceOnUse"
       gradientTransform="matrix(3.7795276,0,0,3.7795276,41.874006,2.2059995)" />
    <linearGradient
       inkscape:collect="always"
       id="linearGradient26892">
      <stop
         style="stop-color:#cb6085;stop-opacity:1"
         offset="0"
         id="stop26888" />
      <stop
         style="stop-color:#832949;stop-opacity:1"
         offset="1"
         id="stop26890" />
    </linearGradient>
    <linearGradient
       inkscape:collect="always"
       xlink:href="#linearGradient26892"
       id="linearGradient3915"
       x1="-1.0249975"
       y1="2.8557916"
       x2="-2.2618506"
       y2="6.1070709"
       gradientUnits="userSpaceOnUse"
       gradientTransform="matrix(3.7795276,0,0,3.7795276,41.874006,2.2059995)" />
    <linearGradient
       inkscape:collect="always"
       xlink:href="#linearGradient70845"
       id="linearGradient4193"
       x1="-3.6708312"
       y1="4.1787086"
       x2="-1.2895792"
       y2="10.528708"
       gradientUnits="userSpaceOnUse"
       gradientTransform="matrix(3.7795276,0,0,3.7795276,42.874001,2.2059995)" />
    <linearGradient
       inkscape:collect="always"
       id="linearGradient70845">
      <stop
         style="stop-color:#d04d79;stop-opacity:1"
         offset="0"
         id="stop70841-7" />
      <stop
         style="stop-color:#b63664;stop-opacity:1"
         offset="1"
         id="stop70843-0" />
    </linearGradient>
    <linearGradient
       inkscape:collect="always"
       xlink:href="#linearGradient40996"
       id="linearGradient4749"
       x1="-0.23124598"
       y1="2.5912082"
       x2="-3.6708307"
       y2="4.1787086"
       gradientUnits="userSpaceOnUse"
       gradientTransform="matrix(3.7795276,0,0,3.7795276,44.874002,2.2059995)" />
    <linearGradient
       inkscape:collect="always"
       xlink:href="#linearGradient56461"
       id="linearGradient4951"
       x1="-8.6979141"
       y1="2.8557918"
       x2="-2.8770823"
       y2="11.851625"
       gradientUnits="userSpaceOnUse"
       gradientTransform="matrix(3.7795276,0,0,3.7795276,41.874006,2.2059995)" />
    <linearGradient
       inkscape:collect="always"
       id="linearGradient56461">
      <stop
         style="stop-color:#fb95b9;stop-opacity:1"
         offset="0"
         id="stop56457-9" />
      <stop
         style="stop-color:#f63479;stop-opacity:1"
         offset="1"
         id="stop56459-1" />
    </linearGradient>
  </defs>
  <path
     id="rect1310"
     style="fill:url(#linearGradient5955);fill-opacity:1;stroke-width:0.999999;stroke-linejoin:round"
     d="m 19.000008,2.9999995 21.999994,4.9999995 -3,4.999543 -13.999994,1 -8,-6.0000025 z"
     sodipodi:nodetypes="cccccc" />
  <path
     id="rect1727"
     style="fill:url(#linearGradient4395);fill-opacity:1;stroke-width:0.999999;stroke-linejoin:round"
     d="m 4,9.9995426 7.000008,-4.9999998 5,2.9999997 -3.000007,4.9999995 -4.0000008,10e-7 z"
     sodipodi:nodetypes="cccccc" />
  <path
     d="m 9.0000012,12.999542 7.0000058,-5.0000003 6.000001,28.9999933 -6.000001,4e-6 -7.0000058,5 z"
     style="fill:url(#linearGradient3169);fill-opacity:1;stroke-width:0.264583;stroke-linejoin:round"
     id="path2897"
     sodipodi:nodetypes="cccccc" />
  <path
     d="M 16.000008,7.9995395 38.000002,12.999542 V 41.999539 L 30.999995,46.999537 16.000008,36.999535 Z"
     style="fill:url(#linearGradient3915);fill-opacity:1;stroke-width:0.264583;stroke-linejoin:round"
     id="path3818"
     sodipodi:nodetypes="cccccc" />
  <path
     id="rect2751"
     style="fill:url(#linearGradient4193);fill-opacity:1;stroke-width:0.999999;stroke-linejoin:round"
     d="m 30.999995,17.999543 7.000007,-5.000001 v 28.999997 l -7.000007,5.000001 z"
     sodipodi:nodetypes="ccccc" />
  <path
     d="m 30.999995,17.999543 7.000007,-5.000001 6,-1 -7.000008,5.000001 z"
     style="fill:url(#linearGradient4749);fill-opacity:1;stroke-width:0.264583;stroke-linejoin:round"
     id="path1888"
     sodipodi:nodetypes="ccccc" />
  <path
     d="m 19.000011,2 21.999994,4.9999984 -3e-6,1.0000006 -21.999994,-4.9999995 z"
     style="fill:#c65981;fill-opacity:1;stroke-width:0.264583"
     id="path5763"
     sodipodi:nodetypes="ccccc" />
  <path
     id="rect969"
     style="fill:url(#linearGradient4951);fill-opacity:1;stroke-width:0.999999;stroke-linejoin:round"
     d="M 9.0000002,12.999542 30.999995,17.999543 V 46.999537 L 9.0000002,41.999535 Z"
     sodipodi:nodetypes="ccccc" />
  <path
     id="path2"
     style="opacity:0.6;fill:#ffffff;stroke-width:0.0449994"
     d="m 16.153003,30.367029 c -0.173454,-0.04862 -0.346197,-0.102727 -0.516791,-0.142794 l 0.07515,0.03768 c 0.125518,-3.28e-4 0.308492,0.08715 0.441646,0.105207 z M 15.394868,30.170806 C 15.112673,30.085306 14.721217,30.089746 14.842041,30 14.38147,30.03797 13.56389,30.0287 13.105165,30.291903 l -0.01432,-0.101662 c -0.210217,0.175835 -0.916602,0.420053 -0.972898,0.726401 l -0.05625,-0.0075 c -0.109387,0.145391 -0.180159,0.329548 -0.266921,0.488542 -0.143112,0.191701 -0.209783,0.01746 -0.189396,0.06307 -0.281382,0.468134 -0.421155,0.896696 -0.541926,1.245898 0.08603,0.159919 0.0021,0.775001 0.03466,1.303536 -0.141336,2.500431 1.790948,5.681461 3.903088,7.022158 0.3096,0.22337 0.770004,0.386593 1.161635,0.540586 -0.462046,-0.300322 -0.521785,-0.259843 -0.971782,-0.580611 -0.324669,-0.271068 -0.395817,-0.471531 -0.625772,-0.754753 l 0.09099,0.193852 c -0.450944,-0.323773 -0.26233,-0.293083 -0.629209,-0.542781 l 0.09719,-0.0915 c -0.146204,-0.0643 -0.387155,-0.387236 -0.453079,-0.541516 l -0.159847,-0.05189 c -0.192147,-0.307016 -0.294527,-0.514969 -0.287051,-0.644634 l -0.05173,0.07325 c -0.05851,-0.121849 -0.706916,-1.146457 -0.370542,-0.840426 -0.06252,-0.07991 -0.145541,-0.146 -0.235632,-0.342395 l 0.06845,-0.05328 c -0.161869,-0.267118 -0.297932,-0.583766 -0.28758,-0.668824 0.08635,0.148066 0.146241,0.191678 0.205553,0.233276 -0.408731,-1.163024 -0.431717,-0.213102 -0.741353,-1.302285 l 0.06548,0.01844 c -0.05025,-0.09396 -0.08066,-0.187158 -0.121024,-0.282497 l 0.02854,-0.273679 c -0.294343,-0.447405 -0.0823,-1.476711 -0.03985,-2.068129 0.02951,-0.236069 0.245628,-0.420066 0.41009,-0.772173 l -0.100221,-0.0537 c 0.191437,-0.264344 1.09351,-0.94361 1.511193,-0.739745 0.202465,-0.180503 -0.04022,-0.01557 -0.07981,-0.09398 0.444504,-0.298247 0.584294,-0.112301 0.884258,-0.08589 0.323542,-0.0743 -0.277591,-0.02612 -0.124184,-0.11842 0.559208,0.06069 0.396293,-0.180476 1.125867,0.01236 0.07695,0.07182 -0.178583,0.0027 -0.242748,0.03613 0.465924,-0.05843 1.474595,0.360544 2.129652,0.901591 0.760265,0.632025 1.614224,1.992973 1.647929,2.993293 l 0.0384,0.02426 c -0.01943,0.385765 0.06006,0.868827 -0.07777,1.235896 l 0.09456,-0.16289 9.1e-5,3.2e-5 c 0.01119,0.304256 -0.08772,0.413862 -0.176931,0.639244 l -0.160385,0.02185 c -0.131346,0.207156 0.01262,0.166462 -0.0813,0.335075 -0.20499,0.107588 -0.622032,0.343736 -0.755498,0.330583 -0.09733,-0.03753 0.06611,-0.09087 0.08747,-0.127343 -0.274359,0.08861 -0.220206,0.202662 -0.639752,0.164511 l -0.01217,-0.03167 c -1.035055,0.11006 -2.472579,-1.377983 -2.453635,-2.687501 -0.01119,0.07952 -0.03152,0.05129 -0.0544,0.0767 -0.05336,-0.696748 0.312877,-1.243787 0.930397,-1.296811 0.604208,-0.07916 1.312286,0.301368 1.745047,0.862172 -0.237699,-0.397913 -0.710714,-0.900119 -1.271411,-1.073329 -0.549355,-0.191191 -1.063178,-0.02921 -1.234672,0.287217 -0.281382,0.07479 -0.314014,0.56864 -0.436636,0.616526 -0.164904,1.152397 0.3103,1.84917 1.114266,2.757923 0.126538,0.131377 0.03564,0.111254 0.05277,0.182449 -0.267114,-0.222266 -0.511773,-0.500158 -0.712872,-0.804558 0.106712,0.195129 0.221855,0.388826 0.370719,0.562335 -0.251819,-0.177028 -0.588312,-0.824423 -0.686497,-0.881533 0.434108,0.93532 1.761409,2.004353 2.456424,1.966671 -0.32156,-0.105108 -0.730153,-0.259136 -1.091501,-0.524264 -0.151684,-0.133247 -0.358126,-0.370288 -0.321321,-0.387126 0.948543,0.699616 1.928399,0.97034 2.749009,0.611118 0.20883,-0.08662 0.436928,-0.280203 0.502812,-0.260054 -0.09925,0.113125 0.01701,0.0779 -0.05936,0.181863 0.208131,-0.259763 -0.09034,-0.169447 0.215051,-0.501182 l 0.112763,0.196414 c -0.04192,-0.293714 0.345978,-0.490758 0.30664,-0.945531 0.08888,-0.102361 0.0992,0.181013 0.0048,0.45656 0.131033,-0.296092 0.03462,-0.386377 0.0683,-0.657773 0.03647,0.108609 0.08402,0.227199 0.108556,0.336745 -0.08526,-0.363213 0.08759,-0.527622 0.130355,-0.705152 -0.04218,-0.03413 -0.131765,0.09891 -0.152243,-0.300976 0.0029,-0.169398 0.04747,-0.07202 0.06456,-0.107731 -0.03341,-0.03156 -0.121266,-0.193988 -0.174625,-0.464068 0.03869,-0.04481 0.103533,0.190367 0.156178,0.218211 -0.0339,-0.211654 -0.09222,-0.384752 -0.09465,-0.538498 -0.153922,-0.377729 -0.05448,0.02309 -0.17929,-0.203414 -0.163857,-0.570695 0.135965,-0.06908 0.156178,-0.293919 0.248405,0.45019 0.389979,1.059277 0.454917,1.313851 -0.04961,-0.299645 -0.129743,-0.601534 -0.227636,-0.901084 0.07547,0.05921 -0.121462,-0.623612 0.09809,-0.139027 -0.234391,-0.948062 -1.003444,-2.034099 -1.710973,-2.669883 0.08659,0.110721 0.195904,0.24997 0.156616,0.251244 -0.351846,-0.3375 -0.289954,-0.331258 -0.340391,-0.438121 -0.286566,-0.220904 -0.305458,-0.101947 -0.495306,-0.180111 -0.540223,-0.483097 -0.644273,-0.490493 -1.141516,-0.851067 l 0.02256,0.113907 c -0.35788,-0.249471 -0.416975,-0.106613 -0.803837,-0.292214 -0.02355,-0.02717 0.123916,-0.02139 0.245386,0.0051 -0.346046,-0.0803 -0.329874,-0.188231 -0.668489,-0.230895 0.08346,-0.02816 0.171659,-0.0347 0.260686,-0.05214 z m 0.279844,0.1667 c 0.09903,0.05377 0.214084,0.109387 0.1979,0.127147 0.108314,0.01557 0.13293,0.0027 -0.1979,-0.127147 z m 0.1979,0.127147 -0.07007,-0.01119 0.06521,0.01799 z m -4.567444,0.536398 c -9.7e-5,0.0061 4.11e-4,0.01092 0.0013,0.01557 -3.76e-4,-0.0051 -7.67e-4,-0.01047 -0.0013,-0.01557 z m 0.0013,0.01557 c 0.01871,0.263312 -0.198017,0.281076 0.04969,0.19807 0.128042,-0.241806 -0.03356,-0.118518 -0.04969,-0.19807 z m -0.207156,0.759642 c -0.160679,0.146974 -0.07391,0.222315 -0.09087,0.355921 0.05814,-0.157345 0.06867,-0.260692 0.09087,-0.355921 z m 6.615183,3.648817 c -0.02309,-0.0078 -0.05243,0.03984 -0.06725,0.09823 0.03447,0.03058 0.06195,0.258176 0.09544,0.135723 0.01119,-0.163079 -0.0054,-0.226205 -0.02823,-0.233983 z m 2.029633,1.302011 c -2.9e-5,2.16e-4 -4.6e-5,4.51e-4 -9e-5,6.71e-4 l 2.72e-4,-6.03e-4 z m -9e-5,6.71e-4 -0.02695,0.05787 c -0.05003,0.336914 -0.157977,0.649039 -0.323513,0.914591 0.182593,-0.277081 0.300949,-0.609761 0.350502,-0.972454 z m -2.149679,-0.658045 c -0.02483,0.114096 -0.0916,0.196123 -0.154575,0.285365 -0.346987,0.09214 -0.03265,-0.14163 -1.87e-4,-0.262159 -0.373047,0.333831 -0.05124,0.262949 -0.06477,0.38915 0.110551,-0.112252 0.191123,-0.25005 0.219572,-0.412357 z m -0.756548,0.441622 c -0.150909,-0.01799 -0.304429,-0.07306 -0.459227,-0.143569 -0.185628,-0.06493 0.03507,0.108412 0.277375,0.23393 0.06697,-0.02789 0.127752,-0.0587 0.181864,-0.09041 z m -2.342526,-0.828545 c 0.04091,0.165415 0.12469,0.32521 0.202688,0.485177 l -0.05717,-0.189199 c -0.06456,-0.09493 -0.102754,-0.194763 -0.145542,-0.295975 z m -0.142821,0.202269 -0.02589,0.12073 c 0.121947,0.210123 0.218721,0.424921 0.374495,0.611171 -0.112041,-0.259627 -0.195303,-0.380327 -0.348489,-0.731866 z" />
</svg>
