<?xml version="1.0" encoding="UTF-8" standalone="no"?>
<!-- Created with Inkscape (http://www.inkscape.org/) -->

<svg
   width="48"
   height="48"
   viewBox="0 0 48 48"
   version="1.1"
   id="svg5"
   inkscape:version="1.2.1 (9c6d41e410, 2022-07-14, custom)"
   sodipodi:docname="application-vnd.oasis.opendocument.formula-template.svg"
   xmlns:inkscape="http://www.inkscape.org/namespaces/inkscape"
   xmlns:sodipodi="http://sodipodi.sourceforge.net/DTD/sodipodi-0.dtd"
   xmlns="http://www.w3.org/2000/svg"
   xmlns:svg="http://www.w3.org/2000/svg">
  <sodipodi:namedview
     id="namedview7"
     pagecolor="#ffffff"
     bordercolor="#000000"
     borderopacity="0.25"
     inkscape:showpageshadow="2"
     inkscape:pageopacity="0.0"
     inkscape:pagecheckerboard="0"
     inkscape:deskcolor="#d1d1d1"
     inkscape:document-units="px"
     showgrid="false"
     inkscape:zoom="16.833333"
     inkscape:cx="24"
     inkscape:cy="24"
     inkscape:window-width="1920"
     inkscape:window-height="1010"
     inkscape:window-x="0"
     inkscape:window-y="0"
     inkscape:window-maximized="1"
     inkscape:current-layer="svg5" />
  <defs
     id="defs2" />
  <path
     id="rect1054"
     style="fill:#7d7d7b;stroke-width:3;stroke-linecap:round;stroke-linejoin:round"
     d="m 8,2 29,4e-7 5,1.9999995 8e-6,42.0000061 H 12 V 42 H 8 Z"
     sodipodi:nodetypes="cccccccc" />
  <rect
     style="fill:#fafafa;fill-opacity:1;stroke-width:2.02685;stroke-linejoin:round"
     id="rect1365"
     width="28"
     height="38"
     x="8.999999"
     y="3" />
  <path
     id="rect844"
     style="fill:#808080;stroke-width:1.99999;stroke-linecap:round;stroke-linejoin:round"
     d="M 21.5,21 19.6245,29 17.75,26.5 17,27 l 2.9995,4 2.227062,-9 H 29 v -1 h -6.5 z m 1.5,3 2,3 -2,3 h 1 L 25.5,27.75 27,30 h 1 l -2,-3 2,-3 H 27 L 25.5,26.25 24,24 Z"
     sodipodi:nodetypes="ccccccccccccccccccccccc" />
  <path
     id="rect3044"
     style="fill:#b3b3b3;stroke-width:2.05797;stroke-linecap:round;stroke-linejoin:round"
     d="m 14,16 v 3 h -3 v 1 h 3 v 12 h -3 v 1 h 3 v 3 h 1 v -3 h 16 v 3 h 1 v -3 h 3.000001 V 32 H 32 V 20 h 3.000001 V 19 H 32 v -3 h -1 v 3 H 15 v -3 z m 1,4 H 31 V 32 H 15 Z"
     sodipodi:nodetypes="cccccccccccccccccccccccccccccccccc" />
  <path
     id="rect6964"
     style="fill:#999999;fill-opacity:1;stroke:none;stroke-width:2.78796;stroke-linecap:round;stroke-linejoin:round"
     d="m 8,2 29,4e-7 V 11.000001 H 8 Z"
     sodipodi:nodetypes="ccccc" />
  <path
     id="rect2071"
     style="fill:#fafafa;stroke-width:2;stroke-linejoin:round"
     d="M 13,42 H 38.000001 V 3.9999999 h 2.999997 V 45 H 13 Z"
     sodipodi:nodetypes="ccccccc" />
  <path
     id="rect13579"
     style="fill:#666666;fill-opacity:1;stroke-width:2.82019;stroke-linecap:round;stroke-linejoin:round"
     d="m 37,2.0000004 v 2.0000003 l 5,1.9999994 V 3.9999999 Z M 8,9.9999995 V 11.000001 H 37 V 9.9999995 Z"
     sodipodi:nodetypes="cccccccccc" />
</svg>
