<?xml version="1.0" encoding="UTF-8" standalone="no"?>
<!-- Created with Inkscape (http://www.inkscape.org/) -->

<svg
   width="48"
   height="48"
   viewBox="0 0 48 48"
   version="1.1"
   id="svg5"
   inkscape:version="1.2.1 (9c6d41e410, 2022-07-14, custom)"
   sodipodi:docname="application-octet-stream.svg"
   xmlns:inkscape="http://www.inkscape.org/namespaces/inkscape"
   xmlns:sodipodi="http://sodipodi.sourceforge.net/DTD/sodipodi-0.dtd"
   xmlns="http://www.w3.org/2000/svg"
   xmlns:svg="http://www.w3.org/2000/svg">
  <sodipodi:namedview
     id="namedview7"
     pagecolor="#ffffff"
     bordercolor="#000000"
     borderopacity="0.25"
     inkscape:showpageshadow="2"
     inkscape:pageopacity="0.0"
     inkscape:pagecheckerboard="0"
     inkscape:deskcolor="#d1d1d1"
     inkscape:document-units="px"
     showgrid="false"
     inkscape:zoom="16.708333"
     inkscape:cx="24"
     inkscape:cy="24"
     inkscape:window-width="1920"
     inkscape:window-height="1011"
     inkscape:window-x="0"
     inkscape:window-y="0"
     inkscape:window-maximized="1"
     inkscape:current-layer="svg5" />
  <defs
     id="defs2" />
  <path
     id="rect846"
     style="fill:#7d7d7b;stroke-width:2;stroke-linecap:round;stroke-linejoin:round"
     d="m 8,2 h 22.5 l 9.499999,9.5 V 46.000003 H 8 Z"
     sodipodi:nodetypes="cccccc" />
  <path
     id="rect1454"
     style="fill:#fafafa;stroke-width:2;stroke-linecap:round;stroke-linejoin:round"
     d="M 9.0000003,3.0000003 V 45.000004 H 39 V 13 h -9 c -0.554003,0 -1,-0.446 -1,-1 V 3.0000003 Z M 30,3.0000003 V 12 h 9 z"
     sodipodi:nodetypes="ccccsscccccc" />
  <path
     id="path445"
     style="font-weight:normal;font-size:12px;font-family:'Segoe UI';-inkscape-font-specification:'Segoe UI';text-align:center;text-anchor:middle;fill:#b4b4b4;stroke-linecap:round;stroke-linejoin:round"
     d="m 14.375,13 c -0.148437,0.128906 -0.324219,0.261718 -0.527344,0.398438 -0.203124,0.132811 -0.419922,0.261718 -0.65039,0.386718 -0.226563,0.121094 -0.458985,0.232422 -0.697266,0.333985 -0.234374,0.09766 -0.457031,0.175781 -0.667969,0.234375 v 0.972656 c 0.1875,-0.04687 0.378907,-0.111328 0.574219,-0.19336 0.199218,-0.08203 0.386719,-0.169921 0.5625,-0.263671 0.179687,-0.09375 0.339844,-0.1875 0.480469,-0.28125 0.144531,-0.09766 0.253906,-0.183594 0.328125,-0.257813 v 7.259766 h 0.960937 V 13 Z m 5.923828,0.04687 c -0.457031,0 -0.863282,0.09766 -1.21875,0.292969 -0.351562,0.191406 -0.646484,0.478516 -0.884766,0.861328 -0.23828,0.378905 -0.419921,0.84961 -0.544921,1.412109 -0.121094,0.5625 -0.181641,1.210938 -0.181641,1.945313 0,0.667968 0.05859,1.261719 0.175781,1.78125 0.117187,0.515624 0.289063,0.951172 0.515625,1.30664 0.226563,0.355469 0.503907,0.626954 0.832032,0.814454 0.332031,0.183593 0.708984,0.27539 1.130859,0.27539 0.445312,0 0.841797,-0.0957 1.189453,-0.287109 0.351562,-0.195313 0.646485,-0.478516 0.884766,-0.84961 0.242187,-0.374999 0.425781,-0.833985 0.550781,-1.376953 0.128906,-0.542968 0.193359,-1.166016 0.193359,-1.86914 0,-2.871092 -0.880861,-4.306641 -2.642578,-4.306641 z m 6.46875,0 c -0.457031,0 -0.863282,0.09766 -1.21875,0.292969 -0.351562,0.191406 -0.646484,0.478516 -0.884766,0.861328 -0.23828,0.378905 -0.419921,0.84961 -0.544921,1.412109 -0.121094,0.5625 -0.181641,1.210938 -0.181641,1.945313 0,0.667968 0.05859,1.261719 0.175781,1.78125 0.117187,0.515624 0.289063,0.951172 0.515625,1.30664 0.226563,0.355469 0.503907,0.626954 0.832032,0.814454 0.332031,0.183593 0.708984,0.27539 1.130859,0.27539 0.445312,0 0.841797,-0.0957 1.189453,-0.287109 0.351562,-0.195313 0.646485,-0.478516 0.884766,-0.84961 0.242187,-0.374999 0.425781,-0.833985 0.550781,-1.376953 0.128906,-0.542968 0.193359,-1.166016 0.193359,-1.86914 0,-2.871092 -0.880861,-4.306641 -2.642578,-4.306641 z m 6.46875,0 c -0.457031,0 -0.863282,0.09766 -1.21875,0.292969 -0.351562,0.191406 -0.646484,0.478516 -0.884766,0.861328 -0.23828,0.378905 -0.419921,0.84961 -0.544921,1.412109 -0.121094,0.5625 -0.181641,1.210938 -0.181641,1.945313 0,0.667968 0.05859,1.261719 0.175781,1.78125 0.117187,0.515624 0.289063,0.951172 0.515625,1.30664 0.226563,0.355469 0.503907,0.626954 0.832032,0.814454 0.332031,0.183593 0.708984,0.27539 1.130859,0.27539 0.445312,0 0.841797,-0.0957 1.189453,-0.287109 0.351562,-0.195313 0.646485,-0.478516 0.884766,-0.84961 0.242187,-0.374999 0.425781,-0.833985 0.550781,-1.376953 0.128906,-0.542968 0.193359,-1.166016 0.193359,-1.86914 0,-2.871092 -0.880861,-4.306641 -2.642578,-4.306641 z m -12.984375,0.814453 c 1.136718,0 1.705078,1.195315 1.705078,3.585938 0,2.312497 -0.580079,3.46875 -1.740234,3.46875 -1.17578,0 -1.763672,-1.134768 -1.763672,-3.404297 0,-2.433592 0.599611,-3.650391 1.798828,-3.650391 z m 6.46875,0 c 1.136718,0 1.705078,1.195315 1.705078,3.585938 0,2.312497 -0.580079,3.46875 -1.740234,3.46875 -1.17578,0 -1.763672,-1.134768 -1.763672,-3.404297 0,-2.433592 0.599611,-3.650391 1.798828,-3.650391 z m 6.46875,0 c 1.136718,0 1.705078,1.195315 1.705078,3.585938 0,2.312497 -0.580079,3.46875 -1.740234,3.46875 -1.17578,0 -1.763672,-1.134768 -1.763672,-3.404297 0,-2.433592 0.599611,-3.650391 1.798828,-3.650391 z M 20.84375,24 c -0.148437,0.128906 -0.324219,0.261719 -0.527344,0.398438 -0.203124,0.132812 -0.419922,0.261718 -0.65039,0.386718 -0.226563,0.121094 -0.458985,0.232422 -0.697266,0.333985 -0.234375,0.09766 -0.457032,0.175781 -0.667969,0.234375 v 0.972656 c 0.1875,-0.04687 0.378907,-0.111328 0.574219,-0.19336 0.199218,-0.08203 0.386719,-0.169921 0.5625,-0.263671 0.179687,-0.09375 0.339844,-0.1875 0.480469,-0.28125 0.144531,-0.09766 0.253906,-0.183594 0.328125,-0.257813 v 7.259766 h 0.960937 V 24 Z m -7.013672,0.04687 c -0.457031,0 -0.863282,0.09766 -1.21875,0.292969 -0.351562,0.191406 -0.646485,0.478516 -0.884766,0.861328 -0.238281,0.378905 -0.419921,0.84961 -0.544921,1.412109 C 11.060547,27.175781 11,27.824219 11,28.558594 c 0,0.667968 0.05859,1.261719 0.175781,1.78125 0.117188,0.515624 0.289063,0.951172 0.515625,1.30664 0.226563,0.355469 0.503906,0.626954 0.832032,0.814454 0.33203,0.183593 0.708984,0.27539 1.130859,0.27539 0.445312,0 0.841797,-0.0957 1.189453,-0.287109 0.351562,-0.195313 0.646485,-0.478516 0.884766,-0.84961 0.242187,-0.374999 0.425781,-0.833985 0.550781,-1.376953 0.128906,-0.542968 0.193359,-1.166016 0.193359,-1.86914 0,-2.871092 -0.880861,-4.306641 -2.642578,-4.306641 z m 12.9375,0 c -0.457031,0 -0.863282,0.09766 -1.21875,0.292969 -0.351562,0.191406 -0.646484,0.478516 -0.884766,0.861328 -0.23828,0.378905 -0.419921,0.84961 -0.544921,1.412109 -0.121094,0.5625 -0.181641,1.210938 -0.181641,1.945313 0,0.667968 0.05859,1.261719 0.175781,1.78125 0.117187,0.515624 0.289063,0.951172 0.515625,1.30664 0.226563,0.355469 0.503907,0.626954 0.832032,0.814454 0.332031,0.183593 0.708984,0.27539 1.130859,0.27539 0.445312,0 0.841797,-0.0957 1.189453,-0.287109 0.351562,-0.195313 0.646485,-0.478516 0.884766,-0.84961 0.242187,-0.374999 0.425781,-0.833985 0.550781,-1.376953 0.128906,-0.542968 0.193359,-1.166016 0.193359,-1.86914 0,-2.871092 -0.880861,-4.306641 -2.642578,-4.306641 z m 6.46875,0 c -0.457031,0 -0.863282,0.09766 -1.21875,0.292969 -0.351562,0.191406 -0.646484,0.478516 -0.884766,0.861328 -0.23828,0.378905 -0.419921,0.84961 -0.544921,1.412109 -0.121094,0.5625 -0.181641,1.210938 -0.181641,1.945313 0,0.667968 0.05859,1.261719 0.175781,1.78125 0.117187,0.515624 0.289063,0.951172 0.515625,1.30664 0.226563,0.355469 0.503907,0.626954 0.832032,0.814454 0.332031,0.183593 0.708984,0.27539 1.130859,0.27539 0.445312,0 0.841797,-0.0957 1.189453,-0.287109 0.351562,-0.195313 0.646485,-0.478516 0.884766,-0.84961 0.242187,-0.374999 0.425781,-0.833985 0.550781,-1.376953 0.128906,-0.542968 0.193359,-1.166016 0.193359,-1.86914 0,-2.871092 -0.880861,-4.306641 -2.642578,-4.306641 z m -19.453125,0.814453 c 1.136718,0 1.705078,1.195315 1.705078,3.585938 0,2.312497 -0.580079,3.46875 -1.740234,3.46875 -1.17578,0 -1.763672,-1.134768 -1.763672,-3.404297 0,-2.433592 0.599611,-3.650391 1.798828,-3.650391 z m 12.9375,0 c 1.136718,0 1.705078,1.195315 1.705078,3.585938 0,2.312497 -0.580079,3.46875 -1.740234,3.46875 -1.17578,0 -1.763672,-1.134768 -1.763672,-3.404297 0,-2.433592 0.599611,-3.650391 1.798828,-3.650391 z m 6.46875,0 c 1.136718,0 1.705078,1.195315 1.705078,3.585938 0,2.312497 -0.580079,3.46875 -1.740234,3.46875 -1.17578,0 -1.763672,-1.134768 -1.763672,-3.404297 0,-2.433592 0.599611,-3.650391 1.798828,-3.650391 z M 27.3125,35 c -0.148437,0.128906 -0.324219,0.261719 -0.527344,0.398438 -0.203124,0.132812 -0.419922,0.261718 -0.65039,0.386718 -0.226563,0.121094 -0.458985,0.232422 -0.697266,0.333985 -0.234375,0.09766 -0.457032,0.175781 -0.667969,0.234375 v 0.972656 c 0.1875,-0.04687 0.378907,-0.111328 0.574219,-0.19336 0.199218,-0.08203 0.386719,-0.169921 0.5625,-0.263671 0.179687,-0.09375 0.339844,-0.1875 0.480469,-0.28125 0.144531,-0.09766 0.253906,-0.183594 0.328125,-0.257813 v 7.259766 h 0.960937 V 35 Z m -13.482422,0.04687 c -0.457031,0 -0.863282,0.09766 -1.21875,0.292969 -0.351562,0.191406 -0.646485,0.478516 -0.884766,0.861328 -0.238281,0.378905 -0.419921,0.84961 -0.544921,1.412109 C 11.060547,38.175781 11,38.824219 11,39.558594 c 0,0.667968 0.05859,1.261719 0.175781,1.78125 0.117188,0.515624 0.289063,0.951172 0.515625,1.30664 0.226563,0.355469 0.503906,0.626954 0.832032,0.814454 0.33203,0.183593 0.708984,0.27539 1.130859,0.27539 0.445312,0 0.841797,-0.0957 1.189453,-0.287109 0.351562,-0.195313 0.646485,-0.478516 0.884766,-0.84961 0.242187,-0.374999 0.425781,-0.833985 0.550781,-1.376953 0.128906,-0.542968 0.193359,-1.166016 0.193359,-1.86914 0,-2.871092 -0.880861,-4.306641 -2.642578,-4.306641 z m 6.46875,0 c -0.457031,0 -0.863282,0.09766 -1.21875,0.292969 -0.351562,0.191406 -0.646484,0.478516 -0.884766,0.861328 -0.23828,0.378905 -0.419921,0.84961 -0.544921,1.412109 -0.121094,0.5625 -0.181641,1.210938 -0.181641,1.945313 0,0.667968 0.05859,1.261719 0.175781,1.78125 0.117187,0.515624 0.289063,0.951172 0.515625,1.30664 0.226563,0.355469 0.503907,0.626954 0.832032,0.814454 0.332031,0.183593 0.708984,0.27539 1.130859,0.27539 0.445312,0 0.841797,-0.0957 1.189453,-0.287109 0.351562,-0.195313 0.646485,-0.478516 0.884766,-0.84961 0.242187,-0.374999 0.425781,-0.833985 0.550781,-1.376953 0.128906,-0.542968 0.193359,-1.166016 0.193359,-1.86914 0,-2.871092 -0.880861,-4.306641 -2.642578,-4.306641 z m 12.9375,0 c -0.457031,0 -0.863282,0.09766 -1.21875,0.292969 -0.351562,0.191406 -0.646484,0.478516 -0.884766,0.861328 -0.23828,0.378905 -0.419921,0.84961 -0.544921,1.412109 -0.121094,0.5625 -0.181641,1.210938 -0.181641,1.945313 0,0.667968 0.05859,1.261719 0.175781,1.78125 0.117187,0.515624 0.289063,0.951172 0.515625,1.30664 0.226563,0.355469 0.503907,0.626954 0.832032,0.814454 0.332031,0.183593 0.708984,0.27539 1.130859,0.27539 0.445312,0 0.841797,-0.0957 1.189453,-0.287109 0.351562,-0.195313 0.646485,-0.478516 0.884766,-0.84961 0.242187,-0.374999 0.425781,-0.833985 0.550781,-1.376953 0.128906,-0.542968 0.193359,-1.166016 0.193359,-1.86914 0,-2.871092 -0.880861,-4.306641 -2.642578,-4.306641 z m -19.453125,0.814453 c 1.136718,0 1.705078,1.195315 1.705078,3.585938 0,2.312497 -0.580079,3.46875 -1.740234,3.46875 -1.17578,0 -1.763672,-1.134768 -1.763672,-3.404297 0,-2.433592 0.599611,-3.650391 1.798828,-3.650391 z m 6.46875,0 c 1.136718,0 1.705078,1.195315 1.705078,3.585938 0,2.312497 -0.580079,3.46875 -1.740234,3.46875 -1.17578,0 -1.763672,-1.134768 -1.763672,-3.404297 0,-2.433592 0.599611,-3.650391 1.798828,-3.650391 z m 12.9375,0 c 1.136718,0 1.705078,1.195315 1.705078,3.585938 0,2.312497 -0.580079,3.46875 -1.740234,3.46875 -1.17578,0 -1.763672,-1.134768 -1.763672,-3.404297 0,-2.433592 0.599611,-3.650391 1.798828,-3.650391 z"
     sodipodi:nodetypes="ccccccccccccccscccscscscccssscccscscscccssscccscscscccsssssssssssssssssccccccccccccccscccscscscccssscccscscscccssscccscscscccsssssssssssssssssccccccccccccccscccscscscccssscccscscscccssscccscscscccsssssssssssssssss" />
</svg>
