<?xml version="1.0" encoding="UTF-8" standalone="no"?>
<!-- Created with Inkscape (http://www.inkscape.org/) -->

<svg
   width="48"
   height="48"
   viewBox="0 0 48 48"
   version="1.1"
   id="svg5"
   inkscape:version="1.2.1 (9c6d41e410, 2022-07-14, custom)"
   sodipodi:docname="application-vnd.ms-powerpoint.svg"
   xmlns:inkscape="http://www.inkscape.org/namespaces/inkscape"
   xmlns:sodipodi="http://sodipodi.sourceforge.net/DTD/sodipodi-0.dtd"
   xmlns="http://www.w3.org/2000/svg"
   xmlns:svg="http://www.w3.org/2000/svg">
  <sodipodi:namedview
     id="namedview7"
     pagecolor="#ffffff"
     bordercolor="#000000"
     borderopacity="0.25"
     inkscape:showpageshadow="2"
     inkscape:pageopacity="0.0"
     inkscape:pagecheckerboard="0"
     inkscape:deskcolor="#d1d1d1"
     inkscape:document-units="px"
     showgrid="false"
     inkscape:zoom="16.708333"
     inkscape:cx="24"
     inkscape:cy="24"
     inkscape:window-width="1920"
     inkscape:window-height="1011"
     inkscape:window-x="0"
     inkscape:window-y="0"
     inkscape:window-maximized="1"
     inkscape:current-layer="svg5" />
  <defs
     id="defs2" />
  <path
     id="rect846"
     style="fill:#7d7d7b;stroke-width:2;stroke-linecap:round;stroke-linejoin:round"
     d="m 8,2 h 22.5 l 9.499999,9.5 V 46.000003 H 8 Z"
     sodipodi:nodetypes="cccccc" />
  <path
     id="rect1454"
     style="fill:#fafafa;stroke-width:2;stroke-linecap:round;stroke-linejoin:round"
     d="M 9.0000003,3.0000003 V 45.000004 H 39 V 13 h -9 c -0.554003,0 -1,-0.446 -1,-1 V 3.0000003 Z M 30,3.0000003 V 12 h 9 z"
     sodipodi:nodetypes="ccccsscccccc" />
  <path
     id="path344"
     style="fill:#f1ab69;fill-opacity:1;stroke-width:2.33333;stroke-linecap:round"
     d="m 30,16 v 7 h 7 a 6.9999988,6.9999988 0 0 0 -7,-7 z" />
  <path
     id="path345"
     style="fill:#e77d57;fill-opacity:1;stroke-width:2.79977"
     d="M 28 18 A 7 7 0 0 0 23 20.142578 L 23 29.857422 A 7 7 0 0 0 28 32 A 7 7 0 0 0 35 25 L 28 25 L 28 18 z " />
  <path
     id="path649"
     style="fill:#ed6c47;fill-opacity:1;stroke-width:3.5"
     d="M 23 25 L 23 29.871094 A 7 7 0 0 0 28 32 A 7 7 0 0 0 35 25 L 23 25 z " />
  <rect
     style="fill:#cb3a22;fill-opacity:1;stroke-width:2;stroke-linejoin:round"
     id="rect844"
     width="20"
     height="20"
     x="1"
     y="15"
     ry="1.9999999" />
  <path
     id="rect16145"
     style="fill:#ffffff;fill-opacity:1;stroke-width:1.22115;stroke-linecap:round;stroke-linejoin:round"
     d="m 7.0000003,19.000001 v 12 H 8.8889628 V 26.45727 h 1.8070752 c 2.605108,0 4.526037,-1.204621 4.526037,-3.809727 0,-2.71908 -1.920994,-3.647542 -4.591228,-3.647542 z m 1.8889625,1.531205 h 1.5630052 c 1.904984,0 2.897841,0.520709 2.897841,2.116337 0,1.546782 -0.928046,2.279316 -2.816749,2.279316 H 8.8889628 Z" />
</svg>
