<?xml version="1.0" encoding="UTF-8" standalone="no"?>
<!-- Created with Inkscape (http://www.inkscape.org/) -->

<svg
   width="48"
   height="48"
   viewBox="0 0 48 48"
   version="1.1"
   id="svg5"
   inkscape:version="1.2.1 (9c6d41e410, 2022-07-14, custom)"
   sodipodi:docname="application-x-perl.svg"
   xmlns:inkscape="http://www.inkscape.org/namespaces/inkscape"
   xmlns:sodipodi="http://sodipodi.sourceforge.net/DTD/sodipodi-0.dtd"
   xmlns:xlink="http://www.w3.org/1999/xlink"
   xmlns="http://www.w3.org/2000/svg"
   xmlns:svg="http://www.w3.org/2000/svg">
  <sodipodi:namedview
     id="namedview7"
     pagecolor="#ffffff"
     bordercolor="#000000"
     borderopacity="0.25"
     inkscape:showpageshadow="2"
     inkscape:pageopacity="0.0"
     inkscape:pagecheckerboard="0"
     inkscape:deskcolor="#d1d1d1"
     inkscape:document-units="px"
     showgrid="false"
     inkscape:zoom="16.708333"
     inkscape:cx="24"
     inkscape:cy="24"
     inkscape:window-width="1920"
     inkscape:window-height="1011"
     inkscape:window-x="0"
     inkscape:window-y="0"
     inkscape:window-maximized="1"
     inkscape:current-layer="svg5" />
  <defs
     id="defs2">
    <linearGradient
       inkscape:collect="always"
       xlink:href="#linearGradient3605"
       id="linearGradient1706"
       x1="46.000046"
       y1="21"
       x2="46.000046"
       y2="52"
       gradientUnits="userSpaceOnUse"
       gradientTransform="matrix(0.74999757,0,0,0.74193554,-0.49992313,2.4193458)" />
    <linearGradient
       inkscape:collect="always"
       id="linearGradient3605">
      <stop
         style="stop-color:#0d6eaa;stop-opacity:1;"
         offset="0"
         id="stop3601" />
      <stop
         style="stop-color:#185086;stop-opacity:1"
         offset="1"
         id="stop3603" />
    </linearGradient>
  </defs>
  <path
     id="rect846"
     style="fill:#7d7d7b;stroke-width:2;stroke-linecap:round;stroke-linejoin:round"
     d="m 8,2 h 22.5 l 9.499999,9.5 V 46.000003 H 8 Z"
     sodipodi:nodetypes="cccccc" />
  <path
     id="rect1454"
     style="fill:#fafafa;stroke-width:2;stroke-linecap:round;stroke-linejoin:round"
     d="M 9.0000003,3.0000003 V 45.000004 H 39 V 13 h -9 c -0.554003,0 -1,-0.446 -1,-1 V 3.0000003 Z M 30,3.0000003 V 12 h 9 z"
     sodipodi:nodetypes="ccccsscccccc" />
  <path
     d="m 26.636419,30.258808 c 0.20589,1.178411 0.345674,2.053503 0.418739,3.24664 0.02025,0.743024 -0.203114,1.47309 -0.637881,2.084895 -0.102292,0.354531 -0.409011,0 -0.628153,0 -0.540575,0 -0.740172,-0.567368 -1.032424,-0.91722 -0.292161,-0.34985 -0.08292,-0.666596 0.112027,-0.945475 0.209415,-0.146547 0.292162,-0.472739 0.594133,-0.472739 0.301897,0 0.262972,-0.401847 0.21915,-0.614599 0.199597,-0.297854 0.07784,-0.424259 0.272699,-0.750452 0.350541,-0.151229 0.248332,-0.680727 0.370086,-0.978581 0.09739,-0.212752 0,-0.619364 0.277522,-0.709147 0,0 0.03383,0 0.0288,0.04684 M 26.295125,18.108416 c -0.457746,-0.05175 -0.803465,0.250622 -1.188191,0.420823 -0.319304,0.103154 -0.644465,0.188366 -0.973872,0.25522 -0.238596,0.472819 -0.788907,0.7517 -1.085974,1.196099 -0.303974,0.883067 -0.869757,1.659335 -1.626392,2.231437 -1.081069,0.543711 -1.326093,1.725596 -1.681547,2.836592 -0.121755,0.250538 -0.102292,0.619364 -0.233774,0.832035 -0.428556,0.118206 -0.199687,-0.425423 -0.248339,-0.685491 -0.06345,-0.387636 0.287339,-0.638175 0.311624,-1.016448 0.145034,-0.268693 0.205971,-0.943366 0.175311,-1.245254 -0.04905,-0.676045 0.16068,-1.498633 -0.331078,-2.051791 -0.292252,-0.165437 -0.199687,-0.515288 -0.306802,-0.784803 -0.290467,-0.384928 -0.660305,-0.706921 -1.085981,-0.945475 -0.350542,-0.03285 -0.671976,-0.472819 -1.032335,-0.269512 -0.223964,0.255302 -0.63788,0.250537 -0.769365,0.590941 -0.08292,0.425507 -0.574591,0.312065 -0.896027,0.416058 -0.409009,0.155992 -1.235323,0 -1.571313,0.31675 -0.335989,0.316746 -0.886298,0.780035 -0.720715,1.3143 0.384726,0.732723 1.67843,0.363978 2.219009,0.808377 -0.170726,0.491704 -0.367396,1.345224 -0.58923,1.817306 -0.08837,0.641043 -0.101429,1.28976 -0.03892,1.933666 0.102291,0.642939 -0.06854,1.470293 0.48702,1.924139 0.316529,0.11344 0.297067,0.472737 0.418739,0.737487 0.121754,0.264751 0.355533,-0.09455 0.452922,0.160757 0.282428,0.151225 0.02876,0.472736 0.185043,0.661832 0.259864,0.04993 0.498746,0.173298 0.686613,0.354614 0.299301,0.20237 0.578105,0.4319 0.832655,0.685492 0.194774,0.387636 0.443196,-0.378192 0.657433,-0.08986 0.109604,0.262686 0.431016,0.37335 0.686615,0.236409 0.396479,-0.06489 0.770802,-0.222267 1.090796,-0.458608 0.209415,0.723358 0.04822,1.508161 0.141217,2.255095 0.129427,0.545433 -0.0895,1.100562 -0.05692,1.659388 0.146002,0.550641 0.230901,1.114867 0.253244,1.683046 0.158317,1.180581 -0.04845,2.380206 -0.594058,3.446427 -0.0651,0.334217 -0.333112,0.596335 -0.676888,0.661918 -0.243509,0.108675 -0.7499,0.302535 -0.579493,0.642939 0.56486,0.472738 1.46089,0.420742 2.10858,0.179649 0.428474,-0.203306 0.05835,-0.709148 0.277522,-1.016448 0.287347,-1.077892 0.146129,-2.231438 0.486936,-3.309332 0.263744,-0.543427 0.363374,-1.148313 0.287339,-1.744489 0.06855,-0.36406 -0.08765,-0.803695 0.155857,-1.101548 0.0038,-0.366294 0.143804,-0.718915 0.394371,-0.992791 0.07936,-0.556166 0.120037,-1.11689 0.121755,-1.678363 0.342966,-0.104075 0.704135,-0.13946 1.061606,-0.103991 0,0.312064 -0.228869,0.671361 -0.160672,1.021211 0.0717,0.393013 -0.006,0.484627 -0.219141,0.826027 -0.150945,0.614599 -0.253245,1.370979 0.141217,1.891033 0.652513,0.694937 1.504712,1.186649 2.123138,1.928902 0.210127,0.164615 0.223634,0.470939 0.0288,0.652386 -0.113467,0.400448 -0.423276,0.720678 -0.827833,0.855693 -0.258066,0.09931 -0.671982,0.472738 -0.370086,0.732805 0.607648,0.132964 1.241981,0.0919 1.826064,-0.118204 0.399366,-0.141863 0.253244,-0.609838 0.409094,-0.903009 0.215039,0.283589 0.413376,0.578766 0.59405,0.884115 0.248422,0.359297 0.676888,0.06161 0.973962,-0.05175 0.03502,-0.525674 -0.07425,-1.050959 -0.316521,-1.522283 -0.136312,-0.312066 -0.667161,-0.321513 -0.642793,-0.704468 0.262971,-0.945476 0.915492,-1.682963 1.4317,-2.481975 0.428466,-0.397086 0.107115,-0.988108 0.13149,-1.489188 -0.136567,-1.287925 0.184739,-2.269144 0.910579,-3.355315 0.150345,0.603341 0.343979,1.19573 0.579501,1.772829 0.169754,0.676631 0.477763,1.313268 0.905757,1.87214 0.199597,0.671362 0.146032,1.418296 0.277522,2.113233 0.188197,1.201688 0.118574,2.131549 -0.204502,3.305881 0.03383,0.430186 -0.384726,0.746933 -0.345719,1.167676 0.116842,0.387718 0.584316,0.07558 0.827825,0.241093 0.439693,0.132554 0.912882,-0.06892 1.110266,-0.472739 -0.101602,-0.32845 -0.170114,-0.6657 -0.204592,-1.007002 -0.334131,-0.994209 -0.407766,-1.756971 -0.214229,-2.785746 0.03892,-0.557839 0.384719,-1.238646 -0.06345,-1.71615 -0.121762,-0.510606 0.08765,-1.063679 -0.03892,-1.588498 -0.300276,-1.344564 -0.334986,-2.732237 -0.102307,-4.089369 0.07785,-0.189095 0,-0.538944 0.209414,-0.642939 0.207225,0.300364 0.30021,0.661428 0.262972,1.021132 0.189345,0.557531 0.213089,1.155565 0.06855,1.725594 -0.355454,0.439635 -0.136312,1.035343 -0.09248,1.531738 0.05835,0.34985 0.433371,0.09931 0.486928,-0.118207 0.327239,-0.591712 0.591568,-1.21423 0.788915,-1.857928 0.223964,-0.293088 0,-0.638257 0,-0.945558 0.345719,-0.04272 0.214237,-0.420741 0.0288,-0.58618 C 33.62837,27.374835 33.6722,26.675134 33.253379,26.159845 32.591228,25.495098 32.042238,24.732302 31.626987,23.900065 31.183798,22.543211 29.917765,21.640205 29.489216,20.269224 29.328431,19.473645 28.836958,18.777592 28.130618,18.345085 27.816039,18.20486 27.49033,18.089458 27.156664,18 c -0.283897,0.0575 -0.572174,0.0923 -0.861928,0.103992"
     style="fill:url(#linearGradient1706);fill-opacity:1;stroke-width:0.745956"
     id="path724" />
</svg>
