<?xml version="1.0" encoding="UTF-8" standalone="no"?>
<!-- Created with Inkscape (http://www.inkscape.org/) -->

<svg
   width="48"
   height="48"
   viewBox="0 0 48 48"
   version="1.1"
   id="svg5"
   inkscape:version="1.2.1 (9c6d41e410, 2022-07-14, custom)"
   sodipodi:docname="application-x-theme.svg"
   xmlns:inkscape="http://www.inkscape.org/namespaces/inkscape"
   xmlns:sodipodi="http://sodipodi.sourceforge.net/DTD/sodipodi-0.dtd"
   xmlns:xlink="http://www.w3.org/1999/xlink"
   xmlns="http://www.w3.org/2000/svg"
   xmlns:svg="http://www.w3.org/2000/svg">
  <sodipodi:namedview
     id="namedview7"
     pagecolor="#ffffff"
     bordercolor="#000000"
     borderopacity="0.25"
     inkscape:showpageshadow="2"
     inkscape:pageopacity="0.0"
     inkscape:pagecheckerboard="0"
     inkscape:deskcolor="#d1d1d1"
     inkscape:document-units="px"
     showgrid="false"
     inkscape:zoom="17.083333"
     inkscape:cx="22.360976"
     inkscape:cy="24"
     inkscape:window-width="1920"
     inkscape:window-height="1029"
     inkscape:window-x="0"
     inkscape:window-y="0"
     inkscape:window-maximized="1"
     inkscape:current-layer="svg5" />
  <defs
     id="defs2">
    <linearGradient
       inkscape:collect="always"
       xlink:href="#linearGradient2986"
       id="linearGradient2988"
       x1="0.092814192"
       y1="13.470937"
       x2="-3.2895818"
       y2="13.470937"
       gradientUnits="userSpaceOnUse"
       gradientTransform="matrix(2.3651876,0,0,0.3059441,27.780479,33.878648)" />
    <linearGradient
       inkscape:collect="always"
       id="linearGradient2986">
      <stop
         style="stop-color:#818990;stop-opacity:1;"
         offset="0"
         id="stop2982" />
      <stop
         style="stop-color:#bcc5cf;stop-opacity:1"
         offset="1"
         id="stop2984" />
    </linearGradient>
    <linearGradient
       inkscape:collect="always"
       xlink:href="#linearGradient1116"
       id="linearGradient1340"
       x1="0.82682294"
       y1="4.0845051"
       x2="6.1184893"
       y2="4.0845051"
       gradientUnits="userSpaceOnUse"
       gradientTransform="matrix(3.7795276,0,0,3.7795276,10.875,12.5625)" />
    <linearGradient
       inkscape:collect="always"
       id="linearGradient1116">
      <stop
         style="stop-color:#555a5f;stop-opacity:1;"
         offset="0"
         id="stop1112" />
      <stop
         style="stop-color:#4b4f53;stop-opacity:1"
         offset="1"
         id="stop1114" />
    </linearGradient>
    <linearGradient
       inkscape:collect="always"
       xlink:href="#linearGradient2301"
       id="linearGradient1929"
       x1="0.5291667"
       y1="0.79374999"
       x2="5.2916665"
       y2="3.96875"
       gradientUnits="userSpaceOnUse"
       gradientTransform="matrix(3.7795276,0,0,3.7795276,13,19)" />
    <linearGradient
       inkscape:collect="always"
       id="linearGradient2301">
      <stop
         style="stop-color:#3fe3e7;stop-opacity:1;"
         offset="0"
         id="stop2297" />
      <stop
         style="stop-color:#066bbc;stop-opacity:1"
         offset="1"
         id="stop2299" />
    </linearGradient>
  </defs>
  <path
     id="rect846"
     style="fill:#7d7d7b;stroke-width:2;stroke-linecap:round;stroke-linejoin:round"
     d="m 8,2 h 22.5 l 9.499999,9.5 V 46.000003 H 8 Z"
     sodipodi:nodetypes="cccccc" />
  <path
     id="rect1454"
     style="fill:#fafafa;stroke-width:2;stroke-linecap:round;stroke-linejoin:round"
     d="M 9.0000003,3.0000003 V 45.000004 H 39 V 13 h -9 c -0.554003,0 -1,-0.446 -1,-1 V 3.0000003 Z M 30,3.0000003 V 12 h 9 z"
     sodipodi:nodetypes="ccccsscccccc" />
  <path
     id="rect958"
     style="fill:#bcc5cf;stroke-width:4.08249;stroke-linecap:round;stroke-linejoin:round"
     d="m 23.000001,35 h 2.000001 L 25,37.000001 h -1.999999 z"
     sodipodi:nodetypes="ccccc" />
  <path
     id="rect2848"
     style="fill:url(#linearGradient2988);stroke-width:1.12535;stroke-linecap:round;stroke-linejoin:round"
     d="m 20.000001,37.000001 h 8 v 1.000001 h -8 z" />
  <path
     id="rect1538"
     style="fill:url(#linearGradient1340);stroke-width:0.500001;stroke-linejoin:round"
     d="M 16.000001,21 H 32 c 1.108,0 2,0.892 2,2 v 9.999998 C 34,34.108001 33.108,35 32,35 H 16.000001 C 14.892,35 14,34.108001 14,32.999998 V 23 c 0,-1.108 0.892,-2 2.000001,-2 z" />
  <path
     id="rect1841"
     style="fill:url(#linearGradient1929);stroke-width:0.500001;stroke-linejoin:round"
     d="M 16.000001,22 H 32 c 0.554,0 1,0.446 1,1 v 9.999998 c 0,0.554004 -0.446,1.000003 -1,1.000003 H 16.000001 C 15.446,34.000001 15,33.554002 15,32.999998 V 23 c 0,-0.554 0.446,-1 1.000001,-1 z" />
  <path
     id="rect45946"
     style="fill:#797774;stroke-width:0.516132;stroke-linecap:round;stroke-linejoin:round"
     d="m 25,19 h 10.000001 c 0.554,0 0.999998,0.446 0.999998,1 v 7 c 0,0.554 -0.445998,1 -0.999998,1 H 25 c -0.554,0 -1,-0.446 -1,-1 v -7 c 0,-0.554 0.446,-1 1,-1 z"
     sodipodi:nodetypes="sssssssss" />
  <rect
     style="fill:#fafafa;fill-opacity:1;stroke-width:2.83539;stroke-linecap:round;stroke-linejoin:round"
     id="rect962"
     width="10"
     height="7"
     x="25.000002"
     y="19.999998" />
  <rect
     style="fill:#0078d4;fill-opacity:1;stroke-width:0.410423;stroke-linecap:round;stroke-linejoin:round"
     id="rect54151"
     width="2.0000002"
     height="2.0000024"
     x="32.000011"
     y="23.999998" />
  <rect
     style="fill:#f18c0a;fill-opacity:1;stroke-width:0.410423;stroke-linecap:round;stroke-linejoin:round"
     id="rect54153"
     height="2.0000002"
     x="31.999996"
     y="21"
     width="2.0000002" />
  <rect
     style="fill:#18b5a3;fill-opacity:1;stroke-width:0.410423;stroke-linecap:round;stroke-linejoin:round"
     id="rect61747"
     width="2.0000002"
     height="2.0000002"
     x="28.999989"
     y="21" />
  <rect
     style="fill:#56b60e;fill-opacity:1;stroke-width:0.410423;stroke-linecap:round;stroke-linejoin:round"
     id="rect61851"
     width="2.0000002"
     height="1.9999988"
     x="28.999996"
     y="23.999998" />
  <rect
     style="fill:#9a70d4;fill-opacity:1;stroke-width:0.410423;stroke-linecap:round;stroke-linejoin:round"
     id="rect61853"
     width="2.0000002"
     height="2.0000002"
     x="26"
     y="21" />
  <rect
     style="fill:#e25113;fill-opacity:1;stroke-width:0.410423;stroke-linecap:round;stroke-linejoin:round"
     id="rect61855"
     width="2.0000002"
     height="1.9999988"
     x="26"
     y="23.999998" />
</svg>
