<?xml version="1.0" encoding="UTF-8" standalone="no"?>
<!-- Created with Inkscape (http://www.inkscape.org/) -->

<svg
   width="48"
   height="48"
   viewBox="0 0 48 48"
   version="1.1"
   id="svg5"
   inkscape:version="1.2.1 (9c6d41e410, 2022-07-14, custom)"
   sodipodi:docname="application-x-javascript.svg"
   xmlns:inkscape="http://www.inkscape.org/namespaces/inkscape"
   xmlns:sodipodi="http://sodipodi.sourceforge.net/DTD/sodipodi-0.dtd"
   xmlns:xlink="http://www.w3.org/1999/xlink"
   xmlns="http://www.w3.org/2000/svg"
   xmlns:svg="http://www.w3.org/2000/svg">
  <sodipodi:namedview
     id="namedview7"
     pagecolor="#ffffff"
     bordercolor="#000000"
     borderopacity="0.25"
     inkscape:showpageshadow="2"
     inkscape:pageopacity="0.0"
     inkscape:pagecheckerboard="0"
     inkscape:deskcolor="#d1d1d1"
     inkscape:document-units="px"
     showgrid="false"
     inkscape:zoom="16.708333"
     inkscape:cx="23.341646"
     inkscape:cy="24"
     inkscape:window-width="1920"
     inkscape:window-height="1011"
     inkscape:window-x="0"
     inkscape:window-y="0"
     inkscape:window-maximized="1"
     inkscape:current-layer="svg5" />
  <defs
     id="defs2">
    <linearGradient
       inkscape:collect="always"
       id="linearGradient1246">
      <stop
         style="stop-color:#fe9000;stop-opacity:1;"
         offset="0"
         id="stop1242" />
      <stop
         style="stop-color:#f36401;stop-opacity:1;"
         offset="1"
         id="stop1244" />
    </linearGradient>
    <linearGradient
       inkscape:collect="always"
       xlink:href="#linearGradient1246"
       id="linearGradient6278"
       x1="35"
       y1="18"
       x2="35"
       y2="40"
       gradientUnits="userSpaceOnUse" />
  </defs>
  <path
     id="rect846"
     style="fill:#7d7d7b;stroke-width:2;stroke-linecap:round;stroke-linejoin:round"
     d="m 8,2 h 22.5 l 9.499999,9.5 V 46.000003 H 8 Z"
     sodipodi:nodetypes="cccccc" />
  <path
     id="rect1454"
     style="fill:#fafafa;stroke-width:2;stroke-linecap:round;stroke-linejoin:round"
     d="M 9.0000003,3.0000003 V 45.000004 H 39 V 13 h -9 c -0.554003,0 -1,-0.446 -1,-1 V 3.0000003 Z M 30,3.0000003 V 12 h 9 z"
     sodipodi:nodetypes="ccccsscccccc" />
  <path
     id="path701"
     style="fill:url(#linearGradient6278);fill-opacity:1;stroke-width:0.999996;stroke-linecap:round;stroke-linejoin:round"
     d="M 20 18 C 17.790872 18 16 19.000016 16 23 L 16 26 C 16 27.104565 15.104565 28 14 28 C 13.447721 28 13 28.447719 13 29 C 13 29.552283 13.447721 30 14 30 C 15.104565 30 16 30.895439 16 32 L 16 35 C 16 38.999984 17.790872 40 20 40 C 20.553995 40 21 39.553997 21 39 C 21 38.446003 20.553995 38 20 38 C 18.895437 38 18 38.079987 18 35 L 18 32 C 17.999692 30.851813 17.505982 29.759105 16.644531 29 C 17.505982 28.240893 17.999692 27.148189 18 26 L 18 23 C 18 19.920013 18.895437 20 20 20 C 20.553995 20 21 19.553995 21 19 C 21 18.446007 20.553995 18 20 18 z M 28 18 C 27.446005 18 27 18.446007 27 19 C 27 19.553995 27.446005 20 28 20 C 29.104563 20 30 19.920013 30 23 L 30 26 C 30.00031 27.148189 30.494024 28.240893 31.355469 29 C 30.494024 29.759105 30.000309 30.851813 30 32 L 30 35 C 30 38.079991 29.104562 38 28 38 C 27.446005 38 27 38.446003 27 39 C 27 39.553997 27.446005 40 28 40 C 30.209127 40 32 38.999984 32 35 L 32 32 C 32 30.895441 32.895437 30 34 30 C 34.552281 30 35 29.552283 35 29 C 35 28.447719 34.552281 28 34 28 C 32.895437 28 32 27.104565 32 26 L 32 23 C 32 19.000016 30.209128 18 28 18 z M 24 23 C 22.895433 23 22 23.895433 22 25 C 22 26.104565 22.895433 27 24 27 C 25.104567 27 26 26.104565 26 25 C 26 23.895433 25.104567 23 24 23 z M 24 31 C 22.895435 31 22 31.895435 22 33 C 22 34.104565 22.895435 35 24 35 C 24.198695 34.999324 24.396172 34.969016 24.585938 34.910156 C 24.494798 35.449307 24.287312 36.078748 24 37 C 24.823959 36.527157 26 34.999991 26 33 C 26 31.895434 25.104565 31 24 31 z " />
</svg>
