<?xml version="1.0" encoding="UTF-8" standalone="no"?>
<!-- Created with Inkscape (http://www.inkscape.org/) -->

<svg
   width="48"
   height="48"
   viewBox="0 0 48 48"
   version="1.1"
   id="svg5"
   inkscape:version="1.2.1 (9c6d41e410, 2022-07-14, custom)"
   sodipodi:docname="application-x-sharedlib.svg"
   xmlns:inkscape="http://www.inkscape.org/namespaces/inkscape"
   xmlns:sodipodi="http://sodipodi.sourceforge.net/DTD/sodipodi-0.dtd"
   xmlns:xlink="http://www.w3.org/1999/xlink"
   xmlns="http://www.w3.org/2000/svg"
   xmlns:svg="http://www.w3.org/2000/svg">
  <sodipodi:namedview
     id="namedview7"
     pagecolor="#ffffff"
     bordercolor="#000000"
     borderopacity="0.25"
     inkscape:showpageshadow="2"
     inkscape:pageopacity="0.0"
     inkscape:pagecheckerboard="0"
     inkscape:deskcolor="#d1d1d1"
     inkscape:document-units="px"
     showgrid="false"
     inkscape:zoom="16.833333"
     inkscape:cx="24"
     inkscape:cy="24"
     inkscape:window-width="1920"
     inkscape:window-height="1010"
     inkscape:window-x="0"
     inkscape:window-y="0"
     inkscape:window-maximized="1"
     inkscape:current-layer="svg5" />
  <defs
     id="defs2">
    <linearGradient
       inkscape:collect="always"
       xlink:href="#linearGradient1738"
       id="linearGradient7562"
       x1="5.1154499"
       y1="4.9610038"
       x2="5.1425061"
       y2="7.2102246"
       gradientUnits="userSpaceOnUse"
       gradientTransform="matrix(5.2323367,0,0,5.2323367,1.1578043,2.042523)" />
    <linearGradient
       inkscape:collect="always"
       id="linearGradient1738">
      <stop
         style="stop-color:#696f75;stop-opacity:1;"
         offset="0"
         id="stop1734" />
      <stop
         style="stop-color:#4d4e50;stop-opacity:1"
         offset="1"
         id="stop1736" />
    </linearGradient>
    <linearGradient
       inkscape:collect="always"
       xlink:href="#linearGradient1798"
       id="linearGradient7728"
       x1="3.2308109"
       y1="2.3813164"
       x2="3.1946909"
       y2="5.3985844"
       gradientUnits="userSpaceOnUse"
       gradientTransform="matrix(4.5361972,0,0,4.5361972,4.3724779,4.1987641)" />
    <linearGradient
       inkscape:collect="always"
       id="linearGradient1798">
      <stop
         style="stop-color:#aeb7bc;stop-opacity:1;"
         offset="0"
         id="stop1794" />
      <stop
         style="stop-color:#959ea5;stop-opacity:1"
         offset="1"
         id="stop1796" />
    </linearGradient>
  </defs>
  <path
     id="rect846"
     style="fill:#7d7d7b;stroke-width:2;stroke-linecap:round;stroke-linejoin:round"
     d="m 8,2 h 22.5 l 9.499999,9.5 V 46.000003 H 8 Z"
     sodipodi:nodetypes="cccccc" />
  <path
     id="rect1454"
     style="fill:#fafafa;stroke-width:2;stroke-linecap:round;stroke-linejoin:round"
     d="M 9.0000003,3.0000003 V 45.000004 H 39 V 13 h -9 c -0.554003,0 -1,-0.446 -1,-1 V 3.0000003 Z M 30,3.0000003 V 12 h 9 z"
     sodipodi:nodetypes="ccccsscccccc" />
  <path
     id="path6320"
     style="color:#000000;fill:url(#linearGradient7562);fill-opacity:1;stroke:none;stroke-width:3.48776;stroke-linecap:round;stroke-linejoin:round"
     d="m 27.92534,28.000151 c -0.42567,-0.0014 -0.800286,0.285948 -0.902332,0.699211 l -0.292965,1.640605 -1.56248,-0.558588 c -0.406477,-0.117559 -0.84168,0.05624 -1.054675,0.421872 l -0.921865,1.597636 c -0.214123,0.3679 -0.154538,0.833883 0.152338,1.128892 l 1.265615,1.070298 -1.265611,1.078112 c -0.30503,0.293248 -0.370277,0.75772 -0.160158,1.124986 l 0.925771,1.597637 c 0.213021,0.365614 0.64429,0.539423 1.050767,0.421869 l 1.570294,-0.558585 0.300776,1.632792 c 0.101419,0.410797 0.471395,0.701462 0.894521,0.703114 h 1.839822 c 0.42313,-0.0017 0.793078,-0.292321 0.894518,-0.703114 l 0.300779,-1.632792 1.566386,0.558585 c 0.406479,0.117519 0.841678,-0.05624 1.054675,-0.421869 l 0.921863,-1.597637 c 0.210117,-0.367266 0.144878,-0.831738 -0.160158,-1.124986 l -1.265603,-1.078113 1.265611,-1.070298 c 0.306872,-0.295009 0.370377,-0.760991 0.156258,-1.128892 L 33.577612,30.20325 c -0.213007,-0.365614 -0.648194,-0.539422 -1.054673,-0.421871 l -1.56248,0.558587 -0.300779,-1.640604 c -0.101438,-0.410795 -0.471388,-0.697559 -0.894518,-0.699211 z m 0.917957,3.99995 c 1.104554,0 1.999975,0.895426 1.999975,1.999975 0,1.104554 -0.895421,1.999976 -1.999975,1.999976 -1.104552,0 -1.999975,-0.895421 -1.999975,-1.999976 0,-1.10455 0.895425,-1.999975 1.999975,-1.999975 z" />
  <path
     id="path7172"
     style="color:#000000;fill:url(#linearGradient7728);fill-opacity:1;stroke-width:3.77861;stroke-linecap:round;stroke-linejoin:round"
     d="m 19.027344,15.000292 c -0.471666,0.02054 -0.869794,0.373471 -0.945313,0.84375 l -0.347656,2.109375 -2.003906,-0.75 c -0.456778,-0.174238 -0.971921,0.0076 -1.21875,0.429687 l -1,1.734376 c -0.246565,0.425374 -0.147055,0.963206 0.234375,1.273437 l 1.648437,1.359375 -1.65625,1.367188 c -0.375125,0.309789 -0.471845,0.84322 -0.230469,1.265624 l 1,1.734376 c 0.243401,0.424454 0.756385,0.608448 1.214844,0.4375 l 2.007813,-0.753907 0.351562,2.117188 c 0.08118,0.482511 0.502897,0.833469 0.992188,0.832031 h 2 c 0.486503,-0.0022 0.899746,-0.352269 0.980469,-0.832031 l 0.355468,-2.117188 2.007813,0.753907 c 0.458459,0.170937 0.975345,-0.01301 1.21875,-0.4375 l 1,-1.734376 C 26.878094,24.2107 26.777473,23.677269 26.402344,23.36748 L 24.75,22.000292 26.398438,20.640917 c 0.381438,-0.310231 0.480937,-0.848063 0.234374,-1.273437 l -1,-1.734376 C 25.38598,17.211109 24.87084,17.029187 24.414062,17.203417 l -2.007812,0.75 -0.351562,-2.109375 c -0.07752,-0.482696 -0.491598,-0.840985 -0.980469,-0.84375 h -2 c -0.0154,-2.6e-5 -0.03163,-6.43e-4 -0.04687,0 z m 1.042968,4.5 c 1.380708,0 2.5,1.119295 2.5,2.5 0,1.380705 -1.119292,2.5 -2.5,2.5 -1.380706,0 -2.5,-1.119292 -2.5,-2.5 0,-1.380705 1.119297,-2.5 2.5,-2.5 z" />
</svg>
