<?xml version="1.0" encoding="UTF-8" standalone="no"?>
<!-- Created with Inkscape (http://www.inkscape.org/) -->

<svg
   width="48"
   height="48"
   viewBox="0 0 48 48"
   version="1.1"
   id="svg5"
   inkscape:version="1.2.1 (9c6d41e410, 2022-07-14, custom)"
   sodipodi:docname="inode-symlink.svg"
   xmlns:inkscape="http://www.inkscape.org/namespaces/inkscape"
   xmlns:sodipodi="http://sodipodi.sourceforge.net/DTD/sodipodi-0.dtd"
   xmlns:xlink="http://www.w3.org/1999/xlink"
   xmlns="http://www.w3.org/2000/svg"
   xmlns:svg="http://www.w3.org/2000/svg">
  <sodipodi:namedview
     id="namedview7"
     pagecolor="#ffffff"
     bordercolor="#000000"
     borderopacity="0.25"
     inkscape:showpageshadow="2"
     inkscape:pageopacity="0.0"
     inkscape:pagecheckerboard="0"
     inkscape:deskcolor="#d1d1d1"
     inkscape:document-units="px"
     showgrid="false"
     inkscape:zoom="16.708333"
     inkscape:cx="24"
     inkscape:cy="24"
     inkscape:window-width="1920"
     inkscape:window-height="1011"
     inkscape:window-x="0"
     inkscape:window-y="0"
     inkscape:window-maximized="1"
     inkscape:current-layer="svg5" />
  <defs
     id="defs2">
    <linearGradient
       inkscape:collect="always"
       xlink:href="#linearGradient2733"
       id="linearGradient2735"
       x1="10.711242"
       y1="6.0000019"
       x2="16.000002"
       y2="11.249648"
       gradientUnits="userSpaceOnUse"
       gradientTransform="matrix(2.0000084,0,0,2.0000084,1.9992866,7.0186057)" />
    <linearGradient
       inkscape:collect="always"
       id="linearGradient2733">
      <stop
         style="stop-color:#1b9de2;stop-opacity:1;"
         offset="0"
         id="stop2729" />
      <stop
         style="stop-color:#0178d4;stop-opacity:1"
         offset="1"
         id="stop2731" />
    </linearGradient>
  </defs>
  <path
     id="rect846"
     style="fill:#7d7d7b;stroke-width:2;stroke-linecap:round;stroke-linejoin:round"
     d="m 8,2 h 22.5 l 9.499999,9.5 V 46.000003 H 8 Z"
     sodipodi:nodetypes="cccccc" />
  <path
     id="rect1454"
     style="fill:#fafafa;stroke-width:2;stroke-linecap:round;stroke-linejoin:round"
     d="M 9.0000003,3.0000003 V 45.000004 H 39 V 13 h -9 c -0.554003,0 -1,-0.446 -1,-1 V 3.0000003 Z M 30,3.0000003 V 12 h 9 z"
     sodipodi:nodetypes="ccccsscccccc" />
  <path
     id="rect1721"
     style="fill:url(#linearGradient2735);fill-opacity:1;stroke-width:2.44949;stroke-linejoin:round"
     d="m 23.42186,19.01866 c -0.780305,-0.156061 -1.421882,0.694975 -1.421882,1.500006 0,0.831004 0.669002,1.500007 1.500008,1.500007 h 5.382228 L 14.440713,36.456269 c -0.293817,0.293787 -0.440718,0.677161 -0.440714,1.060539 3e-6,0.383378 0.146912,0.766759 0.440714,1.060562 0.293803,0.293804 0.677169,0.4407 1.060539,0.440697 0.383371,-2e-6 0.766745,-0.146905 1.060564,-0.440697 L 30.999411,24.143682 v 5.374315 c 0,0.831001 0.669003,1.500006 1.500006,1.500006 0.831004,0 1.500007,-0.669003 1.500007,-1.500006 v -8.921204 c 0.0013,-0.02562 0,-0.05216 0,-0.07812 0,-0.805035 -0.627131,-1.45998 -1.421882,-1.500006 -0.02562,-0.0013 -0.05216,0 -0.07812,0 h -0.07812 -8.921307 c -0.026,0 -0.05294,0.005 -0.07812,-4e-6 z"
     sodipodi:nodetypes="sssccsssccssscssscsss" />
</svg>
