<?xml version="1.0" encoding="UTF-8" standalone="no"?>
<!-- Created with Inkscape (http://www.inkscape.org/) -->

<svg
   width="48"
   height="48"
   viewBox="0 0 48 48"
   version="1.1"
   id="svg5"
   inkscape:version="1.2.1 (9c6d41e410, 2022-07-14, custom)"
   sodipodi:docname="rpm.svg"
   xmlns:inkscape="http://www.inkscape.org/namespaces/inkscape"
   xmlns:sodipodi="http://sodipodi.sourceforge.net/DTD/sodipodi-0.dtd"
   xmlns:xlink="http://www.w3.org/1999/xlink"
   xmlns="http://www.w3.org/2000/svg"
   xmlns:svg="http://www.w3.org/2000/svg">
  <sodipodi:namedview
     id="namedview7"
     pagecolor="#ffffff"
     bordercolor="#000000"
     borderopacity="0.25"
     inkscape:showpageshadow="2"
     inkscape:pageopacity="0.0"
     inkscape:pagecheckerboard="0"
     inkscape:deskcolor="#d1d1d1"
     inkscape:document-units="px"
     showgrid="false"
     inkscape:zoom="17.229167"
     inkscape:cx="23.970979"
     inkscape:cy="24"
     inkscape:window-width="1920"
     inkscape:window-height="1029"
     inkscape:window-x="0"
     inkscape:window-y="0"
     inkscape:window-maximized="1"
     inkscape:current-layer="svg5" />
  <defs
     id="defs2">
    <linearGradient
       inkscape:collect="always"
       xlink:href="#linearGradient10535"
       id="linearGradient4444"
       x1="2.3812499"
       y1="3.4394624"
       x2="4.2333355"
       y2="3.7040448"
       gradientUnits="userSpaceOnUse"
       gradientTransform="scale(3.7795276)" />
    <linearGradient
       inkscape:collect="always"
       xlink:href="#linearGradient10535"
       id="linearGradient4070"
       x1="10.054167"
       y1="3.4394622"
       x2="8.9958334"
       y2="7.8050861"
       gradientUnits="userSpaceOnUse"
       gradientTransform="scale(3.7795276)" />
    <linearGradient
       inkscape:collect="always"
       xlink:href="#linearGradient70845"
       id="linearGradient5628"
       x1="8.2020817"
       y1="4.7623792"
       x2="10.054167"
       y2="11.112378"
       gradientUnits="userSpaceOnUse"
       gradientTransform="scale(3.7795276)" />
    <linearGradient
       inkscape:collect="always"
       id="linearGradient56461">
      <stop
         style="stop-color:#ff6843;stop-opacity:1"
         offset="0"
         id="stop56457-9" />
      <stop
         style="stop-color:#d3322b;stop-opacity:1"
         offset="1"
         id="stop56459-1" />
    </linearGradient>
    <linearGradient
       inkscape:collect="always"
       xlink:href="#linearGradient56461"
       id="linearGradient1697"
       x1="9"
       y1="12.999543"
       x2="30.999994"
       y2="46.999538"
       gradientUnits="userSpaceOnUse" />
    <linearGradient
       inkscape:collect="always"
       id="linearGradient10541">
      <stop
         style="stop-color:#f1764d;stop-opacity:1"
         offset="0"
         id="stop10537" />
      <stop
         style="stop-color:#f56652;stop-opacity:1"
         offset="1"
         id="stop10539" />
    </linearGradient>
    <linearGradient
       inkscape:collect="always"
       xlink:href="#linearGradient10541"
       id="linearGradient5490"
       x1="19.000008"
       y1="2.9999995"
       x2="38.000004"
       y2="12.999543"
       gradientUnits="userSpaceOnUse" />
    <linearGradient
       inkscape:collect="always"
       xlink:href="#linearGradient10541"
       id="linearGradient5498"
       x1="44.000004"
       y1="11.999542"
       x2="30.999994"
       y2="17.999542"
       gradientUnits="userSpaceOnUse" />
    <linearGradient
       inkscape:collect="always"
       xlink:href="#linearGradient10541"
       id="linearGradient5506"
       x1="11.000008"
       y1="4.9995427"
       x2="9"
       y2="12.999543"
       gradientUnits="userSpaceOnUse" />
    <linearGradient
       inkscape:collect="always"
       id="linearGradient10535">
      <stop
         style="stop-color:#a2362a;stop-opacity:1"
         offset="0"
         id="stop10531" />
      <stop
         style="stop-color:#7a2826;stop-opacity:1"
         offset="1"
         id="stop10533" />
    </linearGradient>
    <linearGradient
       inkscape:collect="always"
       id="linearGradient70845">
      <stop
         style="stop-color:#cd4e41;stop-opacity:1"
         offset="0"
         id="stop70841-7" />
      <stop
         style="stop-color:#a72d0e;stop-opacity:1"
         offset="1"
         id="stop70843-0" />
    </linearGradient>
  </defs>
  <path
     id="rect1310"
     style="fill:url(#linearGradient5490);fill-opacity:1;stroke-width:0.999999;stroke-linejoin:round"
     d="m 19.000008,2.9999995 21.999994,4.9999996 -3,4.9995439 -13.999993,1 -8.000001,-6.0000035 z"
     sodipodi:nodetypes="cccccc" />
  <path
     id="rect1727"
     style="fill:url(#linearGradient5506);fill-opacity:1;stroke-width:0.999999;stroke-linejoin:round"
     d="m 4,9.9995427 7.000008,-4.9999998 5,2.9999996 -3.000007,4.9999995 -4.0000009,10e-7 z"
     sodipodi:nodetypes="cccccc" />
  <path
     d="m 9.0000012,12.999542 7.0000058,-5.0000002 6.000001,28.9999932 -6.000001,4e-6 -7.0000058,5 z"
     style="fill:url(#linearGradient4444);fill-opacity:1.0;stroke-width:0.264583;stroke-linejoin:round"
     id="path2897"
     sodipodi:nodetypes="cccccc" />
  <path
     d="M 16.000008,7.9995395 38.000002,12.999543 V 41.999539 L 30.999995,46.999537 16.000008,36.999535 Z"
     style="fill:url(#linearGradient4070);fill-opacity:1.0;stroke-width:0.264583;stroke-linejoin:round"
     id="path3818"
     sodipodi:nodetypes="cccccc" />
  <path
     id="rect2751"
     style="fill:url(#linearGradient5628);fill-opacity:1.0;stroke-width:0.999999;stroke-linejoin:round"
     d="m 30.999995,17.999543 7.000007,-5 v 28.999996 l -7.000007,5.000002 z"
     sodipodi:nodetypes="ccccc" />
  <path
     d="m 30.999995,17.999543 7.000007,-5 6,-1.000001 -7.000007,5.000001 z"
     style="fill:url(#linearGradient5498);fill-opacity:1;stroke-width:0.264583;stroke-linejoin:round"
     id="path1888"
     sodipodi:nodetypes="ccccc" />
  <path
     d="m 19.000011,2 21.999995,4.9999984 -4e-6,1.0000007 -21.999994,-4.9999996 z"
     style="fill:#e04232;fill-opacity:1;stroke-width:0.264583"
     id="path5763"
     sodipodi:nodetypes="ccccc" />
  <path
     id="rect969"
     style="fill:url(#linearGradient1697);fill-opacity:1;stroke-width:0.999999;stroke-linejoin:round"
     d="m 9.0000001,12.999543 21.9999949,5 V 46.999537 L 9.0000001,41.999536 Z"
     sodipodi:nodetypes="ccccc" />
  <path
     id="path7481"
     style="opacity:0.6;fill:#ffffff;fill-opacity:1;stroke-width:0.627647;stroke-linecap:round;stroke-linejoin:round"
     d="M 12.460938 31.376953 C 11.124008 31.390053 9.9340021 31.809027 9 32.595703 L 9 35.363281 C 10.15946 33.139732 12.67215 32.40156 15.4375 33.470703 C 19.357192 34.989583 22.533565 39.602445 22.533203 43.775391 C 22.532835 44.218123 22.492815 44.643813 22.419922 45.050781 L 23.888672 45.384766 C 23.929465 45.041426 23.952918 44.688262 23.953125 44.326172 C 23.953712 39.31858 20.141239 33.781682 15.4375 31.958984 C 14.421429 31.565306 13.412935 31.367787 12.460938 31.376953 z M 13.484375 34.591797 C 11.310477 34.596897 9.7597656 36.21621 9.7597656 38.824219 C 9.7597656 38.824219 10.748114 34.705958 15.4375 36.492188 C 15.853786 36.653502 16.256443 36.874702 16.636719 37.140625 L 17.740234 36.392578 C 17.036594 35.787208 16.257041 35.298041 15.4375 34.980469 C 14.751599 34.714682 14.093066 34.590385 13.484375 34.591797 z M 19.1875 37.548828 L 15.896484 39.775391 C 15.748438 39.663552 15.594138 39.574772 15.4375 39.513672 C 14.65323 39.209767 14.017037 39.641383 14.017578 40.476562 C 14.018119 41.310928 14.653995 42.233502 15.4375 42.537109 C 16.221227 42.840803 16.855243 42.410476 16.855469 41.576172 C 16.855179 41.480412 16.847318 41.381803 16.830078 41.28125 L 20.191406 39.005859 L 19.1875 37.548828 z M 20.701172 40.798828 L 19.574219 41.560547 C 19.652169 41.933777 19.695312 42.307255 19.695312 42.675781 L 21.115234 43.226562 C 21.115234 42.424408 20.967675 41.602485 20.701172 40.798828 z " />
</svg>
