<?xml version="1.0" encoding="UTF-8" standalone="no"?>
<!-- Created with Inkscape (http://www.inkscape.org/) -->

<svg
   width="48"
   height="48"
   viewBox="0 0 48 48"
   version="1.1"
   id="svg5"
   inkscape:version="1.3.2 (091e20ef0f, 2023-11-25, custom)"
   sodipodi:docname="text-x-ruby.svg"
   xmlns:inkscape="http://www.inkscape.org/namespaces/inkscape"
   xmlns:sodipodi="http://sodipodi.sourceforge.net/DTD/sodipodi-0.dtd"
   xmlns="http://www.w3.org/2000/svg"
   xmlns:svg="http://www.w3.org/2000/svg">
  <sodipodi:namedview
     id="namedview7"
     pagecolor="#ffffff"
     bordercolor="#000000"
     borderopacity="0.25"
     inkscape:showpageshadow="2"
     inkscape:pageopacity="0.0"
     inkscape:pagecheckerboard="0"
     inkscape:deskcolor="#d1d1d1"
     inkscape:document-units="px"
     showgrid="false"
     inkscape:zoom="16.833333"
     inkscape:cx="24"
     inkscape:cy="24"
     inkscape:window-width="1920"
     inkscape:window-height="1012"
     inkscape:window-x="0"
     inkscape:window-y="0"
     inkscape:window-maximized="1"
     inkscape:current-layer="svg5" />
  <defs
     id="defs2" />
  <path
     id="rect846"
     style="fill:#7d7d7b;stroke-width:2;stroke-linecap:round;stroke-linejoin:round"
     d="m 8,2 h 22.5 l 9.499999,9.5 V 46.000003 H 8 Z"
     sodipodi:nodetypes="cccccc" />
  <path
     id="rect1454"
     style="fill:#fafafa;stroke-width:2;stroke-linecap:round;stroke-linejoin:round"
     d="M 9.0000003,3.0000003 V 45.000004 H 39 V 13 h -9 c -0.554003,0 -1,-0.446 -1,-1 V 3.0000003 Z M 30,3.0000003 V 12 h 9 z"
     sodipodi:nodetypes="ccccsscccccc" />
  <path
     d="M 33.995972,24.454744 32.885885,38.885885 18.454744,39.995972 Z"
     style="fill:#bf2336;stroke-width:0.555044"
     id="path1" />
  <path
     d="m 26.225358,32.225358 6.660527,6.660527 1.110087,-14.431141 z"
     style="fill:#b31523;stroke-width:0.555044"
     id="path2" />
  <path
     d="m 19.453823,25.453823 c -4.939891,4.884386 -6.882545,10.87886 -4.329343,13.432062 2.553202,2.553202 8.547676,0.610548 13.432062,-4.273838 4.884387,-4.884387 6.882545,-10.934365 4.329343,-13.487567 -2.553202,-2.553202 -8.547676,-0.610548 -13.432062,4.329343 z"
     style="fill:#cf1928;stroke-width:0.555044"
     id="path3" />
  <path
     d="m 16.234568,26.119875 3.885307,-3.885307 4.440351,-2.220176 3.330264,2.220176 -1.665132,4.995395 -4.995395,4.440351 -4.995395,1.665132 -2.220176,-3.330264 z"
     style="fill:#d9414f;stroke-width:0.555044"
     id="path4" />
  <path
     d="m 27.89049,22.234568 -3.330264,-2.220176 h 6.105483 z m 6.105482,2.775219 -6.105482,-2.775219 -1.665132,4.995395 z m -12.766009,6.660527 7.326579,2.886228 -2.331184,-7.326579 z m -4.995395,1.665132 2.220176,6.660526 2.775219,-8.325658 z m -2.220176,-3.330264 v 6.105483 l 2.220176,-2.775219 z"
     style="fill:#eb6773;stroke-width:0.555044"
     id="path5" />
</svg>
