<?xml version="1.0" encoding="UTF-8" standalone="no"?>
<!-- Created with Inkscape (http://www.inkscape.org/) -->

<svg
   width="48"
   height="48"
   viewBox="0 0 48 48"
   version="1.1"
   id="svg5"
   inkscape:version="1.2.1 (9c6d41e410, 2022-07-14, custom)"
   sodipodi:docname="text-x-java.svg"
   xmlns:inkscape="http://www.inkscape.org/namespaces/inkscape"
   xmlns:sodipodi="http://sodipodi.sourceforge.net/DTD/sodipodi-0.dtd"
   xmlns:xlink="http://www.w3.org/1999/xlink"
   xmlns="http://www.w3.org/2000/svg"
   xmlns:svg="http://www.w3.org/2000/svg">
  <sodipodi:namedview
     id="namedview7"
     pagecolor="#ffffff"
     bordercolor="#000000"
     borderopacity="0.25"
     inkscape:showpageshadow="2"
     inkscape:pageopacity="0.0"
     inkscape:pagecheckerboard="0"
     inkscape:deskcolor="#d1d1d1"
     inkscape:document-units="px"
     showgrid="false"
     inkscape:zoom="16.708333"
     inkscape:cx="24"
     inkscape:cy="24"
     inkscape:window-width="1920"
     inkscape:window-height="1011"
     inkscape:window-x="0"
     inkscape:window-y="0"
     inkscape:window-maximized="1"
     inkscape:current-layer="svg5" />
  <defs
     id="defs2">
    <linearGradient
       inkscape:collect="always"
       xlink:href="#linearGradient1221"
       id="linearGradient1223"
       x1="16.156954"
       y1="19.655781"
       x2="22.000704"
       y2="26.999916"
       gradientUnits="userSpaceOnUse"
       gradientTransform="matrix(1.4999121,0,0,1.4999121,8.7901726e-4,9.4267e-4)" />
    <linearGradient
       inkscape:collect="always"
       id="linearGradient1221">
      <stop
         style="stop-color:#4d86da;stop-opacity:0.99996549;"
         offset="0"
         id="stop1217" />
      <stop
         style="stop-color:#1655c3;stop-opacity:0.99996549;"
         offset="1"
         id="stop1219" />
    </linearGradient>
    <linearGradient
       inkscape:collect="always"
       xlink:href="#linearGradient1229"
       id="linearGradient1231"
       x1="19.629608"
       y1="20.226093"
       x2="17.762423"
       y2="10.73"
       gradientUnits="userSpaceOnUse"
       gradientTransform="matrix(1.4999121,0,0,1.4999121,8.7901726e-4,9.4267e-4)" />
    <linearGradient
       inkscape:collect="always"
       id="linearGradient1229">
      <stop
         style="stop-color:#fa7800;stop-opacity:1;"
         offset="0"
         id="stop1225" />
      <stop
         style="stop-color:#faa500;stop-opacity:1;"
         offset="1"
         id="stop1227" />
    </linearGradient>
  </defs>
  <path
     id="rect846"
     style="fill:#7d7d7b;stroke-width:2;stroke-linecap:round;stroke-linejoin:round"
     d="m 8,2 h 22.5 l 9.499999,9.5 V 46.000003 H 8 Z"
     sodipodi:nodetypes="cccccc" />
  <path
     id="rect1454"
     style="fill:#fafafa;stroke-width:2;stroke-linecap:round;stroke-linejoin:round"
     d="M 9.0000003,3.0000003 V 45.000004 H 39 V 13 h -9 c -0.554003,0 -1,-0.446 -1,-1 V 3.0000003 Z M 30,3.0000003 V 12 h 9 z"
     sodipodi:nodetypes="ccccsscccccc" />
  <path
     d="m 21.167685,29.351058 c -0.05145,-0.0012 -0.125362,3.81e-4 -0.222642,0.003 -0.583724,0.01533 -1.950075,0.140152 -3.538855,0.90815 -2.504872,1.211655 6.194598,1.764599 10.698591,0.580045 0.468257,-0.319737 1.116146,-0.597621 1.116146,-0.597622 0,0 -1.841006,0.328534 -3.676543,0.48337 -2.245977,0.188188 -4.658272,0.226385 -5.867819,0.06445 -2.864666,-0.382553 1.570219,-1.438394 1.570219,-1.438394 0,0 -0.02766,-0.0018 -0.07909,-0.003 z m 9.813879,0.240222 c -0.293475,7.9e-4 -0.60601,0.05457 -0.925728,0.166982 -0.256788,0.09116 -0.392554,0.298811 -0.392554,0.298809 0,0 0.162221,-0.06523 0.524383,-0.140617 1.477585,-0.308026 3.594198,1.979946 -0.984318,4.35912 -0.02118,0.05664 -0.09374,0.120188 -0.09374,0.120113 5.350483,-1.406555 4.299972,-4.691106 1.995,-4.801477 -0.04116,-0.002 -0.08111,-0.003 -0.123038,-0.003 z m -10.768901,2.929515 c -4.13361,1.371949 2.300646,2.928172 8.076675,1.239184 -0.613951,-0.216469 -1.004824,-0.612268 -1.004824,-0.612268 -2.822896,0.543571 -4.45242,0.526572 -6.518172,0.313459 -1.597431,-0.165231 -0.553679,-0.940375 -0.553679,-0.940375 z m 0.585903,2.460794 c -3.752308,1.048464 2.282844,3.216342 7.060134,1.168875 -0.78247,-0.304278 -1.341719,-0.65621 -1.341719,-0.656211 -2.131066,0.403336 -3.122537,0.431536 -5.056343,0.210926 -1.596244,-0.183514 -0.662072,-0.72359 -0.662072,-0.72359 z m -2.425639,1.921762 c -1.612555,-0.06214 -5.275435,1.549931 -2.150265,2.056519 9.740332,1.579604 17.757064,-0.711821 15.230553,-1.851454 0,0 0.691413,0.567847 -0.758744,1.007753 -2.757516,0.835352 -11.478296,1.089472 -13.900553,0.03516 -0.87074,-0.378801 0.760698,-0.906238 1.27434,-1.016543 0.535678,-0.116168 0.8437,-0.09374 0.8437,-0.09374 -0.121043,-0.08527 -0.308667,-0.128828 -0.539031,-0.137692 z M 33,38.186478 c 0,0 -0.307769,0.788901 -3.6326,1.414957 -3.751057,0.705903 -8.376475,0.622316 -11.120443,0.169911 6.8e-5,-6.6e-5 0.562563,0.465129 3.450971,0.650353 C 26.092732,40.703023 32.840165,40.265977 33,38.186478 Z"
     style="fill:url(#linearGradient1223);fill-opacity:1;stroke-width:1.49991"
     id="path370" />
  <path
     d="m 26.642951,16.095 c 1.023076,4.029091 -3.607826,5.247946 -5.278987,7.757358 -1.138579,1.70951 0.558318,3.543991 2.870924,5.630529 -0.901808,-2.038261 -3.961855,-3.822922 0,-6.951742 C 29.175501,18.630711 26.642951,16.095 26.642951,16.095 Z m 2.800616,4.983105 c 0,0 -8.352265,2.087436 -4.362049,6.685157 1.177124,1.355242 -0.310528,2.575043 -0.310528,2.575043 0,0 2.989766,-1.542244 1.617093,-3.474406 -1.282034,-1.801861 -2.266888,-2.699004 3.055484,-5.785794 z"
     style="fill:url(#linearGradient1231);fill-opacity:1;stroke-width:1.49991"
     id="path454" />
</svg>
