<?xml version="1.0" encoding="UTF-8" standalone="no"?>
<!-- Created with Inkscape (http://www.inkscape.org/) -->

<svg
   width="48"
   height="48"
   viewBox="0 0 48 48"
   version="1.1"
   id="svg5"
   inkscape:version="1.2.1 (9c6d41e410, 2022-07-14, custom)"
   sodipodi:docname="text-richtext.svg"
   xmlns:inkscape="http://www.inkscape.org/namespaces/inkscape"
   xmlns:sodipodi="http://sodipodi.sourceforge.net/DTD/sodipodi-0.dtd"
   xmlns="http://www.w3.org/2000/svg"
   xmlns:svg="http://www.w3.org/2000/svg">
  <sodipodi:namedview
     id="namedview7"
     pagecolor="#ffffff"
     bordercolor="#000000"
     borderopacity="0.25"
     inkscape:showpageshadow="2"
     inkscape:pageopacity="0.0"
     inkscape:pagecheckerboard="0"
     inkscape:deskcolor="#d1d1d1"
     inkscape:document-units="px"
     showgrid="false"
     inkscape:zoom="17.229167"
     inkscape:cx="21.823458"
     inkscape:cy="24.02902"
     inkscape:window-width="1920"
     inkscape:window-height="1010"
     inkscape:window-x="0"
     inkscape:window-y="0"
     inkscape:window-maximized="1"
     inkscape:current-layer="svg5" />
  <defs
     id="defs2" />
  <path
     id="rect846"
     style="fill:#7d7d7b;stroke-width:2;stroke-linecap:round;stroke-linejoin:round"
     d="m 8,2 h 22.5 l 9.499999,9.5 V 46.000003 H 8 Z"
     sodipodi:nodetypes="cccccc" />
  <path
     id="rect1454"
     style="fill:#fafafa;stroke-width:2;stroke-linecap:round;stroke-linejoin:round"
     d="M 9.0000003,3.0000003 V 45.000004 H 39 V 13 h -9 c -0.554003,0 -1,-0.446 -1,-1 V 3.0000003 Z M 30,3.0000003 V 12 h 9 z"
     sodipodi:nodetypes="ccccsscccccc" />
  <path
     id="rect1748"
     style="fill:#999999;fill-opacity:1;stroke-width:2.89827;stroke-linecap:round;stroke-linejoin:round"
     d="M 17 18 L 13 28 L 14 28 L 15.25 25 L 19.724609 25 L 21 28 L 22 28 L 18 18 L 17 18 z M 24 18 L 24 19 L 35 19 L 35 18 L 24 18 z M 17.5 19.333984 L 19.349609 24 L 15.625 24 L 17.5 19.333984 z M 24 21 L 24 22 L 35 22 L 35 21 L 24 21 z M 24 24 L 24 25 L 35 25 L 35 24 L 24 24 z M 24 27 L 24 28 L 35 28 L 35 27 L 24 27 z M 13 30 L 13 31 L 35 31 L 35 30 L 13 30 z M 13 33 L 13 34 L 35 34 L 35 33 L 13 33 z M 13 36 L 13 37 L 35 37 L 35 36 L 13 36 z M 13 39 L 13 40 L 25 40 L 25 39 L 13 39 z " />
</svg>
