<?xml version="1.0" encoding="UTF-8" standalone="no"?>
<!-- Created with Inkscape (http://www.inkscape.org/) -->

<svg
   width="48"
   height="48"
   viewBox="0 0 48 48"
   version="1.1"
   id="svg5"
   inkscape:version="1.2.2 (1:1.2.2+202305151914+b0a8486541)"
   sodipodi:docname="text-x-python.svg"
   xmlns:inkscape="http://www.inkscape.org/namespaces/inkscape"
   xmlns:sodipodi="http://sodipodi.sourceforge.net/DTD/sodipodi-0.dtd"
   xmlns="http://www.w3.org/2000/svg"
   xmlns:svg="http://www.w3.org/2000/svg">
  <sodipodi:namedview
     id="namedview7"
     pagecolor="#ffffff"
     bordercolor="#000000"
     borderopacity="0.25"
     inkscape:showpageshadow="2"
     inkscape:pageopacity="0.0"
     inkscape:pagecheckerboard="0"
     inkscape:deskcolor="#d1d1d1"
     inkscape:document-units="px"
     showgrid="false"
     inkscape:zoom="17.291667"
     inkscape:cx="23.971084"
     inkscape:cy="24"
     inkscape:window-width="1920"
     inkscape:window-height="1008"
     inkscape:window-x="0"
     inkscape:window-y="0"
     inkscape:window-maximized="1"
     inkscape:current-layer="svg5" />
  <defs
     id="defs2" />
  <path
     id="rect846"
     style="fill:#7d7d7b;stroke-width:2;stroke-linecap:round;stroke-linejoin:round"
     d="m 8,2 h 22.5 l 9.499999,9.5 V 46.000003 H 8 Z"
     sodipodi:nodetypes="cccccc" />
  <path
     id="rect1454"
     style="fill:#fafafa;stroke-width:2;stroke-linecap:round;stroke-linejoin:round"
     d="M 9.0000003,3.0000003 V 45.000004 H 39 V 13 h -9 c -0.554003,0 -1,-0.446 -1,-1 V 3.0000003 Z M 30,3.0000003 V 12 h 9 z"
     sodipodi:nodetypes="ccccsscccccc" />
  <path
     d="m 28.999994,23.000004 v 2.5 c 0,0.207328 -0.03098,0.405264 -0.07812,0.597656 -0.19112,0.958964 -0.786454,1.418246 -1.359376,1.648438 -0.21101,0.09974 -0.433038,0.17732 -0.671876,0.214844 -0.12836,0.02016 -0.256432,0.03906 -0.390628,0.03906 h -5 c 0,0 -0.15626,0 -0.390624,0.03906 -0.18332,0.03056 -0.430346,0.1178 -0.671876,0.214844 -0.670784,0.31705 -1.178906,0.911844 -1.359374,1.64844 C 19.04078,30.089686 19,30.273462 19,30.500002 v 2.5 1.875 c 0,1.731 1.951,3.125 4.375,3.125 h 1.25 c 2.424,0 4.375,-1.394 4.375,-3.125 v -1.875 h 1.875 c 1.73,0 3.125,-1.954906 3.125,-4.378906 v -1.25 c 0,-2.422 -1.395,-4.371094 -3.125,-4.371094 z m -2.999994,11 c 0.552284,0 1,0.447716 1,1 0,0.552284 -0.447716,1 -1,1 -0.552284,0 -1,-0.447716 -1,-1 0,-0.552284 0.447716,-1 1,-1 z"
     style="fill:#ffde57;fill-opacity:1;stroke-width:2"
     id="path5508"
     sodipodi:nodetypes="csccsscsccscsssscsssscsssss" />
  <path
     d="M 23.376,18 C 20.952,18 19,19.394 19,21.124002 v 1.876 h -1.875 c -1.731,0 -3.125,1.952 -3.125,4.376 v 1.25 c 0,2.422 1.394,4.374 3.125,4.374 H 19 v -2.5 c 0,-1.385 1.115,-2.5 2.5,-2.5 h 5 c 0,0 2.5,0 2.5,-2.5 v -4.375 C 29,19.395 27.048,18.001 24.624,18.001 h -1.25 z M 22,20.000002 c 0.552284,0 1,0.447716 1,1 0,0.552284 -0.447716,1 -1,1 -0.552286,0 -1,-0.447716 -1,-1 0,-0.552284 0.447714,-1 1,-1 z"
     style="fill:#4584d6;fill-opacity:1;stroke-width:2"
     id="path5480"
     sodipodi:nodetypes="cscsssscsscsssccsssss" />
</svg>
