<?xml version="1.0" encoding="UTF-8" standalone="no"?>
<!-- Created with Inkscape (http://www.inkscape.org/) -->

<svg
   width="48"
   height="48"
   viewBox="0 0 48 48"
   version="1.1"
   id="svg5"
   inkscape:version="1.2.1 (9c6d41e410, 2022-07-14, custom)"
   sodipodi:docname="text-x-html.svg"
   xmlns:inkscape="http://www.inkscape.org/namespaces/inkscape"
   xmlns:sodipodi="http://sodipodi.sourceforge.net/DTD/sodipodi-0.dtd"
   xmlns:xlink="http://www.w3.org/1999/xlink"
   xmlns="http://www.w3.org/2000/svg"
   xmlns:svg="http://www.w3.org/2000/svg">
  <sodipodi:namedview
     id="namedview7"
     pagecolor="#ffffff"
     bordercolor="#000000"
     borderopacity="0.25"
     inkscape:showpageshadow="2"
     inkscape:pageopacity="0.0"
     inkscape:pagecheckerboard="0"
     inkscape:deskcolor="#d1d1d1"
     inkscape:document-units="px"
     showgrid="false"
     inkscape:zoom="16.875"
     inkscape:cx="23.97037"
     inkscape:cy="24"
     inkscape:window-width="1920"
     inkscape:window-height="1012"
     inkscape:window-x="0"
     inkscape:window-y="0"
     inkscape:window-maximized="1"
     inkscape:current-layer="svg5" />
  <defs
     id="defs2">
    <linearGradient
       inkscape:collect="always"
       xlink:href="#linearGradient984"
       id="linearGradient7450"
       x1="13.809379"
       y1="13.973848"
       x2="2.3889806"
       y2="3.7831419"
       gradientUnits="userSpaceOnUse"
       gradientTransform="matrix(0.78197122,0,0,0.78197122,17.371498,17.379313)" />
    <linearGradient
       inkscape:collect="always"
       id="linearGradient984">
      <stop
         style="stop-color:#117bb9;stop-opacity:1;"
         offset="0"
         id="stop980" />
      <stop
         style="stop-color:#15b393;stop-opacity:1"
         offset="1"
         id="stop982" />
    </linearGradient>
  </defs>
  <path
     id="rect846"
     style="fill:#7d7d7b;stroke-width:2;stroke-linecap:round;stroke-linejoin:round"
     d="m 8,2 h 22.5 l 9.499999,9.5 V 46.000003 H 8 Z"
     sodipodi:nodetypes="cccccc" />
  <path
     id="rect1454"
     style="fill:#fafafa;stroke-width:2;stroke-linecap:round;stroke-linejoin:round"
     d="M 9.0000003,3.0000003 V 45.000004 H 39 V 13 h -9 c -0.554003,0 -1,-0.446 -1,-1 V 3.0000003 Z M 30,3.0000003 V 12 h 9 z"
     sodipodi:nodetypes="ccccsscccccc" />
  <circle
     style="fill:url(#linearGradient7450);fill-opacity:1;stroke-width:0.881002;stroke-linecap:round;stroke-linejoin:round"
     id="path7362"
     cx="23.992188"
     cy="24.000002"
     r="6" />
  <path
     id="path1250"
     style="opacity:0.3;fill:#ffffff;stroke-width:2;stroke-linecap:round"
     d="M 24 18 A 2 6 0 0 1 25.732422 21 L 22.267578 21 A 2 6 0 0 1 24 18 z M 24 18 A 6 6 0 0 0 22.310547 18.242188 A 3 7 0 0 0 21.296875 21 L 18.820312 21 A 6 6 0 0 0 18.359375 22 L 21.128906 22 A 3 7 0 0 0 21 24 A 3 7 0 0 0 21.128906 26 L 18.359375 26 A 6 6 0 0 0 18.820312 27 L 21.296875 27 A 3 7 0 0 0 22.310547 29.757812 A 6 6 0 0 0 24 30 A 2 6 0 0 1 22.267578 27 L 25.732422 27 A 2 6 0 0 1 24 30 A 6 6 0 0 0 25.689453 29.757812 A 3 7 0 0 0 26.703125 27 L 29.179688 27 A 6 6 0 0 0 29.640625 26 L 26.871094 26 A 3 7 0 0 0 27 24 A 3 7 0 0 0 26.875 22 L 29.65625 22 A 6 6 0 0 0 29.193359 21 L 26.710938 21 A 3 7 0 0 0 25.697266 18.246094 A 6 6 0 0 0 24 18 z M 22.119141 22 L 25.884766 22 A 2 6 0 0 1 26 24 A 2 6 0 0 1 25.880859 26 L 22.119141 26 A 2 6 0 0 1 22 24 A 2 6 0 0 1 22.119141 22 z " />
  <path
     id="rect5109"
     style="fill:#c3c3c3;fill-opacity:1;stroke-width:2;stroke-linecap:round"
     d="m 12,34 v 1 h 24 v -1 z m 0,3 v 1 h 24 v -1 z m 0,3.000001 v 1 h 24 v -1 z"
     sodipodi:nodetypes="ccccccccccccccc" />
  <path
     id="rect7181"
     style="fill:#c3c3c3;stroke-width:2;stroke-linecap:round"
     d="m 16.656,19.549265 c -0.127809,0 -0.255582,0.0505 -0.353516,0.148438 L 12,24.000001 l 4.302484,4.302515 c 0.195867,0.195868 0.511164,0.195868 0.707032,0 0.195868,-0.195867 0.195868,-0.511162 0,-0.707031 l -3.595454,-3.595484 3.595454,-3.595267 c 0.195868,-0.195868 0.195868,-0.511163 0,-0.707031 -0.09793,-0.09793 -0.225707,-0.148438 -0.353516,-0.148438 z m 14.688,0.002 c -0.127809,0 -0.255582,0.04855 -0.353516,0.146485 -0.195868,0.195868 -0.195868,0.511162 0,0.707031 l 3.595454,3.59522 -3.595454,3.595484 c -0.195868,0.195869 -0.195868,0.511164 0,0.707031 0.195868,0.195868 0.511165,0.195868 0.707032,0 L 36,24.000001 31.697516,19.697703 C 31.599584,19.599776 31.471809,19.551218 31.344,19.551218 Z"
     sodipodi:nodetypes="sccsscccsscscccsscscc" />
</svg>
