<?xml version="1.0" encoding="UTF-8" standalone="no"?>
<!-- Created with Inkscape (http://www.inkscape.org/) -->

<svg
   width="48"
   height="48"
   viewBox="0 0 48 48"
   version="1.1"
   id="svg5"
   inkscape:version="1.2.1 (9c6d41e410, 2022-07-14, custom)"
   sodipodi:docname="text-x-script.svg"
   xmlns:inkscape="http://www.inkscape.org/namespaces/inkscape"
   xmlns:sodipodi="http://sodipodi.sourceforge.net/DTD/sodipodi-0.dtd"
   xmlns="http://www.w3.org/2000/svg"
   xmlns:svg="http://www.w3.org/2000/svg">
  <sodipodi:namedview
     id="namedview7"
     pagecolor="#ffffff"
     bordercolor="#000000"
     borderopacity="0.25"
     inkscape:showpageshadow="2"
     inkscape:pageopacity="0.0"
     inkscape:pagecheckerboard="0"
     inkscape:deskcolor="#d1d1d1"
     inkscape:document-units="px"
     showgrid="false"
     inkscape:zoom="16.708333"
     inkscape:cx="24"
     inkscape:cy="24"
     inkscape:window-width="1920"
     inkscape:window-height="1011"
     inkscape:window-x="0"
     inkscape:window-y="0"
     inkscape:window-maximized="1"
     inkscape:current-layer="svg5" />
  <defs
     id="defs2" />
  <path
     id="rect846"
     style="fill:#7d7d7b;stroke-width:2;stroke-linecap:round;stroke-linejoin:round"
     d="m 8,2 h 22.5 l 9.499999,9.5 V 46.000003 H 8 Z"
     sodipodi:nodetypes="cccccc" />
  <path
     id="rect1454"
     style="fill:#fafafa;stroke-width:2;stroke-linecap:round;stroke-linejoin:round"
     d="M 9.0000003,3.0000003 V 45.000004 H 39 V 13 h -9 c -0.554003,0 -1,-0.446 -1,-1 V 3.0000003 Z M 30,3.0000003 V 12 h 9 z"
     sodipodi:nodetypes="ccccsscccccc" />
  <path
     id="rect1748"
     style="fill:#999999;fill-opacity:1;stroke-width:2.89827;stroke-linecap:round;stroke-linejoin:round"
     d="m 21,34.000001 v 1 h 13.999998 v -1 z m -8,2.999997 v 1.000004 h 17 v -1.000004 z m 0,3.000003 v 1.000002 h 12 v -1.000002 z"
     sodipodi:nodetypes="ccccccccccccccc" />
  <path
     id="rect845"
     style="fill:#4aa8e5;fill-opacity:1;stroke-width:3;stroke-linecap:round;stroke-linejoin:round"
     d="m 13,19 v 1.000001 H 32.999999 V 19 Z m 0,3.000001 v 1 h 14 v -1 z"
     sodipodi:nodetypes="cccccccccc" />
  <path
     id="rect2215"
     style="fill:#b19af4;fill-opacity:1;stroke-width:2.12132;stroke-linecap:round;stroke-linejoin:round"
     d="m 13,25 v 1.000001 h 6 V 25 Z m 0,3 v 1.000001 h 6 V 28 Z"
     sodipodi:nodetypes="cccccccccc" />
  <path
     id="rect2530"
     style="fill:#e89090;fill-opacity:1;stroke-width:3;stroke-linecap:round;stroke-linejoin:round"
     d="m 13,30.999999 v 1.000002 h 6 V 30.999999 Z M 13,34 v 1.000001 h 6 V 34 Z"
     sodipodi:nodetypes="cccccccccc" />
  <path
     id="rect2675"
     style="fill:#cb86ee;fill-opacity:1;stroke-width:3;stroke-linecap:round;stroke-linejoin:round"
     d="m 21,25 v 1.000001 H 33 V 25 Z m 0,3 v 1.000001 H 35.000001 V 28 Z"
     sodipodi:nodetypes="cccccccccc" />
  <path
     id="rect3319"
     style="fill:#a9ee86;fill-opacity:1;stroke-width:3;stroke-linecap:round;stroke-linejoin:round"
     d="m 21,30.999999 v 1.000002 l 9,2e-6 v -1.000002 z"
     sodipodi:nodetypes="ccccc" />
</svg>
