<?xml version="1.0" encoding="UTF-8" standalone="no"?>
<!-- Created with Inkscape (http://www.inkscape.org/) -->

<svg
   width="48"
   height="48"
   viewBox="0 0 48 48"
   version="1.1"
   id="svg5"
   inkscape:version="1.2.1 (9c6d41e410, 2022-07-14, custom)"
   sodipodi:docname="text-rust.svg"
   xmlns:inkscape="http://www.inkscape.org/namespaces/inkscape"
   xmlns:sodipodi="http://sodipodi.sourceforge.net/DTD/sodipodi-0.dtd"
   xmlns:xlink="http://www.w3.org/1999/xlink"
   xmlns="http://www.w3.org/2000/svg"
   xmlns:svg="http://www.w3.org/2000/svg">
  <sodipodi:namedview
     id="namedview7"
     pagecolor="#ffffff"
     bordercolor="#000000"
     borderopacity="0.25"
     inkscape:showpageshadow="2"
     inkscape:pageopacity="0.0"
     inkscape:pagecheckerboard="0"
     inkscape:deskcolor="#d1d1d1"
     inkscape:document-units="px"
     showgrid="false"
     inkscape:zoom="16.833333"
     inkscape:cx="24"
     inkscape:cy="24"
     inkscape:window-width="1920"
     inkscape:window-height="1010"
     inkscape:window-x="0"
     inkscape:window-y="0"
     inkscape:window-maximized="1"
     inkscape:current-layer="svg5" />
  <defs
     id="defs2">
    <linearGradient
       inkscape:collect="always"
       xlink:href="#linearGradient1291"
       id="linearGradient1372"
       gradientUnits="userSpaceOnUse"
       gradientTransform="matrix(3.0236049,0,0,3.0236049,-1.5999301,1.2000951)"
       x1="4.4979196"
       y1="5.8207517"
       x2="12.435461"
       y2="13.229085" />
    <linearGradient
       inkscape:collect="always"
       id="linearGradient1291">
      <stop
         style="stop-color:#333333;stop-opacity:1;"
         offset="0"
         id="stop1287" />
      <stop
         style="stop-color:#683f2b;stop-opacity:1"
         offset="1"
         id="stop1289" />
    </linearGradient>
  </defs>
  <path
     id="rect846"
     style="fill:#7d7d7b;stroke-width:2;stroke-linecap:round;stroke-linejoin:round"
     d="m 8,2 h 22.5 l 9.499999,9.5 V 46.000003 H 8 Z"
     sodipodi:nodetypes="cccccc" />
  <path
     id="rect1454"
     style="fill:#fafafa;stroke-width:2;stroke-linecap:round;stroke-linejoin:round"
     d="M 9.0000003,3.0000003 V 45.000004 H 39 V 13 h -9 c -0.554003,0 -1,-0.446 -1,-1 V 3.0000003 Z M 30,3.0000003 V 12 h 9 z"
     sodipodi:nodetypes="ccccsscccccc" />
  <path
     d="m 24.00002,18 c -0.115485,4.56e-4 -0.231138,0.05148 -0.293727,0.153129 l -0.624999,1.009366 -0.293725,0.02812 -0.807807,-0.867181 c -0.163899,-0.175346 -0.495666,-0.11022 -0.579684,0.11562 l -0.414085,1.107807 -0.285959,0.08593 -0.959369,-0.690621 c -0.19508,-0.14091 -0.508308,-0.01035 -0.54686,0.226561 l -0.190602,1.167181 -0.260956,0.140625 -1.078123,-0.490621 c -0.218949,-0.10008 -0.499805,0.08805 -0.490622,0.328122 l 0.04082,1.185931 -0.226545,0.1875 -1.154675,-0.273435 c -0.234539,-0.05466 -0.47384,0.184201 -0.418734,0.41875 l 0.271843,1.15468 -0.185953,0.226563 -1.185936,-0.04065 c -0.239187,-0.0069 -0.427747,0.271197 -0.328138,0.490622 l 0.49062,1.078117 -0.140595,0.2625 -1.167177,0.189066 c -0.237316,0.03855 -0.366576,0.351762 -0.226545,0.546876 l 0.690655,0.959384 -0.08595,0.285938 -1.107808,0.414061 c -0.224958,0.084 -0.291402,0.415316 -0.11565,0.579684 l 0.867186,0.807808 -0.02835,0.29375 -1.009371,0.624995 c -0.204265,0.12624 -0.204265,0.463278 0,0.589061 l 1.009371,0.624996 0.02835,0.293749 -0.867186,0.807808 c -0.175804,0.163883 -0.109305,0.495236 0.11565,0.579683 l 1.107808,0.414062 0.08595,0.285942 -0.69062,0.959369 c -0.14043,0.195533 -0.0108,0.507214 0.226543,0.545311 l 1.167183,0.190642 0.140595,0.262511 -0.49062,1.076557 c -0.100065,0.218943 0.08901,0.501828 0.328138,0.492184 l 1.18593,-0.04218 0.185953,0.228132 -0.2719,1.154682 c -0.05499,0.234118 0.184195,0.472245 0.418734,0.417186 l 1.154681,-0.271883 0.226545,0.185919 -0.04081,1.18593 c -0.009,0.240072 0.271673,0.428208 0.490622,0.328128 l 1.078117,-0.490622 0.260958,0.140625 0.1906,1.16718 c 0.03855,0.237777 0.35178,0.366559 0.54686,0.226557 l 0.959369,-0.692188 0.285959,0.08751 0.414085,1.107806 c 0.08402,0.224895 0.414255,0.291867 0.578125,0.11562 l 0.80937,-0.867181 0.293727,0.02965 0.623428,1.007806 c 0.125805,0.203307 0.464372,0.203789 0.590628,0 l 0.624993,-1.007806 0.293725,-0.02965 0.807813,0.867181 c 0.163899,0.17627 0.495666,0.10926 0.579678,-0.115635 l 0.414028,-1.107805 0.28596,-0.08751 0.959368,0.692185 c 0.195086,0.139995 0.506762,0.01095 0.545312,-0.226561 l 0.190642,-1.167181 0.262511,-0.140625 1.076557,0.49062 c 0.218943,0.10008 0.500922,-0.0876 0.492186,-0.328121 l -0.04218,-1.185934 0.228132,-0.185953 1.154681,0.271882 c 0.234573,0.05505 0.472275,-0.183049 0.417186,-0.417186 l -0.271882,-1.154681 0.185919,-0.228132 1.185931,0.04218 c 0.239136,0.0097 0.428661,-0.273243 0.328126,-0.492186 l -0.49062,-1.076557 0.140625,-0.262512 1.167178,-0.190641 c 0.237776,-0.0381 0.367496,-0.349739 0.226557,-0.545305 l -0.690622,-0.959373 0.08593,-0.285942 1.107807,-0.414057 c 0.225376,-0.08445 0.2919,-0.415803 0.11562,-0.579685 l -0.867182,-0.807809 0.02965,-0.293747 1.007807,-0.624996 c 0.204276,-0.12579 0.204304,-0.462824 0,-0.589061 l -1.007796,-0.624992 -0.02962,-0.29375 0.867183,-0.807808 c 0.176275,-0.164364 0.109755,-0.495682 -0.11562,-0.579681 l -1.107807,-0.414061 -0.08593,-0.285938 0.690622,-0.959368 c 0.14094,-0.195115 0.01245,-0.507838 -0.224986,-0.546871 l -1.168746,-0.18906 -0.140625,-0.2625 0.49062,-1.078119 c 0.10053,-0.219429 -0.08666,-0.499815 -0.328126,-0.49062 l -1.184368,0.04065 -0.187494,-0.226561 0.271881,-1.15468 c 0.05511,-0.234545 -0.182624,-0.47384 -0.417186,-0.418746 l -1.15468,0.273436 -0.228134,-0.187501 0.04218,-1.18593 c 0.009,-0.240078 -0.271638,-0.427753 -0.49062,-0.328122 l -1.078117,0.490622 -0.26251,-0.140625 -0.190641,-1.16718 c -0.03855,-0.236818 -0.350255,-0.367041 -0.545307,-0.226533 l -0.959362,0.690597 -0.285959,-0.08593 -0.414028,-1.107807 c -0.08402,-0.225835 -0.415786,-0.290964 -0.579685,-0.11562 l -0.807812,0.867183 -0.293725,-0.02812 -0.624994,-1.009369 C 24.232506,18.051468 24.117144,18.00046 24.00166,18.000006 Z m -0.03741,2.114051 c 0.356767,0 0.71424,0.238343 0.714058,0.714059 -4.02e-4,0.950761 -1.426195,0.950761 -1.426558,0 -1.98e-4,-0.475716 0.355747,-0.714059 0.7125,-0.714059 z m 1.656214,1.174993 c 2.5358,0.47499 4.734669,2.041467 6.012467,4.282789 l -0.842182,1.899989 c -0.14529,0.328916 0.0033,0.713629 0.331251,0.859369 l 1.620303,0.718748 c 0.0504,0.506702 0.05528,1.017197 0.01723,1.524991 h -0.899985 c -0.09019,0 -0.12657,0.06006 -0.12657,0.14844 v 0.412498 c 0,0.974073 -0.549967,1.186707 -1.031244,1.240618 -0.458412,0.05165 -0.965494,-0.191395 -1.028173,-0.471873 -0.270379,-1.520785 -0.721339,-1.84667 -1.432809,-2.407801 0.882944,-0.56071 1.801554,-1.388123 1.801554,-2.495298 0,-1.195557 -0.819496,-1.947894 -1.378116,-2.317174 -0.783794,-0.516625 -1.651802,-0.56562 -1.885927,-0.56562 h -9.318696 c 1.288261,-1.439567 3.014242,-2.469352 4.912473,-2.82811 l 1.09843,1.153119 c 0.248315,0.260034 0.660485,0.270357 0.920307,0.02188 z m -10.165563,5.282783 c 0.356769,0 0.712675,0.238314 0.712494,0.71406 -3.98e-4,0.950729 -1.426189,0.950729 -1.426552,0 -1.98e-4,-0.475716 0.357278,-0.71406 0.714058,-0.71406 z m 17.018654,0.03435 c 0.356763,0 0.714238,0.236749 0.714057,0.712497 -3.99e-4,0.950731 -1.426192,0.950731 -1.426555,0 -2e-4,-0.475745 0.355731,-0.712497 0.712498,-0.712497 z m -15.521791,0.281248 h 1.049992 l -0.0032,5.559345 h -2.443662 c -0.309941,-1.088707 -0.406545,-2.341826 -0.284372,-3.467144 l 1.535925,-0.682809 c 0.328195,-0.14574 0.477013,-0.530486 0.331255,-0.85937 z m 4.742155,0 h 3.245294 c 0.153072,0 1.081248,0.06241 1.081248,0.756246 0,0.576037 -0.711609,0.859369 -1.296867,0.859369 h -3.029682 z m 0,3.692165 h 2.589052 c 0.207213,0 1.10727,0.290739 1.395303,1.442182 0.0902,0.354132 0.289588,1.506163 0.424971,1.874989 0.134925,0.41358 0.683239,1.29843 1.268746,1.29843 h 3.706227 c -0.248541,0.332679 -0.519477,0.588654 -0.812497,0.882826 L 28.754715,35.75302 c -0.351382,-0.07529 -0.696583,0.147915 -0.771871,0.499997 l -0.357789,1.671867 c -2.329975,1.055409 -5.0052,1.041817 -7.32496,-0.03594 L 19.942306,36.21864 c -0.07529,-0.35159 -0.420718,-0.5755 -0.771868,-0.499996 l -1.47499,0.317186 c -0.274053,-0.282252 -0.528661,-0.524189 -0.762496,-0.840618 h 7.067149 V 32.42648 h -2.307804 z m -3.014043,6.045301 c 0.356769,0 0.71424,0.236778 0.714058,0.712494 -3.96e-4,0.950731 -1.427725,0.950731 -1.428116,0 -1.98e-4,-0.475744 0.357278,-0.712494 0.714058,-0.712494 z m 10.568692,0.03282 c 0.356763,0 0.71424,0.238349 0.714058,0.714059 -3.99e-4,0.950761 -1.426192,0.950761 -1.426555,0 -1.99e-4,-0.475745 0.355737,-0.714059 0.712497,-0.714059 z"
     style="fill:url(#linearGradient1372);fill-opacity:1;stroke-width:0.799993"
     id="path1348" />
</svg>
