<?xml version="1.0" encoding="UTF-8" standalone="no"?>
<!-- Created with Inkscape (http://www.inkscape.org/) -->

<svg
   width="48"
   height="48"
   viewBox="0 0 48 48"
   version="1.1"
   id="svg5"
   inkscape:version="1.2.1 (9c6d41e410, 2022-07-14, custom)"
   sodipodi:docname="video-x-generic.svg"
   xmlns:inkscape="http://www.inkscape.org/namespaces/inkscape"
   xmlns:sodipodi="http://sodipodi.sourceforge.net/DTD/sodipodi-0.dtd"
   xmlns:xlink="http://www.w3.org/1999/xlink"
   xmlns="http://www.w3.org/2000/svg"
   xmlns:svg="http://www.w3.org/2000/svg">
  <sodipodi:namedview
     id="namedview7"
     pagecolor="#ffffff"
     bordercolor="#000000"
     borderopacity="0.25"
     inkscape:showpageshadow="2"
     inkscape:pageopacity="0.0"
     inkscape:pagecheckerboard="0"
     inkscape:deskcolor="#d1d1d1"
     inkscape:document-units="px"
     showgrid="false"
     inkscape:zoom="17.083333"
     inkscape:cx="22.360976"
     inkscape:cy="24"
     inkscape:window-width="1920"
     inkscape:window-height="1029"
     inkscape:window-x="0"
     inkscape:window-y="0"
     inkscape:window-maximized="1"
     inkscape:current-layer="svg5" />
  <defs
     id="defs2">
    <linearGradient
       inkscape:collect="always"
       xlink:href="#linearGradient27684"
       id="linearGradient27686"
       x1="86.812088"
       y1="124.12689"
       x2="105.60258"
       y2="138.36687"
       gradientUnits="userSpaceOnUse"
       gradientTransform="matrix(1.7029888,0,0,2.9494416,-137.84003,-363.10501)" />
    <linearGradient
       inkscape:collect="always"
       id="linearGradient27684">
      <stop
         style="stop-color:#4a4a4a;stop-opacity:1;"
         offset="0"
         id="stop27680" />
      <stop
         style="stop-color:#232323;stop-opacity:0.74901962"
         offset="1"
         id="stop27682" />
    </linearGradient>
    <linearGradient
       inkscape:collect="always"
       xlink:href="#linearGradient12418"
       id="linearGradient2216"
       x1="42"
       y1="4.9999995"
       x2="71.34687"
       y2="54.121693"
       gradientUnits="userSpaceOnUse"
       gradientTransform="matrix(0.75000001,0,0,0.75000001,-18.500002,1.2499996)" />
    <linearGradient
       inkscape:collect="always"
       id="linearGradient12418">
      <stop
         style="stop-color:#52e4ff;stop-opacity:1;"
         offset="0"
         id="stop12414" />
      <stop
         style="stop-color:#d29eff;stop-opacity:1"
         offset="1"
         id="stop12416" />
    </linearGradient>
  </defs>
  <path
     id="rect862"
     style="fill:url(#linearGradient27686);stroke-width:1.6527;stroke-linecap:round;stroke-linejoin:round"
     d="M 7.9999975,3 H 39.999992 c 1.108006,0 2.000005,0.8920003 2.000005,2.0000006 V 42.999999 c 0,1.107999 -0.891999,1.999998 -2.000005,1.999998 H 7.9999975 C 6.8919987,44.999997 6,44.107998 6,42.999999 V 5.0000006 C 6,3.8920003 6.8919987,3 7.9999975,3 Z"
     sodipodi:nodetypes="sssssssss" />
  <path
     id="rect2063"
     style="fill:url(#linearGradient2216);fill-opacity:1;stroke-width:2.25001;stroke-linecap:round;stroke-linejoin:round"
     d="m 14.5,6.0000001 c -0.830999,0 -1.5,0.6690002 -1.5,1.5000004 V 21.500002 c 0,0.831001 0.669001,1.5 1.5,1.5 h 19.000001 c 0.831,0 1.500001,-0.668999 1.500001,-1.5 V 7.5000005 c 0,-0.8310002 -0.669001,-1.5000004 -1.500001,-1.5000004 z m 0,19.0000009 C 13.669001,25.000001 13,25.669 13,26.5 v 14.000004 c 0,0.830997 0.669001,1.499997 1.5,1.499997 h 19.000001 c 0.831,0 1.500001,-0.669 1.500001,-1.499997 V 26.5 c 0,-0.831 -0.669001,-1.499999 -1.500001,-1.499999 z"
     sodipodi:nodetypes="ssssssssssssssssss" />
  <path
     id="rect2450"
     style="fill:#ffffff;stroke-width:2;stroke-linecap:round;stroke-linejoin:round"
     d="m 9,5.0000002 c -0.5539997,0 -0.9999999,0.4459997 -0.9999999,0.9999999 v 2.9999998 c 0,0.554 0.4460002,1 0.9999999,1 h 1 c 0.554,0 1,-0.446 1,-1 V 6.0000001 C 11,5.4459999 10.554,5.0000002 10,5.0000002 Z m 28.999998,0 c -0.553998,0 -0.999997,0.4459997 -0.999997,0.9999999 v 2.9999998 c 0,0.554 0.445999,1 0.999997,1 h 0.999999 c 0.553999,0 1.000002,-0.446 1.000002,-1 V 6.0000001 c 0,-0.5540002 -0.446003,-0.9999999 -1.000002,-0.9999999 z M 9,13 c -0.5539997,0 -0.9999999,0.446 -0.9999999,1 v 3 c 0,0.554 0.4460002,1 0.9999999,1 h 1 c 0.554,0 1,-0.446 1,-1 v -3 c 0,-0.554 -0.446,-1 -1,-1 z m 28.999998,0 c -0.553998,0 -0.999997,0.446 -0.999997,1 v 3 c 0,0.554 0.445999,1 0.999997,1 h 0.999999 c 0.553999,0 1.000002,-0.446 1.000002,-1 v -3 c 0,-0.554 -0.446003,-1 -1.000002,-1 z M 9,21 c -0.5539997,0 -0.9999999,0.446 -0.9999999,1 v 3 c 0,0.554 0.4460002,1 0.9999999,1 h 1 c 0.554,0 1,-0.446 1,-1 v -3 c 0,-0.554 -0.446,-1 -1,-1 z m 28.999998,0 c -0.553998,0 -0.999997,0.446 -0.999997,1 v 3 c 0,0.554 0.445999,1 0.999997,1 h 0.999999 c 0.553999,0 1.000002,-0.446 1.000002,-1 v -3 c 0,-0.554 -0.446003,-1 -1.000002,-1 z M 9,29 c -0.5539997,0 -0.9999999,0.446 -0.9999999,1 v 3 c 0,0.554 0.4460002,1 0.9999999,1 h 1 c 0.554,0 1,-0.446 1,-1 v -3 c 0,-0.554 -0.446,-1 -1,-1 z m 28.999998,0 c -0.553998,0 -0.999997,0.446 -0.999997,1 v 3 c 0,0.554 0.445999,1 0.999997,1 h 0.999999 c 0.553999,0 1.000002,-0.446 1.000002,-1 v -3 c 0,-0.554 -0.446003,-1 -1.000002,-1 z M 9,37 c -0.5539997,0 -0.9999999,0.446 -0.9999999,1.000002 v 3 c 0,0.553999 0.4460002,0.999999 0.9999999,0.999999 h 1 c 0.554,0 1,-0.446 1,-0.999999 v -3 C 11,37.446 10.554,37 10,37 Z m 28.999998,0 c -0.553998,0 -0.999997,0.446 -0.999997,1.000002 v 3 c 0,0.553999 0.445999,0.999999 0.999997,0.999999 h 0.999999 c 0.553999,0 1.000002,-0.446 1.000002,-0.999999 v -3 C 39.999999,37.446 39.553996,37 38.999997,37 Z"
     sodipodi:nodetypes="ssssssssssssssssssssssssssssssssssssssssssssssssssssssssssssssssssssssssssssssssssssssssss" />
</svg>
