<?xml version="1.0" encoding="UTF-8" standalone="no"?>
<!-- Created with Inkscape (http://www.inkscape.org/) -->

<svg
   width="48"
   height="48"
   viewBox="0 0 48 48"
   version="1.1"
   id="svg5"
   inkscape:version="1.2.1 (9c6d41e410, 2022-07-14, custom)"
   sodipodi:docname="x-office-presentation.svg"
   xmlns:inkscape="http://www.inkscape.org/namespaces/inkscape"
   xmlns:sodipodi="http://sodipodi.sourceforge.net/DTD/sodipodi-0.dtd"
   xmlns="http://www.w3.org/2000/svg"
   xmlns:svg="http://www.w3.org/2000/svg">
  <sodipodi:namedview
     id="namedview7"
     pagecolor="#ffffff"
     bordercolor="#000000"
     borderopacity="0.25"
     inkscape:showpageshadow="2"
     inkscape:pageopacity="0.0"
     inkscape:pagecheckerboard="0"
     inkscape:deskcolor="#d1d1d1"
     inkscape:document-units="px"
     showgrid="false"
     inkscape:zoom="17.083333"
     inkscape:cx="22.419513"
     inkscape:cy="24.029269"
     inkscape:window-width="1920"
     inkscape:window-height="1029"
     inkscape:window-x="0"
     inkscape:window-y="0"
     inkscape:window-maximized="1"
     inkscape:current-layer="svg5" />
  <defs
     id="defs2" />
  <path
     id="rect846"
     style="fill:#7d7d7b;stroke-width:2;stroke-linecap:round;stroke-linejoin:round"
     d="m 8,2 h 22.5 l 9.499999,9.5 V 46.000003 H 8 Z"
     sodipodi:nodetypes="cccccc" />
  <path
     id="rect1454"
     style="fill:#fafafa;stroke-width:2;stroke-linecap:round;stroke-linejoin:round"
     d="M 9.0000003,3.0000003 V 45.000004 H 39 V 13 h -9 c -0.554003,0 -1,-0.446 -1,-1 V 3.0000003 Z M 30,3.0000003 V 12 h 9 z"
     sodipodi:nodetypes="ccccsscccccc" />
  <path
     id="path844"
     style="fill:#c0c5cb;fill-opacity:1;stroke-width:2;stroke-linejoin:round"
     d="m 24,15.999999 a 6.9999999,6.9999999 0 0 0 -7,7 6.9999999,6.9999999 0 0 0 7,7 6.9999999,6.9999999 0 0 0 7,-7 h -7 z m -11,17 v 1 h 22 v -1 z m 0,3 v 1 h 22 v -1 z m 0,3 v 1 h 22 v -1 z" />
  <path
     id="path1336"
     style="fill:#e8ab72;fill-opacity:1;stroke-width:2;stroke-linejoin:round"
     d="m 25,15 v 7 h 7 a 6.9999999,6.9999999 0 0 0 -7,-7 z" />
</svg>
