<?xml version="1.0" encoding="UTF-8" standalone="no"?>
<!-- Created with Inkscape (http://www.inkscape.org/) -->

<svg
   width="48"
   height="48"
   viewBox="0 0 48 48"
   version="1.1"
   id="svg5"
   inkscape:version="1.2.1 (9c6d41e410, 2022-07-14, custom)"
   sodipodi:docname="x-office-document-template.svg"
   xmlns:inkscape="http://www.inkscape.org/namespaces/inkscape"
   xmlns:sodipodi="http://sodipodi.sourceforge.net/DTD/sodipodi-0.dtd"
   xmlns="http://www.w3.org/2000/svg"
   xmlns:svg="http://www.w3.org/2000/svg">
  <sodipodi:namedview
     id="namedview7"
     pagecolor="#ffffff"
     bordercolor="#000000"
     borderopacity="0.25"
     inkscape:showpageshadow="2"
     inkscape:pageopacity="0.0"
     inkscape:pagecheckerboard="0"
     inkscape:deskcolor="#d1d1d1"
     inkscape:document-units="px"
     showgrid="false"
     inkscape:zoom="17.229167"
     inkscape:cx="23.970979"
     inkscape:cy="24"
     inkscape:window-width="1920"
     inkscape:window-height="1029"
     inkscape:window-x="0"
     inkscape:window-y="0"
     inkscape:window-maximized="1"
     inkscape:current-layer="svg5" />
  <defs
     id="defs2" />
  <path
     id="rect1054"
     style="fill:#7d7d7b;stroke-width:3;stroke-linecap:round;stroke-linejoin:round"
     d="m 8,2 29,4e-7 5,1.9999995 8e-6,42.0000061 H 12 V 42 H 8 Z"
     sodipodi:nodetypes="cccccccc" />
  <rect
     style="fill:#fafafa;fill-opacity:1;stroke-width:2.02685;stroke-linejoin:round"
     id="rect1365"
     width="28"
     height="38"
     x="8.999999"
     y="3" />
  <path
     id="rect888"
     style="fill:#2784bd;fill-opacity:1;stroke-width:2.09762;stroke-linejoin:round"
     d="m 16,16 -4,10 h 1 l 1.25,-3 h 4.474609 L 20,26 h 1 L 17,16 Z M 16.5,17.333984 18.349609,22 H 14.625 Z M 12,28 v 1 h 22 v -1 z" />
  <path
     id="rect3607"
     style="fill:#c0c5cb;fill-opacity:1;stroke-width:1.52753;stroke-linejoin:round"
     d="m 12,31 v 1 h 10 v -1 z m 13,0 c -0.554,0 -1,0.446 -1,1 v 5 c 0,0.554 0.446,1 1,1 h 8 c 0.554,0 1,-0.446 1,-1 v -5 c 0,-0.554 -0.446,-1 -1,-1 z m -13,3 v 1 h 10 v -1 z m 0,3 v 1 h 10 v -1 z" />
  <rect
     style="fill:#88c0f0;fill-opacity:1;stroke-width:2;stroke-linejoin:round"
     id="rect4089"
     width="7.9999995"
     height="5"
     x="25"
     y="32" />
  <path
     id="rect4301"
     style="fill:#88c0f0;fill-opacity:1;stroke-width:2;stroke-linejoin:round"
     d="M 23,21.000001 V 22 h 11 v -0.999999 z m 0,3 v 1 h 11 v -1 z" />
  <path
     id="rect6964"
     style="fill:#69b0ec;fill-opacity:1;stroke:none;stroke-width:2.78796;stroke-linecap:round;stroke-linejoin:round"
     d="m 8,2 29,4e-7 V 11.000001 H 8 Z"
     sodipodi:nodetypes="ccccc" />
  <path
     id="rect2071"
     style="fill:#fafafa;stroke-width:2;stroke-linejoin:round"
     d="M 13,42 H 38.000001 V 3.9999999 h 2.999997 V 45 H 13 Z"
     sodipodi:nodetypes="ccccccc" />
  <path
     id="rect13579"
     style="fill:#2784bd;fill-opacity:1;stroke-width:2.82019;stroke-linecap:round;stroke-linejoin:round"
     d="m 37,2.0000004 v 2.0000003 l 5,1.9999994 V 3.9999999 Z M 8,9.9999995 V 11.000001 H 37 V 9.9999995 Z"
     sodipodi:nodetypes="cccccccccc" />
</svg>
