<?xml version="1.0" encoding="UTF-8" standalone="no"?>
<svg
   width="24"
   height="24"
   enable-background="new"
   version="1.1"
   id="svg1"
   sodipodi:docname="edit-cut-symbolic.svg"
   inkscape:version="1.4.2 (ebf0e940d0, 2025-05-08)"
   xmlns:inkscape="http://www.inkscape.org/namespaces/inkscape"
   xmlns:sodipodi="http://sodipodi.sourceforge.net/DTD/sodipodi-0.dtd"
   xmlns="http://www.w3.org/2000/svg"
   xmlns:svg="http://www.w3.org/2000/svg">
  <defs
     id="defs1">
    <style
       id="current-color-scheme"
       type="text/css">
        .ColorScheme-Text { color:#363636; } .ColorScheme-Highlight { color:#4285f4; } .ColorScheme-NeutralText { color:#ff9800; } .ColorScheme-PositiveText { color:#4caf50; } .ColorScheme-NegativeText { color:#f44336; }
     </style>
  </defs>
  <sodipodi:namedview
     id="namedview1"
     pagecolor="#ffffff"
     bordercolor="#000000"
     borderopacity="0.25"
     inkscape:showpageshadow="2"
     inkscape:pageopacity="0.0"
     inkscape:pagecheckerboard="0"
     inkscape:deskcolor="#d1d1d1"
     inkscape:zoom="33.208333"
     inkscape:cx="12"
     inkscape:cy="12"
     inkscape:window-width="1920"
     inkscape:window-height="1012"
     inkscape:window-x="0"
     inkscape:window-y="0"
     inkscape:window-maximized="1"
     inkscape:current-layer="svg1" />
  <path
     id="path1"
     style="fill:currentColor;fill-opacity:1"
     class="ColorScheme-Text"
     d="M 7.5078125,4 C 7.4115235,3.99825 7.3153619,4.023682 7.2285156,4.080078 6.9969256,4.230478 6.9296881,4.5398943 7.0800781,4.7714843 L 11.404297,11.429688 9.4804688,14.390625 C 9.0435488,14.142125 8.53857,14 8,14 c -1.6568,0 -3,1.3431 -3,3 0,1.6569 1.3432,3 3,3 1.6568,0 3,-1.3431 3,-3 0,-0.7554 -0.279364,-1.445256 -0.740234,-1.972656 L 12,12.347656 13.740234,15.027344 C 13.279334,15.554744 13,16.2446 13,17 c 0,1.6569 1.3431,3 3,3 1.6569,0 3,-1.3431 3,-3 0,-1.6569 -1.3431,-3 -3,-3 -0.5386,0 -1.043569,0.142125 -1.480469,0.390625 L 7.9199219,4.2285156 C 7.8259281,4.0837719 7.6682945,4.0029215 7.5078125,4 Z m 8.9843755,0 c -0.160495,0.00292 -0.31811,0.081819 -0.41211,0.2265625 l -3.484375,5.3671875 0.597656,0.917969 3.726563,-5.7402346 c 0.1504,-0.23159 0.08316,-0.5410063 -0.148438,-0.6914063 C 16.684634,4.0236819 16.588484,3.9982471 16.492188,4 Z M 8,15 c 1.10457,0 2,0.8954 2,2 0,1.1046 -0.89543,2 -2,2 -1.10457,0 -2,-0.8954 -2,-2 0,-1.1046 0.89543,-2 2,-2 z m 8,0 c 1.1046,0 2,0.8954 2,2 0,1.1046 -0.8954,2 -2,2 -1.1046,0 -2,-0.8954 -2,-2 0,-1.1046 0.8954,-2 2,-2 z" />
</svg>
