<?xml version="1.0" encoding="UTF-8" standalone="no"?>
<svg
   width="24"
   height="24"
   version="1.1"
   id="svg1"
   sodipodi:docname="help-about-symbolic.svg"
   inkscape:version="1.4.2 (ebf0e940d0, 2025-05-08)"
   xmlns:inkscape="http://www.inkscape.org/namespaces/inkscape"
   xmlns:sodipodi="http://sodipodi.sourceforge.net/DTD/sodipodi-0.dtd"
   xmlns="http://www.w3.org/2000/svg"
   xmlns:svg="http://www.w3.org/2000/svg">
  <defs
     id="defs1">
    <style
       id="current-color-scheme"
       type="text/css">
        .ColorScheme-Text { color:#363636; } .ColorScheme-Highlight { color:#4285f4; } .ColorScheme-NeutralText { color:#ff9800; } .ColorScheme-PositiveText { color:#4caf50; } .ColorScheme-NegativeText { color:#f44336; }
     </style>
  </defs>
  <sodipodi:namedview
     id="namedview1"
     pagecolor="#ffffff"
     bordercolor="#000000"
     borderopacity="0.25"
     inkscape:showpageshadow="2"
     inkscape:pageopacity="0.0"
     inkscape:pagecheckerboard="0"
     inkscape:deskcolor="#d1d1d1"
     inkscape:zoom="33.208333"
     inkscape:cx="12"
     inkscape:cy="12"
     inkscape:window-width="1920"
     inkscape:window-height="1012"
     inkscape:window-x="0"
     inkscape:window-y="0"
     inkscape:window-maximized="1"
     inkscape:current-layer="svg1" />
  <path
     id="path1"
     style="fill:currentColor;fill-opacity:1"
     class="ColorScheme-Text"
     d="m 12,5 c -0.55758,0 -0.826777,0.2985406 -0.998047,0.4941406 -0.17126,0.1956 -0.283081,0.3881932 -0.394531,0.5957032 -0.22291,0.41503 -0.419655,0.8943962 -0.6093751,1.3789062 -0.18972,0.48451 -0.3690013,0.9709869 -0.5195313,1.3417969 -0.075264,0.18541 -0.1437493,0.3415162 -0.1933594,0.4414062 -6.278e-4,0.00126 -0.00332,0.00486 -0.00391,0.00586 -0.00333,0.00479 -0.00585,0.00686 -0.00977,0.013672 -0.00682,0.00392 -0.01084,0.00839 -0.015625,0.011719 -9.946e-4,5.846e-4 -0.00264,0.00133 -0.00391,0.00195 C 9.1520691,9.3347632 8.9959569,9.4032556 8.8105469,9.4785156 8.4397369,9.6290456 7.95327,9.8083269 7.46875,9.9980469 6.98423,10.187767 6.5048737,10.384512 6.0898438,10.607422 5.8823238,10.718872 5.6897306,10.830693 5.4941406,11.001953 5.2985406,11.173213 5,11.44241 5,12 c 0,0.55759 0.2985406,0.826777 0.4941406,0.998047 0.1956,0.17126 0.3881931,0.283081 0.5957032,0.394531 0.4150299,0.22291 0.8943962,0.419665 1.3789062,0.609375 0.48452,0.18972 0.9709869,0.369001 1.3417969,0.519531 0.18541,0.07526 0.3415162,0.14375 0.4414062,0.19336 0.010815,0.0054 0.011853,0.0081 0.021484,0.01367 0.00493,0.0086 0.00698,0.01 0.011719,0.01953 0.04961,0.09989 0.1180994,0.255996 0.1933594,0.441406 0.15053,0.37081 0.3298113,0.857277 0.5195313,1.341797 0.1897202,0.48452 0.3864652,0.963886 0.6093752,1.378906 0.11145,0.20752 0.223271,0.400113 0.394531,0.595703 C 11.173213,18.701499 11.44241,19 12,19 c 0.55759,0 0.826777,-0.298541 0.998047,-0.494141 0.17126,-0.1956 0.283081,-0.388193 0.394531,-0.595703 0.22291,-0.41503 0.419665,-0.894396 0.609375,-1.378906 0.18972,-0.48452 0.369001,-0.970987 0.519531,-1.341797 0.07526,-0.1854 0.14375,-0.341516 0.19336,-0.441406 0.0054,-0.01082 0.0081,-0.01185 0.01367,-0.02149 0.0086,-0.0049 0.01,-0.007 0.01953,-0.01172 0.09989,-0.04961 0.255996,-0.1181 0.441406,-0.19336 0.37085,-0.15057 0.857277,-0.329811 1.341797,-0.519531 0.48452,-0.18972 0.963886,-0.386475 1.378906,-0.609375 0.20752,-0.11145 0.400113,-0.223271 0.595703,-0.394531 C 18.701459,12.826787 19,12.55759 19,12 c 0,-0.55759 -0.298541,-0.826777 -0.494141,-0.998047 -0.1956,-0.17126 -0.388193,-0.283081 -0.595703,-0.394531 -0.41503,-0.22291 -0.894396,-0.419655 -1.378906,-0.6093751 -0.48451,-0.18972 -0.970987,-0.3690013 -1.341797,-0.5195313 -0.1854,-0.075264 -0.341516,-0.1437493 -0.441406,-0.1933594 -0.0013,-6.278e-4 -0.0049,-0.00332 -0.0059,-0.00391 -0.0048,-0.00333 -0.0069,-0.00585 -0.01367,-0.00977 -0.0039,-0.00682 -0.0084,-0.01084 -0.01172,-0.015625 -5.84e-4,-9.946e-4 -0.0013,-0.00264 -0.002,-0.00391 C 14.665107,9.1520572 14.596657,8.995945 14.521397,8.810535 14.370954,8.4397369 14.191673,7.95327 14.001953,7.46875 13.812233,6.98423 13.615478,6.5048737 13.392578,6.0898438 13.281128,5.8823238 13.169307,5.6897306 12.998047,5.4941406 12.826787,5.2985406 12.55759,5 12,5 Z M 11.98633,6 C 11.99123,5.9995689 11.99513,6 12,6 12.61714,6 13.568659,9.5579406 14.005859,9.9941406 14.442149,10.431281 18,11.3828 18,12 18,12.6172 14.442059,13.568659 14.005859,14.005859 13.568719,14.442149 12.6172,18 12,18 11.3828,18 10.431341,14.442059 9.9941406,14.005859 9.5578506,13.568719 6,12.6172 6,12 6,11.3828 9.5579406,10.431341 9.9941406,9.9941406 10.427865,9.5612591 11.368818,6.054752 11.986328,6 Z" />
</svg>
