<?xml version="1.0" encoding="UTF-8" standalone="no"?>
<!-- Created with Inkscape (http://www.inkscape.org/) -->

<svg
   width="48"
   height="48"
   viewBox="0 0 48 48"
   version="1.1"
   id="svg2112"
   inkscape:version="1.2.1 (9c6d41e410, 2022-07-14, custom)"
   sodipodi:docname="accessories-character-map.svg"
   xmlns:inkscape="http://www.inkscape.org/namespaces/inkscape"
   xmlns:sodipodi="http://sodipodi.sourceforge.net/DTD/sodipodi-0.dtd"
   xmlns:xlink="http://www.w3.org/1999/xlink"
   xmlns="http://www.w3.org/2000/svg"
   xmlns:svg="http://www.w3.org/2000/svg">
  <sodipodi:namedview
     id="namedview2114"
     pagecolor="#ffffff"
     bordercolor="#000000"
     borderopacity="0.25"
     inkscape:showpageshadow="2"
     inkscape:pageopacity="0.0"
     inkscape:pagecheckerboard="0"
     inkscape:deskcolor="#d1d1d1"
     inkscape:document-units="px"
     showgrid="false"
     inkscape:zoom="16.708333"
     inkscape:cx="24"
     inkscape:cy="24"
     inkscape:window-width="1920"
     inkscape:window-height="1011"
     inkscape:window-x="0"
     inkscape:window-y="0"
     inkscape:window-maximized="1"
     inkscape:current-layer="svg2112" />
  <defs
     id="defs2109">
    <linearGradient
       inkscape:collect="always"
       xlink:href="#linearGradient23571"
       id="linearGradient23573"
       x1="0.5291667"
       y1="5.0270834"
       x2="16.404167"
       y2="19.84375"
       gradientUnits="userSpaceOnUse"
       gradientTransform="matrix(2.6456693,0,0,2.8346456,1.6,-11.25)" />
    <linearGradient
       inkscape:collect="always"
       id="linearGradient23571">
      <stop
         style="stop-color:#b6bec5;stop-opacity:1;"
         offset="0"
         id="stop23567" />
      <stop
         style="stop-color:#9ba3aa;stop-opacity:1"
         offset="1"
         id="stop23569" />
    </linearGradient>
  </defs>
  <rect
     style="fill:url(#linearGradient23573);fill-opacity:1;stroke-width:0.724568;stroke-linejoin:round"
     id="rect858"
     width="42"
     height="42"
     x="3"
     y="3"
     ry="6" />
  <rect
     style="opacity:0.2;fill:#000000;fill-opacity:1;stroke-width:0.75;stroke-linecap:round;stroke-linejoin:round"
     id="rect883"
     width="36"
     height="36"
     x="6"
     y="7"
     ry="3" />
  <rect
     style="fill:#edeef0;fill-opacity:1;stroke-width:0.75;stroke-linecap:round;stroke-linejoin:round"
     id="rect415"
     width="36"
     height="36"
     x="6"
     y="6"
     ry="3" />
  <path
     d="m 30.632487,36.602548 h -2.715924 v -2.25223 h -0.06624 C 27.276225,35.200425 26.547563,35.857325 25.664335,36.32102 24.792148,36.773673 23.826118,37 22.766245,37 c -1.68917,0 -3.014012,-0.452653 -3.97452,-1.357962 -0.949477,-0.905307 -1.424212,-2.036943 -1.424212,-3.394905 0,-1.589809 0.496816,-2.820807 1.490447,-3.692993 0.99363,-0.883227 2.384713,-1.429724 4.173247,-1.639492 l 4.885351,-0.563056 v -1.076434 c 0,-1.225476 -0.32017,-2.141825 -0.960509,-2.749044 -0.6293,-0.618259 -1.495966,-0.927388 -2.6,-0.927388 -1.048832,0 -1.9155,0.237368 -2.600001,0.712103 -0.6845,0.463694 -1.208916,1.115074 -1.573247,1.95414 l -2.368153,-0.977072 c 0.552017,-1.280679 1.402124,-2.274309 2.55032,-2.98089 1.159234,-0.706582 2.539276,-1.059873 4.140125,-1.059873 1.976221,0 3.488749,0.529936 4.53758,1.589809 1.059872,1.048832 1.589809,2.522716 1.589809,4.421655 z M 27.916563,29.713375 V 28.55414 l -4.703185,0.529937 c -1.048832,0.121447 -1.821656,0.425052 -2.31847,0.910827 -0.496816,0.474735 -0.745223,1.109554 -0.745223,1.904458 0,0.872188 0.287049,1.57325 0.861147,2.103186 0.574096,0.518896 1.32484,0.778346 2.252229,0.778346 1.391082,0 2.511676,-0.474735 3.361782,-1.424205 0.861147,-0.960508 1.29172,-2.174946 1.29172,-3.643314 z M 26.575162,16.431847 H 24.471976 L 20.133123,11 h 2.782166 z"
     style="font-size:48px;font-family:'Segoe UI Variable Static Display';-inkscape-font-specification:'Segoe UI Variable Static Display';text-align:center;text-anchor:middle;fill:#666666;stroke-width:0.706582;stroke-linecap:round;stroke-linejoin:round"
     id="path1055" />
</svg>
