<?xml version="1.0" encoding="UTF-8" standalone="no"?>
<!-- Created with Inkscape (http://www.inkscape.org/) -->

<svg
   width="48"
   height="48"
   viewBox="0 0 48 48.000001"
   version="1.1"
   id="svg5"
   inkscape:version="1.2.1 (9c6d41e410, 2022-07-14, custom)"
   sodipodi:docname="code-oss.svg"
   xmlns:inkscape="http://www.inkscape.org/namespaces/inkscape"
   xmlns:sodipodi="http://sodipodi.sourceforge.net/DTD/sodipodi-0.dtd"
   xmlns:xlink="http://www.w3.org/1999/xlink"
   xmlns="http://www.w3.org/2000/svg"
   xmlns:svg="http://www.w3.org/2000/svg">
  <sodipodi:namedview
     id="namedview7"
     pagecolor="#ffffff"
     bordercolor="#000000"
     borderopacity="0.25"
     inkscape:showpageshadow="2"
     inkscape:pageopacity="0.0"
     inkscape:pagecheckerboard="0"
     inkscape:deskcolor="#d1d1d1"
     inkscape:document-units="px"
     showgrid="false"
     inkscape:zoom="16.708333"
     inkscape:cx="23.970075"
     inkscape:cy="24"
     inkscape:window-width="1920"
     inkscape:window-height="1011"
     inkscape:window-x="0"
     inkscape:window-y="0"
     inkscape:window-maximized="1"
     inkscape:current-layer="svg5" />
  <defs
     id="defs2">
    <linearGradient
       inkscape:collect="always"
       id="linearGradient2687">
      <stop
         style="stop-color:#2861ad;stop-opacity:1;"
         offset="0"
         id="stop2683" />
      <stop
         style="stop-color:#548bbf;stop-opacity:1;"
         offset="1"
         id="stop2685" />
    </linearGradient>
    <linearGradient
       inkscape:collect="always"
       xlink:href="#linearGradient2687"
       id="linearGradient2689"
       x1="16"
       y1="15.109246"
       x2="8"
       y2="2.385673"
       gradientUnits="userSpaceOnUse"
       gradientTransform="matrix(2.625,0,0,2.7507996,3,-0.56250865)" />
    <linearGradient
       inkscape:collect="always"
       id="linearGradient3143">
      <stop
         style="stop-color:#d2d2d2;stop-opacity:1;"
         offset="0"
         id="stop3139" />
      <stop
         style="stop-color:#ffffff;stop-opacity:1"
         offset="1"
         id="stop3141" />
    </linearGradient>
    <linearGradient
       inkscape:collect="always"
       xlink:href="#linearGradient3143"
       id="linearGradient3797"
       x1="15"
       y1="45"
       x2="11"
       y2="6"
       gradientUnits="userSpaceOnUse"
       gradientTransform="matrix(0.75,0,0,1,2.75,-2)" />
    <linearGradient
       inkscape:collect="always"
       xlink:href="#linearGradient3143"
       id="linearGradient3806"
       x1="37"
       y1="37"
       x2="20.5"
       y2="10"
       gradientUnits="userSpaceOnUse" />
  </defs>
  <rect
     style="fill:url(#linearGradient2689);fill-opacity:1;stroke-width:2.68716;stroke-linecap:round;stroke-linejoin:round"
     id="rect234"
     width="42"
     height="35"
     x="3"
     y="6"
     ry="3" />
  <path
     id="rect5831"
     style="fill:url(#linearGradient3806);fill-opacity:1;stroke-width:3.00001;stroke-linecap:round;stroke-linejoin:round"
     d="M 20.5 10 C 19.669001 10 19 10.669001 19 11.5 C 19 12.330999 19.669001 13 20.5 13 L 29.5 13 C 30.330999 13 31 12.330999 31 11.5 C 31 10.669001 30.330999 10 29.5 10 L 20.5 10 z M 25.5 16 C 24.669001 16 24 16.669001 24 17.5 C 24 18.330999 24.669001 19 25.5 19 L 35.5 19 C 36.330999 19 37 18.330999 37 17.5 C 37 16.669001 36.330999 16 35.5 16 L 25.5 16 z M 25.5 22 C 24.669001 22 24 22.669001 24 23.5 C 24 24.330999 24.669001 25 25.5 25 L 35.5 25 C 36.330999 25 37 24.330999 37 23.5 C 37 22.669001 36.330999 22 35.5 22 L 25.5 22 z M 25.5 28 C 24.669001 28 24 28.669001 24 29.5 C 24 30.330999 24.669001 31 25.5 31 L 35.5 31 C 36.330999 31 37 30.330999 37 29.5 C 37 28.669001 36.330999 28 35.5 28 L 25.5 28 z M 20.5 34 C 19.669001 34 19 34.669001 19 35.5 C 19 36.330999 19.669001 37 20.5 37 L 29.5 37 C 30.330999 37 31 36.330999 31 35.5 C 31 34.669001 30.330999 34 29.5 34 L 20.5 34 z " />
  <rect
     style="opacity:0.2;fill:#000000;fill-opacity:1;stroke-width:1.70083;stroke-linecap:round;stroke-linejoin:round"
     id="rect9469"
     width="10.5"
     height="35"
     x="3"
     y="6"
     ry="3" />
  <rect
     style="fill:url(#linearGradient3797);fill-opacity:1;stroke-width:3.00001;stroke-linecap:round;stroke-linejoin:round"
     id="rect5829"
     width="3"
     height="39"
     x="11"
     y="4"
     ry="1.5" />
</svg>
