<?xml version="1.0" encoding="UTF-8" standalone="no"?>
<!-- Created with Inkscape (http://www.inkscape.org/) -->

<svg
   width="48"
   height="48"
   viewBox="0 0 48 48"
   version="1.1"
   id="svg5"
   inkscape:version="1.2.2 (1:1.2.2+202305151914+b0a8486541)"
   sodipodi:docname="discord-canary.svg"
   xmlns:inkscape="http://www.inkscape.org/namespaces/inkscape"
   xmlns:sodipodi="http://sodipodi.sourceforge.net/DTD/sodipodi-0.dtd"
   xmlns:xlink="http://www.w3.org/1999/xlink"
   xmlns="http://www.w3.org/2000/svg"
   xmlns:svg="http://www.w3.org/2000/svg">
  <sodipodi:namedview
     id="namedview7"
     pagecolor="#ffffff"
     bordercolor="#666666"
     borderopacity="1.0"
     inkscape:pageshadow="2"
     inkscape:pageopacity="0.0"
     inkscape:pagecheckerboard="0"
     inkscape:document-units="px"
     showgrid="false"
     units="px"
     height="16px"
     showguides="true"
     inkscape:zoom="16.791667"
     inkscape:cx="23.970223"
     inkscape:cy="24"
     inkscape:window-width="1920"
     inkscape:window-height="1008"
     inkscape:window-x="0"
     inkscape:window-y="0"
     inkscape:window-maximized="1"
     inkscape:current-layer="svg5"
     inkscape:showpageshadow="2"
     inkscape:deskcolor="#d1d1d1" />
  <defs
     id="defs2">
    <linearGradient
       inkscape:collect="always"
       xlink:href="#linearGradient1777"
       id="linearGradient7450"
       x1="2.9104171"
       y1="3.1750004"
       x2="14.552084"
       y2="12.700001"
       gradientUnits="userSpaceOnUse"
       gradientTransform="matrix(2.7368992,0,0,2.7368992,0.827588,0.8275866)" />
    <linearGradient
       inkscape:collect="always"
       id="linearGradient1777">
      <stop
         style="stop-color:#fedd00;stop-opacity:1;"
         offset="0"
         id="stop1773" />
      <stop
         style="stop-color:#fdcb00;stop-opacity:1"
         offset="0.63547182"
         id="stop1818" />
      <stop
         style="stop-color:#fab500;stop-opacity:1"
         offset="1"
         id="stop1775" />
    </linearGradient>
  </defs>
  <circle
     style="fill:url(#linearGradient7450);fill-opacity:1.0;stroke-width:3.08351;stroke-linecap:round;stroke-linejoin:round"
     id="path7362"
     cx="24"
     cy="24"
     r="21" />
  <path
     d="m 20.275118,14.001757 c -1.856986,0.322771 -3.634791,0.88785 -5.292969,1.65625 -0.01435,0.0063 -0.02504,0.01577 -0.0332,0.0293 -3.37068,5.082043 -4.294771,10.039876 -3.841797,14.935547 0.0021,0.02395 0.01475,0.04599 0.0332,0.06055 2.223878,1.648188 4.377984,2.649277 6.492187,3.3125 0.03384,0.01042 0.07027,-0.0012 0.0918,-0.0293 0.500115,-0.689239 0.945889,-1.116598 1.328125,-1.880859 0.02256,-0.04476 0.0012,-0.09753 -0.04492,-0.115235 -0.707125,-0.270706 -1.37965,-0.599796 -2.027343,-0.974609 -0.05123,-0.0302 -0.05687,-0.10522 -0.0098,-0.140625 0.136299,-0.103071 0.274151,-0.210077 0.404297,-0.31836 0.02355,-0.01977 0.0563,-0.02421 0.08398,-0.01172 4.255064,1.960582 8.861548,1.960582 13.066407,0 0.02768,-0.01352 0.05941,-0.01009 0.08398,0.0098 0.130183,0.108283 0.266973,0.217242 0.404297,0.320313 0.04713,0.0354 0.04343,0.110432 -0.0078,0.140625 -0.647693,0.382094 -1.321143,0.704937 -2.029297,0.974609 -0.0461,0.0177 -0.06553,0.07048 -0.04297,0.115235 0.390439,0.76319 0.835284,1.18963 1.326172,1.878906 0.02051,0.02916 0.05796,0.04168 0.0918,0.03125 2.124458,-0.663223 4.278075,-1.664312 6.501954,-3.3125 0.01948,-0.01456 0.03311,-0.0366 0.03516,-0.06055 0.542118,-5.659933 -0.909571,-10.57516 -3.845703,-14.933594 -0.0072,-0.01456 -0.01884,-0.02501 -0.0332,-0.03125 -1.657152,-0.767364 -3.433005,-1.332444 -5.291016,-1.65625 -0.03384,-0.0063 -0.06851,0.0079 -0.08594,0.03906 -0.228542,0.410222 -0.480927,0.745375 -0.658203,1.166015 -1.998411,-0.301935 -3.987879,-0.301935 -5.945312,0 -0.177313,-0.429989 -0.4384,-0.755793 -0.667969,-1.166015 -0.01743,-0.03019 -0.0521,-0.04427 -0.08594,-0.03906 z m -0.777344,8.998047 c 1.403209,0 2.52389,1.131842 2.501953,2.5 0,1.378011 -1.109712,2.5 -2.501953,2.5 -1.370382,0 -2.498047,-1.121989 -2.498047,-2.5 0,-1.378011 1.105767,-2.5 2.498047,-2.5 z m 9.001953,0 c 1.403249,0 2.521899,1.131842 2.5,2.5 1e-6,1.378011 -1.096751,2.5 -2.5,2.5 -1.370342,0 -2.5,-1.121989 -2.5,-2.5 0,-1.378011 1.10772,-2.5 2.5,-2.5 z"
     style="fill:#ffffff"
     id="path304" />
</svg>
