<?xml version="1.0" encoding="UTF-8" standalone="no"?>
<!-- Created with Inkscape (http://www.inkscape.org/) -->

<svg
   width="48"
   height="48"
   viewBox="0 0 48 48"
   version="1.1"
   id="svg2112"
   inkscape:version="1.2.1 (9c6d41e410, 2022-07-14, custom)"
   sodipodi:docname="fcitx.svg"
   xmlns:inkscape="http://www.inkscape.org/namespaces/inkscape"
   xmlns:sodipodi="http://sodipodi.sourceforge.net/DTD/sodipodi-0.dtd"
   xmlns:xlink="http://www.w3.org/1999/xlink"
   xmlns="http://www.w3.org/2000/svg"
   xmlns:svg="http://www.w3.org/2000/svg">
  <sodipodi:namedview
     id="namedview2114"
     pagecolor="#ffffff"
     bordercolor="#000000"
     borderopacity="0.25"
     inkscape:showpageshadow="2"
     inkscape:pageopacity="0.0"
     inkscape:pagecheckerboard="0"
     inkscape:deskcolor="#d1d1d1"
     inkscape:document-units="px"
     showgrid="false"
     inkscape:zoom="16.833333"
     inkscape:cx="24"
     inkscape:cy="24"
     inkscape:window-width="1920"
     inkscape:window-height="1010"
     inkscape:window-x="0"
     inkscape:window-y="0"
     inkscape:window-maximized="1"
     inkscape:current-layer="svg2112" />
  <defs
     id="defs2109">
    <linearGradient
       inkscape:collect="always"
       xlink:href="#linearGradient23571"
       id="linearGradient23573"
       x1="0.5291667"
       y1="5.0270834"
       x2="29.104172"
       y2="17.600084"
       gradientUnits="userSpaceOnUse"
       gradientTransform="matrix(1.6797898,0,0,1.7497811,-0.88888898,4.2037049)" />
    <linearGradient
       inkscape:collect="always"
       id="linearGradient23571">
      <stop
         style="stop-color:#b6bec5;stop-opacity:1;"
         offset="0"
         id="stop23567" />
      <stop
         style="stop-color:#9ba3aa;stop-opacity:1"
         offset="1"
         id="stop23569" />
    </linearGradient>
    <linearGradient
       inkscape:collect="always"
       xlink:href="#linearGradient4676"
       id="linearGradient4678"
       x1="5.2915626"
       y1="7.2758985"
       x2="0.52915633"
       y2="0.92602324"
       gradientUnits="userSpaceOnUse"
       gradientTransform="matrix(3.779602,0,0,3.779602,25.999997,13.999999)" />
    <linearGradient
       inkscape:collect="always"
       id="linearGradient4676">
      <stop
         style="stop-color:#333333;stop-opacity:1;"
         offset="0"
         id="stop4672" />
      <stop
         style="stop-color:#696969;stop-opacity:1"
         offset="1"
         id="stop4674" />
    </linearGradient>
    <linearGradient
       inkscape:collect="always"
       xlink:href="#linearGradient4970"
       id="linearGradient4972"
       x1="7"
       y1="17.5"
       x2="19"
       y2="27.5"
       gradientUnits="userSpaceOnUse"
       gradientTransform="translate(25.999997,13.999999)" />
    <linearGradient
       inkscape:collect="always"
       id="linearGradient4970">
      <stop
         style="stop-color:#ffffff;stop-opacity:1;"
         offset="0"
         id="stop4966" />
      <stop
         style="stop-color:#cccccc;stop-opacity:1"
         offset="1"
         id="stop4968" />
    </linearGradient>
    <linearGradient
       inkscape:collect="always"
       xlink:href="#linearGradient9529"
       id="linearGradient9531"
       x1="2.6457813"
       y1="2.3812032"
       x2="3.7040937"
       y2="3.4395156"
       gradientUnits="userSpaceOnUse"
       gradientTransform="matrix(3.779602,0,0,3.779602,25.999997,13.999999)" />
    <linearGradient
       inkscape:collect="always"
       id="linearGradient9529">
      <stop
         style="stop-color:#f8c93b;stop-opacity:1"
         offset="0"
         id="stop9525" />
      <stop
         style="stop-color:#ea8908;stop-opacity:1"
         offset="1"
         id="stop9527" />
    </linearGradient>
    <linearGradient
       inkscape:collect="always"
       xlink:href="#linearGradient4676"
       id="linearGradient10516"
       gradientUnits="userSpaceOnUse"
       x1="5.2915626"
       y1="7.2758985"
       x2="0.52915633"
       y2="0.92602324"
       gradientTransform="matrix(3.779602,0,0,3.779602,25.999997,13.999999)" />
    <linearGradient
       inkscape:collect="always"
       xlink:href="#linearGradient4676"
       id="linearGradient9254"
       gradientUnits="userSpaceOnUse"
       gradientTransform="matrix(3.779602,0,0,3.779602,25.999997,13.999999)"
       x1="5.2915626"
       y1="7.2758985"
       x2="0.52915633"
       y2="0.92602324" />
  </defs>
  <rect
     style="fill:url(#linearGradient23573);fill-opacity:1;stroke-width:0.453611;stroke-linejoin:round"
     id="rect858"
     width="48"
     height="22"
     x="0"
     y="13"
     ry="2" />
  <rect
     style="opacity:0.1;fill:#000000;stroke-width:2;stroke-linecap:round;stroke-linejoin:round"
     id="rect540"
     width="46"
     height="20"
     x="0.99999905"
     y="14"
     ry="1" />
  <path
     d="m 2.0000003,15.999999 v 2 h 5.999999 v -2 z m 6.9999992,0 v 2 h 2.9999995 v -2 z m 3.9999995,0 v 2 h 3 v -2 z m 4,0 v 2 h 3 v -2 z m 4,0 v 2 h 3 v -2 z m 3.999999,0 v 2 h 3.000001 v -2 z m 4.000001,0 v 2 h 2.999999 v -2 z m 4,0 v 2 h 2.999999 v -2 z m 3.999999,0 v 2 h 2.999999 v -2 z m 3.999998,0 v 2 h 5.000001 v -2 z m -38.9999957,3 v 3 h 5.999999 v -3 z m 6.9999992,0 v 3 h 2.9999995 v -3 z m 3.9999995,0 v 3 h 3 v -3 z m 4,0 v 3 h 3 v -3 z m 4,0 v 3 h 3 v -3 z m 3.999999,0 v 3 h 3.000001 v -3 z m 4.000001,0 v 3 h 2.999999 v -3 z m 4,0 v 3 h 2.999999 v -3 z m 3.999999,0 v 3 h 2.999999 v -3 z m 3.999998,0 v 3 h 5.000001 v -3 z m -38.9999957,4 V 26 h 7.9999991 v -3.000001 z m 8.9999997,0 V 26 h 2.999999 v -3.000001 z m 3.999999,0 V 26 h 3 v -3.000001 z m 4,0 V 26 h 3 v -3.000001 z m 4,0 V 26 h 3 v -3.000001 z m 3.999999,0 V 26 h 3 v -3.000001 z m 4.000001,0 V 26 h 2.999999 v -3.000001 z m 3.999999,0 V 26 H 38 v -3.000001 z m 4,0 V 26 h 6.999999 v -3.000001 z m -36.9999977,4 v 3 h 9.9999987 v -3 z m 10.9999987,0 v 3 h 3 v -3 z m 4,0 v 3 h 3 v -3 z m 4,0 v 3 h 3 v -3 z m 3.999999,0 v 3 h 3.000001 v -3 z m 4.000001,0 v 3 h 2.999999 v -3 z m 4,0 v 3 h 2.999999 v -3 z m 3.999999,0 v 3 h 8.999999 v -3 z M 2.0000003,31 v 2.999999 H 5.9999997 V 31 Z m 4.9999992,0 v 2.999999 H 9.9999997 V 31 Z M 11,31 v 2.999999 h 2.999999 V 31 Z m 3.999999,0 v 2.999999 h 18 V 31 Z m 18.999999,0 v 2.999999 h 3 V 31 Z M 38,31 v 2.999999 h 2.999996 V 31 Z m 3.999998,0 v 2.999999 h 3.999999 V 31 Z"
     style="opacity:0.1;fill:#000000;stroke-width:0.999999"
     id="path550" />
  <path
     id="rect848"
     style="fill:#edeff0;stroke-width:0.999999"
     d="m 1.9999999,15 v 1.999999 H 7.9999993 V 15 Z m 6.9999996,0 v 1.999999 H 11.999999 V 15 Z m 3.9999995,0 v 1.999999 H 16 V 15 Z m 4,0 v 1.999999 h 3 V 15 Z m 4,0 v 1.999999 h 3 V 15 Z m 4,0 v 1.999999 h 3 V 15 Z m 4,0 v 1.999999 h 3 V 15 Z m 4,0 v 1.999999 h 3 V 15 Z m 4,0 v 1.999999 h 2.999998 V 15 Z m 3.999997,0 v 1.999999 h 5.000001 V 15 Z M 1.9999999,17.999999 v 3 h 5.9999994 v -3 z m 6.9999996,0 v 3 h 2.9999995 v -3 z m 3.9999995,0 v 3 H 16 v -3 z m 4,0 v 3 h 3 v -3 z m 4,0 v 3 h 3 v -3 z m 4,0 v 3 h 3 v -3 z m 4,0 v 3 h 3 v -3 z m 4,0 v 3 h 3 v -3 z m 4,0 v 3 h 2.999998 v -3 z m 3.999997,0 v 3 h 5.000001 v -3 z m -38.9999961,4 v 3 h 7.9999995 v -3 z m 9.0000001,0 v 3 h 2.999999 v -3 z m 3.999999,0 v 3 h 3 v -3 z m 4,0 v 3 h 3 v -3 z m 4.000001,0 v 3 h 2.999999 v -3 z m 3.999999,0 v 3 h 3 v -3 z m 4,0 v 3 h 3 v -3 z m 4,0 v 3 H 38 v -3 z m 3.999999,0 v 3 h 6.999999 v -3 z m -36.9999981,4 v 3 h 9.9999991 v -3 z m 10.9999991,0 v 3 H 16 v -3 z m 4,0 v 3 h 3 v -3 z m 4,0 v 3 h 3 v -3 z m 4,0 v 3 h 3 v -3 z m 4,0 v 3 h 3 v -3 z m 4,0 v 3 h 3 v -3 z m 4,0 v 3 h 8.999998 v -3 z m -34.9999991,4 v 3 h 3.9999998 v -3 z m 4.9999996,0 v 3 h 3.0000002 v -3 z m 4.0000005,0 v 3 h 2.999999 v -3 z m 4,0 v 3 h 17.999999 v -3 z m 18.999999,0 v 3 h 3 v -3 z m 4.000001,0 v 3 h 2.999996 v -3 z m 3.999998,0 v 3 h 3.999999 v -3 z"
     sodipodi:nodetypes="cccccccccccccccccccccccccccccccccccccccccccccccccccccccccccccccccccccccccccccccccccccccccccccccccccccccccccccccccccccccccccccccccccccccccccccccccccccccccccccccccccccccccccccccccccccccccccccccccccccccccccccccccccccccccccc" />
  <path
     id="path879"
     style="fill:url(#linearGradient4678);fill-opacity:1;stroke-width:0.625003;stroke-linejoin:round"
     d="m 37.999997,16.999999 c -2.761424,0 -5,2.238576 -5,5 10e-7,8 -3,7.5 -3,12 0,4.418278 3.581722,8 8,8 4.418278,0 8,-3.581722 8,-8 10e-7,-4.5 -3,-4 -3,-12 0,-2.761424 -2.238576,-5 -5,-5 z"
     sodipodi:nodetypes="sccsccs" />
  <path
     style="fill:#eab108;stroke-width:0.5"
     d="m 33.26285,42.967559 c -0.210925,-0.0335 -0.397443,-0.09615 -0.806117,-0.27205 -0.608447,-0.26195 -0.892169,-0.3469 -2.005789,-0.600399 -0.55548,-0.126401 -0.762498,-0.182601 -1.244619,-0.33815 -0.175377,-0.05655 -0.409129,-0.128751 -0.519447,-0.160401 -0.299473,-0.08595 -0.378869,-0.119348 -0.48859,-0.20555 -0.14968,-0.117549 -0.219436,-0.298898 -0.192684,-0.500849 0.01716,-0.129452 0.06244,-0.25385 0.187483,-0.5148 0.167119,-0.34885 0.302213,-0.47435 0.327669,-0.81765 0.01497,-0.202001 0.0027,-0.4292 -0.0487,-0.9022 -0.03043,-0.279849 -0.03738,-0.383 -0.03782,-0.56115 -4.59e-4,-0.193251 0.002,-0.4778 0.02196,-0.5514 0.07493,-0.276799 0.131957,-0.4365 0.397206,-0.5054 0.07678,-0.01999 0.126315,-0.02302 0.486637,-0.03001 0.224304,-0.005 0.423831,-0.013 0.452588,-0.0195 0.155413,-0.035 0.268559,-0.0935 0.374006,-0.193749 0.100443,-0.0955 0.169191,-0.1929 0.300294,-0.425501 0.204087,-0.35905 0.606699,-0.355498 0.935475,-0.368798 0.09321,0.0195 0.124205,0.03251 0.226292,0.09105 0.102745,0.0592 0.131806,0.0825 0.221152,0.177399 0.224837,0.238848 0.332171,0.38625 0.836452,1.1481 0.399684,0.604 0.521804,0.7972 0.682914,1.0806 0.175505,0.308748 0.491893,0.80405 0.609183,0.9537 0.01988,0.02551 0.141561,0.1795 0.270415,0.34245 0.128854,0.163102 0.246698,0.31565 0.261873,0.339099 0.241982,0.336698 0.411856,0.72355 0.472284,1.1102 0.0203,0.134701 0.02101,0.157499 0.0097,0.311749 -0.0144,0.195798 -0.02695,0.279501 -0.04823,0.322249 -0.0085,0.01701 -0.02729,0.06395 -0.0417,0.103897 -0.185016,0.51415 -0.646188,0.8999 -1.18046,0.9875 -0.113615,0.01848 -0.338905,0.01848 -0.459379,0 z"
     id="path12" />
  <path
     style="fill:#eab108;stroke-width:0.5"
     d="m 42.73714,42.967993 c 0.210925,-0.03349 0.397443,-0.09615 0.806117,-0.272052 0.608448,-0.261949 0.892169,-0.346899 2.00579,-0.600399 0.555479,-0.126402 0.762497,-0.182601 1.244618,-0.33815 0.175378,-0.05655 0.40913,-0.128752 0.519447,-0.160399 0.299473,-0.08595 0.378869,-0.119348 0.48859,-0.20555 0.14968,-0.117549 0.219437,-0.298898 0.192685,-0.500849 -0.01716,-0.129452 -0.06244,-0.25385 -0.187484,-0.5148 -0.167119,-0.34885 -0.302213,-0.47435 -0.327669,-0.81765 -0.01497,-0.202001 -0.0027,-0.4292 0.0487,-0.9022 0.03043,-0.279849 0.03738,-0.383 0.03782,-0.56115 4.59e-4,-0.193251 -0.002,-0.4778 -0.02196,-0.5514 -0.07493,-0.276799 -0.131957,-0.4365 -0.397207,-0.5054 -0.07678,-0.01999 -0.126314,-0.02302 -0.486636,-0.03001 -0.224304,-0.005 -0.423831,-0.013 -0.452588,-0.0195 -0.155414,-0.035 -0.26856,-0.0935 -0.374007,-0.19375 -0.100443,-0.0955 -0.16919,-0.192899 -0.300293,-0.4255 -0.204087,-0.35905 -0.6067,-0.355498 -0.935475,-0.368798 -0.09321,0.0195 -0.124206,0.03251 -0.226293,0.09105 -0.102744,0.0592 -0.131806,0.0825 -0.221152,0.177399 -0.224837,0.238848 -0.33217,0.38625 -0.836452,1.1481 -0.399683,0.603999 -0.521804,0.797199 -0.682913,1.0806 -0.175506,0.308748 -0.491893,0.80405 -0.609183,0.9537 -0.01988,0.02551 -0.141561,0.1795 -0.270415,0.34245 -0.128855,0.163102 -0.246699,0.31565 -0.261874,0.339099 -0.241981,0.336698 -0.411855,0.72355 -0.472283,1.1102 -0.0203,0.134701 -0.02101,0.157499 -0.0097,0.311749 0.0144,0.195798 0.02695,0.279501 0.04823,0.322249 0.0085,0.01701 0.02729,0.06395 0.0417,0.103897 0.185015,0.51415 0.646187,0.8999 1.180459,0.9875 0.113615,0.01848 0.338906,0.01848 0.459379,0 z"
     id="path12-6" />
  <path
     id="path879-3"
     style="fill:url(#linearGradient4972);fill-opacity:1;stroke-width:0.312502;stroke-linejoin:round"
     d="m 37.999997,22.999999 c -1.380712,0 -2.5,1.119288 -2.5,2.5 -0.01093,3.352746 -2.45271,6.51685 -2.5,9.5 0,2.761424 2.238576,5 5,5 2.761424,0 5,-2.238576 5,-5 -0.01194,-2.945028 -2.443863,-6.0141 -2.5,-9.5 0,-1.380712 -1.119288,-2.5 -2.5,-2.5 z"
     sodipodi:nodetypes="sccsccs" />
  <ellipse
     style="fill:#ffffff;fill-opacity:1;stroke-width:1.73205;stroke-linejoin:round"
     id="path5621"
     cx="36.499996"
     cy="21.999998"
     rx="1.5"
     ry="2" />
  <ellipse
     style="fill:#ffffff;fill-opacity:1;stroke-width:1.73205;stroke-linejoin:round"
     id="path5621-7"
     cx="39.499996"
     cy="21.999998"
     rx="1.5"
     ry="2" />
  <path
     id="path5299"
     style="fill:url(#linearGradient9531);fill-opacity:1;stroke-width:1;stroke-linejoin:round"
     d="m 39.999997,24.499999 c 0,1.10457 -0.89543,2.5 -2,2.5 -1.104569,0 -2,-1.39543 -2,-2.5 0,-1.104569 0.89543,-1.5 2,-1.5 1.10457,0 2,0.39543 2,1.5 z"
     sodipodi:nodetypes="sssss" />
  <path
     id="path10049"
     style="fill:#1a1a1a;fill-opacity:1;stroke-width:1;stroke-linejoin:round"
     d="m 36.499997,20.999999 a 0.50000002,1 0 0 0 -0.5,1 0.50000002,1 0 0 0 0.5,1 0.50000002,1 0 0 0 0.5,-1 0.50000002,1 0 0 0 -0.5,-1 z m 3,0 a 0.50000002,1 0 0 0 -0.5,1 0.50000002,1 0 0 0 0.5,1 0.50000002,1 0 0 0 0.5,-1 0.50000002,1 0 0 0 -0.5,-1 z" />
  <path
     id="path879-6"
     style="fill:url(#linearGradient9254);fill-opacity:1;stroke-width:0.625003;stroke-linejoin:round"
     d="m 31.859372,34.61914 c -0.828427,0 -1.5,0.671572 -1.5,1.5 0,0.429422 0.314796,1.135773 0.733418,1.716574 0.388969,0.53966 0.867577,0.970926 1.266582,0.970926 0.828427,0 0.740234,-1.978213 0.740234,-2.806641 0,-0.474422 -0.411807,-1.380859 -1.240234,-1.380859 z"
     sodipodi:nodetypes="ssssss" />
  <path
     id="path879-1"
     style="fill:url(#linearGradient10516);fill-opacity:1;stroke-width:0.625003;stroke-linejoin:round"
     d="m 44.101559,34.61914 c -0.802668,0.02756 -1.201171,0.91385 -1.201171,1.380859 0,0.828428 -0.08819,2.806641 0.740234,2.806641 0.399005,0 0.876656,-0.431044 1.265625,-0.970703 0.418622,-0.580802 0.734375,-1.287375 0.734375,-1.716797 0,-0.828428 -0.671573,-1.5 -1.5,-1.5 -0.01294,0 -0.02632,-4.38e-4 -0.03906,0 z" />
</svg>
