<?xml version="1.0" encoding="UTF-8" standalone="no"?>
<!-- Created with Inkscape (http://www.inkscape.org/) -->

<svg
   width="48"
   height="48"
   viewBox="0 0 48 48"
   version="1.1"
   id="svg5"
   inkscape:version="1.3.2 (091e20ef0f, 2023-11-25, custom)"
   sodipodi:docname="forza-horizon-5.svg"
   xmlns:inkscape="http://www.inkscape.org/namespaces/inkscape"
   xmlns:sodipodi="http://sodipodi.sourceforge.net/DTD/sodipodi-0.dtd"
   xmlns:xlink="http://www.w3.org/1999/xlink"
   xmlns="http://www.w3.org/2000/svg"
   xmlns:svg="http://www.w3.org/2000/svg">
  <sodipodi:namedview
     id="namedview7"
     pagecolor="#ffffff"
     bordercolor="#000000"
     borderopacity="0.25"
     inkscape:showpageshadow="2"
     inkscape:pageopacity="0.0"
     inkscape:pagecheckerboard="0"
     inkscape:deskcolor="#d1d1d1"
     inkscape:document-units="px"
     showgrid="false"
     inkscape:zoom="16.708333"
     inkscape:cx="24"
     inkscape:cy="24"
     inkscape:window-width="1920"
     inkscape:window-height="1012"
     inkscape:window-x="0"
     inkscape:window-y="0"
     inkscape:window-maximized="1"
     inkscape:current-layer="svg5"
     showguides="true" />
  <defs
     id="defs2">
    <radialGradient
       inkscape:collect="always"
       xlink:href="#linearGradient2869"
       id="radialGradient2"
       cx="11"
       cy="11"
       fx="11"
       fy="11"
       r="10"
       gradientUnits="userSpaceOnUse"
       gradientTransform="matrix(2.1,0,0,2.1,0.9,0.9)" />
    <linearGradient
       inkscape:collect="always"
       id="linearGradient2869">
      <stop
         style="stop-color:#df8251;stop-opacity:1;"
         offset="0"
         id="stop2865" />
      <stop
         style="stop-color:#e72d83;stop-opacity:1;"
         offset="1"
         id="stop2867" />
    </linearGradient>
  </defs>
  <rect
     style="fill:url(#radialGradient2);stroke-width:2.1"
     id="rect1"
     width="42"
     height="42"
     x="3"
     y="3"
     ry="5" />
  <path
     id="rect288"
     style="fill:#191919;fill-opacity:1;stroke-width:2;stroke-linecap:round;stroke-linejoin:round"
     d="m 23,16 c -4.193248,0 -5.332404,2.485444 -7,5 h 8 3 9 c 2.889776,0 5.38376,-2.26627 6,-5 z M 7,22 21.332031,24.802734 19,29 l 4,-1 4,-6 h -3 z m 21,0 -4,6 4,-1 3,-5 z m 4,0 -3,5 2.5,-0.5 c 1.288324,-0.257665 1.798372,-1.26379 2.5,-1.904297 L 36,22 Z m -18,2.5 -6,9.5 9,-3 2.802734,-5.605469 z"
     sodipodi:nodetypes="scccscsccccccccccccccscccccccc" />
</svg>
