<?xml version="1.0" encoding="UTF-8" standalone="no"?>
<!-- Created with Inkscape (http://www.inkscape.org/) -->

<svg
   width="48"
   height="48"
   viewBox="0 0 48 48"
   version="1.1"
   id="svg2535"
   inkscape:version="1.2.1 (9c6d41e410, 2022-07-14, custom)"
   sodipodi:docname="gnome-calculator.svg"
   xmlns:inkscape="http://www.inkscape.org/namespaces/inkscape"
   xmlns:sodipodi="http://sodipodi.sourceforge.net/DTD/sodipodi-0.dtd"
   xmlns:xlink="http://www.w3.org/1999/xlink"
   xmlns="http://www.w3.org/2000/svg"
   xmlns:svg="http://www.w3.org/2000/svg">
  <sodipodi:namedview
     id="namedview2537"
     pagecolor="#ffffff"
     bordercolor="#000000"
     borderopacity="0.25"
     inkscape:showpageshadow="2"
     inkscape:pageopacity="0.0"
     inkscape:pagecheckerboard="0"
     inkscape:deskcolor="#d1d1d1"
     inkscape:document-units="px"
     showgrid="false"
     inkscape:zoom="17.770833"
     inkscape:cx="23.971864"
     inkscape:cy="24"
     inkscape:window-width="1920"
     inkscape:window-height="1029"
     inkscape:window-x="0"
     inkscape:window-y="0"
     inkscape:window-maximized="1"
     inkscape:current-layer="svg2535"
     showguides="false" />
  <defs
     id="defs2532">
    <linearGradient
       inkscape:collect="always"
       id="linearGradient11400">
      <stop
         style="stop-color:#92bf87;stop-opacity:1;"
         offset="0"
         id="stop11396" />
      <stop
         style="stop-color:#66875b;stop-opacity:1;"
         offset="1"
         id="stop11398" />
    </linearGradient>
    <linearGradient
       inkscape:collect="always"
       id="linearGradient10632">
      <stop
         style="stop-color:#e6e6e4;stop-opacity:1;"
         offset="0"
         id="stop10628" />
      <stop
         style="stop-color:#bcbcb9;stop-opacity:1;"
         offset="1"
         id="stop10630" />
    </linearGradient>
    <linearGradient
       inkscape:collect="always"
       id="linearGradient10590">
      <stop
         style="stop-color:#d38100;stop-opacity:1;"
         offset="0"
         id="stop10586" />
      <stop
         style="stop-color:#e16300;stop-opacity:1;"
         offset="1"
         id="stop10588" />
    </linearGradient>
    <linearGradient
       inkscape:collect="always"
       xlink:href="#linearGradient10632"
       id="linearGradient986"
       x1="2.9104166"
       y1="0.5291667"
       x2="6.1912498"
       y2="4.9741669"
       gradientUnits="userSpaceOnUse"
       gradientTransform="matrix(9.4488188,0,0,9.4488188,-19.499998,-2.0000002)" />
    <linearGradient
       inkscape:collect="always"
       xlink:href="#linearGradient11400"
       id="linearGradient1114"
       x1="2.9104166"
       y1="1.0054166"
       x2="4.945673"
       y2="1.9125595"
       gradientUnits="userSpaceOnUse"
       gradientTransform="matrix(12.283465,0,0,8.8188975,-24.75,-2.866666)" />
    <linearGradient
       inkscape:collect="always"
       xlink:href="#linearGradient10590"
       id="linearGradient2162"
       x1="2.6458335"
       y1="2.3812501"
       x2="3.1750002"
       y2="3.7041669"
       gradientUnits="userSpaceOnUse"
       gradientTransform="matrix(13.228345,0,0,12.094488,-5.9999991,-2.8000005)" />
  </defs>
  <rect
     style="fill:url(#linearGradient986);fill-opacity:1.0;stroke-width:5;stroke-linecap:round;stroke-linejoin:round;stroke-dasharray:60, 5"
     id="rect846"
     width="31"
     height="42"
     x="8"
     y="3"
     ry="3" />
  <rect
     style="fill:url(#linearGradient1114);fill-opacity:1.0;stroke-width:2.75377"
     id="rect960"
     width="25"
     height="8"
     x="11"
     y="6"
     ry="1" />
  <rect
     style="fill:url(#linearGradient2162);fill-opacity:1.0;stroke-width:3.34662"
     id="rect473"
     width="7"
     height="16"
     x="29"
     y="26"
     ry="3.5" />
  <path
     id="path8258"
     style="fill:#909090;stroke-linecap:round;fill-opacity:1"
     d="M 14.5 17 A 3.5 3.5 0 0 0 11 20.5 A 3.5 3.5 0 0 0 14.5 24 A 3.5 3.5 0 0 0 18 20.5 A 3.5 3.5 0 0 0 14.5 17 z M 23.5 17 A 3.5 3.5 0 0 0 20 20.5 A 3.5 3.5 0 0 0 23.5 24 A 3.5 3.5 0 0 0 27 20.5 A 3.5 3.5 0 0 0 23.5 17 z M 32.5 17 A 3.5 3.5 0 0 0 29 20.5 A 3.5 3.5 0 0 0 32.5 24 A 3.5 3.5 0 0 0 36 20.5 A 3.5 3.5 0 0 0 32.5 17 z " />
  <path
     id="path9349"
     style="fill:#4f4f4f;stroke-linecap:round;fill-opacity:1"
     d="M 14.5 26 A 3.5 3.5 0 0 0 11 29.5 A 3.5 3.5 0 0 0 14.5 33 A 3.5 3.5 0 0 0 18 29.5 A 3.5 3.5 0 0 0 14.5 26 z M 23.5 26 A 3.5 3.5 0 0 0 20 29.5 A 3.5 3.5 0 0 0 23.5 33 A 3.5 3.5 0 0 0 27 29.5 A 3.5 3.5 0 0 0 23.5 26 z M 14.5 35 A 3.5 3.5 0 0 0 11 38.5 A 3.5 3.5 0 0 0 14.5 42 A 3.5 3.5 0 0 0 18 38.5 A 3.5 3.5 0 0 0 14.5 35 z M 23.5 35 A 3.5 3.5 0 0 0 20 38.5 A 3.5 3.5 0 0 0 23.5 42 A 3.5 3.5 0 0 0 27 38.5 A 3.5 3.5 0 0 0 23.5 35 z " />
</svg>
