<?xml version="1.0" encoding="UTF-8" standalone="no"?>
<!-- Created with Inkscape (http://www.inkscape.org/) -->

<svg
   width="48"
   height="48"
   viewBox="0 0 48 48"
   version="1.1"
   id="svg1659"
   inkscape:version="1.2.2 (1:1.2.2+202305151914+b0a8486541)"
   sodipodi:docname="gnome-sudoku.svg"
   xmlns:inkscape="http://www.inkscape.org/namespaces/inkscape"
   xmlns:sodipodi="http://sodipodi.sourceforge.net/DTD/sodipodi-0.dtd"
   xmlns="http://www.w3.org/2000/svg"
   xmlns:svg="http://www.w3.org/2000/svg">
  <sodipodi:namedview
     id="namedview1661"
     pagecolor="#ffffff"
     bordercolor="#000000"
     borderopacity="0.25"
     inkscape:showpageshadow="2"
     inkscape:pageopacity="0.0"
     inkscape:pagecheckerboard="0"
     inkscape:deskcolor="#d1d1d1"
     inkscape:document-units="px"
     showgrid="false"
     inkscape:zoom="16.791667"
     inkscape:cx="23.970223"
     inkscape:cy="24"
     inkscape:window-width="1920"
     inkscape:window-height="1008"
     inkscape:window-x="0"
     inkscape:window-y="0"
     inkscape:window-maximized="1"
     inkscape:current-layer="svg1659"
     showguides="false" />
  <defs
     id="defs1656" />
  <rect
     style="fill:#e1d3bb;fill-opacity:1;stroke-width:1.71429;stroke-linecap:round;stroke-linejoin:round"
     id="rect2238"
     width="42"
     height="42"
     x="3"
     y="3"
     ry="4" />
  <path
     id="rect2309"
     style="fill:#efe8db;fill-opacity:1;stroke-width:2;stroke-linecap:round;stroke-linejoin:round"
     d="M 31,3 V 17 H 45 V 7 C 45,4.7840022 43.215998,3 41,3 Z"
     sodipodi:nodetypes="cccssc" />
  <path
     id="rect2311"
     style="fill:#d8c4a4;fill-opacity:1;stroke-width:2;stroke-linecap:round;stroke-linejoin:round"
     d="M 7,3 C 4.7840034,3 3,4.7840044 3,7 V 17 H 17 V 3 Z M 17,17 V 31 H 31 V 17 Z m 14,14 v 14 h 10 c 2.215996,0 4,-1.784004 4,-4 V 31 Z"
     sodipodi:nodetypes="sscccscccccccsscc" />
  <path
     id="rect2520"
     style="fill:#c7af87;fill-opacity:1;stroke-width:2;stroke-linecap:round;stroke-linejoin:round"
     d="M 3,17 V 31 H 17 V 17 Z M 17,31 V 45 H 31 V 31 Z"
     sodipodi:nodetypes="cccccccccc" />
  <path
     id="rect2550"
     style="fill:#bda070;fill-opacity:1;stroke-width:2;stroke-linecap:round;stroke-linejoin:round"
     d="m 3,31 v 10 c 0,2.215998 1.7840022,4 4,4 H 17 V 31 Z"
     sodipodi:nodetypes="cssccc" />
</svg>
