<?xml version="1.0" encoding="UTF-8" standalone="no"?>
<!-- Created with Inkscape (http://www.inkscape.org/) -->

<svg
   width="48"
   height="48"
   viewBox="0 0 48 48"
   version="1.1"
   id="svg69118"
   inkscape:version="1.2.1 (9c6d41e410, 2022-07-14, custom)"
   sodipodi:docname="gufw.svg"
   xmlns:inkscape="http://www.inkscape.org/namespaces/inkscape"
   xmlns:sodipodi="http://sodipodi.sourceforge.net/DTD/sodipodi-0.dtd"
   xmlns:xlink="http://www.w3.org/1999/xlink"
   xmlns="http://www.w3.org/2000/svg"
   xmlns:svg="http://www.w3.org/2000/svg">
  <sodipodi:namedview
     id="namedview69120"
     pagecolor="#ffffff"
     bordercolor="#666666"
     borderopacity="1.0"
     inkscape:pageshadow="2"
     inkscape:pageopacity="0.0"
     inkscape:pagecheckerboard="0"
     inkscape:document-units="px"
     showgrid="false"
     units="px"
     inkscape:zoom="16.708333"
     inkscape:cx="24"
     inkscape:cy="24"
     inkscape:window-width="1920"
     inkscape:window-height="1011"
     inkscape:window-x="0"
     inkscape:window-y="0"
     inkscape:window-maximized="1"
     inkscape:current-layer="svg69118"
     inkscape:showpageshadow="2"
     inkscape:deskcolor="#d1d1d1" />
  <defs
     id="defs69115">
    <linearGradient
       inkscape:collect="always"
       id="linearGradient5685">
      <stop
         style="stop-color:#f8f8f8;stop-opacity:1;"
         offset="0"
         id="stop5681" />
      <stop
         style="stop-color:#c7c7c7;stop-opacity:1;"
         offset="1"
         id="stop5683" />
    </linearGradient>
    <linearGradient
       inkscape:collect="always"
       xlink:href="#linearGradient1615"
       id="linearGradient8763"
       x1="26.446239"
       y1="29.929234"
       x2="9.3050003"
       y2="3.0284214"
       gradientUnits="userSpaceOnUse"
       gradientTransform="matrix(1.4999999,0,0,1.4877684,4e-7,0.4599274)" />
    <linearGradient
       inkscape:collect="always"
       id="linearGradient1615">
      <stop
         style="stop-color:#592ea8;stop-opacity:1;"
         offset="0"
         id="stop1611" />
      <stop
         style="stop-color:#8962c9;stop-opacity:1;"
         offset="1"
         id="stop1613" />
    </linearGradient>
    <linearGradient
       inkscape:collect="always"
       xlink:href="#linearGradient5685"
       id="linearGradient5679"
       x1="4.5400023"
       y1="2.2835441"
       x2="7.0998597"
       y2="5.1087084"
       gradientUnits="userSpaceOnUse"
       gradientTransform="matrix(5.6692914,0,0,5.6041267,2e-7,0.5172415)" />
  </defs>
  <path
     id="path5150"
     style="color:#000000;fill:url(#linearGradient8763);fill-opacity:1;stroke-width:1.49387;stroke-linecap:round;stroke-linejoin:round"
     d="M 24,2 C 20.088423,2.2717674 17.457522,2.6635494 13.957031,4.9648437 10.620644,6.7935453 7.317278,7.9427458 5.0000001,8 3.8954316,8 3,8.8954317 3,10 v 12.757812 0.002 c 0,4.743526 3.3341367,10.081794 7.669922,14.47261 C 14.581185,41.193194 19.359003,44.418998 24,44.999999 28.641,44.419002 33.418813,41.193194 37.330078,37.232422 41.665863,32.841606 45,27.468182 45,22.72461 V 22.72261 10 C 45,8.8954313 44.104569,7.9999992 42.999999,8 40.682717,7.9427458 37.379359,6.7935461 34.042969,4.9648437 30.542481,2.66355 27.911578,2.271768 24,2 Z" />
  <path
     id="rect2691"
     style="fill:url(#linearGradient5679);fill-opacity:1;stroke-width:2.9827;stroke-linecap:round"
     d="M 35.808594,5.8496094 4.6113282,28.976563 c 1.386576,2.870446 3.5548585,5.720346 6.0585938,8.255859 0.969981,0.98226 1.991468,1.920516 3.052735,2.783204 L 45,16.828125 V 10 C 45,8.8954313 44.104569,7.9999992 42.999999,8 41.084398,7.9526705 38.652314,7.1443025 35.808594,5.8496094 Z"
     sodipodi:nodetypes="cccccccc" />
</svg>
