<?xml version="1.0" encoding="UTF-8" standalone="no"?>
<!-- Created with Inkscape (http://www.inkscape.org/) -->

<svg
   width="48"
   height="48"
   viewBox="0 0 48 48"
   version="1.1"
   id="svg5"
   inkscape:version="1.2.1 (9c6d41e410, 2022-07-14, custom)"
   sodipodi:docname="internet-web-browser.svg"
   xmlns:inkscape="http://www.inkscape.org/namespaces/inkscape"
   xmlns:sodipodi="http://sodipodi.sourceforge.net/DTD/sodipodi-0.dtd"
   xmlns:xlink="http://www.w3.org/1999/xlink"
   xmlns="http://www.w3.org/2000/svg"
   xmlns:svg="http://www.w3.org/2000/svg">
  <sodipodi:namedview
     id="namedview7"
     pagecolor="#ffffff"
     bordercolor="#666666"
     borderopacity="1.0"
     inkscape:pageshadow="2"
     inkscape:pageopacity="0.0"
     inkscape:pagecheckerboard="0"
     inkscape:document-units="px"
     showgrid="false"
     units="px"
     height="16px"
     showguides="true"
     inkscape:zoom="16.770833"
     inkscape:cx="22.390063"
     inkscape:cy="23.970187"
     inkscape:window-width="1920"
     inkscape:window-height="1012"
     inkscape:window-x="0"
     inkscape:window-y="0"
     inkscape:window-maximized="1"
     inkscape:current-layer="svg5"
     inkscape:showpageshadow="2"
     inkscape:deskcolor="#d1d1d1" />
  <defs
     id="defs2">
    <linearGradient
       inkscape:collect="always"
       xlink:href="#linearGradient984"
       id="linearGradient7450"
       x1="2.9104171"
       y1="3.1750004"
       x2="14.552084"
       y2="12.700001"
       gradientUnits="userSpaceOnUse"
       gradientTransform="matrix(2.7368992,0,0,2.7368992,0.827588,0.8275866)" />
    <linearGradient
       inkscape:collect="always"
       id="linearGradient984">
      <stop
         style="stop-color:#26b4eb;stop-opacity:1;"
         offset="0"
         id="stop980" />
      <stop
         style="stop-color:#15b393;stop-opacity:1"
         offset="1"
         id="stop982" />
    </linearGradient>
    <linearGradient
       inkscape:collect="always"
       id="linearGradient3933">
      <stop
         style="stop-color:#93daee;stop-opacity:1"
         offset="0"
         id="stop3929" />
      <stop
         style="stop-color:#afe5e3;stop-opacity:1"
         offset="1"
         id="stop3931" />
    </linearGradient>
    <linearGradient
       inkscape:collect="always"
       xlink:href="#linearGradient3933"
       id="linearGradient1885"
       x1="4.4795966"
       y1="20.537598"
       x2="39.649429"
       y2="40.046406"
       gradientUnits="userSpaceOnUse"
       gradientTransform="translate(-1,-1)" />
  </defs>
  <circle
     style="fill:url(#linearGradient7450);fill-opacity:1;stroke-width:3.08351;stroke-linecap:round;stroke-linejoin:round"
     id="path7362"
     cx="24"
     cy="24"
     r="21" />
  <path
     id="path1323"
     style="opacity:0.6;fill:url(#linearGradient1885);fill-opacity:1"
     d="M 24,3 A 21,21 0 0 0 3,24 21,21 0 0 0 24,45 21,21 0 0 0 45,24 21,21 0 0 0 24,3 Z m 0,2 A 19,19 0 0 1 28.193359,5.4746094 19,19 0 0 1 41.228516,16 H 32.320312 A 9,21 0 0 0 28.193359,5.4746094 19,19 0 0 0 24,5 Z m 0,0 a 7,19 0 0 1 6.347656,11 H 17.666016 A 7,19 0 0 1 24,5 Z M 21.640625,5.1855469 A 19,19 0 0 0 19.958984,5.4902344 19,19 0 0 1 21.640625,5.1855469 Z M 19.757812,5.5390625 A 9,21 0 0 0 15.679688,16 H 6.8105469 A 19,19 0 0 1 19.757812,5.5390625 Z M 41.242188,16.03125 A 19,19 0 0 1 43,24 19,19 0 0 1 41.664062,30.851562 19,19 0 0 0 41.990234,30 H 32.611328 A 9,21 0 0 0 33,24 9,21 0 0 0 32.623047,18 h 9.398437 A 19,19 0 0 0 41.242188,16.03125 Z M 6.3359375,17.148438 A 19,19 0 0 0 6.0097656,18 H 15.388672 A 9,21 0 0 0 15,24 9,21 0 0 0 15.388672,30 H 6.0097656 A 19,19 0 0 0 6.3359375,30.851562 19,19 0 0 1 5,24 19,19 0 0 1 6.3359375,17.148438 Z M 17.373047,18 H 30.640625 A 7,19 0 0 1 31,24 7,19 0 0 1 30.626953,30 H 17.373047 A 7,19 0 0 1 17,24 7,19 0 0 1 17.373047,18 Z M 6.8105469,32 H 15.679688 A 9,21 0 0 0 19.757812,42.460938 19,19 0 0 1 6.8105469,32 Z M 17.666016,32 H 30.333984 A 7,19 0 0 1 24,43 7,19 0 0 1 17.666016,32 Z m 14.654296,0 h 8.869141 A 19,19 0 0 1 28.242188,42.460938 9,21 0 0 0 32.320312,32 Z M 19.958984,42.509766 a 19,19 0 0 0 1.681641,0.304687 19,19 0 0 1 -1.681641,-0.304687 z m 8.082032,0 a 19,19 0 0 1 -1.681641,0.304687 19,19 0 0 0 1.681641,-0.304687 z" />
</svg>
