<?xml version="1.0" encoding="UTF-8" standalone="no"?>
<!-- Created with Inkscape (http://www.inkscape.org/) -->

<svg
   width="48"
   height="48"
   viewBox="0 0 48 48"
   version="1.1"
   id="svg5"
   inkscape:version="1.2.1 (9c6d41e410, 2022-07-14, custom)"
   sodipodi:docname="kate.svg"
   xmlns:inkscape="http://www.inkscape.org/namespaces/inkscape"
   xmlns:sodipodi="http://sodipodi.sourceforge.net/DTD/sodipodi-0.dtd"
   xmlns:xlink="http://www.w3.org/1999/xlink"
   xmlns="http://www.w3.org/2000/svg"
   xmlns:svg="http://www.w3.org/2000/svg">
  <sodipodi:namedview
     id="namedview7"
     pagecolor="#ffffff"
     bordercolor="#000000"
     borderopacity="0.25"
     inkscape:showpageshadow="2"
     inkscape:pageopacity="0.0"
     inkscape:pagecheckerboard="0"
     inkscape:deskcolor="#d1d1d1"
     inkscape:document-units="px"
     showgrid="false"
     inkscape:zoom="16.854167"
     inkscape:cx="23.970334"
     inkscape:cy="24"
     inkscape:window-width="1920"
     inkscape:window-height="1012"
     inkscape:window-x="0"
     inkscape:window-y="0"
     inkscape:window-maximized="1"
     inkscape:current-layer="svg5" />
  <defs
     id="defs2">
    <linearGradient
       inkscape:collect="always"
       id="linearGradient13862">
      <stop
         style="stop-color:#e6e6e6;stop-opacity:1;"
         offset="0"
         id="stop13858" />
      <stop
         style="stop-color:#b3b3b3;stop-opacity:1;"
         offset="1"
         id="stop13860" />
    </linearGradient>
    <linearGradient
       inkscape:collect="always"
       id="linearGradient10942">
      <stop
         style="stop-color:#cccccc;stop-opacity:1;"
         offset="0"
         id="stop10938" />
      <stop
         style="stop-color:#b3b3b3;stop-opacity:1;"
         offset="1"
         id="stop10940" />
    </linearGradient>
    <linearGradient
       inkscape:collect="always"
       id="linearGradient9482">
      <stop
         style="stop-color:#e6e6e6;stop-opacity:1;"
         offset="0"
         id="stop9478" />
      <stop
         style="stop-color:#ffffff;stop-opacity:1;"
         offset="1"
         id="stop9480" />
    </linearGradient>
    <linearGradient
       inkscape:collect="always"
       id="linearGradient5110">
      <stop
         style="stop-color:#ffffff;stop-opacity:1;"
         offset="0"
         id="stop5106" />
      <stop
         style="stop-color:#b3b3b3;stop-opacity:1;"
         offset="1"
         id="stop5108" />
    </linearGradient>
    <linearGradient
       inkscape:collect="always"
       xlink:href="#linearGradient5110"
       id="linearGradient5112"
       x1="37.078941"
       y1="12.288808"
       x2="20.276628"
       y2="31.786217"
       gradientUnits="userSpaceOnUse"
       gradientTransform="matrix(1.0178574,0,0,1.0178574,0.3214259,-0.16071712)" />
    <linearGradient
       inkscape:collect="always"
       xlink:href="#linearGradient5110"
       id="linearGradient6572"
       x1="26.609182"
       y1="31.458633"
       x2="25.756056"
       y2="21.949287"
       gradientUnits="userSpaceOnUse"
       gradientTransform="matrix(1.0178574,0,0,1.0178574,0.3214259,-0.16071712)" />
    <linearGradient
       inkscape:collect="always"
       xlink:href="#linearGradient9482"
       id="linearGradient9484"
       x1="13.481789"
       y1="26.418924"
       x2="37.078941"
       y2="14.640833"
       gradientUnits="userSpaceOnUse"
       gradientTransform="matrix(1.0178574,0,0,1.0178574,0.3214259,-0.16071712)" />
    <linearGradient
       inkscape:collect="always"
       xlink:href="#linearGradient10942"
       id="linearGradient10944"
       x1="26.245859"
       y1="9.2360821"
       x2="23.220625"
       y2="16.559277"
       gradientUnits="userSpaceOnUse"
       gradientTransform="matrix(1.0178574,0,0,1.0178574,0.3214259,-0.16071712)" />
    <linearGradient
       inkscape:collect="always"
       xlink:href="#linearGradient5110"
       id="linearGradient12404"
       x1="17.576595"
       y1="12.781805"
       x2="28.050064"
       y2="10.215283"
       gradientUnits="userSpaceOnUse"
       gradientTransform="matrix(1.0178574,0,0,1.0178574,0.3214259,-0.16071712)" />
    <linearGradient
       inkscape:collect="always"
       xlink:href="#linearGradient13862"
       id="linearGradient13864"
       x1="15.023741"
       y1="11.6178"
       x2="20.870384"
       y2="17.389194"
       gradientUnits="userSpaceOnUse"
       gradientTransform="matrix(1.0178574,0,0,1.0178574,0.3214259,-0.16071712)" />
    <linearGradient
       inkscape:collect="always"
       xlink:href="#linearGradient25654"
       id="linearGradient903"
       x1="16"
       y1="15.943359"
       x2="0"
       y2="0"
       gradientUnits="userSpaceOnUse"
       gradientTransform="matrix(2.625,0,0,2.625,3.0000024,2.9999997)" />
    <linearGradient
       inkscape:collect="always"
       id="linearGradient25654">
      <stop
         style="stop-color:#2a7fff;stop-opacity:1;"
         offset="0"
         id="stop25650" />
      <stop
         style="stop-color:#00ccff;stop-opacity:1;"
         offset="1"
         id="stop25652" />
    </linearGradient>
  </defs>
  <circle
     style="fill:url(#linearGradient903);fill-opacity:1;stroke-width:2.625;stroke-linecap:round;stroke-linejoin:round"
     id="path318"
     cx="24"
     cy="24"
     r="21" />
  <path
     style="fill:url(#linearGradient13864);fill-opacity:1;stroke-width:1.14299"
     d="M 19.738868,17.903992 C 18.522549,13.866002 11.648947,14.845845 10.5,14.758179 c 1.289563,-0.640135 2.447627,-0.403386 5.106126,-2.329226 5.121414,-3.7099862 8.714539,-3.759298 11.429843,-2.285969 -7.423244,0.282188 -4.172635,4.420371 -3.079259,6.55128 -1.390453,0.403884 -3.585387,1.013573 -4.217842,1.209728 z"
     id="path10" />
  <path
     style="fill:url(#linearGradient5112);fill-opacity:1;stroke-width:1.14299"
     d="m 38.0625,12.347537 c -2.673117,3.530857 -7.117449,8.301289 -11.981513,8.929678 -4.864068,0.628382 -9.958288,-0.06774 -11.03243,3.554776 -0.989184,3.33602 2.947004,6.450697 6.555384,5.70002 3.854877,-0.80196 3.022356,-5.171189 0.913891,-8.146521 1.601579,-0.09183 0.659225,0.467221 3.375152,0.330313 l 1.764093,5.500599 c 1.012657,2.541866 3.481986,8.310884 3.950828,12.787157 -2.254598,-3.239715 -3.414223,-4.430307 -6.90832,-6.767538 -4.475708,-2.993841 -8.557639,-3.095194 -10.65562,-7.506039 -2.093452,-4.401318 1.134635,-7.571756 6.093071,-8.944776 7.08597,-1.962152 13.191474,-3.822449 17.925464,-5.437669 z"
     id="path12" />
  <path
     style="fill:url(#linearGradient6572);fill-opacity:1;stroke-width:1.14299"
     d="m 22.517834,22.38549 c 1.601578,-0.09183 1.303659,-0.06806 4.019583,-0.204963 C 30.585655,25.631214 31.927482,26.825163 39,31.859685 31.891171,31.351149 26.51244,29.044429 22.517834,22.38549 Z"
     id="path14" />
  <path
     style="fill:url(#linearGradient12404);fill-opacity:1;stroke-width:1.14299"
     d="m 10.5,14.758179 c 1.289563,-0.640135 2.454953,-1.167791 5.113453,-3.093632 5.121414,-3.7099855 10.543638,-2.9008885 13.25894,-1.427562 -7.423241,0.28219 -6.466778,1.761259 -6.494174,2.920759 C 17.446199,12.118139 16.006155,13.53262 10.5,14.758179 Z"
     id="path16" />
  <path
     style="fill:url(#linearGradient10944);fill-opacity:1;stroke-width:1.14299"
     d="m 28.872393,10.236985 c -7.423241,0.28219 -6.009057,4.326372 -4.915683,6.457278 -0.866252,0.251619 -1.234209,0.538268 -2.392206,0.844739 -4.672405,-8.325431 3.49438,-9.4085182 7.307889,-7.302017 z"
     id="path18" />
  <path
     style="fill:url(#linearGradient9484);fill-opacity:1;stroke-width:1.14299"
     d="M 15.380656,28.804033 C 11.748128,24.126708 12.875954,19.839528 19.988968,17.612054 27.008337,15.413896 33.32851,13.962755 38.0625,12.347537 25.287217,17.215195 8.8329503,20.467745 15.380656,28.804033 Z"
     id="path20" />
</svg>
