<?xml version="1.0" encoding="UTF-8" standalone="no"?>
<!-- Created with Inkscape (http://www.inkscape.org/) -->

<svg
   width="48"
   height="48"
   viewBox="0 0 48 48"
   version="1.1"
   id="svg1743"
   inkscape:version="1.2.1 (9c6d41e410, 2022-07-14, custom)"
   sodipodi:docname="kmenuedit.svg"
   xmlns:inkscape="http://www.inkscape.org/namespaces/inkscape"
   xmlns:sodipodi="http://sodipodi.sourceforge.net/DTD/sodipodi-0.dtd"
   xmlns:xlink="http://www.w3.org/1999/xlink"
   xmlns="http://www.w3.org/2000/svg"
   xmlns:svg="http://www.w3.org/2000/svg">
  <sodipodi:namedview
     id="namedview1745"
     pagecolor="#ffffff"
     bordercolor="#000000"
     borderopacity="0.25"
     inkscape:showpageshadow="2"
     inkscape:pageopacity="0.0"
     inkscape:pagecheckerboard="0"
     inkscape:deskcolor="#d1d1d1"
     inkscape:document-units="px"
     showgrid="false"
     inkscape:zoom="17.083333"
     inkscape:cx="23.970732"
     inkscape:cy="24"
     inkscape:window-width="1920"
     inkscape:window-height="1029"
     inkscape:window-x="0"
     inkscape:window-y="0"
     inkscape:window-maximized="1"
     inkscape:current-layer="svg1743" />
  <defs
     id="defs1740">
    <linearGradient
       inkscape:collect="always"
       xlink:href="#linearGradient223269"
       id="linearGradient964"
       x1="1.2239094"
       y1="5.6419735"
       x2="8.6322432"
       y2="6.7003021"
       gradientUnits="userSpaceOnUse"
       gradientTransform="matrix(5.6692912,0,0,6.6141731,-3.9386992,0.68301291)" />
    <linearGradient
       inkscape:collect="always"
       id="linearGradient223269">
      <stop
         style="stop-color:#555556;stop-opacity:1;"
         offset="0"
         id="stop223265" />
      <stop
         style="stop-color:#2d2d2d;stop-opacity:1"
         offset="1"
         id="stop223267" />
    </linearGradient>
    <linearGradient
       inkscape:collect="always"
       xlink:href="#linearGradient1122"
       id="linearGradient1830"
       x1="14.988826"
       y1="10.059986"
       x2="14.988826"
       y2="7.9433188"
       gradientUnits="userSpaceOnUse"
       gradientTransform="matrix(1.4173226,0,0,1.4173226,19.755986,28.741727)" />
    <linearGradient
       inkscape:collect="always"
       id="linearGradient1122">
      <stop
         style="stop-color:#8e9ba2;stop-opacity:1"
         offset="0"
         id="stop1118" />
      <stop
         style="stop-color:#cdd2d7;stop-opacity:1"
         offset="1"
         id="stop1120" />
    </linearGradient>
    <linearGradient
       inkscape:collect="always"
       xlink:href="#linearGradient1122"
       id="linearGradient2130"
       x1="11.813827"
       y1="10.059986"
       x2="11.813827"
       y2="7.9433188"
       gradientUnits="userSpaceOnUse"
       gradientTransform="matrix(1.4173226,0,0,1.4173226,18.255985,28.741727)" />
    <linearGradient
       inkscape:collect="always"
       xlink:href="#linearGradient1122"
       id="linearGradient2268"
       x1="8.6388283"
       y1="10.059986"
       x2="8.6388283"
       y2="7.9433188"
       gradientUnits="userSpaceOnUse"
       gradientTransform="matrix(1.4173226,0,0,1.4173226,16.75598,28.741727)" />
    <linearGradient
       inkscape:collect="always"
       xlink:href="#linearGradient5986"
       id="linearGradient5988"
       x1="1.3229167"
       y1="0.66145837"
       x2="2.9104166"
       y2="0.66145837"
       gradientUnits="userSpaceOnUse"
       gradientTransform="matrix(11.338582,0,0,3.7795273,6.5e-7,4.0000001)" />
    <linearGradient
       inkscape:collect="always"
       id="linearGradient5986">
      <stop
         style="stop-color:#cbcbcb;stop-opacity:1;"
         offset="0"
         id="stop5982" />
      <stop
         style="stop-color:#c4c4c4;stop-opacity:1"
         offset="0.5"
         id="stop6054" />
      <stop
         style="stop-color:#cbcbcb;stop-opacity:1"
         offset="1"
         id="stop5984" />
    </linearGradient>
    <linearGradient
       inkscape:collect="always"
       xlink:href="#linearGradient5986"
       id="linearGradient6470"
       x1="1.3229167"
       y1="0.66145837"
       x2="2.9104166"
       y2="0.66145837"
       gradientUnits="userSpaceOnUse"
       gradientTransform="matrix(11.338583,0,0,3.7795273,1.25e-6,14)" />
    <linearGradient
       inkscape:collect="always"
       xlink:href="#linearGradient6878"
       id="linearGradient6880"
       x1="2.1166666"
       y1="1.0583334"
       x2="2.1166668"
       y2="1.5875001"
       gradientUnits="userSpaceOnUse"
       gradientTransform="matrix(10.077772,0,0,7.5583287,1.6679464,1.0011529)" />
    <linearGradient
       inkscape:collect="always"
       id="linearGradient6878">
      <stop
         style="stop-color:#28afea;stop-opacity:1;"
         offset="0"
         id="stop6874" />
      <stop
         style="stop-color:#047ed6;stop-opacity:1"
         offset="1"
         id="stop6876" />
    </linearGradient>
    <linearGradient
       inkscape:collect="always"
       xlink:href="#linearGradient6878"
       id="linearGradient7174"
       x1="2.1166666"
       y1="2.3812504"
       x2="2.1166666"
       y2="3.1750004"
       gradientUnits="userSpaceOnUse"
       gradientTransform="matrix(5.0388857,0,0,5.0388857,8.333973,7.0010054)" />
    <linearGradient
       inkscape:collect="always"
       xlink:href="#linearGradient5986"
       id="linearGradient1941"
       x1="5.291667"
       y1="5.2916665"
       x2="11.641667"
       y2="5.2916665"
       gradientUnits="userSpaceOnUse"
       gradientTransform="matrix(2.8346454,0,0,1.8897636,-1e-6,16.499856)" />
  </defs>
  <rect
     style="fill:url(#linearGradient964);fill-opacity:1;stroke-width:6.48073;stroke-linecap:round;stroke-linejoin:round"
     id="rect956"
     width="42"
     height="7"
     x="3"
     y="38"
     ry="2" />
  <rect
     style="fill:url(#linearGradient1830);fill-opacity:1;stroke-width:1.5;stroke-linecap:round;stroke-linejoin:round"
     id="rect1330"
     width="3"
     height="3"
     x="38.000008"
     y="40"
     ry="1" />
  <rect
     style="fill:url(#linearGradient2130);fill-opacity:1;stroke-width:1.5;stroke-linecap:round;stroke-linejoin:round"
     id="rect1332"
     width="3"
     height="3"
     x="32"
     y="40"
     ry="1" />
  <rect
     style="fill:url(#linearGradient2268);fill-opacity:1;stroke-width:1.5;stroke-linecap:round;stroke-linejoin:round"
     id="rect1436"
     width="3"
     height="3"
     x="26"
     y="40"
     ry="1" />
  <rect
     style="fill:#b3b3b3;fill-opacity:1;stroke-width:1.33333;stroke-linejoin:round"
     id="rect1328"
     width="24"
     height="33"
     x="12"
     y="3"
     ry="1" />
  <rect
     style="fill:#ffffff;fill-opacity:1;stroke-width:0.999999;stroke-linejoin:round"
     id="rect1540"
     height="31"
     x="13"
     y="4"
     width="22" />
  <rect
     style="fill:url(#linearGradient5988);fill-opacity:1;stroke-width:1.73205;stroke-linejoin:round"
     id="rect5856"
     width="17.999998"
     height="1"
     x="14.999999"
     y="5.9999995" />
  <rect
     style="fill:url(#linearGradient6470);fill-opacity:1;stroke-width:1.73205;stroke-linejoin:round"
     id="rect6380"
     width="17.999998"
     height="1"
     x="14.999999"
     y="16" />
  <path
     id="rect6494"
     style="fill:url(#linearGradient6880);stroke-width:1.99981;stroke-linejoin:round"
     d="M 16.921875,9 C 15.850015,9.0402594 15,9.9179386 15,11 c 0,1.107892 0.892108,2 2,2 h 5 c 1.107892,0 2,-0.892108 2,-2 0,-1.1078924 -0.892108,-2 -2,-2 h -5 c -0.01728,0 -0.03553,-4.323e-4 -0.05273,0 -0.0085,2.13e-4 -0.01695,-3.17e-4 -0.02539,0 z M 17,10 a 0.99999994,1 0 0 1 1,1 0.99999994,1 0 0 1 -1,1 0.99999994,1 0 0 1 -1,-1 0.99999994,1 0 0 1 1,-1 z" />
  <path
     id="rect6598"
     style="fill:url(#linearGradient7174);stroke-width:1.33321;stroke-linejoin:round"
     d="M 16.921875,19 C 15.850015,19.040265 15,19.917938 15,21 c 0,1.107892 0.892108,2 2,2 h 5 c 1.107893,0 2,-0.892108 2,-2 0,-1.107892 -0.892107,-2 -2,-2 h -5 c -0.01733,0 -0.03553,-4.32e-4 -0.05273,0 -0.0085,2.13e-4 -0.01695,-3.17e-4 -0.02539,0 z M 22,20 a 0.99999994,1 0 0 1 1,1 0.99999994,1 0 0 1 -1,1 0.99999994,1 0 0 1 -1,-1 0.99999994,1 0 0 1 1,-1 z" />
  <rect
     style="fill:url(#linearGradient1941);fill-opacity:1;stroke-width:0.612369;stroke-linejoin:round"
     id="rect1853"
     width="18"
     height="1"
     x="14.999999"
     y="25.999855" />
  <path
     id="rect1695"
     style="fill:#000000;fill-opacity:1;stroke-width:1.33327;stroke-linejoin:round"
     d="M 16.947266,29 C 15.863438,29.027279 15,29.909366 15,31 c 0,1.107945 0.892055,2 2,2 h 5 c 1.107945,0 2,-0.892055 2,-2 0,-1.107945 -0.892055,-2 -2,-2 h -5 c -0.01731,0 -0.03553,-4.33e-4 -0.05273,0 z m 1.783203,1 H 22 c 0.553971,0 1,0.446028 1,1 0,0.553971 -0.446029,1 -1,1 H 18.726562 A 2,2.0000002 0 0 0 19,31 2,2.0000002 0 0 0 18.730469,30 Z" />
</svg>
