<?xml version="1.0" encoding="UTF-8" standalone="no"?>
<!-- Created with Inkscape (http://www.inkscape.org/) -->

<svg
   width="48"
   height="48"
   viewBox="0 0 48 48"
   version="1.1"
   id="svg5"
   inkscape:version="1.3.2 (091e20ef0f, 2023-11-25, custom)"
   sodipodi:docname="knights.svg"
   xmlns:inkscape="http://www.inkscape.org/namespaces/inkscape"
   xmlns:sodipodi="http://sodipodi.sourceforge.net/DTD/sodipodi-0.dtd"
   xmlns:xlink="http://www.w3.org/1999/xlink"
   xmlns="http://www.w3.org/2000/svg"
   xmlns:svg="http://www.w3.org/2000/svg">
  <sodipodi:namedview
     id="namedview7"
     pagecolor="#ffffff"
     bordercolor="#666666"
     borderopacity="1.0"
     inkscape:pageshadow="2"
     inkscape:pageopacity="0.0"
     inkscape:pagecheckerboard="0"
     inkscape:document-units="px"
     showgrid="false"
     units="px"
     height="48px"
     inkscape:zoom="16.75"
     inkscape:cx="24"
     inkscape:cy="24"
     inkscape:window-width="1920"
     inkscape:window-height="1008"
     inkscape:window-x="0"
     inkscape:window-y="0"
     inkscape:window-maximized="1"
     inkscape:current-layer="svg5"
     inkscape:lockguides="true"
     inkscape:showpageshadow="2"
     inkscape:deskcolor="#d1d1d1" />
  <defs
     id="defs2">
    <linearGradient
       inkscape:collect="always"
       xlink:href="#linearGradient1327"
       id="linearGradient835"
       x1="8.9958334"
       y1="16.933334"
       x2="8.9958334"
       y2="2.1166668"
       gradientUnits="userSpaceOnUse"
       gradientTransform="matrix(2.8346458,0,0,2.8346458,-1.5,-3.0000005)" />
    <linearGradient
       inkscape:collect="always"
       xlink:href="#linearGradient1384"
       id="linearGradient1065"
       x1="34"
       y1="64"
       x2="34"
       y2="8"
       gradientUnits="userSpaceOnUse"
       gradientTransform="matrix(0.75000003,0,0,0.75000003,-1.5,-3.0000005)" />
    <linearGradient
       inkscape:collect="always"
       id="linearGradient1327">
      <stop
         style="stop-color:#323c4a;stop-opacity:1;"
         offset="0"
         id="stop1323" />
      <stop
         style="stop-color:#556171;stop-opacity:1;"
         offset="1"
         id="stop1325" />
    </linearGradient>
    <linearGradient
       inkscape:collect="always"
       id="linearGradient1384">
      <stop
         style="stop-color:#d1d1d1;stop-opacity:1;"
         offset="0"
         id="stop1380" />
      <stop
         style="stop-color:#f6f6f6;stop-opacity:1;"
         offset="1"
         id="stop1382" />
    </linearGradient>
  </defs>
  <path
     id="rect932"
     style="fill:url(#linearGradient835);fill-opacity:1;stroke-width:2.89655;stroke-linecap:round;stroke-linejoin:round"
     d="M 24.000002,3 H 40.5 C 42.993003,3 45,5.0069996 45,7.5 V 24.000001 L 24.000002,45.000004 H 7.4999996 C 5.0069996,45.000004 3,42.993003 3,40.500003 V 24.000001 Z"
     sodipodi:nodetypes="cssccsscc" />
  <path
     d="m 14.520672,26.000001 c -0.08732,0.04475 -0.187234,0.07828 -0.265901,0.139843 -0.151438,0.119599 -0.298942,0.247397 -0.434649,0.38516 -0.149079,0.151079 -0.303265,0.236761 -0.520794,0.282803 -0.522764,0.108994 -1.053388,0.229758 -1.541927,0.440639 -1.086428,0.470479 -1.8054682,1.356759 -2.3180016,2.42276 -0.4547086,0.9476 -0.4629714,1.974796 -0.4256051,3.006796 0.077099,2.129201 1.5871607,3.6836 2.2464127,5.322002 h 0.170714 c -0.25725,0 -0.464154,0.178016 -0.464154,0.399202 v 0.801596 c 0,0.221178 0.206903,0.399201 0.464154,0.399201 H 10.78701 c -0.336314,0 -0.606937,0.267213 -0.606937,0.599199 v 1.201599 c 0,0.331994 0.270622,0.599203 0.606937,0.599203 h 5.473048 c 0.336314,0 0.606937,-0.267213 0.606937,-0.599203 v -1.201603 c 0,-0.331993 -0.270626,-0.599195 -0.606937,-0.599195 h -0.643911 c 0.25725,0 0.464154,-0.178015 0.464154,-0.399205 v -0.801596 c 0,-0.221178 -0.206899,-0.399201 -0.464154,-0.399201 h 0.07159 c 0.166779,-0.159194 0.326082,-0.444401 0.474769,-0.6072 0.673809,-0.733599 0.794174,-1.774802 0.320977,-2.666401 -0.231289,-0.435197 -0.556589,-0.788398 -0.931843,-1.090401 -0.422456,-0.339999 -0.859073,-0.660397 -1.285069,-0.995195 -0.121935,-0.096 -0.22972,-0.209991 -0.391774,-0.360416 0.401609,0.08719 0.722188,0.200429 1.04552,0.21721 0.558161,0.02835 1.03962,0.218796 1.486463,0.553198 0.172676,0.129184 0.373285,0.232781 0.575469,0.304819 0.262761,0.09279 0.393346,0.02646 0.549901,-0.218003 0.04129,-0.0644 0.06608,-0.138823 0.105415,-0.223597 0.311134,0.0045 0.482246,-0.180397 0.567601,-0.476402 0.02914,-0.101216 0.07867,-0.194797 0.114467,-0.293216 0.241913,-0.659203 0.117611,-1.2428 -0.345755,-1.7516 -0.103453,-0.116409 -0.226571,-0.213203 -0.334741,-0.324812 -0.361092,-0.371184 -0.724152,-0.740382 -1.076199,-1.120383 -0.255676,-0.2764 -0.485785,-0.577281 -0.743822,-0.85152 -0.127838,-0.135121 -0.235615,-0.270361 -0.295011,-0.451561 -0.08968,-0.27156 -0.258037,-0.48056 -0.503092,-0.62188 -0.08693,-0.05003 -0.169928,-0.108361 -0.232863,-0.149999 -0.101088,-0.303 0.13846,-0.68216 -0.267476,-0.872641 z"
     style="fill:#dbdbdb;fill-opacity:1;stroke-width:0.396661"
     id="path526" />
  <path
     id="rect2347"
     style="fill:url(#linearGradient1065);fill-opacity:1;stroke-width:2.99999;stroke-linecap:round;stroke-linejoin:round"
     d="M 7.5000008,3 C 5.0070007,3 3,5.0070007 3,7.5000012 V 24.000001 H 24.000002 V 3 Z M 24.000002,24.000001 V 45.000004 H 40.5 c 2.493003,0 4.5,-2.007001 4.5,-4.500001 V 24.000001 Z"
     sodipodi:nodetypes="sscccsccsscc" />
</svg>
