<?xml version="1.0" encoding="UTF-8" standalone="no"?>
<!-- Created with Inkscape (http://www.inkscape.org/) -->

<svg
   width="48"
   height="48"
   viewBox="0 0 48 48"
   version="1.1"
   id="svg2112"
   inkscape:version="1.2.1 (9c6d41e410, 2022-07-14, custom)"
   sodipodi:docname="konversation.svg"
   xmlns:inkscape="http://www.inkscape.org/namespaces/inkscape"
   xmlns:sodipodi="http://sodipodi.sourceforge.net/DTD/sodipodi-0.dtd"
   xmlns:xlink="http://www.w3.org/1999/xlink"
   xmlns="http://www.w3.org/2000/svg"
   xmlns:svg="http://www.w3.org/2000/svg">
  <sodipodi:namedview
     id="namedview2114"
     pagecolor="#ffffff"
     bordercolor="#000000"
     borderopacity="0.25"
     inkscape:showpageshadow="2"
     inkscape:pageopacity="0.0"
     inkscape:pagecheckerboard="0"
     inkscape:deskcolor="#d1d1d1"
     inkscape:document-units="px"
     showgrid="false"
     inkscape:zoom="16.875"
     inkscape:cx="22.903704"
     inkscape:cy="24.859259"
     inkscape:window-width="1920"
     inkscape:window-height="1029"
     inkscape:window-x="0"
     inkscape:window-y="0"
     inkscape:window-maximized="1"
     inkscape:current-layer="svg2112" />
  <defs
     id="defs2109">
    <linearGradient
       inkscape:collect="always"
       xlink:href="#linearGradient1977"
       id="linearGradient1979"
       x1="6"
       y1="7.9997106"
       x2="34"
       y2="51.99971"
       gradientUnits="userSpaceOnUse"
       gradientTransform="matrix(0.75000005,0,0,0.75000005,7e-8,1.5000001)" />
    <linearGradient
       inkscape:collect="always"
       id="linearGradient1977">
      <stop
         style="stop-color:#28c3fa;stop-opacity:1;"
         offset="0"
         id="stop1973" />
      <stop
         style="stop-color:#0a78c8;stop-opacity:1"
         offset="1"
         id="stop1975" />
    </linearGradient>
  </defs>
  <path
     id="path1484"
     style="color:#000000;fill:url(#linearGradient1979);fill-opacity:1;stroke:none;stroke-width:2.83365;stroke-linecap:round;stroke-linejoin:round"
     d="M 5.0000001,6 C 3.7535006,6 3,6.7534998 3,8.0000001 V 34.000001 C 3,35.246499 3.7535006,36 5.0000001,36 H 11.25 v 7.49268 c -0.0042,1.33994 1.616719,2.011691 2.562012,1.062009 L 22.36377,36 H 42.999999 C 44.246502,36 45,35.246499 45,34.000001 V 8.0000001 C 45,6.7534998 44.246502,6 42.999999,6 Z"
     sodipodi:nodetypes="ssssccccsssss" />
  <path
     id="rect5486"
     style="fill:#ffffff;stroke-width:2.00001;stroke-linecap:round;stroke-linejoin:round"
     d="m 9.0000008,14.000434 h 2.0000002 c 0.554003,0 1,0.445999 1,1.000001 v 10.000001 c 0,0.554003 -0.445999,1 -1,1 H 9.0000008 c -0.5540031,0 -1.0000002,-0.446 -1.0000002,-1 V 15.000435 c 0,-0.554003 0.4459993,-1.000001 1.0000002,-1.000001 z"
     sodipodi:nodetypes="sssssssss" />
  <path
     style="color:#000000;fill:#ffffff;stroke-width:3.7796;stroke-linecap:round;stroke-linejoin:round"
     d="M 34.7733,10.026142 14.775099,14.020523 C 14.321397,14.125284 14.000025,14.529323 14,14.99498 v 10.003529 c 2.5e-5,0.46566 0.321404,0.869692 0.775099,0.974456 L 34.7733,29.974729 c 0.626797,0.144945 1.225402,-0.331086 1.225394,-0.974453 V 11.000598 c 1.1e-5,-0.643359 -0.598601,-1.1193875 -1.225394,-0.974456 z"
     id="path5983"
     sodipodi:nodetypes="ccccccccc" />
  <rect
     style="fill:#ffffff;fill-opacity:1;stroke:none;stroke-width:2.00001;stroke-linecap:round;stroke-linejoin:round;stroke-miterlimit:4;stroke-dasharray:none;stroke-opacity:1"
     id="rect6437"
     height="5"
     x="12.000001"
     y="28"
     ry="1.0000001"
     width="3" />
  <path
     id="rect6667"
     style="fill:#ffffff;stroke-width:2.00001;stroke-linecap:round;stroke-linejoin:round"
     d="m 38.000001,16.000001 v 8.000002 c 1.661995,0 2.999997,-1.338002 2.999997,-3.000003 v -1.999997 c 0,-1.662001 -1.338002,-3.000002 -2.999997,-3.000002 z"
     sodipodi:nodetypes="ccssc" />
</svg>
