<?xml version="1.0" encoding="UTF-8" standalone="no"?>
<svg
   width="48"
   height="48"
   viewBox="0 0 48 48"
   version="1.1"
   id="svg1886"
   inkscape:version="1.2.1 (9c6d41e410, 2022-07-14, custom)"
   sodipodi:docname="kvantum.svg"
   xmlns:inkscape="http://www.inkscape.org/namespaces/inkscape"
   xmlns:sodipodi="http://sodipodi.sourceforge.net/DTD/sodipodi-0.dtd"
   xmlns:xlink="http://www.w3.org/1999/xlink"
   xmlns="http://www.w3.org/2000/svg"
   xmlns:svg="http://www.w3.org/2000/svg"
   xmlns:rdf="http://www.w3.org/1999/02/22-rdf-syntax-ns#"
   xmlns:cc="http://creativecommons.org/ns#"
   xmlns:dc="http://purl.org/dc/elements/1.1/">
  <defs
     id="defs1880">
    <linearGradient
       inkscape:collect="always"
       id="linearGradient3330">
      <stop
         style="stop-color:#b864d9;stop-opacity:1;"
         offset="0"
         id="stop3324" />
      <stop
         style="stop-color:#626be5;stop-opacity:1;"
         offset="0.51452255"
         id="stop3326" />
      <stop
         style="stop-color:#26aee8;stop-opacity:1;"
         offset="1"
         id="stop3328" />
    </linearGradient>
    <radialGradient
       inkscape:collect="always"
       xlink:href="#linearGradient3330"
       id="radialGradient2438"
       cx="-9.076005"
       cy="10.690181"
       fx="-9.076005"
       fy="10.690181"
       r="8"
       gradientTransform="matrix(0,-4.5,5.25,0,-11.12345,1.1579786)"
       gradientUnits="userSpaceOnUse" />
    <linearGradient
       inkscape:collect="always"
       xlink:href="#linearGradient1788"
       id="linearGradient1071"
       x1="3.4395833"
       y1="3.4395833"
       x2="0.79375005"
       y2="0.79375005"
       gradientUnits="userSpaceOnUse"
       gradientTransform="matrix(9.7187856,0,0,9.4488199,3.4285715,6.4999997)" />
    <linearGradient
       inkscape:collect="always"
       id="linearGradient1788">
      <stop
         style="stop-color:#232223;stop-opacity:1;"
         offset="0"
         id="stop1784" />
      <stop
         style="stop-color:#49484d;stop-opacity:1"
         offset="1"
         id="stop1786" />
    </linearGradient>
    <linearGradient
       inkscape:collect="always"
       id="linearGradient3143">
      <stop
         style="stop-color:#d2d2d2;stop-opacity:1;"
         offset="0"
         id="stop3139" />
      <stop
         style="stop-color:#ffffff;stop-opacity:1"
         offset="1"
         id="stop3141" />
    </linearGradient>
    <linearGradient
       inkscape:collect="always"
       xlink:href="#linearGradient3143"
       id="linearGradient10352"
       x1="27.899969"
       y1="32.963535"
       x2="13.99987"
       y2="15"
       gradientUnits="userSpaceOnUse" />
  </defs>
  <sodipodi:namedview
     id="base"
     pagecolor="#ffffff"
     bordercolor="#666666"
     borderopacity="1.0"
     inkscape:pageopacity="0.0"
     inkscape:pageshadow="2"
     inkscape:zoom="16.875"
     inkscape:cx="23.97037"
     inkscape:cy="24"
     inkscape:document-units="px"
     inkscape:current-layer="svg1886"
     inkscape:document-rotation="0"
     showgrid="false"
     units="px"
     inkscape:window-width="1920"
     inkscape:window-height="1012"
     inkscape:window-x="0"
     inkscape:window-y="0"
     inkscape:window-maximized="1"
     inkscape:pagecheckerboard="0"
     inkscape:showpageshadow="2"
     inkscape:deskcolor="#d1d1d1" />
  <metadata
     id="metadata1883">
    <rdf:RDF>
      <cc:Work
         rdf:about="">
        <dc:format>image/svg+xml</dc:format>
        <dc:type
           rdf:resource="http://purl.org/dc/dcmitype/StillImage" />
      </cc:Work>
    </rdf:RDF>
  </metadata>
  <rect
     style="fill:url(#radialGradient2438);fill-opacity:1;stroke-width:2.59807;stroke-linecap:round;stroke-linejoin:round"
     id="rect950"
     width="42"
     height="36"
     x="3"
     y="6"
     ry="4" />
  <rect
     style="fill:url(#linearGradient1071);fill-opacity:1;stroke-width:2.53546;stroke-linejoin:round"
     id="rect983"
     width="36"
     height="30"
     x="6"
     y="9"
     ry="2" />
  <path
     d="m 13.99987,15 1.8e-4,1.946702 1.49493,0.126287 0.26817,0.378817 -2.666,13.106501 L 12.687,30.953011 11,31.08009 v 1.919796 L 17.99984,33 l 2.3e-4,-1.919696 -1.25805,-0.110739 -0.28395,-0.410435 1.0885,-5.551222 h 1.6721 l 2.3978,5.051128 c 0.98001,2.014246 1.6675,2.87778 3.786,2.904498 0.60914,0.0079 0.85419,0.05259 2.4975,0 5.6679,-4.735032 8.561,-8.743537 9.0181,-10.375347 0.27684,-0.988332 -0.16269,-1.594487 -1.1045,-1.594487 -0.45942,0 -0.98539,0.1936 -1.5772,0.584341 l -0.42592,3.792872 c -1.16,1.516939 -2.7064,3.169362 -4.5905,4.89323 l 1.6461,-6.919226 c 0.25861,-1.333226 0.34387,-2.044568 -0.52067,-2.320437 l -3.8647,0.852537 -0.20482,0.72597 1.7823,0.284306 c 0.1239,0.459634 -0.41326,1.858992 -0.68385,3.399146 L 26.50669,31.0691 c -0.0137,0.0492 -0.0223,0.103163 -0.0316,0.157848 -0.56258,-0.302467 -0.91722,-0.84106 -1.3251,-1.657326 l -3.3916,-6.787503 6.1995,-5.582558 2.04216,-0.205186 -2.6e-4,-1.994132 -7.00001,5.5e-5 2.8e-4,1.994231 2.08675,0.12612 0.15775,0.426213 -6.54127,5.451328 H 17.91454 L 19.12391,17.452204 19.47096,17.073389 21,16.947151 20.99984,15.000248 Z"
     style="fill:url(#linearGradient10352);fill-opacity:1"
     id="path316" />
</svg>
