<?xml version="1.0" encoding="UTF-8" standalone="no"?>
<!-- Created with Inkscape (http://www.inkscape.org/) -->

<svg
   width="48"
   height="48"
   viewBox="0 0 48 48"
   version="1.1"
   id="svg2112"
   inkscape:version="1.2.1 (9c6d41e410, 2022-07-14, custom)"
   sodipodi:docname="libreoffice-main.svg"
   xmlns:inkscape="http://www.inkscape.org/namespaces/inkscape"
   xmlns:sodipodi="http://sodipodi.sourceforge.net/DTD/sodipodi-0.dtd"
   xmlns:xlink="http://www.w3.org/1999/xlink"
   xmlns="http://www.w3.org/2000/svg"
   xmlns:svg="http://www.w3.org/2000/svg">
  <sodipodi:namedview
     id="namedview2114"
     pagecolor="#ffffff"
     bordercolor="#000000"
     borderopacity="0.25"
     inkscape:showpageshadow="2"
     inkscape:pageopacity="0.0"
     inkscape:pagecheckerboard="0"
     inkscape:deskcolor="#d1d1d1"
     inkscape:document-units="px"
     showgrid="false"
     inkscape:zoom="17.083333"
     inkscape:cx="24"
     inkscape:cy="24"
     inkscape:window-width="1920"
     inkscape:window-height="1029"
     inkscape:window-x="0"
     inkscape:window-y="0"
     inkscape:window-maximized="1"
     inkscape:current-layer="svg2112" />
  <defs
     id="defs2109">
    <linearGradient
       inkscape:collect="always"
       xlink:href="#linearGradient3529"
       id="linearGradient3173"
       x1="3.175"
       y1="1.0583334"
       x2="11.641693"
       y2="12.170834"
       gradientUnits="userSpaceOnUse"
       gradientTransform="matrix(3.7795276,0,0,3.7795276,-4.0000001,-1.0000001)" />
    <linearGradient
       inkscape:collect="always"
       id="linearGradient3529">
      <stop
         style="stop-color:#848484;stop-opacity:1"
         offset="0"
         id="stop3525" />
      <stop
         style="stop-color:#616161;stop-opacity:1"
         offset="1"
         id="stop3527" />
    </linearGradient>
    <linearGradient
       inkscape:collect="always"
       xlink:href="#linearGradient3723"
       id="linearGradient3725"
       x1="54"
       y1="14"
       x2="44"
       y2="4"
       gradientUnits="userSpaceOnUse"
       gradientTransform="translate(-14.000001,-1.0000001)" />
    <linearGradient
       inkscape:collect="always"
       id="linearGradient3723">
      <stop
         style="stop-color:#404040;stop-opacity:1"
         offset="0"
         id="stop3719" />
      <stop
         style="stop-color:#595959;stop-opacity:1"
         offset="1"
         id="stop3721" />
    </linearGradient>
  </defs>
  <path
     id="rect3085"
     style="fill:url(#linearGradient3173);fill-opacity:1;stroke-width:3.99999;stroke-linecap:round;stroke-linejoin:round"
     d="M 12,3 C 9.784,3 8,4.7839998 8,7 v 34 c 0,2.216001 1.784,4.000003 4,4.000003 h 24.000002 c 2.215994,0 3.999996,-1.784002 3.999996,-4.000003 V 21 c 0.0061,-2.482935 -0.258807,-3.258806 -2.000002,-5 L 27,4.9999998 C 25.538847,3.6158077 24.748997,3 22.5,3 Z"
     sodipodi:nodetypes="ssssssccccs" />
  <path
     id="rect2140"
     style="fill:url(#linearGradient3725);fill-opacity:1;stroke-width:3.99999;stroke-linecap:round;stroke-linejoin:round"
     d="M 28.500002,4.4999998 38.49999,14.5 c 0.431426,0.447188 1.497373,0.107777 1.5,-1 V 7 c 0,-2.2160002 -1.783997,-3.9999998 -3.999996,-3.9999998 h -6.499995 c -1.032309,0.0059 -1.417529,1.0582514 -0.999997,1.4999996 z"
     sodipodi:nodetypes="cccsscc" />
  <path
     id="rect1255"
     style="fill:#fafafa;fill-opacity:1;stroke-width:3.99999;stroke-linecap:round;stroke-linejoin:round"
     d="m 12,5.0004666 h 9.999999 c 1.512265,-0.017877 2.506217,0.4775875 3.500002,1.5000004 L 36.499999,17.5 c 0.897272,1.028352 1.499997,1.758806 1.499997,3.5 v 20.000469 c 0,1.107999 -0.891995,1.999997 -1.999998,1.999997 H 12 c -1.108,0 -2,-0.891998 -2,-1.999997 V 7.0004667 c 0,-1.1079998 0.892,-2.0000001 2,-2.0000001 z"
     sodipodi:nodetypes="sccccssssss" />
</svg>
