<?xml version="1.0" encoding="UTF-8" standalone="no"?>
<!-- Created with Inkscape (http://www.inkscape.org/) -->

<svg
   width="48"
   height="48"
   viewBox="0 0 48 48"
   version="1.1"
   id="svg2112"
   inkscape:version="1.2.1 (9c6d41e410, 2022-07-14, custom)"
   sodipodi:docname="libreoffice-math.svg"
   xmlns:inkscape="http://www.inkscape.org/namespaces/inkscape"
   xmlns:sodipodi="http://sodipodi.sourceforge.net/DTD/sodipodi-0.dtd"
   xmlns:xlink="http://www.w3.org/1999/xlink"
   xmlns="http://www.w3.org/2000/svg"
   xmlns:svg="http://www.w3.org/2000/svg">
  <sodipodi:namedview
     id="namedview2114"
     pagecolor="#ffffff"
     bordercolor="#000000"
     borderopacity="0.25"
     inkscape:showpageshadow="2"
     inkscape:pageopacity="0.0"
     inkscape:pagecheckerboard="0"
     inkscape:deskcolor="#d1d1d1"
     inkscape:document-units="px"
     showgrid="false"
     inkscape:zoom="17.083333"
     inkscape:cx="24"
     inkscape:cy="24"
     inkscape:window-width="1920"
     inkscape:window-height="1029"
     inkscape:window-x="0"
     inkscape:window-y="0"
     inkscape:window-maximized="1"
     inkscape:current-layer="svg2112" />
  <defs
     id="defs2109">
    <linearGradient
       inkscape:collect="always"
       xlink:href="#linearGradient3529"
       id="linearGradient3173"
       x1="3.175"
       y1="1.0583334"
       x2="11.641666"
       y2="12.170834"
       gradientUnits="userSpaceOnUse"
       gradientTransform="matrix(3.7795276,0,0,3.7795276,-4.0000001,-1.0000002)" />
    <linearGradient
       inkscape:collect="always"
       id="linearGradient3529">
      <stop
         style="stop-color:#526587;stop-opacity:1"
         offset="0"
         id="stop3525" />
      <stop
         style="stop-color:#445471;stop-opacity:1"
         offset="1"
         id="stop3527" />
    </linearGradient>
    <linearGradient
       inkscape:collect="always"
       xlink:href="#linearGradient3723"
       id="linearGradient9471"
       gradientUnits="userSpaceOnUse"
       gradientTransform="translate(-14.000001,-1.0000002)"
       x1="54"
       y1="14"
       x2="44"
       y2="4" />
    <linearGradient
       inkscape:collect="always"
       id="linearGradient3723">
      <stop
         style="stop-color:#3d4c65;stop-opacity:1"
         offset="0"
         id="stop3719" />
      <stop
         style="stop-color:#455572;stop-opacity:1"
         offset="1"
         id="stop3721" />
    </linearGradient>
  </defs>
  <path
     id="rect3085"
     style="fill:url(#linearGradient3173);fill-opacity:1;stroke-width:3.99999;stroke-linecap:round;stroke-linejoin:round"
     d="M 12,3 C 9.784,3 8,4.7839998 8,6.9999999 V 41 c 0,2.216001 1.784,4.000003 4,4.000003 h 24.000001 c 2.215995,0 3.999996,-1.784002 3.999996,-4.000003 V 21 c 0.0061,-2.482935 -0.258807,-3.258806 -2.000001,-5 L 27,4.9999998 C 25.538846,3.6158077 24.748996,3 22.499999,3 Z"
     sodipodi:nodetypes="ssssssccccs" />
  <path
     id="rect2140"
     style="fill:url(#linearGradient9471);fill-opacity:1;stroke-width:3.99999;stroke-linecap:round;stroke-linejoin:round"
     d="M 28.500001,4.4999998 38.49999,14.5 c 0.431425,0.447188 1.497373,0.107777 1.5,-1.000001 V 6.9999999 c 0,-2.2160001 -1.783998,-3.9999998 -3.999996,-3.9999998 h -6.499995 c -1.032309,0.0059 -1.41753,1.0582515 -0.999998,1.4999997 z"
     sodipodi:nodetypes="cccsscc" />
  <path
     id="rect1255"
     style="fill:#fafafa;fill-opacity:1;stroke-width:3.99999;stroke-linecap:round;stroke-linejoin:round"
     d="m 12,5.0004665 h 9.999999 C 23.512264,4.9825895 24.506215,5.4780541 25.5,6.5004669 L 36.499999,17.5 c 0.897272,1.028352 1.499997,1.758806 1.499997,3.5 v 20.000469 c 0,1.107998 -0.891995,1.999997 -1.999999,1.999997 H 12 c -1.108,0 -2,-0.891999 -2,-1.999997 V 7.0004667 c 0,-1.1079999 0.892,-2.0000002 2,-2.0000002 z"
     sodipodi:nodetypes="sccccssssss" />
  <g
     id="g2235"
     transform="matrix(2.6725296,-2.6725296,2.6725296,2.6725296,-24.510563,28.792291)">
    <rect
       style="fill:#3d4c65;fill-opacity:1;stroke-width:1.05833;stroke-linecap:round;stroke-linejoin:round"
       id="rect1831"
       width="0.5291667"
       height="3.175"
       x="9.036479"
       y="8.6067457"
       ry="0.26458335" />
    <rect
       style="fill:#455572;fill-opacity:1;stroke-width:1.05833;stroke-linecap:round;stroke-linejoin:round"
       id="rect2043"
       width="0.5291667"
       height="3.175"
       x="9.9296627"
       y="-10.888562"
       ry="0.26458335"
       transform="rotate(90)" />
  </g>
  <path
     style="color:#000000;fill:#526587;fill-opacity:1;stroke:none;stroke-width:3.77953;stroke-linecap:round;stroke-linejoin:round;-inkscape-stroke:none"
     d="m 20.743507,22.000008 a 1.0001006,1.0001006 0 0 0 -0.981793,0.797244 l -2.148129,10.201772 -1.71998,-3.43996 A 1.0000006,1.0000006 0 0 0 14.5501,29.108767 1.0000006,1.0000006 0 0 0 14.107185,30.452272 l 2.997048,6.001479 A 1.0001006,1.0001006 0 0 0 18.979234,36.21016 L 21.54813,24.000501 h 11.449312 a 1.0000006,1.0000006 0 0 0 1.003937,-0.996556 1.0000006,1.0000006 0 0 0 -1.003937,-1.003937 z"
     id="path14517" />
</svg>
