<?xml version="1.0" encoding="UTF-8" standalone="no"?>
<!-- Created with Inkscape (http://www.inkscape.org/) -->

<svg
   width="48"
   height="48"
   viewBox="0 0 48 48"
   version="1.1"
   id="svg5"
   inkscape:version="1.2.1 (9c6d41e410, 2022-07-14, custom)"
   sodipodi:docname="libreoffice-calc.svg"
   xmlns:inkscape="http://www.inkscape.org/namespaces/inkscape"
   xmlns:sodipodi="http://sodipodi.sourceforge.net/DTD/sodipodi-0.dtd"
   xmlns:xlink="http://www.w3.org/1999/xlink"
   xmlns="http://www.w3.org/2000/svg"
   xmlns:svg="http://www.w3.org/2000/svg">
  <sodipodi:namedview
     id="namedview7"
     pagecolor="#ffffff"
     bordercolor="#666666"
     borderopacity="1.0"
     inkscape:pageshadow="2"
     inkscape:pageopacity="0.0"
     inkscape:pagecheckerboard="0"
     inkscape:document-units="px"
     showgrid="false"
     units="px"
     inkscape:zoom="8.6875"
     inkscape:cx="15.079137"
     inkscape:cy="32"
     inkscape:window-width="1920"
     inkscape:window-height="1029"
     inkscape:window-x="0"
     inkscape:window-y="0"
     inkscape:window-maximized="1"
     inkscape:current-layer="svg5"
     inkscape:showpageshadow="2"
     inkscape:deskcolor="#d1d1d1" />
  <defs
     id="defs2">
    <linearGradient
       inkscape:collect="always"
       xlink:href="#linearGradient3529"
       id="linearGradient3173"
       x1="3.175"
       y1="1.0583334"
       x2="11.641666"
       y2="12.170834"
       gradientUnits="userSpaceOnUse"
       gradientTransform="matrix(3.7795276,0,0,3.7795276,-4.0000002,-1.0000001)" />
    <linearGradient
       inkscape:collect="always"
       id="linearGradient3529">
      <stop
         style="stop-color:#6ed85e;stop-opacity:1"
         offset="0"
         id="stop3525" />
      <stop
         style="stop-color:#41ba2f;stop-opacity:1"
         offset="1"
         id="stop3527" />
    </linearGradient>
    <linearGradient
       inkscape:collect="always"
       xlink:href="#linearGradient3723"
       id="linearGradient3725"
       x1="54"
       y1="14"
       x2="44"
       y2="4"
       gradientUnits="userSpaceOnUse"
       gradientTransform="translate(-14.000001,-1.0000001)" />
    <linearGradient
       inkscape:collect="always"
       id="linearGradient3723">
      <stop
         style="stop-color:#369a26;stop-opacity:1"
         offset="0"
         id="stop3719" />
      <stop
         style="stop-color:#3fb12c;stop-opacity:1"
         offset="1"
         id="stop3721" />
    </linearGradient>
  </defs>
  <path
     id="rect3085"
     style="fill:url(#linearGradient3173);fill-opacity:1;stroke-width:3.99999;stroke-linecap:round;stroke-linejoin:round"
     d="M 12,3 C 9.7840001,3 8,4.7839998 8,7 v 34 c 0,2.216001 1.7840001,4.000003 4,4.000003 h 24.000002 c 2.215994,0 3.999996,-1.784002 3.999996,-4.000003 V 21 c 0.0061,-2.482935 -0.258807,-3.258806 -2.000002,-5 L 27,4.9999998 C 25.538847,3.6158077 24.748997,3 22.499999,3 Z"
     sodipodi:nodetypes="ssssssccccs" />
  <path
     id="rect2140"
     style="fill:url(#linearGradient3725);fill-opacity:1;stroke-width:3.99999;stroke-linecap:round;stroke-linejoin:round"
     d="M 28.500001,4.4999998 38.49999,14.5 c 0.431426,0.447188 1.497373,0.107777 1.5,-1 V 7 c 0,-2.2160002 -1.783997,-3.9999998 -3.999996,-3.9999998 h -6.499995 c -1.032309,0.0059 -1.41753,1.0582514 -0.999998,1.4999996 z"
     sodipodi:nodetypes="cccsscc" />
  <path
     id="rect1255"
     style="fill:#fafafa;fill-opacity:1;stroke-width:3.99999;stroke-linecap:round;stroke-linejoin:round"
     d="m 12,5.0004666 h 9.999999 c 1.512265,-0.017877 2.506216,0.4775875 3.500002,1.5000004 L 36.499999,17.5 c 0.897272,1.028352 1.499997,1.758806 1.499997,3.5 v 20.000469 c 0,1.107998 -0.891995,1.999997 -1.999998,1.999997 H 12 c -1.108,0 -2.0000003,-0.891999 -2.0000003,-1.999997 V 7.0004667 C 9.9999997,5.8924669 10.892,5.0004666 12,5.0004666 Z"
     sodipodi:nodetypes="sccccssssss" />
  <path
     id="rect67109"
     style="fill:#39a128;fill-opacity:1;stroke-width:1.99999;stroke-linecap:round;stroke-linejoin:round"
     d="M 16.000001,22.499998 H 32 c 0.554001,0 1.000002,0.446 1.000002,1.000001 v 13 c 0,0.553999 -0.446001,0.999997 -1.000002,0.999997 H 16.000001 c -0.554,0 -1,-0.445998 -1,-0.999997 v -13 c 0,-0.554001 0.446,-1.000001 1,-1.000001 z"
     sodipodi:nodetypes="sssssssss" />
  <path
     id="rect67897"
     style="fill:#6ed85e;fill-opacity:1;stroke-width:1.99999;stroke-linecap:round;stroke-linejoin:round"
     d="m 33.000004,25.999998 v -3 C 33.000004,22.445999 32.554001,22 32.000001,22 h -16 c -0.554,0 -1,0.445999 -1,0.999998 v 3 z"
     sodipodi:nodetypes="csssscc" />
  <path
     id="rect68390"
     style="fill:#369a26;fill-opacity:1;stroke-width:1.88391;stroke-linecap:round;stroke-linejoin:round"
     d="m 15,34.000002 2e-6,2.999997 c 0,0.553999 0.446,0.999998 1,0.999998 h 15.999999 c 0.554002,0 1.000002,-0.45247 1.000002,-0.999998 l -10e-7,-2.999997 z"
     sodipodi:nodetypes="csssscc" />
  <path
     id="rect71991"
     style="fill:#3fb12c;fill-opacity:1;stroke-width:3.09838;stroke-linecap:round;stroke-linejoin:round"
     d="m 15.000001,26.000002 h 18 v 4 h -18 z"
     sodipodi:nodetypes="ccccc" />
  <rect
     style="fill:#41ba2f;fill-opacity:1;stroke-width:1.17411;stroke-linecap:round;stroke-linejoin:round"
     id="rect76988"
     width="6.0000005"
     height="3.9999998"
     x="15.000002"
     y="30.000002" />
  <rect
     style="fill:#41ba2f;fill-opacity:1;stroke-width:3.09838;stroke-linecap:round;stroke-linejoin:round"
     id="rect78678"
     width="5.9999995"
     height="3.9999998"
     x="21.000002"
     y="26.000002" />
  <rect
     style="fill:#41ba2f;fill-opacity:1;stroke-width:3.09838;stroke-linecap:round;stroke-linejoin:round"
     id="rect78782"
     width="6.0000005"
     height="3.9999998"
     x="27.000004"
     y="30.000002" />
  <rect
     style="fill:#40b52d;fill-opacity:1;stroke-width:3.09838;stroke-linecap:round;stroke-linejoin:round"
     id="rect78784"
     width="6"
     height="3.9999998"
     x="21.000002"
     y="34.000004" />
  <path
     id="rect84235"
     style="fill:#47c931;fill-opacity:1;stroke-width:1.99999;stroke-linecap:round;stroke-linejoin:round"
     d="m 15,34.000002 v 2.999997 c 0,0.553999 0.446,0.999998 1,0.999998 h 5 v -3.999993 z"
     sodipodi:nodetypes="cssccc" />
  <rect
     style="fill:#47c931;fill-opacity:1;stroke-width:3.09838;stroke-linecap:round;stroke-linejoin:round"
     id="rect85339"
     width="5.9999995"
     height="3.9999998"
     x="27.000004"
     y="26.000002" />
</svg>
