<?xml version="1.0" encoding="UTF-8" standalone="no"?>
<!-- Created with Inkscape (http://www.inkscape.org/) -->

<svg
   width="48"
   height="48"
   viewBox="0 0 48 48"
   version="1.1"
   id="svg1015"
   inkscape:version="1.3.2 (1:1.3.2+202311252150+091e20ef0f)"
   sodipodi:docname="libreoffice-base.svg"
   xmlns:inkscape="http://www.inkscape.org/namespaces/inkscape"
   xmlns:sodipodi="http://sodipodi.sourceforge.net/DTD/sodipodi-0.dtd"
   xmlns:xlink="http://www.w3.org/1999/xlink"
   xmlns="http://www.w3.org/2000/svg"
   xmlns:svg="http://www.w3.org/2000/svg">
  <sodipodi:namedview
     id="namedview1017"
     pagecolor="#ffffff"
     bordercolor="#000000"
     borderopacity="0.25"
     inkscape:showpageshadow="2"
     inkscape:pageopacity="0.0"
     inkscape:pagecheckerboard="0"
     inkscape:deskcolor="#d1d1d1"
     inkscape:document-units="px"
     showgrid="false"
     inkscape:zoom="16.895833"
     inkscape:cx="24"
     inkscape:cy="24"
     inkscape:window-width="1920"
     inkscape:window-height="1008"
     inkscape:window-x="0"
     inkscape:window-y="0"
     inkscape:window-maximized="1"
     inkscape:current-layer="svg1015" />
  <defs
     id="defs1012">
    <linearGradient
       inkscape:collect="always"
       xlink:href="#linearGradient3529"
       id="linearGradient3173"
       x1="3.175"
       y1="1.0583334"
       x2="11.641693"
       y2="12.170834"
       gradientUnits="userSpaceOnUse"
       gradientTransform="matrix(3.7795276,0,0,3.7795276,-4.0000003,-1.0000001)" />
    <linearGradient
       inkscape:collect="always"
       id="linearGradient3529">
      <stop
         style="stop-color:#b67cd7;stop-opacity:1"
         offset="0"
         id="stop3525" />
      <stop
         style="stop-color:#8536bd;stop-opacity:1"
         offset="1"
         id="stop3527" />
    </linearGradient>
    <linearGradient
       inkscape:collect="always"
       xlink:href="#linearGradient3723"
       id="linearGradient9471"
       gradientUnits="userSpaceOnUse"
       gradientTransform="translate(-14.000278,-1.0000002)"
       x1="54"
       y1="14"
       x2="44"
       y2="4" />
    <linearGradient
       inkscape:collect="always"
       id="linearGradient3723">
      <stop
         style="stop-color:#541a7c;stop-opacity:1"
         offset="0"
         id="stop3719" />
      <stop
         style="stop-color:#702da1;stop-opacity:1"
         offset="1"
         id="stop3721" />
    </linearGradient>
  </defs>
  <path
     id="rect3085"
     style="fill:url(#linearGradient3173);fill-opacity:1;stroke-width:3.99999;stroke-linecap:round;stroke-linejoin:round"
     d="M 12,3 C 9.784,3 8,4.7839998 8,7 v 34.000001 c 0,2.216001 1.784,4.000002 4,4.000002 h 24.000002 c 2.215995,0 3.999996,-1.784001 3.999996,-4.000002 v -20 c 0.0061,-2.482935 -0.258807,-3.258806 -2.000001,-5 L 27,4.9999998 C 25.538847,3.6158077 24.748997,3 22.5,3 Z"
     sodipodi:nodetypes="ssssssccccs" />
  <path
     id="rect2140"
     style="fill:url(#linearGradient9471);fill-opacity:1;stroke-width:3.99999;stroke-linecap:round;stroke-linejoin:round"
     d="M 28.499724,4.4999997 38.499712,14.5 c 0.431426,0.447189 1.497374,0.107777 1.5,-1 V 6.9999999 C 39.999712,4.7839997 38.215715,3 35.999716,3 h -6.499995 c -1.032308,0.0059 -1.417529,1.0582515 -0.999997,1.4999997 z"
     sodipodi:nodetypes="cccsscc" />
  <path
     id="path8276-3-6-5"
     style="fill:#ffffff;fill-opacity:1;stroke-width:1.14416;stroke-linecap:round;stroke-linejoin:round"
     d="m 16,35 v 3.00018 c 0,1.204981 3.581727,2.18164 8,2.18164 4.418274,0 8,-0.97666 8,-2.18164 V 35 c 0,1.204984 -3.581727,2.181641 -8,2.181641 -4.418273,0 -8,-0.976657 -8,-2.181641 z"
     sodipodi:nodetypes="cssscsc" />
  <path
     id="path8276-3-6-7"
     style="fill:#ffffff;fill-opacity:1;stroke-width:1.14416;stroke-linecap:round;stroke-linejoin:round"
     d="m 16,30 v 3.00018 c 0,1.204984 3.581727,2.18164 8,2.18164 4.418273,0 8,-0.976657 8,-2.18164 V 30 c 0,1.204984 -3.581728,2.181641 -8,2.181641 -4.418274,0 -8,-0.976657 -8,-2.181641 z"
     sodipodi:nodetypes="cssscsc" />
  <path
     id="path8276-3-6"
     style="fill:#ffffff;fill-opacity:1;stroke-width:1.14416;stroke-linecap:round;stroke-linejoin:round"
     d="m 16,25 v 3.00018 c 0,1.204985 3.581726,2.18164 8,2.18164 4.418273,0 8,-0.976655 8,-2.18164 V 25 c 0,1.204984 -3.581727,2.181641 -8,2.181641 -4.418273,0 -8,-0.976657 -8,-2.181641 z"
     sodipodi:nodetypes="cssscsc" />
  <path
     id="path8276-3"
     style="fill:#ffffff;fill-opacity:1;stroke-width:1.14416;stroke-linecap:round;stroke-linejoin:round"
     d="m 16,21 v 2 c 0,1.204984 3.581727,2.181641 8,2.181641 4.418273,0 8,-0.976657 8,-2.181641 v -2 c 0,0 -3.581727,0.181641 -8,0.181641 C 19.581727,21.181641 16,21 16,21 Z" />
  <ellipse
     style="fill:#ffffff;fill-opacity:1;stroke-width:1.09544;stroke-linecap:round;stroke-linejoin:round"
     id="path9564"
     cx="24"
     cy="21"
     rx="7.9999981"
     ry="2.0000002" />
</svg>
