<?xml version="1.0" encoding="UTF-8" standalone="no"?>
<!-- Created with Inkscape (http://www.inkscape.org/) -->

<svg
   width="48"
   height="48"
   viewBox="0 0 48 48"
   version="1.1"
   id="svg1015"
   inkscape:version="1.2.1 (9c6d41e410, 2022-07-14, custom)"
   sodipodi:docname="libreoffice-impress.svg"
   xmlns:inkscape="http://www.inkscape.org/namespaces/inkscape"
   xmlns:sodipodi="http://sodipodi.sourceforge.net/DTD/sodipodi-0.dtd"
   xmlns:xlink="http://www.w3.org/1999/xlink"
   xmlns="http://www.w3.org/2000/svg"
   xmlns:svg="http://www.w3.org/2000/svg">
  <sodipodi:namedview
     id="namedview1017"
     pagecolor="#ffffff"
     bordercolor="#000000"
     borderopacity="0.25"
     inkscape:showpageshadow="2"
     inkscape:pageopacity="0.0"
     inkscape:pagecheckerboard="0"
     inkscape:deskcolor="#d1d1d1"
     inkscape:document-units="px"
     showgrid="false"
     inkscape:zoom="17.083333"
     inkscape:cx="24"
     inkscape:cy="24"
     inkscape:window-width="1920"
     inkscape:window-height="1029"
     inkscape:window-x="0"
     inkscape:window-y="0"
     inkscape:window-maximized="1"
     inkscape:current-layer="svg1015" />
  <defs
     id="defs1012">
    <linearGradient
       inkscape:collect="always"
       xlink:href="#linearGradient3529"
       id="linearGradient3173"
       x1="3.175"
       y1="1.0583334"
       x2="11.641666"
       y2="12.170834"
       gradientUnits="userSpaceOnUse"
       gradientTransform="matrix(3.7795276,0,0,3.7795276,-4.0000002,-1.0000001)" />
    <linearGradient
       inkscape:collect="always"
       id="linearGradient3529">
      <stop
         style="stop-color:#e5814f;stop-opacity:1"
         offset="0"
         id="stop3525" />
      <stop
         style="stop-color:#e15d2b;stop-opacity:1"
         offset="1"
         id="stop3527" />
    </linearGradient>
    <linearGradient
       inkscape:collect="always"
       xlink:href="#linearGradient3723"
       id="linearGradient3725"
       x1="54"
       y1="14"
       x2="44"
       y2="4"
       gradientUnits="userSpaceOnUse"
       gradientTransform="translate(-14.000001,-1.0000001)" />
    <linearGradient
       inkscape:collect="always"
       id="linearGradient3723">
      <stop
         style="stop-color:#b9501c;stop-opacity:1"
         offset="0"
         id="stop3719" />
      <stop
         style="stop-color:#d55d20;stop-opacity:1"
         offset="1"
         id="stop3721" />
    </linearGradient>
  </defs>
  <path
     id="rect3085"
     style="fill:url(#linearGradient3173);fill-opacity:1;stroke-width:3.99999;stroke-linecap:round;stroke-linejoin:round"
     d="M 12,3 C 9.7839998,3 8,4.7839998 8,7 v 34 c 0,2.216001 1.7839998,4.000002 4,4.000002 h 24.000002 c 2.215994,0 3.999996,-1.784001 3.999996,-4.000002 V 21 c 0.0061,-2.482935 -0.258807,-3.258806 -2.000002,-5 L 27,4.9999998 C 25.538847,3.6158077 24.748997,3 22.5,3 Z"
     sodipodi:nodetypes="ssssssccccs" />
  <path
     id="rect2140"
     style="fill:url(#linearGradient3725);fill-opacity:1;stroke-width:3.99999;stroke-linecap:round;stroke-linejoin:round"
     d="m 28.500002,4.4999998 9.999988,9.9999992 c 0.431426,0.447189 1.497373,0.107777 1.5,-1 V 7 c 0,-2.2160002 -1.783997,-3.9999998 -3.999996,-3.9999998 h -6.499995 c -1.032309,0.0059 -1.417529,1.0582514 -0.999997,1.4999996 z"
     sodipodi:nodetypes="cccsscc" />
  <path
     id="rect1255"
     style="fill:#fafafa;fill-opacity:1;stroke-width:3.99999;stroke-linecap:round;stroke-linejoin:round"
     d="m 12,5.0004666 h 9.999999 c 1.512265,-0.017877 2.506217,0.4775875 3.500002,1.5000004 L 36.499999,17.499999 C 37.397271,18.528351 37.999996,19.258805 37.999996,21 v 20.000468 c 0,1.107999 -0.891994,1.999998 -1.999998,1.999998 H 12 c -1.108,0 -2.0000002,-0.891999 -2.0000002,-1.999998 V 7.0004667 C 9.9999998,5.8924669 10.892,5.0004666 12,5.0004666 Z"
     sodipodi:nodetypes="sccccssssss" />
  <circle
     style="fill:#e15d2b;fill-opacity:1;stroke-width:2.49999;stroke-linecap:round;stroke-linejoin:round"
     id="path46529"
     cx="19"
     cy="27.000002"
     r="5" />
  <path
     id="path47335"
     style="fill:#e5814f;fill-opacity:1;stroke-width:2.49999;stroke-linecap:round;stroke-linejoin:round"
     d="m 19,22.000002 v 5.000001 h 5 a 5.0000009,5.0000009 0 0 0 -5,-5.000001 z" />
  <rect
     style="fill:#d55d20;fill-opacity:1;stroke-width:3.99999;stroke-linecap:round;stroke-linejoin:round"
     id="rect49460"
     width="7.9999995"
     height="2.0000002"
     x="25.999998"
     y="29.999998"
     ry="1.0000001" />
  <rect
     style="fill:#eca47f;fill-opacity:1;stroke-width:3.99999;stroke-linecap:round;stroke-linejoin:round"
     id="rect49720"
     width="7.9999995"
     height="1.9999983"
     x="26.000002"
     y="22.000008"
     ry="0.99999917" />
  <rect
     style="fill:#e58454;fill-opacity:1;stroke-width:3.99999;stroke-linecap:round;stroke-linejoin:round"
     id="rect49722"
     width="7.9999995"
     height="1.9999983"
     x="26.000002"
     y="26"
     ry="0.99999905" />
  <rect
     style="fill:#b9501c;fill-opacity:1;stroke-width:3.99999;stroke-linecap:round;stroke-linejoin:round"
     id="rect48498"
     width="20"
     height="2.0000019"
     x="14.000001"
     y="35.000004"
     ry="1.000001" />
</svg>
