<?xml version="1.0" encoding="UTF-8" standalone="no"?>
<!-- Created with Inkscape (http://www.inkscape.org/) -->

<svg
   width="48"
   height="48"
   viewBox="0 0 48 48"
   version="1.1"
   id="svg2112"
   inkscape:version="1.3.2 (1:1.3.2+202311252150+091e20ef0f)"
   sodipodi:docname="libreoffice-draw.svg"
   xmlns:inkscape="http://www.inkscape.org/namespaces/inkscape"
   xmlns:sodipodi="http://sodipodi.sourceforge.net/DTD/sodipodi-0.dtd"
   xmlns:xlink="http://www.w3.org/1999/xlink"
   xmlns="http://www.w3.org/2000/svg"
   xmlns:svg="http://www.w3.org/2000/svg">
  <sodipodi:namedview
     id="namedview2114"
     pagecolor="#ffffff"
     bordercolor="#000000"
     borderopacity="0.25"
     inkscape:showpageshadow="2"
     inkscape:pageopacity="0.0"
     inkscape:pagecheckerboard="0"
     inkscape:deskcolor="#d1d1d1"
     inkscape:document-units="px"
     showgrid="false"
     inkscape:zoom="16.895833"
     inkscape:cx="24"
     inkscape:cy="24"
     inkscape:window-width="1920"
     inkscape:window-height="1008"
     inkscape:window-x="0"
     inkscape:window-y="0"
     inkscape:window-maximized="1"
     inkscape:current-layer="svg2112" />
  <defs
     id="defs2109">
    <linearGradient
       inkscape:collect="always"
       xlink:href="#linearGradient3529"
       id="linearGradient3173"
       x1="2.6458333"
       y1="1.0583334"
       x2="11.1125"
       y2="12.170834"
       gradientUnits="userSpaceOnUse"
       gradientTransform="matrix(3.7795276,0,0,3.7795276,-2,-1.0000001)" />
    <linearGradient
       inkscape:collect="always"
       id="linearGradient3529">
      <stop
         style="stop-color:#f6be00;stop-opacity:1"
         offset="0"
         id="stop3525" />
      <stop
         style="stop-color:#ff9c0a;stop-opacity:1"
         offset="1"
         id="stop3527" />
    </linearGradient>
    <linearGradient
       inkscape:collect="always"
       xlink:href="#linearGradient3723"
       id="linearGradient3725"
       x1="54"
       y1="14"
       x2="44"
       y2="4"
       gradientUnits="userSpaceOnUse"
       gradientTransform="translate(-14.000001,-1.0000001)" />
    <linearGradient
       inkscape:collect="always"
       id="linearGradient3723">
      <stop
         style="stop-color:#e37a00;stop-opacity:1"
         offset="0"
         id="stop3719" />
      <stop
         style="stop-color:#ff9316;stop-opacity:1"
         offset="1"
         id="stop3721" />
    </linearGradient>
  </defs>
  <path
     id="rect3085"
     style="fill:url(#linearGradient3173);fill-opacity:1;stroke-width:3.99999;stroke-linecap:round;stroke-linejoin:round"
     d="M 12,3 C 9.784,3 8,4.7839999 8,7 v 34 c 0,2.216002 1.784,4.000003 4,4.000003 h 24.000002 c 2.215994,0 3.999996,-1.784001 3.999996,-4.000003 V 21.000001 C 40.006098,18.517066 39.741191,17.741194 37.999996,16 L 27,4.9999999 C 25.538847,3.6158078 24.748997,3 22.5,3 Z"
     sodipodi:nodetypes="ssssssccccs" />
  <path
     id="rect2140"
     style="fill:url(#linearGradient3725);fill-opacity:1;stroke-width:3.99999;stroke-linecap:round;stroke-linejoin:round"
     d="M 28.500002,4.4999998 38.49999,14.5 c 0.431426,0.447188 1.497373,0.107777 1.5,-1 V 7 c 0,-2.2160001 -1.783997,-3.9999998 -3.999996,-3.9999998 h -6.499995 c -1.032309,0.0059 -1.417529,1.0582515 -0.999997,1.4999996 z"
     sodipodi:nodetypes="cccsscc" />
  <circle
     style="fill:#ffffff;fill-opacity:1;stroke-width:1.125;stroke-linecap:round;stroke-linejoin:round"
     id="path12373"
     cx="18"
     cy="25"
     r="6" />
  <path
     id="rect14425"
     style="fill:#fff7ec;fill-opacity:1;stroke-width:0.999995;stroke-linecap:round;stroke-linejoin:round"
     d="M 25.75 22 C 25.334501 22 25 22.334501 25 22.75 L 25 32.25 C 25 32.665498 25.334501 33 25.75 33 L 35.25 33 C 35.665499 33 36 32.665497 36 32.25 L 36 22.75 C 36 22.334501 35.665498 22 35.25 22 L 25.75 22 z M 27 24 L 34 24 L 34 31 L 27 31 L 27 24 z " />
  <path
     id="path14298"
     style="color:#000000;fill:#ffdaaf;fill-opacity:1;stroke:none;stroke-width:1.44223;stroke-linecap:round;stroke-linejoin:round"
     d="m 24,25.000002 a 0.73674547,0.70595279 0 0 0 -0.641707,0.35639 l -6.261714,10.588231 a 0.73674547,0.70595279 0 0 0 0.641708,1.055376 h 12.524142 a 0.73674547,0.70595279 0 0 0 0.640993,-1.055376 L 24.64171,25.356389 A 0.73674547,0.70595279 0 0 0 24,25.000002 Z" />
</svg>
