<?xml version="1.0" encoding="UTF-8" standalone="no"?>
<!-- Created with Inkscape (http://www.inkscape.org/) -->

<svg
   width="48"
   height="48"
   viewBox="0 0 48 48"
   version="1.1"
   id="svg1015"
   inkscape:version="1.2.1 (9c6d41e410, 2022-07-14, custom)"
   sodipodi:docname="lightdm-settings.svg"
   xmlns:inkscape="http://www.inkscape.org/namespaces/inkscape"
   xmlns:sodipodi="http://sodipodi.sourceforge.net/DTD/sodipodi-0.dtd"
   xmlns:xlink="http://www.w3.org/1999/xlink"
   xmlns="http://www.w3.org/2000/svg"
   xmlns:svg="http://www.w3.org/2000/svg">
  <sodipodi:namedview
     id="namedview1017"
     pagecolor="#ffffff"
     bordercolor="#000000"
     borderopacity="0.25"
     inkscape:showpageshadow="2"
     inkscape:pageopacity="0.0"
     inkscape:pagecheckerboard="0"
     inkscape:deskcolor="#d1d1d1"
     inkscape:document-units="px"
     showgrid="false"
     inkscape:zoom="16.833333"
     inkscape:cx="24"
     inkscape:cy="24"
     inkscape:window-width="1920"
     inkscape:window-height="1010"
     inkscape:window-x="0"
     inkscape:window-y="0"
     inkscape:window-maximized="1"
     inkscape:current-layer="svg1015" />
  <defs
     id="defs1012">
    <linearGradient
       inkscape:collect="always"
       xlink:href="#linearGradient11972"
       id="linearGradient1924"
       x1="0.5291667"
       y1="1.5875"
       x2="12.170832"
       y2="10.583332"
       gradientUnits="userSpaceOnUse"
       gradientTransform="matrix(3.7795274,0,0,3.7795274,0,0.99999936)" />
    <linearGradient
       inkscape:collect="always"
       id="linearGradient11972">
      <stop
         style="stop-color:#37d4e1;stop-opacity:1"
         offset="0"
         id="stop11968" />
      <stop
         style="stop-color:#086ebd;stop-opacity:1"
         offset="1"
         id="stop11970" />
    </linearGradient>
    <linearGradient
       inkscape:collect="always"
       xlink:href="#linearGradient1275"
       id="linearGradient1279"
       x1="8.235157"
       y1="3.9356756"
       x2="8.1690083"
       y2="8.6981754"
       gradientUnits="userSpaceOnUse"
       gradientTransform="matrix(3.101155,0,0,3.101155,-2.2564433,-2.1282255)" />
    <linearGradient
       inkscape:collect="always"
       id="linearGradient1275">
      <stop
         style="stop-color:#ffffff;stop-opacity:1;"
         offset="0"
         id="stop1271" />
      <stop
         style="stop-color:#ffffff;stop-opacity:0;"
         offset="1"
         id="stop1273" />
    </linearGradient>
    <linearGradient
       inkscape:collect="always"
       xlink:href="#linearGradient1275"
       id="linearGradient1277"
       x1="8.2020836"
       y1="7.5902357"
       x2="8.2020845"
       y2="10.236069"
       gradientUnits="userSpaceOnUse"
       gradientTransform="matrix(2.9396323,0,0,2.9396323,-0.88888849,-1.0694486)" />
    <linearGradient
       inkscape:collect="always"
       xlink:href="#linearGradient7024"
       id="linearGradient7026"
       x1="14.634075"
       y1="13.653037"
       x2="4.0507412"
       y2="3.0697033"
       gradientUnits="userSpaceOnUse"
       gradientTransform="matrix(1.8897618,0,0,1.8897618,18.345066,20.084293)" />
    <linearGradient
       inkscape:collect="always"
       id="linearGradient7024">
      <stop
         style="stop-color:#ffffff;stop-opacity:1;"
         offset="0"
         id="stop7020" />
      <stop
         style="stop-color:#f0f0f0;stop-opacity:1"
         offset="0.25"
         id="stop7732" />
      <stop
         style="stop-color:#cccccc;stop-opacity:1"
         offset="1"
         id="stop7022" />
    </linearGradient>
    <linearGradient
       inkscape:collect="always"
       xlink:href="#linearGradient6060"
       id="linearGradient6062"
       x1="1.0583334"
       y1="1.0583338"
       x2="15.345835"
       y2="13.229167"
       gradientUnits="userSpaceOnUse"
       gradientTransform="matrix(1.4173214,0,0,1.4173214,23.999998,24.012828)" />
    <linearGradient
       inkscape:collect="always"
       id="linearGradient6060">
      <stop
         style="stop-color:#8a8f97;stop-opacity:1;"
         offset="0"
         id="stop6056" />
      <stop
         style="stop-color:#8a8f97;stop-opacity:1"
         offset="0.14573747"
         id="stop6576" />
      <stop
         style="stop-color:#616e7a;stop-opacity:1"
         offset="0.89999998"
         id="stop6770" />
      <stop
         style="stop-color:#616e7a;stop-opacity:1"
         offset="1"
         id="stop6058" />
    </linearGradient>
    <linearGradient
       inkscape:collect="always"
       xlink:href="#linearGradient8250"
       id="linearGradient8252"
       x1="5.458415"
       y1="4.8895097"
       x2="12.337581"
       y2="11.768677"
       gradientUnits="userSpaceOnUse"
       gradientTransform="matrix(1.2598425,0,0,1.2598425,24.456597,25.173327)" />
    <linearGradient
       inkscape:collect="always"
       id="linearGradient8250">
      <stop
         style="stop-color:#0568ba;stop-opacity:1;"
         offset="0"
         id="stop8246" />
      <stop
         style="stop-color:#0568ba;stop-opacity:1"
         offset="0.23999999"
         id="stop9054" />
      <stop
         style="stop-color:#0f4c8a;stop-opacity:1"
         offset="0.80000001"
         id="stop8830" />
      <stop
         style="stop-color:#0f4c8f;stop-opacity:1"
         offset="1"
         id="stop8248" />
    </linearGradient>
  </defs>
  <rect
     style="fill:url(#linearGradient1924);fill-opacity:1;stroke-width:3;stroke-linecap:round;stroke-linejoin:round"
     id="rect1836"
     width="44"
     height="34"
     x="2"
     y="7"
     ry="1.9999998" />
  <rect
     style="opacity:0.6;fill:#e9fefe;fill-opacity:1;stroke-width:2.99999;stroke-linecap:round;stroke-linejoin:round"
     id="rect967"
     width="32.000004"
     height="6"
     x="8"
     y="31.000002"
     ry="1.0000001" />
  <circle
     style="opacity:0.95;fill:url(#linearGradient1279);fill-opacity:1;stroke-width:1.34767;stroke-linecap:round;stroke-linejoin:round"
     id="path846"
     cx="24"
     cy="15"
     r="4.0000005" />
  <path
     id="rect1058"
     style="opacity:0.95;fill:url(#linearGradient1277);fill-opacity:1;stroke-width:1.26014;stroke-linecap:round;stroke-linejoin:round"
     d="m 18.750005,20.999998 c -0.969499,0 -1.749998,0.780499 -1.749998,1.749998 v 0.583334 c -0.0065,2.531512 3.715831,4.372902 6.99999,4.374997 3.284159,-0.0021 7.00647,-1.843485 6.999994,-4.374997 v -0.583334 c 0,-0.969499 -0.780499,-1.749998 -1.749998,-1.749998 z"
     sodipodi:nodetypes="cscccscc" />
  <circle
     style="fill:url(#linearGradient7026);fill-opacity:1;stroke-width:0.499997"
     id="path6952"
     cx="35.999977"
     cy="35.885262"
     r="8.9999905" />
  <path
     id="path5884"
     style="fill:url(#linearGradient6062);fill-opacity:1;stroke-width:0.374999"
     d="m 32.270496,24.608287 a 11.999988,11.999988 0 0 0 -4.263423,2.460202 4.4999955,4.4999955 0 0 1 -0.125979,4.256832 4.4999955,4.4999955 0 0 1 -3.592525,2.209714 11.999988,11.999988 0 0 0 -0.288574,2.47778 11.999988,11.999988 0 0 0 0.292966,2.478513 4.4999955,4.4999955 0 0 1 3.58813,2.208987 4.4999955,4.4999955 0 0 1 0.134763,4.241454 11.999988,11.999988 0 0 0 4.242183,2.449946 4.4999955,4.4999955 0 0 1 3.74194,-2.003902 4.4999955,4.4999955 0 0 1 3.744136,2.003173 11.999988,11.999988 0 0 0 4.261236,-2.465333 4.4999955,4.4999955 0 0 1 0.113537,-4.225338 4.4999955,4.4999955 0 0 1 3.588128,-2.209716 11.999988,11.999988 0 0 0 0.292989,-2.477784 11.999988,11.999988 0 0 0 -0.288605,-2.47778 4.4999955,4.4999955 0 0 1 -3.59252,-2.209714 4.4999955,4.4999955 0 0 1 -0.10693,-4.242184 11.999988,11.999988 0 0 0 -4.282477,-2.47485 4.4999955,4.4999955 0 0 1 -3.729487,2.029538 4.4999955,4.4999955 0 0 1 -3.729488,-2.029538 z m 3.729488,5.404535 a 5.9999944,5.9999944 0 0 1 5.999996,5.999993 5.9999944,5.9999944 0 0 1 -5.999996,6.000001 5.9999944,5.9999944 0 0 1 -5.999993,-6.000001 5.9999944,5.9999944 0 0 1 5.999993,-5.999993 z" />
  <circle
     style="fill:url(#linearGradient8252);fill-opacity:1;stroke-width:0.333333"
     id="path8010"
     cx="35.999992"
     cy="35.999992"
     r="3.9999998" />
</svg>
