<?xml version="1.0" encoding="UTF-8" standalone="no"?>
<!-- Created with Inkscape (http://www.inkscape.org/) -->

<svg
   width="48"
   height="48"
   viewBox="0 0 48 48"
   version="1.1"
   id="svg1"
   inkscape:version="1.3.2 (091e20ef0f, 2023-11-25, custom)"
   sodipodi:docname="lunarclient.svg"
   xmlns:inkscape="http://www.inkscape.org/namespaces/inkscape"
   xmlns:sodipodi="http://sodipodi.sourceforge.net/DTD/sodipodi-0.dtd"
   xmlns:xlink="http://www.w3.org/1999/xlink"
   xmlns="http://www.w3.org/2000/svg"
   xmlns:svg="http://www.w3.org/2000/svg">
  <sodipodi:namedview
     id="namedview1"
     pagecolor="#ffffff"
     bordercolor="#000000"
     borderopacity="0.25"
     inkscape:showpageshadow="2"
     inkscape:pageopacity="0.0"
     inkscape:pagecheckerboard="0"
     inkscape:deskcolor="#d1d1d1"
     inkscape:document-units="px"
     inkscape:zoom="16.708333"
     inkscape:cx="24"
     inkscape:cy="24"
     inkscape:window-width="1920"
     inkscape:window-height="1012"
     inkscape:window-x="0"
     inkscape:window-y="0"
     inkscape:window-maximized="1"
     inkscape:current-layer="svg1" />
  <defs
     id="defs1">
    <linearGradient
       inkscape:collect="always"
       id="linearGradient1066">
      <stop
         style="stop-color:#555556;stop-opacity:1;"
         offset="0"
         id="stop1062" />
      <stop
         style="stop-color:#2d2d2d;stop-opacity:1;"
         offset="1"
         id="stop1064" />
    </linearGradient>
    <linearGradient
       inkscape:collect="always"
       xlink:href="#linearGradient1066"
       id="linearGradient3"
       x1="4"
       y1="2"
       x2="30"
       y2="30"
       gradientUnits="userSpaceOnUse"
       gradientTransform="matrix(1.5199999,0,0,1.5000007,-1.08,-1.43e-6)" />
  </defs>
  <path
     d="M 24.11339,3 V 3.00206 C 23.22931,2.9805434 22.356299,3.2004827 21.589951,3.6377908 L 7.4100476,11.750653 C 5.9185143,12.603738 4.9997551,14.180623 5,15.887065 V 32.11279 c 4.949e-4,1.70571 0.9191549,3.281642 2.4100476,4.134361 l 14.1799034,8.112862 c 1.491302,0.853316 3.328795,0.853316 4.820097,0 L 40.589953,36.247151 C 42.080845,35.394432 42.999505,33.8185 43,32.11279 V 15.887065 c 2.44e-4,-1.706442 -0.918513,-3.283326 -2.410047,-4.136412 L 26.410048,3.6377908 C 25.710521,3.237877 24.920782,3.0185635 24.11339,3 Z"
     style="fill:url(#linearGradient3);stroke-width:1.50997"
     id="path1" />
  <path
     d="m 23.905274,8.2500022 c -0.190365,-9e-4 -0.377856,0.046432 -0.544923,0.1376955 0,0 -3.330232,1.8240033 -6.667968,3.7851593 -1.668869,0.980575 -3.338493,1.995194 -4.617188,2.847657 -0.639347,0.426231 -1.179227,0.807027 -1.59668,1.151367 -0.208726,0.17217 -0.385632,0.333011 -0.5507801,0.521485 -0.165148,0.188475 -0.427735,0.349557 -0.427735,1.007812 V 30.000013 H 11.75 V 18.0586 c 0.05149,-0.04872 0.07509,-0.07843 0.161133,-0.149415 0.308519,-0.254484 0.806934,-0.613152 1.412109,-1.016601 1.210351,-0.806902 2.85893,-1.810869 4.50879,-2.780276 3.026263,-1.778143 5.579503,-3.174451 6.061522,-3.439454 0.47831,0.269058 2.96236,1.661523 5.915039,3.436525 1.612329,0.969249 3.22406,1.971003 4.406249,2.777344 0.591096,0.40317 1.076348,0.759984 1.376954,1.013673 0.0836,0.07054 0.108211,0.09811 0.158203,0.14649 V 30.000013 H 38 V 17.701178 C 38,17.05631 37.745837,16.891136 37.583984,16.702156 37.422131,16.513172 37.246475,16.353237 37.041991,16.180669 36.633025,15.835536 36.105785,15.452884 35.480468,15.026373 34.229838,14.173351 32.597252,13.15945 30.965819,12.178716 27.702955,10.217245 24.450195,8.3935575 24.450195,8.3935575 24.283672,8.3002567 24.09615,8.2508557 23.905274,8.2500022 Z M 23.75,12.000004 l -0.266601,0.483399 -0.4834,0.266601 0.4834,0.266601 0.266601,0.4834 0.266601,-0.4834 L 24.5,12.750004 24.016601,12.483403 Z m -3.070312,2.179689 c -3.5827,1.438128 -5.930374,4.910922 -5.929689,8.771488 0.0032,3.663221 2.12329,6.994562 5.440431,8.548832 H 7.9999999 V 31.99806 H 11 v 0.495118 H 35 V 31.99806 h 3 v -0.498047 h -9.817384 c 2.176265,-1.00847 3.887618,-2.806753 4.787109,-5.030276 -1.118764,0.448908 -2.313087,0.679617 -3.518554,0.679688 -5.21887,6.64e-4 -9.45022,-4.229375 -9.451171,-9.448247 -3.05e-4,-1.206453 0.230412,-2.401805 0.679688,-3.521485 z M 31.25,16.500007 30.983399,16.983406 30.5,17.250007 30.983399,17.516608 31.25,18.000007 31.516601,17.516608 32,17.250007 31.516601,16.983406 Z m -8.859375,1.019532 -0.395509,0.726561 -0.729492,0.398439 0.729492,0.398436 0.395509,0.726565 0.398438,-0.726565 0.726562,-0.398436 L 22.789063,18.2461 Z M 13.25,18.000007 12.983399,18.483406 12.5,18.750007 12.983399,19.016608 13.25,19.500007 13.516601,19.016608 14,18.750007 13.516601,18.483406 Z m 13.5,1.5 -0.266601,0.4834 L 26,20.250008 26.483399,20.516609 26.75,21.000008 27.0166,20.516609 27.499999,20.250008 27.0166,19.983407 Z m 6,0.899415 -0.530274,0.969728 -0.969726,0.530272 0.969726,0.530274 0.530274,0.969727 0.530274,-0.969727 0.969725,-0.530274 -0.969725,-0.530272 z m -4.649413,1.725587 -0.398439,0.726563 -0.726562,0.398438 0.726562,0.398437 0.398439,0.726563 0.398437,-0.726563 0.726562,-0.398437 -0.726562,-0.398438 z M 14,26.250011 13.469726,27.219737 12.5,27.750012 13.469726,28.280286 14,29.250013 14.530274,28.280286 15.5,27.750012 14.530274,27.219737 Z m -6.0000001,6.254886 v 0.500976 H 12.5 v 0.489258 H 9.4999999 v 0.498047 H 36.5 V 33.495131 H 33.499999 V 33.005873 H 38 V 32.504897 Z M 15.5,34.004898 v 0.495117 h -3 v 0.498046 h 6.75 v 0.495118 h 7.5 v -0.495118 h 6.749999 V 34.500015 H 30.5 v -0.495117 z m 2.25,1.500001 v 0.500976 h 10.5 v -0.500976 z"
     style="fill:#ffffff;stroke-width:1.5"
     id="path2" />
</svg>
