<?xml version="1.0" encoding="UTF-8" standalone="no"?>
<svg
   width="48"
   height="48"
   version="1.1"
   id="svg6"
   sodipodi:docname="microsoft-365.svg"
   inkscape:version="1.3.2 (091e20ef0f, 2023-11-25, custom)"
   xmlns:inkscape="http://www.inkscape.org/namespaces/inkscape"
   xmlns:sodipodi="http://sodipodi.sourceforge.net/DTD/sodipodi-0.dtd"
   xmlns:xlink="http://www.w3.org/1999/xlink"
   xmlns="http://www.w3.org/2000/svg"
   xmlns:svg="http://www.w3.org/2000/svg">
  <defs
     id="defs6">
    <linearGradient
       id="linearGradient17"
       inkscape:collect="always">
      <stop
         style="stop-color:#d59dff;stop-opacity:1;"
         offset="0.13"
         id="stop17" />
      <stop
         style="stop-color:#5e438f;stop-opacity:1;"
         offset="1"
         id="stop18" />
    </linearGradient>
    <linearGradient
       id="linearGradient14"
       inkscape:collect="always">
      <stop
         style="stop-color:#493474;stop-opacity:1;"
         offset="0"
         id="stop15" />
      <stop
         style="stop-color:#8c66ba;stop-opacity:0;"
         offset="1"
         id="stop16" />
    </linearGradient>
    <linearGradient
       id="linearGradient13"
       inkscape:collect="always">
      <stop
         style="stop-color:#50e6ff;stop-opacity:1;"
         offset="0.06"
         id="stop13" />
      <stop
         style="stop-color:#436dcd;stop-opacity:1;"
         offset="1"
         id="stop14" />
    </linearGradient>
    <linearGradient
       id="linearGradient10"
       inkscape:collect="always">
      <stop
         style="stop-color:#2d3f80;stop-opacity:1;"
         offset="0"
         id="stop11" />
      <stop
         style="stop-color:#436dcd;stop-opacity:0;"
         offset="1"
         id="stop12" />
    </linearGradient>
    <linearGradient
       id="linearGradient9"
       inkscape:collect="always">
      <stop
         style="stop-color:#ae7fe2;stop-opacity:1;"
         offset="0.06"
         id="stop9" />
      <stop
         style="stop-color:#0078d4;stop-opacity:1;"
         offset="1"
         id="stop10" />
    </linearGradient>
    <linearGradient
       id="linearGradient7"
       inkscape:collect="always">
      <stop
         style="stop-color:#114a8b;stop-opacity:1;"
         offset="0"
         id="stop7" />
      <stop
         style="stop-color:#0078d4;stop-opacity:0;"
         offset="1"
         id="stop8" />
    </linearGradient>
    <linearGradient
       inkscape:collect="always"
       xlink:href="#linearGradient7"
       id="linearGradient8"
       x1="10.233937"
       y1="24.978184"
       x2="7.3184915"
       y2="21.126469"
       gradientUnits="userSpaceOnUse"
       gradientTransform="matrix(1.5,0,0,1.5,-0.5,0)" />
    <radialGradient
       inkscape:collect="always"
       xlink:href="#linearGradient9"
       id="radialGradient10"
       cx="4.3070111"
       cy="15.681137"
       fx="4.3070111"
       fy="15.681137"
       r="6.8649998"
       gradientTransform="matrix(-1.5770732,4.2580897,-8.0032131,-2.9641596,148.29195,38.641752)"
       gradientUnits="userSpaceOnUse" />
    <linearGradient
       inkscape:collect="always"
       xlink:href="#linearGradient10"
       id="linearGradient12"
       x1="11"
       y1="2"
       x2="16"
       y2="2"
       gradientUnits="userSpaceOnUse"
       gradientTransform="matrix(1.5,0,0,1.5,-0.5,0)" />
    <radialGradient
       inkscape:collect="always"
       xlink:href="#linearGradient13"
       id="radialGradient14"
       cx="11.199357"
       cy="7.0220962"
       fx="11.199357"
       fy="7.0220962"
       r="9"
       gradientTransform="matrix(-2.542414,-0.75340713,1.6344582,-5.5155705,56.23108,73.058543)"
       gradientUnits="userSpaceOnUse" />
    <linearGradient
       inkscape:collect="always"
       xlink:href="#linearGradient14"
       id="linearGradient16"
       x1="26.203934"
       y1="16.368507"
       x2="22.963009"
       y2="20.450001"
       gradientUnits="userSpaceOnUse"
       gradientTransform="matrix(1.5,0,0,1.5,-0.5,0)" />
    <radialGradient
       inkscape:collect="always"
       xlink:href="#linearGradient17"
       id="radialGradient18"
       cx="7.520092"
       cy="24.372429"
       fx="7.520092"
       fy="24.372429"
       r="11.655"
       gradientTransform="matrix(2.5341474,-0.32348664,0.20605581,1.6142112,-13.298963,-1.503311)"
       gradientUnits="userSpaceOnUse" />
  </defs>
  <sodipodi:namedview
     id="namedview6"
     pagecolor="#ffffff"
     bordercolor="#000000"
     borderopacity="0.25"
     inkscape:showpageshadow="2"
     inkscape:pageopacity="0.0"
     inkscape:pagecheckerboard="0"
     inkscape:deskcolor="#d1d1d1"
     inkscape:zoom="16.895833"
     inkscape:cx="23.970407"
     inkscape:cy="24"
     inkscape:window-width="1920"
     inkscape:window-height="1008"
     inkscape:window-x="0"
     inkscape:window-y="0"
     inkscape:window-maximized="1"
     inkscape:current-layer="svg6" />
  <path
     style="fill:url(#radialGradient10);stroke-width:1.5"
     d="m 23.5,4.5 v 9 l -3,3 -4.5,3 v 3.825 c 0,2.67 1.125,5.325 3.465,6.72 l 5.13,3.03 -10.845,6.195 h -2.085 l -3.9,-2.31 C 5.425,35.58 4,33.105 4,30.435 V 17.565 C 4,14.895 5.425,12.42 7.765,11.04 l 11.7,-6.93 z"
     id="path2" />
  <path
     style="fill:url(#linearGradient8);stroke-width:1.5"
     d="m 23.5,4.5 v 9 l -3,3 -4.5,3 v 3.825 c 0,2.67 1.125,5.325 3.465,6.72 l 5.13,3.03 -10.845,6.195 h -2.085 l -3.9,-2.31 C 5.425,35.58 4,33.105 4,30.435 V 17.565 C 4,14.895 5.425,12.42 7.765,11.04 l 11.7,-6.93 z"
     id="path2-7" />
  <path
     style="fill:url(#radialGradient18);stroke-width:1.5"
     d="m 31,18 v 5.475 c 0,2.67 -1.125,5.175 -3.465,6.555 l -11.7,6.945 c -2.385,1.41 -5.37,1.47 -7.8,0.15 l 11.43,6.765 c 1.242,0.735 2.637,1.11 4.035,1.11 1.398,0 2.793,-0.375 4.035,-1.11 l 11.7,-6.93 C 41.575,35.58 43,33.105 43,30.435 V 28.5 l -0.75,-3 z"
     id="path3" />
  <path
     style="fill:url(#linearGradient16);fill-opacity:1;stroke-width:1.5"
     d="m 31,18 v 5.475 c 0,2.67 -1.125,5.175 -3.465,6.555 l -11.7,6.945 c -2.385,1.41 -5.37,1.47 -7.8,0.15 l 11.43,6.765 c 1.242,0.735 2.637,1.11 4.035,1.11 1.398,0 2.793,-0.375 4.035,-1.11 l 11.7,-6.93 C 41.575,35.58 43,33.105 43,30.435 V 28.5 l -0.75,-3 z"
     id="path3-5" />
  <path
     style="fill:url(#radialGradient14);stroke-width:1.5"
     d="M 39.235,11.025 27.535,4.11 C 26.3335,3.3999 24.8545,3 23.5,3 22.144,3 20.9125,3.3075 19.69,3.975 L 19.465,4.11 C 17.125,5.49 16,7.83 16,10.5 v 9 l 3.465,-1.905 c 1.26,-0.69 2.64,-1.095 4.035,-1.095 1.395,0 2.79,0.375 4.035,1.095 l 11.7,6.795 c 2.28,1.32 3.675,3.705 3.765,6.285 v -0.24 -12.87 c 0,-2.67 -1.425,-5.145 -3.765,-6.54 z"
     id="path4" />
  <path
     style="fill:url(#linearGradient12);fill-opacity:1;stroke-width:1.5"
     d="M 39.235,11.025 27.535,4.11 C 26.3335,3.3999 24.8545,3 23.5,3 22.144,3 20.9125,3.3075 19.69,3.975 L 19.465,4.11 C 17.125,5.49 16,7.83 16,10.5 v 9 l 3.465,-1.905 c 1.26,-0.69 2.64,-1.095 4.035,-1.095 1.395,0 2.79,0.375 4.035,1.095 l 11.7,6.795 c 2.28,1.32 3.675,3.705 3.765,6.285 v -0.24 -12.87 c 0,-2.67 -1.425,-5.145 -3.765,-6.54 z"
     id="path4-3" />
</svg>
