<?xml version="1.0" encoding="UTF-8" standalone="no"?>
<!-- Created with Inkscape (http://www.inkscape.org/) -->

<svg
   width="48"
   height="48"
   viewBox="0 0 48 48"
   version="1.1"
   id="svg5"
   inkscape:version="1.2.2 (1:1.2.2+202305151914+b0a8486541)"
   sodipodi:docname="microsoft-edge-beta.svg"
   xmlns:inkscape="http://www.inkscape.org/namespaces/inkscape"
   xmlns:sodipodi="http://sodipodi.sourceforge.net/DTD/sodipodi-0.dtd"
   xmlns:xlink="http://www.w3.org/1999/xlink"
   xmlns="http://www.w3.org/2000/svg"
   xmlns:svg="http://www.w3.org/2000/svg">
  <sodipodi:namedview
     id="namedview7"
     pagecolor="#ffffff"
     bordercolor="#000000"
     borderopacity="0.25"
     inkscape:showpageshadow="2"
     inkscape:pageopacity="0.0"
     inkscape:pagecheckerboard="0"
     inkscape:deskcolor="#d1d1d1"
     inkscape:document-units="px"
     showgrid="false"
     inkscape:zoom="17.291667"
     inkscape:cx="23.971084"
     inkscape:cy="24"
     inkscape:window-width="1920"
     inkscape:window-height="1008"
     inkscape:window-x="0"
     inkscape:window-y="0"
     inkscape:window-maximized="1"
     inkscape:current-layer="svg5"
     showguides="false" />
  <defs
     id="defs2">
    <linearGradient
       inkscape:collect="always"
       xlink:href="#linearGradient2180"
       id="linearGradient1833"
       x1="6.5871072"
       y1="15.827564"
       x2="20.517012"
       y2="15.827564"
       gradientUnits="userSpaceOnUse" />
    <linearGradient
       inkscape:collect="always"
       id="linearGradient2180">
      <stop
         style="stop-color:#0c59a4;stop-opacity:1;"
         offset="0"
         id="stop2176" />
      <stop
         style="stop-color:#114a8b;stop-opacity:1;"
         offset="1"
         id="stop2178" />
    </linearGradient>
    <radialGradient
       inkscape:collect="always"
       xlink:href="#linearGradient27818"
       id="radialGradient1823"
       cx="13.964947"
       cy="15.070184"
       fx="13.964947"
       fy="15.070184"
       r="6.9649525"
       gradientTransform="matrix(0.00133244,0.84210075,-1.150171,0.00181993,31.545253,4.3477182)"
       gradientUnits="userSpaceOnUse" />
    <linearGradient
       inkscape:collect="always"
       id="linearGradient27818">
      <stop
         style="stop-color:#000000;stop-opacity:0;"
         offset="0.72000003"
         id="stop27812" />
      <stop
         style="stop-color:#000000;stop-opacity:0.5;"
         offset="0.94999999"
         id="stop27814" />
      <stop
         style="stop-color:#000000;stop-opacity:1"
         offset="1"
         id="stop27816" />
    </linearGradient>
    <linearGradient
       inkscape:collect="always"
       xlink:href="#linearGradient1748"
       id="linearGradient1841"
       x1="13.139339"
       y1="8.2946587"
       x2="5.5388999"
       y2="19.625275"
       gradientUnits="userSpaceOnUse" />
    <linearGradient
       inkscape:collect="always"
       id="linearGradient1748">
      <stop
         style="stop-color:#1b9ed2;stop-opacity:1;"
         offset="0"
         id="stop1744" />
      <stop
         style="stop-color:#1595df;stop-opacity:1;"
         offset="0.15000001"
         id="stop1752" />
      <stop
         style="stop-color:#0680df;stop-opacity:1;"
         offset="0.67000002"
         id="stop1754" />
      <stop
         style="stop-color:#0078d4;stop-opacity:1;"
         offset="1"
         id="stop1746" />
    </linearGradient>
    <radialGradient
       inkscape:collect="always"
       xlink:href="#linearGradient1360"
       id="radialGradient1815"
       cx="7.720675"
       cy="15.910741"
       fx="7.720675"
       fy="15.910741"
       r="6.5812793"
       gradientTransform="matrix(1.3946929,0.46534247,-0.50264665,1.5064984,3.8924491,-10.936195)"
       gradientUnits="userSpaceOnUse" />
    <linearGradient
       inkscape:collect="always"
       id="linearGradient1360">
      <stop
         style="stop-color:#000000;stop-opacity:0;"
         offset="0.75"
         id="stop1356" />
      <stop
         style="stop-color:#000000;stop-opacity:0.49803922;"
         offset="0.94999999"
         id="stop1364" />
      <stop
         style="stop-color:#000000;stop-opacity:1;"
         offset="1"
         id="stop1358" />
    </linearGradient>
    <radialGradient
       inkscape:collect="always"
       xlink:href="#linearGradient1290"
       id="radialGradient1805"
       cx="18.083834"
       cy="14.548402"
       fx="18.083834"
       fy="14.548402"
       r="9.9997654"
       gradientTransform="matrix(-2.7997325,-0.01668205,0.00863725,-1.4495504,54.590382,27.273247)"
       gradientUnits="userSpaceOnUse" />
    <linearGradient
       inkscape:collect="always"
       id="linearGradient1290">
      <stop
         style="stop-color:#35c1f1;stop-opacity:1;"
         offset="0"
         id="stop1286" />
      <stop
         style="stop-color:#34c1ed;stop-opacity:1;"
         offset="0.1"
         id="stop1294" />
      <stop
         style="stop-color:#2fc2df;stop-opacity:1;"
         offset="0.23"
         id="stop1296" />
      <stop
         style="stop-color:#2bc3d2;stop-opacity:1;"
         offset="0.30000001"
         id="stop1298" />
      <stop
         style="stop-color:#36c752;stop-opacity:1;"
         offset="1"
         id="stop1288" />
    </linearGradient>
    <radialGradient
       inkscape:collect="always"
       xlink:href="#linearGradient1280"
       id="radialGradient1624"
       cx="0.61833256"
       cy="6.561069"
       fx="0.61833256"
       fy="6.561069"
       r="9.9997663"
       gradientTransform="matrix(-0.70510525,0.15923948,-0.20485941,-0.90710844,21.867116,14.51222)"
       gradientUnits="userSpaceOnUse" />
    <linearGradient
       inkscape:collect="always"
       id="linearGradient1280">
      <stop
         style="stop-color:#66eb6e;stop-opacity:1;"
         offset="0"
         id="stop1276" />
      <stop
         style="stop-color:#66eb6e;stop-opacity:0;"
         offset="1"
         id="stop1278" />
    </linearGradient>
  </defs>
  <g
     id="g1849"
     transform="matrix(2.1000492,0,0,2.1000492,-1.200098,-1.197956)">
    <path
       d="m 20.050795,16.882888 c -0.958269,0.942903 -2.444763,1.166719 -3.627814,1.172531 -3.696557,0 -6.916594,-2.842616 -6.916594,-6.105452 0.0096,-0.891127 0.50068,-1.707299 1.283484,-2.133303 -3.343463,0.1406058 -4.202764,3.624506 -4.202764,5.665634 0,5.771088 5.319074,6.356165 6.46507,6.356165 0.617916,0 1.549867,-0.179663 2.109194,-0.356201 l 0.102335,-0.03437 c 2.152349,-0.744046 3.987241,-2.198662 5.202678,-4.124437 0.17359,-0.273484 -0.13243,-0.597894 -0.415589,-0.440565 z"
       style="fill:url(#linearGradient1833);fill-opacity:1"
       id="path396" />
    <path
       d="m 20.050795,16.882888 c -0.95827,0.942903 -2.444764,1.166718 -3.627814,1.17253 -3.696557,0 -6.9165945,-2.842615 -6.9165945,-6.105451 0.0096,-0.891127 0.5006805,-1.707299 1.2834845,-2.133303 -3.3434635,0.140605 -4.2027645,3.624506 -4.2027645,5.665633 0,5.771089 5.3190745,6.356165 6.4650705,6.356165 0.617916,0 1.549867,-0.179663 2.109194,-0.356201 l 0.102335,-0.03437 c 2.152349,-0.744046 3.987241,-2.198662 5.202678,-4.124438 0.17359,-0.273483 -0.13243,-0.597894 -0.415589,-0.440565 z"
       style="opacity:0.35;fill:url(#radialGradient1823);fill-opacity:1"
       id="path358" />
    <path
       d="M 9.9595242,20.857346 C 9.2627585,20.424906 8.6589187,19.858271 8.1831143,19.190385 5.8743683,16.027408 7.2768803,11.547082 10.78987,9.8166639 c 0.243729,-0.1148283 0.6601,-0.3226124 1.213959,-0.3124571 0.791026,0.00576 1.533718,0.381567 2.006858,1.0154862 0.31546,0.42118 0.48939,0.931457 0.496832,1.457614 0,-0.0164 1.910774,-6.2179025 -6.2494627,-6.2179025 -3.429393,0 -6.249463,3.2542438 -6.249463,6.1093235 -0.01353,1.510299 0.30964,3.004638 0.946012,4.374403 2.152757,4.592979 7.4037987,6.846334 12.2161387,5.242254 -1.647439,0.519401 -3.739664,0.291021 -5.2041889,-0.624915 z"
       style="fill:url(#linearGradient1841);fill-opacity:1"
       id="path434" />
    <path
       d="M 9.9595239,20.857346 C 9.2627582,20.424907 8.6589184,19.858271 8.183114,19.190386 5.8743676,16.027408 7.2768798,11.547081 10.78987,9.8166642 c 0.243729,-0.1148289 0.6601,-0.3226127 1.213959,-0.3124579 0.791026,0.0058 1.533718,0.3815679 2.006858,1.0154867 0.31546,0.421179 0.48939,0.931456 0.496832,1.457614 0,-0.0164 1.910774,-6.2179025 -6.2494627,-6.2179025 -3.429393,0 -6.2494633,3.2542437 -6.2494633,6.1093235 -0.01353,1.510299 0.30964,3.004638 0.946012,4.374403 2.1527571,4.592979 7.403799,6.846334 12.216139,5.242254 -1.647439,0.519402 -3.739664,0.291022 -5.2041892,-0.624915 z"
       style="opacity:0.45;fill:url(#radialGradient1815);fill-opacity:1"
       id="path472" />
    <path
       d="m 13.899759,13.327232 c -0.06327,0.08202 -0.25779,0.195285 -0.25779,0.442127 0,0.203878 0.132801,0.399945 0.368718,0.564767 1.123341,0.781143 3.241128,0.678032 3.246597,0.678032 0.83237,-0.002 1.648964,-0.227245 2.36464,-0.652255 1.469068,-0.85774 2.373654,-2.129763 2.377139,-3.830836 C 22.019373,8.7785245 21.374117,7.6146207 21.113202,7.0990658 19.457875,3.8612261 15.884745,1.9989799 11.999141,1.9989799 6.531218,1.9984394 2.076893,6.3899039 2,11.857011 2.0375,9.0027127 4.874753,6.4975594 8.249464,6.4975594 c 0.273413,0 1.832655,0.026559 3.280968,0.7866116 1.276452,0.6702208 1.945145,1.6794846 2.409949,2.4817188 0.675573,1.2746672 0.704647,2.5882402 -0.04062,3.5613422 z"
       style="fill:url(#radialGradient1805);fill-opacity:1"
       id="path510" />
    <path
       d="m 13.899759,13.327232 c -0.06327,0.08202 -0.25779,0.195285 -0.25779,0.442127 0,0.203878 0.132801,0.399945 0.368718,0.564767 1.123341,0.781143 3.241128,0.678032 3.246597,0.678032 0.83237,-0.002 1.648964,-0.227244 2.36464,-0.652255 1.469068,-0.85774 2.373654,-2.129763 2.377139,-3.830836 C 22.019373,8.7785247 21.374117,7.6146209 21.113202,7.099066 19.457875,3.8612261 15.884745,1.9989799 11.999141,1.9989799 6.5312175,1.9984394 2.0768925,6.3899041 1.9999998,11.857011 2.0374965,9.0027129 4.8747529,6.4975596 8.249463,6.4975596 c 0.273414,0 1.832656,0.026559 3.280969,0.7866116 1.276452,0.6702208 1.945145,1.6794846 2.409949,2.4817185 0.675573,1.2746673 0.704647,2.5882413 -0.04062,3.5613423 z"
       style="opacity:1;fill:url(#radialGradient1624);fill-opacity:1"
       id="path548" />
  </g>
  <rect
     style="fill:#50e6ff;fill-opacity:1;stroke-width:2.0755;stroke-linecap:round;stroke-linejoin:round"
     id="rect378"
     width="32"
     height="13"
     x="14"
     y="33"
     ry="3" />
  <path
     d="M 19,36.000118 V 43 h 2.688185 c 0.794037,0 1.421003,-0.1863 1.879852,-0.560538 0.458842,-0.377507 0.688711,-0.886722 0.688711,-1.527812 0,-0.439323 -0.150088,-0.811757 -0.449465,-1.117656 -0.296121,-0.30588 -0.693243,-0.490151 -1.191139,-0.551987 v -0.02061 c 0.397041,-0.110614 0.721982,-0.306453 0.975814,-0.589592 0.257093,-0.283124 0.386215,-0.613699 0.386215,-0.99119 0,-0.52068 -0.209097,-0.923567 -0.628898,-1.209941 C 22.929485,36.144266 22.329056,36 21.548038,36 Z m 6.408578,0 V 43 h 4.1972 v -1.278301 h -2.61983 V 40.12041 h 2.288289 v -1.278302 h -2.288289 v -1.558563 h 2.459184 v -1.283427 z m 4.75944,0 v 1.283427 h 1.985807 V 43 h 1.582497 v -5.716455 h 1.996059 v -1.283427 z m 7.604856,0 L 35.224826,43 h 1.70895 l 0.492176,-1.556862 h 2.489952 L 40.413211,43 h 1.719208 L 39.64247,36.000118 Z m -17.197216,1.162087 h 0.591298 c 0.768005,0 1.15184,0.256578 1.15184,0.770738 0,0.276594 -0.09497,0.495067 -0.283698,0.654534 -0.185481,0.156186 -0.440189,0.234155 -0.765614,0.234155 h -0.693836 z m 18.070493,0.08717 h 0.03945 c 0.02263,0.244066 0.06256,0.454853 0.117954,0.630605 l 0.751944,2.353229 h -1.792872 l 0.762167,-2.373727 c 0.065,-0.201735 0.105063,-0.405072 0.121361,-0.610094 z m -18.070493,2.744586 h 0.86473 c 0.364471,0 0.647584,0.07981 0.849351,0.239254 0.204995,0.159467 0.30761,0.378083 0.30761,0.657954 0,0.292844 -0.104453,0.524599 -0.312762,0.693833 -0.204995,0.169204 -0.490002,0.252914 -0.854473,0.252914 h -0.854476 z"
     style="font-weight:bold;font-size:3.02297px;line-height:1.25;font-family:'Segoe UI';-inkscape-font-specification:'Segoe UI Bold';stroke-width:0.374888"
     id="path10318" />
</svg>
