<?xml version="1.0" encoding="UTF-8" standalone="no"?>
<!-- Created with Inkscape (http://www.inkscape.org/) -->

<svg
   width="48"
   height="48"
   viewBox="0 0 48 48"
   version="1.1"
   id="svg5"
   inkscape:version="1.2.1 (9c6d41e410, 2022-07-14, custom)"
   sodipodi:docname="ms-office.svg"
   xmlns:inkscape="http://www.inkscape.org/namespaces/inkscape"
   xmlns:sodipodi="http://sodipodi.sourceforge.net/DTD/sodipodi-0.dtd"
   xmlns:xlink="http://www.w3.org/1999/xlink"
   xmlns="http://www.w3.org/2000/svg"
   xmlns:svg="http://www.w3.org/2000/svg">
  <sodipodi:namedview
     id="namedview7"
     pagecolor="#ffffff"
     bordercolor="#000000"
     borderopacity="0.25"
     inkscape:showpageshadow="2"
     inkscape:pageopacity="0.0"
     inkscape:pagecheckerboard="0"
     inkscape:deskcolor="#d1d1d1"
     inkscape:document-units="px"
     showgrid="false"
     inkscape:zoom="16.708333"
     inkscape:cx="23.970075"
     inkscape:cy="24"
     inkscape:window-width="1920"
     inkscape:window-height="1011"
     inkscape:window-x="0"
     inkscape:window-y="0"
     inkscape:window-maximized="1"
     inkscape:current-layer="svg5" />
  <defs
     id="defs2">
    <linearGradient
       inkscape:collect="always"
       xlink:href="#linearGradient1260"
       id="linearGradient2046"
       gradientUnits="userSpaceOnUse"
       x1="45.200001"
       y1="-1.42"
       x2="45.200001"
       y2="57.799999"
       gradientTransform="matrix(0.68749986,0,0,0.68749986,1.5000091,1.7900333)" />
    <linearGradient
       inkscape:collect="always"
       id="linearGradient1260">
      <stop
         style="stop-color:#ffb900;stop-opacity:1;"
         offset="0"
         id="stop1256" />
      <stop
         style="stop-color:#ef8400;stop-opacity:1;"
         offset="0.17"
         id="stop1264" />
      <stop
         style="stop-color:#e25c01;stop-opacity:1;"
         offset="0.30000001"
         id="stop1266" />
      <stop
         style="stop-color:#d93f01;stop-opacity:1;"
         offset="0.465"
         id="stop1268" />
      <stop
         style="stop-color:#d83b01;stop-opacity:1;"
         offset="0.5"
         id="stop1258" />
    </linearGradient>
    <linearGradient
       inkscape:collect="always"
       xlink:href="#linearGradient1336"
       id="linearGradient2106"
       gradientUnits="userSpaceOnUse"
       x1="35.16"
       y1="-0.23999999"
       x2="28.52"
       y2="9.2399998"
       gradientTransform="matrix(0.68749986,0,0,0.68749986,1.5000091,1.7900333)" />
    <linearGradient
       inkscape:collect="always"
       id="linearGradient1336">
      <stop
         style="stop-color:#000000;stop-opacity:0.40000001;"
         offset="0"
         id="stop1332" />
      <stop
         style="stop-color:#000000;stop-opacity:0;"
         offset="1"
         id="stop1334" />
    </linearGradient>
    <linearGradient
       inkscape:collect="always"
       xlink:href="#linearGradient1336"
       id="linearGradient2136"
       gradientUnits="userSpaceOnUse"
       x1="46.32"
       y1="56.549999"
       x2="27.99"
       y2="54.950001"
       gradientTransform="matrix(0.68749986,0,0,0.68749986,1.5000091,1.7900333)" />
    <linearGradient
       inkscape:collect="always"
       xlink:href="#linearGradient1876"
       id="linearGradient2016"
       gradientUnits="userSpaceOnUse"
       x1="34.52"
       y1="0.67000002"
       x2="3.1600001"
       y2="45.450001"
       gradientTransform="matrix(0.68749986,0,0,0.68749986,1.5000091,1.7900333)" />
    <linearGradient
       inkscape:collect="always"
       id="linearGradient1876">
      <stop
         style="stop-color:#800600;stop-opacity:1;"
         offset="0"
         id="stop1872" />
      <stop
         style="stop-color:#c72727;stop-opacity:1;"
         offset="0.73000002"
         id="stop1880" />
      <stop
         style="stop-color:#c13959;stop-opacity:1;"
         offset="0.82000005"
         id="stop1886" />
      <stop
         style="stop-color:#bc4b81;stop-opacity:1;"
         offset="0.91000003"
         id="stop1884" />
      <stop
         style="stop-color:#b95799;stop-opacity:1;"
         offset="0.97000003"
         id="stop1882" />
      <stop
         style="stop-color:#b85ba2;stop-opacity:1;"
         offset="1"
         id="stop1874" />
    </linearGradient>
    <linearGradient
       inkscape:collect="always"
       xlink:href="#linearGradient1606"
       id="linearGradient2076"
       gradientUnits="userSpaceOnUse"
       x1="18.5"
       y1="55.630001"
       x2="59.439999"
       y2="55.630001"
       gradientTransform="matrix(0.68749986,0,0,0.68749986,1.5000091,1.7900333)" />
    <linearGradient
       inkscape:collect="always"
       id="linearGradient1606">
      <stop
         style="stop-color:#f32b44;stop-opacity:1;"
         offset="0"
         id="stop1602" />
      <stop
         style="stop-color:#a4070a;stop-opacity:1;"
         offset="0.60000002"
         id="stop1604" />
    </linearGradient>
  </defs>
  <path
     d="m 25.156878,3.1650329 3.155624,7.2187481 v 25.61622 l -3.107499,8.415022 11.749372,-3.348124 C 38.754735,40.549631 39.996316,38.904466 40,37.031275 V 10.548782 C 40.000825,8.6703429 38.754412,7.0197008 36.9475,6.5062838 Z"
     style="fill:url(#linearGradient2046);fill-opacity:1;stroke-width:0.687499"
     id="path2027"
     sodipodi:nodetypes="ccccccccc" />
  <path
     d="M 28.312502,36.000001 H 15.201879 c -2.246158,0.02406 -3.032595,2.469268 -1.093123,3.602524 l 7.809997,4.427498 c 0.64328,0.365677 1.370673,0.557595 2.110626,0.556875 v 0 c 0.398117,-2.6e-4 0.794096,-0.05815 1.175624,-0.171875 1.842933,-0.523626 3.112681,-2.209126 3.107499,-4.124998 z"
     style="fill:url(#linearGradient2076);fill-opacity:1;stroke-width:0.687499"
     id="path2057"
     sodipodi:nodetypes="ccccssccc" />
  <path
     d="M 28.312502,36.000001 H 15.201879 c -2.246158,0.02406 -3.032595,2.469268 -1.093123,3.602524 l 7.809997,4.427498 c 0.64328,0.365677 1.370673,0.557595 2.110626,0.556875 v 0 c 0.398117,-2.6e-4 0.794096,-0.05815 1.175624,-0.171875 1.842933,-0.523626 3.11268,-2.209126 3.107499,-4.124998 z"
     style="fill:url(#linearGradient2136);fill-opacity:1;stroke-width:0.687499"
     id="path2117"
     sodipodi:nodetypes="ccccssccc" />
  <path
     d="m 10.258757,35.2094 3.4375,-1.856248 c 0.960251,-0.527754 1.556025,-1.537404 1.553748,-2.633124 V 17.210655 c 0.0013,-1.26046 0.789245,-2.386096 1.973124,-2.81875 L 28.312502,10.383781 V 7.3381569 c -0.0025,-1.939414 -1.290281,-3.6422414 -3.155624,-4.173124 -0.386647,-0.1110285 -0.787104,-0.1665826 -1.189375,-0.165 v 0 c -0.756638,0.00173 -1.500084,0.1982468 -2.158749,0.5706249 L 9.1175087,10.810032 c -1.30917,0.745985 -2.1175103,2.136959 -2.117501,3.643749 v 18.809995 c -0.0043,1.675144 1.786127,2.744065 3.2587493,1.945624 z"
     style="fill:url(#linearGradient2016);fill-opacity:1;stroke-width:0.687499"
     id="path1997" />
  <path
     d="m 10.258757,35.2094 3.4375,-1.856248 c 0.960251,-0.527754 1.556025,-1.537404 1.553748,-2.633124 V 17.210655 c 0.0013,-1.26046 0.789245,-2.386096 1.973124,-2.81875 L 28.312502,10.383781 V 7.3381569 c -0.0025,-1.939414 -1.290281,-3.6422411 -3.155624,-4.173124 -0.386647,-0.1110285 -0.787104,-0.1665826 -1.189375,-0.165 v 0 C 23.210865,3.0017629 22.467419,3.19828 21.808754,3.5706578 L 9.1175087,10.810032 c -1.30917,0.745985 -2.1175103,2.136959 -2.117501,3.643749 v 18.809995 c -0.00415,1.675144 1.786127,2.744065 3.2587493,1.945624 z"
     style="fill:url(#linearGradient2106);fill-opacity:1;stroke-width:0.687499"
     id="path2087" />
</svg>
