<?xml version="1.0" encoding="UTF-8" standalone="no"?>
<!-- Created with Inkscape (http://www.inkscape.org/) -->

<svg
   width="48"
   height="48"
   viewBox="0 0 48 48"
   version="1.1"
   id="svg5"
   inkscape:version="1.2.1 (9c6d41e410, 2022-07-14, custom)"
   sodipodi:docname="preferences-desktop.svg"
   xmlns:inkscape="http://www.inkscape.org/namespaces/inkscape"
   xmlns:sodipodi="http://sodipodi.sourceforge.net/DTD/sodipodi-0.dtd"
   xmlns:xlink="http://www.w3.org/1999/xlink"
   xmlns="http://www.w3.org/2000/svg"
   xmlns:svg="http://www.w3.org/2000/svg">
  <sodipodi:namedview
     id="namedview7"
     pagecolor="#ffffff"
     bordercolor="#666666"
     borderopacity="1.0"
     inkscape:pageshadow="2"
     inkscape:pageopacity="0.0"
     inkscape:pagecheckerboard="0"
     inkscape:document-units="px"
     showgrid="false"
     units="px"
     height="16px"
     showguides="false"
     inkscape:zoom="17.083333"
     inkscape:cx="22.419513"
     inkscape:cy="24"
     inkscape:window-width="1920"
     inkscape:window-height="1029"
     inkscape:window-x="0"
     inkscape:window-y="0"
     inkscape:window-maximized="1"
     inkscape:current-layer="svg5"
     inkscape:showpageshadow="2"
     inkscape:deskcolor="#d1d1d1" />
  <defs
     id="defs2">
    <linearGradient
       inkscape:collect="always"
       xlink:href="#linearGradient5821"
       id="linearGradient1469"
       x1="6.8790803"
       y1="2.3812201"
       x2="6.8790803"
       y2="11.9061"
       gradientUnits="userSpaceOnUse"
       gradientTransform="matrix(3.7795752,0,0,3.7795752,-2,-3.0000004)" />
    <linearGradient
       inkscape:collect="always"
       id="linearGradient5821">
      <stop
         style="stop-color:#3bcaf5;stop-opacity:1;"
         offset="0"
         id="stop5817" />
      <stop
         style="stop-color:#1b9ee4;stop-opacity:1"
         offset="1"
         id="stop5819" />
    </linearGradient>
    <radialGradient
       inkscape:collect="always"
       xlink:href="#linearGradient24598"
       id="radialGradient24600"
       cx="5.55618"
       cy="7.4082398"
       fx="5.55618"
       fy="7.4082398"
       r="3.7041199"
       gradientUnits="userSpaceOnUse"
       gradientTransform="matrix(2.8925316,0,0,2.892532,-0.57142624,0.0714297)" />
    <linearGradient
       inkscape:collect="always"
       id="linearGradient24598">
      <stop
         style="stop-color:#000000;stop-opacity:1;"
         offset="0"
         id="stop24594" />
      <stop
         style="stop-color:#000000;stop-opacity:0;"
         offset="1"
         id="stop24596" />
    </linearGradient>
    <linearGradient
       inkscape:collect="always"
       xlink:href="#linearGradient17820"
       id="linearGradient10673"
       x1="7.2768879"
       y1="4.8618474"
       x2="7.2742996"
       y2="9.5925112"
       gradientUnits="userSpaceOnUse"
       gradientTransform="matrix(3.9396436,0,0,4.036595,-4.8276335,-7.7411827)" />
    <linearGradient
       inkscape:collect="always"
       id="linearGradient17820">
      <stop
         style="stop-color:#26aee7;stop-opacity:1;"
         offset="0"
         id="stop17816" />
      <stop
         style="stop-color:#037ed6;stop-opacity:1"
         offset="1"
         id="stop17818" />
    </linearGradient>
    <linearGradient
       inkscape:collect="always"
       xlink:href="#linearGradient33432"
       id="linearGradient18679"
       x1="13.49358"
       y1="4.7624402"
       x2="13.493581"
       y2="5.8207603"
       gradientUnits="userSpaceOnUse"
       gradientTransform="matrix(2.8346813,0,0,2.8346813,1.2500016,-0.5000011)" />
    <linearGradient
       inkscape:collect="always"
       id="linearGradient33432">
      <stop
         style="stop-color:#0271cb;stop-opacity:1;"
         offset="0"
         id="stop33428" />
      <stop
         style="stop-color:#0b5aa7;stop-opacity:1"
         offset="1"
         id="stop33430" />
    </linearGradient>
    <linearGradient
       inkscape:collect="always"
       xlink:href="#linearGradient33432"
       id="linearGradient19205"
       x1="13.49358"
       y1="6.8790798"
       x2="13.493581"
       y2="7.9373999"
       gradientUnits="userSpaceOnUse"
       gradientTransform="matrix(2.8346813,0,0,2.8346813,1.2500031,0.5)" />
    <linearGradient
       inkscape:collect="always"
       xlink:href="#linearGradient33432"
       id="linearGradient19811"
       x1="11.906099"
       y1="8.9957209"
       x2="11.9061"
       y2="10.05404"
       gradientUnits="userSpaceOnUse"
       gradientTransform="matrix(2.8346813,0,0,2.8346813,1.7499963,1.4999989)" />
    <linearGradient
       inkscape:collect="always"
       xlink:href="#linearGradient33432"
       id="linearGradient23862"
       x1="8.2846289"
       y1="11.360404"
       x2="8.2846298"
       y2="12.418723"
       gradientUnits="userSpaceOnUse"
       gradientTransform="matrix(3.7795752,0,0,3.7795752,-7.3123788,-9.937498)" />
  </defs>
  <rect
     style="fill:url(#linearGradient1469);fill-opacity:1;stroke-width:2;stroke-linecap:round;stroke-linejoin:round"
     id="rect907"
     width="48"
     height="36"
     x="0"
     y="6"
     ry="2" />
  <path
     id="rect9516"
     style="opacity:0.5;fill:#ffffff;stroke-width:1.04257;stroke-linecap:round;stroke-linejoin:round"
     d="M 4.0000012,8.9999999 H 44 c 0.554003,0 1,0.446 1,1 V 38 c 0,0.554003 -0.445997,1 -1,1 H 4.0000012 C 3.4460008,39 3.0000011,38.554003 3.0000011,38 V 9.9999999 c 0,-0.554 0.4459997,-1 1.0000001,-1 z"
     sodipodi:nodetypes="sssssssss" />
  <path
     id="rect16371-5"
     style="fill:#0a56a0;fill-opacity:1;stroke-width:1.63289;stroke-linecap:round;stroke-linejoin:round"
     d="m 30,14 c -0.552285,0 -1,0.447715 -1,1 v 6 h -6 v 1 h 6 c 0.552285,0 1,-0.447715 1,-1 v -6 h 4 v -1 z"
     sodipodi:nodetypes="sscccsscccs" />
  <circle
     style="fill:url(#radialGradient24600);fill-opacity:1;stroke:none;stroke-width:1.78571;stroke-linecap:round;stroke-linejoin:round;stroke-miterlimit:4;stroke-dasharray:none;stroke-opacity:1"
     id="path24396"
     cx="15.499999"
     cy="21.5"
     r="12.5" />
  <circle
     style="fill:url(#linearGradient10673);fill-opacity:1;stroke:none;stroke-width:2.1102;stroke-linecap:round;stroke-linejoin:round;stroke-miterlimit:4;stroke-dasharray:none;stroke-opacity:1"
     id="path10577"
     cx="15.499999"
     cy="21.5"
     r="9.5" />
  <path
     id="rect11079"
     style="fill:#ffffff;fill-opacity:1;stroke:none;stroke-width:1.66667;stroke-linecap:round;stroke-linejoin:round;stroke-miterlimit:4;stroke-dasharray:none;stroke-opacity:1"
     d="m 15.499998,12 a 9.5000001,9.5000001 0 0 0 -0.5,0.01954 v 9.980459 h 9.980469 a 9.5000001,9.5000001 0 0 0 0.01954,-0.5 9.5000001,9.5000001 0 0 0 -9.5,-9.5 z" />
  <path
     id="rect11229"
     style="fill:#f18c0a;fill-opacity:1;stroke:none;stroke-width:1.8;stroke-linecap:round;stroke-linejoin:round;stroke-miterlimit:4;stroke-dasharray:none;stroke-opacity:1"
     d="M 15.999998,12.011719 V 21 h 8.988282 a 9.5000001,9.5000001 0 0 0 -8.988282,-8.988281 z" />
  <path
     id="rect11825"
     style="fill:#0e93e2;stroke-width:1.66667;stroke-linecap:round;stroke-linejoin:round"
     d="m 35.5,12 h 3.999996 c 1.384999,0 2.5,1.115 2.5,2.5 0,1.385 -1.115001,2.5 -2.5,2.5 H 35.5 C 34.115001,17 33,15.885 33,14.5 33,13.115 34.115001,12 35.5,12 Z"
     sodipodi:nodetypes="sssssss" />
  <path
     id="rect11929"
     style="fill:#0e93e2;stroke-width:1.66667;stroke-linecap:round;stroke-linejoin:round"
     d="m 35.5,18.999999 h 3.999996 c 1.384999,0 2.5,1.115 2.5,2.5 v 0 c 0,1.385 -1.115001,2.5 -2.5,2.5 H 35.5 c -1.384999,0 -2.5,-1.115 -2.5,-2.5 v 0 c 0,-1.385 1.115001,-2.5 2.5,-2.5 z"
     sodipodi:nodetypes="sssssssss" />
  <path
     id="rect12033"
     style="fill:#0e93e2;stroke-width:1.66667;stroke-linecap:round;stroke-linejoin:round"
     d="m 35.5,26 h 3.999996 c 1.384999,0 2.5,1.115 2.5,2.499999 v 2e-6 c 0,1.385 -1.115001,2.5 -2.5,2.5 H 35.5 c -1.384999,0 -2.5,-1.115 -2.5,-2.5 v -2e-6 C 33,27.115 34.115001,26 35.5,26 Z"
     sodipodi:nodetypes="sssssssss" />
  <path
     id="rect17985"
     style="fill:#ffffff;stroke-width:1.5;stroke-linecap:round;stroke-linejoin:round"
     d="M 35.499996,12.999999 H 39.5 c 0.831,0 1.5,0.669 1.5,1.5 0,0.831001 -0.669,1.5 -1.5,1.5 h -4.000004 c -0.831,0 -1.5,-0.668999 -1.5,-1.5 0,-0.831 0.669,-1.5 1.5,-1.5 z"
     sodipodi:nodetypes="sssssss" />
  <path
     id="rect18286"
     style="fill:#ffffff;stroke-width:1.5;stroke-linecap:round;stroke-linejoin:round"
     d="M 35.499996,19.999999 H 39.5 c 0.831,0 1.5,0.669 1.5,1.5 0,0.831001 -0.669,1.5 -1.5,1.5 h -4.000004 c -0.831,0 -1.5,-0.668999 -1.5,-1.5 0,-0.831 0.669,-1.5 1.5,-1.5 z"
     sodipodi:nodetypes="sssssss" />
  <path
     id="rect18329"
     style="fill:#ffffff;stroke-width:1.5;stroke-linecap:round;stroke-linejoin:round"
     d="m 35.499996,27 h 4 c 0.831004,0 1.5,0.668999 1.5,1.5 0,0.831 -0.668996,1.5 -1.5,1.5 h -4 c -0.831,0 -1.5,-0.669 -1.5,-1.5 0,-0.831001 0.669,-1.5 1.5,-1.5 z"
     sodipodi:nodetypes="sssssss" />
  <circle
     style="fill:url(#linearGradient18679);fill-opacity:1;stroke:none;stroke-width:1.5;stroke-linecap:round;stroke-linejoin:round;stroke-miterlimit:4;stroke-dasharray:none;stroke-opacity:1"
     id="path18591"
     cx="39.500004"
     cy="14.499999"
     r="1.5" />
  <circle
     style="fill:url(#linearGradient19205);fill-opacity:1;stroke:none;stroke-width:1.5;stroke-linecap:round;stroke-linejoin:round;stroke-miterlimit:4;stroke-dasharray:none;stroke-opacity:1"
     id="path19117"
     cx="39.500004"
     cy="21.499996"
     r="1.5" />
  <circle
     style="fill:url(#linearGradient19811);fill-opacity:1;stroke:none;stroke-width:1.5;stroke-linecap:round;stroke-linejoin:round;stroke-miterlimit:4;stroke-dasharray:none;stroke-opacity:1"
     id="path19723"
     cx="35.5"
     cy="28.499996"
     r="1.5" />
  <path
     id="rect20137"
     style="fill:#0175d2;fill-opacity:1;stroke-width:2;stroke-linecap:round;stroke-linejoin:round"
     d="M 7.0000001,33.999999 H 41 c 0.553999,0 1,0.445998 1,1 0,0.553999 -0.446001,1 -1,1 H 7.0000001 c -0.5539999,0 -1,-0.446001 -1,-1 0,-0.554002 0.4460001,-1 1,-1 z"
     sodipodi:nodetypes="sssssss" />
  <path
     id="rect20656"
     style="fill:#f18c0a;fill-opacity:1;stroke-width:2;stroke-linecap:round;stroke-linejoin:round"
     d="M 7.0000001,33.999999 H 22.999999 c 0.554,0 1,0.445998 1,1 0,0.553999 -0.446,1 -1,1 H 7.0000001 c -0.5539999,0 -1,-0.446001 -1,-1 0,-0.554002 0.4460001,-1 1,-1 z"
     sodipodi:nodetypes="sssssss" />
  <circle
     style="fill:#ffffff;fill-opacity:1;stroke:none;stroke-width:1.5;stroke-linecap:round;stroke-linejoin:round;stroke-miterlimit:4;stroke-dasharray:none;stroke-opacity:1"
     id="path23648"
     cx="24"
     cy="34.999996"
     r="3" />
  <circle
     style="fill:url(#linearGradient23862);fill-opacity:1;stroke:none;stroke-width:2;stroke-linecap:round;stroke-linejoin:round;stroke-miterlimit:4;stroke-dasharray:none;stroke-opacity:1"
     id="path23774"
     cx="24"
     cy="35"
     r="2" />
</svg>
