<?xml version="1.0" encoding="UTF-8" standalone="no"?>
<!-- Created with Inkscape (http://www.inkscape.org/) -->

<svg
   width="48"
   height="48"
   viewBox="0 0 48 48"
   version="1.1"
   id="svg5"
   inkscape:version="1.2.1 (9c6d41e410, 2022-07-14, custom)"
   sodipodi:docname="preferences-system-windows-tiling.svg"
   xmlns:inkscape="http://www.inkscape.org/namespaces/inkscape"
   xmlns:sodipodi="http://sodipodi.sourceforge.net/DTD/sodipodi-0.dtd"
   xmlns:xlink="http://www.w3.org/1999/xlink"
   xmlns="http://www.w3.org/2000/svg"
   xmlns:svg="http://www.w3.org/2000/svg">
  <sodipodi:namedview
     id="namedview7"
     pagecolor="#ffffff"
     bordercolor="#666666"
     borderopacity="1.0"
     inkscape:pageshadow="2"
     inkscape:pageopacity="0.0"
     inkscape:pagecheckerboard="0"
     inkscape:document-units="px"
     showgrid="false"
     units="px"
     height="64px"
     inkscape:zoom="16.708333"
     inkscape:cx="24"
     inkscape:cy="24"
     inkscape:window-width="1920"
     inkscape:window-height="1011"
     inkscape:window-x="0"
     inkscape:window-y="0"
     inkscape:window-maximized="1"
     inkscape:current-layer="svg5"
     inkscape:showpageshadow="2"
     inkscape:deskcolor="#d1d1d1" />
  <defs
     id="defs2">
    <linearGradient
       inkscape:collect="always"
       id="linearGradient11972">
      <stop
         style="stop-color:#4accfe;stop-opacity:1"
         offset="0"
         id="stop11968" />
      <stop
         style="stop-color:#2d78b3;stop-opacity:1"
         offset="1"
         id="stop11970" />
    </linearGradient>
    <linearGradient
       inkscape:collect="always"
       xlink:href="#linearGradient11972"
       id="linearGradient1027"
       x1="0.5291667"
       y1="1.0583332"
       x2="7.9375"
       y2="6.8791666"
       gradientUnits="userSpaceOnUse"
       gradientTransform="matrix(5.6692914,0,0,5.6692914,-1.5e-7,2.0000012)" />
  </defs>
  <rect
     style="fill:url(#linearGradient1027);fill-opacity:1;stroke-width:1.5;stroke-linecap:round;stroke-linejoin:round"
     id="rect415"
     width="42"
     height="33"
     x="3"
     y="8"
     ry="3.0000005" />
  <path
     id="rect1154"
     style="opacity:0.9;fill:#ffffff;stroke-width:1.99999;stroke-linecap:round;stroke-linejoin:round"
     d="M 7.0000002,11.000001 H 22 c 0.553999,0 1,0.446 1,1 V 37 c 0,0.554 -0.446001,1 -1,1 H 7.0000002 C 6.4460001,38 6,37.554 6,37 V 12.000001 c 0,-0.554 0.4460001,-1 1.0000002,-1 z"
     sodipodi:nodetypes="sssssssss" />
  <path
     id="rect1280"
     style="opacity:0.75;fill:#ffffff;stroke-width:1.99999;stroke-linecap:round;stroke-linejoin:round"
     d="m 27,11.000001 h 13.999992 c 0.554,0 0.999998,0.446 0.999998,1 V 22 c 0,0.554 -0.445998,1 -0.999998,1 H 27 c -0.554,0 -1,-0.446 -1,-1 v -9.999999 c 0,-0.554 0.446,-1 1,-1 z"
     sodipodi:nodetypes="sssssssss" />
  <path
     id="rect1486"
     style="opacity:0.5;fill:#ffffff;stroke-width:1.99999;stroke-linecap:round;stroke-linejoin:round"
     d="m 27,26 h 13.999992 c 0.554,0 0.999998,0.446 0.999998,1 v 9.999994 c 0,0.554 -0.445998,1.000001 -0.999998,1.000001 H 27 c -0.554,0 -1,-0.446001 -1,-1.000001 V 27 c 0,-0.554 0.446,-1 1,-1 z"
     sodipodi:nodetypes="sssssssss" />
</svg>
