<?xml version="1.0" encoding="UTF-8" standalone="no"?>
<!-- Created with Inkscape (http://www.inkscape.org/) -->

<svg
   width="48"
   height="48"
   viewBox="0 0 48 48"
   version="1.1"
   id="svg5"
   inkscape:version="1.3.2 (091e20ef0f, 2023-11-25, custom)"
   sodipodi:docname="preferences-system.svg"
   xmlns:inkscape="http://www.inkscape.org/namespaces/inkscape"
   xmlns:sodipodi="http://sodipodi.sourceforge.net/DTD/sodipodi-0.dtd"
   xmlns:xlink="http://www.w3.org/1999/xlink"
   xmlns="http://www.w3.org/2000/svg"
   xmlns:svg="http://www.w3.org/2000/svg">
  <sodipodi:namedview
     id="namedview7"
     pagecolor="#ffffff"
     bordercolor="#666666"
     borderopacity="1.0"
     inkscape:pageshadow="2"
     inkscape:pageopacity="0.0"
     inkscape:pagecheckerboard="0"
     inkscape:document-units="px"
     showgrid="false"
     units="px"
     inkscape:zoom="16.75"
     inkscape:cx="24"
     inkscape:cy="24"
     inkscape:window-width="1920"
     inkscape:window-height="1008"
     inkscape:window-x="0"
     inkscape:window-y="0"
     inkscape:window-maximized="1"
     inkscape:current-layer="svg5"
     inkscape:showpageshadow="2"
     inkscape:deskcolor="#d1d1d1" />
  <defs
     id="defs2">
    <linearGradient
       inkscape:collect="always"
       id="linearGradient8250">
      <stop
         style="stop-color:#0568ba;stop-opacity:1;"
         offset="0"
         id="stop8246" />
      <stop
         style="stop-color:#0568ba;stop-opacity:1"
         offset="0.23999999"
         id="stop9054" />
      <stop
         style="stop-color:#0f4c8a;stop-opacity:1"
         offset="0.80000001"
         id="stop8830" />
      <stop
         style="stop-color:#0f4c8f;stop-opacity:1"
         offset="1"
         id="stop8248" />
    </linearGradient>
    <linearGradient
       inkscape:collect="always"
       id="linearGradient7024">
      <stop
         style="stop-color:#ffffff;stop-opacity:1;"
         offset="0"
         id="stop7020" />
      <stop
         style="stop-color:#f0f0f0;stop-opacity:1"
         offset="0.25"
         id="stop7732" />
      <stop
         style="stop-color:#cccccc;stop-opacity:1"
         offset="1"
         id="stop7022" />
    </linearGradient>
    <linearGradient
       inkscape:collect="always"
       id="linearGradient6060">
      <stop
         style="stop-color:#8a8f97;stop-opacity:1;"
         offset="0"
         id="stop6056" />
      <stop
         style="stop-color:#8a8f97;stop-opacity:1"
         offset="0.14573747"
         id="stop6576" />
      <stop
         style="stop-color:#616e7a;stop-opacity:1"
         offset="0.89999998"
         id="stop6770" />
      <stop
         style="stop-color:#616e7a;stop-opacity:1"
         offset="1"
         id="stop6058" />
    </linearGradient>
    <linearGradient
       inkscape:collect="always"
       xlink:href="#linearGradient6060"
       id="linearGradient1281"
       x1="2.167166"
       y1="2.6942132"
       x2="15.875"
       y2="13.395575"
       gradientUnits="userSpaceOnUse"
       gradientTransform="matrix(2.8346456,0,0,2.8346456,1.5e-7,0.00292201)" />
    <linearGradient
       inkscape:collect="always"
       xlink:href="#linearGradient8250"
       id="linearGradient1394"
       x1="-4.3425407"
       y1="0.48700973"
       x2="1.4123864"
       y2="6.2309871"
       gradientUnits="userSpaceOnUse"
       gradientTransform="matrix(3.0236221,0,0,3.0236221,27.729478,13.159852)" />
    <linearGradient
       inkscape:collect="always"
       xlink:href="#linearGradient7024"
       id="linearGradient1526"
       x1="2.9998865"
       y1="7.8184872"
       x2="-5.4667802"
       y2="-0.64817953"
       gradientUnits="userSpaceOnUse"
       gradientTransform="matrix(2.9696288,0,0,2.9696288,27.66288,13.353427)" />
  </defs>
  <path
     id="path428"
     style="fill:url(#linearGradient1281);fill-opacity:1;stroke-width:0.374996"
     d="M 30.708985,4.1044845 A 7.4999997,7.4999997 0 0 1 23.999999,8.252922 7.4999997,7.4999997 0 0 1 17.310058,4.1103441 21,21 0 0 0 10.127929,8.2558515 7.4999997,7.4999997 0 0 1 10.359375,16.127921 7.4999997,7.4999997 0 0 1 3.4277344,19.850092 21,21 0 0 0 3,24.002922 a 21,21 0 0 0 0.4277344,4.154295 7.4999997,7.4999997 0 0 1 0.4365235,-0.02928 7.4999997,7.4999997 0 0 1 6.4951171,3.750002 7.4999997,7.4999997 0 0 1 -0.231446,7.872067 21,21 0 0 0 7.182129,4.145508 7.4999997,7.4999997 0 0 1 6.689941,-4.142577 7.4999997,7.4999997 0 0 1 6.689938,4.142579 21,21 0 0 0 7.192383,-4.152832 7.4999997,7.4999997 0 0 1 -0.241711,-7.864745 7.4999997,7.4999997 0 0 1 6.495118,-3.75 7.4999997,7.4999997 0 0 1 0.436525,0.02928 A 21,21 0 0 0 45,24.002922 a 21,21 0 0 0 -0.416016,-4.15283 7.4999997,7.4999997 0 0 1 -6.943359,-3.722171 7.4999997,7.4999997 0 0 1 0.24755,-7.874999 21,21 0 0 0 -7.1792,-4.1484375 z" />
  <circle
     style="fill:url(#linearGradient1526);fill-opacity:1;stroke-width:0.785713"
     id="path1332"
     cx="24"
     cy="24"
     r="11" />
  <circle
     style="fill:url(#linearGradient1394);fill-opacity:1;stroke-width:0.799999"
     id="path1386"
     cx="24"
     cy="24"
     r="8" />
</svg>
