<?xml version="1.0" encoding="UTF-8" standalone="no"?>
<!-- Created with Inkscape (http://www.inkscape.org/) -->

<svg
   width="48"
   height="48"
   viewBox="0 0 48 48"
   version="1.1"
   id="svg2535"
   inkscape:version="1.2 (1:1.2.1+202207142221+cd75a1ee6d)"
   sodipodi:docname="preferences-desktop-color.svg"
   xmlns:inkscape="http://www.inkscape.org/namespaces/inkscape"
   xmlns:sodipodi="http://sodipodi.sourceforge.net/DTD/sodipodi-0.dtd"
   xmlns="http://www.w3.org/2000/svg"
   xmlns:svg="http://www.w3.org/2000/svg">
  <sodipodi:namedview
     id="namedview2537"
     pagecolor="#ffffff"
     bordercolor="#000000"
     borderopacity="0.25"
     inkscape:showpageshadow="2"
     inkscape:pageopacity="0.0"
     inkscape:pagecheckerboard="0"
     inkscape:deskcolor="#d1d1d1"
     inkscape:document-units="px"
     showgrid="false"
     inkscape:zoom="16.875"
     inkscape:cx="23.97037"
     inkscape:cy="24"
     inkscape:window-width="1920"
     inkscape:window-height="1012"
     inkscape:window-x="0"
     inkscape:window-y="0"
     inkscape:window-maximized="1"
     inkscape:current-layer="svg2535"
     showguides="false"
     inkscape:lockguides="true" />
  <defs
     id="defs2532">
    <linearGradient
       id="linearGradient45680"
       x1="-102.06"
       x2="-102.06"
       y1="1.3231"
       y2="19.157"
       gradientTransform="matrix(2.390064,0,0,2.3517461,269.67075,-0.11151415)"
       gradientUnits="userSpaceOnUse">
      <stop
         stop-color="#ffdc23"
         offset="0"
         id="stop22" />
      <stop
         stop-color="#e6628a"
         offset=".31552"
         id="stop24" />
      <stop
         stop-color="#7b5fc1"
         offset=".55428"
         id="stop26" />
      <stop
         stop-color="#1e9be1"
         offset=".79721"
         id="stop28" />
      <stop
         stop-color="#0082dc"
         offset="1"
         id="stop30" />
    </linearGradient>
    <linearGradient
       id="linearGradient1954"
       x1="-109.09"
       x2="-101.26"
       y1="11.122"
       y2="18.440001"
       gradientTransform="matrix(2.390064,0,0,2.3517461,269.67075,-0.11154055)"
       gradientUnits="userSpaceOnUse">
      <stop
         stop-color="#64d2eb"
         offset="0"
         id="stop2" />
      <stop
         stop-color="#0082dc"
         offset="1"
         id="stop4" />
    </linearGradient>
    <linearGradient
       id="linearGradient1431"
       x1="-107.04"
       x2="-99.660004"
       y1="6.9531002"
       y2="17.895"
       gradientTransform="matrix(2.390064,0,0,2.3517461,269.67075,-0.11164645)"
       gradientUnits="userSpaceOnUse">
      <stop
         stop-color="#a578e1"
         offset="0"
         id="stop7" />
      <stop
         stop-color="#5046a0"
         offset="1"
         id="stop9" />
    </linearGradient>
    <linearGradient
       id="linearGradient1439"
       x1="-105"
       x2="-97.016998"
       y1="4.2921"
       y2="13.799"
       gradientTransform="matrix(2.390064,0,0,2.3517461,269.67075,-0.11079985)"
       gradientUnits="userSpaceOnUse">
      <stop
         stop-color="#eb82aa"
         offset="0"
         id="stop12" />
      <stop
         stop-color="#dc2850"
         offset="1"
         id="stop14" />
    </linearGradient>
    <linearGradient
       id="linearGradient1447"
       x1="-102.1"
       x2="-98.566002"
       y1="1.4752001"
       y2="7.8610001"
       gradientTransform="matrix(2.390064,0,0,2.3517461,269.64385,-0.11111725)"
       gradientUnits="userSpaceOnUse">
      <stop
         stop-color="#ffdc23"
         offset="0"
         id="stop17" />
      <stop
         stop-color="#f0a019"
         offset="1"
         id="stop19" />
    </linearGradient>
  </defs>
  <path
     d="m 25.749464,3.0000274 c -0.477345,-0.0037 -0.876742,0.3691294 -0.876742,0.3691294 -2.067003,1.7720708 -3.805218,3.4560923 -5.399417,5.091406 v 0.00135 c -1.92525,1.9745222 -3.439806,3.8005662 -4.776955,5.5507042 -3.180335,4.16276 -4.688763,7.486303 -5.57446,10.119844 H 9.12051 c 1.152e-4,4.34e-4 -1.033e-4,9e-4 0,0.0014 1.713e-4,4.52e-4 -1.505e-4,9e-4 0,0.0013 -1.1730785,3.489694 -1.1198924,5.635628 -1.1198924,5.635628 -2.56e-5,8.410449 6.9285474,15.229241 15.4757644,15.228977 1.357584,0 2.654617,-0.219457 3.904432,-0.545493 4.226821,-1.102626 7.740841,-3.898717 9.739976,-7.637108 v -0.0027 c 1.131079,-2.115327 1.832701,-4.487392 1.832701,-7.043679 h 0.03191 c 0,0 0.358314,-3.762463 -2.528807,-8.710208 -0.434381,-0.553459 -1.195799,-1.608698 -1.75768,-2.32558 -0.429701,-0.08972 -0.851334,-0.180385 -1.267187,-0.272058 0.414938,0.09147 0.837109,0.181196 1.265788,0.270708 C 31.109066,15.545087 27.201408,13.634619 26.328887,4.8910735 26.182124,3.8353817 26.503186,3.0002633 25.749472,3.0002633 Z M 22.107728,13.952477 c 0.07054,0.05545 0.142924,0.110115 0.216756,0.16543 0.07383,0.05533 0.149302,0.111628 0.22648,0.166796 -0.07718,-0.05516 -0.15265,-0.110115 -0.22648,-0.165424 -0.07384,-0.05534 -0.146201,-0.111362 -0.216756,-0.166797 z m 2.741519,1.688466 c 0.178437,0.08844 0.361032,0.176343 0.550214,0.263873 -0.189507,-0.08768 -0.371514,-0.175278 -0.550214,-0.263873 z m 1.256082,0.576951 c 0.208181,0.08874 0.423167,0.176315 0.643327,0.263865 -0.219835,-0.08742 -0.435452,-0.17526 -0.643327,-0.263865 z m -11.336598,0.597453 c 0.03376,0.154415 0.07374,0.309522 0.118095,0.463476 -0.04446,-0.15439 -0.08429,-0.308625 -0.118095,-0.463476 z m 17.729534,1.434187 c 0.154127,0.03612 0.309483,0.07234 0.466863,0.108 -0.157447,-0.03571 -0.31263,-0.07188 -0.466863,-0.108 z M 18.94124,22.34827 c 0.200812,0.135015 0.410771,0.268486 0.628028,0.400587 -0.21729,-0.132105 -0.427228,-0.265578 -0.628028,-0.400587 z m 1.304696,0.792973 c 0.234202,0.129015 0.47651,0.25577 0.728078,0.381429 -0.251559,-0.12567 -0.493884,-0.25243 -0.728078,-0.381429 z m 3.237338,1.464242 c 0.306661,0.114555 0.622999,0.227226 0.948991,0.337698 -0.325992,-0.110475 -0.642332,-0.223145 -0.948991,-0.337698 z m 1.445024,0.501761 c 0.335835,0.108345 0.680757,0.214606 1.03654,0.318546 -0.355785,-0.10395 -0.700707,-0.210212 -1.03654,-0.318546 z m 2.135595,0.623436 c 0.188078,0.04966 0.377808,0.09781 0.571078,0.146295 0.193273,0.04847 0.383186,0.09924 0.56968,0.150388 -0.18646,-0.05113 -0.376463,-0.100545 -0.56968,-0.149025 -0.193255,-0.04847 -0.382995,-0.098 -0.571078,-0.14766 z m 4.57825,1.557213 c 0.28311,0.13698 0.553923,0.2778 0.812831,0.423813 -0.258929,-0.146025 -0.529693,-0.28685 -0.812831,-0.423813 z m 3.10693,2.112309 c 0.179374,0.174672 0.347641,0.352618 0.505769,0.53457 -0.158118,-0.181956 -0.3264,-0.359927 -0.505769,-0.53457 z m 1.147698,1.376748 c 0.127513,0.192217 0.244987,0.38791 0.352929,0.586528 -0.107954,-0.198624 -0.225404,-0.394288 -0.352929,-0.586528 z m -6.801369,12.392244 c -0.171646,0.156927 -0.35086,0.311085 -0.534936,0.460749 0.184087,-0.14967 0.363284,-0.303834 0.534936,-0.460749 z m -0.814228,0.682223 c -0.09444,0.07288 -0.189891,0.14514 -0.286223,0.216028 -0.05027,0.03696 -0.100602,0.0701 -0.151451,0.102555 0.05089,-0.03243 0.101178,-0.06693 0.151451,-0.10389 0.09632,-0.07089 0.191788,-0.141765 0.286223,-0.214639 z"
     fill="url(#linearGradient45680)"
     id="path35"
     style="fill:url(#linearGradient45680);stroke-width:2.37083" />
  <path
     d="M 9.1218093,24.132749 C 7.9477368,27.62403 8.0003561,29.771553 8.0003561,29.771553 8.0003324,38.182003 14.929711,45.000267 23.476928,45 c 1.357585,0 2.654402,-0.219628 3.904165,-0.545646 0.206261,-0.13872 0.412762,-0.239754 0.613805,-0.387655 0.770696,-0.567029 1.487992,-1.199988 2.029221,-1.877607 0.270624,-0.33878 0.496787,-0.688467 0.664461,-1.047569 0.167685,-0.359076 0.276928,-0.726565 0.311236,-1.101039 0.03431,-0.374473 -0.0064,-0.756169 -0.135854,-1.141149 -0.129417,-0.384949 -0.348337,-0.773711 -0.671883,-1.164216 -0.323557,-0.39051 -0.75124,-0.782735 -1.299328,-1.173959 -0.548062,-0.391219 -1.216315,-0.780879 -2.019331,-1.167867 -0.803015,-0.387015 -1.741226,-0.771781 -2.829713,-1.149641 -1.088326,-0.377888 -2.327119,-0.74937 -3.731005,-1.113209 -1.404047,-0.363837 -2.652493,-0.789534 -3.760851,-1.268749 -1.108438,-0.479221 -2.076735,-1.012199 -2.917368,-1.588381 -0.840526,-0.576156 -1.553655,-1.196178 -2.153988,-1.850859 -0.600306,-0.654709 -1.088058,-1.343836 -1.475919,-2.058682 -0.3878618,-0.714845 -0.6762647,-1.455274 -0.8793527,-2.211788 -0.00167,-0.0063 -0.00197,-0.0129 -0.00482,-0.01956 z"
     fill="url(#linearGradient1954)"
     id="path37"
     style="fill:url(#linearGradient1954);stroke-width:2.37083" />
  <path
     d="m 9.1201954,24.132749 c 0.00167,0.0063 0.00197,0.01305 0.00482,0.01962 0.2031648,0.756542 0.4914919,1.496971 0.8793526,2.21179 0.387861,0.714817 0.875587,1.403971 1.47592,2.058679 0.600332,0.654707 1.31346,1.274703 2.153985,1.850859 0.840524,0.576156 1.808795,1.109163 2.91737,1.588381 1.108409,0.479214 2.356747,0.904912 3.760849,1.268749 1.404074,0.363839 2.642921,0.735323 3.731004,1.113212 1.088326,0.377886 2.026537,0.762649 2.829713,1.149638 0.803017,0.387014 1.471267,0.776676 2.01933,1.167872 0.548092,0.391219 0.975774,0.783418 1.299318,1.173954 0.323549,0.390534 0.542468,0.779267 0.671883,1.164218 0.129417,0.384955 0.170195,0.766674 0.135824,1.141149 -0.03431,0.374473 -0.14356,0.741961 -0.311235,1.101037 -0.167686,0.359076 -0.39383,0.708761 -0.66446,1.04757 -0.541258,0.677594 -1.258527,1.310582 -2.029223,1.877609 -0.201021,0.147915 -0.407573,0.248967 -0.613803,0.387649 4.226821,-1.102626 7.74057,-3.899514 9.739706,-7.637901 0.0075,-0.06287 0.03409,-0.129375 0.04079,-0.19202 0.09967,-0.942693 0.0881,-1.86078 -0.05683,-2.741747 -0.144947,-0.881 -0.422897,-1.724795 -0.854695,-2.519224 -0.431773,-0.794502 -1.017504,-1.539268 -1.778467,-2.222736 -0.760963,-0.683521 -1.697183,-1.305367 -2.829716,-1.853293 -1.132367,-0.547928 -2.460562,-1.021959 -4.006337,-1.409741 -1.546071,-0.387783 -2.925704,-0.814165 -4.152345,-1.272377 -1.226585,-0.458211 -2.300311,-0.948354 -3.237067,-1.4644 -0.936811,-0.516047 -1.736576,-1.057491 -2.413243,-1.618752 -0.676749,-0.561236 -1.230806,-1.14157 -1.677231,-1.735401 -0.446424,-0.593803 -0.785483,-1.20184 -1.031295,-1.81562 -0.245786,-0.613778 -0.398161,-1.233403 -0.473045,-1.85451 -0.0748,-0.621108 -0.07123,-1.243564 -0.0049,-1.859353 0.0097,-0.08249 0.03821,-0.162024 0.04948,-0.244279 -3.18031,4.162761 -4.6882,7.486039 -5.5738967,10.11958 z"
     fill="url(#linearGradient1431)"
     id="path39"
     style="fill:url(#linearGradient1431);stroke-width:2.37083" />
  <path
     d="m 14.695731,14.013169 c -0.01181,0.08226 -0.04063,0.161785 -0.0495,0.244279 -0.06619,0.615816 -0.07001,1.238273 0.0049,1.859354 0.0748,0.621106 0.227285,1.24073 0.473046,1.854509 0.245786,0.61378 0.584873,1.221817 1.031298,1.815621 0.446421,0.593803 1.000481,1.174165 1.677229,1.7354 0.676776,0.561237 1.47654,1.10268 2.413243,1.618752 0.936811,0.516047 2.010537,1.006164 3.237069,1.464401 1.226585,0.45821 2.606352,0.884621 4.152342,1.272377 1.546072,0.387778 2.874346,0.861786 4.006607,1.40974 1.132425,0.547925 2.068591,1.169775 2.829715,1.853292 0.760935,0.683522 1.346694,1.428263 1.778517,2.222742 0.431827,0.794482 0.709743,1.638383 0.85467,2.519194 0.144918,0.880888 0.156472,1.798978 0.05682,2.74175 -0.0067,0.06262 -0.03315,0.12918 -0.04079,0.19202 1.131427,-2.11559 1.832833,-4.488183 1.832833,-7.044999 h 0.03214 c 0,0 0.357716,-3.763259 -2.529402,-8.711005 -0.434374,-0.553448 -1.195657,-1.609168 -1.757514,-2.326048 -1.359654,-0.283885 -2.668733,-0.575497 -3.808979,-0.888379 -1.355704,-0.371986 -2.562876,-0.76207 -3.634745,-1.166651 -1.071952,-0.404583 -2.008952,-0.823637 -2.82568,-1.25174 -0.816917,-0.428102 -1.513939,-0.866338 -2.104565,-1.308833 -0.590654,-0.442495 -1.075393,-0.889012 -1.468498,-1.336798 -0.393133,-0.447786 -0.694521,-0.896473 -0.918904,-1.34045 -0.224437,-0.443977 -0.371353,-0.883852 -0.455727,-1.314945 -0.08438,-0.4310651 -0.105887,-0.8536111 -0.0791,-1.2626653 0.0096,-0.139533 0.05188,-0.2672167 0.07171,-0.4034722 -1.925895,1.9750775 -3.441152,3.8018875 -4.778569,5.5525545 z"
     fill="url(#linearGradient1439)"
     id="path41"
     style="fill:url(#linearGradient1439);stroke-width:2.37083" />
  <path
     d="m 19.473761,8.4603513 c -0.01908,0.136284 -0.06262,0.2639054 -0.07171,0.4034722 -0.0269,0.4090504 -0.0048,0.8315994 0.0791,1.2626655 0.08438,0.431065 0.231345,0.870942 0.455728,1.314918 0.224433,0.44398 0.52577,0.892663 0.918902,1.34045 0.393106,0.447789 0.877845,0.894303 1.468499,1.336798 0.590624,0.442494 1.287648,0.880758 2.104565,1.308834 0.81689,0.428104 1.75389,0.847129 2.82568,1.251738 1.071872,0.404611 2.279097,0.794665 3.634745,1.166653 1.140193,0.312853 2.449325,0.604493 3.80898,0.888377 C 31.109755,15.545645 27.200752,13.634648 26.32823,4.8911025 26.181468,3.8354107 26.502707,3.0001328 25.749004,3.0001328 25.271658,2.9964328 24.873337,3.3695802 24.873337,3.3695802 22.806331,5.1416511 21.067847,6.825143 19.473648,8.460457 Z"
     fill="url(#linearGradient1447)"
     id="path43"
     style="fill:url(#linearGradient1447);stroke-width:2.37083" />
</svg>
