<?xml version="1.0" encoding="UTF-8" standalone="no"?>
<!-- Created with Inkscape (http://www.inkscape.org/) -->

<svg
   width="48"
   height="48"
   viewBox="0 0 48 48"
   version="1.1"
   id="svg1015"
   inkscape:version="1.2.1 (9c6d41e410, 2022-07-14, custom)"
   sodipodi:docname="preferences-system-hotcorners.svg"
   xmlns:inkscape="http://www.inkscape.org/namespaces/inkscape"
   xmlns:sodipodi="http://sodipodi.sourceforge.net/DTD/sodipodi-0.dtd"
   xmlns:xlink="http://www.w3.org/1999/xlink"
   xmlns="http://www.w3.org/2000/svg"
   xmlns:svg="http://www.w3.org/2000/svg">
  <sodipodi:namedview
     id="namedview1017"
     pagecolor="#ffffff"
     bordercolor="#000000"
     borderopacity="0.25"
     inkscape:showpageshadow="2"
     inkscape:pageopacity="0.0"
     inkscape:pagecheckerboard="0"
     inkscape:deskcolor="#d1d1d1"
     inkscape:document-units="px"
     showgrid="false"
     inkscape:zoom="17.229167"
     inkscape:cx="24"
     inkscape:cy="24"
     inkscape:window-width="1920"
     inkscape:window-height="1029"
     inkscape:window-x="0"
     inkscape:window-y="0"
     inkscape:window-maximized="1"
     inkscape:current-layer="svg1015" />
  <defs
     id="defs1012">
    <linearGradient
       inkscape:collect="always"
       xlink:href="#linearGradient11972"
       id="linearGradient1924"
       x1="0.5291667"
       y1="1.5875"
       x2="12.170832"
       y2="10.583332"
       gradientUnits="userSpaceOnUse"
       gradientTransform="matrix(3.7795274,0,0,3.7795274,0,0.99999936)" />
    <linearGradient
       inkscape:collect="always"
       id="linearGradient11972">
      <stop
         style="stop-color:#37d4e1;stop-opacity:1"
         offset="0"
         id="stop11968" />
      <stop
         style="stop-color:#086ebd;stop-opacity:1"
         offset="1"
         id="stop11970" />
    </linearGradient>
    <linearGradient
       inkscape:collect="always"
       xlink:href="#linearGradient1591"
       id="linearGradient3295"
       x1="4.7077208e-07"
       y1="4.3656249"
       x2="5.8208337"
       y2="4.3656249"
       gradientUnits="userSpaceOnUse"
       gradientTransform="matrix(7.5590544,0,0,7.5590544,2.0000001,4.9999994)" />
    <linearGradient
       inkscape:collect="always"
       id="linearGradient1591">
      <stop
         style="stop-color:#0f4f68;stop-opacity:1;"
         offset="0"
         id="stop1587" />
      <stop
         style="stop-color:#03355e;stop-opacity:1"
         offset="1"
         id="stop1589" />
    </linearGradient>
  </defs>
  <rect
     style="fill:url(#linearGradient1924);fill-opacity:1;stroke-width:3;stroke-linecap:round;stroke-linejoin:round"
     id="rect1836"
     width="44"
     height="34"
     x="2"
     y="7"
     ry="1.9999998" />
  <path
     id="rect1409"
     style="fill:url(#linearGradient3295);fill-opacity:1;stroke-width:2.05488;stroke-linecap:round;stroke-linejoin:round"
     d="m 45.999997,36 v 2.999994 c 0,1.107999 -0.892003,2.000001 -2.000001,2.000001 H 4.0000035 c -1.1080002,0 -2,-0.892002 -2,-2.000001 V 36 Z"
     sodipodi:nodetypes="csssscc" />
  <path
     id="path481"
     style="opacity:0.2;fill:#000000;stroke-width:3.99999;stroke-linecap:round;stroke-linejoin:round"
     d="M 4.0000069,7 C 2.8920082,7 2.0000073,7.892001 2.0000073,9.0000004 V 15 c 4.4182777,-10e-7 7.9999987,-3.581722 7.9999987,-8 z M 38.000003,7 c 0,4.418277 3.581722,7.999999 7.999997,8 V 9.0000004 C 46,7.892001 45.108002,7 44.000003,7 Z M 2.0000073,32.999998 v 5.999993 c 0,1.107999 0.8920009,2.000001 1.9999996,2.000001 h 5.9999991 c 0,-4.418271 -3.5817214,-7.999993 -7.9999987,-7.999994 z m 43.9999927,0 c -4.418275,1e-6 -7.999997,3.581723 -7.999997,7.999994 h 6 C 45.108002,40.999992 46,40.10799 46,38.999991 Z"
     sodipodi:nodetypes="ssccsccssccssccccssc" />
</svg>
