<?xml version="1.0" encoding="UTF-8" standalone="no"?>
<svg
   width="48"
   height="48"
   version="1.1"
   viewBox="0 0 48 48"
   id="svg6"
   sodipodi:docname="preferences-system-linux.svg"
   inkscape:version="1.3.2 (091e20ef0f, 2023-11-25, custom)"
   xmlns:inkscape="http://www.inkscape.org/namespaces/inkscape"
   xmlns:sodipodi="http://sodipodi.sourceforge.net/DTD/sodipodi-0.dtd"
   xmlns:xlink="http://www.w3.org/1999/xlink"
   xmlns="http://www.w3.org/2000/svg"
   xmlns:svg="http://www.w3.org/2000/svg"
   xmlns:rdf="http://www.w3.org/1999/02/22-rdf-syntax-ns#"
   xmlns:cc="http://creativecommons.org/ns#"
   xmlns:dc="http://purl.org/dc/elements/1.1/">
  <defs
     id="defs10">
    <linearGradient
       inkscape:collect="always"
       xlink:href="#linearGradient4676"
       id="linearGradient4678"
       x1="5.2915626"
       y1="7.2758985"
       x2="0.52915633"
       y2="0.92602324"
       gradientUnits="userSpaceOnUse"
       gradientTransform="matrix(5.669405,0,0,5.669405,5.9999995,0.4999984)" />
    <linearGradient
       inkscape:collect="always"
       id="linearGradient4676">
      <stop
         style="stop-color:#333333;stop-opacity:1;"
         offset="0"
         id="stop4672" />
      <stop
         style="stop-color:#696969;stop-opacity:1"
         offset="1"
         id="stop4674" />
    </linearGradient>
    <linearGradient
       inkscape:collect="always"
       xlink:href="#linearGradient4970"
       id="linearGradient4972"
       x1="7"
       y1="17.5"
       x2="19"
       y2="27.5"
       gradientUnits="userSpaceOnUse"
       gradientTransform="matrix(1.5999994,0,0,1.5294111,4.8,0.23529932)" />
    <linearGradient
       inkscape:collect="always"
       id="linearGradient4970">
      <stop
         style="stop-color:#ffffff;stop-opacity:1;"
         offset="0"
         id="stop4966" />
      <stop
         style="stop-color:#cccccc;stop-opacity:1"
         offset="1"
         id="stop4968" />
    </linearGradient>
    <linearGradient
       inkscape:collect="always"
       xlink:href="#linearGradient9529"
       id="linearGradient9531"
       x1="2.6457813"
       y1="2.3812032"
       x2="3.7040937"
       y2="3.4395156"
       gradientUnits="userSpaceOnUse"
       gradientTransform="matrix(5.669405,0,0,5.669405,5.9999995,1.4999934)" />
    <linearGradient
       inkscape:collect="always"
       id="linearGradient9529">
      <stop
         style="stop-color:#f8c93b;stop-opacity:1"
         offset="0"
         id="stop9525" />
      <stop
         style="stop-color:#ea8908;stop-opacity:1"
         offset="1"
         id="stop9527" />
    </linearGradient>
    <linearGradient
       inkscape:collect="always"
       xlink:href="#linearGradient4676"
       id="linearGradient10516"
       gradientUnits="userSpaceOnUse"
       x1="5.2915626"
       y1="7.2758985"
       x2="0.52915633"
       y2="0.92602324"
       gradientTransform="matrix(5.669405,0,0,5.669405,5.9999995,0.4999984)" />
    <linearGradient
       inkscape:collect="always"
       xlink:href="#linearGradient4676"
       id="linearGradient1571"
       gradientUnits="userSpaceOnUse"
       gradientTransform="matrix(5.669405,0,0,5.669405,5.9999995,0.4999984)"
       x1="5.2915626"
       y1="7.2758985"
       x2="0.52915633"
       y2="0.92602324" />
  </defs>
  <sodipodi:namedview
     id="namedview8"
     pagecolor="#ffffff"
     bordercolor="#666666"
     borderopacity="1.0"
     inkscape:pageshadow="2"
     inkscape:pageopacity="0.0"
     inkscape:pagecheckerboard="0"
     showgrid="false"
     inkscape:zoom="17.604167"
     inkscape:cx="24"
     inkscape:cy="24"
     inkscape:window-width="1880"
     inkscape:window-height="1048"
     inkscape:window-x="0"
     inkscape:window-y="0"
     inkscape:window-maximized="1"
     inkscape:current-layer="svg6"
     inkscape:showpageshadow="2"
     inkscape:deskcolor="#d1d1d1" />
  <metadata
     id="metadata2">
    <rdf:RDF>
      <cc:Work
         rdf:about="">
        <dc:format>image/svg+xml</dc:format>
        <dc:type
           rdf:resource="http://purl.org/dc/dcmitype/StillImage" />
      </cc:Work>
    </rdf:RDF>
  </metadata>
  <path
     id="path879"
     style="fill:url(#linearGradient4678);fill-opacity:1;stroke-width:0.937503;stroke-linejoin:round"
     d="m 24.000006,5 c -4.142137,3e-7 -7.500003,3.3578657 -7.500003,7.500003 2e-6,12.000006 -4.500001,11.250006 -4.500001,18.000008 0,6.627418 5.372586,12.000003 12.000004,12.000003 6.62742,0 12.000005,-5.372585 12.000005,-12.000003 0,-6.750002 -4.500003,-6.000002 -4.500003,-18.000008 0,-4.1421373 -3.357864,-7.5000027 -7.500002,-7.500003 z"
     sodipodi:nodetypes="sccsccs" />
  <path
     style="fill:#eab108;stroke-width:0.75"
     d="m 16.894284,43.951354 c -0.316387,-0.05023 -0.596164,-0.144233 -1.209177,-0.408074 -0.912672,-0.392926 -1.338253,-0.52035 -3.008685,-0.9006 -0.83322,-0.1896 -1.143746,-0.2739 -1.866928,-0.507226 -0.263067,-0.0848 -0.613695,-0.1931 -0.779172,-0.2406 -0.44921,-0.128901 -0.5683037,-0.179034 -0.7328854,-0.308334 -0.22452,-0.1763 -0.3291543,-0.448347 -0.2890267,-0.751277 0.025734,-0.1942 0.09367,-0.380779 0.2812267,-0.772197 0.2506767,-0.523273 0.4533198,-0.71152 0.4915035,-1.226473 0.022434,-0.303 0.00404,-0.643793 -0.073056,-1.3533 -0.045641,-0.419774 -0.05607,-0.574503 -0.056727,-0.841727 -6.883e-4,-0.289867 0.00303,-0.7167 0.032934,-0.827097 0.1123905,-0.415194 0.1979368,-0.654747 0.5958099,-0.7581 0.115167,-0.03 0.18947,-0.0346 0.729955,-0.04503 0.336457,-0.0076 0.635748,-0.01933 0.678882,-0.02934 0.23312,-0.0525 0.402839,-0.140235 0.56101,-0.290599 0.150667,-0.143265 0.253783,-0.289368 0.45044,-0.63825 0.306129,-0.538578 0.910048,-0.533252 1.403212,-0.553194 0.139815,0.02934 0.186311,0.04873 0.339438,0.13656 0.154118,0.0888 0.197717,0.123735 0.331727,0.2661 0.337251,0.358273 0.49825,0.579381 1.254679,1.72215 0.599528,0.906007 0.782708,1.195801 1.024371,1.620901 0.263253,0.463124 0.737838,1.206077 0.913772,1.43055 0.02984,0.03824 0.212343,0.269234 0.405622,0.513674 0.193281,0.244633 0.370055,0.473473 0.392811,0.508647 0.362978,0.505039 0.617784,1.085326 0.708426,1.6653 0.03049,0.202066 0.03153,0.236233 0.01455,0.467623 -0.02168,0.2937 -0.04049,0.41925 -0.07234,0.483374 -0.01275,0.02533 -0.04094,0.09592 -0.0626,0.155833 -0.27753,0.771219 -0.969286,1.34985 -1.77069,1.48125 -0.170419,0.02801 -0.508353,0.02801 -0.68907,0 z"
     id="path12" />
  <path
     style="fill:#eab108;stroke-width:0.75"
     d="m 31.105724,43.952008 c 0.316386,-0.05024 0.59616,-0.144195 1.209177,-0.408074 0.912669,-0.392923 1.338252,-0.52035 3.008685,-0.900597 0.83322,-0.1896 1.143744,-0.2739 1.866927,-0.507231 0.26307,-0.08479 0.613692,-0.193132 0.779169,-0.2406 0.449211,-0.128895 0.568302,-0.178999 0.732885,-0.308332 0.22452,-0.176301 0.329157,-0.448347 0.28902,-0.751274 -0.0258,-0.1942 -0.09366,-0.38077 -0.28122,-0.772194 -0.25068,-0.523276 -0.453315,-0.711523 -0.491502,-1.226479 -0.0225,-0.303 -0.0042,-0.643794 0.07302,-1.353297 0.04557,-0.419774 0.05601,-0.574505 0.0567,-0.841724 6.9e-4,-0.2899 -0.003,-0.716704 -0.03287,-0.8271 -0.11238,-0.415204 -0.19794,-0.654747 -0.595809,-0.7581 -0.11517,-0.03 -0.18948,-0.03447 -0.729957,-0.04503 -0.336456,-0.0076 -0.635745,-0.01966 -0.678876,-0.02934 -0.23313,-0.0525 -0.402846,-0.140265 -0.561012,-0.290634 -0.15066,-0.143265 -0.2538,-0.289366 -0.450432,-0.63825 -0.306128,-0.538587 -0.910053,-0.533253 -1.403216,-0.5532 -0.13983,0.02934 -0.1863,0.04876 -0.339438,0.136605 -0.15411,0.08877 -0.1977,0.123735 -0.331726,0.2661 -0.337251,0.358274 -0.498249,0.57938 -1.254678,1.722153 -0.599528,0.906 -0.782706,1.195797 -1.02437,1.620897 -0.263253,0.463124 -0.737839,1.206077 -0.913771,1.43055 -0.02983,0.0383 -0.212345,0.269267 -0.405624,0.513684 -0.19328,0.244667 -0.370053,0.473474 -0.39281,0.508647 -0.362967,0.50504 -0.617784,1.085327 -0.708426,1.6653 -0.03049,0.202067 -0.03153,0.236267 -0.01455,0.467624 0.02166,0.2937 0.04049,0.419253 0.07234,0.483373 0.01275,0.02533 0.04094,0.09592 0.0626,0.155867 0.277517,0.77122 0.969288,1.34985 1.77069,1.48125 0.17042,0.02766 0.508365,0.02766 0.689072,0 z"
     id="path12-6" />
  <path
     id="path879-3"
     style="fill:url(#linearGradient4972);fill-opacity:1;stroke-width:0.488849;stroke-linejoin:round"
     d="M 24 15 C 21.790862 15 20 16.712545 20 18.824219 C 19.98247 23.951941 16.075664 27.791054 16 32.353516 C 16 36.576861 19.581725 40 24 40 C 28.418275 40 32 36.576861 32 32.353516 C 31.9809 27.849358 28.089818 24.155587 28 18.824219 C 28 16.712545 26.209136 15 24 15 z " />
  <ellipse
     style="fill:#ffffff;fill-opacity:1;stroke-width:2.4495;stroke-linejoin:round"
     id="path5621"
     cx="22"
     cy="13.000001"
     rx="2"
     ry="3.0000012" />
  <ellipse
     style="fill:#ffffff;fill-opacity:1;stroke-width:2.4495;stroke-linejoin:round"
     id="path5621-7"
     cx="26"
     cy="13.000001"
     rx="2"
     ry="3.0000012" />
  <path
     id="path5299"
     style="fill:url(#linearGradient9531);fill-opacity:1;stroke-width:1.5;stroke-linejoin:round"
     d="m 27.000008,17.25 c 0,1.656855 -1.343147,3.750001 -3.000002,3.750001 -1.656853,0 -3.000001,-2.093146 -3.000001,-3.750001 0,-1.656855 1.343146,-2.25 3.000001,-2.25 1.656857,0 3.000002,0.593144 3.000002,2.25 z"
     sodipodi:nodetypes="sssss" />
  <path
     id="path10049"
     style="fill:#1a1a1a;fill-opacity:1;stroke-width:1.73203;stroke-linejoin:round"
     d="m 22,11.5 c -0.552283,-4e-6 -1,0.67157 -1,1.5 0,0.82843 0.447717,1.500004 1,1.5 0.552283,6e-6 1,-0.67157 1,-1.5 0,-0.82843 -0.447717,-1.500006 -1,-1.5 z m 4,0 c -0.552283,-6e-6 -1,0.67157 -1,1.5 0,0.82843 0.447717,1.500006 1,1.5 0.552283,6e-6 1,-0.67157 1,-1.5 0,-0.82843 -0.447717,-1.500006 -1,-1.5 z" />
  <path
     id="path879-6"
     style="fill:url(#linearGradient1571);fill-opacity:1;stroke-width:0.937508;stroke-linejoin:round"
     d="m 14.789064,31.428721 c -1.24264,0 -2.249999,1.007364 -2.249999,2.250004 0,0.64413 0.472194,1.703657 1.100126,2.574861 0.583455,0.809487 1.301367,1.456386 1.899875,1.456386 1.24264,0 1.110352,-2.967319 1.110352,-4.20996 0,-0.711637 -0.617715,-2.071291 -1.860354,-2.071291 z"
     sodipodi:nodetypes="ssssss" />
  <path
     id="path879-1"
     style="fill:url(#linearGradient10516);fill-opacity:1;stroke-width:0.937508;stroke-linejoin:round"
     d="m 33.152354,31.428721 c -1.204002,0.0414 -1.801758,1.370778 -1.801758,2.071291 0,1.242641 -0.132285,4.20996 1.110354,4.20996 0.598506,0 1.314984,-0.64656 1.898436,-1.456053 0.627933,-0.871207 1.101567,-1.931064 1.101567,-2.575194 0,-1.242643 -1.007364,-2.250004 -2.25,-2.250004 -0.0195,0 -0.03945,-6.54e-4 -0.05862,0 z" />
</svg>
