<?xml version="1.0" encoding="UTF-8" standalone="no"?>
<!-- Created with Inkscape (http://www.inkscape.org/) -->

<svg
   width="48"
   height="48"
   viewBox="0 0 48 48"
   version="1.1"
   id="svg2112"
   inkscape:version="1.2.2 (1:1.2.2+202305151914+b0a8486541)"
   sodipodi:docname="preferences-system-splash.svg"
   xmlns:inkscape="http://www.inkscape.org/namespaces/inkscape"
   xmlns:sodipodi="http://sodipodi.sourceforge.net/DTD/sodipodi-0.dtd"
   xmlns:xlink="http://www.w3.org/1999/xlink"
   xmlns="http://www.w3.org/2000/svg"
   xmlns:svg="http://www.w3.org/2000/svg">
  <sodipodi:namedview
     id="namedview2114"
     pagecolor="#ffffff"
     bordercolor="#000000"
     borderopacity="0.25"
     inkscape:showpageshadow="2"
     inkscape:pageopacity="0.0"
     inkscape:pagecheckerboard="0"
     inkscape:deskcolor="#d1d1d1"
     inkscape:document-units="px"
     showgrid="false"
     inkscape:zoom="17.291667"
     inkscape:cx="23.971084"
     inkscape:cy="24"
     inkscape:window-width="1920"
     inkscape:window-height="1008"
     inkscape:window-x="0"
     inkscape:window-y="0"
     inkscape:window-maximized="1"
     inkscape:current-layer="svg2112"
     showguides="false" />
  <defs
     id="defs2109">
    <linearGradient
       inkscape:collect="always"
       xlink:href="#linearGradient2986"
       id="linearGradient2988"
       x1="0.092813492"
       y1="10.202362"
       x2="0.092813492"
       y2="13.470933"
       gradientUnits="userSpaceOnUse"
       gradientTransform="matrix(1.7738908,0,0,1.8356647,26.835359,16.271891)" />
    <linearGradient
       inkscape:collect="always"
       id="linearGradient2986">
      <stop
         style="stop-color:#818990;stop-opacity:1;"
         offset="0"
         id="stop2982" />
      <stop
         style="stop-color:#9fa8b0;stop-opacity:1"
         offset="1"
         id="stop2984" />
    </linearGradient>
    <linearGradient
       inkscape:collect="always"
       xlink:href="#linearGradient1116"
       id="linearGradient1908"
       x1="4"
       y1="32"
       x2="60"
       y2="32"
       gradientUnits="userSpaceOnUse"
       gradientTransform="matrix(0.75,0,0,0.78947368,-2.7034729e-7,-4.2631579)" />
    <linearGradient
       inkscape:collect="always"
       id="linearGradient1116">
      <stop
         style="stop-color:#555a5f;stop-opacity:1;"
         offset="0"
         id="stop1112" />
      <stop
         style="stop-color:#4b4f53;stop-opacity:1"
         offset="1"
         id="stop1114" />
    </linearGradient>
    <linearGradient
       inkscape:collect="always"
       xlink:href="#linearGradient2301"
       id="linearGradient3240"
       x1="5.0000005"
       y1="14"
       x2="59"
       y2="50"
       gradientUnits="userSpaceOnUse"
       gradientTransform="matrix(0.74074074,0,0,0.77777777,0.29629599,-3.8888888)" />
    <linearGradient
       inkscape:collect="always"
       id="linearGradient2301">
      <stop
         style="stop-color:#3fe3e7;stop-opacity:1;"
         offset="0"
         id="stop2297" />
      <stop
         style="stop-color:#066bbc;stop-opacity:1"
         offset="1"
         id="stop2299" />
    </linearGradient>
  </defs>
  <path
     id="rect958"
     style="fill:#bcc5cf;stroke-width:2.11289;stroke-linecap:round;stroke-linejoin:round"
     d="m 15.000001,41.000008 h 18 l 1,1 h -20 z"
     sodipodi:nodetypes="ccccc" />
  <rect
     style="fill:url(#linearGradient2988);fill-opacity:1;stroke-width:2.38723;stroke-linecap:round;stroke-linejoin:round"
     id="rect2848"
     width="6"
     height="6"
     x="21.000002"
     y="34.999996" />
  <path
     id="rect1418"
     style="fill:#b8c2cc;stroke-width:2.50001;stroke-linecap:round;stroke-linejoin:round"
     d="m 6,5 h 36 c 2,0 2.882606,1.915344 2.882606,1.915344 L 44.999996,7.5 H 3 L 3.456812,6.420253 C 3.456812,6.420253 4.723951,5 6,5 Z"
     sodipodi:nodetypes="ssccccs" />
  <rect
     style="fill:url(#linearGradient1908);fill-opacity:1;stroke-width:0.769483;stroke-linecap:round"
     id="rect1537"
     width="42"
     height="30"
     x="3"
     y="6"
     ry="2" />
  <rect
     style="fill:url(#linearGradient3240);fill-opacity:1;stroke-width:0.759033;stroke-linecap:round"
     id="rect1910"
     width="40"
     height="28"
     x="4"
     y="7"
     ry="1" />
  <rect
     style="fill:#44484c;fill-opacity:1;stroke-width:3.77965;stroke-linecap:round;stroke-linejoin:round"
     id="rect1839"
     width="20.000002"
     height="2"
     x="14.000002"
     y="41.999989" />
  <path
     id="path917"
     style="opacity:0.5;fill:#ffffff;stroke-width:1.11111;stroke-linecap:square;stroke-linejoin:bevel"
     d="m 24,11 c -5.522847,0 -10,4.477153 -10,10 0,5.522847 4.477153,10 10,10 5.522847,0 10,-4.477153 10,-10 0,-5.522847 -4.477153,-10 -10,-10 z m 0,2 c 4.418278,0 8,3.581722 8,8 0,4.418278 -3.581722,8 -8,8 -4.418278,0 -8,-3.581722 -8,-8 0,-4.418278 3.581722,-8 8,-8 z" />
  <path
     id="path955"
     style="opacity:1;fill:#ffffff;stroke-width:1.11111;stroke-linecap:square;stroke-linejoin:bevel"
     d="M 24 11 L 24 13 C 28.418274 13 32 16.581726 32 21 C 32 23.209137 31.103964 25.208536 29.65625 26.65625 L 31.070312 28.070312 C 31.163534 27.977091 31.254251 27.881983 31.34375 27.785156 A 10 10 0 0 0 31.464844 27.652344 A 10 10 0 0 0 31.470703 27.646484 C 31.532624 27.576929 31.59431 27.506822 31.654297 27.435547 A 10 10 0 0 0 31.683594 27.400391 A 10 10 0 0 0 31.763672 27.300781 C 31.833669 27.214639 31.90355 27.127545 31.970703 27.039062 A 10 10 0 0 0 32.013672 26.982422 C 32.029601 26.961123 32.044785 26.939399 32.060547 26.917969 C 32.118746 26.838844 32.174568 26.758612 32.230469 26.677734 A 10 10 0 0 0 32.339844 26.519531 C 32.340643 26.518326 32.340998 26.516831 32.341797 26.515625 A 10 10 0 0 0 32.496094 26.273438 A 10 10 0 0 0 32.619141 26.068359 C 32.627284 26.054542 32.636453 26.041203 32.644531 26.027344 A 10 10 0 0 0 32.785156 25.777344 A 10 10 0 0 0 32.884766 25.587891 C 32.895903 25.566369 32.906984 25.54505 32.917969 25.523438 A 10 10 0 0 0 32.931641 25.494141 A 10 10 0 0 0 33.044922 25.265625 A 10 10 0 0 0 33.164062 25.003906 A 10 10 0 0 0 33.271484 24.748047 C 33.272798 24.744802 33.274081 24.741528 33.275391 24.738281 A 10 10 0 0 0 33.378906 24.470703 A 10 10 0 0 0 33.455078 24.253906 C 33.46139 24.235563 33.468401 24.21761 33.474609 24.199219 A 10 10 0 0 0 33.484375 24.169922 A 10 10 0 0 0 33.642578 23.650391 A 10 10 0 0 0 33.714844 23.371094 A 10 10 0 0 0 33.779297 23.091797 A 10 10 0 0 0 33.828125 22.841797 C 33.830064 22.831384 33.832077 22.820971 33.833984 22.810547 A 10 10 0 0 0 33.847656 22.730469 A 10 10 0 0 0 33.90625 22.357422 C 33.911442 22.319188 33.917117 22.280557 33.921875 22.242188 A 10 10 0 0 0 33.931641 22.158203 A 10 10 0 0 0 33.951172 21.984375 C 33.964215 21.851061 33.972714 21.716829 33.980469 21.582031 A 10 10 0 0 0 33.988281 21.46875 C 33.995183 21.319525 33.99971 21.170394 34 21.019531 A 10 10 0 0 0 34 20.966797 C 33.999478 20.807446 33.994221 20.649701 33.986328 20.492188 A 10 10 0 0 0 33.986328 20.486328 C 33.986028 20.480412 33.984685 20.474663 33.984375 20.46875 C 33.977193 20.331817 33.967715 20.195966 33.955078 20.060547 A 10 10 0 0 0 33.945312 19.949219 A 10 10 0 0 0 33.941406 19.921875 C 33.930052 19.816082 33.915018 19.710248 33.900391 19.605469 A 10 10 0 0 0 33.867188 19.378906 A 10 10 0 0 0 33.816406 19.095703 A 10 10 0 0 0 33.757812 18.814453 A 10 10 0 0 0 33.623047 18.283203 C 33.620694 18.274851 33.619561 18.266155 33.617188 18.257812 A 10 10 0 0 0 33.611328 18.238281 A 10 10 0 0 0 33.445312 17.714844 C 33.444838 17.713479 33.443835 17.712302 33.443359 17.710938 A 10 10 0 0 0 33.441406 17.708984 A 10 10 0 0 0 33.359375 17.478516 C 33.354514 17.465605 33.350616 17.452339 33.345703 17.439453 A 10 10 0 0 0 33.310547 17.353516 A 10 10 0 0 0 33.238281 17.173828 A 10 10 0 0 0 32.730469 16.123047 C 32.728616 16.119738 32.726466 16.116588 32.724609 16.113281 A 10 10 0 0 0 32.716797 16.099609 A 10 10 0 0 0 32.095703 15.132812 C 32.093476 15.129746 32.092074 15.126111 32.089844 15.123047 A 10 10 0 0 0 32.083984 15.115234 A 10 10 0 0 0 31.351562 14.222656 C 31.348744 14.219601 31.346572 14.215943 31.34375 14.212891 A 10 10 0 0 0 31.324219 14.195312 A 10 10 0 0 0 30.511719 13.414062 C 30.505454 13.408681 30.500418 13.401851 30.494141 13.396484 A 10 10 0 0 0 30.478516 13.384766 A 10 10 0 0 0 29.556641 12.685547 A 10 10 0 0 0 28.550781 12.095703 C 28.546883 12.093707 28.542964 12.091835 28.539062 12.089844 A 10 10 0 0 0 28.527344 12.085938 A 10 10 0 0 0 27.460938 11.617188 A 10 10 0 0 0 26.345703 11.279297 C 26.341727 11.278341 26.337963 11.276342 26.333984 11.275391 A 10 10 0 0 0 26.316406 11.271484 A 10 10 0 0 0 25.220703 11.076172 C 25.195347 11.073083 25.169945 11.069305 25.144531 11.066406 A 10 10 0 0 0 24 11 z " />
</svg>
