<?xml version="1.0" encoding="UTF-8" standalone="no"?>
<!-- Created with Inkscape (http://www.inkscape.org/) -->

<svg
   width="48"
   height="48"
   viewBox="0 0 48 48"
   version="1.1"
   id="svg69118"
   inkscape:version="1.2.1 (9c6d41e410, 2022-07-14, custom)"
   sodipodi:docname="preferences-desktop-locale.svg"
   xmlns:inkscape="http://www.inkscape.org/namespaces/inkscape"
   xmlns:sodipodi="http://sodipodi.sourceforge.net/DTD/sodipodi-0.dtd"
   xmlns:xlink="http://www.w3.org/1999/xlink"
   xmlns="http://www.w3.org/2000/svg"
   xmlns:svg="http://www.w3.org/2000/svg">
  <sodipodi:namedview
     id="namedview69120"
     pagecolor="#ffffff"
     bordercolor="#666666"
     borderopacity="1.0"
     inkscape:pageshadow="2"
     inkscape:pageopacity="0.0"
     inkscape:pagecheckerboard="0"
     inkscape:document-units="px"
     showgrid="false"
     units="px"
     inkscape:zoom="16.875"
     inkscape:cx="24"
     inkscape:cy="24"
     inkscape:window-width="1920"
     inkscape:window-height="1012"
     inkscape:window-x="0"
     inkscape:window-y="0"
     inkscape:window-maximized="1"
     inkscape:current-layer="svg69118"
     inkscape:showpageshadow="2"
     inkscape:deskcolor="#d1d1d1" />
  <defs
     id="defs69115">
    <linearGradient
       inkscape:collect="always"
       id="linearGradient3605">
      <stop
         style="stop-color:#0d6eaa;stop-opacity:1;"
         offset="0"
         id="stop3601" />
      <stop
         style="stop-color:#185086;stop-opacity:1"
         offset="1"
         id="stop3603" />
    </linearGradient>
    <linearGradient
       inkscape:collect="always"
       id="linearGradient1014">
      <stop
         style="stop-color:#33bff0;stop-opacity:1"
         offset="0"
         id="stop1010" />
      <stop
         style="stop-color:#1c9fe3;stop-opacity:1"
         offset="1"
         id="stop1012" />
    </linearGradient>
    <linearGradient
       inkscape:collect="always"
       xlink:href="#linearGradient3605"
       id="linearGradient1697"
       x1="12.474396"
       y1="5.0000038"
       x2="15.9998"
       y2="13.500037"
       gradientUnits="userSpaceOnUse"
       gradientTransform="matrix(2.9999882,0,0,2.9999882,-1.9992098,4.75e-5)" />
    <linearGradient
       inkscape:collect="always"
       xlink:href="#linearGradient1014"
       id="linearGradient1705"
       x1="7.2109375"
       y1="7.4824219"
       x2="10.197266"
       y2="14.636419"
       gradientUnits="userSpaceOnUse"
       gradientTransform="matrix(2.9999882,0,0,2.9999882,-1.9992098,1.949756)" />
    <linearGradient
       inkscape:collect="always"
       xlink:href="#linearGradient984"
       id="linearGradient7450"
       x1="13.809379"
       y1="13.973848"
       x2="2.3889806"
       y2="3.7831419"
       gradientUnits="userSpaceOnUse"
       gradientTransform="matrix(1.9549281,0,0,1.9549281,1.4482766,1.4482804)" />
    <linearGradient
       inkscape:collect="always"
       id="linearGradient984">
      <stop
         style="stop-color:#117bb9;stop-opacity:1;"
         offset="0"
         id="stop980" />
      <stop
         style="stop-color:#15b393;stop-opacity:1"
         offset="1"
         id="stop982" />
    </linearGradient>
  </defs>
  <circle
     style="fill:url(#linearGradient7450);fill-opacity:1;stroke-width:2.2025;stroke-linecap:round;stroke-linejoin:round"
     id="path7362"
     cx="18"
     cy="18"
     r="15" />
  <path
     id="path1250"
     style="opacity:0.3;fill:#ffffff;stroke-width:2;stroke-linecap:round"
     d="m 18,3 a 7,15 0 0 1 6.414062,9 H 11.59375 A 7,15 0 0 1 18,3 Z m 0,0 A 15,15 0 0 0 14.763672,3.3925781 8,16 0 0 0 10.587891,12 H 4.2695312 A 15,15 0 0 0 3.8964844,13 H 10.419922 A 8,16 0 0 0 10,18 8,16 0 0 0 10.419922,23 H 3.8964844 a 15,15 0 0 0 0.3730468,1 H 10.587891 A 8,16 0 0 0 14.763672,32.607422 15,15 0 0 0 18,33 7,15 0 0 1 11.59375,24 h 12.8125 A 7,15 0 0 1 18,33 15,15 0 0 0 21.236328,32.607422 8,16 0 0 0 25.412109,24 h 6.31836 a 15,15 0 0 0 0.373047,-1 H 25.580078 A 8,16 0 0 0 26,18 8,16 0 0 0 25.597656,13 h 6.542969 A 15,15 0 0 0 31.742188,12 H 25.414062 A 8,16 0 0 0 21.195312,3.3496094 15,15 0 0 0 18,3 Z m -6.583984,10 h 13.18164 A 7,15 0 0 1 25,18 7,15 0 0 1 24.583984,23 H 11.416016 A 7,15 0 0 1 11,18 7,15 0 0 1 11.416016,13 Z" />
  <path
     id="rect294"
     style="fill:url(#linearGradient1697);fill-opacity:1;stroke-width:7.93722;stroke-linecap:round;stroke-linejoin:round"
     d="M 35.423828,15 C 34.628084,15 34,15.694974 34,16.5 V 18 H 26.57617 C 26.55052,17.9987 26.52596,18 26.5,18 25.669006,18 25,18.669006 25,19.5 v 3 c 0,0.830992 0.669006,1.5 1.5,1.5 0.830992,0 1.5,-0.669008 1.5,-1.5 V 21 h 15 v 1.5 c 0,0.830992 0.669007,1.5 1.5,1.5 0.830992,0 1.5,-0.669008 1.5,-1.5 v -3 C 46,18.694936 45.37096,18.039969 44.57617,18 44.55067,17.9987 44.52598,18 44.5,18 H 37 V 16.5 C 37,15.669006 36.330992,15 35.5,15 H 35.42383 Z M 31,24 c -0.828422,0 -1.5,0.671578 -1.5,1.5 0,0.82842 0.671578,1.5 1.5,1.5 h 5.25 l -1.652343,3 H 28.076171 28 c -0.828422,0 -1.5,0.67158 -1.5,1.5 0,0.828421 0.671578,1.5 1.5,1.5 h 6 v 3 c 0,0.828423 -0.671578,1.5 -1.5,1.5 -0.828428,0 -1.5,0.671572 -1.5,1.5 0,0.828428 0.671572,1.5 1.5,1.5 2.485272,0 4.5,-2.014728 4.5,-4.5 v -3 h 6 c 0.828422,0 1.5,-0.671579 1.5,-1.5 C 44.5,30.67158 43.828422,30 43,30 h -4.910157 l 2.138673,-4.365234 C 40.635965,24.878683 40.493872,24 39.25,24 h -8.173829 c -0.0255,-6.45e-4 -0.05077,0 -0.07617,0 z"
     sodipodi:nodetypes="ssccsssssccsssssscssssssscccssscssssscsssccscss" />
  <path
     id="rect855"
     style="fill:url(#linearGradient1705);fill-opacity:1;stroke-width:2.99998;stroke-linecap:round;stroke-linejoin:round"
     d="m 19.633517,24.396932 c -0.583917,0.02916 -1.11691,0.398712 -1.330074,0.984373 L 10.094492,43.88424 c -0.2842157,0.78088 0.115602,1.637651 0.896481,1.921867 0.78088,0.284218 1.63765,-0.11559 1.921867,-0.896481 l 2.912098,-6.909585 h 7.910126 L 26.6706,44.96236 c 0.284218,0.780882 1.140985,1.180696 1.921867,0.896481 0.780876,-0.284219 1.180696,-1.140986 0.896481,-1.921868 L 21.279995,25.434038 c -0.174025,-0.478132 -0.564843,-0.814636 -1.019527,-0.937497 -0.0095,-0.0025 -0.0198,-0.0035 -0.02931,-0.0059 l -0.0059,-0.0058 c -0.195218,-0.07107 -0.397152,-0.09762 -0.591791,-0.08791 z m 0.14649,3.853109 2.865222,6.75 h -5.724592 z"
     sodipodi:nodetypes="cccsccccsccscccccccc" />
</svg>
