<?xml version="1.0" encoding="UTF-8" standalone="no"?>
<!-- Created with Inkscape (http://www.inkscape.org/) -->

<svg
   width="48"
   height="48"
   viewBox="0 0 48 48"
   version="1.1"
   id="svg2112"
   inkscape:version="1.2.1 (9c6d41e410, 2022-07-14, custom)"
   sodipodi:docname="preferences-desktop-default-applications.svg"
   xmlns:inkscape="http://www.inkscape.org/namespaces/inkscape"
   xmlns:sodipodi="http://sodipodi.sourceforge.net/DTD/sodipodi-0.dtd"
   xmlns:xlink="http://www.w3.org/1999/xlink"
   xmlns="http://www.w3.org/2000/svg"
   xmlns:svg="http://www.w3.org/2000/svg">
  <sodipodi:namedview
     id="namedview2114"
     pagecolor="#ffffff"
     bordercolor="#000000"
     borderopacity="0.25"
     inkscape:showpageshadow="2"
     inkscape:pageopacity="0.0"
     inkscape:pagecheckerboard="0"
     inkscape:deskcolor="#d1d1d1"
     inkscape:document-units="px"
     showgrid="false"
     inkscape:zoom="16.875"
     inkscape:cx="22.4"
     inkscape:cy="24.088889"
     inkscape:window-width="1920"
     inkscape:window-height="1029"
     inkscape:window-x="0"
     inkscape:window-y="0"
     inkscape:window-maximized="1"
     inkscape:current-layer="svg2112" />
  <defs
     id="defs2109">
    <linearGradient
       inkscape:collect="always"
       xlink:href="#linearGradient1394"
       id="linearGradient1800"
       x1="8.4666662"
       y1="3.4395833"
       x2="8.4666662"
       y2="9.7895832"
       gradientUnits="userSpaceOnUse"
       gradientTransform="scale(3.7795276)" />
    <linearGradient
       inkscape:collect="always"
       id="linearGradient1394">
      <stop
         style="stop-color:#1088d6;stop-opacity:1;"
         offset="0"
         id="stop1390" />
      <stop
         style="stop-color:#076cbe;stop-opacity:1"
         offset="1"
         id="stop1392" />
    </linearGradient>
    <linearGradient
       inkscape:collect="always"
       xlink:href="#linearGradient6911"
       id="linearGradient59378"
       x1="35.875587"
       y1="-37.89032"
       x2="55.549019"
       y2="-19.004301"
       gradientUnits="userSpaceOnUse"
       gradientTransform="matrix(0.65145888,0,0,0.65338992,7.671206,52.180083)" />
    <linearGradient
       inkscape:collect="always"
       id="linearGradient6911">
      <stop
         style="stop-color:#50b10e;stop-opacity:1;"
         offset="0"
         id="stop6907" />
      <stop
         style="stop-color:#18840f;stop-opacity:1"
         offset="1"
         id="stop6909" />
    </linearGradient>
  </defs>
  <rect
     style="fill:#797774;fill-opacity:1;stroke-width:2;stroke-linejoin:round"
     id="rect924"
     width="44"
     height="31.999998"
     x="2"
     y="8"
     ry="3" />
  <rect
     style="fill:#ffffff;stroke-width:2;stroke-linejoin:round"
     id="rect1289"
     width="42"
     height="28"
     x="3"
     y="11"
     ry="1.9999999" />
  <rect
     style="fill:url(#linearGradient1800);fill-opacity:1;stroke-width:2;stroke-linejoin:round"
     id="rect1712"
     width="15.999999"
     height="24"
     x="15.999999"
     y="13"
     ry="1.9999999" />
  <path
     id="rect845-3"
     style="fill:#bebebe;fill-opacity:1;stroke-width:3.28634;stroke-linecap:round;stroke-linejoin:round"
     d="m 5.0000003,14.000001 v 1 H 14 v -1 z m 0,4 v 1 H 14 v -1 z m 0,4 v 1 H 14 v -1 z m 0,4 v 1 H 14 v -1 z m 0,4.000001 v 1 H 14 v -1 z m 0,4 V 35 H 14 v -0.999998 z"
     sodipodi:nodetypes="cccccccccccccccccccccccccccccc" />
  <path
     id="rect845-3-3"
     style="fill:#bebebe;fill-opacity:1;stroke-width:3.28634;stroke-linecap:round;stroke-linejoin:round"
     d="m 33.999998,14.000001 v 1 h 9.000001 v -1 z m 0,4 v 1 h 9.000001 v -1 z m 0,4 v 1 h 9.000001 v -1 z m 0,4 v 1 h 9.000001 v -1 z m 0,4.000001 v 1 h 9.000001 v -1 z m 0,4 V 35 h 9.000001 v -0.999998 z"
     sodipodi:nodetypes="cccccccccccccccccccccccccccccc" />
  <path
     id="rect1066"
     style="fill:#c4c4c4;fill-opacity:1;stroke-width:1.5;stroke-linecap:round;stroke-linejoin:round"
     d="M 38.000001,9.0000001 V 10 H 39 V 9.0000001 Z m 2.000002,0 V 10 h 1.000002 V 9.0000001 Z m 2.000001,0 V 10 h 0.999999 V 9.0000001 Z" />
  <ellipse
     style="fill:url(#linearGradient59378);fill-opacity:1;stroke-width:0.517863;stroke-linecap:round;stroke-linejoin:round"
     id="path55509"
     cx="37.499996"
     cy="33.499992"
     rx="9.4999952"
     ry="9.4999943" />
  <path
     id="rect1469"
     style="fill:#ffffff;stroke-width:1.99994;stroke-linecap:round;stroke-linejoin:round"
     d="m 36.608974,37.973927 c -0.196762,0.177865 -0.498701,0.1711 -0.688444,-0.01852 -0.006,-0.006 -0.0121,-0.01134 -0.01776,-0.01776 l -3.517877,-3.518099 c -0.195848,-0.195862 -0.195855,-0.511222 0,-0.707089 0.195855,-0.195855 0.511226,-0.195855 0.707089,0 l 3.182285,3.182511 6.596072,-6.596075 c 0.195855,-0.195855 0.511226,-0.195855 0.707089,0 0.195855,0.195856 0.195855,0.511227 0,0.70709 l -6.931663,6.931666 c -0.0057,0.0064 -0.01172,0.01172 -0.01776,0.01814 -0.006,0.006 -0.0121,0.01285 -0.0189,0.01852 z"
     sodipodi:nodetypes="cscssccssccccc" />
  <path
     id="path69248"
     style="opacity:0.2;fill:#4d4d4d;fill-opacity:0.996078;stroke-width:1.08536;stroke-linecap:round;stroke-linejoin:round"
     d="m 37.5,24.000001 c -5.246698,0 -9.5,4.253303 -9.5,9.5 C 28,38.746701 32.253302,43 37.5,43 c 5.246699,0 9.500001,-4.253299 9.500001,-9.499999 0,-5.246697 -4.253302,-9.5 -9.500001,-9.5 z m 0,1 a 8.5,8.4999992 0 0 1 8.499999,8.5 8.5,8.4999992 0 0 1 -8.499999,8.5 8.5,8.4999992 0 0 1 -8.5,-8.5 8.5,8.4999992 0 0 1 8.5,-8.5 z" />
</svg>
