<?xml version="1.0" encoding="UTF-8" standalone="no"?>
<!-- Created with Inkscape (http://www.inkscape.org/) -->

<svg
   width="48"
   height="48"
   viewBox="0 0 48 48"
   version="1.1"
   id="svg5"
   inkscape:version="1.2.1 (9c6d41e410, 2022-07-14, custom)"
   sodipodi:docname="preferences-desktop-accessibility.svg"
   xmlns:inkscape="http://www.inkscape.org/namespaces/inkscape"
   xmlns:sodipodi="http://sodipodi.sourceforge.net/DTD/sodipodi-0.dtd"
   xmlns:xlink="http://www.w3.org/1999/xlink"
   xmlns="http://www.w3.org/2000/svg"
   xmlns:svg="http://www.w3.org/2000/svg">
  <sodipodi:namedview
     id="namedview7"
     pagecolor="#ffffff"
     bordercolor="#666666"
     borderopacity="1.0"
     inkscape:pageshadow="2"
     inkscape:pageopacity="0.0"
     inkscape:pagecheckerboard="0"
     inkscape:document-units="px"
     showgrid="false"
     units="px"
     height="48px"
     inkscape:zoom="16.833333"
     inkscape:cx="24"
     inkscape:cy="24"
     inkscape:window-width="1920"
     inkscape:window-height="1010"
     inkscape:window-x="0"
     inkscape:window-y="0"
     inkscape:window-maximized="1"
     inkscape:current-layer="svg5"
     inkscape:lockguides="true"
     inkscape:showpageshadow="2"
     inkscape:deskcolor="#d1d1d1" />
  <defs
     id="defs2">
    <linearGradient
       inkscape:collect="always"
       id="linearGradient2779">
      <stop
         style="stop-color:#4397ff;stop-opacity:1;"
         offset="0"
         id="stop2775" />
      <stop
         style="stop-color:#2b59b2;stop-opacity:1"
         offset="1"
         id="stop2777" />
    </linearGradient>
    <linearGradient
       inkscape:collect="always"
       xlink:href="#linearGradient2779"
       id="linearGradient2781"
       x1="8.2020826"
       y1="0.52916664"
       x2="8.1665678"
       y2="15.340623"
       gradientUnits="userSpaceOnUse"
       gradientTransform="matrix(2.8346303,0,0,2.8346303,3.0921285e-4,1.5000083)" />
  </defs>
  <path
     id="rect1286"
     style="fill:url(#linearGradient2781);fill-opacity:1;stroke-width:2.5495;stroke-linecap:round;stroke-linejoin:round"
     d="m 23.250183,3 c -3.313688,0 -5.999968,2.6862802 -5.999968,5.999967 0,3.313688 2.68628,5.999968 5.999968,5.999968 3.313687,0 5.999968,-2.686281 5.999968,-5.999968 C 29.250151,5.6862802 26.56387,3 23.250183,3 Z m -13.095632,8.856398 c -1.115914,0.0129 -2.175811,0.651734 -2.6806497,1.734365 -0.7023843,1.50627 -0.056082,3.284898 1.4501874,3.987283 l 9.0761223,4.23191 v 7.656697 l -4.182106,11.490171 c -0.568432,1.56176 0.231204,3.276762 1.792959,3.845196 1.561755,0.568426 3.276762,-0.231221 3.845194,-1.79296 l 3.793925,-10.423772 3.793925,10.423772 c 0.568431,1.561751 2.283442,2.361383 3.845193,1.79296 1.56176,-0.568434 2.361383,-2.283436 1.792961,-3.845196 L 28.500153,29.466653 v -7.656697 l 9.076123,-4.23191 c 1.506274,-0.702385 2.152575,-2.481013 1.450189,-3.987283 -0.702388,-1.506269 -2.479545,-2.152572 -3.985819,-1.450187 l -6.123014,2.854964 c -1.477988,1.397559 -3.472782,2.254383 -5.667449,2.254383 -2.194668,0 -4.189461,-0.856824 -5.66745,-2.254383 L 11.45972,12.140576 c -0.423639,-0.197547 -0.868507,-0.289225 -1.305169,-0.284178 z" />
</svg>
