<?xml version="1.0" encoding="UTF-8" standalone="no"?>
<svg
   width="48"
   height="48"
   version="1.1"
   viewBox="0 0 48 48"
   id="svg6"
   sodipodi:docname="preferences-system-backup.svg"
   inkscape:version="1.2.2 (1:1.2.2+202305151914+b0a8486541)"
   xmlns:inkscape="http://www.inkscape.org/namespaces/inkscape"
   xmlns:sodipodi="http://sodipodi.sourceforge.net/DTD/sodipodi-0.dtd"
   xmlns:xlink="http://www.w3.org/1999/xlink"
   xmlns="http://www.w3.org/2000/svg"
   xmlns:svg="http://www.w3.org/2000/svg"
   xmlns:rdf="http://www.w3.org/1999/02/22-rdf-syntax-ns#"
   xmlns:cc="http://creativecommons.org/ns#"
   xmlns:dc="http://purl.org/dc/elements/1.1/">
  <defs
     id="defs10">
    <linearGradient
       inkscape:collect="always"
       id="linearGradient58462">
      <stop
         style="stop-color:#636363;stop-opacity:1;"
         offset="0"
         id="stop58458" />
      <stop
         style="stop-color:#ababab;stop-opacity:0.99607843"
         offset="1"
         id="stop58460" />
    </linearGradient>
    <linearGradient
       inkscape:collect="always"
       id="linearGradient50927">
      <stop
         style="stop-color:#000000;stop-opacity:1;"
         offset="0"
         id="stop50923" />
      <stop
         style="stop-color:#000000;stop-opacity:0;"
         offset="1"
         id="stop50925" />
    </linearGradient>
    <linearGradient
       inkscape:collect="always"
       id="linearGradient50337">
      <stop
         style="stop-color:#ffffff;stop-opacity:1;"
         offset="0"
         id="stop50333" />
      <stop
         style="stop-color:#ffffff;stop-opacity:0;"
         offset="1"
         id="stop50335" />
    </linearGradient>
    <linearGradient
       inkscape:collect="always"
       id="linearGradient48004">
      <stop
         style="stop-color:#ffffff;stop-opacity:0"
         offset="0"
         id="stop48000" />
      <stop
         style="stop-color:#ffffff;stop-opacity:1"
         offset="0.50032598"
         id="stop48328" />
      <stop
         style="stop-color:#ffffff;stop-opacity:0;"
         offset="1"
         id="stop48002" />
    </linearGradient>
    <linearGradient
       inkscape:collect="always"
       id="linearGradient10484">
      <stop
         style="stop-color:#2e2e2e;stop-opacity:1;"
         offset="0"
         id="stop10480" />
      <stop
         style="stop-color:#616161;stop-opacity:1"
         offset="1"
         id="stop10482" />
    </linearGradient>
    <linearGradient
       inkscape:collect="always"
       xlink:href="#linearGradient10484"
       id="linearGradient10486"
       x1="8.9135923"
       y1="13.009702"
       x2="8.9135923"
       y2="19.269016"
       gradientUnits="userSpaceOnUse"
       gradientTransform="matrix(1.8857359,0,0,1.9171434,7.1913167,-1.9419216)" />
    <linearGradient
       inkscape:collect="always"
       xlink:href="#linearGradient48004"
       id="linearGradient48006"
       x1="0.54178363"
       y1="10.597012"
       x2="3.0651259"
       y2="13.265047"
       gradientUnits="userSpaceOnUse"
       gradientTransform="matrix(2.8347014,0,0,2.8347014,1.246292e-6,-0.25045499)" />
    <radialGradient
       inkscape:collect="always"
       xlink:href="#linearGradient50337"
       id="radialGradient50339"
       cx="3.5557096"
       cy="10.338881"
       fx="3.5557096"
       fy="10.338881"
       r="0.66144532"
       gradientUnits="userSpaceOnUse"
       gradientTransform="matrix(3.0236813,0,0,3.0236813,-1.5999994,-1.8004541)" />
    <linearGradient
       inkscape:collect="always"
       xlink:href="#linearGradient50927"
       id="linearGradient50929"
       x1="0.81698829"
       y1="6.6935077"
       x2="2.7050784"
       y2="7.9747996"
       gradientUnits="userSpaceOnUse"
       gradientTransform="matrix(2.8263539,0,0,2.8263539,0.01325215,-0.18199009)" />
    <linearGradient
       inkscape:collect="always"
       xlink:href="#linearGradient50927"
       id="linearGradient51339"
       gradientUnits="userSpaceOnUse"
       x1="0.81698829"
       y1="6.6935077"
       x2="2.7050784"
       y2="7.9747996"
       gradientTransform="matrix(-2.8263539,0,0,2.8263539,47.871904,-0.18199009)" />
    <linearGradient
       inkscape:collect="always"
       xlink:href="#linearGradient58462"
       id="linearGradient58464"
       x1="9.5248117"
       y1="8.3342104"
       x2="9.5248108"
       y2="12.787942"
       gradientUnits="userSpaceOnUse"
       gradientTransform="matrix(2.8347014,0,0,2.8347014,1.246292e-6,-0.25045499)" />
    <linearGradient
       inkscape:collect="always"
       xlink:href="#linearGradient48004"
       id="linearGradient71108"
       gradientUnits="userSpaceOnUse"
       x1="0.54178363"
       y1="10.597012"
       x2="3.0651259"
       y2="13.265047"
       gradientTransform="matrix(-2.8347014,0,0,2.8347014,47.999995,-0.25045499)" />
    <filter
       inkscape:collect="always"
       style="color-interpolation-filters:sRGB"
       id="filter1734"
       x="-0.26507999"
       y="-0.26507999"
       width="1.53016"
       height="1.53016">
      <feGaussianBlur
         inkscape:collect="always"
         stdDeviation="0.11689062"
         id="feGaussianBlur1736" />
    </filter>
    <linearGradient
       inkscape:collect="always"
       xlink:href="#linearGradient1611"
       id="linearGradient1109"
       x1="1.8368058"
       y1="2.3578029"
       x2="1.8673608"
       y2="5.5564623"
       gradientUnits="userSpaceOnUse"
       gradientTransform="matrix(1.416639,0,0,1.416639,7.5625236,-0.99207992)" />
    <linearGradient
       inkscape:collect="always"
       id="linearGradient1611">
      <stop
         style="stop-color:#9ca3a8;stop-opacity:1;"
         offset="0"
         id="stop1607" />
      <stop
         style="stop-color:#63737d;stop-opacity:1"
         offset="1"
         id="stop1609" />
    </linearGradient>
    <linearGradient
       inkscape:collect="always"
       xlink:href="#linearGradient3161"
       id="linearGradient3163"
       x1="8.4666662"
       y1="15.345833"
       x2="8.4666662"
       y2="1.5874995"
       gradientUnits="userSpaceOnUse"
       gradientTransform="matrix(0.28845588,0,0,0.28845588,7.7439955,2.1879356)" />
    <linearGradient
       inkscape:collect="always"
       id="linearGradient3161">
      <stop
         style="stop-color:#c7ccd1;stop-opacity:1;"
         offset="0"
         id="stop3157" />
      <stop
         style="stop-color:#fdfdfd;stop-opacity:1"
         offset="1"
         id="stop3159" />
    </linearGradient>
    <linearGradient
       inkscape:collect="always"
       xlink:href="#linearGradient2190"
       id="linearGradient1396"
       x1="7.9372935"
       y1="1.5873805"
       x2="11.906014"
       y2="6.0852966"
       gradientUnits="userSpaceOnUse"
       gradientTransform="translate(0.52915625,0.79382273)" />
    <linearGradient
       inkscape:collect="always"
       id="linearGradient2190">
      <stop
         style="stop-color:#37c837;stop-opacity:1;"
         offset="0"
         id="stop2186" />
      <stop
         style="stop-color:#289028;stop-opacity:0.99993783"
         offset="1"
         id="stop2188" />
    </linearGradient>
  </defs>
  <sodipodi:namedview
     id="namedview8"
     pagecolor="#ffffff"
     bordercolor="#666666"
     borderopacity="1.0"
     inkscape:pageshadow="2"
     inkscape:pageopacity="0.0"
     inkscape:pagecheckerboard="0"
     showgrid="false"
     inkscape:zoom="16.791667"
     inkscape:cx="23.970223"
     inkscape:cy="24"
     inkscape:window-width="1920"
     inkscape:window-height="1008"
     inkscape:window-x="0"
     inkscape:window-y="0"
     inkscape:window-maximized="1"
     inkscape:current-layer="svg6"
     inkscape:showpageshadow="2"
     inkscape:deskcolor="#d1d1d1" />
  <metadata
     id="metadata2">
    <rdf:RDF>
      <cc:Work
         rdf:about="">
        <dc:format>image/svg+xml</dc:format>
        <dc:type
           rdf:resource="http://purl.org/dc/dcmitype/StillImage" />
      </cc:Work>
    </rdf:RDF>
  </metadata>
  <path
     id="rect31485"
     style="opacity:1;fill:#e1e3e6;fill-opacity:1;stroke-width:1.49558;stroke-linecap:round;stroke-linejoin:round;stroke-dasharray:17.947, 1.49558"
     d="m 13.441365,14.026049 c -0.666201,-0.0037 -1.186294,0.20391 -1.431318,0.44546 l -8.5674704,8.966195 1.0574233,-0.438158 h 8.9734971 20.93816 8.973493 l 1.057423,0.438158 -8.567465,-8.966195 c -0.245032,-0.241554 -0.765116,-0.449133 -1.43132,-0.44546 z"
     sodipodi:nodetypes="ccccccccccc" />
  <path
     id="rect31485-9"
     style="opacity:0.3;fill:url(#linearGradient50929);fill-opacity:1;stroke-width:1.49558;stroke-linecap:round;stroke-linejoin:round;stroke-dasharray:17.947, 1.49558"
     d="m 13.441365,14.026049 c -0.666201,-0.0037 -1.186294,0.20391 -1.431318,0.44546 l -8.5674704,8.966195 1.0574233,-0.438158 h 8.9734971 20.93816 8.973493 l 1.057423,0.438158 -8.567465,-8.966195 c -0.245032,-0.241554 -0.765116,-0.449133 -1.43132,-0.44546 z"
     sodipodi:nodetypes="ccccccccccc" />
  <path
     id="rect31485-9-0"
     style="opacity:0.3;fill:url(#linearGradient51339);fill-opacity:1;stroke-width:1.49558;stroke-linecap:round;stroke-linejoin:round;stroke-dasharray:17.947, 1.49558"
     d="m 34.443788,14.026049 c 0.666204,-0.0037 1.186292,0.20391 1.43132,0.44546 l 8.567465,8.966195 -1.057423,-0.438158 H 34.411654 13.473496 4.4999999 l -1.0574233,0.438158 8.5674704,-8.966195 c 0.245016,-0.241554 0.765113,-0.449133 1.431319,-0.44546 z"
     sodipodi:nodetypes="ccccccccccc" />
  <path
     id="rect849"
     style="fill:url(#linearGradient58464);fill-opacity:1;stroke-width:1.5;stroke-linecap:round;stroke-linejoin:round;stroke-dasharray:18, 1.5"
     d="M 4.4999999,22.999546 C 3.6689993,22.999546 3,23.668543 3,24.499545 v 9.499999 a 1.9999999,2.0000017 0 0 0 1.9999997,1.999998 H 42.999997 A 1.9999999,2.0000017 0 0 0 45,33.999544 v -9.499999 c 0,-0.831002 -0.669001,-1.499999 -1.500003,-1.499999 z" />
  <path
     id="rect849-5"
     style="opacity:0.4;fill:url(#linearGradient48006);fill-opacity:1;stroke-width:1.5;stroke-linecap:round;stroke-linejoin:round;stroke-dasharray:18, 1.5"
     d="M 4.4999999,22.999546 C 3.6689993,22.999546 3,23.668547 3,24.499545 v 9.499999 a 1.9999999,2.0000017 0 0 0 1.9999997,1.999998 H 42.999997 A 1.9999999,2.0000017 0 0 0 45,33.999544 v -9.499999 c 0,-0.830998 -0.669001,-1.499999 -1.500003,-1.499999 z" />
  <path
     id="rect849-5-8"
     style="opacity:0.4;fill:url(#linearGradient71108);fill-opacity:1;stroke-width:1.5;stroke-linecap:round;stroke-linejoin:round;stroke-dasharray:18, 1.5"
     d="M 4.4999999,22.999546 C 3.6689997,22.999546 3,23.668547 3,24.499545 v 9.499999 a 1.9999999,2.0000017 0 0 0 1.9999997,1.999998 H 42.999997 A 1.9999999,2.0000017 0 0 0 45,33.999544 v -9.499999 c 0,-0.830998 -0.669001,-1.499999 -1.500003,-1.499999 z" />
  <path
     id="rect1094"
     style="fill:url(#linearGradient10486);stroke-width:1.00613;stroke-linecap:round;stroke-linejoin:round;stroke-dasharray:12.0735, 1.00613"
     d="M 4.472656,22.999546 A 0.49999999,0.49999999 0 0 0 3.9999998,23.4722 v 10.527344 c 0,0.554002 0.446001,0.999999 0.9999999,0.999999 H 42.999997 c 0.553999,0 1,-0.445997 1,-0.999999 V 23.4722 a 0.49999999,0.49999999 0 0 0 -0.472655,-0.472654 z" />
  <circle
     style="opacity:1;fill:#12ff12;fill-opacity:1;stroke-width:0.458;stroke-linecap:round;stroke-linejoin:round;stroke-dasharray:5.49599, 0.458;filter:url(#filter1734)"
     id="path25907"
     cx="4.852047"
     cy="16.987673"
     r="0.52915627"
     transform="matrix(3.7796017,0,0,3.7796017,-8.3388051,-35.207092)" />
  <circle
     style="fill:#12ff12;fill-opacity:1;stroke-width:1.6;stroke-linecap:round;stroke-linejoin:round;stroke-dasharray:19.2, 1.6"
     id="path30449"
     cx="10"
     cy="28.999544"
     r="1.9999999" />
  <circle
     style="opacity:0.7;fill:url(#radialGradient50339);fill-opacity:1;stroke-width:1.6;stroke-linecap:round;stroke-linejoin:round;stroke-dasharray:19.2, 1.6"
     id="path50091"
     cx="10"
     cy="28.999544"
     r="1.9999999" />
  <path
     id="path49923"
     style="opacity:0.2;fill:#000000;fill-opacity:1;stroke-width:1.33333;stroke-linecap:round;stroke-linejoin:round;stroke-dasharray:16, 1.33333"
     d="m 10.857881,27.786003 a 1.4999998,1.4999998 0 0 1 0.28646,0.880209 1.4999998,1.4999998 0 0 1 -1.5,1.499995 1.4999998,1.4999998 0 0 1 -0.880208,-0.286456 1.4999998,1.4999998 0 0 0 1.2135413,0.619791 1.4999998,1.4999998 0 0 0 1.4999997,-1.5 1.4999998,1.4999998 0 0 0 -0.619793,-1.213539 z" />
  <g
     id="g2110"
     transform="matrix(3.779602,0,0,3.779602,1.1656613e-6,1.9999998)">
    <circle
       style="fill:url(#linearGradient1109);fill-opacity:1;stroke-width:0.140558;stroke-linejoin:round"
       id="path1021"
       cx="10.186257"
       cy="4.6302056"
       r="2.248914" />
    <circle
       style="fill:url(#linearGradient3163);fill-opacity:1;stroke-width:0.0763207"
       id="path2899"
       cx="10.186257"
       cy="4.6302056"
       r="1.9843359" />
    <path
       id="rect1636"
       style="fill:#444444;fill-opacity:1;stroke-width:0.132282;stroke-linejoin:round"
       d="m 10.179584,3.1750291 c -0.07009,0.00353 -0.125565,0.061288 -0.125565,0.1322824 V 4.623539 c -1.13e-4,0.00225 0,0.00443 0,0.00672 0,0.073284 0.059,0.1322824 0.132283,0.1322824 h 0.0067 1.316149 c 0.07328,3e-7 0.132283,-0.058998 0.132283,-0.1322822 0,-0.073284 -0.059,-0.1322824 -0.132283,-0.1322824 H 10.318584 V 3.3073115 c 0,-0.073284 -0.059,-0.1322822 -0.132282,-0.1322822 -0.0023,0 -0.0045,-1.137e-4 -0.0067,0 z"
       sodipodi:nodetypes="cscssccsscsscc" />
    <path
       id="path1350"
       style="color:#000000;fill:url(#linearGradient1396);fill-opacity:1;stroke:none;stroke-linecap:round;stroke-linejoin:round"
       d="m 8.5920712,2.3812914 c -0.07009,0.00353 -0.1255713,0.061295 -0.1255713,0.1322891 V 3.300597 c -1.129e-4,0.00225 0,0.00443 0,0.00672 0,0.073284 0.059006,0.132289 0.1322891,0.132289 h 0.00672 0.7870166 c 0.07328,3e-7 0.132289,-0.059005 0.132289,-0.132289 0,-0.073284 -0.059006,-0.1322891 -0.132289,-0.1322891 H 8.8375294 C 9.4044156,2.6495939 10.226932,2.500209 10.945369,2.7977952 c 0.741845,0.3072822 1.224191,1.0289262 1.224191,1.8318935 0,0.8029673 -0.482346,1.5266781 -1.224191,1.8339604 -0.741845,0.3072823 -1.5943151,0.138361 -2.1620988,-0.4294227 a 0.13228901,0.13228901 0 0 0 -0.1875817,0 0.13228901,0.13228901 0 0 0 0,0.1855148 c 0.6429149,0.642915 1.6109565,0.8362757 2.4509645,0.4883327 0.840009,-0.3479431 1.388519,-1.1691662 1.388519,-2.0783852 0,-0.909219 -0.54851,-1.7299253 -1.388519,-2.0778684 C 10.626649,2.3778488 10.175395,2.3396946 9.7480502,2.4246988 9.3787708,2.498153 9.0272032,2.6644735 8.7310781,2.9156151 V 2.5135805 c 0,-0.073284 -0.059007,-0.1322891 -0.1322891,-0.1322891 -0.0023,0 -0.00452,-1.137e-4 -0.00672,0 z" />
  </g>
</svg>
