<?xml version="1.0" encoding="UTF-8" standalone="no"?>
<!-- Created with Inkscape (http://www.inkscape.org/) -->

<svg
   width="48"
   height="48"
   viewBox="0 0 48 48"
   version="1.1"
   id="svg2535"
   inkscape:version="1.2 (1:1.2.1+202207142221+cd75a1ee6d)"
   sodipodi:docname="preferences-system-time.svg"
   xmlns:inkscape="http://www.inkscape.org/namespaces/inkscape"
   xmlns:sodipodi="http://sodipodi.sourceforge.net/DTD/sodipodi-0.dtd"
   xmlns:xlink="http://www.w3.org/1999/xlink"
   xmlns="http://www.w3.org/2000/svg"
   xmlns:svg="http://www.w3.org/2000/svg">
  <sodipodi:namedview
     id="namedview2537"
     pagecolor="#ffffff"
     bordercolor="#000000"
     borderopacity="0.25"
     inkscape:showpageshadow="2"
     inkscape:pageopacity="0.0"
     inkscape:pagecheckerboard="0"
     inkscape:deskcolor="#d1d1d1"
     inkscape:document-units="px"
     showgrid="false"
     inkscape:zoom="17.375"
     inkscape:cx="23.971223"
     inkscape:cy="24"
     inkscape:window-width="1920"
     inkscape:window-height="1012"
     inkscape:window-x="0"
     inkscape:window-y="0"
     inkscape:window-maximized="1"
     inkscape:current-layer="svg2535" />
  <defs
     id="defs2532">
    <radialGradient
       id="radialGradient875"
       cx="20.107"
       cy="28.705"
       r="28"
       gradientTransform="matrix(0.78939992,0.44577328,-0.35122662,0.62196667,10.419335,-5.7973336)"
       gradientUnits="userSpaceOnUse">
      <stop
         stop-color="#5ab5e2"
         offset="0"
         id="stop2" />
      <stop
         stop-color="#4189ac"
         offset=".45901"
         id="stop4" />
      <stop
         stop-color="#295e76"
         offset="1"
         id="stop6" />
    </radialGradient>
    <linearGradient
       id="linearGradient883"
       x1="4"
       x2="59.861"
       y1="31.360001"
       y2="31.360001"
       gradientTransform="matrix(0.71426664,0,0,0.71426664,1.1435232,1.0950858)"
       gradientUnits="userSpaceOnUse">
      <stop
         stop-color="#b0d6df"
         offset="0"
         id="stop9" />
      <stop
         stop-color="#e1f8fc"
         offset=".21709"
         id="stop11" />
      <stop
         stop-color="#96c3ce"
         offset="1"
         id="stop13" />
    </linearGradient>
    <linearGradient
       inkscape:collect="always"
       xlink:href="#linearGradient1611"
       id="linearGradient1109"
       x1="1.8368058"
       y1="2.3578029"
       x2="1.8673608"
       y2="5.5564623"
       gradientUnits="userSpaceOnUse"
       gradientTransform="matrix(6.9291344,0,0,6.9291344,0.16666685,7.5000022)" />
    <linearGradient
       inkscape:collect="always"
       id="linearGradient1611">
      <stop
         style="stop-color:#9ca3a8;stop-opacity:1;"
         offset="0"
         id="stop1607" />
      <stop
         style="stop-color:#63737d;stop-opacity:1"
         offset="1"
         id="stop1609" />
    </linearGradient>
    <linearGradient
       inkscape:collect="always"
       xlink:href="#linearGradient3161"
       id="linearGradient3163"
       x1="8.4666662"
       y1="15.345833"
       x2="8.4666662"
       y2="1.5874995"
       gradientUnits="userSpaceOnUse"
       gradientTransform="matrix(1.3082979,0,0,1.3082979,1.9230652,23.923032)" />
    <linearGradient
       inkscape:collect="always"
       id="linearGradient3161">
      <stop
         style="stop-color:#c7ccd1;stop-opacity:1;"
         offset="0"
         id="stop3157" />
      <stop
         style="stop-color:#fdfdfd;stop-opacity:1"
         offset="1"
         id="stop3159" />
    </linearGradient>
    <radialGradient
       id="radialGradient875-3"
       cx="20.107"
       cy="28.705"
       r="28"
       gradientTransform="matrix(0.51311877,0.28975761,-0.22830122,0.40428527,6.1726397,-4.3683762)"
       gradientUnits="userSpaceOnUse">
      <stop
         stop-color="#5ab5e2"
         offset="0"
         id="stop2-6" />
      <stop
         stop-color="#4189ac"
         offset=".45901"
         id="stop4-7" />
      <stop
         stop-color="#295e76"
         offset="1"
         id="stop6-5" />
    </radialGradient>
  </defs>
  <rect
     x="4"
     y="4"
     width="40"
     height="40"
     rx="19.999998"
     ry="19.999998"
     fill="url(#radialGradient875)"
     id="rect30"
     style="fill:url(#radialGradient875);stroke-width:0.714271" />
  <path
     id="path32"
     style="fill:url(#linearGradient883);stroke-width:0.714271"
     d="m 24.104823,4.9525077 c -1.542466,0.1093886 -3.050626,0.3913863 -4.522158,0.8683746 -0.524987,0.020491 -1.668717,0.6982815 -0.748183,1.0156074 0.428406,0.4576571 1.452301,0.6013028 1.328101,1.3491354 0.165209,0.657332 -1.528057,0.6275787 -0.964528,1.2229359 0.399573,0.5258514 0.799302,1.051629 1.198899,1.577497 0.737803,-0.236981 0.981869,-0.9898885 1.391201,-1.5714875 1.1394,-0.502581 2.75055,-0.6554216 3.503548,-1.6225683 C 25.527657,7.1078712 25.764865,6.423884 26.000825,5.7397538 25.368665,5.4773965 24.736954,5.214928 24.104823,4.9525077 Z M 18.36574,5.120774 c -0.567198,0.035951 -0.971678,0.3998731 -1.43327,0.6490272 -0.649344,0.07953 -1.381636,0.322082 -1.790835,0.8443366 0.728397,0.3305568 1.186139,-0.020672 1.814874,-0.2704281 0.583765,-0.2990726 2.571234,-0.4257809 1.664634,-1.2169262 -0.08834,-0.00953 -0.174375,-0.011143 -0.255403,-0.00602 z M 15.20173,7.1940558 C 14.669543,7.2736189 14.481331,8.4097 14.255232,7.6207311 14.190391,7.48877 14.124773,7.3591297 14.059924,7.227108 13.696586,7.7817192 14.31417,8.5826518 13.48301,8.8737143 13.072738,9.3930848 12.715962,10.246731 13.741419,9.9373981 13.992278,9.1678 14.771588,8.0864474 15.658454,8.5371822 16.551718,8.7771867 17.377998,10.278995 18.10733,9.0900571 18.107035,8.7808314 16.973243,8.5995741 16.998575,7.843083 16.493886,7.6265648 15.413458,8.0199637 15.451126,7.2331175 15.359983,7.192649 15.277758,7.182689 15.20173,7.1940558 Z m 18.650522,0.7301553 c -0.863,0.1725704 -1.716729,0.3713607 -2.397797,0.964527 0.197695,0.7904019 -0.820485,0.9224238 -1.274015,1.3611539 -0.329065,0.185689 0.0062,1.619878 0.294466,1.397213 0.613026,-0.808802 0.929509,-0.11094 1.499374,0.288456 0.512917,0.476389 0.837334,-0.884339 0.564892,-1.268008 -0.159846,-0.61835 0.618573,-1.0771035 0.898423,-1.5835054 0.8556,-0.5488291 0.13253,0.6997305 0.105173,1.1357974 -0.431882,1.288661 1.917009,0.04062 0.369584,1.003588 -0.415081,0.414515 -0.567103,1.027781 -1.204912,1.334113 -0.344382,0.420343 -1.658346,0.223025 -1.481345,-0.432685 -0.479967,-0.752268 -0.362761,0.906359 -0.525832,0.898422 -0.795463,-0.237033 -1.03356,0.650894 -1.532426,1.075702 -0.381774,0.438593 -1.727342,0.164928 -0.721142,0.844337 0.733863,0.8468 -0.147101,0.69092 -0.754192,0.91645 -0.857934,0.147737 -0.713295,0.89682 -0.691094,1.571488 0.01314,0.371806 0.835985,0.923365 1.252982,0.66405 0.832932,-0.0892 0.622586,-1.112521 1.237959,-1.424255 0.511304,-0.437678 0.869859,-0.842885 1.637593,-0.853349 0.354451,0.338276 1.070626,0.847246 1.361154,1.123779 -0.801795,0.873598 0.368834,0.801949 0.480761,0.006 0.3955,-0.438276 -1.303196,-1.468747 -0.183289,-1.015608 0.741265,0.24454 0.571628,1.0032 0.901425,1.514395 0.586243,0.991002 0.648535,0.249796 0.703114,-0.516817 0.973987,-0.305981 1.23824,1.69848 2.551038,1.228947 0.983868,0.258526 0.516046,0.893264 -0.105172,1.304063 -0.567343,0.413815 -1.411554,0.131513 -2.03422,-0.09314 -0.616004,-0.316254 -1.358397,-0.136187 -1.682663,0.49278 -0.719863,-0.621262 -1.228805,-1.606965 -2.274601,-1.661631 -0.9902,-0.05129 -1.992068,0.211546 -2.947665,0.480761 -1.058799,1.2426 -2.20494,2.453196 -2.698273,4.041398 -0.512095,0.62931 0.587383,1.004764 -0.246387,1.577496 -0.580473,0.541972 0.195358,1.213149 0.315498,1.820883 0.624685,0.740794 1.583305,3.175063 2.548032,2.232534 0.542922,-0.857798 0.903039,0.563419 1.54144,-0.327518 0.537342,-0.490483 0.974199,0.490944 1.727736,0.141227 0.670063,0.334008 0.726652,0.990025 0.372589,1.61656 -0.227371,0.636116 0.984982,0.897998 0.640012,1.640597 -0.162624,0.726197 0.156065,1.343216 0.516819,1.950086 -0.801865,0.836997 -0.704963,2.076147 -0.504799,3.124947 0.392333,1.437866 0.954556,2.87896 0.898422,4.392953 0.702595,0.184295 1.221855,-0.28151 1.802855,-0.525832 1.108941,0.156848 1.712201,-1.025037 2.4008,-1.703695 -0.517301,-0.6954 0.424789,-0.995418 0.814288,-1.44529 -0.582607,-0.503929 -0.971109,-0.992188 -0.06911,-1.385192 0.41608,-0.422614 1.197448,-0.663495 1.334109,-1.252983 -0.358303,-1.067732 -0.154637,-2.201301 -0.207326,-3.305232 0.44176,-0.890336 0.909866,-1.761402 1.643602,-2.448876 0.292618,-0.965463 0.996671,-1.851241 0.928469,-2.88757 -1.710271,0.511649 -1.194185,-0.217357 -0.246391,-0.91044 0.65774,-0.482387 1.59384,-0.932315 1.79384,-1.754779 0.143551,-0.811734 -0.490743,-2.072994 -1.042649,-0.880395 -0.268094,-0.380068 -1.211966,-0.731499 -1.198898,-1.328101 -0.202248,-1.203128 0.324206,-0.481035 0.793255,0.08714 0.904892,-0.670778 2.035618,1.298065 2.133377,0.754194 C 43.36012,16.761332 40.893466,12.209426 37.229597,8.9818857 36.902435,9.3441714 36.367599,10.5992 35.976614,9.8592743 35.417499,9.2661486 34.975928,8.7316378 36.114832,8.9518381 37.230963,8.6489259 36.11988,8.4740408 35.534915,8.4049718 34.94816,8.3364832 34.404851,8.1200482 33.852252,7.9242111 Z m -21.399874,0.027045 c -0.08998,-0.00408 -0.185014,9.619e-4 -0.282447,0.015022 l -0.10817,-0.00902 -0.03005,-0.00296 c -0.08348,0.062245 -0.163935,0.1287784 -0.24639,0.1922992 -0.21501,0.4061096 0.37505,1.120802 -0.736165,0.8293134 -0.08932,0.040476 -0.213594,0.067505 -0.36658,0.084133 C 6.5937312,12.704657 4.0212789,18.007483 4.0030031,23.93659 c 0.3872901,0.793979 1.335908,1.06615 2.0462389,1.505384 0.7230689,0.247345 1.6322866,0.210783 1.9921533,1.009597 0.4024859,0.421475 0.9424027,0.984895 1.5174017,1.030632 0.883597,-0.283143 1.007667,0.519113 0.56189,1.11176 -0.0483,0.649151 -0.7686195,1.171823 -0.688089,1.74276 0.1609762,0.639714 -0.8068449,1.343787 -0.1562476,1.929053 0.6844609,1.223664 1.4180436,2.413628 2.3437096,3.470493 0.575751,0.50442 0.507422,1.199258 0.441699,1.892995 -0.228481,0.733202 0.463368,1.156872 0.835322,1.688673 -0.141924,0.260216 -0.27167,0.637548 -0.396628,1.057674 0.973978,0.683745 2.008878,1.284346 3.100908,1.787832 0.546233,-0.789889 1.029449,-1.375727 1.28904,-1.382189 0.519696,-0.364085 0.628604,-1.187277 0.98556,-1.733744 -0.01143,-0.580447 -0.381113,-1.122579 0.222351,-1.754779 0.454702,-0.383786 1.393209,-0.127242 1.562476,-0.928469 0.617662,-0.636228 0.117186,-1.517695 0.117186,-2.289623 0.479791,-0.657228 1.305791,-1.162145 1.213921,-2.070277 0.103943,-1.354466 -2.334789,-1.294148 -3.194055,-2.115349 -1.056186,-0.03023 -0.842437,-1.470433 -1.664634,-1.66163 -0.816268,0.04106 -1.110886,-0.59767 -1.400218,-1.246974 -0.449584,-0.306635 -1.296331,0.315165 -1.766797,-0.06911 -0.532861,-0.28072 -1.010746,-1.327465 -1.610546,-0.673068 -0.789399,0.572368 -1.5647975,1.153599 -2.3136632,0.19531 C 8.556323,25.995925 9.1647086,24.75375 8.4770851,24.832013 7.0091534,25.362995 8.94382,22.69987 7.5696489,23.053198 7.244187,23.563339 6.6201851,24.350961 6.0131852,23.747298 5.4036105,23.460478 5.703555,22.527013 5.7307381,21.968482 c 0.026383,-0.653293 0.852969,-0.979023 1.3281021,-1.277023 0.9215331,0.412136 0.7321768,-0.81621 1.5023783,-0.405641 0.7471301,-0.159122 1.0848644,1.040047 1.3881967,1.084717 0.1782698,-0.590445 -0.1453209,-1.452914 0.4026368,-1.841916 0.640251,-0.53892 1.485603,-0.921423 1.643602,-1.82689 0.01315,-0.967267 1.186941,-0.152574 1.47834,-0.811287 0.268648,-0.754733 1.05385,-0.707944 1.715716,-0.850346 0.362025,-0.3359 1.271321,-1.370022 0.147234,-1.066687 -0.409431,-0.05533 -2.056683,0.163004 -0.937485,-0.231367 0.55131,-0.417321 1.217041,-0.359733 1.835907,-0.441698 0.487385,-0.41263 1.341716,-0.549794 1.379183,-1.30106 -0.404523,-0.550172 -1.262157,-0.445872 -0.898421,-1.234955 -0.03515,-1.032199 -0.945303,-0.369199 -1.243971,-0.447708 0.485052,-0.674999 -0.629107,-1.099291 -1.003588,-1.108756 -0.254519,0.636107 -0.970667,1.184899 -0.718138,1.917035 -0.746062,0.121167 -1.094887,0.661811 -1.319086,1.334111 -0.223685,0.07791 -0.153483,-1.318552 -1.009598,-1.189882 -0.604716,-0.01459 -1.351798,-0.918686 -0.715133,-1.274018 0.872865,-0.552267 1.960043,-0.983821 2.511976,-1.8659529 0.27773,-0.6913122 -0.136337,-1.149413 -0.766212,-1.1778685 z m 14.23954,0.913446 c -0.481741,0.3747762 -1.453292,0.113421 -1.658626,0.4747505 -0.08637,0.7288004 1.044436,0.7178424 1.49637,0.315499 0.738658,-0.2731047 0.70563,-0.2211838 0.162256,-0.7902495 z M 15.991982,9.2372914 c -1.023799,0.3012343 -0.187565,0.9704536 0.480761,0.9615216 0.797395,-0.06433 0.05593,-0.9557873 -0.480761,-0.9615216 z m 12.208324,2.0101806 c -0.07325,0.652159 0.553192,1.062339 0.294465,1.772807 -0.407406,0.894999 0.169129,1.163091 0.865371,0.612971 0.929863,-0.568948 -0.69671,-1.817578 -0.913447,-2.385778 z m -0.450714,1.033638 c -0.65737,0.02069 -0.391054,1.522958 0.147234,0.958517 0.6183,-0.107938 0.02446,-0.583518 -0.003,-0.940489 -0.05223,-0.01285 -0.1004,-0.01941 -0.144227,-0.01803 z M 17.22994,13.87363 c 0.122671,0.663202 0.166497,1.715279 0.652034,0.585927 -6.65e-4,-0.219486 -0.479416,-0.391866 -0.652034,-0.585927 z m 20.176938,6.817792 c 0.982132,0.856333 1.378459,2.098256 1.932059,3.236123 0.823737,0.432498 0.335971,1.093813 0.450713,1.64961 1.146927,1.004167 -1.16053,0.46752 -0.880395,-0.627993 -0.18716,-1.272392 -1.003177,-2.120616 -1.670643,-3.040813 -0.05249,-0.487084 -0.575484,-1.043597 0.168266,-1.216927 z" />
  <circle
     style="fill:url(#linearGradient1109);fill-opacity:1;stroke-width:0.687501;stroke-linejoin:round"
     id="path1021"
     cx="13"
     cy="35"
     r="11" />
  <circle
     style="fill:url(#linearGradient3163);fill-opacity:1;stroke-width:0.346153"
     id="path2899"
     cx="13"
     cy="35"
     r="9" />
  <path
     id="rect1636"
     style="fill:#444444;fill-opacity:1;stroke-width:1;stroke-linejoin:round"
     d="m 12.949603,28.000382 c -0.52983,0.02668 -0.94922,0.463312 -0.94922,1 V 34.9496 c -8.61e-4,0.017 0,0.03348 0,0.05078 0,0.554 0.446,1 1,1 h 0.05078 5.949218 c 0.554002,2e-6 1,-0.445998 1,-0.999998 0,-0.554 -0.445998,-1 -0.999998,-1 h -5 v -5 c 0,-0.554 -0.446,-1 -1,-1 -0.0174,0 -0.0337,-8.6e-4 -0.05078,0 z"
     sodipodi:nodetypes="sscssccsscsss" />
</svg>
