<?xml version="1.0" encoding="UTF-8" standalone="no"?>
<!-- Created with Inkscape (http://www.inkscape.org/) -->

<svg
   width="48"
   height="48"
   viewBox="0 0 48 48"
   version="1.1"
   id="svg2112"
   inkscape:version="1.2.1 (9c6d41e410, 2022-07-14, custom)"
   sodipodi:docname="preferences-desktop-emoticons.svg"
   xmlns:inkscape="http://www.inkscape.org/namespaces/inkscape"
   xmlns:sodipodi="http://sodipodi.sourceforge.net/DTD/sodipodi-0.dtd"
   xmlns:xlink="http://www.w3.org/1999/xlink"
   xmlns="http://www.w3.org/2000/svg"
   xmlns:svg="http://www.w3.org/2000/svg">
  <sodipodi:namedview
     id="namedview2114"
     pagecolor="#ffffff"
     bordercolor="#000000"
     borderopacity="0.25"
     inkscape:showpageshadow="2"
     inkscape:pageopacity="0.0"
     inkscape:pagecheckerboard="0"
     inkscape:deskcolor="#d1d1d1"
     inkscape:document-units="px"
     showgrid="false"
     inkscape:zoom="16.708333"
     inkscape:cx="22.084788"
     inkscape:cy="24"
     inkscape:window-width="1920"
     inkscape:window-height="1011"
     inkscape:window-x="0"
     inkscape:window-y="0"
     inkscape:window-maximized="1"
     inkscape:current-layer="svg2112" />
  <defs
     id="defs2109">
    <linearGradient
       inkscape:collect="always"
       id="linearGradient1021">
      <stop
         style="stop-color:#ffdd2e;stop-opacity:1;"
         offset="0"
         id="stop1017" />
      <stop
         style="stop-color:#ffab03;stop-opacity:1;"
         offset="1"
         id="stop1019" />
    </linearGradient>
    <linearGradient
       inkscape:collect="always"
       xlink:href="#linearGradient1021"
       id="linearGradient4020"
       x1="32"
       y1="4"
       x2="60"
       y2="60"
       gradientUnits="userSpaceOnUse"
       gradientTransform="scale(0.75)" />
  </defs>
  <circle
     style="fill:url(#linearGradient4020);fill-opacity:1;stroke-width:0.75;stroke-linecap:round;stroke-linejoin:round"
     id="path368"
     cx="24"
     cy="24"
     r="21" />
  <path
     id="path375"
     style="fill:#313131;stroke-linecap:round;stroke-linejoin:round;opacity:0.8;fill-opacity:1"
     d="m 15,14 c -1.656854,0 -3,1.343146 -3,3 0,1.656854 1.343146,3 3,3 1.656854,0 3,-1.343146 3,-3 0,-1.656854 -1.343146,-3 -3,-3 z m 18,0 c -1.656854,0 -3,1.343146 -3,3 0,1.656854 1.343146,3 3,3 1.656854,0 3,-1.343146 3,-3 0,-1.656854 -1.343146,-3 -3,-3 z M 16.222656,30.888672 c -0.397802,6e-5 -0.779289,0.158135 -1.060547,0.439453 -0.585636,0.585761 -0.585636,1.535333 0,2.121094 2.343793,2.343792 5.523267,3.662109 8.837891,3.662109 3.314624,0 6.494098,-1.318317 8.837891,-3.662109 0.585636,-0.585761 0.585636,-1.535333 0,-2.121094 -0.585761,-0.585636 -1.535333,-0.585636 -2.121094,0 -1.781999,1.781999 -4.19667,2.783203 -6.716797,2.783203 -2.520127,0 -4.934798,-1.001204 -6.716797,-2.783203 -0.281258,-0.281318 -0.662745,-0.439393 -1.060547,-0.439453 z"
     sodipodi:nodetypes="sssssssssscscscccscc" />
</svg>
