<?xml version="1.0" encoding="UTF-8" standalone="no"?>
<!-- Created with Inkscape (http://www.inkscape.org/) -->

<svg
   width="48"
   height="48"
   viewBox="0 0 48 48"
   version="1.1"
   id="svg5"
   inkscape:version="1.3.2 (091e20ef0f, 2023-11-25, custom)"
   sodipodi:docname="spotify-client.svg"
   xmlns:inkscape="http://www.inkscape.org/namespaces/inkscape"
   xmlns:sodipodi="http://sodipodi.sourceforge.net/DTD/sodipodi-0.dtd"
   xmlns:xlink="http://www.w3.org/1999/xlink"
   xmlns="http://www.w3.org/2000/svg"
   xmlns:svg="http://www.w3.org/2000/svg">
  <sodipodi:namedview
     id="namedview7"
     pagecolor="#ffffff"
     bordercolor="#666666"
     borderopacity="1.0"
     inkscape:pageshadow="2"
     inkscape:pageopacity="0.0"
     inkscape:pagecheckerboard="0"
     inkscape:document-units="px"
     showgrid="false"
     units="px"
     inkscape:zoom="16.833333"
     inkscape:cx="24"
     inkscape:cy="24"
     inkscape:window-width="1920"
     inkscape:window-height="1012"
     inkscape:window-x="0"
     inkscape:window-y="0"
     inkscape:window-maximized="1"
     inkscape:current-layer="svg5"
     inkscape:showpageshadow="2"
     inkscape:deskcolor="#d1d1d1" />
  <defs
     id="defs2">
    <linearGradient
       inkscape:collect="always"
       id="linearGradient13">
      <stop
         style="stop-color:#64d36c;stop-opacity:1;"
         offset="0"
         id="stop12" />
      <stop
         style="stop-color:#22b04c;stop-opacity:1;"
         offset="1"
         id="stop13" />
    </linearGradient>
    <linearGradient
       inkscape:collect="always"
       xlink:href="#linearGradient13"
       id="linearGradient884"
       x1="8"
       y1="0"
       x2="8"
       y2="16"
       gradientUnits="userSpaceOnUse"
       gradientTransform="matrix(2.625,0,0,2.625,3,3)" />
    <linearGradient
       inkscape:collect="always"
       id="linearGradient1066">
      <stop
         style="stop-color:#555556;stop-opacity:1;"
         offset="0"
         id="stop1062" />
      <stop
         style="stop-color:#2d2d2d;stop-opacity:1;"
         offset="1"
         id="stop1064" />
    </linearGradient>
    <linearGradient
       inkscape:collect="always"
       xlink:href="#linearGradient1066"
       id="linearGradient11"
       x1="14.714417"
       y1="9.0002613"
       x2="27.000622"
       y2="22.993624"
       gradientUnits="userSpaceOnUse"
       gradientTransform="scale(1.5)" />
  </defs>
  <circle
     style="fill:url(#linearGradient884);stroke-width:2.625;stroke-linecap:round"
     id="path299"
     cx="24"
     cy="24"
     r="21" />
  <path
     d="m 22.071625,13.500392 c -4.156406,-0.01812 -8.162897,0.593791 -11.466796,1.584961 -1.191379,0.356952 -1.8671821,1.612766 -1.5087896,2.803711 0.3569526,1.191378 1.6127656,1.867181 2.8037106,1.508789 6.867293,-2.060188 18.487187,-1.916878 25.063476,2.686524 1.017879,0.71128 2.41955,0.463464 3.131837,-0.553712 0.71128,-1.017879 0.463464,-2.419549 -0.553712,-3.131836 -4.211839,-2.948288 -9.410548,-4.385389 -14.575195,-4.78125 -0.968372,-0.07422 -1.93536,-0.113005 -2.894531,-0.117187 z m -0.351562,8.317383 c -3.51785,-0.03386 -6.973053,0.535666 -10.148438,1.488282 -0.79236,0.238425 -1.241992,1.073455 -1.004882,1.86621 0.238425,0.792361 1.073455,1.241992 1.866211,1.004883 7.183638,-2.155091 15.66987,-2.134703 22.708006,2.791992 0.678006,0.475453 1.613034,0.311528 2.088867,-0.366211 0.475454,-0.678006 0.311529,-1.613033 -0.36621,-2.088867 -3.980917,-2.786642 -8.349675,-4.174821 -12.700195,-4.573243 -0.815723,-0.0747 -1.631549,-0.11523 -2.443359,-0.123046 z m -0.354492,6.638671 c -3.242321,-0.0099 -6.252385,0.552464 -8.53418,1.693361 -0.741133,0.370458 -1.04153,1.271649 -0.670898,2.012695 0.370459,0.741132 1.271649,1.041528 2.012695,0.670898 1.892225,-0.946112 5.081903,-1.521336 8.4375,-1.344726 3.355596,0.17661 6.883503,1.078068 9.597655,2.774413 0.70232,0.4379 1.626602,0.224201 2.06543,-0.477538 0.437899,-0.70232 0.2242,-1.626602 -0.477539,-2.06543 -3.285835,-2.053648 -7.257954,-3.027196 -11.027344,-3.225586 -0.471173,-0.0248 -0.940131,-0.03667 -1.403319,-0.03808 z"
     style="color:#000000;fill:url(#linearGradient11);stroke-width:1.5;stroke-linecap:round;-inkscape-stroke:none"
     id="path1" />
</svg>
