<?xml version="1.0" encoding="UTF-8" standalone="no"?>
<!-- Created with Inkscape (http://www.inkscape.org/) -->

<svg
   width="48"
   height="48"
   viewBox="0 0 48 48"
   version="1.1"
   id="svg5"
   inkscape:version="1.2.2 (1:1.2.2+202305151914+b0a8486541)"
   sodipodi:docname="system-software-install.svg"
   xmlns:inkscape="http://www.inkscape.org/namespaces/inkscape"
   xmlns:sodipodi="http://sodipodi.sourceforge.net/DTD/sodipodi-0.dtd"
   xmlns:xlink="http://www.w3.org/1999/xlink"
   xmlns="http://www.w3.org/2000/svg"
   xmlns:svg="http://www.w3.org/2000/svg">
  <sodipodi:namedview
     id="namedview7"
     pagecolor="#ffffff"
     bordercolor="#666666"
     borderopacity="1.0"
     inkscape:pageshadow="2"
     inkscape:pageopacity="0.0"
     inkscape:pagecheckerboard="0"
     inkscape:document-units="px"
     showgrid="false"
     units="px"
     height="64px"
     inkscape:zoom="16.791667"
     inkscape:cx="23.970223"
     inkscape:cy="24"
     inkscape:window-width="1920"
     inkscape:window-height="1008"
     inkscape:window-x="0"
     inkscape:window-y="0"
     inkscape:window-maximized="1"
     inkscape:current-layer="svg5"
     inkscape:showpageshadow="2"
     inkscape:deskcolor="#d1d1d1" />
  <defs
     id="defs2">
    <linearGradient
       inkscape:collect="always"
       id="linearGradient1545">
      <stop
         style="stop-color:#2ed9ff;stop-opacity:1;"
         offset="0"
         id="stop1541" />
      <stop
         style="stop-color:#057dbd;stop-opacity:1"
         offset="1"
         id="stop1543" />
    </linearGradient>
    <linearGradient
       inkscape:collect="always"
       id="linearGradient1314">
      <stop
         style="stop-color:#21baff;stop-opacity:1;"
         offset="0"
         id="stop1310" />
      <stop
         style="stop-color:#057dbd;stop-opacity:1"
         offset="1"
         id="stop1312" />
    </linearGradient>
    <linearGradient
       inkscape:collect="always"
       xlink:href="#linearGradient1545"
       id="linearGradient5273"
       x1="12.170835"
       y1="1.0583334"
       x2="12.175638"
       y2="4.7453794"
       gradientUnits="userSpaceOnUse"
       gradientTransform="matrix(2.8346439,0,0,2.8346439,1.61e-5,-0.9999982)" />
    <linearGradient
       inkscape:collect="always"
       xlink:href="#linearGradient1545"
       id="linearGradient5963"
       x1="18"
       y1="4"
       x2="18"
       y2="18"
       gradientUnits="userSpaceOnUse"
       gradientTransform="matrix(0.74999996,0,0,0.74999996,6.0000002e-7,-0.9999995)" />
    <linearGradient
       inkscape:collect="always"
       xlink:href="#linearGradient934"
       id="linearGradient7211"
       x1="3.1750002"
       y1="3.1749995"
       x2="15.875"
       y2="15.875"
       gradientUnits="userSpaceOnUse"
       gradientTransform="matrix(2.8346457,0,0,2.8346457,-1.9999998e-7,1.0000002)" />
    <linearGradient
       inkscape:collect="always"
       xlink:href="#linearGradient1314"
       id="linearGradient1308"
       x1="6.3499999"
       y1="0.52916664"
       x2="6.3499999"
       y2="1.3229167"
       gradientUnits="userSpaceOnUse"
       gradientTransform="scale(3.7795276)" />
    <linearGradient
       inkscape:collect="always"
       xlink:href="#linearGradient1451"
       id="linearGradient1514"
       x1="16.115164"
       y1="25.999807"
       x2="16.103132"
       y2="13.733308"
       gradientUnits="userSpaceOnUse"
       gradientTransform="translate(8.0000016,14)" />
    <linearGradient
       inkscape:collect="always"
       id="linearGradient1451">
      <stop
         style="stop-color:#56b512;stop-opacity:1;"
         offset="0"
         id="stop1447" />
      <stop
         style="stop-color:#84cd5a;stop-opacity:1;"
         offset="1"
         id="stop1449" />
    </linearGradient>
    <linearGradient
       inkscape:collect="always"
       id="linearGradient934">
      <stop
         style="stop-color:#345996;stop-opacity:1;"
         offset="0"
         id="stop930" />
      <stop
         style="stop-color:#1d375f;stop-opacity:1;"
         offset="1"
         id="stop932" />
    </linearGradient>
  </defs>
  <path
     id="rect1335"
     style="fill:url(#linearGradient7211);fill-opacity:1.0;stroke-width:0.749999"
     d="M 6.0000001,10 A 3.0000001,3.0000004 0 0 0 3,13.000001 V 34.000002 C 3,40.647996 8.3520074,46 15.000001,46 h 18 c 6.647997,0 12.000002,-5.352004 12.000002,-11.999998 V 13.000001 A 3.0000001,3.0000004 0 0 0 41.999999,10 Z" />
  <path
     id="rect846"
     style="fill:url(#linearGradient5963);fill-opacity:1;stroke-width:0.701559"
     d="m 15.000001,2.0000002 c -1.656852,0 -3,1.3431478 -3,3.0000006 v 6.9746102 c -2.16e-4,0.0086 0,0.01676 0,0.02542 0,0.553999 0.446,0.999999 1,0.999999 h 1 c 0.553999,0 1,-0.446 1,-0.999999 0,-0.0087 2.16e-4,-0.0168 0,-0.02542 V 5.0000008 Z" />
  <path
     id="rect1529"
     style="fill:url(#linearGradient5273);fill-opacity:1;stroke-width:0.749999"
     d="m 33.000002,2.0000002 v 3.0000006 6.9746102 c -2.16e-4,0.0086 0,0.01676 0,0.02542 0,0.553999 0.446001,0.999999 1,0.999999 h 1 c 0.554,0 1,-0.446 1,-0.999999 0,-0.0087 2.17e-4,-0.0168 0,-0.02542 V 5.0000008 c 0,-1.6568517 -1.343149,-3.0000006 -3,-3.0000006 z" />
  <rect
     style="fill:url(#linearGradient1308);fill-opacity:1;stroke-width:0.999999"
     id="rect1300"
     width="18"
     height="3.0000005"
     x="15"
     y="2" />
  <path
     id="rect1289"
     style="fill:url(#linearGradient1514);fill-opacity:1;stroke:none;stroke-width:2;stroke-linecap:round"
     d="M 21.5,18 C 20.671573,18 20,18.671573 20,19.5 v 10.500484 h -4.000484 c -0.890636,3.5e-4 -1.336586,1.077037 -0.707031,1.707031 l 8.000485,7.999517 c 0.390529,0.390368 1.023533,0.390368 1.414062,0 l 8.000483,-7.999517 c 0.629556,-0.629994 0.183605,-1.706681 -0.707031,-1.707031 H 28 V 19.5 C 28,18.671573 27.328427,18 26.5,18 Z"
     sodipodi:nodetypes="ssccccccccsss" />
</svg>
