<?xml version="1.0" encoding="UTF-8" standalone="no"?>
<!-- Created with Inkscape (http://www.inkscape.org/) -->

<svg
   width="48"
   height="48"
   viewBox="0 0 48 48"
   version="1.1"
   id="svg2112"
   inkscape:version="1.2.1 (9c6d41e410, 2022-07-14, custom)"
   sodipodi:docname="system-software-update.svg"
   xmlns:inkscape="http://www.inkscape.org/namespaces/inkscape"
   xmlns:sodipodi="http://sodipodi.sourceforge.net/DTD/sodipodi-0.dtd"
   xmlns:xlink="http://www.w3.org/1999/xlink"
   xmlns="http://www.w3.org/2000/svg"
   xmlns:svg="http://www.w3.org/2000/svg">
  <sodipodi:namedview
     id="namedview2114"
     pagecolor="#ffffff"
     bordercolor="#000000"
     borderopacity="0.25"
     inkscape:showpageshadow="2"
     inkscape:pageopacity="0.0"
     inkscape:pagecheckerboard="0"
     inkscape:deskcolor="#d1d1d1"
     inkscape:document-units="px"
     showgrid="false"
     inkscape:zoom="16.875"
     inkscape:cx="24"
     inkscape:cy="24"
     inkscape:window-width="1920"
     inkscape:window-height="1012"
     inkscape:window-x="0"
     inkscape:window-y="0"
     inkscape:window-maximized="1"
     inkscape:current-layer="svg2112" />
  <defs
     id="defs2109">
    <linearGradient
       inkscape:collect="always"
       xlink:href="#linearGradient59376"
       id="linearGradient59378"
       x1="45.787689"
       y1="-43.129013"
       x2="45.593357"
       y2="-14.11183"
       gradientUnits="userSpaceOnUse"
       gradientTransform="matrix(1.4400679,0,0,1.4443365,-41.937378,65.292813)" />
    <linearGradient
       inkscape:collect="always"
       id="linearGradient59376">
      <stop
         style="stop-color:#189ae1;stop-opacity:1;"
         offset="0"
         id="stop59372" />
      <stop
         style="stop-color:#037cd6;stop-opacity:0.99607843"
         offset="1"
         id="stop59374" />
    </linearGradient>
  </defs>
  <ellipse
     style="fill:url(#linearGradient59378);fill-opacity:1;stroke-width:1.14475;stroke-linecap:round;stroke-linejoin:round"
     id="path55509"
     cx="24"
     cy="23.999998"
     rx="21"
     ry="20.999998" />
  <path
     id="path1151"
     style="color:#000000;opacity:0.2;fill:#000000;stroke:none;stroke-width:1.5;stroke-linecap:round"
     d="M 24.042969,11 C 18.968706,10.98311 14.310274,13.83301 12,18.316406 V 15.5 C 12,14.669004 11.330998,14 10.5,14 9.6690023,14 9,14.669004 9,15.5 v 6 c 0,0.830996 0.6690023,1.5 1.5,1.5 h 6 C 17.330996,23 18,22.330996 18,21.5 18,20.669004 17.330996,20 16.5,20 h -1.986328 c 1.86425,-3.938372 5.989209,-6.344914 10.40039,-5.958984 4.741483,0.414826 8.601242,3.949435 9.427735,8.636718 0.144301,0.815292 0.920923,1.360455 1.736328,1.216797 0.815291,-0.1443 1.360456,-0.922876 1.216797,-1.738281 C 36.235165,16.146056 31.257421,11.584638 25.177734,11.052734 24.797755,11.019494 24.419165,11.00125 24.042969,11 Z M 31.5,27 c -0.830996,0 -1.5,0.669004 -1.5,1.5 0,0.830996 0.669004,1.5 1.5,1.5 h 1.986328 C 31.762038,33.640933 28.088234,36 24,36 19.580674,36 15.644311,33.244604 14.132812,29.091797 13.849459,28.313712 12.989194,27.912429 12.210938,28.195312 11.432852,28.478664 11.031569,29.33893 11.314453,30.117188 13.253777,35.445436 18.329796,39 24,39 c 5.095777,0 9.709445,-2.871241 12,-7.320312 V 34.5 c 0,0.830996 0.669004,1.5 1.5,1.5 0.830996,0 1.5,-0.669004 1.5,-1.5 v -6 C 39,27.669004 38.330996,27 37.5,27 Z" />
  <path
     id="path368"
     style="color:#000000;fill:#f9f9f9;stroke:none;stroke-width:1.5;stroke-linecap:round"
     d="M 24.042969,10 C 18.968706,9.9831052 14.310274,12.833011 12,17.316406 V 14.5 C 12,13.669003 11.330997,13 10.5,13 9.6690026,13 9,13.669003 9,14.5 v 6 c 0,0.830996 0.6690026,1.5 1.5,1.5 h 6 C 17.330996,22 18,21.330996 18,20.5 18,19.669004 17.330996,19 16.5,19 h -1.986328 c 1.86425,-3.938372 5.989209,-6.344913 10.40039,-5.958984 4.741483,0.414825 8.601242,3.949434 9.427735,8.636718 0.144301,0.815292 0.920923,1.360456 1.736328,1.216797 0.815291,-0.1443 1.360456,-0.922876 1.216797,-1.738281 C 36.235165,15.146056 31.257421,10.584639 25.177734,10.052734 24.797755,10.019494 24.419165,10.00125 24.042969,10 Z M 31.5,26 c -0.830996,0 -1.5,0.669004 -1.5,1.5 0,0.830996 0.669004,1.5 1.5,1.5 h 1.986328 C 31.762038,32.640933 28.088234,35 24,35 19.580674,35 15.644311,32.244605 14.132812,28.091797 13.849459,27.313712 12.989193,26.91243 12.210938,27.195312 11.432852,27.478665 11.031569,28.338932 11.314453,29.117188 13.253778,34.445437 18.329796,38 24,38 c 5.095777,0 9.709445,-2.871242 12,-7.320312 V 33.5 c 0,0.830996 0.669004,1.5 1.5,1.5 0.830996,0 1.5,-0.669004 1.5,-1.5 v -6 C 39,26.669004 38.330996,26 37.5,26 Z" />
</svg>
