<?xml version="1.0" encoding="UTF-8" standalone="no"?>
<!-- Created with Inkscape (http://www.inkscape.org/) -->

<svg
   width="48"
   height="48"
   viewBox="0 0 48 48"
   version="1.1"
   id="svg5"
   inkscape:version="1.2.1 (9c6d41e410, 2022-07-14, custom)"
   sodipodi:docname="system-file-manager.svg"
   xmlns:inkscape="http://www.inkscape.org/namespaces/inkscape"
   xmlns:sodipodi="http://sodipodi.sourceforge.net/DTD/sodipodi-0.dtd"
   xmlns:xlink="http://www.w3.org/1999/xlink"
   xmlns="http://www.w3.org/2000/svg"
   xmlns:svg="http://www.w3.org/2000/svg">
  <sodipodi:namedview
     id="namedview7"
     pagecolor="#ffffff"
     bordercolor="#666666"
     borderopacity="1.0"
     inkscape:pageshadow="2"
     inkscape:pageopacity="0.0"
     inkscape:pagecheckerboard="0"
     inkscape:document-units="px"
     showgrid="false"
     units="px"
     inkscape:zoom="17.083333"
     inkscape:cx="23.970732"
     inkscape:cy="24"
     inkscape:window-width="1920"
     inkscape:window-height="1029"
     inkscape:window-x="0"
     inkscape:window-y="0"
     inkscape:window-maximized="1"
     inkscape:current-layer="svg5"
     inkscape:showpageshadow="2"
     inkscape:deskcolor="#d1d1d1" />
  <defs
     id="defs2">
    <linearGradient
       inkscape:collect="always"
       id="linearGradient11972">
      <stop
         style="stop-color:#ffc832;stop-opacity:1;"
         offset="0"
         id="stop11968" />
      <stop
         style="stop-color:#ffdc6e;stop-opacity:1;"
         offset="1"
         id="stop11970" />
    </linearGradient>
    <linearGradient
       inkscape:collect="always"
       xlink:href="#linearGradient11972"
       id="linearGradient9587"
       x1="3"
       y1="41"
       x2="45"
       y2="11"
       gradientUnits="userSpaceOnUse" />
    <linearGradient
       inkscape:collect="always"
       xlink:href="#linearGradient2516"
       id="linearGradient2518"
       x1="19.291992"
       y1="39.291992"
       x2="19"
       y2="58"
       gradientUnits="userSpaceOnUse"
       gradientTransform="matrix(0.74999998,0,0,0.74999998,-0.4999999,-0.4999993)" />
    <linearGradient
       inkscape:collect="always"
       id="linearGradient2516">
      <stop
         style="stop-color:#0a82ff;stop-opacity:1;"
         offset="0"
         id="stop2512" />
      <stop
         style="stop-color:#0564c8;stop-opacity:1;"
         offset="1"
         id="stop2514" />
    </linearGradient>
    <linearGradient
       inkscape:collect="always"
       xlink:href="#linearGradient2524"
       id="linearGradient2526"
       x1="44.708008"
       y1="39.291992"
       x2="45"
       y2="58"
       gradientUnits="userSpaceOnUse"
       gradientTransform="matrix(0.74999998,0,0,0.74999998,2e-6,-0.4999993)" />
    <linearGradient
       inkscape:collect="always"
       id="linearGradient2524">
      <stop
         style="stop-color:#004bb9;stop-opacity:1;"
         offset="0"
         id="stop2520" />
      <stop
         style="stop-color:#0546b4;stop-opacity:1;"
         offset="1"
         id="stop2522" />
    </linearGradient>
    <linearGradient
       inkscape:collect="always"
       xlink:href="#linearGradient2508"
       id="linearGradient2510"
       x1="14.583984"
       y1="39"
       x2="50.082676"
       y2="39"
       gradientUnits="userSpaceOnUse"
       gradientTransform="matrix(0.74999998,0,0,0.74999998,-0.4999999,-0.4999993)" />
    <linearGradient
       inkscape:collect="always"
       id="linearGradient2508">
      <stop
         style="stop-color:#1496ff;stop-opacity:1;"
         offset="0"
         id="stop2504" />
      <stop
         style="stop-color:#0a78ff;stop-opacity:1;"
         offset="1"
         id="stop2506" />
    </linearGradient>
  </defs>
  <path
     id="rect846"
     style="fill:#e19600;fill-opacity:1;stroke-width:2;stroke-linecap:round;stroke-linejoin:round;stroke-dasharray:24, 2"
     d="M 6,5 C 4.3431458,5 3,6.3431454 3,7.9999996 V 36 H 45 V 13 c 0,-1.108 -0.891998,-2 -1.999997,-2 H 24 L 21,6.9999997 C 19.634743,5.6637682 18.662,5 17,5 Z"
     sodipodi:nodetypes="ssccssccss" />
  <path
     id="rect1170"
     style="fill:url(#linearGradient9587);fill-opacity:1;stroke-width:2.64576;stroke-linecap:round;stroke-linejoin:round;stroke-dasharray:31.749, 2.64576"
     d="m 24,11 -5,5 H 7 6 c -1.656851,0 -3,1.343149 -3,3 v 1 18 c 0,1.656854 1.3431458,3 3,3 h 36 c 1.656854,0 3,-1.343146 3,-3 V 13 c 0,-1.107997 -0.891998,-2 -2,-2 z"
     sodipodi:nodetypes="cccsscssssssc" />
  <path
     id="path2779"
     style="fill:#de9e00;fill-opacity:1;stroke-width:2.64576;stroke-linecap:round;stroke-linejoin:round;stroke-dasharray:31.749, 2.64576"
     d="M 3 37 L 3 38 C 3 39.656852 4.3431475 41 6 41 L 42 41 C 43.656852 41 45 39.656852 45 38 L 45 37 C 45 38.656852 43.656852 40 42 40 L 6 40 C 4.3431477 40 3 38.656852 3 37 z " />
  <rect
     style="fill:url(#linearGradient2518);fill-opacity:1;stroke-width:0.75"
     id="rect1450"
     width="8"
     height="18"
     x="10"
     y="25"
     ry="1.5" />
  <rect
     style="fill:url(#linearGradient2526);fill-opacity:1;stroke-width:0.75"
     id="rect1452"
     width="8"
     height="18"
     x="30"
     y="25"
     ry="1.5" />
  <path
     id="rect1448"
     style="fill:url(#linearGradient2510);fill-opacity:1;stroke-width:0.75"
     d="m 11.5,25 c -0.415499,0 -0.790887,0.166864 -1.062012,0.437988 L 18,33 h 11.999994 l 7.562012,-7.562012 C 37.290881,25.166864 36.915493,25 36.499994,25 Z"
     sodipodi:nodetypes="sccccss" />
  <path
     id="rect1170-75"
     style="opacity:0.3;fill:#ffffff;fill-opacity:1;stroke-width:2.64576;stroke-linecap:round;stroke-linejoin:round;stroke-dasharray:31.749, 2.64576"
     d="m 24,11 -5,5.000001 H 6 c -1.6568542,0 -3,1.343145 -3,2.999999 v 1 c 0,-1.656854 1.3431458,-3 3,-3 h 13 l 5,-5 H 43.000003 C 44.108005,12 45,12.892 45,14 v -1 c 0,-1.108 -0.891995,-2 -1.999997,-2 z"
     sodipodi:nodetypes="ccsscsccscssc" />
</svg>
