<?xml version="1.0" encoding="UTF-8" standalone="no"?>
<svg
   width="48"
   height="48"
   viewBox="0 0 48 48"
   version="1.1"
   id="svg1886"
   inkscape:version="1.2.1 (9c6d41e410, 2022-07-14, custom)"
   sodipodi:docname="utilities-system-monitor.svg"
   xmlns:inkscape="http://www.inkscape.org/namespaces/inkscape"
   xmlns:sodipodi="http://sodipodi.sourceforge.net/DTD/sodipodi-0.dtd"
   xmlns:xlink="http://www.w3.org/1999/xlink"
   xmlns="http://www.w3.org/2000/svg"
   xmlns:svg="http://www.w3.org/2000/svg"
   xmlns:rdf="http://www.w3.org/1999/02/22-rdf-syntax-ns#"
   xmlns:cc="http://creativecommons.org/ns#"
   xmlns:dc="http://purl.org/dc/elements/1.1/">
  <defs
     id="defs1880">
    <linearGradient
       id="linearGradient873"
       x1="-48.646"
       x2="-32.771999"
       y1="-3.0915"
       y2="9.5740004"
       gradientTransform="matrix(1,0,0,0.91665,49.175,7.5514)"
       gradientUnits="userSpaceOnUse">
      <stop
         offset="0"
         id="stop2"
         style="stop-color:#b6c1cb;stop-opacity:1" />
      <stop
         offset="1"
         id="stop4"
         style="stop-color:#8e979e;stop-opacity:1" />
    </linearGradient>
    <linearGradient
       inkscape:collect="always"
       xlink:href="#linearGradient13610"
       id="linearGradient13612"
       x1="15.420015"
       y1="5.2335482"
       x2="15.345531"
       y2="15.727132"
       gradientUnits="userSpaceOnUse"
       gradientTransform="matrix(2.7620169,0,0,2.7620169,0.6153842,0.1752159)" />
    <linearGradient
       inkscape:collect="always"
       id="linearGradient13610">
      <stop
         style="stop-color:#0e7fd5;stop-opacity:1;"
         offset="0"
         id="stop13606" />
      <stop
         style="stop-color:#0e7fd5;stop-opacity:0;"
         offset="1"
         id="stop13608" />
    </linearGradient>
    <linearGradient
       inkscape:collect="always"
       xlink:href="#linearGradient873"
       id="linearGradient5166"
       x1="5.8207603"
       y1="1.3229001"
       x2="5.8207603"
       y2="7.1436596"
       gradientUnits="userSpaceOnUse"
       gradientTransform="matrix(5.5433767,0,0,5.8411615,-0.93333344,-0.72727321)" />
  </defs>
  <sodipodi:namedview
     id="base"
     pagecolor="#ffffff"
     bordercolor="#666666"
     borderopacity="1.0"
     inkscape:pageopacity="0.0"
     inkscape:pageshadow="2"
     inkscape:zoom="17.229167"
     inkscape:cx="24"
     inkscape:cy="24"
     inkscape:document-units="px"
     inkscape:current-layer="svg1886"
     inkscape:document-rotation="0"
     showgrid="false"
     units="px"
     inkscape:window-width="1920"
     inkscape:window-height="1029"
     inkscape:window-x="0"
     inkscape:window-y="0"
     inkscape:window-maximized="1"
     inkscape:pagecheckerboard="0"
     showguides="false"
     inkscape:showpageshadow="2"
     inkscape:deskcolor="#d1d1d1" />
  <metadata
     id="metadata1883">
    <rdf:RDF>
      <cc:Work
         rdf:about="">
        <dc:format>image/svg+xml</dc:format>
        <dc:type
           rdf:resource="http://purl.org/dc/dcmitype/StillImage" />
      </cc:Work>
    </rdf:RDF>
  </metadata>
  <rect
     style="fill:url(#linearGradient5166);fill-opacity:1;stroke-width:1.50554;stroke-linecap:butt;stroke-linejoin:round"
     id="rect4855"
     width="44"
     height="34"
     x="2"
     y="7"
     ry="2" />
  <rect
     style="opacity:1;fill:#edeff1;fill-opacity:1;stroke-width:2.11111;stroke-linecap:round"
     id="rect759"
     width="38"
     height="28"
     x="5"
     y="10"
     ry="1" />
  <path
     id="rect3612"
     style="opacity:0.5;fill:url(#linearGradient13612);fill-opacity:1;stroke-width:1.46154;stroke-linecap:round;stroke-linejoin:round"
     d="M 14.830078 14.707031 L 12.892578 28.714844 C 12.882338 28.787234 12.849971 28.856044 12.800781 28.910156 L 11.236328 30.636719 C 11.085192 30.803874 10.820262 30.795255 10.679688 30.619141 L 8.5878906 28.007812 L 5 28.007812 L 5 37 C 5 37.553999 5.4460006 38 6 38 L 42 38 C 42.553999 38 43 37.553999 43 37 L 43 29.130859 L 42.222656 29.130859 C 42.201116 29.130821 42.179383 29.126747 42.158203 29.123047 L 39.513672 28.632812 C 39.437412 28.619223 39.368008 28.581356 39.314453 28.525391 L 36.439453 25.5 L 34.878906 26.773438 C 34.663935 26.951253 34.287109 26.556641 34.287109 26.556641 L 32.556641 17.591797 L 31.023438 30.878906 C 31.004098 31.052994 30.864043 31.187174 30.689453 31.201172 L 28.724609 31.369141 L 26.783203 32.886719 C 26.568762 33.05313 26.254463 32.934081 26.201172 32.667969 L 22.722656 23.302734 L 19.003906 23.335938 C 18.836281 23.336498 18.69166 23.223011 18.650391 23.060547 L 17.355469 17.980469 L 14.830078 14.707031 z " />
  <path
     id="path1789"
     style="color:#000000;opacity:1;fill:#0e7fd5;fill-opacity:1;stroke-width:1.05556;stroke-linecap:round;stroke-linejoin:round"
     d="m 14.848416,14.708768 c -0.05128,-0.0019 -0.103339,0.003 -0.154622,0.01649 -0.205387,0.0544 -0.358134,0.226648 -0.387588,0.437066 L 12.37858,29.117513 10.972548,30.66786 8.999566,28.206272 C 8.8993274,28.081086 8.7476113,28.008262 8.5872396,28.008355 H 5 v 1.055556 h 3.3336588 l 1.9338102,2.412109 c 0.337304,0.422575 0.998016,0.442335 1.360678,0.04123 l 1.564779,-1.725583 h -0.0021 c 0.119952,-0.131961 0.199566,-0.296351 0.224718,-0.474176 v -0.0021 l 1.764757,-12.763564 1.688477,2.191515 1.267903,4.97678 c 0.100203,0.394463 0.463012,0.673454 0.870009,0.672092 h 0.0021 l 3.346028,-0.02886 3.350152,9.017578 -0.02267,-0.0804 c 0.125954,0.628977 0.917777,0.923136 1.424587,0.52984 l 1.820422,-1.420465 1.803927,-0.154623 c 0.423438,-0.03395 0.769526,-0.369621 0.816407,-0.791666 l 1.140082,-9.879341 1.082357,5.601455 c 0.01917,0.09917 0.06639,0.190756 0.136068,0.263889 0,0 0.125273,0.138302 0.31543,0.257704 0.09507,0.0597 0.211963,0.123971 0.381401,0.154622 0.168235,0.03043 0.424746,-0.0017 0.610243,-0.152561 l 0.0021,-0.0021 1.179254,-0.960721 2.537868,2.671875 c 0.130944,0.136846 0.302216,0.2286 0.488607,0.261827 L 43,30.024631 V 28.993815 L 39.660157,28.653646 36.823351,25.66428 c -0.190306,-0.200804 -0.503368,-0.220594 -0.717448,-0.04536 l -1.352431,1.102973 -1.68023,-8.702149 c -0.112521,-0.595302 -0.975626,-0.562893 -1.043185,0.03917 l -1.517362,13.155272 -1.83279,0.156685 c -0.101365,0.0089 -0.198018,0.04678 -0.278321,0.109266 l -1.764757,1.37717 -3.420248,-9.209309 c -0.07751,-0.20905 -0.278028,-0.346852 -0.500976,-0.344288 l -3.587239,0.03093 -1.261719,-4.956163 c -0.0182,-0.06971 -0.05047,-0.134963 -0.09483,-0.191732 l -2.525499,-3.273871 c -0.09729,-0.125928 -0.244056,-0.19831 -0.397895,-0.204101 z" />
</svg>
