<?xml version="1.0" encoding="UTF-8" standalone="no"?>
<!-- Created with Inkscape (http://www.inkscape.org/) -->

<svg
   width="48"
   height="48"
   viewBox="0 0 48 48"
   version="1.1"
   id="svg5"
   inkscape:version="1.2.1 (9c6d41e410, 2022-07-14, custom)"
   sodipodi:docname="visual-studio-code.svg"
   xmlns:inkscape="http://www.inkscape.org/namespaces/inkscape"
   xmlns:sodipodi="http://sodipodi.sourceforge.net/DTD/sodipodi-0.dtd"
   xmlns:xlink="http://www.w3.org/1999/xlink"
   xmlns="http://www.w3.org/2000/svg"
   xmlns:svg="http://www.w3.org/2000/svg">
  <sodipodi:namedview
     id="namedview7"
     pagecolor="#ffffff"
     bordercolor="#000000"
     borderopacity="0.25"
     inkscape:showpageshadow="2"
     inkscape:pageopacity="0.0"
     inkscape:pagecheckerboard="0"
     inkscape:deskcolor="#d1d1d1"
     inkscape:document-units="px"
     showgrid="false"
     inkscape:zoom="16.854167"
     inkscape:cx="23.970334"
     inkscape:cy="24"
     inkscape:window-width="1920"
     inkscape:window-height="1012"
     inkscape:window-x="0"
     inkscape:window-y="0"
     inkscape:window-maximized="1"
     inkscape:current-layer="svg5" />
  <defs
     id="defs2">
    <linearGradient
       inkscape:collect="always"
       xlink:href="#linearGradient2463"
       id="linearGradient2465"
       x1="25.999876"
       y1="6.0003786"
       x2="26"
       y2="25.999962"
       gradientUnits="userSpaceOnUse"
       gradientTransform="matrix(2.0999319,0,0,2.1000039,-9.598976,-9.600022)" />
    <linearGradient
       inkscape:collect="always"
       id="linearGradient2463">
      <stop
         style="stop-color:#ffffff;stop-opacity:1;"
         offset="0"
         id="stop2459" />
      <stop
         style="stop-color:#ffffff;stop-opacity:0;"
         offset="1"
         id="stop2461" />
    </linearGradient>
  </defs>
  <path
     d="M 43.513747,7.449495 34.865511,3.2612159 C 33.864562,2.7764214 32.668147,2.9809398 31.882493,3.7711145 L 3.5712013,29.420151 c -0.7615036,0.69839 -0.7606216,1.904257 0.0021,2.601502 l 2.3125669,2.11451 c 0.6233652,0.570118 1.5621932,0.612027 2.2333967,0.09994 L 42.212417,8.5360074 c 1.143746,-0.8727501 2.786596,-0.052166 2.786596,1.3918377 V 9.8268309 c 0,-1.0136397 -0.577328,-1.9376608 -1.485266,-2.3773788 z"
     style="fill:#0072b0;stroke-width:2.09999"
     id="path3815" />
  <path
     d="m 43.513747,40.551402 -8.648236,4.188301 c -1.000949,0.48461 -2.197364,0.280183 -2.983018,-0.509898 L 3.5712013,17.635608 c -0.7615036,-0.698355 -0.7606216,-1.904248 0.0021,-2.601481 l 2.3124829,-2.114593 c 0.6234072,-0.570028 1.5622352,-0.611991 2.2334387,-0.09988 L 42.212459,39.464768 c 1.143746,0.872722 2.7866,0.0522 2.7866,-1.391856 v 0.10113 c 0,1.013557 -0.577332,1.937568 -1.48527,2.377395 z"
     style="fill:#008eda;stroke-width:2.09999"
     id="path3843" />
  <path
     d="m 34.866099,44.739956 c -1.001285,0.48433 -2.197658,0.279731 -2.983354,-0.510571 0.967976,0.973634 2.623285,0.283966 2.623285,-1.09304 V 4.8636454 c 0,-1.3770245 -1.655309,-2.0666514 -2.623285,-1.0929467 0.785654,-0.7902629 1.982069,-0.9950543 2.983354,-0.5106842 l 8.646766,4.1825248 c 0.908626,0.439487 1.48641,1.3638485 1.48641,2.377925 V 38.179721 c 0,1.014057 -0.577803,1.93839 -1.48641,2.377881 z"
     style="fill:#1eacf8;stroke-width:2.09999"
     id="path3871" />
  <path
     d="m 33.688243,3.001281 c -0.265436,0.00462 -0.527138,0.0512 -0.779268,0.1353705 -0.252,0.084127 -0.49392,0.2044623 -0.713621,0.3650359 -0.04326,0.031502 -0.08148,0.072074 -0.12306,0.1066425 -0.06384,0.053047 -0.12936,0.1042485 -0.18858,0.1640583 L 15.514893,18.599561 8.1200209,12.820449 C 7.4488594,12.308315 6.5081414,12.348864 5.8847762,12.918858 l -2.3132389,2.116407 c -0.7625956,0.697233 -0.7615036,1.902044 0,2.600394 l 6.3859456,6.0006 -6.3859456,5.78321 c -0.7615036,0.69839 -0.7625956,1.907252 0,2.604498 l 2.3132389,2.11231 c 0.6233652,0.570114 1.5640832,0.614622 2.2352447,0.102495 L 15.40418,28.74677 31.883711,44.230196 c 0.19656,0.197526 0.417902,0.35718 0.65621,0.479882 0.714886,0.368271 1.574585,0.391959 2.325548,0.02868 l 8.6458,-4.179502 c 0.22974,-0.11118 0.435795,-0.255603 0.619332,-0.422458 0.0903,-0.08148 0.172536,-0.165816 0.250135,-0.258387 v -0.0042 c 0.07748,-0.0926 0.153384,-0.189021 0.217377,-0.29121 v -0.0042 c 0.12948,-0.207774 0.22722,-0.430782 0.295295,-0.668553 0.0336,-0.115485 0.06039,-0.232398 0.07791,-0.35273 2.62e-4,-0.0025 -2.63e-4,-0.0054 0,-0.0083 0.01701,-0.121785 0.02868,-0.243844 0.02868,-0.369151 V 38.175917 38.073422 9.9284469 9.8259204 c 0,-0.00137 5e-6,-0.00273 0,-0.00409 0,-0.1240305 -0.0117,-0.2485229 -0.02868,-0.3691511 -2.63e-4,-0.00263 2.62e-4,-0.00546 0,-0.00798 -0.01701,-0.1202055 -0.04482,-0.236802 -0.07791,-0.3524327 C 44.758189,8.6199163 44.49308,8.1956375 44.130578,7.8660557 43.947038,7.6991837 43.741235,7.5547837 43.511242,7.443592 L 34.865469,3.2599683 C 34.740309,3.1994448 34.614307,3.1515198 34.484106,3.1122918 34.224126,3.0338763 33.954024,2.9970813 33.688411,3.0015753 Z m 0.816191,11.344941 V 33.443131 L 22.06892,23.722407 Z"
     style="opacity:0.25;fill:url(#linearGradient2465);fill-opacity:1;stroke-width:2.09999"
     id="path1332" />
</svg>
