<?xml version="1.0" encoding="UTF-8" standalone="no"?>
<!-- Created with Inkscape (http://www.inkscape.org/) -->

<svg
   width="48"
   height="48"
   viewBox="0 0 48 48"
   version="1.1"
   id="svg931"
   inkscape:version="1.2.2 (1:1.2.2+202305151914+b0a8486541)"
   sodipodi:docname="waydroid.svg"
   xmlns:inkscape="http://www.inkscape.org/namespaces/inkscape"
   xmlns:sodipodi="http://sodipodi.sourceforge.net/DTD/sodipodi-0.dtd"
   xmlns:xlink="http://www.w3.org/1999/xlink"
   xmlns="http://www.w3.org/2000/svg"
   xmlns:svg="http://www.w3.org/2000/svg">
  <sodipodi:namedview
     id="namedview933"
     pagecolor="#ffffff"
     bordercolor="#666666"
     borderopacity="1.0"
     inkscape:pageshadow="2"
     inkscape:pageopacity="0.0"
     inkscape:pagecheckerboard="0"
     inkscape:document-units="px"
     showgrid="false"
     units="px"
     inkscape:zoom="16.791667"
     inkscape:cx="23.970223"
     inkscape:cy="24"
     inkscape:window-width="1920"
     inkscape:window-height="1008"
     inkscape:window-x="0"
     inkscape:window-y="0"
     inkscape:window-maximized="1"
     inkscape:current-layer="svg931"
     inkscape:showpageshadow="2"
     inkscape:deskcolor="#d1d1d1" />
  <defs
     id="defs928">
    <linearGradient
       inkscape:collect="always"
       id="linearGradient1729">
      <stop
         style="stop-color:#84cd5a;stop-opacity:1;"
         offset="0"
         id="stop1725" />
      <stop
         style="stop-color:#56b512;stop-opacity:1;"
         offset="1"
         id="stop1727" />
    </linearGradient>
    <linearGradient
       inkscape:collect="always"
       xlink:href="#linearGradient1729"
       id="linearGradient4727"
       x1="72.154198"
       y1="110.2231"
       x2="96.828377"
       y2="134.37447"
       gradientUnits="userSpaceOnUse"
       gradientTransform="matrix(1.2036259,0,0,1.229681,-77.695905,-125.38848)" />
    <linearGradient
       inkscape:collect="always"
       id="linearGradient1498">
      <stop
         style="stop-color:#f09300;stop-opacity:1;"
         offset="0"
         id="stop1494" />
      <stop
         style="stop-color:#ffc420;stop-opacity:1;"
         offset="1"
         id="stop1496" />
    </linearGradient>
    <linearGradient
       inkscape:collect="always"
       xlink:href="#linearGradient1498"
       id="linearGradient2065"
       x1="12.937499"
       y1="13.937499"
       x2="3.0624998"
       y2="4.0624995"
       gradientUnits="userSpaceOnUse"
       gradientTransform="matrix(3.0000002,0,0,3.0000002,-3e-8,-1.9999996)" />
    <linearGradient
       inkscape:collect="always"
       xlink:href="#linearGradient1729"
       id="linearGradient1266"
       x1="6.125"
       y1="7.125"
       x2="26.02194"
       y2="27.10886"
       gradientUnits="userSpaceOnUse"
       gradientTransform="matrix(1.5,0,0,1.5,0,-1.0000001)" />
  </defs>
  <path
     d="M 41.089365,2.4341943 C 40.086897,1.700844 38.679808,1.9185295 37.94581,2.9205223 l -6.158203,8.4082037 c -0.73335,1.002467 -0.515664,2.409556 0.486328,3.143554 1.001703,0.733977 2.408649,0.517624 3.143555,-0.483398 l 6.158203,-8.4082033 c 0.73535,-1.0029862 0.51752,-2.4123129 -0.486328,-3.1464844 z M 8.5932712,2.0269677 C 8.003718,1.9355592 7.4019955,2.0820387 6.9204198,2.4341943 5.9165715,3.168366 5.6987427,4.5776926 6.4340918,5.5806787 l 6.1582032,8.4082033 c 0.735079,1.002878 2.144263,1.219373 3.146485,0.483398 1.001022,-0.734904 1.217374,-2.141851 0.483397,-3.143554 L 10.066904,2.9205223 C 9.71375,2.438899 9.183605,2.1174391 8.5932712,2.0269677 Z"
     style="color:#000000;fill:url(#linearGradient1266);fill-opacity:1;stroke-width:1.5;stroke-linecap:round;stroke-linejoin:round;-inkscape-stroke:none"
     id="path576"
     sodipodi:nodetypes="ccccccccccccccc" />
  <path
     id="path858"
     style="fill:url(#linearGradient4727);fill-opacity:1;stroke-width:1.28755;stroke-linecap:round;stroke-linejoin:round"
     d="M 24,3.9999999 A 21,21 0 0 0 3,25 H 45 A 21,21 0 0 0 24,3.9999999 Z" />
  <path
     d="M 44.656764,21.245992 C 36.879522,22.929277 28.354065,23.894736 24,23.894736 c -4.543518,0 -13.14121,-0.864879 -20.6524464,-2.495477 C 3.1283481,22.587274 3.0120657,23.791992 3.0000003,25 3.0000006,36.597979 12.40202,46 24,46 35.597979,46 45,36.597979 45,25 44.9984,23.740905 44.88348,22.484508 44.656764,21.245992 Z"
     style="fill:url(#linearGradient2065);fill-opacity:1;stroke-width:3"
     id="path1330" />
  <path
     d="m 41.802939,21.826684 c -2.359062,0.450368 -4.715961,0.823422 -6.970497,1.133328 l -2.046462,7.855569 -5.860919,-7.033098 c -1.089916,0.06752 -2.100771,0.11226 -2.925061,0.11226 -0.832434,0 -1.836959,-0.03969 -2.909951,-0.09715 l -5.873869,6.886313 -1.966591,-7.61811 C 10.891526,22.766331 8.4376695,22.393341 6.0157278,21.93678 l 5.7983142,17.042838 c 0.822206,1.673655 1.882779,1.364733 3.017886,0.427425 l 9.258736,-9.567201 8.952203,9.284409 c 1.077789,1.461012 2.577306,1.572747 3.32874,-1.051296 z"
     style="fill:#f2f2f2;stroke-width:3"
     id="path1358" />
  <path
     id="path2216"
     style="fill:#f9f9f9;stroke-width:3;stroke-linecap:round;stroke-linejoin:round"
     d="m 15,13 a 3.0000002,3.0000002 0 0 0 -3,3 3.0000002,3.0000002 0 0 0 3,3 3.0000002,3.0000002 0 0 0 3,-3 3.0000002,3.0000002 0 0 0 -3,-3 z m 18.000001,0 A 3.0000002,3.0000002 0 0 0 30,16 3.0000002,3.0000002 0 0 0 33.000002,19 3.0000002,3.0000002 0 0 0 36,16 3.0000002,3.0000002 0 0 0 33.000001,13 Z" />
</svg>
