<?xml version="1.0" encoding="UTF-8" standalone="no"?>
<!-- Created with Inkscape (http://www.inkscape.org/) -->

<svg
   width="48"
   height="48"
   viewBox="0 0 48 48"
   version="1.1"
   id="svg5"
   inkscape:version="1.3.2 (091e20ef0f, 2023-11-25, custom)"
   sodipodi:docname="wayland.svg"
   xmlns:inkscape="http://www.inkscape.org/namespaces/inkscape"
   xmlns:sodipodi="http://sodipodi.sourceforge.net/DTD/sodipodi-0.dtd"
   xmlns:xlink="http://www.w3.org/1999/xlink"
   xmlns="http://www.w3.org/2000/svg"
   xmlns:svg="http://www.w3.org/2000/svg">
  <sodipodi:namedview
     id="namedview7"
     pagecolor="#ffffff"
     bordercolor="#666666"
     borderopacity="1.0"
     inkscape:pageshadow="2"
     inkscape:pageopacity="0.0"
     inkscape:pagecheckerboard="0"
     inkscape:document-units="px"
     showgrid="false"
     units="px"
     inkscape:zoom="16.833333"
     inkscape:cx="24"
     inkscape:cy="24"
     inkscape:window-width="1920"
     inkscape:window-height="1012"
     inkscape:window-x="0"
     inkscape:window-y="0"
     inkscape:window-maximized="1"
     inkscape:current-layer="svg5"
     inkscape:showpageshadow="2"
     inkscape:deskcolor="#d1d1d1" />
  <defs
     id="defs2">
    <linearGradient
       inkscape:collect="always"
       xlink:href="#linearGradient1777"
       id="linearGradient2"
       x1="2.2857144"
       y1="2.3680553"
       x2="14.564292"
       y2="12.572753"
       gradientUnits="userSpaceOnUse"
       gradientTransform="matrix(2.625,0,0,2.625,3,3)" />
    <linearGradient
       inkscape:collect="always"
       id="linearGradient1777">
      <stop
         style="stop-color:#fedd00;stop-opacity:1;"
         offset="0"
         id="stop1773" />
      <stop
         style="stop-color:#fdcb00;stop-opacity:1"
         offset="0.63547182"
         id="stop1818" />
      <stop
         style="stop-color:#fab500;stop-opacity:1"
         offset="1"
         id="stop1775" />
    </linearGradient>
    <linearGradient
       inkscape:collect="always"
       id="linearGradient3161">
      <stop
         style="stop-color:#e6eaec;stop-opacity:1;"
         offset="0"
         id="stop3157" />
      <stop
         style="stop-color:#f6f6f6;stop-opacity:1;"
         offset="1"
         id="stop3159" />
    </linearGradient>
    <linearGradient
       inkscape:collect="always"
       xlink:href="#linearGradient3161"
       id="linearGradient3"
       x1="27"
       y1="27"
       x2="16"
       y2="2"
       gradientUnits="userSpaceOnUse"
       gradientTransform="scale(1.5)" />
  </defs>
  <circle
     style="fill:url(#linearGradient2);stroke-width:2.625"
     id="path1"
     cx="24"
     cy="24"
     r="21" />
  <path
     style="fill:url(#linearGradient3);stroke-width:1.5"
     d="m 39.260397,3 c 0.73938,4.29e-5 1.152585,0.5823776 1.239603,1.747026 l -0.93391,5.484828 h 0.228349 l 0.489312,-0.406287 h 0.130485 v 0.12189 c -0.674206,0.514663 -1.326631,1.923105 -1.957273,4.225347 -0.239251,1.977276 -0.641583,3.80555 -1.20699,5.484839 -0.500215,1.733494 -0.750315,3.331537 -0.750284,4.794149 l -0.946018,2.884611 c -2.1e-5,0.243783 0.358809,0.487557 1.076499,0.731307 -0.1305,0.568814 -0.326237,0.853214 -0.587178,0.853204 v 0.162514 h 0.228349 v 0.121875 c -3.2e-5,0.297957 -0.369732,0.44693 -1.109122,0.446918 l 0.130485,0.162514 v 0.568793 h -0.228349 c 0.152211,0.568813 0.478418,0.853204 0.978641,0.853204 v 0.284389 h -0.978641 v 0.162516 c 0.326186,1.1e-5 0.489299,0.243783 0.48932,0.731318 l -1.370084,0.568792 0.13047,0.162515 v 0.12189 c -1.9e-5,0.189602 -0.163133,0.2844 -0.489319,0.2844 v 0.162504 c 0.413173,1.1e-5 0.619781,0.09479 0.619802,0.284403 C 33.857345,34.24323 33.08531,35.44854 32.128442,37.615386 31.149788,39.538463 30.301636,40.5 29.583997,40.5 H 29.323026 C 28.779319,40.066626 28.333492,38.631089 27.985554,36.193384 26.593696,32.482666 25.89778,30.302278 25.8978,29.652219 c -2e-5,-1.67929 -0.445848,-3.16725 -1.337472,-5.063248 -0.239241,-0.839639 -0.402344,-2.307898 -0.489321,-3.580942 h -0.587178 c -1.478846,2.789829 -2.250879,4.919939 -2.316114,6.490886 -0.413205,0.92092 -0.739422,2.031427 -0.978632,3.331527 0.891633,0.297956 1.337462,0.582345 1.337472,0.853193 v 0.162515 c -0.695938,-0.10833 -1.185249,-0.311478 -1.467961,-0.609421 -0.304467,0.731317 -0.7068,2.312751 -1.206983,5.644265 C 18.460149,38.424875 17.970828,39 17.383659,39 c -1.652817,-0.677136 -3.033783,-1.590831 -4.142895,-3.134713 -0.173985,1.1e-5 -0.456708,-0.771935 -0.848151,-2.315818 -0.239229,1.1e-5 -0.402333,-0.771935 -0.489321,-2.315818 -0.826408,-2.193921 -1.391835,-4.249355 -1.696302,-7.066262 v -4.225358 h -0.130485 l -0.587178,0.162516 v -0.162516 c 0,-0.189568 0.195726,-0.284371 0.587178,-0.284391 L 9.94602,17.219936 V 15.310397 L 9,9.2161455 V 6.915852 C 9.413205,5.290755 10.130874,4.4781909 11.153,4.478148 l 0.391473,0.4062885 -0.391452,-0.12189 c 1.587562,2.1668775 2.522708,3.6952245 2.805423,5.184903 h 1.109122 v 0.2844015 h -0.848149 v 0.325031 c 0.326206,1.245958 0.565426,1.868934 0.71767,1.868902 h 0.260971 l 0.587178,-0.162516 0.130485,0.162516 0.130485,-0.162516 0.130485,0.162516 v 0.12189 c -0.434959,0.325052 -0.728542,0.771967 -0.880776,1.340738 h -0.09785 v 0.284391 h 0.22835 c 0.304455,4.523323 0.869892,8.550211 1.696302,10.879559 L 17.612041,25.5 h 0.260961 c 0.32621,2.2e-5 1.011257,-1.776215 2.055143,-4.945245 0.674166,-1.435506 1.163478,-2.486639 1.467952,-3.570084 L 21.265612,16.537755 C 21.939768,15.481438 22.635685,15.000033 23.353365,15 h 0.228351 c 0.456688,3.3e-5 0.782895,0.251211 0.978642,0.847077 0.608908,0.893844 1.098231,2.026234 1.467951,3.813855 l 1.826793,3.77514 c 0.2392,0.297964 0.358809,0.636528 0.35883,1.015717 0.674155,1.598055 1.283076,3.533589 1.826793,4.048211 h 0.391452 c 0.456678,10e-6 1.065598,-2.856434 1.826782,-6.810944 0.13047,2.1e-5 0.4893,-1.056315 1.0765,-3.169011 v -0.162514 l -0.620621,-0.284402 -0.489321,0.162515 h -0.619801 v -0.325029 l 1.239603,-0.12189 h 0.979461 c 0.935122,-3.494005 1.794143,-6.202568 2.577079,-8.1256725 0.260943,-3.9544575 0.619782,-5.9317028 1.0765,-5.931735 L 39.260432,3"
     id="path4" />
</svg>
