<?xml version="1.0" encoding="UTF-8" standalone="no"?>
<!-- Created with Inkscape (http://www.inkscape.org/) -->

<svg
   width="48"
   height="48"
   viewBox="0 0 48 48"
   version="1.1"
   id="svg364"
   inkscape:version="1.2.2 (1:1.2.2+202305151914+b0a8486541)"
   sodipodi:docname="youtube.svg"
   xmlns:inkscape="http://www.inkscape.org/namespaces/inkscape"
   xmlns:sodipodi="http://sodipodi.sourceforge.net/DTD/sodipodi-0.dtd"
   xmlns:xlink="http://www.w3.org/1999/xlink"
   xmlns="http://www.w3.org/2000/svg"
   xmlns:svg="http://www.w3.org/2000/svg">
  <sodipodi:namedview
     id="namedview366"
     pagecolor="#ffffff"
     bordercolor="#000000"
     borderopacity="0.25"
     inkscape:showpageshadow="2"
     inkscape:pageopacity="0.0"
     inkscape:pagecheckerboard="0"
     inkscape:deskcolor="#d1d1d1"
     inkscape:document-units="px"
     showgrid="false"
     inkscape:zoom="16.791667"
     inkscape:cx="23.970223"
     inkscape:cy="24"
     inkscape:window-width="1920"
     inkscape:window-height="1008"
     inkscape:window-x="0"
     inkscape:window-y="0"
     inkscape:window-maximized="1"
     inkscape:current-layer="svg364" />
  <defs
     id="defs361">
    <linearGradient
       inkscape:collect="always"
       id="linearGradient1284">
      <stop
         style="stop-color:#e94f11;stop-opacity:1;"
         offset="0"
         id="stop1280" />
      <stop
         style="stop-color:#c62300;stop-opacity:1;"
         offset="1"
         id="stop1282" />
    </linearGradient>
    <linearGradient
       inkscape:collect="always"
       xlink:href="#linearGradient1284"
       id="linearGradient1297"
       x1="4"
       y1="12.000001"
       x2="60"
       y2="52"
       gradientUnits="userSpaceOnUse"
       gradientTransform="scale(0.75000003)" />
    <linearGradient
       inkscape:collect="always"
       xlink:href="#linearGradient3143"
       id="linearGradient1070"
       x1="5.8539066"
       y1="6.3996096"
       x2="4.7955728"
       y2="4.8121095"
       gradientUnits="userSpaceOnUse"
       gradientTransform="matrix(8.8188963,0,0,8.8108227,-24.291663,-23.061039)" />
    <linearGradient
       inkscape:collect="always"
       id="linearGradient3143">
      <stop
         style="stop-color:#d2d2d2;stop-opacity:1;"
         offset="0"
         id="stop3139" />
      <stop
         style="stop-color:#ffffff;stop-opacity:1"
         offset="1"
         id="stop3141" />
    </linearGradient>
  </defs>
  <path
     d="M 20.546506,38.973037 C 13.604568,38.838402 10.786935,38.719524 9.063969,38.488579 7.8004516,38.319211 7.1799437,38.154097 6.4801082,37.801023 5.3242474,37.217887 4.6053964,36.404736 4.0866232,35.093556 3.6123172,33.894802 3.4191907,32.942688 3.2419507,30.92925 3.0419361,28.657072 3.0263017,28.245727 3.0055327,24.705502 2.9810677,20.542188 3.0303127,19.177906 3.3043102,16.414524 3.4479922,14.965818 3.6574042,14.003032 4.0508917,12.982059 4.409246,12.052279 4.7364154,11.539144 5.3314189,10.973674 6.0792289,10.262983 6.9005072,9.830955 7.9372981,9.6028875 9.48483,9.2624685 16.479436,9 24.00361,9 c 7.524174,0 14.518781,0.2624685 16.066311,0.6028875 1.119164,0.2461905 1.940558,0.7009275 2.741979,1.5180015 0.627249,0.639498 0.950313,1.220586 1.334771,2.400894 0.396144,1.216171 0.548068,2.292474 0.773167,5.477491 0.10689,1.512519 0.106875,8.475144 0,9.986919 -0.12507,1.768539 -0.278544,3.343467 -0.38074,3.907007 -0.262731,1.448835 -0.778743,2.805345 -1.360517,3.57661 -0.399145,0.529148 -1.187086,1.159637 -1.845972,1.477094 -0.66718,0.321456 -1.30284,0.480823 -2.327586,0.583582 -3.17542,0.318417 -12.87213,0.550908 -18.458475,0.442551 z"
     style="fill:url(#linearGradient1297);fill-opacity:1;stroke-width:0.75"
     id="path304" />
  <path
     style="color:#000000;fill:url(#linearGradient1070);fill-opacity:1;stroke:none;stroke-width:12.5505;stroke-linecap:round;stroke-linejoin:round"
     d="m 19.030044,15.132652 c -0.617731,0.253485 -1.023492,0.851902 -1.030001,1.519076 v 14.673734 c -0.0102,1.49021 1.798054,2.237785 2.844751,1.17606 l 10.666167,-7.337986 c 0.652052,-0.64871 0.652052,-1.703398 0,-2.352116 L 20.844799,15.475668 c -0.479698,-0.470722 -1.196101,-0.606126 -1.814755,-0.343016 z"
     id="path2850"
     sodipodi:nodetypes="cccccccc" />
</svg>
