<?xml version="1.0" encoding="UTF-8" standalone="no"?>
<!-- Created with Inkscape (http://www.inkscape.org/) -->

<svg
   width="16"
   height="16"
   viewBox="0 0 16 16.000001"
   version="1.1"
   id="svg5"
   inkscape:version="1.2.1 (9c6d41e410, 2022-07-14, custom)"
   sodipodi:docname="folder-open-symbolic.svg"
   xmlns:inkscape="http://www.inkscape.org/namespaces/inkscape"
   xmlns:sodipodi="http://sodipodi.sourceforge.net/DTD/sodipodi-0.dtd"
   xmlns="http://www.w3.org/2000/svg"
   xmlns:svg="http://www.w3.org/2000/svg">
  <sodipodi:namedview
     id="namedview7"
     pagecolor="#ffffff"
     bordercolor="#000000"
     borderopacity="0.25"
     inkscape:showpageshadow="2"
     inkscape:pageopacity="0.0"
     inkscape:pagecheckerboard="0"
     inkscape:deskcolor="#d1d1d1"
     inkscape:document-units="px"
     showgrid="false"
     inkscape:zoom="50.625"
     inkscape:cx="8"
     inkscape:cy="8"
     inkscape:window-width="1920"
     inkscape:window-height="1012"
     inkscape:window-x="0"
     inkscape:window-y="0"
     inkscape:window-maximized="1"
     inkscape:current-layer="svg5" />
  <defs
     id="defs2" />
  <path
     d="M 1.9999998,1 C 0.89199985,1 -1.6e-7,1.892 -1.6e-7,3 v 10 c 0,1.108 0.89200001,1.999999 1.99999996,1.999999 H 14 c 1.108,0 2,-0.891999 2,-1.999999 V 5 C 16,3.892 15.108,3 14,3 H 7.9999998 l -2,-2 z m 0,1 h 3.5859 l 2,2 H 14 c 0.554,0 1,0.446 1,1 V 6.2754 C 14.705,6.1043 14.36693,6.00001 14,6.00001 H 7.5858998 l -2,2 h -3.5859 c -0.36693,0 -0.705,0.10429 -0.99999995,0.27539 V 3 c 0,-0.554 0.44599995,-1 0.99999995,-1 z m 6,5 H 14 c 0.554,0 1,0.446 1,1 v 5 c 0,0.554 -0.446,1 -1,1 H 1.9999998 c -0.554,0 -0.99999995,-0.446 -0.99999995,-1 v -3 c 0,-0.5540005 0.44599995,-0.9999995 0.99999995,-0.9999995 h 4 z"
     style="fill:#363636;paint-order:stroke fill markers"
     id="path396" />
</svg>
