<?xml version="1.0" encoding="UTF-8" standalone="no"?>
<!-- Created with Inkscape (http://www.inkscape.org/) -->

<svg
   width="16"
   height="16"
   viewBox="0 0 16 16.000001"
   version="1.1"
   id="svg5"
   inkscape:version="1.3.2 (091e20ef0f, 2023-11-25, custom)"
   sodipodi:docname="folder-publicshare-symbolic.svg"
   xmlns:inkscape="http://www.inkscape.org/namespaces/inkscape"
   xmlns:sodipodi="http://sodipodi.sourceforge.net/DTD/sodipodi-0.dtd"
   xmlns="http://www.w3.org/2000/svg"
   xmlns:svg="http://www.w3.org/2000/svg">
  <sodipodi:namedview
     id="namedview7"
     pagecolor="#ffffff"
     bordercolor="#000000"
     borderopacity="0.25"
     inkscape:showpageshadow="2"
     inkscape:pageopacity="0.0"
     inkscape:pagecheckerboard="0"
     inkscape:deskcolor="#d1d1d1"
     inkscape:document-units="px"
     showgrid="false"
     inkscape:zoom="50.625"
     inkscape:cx="8.0098765"
     inkscape:cy="8"
     inkscape:window-width="1920"
     inkscape:window-height="1014"
     inkscape:window-x="0"
     inkscape:window-y="0"
     inkscape:window-maximized="1"
     inkscape:current-layer="svg5" />
  <defs
     id="defs2" />
  <path
     d="m 9,8 c 1.1046,0 2,0.8954 2,2 v 1.5 C 11,13.5544 8.912,15 5.5,15 2.088,15 0,13.5544 0,11.5 V 10 C 0,8.8954 0.89543,8 2,8 Z M 9,9 H 2 C 1.44772,9 1,9.4477 1,10 v 1.5 C 1,12.9071 2.5786,14 5.5,14 8.4214,14 10,12.9071 10,11.5 V 10 C 10,9.4477 9.5523,9 9,9 Z m 5,-1 c 1.1046,0 2,0.8954 2,2 v 0.5 c 0,2.0886 -1.5683,3.5 -4.5,3.5 -0.1413,0 -0.2794,-0.0033 -0.4144,-0.0098 0.2082,-0.242 0.3828,-0.5027 0.522,-0.7812 l 0.0974,-0.213 0.0388,5e-4 C 13.976,12.9312 15,11.9593 15,10.5 V 10 C 15,9.4477 14.5523,9 14,9 l -2.171,-9e-4 C 11.6971,8.6265 11.4937,8.2876 11.2353,7.99912 Z M 5.5,0 C 7.433,0 9,1.567 9,3.5 9,5.433 7.433,7 5.5,7 3.567,7 2,5.433 2,3.5 2,1.567 3.567,0 5.5,0 Z m 7,2 C 13.8807,2 15,3.1193 15,4.5 15,5.8807 13.8807,7 12.5,7 11.1193,7 10,5.8807 10,4.5 10,3.1193 11.1193,2 12.5,2 Z M 5.5,1 C 4.1193,1 3,2.1193 3,3.5 3,4.8807 4.1193,6 5.5,6 6.8807,6 8,4.8807 8,3.5 8,2.1193 6.8807,1 5.5,1 Z m 7,2 C 11.6716,3 11,3.67157 11,4.5 11,5.32843 11.6716,6 12.5,6 13.3284,6 14,5.32843 14,4.5 14,3.67157 13.3284,3 12.5,3 Z"
     style="fill:#363636"
     id="path1" />
</svg>
