<?xml version="1.0" encoding="UTF-8" standalone="no"?>
<!-- Created with Inkscape (http://www.inkscape.org/) -->

<svg
   width="64"
   height="64"
   viewBox="0 0 64 64"
   version="1.1"
   id="svg2112"
   inkscape:version="1.2.1 (9c6d41e410, 2022-07-14, custom)"
   sodipodi:docname="camera-photo.svg"
   xmlns:inkscape="http://www.inkscape.org/namespaces/inkscape"
   xmlns:sodipodi="http://sodipodi.sourceforge.net/DTD/sodipodi-0.dtd"
   xmlns:xlink="http://www.w3.org/1999/xlink"
   xmlns="http://www.w3.org/2000/svg"
   xmlns:svg="http://www.w3.org/2000/svg">
  <sodipodi:namedview
     id="namedview2114"
     pagecolor="#ffffff"
     bordercolor="#000000"
     borderopacity="0.25"
     inkscape:showpageshadow="2"
     inkscape:pageopacity="0.0"
     inkscape:pagecheckerboard="0"
     inkscape:deskcolor="#d1d1d1"
     inkscape:document-units="px"
     showgrid="false"
     inkscape:zoom="12.65625"
     inkscape:cx="28.997531"
     inkscape:cy="32"
     inkscape:window-width="1920"
     inkscape:window-height="1010"
     inkscape:window-x="0"
     inkscape:window-y="0"
     inkscape:window-maximized="1"
     inkscape:current-layer="svg2112" />
  <defs
     id="defs2109">
    <linearGradient
       inkscape:collect="always"
       xlink:href="#linearGradient42014"
       id="linearGradient121965"
       x1="3.96875"
       y1="4.7624998"
       x2="3.9743121"
       y2="5.0254574"
       gradientUnits="userSpaceOnUse"
       gradientTransform="scale(3.7795275)" />
    <linearGradient
       inkscape:collect="always"
       id="linearGradient42014">
      <stop
         style="stop-color:#5b6065;stop-opacity:1;"
         offset="0"
         id="stop42010" />
      <stop
         style="stop-color:#45494e;stop-opacity:1"
         offset="1"
         id="stop42012" />
    </linearGradient>
    <linearGradient
       inkscape:collect="always"
       xlink:href="#linearGradient42014"
       id="linearGradient121634"
       x1="4.2333331"
       y1="5.0270834"
       x2="4.2296109"
       y2="5.3694072"
       gradientUnits="userSpaceOnUse"
       gradientTransform="scale(3.7795275)" />
    <linearGradient
       inkscape:collect="always"
       xlink:href="#linearGradient42014"
       id="linearGradient50588"
       x1="14.556105"
       y1="0.82862628"
       x2="14.552084"
       y2="3.1749637"
       gradientUnits="userSpaceOnUse"
       gradientTransform="matrix(3.7795275,0,0,3.7795275,-22.999998,8.0003008)" />
    <linearGradient
       inkscape:collect="always"
       xlink:href="#linearGradient22512"
       id="linearGradient96304"
       x1="1.0583334"
       y1="6.6145835"
       x2="15.875"
       y2="12.700001"
       gradientUnits="userSpaceOnUse"
       gradientTransform="scale(3.7795275)" />
    <linearGradient
       inkscape:collect="always"
       id="linearGradient22512">
      <stop
         style="stop-color:#565b60;stop-opacity:1;"
         offset="0"
         id="stop22508" />
      <stop
         style="stop-color:#4a4e52;stop-opacity:1"
         offset="1"
         id="stop22510" />
    </linearGradient>
    <radialGradient
       inkscape:collect="always"
       xlink:href="#linearGradient143855"
       id="radialGradient143857"
       cx="8.4666672"
       cy="9.7895832"
       fx="8.4666672"
       fy="9.7895832"
       r="4.2333336"
       gradientUnits="userSpaceOnUse"
       gradientTransform="matrix(3.3070866,0,0,3.3070866,3.9999997,4.624999)" />
    <linearGradient
       inkscape:collect="always"
       id="linearGradient143855">
      <stop
         style="stop-color:#000000;stop-opacity:1;"
         offset="0"
         id="stop143851" />
      <stop
         style="stop-color:#000000;stop-opacity:0;"
         offset="1"
         id="stop143853" />
    </linearGradient>
    <linearGradient
       inkscape:collect="always"
       xlink:href="#linearGradient34832"
       id="linearGradient34834"
       x1="10.583334"
       y1="3.1750002"
       x2="12.700001"
       y2="4.7625003"
       gradientUnits="userSpaceOnUse"
       gradientTransform="matrix(4.2519684,0,0,4.2519684,-22.000017,14.5)" />
    <linearGradient
       inkscape:collect="always"
       id="linearGradient34832">
      <stop
         style="stop-color:#ffffff;stop-opacity:1;"
         offset="0"
         id="stop34828" />
      <stop
         style="stop-color:#ffffff;stop-opacity:0;"
         offset="1"
         id="stop34830" />
    </linearGradient>
    <linearGradient
       inkscape:collect="always"
       xlink:href="#linearGradient34832"
       id="linearGradient131131"
       x1="6.7086253"
       y1="3.1245563"
       x2="8.902647"
       y2="4.3887286"
       gradientUnits="userSpaceOnUse"
       gradientTransform="scale(3.7795275)" />
  </defs>
  <rect
     style="fill:url(#linearGradient121965);fill-opacity:1;stroke-width:2;stroke-linecap:round;stroke-linejoin:round"
     id="rect121877"
     width="4"
     height="4"
     x="11"
     y="17.999998"
     ry="0.5" />
  <path
     id="rect121546"
     style="fill:url(#linearGradient121634);stroke-width:2;stroke-linecap:round;stroke-linejoin:round"
     d="m 10.499999,19 h 5 c 0.276998,0 0.5,0.223 0.5,0.5 v 3.999999 c 0,0.277002 -0.223,0.500001 -0.5,0.500001 h -5 C 10.222998,24 9.9999996,23.777 9.9999996,23.499999 V 19.5 c 0,-0.277002 0.2229994,-0.5 0.4999994,-0.5 z" />
  <path
     style="color:#000000;fill:url(#linearGradient50588);fill-opacity:1;stroke:none;stroke-width:3.77849;stroke-linecap:round;stroke-linejoin:round;-inkscape-stroke:none"
     d="m 25.999999,11.000307 c -1.20434,-0.01247 -1.678374,0.356383 -1.970337,0.760126 l -7.999939,9.999769 c -0.156245,0.631831 0.323301,1.242125 0.974138,1.239817 H 46.99613 c 0.650853,0.0023 1.130377,-0.607985 0.974143,-1.239817 L 39.970328,11.760433 C 39.651487,11.32896 39.364425,10.991045 38,11.000307 Z"
     id="path50303"
     sodipodi:nodetypes="ccccccccc" />
  <path
     id="rect97380"
     style="fill:#c8d0d8;fill-opacity:1;stroke-width:2;stroke-linecap:round;stroke-linejoin:round"
     d="M 7.0000012,19.999999 H 56.999999 c 1.661998,0 3,1.338 3,3.000001 v 26.999997 c 0,1.662001 -1.338002,3 -3,3 H 7.0000012 c -1.6620008,0 -3.0000011,-1.337999 -3.0000011,-3 V 23 c 0,-1.662001 1.3380003,-3.000001 3.0000011,-3.000001 z" />
  <rect
     style="fill:url(#linearGradient96304);fill-opacity:1;stroke-width:2;stroke-linecap:round;stroke-linejoin:round"
     id="rect96214"
     width="56"
     height="23"
     x="4"
     y="25"
     ry="0" />
  <circle
     style="fill:url(#radialGradient143857);fill-opacity:1;stroke-width:2;stroke-linecap:round;stroke-linejoin:round"
     id="path143751"
     cx="32"
     cy="37"
     r="16" />
  <circle
     style="fill:#bec6ce;fill-opacity:1;stroke-width:2.78571;stroke-linecap:round;stroke-linejoin:round"
     id="path1144"
     cx="32"
     cy="37.000004"
     r="13" />
  <ellipse
     style="fill:#2e3133;fill-opacity:1;stroke-width:3.30171;stroke-linecap:round;stroke-linejoin:round"
     id="path31071"
     cx="31.999998"
     cy="37.000004"
     rx="10.998425"
     ry="11" />
  <circle
     style="fill:#b5b7b9;fill-opacity:1;stroke-width:0.681815;stroke-linecap:round;stroke-linejoin:round"
     id="path18175"
     cx="50.499996"
     cy="30.5"
     r="2.5" />
  <circle
     style="fill:#f4f4f4;fill-opacity:1;stroke-width:0.409088;stroke-linecap:round;stroke-linejoin:round"
     id="path18175-5"
     cx="50.499996"
     cy="30.5"
     r="1.5" />
  <circle
     style="opacity:0.4;fill:url(#linearGradient34834);fill-opacity:1;stroke-width:3.85716;stroke-linecap:round;stroke-linejoin:round"
     id="path34724"
     cx="31.999998"
     cy="37"
     r="8.999999" />
  <rect
     style="fill:#5c6166;fill-opacity:1;stroke-width:2;stroke-linecap:round;stroke-linejoin:round"
     id="rect122547"
     width="10"
     height="5"
     x="27.000002"
     y="13"
     ry="1.5" />
  <path
     id="rect131101"
     style="opacity:0.3;fill:url(#linearGradient131131);fill-opacity:1;stroke-width:2;stroke-linecap:round;stroke-linejoin:round"
     d="M 28.499998,13 C 27.669001,13 27,13.669 27,14.5 v 2 c 0,0.831 0.669001,1.5 1.499998,1.5 H 35.5 c 0.831001,0 1.5,-0.669 1.5,-1.5 v -2 C 37,13.669 36.331001,13 35.5,13 Z m 0,0.5 H 35.5 c 0.554,0 0.999999,0.446 0.999999,1 v 2 c 0,0.554 -0.445999,1 -0.999999,1 h -7.000002 c -0.553999,0 -0.999999,-0.446 -0.999999,-1 v -2 c 0,-0.554 0.446,-1 0.999999,-1 z" />
  <rect
     style="fill:#2e3133;fill-opacity:1;stroke-width:2;stroke-linecap:round;stroke-linejoin:round"
     id="rect131504"
     width="8"
     height="3"
     x="28"
     y="14"
     ry="1" />
</svg>
