<?xml version="1.0" encoding="UTF-8" standalone="no"?>
<!-- Created with Inkscape (http://www.inkscape.org/) -->

<svg
   width="64"
   height="64"
   viewBox="0 0 64 64"
   version="1.1"
   id="svg2112"
   inkscape:version="1.2.1 (9c6d41e410, 2022-07-14, custom)"
   sodipodi:docname="media-optical.svg"
   xmlns:inkscape="http://www.inkscape.org/namespaces/inkscape"
   xmlns:sodipodi="http://sodipodi.sourceforge.net/DTD/sodipodi-0.dtd"
   xmlns:xlink="http://www.w3.org/1999/xlink"
   xmlns="http://www.w3.org/2000/svg"
   xmlns:svg="http://www.w3.org/2000/svg">
  <sodipodi:namedview
     id="namedview2114"
     pagecolor="#ffffff"
     bordercolor="#000000"
     borderopacity="0.25"
     inkscape:showpageshadow="2"
     inkscape:pageopacity="0.0"
     inkscape:pagecheckerboard="0"
     inkscape:deskcolor="#d1d1d1"
     inkscape:document-units="px"
     showgrid="false"
     inkscape:zoom="12.625"
     inkscape:cx="28.990099"
     inkscape:cy="32"
     inkscape:window-width="1920"
     inkscape:window-height="1010"
     inkscape:window-x="0"
     inkscape:window-y="0"
     inkscape:window-maximized="1"
     inkscape:current-layer="svg2112" />
  <defs
     id="defs2109">
    <linearGradient
       inkscape:collect="always"
       xlink:href="#linearGradient6804"
       id="linearGradient6808"
       x1="2.3812499"
       y1="8.4666672"
       x2="6.6145835"
       y2="12.700001"
       gradientUnits="userSpaceOnUse"
       gradientTransform="matrix(7.0866137,0,0,7.0866137,0.12499942,-42.999998)" />
    <linearGradient
       inkscape:collect="always"
       id="linearGradient6804">
      <stop
         style="stop-color:#ffffff;stop-opacity:1;"
         offset="0"
         id="stop6800" />
      <stop
         style="stop-color:#ffffff;stop-opacity:0;"
         offset="1"
         id="stop6802" />
    </linearGradient>
    <linearGradient
       inkscape:collect="always"
       xlink:href="#linearGradient162116"
       id="linearGradient162118"
       x1="96.408417"
       y1="238.0069"
       x2="127.77626"
       y2="238.0069"
       gradientUnits="userSpaceOnUse"
       gradientTransform="matrix(1.9127864,0,0,1.8455933,-182.40869,-407.26397)" />
    <linearGradient
       inkscape:collect="always"
       id="linearGradient162116">
      <stop
         style="stop-color:#e3edee;stop-opacity:1;"
         offset="0"
         id="stop162112" />
      <stop
         style="stop-color:#c9cdce;stop-opacity:1"
         offset="1"
         id="stop162114" />
    </linearGradient>
    <linearGradient
       inkscape:collect="always"
       xlink:href="#linearGradient219586"
       id="linearGradient1031"
       gradientUnits="userSpaceOnUse"
       gradientTransform="matrix(1.9127864,0,0,1.8455934,-182.40868,-407.26397)"
       x1="112.09232"
       y1="238.0069"
       x2="112.17286"
       y2="254.33937" />
    <linearGradient
       inkscape:collect="always"
       id="linearGradient219586">
      <stop
         style="stop-color:#b9bfbf;stop-opacity:1;"
         offset="0"
         id="stop219582" />
      <stop
         style="stop-color:#aaacab;stop-opacity:1"
         offset="1"
         id="stop219584" />
    </linearGradient>
    <linearGradient
       inkscape:collect="always"
       xlink:href="#linearGradient2496"
       id="linearGradient2498"
       x1="16.424316"
       y1="54.63533"
       x2="32.331596"
       y2="38.452602"
       gradientUnits="userSpaceOnUse"
       gradientTransform="matrix(1.8749999,0,0,1.8749999,0.12499942,-42.999998)" />
    <linearGradient
       inkscape:collect="always"
       id="linearGradient2496">
      <stop
         style="stop-color:#ffffff;stop-opacity:0.5"
         offset="0"
         id="stop2492" />
      <stop
         style="stop-color:#ffffff;stop-opacity:0"
         offset="0.44999999"
         id="stop3080" />
      <stop
         style="stop-color:#ffffff;stop-opacity:1"
         offset="0.5"
         id="stop2756" />
      <stop
         style="stop-color:#ffffff;stop-opacity:0"
         offset="0.55000001"
         id="stop3014" />
      <stop
         style="stop-color:#ffffff;stop-opacity:0.2"
         offset="1"
         id="stop2494" />
    </linearGradient>
    <linearGradient
       inkscape:collect="always"
       xlink:href="#linearGradient7820"
       id="linearGradient7822"
       x1="14.532227"
       y1="42.393677"
       x2="19.540161"
       y2="37.501221"
       gradientUnits="userSpaceOnUse"
       gradientTransform="matrix(1.9999998,0,0,1.9999998,-1.9999993,-47.999992)" />
    <linearGradient
       inkscape:collect="always"
       id="linearGradient7820">
      <stop
         style="stop-color:#858585;stop-opacity:1"
         offset="0"
         id="stop7816" />
      <stop
         style="stop-color:#ffffff;stop-opacity:1"
         offset="0.5"
         id="stop8592" />
      <stop
         style="stop-color:#868686;stop-opacity:1"
         offset="1"
         id="stop7818" />
    </linearGradient>
    <linearGradient
       inkscape:collect="always"
       xlink:href="#linearGradient7820"
       id="linearGradient10226"
       gradientUnits="userSpaceOnUse"
       x1="14.532227"
       y1="42.393677"
       x2="19.540161"
       y2="37.501221"
       gradientTransform="matrix(3.6000003,0,0,3.6000003,-29.200003,-112.00001)" />
    <linearGradient
       inkscape:collect="always"
       xlink:href="#linearGradient11941"
       id="linearGradient11943"
       x1="5.1081543"
       y1="42.191895"
       x2="7.4692383"
       y2="33.279785"
       gradientUnits="userSpaceOnUse"
       gradientTransform="matrix(1.8749999,0,0,1.8749999,0.12499942,-42.999998)" />
    <linearGradient
       inkscape:collect="always"
       id="linearGradient11941">
      <stop
         style="stop-color:#f89af4;stop-opacity:0"
         offset="0"
         id="stop11937" />
      <stop
         style="stop-color:#f89af4;stop-opacity:0"
         offset="0.40000001"
         id="stop12523" />
      <stop
         style="stop-color:#f89af4;stop-opacity:1"
         offset="0.5"
         id="stop12201" />
      <stop
         style="stop-color:#f89af4;stop-opacity:0"
         offset="0.60000002"
         id="stop12781" />
      <stop
         style="stop-color:#f89af4;stop-opacity:0;"
         offset="1"
         id="stop11939" />
    </linearGradient>
    <linearGradient
       inkscape:collect="always"
       xlink:href="#linearGradient16450"
       id="linearGradient16452"
       x1="17.605227"
       y1="29.40974"
       x2="27.150551"
       y2="39.243584"
       gradientUnits="userSpaceOnUse"
       gradientTransform="matrix(1.8749999,0,0,1.8749999,0.12499942,-42.999998)" />
    <linearGradient
       inkscape:collect="always"
       id="linearGradient16450">
      <stop
         style="stop-color:#6fef7e;stop-opacity:0"
         offset="0"
         id="stop16446" />
      <stop
         style="stop-color:#6fef7e;stop-opacity:0"
         offset="0.44792882"
         id="stop17132" />
      <stop
         style="stop-color:#6fef7e;stop-opacity:1"
         offset="0.5"
         id="stop16680" />
      <stop
         style="stop-color:#6fef7e;stop-opacity:0"
         offset="0.55000001"
         id="stop16938" />
      <stop
         style="stop-color:#6fef7e;stop-opacity:0;"
         offset="1"
         id="stop16448" />
    </linearGradient>
  </defs>
  <path
     id="path6272"
     style="opacity:0.4;fill:url(#linearGradient6808);fill-opacity:1;stroke-width:3.75;stroke-linecap:round;stroke-linejoin:round"
     d="M 31.999999,17 A 15,15 0 0 0 17,31.999999 15,15 0 0 0 31.999999,47 15,15 0 0 0 47,31.999999 15,15 0 0 0 31.999999,17 Z m 0,11.249999 a 3.7500001,3.7500001 0 0 1 3.750002,3.75 3.7500001,3.7500001 0 0 1 -3.750002,3.75 3.7500001,3.7500001 0 0 1 -3.749998,-3.75 3.7500001,3.7500001 0 0 1 3.749998,-3.75 z" />
  <path
     id="path9538"
     style="fill:#d0d0d0;fill-opacity:1;stroke-width:3.75;stroke-linecap:round;stroke-linejoin:round"
     d="m 31.999999,18.874999 a 13.125,13.125 0 0 0 -13.124999,13.125 13.125,13.125 0 0 0 13.124999,13.125 13.125,13.125 0 0 0 13.125004,-13.125 13.125,13.125 0 0 0 -13.125004,-13.125 z m 0,2.8125 a 10.312499,10.312499 0 0 1 10.312503,10.3125 10.312499,10.312499 0 0 1 -10.312503,10.312503 10.312499,10.312499 0 0 1 -10.312501,-10.312503 10.312499,10.312499 0 0 1 10.312501,-10.3125 z" />
  <path
     id="path151229"
     style="fill:url(#linearGradient162118);fill-opacity:1;stroke-width:2.48563;stroke-linecap:round;stroke-linejoin:round"
     d="M 31.999999,2.0000002 A 30.000001,30.000001 0 0 0 2,32.000002 30.000001,30.000001 0 0 0 31.999999,62 30.000001,30.000001 0 0 0 62,32.000002 30.000001,30.000001 0 0 0 31.999999,2.0000002 Z m 0,18.7499998 a 11.249999,11.249999 0 0 1 11.250003,11.250002 11.249999,11.249999 0 0 1 -11.250003,11.25 11.249999,11.249999 0 0 1 -11.250001,-11.25 A 11.249999,11.249999 0 0 1 31.999999,20.75 Z" />
  <path
     id="path151229-3-3"
     style="fill:url(#linearGradient1031);fill-opacity:1;stroke-width:2.48563;stroke-linecap:round;stroke-linejoin:round"
     d="M 43.224366,32.703121 A 11.249999,11.249999 0 0 1 31.999999,43.250002 11.249999,11.249999 0 0 1 24.053221,39.946778 L 10.803711,53.196294 A 30.000001,30.000001 0 0 0 31.999999,62 30.000001,30.000001 0 0 0 61.930423,33.871336 Z" />
  <path
     id="rect2336"
     style="opacity:0.5;fill:url(#linearGradient2498);fill-opacity:1;stroke-width:3.75;stroke-linecap:round;stroke-linejoin:round"
     d="M 24.730713,2.9191888 A 30.000001,30.000001 0 0 0 2.5346678,26.473875 L 20.775634,30.125 l 0.179452,0.02933 a 11.249999,11.249999 0 0 1 8.327633,-9.027134 z M 43.044925,33.845702 a 11.25,11.25 0 0 1 -8.327638,9.0271 L 39.26929,61.080811 A 30.000001,30.000001 0 0 0 61.465329,37.526121 L 43.224366,33.874999 Z" />
  <path
     id="path7246"
     style="opacity:0.5;fill:url(#linearGradient7822);fill-opacity:1;stroke-width:4.99997;stroke-linecap:round;stroke-linejoin:round"
     d="m 32,27 a 4.9999993,4.9999993 0 0 0 -5,5 4.9999993,4.9999993 0 0 0 5,5 4.9999993,4.9999993 0 0 0 5,-5 4.9999993,4.9999993 0 0 0 -5,-5 z m 0,1 a 3.9999991,3.9999991 0 0 1 0.103516,0.002 3.9999998,3.9999998 0 0 1 0.0098,0 3.9999991,3.9999991 0 0 1 0.0918,0.0039 3.9999998,3.9999998 0 0 1 0.06836,0.0039 3.9999998,3.9999998 0 0 1 0.06836,0.0059 3.9999991,3.9999991 0 0 1 0.07031,0.0059 3.9999998,3.9999998 0 0 1 0.04297,0.0039 3.9999991,3.9999991 0 0 1 0.05859,0.0078 3.9999998,3.9999998 0 0 1 0.05469,0.0078 3.9999991,3.9999991 0 0 1 0.113282,0.01758 3.9999991,3.9999991 0 0 1 0.03516,0.0059 3.9999998,3.9999998 0 0 1 0.07813,0.01563 3.9999991,3.9999991 0 0 1 0.02344,0.0039 3.9999998,3.9999998 0 0 1 0.08789,0.01953 3.9999991,3.9999991 0 0 1 0.01172,0.0039 3.9999998,3.9999998 0 0 1 0.199219,0.05273 3.9999998,3.9999998 0 0 1 0.0098,0.002 3.9999991,3.9999991 0 0 1 0.08984,0.02734 3.9999998,3.9999998 0 0 1 0.01953,0.0059 3.9999991,3.9999991 0 0 1 0.07813,0.02734 3.9999998,3.9999998 0 0 1 0.0293,0.0098 3.9999991,3.9999991 0 0 1 0.08594,0.0332 3.9999998,3.9999998 0 0 1 0.02148,0.0078 3.9999991,3.9999991 0 0 1 0.105469,0.04297 3.9999991,3.9999991 0 0 1 0.09375,0.03906 3.9999998,3.9999998 0 0 1 0.01172,0.0059 3.9999991,3.9999991 0 0 1 0.0332,0.01563 3.9999998,3.9999998 0 0 1 0.07031,0.0332 3.9999991,3.9999991 0 0 1 0.02344,0.01172 3.9999998,3.9999998 0 0 1 0.07813,0.04102 3.9999991,3.9999991 0 0 1 0.09961,0.05469 3.9999991,3.9999991 0 0 1 0.0039,0.002 3.9999998,3.9999998 0 0 1 0.0293,0.01758 3.9999991,3.9999991 0 0 1 0.05859,0.0332 3.9999998,3.9999998 0 0 1 0.0078,0.0039 3.9999991,3.9999991 0 0 1 0.08008,0.05078 3.9999998,3.9999998 0 0 1 0.01563,0.0098 3.9999991,3.9999991 0 0 1 0.07031,0.04687 3.9999998,3.9999998 0 0 1 0.08594,0.05859 3.9999998,3.9999998 0 0 1 0.0332,0.02344 3.9999991,3.9999991 0 0 1 0.117188,0.08789 3.9999998,3.9999998 0 0 1 0.0625,0.05273 3.9999991,3.9999991 0 0 1 0.07422,0.06055 3.9999998,3.9999998 0 0 1 0.01367,0.01172 3.9999991,3.9999991 0 0 1 0.09766,0.08789 3.9999998,3.9999998 0 0 1 0.07031,0.06641 3.9999991,3.9999991 0 0 1 0.148438,0.152344 3.9999998,3.9999998 0 0 1 0.01172,0.01172 3.9999991,3.9999991 0 0 1 0.05664,0.06445 3.9999998,3.9999998 0 0 1 0.01953,0.02148 3.9999991,3.9999991 0 0 1 0.01172,0.01367 3.9999991,3.9999991 0 0 1 0.06055,0.07422 3.9999991,3.9999991 0 0 1 0.04102,0.04883 3.9999998,3.9999998 0 0 1 0.03125,0.03906 3.9999991,3.9999991 0 0 1 0.03125,0.04297 3.9999998,3.9999998 0 0 1 0.03711,0.04883 3.9999991,3.9999991 0 0 1 0.02344,0.0332 3.9999998,3.9999998 0 0 1 0.05859,0.08594 3.9999998,3.9999998 0 0 1 0.04687,0.07031 3.9999991,3.9999991 0 0 1 0.0098,0.01563 3.9999998,3.9999998 0 0 1 0.05078,0.08008 3.9999991,3.9999991 0 0 1 0.05469,0.0957 3.9999998,3.9999998 0 0 1 0.002,0.0039 3.9999991,3.9999991 0 0 1 0.05469,0.09961 3.9999991,3.9999991 0 0 1 0.04102,0.07813 3.9999998,3.9999998 0 0 1 0.01172,0.02344 3.9999991,3.9999991 0 0 1 0.0332,0.07031 3.9999998,3.9999998 0 0 1 0.01563,0.0332 3.9999991,3.9999991 0 0 1 0.0059,0.01172 3.9999991,3.9999991 0 0 1 0.03906,0.09375 3.9999991,3.9999991 0 0 1 0.04297,0.105469 3.9999998,3.9999998 0 0 1 0.0078,0.02148 3.9999991,3.9999991 0 0 1 0.0078,0.01953 3.9999998,3.9999998 0 0 1 0.02539,0.06641 3.9999991,3.9999991 0 0 1 0.0098,0.0293 3.9999998,3.9999998 0 0 1 0.02734,0.07813 3.9999991,3.9999991 0 0 1 0.0059,0.01953 3.9999998,3.9999998 0 0 1 0.02734,0.08984 3.9999991,3.9999991 0 0 1 0.002,0.0098 3.9999998,3.9999998 0 0 1 0.05273,0.199219 3.9999998,3.9999998 0 0 1 0.0039,0.01172 3.9999991,3.9999991 0 0 1 0.01953,0.08789 3.9999998,3.9999998 0 0 1 0.0039,0.02344 3.9999991,3.9999991 0 0 1 0.01563,0.07813 3.9999998,3.9999998 0 0 1 0.0059,0.03516 3.9999991,3.9999991 0 0 1 0.01758,0.113282 3.9999991,3.9999991 0 0 1 0.0078,0.05469 3.9999998,3.9999998 0 0 1 0.002,0.01172 3.9999991,3.9999991 0 0 1 0.0098,0.08984 3.9999998,3.9999998 0 0 1 0.0059,0.07031 3.9999991,3.9999991 0 0 1 0.0039,0.0332 3.9999998,3.9999998 0 0 1 0.002,0.03516 3.9999998,3.9999998 0 0 1 0.0039,0.06836 3.9999998,3.9999998 0 0 1 0.0039,0.0918 3.9999991,3.9999991 0 0 1 0.0015,0.112906 3.9999991,3.9999991 0 0 1 -0.01172,0.298828 3.9999998,3.9999998 0 0 1 -0.002,0.0098 3.9999998,3.9999998 0 0 1 -0.01367,0.138672 3.9999991,3.9999991 0 0 1 -0.02344,0.18164 3.9999998,3.9999998 0 0 1 -0.01953,0.101563 3.9999991,3.9999991 0 0 1 -0.04883,0.228515 3.9999998,3.9999998 0 0 1 -0.01953,0.07617 3.9999991,3.9999991 0 0 1 -0.0625,0.208985 3.9999998,3.9999998 0 0 1 -0.05273,0.152343 3.9999991,3.9999991 0 0 1 -0.04297,0.107422 3.9999998,3.9999998 0 0 1 -0.07813,0.181641 3.9999991,3.9999991 0 0 1 -0.07031,0.144531 3.9999998,3.9999998 0 0 1 -0.05859,0.109375 3.9999991,3.9999991 0 0 1 -0.09961,0.167969 3.9999998,3.9999998 0 0 1 -0.07227,0.115234 3.9999991,3.9999991 0 0 1 -0.109375,0.152344 3.9999998,3.9999998 0 0 1 -0.07422,0.09961 3.9999991,3.9999991 0 0 1 -0.117187,0.140625 3.9999998,3.9999998 0 0 1 -0.08008,0.09375 3.9999991,3.9999991 0 0 1 -0.222656,0.222657 3.9999998,3.9999998 0 0 1 -0.01172,0.01172 3.9999991,3.9999991 0 0 1 -0.09375,0.08008 3.9999991,3.9999991 0 0 1 -0.140625,0.117187 3.9999998,3.9999998 0 0 1 -0.09961,0.07422 3.9999991,3.9999991 0 0 1 -0.152344,0.109375 3.9999998,3.9999998 0 0 1 -0.115234,0.07227 3.9999991,3.9999991 0 0 1 -0.167969,0.09961 3.9999998,3.9999998 0 0 1 -0.109375,0.05859 3.9999991,3.9999991 0 0 1 -0.144531,0.07031 3.9999998,3.9999998 0 0 1 -0.181641,0.07813 3.9999991,3.9999991 0 0 1 -0.107422,0.04297 3.9999998,3.9999998 0 0 1 -0.152343,0.05273 3.9999991,3.9999991 0 0 1 -0.208985,0.0625 3.9999998,3.9999998 0 0 1 -0.07617,0.01953 3.9999991,3.9999991 0 0 1 -0.228515,0.04883 3.9999998,3.9999998 0 0 1 -0.101563,0.01953 3.9999991,3.9999991 0 0 1 -0.18164,0.02344 3.9999998,3.9999998 0 0 1 -0.138672,0.01367 3.9999998,3.9999998 0 0 1 -0.0098,0.002 3.9999991,3.9999991 0 0 1 -0.298743,0.01163 3.9999991,3.9999991 0 0 1 -0.308594,-0.01367 3.9999998,3.9999998 0 0 1 -0.138672,-0.01367 3.9999991,3.9999991 0 0 1 -0.18164,-0.02344 3.9999998,3.9999998 0 0 1 -0.101563,-0.01953 3.9999991,3.9999991 0 0 1 -0.228515,-0.04883 3.9999998,3.9999998 0 0 1 -0.07617,-0.01953 3.9999991,3.9999991 0 0 1 -0.208985,-0.0625 3.9999998,3.9999998 0 0 1 -0.152343,-0.05273 3.9999991,3.9999991 0 0 1 -0.107422,-0.04297 3.9999998,3.9999998 0 0 1 -0.181641,-0.07813 3.9999991,3.9999991 0 0 1 -0.144531,-0.07031 3.9999998,3.9999998 0 0 1 -0.109375,-0.05859 3.9999991,3.9999991 0 0 1 -0.167969,-0.09961 3.9999998,3.9999998 0 0 1 -0.115234,-0.07227 3.9999991,3.9999991 0 0 1 -0.152344,-0.109375 3.9999998,3.9999998 0 0 1 -0.09961,-0.07422 3.9999991,3.9999991 0 0 1 -0.140625,-0.117187 3.9999998,3.9999998 0 0 1 -0.105469,-0.0918 3.9999991,3.9999991 0 0 1 -0.222656,-0.222657 3.9999998,3.9999998 0 0 1 -0.08008,-0.09375 3.9999991,3.9999991 0 0 1 -0.117187,-0.140625 3.9999998,3.9999998 0 0 1 -0.07422,-0.09961 3.9999991,3.9999991 0 0 1 -0.109375,-0.152344 3.9999998,3.9999998 0 0 1 -0.07227,-0.115234 3.9999991,3.9999991 0 0 1 -0.09961,-0.167969 3.9999998,3.9999998 0 0 1 -0.05859,-0.109375 3.9999991,3.9999991 0 0 1 -0.07031,-0.144531 3.9999998,3.9999998 0 0 1 -0.07813,-0.181641 3.9999991,3.9999991 0 0 1 -0.04297,-0.107422 3.9999998,3.9999998 0 0 1 -0.05273,-0.152343 3.9999991,3.9999991 0 0 1 -0.0625,-0.208985 3.9999998,3.9999998 0 0 1 -0.01953,-0.07617 3.9999991,3.9999991 0 0 1 -0.04883,-0.228515 3.9999998,3.9999998 0 0 1 -0.01953,-0.101563 3.9999991,3.9999991 0 0 1 -0.02344,-0.18164 3.9999998,3.9999998 0 0 1 -0.01367,-0.138672 3.9999991,3.9999991 0 0 1 -0.01367,-0.308592 3.9999991,3.9999991 0 0 1 0.01367,-0.308594 3.9999998,3.9999998 0 0 1 0.01367,-0.138672 3.9999991,3.9999991 0 0 1 0.02344,-0.18164 3.9999998,3.9999998 0 0 1 0.01953,-0.101563 3.9999991,3.9999991 0 0 1 0.04883,-0.228515 3.9999998,3.9999998 0 0 1 0.01953,-0.07617 3.9999991,3.9999991 0 0 1 0.0625,-0.208985 3.9999998,3.9999998 0 0 1 0.05273,-0.152343 3.9999991,3.9999991 0 0 1 0.04297,-0.107422 3.9999998,3.9999998 0 0 1 0.07813,-0.181641 3.9999991,3.9999991 0 0 1 0.07031,-0.144531 3.9999998,3.9999998 0 0 1 0.05859,-0.109375 3.9999991,3.9999991 0 0 1 0.09961,-0.167969 3.9999998,3.9999998 0 0 1 0.07227,-0.115234 3.9999991,3.9999991 0 0 1 0.109375,-0.152344 3.9999998,3.9999998 0 0 1 0.07422,-0.09961 3.9999991,3.9999991 0 0 1 0.117187,-0.140625 3.9999998,3.9999998 0 0 1 0.0918,-0.105469 3.9999991,3.9999991 0 0 1 0.222657,-0.222656 3.9999998,3.9999998 0 0 1 0.09375,-0.08008 3.9999991,3.9999991 0 0 1 0.140625,-0.117187 3.9999998,3.9999998 0 0 1 0.09961,-0.07422 3.9999991,3.9999991 0 0 1 0.152344,-0.109375 3.9999998,3.9999998 0 0 1 0.115234,-0.07227 3.9999991,3.9999991 0 0 1 0.167969,-0.09961 3.9999998,3.9999998 0 0 1 0.109375,-0.05859 3.9999991,3.9999991 0 0 1 0.144531,-0.07031 3.9999998,3.9999998 0 0 1 0.181641,-0.07813 3.9999991,3.9999991 0 0 1 0.107422,-0.04297 3.9999998,3.9999998 0 0 1 0.152343,-0.05273 3.9999991,3.9999991 0 0 1 0.208985,-0.0625 3.9999998,3.9999998 0 0 1 0.07617,-0.01953 3.9999991,3.9999991 0 0 1 0.228515,-0.04883 3.9999998,3.9999998 0 0 1 0.101563,-0.01953 3.9999991,3.9999991 0 0 1 0.18164,-0.02344 3.9999998,3.9999998 0 0 1 0.138672,-0.01367 3.9999991,3.9999991 0 0 1 0.308592,-0.01367 z" />
  <path
     id="path7246-2"
     style="opacity:0.5;fill:url(#linearGradient10226);fill-opacity:1;stroke-width:8.99996;stroke-linecap:round;stroke-linejoin:round"
     d="m 32,23 c -4.970564,-1e-6 -9,4.029436 -9,9 -3e-6,4.970565 4.029435,9 9,9 4.970564,0 9.000004,-4.029436 9,-9 0,-4.970563 -4.029437,-9 -9,-9 z m 0,1 c 4.418277,2e-6 8,3.581723 8,8 0,4.418277 -3.581723,8 -8,8 -4.418279,0 -8.000001,-3.581721 -8,-8 0,-4.418279 3.581721,-8.000001 8,-8 z" />
  <path
     id="path151229-7"
     style="opacity:0.5;fill:url(#linearGradient11943);fill-opacity:1;stroke-width:2.48563;stroke-linecap:round;stroke-linejoin:round"
     d="M 5.5009764,17.970458 C 3.2075613,22.291575 2.0056587,27.107988 2,31.999999 2.00567,36.892011 3.2075613,41.708424 5.5009764,46.029542 L 22.07202,37.255125 c -0.862269,-1.617826 -1.316111,-3.421867 -1.322022,-5.255126 0.006,-1.833259 0.459753,-3.637299 1.322022,-5.255126 z"
     sodipodi:nodetypes="ccccccc" />
  <path
     id="path151229-1"
     style="opacity:0.5;fill:url(#linearGradient16452);fill-opacity:1;stroke-width:2.48563;stroke-linecap:round;stroke-linejoin:round"
     d="M 40.946535,3.3659679 35.354492,21.262695 a 11.249999,11.249999 0 0 1 7.177736,6.785888 L 60.088379,21.467771 A 30.000001,30.000001 0 0 0 40.946535,3.3659679 Z" />
  <path
     id="path151229-2"
     style="fill:#d0d0d0;fill-opacity:1;stroke-width:2.48563;stroke-linecap:round;stroke-linejoin:round"
     d="M 31.999999,2 A 30.000001,30.000001 0 0 0 2,31.999999 30.000001,30.000001 0 0 0 31.999999,62 30.000001,30.000001 0 0 0 62,31.999999 30.000001,30.000001 0 0 0 31.999999,2 Z m 0,0.9374998 A 29.062501,29.062501 0 0 1 61.062499,31.999999 29.062501,29.062501 0 0 1 31.999999,61.0625 29.062501,29.062501 0 0 1 2.9375001,31.999999 29.062501,29.062501 0 0 1 31.999999,2.9374998 Z" />
</svg>
