<?xml version="1.0" encoding="UTF-8" standalone="no"?>
<!-- Created with Inkscape (http://www.inkscape.org/) -->

<svg
   width="64"
   height="64"
   viewBox="0 0 64 64"
   version="1.1"
   id="svg2112"
   inkscape:version="1.2.1 (9c6d41e410, 2022-07-14, custom)"
   sodipodi:docname="media-optical-dvd.svg"
   xmlns:inkscape="http://www.inkscape.org/namespaces/inkscape"
   xmlns:sodipodi="http://sodipodi.sourceforge.net/DTD/sodipodi-0.dtd"
   xmlns:xlink="http://www.w3.org/1999/xlink"
   xmlns="http://www.w3.org/2000/svg"
   xmlns:svg="http://www.w3.org/2000/svg">
  <sodipodi:namedview
     id="namedview2114"
     pagecolor="#ffffff"
     bordercolor="#000000"
     borderopacity="0.25"
     inkscape:showpageshadow="2"
     inkscape:pageopacity="0.0"
     inkscape:pagecheckerboard="0"
     inkscape:deskcolor="#d1d1d1"
     inkscape:document-units="px"
     showgrid="false"
     inkscape:zoom="12.53125"
     inkscape:cx="31.9601"
     inkscape:cy="32"
     inkscape:window-width="1920"
     inkscape:window-height="1011"
     inkscape:window-x="0"
     inkscape:window-y="0"
     inkscape:window-maximized="1"
     inkscape:current-layer="svg2112" />
  <defs
     id="defs2109">
    <linearGradient
       inkscape:collect="always"
       xlink:href="#linearGradient6804"
       id="linearGradient6808"
       x1="2.3812499"
       y1="8.4666672"
       x2="6.6145835"
       y2="12.700001"
       gradientUnits="userSpaceOnUse"
       gradientTransform="matrix(7.0866137,0,0,7.0866137,0.12499942,-42.999998)" />
    <linearGradient
       inkscape:collect="always"
       id="linearGradient6804">
      <stop
         style="stop-color:#ffffff;stop-opacity:1;"
         offset="0"
         id="stop6800" />
      <stop
         style="stop-color:#ffffff;stop-opacity:0;"
         offset="1"
         id="stop6802" />
    </linearGradient>
    <linearGradient
       inkscape:collect="always"
       xlink:href="#linearGradient162116"
       id="linearGradient162118"
       x1="96.408417"
       y1="238.0069"
       x2="127.77626"
       y2="238.0069"
       gradientUnits="userSpaceOnUse"
       gradientTransform="matrix(1.9127864,0,0,1.8455933,-182.40869,-407.26397)" />
    <linearGradient
       inkscape:collect="always"
       id="linearGradient162116">
      <stop
         style="stop-color:#e3edee;stop-opacity:1;"
         offset="0"
         id="stop162112" />
      <stop
         style="stop-color:#c9cdce;stop-opacity:1"
         offset="1"
         id="stop162114" />
    </linearGradient>
    <linearGradient
       inkscape:collect="always"
       xlink:href="#linearGradient219586"
       id="linearGradient1031"
       gradientUnits="userSpaceOnUse"
       gradientTransform="matrix(1.9127864,0,0,1.8455934,-182.40868,-407.26397)"
       x1="112.09232"
       y1="238.0069"
       x2="112.17286"
       y2="254.33937" />
    <linearGradient
       inkscape:collect="always"
       id="linearGradient219586">
      <stop
         style="stop-color:#b9bfbf;stop-opacity:1;"
         offset="0"
         id="stop219582" />
      <stop
         style="stop-color:#aaacab;stop-opacity:1"
         offset="1"
         id="stop219584" />
    </linearGradient>
    <linearGradient
       inkscape:collect="always"
       xlink:href="#linearGradient2496"
       id="linearGradient2498"
       x1="16.424316"
       y1="54.63533"
       x2="32.331596"
       y2="38.452602"
       gradientUnits="userSpaceOnUse"
       gradientTransform="matrix(1.8749999,0,0,1.8749999,0.12499942,-42.999998)" />
    <linearGradient
       inkscape:collect="always"
       id="linearGradient2496">
      <stop
         style="stop-color:#ffffff;stop-opacity:0.5"
         offset="0"
         id="stop2492" />
      <stop
         style="stop-color:#ffffff;stop-opacity:0"
         offset="0.44999999"
         id="stop3080" />
      <stop
         style="stop-color:#ffffff;stop-opacity:1"
         offset="0.5"
         id="stop2756" />
      <stop
         style="stop-color:#ffffff;stop-opacity:0"
         offset="0.55000001"
         id="stop3014" />
      <stop
         style="stop-color:#ffffff;stop-opacity:0.2"
         offset="1"
         id="stop2494" />
    </linearGradient>
    <linearGradient
       inkscape:collect="always"
       xlink:href="#linearGradient7820"
       id="linearGradient7822"
       x1="14.532227"
       y1="42.393677"
       x2="19.540161"
       y2="37.501221"
       gradientUnits="userSpaceOnUse"
       gradientTransform="matrix(1.9999998,0,0,1.9999998,-1.9999993,-47.999992)" />
    <linearGradient
       inkscape:collect="always"
       id="linearGradient7820">
      <stop
         style="stop-color:#858585;stop-opacity:1"
         offset="0"
         id="stop7816" />
      <stop
         style="stop-color:#ffffff;stop-opacity:1"
         offset="0.5"
         id="stop8592" />
      <stop
         style="stop-color:#868686;stop-opacity:1"
         offset="1"
         id="stop7818" />
    </linearGradient>
    <linearGradient
       inkscape:collect="always"
       xlink:href="#linearGradient7820"
       id="linearGradient10226"
       gradientUnits="userSpaceOnUse"
       x1="14.532227"
       y1="42.393677"
       x2="19.540161"
       y2="37.501221"
       gradientTransform="matrix(3.6000003,0,0,3.6000003,-29.200003,-112.00001)" />
    <linearGradient
       inkscape:collect="always"
       xlink:href="#linearGradient11941"
       id="linearGradient11943"
       x1="5.1081543"
       y1="42.191895"
       x2="7.4692383"
       y2="33.279785"
       gradientUnits="userSpaceOnUse"
       gradientTransform="matrix(1.8749999,0,0,1.8749999,0.12499942,-42.999998)" />
    <linearGradient
       inkscape:collect="always"
       id="linearGradient11941">
      <stop
         style="stop-color:#f89af4;stop-opacity:0"
         offset="0"
         id="stop11937" />
      <stop
         style="stop-color:#f89af4;stop-opacity:0"
         offset="0.40000001"
         id="stop12523" />
      <stop
         style="stop-color:#f89af4;stop-opacity:1"
         offset="0.5"
         id="stop12201" />
      <stop
         style="stop-color:#f89af4;stop-opacity:0"
         offset="0.60000002"
         id="stop12781" />
      <stop
         style="stop-color:#f89af4;stop-opacity:0;"
         offset="1"
         id="stop11939" />
    </linearGradient>
    <linearGradient
       inkscape:collect="always"
       xlink:href="#linearGradient1087"
       id="linearGradient1089"
       x1="13.493751"
       y1="16.404167"
       x2="2.9104166"
       y2="12.170834"
       gradientUnits="userSpaceOnUse"
       gradientTransform="matrix(3.7795275,0,0,3.7795275,1.0000005,-2.0000018)" />
    <linearGradient
       inkscape:collect="always"
       id="linearGradient1087">
      <stop
         style="stop-color:#232223;stop-opacity:1;"
         offset="0"
         id="stop1083" />
      <stop
         style="stop-color:#48494d;stop-opacity:1"
         offset="1"
         id="stop1085" />
    </linearGradient>
  </defs>
  <path
     id="path6272"
     style="opacity:0.4;fill:url(#linearGradient6808);fill-opacity:1;stroke-width:3.75;stroke-linecap:round;stroke-linejoin:round"
     d="M 31.999999,17 A 15,15 0 0 0 17,31.999999 15,15 0 0 0 31.999999,47 15,15 0 0 0 47,31.999999 15,15 0 0 0 31.999999,17 Z m 0,11.249999 a 3.7500001,3.7500001 0 0 1 3.750002,3.75 3.7500001,3.7500001 0 0 1 -3.750002,3.75 3.7500001,3.7500001 0 0 1 -3.749998,-3.75 3.7500001,3.7500001 0 0 1 3.749998,-3.75 z" />
  <path
     id="path9538"
     style="fill:#d0d0d0;fill-opacity:1;stroke-width:3.75;stroke-linecap:round;stroke-linejoin:round"
     d="m 31.999999,18.874999 a 13.125,13.125 0 0 0 -13.124999,13.125 13.125,13.125 0 0 0 13.124999,13.125 13.125,13.125 0 0 0 13.125004,-13.125 13.125,13.125 0 0 0 -13.125004,-13.125 z m 0,2.8125 a 10.312499,10.312499 0 0 1 10.312503,10.3125 10.312499,10.312499 0 0 1 -10.312503,10.312503 10.312499,10.312499 0 0 1 -10.312501,-10.312503 10.312499,10.312499 0 0 1 10.312501,-10.3125 z" />
  <path
     id="path151229"
     style="fill:url(#linearGradient162118);fill-opacity:1;stroke-width:2.48563;stroke-linecap:round;stroke-linejoin:round"
     d="M 32 4 C 16.536043 4.000001 4.000001 16.536043 4 32 C 4 47.463958 16.536042 59.999999 32 60 C 47.463959 60 60 47.463959 60 32 C 59.999999 16.536042 47.463958 4 32 4 z M 32 20.75 A 11.249999 11.249999 0 0 1 43.25 32 A 11.249999 11.249999 0 0 1 32 43.25 A 11.249999 11.249999 0 0 1 20.75 32 A 11.249999 11.249999 0 0 1 32 20.75 z " />
  <path
     id="path151229-3-3"
     style="fill:url(#linearGradient1031);fill-opacity:1;stroke-width:2.48563;stroke-linecap:round;stroke-linejoin:round"
     d="M 43.224609 32.703125 A 11.249999 11.249999 0 0 1 32 43.25 A 11.249999 11.249999 0 0 1 24.052734 39.947266 L 12.201172 51.798828 C 17.26817 56.865827 24.268021 60 32 60 C 46.877146 60 59.037456 48.396147 59.939453 33.746094 L 43.224609 32.703125 z " />
  <path
     id="rect2336"
     style="opacity:0.5;fill:url(#linearGradient2498);fill-opacity:1;stroke-width:3.75;stroke-linecap:round;stroke-linejoin:round"
     d="M 25.208984 4.8339844 C 14.657279 7.4633584 6.4796934 16.077256 4.4785156 26.863281 L 20.775391 30.125 L 20.955078 30.154297 A 11.249999 11.249999 0 0 1 29.283203 21.126953 L 25.208984 4.8339844 z M 43.044922 33.845703 A 11.25 11.25 0 0 1 34.716797 42.873047 L 38.791016 59.166016 C 49.342722 56.536642 57.520307 47.922745 59.521484 37.136719 L 43.224609 33.875 L 43.044922 33.845703 z " />
  <path
     id="path7246"
     style="opacity:0.5;fill:url(#linearGradient7822);fill-opacity:1;stroke-width:4.99997;stroke-linecap:round;stroke-linejoin:round"
     d="m 32,27 a 4.9999993,4.9999993 0 0 0 -5,5 4.9999993,4.9999993 0 0 0 5,5 4.9999993,4.9999993 0 0 0 5,-5 4.9999993,4.9999993 0 0 0 -5,-5 z m 0,1 a 3.9999991,3.9999991 0 0 1 0.103516,0.002 3.9999998,3.9999998 0 0 1 0.0098,0 3.9999991,3.9999991 0 0 1 0.0918,0.0039 3.9999998,3.9999998 0 0 1 0.06836,0.0039 3.9999998,3.9999998 0 0 1 0.06836,0.0059 3.9999991,3.9999991 0 0 1 0.07031,0.0059 3.9999998,3.9999998 0 0 1 0.04297,0.0039 3.9999991,3.9999991 0 0 1 0.05859,0.0078 3.9999998,3.9999998 0 0 1 0.05469,0.0078 3.9999991,3.9999991 0 0 1 0.113282,0.01758 3.9999991,3.9999991 0 0 1 0.03516,0.0059 3.9999998,3.9999998 0 0 1 0.07813,0.01563 3.9999991,3.9999991 0 0 1 0.02344,0.0039 3.9999998,3.9999998 0 0 1 0.08789,0.01953 3.9999991,3.9999991 0 0 1 0.01172,0.0039 3.9999998,3.9999998 0 0 1 0.199219,0.05273 3.9999998,3.9999998 0 0 1 0.0098,0.002 3.9999991,3.9999991 0 0 1 0.08984,0.02734 3.9999998,3.9999998 0 0 1 0.01953,0.0059 3.9999991,3.9999991 0 0 1 0.07813,0.02734 3.9999998,3.9999998 0 0 1 0.0293,0.0098 3.9999991,3.9999991 0 0 1 0.08594,0.0332 3.9999998,3.9999998 0 0 1 0.02148,0.0078 3.9999991,3.9999991 0 0 1 0.105469,0.04297 3.9999991,3.9999991 0 0 1 0.09375,0.03906 3.9999998,3.9999998 0 0 1 0.01172,0.0059 3.9999991,3.9999991 0 0 1 0.0332,0.01563 3.9999998,3.9999998 0 0 1 0.07031,0.0332 3.9999991,3.9999991 0 0 1 0.02344,0.01172 3.9999998,3.9999998 0 0 1 0.07813,0.04102 3.9999991,3.9999991 0 0 1 0.09961,0.05469 3.9999991,3.9999991 0 0 1 0.0039,0.002 3.9999998,3.9999998 0 0 1 0.0293,0.01758 3.9999991,3.9999991 0 0 1 0.05859,0.0332 3.9999998,3.9999998 0 0 1 0.0078,0.0039 3.9999991,3.9999991 0 0 1 0.08008,0.05078 3.9999998,3.9999998 0 0 1 0.01563,0.0098 3.9999991,3.9999991 0 0 1 0.07031,0.04687 3.9999998,3.9999998 0 0 1 0.08594,0.05859 3.9999998,3.9999998 0 0 1 0.0332,0.02344 3.9999991,3.9999991 0 0 1 0.117188,0.08789 3.9999998,3.9999998 0 0 1 0.0625,0.05273 3.9999991,3.9999991 0 0 1 0.07422,0.06055 3.9999998,3.9999998 0 0 1 0.01367,0.01172 3.9999991,3.9999991 0 0 1 0.09766,0.08789 3.9999998,3.9999998 0 0 1 0.07031,0.06641 3.9999991,3.9999991 0 0 1 0.148438,0.152344 3.9999998,3.9999998 0 0 1 0.01172,0.01172 3.9999991,3.9999991 0 0 1 0.05664,0.06445 3.9999998,3.9999998 0 0 1 0.01953,0.02148 3.9999991,3.9999991 0 0 1 0.01172,0.01367 3.9999991,3.9999991 0 0 1 0.06055,0.07422 3.9999991,3.9999991 0 0 1 0.04102,0.04883 3.9999998,3.9999998 0 0 1 0.03125,0.03906 3.9999991,3.9999991 0 0 1 0.03125,0.04297 3.9999998,3.9999998 0 0 1 0.03711,0.04883 3.9999991,3.9999991 0 0 1 0.02344,0.0332 3.9999998,3.9999998 0 0 1 0.05859,0.08594 3.9999998,3.9999998 0 0 1 0.04687,0.07031 3.9999991,3.9999991 0 0 1 0.0098,0.01563 3.9999998,3.9999998 0 0 1 0.05078,0.08008 3.9999991,3.9999991 0 0 1 0.05469,0.0957 3.9999998,3.9999998 0 0 1 0.002,0.0039 3.9999991,3.9999991 0 0 1 0.05469,0.09961 3.9999991,3.9999991 0 0 1 0.04102,0.07813 3.9999998,3.9999998 0 0 1 0.01172,0.02344 3.9999991,3.9999991 0 0 1 0.0332,0.07031 3.9999998,3.9999998 0 0 1 0.01563,0.0332 3.9999991,3.9999991 0 0 1 0.0059,0.01172 3.9999991,3.9999991 0 0 1 0.03906,0.09375 3.9999991,3.9999991 0 0 1 0.04297,0.105469 3.9999998,3.9999998 0 0 1 0.0078,0.02148 3.9999991,3.9999991 0 0 1 0.0078,0.01953 3.9999998,3.9999998 0 0 1 0.02539,0.06641 3.9999991,3.9999991 0 0 1 0.0098,0.0293 3.9999998,3.9999998 0 0 1 0.02734,0.07813 3.9999991,3.9999991 0 0 1 0.0059,0.01953 3.9999998,3.9999998 0 0 1 0.02734,0.08984 3.9999991,3.9999991 0 0 1 0.002,0.0098 3.9999998,3.9999998 0 0 1 0.05273,0.199219 3.9999998,3.9999998 0 0 1 0.0039,0.01172 3.9999991,3.9999991 0 0 1 0.01953,0.08789 3.9999998,3.9999998 0 0 1 0.0039,0.02344 3.9999991,3.9999991 0 0 1 0.01563,0.07813 3.9999998,3.9999998 0 0 1 0.0059,0.03516 3.9999991,3.9999991 0 0 1 0.01758,0.113282 3.9999991,3.9999991 0 0 1 0.0078,0.05469 3.9999998,3.9999998 0 0 1 0.002,0.01172 3.9999991,3.9999991 0 0 1 0.0098,0.08984 3.9999998,3.9999998 0 0 1 0.0059,0.07031 3.9999991,3.9999991 0 0 1 0.0039,0.0332 3.9999998,3.9999998 0 0 1 0.002,0.03516 3.9999998,3.9999998 0 0 1 0.0039,0.06836 3.9999998,3.9999998 0 0 1 0.0039,0.0918 3.9999991,3.9999991 0 0 1 0.0015,0.112906 3.9999991,3.9999991 0 0 1 -0.01172,0.298828 3.9999998,3.9999998 0 0 1 -0.002,0.0098 3.9999998,3.9999998 0 0 1 -0.01367,0.138672 3.9999991,3.9999991 0 0 1 -0.02344,0.18164 3.9999998,3.9999998 0 0 1 -0.01953,0.101563 3.9999991,3.9999991 0 0 1 -0.04883,0.228515 3.9999998,3.9999998 0 0 1 -0.01953,0.07617 3.9999991,3.9999991 0 0 1 -0.0625,0.208985 3.9999998,3.9999998 0 0 1 -0.05273,0.152343 3.9999991,3.9999991 0 0 1 -0.04297,0.107422 3.9999998,3.9999998 0 0 1 -0.07813,0.181641 3.9999991,3.9999991 0 0 1 -0.07031,0.144531 3.9999998,3.9999998 0 0 1 -0.05859,0.109375 3.9999991,3.9999991 0 0 1 -0.09961,0.167969 3.9999998,3.9999998 0 0 1 -0.07227,0.115234 3.9999991,3.9999991 0 0 1 -0.109375,0.152344 3.9999998,3.9999998 0 0 1 -0.07422,0.09961 3.9999991,3.9999991 0 0 1 -0.117187,0.140625 3.9999998,3.9999998 0 0 1 -0.08008,0.09375 3.9999991,3.9999991 0 0 1 -0.222656,0.222657 3.9999998,3.9999998 0 0 1 -0.01172,0.01172 3.9999991,3.9999991 0 0 1 -0.09375,0.08008 3.9999991,3.9999991 0 0 1 -0.140625,0.117187 3.9999998,3.9999998 0 0 1 -0.09961,0.07422 3.9999991,3.9999991 0 0 1 -0.152344,0.109375 3.9999998,3.9999998 0 0 1 -0.115234,0.07227 3.9999991,3.9999991 0 0 1 -0.167969,0.09961 3.9999998,3.9999998 0 0 1 -0.109375,0.05859 3.9999991,3.9999991 0 0 1 -0.144531,0.07031 3.9999998,3.9999998 0 0 1 -0.181641,0.07813 3.9999991,3.9999991 0 0 1 -0.107422,0.04297 3.9999998,3.9999998 0 0 1 -0.152343,0.05273 3.9999991,3.9999991 0 0 1 -0.208985,0.0625 3.9999998,3.9999998 0 0 1 -0.07617,0.01953 3.9999991,3.9999991 0 0 1 -0.228515,0.04883 3.9999998,3.9999998 0 0 1 -0.101563,0.01953 3.9999991,3.9999991 0 0 1 -0.18164,0.02344 3.9999998,3.9999998 0 0 1 -0.138672,0.01367 3.9999998,3.9999998 0 0 1 -0.0098,0.002 3.9999991,3.9999991 0 0 1 -0.298743,0.01163 3.9999991,3.9999991 0 0 1 -0.308594,-0.01367 3.9999998,3.9999998 0 0 1 -0.138672,-0.01367 3.9999991,3.9999991 0 0 1 -0.18164,-0.02344 3.9999998,3.9999998 0 0 1 -0.101563,-0.01953 3.9999991,3.9999991 0 0 1 -0.228515,-0.04883 3.9999998,3.9999998 0 0 1 -0.07617,-0.01953 3.9999991,3.9999991 0 0 1 -0.208985,-0.0625 3.9999998,3.9999998 0 0 1 -0.152343,-0.05273 3.9999991,3.9999991 0 0 1 -0.107422,-0.04297 3.9999998,3.9999998 0 0 1 -0.181641,-0.07813 3.9999991,3.9999991 0 0 1 -0.144531,-0.07031 3.9999998,3.9999998 0 0 1 -0.109375,-0.05859 3.9999991,3.9999991 0 0 1 -0.167969,-0.09961 3.9999998,3.9999998 0 0 1 -0.115234,-0.07227 3.9999991,3.9999991 0 0 1 -0.152344,-0.109375 3.9999998,3.9999998 0 0 1 -0.09961,-0.07422 3.9999991,3.9999991 0 0 1 -0.140625,-0.117187 3.9999998,3.9999998 0 0 1 -0.105469,-0.0918 3.9999991,3.9999991 0 0 1 -0.222656,-0.222657 3.9999998,3.9999998 0 0 1 -0.08008,-0.09375 3.9999991,3.9999991 0 0 1 -0.117187,-0.140625 3.9999998,3.9999998 0 0 1 -0.07422,-0.09961 3.9999991,3.9999991 0 0 1 -0.109375,-0.152344 3.9999998,3.9999998 0 0 1 -0.07227,-0.115234 3.9999991,3.9999991 0 0 1 -0.09961,-0.167969 3.9999998,3.9999998 0 0 1 -0.05859,-0.109375 3.9999991,3.9999991 0 0 1 -0.07031,-0.144531 3.9999998,3.9999998 0 0 1 -0.07813,-0.181641 3.9999991,3.9999991 0 0 1 -0.04297,-0.107422 3.9999998,3.9999998 0 0 1 -0.05273,-0.152343 3.9999991,3.9999991 0 0 1 -0.0625,-0.208985 3.9999998,3.9999998 0 0 1 -0.01953,-0.07617 3.9999991,3.9999991 0 0 1 -0.04883,-0.228515 3.9999998,3.9999998 0 0 1 -0.01953,-0.101563 3.9999991,3.9999991 0 0 1 -0.02344,-0.18164 3.9999998,3.9999998 0 0 1 -0.01367,-0.138672 3.9999991,3.9999991 0 0 1 -0.01367,-0.308592 3.9999991,3.9999991 0 0 1 0.01367,-0.308594 3.9999998,3.9999998 0 0 1 0.01367,-0.138672 3.9999991,3.9999991 0 0 1 0.02344,-0.18164 3.9999998,3.9999998 0 0 1 0.01953,-0.101563 3.9999991,3.9999991 0 0 1 0.04883,-0.228515 3.9999998,3.9999998 0 0 1 0.01953,-0.07617 3.9999991,3.9999991 0 0 1 0.0625,-0.208985 3.9999998,3.9999998 0 0 1 0.05273,-0.152343 3.9999991,3.9999991 0 0 1 0.04297,-0.107422 3.9999998,3.9999998 0 0 1 0.07813,-0.181641 3.9999991,3.9999991 0 0 1 0.07031,-0.144531 3.9999998,3.9999998 0 0 1 0.05859,-0.109375 3.9999991,3.9999991 0 0 1 0.09961,-0.167969 3.9999998,3.9999998 0 0 1 0.07227,-0.115234 3.9999991,3.9999991 0 0 1 0.109375,-0.152344 3.9999998,3.9999998 0 0 1 0.07422,-0.09961 3.9999991,3.9999991 0 0 1 0.117187,-0.140625 3.9999998,3.9999998 0 0 1 0.0918,-0.105469 3.9999991,3.9999991 0 0 1 0.222657,-0.222656 3.9999998,3.9999998 0 0 1 0.09375,-0.08008 3.9999991,3.9999991 0 0 1 0.140625,-0.117187 3.9999998,3.9999998 0 0 1 0.09961,-0.07422 3.9999991,3.9999991 0 0 1 0.152344,-0.109375 3.9999998,3.9999998 0 0 1 0.115234,-0.07227 3.9999991,3.9999991 0 0 1 0.167969,-0.09961 3.9999998,3.9999998 0 0 1 0.109375,-0.05859 3.9999991,3.9999991 0 0 1 0.144531,-0.07031 3.9999998,3.9999998 0 0 1 0.181641,-0.07813 3.9999991,3.9999991 0 0 1 0.107422,-0.04297 3.9999998,3.9999998 0 0 1 0.152343,-0.05273 3.9999991,3.9999991 0 0 1 0.208985,-0.0625 3.9999998,3.9999998 0 0 1 0.07617,-0.01953 3.9999991,3.9999991 0 0 1 0.228515,-0.04883 3.9999998,3.9999998 0 0 1 0.101563,-0.01953 3.9999991,3.9999991 0 0 1 0.18164,-0.02344 3.9999998,3.9999998 0 0 1 0.138672,-0.01367 3.9999991,3.9999991 0 0 1 0.308592,-0.01367 z" />
  <path
     id="path7246-2"
     style="opacity:0.5;fill:url(#linearGradient10226);fill-opacity:1;stroke-width:8.99996;stroke-linecap:round;stroke-linejoin:round"
     d="m 32,23 c -4.970564,-1e-6 -9,4.029436 -9,9 -3e-6,4.970565 4.029435,9 9,9 4.970564,0 9.000004,-4.029436 9,-9 0,-4.970563 -4.029437,-9 -9,-9 z m 0,1 c 4.418277,2e-6 8,3.581723 8,8 0,4.418277 -3.581723,8 -8,8 -4.418279,0 -8.000001,-3.581721 -8,-8 0,-4.418279 3.581721,-8.000001 8,-8 z" />
  <path
     id="path151229-7"
     style="opacity:0.5;fill:url(#linearGradient11943);fill-opacity:1;stroke-width:2.48563;stroke-linecap:round;stroke-linejoin:round"
     d="M 7.2539062 18.898438 C 5.1793134 22.808419 4.0000003 27.265285 4 32 C 4 36.734716 5.1793135 41.191581 7.2539062 45.101562 L 22.072266 37.255859 C 21.209997 35.638035 20.755911 33.833257 20.75 32 C 20.756 30.166743 21.209997 28.361966 22.072266 26.744141 L 7.2539062 18.898438 z " />
  <path
     id="path151229-2"
     style="fill:#d0d0d0;fill-opacity:1;stroke-width:2.31992;stroke-linecap:round;stroke-linejoin:round"
     d="M 32 4 C 16.536043 4.0000011 4.0000011 16.536043 4 32 C 4 47.463958 16.536042 59.999999 32 60 C 47.463959 60 60 47.463959 60 32 C 59.999999 16.536042 47.463958 4 32 4 z M 32 5 C 46.911672 5.000001 58.999999 17.088328 59 32 C 59 46.911674 46.911673 58.999999 32 59 C 17.088326 58.999999 5 46.911673 5 32 C 5.000001 17.088328 17.088327 5.000002 32 5 z " />
  <path
     id="rect893"
     style="fill:url(#linearGradient1089);stroke-width:3;stroke-linecap:round;stroke-linejoin:round"
     d="m 13,44 h 37.999998 c 0.554004,0 1.000003,0.445999 1.000003,0.999999 V 59 c 0,0.553999 -0.445999,0.999998 -1.000003,0.999998 H 13 c -0.554,0 -1,-0.445999 -1,-0.999998 V 44.999999 C 12,44.445999 12.446,44 13,44 Z"
     sodipodi:nodetypes="sssssssss" />
  <path
     d="M 18.110321,57.134777 V 46.865222 h 2.907559 c 1.81424,0 3.172533,0.417753 4.074879,1.253258 0.90712,0.830731 1.36068,2.081602 1.36068,3.752613 0,1.585073 -0.50369,2.859816 -1.511071,3.824228 -1.002607,0.959637 -2.34419,1.439456 -4.024749,1.439456 z m 1.303388,-9.109396 v 7.949237 h 1.496749 c 1.312937,0 2.33464,-0.353299 3.065111,-1.059898 0.735245,-0.711373 1.102867,-1.716367 1.102867,-3.014981 0,-1.284291 -0.343751,-2.25109 -1.031252,-2.900397 -0.682727,-0.649307 -1.706818,-0.973961 -3.072273,-0.973961 z m 18.132853,9.109396 V 46.865222 h 2.907559 c 1.81424,0 3.172533,0.417753 4.074879,1.253258 0.90712,0.830731 1.36068,2.081602 1.36068,3.752613 0,1.585073 -0.50369,2.859816 -1.511071,3.824228 -1.002607,0.959637 -2.34419,1.439456 -4.024749,1.439456 z m 1.303389,-9.109396 v 7.949237 h 1.496748 c 1.312937,0 2.33464,-0.353299 3.065111,-1.059898 0.735245,-0.711373 1.102867,-1.716367 1.102867,-3.014981 0,-1.284291 -0.343751,-2.25109 -1.031252,-2.900397 -0.682727,-0.649307 -1.706818,-0.973961 -3.072273,-0.973961 z M 35.949554,46.865222 32.168296,57.134777 H 30.721678 L 27.019195,46.865222 h 1.446618 l 2.778652,8.049498 c 0.04774,0.133681 0.08832,0.279297 0.121746,0.43685 0.03342,0.152778 0.06207,0.315105 0.08594,0.48698 h 0.02865 c 0.0191,-0.148004 0.04775,-0.300782 0.08594,-0.458334 0.04297,-0.157553 0.0931,-0.317492 0.150391,-0.479819 l 2.828782,-8.035175 z"
     id="path943"
     style="fill:#ffffff" />
</svg>
