<?xml version="1.0" encoding="UTF-8" standalone="no"?>
<!-- Created with Inkscape (http://www.inkscape.org/) -->

<svg
   width="64"
   height="64"
   viewBox="0 0 64 64"
   version="1.1"
   id="svg2535"
   inkscape:version="1.2.1 (9c6d41e410, 2022-07-14, custom)"
   sodipodi:docname="media-memory.svg"
   xmlns:inkscape="http://www.inkscape.org/namespaces/inkscape"
   xmlns:sodipodi="http://sodipodi.sourceforge.net/DTD/sodipodi-0.dtd"
   xmlns:xlink="http://www.w3.org/1999/xlink"
   xmlns="http://www.w3.org/2000/svg"
   xmlns:svg="http://www.w3.org/2000/svg">
  <sodipodi:namedview
     id="namedview2537"
     pagecolor="#ffffff"
     bordercolor="#000000"
     borderopacity="0.25"
     inkscape:showpageshadow="2"
     inkscape:pageopacity="0.0"
     inkscape:pagecheckerboard="0"
     inkscape:deskcolor="#d1d1d1"
     inkscape:document-units="px"
     showgrid="false"
     inkscape:zoom="13.328125"
     inkscape:cx="32"
     inkscape:cy="32"
     inkscape:window-width="1920"
     inkscape:window-height="1029"
     inkscape:window-x="0"
     inkscape:window-y="0"
     inkscape:window-maximized="1"
     inkscape:current-layer="svg2535"
     showguides="true" />
  <defs
     id="defs2532">
    <linearGradient
       inkscape:collect="always"
       id="linearGradient2695">
      <stop
         style="stop-color:#dde1e6;stop-opacity:1;"
         offset="0"
         id="stop2691" />
      <stop
         style="stop-color:#aeb7c0;stop-opacity:1"
         offset="1"
         id="stop2693" />
    </linearGradient>
    <linearGradient
       inkscape:collect="always"
       id="linearGradient1686">
      <stop
         style="stop-color:#6f767b;stop-opacity:1;"
         offset="0"
         id="stop1682" />
      <stop
         style="stop-color:#51565a;stop-opacity:1;"
         offset="1"
         id="stop1684" />
    </linearGradient>
    <linearGradient
       inkscape:collect="always"
       id="linearGradient1668">
      <stop
         style="stop-color:#6f767b;stop-opacity:1;"
         offset="0"
         id="stop1664" />
      <stop
         style="stop-color:#505559;stop-opacity:1"
         offset="1"
         id="stop1666" />
    </linearGradient>
    <linearGradient
       inkscape:collect="always"
       xlink:href="#linearGradient1668"
       id="linearGradient69064"
       x1="26.943359"
       y1="4.0449219"
       x2="26.943359"
       y2="60.044922"
       gradientUnits="userSpaceOnUse"
       gradientTransform="translate(0.05664077,-0.0449196)" />
    <linearGradient
       inkscape:collect="always"
       xlink:href="#linearGradient2695"
       id="linearGradient110930"
       x1="53"
       y1="10"
       x2="53"
       y2="56"
       gradientUnits="userSpaceOnUse" />
    <linearGradient
       inkscape:collect="always"
       xlink:href="#linearGradient1686"
       id="linearGradient88697"
       x1="17"
       y1="7"
       x2="17.344841"
       y2="58.328091"
       gradientUnits="userSpaceOnUse" />
  </defs>
  <path
     id="rect63054"
     style="fill:url(#linearGradient69064);fill-opacity:1.0;stroke-width:1.90842;stroke-linejoin:round"
     d="m 14.999999,4.0000021 c -1.107999,0 -2,0.8919998 -2,2 V 58.000003 c 0,1.107999 0.892001,1.999997 2,1.999997 h 33.999998 c 1.108003,0 2.000002,-0.891998 2.000002,-1.999997 V 6.0000021 c 0,-1.1080002 -0.891999,-2 -2.000002,-2 H 35.939453 c 0.07737,0.3124837 0.116712,0.6331627 0.117203,0.9550779 0,2.209139 -1.790861,4.0000001 -4.000002,4.0000001 -2.209138,4e-7 -3.999999,-1.7908611 -3.999999,-4.0000001 0.0049,-0.3224693 0.04891,-0.6431581 0.130847,-0.9550779 z"
     sodipodi:nodetypes="ssssssssccsccs" />
  <path
     id="rect102042"
     style="fill:url(#linearGradient110930);fill-opacity:1;stroke-width:0.999999;stroke-linejoin:round"
     d="m 12.999999,10.000002 c -0.554003,0 -4.9999997,0.696 -4.9999997,1.25 v 1.5 c 0,0.554 4.4459967,1.25 4.9999997,1.25 h 11.685548 v -4 z m 26.884768,0 v 4 h 11.115232 c 0.553999,0 5.000001,-0.696 5.000001,-1.25 v -1.5 c 0,-0.554 -4.446002,-1.25 -5.000001,-1.25 z m -26.884768,6 c -0.554003,0 -4.9999997,0.696 -4.9999997,1.25 v 1.5 c 0,0.554 4.4459967,1.25 4.9999997,1.25 h 38 c 0.553999,0 5.000001,-0.696 5.000001,-1.25 v -1.5 c 0,-0.554 -4.446002,-1.25 -5.000001,-1.25 H 39.884767 v 1.111328 c 0,0.554 -0.445999,1 -1.000002,1 H 25.685546 c -0.554,0 -0.999999,-0.446 -0.999999,-1 v -1.111328 z m 0,6 c -0.554003,0 -4.9999997,0.696 -4.9999997,1.25 v 1.5 c 0,0.554 4.4459967,1.25 4.9999997,1.25 h 38 c 0.553999,0 5.000001,-0.696 5.000001,-1.25 v -1.5 c 0,-0.554 -4.446002,-1.25 -5.000001,-1.25 z m 0,6 c -0.554003,0 -4.9999997,0.696 -4.9999997,1.25 v 1.5 c 0,0.554 4.4459967,1.25 4.9999997,1.25 h 38 c 0.553999,0 5.000001,-0.696 5.000001,-1.25 v -1.5 c 0,-0.554 -4.446002,-1.25 -5.000001,-1.25 z m 0,6 c -0.554003,0 -4.9999997,0.696001 -4.9999997,1.25 v 1.499999 c 0,0.553999 4.4459967,1.250001 4.9999997,1.250001 h 38 C 51.553998,38.000002 56,37.304 56,36.750001 v -1.499999 c 0,-0.553999 -4.446002,-1.25 -5.000001,-1.25 z m 0,6.000001 c -0.554003,0 -4.9999997,0.696 -4.9999997,1.249999 v 1.5 c 0,0.554 4.4459967,1.25 4.9999997,1.25 h 38 c 0.553999,0 5.000001,-0.696 5.000001,-1.25 v -1.5 c 0,-0.553999 -4.446002,-1.249999 -5.000001,-1.249999 z m 0,6 c -0.554003,0 -4.9999997,0.696 -4.9999997,1.249999 v 1.5 c 0,0.554 4.4459967,1.25 4.9999997,1.25 h 38 c 0.553999,0 5.000001,-0.696 5.000001,-1.25 v -1.5 c 0,-0.553999 -4.446002,-1.249999 -5.000001,-1.249999 z m 0,6 c -0.554003,0 -4.9999997,0.696 -4.9999997,1.249999 v 1.5 c 0,0.554 4.4459967,1.25 4.9999997,1.25 h 38 c 0.553999,0 5.000001,-0.696 5.000001,-1.25 v -1.5 c 0,-0.553999 -4.446002,-1.249999 -5.000001,-1.249999 z" />
  <path
     id="rect63054-1-0"
     style="fill:#4d4d4d;fill-opacity:1;stroke-width:1.90842;stroke-linejoin:round"
     d="m 14.999999,4.0000021 c -1.108,0 -2,0.8919995 -2,2 V 7.000002 c 0,-1.1080003 0.892,-2.0000001 2,-2.0000001 H 28.060544 A 3.9999998,3.9999998 0 0 1 28.056744,4.9550779 3.9999998,3.9999998 0 0 1 28.187591,4 Z m 20.939454,0 a 3.9999998,3.9999998 0 0 1 0.117203,0.9550779 3.9999998,3.9999998 0 0 1 -0.002,0.044923 H 48.99997 c 1.108003,0 1.999998,0.8919998 1.999998,2 V 6.0000021 c 0,-1.1080005 -0.891995,-2 -1.999998,-2 z M 28.099609,5.4453145 A 3.9999998,3.9999998 0 0 0 28.056639,5.9550802 3.9999998,3.9999998 0 0 0 32.056642,9.95508 3.9999998,3.9999998 0 0 0 36.05664,5.9550802 3.9999998,3.9999998 0 0 0 36.02527,5.4609394 3.9999998,3.9999998 0 0 1 32.056521,8.9550801 3.9999998,3.9999998 0 0 1 28.099488,5.4453145 Z" />
  <path
     id="rect87987"
     style="fill:url(#linearGradient88697);fill-opacity:1.0;stroke-width:0.999999;stroke-linejoin:round"
     d="m 16.999999,7.000002 c -1.108,0 -2,0.8919998 -2,1.9999997 V 56.000005 c 0,1.107999 0.892,1.999998 2,1.999998 H 47 c 1.107999,0 2.000001,-0.891999 2.000001,-1.999998 V 9.0000017 C 49.000001,7.8920018 48.107999,7.000002 47,7.000002 H 35.939453 c 0.07733,0.3124838 0.116712,0.6331627 0.117203,0.9550779 0,2.2091391 -1.790861,4.0000001 -4.000002,4.0000001 -2.209138,10e-7 -3.999999,-1.790861 -3.999999,-4.0000001 0.0049,-0.3224693 0.04891,-0.6431581 0.130847,-0.9550779 z"
     sodipodi:nodetypes="ssssssssccsccs" />
  <path
     id="rect87987-6"
     style="fill:#4d4d4d;fill-opacity:1;stroke-width:0.999999;stroke-linejoin:round"
     d="m 28.058594,8.0000018 c 0.0018,0.1627654 0.01436,0.3229229 0.03515,0.4804687 0.02192,-0.1620775 0.05212,-0.3220006 0.09373,-0.4804687 z m 7.880859,0 c 0.03704,0.1491704 0.06448,0.3009751 0.08398,0.4531249 0.01852,-0.1487773 0.02948,-0.2997392 0.03137,-0.4531249 z M 14.999999,56.000005 v 0.999999 c 0,1.107999 0.892,2.000001 2,2.000001 H 47 c 1.107999,0 2.000001,-0.892002 2.000001,-2.000001 v -0.999999 c 0,1.107999 -0.892002,1.999998 -2.000001,1.999998 H 16.999999 c -1.108,0 -2,-0.891999 -2,-1.999998 z"
     sodipodi:nodetypes="cccccccccsssscssc" />
  <path
     id="rect87987-9"
     style="fill:#4d4d4d;fill-opacity:1;stroke-width:0.999999;stroke-linejoin:round"
     d="m 16.999999,7.000002 c -1.108,0 -2,0.8919998 -2,1.9999997 v 1.0000003 c 0,-1.1079999 0.892,-2.0000002 2,-2.0000002 h 11.058595 c -1.7e-4,-0.01508 -0.002,-0.029783 -0.002,-0.044923 0.0049,-0.3224693 0.04894,-0.6431581 0.130885,-0.9550779 z m 18.939454,0 c 0.07733,0.3124838 0.116674,0.6331627 0.117203,0.9550779 0,0.015118 -0.0018,0.029821 -0.002,0.044923 h 10.945362 c 1.108002,0 2.000001,0.8920003 2.000001,2.0000001 V 9.0000017 c 0,-1.1079999 -0.891999,-1.9999997 -2.000001,-1.9999997 z m 0.08398,1.4531247 c -0.245518,1.9737343 -1.926576,3.5019533 -3.966795,3.5019533 -2.03082,10e-7 -3.705336,-1.514089 -3.962892,-3.4746095 -0.02116,0.1569486 -0.03477,0.3159685 -0.03704,0.4746096 0,2.2091389 1.790861,4.0000009 4.000002,3.9999999 2.209138,0 3.999999,-1.790861 3.999999,-3.9999999 C 36.05645,8.7868382 36.044987,8.6197 36.023447,8.4531267 Z" />
  <path
     id="rect87987-3"
     style="fill:#8b9095;fill-opacity:1;stroke-width:0.999999;stroke-linejoin:round"
     d="m 16.999999,8.0000018 c -1.108,0 -2,0.8920003 -2,2.0000002 v 1 c 0,-1.1080001 0.892,-2.0000003 2,-2.0000003 h 11.058595 c -1.7e-4,-0.01508 -0.002,-0.029783 -0.002,-0.044923 0.0049,-0.3224693 0.04894,-0.6431576 0.130885,-0.9550779 z m 18.939454,0 c 0.07733,0.3124838 0.116712,0.6331631 0.117203,0.9550783 0,0.015118 -0.0018,0.02982 -0.002,0.044923 h 10.945362 c 1.107999,0 2.000001,0.8919998 2.000001,1.9999999 v -1.000001 c 0,-1.1079999 -0.892002,-2.0000002 -2.000001,-2.0000002 z m 0.08398,1.4531252 c -0.245518,1.973734 -1.926576,3.501953 -3.966795,3.501953 -2.030816,10e-7 -3.705336,-1.514089 -3.962892,-3.4746093 -0.02116,0.1569487 -0.03477,0.3159685 -0.03704,0.4746093 0,2.209139 1.790861,4.000001 4.000002,4 2.209138,0 3.999999,-1.790861 3.999999,-4 -2.53e-4,-0.1682419 -0.01172,-0.3353802 -0.03326,-0.501953 z" />
</svg>
