<?xml version="1.0" encoding="UTF-8" standalone="no"?>
<!-- Created with Inkscape (http://www.inkscape.org/) -->

<svg
   width="64"
   height="64"
   viewBox="0 0 64 64"
   version="1.1"
   id="svg144504"
   inkscape:version="1.2.2 (1:1.2.2+202305151914+b0a8486541)"
   sodipodi:docname="network-wireless.svg"
   xmlns:inkscape="http://www.inkscape.org/namespaces/inkscape"
   xmlns:sodipodi="http://sodipodi.sourceforge.net/DTD/sodipodi-0.dtd"
   xmlns:xlink="http://www.w3.org/1999/xlink"
   xmlns="http://www.w3.org/2000/svg"
   xmlns:svg="http://www.w3.org/2000/svg">
  <sodipodi:namedview
     id="namedview144506"
     pagecolor="#ffffff"
     bordercolor="#666666"
     borderopacity="1.0"
     inkscape:pageshadow="2"
     inkscape:pageopacity="0.0"
     inkscape:pagecheckerboard="0"
     inkscape:document-units="px"
     showgrid="false"
     units="px"
     inkscape:zoom="12.59375"
     inkscape:cx="31.960298"
     inkscape:cy="32"
     inkscape:window-width="1920"
     inkscape:window-height="1008"
     inkscape:window-x="0"
     inkscape:window-y="0"
     inkscape:window-maximized="1"
     inkscape:current-layer="svg144504"
     inkscape:showpageshadow="2"
     inkscape:deskcolor="#d1d1d1" />
  <defs
     id="defs144501">
    <linearGradient
       inkscape:collect="always"
       id="linearGradient329500">
      <stop
         style="stop-color:#000000;stop-opacity:0"
         offset="0"
         id="stop329496" />
      <stop
         style="stop-color:#000000;stop-opacity:0"
         offset="0.4698768"
         id="stop330200" />
      <stop
         style="stop-color:#000000;stop-opacity:1"
         offset="1"
         id="stop329498" />
    </linearGradient>
    <radialGradient
       inkscape:collect="always"
       xlink:href="#linearGradient329500"
       id="radialGradient329502"
       cx="8.4666672"
       cy="12.7"
       fx="8.4666672"
       fy="12.7"
       r="7.6729169"
       gradientUnits="userSpaceOnUse"
       gradientTransform="matrix(7.1680689,0,0,6.9074112,-28.689655,-34.724133)" />
    <radialGradient
       inkscape:collect="always"
       xlink:href="#linearGradient329500"
       id="radialGradient331953"
       cx="8.4666672"
       cy="12.170835"
       fx="8.4666672"
       fy="12.170835"
       r="4.2333336"
       gradientUnits="userSpaceOnUse"
       gradientTransform="matrix(6.614172,0,0,6.6141724,-23.999992,-29.499997)" />
  </defs>
  <path
     id="path332853"
     style="color:#000000;fill:#3cc2e2;stroke:none;stroke-width:2;stroke-linecap:round;stroke-linejoin:round;-inkscape-stroke:none"
     d="m 31.999999,12.003905 c -10.066137,0.0081 -19.776853,3.71502 -27.2832022,10.421875 a 1.0001,1.0001 0 0 0 -0.058594,1.439453 L 31.277343,51.687497 a 1.0001,1.0001 0 0 0 1.447265,0 l 26.625,-27.835936 a 1.0001,1.0001 0 0 0 -0.05078,-1.439453 C 51.787322,15.707581 42.068433,12.005155 31.999999,12.003905 Z" />
  <path
     id="path332859"
     style="color:#000000;fill:#1787d6;stroke-width:2;stroke-linecap:round;stroke-linejoin:round;-inkscape-stroke:none"
     d="m 31.999999,23.001952 c -7.228616,0.0089 -14.212417,2.628155 -19.664061,7.375 a 1.0001,1.0001 0 0 0 -0.06641,1.447266 l 19.007815,19.863279 a 1.0001,1.0001 0 0 0 1.447265,0 L 51.746091,31.80078 a 1.0001,1.0001 0 0 0 -0.06641,-1.439453 C 46.222039,25.617139 39.231403,23.002966 31.999999,23.001952 Z" />
  <path
     id="path332865"
     style="color:#000000;fill:url(#radialGradient329502);stroke-width:2;stroke-linecap:round;stroke-linejoin:round;-inkscape-stroke:none"
     d="m 31.999999,23.001952 c -7.228616,0.0089 -14.212417,2.628155 -19.664061,7.375 a 1.0001,1.0001 0 0 0 -0.06641,1.447266 l 19.007815,19.863279 a 1.0001,1.0001 0 0 0 1.447265,0 L 51.746091,31.80078 a 1.0001,1.0001 0 0 0 -0.06641,-1.439453 C 46.222039,25.617139 39.231403,23.002966 31.999999,23.001952 Z" />
  <path
     id="path332871"
     style="color:#000000;fill:#02589f;stroke-width:2;stroke-linecap:round;stroke-linejoin:round;-inkscape-stroke:none"
     d="m 31.999999,34.001952 c -4.374348,0.01005 -8.580522,1.701292 -11.736328,4.73047 a 1.0001,1.0001 0 0 0 -0.02929,1.417969 l 11.042971,11.537106 a 1.0001,1.0001 0 0 0 1.447265,0 l 11.05663,-11.558592 a 1.0001,1.0001 0 0 0 -0.02948,-1.410157 c -3.162762,-3.02632 -7.37427,-4.716038 -11.751768,-4.716796 z" />
  <path
     id="path332877"
     style="color:#000000;opacity:0.2;fill:url(#radialGradient331953);stroke-width:2;stroke-linecap:round;stroke-linejoin:round;-inkscape-stroke:none"
     d="m 31.999999,34.001952 c -4.376639,0.0029 -8.582939,1.689953 -11.744141,4.716796 a 1.0001,1.0001 0 0 0 -0.03712,1.416015 l 11.058595,11.552734 a 1.0001,1.0001 0 0 0 1.447265,0 L 43.781247,40.128905 a 1.0001,1.0001 0 0 0 -0.02948,-1.410157 C 40.588703,35.693186 36.377209,34.002151 31.999999,34.001952 Z" />
</svg>
