<?xml version="1.0" encoding="UTF-8" standalone="no"?>
<!-- Created with Inkscape (http://www.inkscape.org/) -->

<svg
   width="64"
   height="64"
   viewBox="0 0 64 64"
   version="1.1"
   id="svg5"
   inkscape:version="1.2.1 (9c6d41e410, 2022-07-14, custom)"
   sodipodi:docname="tablet.svg"
   xmlns:inkscape="http://www.inkscape.org/namespaces/inkscape"
   xmlns:sodipodi="http://sodipodi.sourceforge.net/DTD/sodipodi-0.dtd"
   xmlns:xlink="http://www.w3.org/1999/xlink"
   xmlns="http://www.w3.org/2000/svg"
   xmlns:svg="http://www.w3.org/2000/svg">
  <sodipodi:namedview
     id="namedview7"
     pagecolor="#ffffff"
     bordercolor="#666666"
     borderopacity="1.0"
     inkscape:pageshadow="2"
     inkscape:pageopacity="0.0"
     inkscape:pagecheckerboard="0"
     inkscape:document-units="px"
     showgrid="false"
     units="px"
     inkscape:zoom="12.921875"
     inkscape:cx="31.961306"
     inkscape:cy="32"
     inkscape:window-width="1920"
     inkscape:window-height="1029"
     inkscape:window-x="0"
     inkscape:window-y="0"
     inkscape:window-maximized="1"
     inkscape:current-layer="svg5"
     inkscape:showpageshadow="2"
     inkscape:deskcolor="#d1d1d1"
     inkscape:lockguides="true" />
  <defs
     id="defs2">
    <linearGradient
       inkscape:collect="always"
       xlink:href="#linearGradient1116"
       id="linearGradient1031"
       x1="4.2333336"
       y1="4.3656249"
       x2="8.9958334"
       y2="4.3656249"
       gradientUnits="userSpaceOnUse"
       gradientTransform="matrix(11.75853,0,0,5.2913386,-45.777774,8.1999997)" />
    <linearGradient
       inkscape:collect="always"
       id="linearGradient1116">
      <stop
         style="stop-color:#555a5f;stop-opacity:1;"
         offset="0"
         id="stop1112" />
      <stop
         style="stop-color:#4b4f53;stop-opacity:1"
         offset="1"
         id="stop1114" />
    </linearGradient>
    <linearGradient
       inkscape:collect="always"
       xlink:href="#linearGradient2301"
       id="linearGradient1359"
       x1="13.000001"
       y1="5"
       x2="35"
       y2="34.629631"
       gradientUnits="userSpaceOnUse"
       gradientTransform="matrix(2.4545455,0,0,1.35,-26.909094,5.2499998)" />
    <linearGradient
       inkscape:collect="always"
       id="linearGradient2301">
      <stop
         style="stop-color:#3fe3e7;stop-opacity:1;"
         offset="0"
         id="stop2297" />
      <stop
         style="stop-color:#066bbc;stop-opacity:1"
         offset="1"
         id="stop2299" />
    </linearGradient>
  </defs>
  <path
     id="rect2343"
     style="fill:#b8c2cc;stroke-width:3;stroke-linecap:round;stroke-linejoin:round"
     d="M 26.999904,10.947362 C 26.972624,9.8634813 26.090591,9.0000963 24.999903,9.0000963 h -4 c -1.108,0 -2,0.892 -2,1.9999997 0,1.108 0.892,2 2,2 h 4 c 1.108,0 2.000001,-0.892 2.000001,-2 0,-0.01731 4.33e-4,-0.03553 0,-0.05273 z m -10.000001,0 c -0.02728,-1.0838807 -0.909312,-1.9472657 -2,-1.9472657 h -4 c -1.108,0 -2,0.892 -2,1.9999997 0,1.108 0.892,2 2,2 h 4 c 1.108,0 2,-0.892 2,-2 0,-0.01731 4.33e-4,-0.03553 0,-0.05273 z"
     sodipodi:nodetypes="ssssssscssssssscss" />
  <rect
     style="fill:url(#linearGradient1031);fill-opacity:1;stroke-width:4.17399;stroke-linecap:round;stroke-linejoin:round"
     id="rect468"
     width="56"
     height="42"
     x="3.9999981"
     y="11"
     ry="4" />
  <rect
     style="fill:url(#linearGradient1359);fill-opacity:1;stroke-width:1.82034;stroke-linecap:round"
     id="rect794"
     width="54"
     height="40"
     x="5"
     y="12"
     ry="3" />
</svg>
