<?xml version="1.0" encoding="UTF-8" standalone="no"?>
<!-- Created with Inkscape (http://www.inkscape.org/) -->

<svg
   width="24"
   height="24"
   viewBox="0 0 24 24"
   version="1.1"
   id="svg433"
   inkscape:version="1.2.2 (1:1.2.2+202305151914+b0a8486541)"
   sodipodi:docname="configure.svg"
   xmlns:inkscape="http://www.inkscape.org/namespaces/inkscape"
   xmlns:sodipodi="http://sodipodi.sourceforge.net/DTD/sodipodi-0.dtd"
   xmlns="http://www.w3.org/2000/svg"
   xmlns:svg="http://www.w3.org/2000/svg">
  <sodipodi:namedview
     id="namedview435"
     pagecolor="#ffffff"
     bordercolor="#000000"
     borderopacity="0.25"
     inkscape:showpageshadow="2"
     inkscape:pageopacity="0.0"
     inkscape:pagecheckerboard="0"
     inkscape:deskcolor="#d1d1d1"
     inkscape:document-units="px"
     showgrid="false"
     inkscape:zoom="34.583333"
     inkscape:cx="11.985542"
     inkscape:cy="12"
     inkscape:window-width="1920"
     inkscape:window-height="1008"
     inkscape:window-x="0"
     inkscape:window-y="0"
     inkscape:window-maximized="1"
     inkscape:current-layer="svg433" />
  <defs
     id="defs430">
    <style
       id="current-color-scheme"
       type="text/css">
         .ColorScheme-Text {
         color:#dedede;}
      </style>
  </defs>
  <path
     id="path1255"
     style="clip-rule:evenodd;fill:currentColor;fill-opacity:1;fill-rule:evenodd;stroke-width:2;stroke-linecap:round;stroke-linejoin:round;-inkscape-stroke:none"
     class="ColorScheme-Text"
     d="M 11.447314,3.0000002 C 10.853216,2.9999884 10.282387,3.2351325 9.8633288,3.6562502 9.4468014,4.0747579 9.2130282,4.6442616 9.2129382,5.2343752 9.2040507,5.8506112 8.715713,6.3348464 8.099657,6.3359377 7.9164299,6.3336539 7.7377258,6.2810352 7.5801257,6.1875002 c -0.00293,-0.0015 -0.00489,-0.00247 -0.00781,-0.00391 C 6.5055363,5.5723205 5.1294674,5.9444226 4.5156726,7.0097658 l -0.5800781,0.953125 c -0.00225,0.00363 -0.00556,0.00803 -0.00781,0.011719 C 3.3147048,9.0386363 3.6826587,10.413856 4.7441882,11.03125 l 0.00195,0.002 C 5.0924839,11.23309 5.3047351,11.600143 5.3047351,12 c 0,0.399981 -0.2121981,0.766784 -0.5585937,0.966797 -1.0613498,0.613974 -1.4311867,1.986837 -0.8183594,3.048828 -1.2e-6,7.51e-4 -1.2e-6,0.0031 0,0.0039 l 0.5507812,0.945313 0.00195,0.0039 c 0.2892237,0.520138 0.7731278,0.903731 1.3457031,1.066406 0.5735875,0.16309 1.1889015,0.09042 1.7089843,-0.201172 0.00225,-0.0015 0.00556,-0.0024 0.00781,-0.0039 0.2537864,-0.148105 0.5560537,-0.189274 0.8398437,-0.113281 h 0.00195 c 0.2838463,0.07594 0.5240331,0.262576 0.6699219,0.517578 l 0.00391,0.0078 c 0.09396,0.158351 0.1465252,0.337435 0.1484374,0.521484 C 9.210004,19.992744 10.217495,21 11.447314,21 h 1.101562 c 1.227478,0 2.234387,-1.004967 2.240234,-2.232422 5e-6,-0.0015 5e-6,-0.0024 0,-0.0039 -0.0015,-0.296121 0.116758,-0.579578 0.326172,-0.789063 0.208203,-0.208199 0.488917,-0.322366 0.783204,-0.322265 0.186161,0.0061 0.371294,0.05642 0.533203,0.148437 1.063679,0.610961 2.437744,0.244258 3.054687,-0.816406 l 0.574219,-0.958984 c 0.0015,-0.0023 0.0024,-0.0037 0.0039,-0.0059 0.299214,-0.5135 0.381718,-1.124809 0.228516,-1.699219 -0.153173,-0.574227 -0.527826,-1.064971 -1.042969,-1.361328 -0.256038,-0.147281 -0.44338,-0.390324 -0.519531,-0.675781 -0.07612,-0.285332 -0.03541,-0.588545 0.113281,-0.84375 7.56e-4,-0.0015 0.0012,-0.0024 0.002,-0.0039 0.09589,-0.167399 0.234821,-0.306382 0.402344,-0.402344 0.0015,-7.24e-4 0.0024,-0.0013 0.0039,-0.002 1.011467,-0.591847 1.379402,-1.8698777 0.875,-2.910156 -0.01271,-0.051629 -0.03392,-0.1004623 -0.06055,-0.1464844 L 19.519579,7.0253908 C 18.905763,5.9601263 17.529768,5.5879893 16.462939,6.199219 c -0.0023,0.00145 -0.0037,0.00242 -0.0059,0.00391 -0.253795,0.14956 -0.556391,0.1932177 -0.841757,0.1191368 C 15.330009,6.2481961 15.0867,6.0628866 14.937548,5.808594 V 5.806644 C 14.843668,5.6484304 14.791056,5.4692051 14.78911,5.2851564 14.800534,4.6873319 14.573461,4.1088547 14.156298,3.6796877 13.734111,3.2454076 13.154539,2.9997527 12.548876,3.0000002 Z m 0,1 h 1.101562 c 0.33581,-1.372e-4 0.656831,0.1345095 0.890625,0.375 0.233074,0.2397808 0.359279,0.5682189 0.349609,0.9042969 h 0.0059 c -0.002,0.00195 -0.0039,0.0039 -0.0059,0.00586 v 0.00977 0.011719 c 0.0013,0.00131 0.0026,0.00261 0.0039,0.00391 0.0058,0.3103186 0.109315,0.6026533 0.246093,0.8730469 0.0087,0.044365 0.0205,0.088085 0.03516,0.1308593 l 0.002,0.00195 c 0.283054,0.481111 0.743592,0.8334886 1.287109,0.9746094 h 0.002 c 0.541641,0.1406094 1.117913,0.05669 1.597657,-0.2246094 l 0.002,-0.00195 c 0.592582,-0.3367275 1.348782,-0.1302876 1.689453,0.4609375 l 0.535156,0.9277344 c 0.01039,0.035821 0.02278,0.071032 0.03711,0.1054688 0.280534,0.5787737 0.08283,1.2783278 -0.476562,1.607422 l -0.002,0.002 c -0.320778,0.18421 -0.58595,0.448877 -0.769622,0.769525 -0.282526,0.485988 -0.35652,1.065128 -0.212891,1.603516 0.144631,0.542157 0.502013,1.004602 0.986328,1.283203 0.282794,0.162688 0.491215,0.435403 0.576172,0.753906 0.08469,0.317543 0.0389,0.652858 -0.126953,0.9375 l -0.572266,0.955078 c -0.002,0.0033 -0.004,0.0065 -0.0059,0.0098 -0.342585,0.588976 -1.102859,0.792297 -1.693359,0.453125 -0.0013,-6.7e-4 -0.0026,-0.0013 -0.0039,-0.002 -0.305571,-0.173674 -0.646119,-0.267894 -0.99414,-0.279297 -0.01107,-1.84e-4 -0.02214,-1.84e-4 -0.0332,0 -0.554787,-1.91e-4 -1.092931,0.217935 -1.490235,0.615234 -0.395599,0.395731 -0.621483,0.935366 -0.619141,1.498047 C 13.784919,19.447425 13.229883,20 12.548876,20 h -1.101562 c -0.683524,0 -1.238612,-0.554943 -1.240235,-1.238281 1.6e-5,-0.0033 1.6e-5,-0.0065 0,-0.0098 -0.0038,-0.362575 -0.109139,-0.71371 -0.2890626,-1.017578 C 9.6404786,17.251651 9.1814151,16.8961 8.6426257,16.751953 h -0.00195 C 8.1018418,16.607666 7.5249272,16.683093 7.0410632,16.964844 6.7533137,17.124059 6.4137417,17.163524 6.099657,17.074219 5.7832812,16.984333 5.513832,16.77065 5.3535632,16.482422 5.3141123,16.41179 5.2662358,16.346207 5.2109851,16.287109 l 0.076172,0.08008 -0.4824219,-0.830079 c -0.00319,-0.0065 -0.00644,-0.01306 -0.00977,-0.01953 C 4.4555619,14.929389 4.6575145,14.172544 5.2461414,13.832031 5.8982305,13.45551 6.3047351,12.75283 6.3047351,12 c 0,-0.74581 -0.3993967,-1.441195 -1.0410156,-1.820312 -0.00581,-0.0046 -0.011668,-0.0092 -0.017578,-0.01367 C 4.6558503,9.822698 4.4540584,9.0662805 4.7949695,8.4746096 L 5.3691882,7.5292971 c 0.00398,-0.00647 0.00789,-0.012976 0.011719,-0.019531 0.3413913,-0.5925425 1.100276,-0.7988265 1.6933594,-0.4589844 0.3022445,0.178526 0.6510582,0.2806609 1.0117187,0.2851563 0.00456,3.12e-5 0.00911,3.12e-5 0.013672,0 1.1383318,-0.00202 2.0968737,-0.9483321 2.1132807,-2.0859375 4.1e-5,-0.00521 4.1e-5,-0.010417 0,-0.015625 5e-5,-0.3261256 0.130551,-0.641182 0.359375,-0.8710938 0.230346,-0.231478 0.545593,-0.363288 0.875001,-0.3632815 z m -1.5292976,13.7343748 0.03125,0.05273 c -0.00862,-0.01719 -0.017743,-0.03412 -0.027344,-0.05078 -7.364e-4,-0.0013 -0.00317,-5.74e-4 -0.00391,-0.002 z M 12.000048,8.0000002 c -2.2091351,0 -4.0000004,1.7908654 -4.0000004,3.9999998 0,2.209135 1.7908653,4 4.0000004,4 2.209135,0 4,-1.790865 4,-4 0,-2.2091344 -1.790865,-3.9999998 -4,-3.9999998 z m 0,1 c 1.65685,0 3,1.3431488 3,2.9999998 0,1.65685 -1.34315,3 -3,3 -1.656851,0 -3.0000004,-1.34315 -3.0000004,-3 0,-1.656851 1.3431494,-2.9999998 3.0000004,-2.9999998 z" />
</svg>
