<?xml version="1.0" encoding="UTF-8" standalone="no"?>
<!-- Created with Inkscape (http://www.inkscape.org/) -->

<svg
   width="24"
   height="24"
   viewBox="0 0 24 24.000002"
   version="1.1"
   id="svg5"
   inkscape:version="1.2.2 (1:1.2.2+202305151914+b0a8486541)"
   sodipodi:docname="go-parent-folder.svg"
   xmlns:inkscape="http://www.inkscape.org/namespaces/inkscape"
   xmlns:sodipodi="http://sodipodi.sourceforge.net/DTD/sodipodi-0.dtd"
   xmlns="http://www.w3.org/2000/svg"
   xmlns:svg="http://www.w3.org/2000/svg">
  <sodipodi:namedview
     id="namedview7"
     pagecolor="#ffffff"
     bordercolor="#000000"
     borderopacity="0.25"
     inkscape:showpageshadow="2"
     inkscape:pageopacity="0.0"
     inkscape:pagecheckerboard="0"
     inkscape:deskcolor="#d1d1d1"
     inkscape:document-units="px"
     showgrid="false"
     inkscape:zoom="34.583333"
     inkscape:cx="11.985542"
     inkscape:cy="12"
     inkscape:window-width="1920"
     inkscape:window-height="1008"
     inkscape:window-x="0"
     inkscape:window-y="0"
     inkscape:window-maximized="1"
     inkscape:current-layer="svg5" />
  <defs
     id="defs2">
    <style
       id="current-color-scheme"
       type="text/css">
         .ColorScheme-Text {
         color:#dedede;}
      </style>
  </defs>
  <path
     id="path347"
     style="fill:currentColor;stroke-width:1.5;stroke-linecap:round;stroke-linejoin:round;paint-order:stroke fill markers"
     class="ColorScheme-Text"
     d="M 5,4 C 3.8920033,4 3,4.8920033 3,6 v 12 c 0,1.107997 0.8920033,2 2,2 h 8.267578 C 13.013806,19.691421 12.794412,19.356108 12.613281,19 H 5 C 4.4460018,19 4,18.553997 4,18 V 9 h 6 l 2,-2 h 7 c 0.553997,0 1,0.4460018 1,1 v 3.603516 c 0.356108,0.18113 0.69142,0.400525 1,0.654296 V 8 C 21,6.8920033 20.107997,6 19,6 H 12 L 10,4 Z M 5,5 H 9.5859375 L 11.082031,6.5039062 9.5859375,8 H 4 V 6 C 4,5.4460018 4.4460018,5 5,5 Z m 12.5,7 C 15.014723,12 13,14.014723 13,16.5 13,18.985278 15.014723,21 17.5,21 19.985276,21 22,18.985278 22,16.5 22,14.014723 19.985276,12 17.5,12 Z m 0,1 3.5,3.5 -0.707031,0.707031 L 18,14.914062 v 5 h -1 v -5 L 14.707031,17.207031 14,16.5 Z" />
</svg>
