<?xml version="1.0" encoding="UTF-8" standalone="no"?>
<!-- Created with Inkscape (http://www.inkscape.org/) -->

<svg
   width="24"
   height="24"
   viewBox="0 0 24 24"
   version="1.1"
   id="svg423"
   inkscape:version="1.3.2 (091e20ef0f, 2023-11-25, custom)"
   sodipodi:docname="notifications.svg"
   xmlns:inkscape="http://www.inkscape.org/namespaces/inkscape"
   xmlns:sodipodi="http://sodipodi.sourceforge.net/DTD/sodipodi-0.dtd"
   xmlns="http://www.w3.org/2000/svg"
   xmlns:svg="http://www.w3.org/2000/svg">
  <sodipodi:namedview
     id="namedview425"
     pagecolor="#ffffff"
     bordercolor="#000000"
     borderopacity="0.25"
     inkscape:showpageshadow="2"
     inkscape:pageopacity="0.0"
     inkscape:pagecheckerboard="0"
     inkscape:deskcolor="#d1d1d1"
     inkscape:document-units="px"
     showgrid="false"
     inkscape:zoom="28.833333"
     inkscape:cx="11.982659"
     inkscape:cy="12"
     inkscape:window-width="1920"
     inkscape:window-height="899"
     inkscape:window-x="0"
     inkscape:window-y="0"
     inkscape:window-maximized="1"
     inkscape:current-layer="svg423" />
  <defs
     id="defs420">
    <style
       id="current-color-scheme"
       type="text/css">
   .ColorScheme-Text { color:#dedede; } .ColorScheme-Highlight { color:#4285f4; } .ColorScheme-NeutralText { color:#ff9800; } .ColorScheme-PositiveText { color:#4caf50; } .ColorScheme-NegativeText { color:#f44336; }
   </style>
  </defs>
  <path
     id="path976"
     class="ColorScheme-Text"
     style="fill:currentColor;fill-opacity:1;stroke:none;stroke-width:2;stroke-linecap:round"
     d="M 11.994141,5 C 8.767557,5 6.1225996,7.4512745 6,10.568359 l -0.00391,0.22461 v 3.607422 l -0.9238282,2.216797 -0.042969,0.126953 -0.021484,0.126953 c -0.0504,0.463495 0.1927376,0.881764 0.6035156,1.052734 l 0.125,0.04297 C 5.8208952,17.989595 5.9081438,18 5.9960938,18 H 9 c 0.348906,1.113462 1.122771,2.002544 3,2 1.877229,0.0025 2.651093,-0.886538 3,-2 h 2.998047 l 0.134765,-0.0098 0.115235,-0.02734 c 0.452695,-0.129 0.75,-0.514891 0.75,-0.962891 l -0.0098,-0.130859 -0.01367,-0.08594 c -0.0127,-0.0569 -0.03013,-0.111919 -0.05273,-0.166015 l -0.925781,-2.21875 v -3.595671 l -0.0039,-0.224609 -0.01367,-0.222656 C 17.738036,7.3350217 15.143124,5 11.994141,5 Z m 0,1 c 2.65308,0 4.785612,1.940008 4.986328,4.431641 1.18e-4,0.0015 0.0018,0.0024 0.002,0.0039 l 0.0098,0.18164 0.0039,0.19336 v 3.789062 l 0.998047,2.388672 v 0.0059 0.002 h -0.0039 L 6,17 H 5.99805 5.9961 c 0.00154,-0.0026 0.00377,-0.0023 0.00586,-0.02148 v 0.0098 L 6.00782,16.96879 6.9961013,14.599649 V 10.800781 L 7,10.607422 C 7.1012109,8.0341401 9.274027,6 11.994141,6 Z M 10,18 h 4 c -0.27502,0.473148 -0.737098,1.0019 -2,1 -1.262902,0.0019 -1.72498,-0.526852 -2,-1 z" />
</svg>
