<?xml version="1.0" encoding="UTF-8" standalone="no"?>
<svg
   version="1.1"
   viewBox="0 0 24 24"
   id="svg1"
   sodipodi:docname="sticky-delete.svg"
   width="24"
   height="24"
   inkscape:version="1.4.2 (ebf0e940d0, 2025-05-08)"
   xmlns:inkscape="http://www.inkscape.org/namespaces/inkscape"
   xmlns:sodipodi="http://sodipodi.sourceforge.net/DTD/sodipodi-0.dtd"
   xmlns="http://www.w3.org/2000/svg"
   xmlns:svg="http://www.w3.org/2000/svg">
  <sodipodi:namedview
     id="namedview1"
     pagecolor="#ffffff"
     bordercolor="#000000"
     borderopacity="0.25"
     inkscape:showpageshadow="2"
     inkscape:pageopacity="0.0"
     inkscape:pagecheckerboard="0"
     inkscape:deskcolor="#d1d1d1"
     inkscape:zoom="33.208333"
     inkscape:cx="12"
     inkscape:cy="12"
     inkscape:window-width="1920"
     inkscape:window-height="1011"
     inkscape:window-x="0"
     inkscape:window-y="0"
     inkscape:window-maximized="1"
     inkscape:current-layer="svg1" />
  <defs
     id="defs1">
    <style
       id="current-color-scheme"
       type="text/css">.ColorScheme-Text {
        color:#dedede;
      }
      .ColorScheme-NegativeText {
        color:#da4453;
      }</style>
  </defs>
  <path
     class="ColorScheme-Text"
     d="M 10,2 C 8.892,2 8,2.892 8,4 V 5 H 3.5 C 3.223,5 3,5.223 3,5.5 3,5.777 3.23687,6.08656 3.5,6 h 0.49805 l 0.54688,13.061 c 0.0612,1.0155 0.9062,1.9395 1.998,1.9395 h 9.9141 c 1.0919,0 1.9368,-0.92386 1.998,-1.9395 L 19.00191,6 h 0.49805 c 0.277,0 0.5,-0.223 0.5,-0.5 0,-0.277 -0.22318,-0.48992 -0.5,-0.5 h -4.5 V 4 c 0,-1.108 -0.892,-2 -2,-2 h -3 z m 0,1 h 3 c 0.554,0 1,0.446 1,1 V 5 H 9 V 4 C 9,3.446 9.446,3 10,3 Z M 5,6 h 13 l -0.54297,13 c -0.03333,0.553 -0.446,1 -1,1 h -9.9141 c -0.554,0 -0.96667,-0.447 -1,-1 L 4.99996,6 Z M 8.5,8 C 8.223,8 8,8.223 8,8.5 v 9 C 8,17.777 8.223,18 8.5,18 8.777,18 9,17.777 9,17.5 v -9 C 9,8.223 8.777,8 8.5,8 Z m 3.002,0 c -0.277,0 -0.5,0.223 -0.5,0.5 v 9 c 0,0.277 0.223,0.5 0.5,0.5 0.277,0 0.5,-0.223 0.5,-0.5 v -9 C 12.002,8.223 11.779,8 11.502,8 Z M 14.5,8 C 14.223,8 14,8.223 14,8.5 v 9 c 0,0.277 0.223,0.5 0.5,0.5 0.277,0 0.5,-0.223 0.5,-0.5 v -9 C 15,8.223 14.777,8 14.5,8 Z"
     fill="currentColor"
     id="path1" />
</svg>
