<?xml version="1.0" encoding="UTF-8" standalone="no"?>
<!-- Created with Inkscape (http://www.inkscape.org/) -->

<svg
   width="22"
   height="22"
   viewBox="0 0 22 22"
   version="1.1"
   id="svg2112"
   inkscape:version="1.3.2 (091e20ef0f, 2023-11-25, custom)"
   sodipodi:docname="obs-tray-active.svg"
   xmlns:inkscape="http://www.inkscape.org/namespaces/inkscape"
   xmlns:sodipodi="http://sodipodi.sourceforge.net/DTD/sodipodi-0.dtd"
   xmlns="http://www.w3.org/2000/svg"
   xmlns:svg="http://www.w3.org/2000/svg">
  <sodipodi:namedview
     id="namedview2114"
     pagecolor="#ffffff"
     bordercolor="#000000"
     borderopacity="0.25"
     inkscape:showpageshadow="2"
     inkscape:pageopacity="0.0"
     inkscape:pagecheckerboard="0"
     inkscape:deskcolor="#d1d1d1"
     inkscape:document-units="px"
     showgrid="false"
     inkscape:zoom="36.545455"
     inkscape:cx="11"
     inkscape:cy="11"
     inkscape:window-width="1920"
     inkscape:window-height="1008"
     inkscape:window-x="0"
     inkscape:window-y="0"
     inkscape:window-maximized="1"
     inkscape:current-layer="svg2112" />
  <defs
     id="defs2109">
    <style
       id="current-color-scheme"
       type="text/css">
   .ColorScheme-Text { color:#363636; } .ColorScheme-Highlight { color:#3daee9; } .ColorScheme-NeutralText { color:#ff9800; } .ColorScheme-PositiveText { color:#4caf50; } .ColorScheme-NegativeText { color:#f44336; }
    </style>
  </defs>
  <path
     id="path1"
     style="fill:currentColor"
     class="ColorScheme-Text"
     d="m 11,4 c -3.8659854,0 -7,3.1340146 -7,7 0,3.511646 2.5855953,6.420315 5.957031,6.923828 A 5,5 0 0 1 9.3125,16.705078 c -0.278747,-0.08333 -0.5514644,-0.186659 -0.8164062,-0.310547 0.2380625,0 0.4737641,-0.01172 0.6933592,-0.04492 a 5,5 0 0 1 -0.18164,-1.23633 c -0.4524937,0.247761 -0.9627066,0.370427 -1.4414068,0.316407 -0.1274896,-0.01474 -0.2218339,-0.02067 -0.3085937,-0.01953 -0.04344,0 -0.073686,-0.0088 -0.1660156,0.01953 -0.01089,0.0023 -0.027176,0.01386 -0.041016,0.01953 C 5.7771752,14.32087 5.0471579,12.701541 5.0449219,11 5.0444911,9.185523 5.8713972,7.4698922 7.2910156,6.3398438 7.0562362,6.8553426 6.9010938,7.517601 6.9023438,8.0625 c 0.0013,0.508689 0.1254297,1.113304 0.3183593,1.595703 0.05093,0.12737 0.1126754,0.29778 0.296875,0.41211 0.1841996,0.114329 0.3150104,0.109989 0.5,0.130859 0.1607198,0.01803 0.4937454,0.09004 0.640625,0.140625 0.7218969,0.248334 1.2551439,0.78032 1.5332029,1.423828 a 5,5 0 0 1 0.408203,-0.417969 c -0.216991,-0.339504 -0.489134,-0.653573 -0.804687,-0.925781 0.629086,0.235638 1.289569,0.283195 1.927734,0.138672 A 5,5 0 0 1 14,10 5,5 0 0 1 17.9375,11.921875 C 17.977255,11.619957 18,11.312772 18,11 18,7.1340146 14.865985,4 11,4 Z m 0,1.0449219 c 3.041912,0.00359 5.592025,2.2993989 5.914062,5.3242191 C 16.749604,10.106911 16.558999,9.85547 16.324219,9.625 15.672049,8.9789512 14.880504,8.5945498 13.941406,8.46875 13.800766,8.449922 13.682736,8.415894 13.492188,8.486328 13.300508,8.556196 13.206761,8.7090776 13.150391,8.8046874 13.068951,8.9424972 12.60394,9.415992 12.34375,9.582031 c -0.738029,0.471609 -1.999636,0.471829 -2.740234,0 C 8.7277874,9.024223 8.229219,7.9312949 8.3867188,6.9667969 8.4759788,6.4208979 8.7072977,5.9460617 9.091797,5.5390625 9.171647,5.4544505 9.23248,5.3886542 9.28125,5.3339844 9.29305,5.3208274 9.30229,5.3040844 9.3125,5.2929684 9.860181,5.1297355 10.428512,5.0461983 11,5.0449219 Z m -3.2539062,2.8085937 0.00195,0.00391 C 7.8521698,8.4837268 8.1034714,9.013454 8.5253906,9.501953 8.380511,9.469173 8.2386748,9.424783 8.109375,9.410153 8.0050352,9.398323 7.9724269,9.391063 7.9667969,9.392573 c 4.97e-4,0.0012 0.00115,0.0041 0.00195,0.0059 -0.0031,-0.0028 -0.00511,-0.0051 -0.00391,-0.0059 -0.0024,-0.0057 -0.0012,-0.0053 -0.011719,-0.0293 C 7.8078423,8.9998821 7.6982856,8.4324161 7.6972656,8.0605469 7.6971526,8.0056509 7.7399638,7.9195256 7.7460938,7.8535156 Z M 13.800781,9.240234 c 0.01021,6.81e-4 -0.02578,0.0076 0.0332,0.01563 0.32325,0.04333 0.51944,0.270817 0.78711,0.378907 -0.33573,-0.0507 -0.637939,-0.243387 -0.980469,-0.185547 -0.06919,0.01112 -0.08933,0.09223 -0.15625,0.107422 0.10094,-0.11274 0.244946,-0.201277 0.316406,-0.316407 z" />
  <path
     d="m 14,11 c -2.209139,0 -4,1.790861 -4,4 0,2.209139 1.790861,4 4,4 2.209139,0 4,-1.790861 4,-4 0,-2.209139 -1.790861,-4 -4,-4 z m 0,1 c 1.656854,0 3,1.343146 3,3 0,1.656854 -1.343146,3 -3,3 -1.656854,0 -3,-1.343146 -3,-3 0,-1.656854 1.343146,-3 3,-3 z m -1,1 v 4 l 3,-2 z"
     style="fill:currentColor"
     id="path1-3"
     class="ColorScheme-Highlight" />
</svg>
