<?xml version="1.0" encoding="UTF-8" standalone="no"?>
<svg
   width="16"
   height="16"
   version="1.1"
   viewBox="0 0 16 16"
   id="svg6"
   sodipodi:docname="drive-multidisk.svg"
   inkscape:version="1.2.1 (9c6d41e410, 2022-07-14, custom)"
   xmlns:inkscape="http://www.inkscape.org/namespaces/inkscape"
   xmlns:sodipodi="http://sodipodi.sourceforge.net/DTD/sodipodi-0.dtd"
   xmlns:xlink="http://www.w3.org/1999/xlink"
   xmlns="http://www.w3.org/2000/svg"
   xmlns:svg="http://www.w3.org/2000/svg"
   xmlns:rdf="http://www.w3.org/1999/02/22-rdf-syntax-ns#"
   xmlns:cc="http://creativecommons.org/ns#"
   xmlns:dc="http://purl.org/dc/elements/1.1/">
  <defs
     id="defs10">
    <linearGradient
       inkscape:collect="always"
       id="linearGradient58462">
      <stop
         style="stop-color:#636363;stop-opacity:1;"
         offset="0"
         id="stop58458" />
      <stop
         style="stop-color:#ababab;stop-opacity:0.99607843"
         offset="1"
         id="stop58460" />
    </linearGradient>
    <linearGradient
       inkscape:collect="always"
       id="linearGradient50927">
      <stop
         style="stop-color:#000000;stop-opacity:1;"
         offset="0"
         id="stop50923" />
      <stop
         style="stop-color:#000000;stop-opacity:0;"
         offset="1"
         id="stop50925" />
    </linearGradient>
    <linearGradient
       inkscape:collect="always"
       id="linearGradient50337">
      <stop
         style="stop-color:#ffffff;stop-opacity:1;"
         offset="0"
         id="stop50333" />
      <stop
         style="stop-color:#ffffff;stop-opacity:0;"
         offset="1"
         id="stop50335" />
    </linearGradient>
    <linearGradient
       inkscape:collect="always"
       id="linearGradient48004">
      <stop
         style="stop-color:#ffffff;stop-opacity:0"
         offset="0"
         id="stop48000" />
      <stop
         style="stop-color:#ffffff;stop-opacity:1"
         offset="0.50032598"
         id="stop48328" />
      <stop
         style="stop-color:#ffffff;stop-opacity:0;"
         offset="1"
         id="stop48002" />
    </linearGradient>
    <linearGradient
       inkscape:collect="always"
       id="linearGradient10484">
      <stop
         style="stop-color:#2e2e2e;stop-opacity:1;"
         offset="0"
         id="stop10480" />
      <stop
         style="stop-color:#616161;stop-opacity:1"
         offset="1"
         id="stop10482" />
    </linearGradient>
    <linearGradient
       inkscape:collect="always"
       xlink:href="#linearGradient10484"
       id="linearGradient10486"
       x1="13.155968"
       y1="11.966485"
       x2="13.170794"
       y2="17.182577"
       gradientUnits="userSpaceOnUse"
       gradientTransform="matrix(0.24946226,0,0,0.25361713,0.6867544,-1.9765929)" />
    <linearGradient
       inkscape:collect="always"
       xlink:href="#linearGradient48004"
       id="linearGradient48006"
       x1="0.54178363"
       y1="10.597012"
       x2="3.0651259"
       y2="13.265047"
       gradientUnits="userSpaceOnUse"
       gradientTransform="matrix(0.28571431,0,0,0.28571431,-0.30237482,-1.1528047)" />
    <radialGradient
       inkscape:collect="always"
       xlink:href="#linearGradient50337"
       id="radialGradient50339"
       cx="3.5557096"
       cy="10.338881"
       fx="3.5557096"
       fy="10.338881"
       r="0.66144532"
       gradientUnits="userSpaceOnUse"
       gradientTransform="matrix(0.4,0,0,0.4,-0.60852963,-2.2224555)" />
    <linearGradient
       inkscape:collect="always"
       xlink:href="#linearGradient58462"
       id="linearGradient58464"
       x1="9.5248117"
       y1="8.3342104"
       x2="9.5248108"
       y2="12.56746"
       gradientUnits="userSpaceOnUse"
       gradientTransform="matrix(0.28571431,0,0,0.28571431,-0.30237482,-1.1528047)" />
    <linearGradient
       inkscape:collect="always"
       xlink:href="#linearGradient48004"
       id="linearGradient71108"
       gradientUnits="userSpaceOnUse"
       x1="0.54178363"
       y1="10.597012"
       x2="3.0651259"
       y2="13.265047"
       gradientTransform="matrix(-0.28571431,0,0,0.28571431,4.5356249,-1.1528047)" />
    <filter
       inkscape:collect="always"
       style="color-interpolation-filters:sRGB"
       id="filter2559"
       x="-0.36000001"
       y="-0.36000001"
       width="1.72"
       height="1.72">
      <feGaussianBlur
         inkscape:collect="always"
         stdDeviation="0.07937344"
         id="feGaussianBlur2561" />
    </filter>
    <linearGradient
       inkscape:collect="always"
       xlink:href="#linearGradient50927"
       id="linearGradient4726"
       x1="4.7766676"
       y1="1.7313582"
       x2="3.7360072"
       y2="2.4238026"
       gradientUnits="userSpaceOnUse"
       gradientTransform="translate(0,-0.79373427)" />
    <linearGradient
       inkscape:collect="always"
       xlink:href="#linearGradient50927"
       id="linearGradient5426"
       gradientUnits="userSpaceOnUse"
       x1="4.7766676"
       y1="1.7313582"
       x2="3.7360072"
       y2="2.4238026"
       gradientTransform="matrix(-1,0,0,1,4.2332497,-0.79373432)" />
    <filter
       inkscape:collect="always"
       style="color-interpolation-filters:sRGB"
       id="filter2559-6"
       x="-0.36000001"
       y="-0.36000001"
       width="1.72"
       height="1.72">
      <feGaussianBlur
         inkscape:collect="always"
         stdDeviation="0.07937344"
         id="feGaussianBlur2561-0" />
    </filter>
    <radialGradient
       inkscape:collect="always"
       xlink:href="#linearGradient50337"
       id="radialGradient50339-6"
       cx="3.5557096"
       cy="10.338881"
       fx="3.5557096"
       fy="10.338881"
       r="0.66144532"
       gradientUnits="userSpaceOnUse"
       gradientTransform="matrix(0.4,0,0,0.4,-0.60852957,-1.4287212)" />
    <linearGradient
       inkscape:collect="always"
       xlink:href="#linearGradient58462"
       id="linearGradient5698"
       gradientUnits="userSpaceOnUse"
       gradientTransform="matrix(0.28571431,0,0,0.28571431,-0.30237477,-0.3590704)"
       x1="9.5248117"
       y1="8.3342104"
       x2="9.5248108"
       y2="12.56746" />
    <linearGradient
       inkscape:collect="always"
       xlink:href="#linearGradient48004"
       id="linearGradient5700"
       gradientUnits="userSpaceOnUse"
       gradientTransform="matrix(0.28571431,0,0,0.28571431,-0.30237477,-0.3590704)"
       x1="0.54178363"
       y1="10.597012"
       x2="3.0651259"
       y2="13.265047" />
    <linearGradient
       inkscape:collect="always"
       xlink:href="#linearGradient48004"
       id="linearGradient5702"
       gradientUnits="userSpaceOnUse"
       gradientTransform="matrix(-0.28571431,0,0,0.28571431,4.5356249,-0.3590704)"
       x1="0.54178363"
       y1="10.597012"
       x2="3.0651259"
       y2="13.265047" />
    <linearGradient
       inkscape:collect="always"
       xlink:href="#linearGradient10484"
       id="linearGradient5704"
       gradientUnits="userSpaceOnUse"
       gradientTransform="matrix(0.24946226,0,0,0.25361713,0.68675443,-1.1828586)"
       x1="13.155968"
       y1="11.966485"
       x2="13.170794"
       y2="17.182577" />
  </defs>
  <sodipodi:namedview
     id="namedview8"
     pagecolor="#ffffff"
     bordercolor="#666666"
     borderopacity="1.0"
     inkscape:pageshadow="2"
     inkscape:pageopacity="0.0"
     inkscape:pagecheckerboard="0"
     showgrid="false"
     inkscape:zoom="50.5"
     inkscape:cx="8"
     inkscape:cy="8"
     inkscape:window-width="1920"
     inkscape:window-height="1010"
     inkscape:window-x="0"
     inkscape:window-y="0"
     inkscape:window-maximized="1"
     inkscape:current-layer="svg6"
     showguides="false"
     inkscape:showpageshadow="2"
     inkscape:deskcolor="#d1d1d1" />
  <metadata
     id="metadata2">
    <rdf:RDF>
      <cc:Work
         rdf:about="">
        <dc:format>image/svg+xml</dc:format>
        <dc:type
           rdf:resource="http://purl.org/dc/dcmitype/StillImage" />
      </cc:Work>
    </rdf:RDF>
  </metadata>
  <g
     id="g5722"
     transform="matrix(3.779602,0,0,3.779602,0,2.0000003)">
    <path
       id="rect4218-1"
       style="fill:#e1e3e6;stroke-width:0.264578;stroke-linejoin:round"
       d="M 0.91279453,1.0583125 H 3.3469133 c 0.073288,0 0.1324246,0.070589 0.1719757,0.1322891 L 4.1803341,2.2224562 H 0.05291563 l 0.6614453,-1.0318546 c 0.039551,-0.0617 0.1251455,-0.1322891 0.1984336,-0.1322891 z"
       sodipodi:nodetypes="sssccss" />
    <path
       id="rect849-8"
       style="fill:url(#linearGradient5698);fill-opacity:1;stroke-width:0.151187;stroke-linecap:round;stroke-linejoin:round;stroke-dasharray:1.81425, 0.151187"
       d="M 0.26457813,2.116625 C 0.11800183,2.116625 3e-8,2.2346269 3e-8,2.3812032 v 0.7368912 0.056843 c 0,0.1465763 0.1180018,0.2645782 0.2645781,0.2645782 H 3.9686718 c 0.1465763,0 0.2645781,-0.1180019 0.2645781,-0.2645782 V 3.1180944 2.3812032 c 0,-0.1465763 -0.1180018,-0.2645782 -0.2645781,-0.2645782 z"
       sodipodi:nodetypes="sccssssccss" />
    <path
       id="rect849-5-7"
       style="opacity:0.4;fill:url(#linearGradient5700);fill-opacity:1;stroke-width:0.151187;stroke-linecap:round;stroke-linejoin:round;stroke-dasharray:1.81425, 0.151187"
       d="M 0.26457813,2.116625 C 0.11800183,2.116625 3e-8,2.2346269 3e-8,2.3812032 v 0.7368912 0.056843 c 0,0.1465763 0.1180018,0.2645782 0.2645781,0.2645782 H 3.9686718 c 0.1465763,0 0.2645781,-0.1180019 0.2645781,-0.2645782 V 3.1180944 2.3812032 c 0,-0.1465763 -0.1180018,-0.2645782 -0.2645781,-0.2645782 z"
       sodipodi:nodetypes="sccssssccss" />
    <path
       id="rect849-5-8-9"
       style="opacity:0.4;fill:url(#linearGradient5702);fill-opacity:1;stroke-width:0.151187;stroke-linecap:round;stroke-linejoin:round;stroke-dasharray:1.81425, 0.151187"
       d="M 0.26457813,2.116625 C 0.11800183,2.116625 3e-8,2.2346269 3e-8,2.3812032 v 0.7368912 0.056843 c 0,0.1465763 0.1180018,0.2645782 0.2645781,0.2645782 H 3.9686718 c 0.1465763,0 0.2645781,-0.1180019 0.2645781,-0.2645782 V 3.1180944 2.3812032 c 0,-0.1465763 -0.1180018,-0.2645782 -0.2645781,-0.2645782 z"
       sodipodi:nodetypes="sccssssccss" />
    <path
       id="rect1094-2"
       style="fill:url(#linearGradient5704);stroke-width:0.133099;stroke-linecap:round;stroke-linejoin:round;stroke-dasharray:1.5972, 0.133099"
       d="m 0.26457813,2.1166251 v 0.9260234 c 0,0.073288 0.059001,0.132289 0.1322891,0.132289 H 3.8363829 c 0.073288,0 0.132289,-0.059001 0.132289,-0.132289 V 2.1166251 Z"
       sodipodi:nodetypes="csssscc" />
    <circle
       style="fill:#12ff12;fill-opacity:1;stroke-width:0.229;stroke-linecap:round;stroke-linejoin:round;stroke-dasharray:2.748, 0.229;filter:url(#filter2559-6)"
       id="path25907-0"
       cx="0.92602348"
       cy="2.6457813"
       r="0.26457813" />
    <circle
       style="fill:#12ff12;fill-opacity:1;stroke-width:0.211662;stroke-linecap:round;stroke-linejoin:round;stroke-dasharray:2.53995, 0.211662"
       id="path30449-2"
       cx="0.92602348"
       cy="2.6457813"
       r="0.26457813" />
    <circle
       style="opacity:0.7;fill:url(#radialGradient50339-6);fill-opacity:1;stroke-width:0.211662;stroke-linecap:round;stroke-linejoin:round;stroke-dasharray:2.53995, 0.211662"
       id="path50091-3"
       cx="0.92602348"
       cy="2.6457813"
       r="0.26457813" />
  </g>
  <g
     id="g5750"
     transform="scale(3.779602)">
    <path
       id="rect4218"
       style="fill:#e1e3e6;stroke-width:0.264578;stroke-linejoin:round"
       d="M 0.91279453,0.26457822 H 3.3469133 c 0.073288,0 0.1324246,0.070589 0.1719757,0.1322891 L 4.1803341,1.4287219 H 0.05291563 l 0.6614453,-1.03185458 c 0.0395511,-0.0617 0.12514545,-0.1322891 0.1984336,-0.1322891 z"
       sodipodi:nodetypes="sssccss" />
    <path
       id="rect4218-3"
       style="opacity:0.3;fill:url(#linearGradient4726);fill-opacity:1;stroke-width:0.264578;stroke-linejoin:round"
       d="M 0.91279453,0.26457822 H 3.3469133 c 0.073288,0 0.1324246,0.070589 0.1719757,0.1322891 L 4.1803341,1.4287219 H 0.0529156 L 0.71436093,0.39686732 c 0.0395511,-0.0617 0.12514545,-0.1322891 0.1984336,-0.1322891 z"
       sodipodi:nodetypes="sssccss" />
    <path
       id="rect4218-3-2"
       style="opacity:0.3;fill:url(#linearGradient5426);fill-opacity:1;stroke-width:0.264578;stroke-linejoin:round"
       d="M 3.3204552,0.26457812 H 0.8863364 c -0.073288,0 -0.1324246,0.070589 -0.1719757,0.1322891 L 0.0529156,1.4287219 H 4.1803341 L 3.5188888,0.39686723 C 3.4793378,0.33516722 3.3937433,0.26457812 3.3204552,0.26457812 Z"
       sodipodi:nodetypes="sssccss" />
    <path
       id="rect849"
       style="fill:url(#linearGradient58464);fill-opacity:1;stroke-width:0.151187;stroke-linecap:round;stroke-linejoin:round;stroke-dasharray:1.81425, 0.151187"
       d="M 0.26457812,1.3228907 C 0.11800184,1.3228907 0,1.4408926 0,1.5874689 v 0.7368912 0.056843 C 0,2.5277794 0.11800184,2.6457813 0.26457812,2.6457813 H 3.9686718 c 0.1465763,0 0.2645781,-0.1180019 0.2645781,-0.2645782 V 2.3243601 1.5874689 c 0,-0.1465763 -0.1180018,-0.2645782 -0.2645781,-0.2645782 z"
       sodipodi:nodetypes="sccssssccss" />
    <path
       id="rect849-5"
       style="opacity:0.4;fill:url(#linearGradient48006);fill-opacity:1;stroke-width:0.151187;stroke-linecap:round;stroke-linejoin:round;stroke-dasharray:1.81425, 0.151187"
       d="M 0.26457812,1.3228907 C 0.11800184,1.3228907 0,1.4408926 0,1.5874689 v 0.7368912 0.056843 C 0,2.5277794 0.11800184,2.6457813 0.26457812,2.6457813 H 3.9686718 c 0.1465763,0 0.2645781,-0.1180019 0.2645781,-0.2645782 V 2.3243601 1.5874689 c 0,-0.1465763 -0.1180018,-0.2645782 -0.2645781,-0.2645782 z"
       sodipodi:nodetypes="sccssssccss" />
    <path
       id="rect849-5-8"
       style="opacity:0.4;fill:url(#linearGradient71108);fill-opacity:1;stroke-width:0.151187;stroke-linecap:round;stroke-linejoin:round;stroke-dasharray:1.81425, 0.151187"
       d="M 0.26457812,1.3228907 C 0.11800184,1.3228907 0,1.4408926 0,1.5874689 v 0.7368912 0.056843 C 0,2.5277794 0.11800184,2.6457813 0.26457812,2.6457813 H 3.9686718 c 0.1465763,0 0.2645781,-0.1180019 0.2645781,-0.2645782 V 2.3243601 1.5874689 c 0,-0.1465763 -0.1180018,-0.2645782 -0.2645781,-0.2645782 z"
       sodipodi:nodetypes="sccssssccss" />
    <path
       id="rect1094"
       style="fill:url(#linearGradient10486);stroke-width:0.133099;stroke-linecap:round;stroke-linejoin:round;stroke-dasharray:1.5972, 0.133099"
       d="m 0.2645781,1.3228908 v 0.9260234 c 0,0.073288 0.059001,0.132289 0.1322891,0.132289 h 3.4395157 c 0.073288,0 0.132289,-0.059001 0.132289,-0.132289 V 1.3228908 Z"
       sodipodi:nodetypes="csssscc" />
    <circle
       style="opacity:1;fill:#12ff12;fill-opacity:1;stroke-width:0.229;stroke-linecap:round;stroke-linejoin:round;stroke-dasharray:2.748, 0.229;filter:url(#filter2559)"
       id="path25907"
       cx="0.92602342"
       cy="1.852047"
       r="0.26457813" />
    <circle
       style="fill:#12ff12;fill-opacity:1;stroke-width:0.211662;stroke-linecap:round;stroke-linejoin:round;stroke-dasharray:2.53995, 0.211662"
       id="path30449"
       cx="0.92602342"
       cy="1.852047"
       r="0.26457813" />
    <circle
       style="opacity:0.7;fill:url(#radialGradient50339);fill-opacity:1;stroke-width:0.211662;stroke-linecap:round;stroke-linejoin:round;stroke-dasharray:2.53995, 0.211662"
       id="path50091"
       cx="0.92602342"
       cy="1.852047"
       r="0.26457813" />
  </g>
</svg>
