<?xml version="1.0" encoding="UTF-8" standalone="no"?>
<svg
   width="16"
   height="16"
   version="1.1"
   viewBox="0 0 16 16"
   id="svg6"
   sodipodi:docname="drive-optical.svg"
   inkscape:version="1.2.1 (9c6d41e410, 2022-07-14, custom)"
   xmlns:inkscape="http://www.inkscape.org/namespaces/inkscape"
   xmlns:sodipodi="http://sodipodi.sourceforge.net/DTD/sodipodi-0.dtd"
   xmlns:xlink="http://www.w3.org/1999/xlink"
   xmlns="http://www.w3.org/2000/svg"
   xmlns:svg="http://www.w3.org/2000/svg"
   xmlns:rdf="http://www.w3.org/1999/02/22-rdf-syntax-ns#"
   xmlns:cc="http://creativecommons.org/ns#"
   xmlns:dc="http://purl.org/dc/elements/1.1/">
  <defs
     id="defs10">
    <linearGradient
       inkscape:collect="always"
       id="linearGradient58462">
      <stop
         style="stop-color:#636363;stop-opacity:1;"
         offset="0"
         id="stop58458" />
      <stop
         style="stop-color:#ababab;stop-opacity:0.99607843"
         offset="1"
         id="stop58460" />
    </linearGradient>
    <linearGradient
       inkscape:collect="always"
       id="linearGradient50927">
      <stop
         style="stop-color:#000000;stop-opacity:1;"
         offset="0"
         id="stop50923" />
      <stop
         style="stop-color:#000000;stop-opacity:0;"
         offset="1"
         id="stop50925" />
    </linearGradient>
    <linearGradient
       inkscape:collect="always"
       id="linearGradient50337">
      <stop
         style="stop-color:#ffffff;stop-opacity:1;"
         offset="0"
         id="stop50333" />
      <stop
         style="stop-color:#ffffff;stop-opacity:0;"
         offset="1"
         id="stop50335" />
    </linearGradient>
    <linearGradient
       inkscape:collect="always"
       id="linearGradient48004">
      <stop
         style="stop-color:#ffffff;stop-opacity:0"
         offset="0"
         id="stop48000" />
      <stop
         style="stop-color:#ffffff;stop-opacity:1"
         offset="0.50032598"
         id="stop48328" />
      <stop
         style="stop-color:#ffffff;stop-opacity:0;"
         offset="1"
         id="stop48002" />
    </linearGradient>
    <linearGradient
       inkscape:collect="always"
       id="linearGradient10484">
      <stop
         style="stop-color:#2e2e2e;stop-opacity:1;"
         offset="0"
         id="stop10480" />
      <stop
         style="stop-color:#616161;stop-opacity:1"
         offset="1"
         id="stop10482" />
    </linearGradient>
    <linearGradient
       inkscape:collect="always"
       xlink:href="#linearGradient10484"
       id="linearGradient10486"
       x1="13.155968"
       y1="11.966485"
       x2="13.170794"
       y2="17.182577"
       gradientUnits="userSpaceOnUse"
       gradientTransform="matrix(0.94286806,0,0,0.95857181,2.5956583,-4.4707344)" />
    <linearGradient
       inkscape:collect="always"
       xlink:href="#linearGradient48004"
       id="linearGradient48006"
       x1="0.54178363"
       y1="10.597012"
       x2="3.0651259"
       y2="13.265047"
       gradientUnits="userSpaceOnUse"
       gradientTransform="matrix(1.0798864,0,0,1.0798864,-1.1428565,-1.3571432)" />
    <radialGradient
       inkscape:collect="always"
       xlink:href="#linearGradient50337"
       id="radialGradient50339"
       cx="3.5557096"
       cy="10.338881"
       fx="3.5557096"
       fy="10.338881"
       r="0.66144532"
       gradientUnits="userSpaceOnUse"
       gradientTransform="matrix(1.5118408,0,0,1.5118408,-2.2999998,-5.3999972)" />
    <linearGradient
       inkscape:collect="always"
       xlink:href="#linearGradient58462"
       id="linearGradient58464"
       x1="9.5248117"
       y1="8.3342104"
       x2="9.5248108"
       y2="12.56746"
       gradientUnits="userSpaceOnUse"
       gradientTransform="matrix(1.0798864,0,0,1.0798864,-1.1428565,-1.3571432)" />
    <linearGradient
       inkscape:collect="always"
       xlink:href="#linearGradient48004"
       id="linearGradient71108"
       gradientUnits="userSpaceOnUse"
       x1="0.54178363"
       y1="10.597012"
       x2="3.0651259"
       y2="13.265047"
       gradientTransform="matrix(-1.0798864,0,0,1.0798864,17.142857,-1.3571432)" />
    <filter
       inkscape:collect="always"
       style="color-interpolation-filters:sRGB"
       id="filter2559"
       x="-0.36000001"
       y="-0.36000001"
       width="1.72"
       height="1.72">
      <feGaussianBlur
         inkscape:collect="always"
         stdDeviation="0.07937344"
         id="feGaussianBlur2561" />
    </filter>
    <linearGradient
       inkscape:collect="always"
       xlink:href="#linearGradient50927"
       id="linearGradient4726"
       x1="4.7766676"
       y1="1.7313582"
       x2="3.7360072"
       y2="2.4238026"
       gradientUnits="userSpaceOnUse"
       gradientTransform="scale(3.779602)" />
    <linearGradient
       inkscape:collect="always"
       xlink:href="#linearGradient50927"
       id="linearGradient5426"
       gradientUnits="userSpaceOnUse"
       x1="4.7766676"
       y1="1.7313582"
       x2="3.7360072"
       y2="2.4238026"
       gradientTransform="matrix(-3.779602,0,0,3.779602,15.999999,0)" />
    <linearGradient
       inkscape:collect="always"
       xlink:href="#linearGradient162116"
       id="linearGradient162118"
       x1="96.408417"
       y1="238.0069"
       x2="127.77626"
       y2="238.0069"
       gradientUnits="userSpaceOnUse"
       gradientTransform="matrix(0.25503819,0,0,0.24607911,-16.587826,-54.568531)" />
    <linearGradient
       inkscape:collect="always"
       id="linearGradient162116">
      <stop
         style="stop-color:#e3edee;stop-opacity:1;"
         offset="0"
         id="stop162112" />
      <stop
         style="stop-color:#c9cdce;stop-opacity:1"
         offset="1"
         id="stop162114" />
    </linearGradient>
    <linearGradient
       inkscape:collect="always"
       xlink:href="#linearGradient219586"
       id="linearGradient1697"
       gradientUnits="userSpaceOnUse"
       gradientTransform="matrix(0.25503819,0,0,0.24607913,-16.587825,-54.568531)"
       x1="112.09232"
       y1="238.0069"
       x2="112.17286"
       y2="254.33937" />
    <linearGradient
       inkscape:collect="always"
       id="linearGradient219586">
      <stop
         style="stop-color:#b9bfbf;stop-opacity:1;"
         offset="0"
         id="stop219582" />
      <stop
         style="stop-color:#aaacab;stop-opacity:1"
         offset="1"
         id="stop219584" />
    </linearGradient>
    <linearGradient
       inkscape:collect="always"
       xlink:href="#linearGradient2496"
       id="linearGradient2498"
       x1="16.424316"
       y1="54.63533"
       x2="32.331596"
       y2="38.452602"
       gradientUnits="userSpaceOnUse"
       gradientTransform="matrix(0.24999999,0,0,0.24999999,7.7500001,-5.9999998)" />
    <linearGradient
       inkscape:collect="always"
       id="linearGradient2496">
      <stop
         style="stop-color:#ffffff;stop-opacity:0.5"
         offset="0"
         id="stop2492" />
      <stop
         style="stop-color:#ffffff;stop-opacity:0"
         offset="0.44999999"
         id="stop3080" />
      <stop
         style="stop-color:#ffffff;stop-opacity:1"
         offset="0.5"
         id="stop2756" />
      <stop
         style="stop-color:#ffffff;stop-opacity:0"
         offset="0.55000001"
         id="stop3014" />
      <stop
         style="stop-color:#ffffff;stop-opacity:0.2"
         offset="1"
         id="stop2494" />
    </linearGradient>
    <linearGradient
       inkscape:collect="always"
       xlink:href="#linearGradient11941"
       id="linearGradient11943"
       x1="5.1081543"
       y1="42.191895"
       x2="7.4692383"
       y2="33.279785"
       gradientUnits="userSpaceOnUse"
       gradientTransform="matrix(0.24999999,0,0,0.24999999,7.7500001,-5.9999998)" />
    <linearGradient
       inkscape:collect="always"
       id="linearGradient11941">
      <stop
         style="stop-color:#f89af4;stop-opacity:0"
         offset="0"
         id="stop11937" />
      <stop
         style="stop-color:#f89af4;stop-opacity:0"
         offset="0.40000001"
         id="stop12523" />
      <stop
         style="stop-color:#f89af4;stop-opacity:1"
         offset="0.5"
         id="stop12201" />
      <stop
         style="stop-color:#f89af4;stop-opacity:0"
         offset="0.60000002"
         id="stop12781" />
      <stop
         style="stop-color:#f89af4;stop-opacity:0;"
         offset="1"
         id="stop11939" />
    </linearGradient>
    <linearGradient
       inkscape:collect="always"
       xlink:href="#linearGradient16450"
       id="linearGradient16452"
       x1="17.605227"
       y1="29.40974"
       x2="27.150551"
       y2="39.243584"
       gradientUnits="userSpaceOnUse"
       gradientTransform="matrix(0.24999999,0,0,0.24999999,7.7500001,-5.9999998)" />
    <linearGradient
       inkscape:collect="always"
       id="linearGradient16450">
      <stop
         style="stop-color:#6fef7e;stop-opacity:0"
         offset="0"
         id="stop16446" />
      <stop
         style="stop-color:#6fef7e;stop-opacity:0"
         offset="0.44792882"
         id="stop17132" />
      <stop
         style="stop-color:#6fef7e;stop-opacity:1"
         offset="0.5"
         id="stop16680" />
      <stop
         style="stop-color:#6fef7e;stop-opacity:0"
         offset="0.55000001"
         id="stop16938" />
      <stop
         style="stop-color:#6fef7e;stop-opacity:0;"
         offset="1"
         id="stop16448" />
    </linearGradient>
    <linearGradient
       inkscape:collect="always"
       xlink:href="#linearGradient219586"
       id="linearGradient1281"
       gradientUnits="userSpaceOnUse"
       gradientTransform="matrix(0.25503819,0,0,0.24607913,-16.587825,-54.568531)"
       x1="112.09232"
       y1="238.0069"
       x2="112.17286"
       y2="254.33937" />
  </defs>
  <sodipodi:namedview
     id="namedview8"
     pagecolor="#ffffff"
     bordercolor="#666666"
     borderopacity="1.0"
     inkscape:pageshadow="2"
     inkscape:pageopacity="0.0"
     inkscape:pagecheckerboard="0"
     showgrid="false"
     inkscape:zoom="50.125"
     inkscape:cx="8"
     inkscape:cy="8"
     inkscape:window-width="1920"
     inkscape:window-height="1011"
     inkscape:window-x="0"
     inkscape:window-y="0"
     inkscape:window-maximized="1"
     inkscape:current-layer="svg6"
     showguides="false"
     inkscape:showpageshadow="2"
     inkscape:deskcolor="#d1d1d1" />
  <metadata
     id="metadata2">
    <rdf:RDF>
      <cc:Work
         rdf:about="">
        <dc:format>image/svg+xml</dc:format>
        <dc:type
           rdf:resource="http://purl.org/dc/dcmitype/StillImage" />
      </cc:Work>
    </rdf:RDF>
  </metadata>
  <path
     id="rect4218"
     style="fill:#e1e3e6;stroke-width:1;stroke-linejoin:round"
     d="M 3.4500001,4.0000003 H 12.65 c 0.277,0 0.500513,0.2667983 0.65,0.5000001 l 2.499999,3.8999994 H 0.20000002 L 2.7,4.5000004 C 2.8494875,4.266799 3.173,4.0000003 3.4500001,4.0000003 Z"
     sodipodi:nodetypes="sssccss" />
  <path
     id="rect4218-3"
     style="opacity:0.3;fill:url(#linearGradient4726);fill-opacity:1;stroke-width:1;stroke-linejoin:round"
     d="M 3.4500001,4.0000003 H 12.65 c 0.277,0 0.500513,0.2667983 0.65,0.5000001 l 2.499999,3.8999994 H 0.19999991 L 2.7,4.5000004 C 2.8494875,4.266799 3.173,4.0000003 3.4500001,4.0000003 Z"
     sodipodi:nodetypes="sssccss" />
  <path
     id="rect4218-3-2"
     style="opacity:0.3;fill:url(#linearGradient5426);fill-opacity:1;stroke-width:1;stroke-linejoin:round"
     d="M 12.549999,3.9999999 H 3.3499989 c -0.2769995,0 -0.5005123,0.2667983 -0.6499997,0.5000002 L 0.19999991,8.3999998 H 15.799999 L 13.299999,4.5 c -0.149487,-0.2332014 -0.473,-0.5000001 -0.75,-0.5000001 z"
     sodipodi:nodetypes="sssccss" />
  <path
     id="rect849"
     style="fill:url(#linearGradient58464);fill-opacity:1;stroke-width:0.571427;stroke-linecap:round;stroke-linejoin:round;stroke-dasharray:6.85714, 0.571427"
     d="M 1,8 C 0.446,8 0,8.4460002 0,9.0000003 V 11.785156 12 c 0,0.554 0.446,1 1,1 h 14 c 0.554,0 1,-0.446 1,-1 V 11.785156 9.0000003 C 16,8.4460002 15.554,8 15,8 Z"
     sodipodi:nodetypes="sccssssccss" />
  <path
     id="rect849-5"
     style="opacity:0.4;fill:url(#linearGradient48006);fill-opacity:1;stroke-width:0.571427;stroke-linecap:round;stroke-linejoin:round;stroke-dasharray:6.85714, 0.571427"
     d="M 1,8 C 0.446,8 0,8.4460002 0,9.0000003 V 11.785156 12 c 0,0.554 0.446,1 1,1 h 14 c 0.554,0 1,-0.446 1,-1 V 11.785156 9.0000003 C 16,8.4460002 15.554,8 15,8 Z"
     sodipodi:nodetypes="sccssssccss" />
  <path
     id="rect849-5-8"
     style="opacity:0.4;fill:url(#linearGradient71108);fill-opacity:1;stroke-width:0.571427;stroke-linecap:round;stroke-linejoin:round;stroke-dasharray:6.85714, 0.571427"
     d="M 1,8 C 0.446,8 0,8.4460002 0,9.0000003 V 11.785156 12 c 0,0.554 0.446,1 1,1 h 14 c 0.554,0 1,-0.446 1,-1 V 11.785156 9.0000003 C 16,8.4460002 15.554,8 15,8 Z"
     sodipodi:nodetypes="sccssssccss" />
  <path
     id="rect1094"
     style="fill:url(#linearGradient10486);stroke-width:0.503061;stroke-linecap:round;stroke-linejoin:round;stroke-dasharray:6.03678, 0.503061"
     d="M 0.99999993,8.0000004 V 11.5 c 0,0.277 0.22300027,0.5 0.50000017,0.5 H 14.500001 C 14.777,12 15,11.777 15,11.5 V 8.0000004 Z"
     sodipodi:nodetypes="csssscc" />
  <circle
     style="opacity:1;fill:#12ff12;fill-opacity:1;stroke-width:0.229;stroke-linecap:round;stroke-linejoin:round;stroke-dasharray:2.748, 0.229;filter:url(#filter2559)"
     id="path25907"
     cx="0.92602342"
     cy="1.5874689"
     r="0.26457813"
     transform="matrix(3.779602,0,0,3.779602,0,4)" />
  <circle
     style="fill:#12ff12;fill-opacity:1;stroke-width:0.799998;stroke-linecap:round;stroke-linejoin:round;stroke-dasharray:9.6, 0.799998"
     id="path30449"
     cx="3.5"
     cy="10.000001"
     r="1" />
  <circle
     style="opacity:0.7;fill:url(#radialGradient50339);fill-opacity:1;stroke-width:0.799998;stroke-linecap:round;stroke-linejoin:round;stroke-dasharray:9.6, 0.799998"
     id="path50091"
     cx="3.5"
     cy="10.000001"
     r="1" />
  <path
     id="path151229"
     style="fill:url(#linearGradient162118);fill-opacity:1;stroke-width:0.331417;stroke-linecap:round;stroke-linejoin:round"
     d="M 12,0 A 4.0000002,4.0000002 0 0 0 8.0000001,4.0000005 4.0000002,4.0000002 0 0 0 12,7.9999999 4.0000002,4.0000002 0 0 0 16,4.0000005 4.0000002,4.0000002 0 0 0 12,0 Z m 0,2.5 a 1.4999999,1.4999999 0 0 1 1.500001,1.5000005 1.4999999,1.4999999 0 0 1 -1.500001,1.5 1.4999999,1.4999999 0 0 1 -1.5,-1.5 A 1.4999999,1.4999999 0 0 1 12,2.5 Z" />
  <path
     id="path151229-3"
     style="fill:url(#linearGradient1281);fill-opacity:1;stroke-width:0.331417;stroke-linecap:round;stroke-linejoin:round"
     d="M 13.496582,4.0937494 A 1.4999999,1.4999999 0 0 1 12,5.5000005 1.4999999,1.4999999 0 0 1 10.94043,5.0595705 L 9.1738283,6.8261725 A 4.0000002,4.0000002 0 0 0 12,7.9999999 4.0000002,4.0000002 0 0 0 15.990723,4.2495114 Z" />
  <path
     id="path151229-3-3"
     style="fill:url(#linearGradient1697);fill-opacity:1;stroke-width:0.331417;stroke-linecap:round;stroke-linejoin:round"
     d="M 13.496582,4.0937494 A 1.4999999,1.4999999 0 0 1 12,5.5000005 1.4999999,1.4999999 0 0 1 10.94043,5.0595705 L 9.1738283,6.8261725 A 4.0000002,4.0000002 0 0 0 12,7.9999999 4.0000002,4.0000002 0 0 0 15.990723,4.2495114 Z" />
  <path
     id="rect2336"
     style="opacity:0.5;fill:url(#linearGradient2498);fill-opacity:1;stroke-width:0.5;stroke-linecap:round;stroke-linejoin:round"
     d="M 11.030762,0.12255853 A 4.0000002,4.0000002 0 0 0 8.0712892,3.2631834 L 10.503418,3.75 10.527345,3.75391 A 1.4999999,1.4999999 0 0 1 11.637696,2.5502961 Z M 13.472657,4.2460934 A 1.5,1.5 0 0 1 12.362305,5.449707 l 0.606934,2.4277343 A 4.0000002,4.0000002 0 0 0 15.928711,4.736816 L 13.496582,4.25 Z" />
  <path
     id="path151229-7"
     style="opacity:0.5;fill:url(#linearGradient11943);fill-opacity:1;stroke-width:0.331417;stroke-linecap:round;stroke-linejoin:round"
     d="M 8.466797,2.1293944 C 8.1610082,2.7055433 8.0007546,3.3477318 8.0000001,3.9999999 8.0007561,4.652268 8.1610082,5.2944565 8.466797,5.8706055 l 2.209472,-1.169922 C 10.5613,4.4849734 10.500788,4.2444344 10.5,3.9999999 c 8e-4,-0.2444345 0.0613,-0.4849732 0.176269,-0.7006835 z"
     sodipodi:nodetypes="ccccccc" />
  <path
     id="path151229-1"
     style="opacity:0.5;fill:url(#linearGradient16452);fill-opacity:1;stroke-width:0.331417;stroke-linecap:round;stroke-linejoin:round"
     d="M 13.192871,0.18212907 12.447265,2.5683593 a 1.4999999,1.4999999 0 0 1 0.957032,0.9047851 l 2.34082,-0.8774416 A 4.0000002,4.0000002 0 0 0 13.192871,0.18212907 Z" />
</svg>
