<?xml version="1.0" encoding="UTF-8" standalone="no"?>
<!-- Created with Inkscape (http://www.inkscape.org/) -->

<svg
   width="16"
   height="16"
   viewBox="0 0 16 16"
   version="1.1"
   id="svg2112"
   inkscape:version="1.2.1 (9c6d41e410, 2022-07-14, custom)"
   sodipodi:docname="media-optical-video.svg"
   xmlns:inkscape="http://www.inkscape.org/namespaces/inkscape"
   xmlns:sodipodi="http://sodipodi.sourceforge.net/DTD/sodipodi-0.dtd"
   xmlns:xlink="http://www.w3.org/1999/xlink"
   xmlns="http://www.w3.org/2000/svg"
   xmlns:svg="http://www.w3.org/2000/svg">
  <sodipodi:namedview
     id="namedview2114"
     pagecolor="#ffffff"
     bordercolor="#000000"
     borderopacity="0.25"
     inkscape:showpageshadow="2"
     inkscape:pageopacity="0.0"
     inkscape:pagecheckerboard="0"
     inkscape:deskcolor="#d1d1d1"
     inkscape:document-units="px"
     showgrid="false"
     inkscape:zoom="50.125"
     inkscape:cx="7.9900249"
     inkscape:cy="8"
     inkscape:window-width="1920"
     inkscape:window-height="1011"
     inkscape:window-x="0"
     inkscape:window-y="0"
     inkscape:window-maximized="1"
     inkscape:current-layer="svg2112"
     showguides="false" />
  <defs
     id="defs2109">
    <linearGradient
       inkscape:collect="always"
       xlink:href="#linearGradient162116"
       id="linearGradient162118"
       x1="96.408417"
       y1="238.0069"
       x2="127.77626"
       y2="238.0069"
       gradientUnits="userSpaceOnUse"
       gradientTransform="matrix(0.51007638,0,0,0.49215822,-49.175651,-109.13706)" />
    <linearGradient
       inkscape:collect="always"
       id="linearGradient162116">
      <stop
         style="stop-color:#e3edee;stop-opacity:1;"
         offset="0"
         id="stop162112" />
      <stop
         style="stop-color:#c9cdce;stop-opacity:1"
         offset="1"
         id="stop162114" />
    </linearGradient>
    <linearGradient
       inkscape:collect="always"
       xlink:href="#linearGradient219586"
       id="linearGradient1031"
       gradientUnits="userSpaceOnUse"
       gradientTransform="matrix(0.51007638,0,0,0.49215825,-49.175649,-109.13706)"
       x1="112.09232"
       y1="238.0069"
       x2="112.17286"
       y2="254.33937" />
    <linearGradient
       inkscape:collect="always"
       id="linearGradient219586">
      <stop
         style="stop-color:#b9bfbf;stop-opacity:1;"
         offset="0"
         id="stop219582" />
      <stop
         style="stop-color:#aaacab;stop-opacity:1"
         offset="1"
         id="stop219584" />
    </linearGradient>
    <linearGradient
       inkscape:collect="always"
       xlink:href="#linearGradient2496"
       id="linearGradient2498"
       x1="16.424316"
       y1="54.63533"
       x2="32.331596"
       y2="38.452602"
       gradientUnits="userSpaceOnUse"
       gradientTransform="matrix(0.49999998,0,0,0.49999998,-0.5000001,-12)" />
    <linearGradient
       inkscape:collect="always"
       id="linearGradient2496">
      <stop
         style="stop-color:#ffffff;stop-opacity:0.5"
         offset="0"
         id="stop2492" />
      <stop
         style="stop-color:#ffffff;stop-opacity:0"
         offset="0.44999999"
         id="stop3080" />
      <stop
         style="stop-color:#ffffff;stop-opacity:1"
         offset="0.5"
         id="stop2756" />
      <stop
         style="stop-color:#ffffff;stop-opacity:0"
         offset="0.55000001"
         id="stop3014" />
      <stop
         style="stop-color:#ffffff;stop-opacity:0.2"
         offset="1"
         id="stop2494" />
    </linearGradient>
    <linearGradient
       inkscape:collect="always"
       xlink:href="#linearGradient11941"
       id="linearGradient11943"
       x1="5.1081543"
       y1="42.191895"
       x2="7.4692383"
       y2="33.279785"
       gradientUnits="userSpaceOnUse"
       gradientTransform="matrix(0.49999998,0,0,0.49999998,-0.5000001,-12)" />
    <linearGradient
       inkscape:collect="always"
       id="linearGradient11941">
      <stop
         style="stop-color:#f89af4;stop-opacity:0"
         offset="0"
         id="stop11937" />
      <stop
         style="stop-color:#f89af4;stop-opacity:0"
         offset="0.40000001"
         id="stop12523" />
      <stop
         style="stop-color:#f89af4;stop-opacity:1"
         offset="0.5"
         id="stop12201" />
      <stop
         style="stop-color:#f89af4;stop-opacity:0"
         offset="0.60000002"
         id="stop12781" />
      <stop
         style="stop-color:#f89af4;stop-opacity:0;"
         offset="1"
         id="stop11939" />
    </linearGradient>
    <linearGradient
       inkscape:collect="always"
       xlink:href="#linearGradient16450"
       id="linearGradient16452"
       x1="17.605227"
       y1="29.40974"
       x2="27.150551"
       y2="39.243584"
       gradientUnits="userSpaceOnUse"
       gradientTransform="matrix(0.49999998,0,0,0.49999998,-0.5000001,-12)" />
    <linearGradient
       inkscape:collect="always"
       id="linearGradient16450">
      <stop
         style="stop-color:#6fef7e;stop-opacity:0"
         offset="0"
         id="stop16446" />
      <stop
         style="stop-color:#6fef7e;stop-opacity:0"
         offset="0.44792882"
         id="stop17132" />
      <stop
         style="stop-color:#6fef7e;stop-opacity:1"
         offset="0.5"
         id="stop16680" />
      <stop
         style="stop-color:#6fef7e;stop-opacity:0"
         offset="0.55000001"
         id="stop16938" />
      <stop
         style="stop-color:#6fef7e;stop-opacity:0;"
         offset="1"
         id="stop16448" />
    </linearGradient>
    <linearGradient
       inkscape:collect="always"
       xlink:href="#linearGradient219586"
       id="linearGradient1697"
       gradientUnits="userSpaceOnUse"
       gradientTransform="matrix(0.51007638,0,0,0.49215825,-49.175649,-109.13706)"
       x1="112.09232"
       y1="238.0069"
       x2="112.17286"
       y2="254.33937" />
    <linearGradient
       inkscape:collect="always"
       xlink:href="#linearGradient27684"
       id="linearGradient1679"
       x1="36"
       y1="28"
       x2="59.636364"
       y2="60"
       gradientUnits="userSpaceOnUse"
       gradientTransform="matrix(0.42307693,0,0,0.34375,-9.2307691,-9.625)" />
    <linearGradient
       inkscape:collect="always"
       id="linearGradient27684">
      <stop
         style="stop-color:#4a4a4a;stop-opacity:1;"
         offset="0"
         id="stop27680" />
      <stop
         style="stop-color:#232323;stop-opacity:0.74901962"
         offset="1"
         id="stop27682" />
    </linearGradient>
    <linearGradient
       inkscape:collect="always"
       xlink:href="#linearGradient12418"
       id="linearGradient2216"
       x1="42"
       y1="4.9999995"
       x2="49.999996"
       y2="23"
       gradientUnits="userSpaceOnUse"
       gradientTransform="matrix(0.5,0,0,0.5,-11.999998,-1.5)" />
    <linearGradient
       inkscape:collect="always"
       id="linearGradient12418">
      <stop
         style="stop-color:#52e4ff;stop-opacity:1;"
         offset="0"
         id="stop12414" />
      <stop
         style="stop-color:#d29eff;stop-opacity:1"
         offset="1"
         id="stop12416" />
    </linearGradient>
  </defs>
  <path
     id="path151229"
     style="fill:url(#linearGradient162118);fill-opacity:1;stroke-width:0.662835;stroke-linecap:round;stroke-linejoin:round"
     d="M 7.9999997,2e-7 A 8.0000003,8.0000003 0 0 0 0,8.000001 8.0000003,8.0000003 0 0 0 7.9999997,16 8.0000003,8.0000003 0 0 0 16,8.000001 8.0000003,8.0000003 0 0 0 7.9999997,2e-7 Z m 0,4.9999999 a 2.9999997,2.9999997 0 0 1 3.0000013,3.0000009 2.9999997,2.9999997 0 0 1 -3.0000013,3 2.9999997,2.9999997 0 0 1 -3.0000002,-3 2.9999997,2.9999997 0 0 1 3.0000002,-3.0000009 z" />
  <path
     id="path151229-3"
     style="fill:url(#linearGradient1697);fill-opacity:1;stroke-width:0.662835;stroke-linecap:round;stroke-linejoin:round"
     d="M 10.993164,8.187499 A 2.9999997,2.9999997 0 0 1 7.9999997,11.000001 2.9999997,2.9999997 0 0 1 5.8808589,10.119141 L 2.3476563,13.652345 A 8.0000003,8.0000003 0 0 0 7.9999997,16 8.0000003,8.0000003 0 0 0 15.981446,8.499023 Z" />
  <path
     id="path151229-3-3"
     style="fill:url(#linearGradient1031);fill-opacity:1;stroke-width:0.662835;stroke-linecap:round;stroke-linejoin:round"
     d="M 10.993164,8.187499 A 2.9999997,2.9999997 0 0 1 7.9999997,11.000001 2.9999997,2.9999997 0 0 1 5.8808589,10.119141 L 2.3476563,13.652345 A 8.0000003,8.0000003 0 0 0 7.9999997,16 8.0000003,8.0000003 0 0 0 15.981446,8.499023 Z" />
  <path
     id="rect2336"
     style="opacity:0.5;fill:url(#linearGradient2498);fill-opacity:1;stroke-width:1;stroke-linecap:round;stroke-linejoin:round"
     d="M 6.0615235,0.2451172 A 8.0000003,8.0000003 0 0 0 0.1425781,6.5263668 l 4.8642576,0.9736333 0.047854,0.00782 A 2.9999997,2.9999997 0 0 1 7.2753917,5.1005857 Z M 10.945313,8.492187 A 3,3 0 0 1 8.72461,10.899414 l 1.213867,4.855469 A 8.0000003,8.0000003 0 0 0 15.857421,9.473632 L 10.993164,8.5 Z" />
  <path
     id="path151229-7"
     style="opacity:0.5;fill:url(#linearGradient11943);fill-opacity:1;stroke-width:0.662835;stroke-linecap:round;stroke-linejoin:round"
     d="M 0.9335937,4.2587889 C 0.3220163,5.4110868 0.001509,6.6954636 0,7.9999999 0.001512,9.304536 0.3220163,10.588913 0.9335937,11.741211 L 5.3525387,9.401367 C 5.1226003,8.969947 5.0015757,8.488869 4.9999995,7.9999999 5.0015995,7.5111308 5.1226003,7.0300535 5.3525387,6.5986329 Z"
     sodipodi:nodetypes="ccccccc" />
  <path
     id="path151229-1"
     style="opacity:0.5;fill:url(#linearGradient16452);fill-opacity:1;stroke-width:0.662835;stroke-linecap:round;stroke-linejoin:round"
     d="M 10.385743,0.3642583 8.894531,5.1367188 a 2.9999997,2.9999997 0 0 1 1.914063,1.8095701 l 4.68164,-1.7548832 A 8.0000003,8.0000003 0 0 0 10.385743,0.3642583 Z" />
  <rect
     style="fill:url(#linearGradient1679);fill-opacity:1;stroke-width:0.381356"
     id="rect1117"
     width="10"
     height="11"
     x="6"
     y="0"
     ry="1" />
  <path
     id="rect2063"
     style="fill:url(#linearGradient2216);fill-opacity:1;stroke-width:1.5;stroke-linecap:round;stroke-linejoin:round"
     d="M 10.000001,1 C 9.4460018,1 9.0000009,1.446 9.0000009,2 v 2 c 0,0.554 0.4460009,1 1.0000001,1 H 12 c 0.554,0 1,-0.446 1,-1 V 2 C 13,1.446 12.554,1 12,1 Z m 0,5 C 9.4460018,6 9.0000009,6.446 9.0000009,7 v 2 c 0,0.554 0.4460009,1 1.0000001,1 H 12 c 0.554,0 1,-0.446 1,-1 V 7 C 13,6.446 12.554,6 12,6 Z"
     sodipodi:nodetypes="ssssssssssssssssss" />
  <path
     id="rect2763"
     style="fill:#ffffff"
     d="m 6.9999999,1 v 1 h 1 V 1 Z M 14,1 v 1 h 1 V 1 Z M 6.9999999,3 v 1 h 1 V 3 Z M 14,3 v 1 h 1 V 3 Z M 6.9999999,5 v 1 h 1 V 5 Z M 14,5 v 1 h 1 V 5 Z M 6.9999999,7 v 1 h 1 V 7 Z M 14,7 v 1 h 1 V 7 Z M 6.9999999,9 v 1 h 1 V 9 Z M 14,9 v 1 h 1 V 9 Z"
     sodipodi:nodetypes="cccccccccccccccccccccccccccccccccccccccccccccccccc" />
</svg>
