<?xml version="1.0" encoding="UTF-8" standalone="no"?>
<!-- Created with Inkscape (http://www.inkscape.org/) -->

<svg
   width="16"
   height="16"
   viewBox="0 0 16 16"
   version="1.1"
   id="svg144504"
   inkscape:version="1.2.2 (1:1.2.2+202305151914+b0a8486541)"
   sodipodi:docname="network-wireless.svg"
   xmlns:inkscape="http://www.inkscape.org/namespaces/inkscape"
   xmlns:sodipodi="http://sodipodi.sourceforge.net/DTD/sodipodi-0.dtd"
   xmlns:xlink="http://www.w3.org/1999/xlink"
   xmlns="http://www.w3.org/2000/svg"
   xmlns:svg="http://www.w3.org/2000/svg">
  <sodipodi:namedview
     id="namedview144506"
     pagecolor="#ffffff"
     bordercolor="#666666"
     borderopacity="1.0"
     inkscape:pageshadow="2"
     inkscape:pageopacity="0.0"
     inkscape:pagecheckerboard="0"
     inkscape:document-units="px"
     showgrid="false"
     units="px"
     inkscape:zoom="50.375"
     inkscape:cx="7.9900744"
     inkscape:cy="8"
     inkscape:window-width="1920"
     inkscape:window-height="1008"
     inkscape:window-x="0"
     inkscape:window-y="0"
     inkscape:window-maximized="1"
     inkscape:current-layer="svg144504"
     inkscape:showpageshadow="2"
     inkscape:deskcolor="#d1d1d1" />
  <defs
     id="defs144501">
    <linearGradient
       inkscape:collect="always"
       id="linearGradient329500">
      <stop
         style="stop-color:#000000;stop-opacity:0"
         offset="0"
         id="stop329496" />
      <stop
         style="stop-color:#000000;stop-opacity:0"
         offset="0.4698768"
         id="stop330200" />
      <stop
         style="stop-color:#000000;stop-opacity:1"
         offset="1"
         id="stop329498" />
    </linearGradient>
    <radialGradient
       inkscape:collect="always"
       xlink:href="#linearGradient329500"
       id="radialGradient329502"
       cx="8.4666672"
       cy="12.7"
       fx="8.4666672"
       fy="12.7"
       r="7.6729169"
       gradientUnits="userSpaceOnUse"
       gradientTransform="matrix(2.0758134,0,0,2.0725675,-9.5768751,-12.01874)" />
    <radialGradient
       inkscape:collect="always"
       xlink:href="#linearGradient329500"
       id="radialGradient331953"
       cx="8.4666672"
       cy="12.170835"
       fx="8.4666672"
       fy="12.170835"
       r="4.2333336"
       gradientUnits="userSpaceOnUse"
       gradientTransform="matrix(1.9154095,0,0,1.9845812,-8.2187875,-10.451239)" />
  </defs>
  <path
     id="path332853"
     style="color:#000000;fill:#3cc2e2;stroke:none;stroke-width:0.589549;stroke-linecap:round;stroke-linejoin:round;-inkscape-stroke:none"
     d="M 7.9983456,2.002 C 5.0832763,2.0044304 2.2711334,3.1166911 0.09735672,5.1290817 a 0.28962068,0.30007982 0 0 0 -0.016968,0.4319071 L 7.7890696,13.909053 a 0.28962068,0.30007982 0 0 0 0.4191164,0 l 7.71038,-8.3521658 A 0.28962068,0.30007982 0 0 0 15.90386,5.1249794 C 13.72859,3.1132873 10.91408,2.0023751 7.9983456,2.002 Z" />
  <path
     id="path332859"
     style="color:#000000;fill:#1787d6;stroke-width:0.589549;stroke-linecap:round;stroke-linejoin:round;-inkscape-stroke:none"
     d="M 7.9983456,5.3019623 C 5.9049992,5.3046823 3.8825479,6.0905404 2.303797,7.514829 A 0.28962068,0.30007982 0 0 0 2.284565,7.949081 l 5.5045054,5.959972 a 0.28962068,0.30007982 0 0 0 0.4191156,0 L 13.71665,7.942049 A 0.28962068,0.30007982 0 0 0 13.69742,7.510141 C 12.11693,6.0866484 10.0925,5.3022663 7.9983456,5.3019623 Z" />
  <path
     id="path332865"
     style="color:#000000;fill:url(#radialGradient329502);stroke-width:0.589549;stroke-linecap:round;stroke-linejoin:round;-inkscape-stroke:none"
     d="M 7.9983456,5.3019623 C 5.9049992,5.3046823 3.8825479,6.0905404 2.303797,7.514829 A 0.28962068,0.30007982 0 0 0 2.284565,7.949081 l 5.5045054,5.959972 a 0.28962068,0.30007982 0 0 0 0.4191156,0 L 13.71665,7.942049 A 0.28962068,0.30007982 0 0 0 13.69742,7.510141 C 12.11693,6.0866484 10.0925,5.3022663 7.9983456,5.3019623 Z" />
  <path
     id="path332871"
     style="color:#000000;fill:#02589f;stroke-width:0.589549;stroke-linecap:round;stroke-linejoin:round;-inkscape-stroke:none"
     d="m 7.9983456,8.602511 c -1.2667745,0.003 -2.4848472,0.510472 -3.398743,1.419376 a 0.28962068,0.30007982 0 0 0 -0.00848,0.425461 l 3.1979518,3.461705 a 0.28962068,0.30007982 0 0 0 0.4191156,0 L 11.4101,10.440902 A 0.28962068,0.30007982 0 0 0 11.4016,10.017784 C 10.485688,9.109738 9.26607,8.602737 7.9983832,8.602511 Z" />
  <path
     id="path332877"
     style="color:#000000;opacity:0.2;fill:url(#radialGradient331953);stroke-width:0.589549;stroke-linecap:round;stroke-linejoin:round;-inkscape-stroke:none"
     d="m 7.9983456,8.602511 c -1.2674377,8e-4 -2.4855474,0.50707 -3.4010054,1.415273 a 0.28962068,0.30007982 0 0 0 -0.01075,0.424875 l 3.2024766,3.466397 a 0.28962068,0.30007982 0 0 0 0.4191162,0 l 3.201914,-3.468154 a 0.28962068,0.30007982 0 0 0 -0.0085,-0.423118 C 10.4856,9.109965 9.265987,8.602569 7.9983828,8.602511 Z" />
</svg>
