<?xml version="1.0" encoding="UTF-8" standalone="no"?>
<!-- Created with Inkscape (http://www.inkscape.org/) -->

<svg
   width="24"
   height="24"
   viewBox="0 0 24 24"
   version="1.1"
   id="svg851"
   inkscape:version="1.3.2 (091e20ef0f, 2023-11-25, custom)"
   sodipodi:docname="network-wired-available.svg"
   xmlns:inkscape="http://www.inkscape.org/namespaces/inkscape"
   xmlns:sodipodi="http://sodipodi.sourceforge.net/DTD/sodipodi-0.dtd"
   xmlns="http://www.w3.org/2000/svg"
   xmlns:svg="http://www.w3.org/2000/svg">
  <sodipodi:namedview
     id="namedview853"
     pagecolor="#ffffff"
     bordercolor="#666666"
     borderopacity="1.0"
     inkscape:pageshadow="2"
     inkscape:pageopacity="0.0"
     inkscape:pagecheckerboard="0"
     inkscape:document-units="px"
     showgrid="false"
     units="px"
     showguides="false"
     inkscape:zoom="33.708333"
     inkscape:cx="11.985167"
     inkscape:cy="11.985167"
     inkscape:window-width="1920"
     inkscape:window-height="1008"
     inkscape:window-x="0"
     inkscape:window-y="0"
     inkscape:window-maximized="1"
     inkscape:current-layer="svg851"
     inkscape:showpageshadow="2"
     inkscape:deskcolor="#d1d1d1" />
  <defs
     id="defs848">
    <style
       id="current-color-scheme"
       type="text/css">
        .ColorScheme-Text { color:#dedede; } .ColorScheme-Highlight { color:#3daee9; } .ColorScheme-NeutralText { color:#ff9800; } .ColorScheme-PositiveText { color:#4caf50; } .ColorScheme-NegativeText { color:#f44336; }
     </style>
  </defs>
  <path
     id="rect934"
     style="fill:currentColor;fill-opacity:1;stroke-width:3.99999;stroke-linecap:round;stroke-linejoin:round"
     class="ColorScheme-Text"
     d="M 6 5 C 4.892001 5 4 5.8920011 4 7 L 4 15 C 4 16.107999 4.892001 17 6 17 L 10 17 L 10 19 L 8 19 L 8 20 L 16 20 L 16 19 L 14 19 L 14 17 L 16 17 L 16 16 L 6 16 C 5.4460006 16 5 15.553999 5 15 L 5 7 C 5 6.4460006 5.4460006 6 6 6 L 14 6 L 14 5 L 6 5 z M 11 17 L 13 17 L 13 19 L 11 19 L 11 17 z " />
  <path
     d="m 16,4 c -0.554,0 -1,0.446 -1,1 v 5 c 0,0.554 0.446,1 1,1 h 1 v 9 h 1 v -9 h 1 c 0.554,0 1,-0.446 1,-1 V 5 C 20,4.446 19.554,4 19,4 Z m 0,1 h 3 v 1 h -3 z m 0,2 h 3 v 3 h -3 z"
     style="fill:currentColor;fill-opacity:1;stroke-width:3.99999;stroke-linecap:round;stroke-linejoin:round"
     id="path1"
     class="ColorScheme-Highlight" />
</svg>
