<?xml version="1.0" encoding="UTF-8" standalone="no"?>
<!-- Created with Inkscape (http://www.inkscape.org/) -->

<svg
   width="24"
   height="24"
   viewBox="0 0 24 24"
   version="1.1"
   id="svg5"
   sodipodi:docname="notification-disabled.svg"
   inkscape:version="1.3.2 (091e20ef0f, 2023-11-25, custom)"
   xmlns:inkscape="http://www.inkscape.org/namespaces/inkscape"
   xmlns:sodipodi="http://sodipodi.sourceforge.net/DTD/sodipodi-0.dtd"
   xmlns="http://www.w3.org/2000/svg"
   xmlns:svg="http://www.w3.org/2000/svg">
  <sodipodi:namedview
     id="namedview7"
     pagecolor="#ffffff"
     bordercolor="#000000"
     borderopacity="0.25"
     inkscape:showpageshadow="2"
     inkscape:pageopacity="0.0"
     inkscape:pagecheckerboard="0"
     inkscape:deskcolor="#d1d1d1"
     inkscape:document-units="px"
     showgrid="false"
     inkscape:zoom="33.916667"
     inkscape:cx="12"
     inkscape:cy="12"
     inkscape:window-width="1920"
     inkscape:window-height="1012"
     inkscape:window-x="0"
     inkscape:window-y="0"
     inkscape:window-maximized="1"
     inkscape:current-layer="svg5"
     showguides="true" />
  <defs
     id="defs2">
    <style
       id="current-color-scheme"
       type="text/css">
        .ColorScheme-Text { color:#dedede; } .ColorScheme-Highlight { color:#3daee9; } .ColorScheme-NeutralText { color:#ff9800; } .ColorScheme-PositiveText { color:#4caf50; } .ColorScheme-NegativeText { color:#f44336; }
     </style>
  </defs>
  <path
     d="M 11.994141,5 C 10.614342,5 9.3414709,5.4481789 8.3261719,6.2050781 l 0.71875,0.71875 C 9.871801,6.3448387 10.889542,6 11.994141,6 c 2.696997,0 4.892947,2.0340244 4.998047,4.607422 l 0.0039,0.205078 V 14.5 l 0.03906,0.191406 0.158203,0.38086 1.792969,1.792968 -0.01172,-0.07813 c -0.0127,-0.0569 -0.03013,-0.111915 -0.05273,-0.166015 l -0.925782,-2.222651 v -3.595704 l -0.0039,-0.224609 -0.01367,-0.222656 C 17.738016,7.3349718 15.143137,5 11.994141,5 Z M 7.578125,6.8710938 C 6.6461259,7.8487528 6.0562999,9.1370608 6,10.568359 l -0.00391,0.22461 v 3.607422 L 5.0722656,16.621094 5.0292969,16.748047 5.0078125,16.875 c -0.0504,0.4635 0.192736,0.881765 0.6035156,1.052734 l 0.125,0.04297 c 0.08456,0.0228 0.1718157,0.0332 0.2597657,0.0332 H 8 V 18 H 9.1777344 C 9.6007616,19.19651 10.730913,19.997393 12,20 c 1.269087,-0.0026 2.399239,-0.80349 2.822266,-2 H 17 v 0.0039 h 0.998047 l 0.134765,-0.0098 0.115235,-0.02734 c 0.10697,-0.03048 0.205219,-0.07622 0.292969,-0.132813 L 17.712891,17.005859 H 15 v -0.002 -0.002 V 17 h -1 v 0.002 0.002 0.002 L 10,17.004 V 17 H 9 v 0.0039 H 5.9960938 L 6.9589844,14.691406 6.9960938,14.5 V 10.802734 L 7,10.597656 7.0136719,10.384766 C 7.1057178,9.3060667 7.5699038,8.3316711 8.2832031,7.5761719 Z M 10.275391,18 h 3.449218 C 13.368676,18.616506 12.711871,18.997348 12,19 11.288129,18.9973 10.631324,18.616506 10.275391,18 Z"
     id="path1"
     style="fill:currentColor;fill-opacity:1"
     class="ColorScheme-Text" />
  <path
     d="m 5.2834179,4.781 c -0.1278098,0 -0.2555807,0.050503 -0.3535156,0.1484375 -0.1958698,0.1958698 -0.1958698,0.5111614 0,0.7070313 L 18.363496,19.070062 c 0.19587,0.19587 0.511162,0.19587 0.707031,0 0.19587,-0.195869 0.19587,-0.511161 0,-0.707031 L 5.6369336,4.9294375 C 5.5389986,4.8315026 5.4112278,4.781 5.2834179,4.781 Z"
     style="fill:currentColor;fill-opacity:1;-inkscape-stroke:none;paint-order:stroke fill markers"
     class="ColorScheme-NegativeText"
     id="path2" />
</svg>
