<?xml version="1.0" encoding="UTF-8" standalone="no"?>
<!-- Created with Inkscape (http://www.inkscape.org/) -->

<svg
   width="24"
   height="24"
   viewBox="0 0 24 24"
   version="1.1"
   id="svg2112"
   inkscape:version="1.3.2 (091e20ef0f, 2023-11-25, custom)"
   sodipodi:docname="obs-tray-active.svg"
   xmlns:inkscape="http://www.inkscape.org/namespaces/inkscape"
   xmlns:sodipodi="http://sodipodi.sourceforge.net/DTD/sodipodi-0.dtd"
   xmlns="http://www.w3.org/2000/svg"
   xmlns:svg="http://www.w3.org/2000/svg">
  <sodipodi:namedview
     id="namedview2114"
     pagecolor="#ffffff"
     bordercolor="#000000"
     borderopacity="0.25"
     inkscape:showpageshadow="2"
     inkscape:pageopacity="0.0"
     inkscape:pagecheckerboard="0"
     inkscape:deskcolor="#d1d1d1"
     inkscape:document-units="px"
     showgrid="false"
     inkscape:zoom="33.5"
     inkscape:cx="12"
     inkscape:cy="12"
     inkscape:window-width="1920"
     inkscape:window-height="1008"
     inkscape:window-x="0"
     inkscape:window-y="0"
     inkscape:window-maximized="1"
     inkscape:current-layer="svg2112" />
  <defs
     id="defs2109">
    <style
       id="current-color-scheme"
       type="text/css">
   .ColorScheme-Text { color:#dedede; } .ColorScheme-Highlight { color:#3daee9; } .ColorScheme-NeutralText { color:#ff9800; } .ColorScheme-PositiveText { color:#4caf50; } .ColorScheme-NegativeText { color:#f44336; }
    </style>
  </defs>
  <path
     id="path1"
     style="fill:currentColor"
     class="ColorScheme-Text"
     d="m 12,5 c -3.8659854,0 -7,3.1340146 -7,7 0,3.511646 2.5855953,6.420315 5.957031,6.923828 A 5,5 0 0 1 10.3125,17.705078 c -0.278747,-0.08333 -0.5514644,-0.186659 -0.8164062,-0.310547 0.2380625,0 0.4737641,-0.01172 0.6933592,-0.04492 a 5,5 0 0 1 -0.18164,-1.23633 c -0.4524937,0.247761 -0.9627066,0.370427 -1.4414068,0.316407 -0.1274896,-0.01474 -0.2218339,-0.02067 -0.3085937,-0.01953 -0.04344,0 -0.073686,-0.0088 -0.1660156,0.01953 -0.01089,0.0023 -0.027176,0.01386 -0.041016,0.01953 C 6.7771752,15.32087 6.0471579,13.701541 6.0449219,12 6.0444911,10.185523 6.8713972,8.4698922 8.2910156,7.3398438 8.0562362,7.8553426 7.9010938,8.517601 7.9023438,9.0625 c 0.0013,0.508689 0.1254297,1.113304 0.3183593,1.595703 0.05093,0.12737 0.1126754,0.29778 0.296875,0.41211 0.1841996,0.114329 0.3150104,0.109989 0.5,0.130859 0.1607198,0.01803 0.4937454,0.09004 0.640625,0.140625 0.7218969,0.248334 1.2551439,0.78032 1.5332029,1.423828 a 5,5 0 0 1 0.408203,-0.417969 c -0.216991,-0.339504 -0.489134,-0.653573 -0.804687,-0.925781 0.629086,0.235638 1.289569,0.283195 1.927734,0.138672 A 5,5 0 0 1 15,11 5,5 0 0 1 18.9375,12.921875 C 18.977255,12.619957 19,12.312772 19,12 19,8.1340146 15.865985,5 12,5 Z m 0,1.0449219 c 3.041912,0.00359 5.592025,2.2993989 5.914062,5.3242191 C 17.749604,11.106911 17.558999,10.85547 17.324219,10.625 16.672049,9.9789512 15.880504,9.5945498 14.941406,9.46875 c -0.14064,-0.018828 -0.25867,-0.052856 -0.449218,0.017578 -0.19168,0.069868 -0.285427,0.2227496 -0.341797,0.3183594 -0.08144,0.1378098 -0.546451,0.6113046 -0.806641,0.7773436 -0.738029,0.471609 -1.999636,0.471829 -2.740234,0 C 9.7277874,10.024223 9.229219,8.9312949 9.3867188,7.9667969 c 0.08926,-0.545899 0.3205789,-1.0207352 0.7050782,-1.4277344 0.07985,-0.084612 0.140683,-0.1504083 0.189453,-0.2050781 0.0118,-0.013157 0.02104,-0.0299 0.03125,-0.041016 C 10.860181,6.1297355 11.428512,6.0461983 12,6.0449219 Z m -3.2539062,2.8085937 0.00195,0.00391 c 0.104126,0.6263012 0.3554276,1.1560284 0.7773468,1.6445274 -0.1448796,-0.03278 -0.2867158,-0.07717 -0.4160156,-0.0918 -0.1043398,-0.01183 -0.1369481,-0.01909 -0.1425781,-0.01758 4.97e-4,0.0012 0.00115,0.0041 0.00195,0.0059 -0.0031,-0.0028 -0.00511,-0.0051 -0.00391,-0.0059 -0.0024,-0.0057 -0.0012,-0.0053 -0.011719,-0.0293 C 8.8078423,9.9998821 8.6982856,9.4324161 8.6972656,9.0605469 8.6971526,9.0056509 8.7399638,8.9195256 8.7460938,8.8535156 Z m 6.0546872,1.3867184 c 0.01021,6.81e-4 -0.02578,0.0076 0.0332,0.01563 0.32325,0.04333 0.51944,0.270817 0.78711,0.378907 -0.33573,-0.0507 -0.637939,-0.243387 -0.980469,-0.185547 -0.06919,0.01112 -0.08933,0.09223 -0.15625,0.107422 0.10094,-0.11274 0.244946,-0.201277 0.316406,-0.316407 z" />
  <path
     d="m 15,12 c -2.209139,0 -4,1.790861 -4,4 0,2.209139 1.790861,4 4,4 2.209139,0 4,-1.790861 4,-4 0,-2.209139 -1.790861,-4 -4,-4 z m 0,1 c 1.656854,0 3,1.343146 3,3 0,1.656854 -1.343146,3 -3,3 -1.656854,0 -3,-1.343146 -3,-3 0,-1.656854 1.343146,-3 3,-3 z m -1,1 v 4 l 3,-2 z"
     style="fill:currentColor"
     id="path1-3"
     class="ColorScheme-Highlight" />
</svg>
