<?xml version="1.0" encoding="UTF-8" standalone="no"?>
<!-- Created with Inkscape (http://www.inkscape.org/) -->

<svg
   width="24"
   height="24"
   viewBox="0 0 24 24"
   version="1.1"
   id="svg5"
   inkscape:version="1.3.2 (091e20ef0f, 2023-11-25, custom)"
   sodipodi:docname="user-desktop-symbolic.svg"
   xmlns:inkscape="http://www.inkscape.org/namespaces/inkscape"
   xmlns:sodipodi="http://sodipodi.sourceforge.net/DTD/sodipodi-0.dtd"
   xmlns="http://www.w3.org/2000/svg"
   xmlns:svg="http://www.w3.org/2000/svg">
  <sodipodi:namedview
     id="namedview7"
     pagecolor="#ffffff"
     bordercolor="#000000"
     borderopacity="0.25"
     inkscape:showpageshadow="2"
     inkscape:pageopacity="0.0"
     inkscape:pagecheckerboard="0"
     inkscape:deskcolor="#d1d1d1"
     inkscape:document-units="px"
     showgrid="false"
     inkscape:zoom="34"
     inkscape:cx="11.985294"
     inkscape:cy="12"
     inkscape:window-width="1920"
     inkscape:window-height="1014"
     inkscape:window-x="0"
     inkscape:window-y="0"
     inkscape:window-maximized="1"
     inkscape:current-layer="svg5" />
  <defs
     id="defs2">
    <style
       id="current-color-scheme"
       type="text/css">.ColorScheme-Text { color:#dedede; }</style>
  </defs>
  <path
     d="M 6,6 C 4.8920033,6 4,6.8920033 4,8 v 8 c 0,1.107997 0.8920033,2 2,2 h 12 c 1.107997,0 2,-0.892003 2,-2 V 8 C 20,6.8920033 19.107997,6 18,6 Z m 0,1 h 12 c 0.553997,0 1,0.4460018 1,1 v 8 c 0,0.553997 -0.446003,1 -1,1 H 6 C 5.4460018,17 5,16.553997 5,16 V 8 C 5,7.4460018 5.4460018,7 6,7 Z m 0.5,8 C 6.2230006,15 6,15.223 6,15.5 6,15.777 6.2230006,16 6.5,16 h 11 C 17.777,16 18,15.777 18,15.5 18,15.223 17.777,15 17.5,15 Z"
     style="fill:currentColor;fill-opacity:1;stroke-width:2;stroke-linecap:round"
     id="path1"
     class="ColorScheme-Text" />
</svg>
