<?xml version="1.0" encoding="UTF-8" standalone="no"?>
<!-- Created with Inkscape (http://www.inkscape.org/) -->

<svg
   width="48"
   height="48"
   viewBox="0 0 48 48.000002"
   version="1.1"
   id="svg5"
   inkscape:version="1.2.1 (9c6d41e410, 2022-07-14, custom)"
   sodipodi:docname="applications-multimedia.svg"
   xmlns:inkscape="http://www.inkscape.org/namespaces/inkscape"
   xmlns:sodipodi="http://sodipodi.sourceforge.net/DTD/sodipodi-0.dtd"
   xmlns:xlink="http://www.w3.org/1999/xlink"
   xmlns="http://www.w3.org/2000/svg"
   xmlns:svg="http://www.w3.org/2000/svg">
  <sodipodi:namedview
     id="namedview7"
     pagecolor="#ffffff"
     bordercolor="#000000"
     borderopacity="0.25"
     inkscape:showpageshadow="2"
     inkscape:pageopacity="0.0"
     inkscape:pagecheckerboard="0"
     inkscape:deskcolor="#d1d1d1"
     inkscape:document-units="px"
     showgrid="false"
     inkscape:zoom="17.770833"
     inkscape:cx="24"
     inkscape:cy="24"
     inkscape:window-width="1920"
     inkscape:window-height="1029"
     inkscape:window-x="0"
     inkscape:window-y="0"
     inkscape:window-maximized="1"
     inkscape:current-layer="svg5" />
  <defs
     id="defs2">
    <linearGradient
       inkscape:collect="always"
       id="linearGradient27684">
      <stop
         style="stop-color:#4a4a4a;stop-opacity:1;"
         offset="0"
         id="stop27680" />
      <stop
         style="stop-color:#232323;stop-opacity:0.74901962"
         offset="1"
         id="stop27682" />
    </linearGradient>
    <linearGradient
       inkscape:collect="always"
       xlink:href="#linearGradient12418"
       id="linearGradient2216"
       x1="39.999996"
       y1="5"
       x2="51.999996"
       y2="31"
       gradientUnits="userSpaceOnUse"
       gradientTransform="translate(-25.999996,1)" />
    <linearGradient
       inkscape:collect="always"
       id="linearGradient12418">
      <stop
         style="stop-color:#52e4ff;stop-opacity:1;"
         offset="0"
         id="stop12414" />
      <stop
         style="stop-color:#d29eff;stop-opacity:1"
         offset="1"
         id="stop12416" />
    </linearGradient>
    <linearGradient
       inkscape:collect="always"
       xlink:href="#linearGradient27684"
       id="linearGradient1679"
       x1="36"
       y1="28"
       x2="62"
       y2="55"
       gradientUnits="userSpaceOnUse"
       gradientTransform="matrix(0.92307693,0,0,1.1851852,-25.230768,-30.185186)" />
    <linearGradient
       inkscape:collect="always"
       xlink:href="#linearGradient1304"
       id="linearGradient888"
       x1="27"
       y1="19.341797"
       x2="23"
       y2="17"
       gradientUnits="userSpaceOnUse"
       gradientTransform="matrix(2,0,0,2,-12,-14)" />
    <linearGradient
       inkscape:collect="always"
       id="linearGradient1304">
      <stop
         style="stop-color:#272d34;stop-opacity:1;"
         offset="0"
         id="stop1300" />
      <stop
         style="stop-color:#5c6c7c;stop-opacity:1;"
         offset="1"
         id="stop1302" />
    </linearGradient>
  </defs>
  <rect
     style="fill:url(#linearGradient1679);fill-opacity:1;stroke-width:1.04595"
     id="rect1117"
     width="24"
     height="32"
     x="8"
     y="3"
     ry="2" />
  <path
     id="rect2063"
     style="fill:url(#linearGradient2216);fill-opacity:1;stroke-width:3;stroke-linecap:round;stroke-linejoin:round"
     d="m 16.000002,6 c -1.107998,0 -2,0.892 -2,2 v 8 c 0,1.108 0.892002,2 2,2 H 24 c 1.108,0 2,-0.892 2,-2 V 8 C 26,6.892 25.108,6 24,6 Z m 0,14 c -1.107998,0 -2,0.892 -2,2 v 8 c 0,1.108 0.892002,2 2,2 H 24 c 1.108,0 2,-0.892 2,-2 v -8 c 0,-1.108 -0.892,-2 -2,-2 z"
     sodipodi:nodetypes="ssssssssssssssssss" />
  <path
     id="path1056"
     style="fill:url(#linearGradient888);fill-opacity:1;stroke-width:7.49996;stroke-linecap:round;stroke-linejoin:round"
     d="m 36,20 c -1.107993,0 -2,0.892006 -2,2 V 37.001953 C 33.134764,36.352145 32.082074,36.000563 31,36 c -2.761424,0 -5,2.238576 -5,5 0,2.761424 2.238576,5 5,5 2.761424,0 5,-2.238576 5,-5 V 26 l 4.121094,1.5 C 41.162269,27.878958 42,27.291589 42,26.183594 v -2 C 42,23.075599 41.162269,21.878958 40.121094,21.5 Z"
     sodipodi:nodetypes="csccsssccsscc" />
  <path
     id="rect2312"
     style="fill:#ffffff;stroke-linecap:round"
     d="M 10.5,5 C 10.223,5 10,5.2230009 10,5.5 v 3 C 10,8.7769991 10.223,9 10.5,9 h 1 C 11.777,9 12,8.7769991 12,8.5 v -3 C 12,5.2230009 11.777,5 11.5,5 Z m 18,0 C 28.223,5 28,5.2230009 28,5.5 v 3 C 28,8.7769991 28.223,9 28.5,9 h 1 C 29.777,9 30,8.7769991 30,8.5 v -3 C 30,5.2230009 29.777,5 29.5,5 Z m -18,6 C 10.223,11 10,11.223001 10,11.5 v 3 c 0,0.277 0.223,0.5 0.5,0.5 h 1 c 0.277,0 0.5,-0.223 0.5,-0.5 v -3 C 12,11.223001 11.777,11 11.5,11 Z m 18,0 C 28.223,11 28,11.223001 28,11.5 v 3 c 0,0.277 0.223,0.5 0.5,0.5 h 1 c 0.277,0 0.5,-0.223 0.5,-0.5 v -3 C 30,11.223001 29.777,11 29.5,11 Z m -18,6 C 10.223,17 10,17.223 10,17.5 v 3 c 0,0.277 0.223,0.5 0.5,0.5 h 1 c 0.277,0 0.5,-0.223 0.5,-0.5 v -3 C 12,17.223 11.777,17 11.5,17 Z m 18,0 C 28.223,17 28,17.223 28,17.5 v 3 c 0,0.277 0.223,0.5 0.5,0.5 h 1 c 0.277,0 0.5,-0.223 0.5,-0.5 v -3 C 30,17.223 29.777,17 29.5,17 Z m -18,6 C 10.223,23 10,23.223 10,23.5 v 3 c 0,0.277 0.223,0.5 0.5,0.5 h 1 c 0.277,0 0.5,-0.223 0.5,-0.5 v -3 C 12,23.223 11.777,23 11.5,23 Z m 18,0 C 28.223,23 28,23.223 28,23.5 v 3 c 0,0.277 0.223,0.5 0.5,0.5 h 1 c 0.277,0 0.5,-0.223 0.5,-0.5 v -3 C 30,23.223 29.777,23 29.5,23 Z m -18,6 C 10.223,29 10,29.223 10,29.5 v 3 c 0,0.277 0.223,0.5 0.5,0.5 h 1 c 0.277,0 0.5,-0.223 0.5,-0.5 v -3 C 12,29.223 11.777,29 11.5,29 Z m 18,0 C 28.223,29 28,29.223 28,29.5 v 3 c 0,0.277 0.223,0.5 0.5,0.5 h 1 c 0.277,0 0.5,-0.223 0.5,-0.5 v -3 C 30,29.223 29.777,29 29.5,29 Z"
     sodipodi:nodetypes="ssssssssssssssssssssssssssssssssssssssssssssssssssssssssssssssssssssssssssssssssssssssssss" />
</svg>
