<?xml version="1.0" encoding="UTF-8" standalone="no"?>
<!-- Created with Inkscape (http://www.inkscape.org/) -->

<svg
   width="48"
   height="48"
   viewBox="0 0 48 48"
   version="1.1"
   id="svg307"
   inkscape:version="1.2.1 (9c6d41e410, 2022-07-14, custom)"
   sodipodi:docname="applications-office.svg"
   xmlns:inkscape="http://www.inkscape.org/namespaces/inkscape"
   xmlns:sodipodi="http://sodipodi.sourceforge.net/DTD/sodipodi-0.dtd"
   xmlns:xlink="http://www.w3.org/1999/xlink"
   xmlns="http://www.w3.org/2000/svg"
   xmlns:svg="http://www.w3.org/2000/svg">
  <sodipodi:namedview
     id="namedview309"
     pagecolor="#ffffff"
     bordercolor="#000000"
     borderopacity="0.25"
     inkscape:showpageshadow="2"
     inkscape:pageopacity="0.0"
     inkscape:pagecheckerboard="0"
     inkscape:deskcolor="#d1d1d1"
     inkscape:document-units="px"
     showgrid="false"
     inkscape:zoom="17.229167"
     inkscape:cx="23.970979"
     inkscape:cy="24"
     inkscape:window-width="1920"
     inkscape:window-height="1029"
     inkscape:window-x="0"
     inkscape:window-y="0"
     inkscape:window-maximized="1"
     inkscape:current-layer="svg307" />
  <defs
     id="defs304">
    <linearGradient
       inkscape:collect="always"
       xlink:href="#linearGradient984"
       id="linearGradient1848"
       x1="0.79374999"
       y1="1.0583334"
       x2="3.9876487"
       y2="5.5562496"
       gradientUnits="userSpaceOnUse"
       gradientTransform="matrix(8.1405209,0,0,8.0037058,1.5384615,0.5294114)" />
    <linearGradient
       inkscape:collect="always"
       id="linearGradient984">
      <stop
         style="stop-color:#26b4eb;stop-opacity:1;"
         offset="0"
         id="stop980" />
      <stop
         style="stop-color:#017adc;stop-opacity:1"
         offset="1"
         id="stop982" />
    </linearGradient>
    <linearGradient
       inkscape:collect="always"
       xlink:href="#linearGradient1353"
       id="linearGradient1856"
       x1="1.5875"
       y1="0.26458335"
       x2="5.0270834"
       y2="5.0270834"
       gradientUnits="userSpaceOnUse"
       gradientTransform="matrix(7.559055,0,0,7.559055,2,1)" />
    <linearGradient
       inkscape:collect="always"
       id="linearGradient1353">
      <stop
         style="stop-color:#fafafa;stop-opacity:1;"
         offset="0"
         id="stop1349" />
      <stop
         style="stop-color:#c7cdd1;stop-opacity:1"
         offset="1"
         id="stop1351" />
    </linearGradient>
    <linearGradient
       inkscape:collect="always"
       xlink:href="#linearGradient2287"
       id="linearGradient2043"
       x1="4.1319308"
       y1="0.66836673"
       x2="3.696754"
       y2="1.1765674"
       gradientUnits="userSpaceOnUse"
       gradientTransform="matrix(7.559055,0,0,7.559055,2,1)" />
    <linearGradient
       inkscape:collect="always"
       id="linearGradient2287">
      <stop
         style="stop-color:#6b7c85;stop-opacity:1"
         offset="0"
         id="stop2283" />
      <stop
         style="stop-color:#92a0a7;stop-opacity:1"
         offset="1"
         id="stop2285" />
    </linearGradient>
    <linearGradient
       inkscape:collect="always"
       xlink:href="#linearGradient7005"
       id="linearGradient3439"
       x1="20.596195"
       y1="18.18611"
       x2="6"
       y2="6"
       gradientUnits="userSpaceOnUse"
       gradientTransform="matrix(2,0,0,2,1,2)" />
    <linearGradient
       inkscape:collect="always"
       id="linearGradient7005">
      <stop
         style="stop-color:#0f7199;stop-opacity:1"
         offset="0"
         id="stop7001" />
      <stop
         style="stop-color:#78aed9;stop-opacity:1"
         offset="1"
         id="stop7003" />
    </linearGradient>
  </defs>
  <rect
     style="fill:url(#linearGradient1848);fill-opacity:1;stroke-width:2.13567"
     id="rect1048"
     width="26"
     height="36"
     x="8"
     y="9"
     ry="2" />
  <path
     id="rect944"
     style="fill:url(#linearGradient1856);fill-opacity:1;stroke-width:2"
     d="M 16,3 H 30 L 39.999998,13 40,37 c 0,1.108 -0.892002,2 -2.000002,2 H 16 c -1.108001,0 -2,-0.892 -2,-2 V 5.0000002 C 14,3.8920002 14.891999,3 16,3 Z"
     sodipodi:nodetypes="sccssssss" />
  <path
     id="rect1356"
     style="fill:url(#linearGradient2043);fill-opacity:1;stroke-width:2"
     d="M 39.999998,13 H 32.000002 C 30.892,13 30,12.108 30,11 V 3.0000004 Z"
     sodipodi:nodetypes="csscc" />
  <path
     id="rect3073"
     style="fill:url(#linearGradient3439);fill-opacity:1;stroke-width:2"
     d="m 19,17 c -0.553998,0 -1,0.446002 -1,1 0,0.553998 0.446002,1 1,1 h 6 c 0.553998,0 1,-0.446002 1,-1 0,-0.553998 -0.446002,-1 -1,-1 z m 11,0 c -0.553998,0 -1,0.446002 -1,1 v 5 c 0,0.553998 0.446002,1 1,1 h 5 c 0.553998,0 1,-0.446002 1,-1 v -5 c 0,-0.553998 -0.446002,-1 -1,-1 z m -11,5 c -0.553998,0 -1,0.446002 -1,1 0,0.553998 0.446002,1 1,1 h 6 c 0.553998,0 1,-0.446002 1,-1 0,-0.553998 -0.446002,-1 -1,-1 z m 0,5 c -0.553998,0 -1,0.446002 -1,1 0,0.553998 0.446002,1 1,1 h 16 c 0.553998,0 1,-0.446002 1,-1 0,-0.553998 -0.446002,-1 -1,-1 z m 0,5 c -0.553998,0 -1,0.446002 -1,1 0,0.553998 0.446002,1 1,1 h 16 c 0.553998,0 1,-0.446002 1,-1 0,-0.553998 -0.446002,-1 -1,-1 z"
     sodipodi:nodetypes="sssssssssssssssssssssssssssssssssssss" />
</svg>
