<?xml version="1.0" encoding="UTF-8" standalone="no"?>
<!-- Created with Inkscape (http://www.inkscape.org/) -->

<svg
   width="16"
   height="16"
   viewBox="0 0 16 16"
   version="1.1"
   id="svg1"
   inkscape:version="1.3.2 (091e20ef0f, 2023-11-25, custom)"
   sodipodi:docname="preferences-desktop-keyboard-shortcuts-symbolic.svg"
   xmlns:inkscape="http://www.inkscape.org/namespaces/inkscape"
   xmlns:sodipodi="http://sodipodi.sourceforge.net/DTD/sodipodi-0.dtd"
   xmlns="http://www.w3.org/2000/svg"
   xmlns:svg="http://www.w3.org/2000/svg">
  <sodipodi:namedview
     id="namedview1"
     pagecolor="#ffffff"
     bordercolor="#000000"
     borderopacity="0.25"
     inkscape:showpageshadow="2"
     inkscape:pageopacity="0.0"
     inkscape:pagecheckerboard="0"
     inkscape:deskcolor="#d1d1d1"
     inkscape:document-units="px"
     inkscape:zoom="40.1875"
     inkscape:cx="8"
     inkscape:cy="8"
     inkscape:window-width="1718"
     inkscape:window-height="851"
     inkscape:window-x="0"
     inkscape:window-y="0"
     inkscape:window-maximized="1"
     inkscape:current-layer="svg1" />
  <defs
     id="defs1" />
  <path
     d="m 1.50215,7.99999 c -0.83195,0 -1.50171,0.669 -1.50171,1.5 v 4 c 0,0.831 0.66976,1.5 1.50171,1.5 h 9.01023 c 0.83195,0 1.50171,-0.669 1.50171,-1.5 v -4 c 0,-0.831 -0.66976,-1.5 -1.50171,-1.5 z m 0.0626,1 c 3.18559,0.26867 6.11567,0.23073 8.88509,0 0.30227,-0.0252 0.56314,0.25953 0.56314,0.5625 v 2.875 c 0,0.30297 -0.26175,0.52842 -0.56314,0.5625 -3.00415,0.33966 -5.96426,0.32696 -8.88509,0 -0.30143,-0.0337 -0.56314,-0.25953 -0.56314,-0.5625 v -2.875 c 0,-0.30297 0.2609,-0.58799 0.56314,-0.5625 z m 7.9465,-9 c -0.83195,0 -1.50171,0.669 -1.50171,1.5 v 4 c 0,0.831 0.66976,1.5 1.50171,1.5 h 4.00454 c 0.83195,0 1.50171,-0.669 1.50171,-1.5 v -4 c 0,-0.831 -0.66976,-1.5 -1.50171,-1.5 z m 0.0626,1 c 1.29314,0.1279 2.58626,0.12207 3.8794,0 0.30198,-0.0285 0.56314,0.25953 0.56314,0.5625 v 2.875 c 0,0.30297 -0.26207,0.52562 -0.56314,0.5625 -1.25471,0.1537 -2.54146,0.17922 -3.8794,0 C 9.27322,4.95969 9.01071,4.74046 9.01071,4.43749 v -2.875 c 0,-0.30297 0.26129,-0.59235 0.56314,-0.5625 z m -8.0717,0 c -0.83194,0 -1.50171,0.669 -1.50171,1.5 v 3 c 0,0.831 0.66977,1.5 1.50171,1.5 H 5.5067 c 0.83194,0 1.50171,-0.669 1.50171,-1.5 v -3 c 0,-0.831 -0.66977,-1.5 -1.50171,-1.5 z m 0.0626,1 c 1.69195,0.19941 2.84797,0.13085 3.87941,0 0.3009,-0.0382 0.56314,0.25953 0.56314,0.5625 v 2.875 c 0,0.30297 -0.26231,0.5238 -0.56314,0.5625 -1.21498,0.1563 -2.49789,0.17677 -3.87941,0 C 1.26389,5.96149 1.00161,5.74046 1.00161,5.43749 v -2.875 c 0,-0.30297 0.26191,-0.598 0.56314,-0.5625 z"
     style="overflow:visible;fill:#dfdfdf;fill-opacity:1;marker:none"
     id="path1" />
</svg>
