<?xml version="1.0" encoding="UTF-8" standalone="no"?>
<!-- Created with Inkscape (http://www.inkscape.org/) -->

<svg
   width="16"
   height="16"
   viewBox="0 0 16 16"
   version="1.1"
   id="svg5"
   inkscape:version="1.3.2 (091e20ef0f, 2023-11-25, custom)"
   sodipodi:docname="tv-symbolic.svg"
   xmlns:inkscape="http://www.inkscape.org/namespaces/inkscape"
   xmlns:sodipodi="http://sodipodi.sourceforge.net/DTD/sodipodi-0.dtd"
   xmlns="http://www.w3.org/2000/svg"
   xmlns:svg="http://www.w3.org/2000/svg">
  <sodipodi:namedview
     id="namedview7"
     pagecolor="#ffffff"
     bordercolor="#000000"
     borderopacity="0.25"
     inkscape:showpageshadow="2"
     inkscape:pageopacity="0.0"
     inkscape:pagecheckerboard="0"
     inkscape:deskcolor="#d1d1d1"
     inkscape:document-units="px"
     showgrid="false"
     inkscape:zoom="50.5625"
     inkscape:cx="8"
     inkscape:cy="7.9901112"
     inkscape:window-width="1920"
     inkscape:window-height="1014"
     inkscape:window-x="0"
     inkscape:window-y="0"
     inkscape:window-maximized="1"
     inkscape:current-layer="svg5" />
  <defs
     id="defs2" />
  <path
     d="m -1.5e-7,4 c 0,-1.1046 0.89543,-2 1.99999995,-2 H 14 c 1.1046,0 2,0.89543 2,2 v 7 c 0,1.1046 -0.8954,2 -2,2 H 1.9999998 C 0.89539985,13 -1.5e-7,12.1046 -1.5e-7,11 Z M 1.9999998,3 C 1.4477198,3 0.99999985,3.44772 0.99999985,4 v 7 c 0,0.5523 0.44771995,1 0.99999995,1 H 14 c 0.5523,0 1,-0.4477 1,-1 V 4 C 15,3.44772 14.5523,3 14,3 Z m 1.0000001,11.5 c 0,-0.2761 0.22386,-0.5 0.5,-0.5 H 12.5 c 0.2761,0 0.5,0.2239 0.5,0.5 0,0.2761 -0.2239,0.5 -0.5,0.5 H 3.4999999 c -0.27614,0 -0.5,-0.2239 -0.5,-0.5 z"
     style="fill:#363636"
     id="path1" />
</svg>
