<?xml version="1.0" encoding="UTF-8" standalone="no"?>
<!-- Created with Inkscape (http://www.inkscape.org/) -->

<svg
   width="16"
   height="16"
   viewBox="0 0 16 16"
   version="1.1"
   id="svg5"
   inkscape:version="1.2.2 (1:1.2.2+202305151914+b0a8486541)"
   sodipodi:docname="fcitx-shuangpin.svg"
   xmlns:inkscape="http://www.inkscape.org/namespaces/inkscape"
   xmlns:sodipodi="http://sodipodi.sourceforge.net/DTD/sodipodi-0.dtd"
   xmlns="http://www.w3.org/2000/svg"
   xmlns:svg="http://www.w3.org/2000/svg">
  <sodipodi:namedview
     id="namedview7"
     pagecolor="#ffffff"
     bordercolor="#000000"
     borderopacity="0.25"
     inkscape:showpageshadow="2"
     inkscape:pageopacity="0.0"
     inkscape:pagecheckerboard="0"
     inkscape:deskcolor="#d1d1d1"
     inkscape:document-units="px"
     showgrid="false"
     inkscape:zoom="51.875"
     inkscape:cx="7.9903614"
     inkscape:cy="8"
     inkscape:window-width="1920"
     inkscape:window-height="1008"
     inkscape:window-x="0"
     inkscape:window-y="0"
     inkscape:window-maximized="1"
     inkscape:current-layer="svg5" />
  <defs
     id="defs2">
    <style
       id="current-color-scheme"
       type="text/css">.ColorScheme-Text { color:#dedede; }</style>
  </defs>
  <path
     d="M 1.9996,2 H 7.5484 L 7.4976,2.5508 c 0,0 -0.3276,3.5189 -1.2246,6.1289 0.583,0.87 1.1389,1.7693 1.8379,3.0093 L 7.2418,12.18 C 6.7028,11.23 6.2579,10.491 5.8199,9.8105 4.4259,12.931 2.4547,14.293 2.4547,14.293 L 1.898,13.461 c 0,0 1.9707,-1.31 3.2637,-4.6505 -0.765,-1.11 -1.6347,-2.23 -3.0527,-4 l 0.7812,-0.621 c 1.181,1.47 1.973,2.4911 2.668,3.4511 C 6.1092,5.7406 6.3563,3.64 6.4273,3 H 1.9996 Z m 6,0 h 6 v 0.5 c 0,2.15 -0.833,4.9702 -1.707,6.9102 -0.111,0.25 -0.242,0.4594 -0.367,0.6898 0.624,1.09 1.46,2.12 2.844,3.232 l -0.627,0.779 c -1.282,-1.034 -2.147,-2.04 -2.803,-3.06 -1.3932,1.984 -3.1037,3.033 -3.1037,3.033 L 7.7184,13.229 c 0,0 1.7803,-1.099 3.0682,-3.139 C 10.4486,9.4398 10.1656,8.7798 9.9,8.0898 9.142,6.1398 8.6914,3.59 8.5894,3 H 7.9996 Z M 9.607,3 c 0.14,0.77 0.5686,3.0305 1.2266,4.7305 0.173,0.45 0.351,0.8693 0.539,1.2793 0.757,-1.68 1.442,-4.1598 1.551,-6.0098 z"
     style="fill:currentColor"
     id="path396"
     class="ColorScheme-Text" />
</svg>
