<?xml version="1.0" encoding="UTF-8" standalone="no"?>
<svg
   width="22"
   height="22"
   version="1.1"
   id="svg1"
   sodipodi:docname="help-about-symbolic.svg"
   inkscape:version="1.4.2 (ebf0e940d0, 2025-05-08)"
   xmlns:inkscape="http://www.inkscape.org/namespaces/inkscape"
   xmlns:sodipodi="http://sodipodi.sourceforge.net/DTD/sodipodi-0.dtd"
   xmlns="http://www.w3.org/2000/svg"
   xmlns:svg="http://www.w3.org/2000/svg">
  <defs
     id="defs1">
    <style
       id="current-color-scheme"
       type="text/css">
        .ColorScheme-Text { color:#dedede; } .ColorScheme-Highlight { color:#4285f4; } .ColorScheme-NeutralText { color:#ff9800; } .ColorScheme-PositiveText { color:#4caf50; } .ColorScheme-NegativeText { color:#f44336; }
     </style>
  </defs>
  <sodipodi:namedview
     id="namedview1"
     pagecolor="#ffffff"
     bordercolor="#000000"
     borderopacity="0.25"
     inkscape:showpageshadow="2"
     inkscape:pageopacity="0.0"
     inkscape:pagecheckerboard="0"
     inkscape:deskcolor="#d1d1d1"
     inkscape:zoom="36.227273"
     inkscape:cx="11"
     inkscape:cy="11"
     inkscape:window-width="1920"
     inkscape:window-height="1012"
     inkscape:window-x="0"
     inkscape:window-y="0"
     inkscape:window-maximized="1"
     inkscape:current-layer="svg1" />
  <path
     id="path1"
     style="fill:currentColor;fill-opacity:1"
     class="ColorScheme-Text"
     d="M 11,4 C 10.44242,4 10.173223,4.2985406 10.001953,4.4941406 9.830693,4.6897406 9.718872,4.8823338 9.607422,5.0898438 9.384512,5.5048738 9.187767,5.98424 8.9980469,6.46875 8.8083269,6.95326 8.6290456,7.4397369 8.4785156,7.8105469 c -0.075264,0.18541 -0.1437493,0.3415162 -0.1933594,0.4414062 -6.278e-4,0.00126 -0.00332,0.00486 -0.00391,0.00586 -0.00333,0.00479 -0.00585,0.00686 -0.00977,0.013672 -0.00682,0.00392 -0.01084,0.00839 -0.015625,0.011719 -9.946e-4,5.846e-4 -0.00264,0.00133 -0.00391,0.00195 C 8.1520691,8.3347632 7.9959569,8.4032556 7.8105469,8.4785156 7.4397369,8.6290456 6.95327,8.8083269 6.46875,8.9980469 5.98423,9.187767 5.5048737,9.384512 5.0898438,9.607422 4.8823238,9.718872 4.6897306,9.830693 4.4941406,10.001953 4.2985406,10.173213 4,10.44241 4,11 c 0,0.55759 0.2985406,0.826777 0.4941406,0.998047 0.1956,0.17126 0.3881931,0.283081 0.5957032,0.394531 0.4150299,0.22291 0.8943962,0.419665 1.3789062,0.609375 0.48452,0.18972 0.9709869,0.369001 1.3417969,0.519531 0.18541,0.07526 0.3415162,0.14375 0.4414062,0.19336 0.010815,0.0054 0.011853,0.0081 0.021484,0.01367 0.00493,0.0086 0.00698,0.01 0.011719,0.01953 0.04961,0.09989 0.1180994,0.255996 0.1933594,0.441406 0.15053,0.37081 0.3298113,0.857277 0.5195313,1.341797 0.1897202,0.48452 0.3864652,0.963886 0.6093752,1.378906 0.11145,0.20752 0.223271,0.400113 0.394531,0.595703 C 10.173213,17.701499 10.44241,18 11,18 c 0.55759,0 0.826777,-0.298541 0.998047,-0.494141 0.17126,-0.1956 0.283081,-0.388193 0.394531,-0.595703 0.22291,-0.41503 0.419665,-0.894396 0.609375,-1.378906 0.18972,-0.48452 0.369001,-0.970987 0.519531,-1.341797 0.07526,-0.1854 0.14375,-0.341516 0.19336,-0.441406 0.0054,-0.01082 0.0081,-0.01185 0.01367,-0.02149 0.0086,-0.0049 0.01,-0.007 0.01953,-0.01172 0.09989,-0.04961 0.255996,-0.1181 0.441406,-0.19336 0.37085,-0.15057 0.857277,-0.329811 1.341797,-0.519531 0.48452,-0.18972 0.963886,-0.386475 1.378906,-0.609375 0.20752,-0.11145 0.400113,-0.223271 0.595703,-0.394531 C 17.701459,11.826787 18,11.55759 18,11 18,10.44241 17.701459,10.173223 17.505859,10.001953 17.310259,9.830693 17.117666,9.718872 16.910156,9.607422 16.495126,9.384512 16.01576,9.187767 15.53125,8.9980469 15.04674,8.8083269 14.560263,8.6290456 14.189453,8.4785156 c -0.1854,-0.075264 -0.341516,-0.1437493 -0.441406,-0.1933594 -0.0013,-6.278e-4 -0.0049,-0.00332 -0.0059,-0.00391 -0.0048,-0.00333 -0.0069,-0.00585 -0.01367,-0.00977 -0.0039,-0.00682 -0.0084,-0.01084 -0.01172,-0.015625 -5.84e-4,-9.946e-4 -0.0013,-0.00264 -0.002,-0.00391 C 13.665107,8.1520572 13.596657,7.995945 13.521397,7.810535 13.370954,7.4397369 13.191673,6.95327 13.001953,6.46875 12.812233,5.98423 12.615478,5.5048737 12.392578,5.0898438 12.281128,4.8823238 12.169307,4.6897306 11.998047,4.4941406 11.826787,4.2985406 11.55759,4 11,4 Z M 10.98633,5 C 10.99123,4.9995689 10.99513,5 11,5 11.61714,5 12.568659,8.5579406 13.005859,8.9941406 13.442149,9.431281 17,10.3828 17,11 17,11.6172 13.442059,12.568659 13.005859,13.005859 12.568719,13.442149 11.6172,17 11,17 10.3828,17 9.431341,13.442059 8.9941406,13.005859 8.5578506,12.568719 5,11.6172 5,11 5,10.3828 8.5579406,9.431341 8.9941406,8.9941406 9.427865,8.5612591 10.368818,5.054752 10.986328,5 Z" />
</svg>
