<?xml version="1.0" encoding="UTF-8" standalone="no"?>
<svg
   width="24"
   height="24"
   version="1.1"
   viewBox="0 0 24 24"
   id="svg3"
   sodipodi:docname="edit-delete-symbolic.svg"
   inkscape:version="1.4.2 (ebf0e940d0, 2025-05-08)"
   xmlns:inkscape="http://www.inkscape.org/namespaces/inkscape"
   xmlns:sodipodi="http://sodipodi.sourceforge.net/DTD/sodipodi-0.dtd"
   xmlns="http://www.w3.org/2000/svg"
   xmlns:svg="http://www.w3.org/2000/svg">
  <sodipodi:namedview
     id="namedview3"
     pagecolor="#ffffff"
     bordercolor="#000000"
     borderopacity="0.25"
     inkscape:showpageshadow="2"
     inkscape:pageopacity="0.0"
     inkscape:pagecheckerboard="0"
     inkscape:deskcolor="#d1d1d1"
     inkscape:zoom="33.208333"
     inkscape:cx="12"
     inkscape:cy="12"
     inkscape:window-width="1920"
     inkscape:window-height="1011"
     inkscape:window-x="0"
     inkscape:window-y="0"
     inkscape:window-maximized="1"
     inkscape:current-layer="svg3" />
  <defs
     id="defs1">
    <style
       id="current-color-scheme"
       type="text/css">.ColorScheme-Text { color:#363636; }</style>
  </defs>
  <path
     d="M 10,4 C 9.446,4 9,4.446 9,5 V 6 H 4.5 C 4.223,6 4,6.223 4,6.5 4,6.777 4.223,7 4.5,7 h 0.49805 l 0.54688,11.061 c 0.0612,1.0155 0.90615,1.9395 1.998,1.9395 h 7.9141 c 1.0919,0 1.9368,-0.92391 1.998,-1.9395 L 18.00191,7 h 0.49805 c 0.277,0 0.5,-0.223 0.5,-0.5 0,-0.277 -0.223,-0.5 -0.5,-0.5 h -4.5 V 5 c 0,-0.554 -0.446,-1 -1,-1 h -3 z m 0,1 h 3 V 6 H 10 Z M 6,7 h 11 l -0.54297,11 c -0.03333,0.553 -0.446,1 -1,1 h -7.9141 c -0.554,0 -0.96667,-0.447 -1,-1 L 5.99996,7 Z M 8.5,9 C 8.223,9 8,9.223 8,9.5 v 7 C 8,16.777 8.223,17 8.5,17 8.777,17 9,16.777 9,16.5 v -7 C 9,9.223 8.777,9 8.5,9 Z m 3,0 C 11.223,9 11,9.223 11,9.5 v 7 c 0,0.277 0.223,0.5 0.5,0.5 0.277,0 0.5,-0.223 0.5,-0.5 v -7 C 12,9.223 11.777,9 11.5,9 Z m 3,0 C 14.223,9 14,9.223 14,9.5 v 7 c 0,0.277 0.223,0.5 0.5,0.5 0.277,0 0.5,-0.223 0.5,-0.5 v -7 C 15,9.223 14.777,9 14.5,9 Z"
     style="fill:#dedede;fill-opacity:1"
     id="path1" />
</svg>
