<?xml version="1.0" encoding="UTF-8" standalone="no"?>
<!-- Created with Inkscape (http://www.inkscape.org/) -->

<svg
   width="64"
   height="64"
   viewBox="0 0 64 64"
   version="1.1"
   id="svg484"
   inkscape:version="1.2.1 (9c6d41e410, 2022-07-14, custom)"
   sodipodi:docname="accessories-text-editor.svg"
   xmlns:inkscape="http://www.inkscape.org/namespaces/inkscape"
   xmlns:sodipodi="http://sodipodi.sourceforge.net/DTD/sodipodi-0.dtd"
   xmlns:xlink="http://www.w3.org/1999/xlink"
   xmlns="http://www.w3.org/2000/svg"
   xmlns:svg="http://www.w3.org/2000/svg">
  <sodipodi:namedview
     id="namedview486"
     pagecolor="#ffffff"
     bordercolor="#000000"
     borderopacity="0.25"
     inkscape:showpageshadow="2"
     inkscape:pageopacity="0.0"
     inkscape:pagecheckerboard="0"
     inkscape:deskcolor="#d1d1d1"
     inkscape:document-units="px"
     showgrid="false"
     inkscape:zoom="12.8125"
     inkscape:cx="31.960976"
     inkscape:cy="32"
     inkscape:window-width="1920"
     inkscape:window-height="1029"
     inkscape:window-x="0"
     inkscape:window-y="0"
     inkscape:window-maximized="1"
     inkscape:current-layer="svg484" />
  <defs
     id="defs481">
    <linearGradient
       inkscape:collect="always"
       xlink:href="#linearGradient2818"
       id="linearGradient3170"
       x1="8.4666729"
       y1="14.287501"
       x2="8.4666729"
       y2="16.404167"
       gradientUnits="userSpaceOnUse"
       gradientTransform="matrix(3.4645662,0,0,3.7795468,2.6666673,-3.0003293)" />
    <linearGradient
       inkscape:collect="always"
       id="linearGradient2818">
      <stop
         style="stop-color:#000000;stop-opacity:0.40000001"
         offset="0"
         id="stop2814" />
      <stop
         style="stop-color:#000000;stop-opacity:0;"
         offset="1"
         id="stop2816" />
    </linearGradient>
    <linearGradient
       inkscape:collect="always"
       xlink:href="#linearGradient2818"
       id="linearGradient2820"
       x1="8.466671"
       y1="13.229167"
       x2="8.466671"
       y2="15.345834"
       gradientUnits="userSpaceOnUse"
       gradientTransform="matrix(3.4645662,0,0,3.7795468,2.6666673,-2.3337949)" />
    <linearGradient
       inkscape:collect="always"
       xlink:href="#linearGradient1552"
       id="linearGradient1554"
       x1="2.1166668"
       y1="10.318751"
       x2="14.816668"
       y2="10.318751"
       gradientUnits="userSpaceOnUse"
       gradientTransform="matrix(3.4645667,0,0,3.3434455,2.666666,-7.3846801)" />
    <linearGradient
       inkscape:collect="always"
       id="linearGradient1552">
      <stop
         style="stop-color:#75d4f0;stop-opacity:1;"
         offset="0"
         id="stop1548" />
      <stop
         style="stop-color:#40b0d1;stop-opacity:1"
         offset="1"
         id="stop1550" />
    </linearGradient>
  </defs>
  <rect
     style="fill:#974711;fill-opacity:1;stroke-width:0.759165"
     id="rect939"
     width="43.999996"
     height="50.000256"
     x="10"
     y="10.999743"
     ry="2.6666665" />
  <rect
     style="fill:url(#linearGradient3170);fill-opacity:1;stroke-width:0.957423"
     id="rect3082"
     width="43.999996"
     height="8.000042"
     x="10"
     y="50.99995" />
  <rect
     style="fill:#ffffff;fill-opacity:1;stroke-width:0.957423"
     id="rect1934"
     width="44"
     height="50.666664"
     x="10"
     y="6.3331409"
     ry="2.6666665" />
  <rect
     style="fill:url(#linearGradient2820);fill-opacity:1;stroke-width:0.957423"
     id="rect2710"
     width="43.999996"
     height="8.000042"
     x="10"
     y="47.66647" />
  <rect
     style="fill:url(#linearGradient1554);fill-opacity:1;stroke-width:0.900498"
     id="rect1392"
     width="44"
     height="48.000252"
     x="10"
     y="5"
     ry="2.6666665" />
  <path
     id="rect1581"
     style="fill:#006e8f;fill-opacity:1;stroke-width:2.00001"
     d="m 17,19 v 4.000021 H 47.000147 V 19 Z m 0,11 v 4 h 30.000147 v -4 z m 0,10 v 4 h 30.000147 v -4 z"
     sodipodi:nodetypes="ccccccccccccccc" />
  <path
     id="rect1466"
     style="fill:#006e8f;fill-opacity:1;stroke-width:3;stroke-linecap:round"
     d="m 17,1 c -1.661998,0 -3,1.3380017 -3,3 v 4 c 0,1.661998 1.338002,3 3,3 1.661998,0 3,-1.338002 3,-3 V 4 C 20,2.3380017 18.661998,1 17,1 Z m 10,0 c -1.661998,0 -3,1.3380017 -3,3 v 4 c 0,1.661998 1.338002,3 3,3 1.661998,0 3,-1.338002 3,-3 V 4 C 30,2.3380017 28.661998,1 27,1 Z m 10,0 c -1.661998,0 -3,1.3380017 -3,3 v 4 c 0,1.661998 1.338002,3 3,3 1.661998,0 3,-1.338002 3,-3 V 4 C 40,2.3380017 38.661998,1 37,1 Z m 10,0 c -1.661998,0 -3,1.3380017 -3,3 v 4 c 0,1.661998 1.338002,3 3,3 1.661998,0 3,-1.338002 3,-3 V 4 C 50,2.3380017 48.661998,1 47,1 Z" />
</svg>
