<?xml version="1.0" encoding="UTF-8" standalone="no"?>
<!-- Created with Inkscape (http://www.inkscape.org/) -->

<svg
   width="64"
   height="64"
   viewBox="0 0 64 64"
   version="1.1"
   id="svg2535"
   inkscape:version="1.2 (1:1.2.1+202207142221+cd75a1ee6d)"
   sodipodi:docname="accessories-calculator.svg"
   xmlns:inkscape="http://www.inkscape.org/namespaces/inkscape"
   xmlns:sodipodi="http://sodipodi.sourceforge.net/DTD/sodipodi-0.dtd"
   xmlns:xlink="http://www.w3.org/1999/xlink"
   xmlns="http://www.w3.org/2000/svg"
   xmlns:svg="http://www.w3.org/2000/svg">
  <sodipodi:namedview
     id="namedview2537"
     pagecolor="#ffffff"
     bordercolor="#000000"
     borderopacity="0.25"
     inkscape:showpageshadow="2"
     inkscape:pageopacity="0.0"
     inkscape:pagecheckerboard="0"
     inkscape:deskcolor="#d1d1d1"
     inkscape:document-units="px"
     showgrid="false"
     inkscape:zoom="12.65625"
     inkscape:cx="31.960494"
     inkscape:cy="32"
     inkscape:window-width="1920"
     inkscape:window-height="1012"
     inkscape:window-x="0"
     inkscape:window-y="0"
     inkscape:window-maximized="1"
     inkscape:current-layer="svg2535"
     showguides="false" />
  <defs
     id="defs2532">
    <linearGradient
       inkscape:collect="always"
       xlink:href="#linearGradient5081"
       id="linearGradient986"
       x1="2.9104166"
       y1="0.5291667"
       x2="5.9287829"
       y2="3.7041667"
       gradientUnits="userSpaceOnUse"
       gradientTransform="matrix(13.914811,0,0,17.637795,-29.497894,-5.3333338)" />
    <linearGradient
       inkscape:collect="always"
       id="linearGradient5081">
      <stop
         style="stop-color:#8a9198;stop-opacity:1;"
         offset="0"
         id="stop5077" />
      <stop
         style="stop-color:#63707b;stop-opacity:1"
         offset="1"
         id="stop5079" />
    </linearGradient>
    <linearGradient
       inkscape:collect="always"
       xlink:href="#linearGradient2484"
       id="linearGradient1114"
       x1="2.9104166"
       y1="1.0054166"
       x2="4.945673"
       y2="1.9125595"
       gradientUnits="userSpaceOnUse"
       gradientTransform="matrix(16.705512,0,0,11.023622,-33.62,-3.0833324)" />
    <linearGradient
       inkscape:collect="always"
       id="linearGradient2484">
      <stop
         style="stop-color:#50e6ff;stop-opacity:1;"
         offset="0"
         id="stop2480" />
      <stop
         style="stop-color:#29b1eb;stop-opacity:1;"
         offset="1"
         id="stop2482" />
    </linearGradient>
    <linearGradient
       inkscape:collect="always"
       xlink:href="#linearGradient2160"
       id="linearGradient2162"
       x1="2.6458335"
       y1="2.3812501"
       x2="3.1750002"
       y2="3.7041669"
       gradientUnits="userSpaceOnUse"
       gradientTransform="matrix(18.897636,0,0,16.629921,-10.999999,-5.6000008)" />
    <linearGradient
       inkscape:collect="always"
       id="linearGradient2160">
      <stop
         style="stop-color:#114a8b;stop-opacity:1;"
         offset="0"
         id="stop2156" />
      <stop
         style="stop-color:#173b74;stop-opacity:1;"
         offset="1"
         id="stop2158" />
    </linearGradient>
  </defs>
  <rect
     style="fill:url(#linearGradient986);fill-opacity:1;stroke-width:8.28998;stroke-linecap:round;stroke-linejoin:round;stroke-dasharray:99.4796, 8.28998"
     id="rect846"
     width="42"
     height="56"
     x="11"
     y="4"
     ry="3" />
  <rect
     style="fill:url(#linearGradient1114);fill-opacity:1;stroke-width:3.59046"
     id="rect960"
     width="34"
     height="10"
     x="15"
     y="8"
     ry="1" />
  <rect
     style="fill:url(#linearGradient2162);fill-opacity:1;stroke-width:4.69038"
     id="rect473"
     width="10"
     height="22"
     x="39"
     y="34"
     ry="1" />
  <path
     id="rect475"
     style="fill:#cad2d9;fill-opacity:1;stroke-width:4"
     d="M 16 22 C 15.446002 22 15 22.446002 15 23 L 15 31 C 15 31.553998 15.446002 32 16 32 L 24 32 C 24.553998 32 25 31.553998 25 31 L 25 23 C 25 22.446002 24.553998 22 24 22 L 16 22 z M 28 22 C 27.446002 22 27 22.446002 27 23 L 27 31 C 27 31.553998 27.446002 32 28 32 L 36 32 C 36.553998 32 37 31.553998 37 31 L 37 23 C 37 22.446002 36.553998 22 36 22 L 28 22 z M 40 22 C 39.446002 22 39 22.446002 39 23 L 39 31 C 39 31.553998 39.446002 32 40 32 L 48 32 C 48.553998 32 49 31.553998 49 31 L 49 23 C 49 22.446002 48.553998 22 48 22 L 40 22 z M 16 34 C 15.446002 34 15 34.446002 15 35 L 15 43 C 15 43.553998 15.446002 44 16 44 L 24 44 C 24.553998 44 25 43.553998 25 43 L 25 35 C 25 34.446002 24.553998 34 24 34 L 16 34 z M 28 34 C 27.446002 34 27 34.446002 27 35 L 27 43 C 27 43.553998 27.446002 44 28 44 L 36 44 C 36.553998 44 37 43.553998 37 43 L 37 35 C 37 34.446002 36.553998 34 36 34 L 28 34 z M 16 46 C 15.446002 46 15 46.446002 15 47 L 15 55 C 15 55.553998 15.446002 56 16 56 L 24 56 C 24.553998 56 25 55.553998 25 55 L 25 47 C 25 46.446002 24.553998 46 24 46 L 16 46 z M 28 46 C 27.446002 46 27 46.446002 27 47 L 27 55 C 27 55.553998 27.446002 56 28 56 L 36 56 C 36.553998 56 37 55.553998 37 55 L 37 47 C 37 46.446002 36.553998 46 36 46 L 28 46 z " />
</svg>
