<?xml version="1.0" encoding="UTF-8" standalone="no"?>
<!-- Created with Inkscape (http://www.inkscape.org/) -->

<svg
   width="64"
   height="64"
   viewBox="0 0 64 64"
   version="1.1"
   id="svg2112"
   inkscape:version="1.2.1 (9c6d41e410, 2022-07-14, custom)"
   sodipodi:docname="accessories-character-map.svg"
   xmlns:inkscape="http://www.inkscape.org/namespaces/inkscape"
   xmlns:sodipodi="http://sodipodi.sourceforge.net/DTD/sodipodi-0.dtd"
   xmlns:xlink="http://www.w3.org/1999/xlink"
   xmlns="http://www.w3.org/2000/svg"
   xmlns:svg="http://www.w3.org/2000/svg">
  <sodipodi:namedview
     id="namedview2114"
     pagecolor="#ffffff"
     bordercolor="#000000"
     borderopacity="0.25"
     inkscape:showpageshadow="2"
     inkscape:pageopacity="0.0"
     inkscape:pagecheckerboard="0"
     inkscape:deskcolor="#d1d1d1"
     inkscape:document-units="px"
     showgrid="false"
     inkscape:zoom="12.53125"
     inkscape:cx="32"
     inkscape:cy="32"
     inkscape:window-width="1920"
     inkscape:window-height="1011"
     inkscape:window-x="0"
     inkscape:window-y="0"
     inkscape:window-maximized="1"
     inkscape:current-layer="svg2112" />
  <defs
     id="defs2109">
    <linearGradient
       inkscape:collect="always"
       xlink:href="#linearGradient23571"
       id="linearGradient23573"
       x1="0.5291667"
       y1="5.0270834"
       x2="16.404167"
       y2="19.84375"
       gradientUnits="userSpaceOnUse"
       gradientTransform="matrix(3.527559,0,0,3.7795275,2.1333333,-15)" />
    <linearGradient
       inkscape:collect="always"
       id="linearGradient23571">
      <stop
         style="stop-color:#b6bec5;stop-opacity:1;"
         offset="0"
         id="stop23567" />
      <stop
         style="stop-color:#9ba3aa;stop-opacity:1"
         offset="1"
         id="stop23569" />
    </linearGradient>
  </defs>
  <rect
     style="fill:url(#linearGradient23573);fill-opacity:1;stroke-width:0.966091;stroke-linejoin:round"
     id="rect858"
     width="56"
     height="56"
     x="4"
     y="4"
     ry="8" />
  <rect
     style="opacity:0.2;fill:#000000;fill-opacity:1;stroke-linecap:round;stroke-linejoin:round"
     id="rect883"
     width="48"
     height="48"
     x="8"
     y="9"
     ry="4" />
  <rect
     style="fill:#edeef0;fill-opacity:1;stroke-linecap:round;stroke-linejoin:round"
     id="rect415"
     width="48"
     height="48"
     x="8"
     y="8"
     ry="4" />
  <path
     d="m 40.773437,49.234375 h -3.84375 v -3.1875 h -0.09375 c -0.8125,1.203125 -1.84375,2.132812 -3.09375,2.789062 -1.234375,0.640625 -2.601562,0.960938 -4.101562,0.960938 C 27.25,49.796875 25.375,49.15625 24.015625,47.875 22.671875,46.59375 22,44.992187 22,43.070312 c 0,-2.25 0.703125,-3.992187 2.109375,-5.226562 1.40625,-1.25 3.375,-2.023438 5.90625,-2.320313 l 6.914062,-0.796875 v -1.523437 c 0,-1.734375 -0.453125,-3.03125 -1.359375,-3.890625 C 34.679687,28.4375 33.453125,28 31.890625,28 c -1.484375,0 -2.710938,0.335937 -3.679688,1.007812 -0.96875,0.65625 -1.710937,1.578125 -2.226562,2.765625 l -3.351563,-1.382812 c 0.78125,-1.8125 1.984375,-3.21875 3.609375,-4.21875 1.640625,-1 3.59375,-1.5 5.859375,-1.5 2.796875,0 4.9375,0.75 6.421875,2.25 1.5,1.484375 2.25,3.570312 2.25,6.257812 z m -3.84375,-9.75 V 37.84375 l -6.65625,0.75 c -1.484375,0.171875 -2.578125,0.601562 -3.28125,1.289062 -0.703125,0.671875 -1.054687,1.570313 -1.054687,2.695313 0,1.234375 0.40625,2.226562 1.21875,2.976562 0.8125,0.734375 1.875,1.101563 3.1875,1.101563 1.96875,0 3.554687,-0.671875 4.757812,-2.015625 1.21875,-1.359375 1.828125,-3.078125 1.828125,-5.15625 z M 35.03125,20.6875 H 32.054687 L 25.914062,13 h 3.9375 z"
     style="font-size:48px;font-family:'Segoe UI Variable Static Display';-inkscape-font-specification:'Segoe UI Variable Static Display';text-align:center;text-anchor:middle;stroke-linecap:round;stroke-linejoin:round;fill:#666666"
     id="path1055" />
</svg>
