<?xml version="1.0" encoding="UTF-8" standalone="no"?>
<!-- Created with Inkscape (http://www.inkscape.org/) -->

<svg
   width="64"
   height="64"
   viewBox="0 0 64 64"
   version="1.1"
   id="svg2535"
   inkscape:version="1.2.1 (9c6d41e410, 2022-07-14, custom)"
   sodipodi:docname="applets-screenshooter.svg"
   xmlns:inkscape="http://www.inkscape.org/namespaces/inkscape"
   xmlns:sodipodi="http://sodipodi.sourceforge.net/DTD/sodipodi-0.dtd"
   xmlns:xlink="http://www.w3.org/1999/xlink"
   xmlns="http://www.w3.org/2000/svg"
   xmlns:svg="http://www.w3.org/2000/svg">
  <sodipodi:namedview
     id="namedview2537"
     pagecolor="#ffffff"
     bordercolor="#000000"
     borderopacity="0.25"
     inkscape:showpageshadow="2"
     inkscape:pageopacity="0.0"
     inkscape:pagecheckerboard="0"
     inkscape:deskcolor="#d1d1d1"
     inkscape:document-units="px"
     showgrid="false"
     inkscape:zoom="12.8125"
     inkscape:cx="32"
     inkscape:cy="32"
     inkscape:window-width="1920"
     inkscape:window-height="1029"
     inkscape:window-x="0"
     inkscape:window-y="0"
     inkscape:window-maximized="1"
     inkscape:current-layer="svg2535"
     showguides="false" />
  <defs
     id="defs2532">
    <linearGradient
       inkscape:collect="always"
       xlink:href="#linearGradient1430"
       id="linearGradient1432"
       x1="0.5291667"
       y1="0.79375005"
       x2="11.641667"
       y2="11.90625"
       gradientUnits="userSpaceOnUse"
       gradientTransform="scale(3.7795275)" />
    <linearGradient
       inkscape:collect="always"
       id="linearGradient1430">
      <stop
         style="stop-color:#f1f3f4;stop-opacity:1;"
         offset="0"
         id="stop1426" />
      <stop
         style="stop-color:#e1e5e7;stop-opacity:1"
         offset="1"
         id="stop1428" />
    </linearGradient>
    <linearGradient
       inkscape:collect="always"
       xlink:href="#linearGradient1452"
       id="linearGradient1700"
       x1="40"
       y1="46"
       x2="40.000156"
       y2="62"
       gradientUnits="userSpaceOnUse" />
    <linearGradient
       inkscape:collect="always"
       id="linearGradient1452">
      <stop
         style="stop-color:#50baec;stop-opacity:1"
         offset="0"
         id="stop1448" />
      <stop
         style="stop-color:#1ea1e4;stop-opacity:1"
         offset="1"
         id="stop1450" />
    </linearGradient>
    <linearGradient
       inkscape:collect="always"
       xlink:href="#linearGradient1587"
       id="linearGradient1710"
       x1="9.7895832"
       y1="3.9687498"
       x2="9.7895842"
       y2="12.170834"
       gradientUnits="userSpaceOnUse"
       gradientTransform="matrix(-7.559055,0,0,3.7795275,108,1.000001)" />
    <linearGradient
       inkscape:collect="always"
       id="linearGradient1587">
      <stop
         style="stop-color:#a0a7ac;stop-opacity:1;"
         offset="0"
         id="stop1583" />
      <stop
         style="stop-color:#81888e;stop-opacity:1"
         offset="1"
         id="stop1585" />
    </linearGradient>
    <linearGradient
       inkscape:collect="always"
       xlink:href="#linearGradient1452"
       id="linearGradient1748"
       gradientUnits="userSpaceOnUse"
       x1="52"
       y1="26.066797"
       x2="52"
       y2="40.091682" />
    <linearGradient
       inkscape:collect="always"
       xlink:href="#linearGradient1740"
       id="linearGradient1742"
       x1="10.583333"
       y1="12.170834"
       x2="10.583334"
       y2="8.9958334"
       gradientUnits="userSpaceOnUse"
       gradientTransform="matrix(3.7795275,0,0,3.7795275,-10e-8,-3.0000014)" />
    <linearGradient
       inkscape:collect="always"
       id="linearGradient1740">
      <stop
         style="stop-color:#000000;stop-opacity:0"
         offset="0"
         id="stop1736" />
      <stop
         style="stop-color:#000000;stop-opacity:1"
         offset="0.5"
         id="stop1744" />
      <stop
         style="stop-color:#000000;stop-opacity:0;"
         offset="1"
         id="stop1738" />
    </linearGradient>
    <linearGradient
       inkscape:collect="always"
       xlink:href="#linearGradient1587"
       id="linearGradient1612"
       x1="3.9687505"
       y1="9.7895842"
       x2="12.170834"
       y2="9.7895842"
       gradientUnits="userSpaceOnUse"
       gradientTransform="matrix(3.7795275,0,0,3.7795275,1.0000024,-9.9999999e-8)" />
  </defs>
  <path
     id="rect833"
     style="fill:url(#linearGradient1432);fill-opacity:1;stroke-width:0.999999"
     d="m 8,2 h 31.999998 c 3.324004,0 6.000004,2.676 6.000004,6.0000003 V 39.999998 c 0,3.324004 -2.676,6.000004 -6.000004,6.000004 H 8 c -3.324,0 -6,-2.676 -6,-6.000004 V 8.0000003 C 2,4.676 4.676,2 8,2 Z"
     sodipodi:nodetypes="sssssssss" />
  <path
     id="rect1538"
     style="fill:#d83b01;fill-opacity:1;stroke-width:0.999999"
     d="m 12.000004,9.0000009 4,-4e-7 v 7.0000005 h -7 v -4 c 0.01935,-1.877629 1.093438,-2.9833653 3,-3.0000001 z"
     sodipodi:nodetypes="cccccc" />
  <path
     id="rect1538-8"
     style="fill:#d83b01;fill-opacity:1;stroke-width:0.999999"
     d="m 31.000003,9.0000009 -4,-4e-7 v 7.0000005 h 7 v -4 c -0.01935,-1.877629 -1.093437,-2.9833653 -3,-3.0000001 z"
     sodipodi:nodetypes="cccccc" />
  <rect
     style="fill:#d83b01;fill-opacity:1;stroke-width:0.999999"
     id="rect1556"
     width="7"
     height="7"
     x="18.000004"
     y="9.000001"
     ry="0" />
  <path
     id="rect1538-0"
     style="fill:#d83b01;fill-opacity:1;stroke-width:0.999999"
     d="m 9.000004,31.000004 v -4 h 7 v 7 l -4,-10e-7 c -1.877629,-0.01935 -2.983365,-1.093437 -3,-2.999999 z"
     sodipodi:nodetypes="cccccc" />
  <rect
     style="fill:#d83b01;fill-opacity:1;stroke-width:0.999999"
     id="rect1556-0"
     width="7"
     height="7"
     x="-25"
     y="9.0000048"
     ry="0"
     transform="rotate(-90)" />
  <path
     id="path1601"
     style="fill:url(#linearGradient1700);fill-opacity:1;stroke-width:0.999999"
     d="m 34,46 v 2.072266 a 6.9999999,6.9999999 0 0 0 -1,-0.07227 6.9999999,6.9999999 0 0 0 -7,7 6.9999999,6.9999999 0 0 0 7,7 6.9999999,6.9999999 0 0 0 7,-7 6.9999999,6.9999999 0 0 0 0,-0.09375 v -8.90625 z m -1.060547,5 c 0.02018,-1.51e-4 0.04036,-1.51e-4 0.06055,0 2.209138,0 3.999999,1.790862 4,4 -10e-7,2.209138 -1.790862,4 -4,4 -2.209138,0 -3.999999,-1.790862 -4,-4 -2.49e-4,-2.185708 1.753996,-3.966914 3.939453,-4 z" />
  <path
     id="rect1702"
     style="fill:url(#linearGradient1710);fill-opacity:1;stroke-width:1.41421"
     d="m 34,16 v 30.000002 h 5.999998 V 22 c 0,-3.324 -2.676,-6 -5.999998,-6 z"
     sodipodi:nodetypes="cccsc" />
  <path
     id="rect1718"
     style="fill:url(#linearGradient1748);fill-opacity:1;stroke-width:0.999999"
     d="m 54.90625,26 a 7.0000001,7.0000001 0 0 0 -6.906251,7 7.0000001,7.0000001 0 0 0 0.07227,1.000001 h -2.072266 v 6.000001 h 9 A 7.0000001,7.0000001 0 0 0 62.000005,33 a 7.0000001,7.0000001 0 0 0 -7.000002,-7 7.0000001,7.0000001 0 0 0 -0.09373,0 z m 0.03326,3.000001 c 0.02003,-1.53e-4 0.04037,-1.53e-4 0.06055,0 2.209138,0 4.000003,1.790861 4.000003,3.999999 0,2.209138 -1.790865,3.999999 -4.000003,4.000001 -2.209141,0 -3.999998,-1.79086 -3.999998,-4.000001 -2.5e-4,-2.185709 1.753995,-3.966916 3.93945,-3.999999 z" />
  <rect
     style="opacity:0.4;fill:url(#linearGradient1742);fill-opacity:1;stroke-width:0.999999"
     id="rect1734"
     width="6.000001"
     height="12.000001"
     x="33.999996"
     y="31" />
  <path
     id="rect1603"
     style="fill:url(#linearGradient1612);fill-opacity:1;stroke-width:1.41421"
     d="m 46.000002,34.000002 v 6 H 22.000004 c -3.324,0 -6,-2.676 -6,-6 z"
     sodipodi:nodetypes="ccscc" />
  <path
     id="rect1599"
     style="fill:#b8c2cc;fill-opacity:1;stroke-width:1.22474"
     d="m 34,34.000001 c 0,1.662 -1.338,3 -3,3 H 19.000001 c -1.662,0 -3,-1.338 -3,-3 3e-6,1e-6 17.999999,0 17.999999,0 z"
     sodipodi:nodetypes="csscc" />
  <circle
     style="fill:#c9d1d8;fill-opacity:1;stroke-width:0.999999"
     id="path1713"
     cx="36.999996"
     cy="37"
     r="2" />
</svg>
