<?xml version="1.0" encoding="UTF-8" standalone="no"?>
<!-- Created with Inkscape (http://www.inkscape.org/) -->

<svg
   width="64"
   height="64"
   viewBox="0 0 64 64"
   version="1.1"
   id="svg5"
   inkscape:version="1.2.1 (9c6d41e410, 2022-07-14, custom)"
   sodipodi:docname="calligrasheets.svg"
   xmlns:inkscape="http://www.inkscape.org/namespaces/inkscape"
   xmlns:sodipodi="http://sodipodi.sourceforge.net/DTD/sodipodi-0.dtd"
   xmlns="http://www.w3.org/2000/svg"
   xmlns:svg="http://www.w3.org/2000/svg">
  <sodipodi:namedview
     id="namedview7"
     pagecolor="#ffffff"
     bordercolor="#666666"
     borderopacity="1.0"
     inkscape:pageshadow="2"
     inkscape:pageopacity="0.0"
     inkscape:pagecheckerboard="0"
     inkscape:document-units="px"
     showgrid="false"
     units="px"
     height="48px"
     inkscape:zoom="6.328125"
     inkscape:cx="13.906173"
     inkscape:cy="37.451852"
     inkscape:window-width="1920"
     inkscape:window-height="1012"
     inkscape:window-x="0"
     inkscape:window-y="0"
     inkscape:window-maximized="1"
     inkscape:current-layer="svg5"
     inkscape:lockguides="true"
     showguides="false"
     inkscape:showpageshadow="2"
     inkscape:deskcolor="#d1d1d1" />
  <defs
     id="defs2" />
  <path
     id="rect932"
     style="fill:#26c55c;fill-opacity:1;stroke-width:1.93104;stroke-linecap:round;stroke-linejoin:round"
     d="M 6.9999992,9.0000002 H 57 c 1.661998,0 3,1.3379998 3,2.9999998 v 41.000001 c 0,1.661998 -1.338002,3 -3,3 H 6.9999992 C 5.3379996,56.000001 4,54.661999 4,53.000001 V 12 C 4,10.338 5.3379996,9.0000002 6.9999992,9.0000002 Z"
     sodipodi:nodetypes="sssssssss" />
  <path
     d="m 6.9999999,8 c -1.662,0 -2.9999998,1.338 -2.9999998,3 v 7.999999 H 60 V 11 C 60,9.338 58.661998,8 57,8 Z"
     style="fill:#0faf3d;fill-opacity:1;stroke-width:1.13389;stroke-linecap:round;stroke-linejoin:round"
     id="path370" />
  <path
     d="M 4,18.999999 V 37 H 23 V 18.999999 Z M 23,37 V 55.999997 H 41.000002 V 37 Z"
     style="fill:#248c43;fill-opacity:1;stroke-width:2.32992;stroke-linecap:round;stroke-linejoin:round"
     id="path469" />
  <path
     d="m 23,37 v 18.999997 l -16.0000019,-3e-6 C 5.3379992,55.999994 4,54.661995 4,52.999997 V 37 Z"
     style="fill:#27733e;fill-opacity:1;stroke-width:1.99999;stroke-linecap:round;stroke-linejoin:round"
     id="path403" />
  <path
     d="M 23,19 V 36.999999 H 41 V 19 Z m 18,17.999999 v 19 h 16 c 1.661998,0 3,-1.338002 3,-3 v -16 z"
     style="fill:#32ae58;fill-opacity:1;stroke-width:1.99999;stroke-linecap:round;stroke-linejoin:round"
     id="path436" />
</svg>
