<?xml version="1.0" encoding="UTF-8" standalone="no"?>
<!-- Created with Inkscape (http://www.inkscape.org/) -->

<svg
   width="64"
   height="64"
   viewBox="0 0 64 64"
   version="1.1"
   id="svg37159"
   inkscape:version="1.2.1 (9c6d41e410, 2022-07-14, custom)"
   sodipodi:docname="calligrastage.svg"
   xmlns:inkscape="http://www.inkscape.org/namespaces/inkscape"
   xmlns:sodipodi="http://sodipodi.sourceforge.net/DTD/sodipodi-0.dtd"
   xmlns:xlink="http://www.w3.org/1999/xlink"
   xmlns="http://www.w3.org/2000/svg"
   xmlns:svg="http://www.w3.org/2000/svg">
  <sodipodi:namedview
     id="namedview37161"
     pagecolor="#ffffff"
     bordercolor="#666666"
     borderopacity="1.0"
     inkscape:pageshadow="2"
     inkscape:pageopacity="0.0"
     inkscape:pagecheckerboard="0"
     inkscape:document-units="px"
     showgrid="false"
     units="px"
     inkscape:zoom="12.65625"
     inkscape:cx="31.960494"
     inkscape:cy="32"
     inkscape:window-width="1920"
     inkscape:window-height="1012"
     inkscape:window-x="0"
     inkscape:window-y="0"
     inkscape:window-maximized="1"
     inkscape:current-layer="svg37159"
     inkscape:showpageshadow="2"
     inkscape:deskcolor="#d1d1d1" />
  <defs
     id="defs37156">
    <linearGradient
       inkscape:collect="always"
       id="linearGradient1180">
      <stop
         style="stop-color:#1bb2ff;stop-opacity:1;"
         offset="0"
         id="stop1176" />
      <stop
         style="stop-color:#63c5ff;stop-opacity:1;"
         offset="1"
         id="stop1178" />
    </linearGradient>
    <linearGradient
       inkscape:collect="always"
       id="linearGradient1172">
      <stop
         style="stop-color:#11b0ff;stop-opacity:1;"
         offset="0"
         id="stop1168" />
      <stop
         style="stop-color:#12a7ff;stop-opacity:1;"
         offset="1"
         id="stop1170" />
    </linearGradient>
    <linearGradient
       inkscape:collect="always"
       id="linearGradient1164">
      <stop
         style="stop-color:#007ae9;stop-opacity:1;"
         offset="0"
         id="stop1160" />
      <stop
         style="stop-color:#2691ff;stop-opacity:1;"
         offset="1"
         id="stop1162" />
    </linearGradient>
    <linearGradient
       inkscape:collect="always"
       id="linearGradient948">
      <stop
         style="stop-color:#2fb2ff;stop-opacity:1;"
         offset="0"
         id="stop944" />
      <stop
         style="stop-color:#1b6bda;stop-opacity:1;"
         offset="1"
         id="stop946" />
    </linearGradient>
    <linearGradient
       inkscape:collect="always"
       xlink:href="#linearGradient3143"
       id="linearGradient4303"
       x1="8.9958334"
       y1="12.832399"
       x2="5.8208337"
       y2="7.0115657"
       gradientUnits="userSpaceOnUse"
       gradientTransform="matrix(3.9895017,0,0,3.9305813,-2.3333359,-2.959192)" />
    <linearGradient
       inkscape:collect="always"
       id="linearGradient3143">
      <stop
         style="stop-color:#d2d2d2;stop-opacity:1;"
         offset="0"
         id="stop3139" />
      <stop
         style="stop-color:#ffffff;stop-opacity:1"
         offset="1"
         id="stop3141" />
    </linearGradient>
    <linearGradient
       inkscape:collect="always"
       xlink:href="#linearGradient948"
       id="linearGradient950"
       x1="1.0583333"
       y1="3.7041671"
       x2="15.875"
       y2="14.816668"
       gradientUnits="userSpaceOnUse"
       gradientTransform="scale(3.7795276)" />
    <linearGradient
       inkscape:collect="always"
       xlink:href="#linearGradient1172"
       id="linearGradient1174"
       x1="9.524951"
       y1="3.7044101"
       x2="17.832991"
       y2="10.631241"
       gradientUnits="userSpaceOnUse"
       gradientTransform="scale(3.7795276)" />
    <linearGradient
       inkscape:collect="always"
       xlink:href="#linearGradient1180"
       id="linearGradient1182"
       x1="9.9218254"
       y1="10.03941"
       x2="16.115795"
       y2="15.991599"
       gradientUnits="userSpaceOnUse"
       gradientTransform="matrix(3.7795276,0,0,3.7795276,-5e-7,0.0557745)" />
    <linearGradient
       inkscape:collect="always"
       xlink:href="#linearGradient1164"
       id="linearGradient3408"
       gradientUnits="userSpaceOnUse"
       gradientTransform="matrix(3.7795276,0,0,3.7795276,2e-7,0.0550447)"
       x1="9.9218254"
       y1="10.03941"
       x2="15.811839"
       y2="16.188692" />
  </defs>
  <rect
     style="fill:#129cee;fill-opacity:1;stroke-width:0.999999;stroke-linecap:round;stroke-linejoin:round"
     id="rect1857"
     width="44"
     height="32.000004"
     x="10"
     y="8"
     ry="2.0000002" />
  <rect
     style="fill:#135dd9;fill-opacity:1;stroke-width:0.960767;stroke-linecap:round;stroke-linejoin:round"
     id="rect952"
     width="50"
     height="36"
     x="7"
     y="11"
     ry="2.0000002" />
  <rect
     style="fill:url(#linearGradient950);fill-opacity:1;stroke-width:0.999999;stroke-linecap:round;stroke-linejoin:round"
     id="rect388"
     width="56"
     height="42.000004"
     x="4"
     y="14"
     ry="3" />
  <path
     id="path1061"
     style="fill:url(#linearGradient1182);fill-opacity:1;stroke-width:0.999999;stroke-linecap:round;stroke-linejoin:round"
     d="M 59.999808,20.000001 14.999814,55.999995 h 40.999995 0.999999 0.07812 a 3,3 0 0 0 2.921873,-2.921873 3,3 0 0 1 0,-0.002 3,3 0 0 1 0,-0.002 3,3 0 0 1 0,-0.002 3,3 0 0 1 0,-0.002 3,3 0 0 1 0,-0.002 3,3 0 0 1 0,-0.002 3,3 0 0 1 0,-0.002 3,3 0 0 1 0,-0.002 3,3 0 0 1 0,-0.002 3,3 0 0 1 0,-0.002 3,3 0 0 1 0,-0.002 3,3 0 0 1 0,-0.002 3,3 0 0 1 0,-0.002 3,3 0 0 1 0,-0.002 3,3 0 0 1 0,-0.002 3,3 0 0 1 0,-0.002 3,3 0 0 1 0,-0.002 3,3 0 0 1 0,-0.002 3,3 0 0 1 0,-0.002 3,3 0 0 1 0,-0.002 3,3 0 0 1 0,-0.002 3,3 0 0 1 0,-0.002 3,3 0 0 1 0,-0.002 3,3 0 0 1 0,-0.002 3,3 0 0 1 0,-0.002 3,3 0 0 1 0,-0.002 3,3 0 0 1 0,-0.002 3,3 0 0 1 0,-0.002 3,3 0 0 1 0,-0.002 3,3 0 0 1 0,-0.002 3,3 0 0 1 0,-0.002 3,3 0 0 1 0,-0.002 3,3 0 0 1 0,-0.002 3,3 0 0 1 0,-0.002 3,3 0 0 1 0,-0.002 3,3 0 0 1 0,-0.002 3,3 0 0 1 0,-0.002 3,3 0 0 1 0,-0.002 3,3 0 0 1 0,-0.002 3,3 0 0 1 0,-0.002 v -0.999999 z" />
  <path
     id="rect954"
     style="fill:url(#linearGradient1174);fill-opacity:1;stroke-width:0.999999;stroke-linecap:round;stroke-linejoin:round"
     d="m 14.999814,14.000921 44.999998,35.999996 v -31.999996 -1 -0.002 a 3,3 0 0 0 0,-0.0019 3,3 0 0 0 0,-0.002 3,3 0 0 0 0,-0.0019 3,3 0 0 0 0,-0.002 3,3 0 0 0 0,-0.002 3,3 0 0 0 0,-0.0019 3,3 0 0 0 0,-0.002 3,3 0 0 0 0,-0.0019 3,3 0 0 0 0,-0.002 3,3 0 0 0 0,-0.0019 3,3 0 0 0 0,-0.002 3,3 0 0 0 0,-0.0019 3,3 0 0 0 0,-0.002 3,3 0 0 0 0,-0.002 3,3 0 0 0 0,-0.0019 3,3 0 0 0 0,-0.002 3,3 0 0 0 0,-0.0019 3,3 0 0 0 0,-0.002 3,3 0 0 0 0,-0.0019 3,3 0 0 0 0,-0.002 3,3 0 0 0 0,-0.002 3,3 0 0 0 0,-0.0019 3,3 0 0 0 0,-0.002 3,3 0 0 0 0,-0.0019 3,3 0 0 0 0,-0.002 3,3 0 0 0 0,-0.0019 3,3 0 0 0 0,-0.002 3,3 0 0 0 0,-0.0019 3,3 0 0 0 0,-0.002 3,3 0 0 0 0,-0.002 3,3 0 0 0 0,-0.0019 3,3 0 0 0 0,-0.002 3,3 0 0 0 0,-0.0019 3,3 0 0 0 0,-0.002 3,3 0 0 0 0,-0.0019 3,3 0 0 0 0,-0.002 3,3 0 0 0 0,-0.0019 3,3 0 0 0 0,-0.002 3,3 0 0 0 0,-0.002 3,3 0 0 0 -2.921877,-2.921876 h -0.07812 z" />
  <path
     id="path1061-7"
     style="fill:url(#linearGradient3408);fill-opacity:1;stroke-width:0.999999;stroke-linecap:round;stroke-linejoin:round"
     d="M 59.999997,19.999025 41.248043,35.000979 59.999997,50.000974 Z" />
  <path
     style="color:#000000;fill:url(#linearGradient4303);fill-opacity:1;stroke-width:3.96026;stroke-linecap:round;stroke-linejoin:round;-inkscape-stroke:none"
     d="m 23.86498,22.169661 c -0.530539,0.266188 -0.864712,0.803052 -0.864979,1.38963 v 22.878994 c 0.0011,1.275648 1.471045,2.010989 2.517013,1.259109 L 41.351581,36.257902 c 0.86456,-0.623315 0.86456,-1.894906 0,-2.518225 L 25.517014,22.300178 C 25.035241,21.953584 24.396653,21.903133 23.86498,22.169661 Z"
     id="path3173"
     sodipodi:nodetypes="cccccccc" />
</svg>
