<?xml version="1.0" encoding="UTF-8" standalone="no"?>
<!-- Created with Inkscape (http://www.inkscape.org/) -->

<svg
   width="64"
   height="64"
   viewBox="0 0 64 64.000001"
   version="1.1"
   id="svg5"
   inkscape:version="1.2.1 (9c6d41e410, 2022-07-14, custom)"
   sodipodi:docname="code-oss.svg"
   xmlns:inkscape="http://www.inkscape.org/namespaces/inkscape"
   xmlns:sodipodi="http://sodipodi.sourceforge.net/DTD/sodipodi-0.dtd"
   xmlns:xlink="http://www.w3.org/1999/xlink"
   xmlns="http://www.w3.org/2000/svg"
   xmlns:svg="http://www.w3.org/2000/svg">
  <sodipodi:namedview
     id="namedview7"
     pagecolor="#ffffff"
     bordercolor="#000000"
     borderopacity="0.25"
     inkscape:showpageshadow="2"
     inkscape:pageopacity="0.0"
     inkscape:pagecheckerboard="0"
     inkscape:deskcolor="#d1d1d1"
     inkscape:document-units="px"
     showgrid="false"
     inkscape:zoom="12.53125"
     inkscape:cx="31.9601"
     inkscape:cy="32"
     inkscape:window-width="1920"
     inkscape:window-height="1011"
     inkscape:window-x="0"
     inkscape:window-y="0"
     inkscape:window-maximized="1"
     inkscape:current-layer="svg5" />
  <defs
     id="defs2">
    <linearGradient
       inkscape:collect="always"
       id="linearGradient2687">
      <stop
         style="stop-color:#2861ad;stop-opacity:1;"
         offset="0"
         id="stop2683" />
      <stop
         style="stop-color:#548bbf;stop-opacity:1;"
         offset="1"
         id="stop2685" />
    </linearGradient>
    <linearGradient
       inkscape:collect="always"
       xlink:href="#linearGradient2687"
       id="linearGradient2689"
       x1="16"
       y1="15.109246"
       x2="8"
       y2="2.385673"
       gradientUnits="userSpaceOnUse"
       gradientTransform="matrix(3.4999999,0,0,3.7725251,3.9999999,-1.0000118)" />
    <linearGradient
       inkscape:collect="always"
       id="linearGradient3143">
      <stop
         style="stop-color:#d2d2d2;stop-opacity:1;"
         offset="0"
         id="stop3139" />
      <stop
         style="stop-color:#ffffff;stop-opacity:1"
         offset="1"
         id="stop3141" />
    </linearGradient>
    <linearGradient
       inkscape:collect="always"
       xlink:href="#linearGradient3143"
       id="linearGradient1107"
       x1="19"
       y1="56"
       x2="15"
       y2="8"
       gradientUnits="userSpaceOnUse"
       gradientTransform="translate(0,-2)" />
    <linearGradient
       inkscape:collect="always"
       xlink:href="#linearGradient3143"
       id="linearGradient1115"
       x1="48"
       y1="50"
       x2="25"
       y2="14"
       gradientUnits="userSpaceOnUse" />
  </defs>
  <rect
     style="fill:url(#linearGradient2689);fill-opacity:1;stroke-width:3.63371;stroke-linecap:round;stroke-linejoin:round"
     id="rect234"
     width="56"
     height="48"
     x="4"
     y="8"
     ry="4" />
  <path
     id="rect5831"
     style="fill:url(#linearGradient1115);fill-opacity:1;stroke-width:4.00001;stroke-linecap:round;stroke-linejoin:round"
     d="M 27 14 C 25.892001 14 25 14.892001 25 16 C 25 17.107999 25.892001 18 27 18 L 39 18 C 40.107999 18 41 17.107999 41 16 C 41 14.892001 40.107999 14 39 14 L 27 14 z M 33 22 C 31.892001 22 31 22.892001 31 24 C 31 25.107999 31.892001 26 33 26 L 46 26 C 47.107999 26 48 25.107999 48 24 C 48 22.892001 47.107999 22 46 22 L 33 22 z M 33 30 C 31.892001 30 31 30.892001 31 32 C 31 33.107999 31.892001 34 33 34 L 46 34 C 47.107999 34 48 33.107999 48 32 C 48 30.892001 47.107999 30 46 30 L 33 30 z M 33 38 C 31.892001 38 31 38.892001 31 40 C 31 41.107999 31.892001 42 33 42 L 46 42 C 47.107999 42 48 41.107999 48 40 C 48 38.892001 47.107999 38 46 38 L 33 38 z M 27 46 C 25.892001 46 25 46.892001 25 48 C 25 49.107999 25.892001 50 27 50 L 39 50 C 40.107999 50 41 49.107999 41 48 C 41 46.892001 40.107999 46 39 46 L 27 46 z " />
  <rect
     style="opacity:0.2;fill:#000000;fill-opacity:1;stroke-width:2.26777;stroke-linecap:round;stroke-linejoin:round"
     id="rect9469"
     width="14"
     height="48"
     x="4"
     y="8"
     ry="4" />
  <rect
     style="fill:url(#linearGradient1107);fill-opacity:1;stroke-width:4.00001;stroke-linecap:round;stroke-linejoin:round"
     id="rect5829"
     width="4"
     height="52"
     x="15"
     y="6"
     ry="2" />
</svg>
