<?xml version="1.0" encoding="UTF-8" standalone="no"?>
<!-- Created with Inkscape (http://www.inkscape.org/) -->

<svg
   width="64"
   height="64"
   viewBox="0 0 64 64"
   version="1.1"
   id="svg5"
   inkscape:version="1.3.2 (091e20ef0f, 2023-11-25, custom)"
   sodipodi:docname="cs-sources.svg"
   xmlns:inkscape="http://www.inkscape.org/namespaces/inkscape"
   xmlns:sodipodi="http://sodipodi.sourceforge.net/DTD/sodipodi-0.dtd"
   xmlns:xlink="http://www.w3.org/1999/xlink"
   xmlns="http://www.w3.org/2000/svg"
   xmlns:svg="http://www.w3.org/2000/svg">
  <sodipodi:namedview
     id="namedview7"
     pagecolor="#ffffff"
     bordercolor="#000000"
     borderopacity="0.25"
     inkscape:showpageshadow="2"
     inkscape:pageopacity="0.0"
     inkscape:pagecheckerboard="0"
     inkscape:deskcolor="#d1d1d1"
     inkscape:document-units="px"
     showgrid="false"
     inkscape:zoom="13.125"
     inkscape:cx="31.961905"
     inkscape:cy="32"
     inkscape:window-width="1920"
     inkscape:window-height="1019"
     inkscape:window-x="0"
     inkscape:window-y="0"
     inkscape:window-maximized="1"
     inkscape:current-layer="svg5"
     showguides="false" />
  <defs
     id="defs2">
    <linearGradient
       inkscape:collect="always"
       xlink:href="#linearGradient82111"
       id="linearGradient4221"
       x1="3.9687502"
       y1="2.9104166"
       x2="3.4395833"
       y2="5.8208332"
       gradientUnits="userSpaceOnUse"
       gradientTransform="matrix(3.7795275,0,0,3.7795275,-2,-5)" />
    <linearGradient
       inkscape:collect="always"
       id="linearGradient82111">
      <stop
         style="stop-color:#debb86;stop-opacity:1;"
         offset="0"
         id="stop82107" />
      <stop
         style="stop-color:#dcae6e;stop-opacity:1"
         offset="1"
         id="stop82109" />
    </linearGradient>
    <linearGradient
       inkscape:collect="always"
       xlink:href="#linearGradient95639"
       id="linearGradient2237"
       x1="2.9104166"
       y1="5.2916665"
       x2="5.2576041"
       y2="5.6950111"
       gradientUnits="userSpaceOnUse"
       gradientTransform="matrix(3.7795275,0,0,3.7795275,0,-1)" />
    <linearGradient
       inkscape:collect="always"
       id="linearGradient95639">
      <stop
         style="stop-color:#be8541;stop-opacity:1;"
         offset="0"
         id="stop95635" />
      <stop
         style="stop-color:#aa7332;stop-opacity:1"
         offset="1"
         id="stop95637" />
    </linearGradient>
    <linearGradient
       inkscape:collect="always"
       xlink:href="#linearGradient95639"
       id="linearGradient2944"
       x1="13.493751"
       y1="6.0854168"
       x2="13.493752"
       y2="14.552086"
       gradientUnits="userSpaceOnUse"
       gradientTransform="matrix(3.7795275,0,0,3.7795275,-2e-6,-5)" />
    <linearGradient
       inkscape:collect="always"
       xlink:href="#linearGradient56461"
       id="linearGradient56463"
       x1="-252.87521"
       y1="78.478691"
       x2="-238.4166"
       y2="92.637772"
       gradientUnits="userSpaceOnUse"
       gradientTransform="matrix(2.1440542,0,0,3.1781727,553.17811,-232.41884)" />
    <linearGradient
       inkscape:collect="always"
       id="linearGradient56461">
      <stop
         style="stop-color:#dcb77f;stop-opacity:1;"
         offset="0"
         id="stop56457" />
      <stop
         style="stop-color:#d2a362;stop-opacity:1"
         offset="1"
         id="stop56459" />
    </linearGradient>
    <linearGradient
       inkscape:collect="always"
       xlink:href="#linearGradient70845"
       id="linearGradient1579"
       x1="10.537197"
       y1="7.5774555"
       x2="13.497259"
       y2="16.186811"
       gradientUnits="userSpaceOnUse"
       gradientTransform="matrix(3.0404773,0,0,3.4845804,9.96189,-1.404253)" />
    <linearGradient
       inkscape:collect="always"
       id="linearGradient70845">
      <stop
         style="stop-color:#cc964c;stop-opacity:1;"
         offset="0"
         id="stop70841" />
      <stop
         style="stop-color:#ca944c;stop-opacity:1"
         offset="1"
         id="stop70843" />
    </linearGradient>
    <linearGradient
       inkscape:collect="always"
       xlink:href="#linearGradient82111"
       id="linearGradient4750"
       x1="16.139584"
       y1="5.2916665"
       x2="11.377084"
       y2="7.4083333"
       gradientUnits="userSpaceOnUse"
       gradientTransform="matrix(3.7795275,0,0,3.7795275,-1.000002,-3.000001)" />
    <linearGradient
       inkscape:collect="always"
       xlink:href="#linearGradient82111"
       id="linearGradient4939"
       x1="7.1437502"
       y1="2.1166668"
       x2="14.022917"
       y2="6.0854168"
       gradientUnits="userSpaceOnUse"
       gradientTransform="matrix(3.7795275,0,0,3.7795275,-2,-5)" />
    <linearGradient
       inkscape:collect="always"
       xlink:href="#linearGradient6804"
       id="linearGradient6808"
       x1="2.3812499"
       y1="8.4666672"
       x2="6.6145835"
       y2="12.700001"
       gradientUnits="userSpaceOnUse"
       gradientTransform="matrix(3.5433069,0,0,3.5433069,2.0624997,10.500001)" />
    <linearGradient
       inkscape:collect="always"
       id="linearGradient6804">
      <stop
         style="stop-color:#ffffff;stop-opacity:1;"
         offset="0"
         id="stop6800" />
      <stop
         style="stop-color:#ffffff;stop-opacity:0;"
         offset="1"
         id="stop6802" />
    </linearGradient>
    <linearGradient
       inkscape:collect="always"
       xlink:href="#linearGradient162116"
       id="linearGradient162118"
       x1="96.408417"
       y1="238.0069"
       x2="127.77626"
       y2="238.0069"
       gradientUnits="userSpaceOnUse"
       gradientTransform="matrix(0.9563932,0,0,0.92279665,-89.204345,-171.63198)" />
    <linearGradient
       inkscape:collect="always"
       id="linearGradient162116">
      <stop
         style="stop-color:#e3edee;stop-opacity:1;"
         offset="0"
         id="stop162112" />
      <stop
         style="stop-color:#c9cdce;stop-opacity:1"
         offset="1"
         id="stop162114" />
    </linearGradient>
    <linearGradient
       inkscape:collect="always"
       xlink:href="#linearGradient219586"
       id="linearGradient1031"
       gradientUnits="userSpaceOnUse"
       gradientTransform="matrix(0.9563932,0,0,0.9227967,-89.20434,-171.63198)"
       x1="112.09232"
       y1="238.0069"
       x2="112.17286"
       y2="254.33937" />
    <linearGradient
       inkscape:collect="always"
       id="linearGradient219586">
      <stop
         style="stop-color:#b9bfbf;stop-opacity:1;"
         offset="0"
         id="stop219582" />
      <stop
         style="stop-color:#aaacab;stop-opacity:1"
         offset="1"
         id="stop219584" />
    </linearGradient>
    <linearGradient
       inkscape:collect="always"
       xlink:href="#linearGradient2496"
       id="linearGradient2498"
       x1="16.424316"
       y1="54.63533"
       x2="32.331596"
       y2="38.452602"
       gradientUnits="userSpaceOnUse"
       gradientTransform="matrix(0.93749995,0,0,0.93749995,2.0624997,10.500001)" />
    <linearGradient
       inkscape:collect="always"
       id="linearGradient2496">
      <stop
         style="stop-color:#ffffff;stop-opacity:0.5"
         offset="0"
         id="stop2492" />
      <stop
         style="stop-color:#ffffff;stop-opacity:0"
         offset="0.44999999"
         id="stop3080" />
      <stop
         style="stop-color:#ffffff;stop-opacity:1"
         offset="0.5"
         id="stop2756" />
      <stop
         style="stop-color:#ffffff;stop-opacity:0"
         offset="0.55000001"
         id="stop3014" />
      <stop
         style="stop-color:#ffffff;stop-opacity:0.2"
         offset="1"
         id="stop2494" />
    </linearGradient>
    <linearGradient
       inkscape:collect="always"
       xlink:href="#linearGradient7820"
       id="linearGradient7822"
       x1="14.532227"
       y1="42.393677"
       x2="19.540161"
       y2="37.501221"
       gradientUnits="userSpaceOnUse"
       gradientTransform="matrix(1.2,0,0,1.2,-2.3999996,5e-6)" />
    <linearGradient
       inkscape:collect="always"
       id="linearGradient7820">
      <stop
         style="stop-color:#858585;stop-opacity:1"
         offset="0"
         id="stop7816" />
      <stop
         style="stop-color:#ffffff;stop-opacity:1"
         offset="0.5"
         id="stop8592" />
      <stop
         style="stop-color:#868686;stop-opacity:1"
         offset="1"
         id="stop7818" />
    </linearGradient>
    <linearGradient
       inkscape:collect="always"
       xlink:href="#linearGradient11941"
       id="linearGradient11943"
       x1="5.1081543"
       y1="42.191895"
       x2="7.4692383"
       y2="33.279785"
       gradientUnits="userSpaceOnUse"
       gradientTransform="matrix(0.93749995,0,0,0.93749995,2.0624997,10.500001)" />
    <linearGradient
       inkscape:collect="always"
       id="linearGradient11941">
      <stop
         style="stop-color:#f89af4;stop-opacity:0"
         offset="0"
         id="stop11937" />
      <stop
         style="stop-color:#f89af4;stop-opacity:0"
         offset="0.40000001"
         id="stop12523" />
      <stop
         style="stop-color:#f89af4;stop-opacity:1"
         offset="0.5"
         id="stop12201" />
      <stop
         style="stop-color:#f89af4;stop-opacity:0"
         offset="0.60000002"
         id="stop12781" />
      <stop
         style="stop-color:#f89af4;stop-opacity:0;"
         offset="1"
         id="stop11939" />
    </linearGradient>
    <linearGradient
       inkscape:collect="always"
       xlink:href="#linearGradient16450"
       id="linearGradient16452"
       x1="17.605227"
       y1="29.40974"
       x2="27.150551"
       y2="39.243584"
       gradientUnits="userSpaceOnUse"
       gradientTransform="matrix(0.93749995,0,0,0.93749995,2.0624997,10.500001)" />
    <linearGradient
       inkscape:collect="always"
       id="linearGradient16450">
      <stop
         style="stop-color:#6fef7e;stop-opacity:0"
         offset="0"
         id="stop16446" />
      <stop
         style="stop-color:#6fef7e;stop-opacity:0"
         offset="0.44792882"
         id="stop17132" />
      <stop
         style="stop-color:#6fef7e;stop-opacity:1"
         offset="0.5"
         id="stop16680" />
      <stop
         style="stop-color:#6fef7e;stop-opacity:0"
         offset="0.55000001"
         id="stop16938" />
      <stop
         style="stop-color:#6fef7e;stop-opacity:0;"
         offset="1"
         id="stop16448" />
    </linearGradient>
  </defs>
  <path
     id="rect3961"
     style="fill:url(#linearGradient4221);fill-opacity:1;stroke-width:0.999999"
     d="M 4,13 13,6 19.999997,9.999999 17.511076,20.545802 11,16.999999 Z"
     sodipodi:nodetypes="cccccc" />
  <path
     id="rect2034"
     style="fill:url(#linearGradient2237);fill-opacity:1;stroke-width:0.999999"
     d="M 11,16.999999 19.999997,10 36.222028,49.0721 10.999996,51.000003 Z"
     sodipodi:nodetypes="ccccc" />
  <path
     id="rect2627"
     style="fill:url(#linearGradient2944);fill-opacity:1;stroke-width:0.999999"
     d="m 19.999997,9.999999 31.000002,8 4e-6,32.000009 -31.000006,-6.000007 z"
     sodipodi:nodetypes="ccccc" />
  <path
     id="rect45418"
     style="fill:url(#linearGradient56463);stroke-width:0.690667"
     d="M 11,16.999999 41.999999,25 46.000002,24 41.999999,61.999997 11,53.999999 Z"
     sodipodi:nodetypes="cccccc" />
  <path
     id="rect1571"
     style="fill:url(#linearGradient1579);stroke-width:0.861211"
     d="m 41.999999,25 9,-7.000001 v 36.999995 l -9,7.000003 z"
     sodipodi:nodetypes="ccccc" />
  <path
     id="rect4424"
     style="fill:url(#linearGradient4750);fill-opacity:1;stroke-width:0.999999"
     d="m 50.999999,17.999999 9,-1 -8.000001,7 L 41.999999,25 Z"
     sodipodi:nodetypes="ccccc" />
  <path
     id="rect4774"
     style="fill:url(#linearGradient4939);fill-opacity:1;stroke-width:0.899331"
     d="M 25.000001,3 56,10.999999 l -5.000001,7 -31.000002,-8 z"
     sodipodi:nodetypes="ccccc" />
  <path
     id="rect5659"
     style="fill:#be8541;fill-opacity:1;stroke-width:0.999999"
     d="m 25.000004,2 31,7.999998 L 56,10.999999 25.000001,3 Z"
     sodipodi:nodetypes="ccccc" />
  <path
     id="path6272"
     style="opacity:0.4;fill:url(#linearGradient6808);fill-opacity:1;stroke-width:1.875;stroke-linecap:round;stroke-linejoin:round"
     d="M 17.999999,40.5 A 7.5,7.5 0 0 0 10.5,47.999999 7.5,7.5 0 0 0 17.999999,55.5 7.5,7.5 0 0 0 25.5,47.999999 7.5,7.5 0 0 0 17.999999,40.5 Z m 0,5.624999 a 1.875,1.875 0 0 1 1.875001,1.875 1.875,1.875 0 0 1 -1.875001,1.875 1.875,1.875 0 0 1 -1.874999,-1.875 1.875,1.875 0 0 1 1.874999,-1.875 z" />
  <path
     id="path9538"
     style="fill:#d0d0d0;fill-opacity:1;stroke-width:2;stroke-linecap:round;stroke-linejoin:round"
     d="m 18,41 c -3.865988,10e-7 -7,3.134012 -7,7 0,3.86599 3.134012,7 7,7 3.865991,10e-7 7,-3.134009 7,-7 0,-3.865989 -3.134009,-7.000001 -7,-7 z m 0,2 c 2.761422,-10e-7 5,2.23858 5,5 0,2.761422 -2.238578,5.000001 -5,5 -2.76142,0 -5,-2.238578 -5,-5 0,-2.76142 2.23858,-4.999999 5,-5 z" />
  <path
     id="path151229"
     style="fill:url(#linearGradient162118);fill-opacity:1;stroke-width:1.24282;stroke-linecap:round;stroke-linejoin:round"
     d="m 18,33 c -8.2842629,10e-7 -15.0000005,6.715737 -15,15 6e-7,8.284262 6.7157378,14.999999 15,15 8.284263,10e-7 14.999999,-6.715737 15,-15 0,-8.284264 -6.715736,-15.000001 -15,-15 z m 0,9 c 3.313706,-10e-7 6.000001,2.686294 6,6 0,3.313706 -2.686294,6.000001 -6,6 -3.313705,0 -6,-2.686296 -6,-6 -10e-7,-3.313705 2.686295,-6 6,-6 z" />
  <path
     id="path151229-3-3"
     style="fill:url(#linearGradient1031);fill-opacity:1;stroke-width:1.24282;stroke-linecap:round;stroke-linejoin:round"
     d="M 23.986328,48.375 C 23.792467,51.513744 21.187564,54.000001 18,54 16.343148,54 14.843598,53.327973 13.757812,52.242188 L 7.4023438,58.597656 A 15,15 0 0 0 18,63 15,15 0 0 0 32.964844,48.935547 Z" />
  <path
     id="rect2336"
     style="opacity:0.5;fill:url(#linearGradient2498);fill-opacity:1;stroke-width:1.875;stroke-linecap:round;stroke-linejoin:round"
     d="M 14.365234,33.458984 A 15,15 0 0 0 3.2675781,45.236328 l 8.8164059,1.765625 c 0.395213,-2.359403 2.166233,-4.25059 4.460938,-4.822265 z m 9.550782,15.539063 c -0.395214,2.359404 -2.166233,4.250591 -4.460938,4.822265 l 2.179688,8.720704 A 15,15 0 0 0 32.732422,50.763672 Z" />
  <path
     id="path7246"
     style="opacity:0.5;fill:url(#linearGradient7822);fill-opacity:1;stroke-width:2.99998;stroke-linecap:round;stroke-linejoin:round"
     d="m 18,45 c -1.656852,0 -3,1.343148 -3,3 0,1.656852 1.343148,3 3,3 1.656852,0 3,-1.343148 3,-3 0,-1.656852 -1.343148,-3 -3,-3 z m 0,1 c 1.104568,0 2,0.895431 2,2 1e-6,1.104568 -0.895432,2 -2,2 -1.10457,0 -2.000001,-0.895432 -2,-2 0,-1.104569 0.895431,-2.000001 2,-2 z" />
  <path
     id="path151229-7"
     style="opacity:0.5;fill:url(#linearGradient11943);fill-opacity:1;stroke-width:1.24282;stroke-linecap:round;stroke-linejoin:round"
     d="M 4.75,40.984375 C 3.6032935,43.144931 3.0028293,45.553997 3,48 c 0.00284,2.446004 0.6032935,4.855068 1.75,7.015625 l 7.947266,-4.208984 C 12.252922,49.968941 12,49.014322 12,48 c 0,-1.014322 0.252922,-1.968941 0.697266,-2.806641 z" />
  <path
     id="path151229-1"
     style="opacity:0.5;fill:url(#linearGradient16452);fill-opacity:1;stroke-width:1.24282;stroke-linecap:round;stroke-linejoin:round"
     d="m 22.472656,33.683594 -2.68164,8.58789 c 1.766064,0.55133 3.181298,1.897483 3.828125,3.619141 l 8.425781,-3.15625 a 15,15 0 0 0 -9.572266,-9.050781 z" />
  <path
     id="path151229-2"
     style="fill:#d0d0d0;fill-opacity:1;stroke-width:1.24282;stroke-linecap:round;stroke-linejoin:round"
     d="m 18,33 c -8.284262,10e-7 -14.9999995,6.715738 -15,15 0,8.284262 6.7157375,14.999999 15,15 8.284263,0 15,-6.715737 15,-15 -10e-7,-8.284262 -6.715738,-15 -15,-15 z m 0,1 c 7.731979,0 13.999999,6.268022 14,14 0,7.731979 -6.268021,13.999999 -14,14 -7.731978,-10e-7 -14,-6.268021 -14,-14 4e-7,-7.731978 6.268022,-13.999999 14,-14 z" />
</svg>
