<?xml version="1.0" encoding="UTF-8" standalone="no"?>
<!-- Created with Inkscape (http://www.inkscape.org/) -->

<svg
   width="64"
   height="64"
   viewBox="0 0 64 64"
   version="1.1"
   id="svg5"
   inkscape:version="1.2.2 (1:1.2.2+202305151914+b0a8486541)"
   sodipodi:docname="discord-development.svg"
   xmlns:inkscape="http://www.inkscape.org/namespaces/inkscape"
   xmlns:sodipodi="http://sodipodi.sourceforge.net/DTD/sodipodi-0.dtd"
   xmlns:xlink="http://www.w3.org/1999/xlink"
   xmlns="http://www.w3.org/2000/svg"
   xmlns:svg="http://www.w3.org/2000/svg">
  <sodipodi:namedview
     id="namedview7"
     pagecolor="#ffffff"
     bordercolor="#666666"
     borderopacity="1.0"
     inkscape:pageshadow="2"
     inkscape:pageopacity="0.0"
     inkscape:pagecheckerboard="0"
     inkscape:document-units="px"
     showgrid="false"
     units="px"
     height="16px"
     showguides="true"
     inkscape:zoom="12.59375"
     inkscape:cx="31.960298"
     inkscape:cy="32"
     inkscape:window-width="1920"
     inkscape:window-height="1008"
     inkscape:window-x="0"
     inkscape:window-y="0"
     inkscape:window-maximized="1"
     inkscape:current-layer="svg5"
     inkscape:showpageshadow="2"
     inkscape:deskcolor="#d1d1d1" />
  <defs
     id="defs2">
    <linearGradient
       inkscape:collect="always"
       xlink:href="#linearGradient1066"
       id="linearGradient7450"
       x1="2.9104171"
       y1="3.1750004"
       x2="14.552084"
       y2="12.700001"
       gradientUnits="userSpaceOnUse"
       gradientTransform="matrix(3.6491988,0,0,3.6491988,1.1034506,1.1034488)" />
    <linearGradient
       inkscape:collect="always"
       id="linearGradient1066">
      <stop
         style="stop-color:#555556;stop-opacity:1;"
         offset="0"
         id="stop1062" />
      <stop
         style="stop-color:#2d2d2d;stop-opacity:1;"
         offset="1"
         id="stop1064" />
    </linearGradient>
  </defs>
  <circle
     style="fill:url(#linearGradient7450);fill-opacity:1.0;stroke-width:4.11135;stroke-linecap:round;stroke-linejoin:round"
     id="path7362"
     cx="32"
     cy="32"
     r="28" />
  <path
     style="fill:#ffffff"
     d="m 26.841639,18.002292 c -2.571163,0.451894 -5.03223,1.242565 -7.328125,2.31836 -0.01987,0.0088 -0.03362,0.02208 -0.04492,0.04102 -4.667008,7.115091 -5.947495,14.055992 -5.320312,20.910157 0.0029,0.03353 0.02132,0.06555 0.04687,0.08594 3.079158,2.307537 6.060979,3.708177 8.988282,4.636719 0.04686,0.01459 0.09715,-0.0018 0.126953,-0.04102 0.692454,-0.964968 1.310603,-1.762031 1.839844,-2.832031 0.03123,-0.06266 0.0014,-0.137322 -0.0625,-0.16211 -0.979078,-0.379002 -1.909853,-0.84048 -2.806641,-1.365234 -0.07093,-0.04228 -0.07884,-0.145744 -0.01367,-0.195313 0.188717,-0.144306 0.378396,-0.295664 0.558594,-0.447265 0.03261,-0.02768 0.07886,-0.0331 0.117187,-0.01563 5.891517,2.744904 12.269794,2.744904 18.091797,0 0.03832,-0.01893 0.08121,-0.01417 0.115235,0.01367 0.180249,0.1516 0.370409,0.304914 0.560547,0.449219 0.06525,0.04956 0.05921,0.153042 -0.01172,0.195312 -0.896788,0.534951 -1.828091,0.987681 -2.808594,1.365234 -0.06383,0.02479 -0.09178,0.09945 -0.06055,0.16211 0.540598,1.068502 1.15626,1.86506 1.835938,2.830078 0.02839,0.04082 0.0801,0.05757 0.126953,0.04297 2.941502,-0.928542 5.924747,-2.32918 9.003906,-4.636719 0.02697,-0.02039 0.04599,-0.05241 0.04883,-0.08594 0.75061,-7.924165 -1.260834,-14.804242 -5.326172,-20.90625 -0.01,-0.02039 -0.02504,-0.03618 -0.04492,-0.04492 -2.294474,-1.074345 -4.75359,-1.865015 -7.326171,-2.318359 -0.04686,-0.0088 -0.09501,0.01108 -0.119141,0.05469 -0.316437,0.57433 -0.664702,0.643506 -0.910156,1.232421 -2.766979,-0.422723 -5.522181,-0.422722 -8.232422,0 C 27.641056,18.687397 27.278639,18.63131 26.96078,18.05698 26.93665,18.0147 26.88849,17.99499 26.841639,18.00229 Z m -1.345703,12.998047 c 1.964368,0 3.534616,1.584517 3.503906,3.5 0,1.929277 -1.554892,3.5 -3.503906,3.5 -1.918413,0 -3.496094,-1.570723 -3.496094,-3.5 0,-1.929277 1.547025,-3.5 3.496094,-3.5 z m 13.003906,0 c 1.964425,0 3.530658,1.584517 3.5,3.5 10e-7,1.929277 -1.535575,3.5 -3.5,3.5 -1.918357,0 -3.5,-1.570723 -3.5,-3.5 0,-1.929277 1.550932,-3.5 3.5,-3.5 z"
     id="path2094" />
</svg>
