<?xml version="1.0" encoding="UTF-8" standalone="no"?>
<svg
   width="64"
   height="64"
   version="1.1"
   viewBox="0 0 64 64"
   id="svg6"
   sodipodi:docname="disk-utility.svg"
   inkscape:version="1.2.1 (9c6d41e410, 2022-07-14, custom)"
   xmlns:inkscape="http://www.inkscape.org/namespaces/inkscape"
   xmlns:sodipodi="http://sodipodi.sourceforge.net/DTD/sodipodi-0.dtd"
   xmlns:xlink="http://www.w3.org/1999/xlink"
   xmlns="http://www.w3.org/2000/svg"
   xmlns:svg="http://www.w3.org/2000/svg"
   xmlns:rdf="http://www.w3.org/1999/02/22-rdf-syntax-ns#"
   xmlns:cc="http://creativecommons.org/ns#"
   xmlns:dc="http://purl.org/dc/elements/1.1/">
  <defs
     id="defs10">
    <linearGradient
       inkscape:collect="always"
       id="linearGradient58462">
      <stop
         style="stop-color:#636363;stop-opacity:1;"
         offset="0"
         id="stop58458" />
      <stop
         style="stop-color:#ababab;stop-opacity:0.99607843"
         offset="1"
         id="stop58460" />
    </linearGradient>
    <linearGradient
       inkscape:collect="always"
       id="linearGradient50927">
      <stop
         style="stop-color:#000000;stop-opacity:1;"
         offset="0"
         id="stop50923" />
      <stop
         style="stop-color:#000000;stop-opacity:0;"
         offset="1"
         id="stop50925" />
    </linearGradient>
    <linearGradient
       inkscape:collect="always"
       id="linearGradient50337">
      <stop
         style="stop-color:#ffffff;stop-opacity:1;"
         offset="0"
         id="stop50333" />
      <stop
         style="stop-color:#ffffff;stop-opacity:0;"
         offset="1"
         id="stop50335" />
    </linearGradient>
    <linearGradient
       inkscape:collect="always"
       id="linearGradient48004">
      <stop
         style="stop-color:#ffffff;stop-opacity:0"
         offset="0"
         id="stop48000" />
      <stop
         style="stop-color:#ffffff;stop-opacity:1"
         offset="0.50032598"
         id="stop48328" />
      <stop
         style="stop-color:#ffffff;stop-opacity:0;"
         offset="1"
         id="stop48002" />
    </linearGradient>
    <linearGradient
       inkscape:collect="always"
       id="linearGradient10484">
      <stop
         style="stop-color:#2e2e2e;stop-opacity:1;"
         offset="0"
         id="stop10480" />
      <stop
         style="stop-color:#616161;stop-opacity:1"
         offset="1"
         id="stop10482" />
    </linearGradient>
    <linearGradient
       inkscape:collect="always"
       xlink:href="#linearGradient10484"
       id="linearGradient10486"
       x1="5.2163401"
       y1="13.009703"
       x2="5.2163401"
       y2="16.921772"
       gradientUnits="userSpaceOnUse"
       gradientTransform="matrix(3.7714723,0,0,3.8342874,12.382637,-18.88287)" />
    <filter
       inkscape:collect="always"
       style="color-interpolation-filters:sRGB"
       id="filter30531"
       x="-0.26406024"
       y="-0.26406024"
       width="1.5281205"
       height="1.5281205">
      <feGaussianBlur
         inkscape:collect="always"
         stdDeviation="0.14555117"
         id="feGaussianBlur30533" />
    </filter>
    <linearGradient
       inkscape:collect="always"
       xlink:href="#linearGradient48004"
       id="linearGradient48006"
       x1="0.54178363"
       y1="10.597012"
       x2="3.0651259"
       y2="13.265047"
       gradientUnits="userSpaceOnUse"
       gradientTransform="matrix(3.7796022,0,0,3.7796022,2.8e-6,6.3000003e-5)" />
    <radialGradient
       inkscape:collect="always"
       xlink:href="#linearGradient50337"
       id="radialGradient50339"
       cx="3.5557096"
       cy="10.338881"
       fx="3.5557096"
       fy="10.338881"
       r="0.66144532"
       gradientUnits="userSpaceOnUse"
       gradientTransform="matrix(3.7796022,0,0,3.7796022,2.8e-6,6.3000003e-5)" />
    <linearGradient
       inkscape:collect="always"
       xlink:href="#linearGradient50927"
       id="linearGradient50929"
       x1="0.81698829"
       y1="6.6935077"
       x2="2.7050784"
       y2="7.9747996"
       gradientUnits="userSpaceOnUse"
       gradientTransform="matrix(3.7796022,0,0,3.7796022,2.8e-6,6.3000003e-5)" />
    <linearGradient
       inkscape:collect="always"
       xlink:href="#linearGradient50927"
       id="linearGradient51339"
       gradientUnits="userSpaceOnUse"
       x1="0.81698829"
       y1="6.6935077"
       x2="2.7050784"
       y2="7.9747996"
       gradientTransform="matrix(-3.7796022,0,0,3.7796022,64.000006,6.3000003e-5)" />
    <linearGradient
       inkscape:collect="always"
       xlink:href="#linearGradient58462"
       id="linearGradient58464"
       x1="9.5248117"
       y1="8.3342104"
       x2="9.5248108"
       y2="12.56746"
       gradientUnits="userSpaceOnUse"
       gradientTransform="matrix(3.7796022,0,0,3.7796022,2.8e-6,6.3000003e-5)" />
    <linearGradient
       inkscape:collect="always"
       xlink:href="#linearGradient48004"
       id="linearGradient71108"
       gradientUnits="userSpaceOnUse"
       x1="0.54178363"
       y1="10.597012"
       x2="3.0651259"
       y2="13.265047"
       gradientTransform="matrix(-3.7796022,0,0,3.7796022,63.999998,6.3000003e-5)" />
    <linearGradient
       inkscape:collect="always"
       xlink:href="#linearGradient6060"
       id="linearGradient6062"
       x1="1.0583334"
       y1="1.0583338"
       x2="15.345835"
       y2="13.229167"
       gradientUnits="userSpaceOnUse"
       gradientTransform="matrix(1.4173213,0,0,1.4173213,38.000001,34.012542)" />
    <linearGradient
       inkscape:collect="always"
       id="linearGradient6060">
      <stop
         style="stop-color:#8a8f97;stop-opacity:1;"
         offset="0"
         id="stop6056" />
      <stop
         style="stop-color:#8a8f97;stop-opacity:1"
         offset="0.14573747"
         id="stop6576" />
      <stop
         style="stop-color:#616e7a;stop-opacity:1"
         offset="0.89999998"
         id="stop6770" />
      <stop
         style="stop-color:#616e7a;stop-opacity:1"
         offset="1"
         id="stop6058" />
    </linearGradient>
    <linearGradient
       inkscape:collect="always"
       xlink:href="#linearGradient7024"
       id="linearGradient7026"
       x1="14.634075"
       y1="13.653037"
       x2="4.0507412"
       y2="3.0697033"
       gradientUnits="userSpaceOnUse"
       gradientTransform="matrix(1.2598425,0,0,1.2598425,38.230047,35.465715)" />
    <linearGradient
       inkscape:collect="always"
       id="linearGradient7024">
      <stop
         style="stop-color:#ffffff;stop-opacity:1;"
         offset="0"
         id="stop7020" />
      <stop
         style="stop-color:#f0f0f0;stop-opacity:1"
         offset="0.25"
         id="stop7732" />
      <stop
         style="stop-color:#cccccc;stop-opacity:1"
         offset="1"
         id="stop7022" />
    </linearGradient>
    <linearGradient
       inkscape:collect="always"
       xlink:href="#linearGradient8250"
       id="linearGradient8252"
       x1="5.458415"
       y1="4.8895097"
       x2="12.337581"
       y2="11.768677"
       gradientUnits="userSpaceOnUse"
       gradientTransform="matrix(1.2598425,0,0,1.2598425,38.456599,35.173037)" />
    <linearGradient
       inkscape:collect="always"
       id="linearGradient8250">
      <stop
         style="stop-color:#0568ba;stop-opacity:1;"
         offset="0"
         id="stop8246" />
      <stop
         style="stop-color:#0568ba;stop-opacity:1"
         offset="0.23999999"
         id="stop9054" />
      <stop
         style="stop-color:#0f4c8a;stop-opacity:1"
         offset="0.80000001"
         id="stop8830" />
      <stop
         style="stop-color:#0f4c8f;stop-opacity:1"
         offset="1"
         id="stop8248" />
    </linearGradient>
  </defs>
  <sodipodi:namedview
     id="namedview8"
     pagecolor="#ffffff"
     bordercolor="#666666"
     borderopacity="1.0"
     inkscape:pageshadow="2"
     inkscape:pageopacity="0.0"
     inkscape:pagecheckerboard="0"
     showgrid="false"
     inkscape:zoom="12.640625"
     inkscape:cx="31.960445"
     inkscape:cy="32"
     inkscape:window-width="1920"
     inkscape:window-height="1012"
     inkscape:window-x="0"
     inkscape:window-y="0"
     inkscape:window-maximized="1"
     inkscape:current-layer="svg6"
     inkscape:showpageshadow="2"
     inkscape:deskcolor="#d1d1d1" />
  <metadata
     id="metadata2">
    <rdf:RDF>
      <cc:Work
         rdf:about="">
        <dc:format>image/svg+xml</dc:format>
        <dc:type
           rdf:resource="http://purl.org/dc/dcmitype/StillImage" />
      </cc:Work>
    </rdf:RDF>
  </metadata>
  <path
     id="rect31485"
     style="opacity:1;fill:#e1e3e6;fill-opacity:1;stroke-width:2;stroke-linecap:round;stroke-linejoin:round;stroke-dasharray:24, 2"
     d="m 17.957035,19.000064 c -0.890892,-0.0049 -1.586398,0.272668 -1.914062,0.595703 L 4.5859405,31.586003 6.000003,31.000065 H 18.000004 46.000006 58.000005 L 59.414067,31.586003 47.957035,19.595767 C 47.629381,19.272725 46.93387,18.995151 46.042976,19.000064 Z"
     sodipodi:nodetypes="ccccccccccc" />
  <path
     id="rect31485-9"
     style="opacity:0.3;fill:url(#linearGradient50929);fill-opacity:1;stroke-width:2;stroke-linecap:round;stroke-linejoin:round;stroke-dasharray:24, 2"
     d="m 17.957035,19.000064 c -0.890892,-0.0049 -1.586398,0.272668 -1.914062,0.595703 L 4.5859404,31.586003 6.000003,31.000065 H 18.000004 46.000006 58.000005 L 59.414067,31.586003 47.957035,19.595767 C 47.629381,19.272725 46.93387,18.995152 46.042972,19.000064 Z"
     sodipodi:nodetypes="ccccccccccc" />
  <path
     id="rect31485-9-0"
     style="opacity:0.3;fill:url(#linearGradient51339);fill-opacity:1;stroke-width:2;stroke-linecap:round;stroke-linejoin:round;stroke-dasharray:24, 2"
     d="m 46.042972,19.000064 c 0.890894,-0.0049 1.586398,0.272668 1.914063,0.595703 l 11.457032,11.990236 -1.414062,-0.585938 h -12.000003 -28 H 6.000003 L 4.5859404,31.586003 16.042973,19.595768 c 0.327654,-0.323043 1.023165,-0.600616 1.914062,-0.595703 z"
     sodipodi:nodetypes="ccccccccccc" />
  <path
     id="rect849"
     style="fill:url(#linearGradient58464);fill-opacity:1;stroke-width:2;stroke-linecap:round;stroke-linejoin:round;stroke-dasharray:24, 2"
     d="M 6.000003,31.000064 H 58.000001 C 59.108003,31.000064 60,31.892065 60,33.000067 v 12.999995 c 0,1.108002 -0.891997,2 -1.999999,2 H 6.000003 C 4.8920012,48.000062 4,47.108064 4,46.000062 V 33.000067 c 0,-1.108002 0.8920012,-2.000003 2.000003,-2.000003 z" />
  <path
     id="rect849-5"
     style="opacity:0.4;fill:url(#linearGradient48006);fill-opacity:1;stroke-width:2;stroke-linecap:round;stroke-linejoin:round;stroke-dasharray:24, 2"
     d="M 6.000003,31.000065 H 58.000001 C 59.108003,31.000065 60,31.892067 60,33.000068 v 12.999994 c 0,1.108002 -0.891997,2 -1.999999,2 H 6.000003 C 4.8920012,48.000062 4,47.108064 4,46.000062 V 33.000068 c 0,-1.108001 0.8920012,-2.000003 2.000003,-2.000003 z" />
  <path
     id="rect849-5-8"
     style="opacity:0.4;fill:url(#linearGradient71108);fill-opacity:1;stroke-width:2;stroke-linecap:round;stroke-linejoin:round;stroke-dasharray:24, 2"
     d="M 57.999997,31.000065 H 5.9999992 C 4.8919975,31.000065 4,31.892067 4,33.000068 v 12.999994 c 0,1.108002 0.8919975,2 1.9999992,2 H 57.999997 c 1.108002,0 2.000003,-0.891998 2.000003,-2 V 33.000068 c 0,-1.108001 -0.892001,-2.000003 -2.000003,-2.000003 z" />
  <path
     id="rect1094"
     style="fill:url(#linearGradient10486);stroke-width:2.01225;stroke-linecap:round;stroke-linejoin:round;stroke-dasharray:24.147, 2.01225"
     d="m 6.000003,31.000065 v 12.999998 c 0,1.108002 0.892,2.000003 2.0000003,2.000003 H 56.000005 c 1.107998,0 2,-0.892001 2,-2.000003 V 31.000065 Z" />
  <circle
     style="opacity:1;fill:#12ff12;fill-opacity:1;stroke-width:0.5725;stroke-linecap:round;stroke-linejoin:round;stroke-dasharray:6.86999, 0.5725;filter:url(#filter30531)"
     id="path25907"
     cx="2.7780712"
     cy="5.1592903"
     r="0.66144532"
     transform="matrix(3.7796022,0,0,3.7796022,4,19)" />
  <circle
     style="fill:#12ff12;fill-opacity:1;stroke-width:2;stroke-linecap:round;stroke-linejoin:round;stroke-dasharray:24, 2"
     id="path30449"
     cx="14.500004"
     cy="38.500065"
     r="2.5000002" />
  <circle
     style="opacity:0.7;fill:url(#radialGradient50339);fill-opacity:1;stroke-width:2;stroke-linecap:round;stroke-linejoin:round;stroke-dasharray:24, 2"
     id="path50091"
     cx="14.500004"
     cy="38.500065"
     r="2.5000002" />
  <path
     id="path49923"
     style="opacity:0.2;fill:#000000;fill-opacity:1;stroke-width:2;stroke-linecap:round;stroke-linejoin:round;stroke-dasharray:24, 2"
     d="m 15.820315,36.679753 a 2.2500001,2.2500001 0 0 1 0.429688,1.320313 2.2500001,2.2500001 0 0 1 -2.249999,2.249997 2.2500001,2.2500001 0 0 1 -1.320313,-0.429688 2.2500001,2.2500001 0 0 0 1.820312,0.929688 2.2500001,2.2500001 0 0 0 2.250001,-2.249998 2.2500001,2.2500001 0 0 0 -0.929689,-1.820312 z" />
  <path
     id="path5884"
     style="fill:url(#linearGradient6062);fill-opacity:1;stroke-width:0.374999"
     d="m 46.270499,34.608 c -1.575874,0.516654 -3.027551,1.354342 -4.263423,2.460203 0.674586,1.350272 0.627278,2.948815 -0.125977,4.256831 -0.756811,1.286907 -2.102604,2.114686 -3.592525,2.209714 -0.182009,0.813659 -0.278723,1.644071 -0.288574,2.47778 0.01124,0.834108 0.109429,1.66477 0.292966,2.478512 1.488184,0.09629 2.832003,0.923594 3.58813,2.208987 0.75058,1.30255 0.801141,2.89388 0.134763,4.24145 1.230552,1.099666 2.6747,1.933691 4.242183,2.449946 0.834134,-1.251241 2.23815,-2.003127 3.741939,-2.003902 1.504428,-1.21e-4 2.909402,0.751562 3.744134,2.003172 1.575525,-0.518453 3.026464,-1.357893 4.261232,-2.465332 -0.667143,-1.339694 -0.624588,-2.923401 0.113537,-4.225334 0.755953,-1.285672 2.099802,-2.113269 3.588129,-2.209716 0.183495,-0.813503 0.281688,-1.643918 0.292989,-2.477783 -0.0099,-0.83371 -0.106586,-1.664122 -0.288605,-2.47778 -1.489919,-0.09503 -2.83571,-0.922808 -3.59252,-2.209714 -0.741996,-1.307431 -0.782115,-2.89903 -0.106931,-4.242183 -1.240144,-1.113383 -2.698611,-1.956235 -4.282473,-2.474851 -0.825798,1.257344 -2.225244,2.018905 -3.729486,2.029539 -1.504243,-0.01063 -2.903689,-0.772194 -3.729488,-2.029539 z"
     sodipodi:nodetypes="ccccccccccccccccccccc" />
  <circle
     style="fill:url(#linearGradient7026);fill-opacity:1;stroke-width:0.333332"
     id="path6952"
     cx="50.000004"
     cy="45.99971"
     r="6" />
  <circle
     style="fill:url(#linearGradient8252);fill-opacity:1;stroke-width:0.333333"
     id="path8010"
     cx="50.000004"
     cy="45.99971"
     r="4" />
</svg>
