<?xml version="1.0" encoding="UTF-8" standalone="no"?>
<!-- Created with Inkscape (http://www.inkscape.org/) -->

<svg
   width="64"
   height="64"
   viewBox="0 0 64 64"
   version="1.1"
   id="svg2112"
   inkscape:version="1.2.1 (9c6d41e410, 2022-07-14, custom)"
   sodipodi:docname="fcitx.svg"
   xmlns:inkscape="http://www.inkscape.org/namespaces/inkscape"
   xmlns:sodipodi="http://sodipodi.sourceforge.net/DTD/sodipodi-0.dtd"
   xmlns:xlink="http://www.w3.org/1999/xlink"
   xmlns="http://www.w3.org/2000/svg"
   xmlns:svg="http://www.w3.org/2000/svg">
  <sodipodi:namedview
     id="namedview2114"
     pagecolor="#ffffff"
     bordercolor="#000000"
     borderopacity="0.25"
     inkscape:showpageshadow="2"
     inkscape:pageopacity="0.0"
     inkscape:pagecheckerboard="0"
     inkscape:deskcolor="#d1d1d1"
     inkscape:document-units="px"
     showgrid="false"
     inkscape:zoom="12.625"
     inkscape:cx="32"
     inkscape:cy="32"
     inkscape:window-width="1920"
     inkscape:window-height="1010"
     inkscape:window-x="0"
     inkscape:window-y="0"
     inkscape:window-maximized="1"
     inkscape:current-layer="svg2112" />
  <defs
     id="defs2109">
    <linearGradient
       inkscape:collect="always"
       xlink:href="#linearGradient23571"
       id="linearGradient23573"
       x1="0.5291667"
       y1="5.0270834"
       x2="16.404167"
       y2="12.170834"
       gradientUnits="userSpaceOnUse"
       gradientTransform="scale(3.7795275)" />
    <linearGradient
       inkscape:collect="always"
       id="linearGradient23571">
      <stop
         style="stop-color:#b6bec5;stop-opacity:1;"
         offset="0"
         id="stop23567" />
      <stop
         style="stop-color:#9ba3aa;stop-opacity:1"
         offset="1"
         id="stop23569" />
    </linearGradient>
    <linearGradient
       inkscape:collect="always"
       xlink:href="#linearGradient4676"
       id="linearGradient4678"
       x1="5.2915626"
       y1="7.2758985"
       x2="0.52915633"
       y2="0.92602324"
       gradientUnits="userSpaceOnUse"
       gradientTransform="matrix(3.779602,0,0,3.779602,42,23)" />
    <linearGradient
       inkscape:collect="always"
       id="linearGradient4676">
      <stop
         style="stop-color:#333333;stop-opacity:1;"
         offset="0"
         id="stop4672" />
      <stop
         style="stop-color:#696969;stop-opacity:1"
         offset="1"
         id="stop4674" />
    </linearGradient>
    <linearGradient
       inkscape:collect="always"
       xlink:href="#linearGradient4970"
       id="linearGradient4972"
       x1="7"
       y1="17.5"
       x2="19"
       y2="27.5"
       gradientUnits="userSpaceOnUse"
       gradientTransform="translate(42,23)" />
    <linearGradient
       inkscape:collect="always"
       id="linearGradient4970">
      <stop
         style="stop-color:#ffffff;stop-opacity:1;"
         offset="0"
         id="stop4966" />
      <stop
         style="stop-color:#cccccc;stop-opacity:1"
         offset="1"
         id="stop4968" />
    </linearGradient>
    <linearGradient
       inkscape:collect="always"
       xlink:href="#linearGradient9529"
       id="linearGradient9531"
       x1="2.6457813"
       y1="2.3812032"
       x2="3.7040937"
       y2="3.4395156"
       gradientUnits="userSpaceOnUse"
       gradientTransform="matrix(3.779602,0,0,3.779602,42,23)" />
    <linearGradient
       inkscape:collect="always"
       id="linearGradient9529">
      <stop
         style="stop-color:#f8c93b;stop-opacity:1"
         offset="0"
         id="stop9525" />
      <stop
         style="stop-color:#ea8908;stop-opacity:1"
         offset="1"
         id="stop9527" />
    </linearGradient>
    <linearGradient
       inkscape:collect="always"
       xlink:href="#linearGradient4676"
       id="linearGradient10516"
       gradientUnits="userSpaceOnUse"
       x1="5.2915626"
       y1="7.2758985"
       x2="0.52915633"
       y2="0.92602324"
       gradientTransform="matrix(3.779602,0,0,3.779602,42,23)" />
    <linearGradient
       inkscape:collect="always"
       xlink:href="#linearGradient4676"
       id="linearGradient10625"
       gradientUnits="userSpaceOnUse"
       gradientTransform="matrix(3.779602,0,0,3.779602,42,23)"
       x1="5.2915626"
       y1="7.2758985"
       x2="0.52915633"
       y2="0.92602324" />
  </defs>
  <rect
     style="fill:url(#linearGradient23573);fill-opacity:1;stroke-width:0.999999;stroke-linejoin:round"
     id="rect858"
     width="60"
     height="27"
     x="2"
     y="19"
     ry="2" />
  <path
     id="rect1064"
     style="fill:#edeef0;fill-opacity:1;stroke-width:0.999999;stroke-linejoin:round"
     d="m 4.4746093,21 c -0.2649146,0.01334 -0.4746092,0.231655 -0.4746092,0.5 v 2 c 0,0.277002 0.2229997,0.5 0.4999997,0.5 H 8.5 c 0.2770016,0 0.5000001,-0.223 0.5000001,-0.5 v -2 C 9.0000001,21.222998 8.7770005,21 8.5,21 H 4.4999998 c -0.00866,0 -0.016857,-4.3e-4 -0.025398,0 z m 5.9999997,0 C 10.209694,21.01334 10,21.231655 10,21.5 v 2 c 0,0.277002 0.223,0.5 0.5,0.5 h 3 c 0.277002,0 0.5,-0.223 0.5,-0.5 v -2 C 14,21.222998 13.777,21 13.5,21 h -3 c -0.0087,0 -0.01686,-4.3e-4 -0.0254,0 z m 5,0 C 15.209694,21.01334 15,21.231655 15,21.5 v 2 c 0,0.277002 0.223,0.5 0.5,0.5 h 3 c 0.277001,0 0.5,-0.223 0.5,-0.5 v -2 C 19,21.222998 18.777,21 18.5,21 h -3 c -0.0087,0 -0.01686,-4.3e-4 -0.0254,0 z m 5,0 C 20.209694,21.01334 20,21.231655 20,21.5 v 2 c 0,0.277002 0.222999,0.5 0.5,0.5 h 3 c 0.277001,0 0.5,-0.223 0.5,-0.5 v -2 C 24,21.222998 23.777,21 23.5,21 h -3 c -0.0087,0 -0.01686,-4.3e-4 -0.0254,0 z m 5,0 C 25.209694,21.01334 25,21.231655 25,21.5 v 2 c 0,0.277002 0.222999,0.5 0.5,0.5 h 3 c 0.277001,0 0.5,-0.223 0.5,-0.5 v -2 C 29,21.222998 28.777,21 28.5,21 h -3 c -0.0087,0 -0.01686,-4.3e-4 -0.0254,0 z m 5,0 C 30.209694,21.01334 30,21.231655 30,21.5 v 2 c 0,0.277002 0.222999,0.5 0.5,0.5 h 3 c 0.277001,0 0.5,-0.223 0.5,-0.5 v -2 C 34,21.222998 33.777,21 33.5,21 h -3 c -0.0087,0 -0.01686,-4.3e-4 -0.0254,0 z m 5,0 C 35.209694,21.01334 35,21.231655 35,21.5 v 2 c 0,0.277002 0.223,0.5 0.5,0.5 h 3.000001 c 0.277002,0 0.499998,-0.223 0.499998,-0.5 v -2 c 0,-0.277002 -0.222992,-0.5 -0.499998,-0.5 H 35.5 c -0.0087,0 -0.01686,-4.3e-4 -0.0254,0 z m 4.999999,0 c -0.264907,0.01334 -0.474607,0.231655 -0.474607,0.5 v 2 c 0,0.277002 0.222993,0.5 0.499998,0.5 h 3 C 43.777,24 44,23.777 44,23.5 v -2 C 44,21.222998 43.777008,21 43.499999,21 h -3 c -0.0087,0 -0.01701,-4.3e-4 -0.02532,0 z m 5.000001,0 c -0.264907,0.01334 -0.47461,0.231655 -0.47461,0.5 v 2 c 0,0.277002 0.222992,0.5 0.500001,0.5 h 3 c 0.277002,0 0.500001,-0.223 0.500001,-0.5 v -2 C 49.000001,21.222998 48.777009,21 48.5,21 h -3 c -0.0087,0 -0.01701,-4.3e-4 -0.02532,0 z m 5.000001,0 C 50.209703,21.01334 50,21.231655 50,21.5 v 2 c 0,0.277002 0.222992,0.5 0.500001,0.5 h 3 c 0.277002,0 0.499998,-0.223 0.499998,-0.5 v -2 c 0,-0.277002 -0.222992,-0.5 -0.499998,-0.5 h -3 c -0.0087,0 -0.01701,-4.3e-4 -0.02532,0 z m 4.999998,0 c -0.264907,0.01334 -0.474607,0.231655 -0.474607,0.5 v 2 c 0,0.277002 0.222992,0.5 0.499998,0.5 h 4.000002 c 0.277002,0 0.499998,-0.223 0.499998,-0.5 v -2 c 0,-0.277002 -0.222993,-0.5 -0.499998,-0.5 h -4.000002 c -0.0087,0 -0.01701,-4.3e-4 -0.02532,0 z M 4.4746093,25 c -0.2649146,0.01334 -0.4746092,0.231655 -0.4746092,0.5 v 3 c 0,0.277002 0.2229997,0.5 0.4999997,0.5 H 8.5 c 0.2770016,0 0.5000001,-0.223 0.5000001,-0.5 v -3 C 9.0000001,25.222998 8.7770005,25 8.5,25 H 4.4999998 c -0.00866,0 -0.016857,-4.3e-4 -0.025398,0 z m 5.9999997,0 C 10.209694,25.01334 10,25.231655 10,25.5 v 3 c 0,0.277002 0.223,0.5 0.5,0.5 h 3 c 0.277002,0 0.5,-0.223 0.5,-0.5 v -3 C 14,25.222998 13.777,25 13.5,25 h -3 c -0.0087,0 -0.01686,-4.3e-4 -0.0254,0 z m 5,0 C 15.209694,25.01334 15,25.231655 15,25.5 v 3 c 0,0.277002 0.223,0.5 0.5,0.5 h 3 c 0.277001,0 0.5,-0.223 0.5,-0.5 v -3 C 19,25.222998 18.777,25 18.5,25 h -3 c -0.0087,0 -0.01686,-4.3e-4 -0.0254,0 z m 5,0 C 20.209694,25.01334 20,25.231655 20,25.5 v 3 c 0,0.277002 0.222999,0.5 0.5,0.5 h 3 c 0.277001,0 0.5,-0.223 0.5,-0.5 v -3 C 24,25.222998 23.777,25 23.5,25 h -3 c -0.0087,0 -0.01686,-4.3e-4 -0.0254,0 z m 5,0 C 25.209694,25.01334 25,25.231655 25,25.5 v 3 c 0,0.277002 0.222999,0.5 0.5,0.5 h 3 c 0.277001,0 0.5,-0.223 0.5,-0.5 v -3 C 29,25.222998 28.777,25 28.5,25 h -3 c -0.0087,0 -0.01686,-4.3e-4 -0.0254,0 z m 5,0 C 30.209694,25.01334 30,25.231655 30,25.5 v 3 c 0,0.277002 0.222999,0.5 0.5,0.5 h 3 c 0.277001,0 0.5,-0.223 0.5,-0.5 v -3 C 34,25.222998 33.777,25 33.5,25 h -3 c -0.0087,0 -0.01686,-4.3e-4 -0.0254,0 z m 5,0 C 35.209694,25.01334 35,25.231655 35,25.5 v 3 c 0,0.277002 0.223,0.5 0.5,0.5 h 3.000001 c 0.277002,0 0.499998,-0.223 0.499998,-0.5 v -3 c 0,-0.277002 -0.222992,-0.5 -0.499998,-0.5 H 35.5 c -0.0087,0 -0.01686,-4.3e-4 -0.0254,0 z m 4.999999,0 c -0.264907,0.01334 -0.474607,0.231655 -0.474607,0.5 v 3 c 0,0.277002 0.222993,0.5 0.499998,0.5 h 3 C 43.777,29 44,28.777 44,28.5 v -3 C 44,25.222998 43.777008,25 43.499999,25 h -3 c -0.0087,0 -0.01701,-4.3e-4 -0.02532,0 z m 5.000001,0 c -0.264907,0.01334 -0.47461,0.231655 -0.47461,0.5 v 3 c 0,0.277002 0.222992,0.5 0.500001,0.5 h 3 c 0.277002,0 0.500001,-0.223 0.500001,-0.5 v -3 C 49.000001,25.222998 48.777009,25 48.5,25 h -3 c -0.0087,0 -0.01701,-4.3e-4 -0.02532,0 z m 5.000001,0 C 50.209703,25.01334 50,25.231655 50,25.5 v 3 c 0,0.277002 0.222992,0.5 0.500001,0.5 h 3 c 0.277002,0 0.499998,-0.223 0.499998,-0.5 v -3 c 0,-0.277002 -0.222992,-0.5 -0.499998,-0.5 h -3 c -0.0087,0 -0.01701,-4.3e-4 -0.02532,0 z m 4.999998,0 c -0.264907,0.01334 -0.474607,0.231655 -0.474607,0.5 v 3 c 0,0.277002 0.222992,0.5 0.499998,0.5 h 4.000002 c 0.277002,0 0.499998,-0.223 0.499998,-0.5 v -3 c 0,-0.277002 -0.222993,-0.5 -0.499998,-0.5 h -4.000002 c -0.0087,0 -0.01701,-4.3e-4 -0.02532,0 z M 4.4746093,30 c -0.2649146,0.01334 -0.4746092,0.231655 -0.4746092,0.5 v 3 c 0,0.277002 0.2229997,0.5 0.4999997,0.5 H 11.5 c 0.277001,0 0.5,-0.223 0.5,-0.5 v -3 C 12,30.222999 11.777,30 11.5,30 H 4.4999998 c -0.00866,0 -0.016857,-4.3e-4 -0.025398,0 z m 8.9999997,0 C 13.209695,30.01334 13,30.231655 13,30.5 v 3 c 0,0.277002 0.223,0.5 0.5,0.5 h 3 c 0.277001,0 0.5,-0.223 0.5,-0.5 v -3 C 17,30.222999 16.777,30 16.5,30 h -3 c -0.0087,0 -0.01686,-4.3e-4 -0.0254,0 z m 5,0 C 18.209694,30.01334 18,30.231655 18,30.5 v 3 c 0,0.277002 0.222999,0.5 0.5,0.5 h 3 c 0.277001,0 0.5,-0.223 0.5,-0.5 v -3 C 22,30.222999 21.777,30 21.5,30 h -3 c -0.0087,0 -0.01686,-4.3e-4 -0.0254,0 z m 5,0 C 23.209694,30.01334 23,30.231655 23,30.5 v 3 c 0,0.277002 0.222999,0.5 0.5,0.5 h 3 c 0.277001,0 0.5,-0.223 0.5,-0.5 v -3 C 27,30.222999 26.777,30 26.5,30 h -3 c -0.0087,0 -0.01686,-4.3e-4 -0.0254,0 z m 5,0 C 28.209694,30.01334 28,30.231655 28,30.5 v 3 c 0,0.277002 0.222999,0.5 0.5,0.5 h 3 c 0.277001,0 0.5,-0.223 0.5,-0.5 v -3 C 32,30.222999 31.777,30 31.5,30 h -3 c -0.0087,0 -0.01686,-4.3e-4 -0.0254,0 z m 5,0 C 33.209694,30.01334 33,30.231655 33,30.5 v 3 c 0,0.277002 0.222999,0.5 0.5,0.5 h 3 c 0.277001,0 0.5,-0.223 0.5,-0.5 v -3 C 37,30.222999 36.777,30 36.5,30 h -3 c -0.0087,0 -0.01686,-4.3e-4 -0.0254,0 z m 5.000002,0 C 38.209703,30.01334 38,30.231655 38,30.5 v 3 c 0,0.277002 0.222992,0.5 0.500001,0.5 h 3 c 0.277002,0 0.499998,-0.223 0.499998,-0.5 v -3 c 0,-0.277001 -0.222992,-0.5 -0.499998,-0.5 h -3 c -0.0087,0 -0.01701,-4.3e-4 -0.02532,0 z m 4.999997,0 c -0.264907,0.01334 -0.474607,0.231655 -0.474607,0.5 v 3 c 0,0.277002 0.222992,0.5 0.499998,0.5 h 3 C 46.777,34 47,33.777 47,33.5 v -3 C 47,30.222999 46.777008,30 46.499999,30 h -3 c -0.0087,0 -0.01701,-4.3e-4 -0.02532,0 z m 5.000001,0 c -0.264915,0.01334 -0.47461,0.231656 -0.47461,0.5 v 3 c 0,0.277002 0.222992,0.5 0.500001,0.5 h 3 c 0.277002,0 0.500001,-0.223 0.500001,-0.5 v -3 C 52.000001,30.222999 51.777009,30 51.5,30 h -3 c -0.0087,0 -0.01701,-4.3e-4 -0.02532,0 z m 5.000001,0 C 53.209703,30.01334 53,30.231655 53,30.5 v 3 c 0,0.277002 0.222992,0.5 0.500001,0.5 h 6 c 0.277002,0 0.499998,-0.223 0.499998,-0.5 v -3 c 0,-0.277001 -0.222993,-0.5 -0.499998,-0.5 h -6 c -0.0087,0 -0.01701,-4.3e-4 -0.02532,0 z M 4.4999998,35 c -0.2770015,0 -0.4999997,0.223 -0.4999997,0.5 v 3.000002 c 0,0.277001 0.2229997,0.499997 0.4999997,0.499997 H 13.5 c 0.277002,0 0.5,-0.222992 0.5,-0.499997 V 35.5 C 14,35.222999 13.777,35 13.5,35 Z M 15.474609,35 C 15.209694,35.01334 15,35.231655 15,35.5 v 3.000002 c 0,0.277001 0.223,0.499997 0.5,0.499997 h 3 c 0.277001,0 0.5,-0.222992 0.5,-0.499997 V 35.5 C 19,35.222999 18.777,35 18.5,35 h -3 c -0.0087,0 -0.01686,-4.3e-4 -0.0254,0 z m 5,0 C 20.209694,35.01334 20,35.231655 20,35.5 v 3.000002 c 0,0.277001 0.222999,0.499997 0.5,0.499997 h 3 c 0.277001,0 0.5,-0.222992 0.5,-0.499997 V 35.5 C 24,35.222999 23.777,35 23.5,35 h -3 c -0.0087,0 -0.01686,-4.3e-4 -0.0254,0 z m 5,0 C 25.209694,35.01334 25,35.231655 25,35.5 v 3.000002 c 0,0.277001 0.222999,0.499997 0.5,0.499997 h 3 c 0.277001,0 0.5,-0.222992 0.5,-0.499997 V 35.5 C 29,35.222999 28.777,35 28.5,35 h -3 c -0.0087,0 -0.01686,-4.3e-4 -0.0254,0 z m 5,0 C 30.209695,35.01334 30,35.231656 30,35.5 v 3.000002 c 0,0.277001 0.222999,0.499997 0.5,0.499997 h 3 c 0.277001,0 0.5,-0.222992 0.5,-0.499997 V 35.5 C 34,35.222999 33.777,35 33.5,35 h -3 c -0.0087,0 -0.01686,-4.3e-4 -0.0254,0 z m 5,0 C 35.209694,35.01334 35,35.231655 35,35.5 v 3.000002 c 0,0.277001 0.223,0.499997 0.5,0.499997 h 3.000001 c 0.277002,0 0.499998,-0.222992 0.499998,-0.499997 V 35.5 c 0,-0.277001 -0.222992,-0.5 -0.499998,-0.5 H 35.5 c -0.0087,0 -0.01686,-4.3e-4 -0.0254,0 z m 4.999999,0 c -0.264907,0.01334 -0.474607,0.231655 -0.474607,0.5 v 3.000002 c 0,0.277001 0.222993,0.499997 0.499998,0.499997 h 3 C 43.777,38.999999 44,38.777007 44,38.500002 V 35.5 C 44,35.222999 43.777008,35 43.499999,35 h -3 c -0.0087,0 -0.01701,-4.3e-4 -0.02532,0 z m 5.000001,0 c -0.264907,0.01334 -0.47461,0.231655 -0.47461,0.5 v 3.000002 c 0,0.277001 0.222992,0.499997 0.500001,0.499997 h 3 c 0.277002,0 0.500001,-0.222992 0.500001,-0.499997 V 35.5 C 49.000001,35.222999 48.777009,35 48.5,35 h -3 c -0.0087,0 -0.01701,-4.3e-4 -0.02532,0 z m 5.025392,0 C 50.223,35 50,35.223 50,35.5 v 3.000002 c 0,0.277001 0.222992,0.499997 0.500001,0.499997 h 9 c 0.277002,0 0.499998,-0.222992 0.499998,-0.499997 V 35.5 c 0,-0.277001 -0.222993,-0.5 -0.499998,-0.5 z M 4.4746093,40.000002 c -0.2649146,0.01323 -0.4746092,0.231647 -0.4746092,0.499997 v 3 C 4.0000001,43.777001 4.2229998,44 4.4999998,44 H 8.5 c 0.2770016,0 0.5000001,-0.222992 0.5000001,-0.500001 v -3 C 9.0000001,40.222997 8.7770005,40.000002 8.5,40.000002 H 4.4999998 c -0.00866,0 -0.016857,-4.31e-4 -0.025398,0 z m 5.9999997,0 C 10.209694,40.013232 10,40.231649 10,40.499999 v 3 C 10,43.777001 10.223,44 10.5,44 h 3 c 0.277002,0 0.5,-0.222992 0.5,-0.500001 v -3 c 0,-0.277002 -0.223,-0.499997 -0.5,-0.499997 h -3 c -0.0087,0 -0.01686,-4.31e-4 -0.0254,0 z m 5,0 C 15.209694,40.013232 15,40.231649 15,40.499999 v 3 C 15,43.777001 15.223,44 15.5,44 h 3 c 0.277001,0 0.5,-0.222992 0.5,-0.500001 v -3 c 0,-0.277002 -0.223,-0.499997 -0.5,-0.499997 h -3 c -0.0087,0 -0.01686,-4.31e-4 -0.0254,0 z m 5.025391,0 c -0.277002,0 -0.5,0.222992 -0.5,0.499997 v 3 C 20,43.777001 20.222999,44 20.5,44 H 43.499999 C 43.777,44 44,43.777008 44,43.499999 v -3 c 0,-0.277002 -0.222992,-0.499997 -0.500001,-0.499997 z m 24.974609,0 c -0.264907,0.01323 -0.47461,0.231647 -0.47461,0.499997 v 3 C 44.999999,43.777001 45.222991,44 45.5,44 h 3 c 0.277002,0 0.500001,-0.222992 0.500001,-0.500001 v -3 c 0,-0.277002 -0.222992,-0.499997 -0.500001,-0.499997 h -3 c -0.0087,0 -0.01701,-4.31e-4 -0.02532,0 z m 5.000001,0 C 50.209703,40.013232 50,40.231649 50,40.499999 v 3 C 50,43.777001 50.222992,44 50.500001,44 h 3 c 0.277002,0 0.499998,-0.222992 0.499998,-0.500001 v -3 c 0,-0.277002 -0.222992,-0.499997 -0.499998,-0.499997 h -3 c -0.0087,0 -0.01701,-4.31e-4 -0.02532,0 z m 4.999998,0 c -0.264907,0.01323 -0.474607,0.231647 -0.474607,0.499997 v 3 C 55.000001,43.777001 55.222993,44 55.499999,44 h 4.000002 c 0.277002,0 0.499998,-0.222992 0.499998,-0.500001 v -3 c 0,-0.277002 -0.222993,-0.499997 -0.499998,-0.499997 h -4.000002 c -0.0087,0 -0.01701,-4.31e-4 -0.02532,0 z" />
  <path
     id="rect1064-9"
     style="fill:#979ea5;fill-opacity:0.996078;stroke-width:0.999999;stroke-linejoin:round"
     d="m 4.0000001,23.5 v 1 c 0,0.277001 0.2229997,0.5 0.4999997,0.5 H 8.5 c 0.2770016,0 0.5000001,-0.223 0.5000001,-0.5 v -1 C 9.0000001,23.777002 8.7770005,24 8.5,24 H 4.4999998 C 4.2229983,24 4.0000001,23.776997 4.0000001,23.5 Z M 10,23.5 v 1 c 0,0.277001 0.223,0.5 0.5,0.5 h 3 c 0.277002,0 0.5,-0.223 0.5,-0.5 v -1 c 0,0.277002 -0.223,0.5 -0.5,0.5 h -3 C 10.222998,24 10,23.776997 10,23.5 Z m 5,0 v 1 c 0,0.277001 0.223,0.5 0.5,0.5 h 3 c 0.277001,0 0.5,-0.223 0.5,-0.5 v -1 c 0,0.277002 -0.223,0.5 -0.5,0.5 h -3 C 15.222999,24 15,23.776997 15,23.5 Z m 5,0 v 1 c 0,0.277001 0.222999,0.5 0.5,0.5 h 3 c 0.277001,0 0.5,-0.223 0.5,-0.5 v -1 c 0,0.277002 -0.223,0.5 -0.5,0.5 h -3 C 20.222998,24 20,23.776997 20,23.5 Z m 5,0 v 1 c 0,0.277001 0.222996,0.5 0.5,0.5 h 3 c 0.277001,0 0.5,-0.223 0.5,-0.5 v -1 c 0,0.277002 -0.223,0.5 -0.5,0.5 h -3 C 25.222995,24 25,23.776997 25,23.5 Z m 5,0 v 1 c 0,0.277001 0.222992,0.5 0.5,0.5 h 3 c 0.277001,0 0.5,-0.223 0.5,-0.5 v -1 c 0,0.277002 -0.223,0.5 -0.5,0.5 h -3 C 30.222995,24 30,23.776997 30,23.5 Z m 5,0 v 1 c 0,0.277001 0.222992,0.5 0.5,0.5 h 3.000001 c 0.277002,0 0.499998,-0.223 0.499998,-0.5 v -1 c 0,0.277002 -0.222992,0.5 -0.499998,0.5 H 35.5 C 35.222991,24 35,23.776997 35,23.5 Z m 5.000001,0 v 1 c 0,0.277001 0.222993,0.5 0.499998,0.5 h 3 C 43.777,25 44,24.777 44,24.5 v -1 c 0,0.277002 -0.222992,0.5 -0.500001,0.5 h -3 c -0.277002,0 -0.499998,-0.223003 -0.499998,-0.5 z m 4.999998,0 v 1 c 0,0.277001 0.222992,0.5 0.500001,0.5 h 3 c 0.277002,0 0.500001,-0.223 0.500001,-0.5 v -1 c 0,0.277002 -0.222992,0.5 -0.500001,0.5 h -3 c -0.277002,0 -0.500001,-0.223003 -0.500001,-0.5 z M 50,23.5 v 1 c 0,0.277001 0.222992,0.5 0.500001,0.5 h 3 c 0.277002,0 0.499998,-0.223 0.499998,-0.5 v -1 c 0,0.277002 -0.222992,0.5 -0.499998,0.5 h -3 C 50.223,24 50,23.776997 50,23.5 Z m 5.000001,0 v 1 c 0,0.277001 0.222992,0.5 0.499998,0.5 h 4.000002 c 0.277002,0 0.499998,-0.223 0.499998,-0.5 v -1 c 0,0.277002 -0.222993,0.5 -0.499998,0.5 h -4.000002 c -0.277002,0 -0.499998,-0.223003 -0.499998,-0.5 z m -51.0000009,5 v 1 c 0,0.277001 0.2229997,0.5 0.4999997,0.5 H 8.5 c 0.2770016,0 0.5000001,-0.223 0.5000001,-0.5 v -1 C 9.0000001,28.777002 8.7770005,29 8.5,29 H 4.4999998 C 4.2229983,29 4.0000001,28.776997 4.0000001,28.5 Z M 10,28.5 v 1 c 0,0.277001 0.223,0.5 0.5,0.5 h 1 1.974609 0.0254 c 0.277002,0 0.5,-0.223 0.5,-0.5 v -1 c 0,0.277002 -0.222999,0.5 -0.5,0.5 h -2.999999 c -0.277002,0 -0.5,-0.223003 -0.5,-0.5 z m 5,0 v 1 c 0,0.277001 0.223,0.5 0.5,0.5 h 1 1.974609 0.0254 c 0.277002,0 0.5,-0.223 0.5,-0.5 v -1 c 0,0.277002 -0.222999,0.5 -0.5,0.5 h -3 C 15.223008,29 15.00001,28.776997 15.00001,28.5 Z m 5,0 v 1 c 0,0.277001 0.222999,0.5 0.5,0.5 h 1 1.974609 0.0254 c 0.277002,0 0.5,-0.223 0.5,-0.5 v -1 c 0,0.277002 -0.222999,0.5 -0.5,0.5 h -3 c -0.277001,0 -0.5,-0.223003 -0.5,-0.5 z m 5,0 v 1 c 0,0.277001 0.222996,0.5 0.5,0.5 h 1 1.974609 0.0254 c 0.277002,0 0.5,-0.223 0.5,-0.5 v -1 c 0,0.277002 -0.222999,0.5 -0.5,0.5 h -3 c -0.277005,0 -0.5,-0.223003 -0.5,-0.5 z m 5,0 v 1 c 0,0.277001 0.222992,0.5 0.5,0.5 h 1 1.974609 0.0254 c 0.277002,0 0.500001,-0.223 0.500001,-0.5 v -1 c 0,0.277002 -0.223,0.5 -0.500001,0.5 h -3 c -0.277005,0 -0.5,-0.223003 -0.5,-0.5 z m 5,0 v 1 c 0,0.277001 0.222992,0.5 0.5,0.5 h 1 1.974611 0.02532 c 0.277002,0 0.499998,-0.223 0.499998,-0.5 v -1 c 0,0.277002 -0.222992,0.5 -0.499998,0.5 h -2.999933 c -0.277009,0 -0.5,-0.223003 -0.5,-0.5 z m 5.000001,0 v 1 c 0,0.277001 0.222993,0.5 0.499998,0.5 h 1.000002 1.974607 0.02532 c 0.277001,0 0.500001,-0.223 0.500001,-0.5 v -1 c 0,0.277002 -0.222992,0.5 -0.500001,0.5 h -3 C 40.222926,29 39.99993,28.776997 39.99993,28.5 Z m 4.999998,0 v 1 c 0,0.277001 0.222992,0.5 0.500001,0.5 h 0.999999 1.97461 0.02532 c 0.277002,0 0.500001,-0.223 0.500001,-0.5 v -1 c 0,0.277002 -0.222992,0.5 -0.500001,0.5 h -3 c -0.277002,0 -0.500001,-0.223003 -0.500001,-0.5 z M 50,28.5 v 1 c 0,0.277001 0.222992,0.5 0.500001,0.5 H 51.5 h 1.97461 0.02532 c 0.277002,0 0.499998,-0.223 0.499998,-0.5 v -1 c 0,0.277002 -0.222992,0.5 -0.499998,0.5 h -3 c -0.277001,0 -0.500001,-0.223003 -0.500001,-0.5 z m 5.000001,0 v 1 c 0,0.277001 0.222992,0.5 0.499998,0.5 h 4.000002 c 0.277002,0 0.499998,-0.223 0.499998,-0.5 v -1 c 0,0.277002 -0.222993,0.5 -0.499998,0.5 h -4.000002 c -0.277002,0 -0.499998,-0.223003 -0.499998,-0.5 z m -51.0000009,5 v 1 c 0,0.276998 0.2229997,0.5 0.4999997,0.5 H 11.5 c 0.277001,0 0.5,-0.223 0.5,-0.5 v -1 C 12,33.777002 11.777,34 11.5,34 H 4.4999998 C 4.2229983,34 4.0000001,33.776997 4.0000001,33.5 Z M 13,33.5 v 1 c 0,0.276998 0.223,0.5 0.5,0.5 H 15.474609 16.5 c 0.277001,0 0.5,-0.223 0.5,-0.5 v -1 c 0,0.277002 -0.223,0.5 -0.5,0.5 h -3 C 13.222998,34 13,33.776997 13,33.5 Z m 5,0 v 1 c 0,0.276998 0.222999,0.5 0.5,0.5 H 20.474609 21.5 c 0.277001,0 0.5,-0.223 0.5,-0.5 v -1 c 0,0.277002 -0.223,0.5 -0.5,0.5 h -3 C 18.222998,34 18,33.776997 18,33.5 Z m 5,0 v 1 c 0,0.276998 0.222996,0.5 0.5,0.5 H 25.474609 26.5 c 0.277001,0 0.5,-0.223 0.5,-0.5 v -1 c 0,0.277002 -0.223,0.5 -0.5,0.5 h -3 C 23.222991,34 23,33.776997 23,33.5 Z m 5,0 v 1 c 0,0.276998 0.222996,0.5 0.5,0.5 H 30.474609 31.5 c 0.277001,0 0.5,-0.223 0.5,-0.5 v -1 c 0,0.277002 -0.223,0.5 -0.5,0.5 h -3 C 28.222994,34 28,33.776997 28,33.5 Z m 5,0 v 1 c 0,0.276998 0.222992,0.5 0.5,0.5 H 35.474609 36.5 c 0.277001,0 0.5,-0.223 0.5,-0.5 v -1 c 0,0.277002 -0.223,0.5 -0.5,0.5 h -3 C 33.222995,34 33,33.776997 33,33.5 Z m 5,0 v 1 c 0,0.276998 0.222992,0.5 0.500001,0.5 h 1.974607 1.025393 c 0.277002,0 0.499998,-0.223 0.499998,-0.5 v -1 c 0,0.277002 -0.222992,0.5 -0.499998,0.5 h -3 C 38.223,34 38,33.776997 38,33.5 Z m 5.000001,0 v 1 c 0,0.276998 0.222992,0.5 0.499998,0.5 h 1.97461 1.02539 C 46.777,35 47,34.777 47,34.5 v -1 c 0,0.277002 -0.222992,0.5 -0.500001,0.5 h -3 c -0.277002,0 -0.499998,-0.223003 -0.499998,-0.5 z m 4.999998,0 v 1 c 0,0.276998 0.222992,0.5 0.500001,0.5 H 50.500001 51.5 c 0.277002,0 0.500001,-0.223 0.500001,-0.5 v -1 c 0,0.277002 -0.222992,0.5 -0.500001,0.5 h -3 c -0.277005,0 -0.500001,-0.223002 -0.500001,-0.5 z M 53,33.5 v 1 c 0,0.276998 0.222992,0.5 0.500001,0.5 h 6 c 0.277002,0 0.499998,-0.223 0.499998,-0.5 v -1 c 0,0.277002 -0.222993,0.5 -0.499998,0.5 h -6 C 53.223,34 53,33.776997 53,33.5 Z M 4.0000001,38.500002 V 39.5 c 0,0.277002 0.2229997,0.500002 0.4999997,0.500002 H 8.5 10.474609 13.5 c 0.277002,0 0.5,-0.222993 0.5,-0.500002 v -0.999998 c 0,0.277001 -0.223,0.499997 -0.5,0.499997 H 4.4999998 c -0.2770015,0 -0.4999997,-0.222992 -0.4999997,-0.499997 z M 15,38.500002 V 39.5 c 0,0.277002 0.223,0.500002 0.5,0.500002 h 3 c 0.277001,0 0.5,-0.222993 0.5,-0.500002 v -0.999998 c 0,0.277001 -0.223,0.499997 -0.5,0.499997 h -3 c -0.277001,0 -0.5,-0.222992 -0.5,-0.499997 z m 5,0 V 39.5 c 0,0.277002 0.222999,0.500002 0.5,0.500002 h 3 c 0.277001,0 0.5,-0.222993 0.5,-0.500002 v -0.999998 c 0,0.277001 -0.223,0.499997 -0.5,0.499997 h -3 c -0.277002,0 -0.5,-0.222992 -0.5,-0.499997 z m 5,0 V 39.5 c 0,0.277002 0.222996,0.500002 0.5,0.500002 h 3 c 0.277001,0 0.5,-0.222993 0.5,-0.500002 v -0.999998 c 0,0.277001 -0.223,0.499997 -0.5,0.499997 h -3 c -0.277005,0 -0.5,-0.222992 -0.5,-0.499997 z m 5,0 V 39.5 c 0,0.277002 0.222992,0.500002 0.5,0.500002 h 3 c 0.277001,0 0.5,-0.222993 0.5,-0.500002 v -0.999998 c 0,0.277001 -0.223,0.499997 -0.5,0.499997 h -3 c -0.277005,0 -0.5,-0.222992 -0.5,-0.499997 z m 5,0 V 39.5 c 0,0.277002 0.222992,0.500002 0.5,0.500002 h 3.000001 c 0.277002,0 0.499998,-0.222993 0.499998,-0.500002 v -0.999998 c 0,0.277001 -0.222992,0.499997 -0.499998,0.499997 H 35.5 c -0.277009,0 -0.5,-0.222992 -0.5,-0.499997 z m 5.000001,0 V 39.5 c 0,0.277002 0.222993,0.500002 0.499998,0.500002 h 3 C 43.777,40.000002 44,39.777009 44,39.5 v -0.999998 c 0,0.277001 -0.222992,0.499997 -0.500001,0.499997 h -3 c -0.277002,0 -0.499998,-0.222992 -0.499998,-0.499997 z m 4.999998,0 V 39.5 c 0,0.277002 0.222992,0.500002 0.500001,0.500002 h 3 c 0.277002,0 0.500001,-0.222993 0.500001,-0.500002 v -0.999998 c 0,0.277001 -0.222992,0.499997 -0.500001,0.499997 h -3 c -0.277002,0 -0.500001,-0.222992 -0.500001,-0.499997 z m 5.000001,0 V 39.5 c 0,0.277002 0.222992,0.500002 0.500001,0.500002 h 3 1.974607 4.025393 c 0.277002,0 0.499998,-0.222993 0.499998,-0.500002 v -0.999998 c 0,0.277001 -0.222993,0.499997 -0.499998,0.499997 h -9 C 50.223,38.999999 50,38.777007 50,38.500002 Z M 4.0000001,43.499999 v 1.000003 c 0,0.277001 0.2229997,0.499997 0.4999997,0.499997 H 8.5 c 0.2770016,0 0.5000001,-0.222992 0.5000001,-0.499997 V 43.499999 C 9.0000001,43.777001 8.7770005,44 8.5,44 H 4.4999998 C 4.2229983,44 4.0000001,43.777008 4.0000001,43.499999 Z m 5.9999999,0 v 1.000003 c 0,0.277001 0.223,0.499997 0.5,0.499997 h 3 c 0.277002,0 0.5,-0.222992 0.5,-0.499997 V 43.499999 C 14,43.777001 13.777,44 13.5,44 h -3 C 10.222998,44 10,43.777008 10,43.499999 Z m 5,0 v 1.000003 c 0,0.277001 0.223,0.499997 0.5,0.499997 h 3 c 0.277001,0 0.5,-0.222992 0.5,-0.499997 V 43.499999 C 19,43.777001 18.777,44 18.5,44 h -3 C 15.222999,44 15,43.777008 15,43.499999 Z m 5,0 v 1.000003 c 0,0.277001 0.222999,0.499997 0.5,0.499997 H 43.499999 C 43.777,44.999999 44,44.777007 44,44.500002 V 43.499999 C 44,43.777001 43.777008,44 43.499999,44 H 20.5 C 20.222998,44 20,43.777008 20,43.499999 Z m 24.999999,0 v 1.000003 c 0,0.277001 0.222992,0.499997 0.500001,0.499997 h 3 c 0.277002,0 0.500001,-0.222992 0.500001,-0.499997 V 43.499999 C 49.000001,43.777001 48.777009,44 48.5,44 h -3 c -0.277002,0 -0.500001,-0.222992 -0.500001,-0.500001 z m 5.000001,0 v 1.000003 c 0,0.277001 0.222992,0.499997 0.500001,0.499997 h 3 c 0.277002,0 0.499998,-0.222992 0.499998,-0.499997 V 43.499999 C 53.999999,43.777001 53.777007,44 53.500001,44 h -3 C 50.223,44 50,43.777008 50,43.499999 Z m 5.000001,0 v 1.000003 c 0,0.277001 0.222992,0.499997 0.499998,0.499997 h 4.000002 c 0.277002,0 0.499998,-0.222992 0.499998,-0.499997 V 43.499999 C 59.999999,43.777001 59.777006,44 59.500001,44 h -4.000002 c -0.277002,0 -0.499998,-0.222992 -0.499998,-0.500001 z" />
  <path
     id="path879"
     style="fill:url(#linearGradient4678);fill-opacity:1;stroke-width:0.625003;stroke-linejoin:round"
     d="m 54,26 c -2.761424,0 -5,2.238576 -5,5 10e-7,8 -3,7.5 -3,12 0,4.418278 3.581722,8 8,8 4.418278,0 8,-3.581722 8,-8 10e-7,-4.5 -3,-4 -3,-12 0,-2.761424 -2.238576,-5 -5,-5 z"
     sodipodi:nodetypes="sccsccs" />
  <path
     style="fill:#eab108;stroke-width:0.5"
     d="m 49.262853,51.96756 c -0.210925,-0.0335 -0.397443,-0.09615 -0.806117,-0.27205 -0.608447,-0.26195 -0.892169,-0.3469 -2.005789,-0.600399 -0.55548,-0.126401 -0.762498,-0.182601 -1.244619,-0.33815 -0.175377,-0.05655 -0.409129,-0.128751 -0.519447,-0.160401 -0.299473,-0.08595 -0.378869,-0.119348 -0.48859,-0.20555 -0.14968,-0.117549 -0.219436,-0.298898 -0.192684,-0.500849 0.01716,-0.129452 0.06244,-0.25385 0.187483,-0.5148 0.167119,-0.34885 0.302213,-0.47435 0.327669,-0.81765 0.01497,-0.202001 0.0027,-0.4292 -0.0487,-0.9022 -0.03043,-0.279849 -0.03738,-0.383 -0.03782,-0.56115 -4.59e-4,-0.193251 0.002,-0.4778 0.02196,-0.5514 0.07493,-0.276799 0.131957,-0.4365 0.397206,-0.5054 0.07678,-0.01999 0.126315,-0.02302 0.486637,-0.03001 0.224304,-0.005 0.423831,-0.013 0.452588,-0.0195 0.155413,-0.035 0.268559,-0.0935 0.374006,-0.193749 0.100443,-0.0955 0.169191,-0.1929 0.300294,-0.425501 0.204087,-0.35905 0.606699,-0.355498 0.935475,-0.368798 0.09321,0.0195 0.124205,0.03251 0.226292,0.09105 0.102745,0.0592 0.131806,0.0825 0.221152,0.177399 0.224837,0.238848 0.332171,0.38625 0.836452,1.1481 0.399684,0.604 0.521804,0.7972 0.682914,1.0806 0.175505,0.308748 0.491893,0.80405 0.609183,0.9537 0.01988,0.02551 0.141561,0.1795 0.270415,0.34245 0.128854,0.163102 0.246698,0.31565 0.261873,0.339099 0.241982,0.336698 0.411856,0.72355 0.472284,1.1102 0.0203,0.134701 0.02101,0.157499 0.0097,0.311749 -0.0144,0.195798 -0.02695,0.279501 -0.04824,0.322249 -0.0085,0.01701 -0.02729,0.06395 -0.0417,0.103897 -0.185016,0.51415 -0.646188,0.8999 -1.18046,0.9875 -0.113615,0.01848 -0.338905,0.01848 -0.459379,0 z"
     id="path12" />
  <path
     style="fill:#eab108;stroke-width:0.5"
     d="m 58.737143,51.967994 c 0.210925,-0.03349 0.397443,-0.09615 0.806117,-0.272052 0.608448,-0.261949 0.892169,-0.346899 2.00579,-0.600399 0.555479,-0.126402 0.762497,-0.182601 1.244618,-0.33815 0.175378,-0.05655 0.40913,-0.128752 0.519447,-0.160399 0.299473,-0.08595 0.378869,-0.119348 0.48859,-0.20555 0.14968,-0.117549 0.219437,-0.298898 0.192685,-0.500849 -0.01716,-0.129452 -0.06244,-0.25385 -0.187484,-0.5148 -0.167119,-0.34885 -0.302213,-0.47435 -0.327669,-0.81765 -0.01497,-0.202001 -0.0027,-0.4292 0.0487,-0.9022 0.03043,-0.279849 0.03738,-0.383 0.03782,-0.56115 4.59e-4,-0.193251 -0.002,-0.4778 -0.02196,-0.5514 -0.07493,-0.276799 -0.131957,-0.4365 -0.397207,-0.5054 -0.07678,-0.01999 -0.126314,-0.02302 -0.486636,-0.03001 -0.224304,-0.005 -0.423831,-0.013 -0.452588,-0.0195 -0.155414,-0.035 -0.26856,-0.0935 -0.374007,-0.19375 -0.100443,-0.0955 -0.16919,-0.192899 -0.300293,-0.4255 -0.204087,-0.35905 -0.6067,-0.355498 -0.935475,-0.368798 -0.09321,0.0195 -0.124206,0.03251 -0.226293,0.09105 -0.102744,0.0592 -0.131806,0.0825 -0.221152,0.177399 -0.224837,0.238848 -0.33217,0.38625 -0.836452,1.1481 -0.399683,0.603999 -0.521804,0.797199 -0.682913,1.0806 -0.175506,0.308748 -0.491893,0.80405 -0.609183,0.9537 -0.01988,0.02551 -0.141561,0.1795 -0.270415,0.34245 -0.128855,0.163102 -0.246699,0.31565 -0.261874,0.339099 -0.241981,0.336698 -0.411855,0.72355 -0.472283,1.1102 -0.0203,0.134701 -0.02102,0.157499 -0.0097,0.311749 0.0144,0.195798 0.02695,0.279501 0.04824,0.322249 0.0085,0.01701 0.02729,0.06395 0.0417,0.103897 0.185015,0.51415 0.646187,0.8999 1.180459,0.9875 0.113615,0.01848 0.338906,0.01848 0.459379,0 z"
     id="path12-6" />
  <path
     id="path879-3"
     style="fill:url(#linearGradient4972);fill-opacity:1;stroke-width:0.312502;stroke-linejoin:round"
     d="m 54,32 c -1.380712,0 -2.5,1.119288 -2.5,2.5 -0.01093,3.352746 -2.45271,6.51685 -2.5,9.5 0,2.761424 2.238576,5 5,5 2.761424,0 5,-2.238576 5,-5 C 58.98806,41.054972 56.556137,37.9859 56.5,34.5 56.5,33.119288 55.380712,32 54,32 Z"
     sodipodi:nodetypes="sccsccs" />
  <ellipse
     style="fill:#ffffff;fill-opacity:1;stroke-width:1.73205;stroke-linejoin:round"
     id="path5621"
     cx="52.5"
     cy="31.000002"
     rx="1.5"
     ry="2" />
  <ellipse
     style="fill:#ffffff;fill-opacity:1;stroke-width:1.73205;stroke-linejoin:round"
     id="path5621-7"
     cx="55.5"
     cy="31.000002"
     rx="1.5"
     ry="2" />
  <path
     id="path5299"
     style="fill:url(#linearGradient9531);fill-opacity:1;stroke-width:1;stroke-linejoin:round"
     d="m 56,33.5 c 0,1.10457 -0.89543,2.5 -2,2.5 -1.104569,0 -2,-1.39543 -2,-2.5 0,-1.104569 0.89543,-1.5 2,-1.5 1.10457,0 2,0.39543 2,1.5 z"
     sodipodi:nodetypes="sssss" />
  <path
     id="path10049"
     style="fill:#1a1a1a;fill-opacity:1;stroke-width:1;stroke-linejoin:round"
     d="m 52.5,30 a 0.50000002,1 0 0 0 -0.5,1 0.50000002,1 0 0 0 0.5,1 0.50000002,1 0 0 0 0.5,-1 0.50000002,1 0 0 0 -0.5,-1 z m 3,0 a 0.50000002,1 0 0 0 -0.5,1 0.50000002,1 0 0 0 0.5,1 0.50000002,1 0 0 0 0.5,-1 0.50000002,1 0 0 0 -0.5,-1 z" />
  <path
     id="path879-6"
     style="fill:url(#linearGradient10625);fill-opacity:1;stroke-width:0.625003;stroke-linejoin:round"
     d="m 47.859375,43.619141 c -0.828427,0 -1.5,0.671572 -1.5,1.5 0,0.429422 0.314796,1.135773 0.733418,1.716574 0.388969,0.53966 0.867577,0.970926 1.266582,0.970926 0.828427,0 0.740234,-1.978213 0.740234,-2.806641 0,-0.474422 -0.411807,-1.380859 -1.240234,-1.380859 z"
     sodipodi:nodetypes="ssssss" />
  <path
     id="path879-1"
     style="fill:url(#linearGradient10516);fill-opacity:1;stroke-width:0.625003;stroke-linejoin:round"
     d="m 60.101562,43.619141 c -0.802668,0.02756 -1.201171,0.91385 -1.201171,1.380859 0,0.828428 -0.08819,2.806641 0.740234,2.806641 0.399005,0 0.876656,-0.431044 1.265625,-0.970703 0.418622,-0.580802 0.734375,-1.287375 0.734375,-1.716797 0,-0.828428 -0.671573,-1.5 -1.5,-1.5 -0.01294,0 -0.02632,-4.38e-4 -0.03906,0 z" />
</svg>
