<?xml version="1.0" encoding="UTF-8" standalone="no"?>
<!-- Created with Inkscape (http://www.inkscape.org/) -->

<svg
   width="64"
   height="64"
   viewBox="0 0 64 64"
   version="1.1"
   id="svg5"
   inkscape:version="1.4.4 (dcaf3e7d9e, 2026-05-05)"
   sodipodi:docname="forza-horizon-6.svg"
   xmlns:inkscape="http://www.inkscape.org/namespaces/inkscape"
   xmlns:sodipodi="http://sodipodi.sourceforge.net/DTD/sodipodi-0.dtd"
   xmlns:xlink="http://www.w3.org/1999/xlink"
   xmlns="http://www.w3.org/2000/svg"
   xmlns:svg="http://www.w3.org/2000/svg">
  <sodipodi:namedview
     id="namedview7"
     pagecolor="#ffffff"
     bordercolor="#000000"
     borderopacity="0.25"
     inkscape:showpageshadow="2"
     inkscape:pageopacity="0.0"
     inkscape:pagecheckerboard="0"
     inkscape:deskcolor="#d1d1d1"
     inkscape:document-units="px"
     showgrid="false"
     inkscape:zoom="9.046875"
     inkscape:cx="32"
     inkscape:cy="32"
     inkscape:window-width="1440"
     inkscape:window-height="831"
     inkscape:window-x="0"
     inkscape:window-y="0"
     inkscape:window-maximized="1"
     inkscape:current-layer="svg5"
     showguides="true" />
  <defs
     id="defs2">
    <linearGradient
       inkscape:collect="always"
       xlink:href="#linearGradient3"
       id="linearGradient1"
       x1="30"
       y1="30"
       x2="2"
       y2="2"
       gradientUnits="userSpaceOnUse"
       gradientTransform="scale(2)" />
    <linearGradient
       id="linearGradient3"
       inkscape:collect="always">
      <stop
         style="stop-color:#dfdfdf;stop-opacity:1;"
         offset="0"
         id="stop3" />
      <stop
         style="stop-color:#eeeeee;stop-opacity:1;"
         offset="1"
         id="stop4" />
    </linearGradient>
    <linearGradient
       inkscape:collect="always"
       xlink:href="#linearGradient5"
       id="linearGradient6"
       x1="18.666666"
       y1="15.999999"
       x2="0"
       y2="-2.6666672"
       gradientUnits="userSpaceOnUse"
       gradientTransform="matrix(3,0,0,3,4,12.000002)" />
    <linearGradient
       id="linearGradient5"
       inkscape:collect="always">
      <stop
         style="stop-color:#e3536d;stop-opacity:1;"
         offset="0"
         id="stop5" />
      <stop
         style="stop-color:#e9788d;stop-opacity:1;"
         offset="1"
         id="stop6" />
    </linearGradient>
  </defs>
  <rect
     style="fill:url(#linearGradient1);stroke-width:2.8"
     id="rect1"
     width="56"
     height="56"
     x="4"
     y="4"
     ry="6" />
  <path
     id="rect2"
     style="fill:url(#linearGradient6);fill-opacity:1;stroke-width:3"
     d="m 4,54 c 0,3.324 2.676,6 6,6 h 44 c 3.324,0 6,-2.676 6,-6 z" />
  <path
     id="rect288"
     style="fill:#191919;fill-opacity:1;stroke-width:2;stroke-linecap:round;stroke-linejoin:round"
     d="m 29,22 c -5.522829,0 -7.714636,0.9722 -10,6 h 10 5 12 c 3.540133,0 7.38376,-3.26627 8,-6 z M 10,29 26.332031,33.802734 24,38.5 30,37 34,29 h -5 z m 25,0 -4,8 6,-1 3,-7 z m 6,0 -3,7 3.642578,-0.728516 c 1.288324,-0.257665 1.389843,-0.833093 1.826172,-1.675781 L 46,29 Z M 16.957031,32.087891 11,44 22,40 24.802734,34.394531 Z"
     sodipodi:nodetypes="scccscsccccccccccccccscccccccc" />
</svg>
