<?xml version="1.0" encoding="UTF-8" standalone="no"?>
<!-- Created with Inkscape (http://www.inkscape.org/) -->

<svg
   width="64"
   height="64"
   viewBox="0 0 64 64"
   version="1.1"
   id="svg5"
   inkscape:version="1.3.2 (091e20ef0f, 2023-11-25, custom)"
   sodipodi:docname="forza-horizon-5.svg"
   xmlns:inkscape="http://www.inkscape.org/namespaces/inkscape"
   xmlns:sodipodi="http://sodipodi.sourceforge.net/DTD/sodipodi-0.dtd"
   xmlns:xlink="http://www.w3.org/1999/xlink"
   xmlns="http://www.w3.org/2000/svg"
   xmlns:svg="http://www.w3.org/2000/svg">
  <sodipodi:namedview
     id="namedview7"
     pagecolor="#ffffff"
     bordercolor="#000000"
     borderopacity="0.25"
     inkscape:showpageshadow="2"
     inkscape:pageopacity="0.0"
     inkscape:pagecheckerboard="0"
     inkscape:deskcolor="#d1d1d1"
     inkscape:document-units="px"
     showgrid="false"
     inkscape:zoom="12.53125"
     inkscape:cx="32"
     inkscape:cy="32"
     inkscape:window-width="1920"
     inkscape:window-height="1012"
     inkscape:window-x="0"
     inkscape:window-y="0"
     inkscape:window-maximized="1"
     inkscape:current-layer="svg5"
     showguides="true" />
  <defs
     id="defs2">
    <radialGradient
       inkscape:collect="always"
       xlink:href="#linearGradient2869"
       id="radialGradient2"
       cx="11"
       cy="11"
       fx="11"
       fy="11"
       r="10"
       gradientUnits="userSpaceOnUse"
       gradientTransform="matrix(2.8,0,0,2.8,1.2,1.2)" />
    <linearGradient
       inkscape:collect="always"
       id="linearGradient2869">
      <stop
         style="stop-color:#df8251;stop-opacity:1;"
         offset="0"
         id="stop2865" />
      <stop
         style="stop-color:#e72d83;stop-opacity:1;"
         offset="1"
         id="stop2867" />
    </linearGradient>
  </defs>
  <rect
     style="fill:url(#radialGradient2);stroke-width:2.8"
     id="rect1"
     width="56"
     height="56"
     x="4"
     y="4"
     ry="6" />
  <path
     id="rect288"
     style="fill:#191919;fill-opacity:1;stroke-width:2;stroke-linecap:round;stroke-linejoin:round"
     d="m 29,22 c -5.522829,0 -7.714636,0.9722 -10,6 h 10 5 12 c 3.540133,0 7.38376,-3.26627 8,-6 z M 10,29 26.332031,33.802734 24,38.5 30,37 34,29 h -5 z m 25,0 -4,8 6,-1 3,-7 z m 6,0 -3,7 3.642578,-0.728516 c 1.288324,-0.257665 1.389843,-0.833093 1.826172,-1.675781 L 46,29 Z M 16.957031,32.087891 11,44 22,40 24.802734,34.394531 Z"
     sodipodi:nodetypes="scccscsccccccccccccccscccccccc" />
</svg>
