<?xml version="1.0" encoding="UTF-8" standalone="no"?>
<!-- Created with Inkscape (http://www.inkscape.org/) -->

<svg
   width="64"
   height="64"
   viewBox="0 0 64 64"
   version="1.1"
   id="svg1659"
   inkscape:version="1.2.2 (1:1.2.2+202305151914+b0a8486541)"
   sodipodi:docname="gnome-sudoku.svg"
   xmlns:inkscape="http://www.inkscape.org/namespaces/inkscape"
   xmlns:sodipodi="http://sodipodi.sourceforge.net/DTD/sodipodi-0.dtd"
   xmlns="http://www.w3.org/2000/svg"
   xmlns:svg="http://www.w3.org/2000/svg">
  <sodipodi:namedview
     id="namedview1661"
     pagecolor="#ffffff"
     bordercolor="#000000"
     borderopacity="0.25"
     inkscape:showpageshadow="2"
     inkscape:pageopacity="0.0"
     inkscape:pagecheckerboard="0"
     inkscape:deskcolor="#d1d1d1"
     inkscape:document-units="px"
     showgrid="false"
     inkscape:zoom="12.59375"
     inkscape:cx="31.960298"
     inkscape:cy="32"
     inkscape:window-width="1920"
     inkscape:window-height="1008"
     inkscape:window-x="0"
     inkscape:window-y="0"
     inkscape:window-maximized="1"
     inkscape:current-layer="svg1659" />
  <defs
     id="defs1656" />
  <rect
     style="fill:#e1d3bb;fill-opacity:1;stroke-width:0.999999;stroke-linecap:round;stroke-linejoin:round"
     id="rect344"
     width="56.999996"
     height="56.999996"
     x="4"
     y="4"
     ry="5" />
  <path
     id="rect1019"
     style="fill:#efe8db;fill-opacity:1;stroke-width:0.999999;stroke-linecap:round;stroke-linejoin:round"
     d="m 42.000001,4 v 19 h 19 V 9.000001 C 61.000001,6.230003 58.769998,4 56.000001,4 Z" />
  <path
     id="rect1368"
     style="fill:#d8c4a4;fill-opacity:1;stroke-width:1.03024;stroke-linecap:round;stroke-linejoin:round"
     d="M 9.0000007,4 C 6.2300076,4 4.0000031,6.230006 4.0000031,9.000001 V 23 H 23.000001 V 4 Z M 23.000001,23 v 19.000001 h 19 V 23 Z m 19,19.000001 V 61 h 14 c 2.769994,0 5,-2.230005 5,-5.000001 V 42.000001 Z" />
  <path
     id="rect1547"
     style="fill:#c7af87;fill-opacity:1;stroke-width:0.999999;stroke-linecap:round;stroke-linejoin:round"
     d="M 4.0000031,23 V 42.000001 H 23.000001 V 23 Z M 23.000001,42.000001 V 61 h 19 V 42.000001 Z" />
  <path
     id="rect1604"
     style="fill:#bda070;fill-opacity:1;stroke-width:0.999999;stroke-linecap:round;stroke-linejoin:round"
     d="M 4.0000031,42.000001 V 55.999999 C 4.0000031,58.769995 6.2300038,61 9.0000007,61 H 23.000001 V 42.000001 Z" />
</svg>
