<?xml version="1.0" encoding="UTF-8" standalone="no"?>
<!-- Created with Inkscape (http://www.inkscape.org/) -->

<svg
   width="64"
   height="64"
   viewBox="0 0 64 64"
   version="1.1"
   id="svg2535"
   inkscape:version="1.2.1 (9c6d41e410, 2022-07-14, custom)"
   sodipodi:docname="gnome-calculator.svg"
   xmlns:inkscape="http://www.inkscape.org/namespaces/inkscape"
   xmlns:sodipodi="http://sodipodi.sourceforge.net/DTD/sodipodi-0.dtd"
   xmlns:xlink="http://www.w3.org/1999/xlink"
   xmlns="http://www.w3.org/2000/svg"
   xmlns:svg="http://www.w3.org/2000/svg">
  <sodipodi:namedview
     id="namedview2537"
     pagecolor="#ffffff"
     bordercolor="#000000"
     borderopacity="0.25"
     inkscape:showpageshadow="2"
     inkscape:pageopacity="0.0"
     inkscape:pagecheckerboard="0"
     inkscape:deskcolor="#d1d1d1"
     inkscape:document-units="px"
     showgrid="false"
     inkscape:zoom="13.328125"
     inkscape:cx="31.962485"
     inkscape:cy="32"
     inkscape:window-width="1920"
     inkscape:window-height="1029"
     inkscape:window-x="0"
     inkscape:window-y="0"
     inkscape:window-maximized="1"
     inkscape:current-layer="svg2535"
     showguides="false" />
  <defs
     id="defs2532">
    <linearGradient
       inkscape:collect="always"
       xlink:href="#linearGradient10632"
       id="linearGradient986"
       x1="2.9104166"
       y1="0.5291667"
       x2="5.9287829"
       y2="3.7041667"
       gradientUnits="userSpaceOnUse"
       gradientTransform="matrix(13.914811,0,0,17.637795,-29.497894,-5.3333338)" />
    <linearGradient
       inkscape:collect="always"
       xlink:href="#linearGradient11400"
       id="linearGradient1114"
       x1="2.9104166"
       y1="1.0054166"
       x2="4.945673"
       y2="1.9125595"
       gradientUnits="userSpaceOnUse"
       gradientTransform="matrix(16.705512,0,0,11.023622,-33.62,-3.0833324)" />
    <linearGradient
       inkscape:collect="always"
       xlink:href="#linearGradient10590"
       id="linearGradient2162"
       x1="2.6458335"
       y1="2.3812501"
       x2="3.1750002"
       y2="3.7041669"
       gradientUnits="userSpaceOnUse"
       gradientTransform="matrix(18.897636,0,0,16.629921,-10.999999,-5.6000008)" />
    <linearGradient
       inkscape:collect="always"
       id="linearGradient10632">
      <stop
         style="stop-color:#e6e6e4;stop-opacity:1;"
         offset="0"
         id="stop10628" />
      <stop
         style="stop-color:#bcbcb9;stop-opacity:1;"
         offset="1"
         id="stop10630" />
    </linearGradient>
    <linearGradient
       inkscape:collect="always"
       id="linearGradient11400">
      <stop
         style="stop-color:#92bf87;stop-opacity:1;"
         offset="0"
         id="stop11396" />
      <stop
         style="stop-color:#66875b;stop-opacity:1;"
         offset="1"
         id="stop11398" />
    </linearGradient>
    <linearGradient
       inkscape:collect="always"
       id="linearGradient10590">
      <stop
         style="stop-color:#d38100;stop-opacity:1;"
         offset="0"
         id="stop10586" />
      <stop
         style="stop-color:#e16300;stop-opacity:1;"
         offset="1"
         id="stop10588" />
    </linearGradient>
  </defs>
  <rect
     style="fill:url(#linearGradient986);fill-opacity:1.0;stroke-width:8.28998;stroke-linecap:round;stroke-linejoin:round;stroke-dasharray:99.4796, 8.28998"
     id="rect846"
     width="42"
     height="56"
     x="11"
     y="4"
     ry="3" />
  <rect
     style="fill:url(#linearGradient1114);fill-opacity:1.0;stroke-width:3.59046"
     id="rect960"
     width="34"
     height="10"
     x="15"
     y="8"
     ry="1" />
  <rect
     style="fill:url(#linearGradient2162);fill-opacity:1.0;stroke-width:4.69038"
     id="rect473"
     width="10"
     height="22"
     x="39"
     y="34"
     ry="5" />
  <path
     id="path8258"
     style="fill:#909090;fill-opacity:1;stroke-width:1.42857;stroke-linecap:round"
     d="m 20.000001,22 c -2.761424,0 -5,2.238575 -5.000001,4.999999 C 15,29.761423 17.238577,32 20.000001,32 c 2.761424,0 5,-2.238577 5,-5.000001 C 25,24.238576 22.761424,22 20.000001,22 Z M 32,22 c -2.761423,-1e-6 -5.000001,2.238575 -5.000002,4.999999 0,2.761425 2.238578,5.000002 5.000002,5.000001 2.761425,0 5.000002,-2.238577 5.000001,-5.000001 C 37.000001,24.238575 34.761424,22 32,22 Z m 12,0 c -2.761424,0 -5,2.238575 -5.000001,4.999999 C 38.999999,29.761423 41.238576,32 44,32 46.761424,32 49.000001,29.761423 49.000001,26.999999 49,24.238575 46.761424,22 44,22 Z"
     sodipodi:nodetypes="sssssssssssssss" />
  <path
     id="path9349"
     style="fill:#4f4f4f;fill-opacity:1;stroke-width:1.42857;stroke-linecap:round"
     d="M 20 34 C 17.23858 34 15 36.23858 15 39 C 15 41.76142 17.23858 44 20 44 C 22.76142 44 25 41.76142 25 39 C 25 36.23858 22.76142 34 20 34 z M 32 34 C 29.238579 34 27 36.23858 27 39 C 27 41.76142 29.238579 44 32 44 C 34.76142 44 37 41.76142 37 39 C 37 36.23858 34.76142 34 32 34 z M 20 46 C 17.23858 46 15 48.23858 15 51 C 15 53.76142 17.23858 56 20 56 C 22.761421 56 25 53.76142 25 51 C 25 48.23858 22.761421 46 20 46 z M 32 46 C 29.238579 46 27 48.23858 27 51 C 27 53.76142 29.238579 56 32 56 C 34.76142 56 37 53.76142 37 51 C 37 48.23858 34.76142 46 32 46 z " />
</svg>
