<?xml version="1.0" encoding="UTF-8" standalone="no"?>
<!-- Created with Inkscape (http://www.inkscape.org/) -->

<svg
   width="64"
   height="64"
   viewBox="0 0 64 64"
   version="1.1"
   id="svg5"
   inkscape:version="1.2 (1:1.2.1+202207142221+cd75a1ee6d)"
   sodipodi:docname="google-chrome.svg"
   xmlns:inkscape="http://www.inkscape.org/namespaces/inkscape"
   xmlns:sodipodi="http://sodipodi.sourceforge.net/DTD/sodipodi-0.dtd"
   xmlns:xlink="http://www.w3.org/1999/xlink"
   xmlns="http://www.w3.org/2000/svg"
   xmlns:svg="http://www.w3.org/2000/svg">
  <sodipodi:namedview
     id="namedview7"
     pagecolor="#ffffff"
     bordercolor="#666666"
     borderopacity="1.0"
     inkscape:pageshadow="2"
     inkscape:pageopacity="0.0"
     inkscape:pagecheckerboard="0"
     inkscape:document-units="px"
     showgrid="false"
     units="px"
     inkscape:zoom="13.03125"
     inkscape:cx="31.961631"
     inkscape:cy="32"
     inkscape:window-width="1920"
     inkscape:window-height="1012"
     inkscape:window-x="0"
     inkscape:window-y="0"
     inkscape:window-maximized="1"
     inkscape:current-layer="svg5"
     inkscape:showpageshadow="2"
     inkscape:deskcolor="#d1d1d1" />
  <defs
     id="defs2">
    <linearGradient
       inkscape:collect="always"
       xlink:href="#linearGradient12495"
       id="linearGradient12497"
       x1="3.7041574"
       y1="5.15939"
       x2="8.9958239"
       y2="5.15939"
       gradientUnits="userSpaceOnUse"
       gradientTransform="matrix(6.225104,0,0,6.225104,-7.5294117,-7.5293874)" />
    <linearGradient
       inkscape:collect="always"
       id="linearGradient12495">
      <stop
         style="stop-color:#db3328;stop-opacity:1;"
         offset="0"
         id="stop12491" />
      <stop
         style="stop-color:#e53d30;stop-opacity:1"
         offset="1"
         id="stop12493" />
    </linearGradient>
    <linearGradient
       inkscape:collect="always"
       xlink:href="#linearGradient13171"
       id="linearGradient13173"
       x1="4.4023013"
       y1="4.2994838"
       x2="5.9898009"
       y2="7.474484"
       gradientUnits="userSpaceOnUse"
       gradientTransform="matrix(6.225104,0,0,6.225104,-7.5294117,-7.5293874)" />
    <linearGradient
       inkscape:collect="always"
       id="linearGradient13171">
      <stop
         style="stop-color:#32a651;stop-opacity:1;"
         offset="0"
         id="stop13167" />
      <stop
         style="stop-color:#279847;stop-opacity:1"
         offset="1"
         id="stop13169" />
    </linearGradient>
  </defs>
  <path
     d="m 31.999942,4.0000235 c -10.363556,0 -19.405097,5.6344307 -24.2466575,14.0034005 l 0.913357,16.32978 11.2087295,4.666848 12.124571,-6.999842 V 18.000117 H 56.244935 C 51.402548,9.6332138 42.362252,4.0000235 31.999942,4.0000235 Z"
     style="fill:url(#linearGradient12497);fill-opacity:1;stroke-width:0.109374"
     id="path1309" />
  <path
     d="m 4.0001642,32.00021 c 0,15.463888 12.5354728,27.999771 27.9997738,27.999771 L 44.280366,53.435135 44.12451,39.000052 31.999938,32.00021 19.875371,39.000052 7.7532823,18.003424 c -2.3826251,4.11863 -3.7532829,8.895622 -3.7532829,13.996374"
     style="fill:url(#linearGradient13173);fill-opacity:1;stroke-width:0.109374"
     id="path1449"
     sodipodi:nodetypes="cccccccc" />
  <path
     d="M 32.000232,32.00021 44.1248,39.000052 32.000232,59.999981 c 15.463884,0 27.999767,-12.535883 27.999767,-27.999771 0,-5.101578 -1.371104,-9.880304 -3.755064,-14.000093 H 31.999942 Z"
     style="fill:#fbbf12;stroke-width:0.109374"
     id="path1829" />
  <path
     d="m 46.000326,32.00021 c 0,7.731942 -6.268148,14.000092 -14.000094,14.000092 -7.731946,0 -14.000096,-6.26815 -14.000096,-14.000092 0,-7.731944 6.26815,-14.000093 14.000096,-14.000093 7.731946,0 14.000094,6.268149 14.000094,14.000093"
     style="fill:#ffffff;stroke-width:0.109374"
     id="path2229" />
  <path
     d="m 43.000231,32.000214 c 0,6.075043 -4.92496,10.999991 -10.999998,10.999991 -6.075045,0 -11.000002,-4.924948 -11.000002,-10.999991 0,-6.075045 4.924957,-11 11.000002,-11 6.075038,0 10.999998,4.924955 10.999998,11"
     style="fill:#4688f4;fill-opacity:1;stroke-width:0.105768"
     id="path2029" />
</svg>
