<?xml version="1.0" encoding="UTF-8" standalone="no"?>
<!-- Created with Inkscape (http://www.inkscape.org/) -->

<svg
   width="64"
   height="64"
   viewBox="0 0 64 64"
   version="1.1"
   id="svg69118"
   inkscape:version="1.2.1 (9c6d41e410, 2022-07-14, custom)"
   sodipodi:docname="gufw.svg"
   xmlns:inkscape="http://www.inkscape.org/namespaces/inkscape"
   xmlns:sodipodi="http://sodipodi.sourceforge.net/DTD/sodipodi-0.dtd"
   xmlns:xlink="http://www.w3.org/1999/xlink"
   xmlns="http://www.w3.org/2000/svg"
   xmlns:svg="http://www.w3.org/2000/svg">
  <sodipodi:namedview
     id="namedview69120"
     pagecolor="#ffffff"
     bordercolor="#666666"
     borderopacity="1.0"
     inkscape:pageshadow="2"
     inkscape:pageopacity="0.0"
     inkscape:pagecheckerboard="0"
     inkscape:document-units="px"
     showgrid="false"
     units="px"
     inkscape:zoom="12.53125"
     inkscape:cx="32"
     inkscape:cy="32"
     inkscape:window-width="1920"
     inkscape:window-height="1011"
     inkscape:window-x="0"
     inkscape:window-y="0"
     inkscape:window-maximized="1"
     inkscape:current-layer="svg69118"
     inkscape:showpageshadow="2"
     inkscape:deskcolor="#d1d1d1" />
  <defs
     id="defs69115">
    <linearGradient
       inkscape:collect="always"
       id="linearGradient5685">
      <stop
         style="stop-color:#f8f8f8;stop-opacity:1;"
         offset="0"
         id="stop5681" />
      <stop
         style="stop-color:#c7c7c7;stop-opacity:1;"
         offset="1"
         id="stop5683" />
    </linearGradient>
    <linearGradient
       inkscape:collect="always"
       xlink:href="#linearGradient1615"
       id="linearGradient8763"
       x1="26.446239"
       y1="29.929234"
       x2="9.3050003"
       y2="3.0284214"
       gradientUnits="userSpaceOnUse"
       gradientTransform="matrix(1.9999999,0,0,2.0067576,4e-7,1.9226926)" />
    <linearGradient
       inkscape:collect="always"
       id="linearGradient1615">
      <stop
         style="stop-color:#592ea8;stop-opacity:1;"
         offset="0"
         id="stop1611" />
      <stop
         style="stop-color:#8962c9;stop-opacity:1;"
         offset="1"
         id="stop1613" />
    </linearGradient>
    <linearGradient
       inkscape:collect="always"
       xlink:href="#linearGradient5685"
       id="linearGradient5679"
       x1="4.5400023"
       y1="2.2835441"
       x2="7.0998597"
       y2="5.1087084"
       gradientUnits="userSpaceOnUse"
       gradientTransform="matrix(7.559055,0,0,7.559055,0,2)" />
  </defs>
  <path
     id="path5150"
     style="color:#000000;fill:url(#linearGradient8763);fill-opacity:1;stroke-width:2.00338;stroke-linecap:round;stroke-linejoin:round"
     d="M 31.999998,4 C 26.784558,4.36657 23.277324,4.8959246 18.61,7.9999996 14.16148,10.466624 9.089707,11.922163 6,11.99939 c -1.1060492,-0.0021 -1.9998912,0.890213 -2,2 v 15.999212 0.004 c 0,6.398314 4.44551,13.598852 10.226562,19.521356 5.215024,5.342446 11.585434,9.69301 17.773436,10.476688 6.188006,-0.783674 12.558414,-5.134242 17.77344,-10.476688 5.781052,-5.922504 10.22656,-13.170224 10.22656,-19.568538 v -0.004 L 60,13.99939 c -1.1e-4,-1.109787 -0.892,-1.976056 -1.998048,-1.974 C 54.912242,11.94816 49.839146,10.466624 45.390622,7.9999996 40.7233,4.8959258 37.215442,4.3665712 31.999998,4 Z"
     sodipodi:nodetypes="cccccscccsccccc" />
  <path
     id="rect2691"
     style="fill:url(#linearGradient5679);fill-opacity:1;stroke-width:4;stroke-linecap:round"
     d="M 47.746094,9.1914066 6.8867188,39.83203 c 1.8380362,3.378024 4.4177282,6.697794 7.3398432,9.691406 1.684076,1.725226 3.491096,3.345708 5.371094,4.777344 L 60,24 V 13.999999 c -6.8e-5,-0.694835 -0.349902,-1.293959 -0.882812,-1.644531 -0.05224,-0.03454 -0.10454,-0.06803 -0.16016,-0.09766 -10e-4,-5.47e-4 -0.0028,5.46e-4 -0.004,0 -0.05564,-0.02948 -0.11318,-0.05775 -0.17188,-0.08203 -0.0011,-4.69e-4 -0.0028,4.66e-4 -0.004,0 -0.02048,-0.0084 -0.04172,-0.01564 -0.06252,-0.02343 -0.03878,-0.01436 -0.0773,-0.02706 -0.11718,-0.03908 -0.04732,-0.01428 -0.09574,-0.0282 -0.14454,-0.03908 -0.0158,-0.0036 -0.03092,-0.0085 -0.04686,-0.01172 -0.0013,-2.47e-4 -0.0026,2.45e-4 -0.004,0 -0.009,-0.0018 -0.0184,-0.0023 -0.02736,-0.0039 -0.1207,-0.02185 -0.247566,-0.03538 -0.374996,-0.03515 -0.15926,-0.004 -0.32665,-0.01202 -0.496094,-0.02343 -0.16678,-0.01118 -0.339674,-0.02857 -0.515626,-0.04687 -0.0038,-4.05e-4 -0.0078,4.08e-4 -0.0118,0 -0.14934,-0.01564 -0.301554,-0.03409 -0.457028,-0.05465 -0.0722,-0.0096 -0.14534,-0.02064 -0.218752,-0.03122 -0.11024,-0.01594 -0.219084,-0.03243 -0.332032,-0.0508 -0.16282,-0.02646 -0.327994,-0.05458 -0.496092,-0.08594 -0.05246,-0.0098 -0.10332,-0.01708 -0.15626,-0.02736 -0.1181,-0.02283 -0.23895,-0.04898 -0.359372,-0.07423 -0.10836,-0.02268 -0.21408,-0.04573 -0.324216,-0.0703 -0.09232,-0.02064 -0.18776,-0.04452 -0.28125,-0.06644 -0.17254,-0.04037 -0.34718,-0.08021 -0.523442,-0.124996 -0.219174,-0.05571 -0.439792,-0.117286 -0.664062,-0.179686 -0.13958,-0.03885 -0.280554,-0.07966 -0.42188,-0.121096 -0.05178,-0.0152 -0.10424,-0.02744 -0.15626,-0.04294 -0.165,-0.04929 -0.329084,-0.09969 -0.496094,-0.152346 -0.22563,-0.07113 -0.454896,-0.145436 -0.683596,-0.22266 -0.0146,-0.0049 -0.02842,-0.01066 -0.04294,-0.01564 -0.28014,-0.09499 -0.560232,-0.1929 -0.84375,-0.296874 -0.256774,-0.09416 -0.514878,-0.191592 -0.773438,-0.292966 -0.1031,-0.04044 -0.205318,-0.083444 -0.30859,-0.1249962 -0.14948,-0.06017 -0.29952,-0.121118 -0.44922,-0.183594 -0.10018,-0.041802 -0.200556,-0.082144 -0.300782,-0.124996 -0.19544,-0.083558 -0.390668,-0.17035 -0.58594,-0.2578092 -0.08868,-0.03976 -0.17704,-0.080572 -0.265626,-0.121096 -0.02978,-0.0136 -0.0601,-0.025322 -0.08984,-0.03908 z" />
</svg>
