<?xml version="1.0" encoding="UTF-8" standalone="no"?>
<!-- Created with Inkscape (http://www.inkscape.org/) -->

<svg
   width="64"
   height="64"
   viewBox="0 0 64 64"
   version="1.1"
   id="svg5"
   inkscape:version="1.2.1 (9c6d41e410, 2022-07-14, custom)"
   sodipodi:docname="internet-web-browser.svg"
   xmlns:inkscape="http://www.inkscape.org/namespaces/inkscape"
   xmlns:sodipodi="http://sodipodi.sourceforge.net/DTD/sodipodi-0.dtd"
   xmlns:xlink="http://www.w3.org/1999/xlink"
   xmlns="http://www.w3.org/2000/svg"
   xmlns:svg="http://www.w3.org/2000/svg">
  <sodipodi:namedview
     id="namedview7"
     pagecolor="#ffffff"
     bordercolor="#666666"
     borderopacity="1.0"
     inkscape:pageshadow="2"
     inkscape:pageopacity="0.0"
     inkscape:pagecheckerboard="0"
     inkscape:document-units="px"
     showgrid="false"
     units="px"
     height="16px"
     showguides="false"
     inkscape:zoom="12.625"
     inkscape:cx="29.90099"
     inkscape:cy="32"
     inkscape:window-width="1920"
     inkscape:window-height="1012"
     inkscape:window-x="0"
     inkscape:window-y="0"
     inkscape:window-maximized="1"
     inkscape:current-layer="svg5"
     inkscape:showpageshadow="2"
     inkscape:deskcolor="#d1d1d1" />
  <defs
     id="defs2">
    <linearGradient
       inkscape:collect="always"
       xlink:href="#linearGradient984"
       id="linearGradient7450"
       x1="2.9104171"
       y1="3.1750004"
       x2="14.552084"
       y2="12.700001"
       gradientUnits="userSpaceOnUse"
       gradientTransform="matrix(3.6491989,0,0,3.6491989,1.1034506,1.1034488)" />
    <linearGradient
       inkscape:collect="always"
       id="linearGradient984">
      <stop
         style="stop-color:#26b4eb;stop-opacity:1;"
         offset="0"
         id="stop980" />
      <stop
         style="stop-color:#15b393;stop-opacity:1"
         offset="1"
         id="stop982" />
    </linearGradient>
    <linearGradient
       inkscape:collect="always"
       xlink:href="#linearGradient3933"
       id="linearGradient1747"
       x1="2.2695312"
       y1="10"
       x2="27.51137"
       y2="25.808783"
       gradientUnits="userSpaceOnUse"
       gradientTransform="scale(2)" />
    <linearGradient
       inkscape:collect="always"
       id="linearGradient3933">
      <stop
         style="stop-color:#93daee;stop-opacity:1"
         offset="0"
         id="stop3929" />
      <stop
         style="stop-color:#afe5e3;stop-opacity:1"
         offset="1"
         id="stop3931" />
    </linearGradient>
  </defs>
  <circle
     style="fill:url(#linearGradient7450);fill-opacity:1;stroke-width:4.11134;stroke-linecap:round;stroke-linejoin:round"
     id="path7362"
     cx="32"
     cy="32"
     r="28" />
  <path
     id="path1292"
     style="opacity:0.6;fill:url(#linearGradient1747);fill-opacity:1;stroke-width:2.73252;stroke-linecap:round;stroke-linejoin:round"
     d="M 32,4.0000012 A 28,28 0 0 0 4.0000016,32 28,28 0 0 0 32,59.999998 28,28 0 0 0 60,32 28,28 0 0 0 32,4.0000012 Z m 0,1.9999999 a 25.999999,25.999999 0 0 1 4.871095,0.4609374 12,28 0 0 1 5.968749,13.5390605 H 21.187502 A 12,28 0 0 1 27.140625,6.4765635 25.999999,25.999999 0 0 1 32,6.0000011 Z M 24.24219,7.1953134 A 14,29.999999 0 0 0 19.187501,19.999999 H 8.9414077 A 25.999999,25.999999 0 0 1 24.24219,7.1953134 Z m 15.542966,0 A 25.999999,25.999999 0 0 1 55.0625,19.999999 H 44.828125 A 14,29.999999 0 0 0 39.785156,7.1953134 Z M 8.0039077,22 H 18.832032 a 14,29.999999 0 0 0 -0.832031,10 14,29.999999 0 0 0 0.832031,9.999998 H 8.0039077 A 25.999999,25.999999 0 0 1 6.0000015,32 25.999999,25.999999 0 0 1 8.0039077,22 Z m 12.8046873,0 h 22.398436 a 12,28 0 0 1 0.79297,10 12,28 0 0 1 -0.808594,9.999998 H 20.808595 A 12,28 0 0 1 20.000001,32 12,28 0 0 1 20.808595,22 Z m 24.390623,0 h 10.796874 a 25.999999,25.999999 0 0 1 2.003907,10 25.999999,25.999999 0 0 1 -2.003907,9.999998 H 45.167968 A 14,29.999999 0 0 0 46,32 14,29.999999 0 0 0 45.199218,22 Z M 8.9414077,43.999999 H 19.187501 A 14,29.999999 0 0 0 24.24219,56.804684 25.999999,25.999999 0 0 1 8.9414077,43.999999 Z m 12.2460943,0 H 42.8125 A 12,28 0 0 1 36.859375,57.523433 25.999999,25.999999 0 0 1 32,57.999997 25.999999,25.999999 0 0 1 27.140625,57.523433 12,28 0 0 1 21.187502,43.999999 Z m 23.624999,0 h 10.246091 a 25.999999,25.999999 0 0 1 -15.30078,12.804685 14,29.999999 0 0 0 5.054689,-12.804685 z" />
</svg>
