<?xml version="1.0" encoding="UTF-8" standalone="no"?>
<!-- Created with Inkscape (http://www.inkscape.org/) -->

<svg
   width="64"
   height="64"
   viewBox="0 0 64 64"
   version="1.1"
   id="svg5"
   inkscape:version="1.2.1 (9c6d41e410, 2022-07-14, custom)"
   sodipodi:docname="kate.svg"
   xmlns:inkscape="http://www.inkscape.org/namespaces/inkscape"
   xmlns:sodipodi="http://sodipodi.sourceforge.net/DTD/sodipodi-0.dtd"
   xmlns:xlink="http://www.w3.org/1999/xlink"
   xmlns="http://www.w3.org/2000/svg"
   xmlns:svg="http://www.w3.org/2000/svg">
  <sodipodi:namedview
     id="namedview7"
     pagecolor="#ffffff"
     bordercolor="#000000"
     borderopacity="0.25"
     inkscape:showpageshadow="2"
     inkscape:pageopacity="0.0"
     inkscape:pagecheckerboard="0"
     inkscape:deskcolor="#d1d1d1"
     inkscape:document-units="px"
     showgrid="false"
     inkscape:zoom="12.640625"
     inkscape:cx="31.960445"
     inkscape:cy="32"
     inkscape:window-width="1920"
     inkscape:window-height="1012"
     inkscape:window-x="0"
     inkscape:window-y="0"
     inkscape:window-maximized="1"
     inkscape:current-layer="svg5" />
  <defs
     id="defs2">
    <linearGradient
       inkscape:collect="always"
       id="linearGradient13862">
      <stop
         style="stop-color:#e6e6e6;stop-opacity:1;"
         offset="0"
         id="stop13858" />
      <stop
         style="stop-color:#b3b3b3;stop-opacity:1;"
         offset="1"
         id="stop13860" />
    </linearGradient>
    <linearGradient
       inkscape:collect="always"
       id="linearGradient10942">
      <stop
         style="stop-color:#cccccc;stop-opacity:1;"
         offset="0"
         id="stop10938" />
      <stop
         style="stop-color:#b3b3b3;stop-opacity:1;"
         offset="1"
         id="stop10940" />
    </linearGradient>
    <linearGradient
       inkscape:collect="always"
       id="linearGradient9482">
      <stop
         style="stop-color:#e6e6e6;stop-opacity:1;"
         offset="0"
         id="stop9478" />
      <stop
         style="stop-color:#ffffff;stop-opacity:1;"
         offset="1"
         id="stop9480" />
    </linearGradient>
    <linearGradient
       inkscape:collect="always"
       id="linearGradient5110">
      <stop
         style="stop-color:#ffffff;stop-opacity:1;"
         offset="0"
         id="stop5106" />
      <stop
         style="stop-color:#b3b3b3;stop-opacity:1;"
         offset="1"
         id="stop5108" />
    </linearGradient>
    <linearGradient
       inkscape:collect="always"
       xlink:href="#linearGradient5110"
       id="linearGradient5112"
       x1="37.078941"
       y1="12.288808"
       x2="20.276628"
       y2="31.786217"
       gradientUnits="userSpaceOnUse"
       gradientTransform="matrix(1.3571432,0,0,1.3571432,0.4285679,-0.2142895)" />
    <linearGradient
       inkscape:collect="always"
       xlink:href="#linearGradient5110"
       id="linearGradient6572"
       x1="26.609182"
       y1="31.458633"
       x2="25.756056"
       y2="21.949287"
       gradientUnits="userSpaceOnUse"
       gradientTransform="matrix(1.3571432,0,0,1.3571432,0.4285679,-0.2142895)" />
    <linearGradient
       inkscape:collect="always"
       xlink:href="#linearGradient9482"
       id="linearGradient9484"
       x1="13.481789"
       y1="26.418924"
       x2="37.078941"
       y2="14.640833"
       gradientUnits="userSpaceOnUse"
       gradientTransform="matrix(1.3571432,0,0,1.3571432,0.4285679,-0.2142895)" />
    <linearGradient
       inkscape:collect="always"
       xlink:href="#linearGradient10942"
       id="linearGradient10944"
       x1="26.245859"
       y1="9.2360821"
       x2="23.220625"
       y2="16.559277"
       gradientUnits="userSpaceOnUse"
       gradientTransform="matrix(1.3571432,0,0,1.3571432,0.4285679,-0.2142895)" />
    <linearGradient
       inkscape:collect="always"
       xlink:href="#linearGradient5110"
       id="linearGradient12404"
       x1="17.576595"
       y1="12.781805"
       x2="28.050064"
       y2="10.215283"
       gradientUnits="userSpaceOnUse"
       gradientTransform="matrix(1.3571432,0,0,1.3571432,0.4285679,-0.2142895)" />
    <linearGradient
       inkscape:collect="always"
       xlink:href="#linearGradient13862"
       id="linearGradient13864"
       x1="15.023741"
       y1="11.6178"
       x2="20.870384"
       y2="17.389194"
       gradientUnits="userSpaceOnUse"
       gradientTransform="matrix(1.3571432,0,0,1.3571432,0.4285679,-0.2142895)" />
    <linearGradient
       inkscape:collect="always"
       xlink:href="#linearGradient25654"
       id="linearGradient903"
       x1="16"
       y1="15.943359"
       x2="0"
       y2="0"
       gradientUnits="userSpaceOnUse"
       gradientTransform="matrix(3.5,0,0,3.5,4.0000032,3.9999996)" />
    <linearGradient
       inkscape:collect="always"
       id="linearGradient25654">
      <stop
         style="stop-color:#2a7fff;stop-opacity:1;"
         offset="0"
         id="stop25650" />
      <stop
         style="stop-color:#00ccff;stop-opacity:1;"
         offset="1"
         id="stop25652" />
    </linearGradient>
  </defs>
  <circle
     style="fill:url(#linearGradient903);fill-opacity:1;stroke-width:3.5;stroke-linecap:round;stroke-linejoin:round"
     id="path318"
     cx="32"
     cy="32"
     r="28" />
  <path
     style="fill:url(#linearGradient13864);fill-opacity:1;stroke-width:1.52399"
     d="M 26.31849,23.87199 C 24.696732,18.488003 15.53193,19.79446 14,19.677572 c 1.719417,-0.853513 3.263503,-0.537848 6.808168,-3.105635 6.828552,-4.946648 11.619386,-5.012397 15.23979,-3.047959 -9.897658,0.376251 -5.563512,5.893829 -4.105678,8.73504 -1.853938,0.538512 -4.780516,1.351432 -5.62379,1.612972 z"
     id="path10" />
  <path
     style="fill:url(#linearGradient5112);fill-opacity:1;stroke-width:1.52399"
     d="m 50.75,16.463383 c -3.564156,4.707809 -9.489932,11.068385 -15.97535,11.906237 -6.485424,0.837842 -13.277718,-0.09032 -14.709908,4.739702 -1.318912,4.448026 3.92934,8.600928 8.740512,7.600026 5.139836,-1.06928 4.029808,-6.894918 1.218522,-10.862028 2.135438,-0.12244 0.878966,0.622962 4.500202,0.440418 l 2.352124,7.334132 c 1.35021,3.389154 4.642648,11.081178 5.267772,17.049542 C 39.137742,50.351792 37.591576,48.764336 32.93278,45.648028 26.96517,41.65624 21.522594,41.521102 18.725287,35.639976 15.934017,29.771552 20.238134,25.544302 26.849382,23.713608 36.297342,21.097406 44.438014,18.617009 50.75,16.463383 Z"
     id="path12" />
  <path
     style="fill:url(#linearGradient6572);fill-opacity:1;stroke-width:1.52399"
     d="M 30.023778,29.84732 C 32.159216,29.72488 31.76199,29.75658 35.383222,29.574036 40.780874,34.174952 42.569976,35.766884 52,42.47958 42.521562,41.801532 35.34992,38.725906 30.023778,29.84732 Z"
     id="path14" />
  <path
     style="fill:url(#linearGradient12404);fill-opacity:1;stroke-width:1.52399"
     d="m 14,19.677572 c 1.719417,-0.853513 3.27327,-1.557055 6.817938,-4.124843 6.828552,-4.946647 14.058184,-3.867851 17.678586,-1.903416 -9.897654,0.376253 -8.62237,2.348345 -8.658898,3.894345 C 23.261598,16.157518 21.34154,18.043493 14,19.677572 Z"
     id="path16" />
  <path
     style="fill:url(#linearGradient10944);fill-opacity:1;stroke-width:1.52399"
     d="m 38.496524,13.649313 c -9.897654,0.376253 -8.012076,5.768496 -6.554244,8.609705 -1.155002,0.335492 -1.645612,0.71769 -3.189608,1.126318 -6.229874,-11.100574 4.659174,-12.544691 9.743852,-9.736023 z"
     id="path18" />
  <path
     style="fill:url(#linearGradient9484);fill-opacity:1;stroke-width:1.52399"
     d="M 20.507542,38.405378 C 15.664171,32.168944 17.167939,26.452704 26.651958,23.482738 36.011116,20.551862 44.438014,18.617007 50.75,16.463383 33.71629,22.953594 11.777267,27.290326 20.507542,38.405378 Z"
     id="path20" />
</svg>
