<?xml version="1.0" encoding="UTF-8" standalone="no"?>
<!-- Created with Inkscape (http://www.inkscape.org/) -->

<svg
   width="64"
   height="64"
   viewBox="0 0 64 64"
   version="1.1"
   id="svg5"
   inkscape:version="1.2 (1:1.2.1+202207142221+cd75a1ee6d)"
   sodipodi:docname="kdevelop.svg"
   xmlns:inkscape="http://www.inkscape.org/namespaces/inkscape"
   xmlns:sodipodi="http://sodipodi.sourceforge.net/DTD/sodipodi-0.dtd"
   xmlns:xlink="http://www.w3.org/1999/xlink"
   xmlns="http://www.w3.org/2000/svg"
   xmlns:svg="http://www.w3.org/2000/svg">
  <sodipodi:namedview
     id="namedview7"
     pagecolor="#ffffff"
     bordercolor="#666666"
     borderopacity="1.0"
     inkscape:pageshadow="2"
     inkscape:pageopacity="0.0"
     inkscape:pagecheckerboard="0"
     inkscape:document-units="px"
     showgrid="false"
     units="px"
     inkscape:zoom="13.03125"
     inkscape:cx="32"
     inkscape:cy="32"
     inkscape:window-width="1920"
     inkscape:window-height="1012"
     inkscape:window-x="0"
     inkscape:window-y="0"
     inkscape:window-maximized="1"
     inkscape:current-layer="svg5"
     inkscape:showpageshadow="2"
     inkscape:deskcolor="#d1d1d1" />
  <defs
     id="defs2">
    <linearGradient
       inkscape:collect="always"
       xlink:href="#linearGradient7900"
       id="linearGradient1281"
       x1="2.167166"
       y1="2.6942132"
       x2="15.875"
       y2="13.395575"
       gradientUnits="userSpaceOnUse"
       gradientTransform="matrix(3.7795275,0,0,3.7795275,1.8848425e-7,2.499987e-4)" />
    <linearGradient
       inkscape:collect="always"
       id="linearGradient7900">
      <stop
         style="stop-color:#9bc062;stop-opacity:1;"
         offset="0"
         id="stop7892" />
      <stop
         style="stop-color:#96c74e;stop-opacity:1"
         offset="0.14573747"
         id="stop7894" />
      <stop
         style="stop-color:#699f3e;stop-opacity:1"
         offset="0.89999998"
         id="stop7896" />
      <stop
         style="stop-color:#5f9816;stop-opacity:1"
         offset="1"
         id="stop7898" />
    </linearGradient>
  </defs>
  <path
     id="path428"
     style="fill:url(#linearGradient1281);fill-opacity:1.0;stroke-width:0.499997"
     d="M 40.945312,5.469 A 9.9999996,9.9999996 0 0 1 31.999998,11.00025 9.9999996,9.9999996 0 0 1 23.080078,5.4768127 27.999999,27.999999 0 0 0 13.503906,11.004156 9.9999996,9.9999996 0 0 1 13.8125,21.50025 9.9999996,9.9999996 0 0 1 4.5703126,26.463141 27.999999,27.999999 0 0 0 4,32.000251 a 27.999999,27.999999 0 0 0 0.5703126,5.53906 9.9999996,9.9999996 0 0 1 0.5820313,-0.03904 9.9999996,9.9999996 0 0 1 8.6601561,5.000001 9.9999996,9.9999996 0 0 1 -0.308595,10.496091 27.999999,27.999999 0 0 0 9.576172,5.527344 9.9999996,9.9999996 0 0 1 8.919921,-5.523436 9.9999996,9.9999996 0 0 1 8.919919,5.523436 27.999999,27.999999 0 0 0 9.589844,-5.53711 9.9999996,9.9999996 0 0 1 -0.32228,-10.486325 9.9999996,9.9999996 0 0 1 8.660156,-5.000001 9.9999996,9.9999996 0 0 1 0.582032,0.03904 A 27.999999,27.999999 0 0 0 60,32.000251 27.999999,27.999999 0 0 0 59.445313,26.463141 9.9999996,9.9999996 0 0 1 50.1875,21.50025 9.9999996,9.9999996 0 0 1 50.517566,11.00025 27.999999,27.999999 0 0 0 40.945301,5.469 Z" />
  <path
     d="m 29.999901,22 v 7.000199 L 36.000001,22 43,22.999999 34.0001,34 43,44.000002 36.000099,45 l -6.0001,-8.000099 v 7.000101 L 24,45 V 22.999999 L 29.999999,22 Z"
     style="opacity:0.2;fill:#000000;stroke-width:0.264583"
     id="path1394-7"
     sodipodi:nodetypes="ccccccccccccc" />
  <path
     d="m 29.999897,21 v 7.0002 L 35.999997,21 43,22 34.0001,33 43,43.000003 l -6.999901,0.999999 -6.0001,-8.0001 v 7.000101 L 24,44.000002 V 22 l 5.999999,-1 z"
     style="fill:#ffffff;stroke-width:0.999999"
     id="path858-9"
     sodipodi:nodetypes="ccccccccccccc" />
</svg>
