<?xml version="1.0" encoding="UTF-8" standalone="no"?>
<svg
   width="64"
   height="64"
   viewBox="0 0 64 64"
   version="1.1"
   id="svg1886"
   inkscape:version="1.2.1 (9c6d41e410, 2022-07-14, custom)"
   sodipodi:docname="kvantum.svg"
   xmlns:inkscape="http://www.inkscape.org/namespaces/inkscape"
   xmlns:sodipodi="http://sodipodi.sourceforge.net/DTD/sodipodi-0.dtd"
   xmlns:xlink="http://www.w3.org/1999/xlink"
   xmlns="http://www.w3.org/2000/svg"
   xmlns:svg="http://www.w3.org/2000/svg"
   xmlns:rdf="http://www.w3.org/1999/02/22-rdf-syntax-ns#"
   xmlns:cc="http://creativecommons.org/ns#"
   xmlns:dc="http://purl.org/dc/elements/1.1/">
  <defs
     id="defs1880">
    <linearGradient
       inkscape:collect="always"
       id="linearGradient3330">
      <stop
         style="stop-color:#b864d9;stop-opacity:1;"
         offset="0"
         id="stop3324" />
      <stop
         style="stop-color:#626be5;stop-opacity:1;"
         offset="0.51452255"
         id="stop3326" />
      <stop
         style="stop-color:#26aee8;stop-opacity:1;"
         offset="1"
         id="stop3328" />
    </linearGradient>
    <radialGradient
       inkscape:collect="always"
       xlink:href="#linearGradient3330"
       id="radialGradient2438"
       cx="-9.076005"
       cy="10.690181"
       fx="-9.076005"
       fy="10.690181"
       r="8"
       gradientTransform="matrix(0,-6,7,0,-14.831266,1.5439714)"
       gradientUnits="userSpaceOnUse" />
    <linearGradient
       inkscape:collect="always"
       xlink:href="#linearGradient1788"
       id="linearGradient1071"
       x1="3.4395833"
       y1="3.4395833"
       x2="0.79375005"
       y2="0.79375005"
       gradientUnits="userSpaceOnUse"
       gradientTransform="matrix(13.498313,0,0,13.123361,3.4285714,7.5277774)" />
    <linearGradient
       inkscape:collect="always"
       id="linearGradient1788">
      <stop
         style="stop-color:#232223;stop-opacity:1;"
         offset="0"
         id="stop1784" />
      <stop
         style="stop-color:#49484d;stop-opacity:1"
         offset="1"
         id="stop1786" />
    </linearGradient>
    <linearGradient
       inkscape:collect="always"
       id="linearGradient3143">
      <stop
         style="stop-color:#d2d2d2;stop-opacity:1;"
         offset="0"
         id="stop3139" />
      <stop
         style="stop-color:#ffffff;stop-opacity:1"
         offset="1"
         id="stop3141" />
    </linearGradient>
    <linearGradient
       inkscape:collect="always"
       xlink:href="#linearGradient3143"
       id="linearGradient9895"
       x1="18.700014"
       y1="21.975693"
       x2="10.111917"
       y2="11.381992"
       gradientUnits="userSpaceOnUse"
       gradientTransform="scale(2)" />
  </defs>
  <sodipodi:namedview
     id="base"
     pagecolor="#ffffff"
     bordercolor="#666666"
     borderopacity="1.0"
     inkscape:pageopacity="0.0"
     inkscape:pageshadow="2"
     inkscape:zoom="12.65625"
     inkscape:cx="31.960494"
     inkscape:cy="32"
     inkscape:document-units="px"
     inkscape:current-layer="svg1886"
     inkscape:document-rotation="0"
     showgrid="false"
     units="px"
     inkscape:window-width="1920"
     inkscape:window-height="1012"
     inkscape:window-x="0"
     inkscape:window-y="0"
     inkscape:window-maximized="1"
     inkscape:pagecheckerboard="0"
     inkscape:showpageshadow="2"
     inkscape:deskcolor="#d1d1d1" />
  <metadata
     id="metadata1883">
    <rdf:RDF>
      <cc:Work
         rdf:about="">
        <dc:format>image/svg+xml</dc:format>
        <dc:type
           rdf:resource="http://purl.org/dc/dcmitype/StillImage" />
      </cc:Work>
    </rdf:RDF>
  </metadata>
  <rect
     style="fill:url(#radialGradient2438);fill-opacity:1;stroke-width:3.4641;stroke-linecap:round;stroke-linejoin:round"
     id="rect950"
     width="56"
     height="48"
     x="4"
     y="8"
     ry="4" />
  <rect
     style="fill:url(#linearGradient1071);fill-opacity:1;stroke-width:3.52146;stroke-linejoin:round"
     id="rect983"
     width="50"
     height="41.666668"
     x="7"
     y="11"
     ry="2" />
  <path
     d="m 17.999878,20 2.44e-4,2.595604 2.223712,0.16838 0.371314,0.505088 -3.691394,17.475334 -0.567902,0.52627 L 14,41.440116 v 2.559728 l 9.999842,1.52e-4 3.16e-4,-2.559594 -2.049638,-0.14764 -0.393162,-0.547248 1.507158,-6.801658 h 2.31522 l 3.32004,6.134866 c 1.35694,2.685662 2.308852,3.83704 5.242168,3.872664 0.843428,0.0104 1.182728,0.07012 3.458086,0 7.847882,-6.313376 11.853724,-11.658046 12.486634,-13.833794 0.383318,-1.317776 -0.225264,-2.125984 -1.529312,-2.125984 -0.636122,0 -1.36439,0.258134 -2.183822,0.779122 l -0.589736,5.057164 c -1.606158,2.022584 -3.747334,4.225814 -6.356094,6.524304 l 2.279228,-9.225634 c 0.358076,-1.777634 0.476128,-2.726088 -0.72093,-3.093916 l -5.351138,1.136718 -0.2836,0.96796 2.46781,0.379074 c 0.17156,0.612844 -0.572214,2.478656 -0.946878,4.532194 l -1.201324,6.376882 c -0.019,0.06558 -0.03082,0.13756 -0.0437,0.210464 -0.77896,-0.40329 -1.27,-1.121416 -1.83476,-2.209768 l -4.696074,-8.450032 8.583946,-8.04338 2.519898,-0.273582 -3.56e-4,-2.658844 -10.000012,7.2e-5 3.8e-4,2.658978 3.504738,0.16816 0.218424,0.568286 -9.05716,7.868406 h -1.09212 l 1.674512,-7.99462 0.480532,-0.505086 2.270996,-0.16832 -2.26e-4,-2.59587 z"
     style="fill:url(#linearGradient9895);fill-opacity:1;stroke-width:2"
     id="path1445" />
</svg>
