<?xml version="1.0" encoding="UTF-8" standalone="no"?>
<!-- Created with Inkscape (http://www.inkscape.org/) -->

<svg
   width="64"
   height="64"
   viewBox="0 0 64 64"
   version="1.1"
   id="svg1015"
   inkscape:version="1.2.1 (9c6d41e410, 2022-07-14, custom)"
   sodipodi:docname="libreoffice-base.svg"
   xmlns:inkscape="http://www.inkscape.org/namespaces/inkscape"
   xmlns:sodipodi="http://sodipodi.sourceforge.net/DTD/sodipodi-0.dtd"
   xmlns:xlink="http://www.w3.org/1999/xlink"
   xmlns="http://www.w3.org/2000/svg"
   xmlns:svg="http://www.w3.org/2000/svg">
  <sodipodi:namedview
     id="namedview1017"
     pagecolor="#ffffff"
     bordercolor="#000000"
     borderopacity="0.25"
     inkscape:showpageshadow="2"
     inkscape:pageopacity="0.0"
     inkscape:pagecheckerboard="0"
     inkscape:deskcolor="#d1d1d1"
     inkscape:document-units="px"
     showgrid="false"
     inkscape:zoom="12.8125"
     inkscape:cx="22.985366"
     inkscape:cy="32"
     inkscape:window-width="1920"
     inkscape:window-height="1029"
     inkscape:window-x="0"
     inkscape:window-y="0"
     inkscape:window-maximized="1"
     inkscape:current-layer="svg1015" />
  <defs
     id="defs1012">
    <linearGradient
       inkscape:collect="always"
       xlink:href="#linearGradient3529"
       id="linearGradient3173"
       x1="2.6458333"
       y1="1.0583334"
       x2="14.287499"
       y2="15.875"
       gradientUnits="userSpaceOnUse"
       gradientTransform="scale(3.7795275)" />
    <linearGradient
       inkscape:collect="always"
       id="linearGradient3529">
      <stop
         style="stop-color:#b67cd7;stop-opacity:1"
         offset="0"
         id="stop3525" />
      <stop
         style="stop-color:#8536bd;stop-opacity:1"
         offset="1"
         id="stop3527" />
    </linearGradient>
    <linearGradient
       inkscape:collect="always"
       xlink:href="#linearGradient3723"
       id="linearGradient3725"
       x1="54"
       y1="14"
       x2="44"
       y2="4"
       gradientUnits="userSpaceOnUse" />
    <linearGradient
       inkscape:collect="always"
       id="linearGradient3723">
      <stop
         style="stop-color:#541a7c;stop-opacity:1"
         offset="0"
         id="stop3719" />
      <stop
         style="stop-color:#702da1;stop-opacity:1"
         offset="1"
         id="stop3721" />
    </linearGradient>
  </defs>
  <path
     id="rect3085"
     style="fill:url(#linearGradient3173);fill-opacity:1;stroke-width:3.99999;stroke-linecap:round;stroke-linejoin:round"
     d="m 14,4 c -2.216,0 -4,1.784 -4,4 v 48 c 0,2.216 1.784,4 4,4 h 36 c 2.216,0 4,-1.784 4,-4 V 26 c 0.0061,-2.482935 -0.258806,-3.258806 -2.000001,-5 l -15.05,-15 c -1.461153,-1.384192 -2.251003,-2 -4.5,-2 z"
     sodipodi:nodetypes="ssssssccccs" />
  <path
     id="rect2140"
     style="fill:url(#linearGradient3725);fill-opacity:1;stroke-width:3.99999;stroke-linecap:round;stroke-linejoin:round"
     d="m 39.500001,5.5 12.999998,13 c 0.431426,0.447189 1.497373,0.107777 1.5,-1 V 8 c 0,-2.216 -1.783997,-4 -3.999998,-4 h -9.500002 c -1.032309,0.0059 -1.41753,1.058252 -0.999998,1.5 z"
     sodipodi:nodetypes="cccsscc" />
  <path
     id="rect1255"
     style="fill:#fafafa;fill-opacity:1;stroke-width:3.99999;stroke-linecap:round;stroke-linejoin:round"
     d="m 15,7 h 17 c 1.512263,-0.01788 2.506213,0.477587 3.5,1.5 l 13.999999,14 c 0.897271,1.028352 1.5,1.758806 1.5,3.5 v 29.000002 c 0,1.107998 -0.891998,1.999997 -2.000001,1.999997 H 15 c -1.108,0 -2,-0.891999 -2,-1.999997 V 9 c 0,-1.108 0.892,-2 2,-2 z"
     sodipodi:nodetypes="sccccssssss" />
  <path
     id="path8276-3-6-5"
     style="fill:#541a7c;fill-opacity:1;stroke-width:1.44543;stroke-linecap:round;stroke-linejoin:round"
     d="m 22.000003,41.642857 v 5.571428 c 0,1.538505 4.477152,2.785712 9.999999,2.785712 5.522847,0 10.000001,-1.247207 10.000001,-2.785712 v -5.571428 z"
     sodipodi:nodetypes="cssscc" />
  <path
     id="path8276-3-6-7"
     style="fill:#702da1;fill-opacity:1;stroke-width:1.44543;stroke-linecap:round;stroke-linejoin:round"
     d="m 22.000003,36.535714 v 5.571427 c 0,1.53851 4.477152,2.785716 9.999999,2.785716 5.522847,0 10.000001,-1.247206 10.000001,-2.785716 v -5.571427 z"
     sodipodi:nodetypes="cssscc" />
  <path
     id="path8276-3-6"
     style="fill:#8536bd;fill-opacity:1;stroke-width:1.44543;stroke-linecap:round;stroke-linejoin:round"
     d="M 22.000003,31.428571 V 37 c 0,1.538508 4.477152,2.785714 9.999999,2.785714 5.522847,0 10.000001,-1.247206 10.000001,-2.785714 v -5.571429 z"
     sodipodi:nodetypes="cssscc" />
  <path
     id="path8276-3"
     style="fill:#9a53cd;fill-opacity:1;stroke-width:1.44543;stroke-linecap:round;stroke-linejoin:round"
     d="m 32.000002,24.464285 c -5.522847,0 -9.999999,2.321429 -9.999999,2.321429 v 5.107143 c 0,1.538507 4.477152,2.785714 9.999999,2.785714 5.522847,0 10.000001,-1.247207 10.000001,-2.785714 v -5.107143 c 0,0 -4.477154,-2.321429 -10.000001,-2.321429 z"
     sodipodi:nodetypes="scssscs" />
  <ellipse
     style="fill:#b67cd7;fill-opacity:1;stroke-width:1.44543;stroke-linecap:round;stroke-linejoin:round"
     id="path9564"
     cx="31.999998"
     cy="26.785715"
     rx="9.999999"
     ry="2.7857141" />
</svg>
