<?xml version="1.0" encoding="UTF-8" standalone="no"?>
<!-- Created with Inkscape (http://www.inkscape.org/) -->

<svg
   width="64"
   height="64"
   viewBox="0 0 64 64"
   version="1.1"
   id="svg1015"
   inkscape:version="1.2.1 (9c6d41e410, 2022-07-14, custom)"
   sodipodi:docname="libreoffice-draw.svg"
   xmlns:inkscape="http://www.inkscape.org/namespaces/inkscape"
   xmlns:sodipodi="http://sodipodi.sourceforge.net/DTD/sodipodi-0.dtd"
   xmlns:xlink="http://www.w3.org/1999/xlink"
   xmlns="http://www.w3.org/2000/svg"
   xmlns:svg="http://www.w3.org/2000/svg">
  <sodipodi:namedview
     id="namedview1017"
     pagecolor="#ffffff"
     bordercolor="#000000"
     borderopacity="0.25"
     inkscape:showpageshadow="2"
     inkscape:pageopacity="0.0"
     inkscape:pagecheckerboard="0"
     inkscape:deskcolor="#d1d1d1"
     inkscape:document-units="px"
     showgrid="false"
     inkscape:zoom="12.8125"
     inkscape:cx="22.985366"
     inkscape:cy="32"
     inkscape:window-width="1920"
     inkscape:window-height="1029"
     inkscape:window-x="0"
     inkscape:window-y="0"
     inkscape:window-maximized="1"
     inkscape:current-layer="svg1015" />
  <defs
     id="defs1012">
    <linearGradient
       inkscape:collect="always"
       xlink:href="#linearGradient3529"
       id="linearGradient3173"
       x1="2.6458333"
       y1="1.0583334"
       x2="14.287499"
       y2="15.875"
       gradientUnits="userSpaceOnUse"
       gradientTransform="scale(3.7795275)" />
    <linearGradient
       inkscape:collect="always"
       id="linearGradient3529">
      <stop
         style="stop-color:#f6be00;stop-opacity:1"
         offset="0"
         id="stop3525" />
      <stop
         style="stop-color:#ff9c0a;stop-opacity:1"
         offset="1"
         id="stop3527" />
    </linearGradient>
    <linearGradient
       inkscape:collect="always"
       xlink:href="#linearGradient3723"
       id="linearGradient3725"
       x1="54"
       y1="14"
       x2="44"
       y2="4"
       gradientUnits="userSpaceOnUse" />
    <linearGradient
       inkscape:collect="always"
       id="linearGradient3723">
      <stop
         style="stop-color:#e37a00;stop-opacity:1"
         offset="0"
         id="stop3719" />
      <stop
         style="stop-color:#ff9316;stop-opacity:1"
         offset="1"
         id="stop3721" />
    </linearGradient>
  </defs>
  <path
     id="rect3085"
     style="fill:url(#linearGradient3173);fill-opacity:1;stroke-width:3.99999;stroke-linecap:round;stroke-linejoin:round"
     d="m 14,4 c -2.216,0 -4,1.7839999 -4,4 v 48 c 0,2.216 1.784,4 4,4 h 36 c 2.216,0 4,-1.784 4,-4 V 26 c 0.0061,-2.482935 -0.258806,-3.258806 -2.000001,-5 l -15.05,-15.0000001 C 35.488846,4.6158077 34.698996,4 32.449999,4 Z"
     sodipodi:nodetypes="ssssssccccs" />
  <path
     id="rect2140"
     style="fill:url(#linearGradient3725);fill-opacity:1;stroke-width:3.99999;stroke-linecap:round;stroke-linejoin:round"
     d="M 39.500001,5.4999998 52.499999,18.5 c 0.431426,0.447189 1.497374,0.107777 1.5,-1 V 8 c 0,-2.2160001 -1.783997,-3.9999998 -3.999998,-3.9999998 H 40.5 c -1.03231,0.0059 -1.417531,1.0582514 -0.999999,1.4999996 z"
     sodipodi:nodetypes="cccsscc" />
  <path
     id="rect1255"
     style="fill:#fafafa;fill-opacity:1;stroke-width:3.99999;stroke-linecap:round;stroke-linejoin:round"
     d="m 15,6.9999998 h 17 c 1.512263,-0.017877 2.506213,0.4775875 3.5,1.5000001 L 49.5,22.5 c 0.897271,1.028352 1.5,1.758806 1.5,3.5 v 29.000002 c 0,1.107998 -0.891999,1.999997 -2.000002,1.999997 H 15 c -1.108,0 -2,-0.891999 -2,-1.999997 V 8.9999999 C 13,7.892 13.892,6.9999998 15,6.9999998 Z"
     sodipodi:nodetypes="sccccssssss" />
  <circle
     style="fill:#f6be00;fill-opacity:1;stroke-width:1.6875;stroke-linecap:round;stroke-linejoin:round"
     id="path12373"
     cx="27"
     cy="34"
     r="8.999999" />
  <path
     id="rect14425"
     style="fill:#ff9c0a;fill-opacity:1;stroke-width:1.99999;stroke-linecap:round;stroke-linejoin:round"
     d="m 32.499997,29 h 12.000001 c 0.830997,0 1.5,0.669 1.5,1.5 v 12.000001 c 0,0.830997 -0.669003,1.5 -1.5,1.5 H 32.499997 c -0.830999,0 -1.5,-0.669003 -1.5,-1.5 V 30.5 c 0,-0.831 0.669001,-1.5 1.5,-1.5 z" />
  <path
     id="path14298"
     style="color:#000000;fill:#e37a00;fill-opacity:1;stroke:none;stroke-width:1.99977;stroke-linecap:round;stroke-linejoin:round;-inkscape-stroke:none"
     d="m 31.499998,32.000002 a 0.99986882,1.0000998 0 0 0 -0.870892,0.504883 l -8.498035,14.999996 a 0.99986882,1.0000998 0 0 0 0.870892,1.495117 h 16.997045 a 0.99986882,1.0000998 0 0 0 0.869915,-1.495117 L 32.370891,32.504885 a 0.99986882,1.0000998 0 0 0 -0.870893,-0.504883 z" />
</svg>
