<?xml version="1.0" encoding="UTF-8" standalone="no"?>
<!-- Created with Inkscape (http://www.inkscape.org/) -->

<svg
   width="64"
   height="64"
   viewBox="0 0 64 64"
   version="1.1"
   id="svg1015"
   inkscape:version="1.2.1 (9c6d41e410, 2022-07-14, custom)"
   sodipodi:docname="libreoffice-impress.svg"
   xmlns:inkscape="http://www.inkscape.org/namespaces/inkscape"
   xmlns:sodipodi="http://sodipodi.sourceforge.net/DTD/sodipodi-0.dtd"
   xmlns:xlink="http://www.w3.org/1999/xlink"
   xmlns="http://www.w3.org/2000/svg"
   xmlns:svg="http://www.w3.org/2000/svg">
  <sodipodi:namedview
     id="namedview1017"
     pagecolor="#ffffff"
     bordercolor="#000000"
     borderopacity="0.25"
     inkscape:showpageshadow="2"
     inkscape:pageopacity="0.0"
     inkscape:pagecheckerboard="0"
     inkscape:deskcolor="#d1d1d1"
     inkscape:document-units="px"
     showgrid="false"
     inkscape:zoom="12.8125"
     inkscape:cx="27.785366"
     inkscape:cy="32"
     inkscape:window-width="1920"
     inkscape:window-height="1029"
     inkscape:window-x="0"
     inkscape:window-y="0"
     inkscape:window-maximized="1"
     inkscape:current-layer="svg1015" />
  <defs
     id="defs1012">
    <linearGradient
       inkscape:collect="always"
       xlink:href="#linearGradient3529"
       id="linearGradient3173"
       x1="2.6458333"
       y1="1.0583334"
       x2="14.287499"
       y2="15.875"
       gradientUnits="userSpaceOnUse"
       gradientTransform="scale(3.7795275)" />
    <linearGradient
       inkscape:collect="always"
       id="linearGradient3529">
      <stop
         style="stop-color:#e5814f;stop-opacity:1"
         offset="0"
         id="stop3525" />
      <stop
         style="stop-color:#e15d2b;stop-opacity:1"
         offset="1"
         id="stop3527" />
    </linearGradient>
    <linearGradient
       inkscape:collect="always"
       xlink:href="#linearGradient3723"
       id="linearGradient3725"
       x1="54"
       y1="14"
       x2="44"
       y2="4"
       gradientUnits="userSpaceOnUse" />
    <linearGradient
       inkscape:collect="always"
       id="linearGradient3723">
      <stop
         style="stop-color:#b9501c;stop-opacity:1"
         offset="0"
         id="stop3719" />
      <stop
         style="stop-color:#d55d20;stop-opacity:1"
         offset="1"
         id="stop3721" />
    </linearGradient>
  </defs>
  <path
     id="rect3085"
     style="fill:url(#linearGradient3173);fill-opacity:1;stroke-width:3.99999;stroke-linecap:round;stroke-linejoin:round"
     d="M 14,4 C 11.784,4 10,5.7840001 10,8.0000001 V 56 c 0,2.216 1.784,4 4,4 h 36 c 2.216,0 4,-1.784 4,-4 V 26 c 0.0061,-2.482935 -0.258806,-3.258806 -2.000001,-5 l -15.05,-14.9999999 C 35.488846,4.6158081 34.698996,4 32.449999,4 Z"
     sodipodi:nodetypes="ssssssccccs" />
  <path
     id="rect2140"
     style="fill:url(#linearGradient3725);fill-opacity:1;stroke-width:3.99999;stroke-linecap:round;stroke-linejoin:round"
     d="M 39.500001,5.5000001 52.5,18.5 c 0.431425,0.447189 1.497373,0.107777 1.5,-1 V 8.0000001 c 0,-2.216 -1.783998,-3.9999999 -3.999999,-3.9999999 H 40.5 c -1.03231,0.0059 -1.417531,1.0582519 -0.999999,1.4999999 z"
     sodipodi:nodetypes="cccsscc" />
  <path
     id="rect1255"
     style="fill:#fafafa;fill-opacity:1;stroke-width:3.99999;stroke-linecap:round;stroke-linejoin:round"
     d="m 15,7.0000001 h 17 c 1.512263,-0.01788 2.506213,0.477587 3.5,1.5 L 49.5,22.5 c 0.897271,1.028352 1.5,1.758806 1.5,3.5 v 29.000002 c 0,1.107998 -0.891999,1.999997 -2.000002,1.999997 H 15 c -1.108,0 -2,-0.891999 -2,-1.999997 V 9.0000001 c 0,-1.108 0.892,-2 2,-2 z"
     sodipodi:nodetypes="sccccssssss" />
  <circle
     style="fill:#e15d2b;fill-opacity:1;stroke-width:3.49999;stroke-linecap:round;stroke-linejoin:round"
     id="path46529"
     cx="24.999998"
     cy="35"
     r="7" />
  <path
     id="path47335"
     style="fill:#e5814f;fill-opacity:1;stroke-width:3.49999;stroke-linecap:round;stroke-linejoin:round"
     d="M 25,28.000001 V 35 h 6.999999 A 6.9999998,6.9999998 0 0 0 25,28.000001 Z" />
  <rect
     style="fill:#d55d20;fill-opacity:1;stroke-width:3.99999;stroke-linecap:round;stroke-linejoin:round"
     id="rect49460"
     width="11"
     height="2"
     x="35"
     y="39.999996"
     ry="1" />
  <rect
     style="fill:#eca47f;fill-opacity:1;stroke-width:3.99999;stroke-linecap:round;stroke-linejoin:round"
     id="rect49720"
     width="11"
     height="1.9999983"
     x="35.000004"
     y="27.999998"
     ry="0.99999917" />
  <rect
     style="fill:#e58454;fill-opacity:1;stroke-width:3.99999;stroke-linecap:round;stroke-linejoin:round"
     id="rect49722"
     width="11"
     height="1.9999983"
     x="35.000004"
     y="34"
     ry="0.99999905" />
  <rect
     style="fill:#b9501c;fill-opacity:1;stroke-width:3.99999;stroke-linecap:round;stroke-linejoin:round"
     id="rect48498"
     width="28.000004"
     height="2.0000019"
     x="17.999998"
     y="46"
     ry="1.000001" />
</svg>
