<?xml version="1.0" encoding="UTF-8" standalone="no"?>
<!-- Created with Inkscape (http://www.inkscape.org/) -->

<svg
   width="64"
   height="64"
   viewBox="0 0 64 64"
   version="1.1"
   id="svg1015"
   inkscape:version="1.3.2 (1:1.3.2+202311252150+091e20ef0f)"
   sodipodi:docname="libreoffice-impress.svg"
   xmlns:inkscape="http://www.inkscape.org/namespaces/inkscape"
   xmlns:sodipodi="http://sodipodi.sourceforge.net/DTD/sodipodi-0.dtd"
   xmlns:xlink="http://www.w3.org/1999/xlink"
   xmlns="http://www.w3.org/2000/svg"
   xmlns:svg="http://www.w3.org/2000/svg">
  <sodipodi:namedview
     id="namedview1017"
     pagecolor="#ffffff"
     bordercolor="#000000"
     borderopacity="0.25"
     inkscape:showpageshadow="2"
     inkscape:pageopacity="0.0"
     inkscape:pagecheckerboard="0"
     inkscape:deskcolor="#d1d1d1"
     inkscape:document-units="px"
     showgrid="false"
     inkscape:zoom="12.8125"
     inkscape:cx="27.82439"
     inkscape:cy="31.960976"
     inkscape:window-width="1920"
     inkscape:window-height="1008"
     inkscape:window-x="0"
     inkscape:window-y="0"
     inkscape:window-maximized="1"
     inkscape:current-layer="svg1015" />
  <defs
     id="defs1012">
    <linearGradient
       inkscape:collect="always"
       xlink:href="#linearGradient3529"
       id="linearGradient3173"
       x1="2.6458333"
       y1="1.0583334"
       x2="14.287499"
       y2="15.875"
       gradientUnits="userSpaceOnUse"
       gradientTransform="scale(3.7795275)" />
    <linearGradient
       inkscape:collect="always"
       id="linearGradient3529">
      <stop
         style="stop-color:#e5814f;stop-opacity:1"
         offset="0"
         id="stop3525" />
      <stop
         style="stop-color:#e15d2b;stop-opacity:1"
         offset="1"
         id="stop3527" />
    </linearGradient>
    <linearGradient
       inkscape:collect="always"
       xlink:href="#linearGradient3723"
       id="linearGradient3725"
       x1="54"
       y1="14"
       x2="44"
       y2="4"
       gradientUnits="userSpaceOnUse" />
    <linearGradient
       inkscape:collect="always"
       id="linearGradient3723">
      <stop
         style="stop-color:#b9501c;stop-opacity:1"
         offset="0"
         id="stop3719" />
      <stop
         style="stop-color:#d55d20;stop-opacity:1"
         offset="1"
         id="stop3721" />
    </linearGradient>
  </defs>
  <path
     id="rect3085"
     style="fill:url(#linearGradient3173);fill-opacity:1;stroke-width:3.99999;stroke-linecap:round;stroke-linejoin:round"
     d="M 14,4 C 11.784,4 10,5.7840001 10,8.0000001 V 56 c 0,2.216 1.784,4 4,4 h 36 c 2.216,0 4,-1.784 4,-4 V 26 c 0.0061,-2.482935 -0.258806,-3.258806 -2.000001,-5 l -15.05,-14.9999999 C 35.488846,4.6158081 34.698996,4 32.449999,4 Z"
     sodipodi:nodetypes="ssssssccccs" />
  <path
     id="rect2140"
     style="fill:url(#linearGradient3725);fill-opacity:1;stroke-width:3.99999;stroke-linecap:round;stroke-linejoin:round"
     d="M 39.500001,5.5000001 52.5,18.5 c 0.431425,0.447189 1.497373,0.107777 1.5,-1 V 8.0000001 c 0,-2.216 -1.783998,-3.9999999 -3.999999,-3.9999999 H 40.5 c -1.03231,0.0059 -1.417531,1.0582519 -0.999999,1.4999999 z"
     sodipodi:nodetypes="cccsscc" />
  <path
     id="path46529"
     style="fill:#ffffff;fill-opacity:1;stroke-width:3.49999;stroke-linecap:round;stroke-linejoin:round"
     d="M 25 28 A 6.9999998 6.9999998 0 0 1 25.732422 28.039062 A 7 7 0 0 0 25 28 z M 25 28 A 7 7 0 0 0 18 35 A 7 7 0 0 0 25 42 A 7 7 0 0 0 32 35 L 25 35 L 25 28 z M 32 35 A 7 7 0 0 0 31.960938 34.267578 A 6.9999998 6.9999998 0 0 1 32 35 z M 25.734375 28.039062 A 6.9999998 6.9999998 0 0 1 26.419922 28.146484 A 7 7 0 0 0 25.734375 28.039062 z M 26.503906 28.166016 A 6.9999998 6.9999998 0 0 1 27.113281 28.328125 A 7 7 0 0 0 26.503906 28.166016 z M 27.234375 28.369141 A 6.9999998 6.9999998 0 0 1 27.808594 28.589844 A 7 7 0 0 0 27.234375 28.369141 z M 27.882812 28.623047 A 6.9999998 6.9999998 0 0 1 28.458984 28.916016 A 7 7 0 0 0 27.882812 28.623047 z M 28.527344 28.955078 A 6.9999998 6.9999998 0 0 1 29.066406 29.304688 A 7 7 0 0 0 28.527344 28.955078 z M 29.138672 29.355469 A 6.9999998 6.9999998 0 0 1 29.683594 29.798828 A 7 7 0 0 0 29.138672 29.355469 z M 29.683594 29.798828 A 6.9999998 6.9999998 0 0 1 30.201172 30.316406 A 7 7 0 0 0 29.683594 29.798828 z M 30.201172 30.316406 A 6.9999998 6.9999998 0 0 1 30.644531 30.861328 A 7 7 0 0 0 30.201172 30.316406 z M 30.695312 30.933594 A 6.9999998 6.9999998 0 0 1 31.044922 31.472656 A 7 7 0 0 0 30.695312 30.933594 z M 31.083984 31.541016 A 6.9999998 6.9999998 0 0 1 31.376953 32.117188 A 7 7 0 0 0 31.083984 31.541016 z M 31.410156 32.191406 A 6.9999998 6.9999998 0 0 1 31.630859 32.765625 A 7 7 0 0 0 31.410156 32.191406 z M 31.671875 32.886719 A 6.9999998 6.9999998 0 0 1 31.833984 33.496094 A 7 7 0 0 0 31.671875 32.886719 z M 31.853516 33.580078 A 6.9999998 6.9999998 0 0 1 31.960938 34.265625 A 7 7 0 0 0 31.853516 33.580078 z " />
  <rect
     style="fill:#ffffff;fill-opacity:1;stroke-width:3.99999;stroke-linecap:round;stroke-linejoin:round"
     id="rect49460"
     width="11"
     height="2"
     x="35"
     y="39.999996"
     ry="1" />
  <rect
     style="fill:#ffffff;fill-opacity:1;stroke-width:3.99999;stroke-linecap:round;stroke-linejoin:round"
     id="rect49720"
     width="11"
     height="1.9999983"
     x="35.000004"
     y="27.999998"
     ry="0.99999917" />
  <rect
     style="fill:#ffffff;fill-opacity:1;stroke-width:3.99999;stroke-linecap:round;stroke-linejoin:round"
     id="rect49722"
     width="11"
     height="1.9999983"
     x="35.000004"
     y="34"
     ry="0.99999905" />
  <rect
     style="fill:#ffffff;fill-opacity:1;stroke-width:3.99999;stroke-linecap:round;stroke-linejoin:round"
     id="rect48498"
     width="28.000004"
     height="2.0000019"
     x="17.999998"
     y="46"
     ry="1.000001" />
</svg>
