<?xml version="1.0" encoding="UTF-8" standalone="no"?>
<!-- Created with Inkscape (http://www.inkscape.org/) -->

<svg
   width="64"
   height="64"
   viewBox="0 0 64 64"
   version="1.1"
   id="svg1015"
   inkscape:version="1.2.1 (9c6d41e410, 2022-07-14, custom)"
   sodipodi:docname="libreoffice-math.svg"
   xmlns:inkscape="http://www.inkscape.org/namespaces/inkscape"
   xmlns:sodipodi="http://sodipodi.sourceforge.net/DTD/sodipodi-0.dtd"
   xmlns:xlink="http://www.w3.org/1999/xlink"
   xmlns="http://www.w3.org/2000/svg"
   xmlns:svg="http://www.w3.org/2000/svg">
  <sodipodi:namedview
     id="namedview1017"
     pagecolor="#ffffff"
     bordercolor="#000000"
     borderopacity="0.25"
     inkscape:showpageshadow="2"
     inkscape:pageopacity="0.0"
     inkscape:pagecheckerboard="0"
     inkscape:deskcolor="#d1d1d1"
     inkscape:document-units="px"
     showgrid="false"
     inkscape:zoom="12.8125"
     inkscape:cx="22.985366"
     inkscape:cy="32"
     inkscape:window-width="1920"
     inkscape:window-height="1029"
     inkscape:window-x="0"
     inkscape:window-y="0"
     inkscape:window-maximized="1"
     inkscape:current-layer="svg1015" />
  <defs
     id="defs1012">
    <linearGradient
       inkscape:collect="always"
       xlink:href="#linearGradient3529"
       id="linearGradient3173"
       x1="2.6458333"
       y1="1.0583334"
       x2="14.287499"
       y2="15.875"
       gradientUnits="userSpaceOnUse"
       gradientTransform="scale(3.7795275)" />
    <linearGradient
       inkscape:collect="always"
       id="linearGradient3529">
      <stop
         style="stop-color:#526587;stop-opacity:1"
         offset="0"
         id="stop3525" />
      <stop
         style="stop-color:#445471;stop-opacity:1"
         offset="1"
         id="stop3527" />
    </linearGradient>
    <linearGradient
       inkscape:collect="always"
       xlink:href="#linearGradient3723"
       id="linearGradient3725"
       x1="54"
       y1="14"
       x2="44"
       y2="4"
       gradientUnits="userSpaceOnUse" />
    <linearGradient
       inkscape:collect="always"
       id="linearGradient3723">
      <stop
         style="stop-color:#3d4c65;stop-opacity:1"
         offset="0"
         id="stop3719" />
      <stop
         style="stop-color:#455572;stop-opacity:1"
         offset="1"
         id="stop3721" />
    </linearGradient>
  </defs>
  <path
     id="rect3085"
     style="fill:url(#linearGradient3173);fill-opacity:1;stroke-width:3.99999;stroke-linecap:round;stroke-linejoin:round"
     d="m 14,4 c -2.216001,0 -4,1.784 -4,4 v 48 c 0,2.216 1.784,4 4,4 h 36 c 2.216,0 4,-1.784 4,-4 V 26 c 0.0061,-2.482935 -0.258806,-3.258806 -2.000001,-5 l -15,-15 c -1.461154,-1.384192 -2.251004,-2 -4.5,-2 z"
     sodipodi:nodetypes="ssssssccccs" />
  <path
     id="rect2140"
     style="fill:url(#linearGradient3725);fill-opacity:1;stroke-width:3.99999;stroke-linecap:round;stroke-linejoin:round"
     d="m 39.5,5.5 12.999999,13 c 0.431425,0.447189 1.497373,0.107777 1.5,-1 V 8 C 53.999999,5.784 52.216001,4 50,4 H 40.499999 C 39.467689,4.0059 39.082468,5.058252 39.5,5.5 Z"
     sodipodi:nodetypes="cccsscc" />
  <path
     id="rect1255"
     style="fill:#fafafa;fill-opacity:1;stroke-width:3.99999;stroke-linecap:round;stroke-linejoin:round"
     d="m 15,7.000467 h 16.999998 c 1.512265,-0.01788 2.506216,0.477588 3.500002,1.5 l 13.999999,14 c 0.897271,1.028352 1.5,1.758806 1.5,3.5 v 29 c 0,1.107998 -0.891999,1.999997 -2.000002,1.999997 H 15 c -1.108001,0 -2,-0.891999 -2,-1.999997 v -46 c 0,-1.108 0.891999,-2 2,-2 z"
     sodipodi:nodetypes="sccccssssss" />
  <path
     id="rect853"
     style="fill:#526587;fill-opacity:1;stroke-width:3.99999;stroke-linecap:round;stroke-linejoin:round"
     d="m 27.457031,27 c -0.01183,3.11e-4 -0.0234,0.0014 -0.03516,0.002 -0.01308,6.54e-4 -0.02608,9.62e-4 -0.03906,0.002 -0.01243,9.47e-4 -0.02475,0.0027 -0.03711,0.0039 -0.02491,0.0025 -0.04964,0.006 -0.07422,0.0098 -0.0026,4.03e-4 -0.0052,0.0015 -0.0078,0.002 -0.0091,0.0014 -0.01827,0.0023 -0.02734,0.0039 -0.01304,0.0023 -0.02615,0.0052 -0.03906,0.0078 -0.02426,0.005 -0.0484,0.0095 -0.07227,0.01563 -0.0164,0.0042 -0.03262,0.0089 -0.04883,0.01367 -0.0076,0.0022 -0.01584,0.0035 -0.02344,0.0059 -0.0097,0.003 -0.01966,0.0066 -0.0293,0.0098 -0.02324,0.0077 -0.04565,0.01658 -0.06836,0.02539 -0.01652,0.0064 -0.03258,0.01254 -0.04883,0.01953 -0.01534,0.0066 -0.02982,0.01442 -0.04492,0.02148 -0.0043,0.002 -0.0093,0.0038 -0.01367,0.0059 -0.0079,0.0038 -0.01561,0.0078 -0.02344,0.01172 -0.02052,0.01032 -0.04059,0.02003 -0.06055,0.03125 -0.0059,0.0033 -0.01172,0.0064 -0.01758,0.0098 -0.01391,0.0081 -0.0274,0.01689 -0.04102,0.02539 -0.004,0.0025 -0.0078,0.0053 -0.01172,0.0078 -0.01115,0.0071 -0.02228,0.01411 -0.0332,0.02148 -0.0072,0.0049 -0.01438,0.01064 -0.02148,0.01563 -0.01463,0.01024 -0.02876,0.02048 -0.04297,0.03125 -0.01262,0.0095 -0.02479,0.01936 -0.03711,0.0293 -0.0043,0.0035 -0.0094,0.0063 -0.01367,0.0098 -0.0068,0.0056 -0.01288,0.01191 -0.01953,0.01758 -0.0158,0.01349 -0.03167,0.02691 -0.04687,0.04102 -0.0048,0.0044 -0.009,0.0092 -0.01367,0.01367 -0.0087,0.0083 -0.01888,0.01497 -0.02734,0.02344 -0.0062,0.0062 -0.01149,0.01318 -0.01758,0.01953 -0.01281,0.01327 -0.02479,0.02729 -0.03711,0.04102 -0.01191,0.0133 -0.0237,0.02729 -0.03516,0.04102 -0.0033,0.0039 -0.0066,0.0078 -0.0098,0.01172 -0.0067,0.0082 -0.01299,0.01704 -0.01953,0.02539 -0.0068,0.0087 -0.01491,0.01655 -0.02148,0.02539 -0.0056,0.0075 -0.01015,0.0158 -0.01563,0.02344 -0.01175,0.01637 -0.02404,0.03197 -0.03516,0.04883 -0.0075,0.01145 -0.01427,0.02348 -0.02148,0.03516 -0.004,0.0065 -0.0078,0.01299 -0.01172,0.01953 -0.0058,0.0098 -0.01198,0.01939 -0.01758,0.0293 -0.0088,0.01553 -0.01711,0.03099 -0.02539,0.04688 -0.0036,0.0069 -0.0063,0.01453 -0.0098,0.02148 -0.0037,0.0074 -0.0081,0.01404 -0.01172,0.02148 -0.0048,0.01009 -0.009,0.02101 -0.01367,0.03125 -0.01013,0.02238 -0.02023,0.04541 -0.0293,0.06836 -0.01837,0.0465 -0.03511,0.0939 -0.04883,0.142578 -0.0043,0.01538 -0.0079,0.0313 -0.01172,0.04687 -0.005,0.01999 -0.0095,0.04018 -0.01367,0.06055 -0.0029,0.01425 -0.0052,0.02853 -0.0078,0.04297 -0.0023,0.01304 -0.0059,0.02589 -0.0078,0.03906 L 23.388628,43.172216 19.939409,37.197607 C 19.523908,36.47794 18.610247,36.233279 17.890581,36.648779 17.170913,37.064278 16.924299,37.97794 17.3398,38.697607 l 5.5,9.52539 c 0.4155,0.719667 1.331113,0.966281 2.050781,0.550782 0.422927,-0.244178 0.680965,-0.661529 0.738281,-1.109376 0.01949,-0.06209 0.03721,-0.125524 0.04883,-0.191406 L 28.757812,30 H 44.5 C 45.331001,30 46,29.331 46,28.5 46,27.669 45.331001,27 44.5,27 H 27.53125 c -0.01058,-2.51e-4 -0.02067,2.8e-5 -0.03125,0 -0.01451,-3.8e-5 -0.02854,-3.8e-4 -0.04297,0 z" />
  <g
     id="g2235"
     transform="matrix(2.6725295,-2.6725295,2.6725295,2.6725295,-16.508992,37.788839)">
    <rect
       style="fill:#3d4c65;fill-opacity:1;stroke-width:1.05833;stroke-linecap:round;stroke-linejoin:round"
       id="rect1831"
       width="0.79374999"
       height="3.7041667"
       x="9.036479"
       y="8.6067457"
       ry="0.39687502" />
    <rect
       style="fill:#455572;fill-opacity:1;stroke-width:1.05833;stroke-linecap:round;stroke-linejoin:round"
       id="rect2043"
       width="0.79374981"
       height="3.7041664"
       x="10.061954"
       y="-11.285437"
       ry="0.3968749"
       transform="rotate(90)" />
  </g>
</svg>
