<?xml version="1.0" encoding="UTF-8" standalone="no"?>
<!-- Created with Inkscape (http://www.inkscape.org/) -->

<svg
   width="64"
   height="64"
   viewBox="0 0 64 64"
   version="1.1"
   id="svg1"
   inkscape:version="1.3.2 (091e20ef0f, 2023-11-25, custom)"
   sodipodi:docname="lunarclient.svg"
   xmlns:inkscape="http://www.inkscape.org/namespaces/inkscape"
   xmlns:sodipodi="http://sodipodi.sourceforge.net/DTD/sodipodi-0.dtd"
   xmlns:xlink="http://www.w3.org/1999/xlink"
   xmlns="http://www.w3.org/2000/svg"
   xmlns:svg="http://www.w3.org/2000/svg">
  <sodipodi:namedview
     id="namedview1"
     pagecolor="#ffffff"
     bordercolor="#000000"
     borderopacity="0.25"
     inkscape:showpageshadow="2"
     inkscape:pageopacity="0.0"
     inkscape:pagecheckerboard="0"
     inkscape:deskcolor="#d1d1d1"
     inkscape:document-units="px"
     inkscape:zoom="12.53125"
     inkscape:cx="32"
     inkscape:cy="32"
     inkscape:window-width="1920"
     inkscape:window-height="1012"
     inkscape:window-x="0"
     inkscape:window-y="0"
     inkscape:window-maximized="1"
     inkscape:current-layer="svg1" />
  <defs
     id="defs1">
    <linearGradient
       inkscape:collect="always"
       id="linearGradient1066">
      <stop
         style="stop-color:#555556;stop-opacity:1;"
         offset="0"
         id="stop1062" />
      <stop
         style="stop-color:#2d2d2d;stop-opacity:1;"
         offset="1"
         id="stop1064" />
    </linearGradient>
    <linearGradient
       inkscape:collect="always"
       xlink:href="#linearGradient1066"
       id="linearGradient3"
       x1="4"
       y1="2"
       x2="30"
       y2="30"
       gradientUnits="userSpaceOnUse"
       gradientTransform="matrix(2.0000009,0,0,2.0000009,-1.0000037,-1.9e-6)" />
  </defs>
  <path
     d="M 32.14921,4 V 4.00274 C 30.985945,3.9740578 29.837247,4.2673103 28.828894,4.8503878 L 10.171117,15.667538 c -1.9625449,1.137446 -3.1714391,3.239959 -3.1711169,5.515216 v 21.6343 c 6.512e-4,2.274279 1.209415,4.375522 3.1711169,5.512481 l 18.657777,10.817149 c 1.962239,1.137755 4.379996,1.137755 6.342235,0 L 53.828908,48.329535 c 1.961701,-1.136959 3.170466,-3.238202 3.171116,-5.512481 v -21.6343 c 3.22e-4,-2.275257 -1.208571,-4.377769 -3.171116,-5.515216 L 35.171129,4.8503878 C 34.250699,4.3171694 33.211568,4.0247514 32.14921,4 Z"
     style="fill:url(#linearGradient3);stroke-width:2"
     id="path1" />
  <path
     d="m 32.207044,11.000003 c -0.25382,-0.0012 -0.503808,0.06191 -0.726564,0.183594 0,0 -4.44031,2.432005 -8.890629,5.046879 -2.225159,1.307434 -4.451326,2.660259 -6.156253,3.796876 -0.852463,0.568308 -1.572303,1.076036 -2.128907,1.535156 -0.278302,0.22956 -0.514178,0.444015 -0.734375,0.695313 -0.220197,0.2513 -0.570313,0.466076 -0.570313,1.34375 v 16.398446 h 3.000001 V 24.078134 c 0.06865,-0.06496 0.100118,-0.104581 0.214844,-0.199221 0.411359,-0.339312 1.075913,-0.817536 1.882813,-1.355468 1.613803,-1.075869 3.81191,-2.414491 6.011723,-3.707034 4.03502,-2.370857 7.439342,-4.232601 8.082034,-4.585939 0.637748,0.358744 3.949814,2.215364 7.886722,4.582033 2.149773,1.292333 4.29875,2.628005 5.875002,3.703126 0.788129,0.53756 1.435131,1.013312 1.835939,1.351564 0.11146,0.09406 0.14428,0.13082 0.210938,0.19532 v 15.937502 h 3.000002 V 23.601571 c 0,-0.859824 -0.338884,-1.080056 -0.554688,-1.33203 -0.215805,-0.251978 -0.450013,-0.465225 -0.722657,-0.695315 -0.545288,-0.460178 -1.248276,-0.97038 -2.082033,-1.539062 -1.667507,-1.137363 -3.84429,-2.48923 -6.019533,-3.796876 -4.350488,-2.615294 -8.687504,-5.046878 -8.687504,-5.046878 -0.22203,-0.124401 -0.47206,-0.190269 -0.726562,-0.191407 z m -0.207032,5.000003 -0.355468,0.644532 -0.644533,0.355468 0.644533,0.355468 0.355468,0.644533 0.355468,-0.644533 0.644532,-0.355468 -0.644532,-0.355468 z m -4.093752,2.906251 c -4.776934,1.917505 -7.907168,6.547897 -7.906254,11.695318 0.0043,4.884294 2.831054,9.326082 7.25391,11.398443 H 11.000002 v 0.664062 h 4.000002 v 0.660157 H 47.000019 V 42.66408 h 4.000002 v -0.664062 h -13.08985 c 2.901687,-1.344627 5.183492,-3.742338 6.382815,-6.707035 -1.491687,0.598544 -3.084118,0.906156 -4.691409,0.90625 -6.958495,8.86e-4 -12.600298,-5.639166 -12.601568,-12.597662 -4.06e-4,-1.608604 0.307217,-3.202407 0.906251,-4.695314 z m 14.093757,3.093752 -0.355469,0.644532 -0.644532,0.355468 0.644532,0.355468 0.355469,0.644532 0.355468,-0.644532 0.644532,-0.355468 -0.644532,-0.355468 z m -11.812506,1.359376 -0.527344,0.968749 -0.972657,0.531252 0.972657,0.531248 0.527344,0.968753 0.53125,-0.968753 0.968751,-0.531248 -0.968751,-0.531252 z m -12.187506,0.640624 -0.355468,0.644533 -0.644532,0.355468 0.644532,0.355468 0.355468,0.644532 0.355468,-0.644532 0.644533,-0.355468 -0.644533,-0.355468 z m 18.000009,2.000001 -0.355468,0.644533 -0.644533,0.355468 0.644533,0.355468 0.355468,0.644532 0.355468,-0.644532 0.644532,-0.355468 -0.644532,-0.355468 z m 8.000004,1.199219 -0.707033,1.292971 -1.292968,0.70703 1.292968,0.707032 0.707033,1.292969 0.707032,-1.292969 1.292968,-0.707032 -1.292968,-0.70703 z m -6.199221,2.300783 -0.531251,0.968751 -0.96875,0.53125 0.96875,0.53125 0.531251,0.96875 0.53125,-0.96875 0.96875,-0.53125 -0.96875,-0.53125 z m -18.800791,5.500003 -0.707033,1.292968 -1.292968,0.707033 1.292968,0.707032 0.707033,1.292969 0.707032,-1.292969 1.292969,-0.707032 -1.292969,-0.707033 z m -8.000004,8.339848 v 0.667968 h 6.000003 v 0.652344 h -4.000002 v 0.664063 H 49.00002 v -0.664063 h -4.000002 v -0.652344 h 6.000003 v -0.667968 z m 10.000005,2.000001 v 0.660156 h -4.000002 v 0.664062 h 9.000004 v 0.660157 h 10.000005 v -0.660157 h 9.000004 V 46.00002 h -4.000002 v -0.660156 z m 3.000001,2.000001 v 0.667968 h 14.000007 v -0.667968 z"
     style="fill:#ffffff;stroke-width:2"
     id="path2" />
</svg>
