<?xml version="1.0" encoding="UTF-8" standalone="no"?>
<!-- Created with Inkscape (http://www.inkscape.org/) -->

<svg
   width="64"
   height="64"
   viewBox="0 0 64 64"
   version="1.1"
   id="svg5"
   inkscape:version="1.2.1 (9c6d41e410, 2022-07-14, custom)"
   sodipodi:docname="ms-office.svg"
   xmlns:inkscape="http://www.inkscape.org/namespaces/inkscape"
   xmlns:sodipodi="http://sodipodi.sourceforge.net/DTD/sodipodi-0.dtd"
   xmlns:xlink="http://www.w3.org/1999/xlink"
   xmlns="http://www.w3.org/2000/svg"
   xmlns:svg="http://www.w3.org/2000/svg">
  <sodipodi:namedview
     id="namedview7"
     pagecolor="#ffffff"
     bordercolor="#000000"
     borderopacity="0.25"
     inkscape:showpageshadow="2"
     inkscape:pageopacity="0.0"
     inkscape:pagecheckerboard="0"
     inkscape:deskcolor="#d1d1d1"
     inkscape:document-units="px"
     showgrid="false"
     inkscape:zoom="12.53125"
     inkscape:cx="31.9601"
     inkscape:cy="32"
     inkscape:window-width="1920"
     inkscape:window-height="1011"
     inkscape:window-x="0"
     inkscape:window-y="0"
     inkscape:window-maximized="1"
     inkscape:current-layer="svg5" />
  <defs
     id="defs2">
    <linearGradient
       inkscape:collect="always"
       xlink:href="#linearGradient1260"
       id="linearGradient2046"
       gradientUnits="userSpaceOnUse"
       x1="45.200001"
       y1="-1.42"
       x2="45.200001"
       y2="57.799999"
       gradientTransform="matrix(0.91666648,0,0,0.91666648,2.6666778,2.386711)" />
    <linearGradient
       inkscape:collect="always"
       id="linearGradient1260">
      <stop
         style="stop-color:#ffb900;stop-opacity:1;"
         offset="0"
         id="stop1256" />
      <stop
         style="stop-color:#ef8400;stop-opacity:1;"
         offset="0.17"
         id="stop1264" />
      <stop
         style="stop-color:#e25c01;stop-opacity:1;"
         offset="0.30000001"
         id="stop1266" />
      <stop
         style="stop-color:#d93f01;stop-opacity:1;"
         offset="0.465"
         id="stop1268" />
      <stop
         style="stop-color:#d83b01;stop-opacity:1;"
         offset="0.5"
         id="stop1258" />
    </linearGradient>
    <linearGradient
       inkscape:collect="always"
       xlink:href="#linearGradient1336"
       id="linearGradient2106"
       gradientUnits="userSpaceOnUse"
       x1="35.16"
       y1="-0.23999999"
       x2="28.52"
       y2="9.2399998"
       gradientTransform="matrix(0.91666648,0,0,0.91666648,2.6666778,2.386711)" />
    <linearGradient
       inkscape:collect="always"
       id="linearGradient1336">
      <stop
         style="stop-color:#000000;stop-opacity:0.40000001;"
         offset="0"
         id="stop1332" />
      <stop
         style="stop-color:#000000;stop-opacity:0;"
         offset="1"
         id="stop1334" />
    </linearGradient>
    <linearGradient
       inkscape:collect="always"
       xlink:href="#linearGradient1336"
       id="linearGradient2136"
       gradientUnits="userSpaceOnUse"
       x1="46.32"
       y1="56.549999"
       x2="27.99"
       y2="54.950001"
       gradientTransform="matrix(0.91666648,0,0,0.91666648,2.6666778,2.386711)" />
    <linearGradient
       inkscape:collect="always"
       xlink:href="#linearGradient1876"
       id="linearGradient2016"
       gradientUnits="userSpaceOnUse"
       x1="34.52"
       y1="0.67000002"
       x2="3.1600001"
       y2="45.450001"
       gradientTransform="matrix(0.91666648,0,0,0.91666648,2.6666778,2.386711)" />
    <linearGradient
       inkscape:collect="always"
       id="linearGradient1876">
      <stop
         style="stop-color:#800600;stop-opacity:1;"
         offset="0"
         id="stop1872" />
      <stop
         style="stop-color:#c72727;stop-opacity:1;"
         offset="0.73000002"
         id="stop1880" />
      <stop
         style="stop-color:#c13959;stop-opacity:1;"
         offset="0.82000005"
         id="stop1886" />
      <stop
         style="stop-color:#bc4b81;stop-opacity:1;"
         offset="0.91000003"
         id="stop1884" />
      <stop
         style="stop-color:#b95799;stop-opacity:1;"
         offset="0.97000003"
         id="stop1882" />
      <stop
         style="stop-color:#b85ba2;stop-opacity:1;"
         offset="1"
         id="stop1874" />
    </linearGradient>
    <linearGradient
       inkscape:collect="always"
       xlink:href="#linearGradient1606"
       id="linearGradient2076"
       gradientUnits="userSpaceOnUse"
       x1="18.5"
       y1="55.630001"
       x2="59.439999"
       y2="55.630001"
       gradientTransform="matrix(0.91666648,0,0,0.91666648,2.6666778,2.386711)" />
    <linearGradient
       inkscape:collect="always"
       id="linearGradient1606">
      <stop
         style="stop-color:#f32b44;stop-opacity:1;"
         offset="0"
         id="stop1602" />
      <stop
         style="stop-color:#a4070a;stop-opacity:1;"
         offset="0.60000002"
         id="stop1604" />
    </linearGradient>
  </defs>
  <path
     d="m 34.20917,4.2200438 4.207498,9.6249972 v 34.15496 l -4.143332,11.22003 15.665829,-4.464166 c 2.40048,-0.68969 4.055922,-2.883244 4.060834,-5.380832 V 14.065042 c 0.0011,-2.504585 -1.660784,-4.7054411 -4.07,-5.3899971 z"
     style="fill:url(#linearGradient2046);fill-opacity:1;stroke-width:0.916666"
     id="path2027"
     sodipodi:nodetypes="ccccccccc" />
  <path
     d="m 38.416668,48.000001 h -17.48083 c -2.994878,0.03208 -4.04346,3.292358 -1.457498,4.803366 l 10.41333,5.90333 c 0.857706,0.48757 1.827564,0.74346 2.814168,0.7425 v 0 c 0.530822,-3.46e-4 1.058794,-0.07754 1.567498,-0.229166 2.457244,-0.698168 4.150242,-2.945502 4.143332,-5.499998 z"
     style="fill:url(#linearGradient2076);fill-opacity:1;stroke-width:0.916666"
     id="path2057"
     sodipodi:nodetypes="ccccssccc" />
  <path
     d="m 38.416668,48.000001 h -17.48083 c -2.994878,0.03208 -4.04346,3.292358 -1.457498,4.803366 l 10.41333,5.90333 c 0.857706,0.48757 1.827564,0.74346 2.814168,0.7425 v 0 c 0.530822,-3.46e-4 1.058794,-0.07754 1.567498,-0.229166 2.457244,-0.698168 4.15024,-2.945502 4.143332,-5.499998 z"
     style="fill:url(#linearGradient2136);fill-opacity:1;stroke-width:0.916666"
     id="path2117"
     sodipodi:nodetypes="ccccssccc" />
  <path
     d="m 14.345008,46.945867 4.583334,-2.474998 c 1.280334,-0.703672 2.0747,-2.049872 2.071664,-3.510832 V 22.94754 c 0.0017,-1.680614 1.052326,-3.181462 2.630832,-3.758334 l 14.78583,-5.344165 V 9.7842091 c -0.0034,-2.5858853 -1.720374,-4.8563219 -4.207498,-5.5641653 -0.51553,-0.148038 -1.049472,-0.2221102 -1.585834,-0.22 v 0 c -1.00885,0.0023 -2.000112,0.264329 -2.878332,0.7608332 l -16.92166,9.652499 c -1.74556,0.994646 -2.823347,2.849278 -2.823334,4.858332 v 25.079993 c -0.00574,2.233526 2.381502,3.658754 4.344998,2.594166 z"
     style="fill:url(#linearGradient2016);fill-opacity:1;stroke-width:0.916666"
     id="path1997" />
  <path
     d="m 14.345008,46.945867 4.583334,-2.474998 c 1.280334,-0.703672 2.0747,-2.049872 2.071664,-3.510832 V 22.94754 c 0.0017,-1.680614 1.052326,-3.181462 2.630832,-3.758334 l 14.78583,-5.344165 V 9.7842091 c -0.0034,-2.5858853 -1.720374,-4.8563215 -4.207498,-5.5641653 -0.51553,-0.148038 -1.049472,-0.2221102 -1.585834,-0.22 v 0 c -1.00885,0.0023 -2.000112,0.2643294 -2.878332,0.7608332 l -16.92166,9.652499 c -1.74556,0.994646 -2.823347,2.849278 -2.823334,4.858332 v 25.079993 c -0.00554,2.233526 2.381502,3.658754 4.344998,2.594166 z"
     style="fill:url(#linearGradient2106);fill-opacity:1;stroke-width:0.916666"
     id="path2087" />
</svg>
