<?xml version="1.0" encoding="UTF-8" standalone="no"?>
<!-- Created with Inkscape (http://www.inkscape.org/) -->

<svg
   width="64"
   height="64"
   viewBox="0 0 64 64"
   version="1.1"
   id="svg2112"
   inkscape:version="1.3.2 (091e20ef0f, 2023-11-25, custom)"
   sodipodi:docname="obs.svg"
   xmlns:inkscape="http://www.inkscape.org/namespaces/inkscape"
   xmlns:sodipodi="http://sodipodi.sourceforge.net/DTD/sodipodi-0.dtd"
   xmlns:xlink="http://www.w3.org/1999/xlink"
   xmlns="http://www.w3.org/2000/svg"
   xmlns:svg="http://www.w3.org/2000/svg">
  <sodipodi:namedview
     id="namedview2114"
     pagecolor="#ffffff"
     bordercolor="#000000"
     borderopacity="0.25"
     inkscape:showpageshadow="2"
     inkscape:pageopacity="0.0"
     inkscape:pagecheckerboard="0"
     inkscape:deskcolor="#d1d1d1"
     inkscape:document-units="px"
     showgrid="false"
     inkscape:zoom="12.5625"
     inkscape:cx="32"
     inkscape:cy="32"
     inkscape:window-width="1920"
     inkscape:window-height="1008"
     inkscape:window-x="0"
     inkscape:window-y="0"
     inkscape:window-maximized="1"
     inkscape:current-layer="svg2112"
     showguides="false" />
  <defs
     id="defs2109">
    <linearGradient
       inkscape:collect="always"
       xlink:href="#linearGradient3143"
       id="linearGradient1132"
       x1="13.758333"
       y1="13.229166"
       x2="1.5944523"
       y2="4.4946895"
       gradientUnits="userSpaceOnUse"
       gradientTransform="matrix(3.5275591,0,0,3.5275591,2.1333379,2.1333371)" />
    <linearGradient
       inkscape:collect="always"
       id="linearGradient3143">
      <stop
         style="stop-color:#d2d2d2;stop-opacity:1;"
         offset="0"
         id="stop3139" />
      <stop
         style="stop-color:#ffffff;stop-opacity:1"
         offset="1"
         id="stop3141" />
    </linearGradient>
    <linearGradient
       inkscape:collect="always"
       xlink:href="#linearGradient1788"
       id="linearGradient1010"
       x1="11.90625"
       y1="12.700001"
       x2="4.4979177"
       y2="4.7625003"
       gradientUnits="userSpaceOnUse"
       gradientTransform="matrix(3.6283463,0,0,3.6283463,1.28,1.2799988)" />
    <linearGradient
       inkscape:collect="always"
       id="linearGradient1788">
      <stop
         style="stop-color:#232223;stop-opacity:1;"
         offset="0"
         id="stop1784" />
      <stop
         style="stop-color:#49484d;stop-opacity:1"
         offset="1"
         id="stop1786" />
    </linearGradient>
    <linearGradient
       inkscape:collect="always"
       xlink:href="#linearGradient3143"
       id="linearGradient2"
       x1="14.708587"
       y1="18.088469"
       x2="7.6332278"
       y2="3.7261395"
       gradientUnits="userSpaceOnUse"
       gradientTransform="matrix(2.9999999,0,0,2.9999999,-1,-1)" />
  </defs>
  <circle
     style="fill:url(#linearGradient1132);stroke-width:1.86667;stroke-linecap:round;stroke-linejoin:round;stroke-dasharray:22.4, 1.86667"
     id="path846"
     cx="32"
     cy="32"
     r="28" />
  <circle
     style="fill:url(#linearGradient1010);fill-opacity:1;stroke-width:1.92;stroke-linecap:round;stroke-linejoin:round"
     id="path922"
     cx="32"
     cy="32"
     r="24" />
  <path
     d="m 26.222,49.658 c 2.56778,-0.787725 5.648669,-2.950291 7.0929,-4.97826 l 0.476684,-0.669437 -0.596672,-1.805328 c -2.17952,-6.59448 1.777788,-13.244042 8.56278,-14.388571 4.931551,-0.831816 10.10556,2.184732 11.889451,6.931709 0.424681,1.130031 0.437641,1.141911 0.299489,0.274322 -0.408645,-2.566216 -1.679104,-4.932091 -3.744629,-6.973831 -2.155384,-2.130353 -4.65858,-3.33828 -7.78572,-3.757049 -0.959824,-0.128534 -1.0594,-0.09216 -1.420418,0.519021 -0.556605,0.942247 -2.175768,2.518587 -3.3723,3.282931 -3.22272,2.059073 -8.19072,2.059936 -11.421269,0.0023 -3.649591,-2.324752 -5.71374,-6.776998 -5.043871,-10.878568 0.365715,-2.239002 1.351539,-4.225501 2.92302,-5.889781 1.138807,-1.206117 1.215891,-1.3390919 0.557767,-0.962226 -1.108055,0.6345 -3.7017,3.452761 -4.437989,4.822201 -0.848583,1.578338 -1.537651,4.371569 -1.533494,6.21648 0.0028,1.587221 0.419123,3.69468 1.029187,5.219368 0.355616,0.888732 0.40076,0.916757 1.718009,1.065769 0.744012,0.08416 1.919863,0.348167 2.612979,0.586631 6.128729,2.108593 9.020429,9.176761 6.15114,15.035492 -1.955691,3.9933 -6.48324,6.56478 -10.715219,6.08526 -1.722465,-0.19514 -1.539809,0.0382 0.369955,0.472553 1.69244,0.384967 4.778457,0.283171 6.388197,-0.210717 z"
     id="path6"
     style="fill:url(#linearGradient2);stroke-width:2.7" />
</svg>
