<?xml version="1.0" encoding="UTF-8" standalone="no"?>
<!-- Created with Inkscape (http://www.inkscape.org/) -->

<svg
   width="64"
   height="64"
   viewBox="0 0 64 64.000003"
   version="1.1"
   id="svg580"
   inkscape:version="1.2 (1:1.2.1+202207142221+cd75a1ee6d)"
   sodipodi:docname="org.xfce.terminal-settings.svg"
   xmlns:inkscape="http://www.inkscape.org/namespaces/inkscape"
   xmlns:sodipodi="http://sodipodi.sourceforge.net/DTD/sodipodi-0.dtd"
   xmlns:xlink="http://www.w3.org/1999/xlink"
   xmlns="http://www.w3.org/2000/svg"
   xmlns:svg="http://www.w3.org/2000/svg">
  <sodipodi:namedview
     id="namedview582"
     pagecolor="#ffffff"
     bordercolor="#000000"
     borderopacity="0.25"
     inkscape:showpageshadow="2"
     inkscape:pageopacity="0.0"
     inkscape:pagecheckerboard="0"
     inkscape:deskcolor="#d1d1d1"
     inkscape:document-units="px"
     showgrid="false"
     inkscape:zoom="12.65625"
     inkscape:cx="31.960494"
     inkscape:cy="32"
     inkscape:window-width="1920"
     inkscape:window-height="1012"
     inkscape:window-x="0"
     inkscape:window-y="0"
     inkscape:window-maximized="1"
     inkscape:current-layer="svg580" />
  <defs
     id="defs577">
    <linearGradient
       inkscape:collect="always"
       xlink:href="#linearGradient962"
       id="linearGradient1795"
       x1="0.5291667"
       y1="8.4666672"
       x2="15.345833"
       y2="8.4666672"
       gradientUnits="userSpaceOnUse"
       gradientTransform="matrix(3.7795275,0,0,3.7795275,2,3.9999993)" />
    <linearGradient
       inkscape:collect="always"
       id="linearGradient962">
      <stop
         style="stop-color:#4f4f4f;stop-opacity:1;"
         offset="0"
         id="stop958" />
      <stop
         style="stop-color:#303030;stop-opacity:1"
         offset="1"
         id="stop960" />
    </linearGradient>
    <linearGradient
       inkscape:collect="always"
       xlink:href="#linearGradient3366"
       id="linearGradient3368"
       x1="0.5291667"
       y1="3.175"
       x2="5.8208337"
       y2="3.175"
       gradientUnits="userSpaceOnUse"
       gradientTransform="matrix(3.7795275,0,0,3.7795275,2,1.9999994)" />
    <linearGradient
       inkscape:collect="always"
       id="linearGradient3366">
      <stop
         style="stop-color:#cccccc;stop-opacity:1;"
         offset="0"
         id="stop3362" />
      <stop
         style="stop-color:#cfcfcf;stop-opacity:1"
         offset="1"
         id="stop3364" />
    </linearGradient>
    <linearGradient
       inkscape:collect="always"
       xlink:href="#linearGradient3102"
       id="linearGradient3104"
       x1="5.8208332"
       y1="3.1750002"
       x2="11.1125"
       y2="3.1750002"
       gradientUnits="userSpaceOnUse"
       gradientTransform="matrix(3.5905513,0,0,3.7795275,2.0999956,2.0000003)" />
    <linearGradient
       inkscape:collect="always"
       id="linearGradient3102">
      <stop
         style="stop-color:#979797;stop-opacity:1;"
         offset="0"
         id="stop3098" />
      <stop
         style="stop-color:#999999;stop-opacity:1"
         offset="1"
         id="stop3100" />
    </linearGradient>
    <linearGradient
       inkscape:collect="always"
       xlink:href="#linearGradient3000"
       id="linearGradient3002"
       x1="11.641666"
       y1="3.1750002"
       x2="16.404167"
       y2="3.175"
       gradientUnits="userSpaceOnUse"
       gradientTransform="matrix(3.7795275,0,0,3.7795275,-1.9999998,1.9999994)" />
    <linearGradient
       inkscape:collect="always"
       id="linearGradient3000">
      <stop
         style="stop-color:#616161;stop-opacity:1;"
         offset="0"
         id="stop2996" />
      <stop
         style="stop-color:#636363;stop-opacity:1"
         offset="1"
         id="stop2998" />
    </linearGradient>
    <linearGradient
       inkscape:collect="always"
       xlink:href="#linearGradient3366"
       id="linearGradient3795"
       x1="7.8253856"
       y1="10.813717"
       x2="12.587885"
       y2="11.872049"
       gradientUnits="userSpaceOnUse"
       gradientTransform="matrix(3.7795275,0,0,3.7795275,4.4237393,2.1292598)" />
    <linearGradient
       inkscape:collect="always"
       xlink:href="#linearGradient3102"
       id="linearGradient4653"
       x1="1.8182354"
       y1="13.25029"
       x2="6.5807357"
       y2="14.308622"
       gradientUnits="userSpaceOnUse"
       gradientTransform="matrix(-0.06194412,1.0619441,-1.0619441,0.06194412,21.165655,2.7018148)" />
    <linearGradient
       inkscape:collect="always"
       xlink:href="#linearGradient3366"
       id="linearGradient4373"
       x1="2.1166668"
       y1="8.5166645"
       x2="6.8791666"
       y2="9.5749969"
       gradientUnits="userSpaceOnUse"
       gradientTransform="matrix(1.0619441,-0.06194412,-0.06194412,1.0619441,0.46880949,-2.9000569)" />
    <linearGradient
       inkscape:collect="always"
       xlink:href="#linearGradient6060"
       id="linearGradient6062"
       x1="1.0583334"
       y1="1.0583338"
       x2="15.345835"
       y2="13.229167"
       gradientUnits="userSpaceOnUse"
       gradientTransform="matrix(1.4173213,0,0,1.4173213,38,37.01283)" />
    <linearGradient
       inkscape:collect="always"
       id="linearGradient6060">
      <stop
         style="stop-color:#8a8f97;stop-opacity:1;"
         offset="0"
         id="stop6056" />
      <stop
         style="stop-color:#8a8f97;stop-opacity:1"
         offset="0.14573747"
         id="stop6576" />
      <stop
         style="stop-color:#616e7a;stop-opacity:1"
         offset="0.89999998"
         id="stop6770" />
      <stop
         style="stop-color:#616e7a;stop-opacity:1"
         offset="1"
         id="stop6058" />
    </linearGradient>
    <linearGradient
       inkscape:collect="always"
       xlink:href="#linearGradient8250"
       id="linearGradient8252"
       x1="5.458415"
       y1="4.8895097"
       x2="12.337581"
       y2="11.768677"
       gradientUnits="userSpaceOnUse"
       gradientTransform="matrix(1.2598425,0,0,1.2598425,38.456598,38.173324)" />
    <linearGradient
       inkscape:collect="always"
       id="linearGradient8250">
      <stop
         style="stop-color:#0568ba;stop-opacity:1;"
         offset="0"
         id="stop8246" />
      <stop
         style="stop-color:#0568ba;stop-opacity:1"
         offset="0.23999999"
         id="stop9054" />
      <stop
         style="stop-color:#0f4c8a;stop-opacity:1"
         offset="0.80000001"
         id="stop8830" />
      <stop
         style="stop-color:#0f4c8f;stop-opacity:1"
         offset="1"
         id="stop8248" />
    </linearGradient>
    <linearGradient
       inkscape:collect="always"
       xlink:href="#linearGradient7024"
       id="linearGradient7026"
       x1="14.634075"
       y1="13.653037"
       x2="4.0507412"
       y2="3.0697033"
       gradientUnits="userSpaceOnUse"
       gradientTransform="matrix(1.2598425,0,0,1.2598425,38.230046,38.466003)" />
    <linearGradient
       inkscape:collect="always"
       id="linearGradient7024">
      <stop
         style="stop-color:#ffffff;stop-opacity:1;"
         offset="0"
         id="stop7020" />
      <stop
         style="stop-color:#f0f0f0;stop-opacity:1"
         offset="0.25"
         id="stop7732" />
      <stop
         style="stop-color:#cccccc;stop-opacity:1"
         offset="1"
         id="stop7022" />
    </linearGradient>
  </defs>
  <rect
     style="fill:url(#linearGradient1795);fill-opacity:1;stroke-width:0.999999"
     id="rect1685"
     width="56"
     height="42"
     x="4"
     y="11.999999"
     ry="4" />
  <path
     id="rect1899"
     style="fill:url(#linearGradient3368);fill-opacity:1;stroke-width:0.999999"
     d="M 8.0000004,10 H 56 c 2.216001,0 4.000003,1.784 4.000003,4 v 3.999999 H 4.0000002 V 14 c 0,-2.216 1.7840001,-4 4.0000002,-4 z"
     sodipodi:nodetypes="sssccss" />
  <rect
     style="fill:url(#linearGradient3104);fill-opacity:1;stroke-width:0.97468"
     id="rect2168"
     width="19"
     height="8"
     x="22.999996"
     y="10" />
  <path
     id="rect2398"
     style="fill:url(#linearGradient3002);fill-opacity:1;stroke-width:1.22474"
     d="M 41.999995,10 H 56 c 2.215998,0 3.999999,1.784 3.999999,4 v 3.999999 h -18 z"
     sodipodi:nodetypes="cssccc" />
  <path
     id="rect3748"
     style="fill:url(#linearGradient3795);fill-opacity:1;stroke-width:0.999999"
     d="m 34.999998,41.999999 h 16.000001 c 0.553999,0 0.999999,0.445999 0.999999,1.000003 V 47 c 0,0.554 -0.446,0.999999 -0.999999,0.999999 H 34.999998 C 34.445999,47.999999 33.999999,47.554 33.999999,47 v -3.999998 c 0,-0.554004 0.446,-1.000003 0.999999,-1.000003 z" />
  <g
     id="g4959"
     transform="matrix(2.5040234,2.6725295,-2.5040234,2.6725295,23.863211,0.37349251)">
    <path
       id="rect4127"
       style="fill:url(#linearGradient4653);stroke-width:0.280494"
       d="M 7.2465427,5.7180405 6.9843126,10.213604 c -0.00908,0.155659 -0.1417032,0.288282 -0.297362,0.297362 l -1.1238905,0.06556 C 5.4074013,10.585603 5.2893971,10.467599 5.2984768,10.31194 L 5.5607069,5.8163767 C 5.5697866,5.6607178 5.7024101,5.5280943 5.8580689,5.5190146 L 6.9819595,5.453457 c 0.1556588,-0.00908 0.273663,0.1089245 0.2645832,0.2645835 z" />
    <path
       id="rect3899"
       style="fill:url(#linearGradient4373);stroke-width:0.280494"
       d="M 2.4863962,5.7156871 6.9819595,5.453457 c 0.1556588,-0.00908 0.273663,0.1089245 0.2645832,0.2645835 L 7.1809852,6.8419312 C 7.1719055,6.9975901 7.039282,7.1302136 6.8836232,7.1392933 L 2.3880599,7.4015234 C 2.2324011,7.4106031 2.1143969,7.2925989 2.1234766,7.13694 L 2.1890341,6.0130493 C 2.1981138,5.8573904 2.3307374,5.7247668 2.4863962,5.7156871 Z" />
  </g>
  <path
     id="path5884"
     style="fill:url(#linearGradient6062);fill-opacity:1;stroke-width:0.374999"
     d="m 46.270498,37.608288 c -1.575874,0.516653 -3.027551,1.354341 -4.263423,2.460203 0.674586,1.350271 0.627278,2.948814 -0.125977,4.256831 -0.756811,1.286906 -2.102604,2.114685 -3.592525,2.209713 -0.182009,0.813659 -0.278723,1.644071 -0.288574,2.477781 0.01124,0.834108 0.109429,1.664769 0.292966,2.478512 1.488184,0.09629 2.832003,0.923594 3.58813,2.208987 0.75058,1.30255 0.801141,2.89388 0.134763,4.24145 1.230552,1.099666 2.6747,1.933691 4.242183,2.449946 0.834134,-1.251241 2.23815,-2.003127 3.741939,-2.003902 1.504428,-1.21e-4 2.909402,0.751562 3.744134,2.003172 1.575525,-0.518453 3.026464,-1.357893 4.261232,-2.465332 -0.667143,-1.339694 -0.624588,-2.923401 0.113537,-4.225334 0.755953,-1.285672 2.099802,-2.113269 3.588129,-2.209716 0.183495,-0.813503 0.281688,-1.643918 0.292989,-2.477783 -0.0099,-0.83371 -0.106586,-1.664122 -0.288605,-2.477781 -1.489919,-0.09503 -2.83571,-0.922808 -3.59252,-2.209713 -0.741996,-1.307432 -0.782115,-2.89903 -0.106931,-4.242183 -1.240144,-1.113383 -2.698611,-1.956235 -4.282473,-2.474851 -0.825798,1.257343 -2.225244,2.018904 -3.729486,2.029539 -1.504243,-0.01063 -2.903689,-0.772194 -3.729488,-2.029539 z"
     sodipodi:nodetypes="ccccccccccccccccccccc" />
  <circle
     style="fill:url(#linearGradient7026);fill-opacity:1;stroke-width:0.333332"
     id="path6952"
     cx="50.000004"
     cy="49"
     r="6" />
  <circle
     style="fill:url(#linearGradient8252);fill-opacity:1;stroke-width:0.333333"
     id="path8010"
     cx="50.000004"
     cy="49"
     r="4" />
</svg>
