<?xml version="1.0" encoding="UTF-8" standalone="no"?>
<!-- Created with Inkscape (http://www.inkscape.org/) -->

<svg
   width="64"
   height="64"
   viewBox="0 0 64 64"
   version="1.1"
   id="svg993"
   inkscape:version="1.2.1 (9c6d41e410, 2022-07-14, custom)"
   sodipodi:docname="preferences-system-bluetooth.svg"
   xmlns:inkscape="http://www.inkscape.org/namespaces/inkscape"
   xmlns:sodipodi="http://sodipodi.sourceforge.net/DTD/sodipodi-0.dtd"
   xmlns="http://www.w3.org/2000/svg"
   xmlns:svg="http://www.w3.org/2000/svg">
  <sodipodi:namedview
     id="namedview995"
     pagecolor="#ffffff"
     bordercolor="#666666"
     borderopacity="1.0"
     inkscape:pageshadow="2"
     inkscape:pageopacity="0.0"
     inkscape:pagecheckerboard="0"
     inkscape:document-units="px"
     showgrid="false"
     units="px"
     inkscape:zoom="12.625"
     inkscape:cx="32"
     inkscape:cy="32"
     inkscape:window-width="1920"
     inkscape:window-height="1010"
     inkscape:window-x="0"
     inkscape:window-y="0"
     inkscape:window-maximized="1"
     inkscape:current-layer="svg993"
     inkscape:showpageshadow="2"
     inkscape:deskcolor="#d1d1d1" />
  <defs
     id="defs990" />
  <rect
     style="fill:#1e91fa;fill-opacity:1;stroke-width:3;stroke-linecap:round;stroke-linejoin:round"
     id="rect1076"
     width="40"
     height="56"
     x="12"
     y="4"
     ry="20" />
  <path
     id="rect1247"
     style="fill:#ffffff;fill-opacity:1;stroke-width:2.61149;stroke-linecap:round;stroke-linejoin:round"
     d="m 31.000001,12 c -0.25562,0 -0.511162,0.09863 -0.707031,0.297577 -0.22385,0.227373 -0.319086,0.533931 -0.287111,0.829248 -0.0034,0.04231 -0.0059,0.08546 -0.0059,0.12895 v 16.290777 l -9.605468,-7.756554 c -0.391737,-0.3979 -1.022325,-0.3979 -1.414062,0 -0.391738,0.3979 -0.391738,1.038405 0,1.436304 l 10.605469,8.774268 -10.605469,8.772283 c -0.391738,0.397901 -0.391738,1.038406 0,1.436304 0.391737,0.397901 1.022325,0.397901 1.414062,0 l 9.605469,-7.75457 v 16.028912 c 0,0.09573 0.0094,0.18822 0.0254,0.27772 -0.07228,0.327685 0.01553,0.684344 0.267579,0.940346 0.391737,0.397897 1.024278,0.397897 1.416015,0 l 11.275385,-9.45473 c 0.01285,-0.01172 0.02494,-0.02532 0.03704,-0.0378 0.0121,-0.01247 0.02381,-0.02494 0.03515,-0.0378 0.355767,-0.3997 0.344353,-1.013148 -0.03515,-1.39861 -0.01209,-0.01247 -0.02457,-0.02419 -0.03704,-0.03553 L 32.416018,32.00057 43.021486,23.226302 c 0.0121,-0.01243 0.02381,-0.02483 0.03515,-0.03772 0.355767,-0.399701 0.344353,-1.013146 -0.03515,-1.398611 l -11.3125,-9.492394 C 31.513118,12.098628 31.255621,12 31.000001,12 Z m 1.000001,3.469747 8.900391,7.038403 -8.900391,7.040386 z m 0,18.982857 8.900391,7.038401 -8.900391,7.040387 z"
     sodipodi:nodetypes="sscsccscccsccscsccsccccccccscccccccc" />
</svg>
