<?xml version="1.0" encoding="UTF-8" standalone="no"?>
<!-- Created with Inkscape (http://www.inkscape.org/) -->

<svg
   width="64"
   height="64"
   viewBox="0 0 64 64"
   version="1.1"
   id="svg5"
   inkscape:version="1.2.1 (9c6d41e410, 2022-07-14, custom)"
   sodipodi:docname="preferences-online-accounts.svg"
   xmlns:inkscape="http://www.inkscape.org/namespaces/inkscape"
   xmlns:sodipodi="http://sodipodi.sourceforge.net/DTD/sodipodi-0.dtd"
   xmlns:xlink="http://www.w3.org/1999/xlink"
   xmlns="http://www.w3.org/2000/svg"
   xmlns:svg="http://www.w3.org/2000/svg">
  <sodipodi:namedview
     id="namedview7"
     pagecolor="#ffffff"
     bordercolor="#666666"
     borderopacity="1.0"
     inkscape:pageshadow="2"
     inkscape:pageopacity="0.0"
     inkscape:pagecheckerboard="0"
     inkscape:document-units="px"
     showgrid="false"
     units="px"
     height="16px"
     showguides="false"
     inkscape:zoom="12.65625"
     inkscape:cx="31.960494"
     inkscape:cy="32"
     inkscape:window-width="1920"
     inkscape:window-height="1012"
     inkscape:window-x="0"
     inkscape:window-y="0"
     inkscape:window-maximized="1"
     inkscape:current-layer="svg5"
     inkscape:showpageshadow="2"
     inkscape:deskcolor="#d1d1d1" />
  <defs
     id="defs2">
    <linearGradient
       inkscape:collect="always"
       xlink:href="#linearGradient984"
       id="linearGradient7450"
       x1="2.9104171"
       y1="3.1750004"
       x2="14.552084"
       y2="12.700001"
       gradientUnits="userSpaceOnUse"
       gradientTransform="matrix(3.5188702,0,0,3.5188702,3.2068986,1.2068969)" />
    <linearGradient
       inkscape:collect="always"
       id="linearGradient984">
      <stop
         style="stop-color:#26b4eb;stop-opacity:1;"
         offset="0"
         id="stop980" />
      <stop
         style="stop-color:#15b393;stop-opacity:1"
         offset="1"
         id="stop982" />
    </linearGradient>
    <linearGradient
       inkscape:collect="always"
       id="linearGradient3933">
      <stop
         style="stop-color:#93daee;stop-opacity:1"
         offset="0"
         id="stop3929" />
      <stop
         style="stop-color:#afe5e3;stop-opacity:1"
         offset="1"
         id="stop3931" />
    </linearGradient>
    <linearGradient
       inkscape:collect="always"
       xlink:href="#linearGradient3933"
       id="linearGradient1155"
       x1="3.0835817"
       y1="10.200703"
       x2="25.814161"
       y2="24.21023"
       gradientUnits="userSpaceOnUse"
       gradientTransform="matrix(2,0,0,2,2,0)" />
    <linearGradient
       inkscape:collect="always"
       xlink:href="#linearGradient2497"
       id="linearGradient2320"
       x1="8.562398"
       y1="1.3003726"
       x2="8.5805483"
       y2="8.2474289"
       gradientUnits="userSpaceOnUse"
       gradientTransform="matrix(2.3258632,0,0,2.3258632,-1.692308,22.92308)" />
    <linearGradient
       inkscape:collect="always"
       id="linearGradient2497">
      <stop
         style="stop-color:#1998df;stop-opacity:1;"
         offset="0"
         id="stop2493" />
      <stop
         style="stop-color:#076cbe;stop-opacity:1;"
         offset="1"
         id="stop2495" />
    </linearGradient>
    <linearGradient
       inkscape:collect="always"
       xlink:href="#linearGradient2497"
       id="linearGradient3853"
       x1="12.001918"
       y1="13.000003"
       x2="12.001917"
       y2="20.000031"
       gradientUnits="userSpaceOnUse"
       gradientTransform="matrix(1.9999921,0,0,1.9999921,-6.0037398,20.000096)" />
  </defs>
  <circle
     style="fill:url(#linearGradient7450);fill-opacity:1;stroke-width:3.9645;stroke-linecap:round;stroke-linejoin:round"
     id="path7362"
     cx="33"
     cy="31"
     r="27" />
  <path
     id="path371"
     style="opacity:0.6;fill:url(#linearGradient1155);fill-opacity:1;stroke-width:2"
     d="M 33,4 A 27,27 0 0 0 6,31 27,27 0 0 0 33,58 27,27 0 0 0 60,31 27,27 0 0 0 33,4 Z m 0,2 A 25,25 0 0 1 35.269532,6.109375 25,25 0 0 0 33,6 Z m 0,0 a 9,25 0 0 1 8.082032,14 H 24.9375 A 9,25 0 0 1 33,6 Z m 2.28125,0.109374 A 25,25 0 0 1 37.503906,6.4179678 25,25 0 0 0 35.28125,6.109374 Z m -4.984374,0.082032 a 25,25 0 0 0 -1.863282,0.28125 25,25 0 0 1 1.863282,-0.28125 z m 7.23828,0.2304688 A 25,25 0 0 1 56.316406,22 25,25 0 0 1 58,31 25,25 0 0 1 56.257812,40 25,25 0 0 1 55.40625,42 25,25 0 0 1 37.589844,55.523438 11,27 0 0 0 43.03125,42 h 12.375 a 25,25 0 0 0 0.851562,-2 H 43.347656 A 11,27 0 0 0 44,31 11,27 0 0 0 43.367188,22 H 56.316406 A 25,25 0 0 0 55.445312,20 H 43.042968 A 11,27 0 0 0 37.535156,6.4218748 Z m -9.125,0.054688 A 11,27 0 0 0 22.96875,20 h -12.375 A 25,25 0 0 0 9.7421876,22 H 22.652344 A 11,27 0 0 0 22,31 11,27 0 0 0 22.652344,40 H 9.7421876 a 25,25 0 0 0 0.8515624,2 h 12.375 A 11,27 0 0 0 28.410156,55.523438 25,25 0 0 1 10.59375,42 25,25 0 0 1 9.7421876,40 25,25 0 0 1 8,31 25,25 0 0 1 9.7421876,22 25,25 0 0 1 10.59375,20 25,25 0 0 1 28.410156,6.4765628 Z M 24.613282,22 h 16.78125 A 9,25 0 0 1 42,31 9,25 0 0 1 41.386718,40 H 24.613282 A 9,25 0 0 1 24,31 9,25 0 0 1 24.613282,22 Z M 24.9375,42 h 16.125 A 9,25 0 0 1 33,56 9,25 0 0 1 24.9375,42 Z m 3.496094,13.527344 a 25,25 0 0 0 1.863282,0.28125 25,25 0 0 1 -1.863282,-0.28125 z m 9.132812,0 a 25,25 0 0 1 -1.863282,0.28125 25,25 0 0 0 1.863282,-0.28125 z" />
  <circle
     style="fill:url(#linearGradient2320);fill-opacity:1;stroke-width:2.69536;stroke-linecap:round;stroke-linejoin:round"
     id="path846"
     cx="18"
     cy="34.000004"
     r="8" />
  <path
     id="rect1284"
     style="fill:url(#linearGradient3853);fill-opacity:1;stroke-width:1.11803;stroke-linejoin:round"
     d="m 8,46 c -2.1426616,0 -4,1.525144 -4,4 v 2 c 0,3.488228 6,8 14,8 8,0 14,-4.511772 14,-8 v -2 c 0,-2.474856 -1.857338,-4 -3.999998,-4 z"
     sodipodi:nodetypes="cssssscc" />
</svg>
