<?xml version="1.0" encoding="UTF-8" standalone="no"?>
<svg
   width="64"
   height="64"
   version="1.1"
   viewBox="0 0 64 64"
   id="svg6"
   sodipodi:docname="preferences-system-backup.svg"
   inkscape:version="1.2.2 (1:1.2.2+202305151914+b0a8486541)"
   xmlns:inkscape="http://www.inkscape.org/namespaces/inkscape"
   xmlns:sodipodi="http://sodipodi.sourceforge.net/DTD/sodipodi-0.dtd"
   xmlns:xlink="http://www.w3.org/1999/xlink"
   xmlns="http://www.w3.org/2000/svg"
   xmlns:svg="http://www.w3.org/2000/svg"
   xmlns:rdf="http://www.w3.org/1999/02/22-rdf-syntax-ns#"
   xmlns:cc="http://creativecommons.org/ns#"
   xmlns:dc="http://purl.org/dc/elements/1.1/">
  <defs
     id="defs10">
    <linearGradient
       inkscape:collect="always"
       id="linearGradient58462">
      <stop
         style="stop-color:#636363;stop-opacity:1;"
         offset="0"
         id="stop58458" />
      <stop
         style="stop-color:#ababab;stop-opacity:0.99607843"
         offset="1"
         id="stop58460" />
    </linearGradient>
    <linearGradient
       inkscape:collect="always"
       id="linearGradient50927">
      <stop
         style="stop-color:#000000;stop-opacity:1;"
         offset="0"
         id="stop50923" />
      <stop
         style="stop-color:#000000;stop-opacity:0;"
         offset="1"
         id="stop50925" />
    </linearGradient>
    <linearGradient
       inkscape:collect="always"
       id="linearGradient50337">
      <stop
         style="stop-color:#ffffff;stop-opacity:1;"
         offset="0"
         id="stop50333" />
      <stop
         style="stop-color:#ffffff;stop-opacity:0;"
         offset="1"
         id="stop50335" />
    </linearGradient>
    <linearGradient
       inkscape:collect="always"
       id="linearGradient48004">
      <stop
         style="stop-color:#ffffff;stop-opacity:0"
         offset="0"
         id="stop48000" />
      <stop
         style="stop-color:#ffffff;stop-opacity:1"
         offset="0.50032598"
         id="stop48328" />
      <stop
         style="stop-color:#ffffff;stop-opacity:0;"
         offset="1"
         id="stop48002" />
    </linearGradient>
    <linearGradient
       inkscape:collect="always"
       id="linearGradient10484">
      <stop
         style="stop-color:#2e2e2e;stop-opacity:1;"
         offset="0"
         id="stop10480" />
      <stop
         style="stop-color:#616161;stop-opacity:1"
         offset="1"
         id="stop10482" />
    </linearGradient>
    <linearGradient
       inkscape:collect="always"
       xlink:href="#linearGradient10484"
       id="linearGradient10486"
       x1="5.2163401"
       y1="13.009703"
       x2="5.2163401"
       y2="16.921772"
       gradientUnits="userSpaceOnUse"
       gradientTransform="matrix(3.7714638,0,0,3.8342786,12.382618,-18.882776)" />
    <linearGradient
       inkscape:collect="always"
       xlink:href="#linearGradient48004"
       id="linearGradient48006"
       x1="0.54178363"
       y1="10.597012"
       x2="3.0651259"
       y2="13.265047"
       gradientUnits="userSpaceOnUse"
       gradientTransform="matrix(3.7795936,0,0,3.7795936,1.2e-5,1.1389732e-4)" />
    <radialGradient
       inkscape:collect="always"
       xlink:href="#linearGradient50337"
       id="radialGradient50339"
       cx="3.5557096"
       cy="10.338881"
       fx="3.5557096"
       fy="10.338881"
       r="0.66144532"
       gradientUnits="userSpaceOnUse"
       gradientTransform="matrix(4.5355118,0,0,4.5355118,-2.3999814,-7.1998656)" />
    <linearGradient
       inkscape:collect="always"
       xlink:href="#linearGradient50927"
       id="linearGradient50929"
       x1="0.81698829"
       y1="6.6935077"
       x2="2.7050784"
       y2="7.9747996"
       gradientUnits="userSpaceOnUse"
       gradientTransform="matrix(3.7795936,0,0,3.7795936,1.2e-5,1.0001097)" />
    <linearGradient
       inkscape:collect="always"
       xlink:href="#linearGradient50927"
       id="linearGradient51339"
       gradientUnits="userSpaceOnUse"
       x1="0.81698829"
       y1="6.6935077"
       x2="2.7050784"
       y2="7.9747996"
       gradientTransform="matrix(-3.7795936,0,0,3.7795936,63.99987,1.0001097)" />
    <linearGradient
       inkscape:collect="always"
       xlink:href="#linearGradient58462"
       id="linearGradient58464"
       x1="9.5248117"
       y1="8.3342104"
       x2="9.5248108"
       y2="12.56746"
       gradientUnits="userSpaceOnUse"
       gradientTransform="matrix(3.7795936,0,0,3.7795936,1.2e-5,1.1389732e-4)" />
    <linearGradient
       inkscape:collect="always"
       xlink:href="#linearGradient48004"
       id="linearGradient71108"
       gradientUnits="userSpaceOnUse"
       x1="0.54178363"
       y1="10.597012"
       x2="3.0651259"
       y2="13.265047"
       gradientTransform="matrix(-3.7795936,0,0,3.7795936,63.999862,1.1389732e-4)" />
    <filter
       inkscape:collect="always"
       style="color-interpolation-filters:sRGB"
       id="filter1844"
       x="-0.26508001"
       y="-0.26508001"
       width="1.53016"
       height="1.53016">
      <feGaussianBlur
         inkscape:collect="always"
         stdDeviation="0.087667961"
         id="feGaussianBlur1846" />
    </filter>
    <linearGradient
       inkscape:collect="always"
       xlink:href="#linearGradient1611"
       id="linearGradient945"
       x1="8.4666672"
       y1="4.2529297e-07"
       x2="8.4666672"
       y2="16.933334"
       gradientUnits="userSpaceOnUse"
       gradientTransform="matrix(0.7677165,0,0,0.7677165,19.000005,5.50019)" />
    <linearGradient
       inkscape:collect="always"
       id="linearGradient1611">
      <stop
         style="stop-color:#9ca3a8;stop-opacity:1;"
         offset="0"
         id="stop1607" />
      <stop
         style="stop-color:#63737d;stop-opacity:1"
         offset="1"
         id="stop1609" />
    </linearGradient>
    <linearGradient
       inkscape:collect="always"
       xlink:href="#linearGradient3161"
       id="linearGradient3163"
       x1="8.4666662"
       y1="15.345833"
       x2="8.4666662"
       y2="1.5874995"
       gradientUnits="userSpaceOnUse"
       gradientTransform="matrix(0.79951543,0,0,0.79951543,18.73078,5.230967)" />
    <linearGradient
       inkscape:collect="always"
       id="linearGradient3161">
      <stop
         style="stop-color:#c7ccd1;stop-opacity:1;"
         offset="0"
         id="stop3157" />
      <stop
         style="stop-color:#fdfdfd;stop-opacity:1"
         offset="1"
         id="stop3159" />
    </linearGradient>
    <linearGradient
       inkscape:collect="always"
       xlink:href="#linearGradient2190"
       id="linearGradient1768"
       x1="5.0269842"
       y1="1.719759"
       x2="7.9373436"
       y2="5.0736909"
       gradientUnits="userSpaceOnUse"
       gradientTransform="matrix(3.779602,0,0,3.779602,7.3515625e-7,-0.9998123)" />
    <linearGradient
       inkscape:collect="always"
       id="linearGradient2190">
      <stop
         style="stop-color:#37c837;stop-opacity:1;"
         offset="0"
         id="stop2186" />
      <stop
         style="stop-color:#289028;stop-opacity:0.99993783"
         offset="1"
         id="stop2188" />
    </linearGradient>
  </defs>
  <sodipodi:namedview
     id="namedview8"
     pagecolor="#ffffff"
     bordercolor="#666666"
     borderopacity="1.0"
     inkscape:pageshadow="2"
     inkscape:pageopacity="0.0"
     inkscape:pagecheckerboard="0"
     showgrid="false"
     inkscape:zoom="12.59375"
     inkscape:cx="31.960298"
     inkscape:cy="32"
     inkscape:window-width="1920"
     inkscape:window-height="1008"
     inkscape:window-x="0"
     inkscape:window-y="0"
     inkscape:window-maximized="1"
     inkscape:current-layer="svg6"
     inkscape:showpageshadow="2"
     inkscape:deskcolor="#d1d1d1" />
  <metadata
     id="metadata2">
    <rdf:RDF>
      <cc:Work
         rdf:about="">
        <dc:format>image/svg+xml</dc:format>
        <dc:type
           rdf:resource="http://purl.org/dc/dcmitype/StillImage" />
      </cc:Work>
    </rdf:RDF>
  </metadata>
  <path
     id="rect31485"
     style="opacity:1;fill:#e1e3e6;fill-opacity:1;stroke-width:1.99999;stroke-linecap:round;stroke-linejoin:round;stroke-dasharray:24, 1.99999"
     d="m 17.957002,20.000066 c -0.89089,-0.0048 -1.586394,0.272666 -1.914058,0.595702 L 4.585939,32.585976 5.9999984,32.00004 H 17.999971 45.999908 57.999882 L 59.41394,32.585976 47.956936,20.595768 C 47.629272,20.272726 46.93377,19.995152 46.042878,20.000066 Z"
     sodipodi:nodetypes="ccccccccccc" />
  <path
     id="rect31485-9"
     style="opacity:0.3;fill:url(#linearGradient50929);fill-opacity:1;stroke-width:1.99999;stroke-linecap:round;stroke-linejoin:round;stroke-dasharray:24, 1.99999"
     d="m 17.957002,20.000066 c -0.89089,-0.005 -1.586394,0.272668 -1.914058,0.595702 L 4.585939,32.585976 5.9999984,32.00004 H 17.999971 45.99991 57.999882 l 1.41406,0.585936 -11.457008,-11.990208 c -0.327652,-0.323042 -1.023162,-0.600614 -1.914058,-0.595702 z"
     sodipodi:nodetypes="ccccccccccc" />
  <path
     id="rect31485-9-0"
     style="opacity:0.3;fill:url(#linearGradient51339);fill-opacity:1;stroke-width:1.99999;stroke-linecap:round;stroke-linejoin:round;stroke-dasharray:24, 1.99999"
     d="m 46.042876,20.000066 c 0.890892,-0.005 1.586394,0.272668 1.914058,0.595702 l 11.457008,11.990208 -1.41406,-0.585934 H 45.999906 17.999969 5.9999984 L 4.585939,32.585976 16.042945,20.595768 c 0.327653,-0.323042 1.023162,-0.600614 1.914058,-0.5957 z"
     sodipodi:nodetypes="ccccccccccc" />
  <path
     id="rect849"
     style="fill:url(#linearGradient58464);fill-opacity:1;stroke-width:1.99999;stroke-linecap:round;stroke-linejoin:round;stroke-dasharray:24, 1.99999"
     d="M 5.9999984,32.000104 H 57.999878 c 1.108,0 1.999996,0.892 1.999996,1.999998 v 11.999906 c 0,1.107998 -0.891996,1.999994 -1.999996,1.999994 H 5.9999984 C 4.8919992,48.000002 4,47.108006 4,46.000008 V 34.000102 c 0,-1.107998 0.8919992,-1.999998 1.9999984,-1.999998 z"
     sodipodi:nodetypes="sssssssss" />
  <path
     id="rect849-5"
     style="opacity:0.4;fill:url(#linearGradient48006);fill-opacity:1;stroke-width:1.99999;stroke-linecap:round;stroke-linejoin:round;stroke-dasharray:24, 1.99999"
     d="M 5.9999984,32.000104 H 57.999878 c 1.108,0 1.999996,0.892 1.999996,1.999998 v 11.999906 c 0,1.107998 -0.891996,1.999994 -1.999996,1.999994 H 5.9999984 C 4.8919992,48.000002 4,47.108006 4,46.000008 V 34.000102 c 0,-1.107998 0.8919992,-1.999998 1.9999984,-1.999998 z"
     sodipodi:nodetypes="sssssssss" />
  <path
     id="rect849-5-8"
     style="opacity:0.4;fill:url(#linearGradient71108);fill-opacity:1;stroke-width:1.99999;stroke-linecap:round;stroke-linejoin:round;stroke-dasharray:24, 1.99999"
     d="M 57.999874,32.000104 H 5.9999946 C 4.8919954,32.000104 4,32.892104 4,34.000102 v 11.999906 c 0,1.107998 0.8919954,1.999994 1.9999946,1.999994 H 57.999874 c 1.108,0 2,-0.891996 2,-1.999994 V 34.000102 c 0,-1.107998 -0.892,-1.999998 -2,-1.999998 z"
     sodipodi:nodetypes="sssssssss" />
  <path
     id="rect1094"
     style="fill:url(#linearGradient10486);stroke-width:2.01224;stroke-linecap:round;stroke-linejoin:round;stroke-dasharray:24.147, 2.01224"
     d="m 5.9999984,32.000104 v 11.99991 c 0,1.108 0.8919984,1.999996 1.9999956,1.999996 h 47.999892 c 1.107996,0 1.999996,-0.891996 1.999996,-1.999996 v -11.99991 z"
     sodipodi:nodetypes="csssscc" />
  <circle
     style="opacity:1;fill:#12ff12;fill-opacity:1;stroke-width:0.3435;stroke-linecap:round;stroke-linejoin:round;stroke-dasharray:4.12199, 0.3435;filter:url(#filter1844)"
     id="path25907"
     cx="1.4551802"
     cy="2.5135007"
     r="0.39686719"
     transform="matrix(7.5591868,0,0,7.5591868,4,20.000002)" />
  <circle
     style="fill:#12ff12;fill-opacity:1;stroke-width:2.4;stroke-linecap:round;stroke-linejoin:round;stroke-dasharray:28.8, 2.4"
     id="path30449"
     cx="14.999979"
     cy="39.000031"
     r="2.9999933" />
  <circle
     style="opacity:0.7;fill:url(#radialGradient50339);fill-opacity:1;stroke-width:2.4;stroke-linecap:round;stroke-linejoin:round;stroke-dasharray:28.8, 2.4"
     id="path50091"
     cx="14.999979"
     cy="39.000031"
     r="2.9999933" />
  <path
     id="path49923"
     style="opacity:0.2;fill:#000000;fill-opacity:1;stroke-width:2.4;stroke-linecap:round;stroke-linejoin:round;stroke-dasharray:28.8, 2.4"
     d="m 16.584348,36.815656 a 2.6999936,2.6999936 0 0 1 0.515625,1.58437 2.6999936,2.6999936 0 0 1 -2.699994,2.699994 2.6999936,2.6999936 0 0 1 -1.584371,-0.515624 2.6999936,2.6999936 0 0 0 2.18437,1.115622 2.6999936,2.6999936 0 0 0 2.699993,-2.699992 2.6999936,2.6999936 0 0 0 -1.115623,-2.18437 z" />
  <g
     id="g1649"
     transform="matrix(2,0,0,2,-1,2.0000002)">
    <circle
       style="fill:url(#linearGradient945);fill-opacity:1;stroke-width:0.609378;stroke-linecap:round;stroke-linejoin:round"
       id="path857"
       cx="25.5"
       cy="12.000191"
       r="6.5" />
    <circle
       style="fill:url(#linearGradient3163);fill-opacity:1;stroke-width:0.211538"
       id="path2899"
       cx="25.500008"
       cy="12.000196"
       r="5.5" />
    <path
       id="rect1008"
       style="fill:#000000;stroke-width:1.5;stroke-linecap:round;stroke-linejoin:round"
       d="M 25.5,8 C 25.222993,8 25,8.223001 25,8.5 v 4 c 0,0.277 0.222997,0.500001 0.5,0.500001 h 3.999998 c 0.277007,0 0.500004,-0.223001 0.500004,-0.500001 0,-0.276999 -0.222997,-0.5 -0.500004,-0.5 H 26 V 8.5 C 26,8.223001 25.777004,8 25.5,8 Z" />
    <path
       id="path1113"
       style="color:#000000;fill:url(#linearGradient1768);fill-opacity:1;stroke:none;stroke-width:3.7796;stroke-linecap:round;stroke-linejoin:round"
       d="m 20.47461,5.000187 c -0.26492,0.01334 -0.474609,0.231657 -0.474609,0.5 v 3 c 0,0.277 0.222996,0.5 0.5,0.5 h 3 c 0.277007,0 0.5,-0.223 0.5,-0.5 0,-0.276999 -0.222993,-0.5 -0.5,-0.5 h -1.773437 c 1.498484,-1.417549 3.681153,-1.886134 5.654296,-1.167969 2.17436,0.791403 3.617188,2.854064 3.617188,5.167969 0,2.313906 -1.442828,4.376567 -3.617188,5.167969 -2.174359,0.791402 -4.604447,0.139742 -6.091797,-1.632812 a 0.49999981,0.49999981 0 0 0 -0.707031,-0.05859 0.49999981,0.49999981 0 0 0 -0.06055,0.701172 c 1.755367,2.091964 4.631092,2.861745 7.197266,1.927734 2.566174,-0.934011 4.283203,-3.374603 4.283203,-6.105469 0,-2.730865 -1.717029,-5.171457 -4.283203,-6.105468 C 26.435661,5.427717 25.07486,5.387075 23.814451,5.724801 22.77155,6.004245 21.801013,6.541445 20.999998,7.310738 V 5.500191 c 0,-0.276999 -0.222997,-0.499999 -0.5,-0.5 -0.0087,0 -0.01686,-4.3e-4 -0.0254,0 z" />
  </g>
</svg>
