<?xml version="1.0" encoding="UTF-8" standalone="no"?>
<!-- Created with Inkscape (http://www.inkscape.org/) -->

<svg
   width="64"
   height="64"
   viewBox="0 0 64 64"
   version="1.1"
   id="svg2112"
   inkscape:version="1.2.1 (9c6d41e410, 2022-07-14, custom)"
   sodipodi:docname="preferences-desktop-theme-applications.svg"
   xmlns:inkscape="http://www.inkscape.org/namespaces/inkscape"
   xmlns:sodipodi="http://sodipodi.sourceforge.net/DTD/sodipodi-0.dtd"
   xmlns:xlink="http://www.w3.org/1999/xlink"
   xmlns="http://www.w3.org/2000/svg"
   xmlns:svg="http://www.w3.org/2000/svg">
  <sodipodi:namedview
     id="namedview2114"
     pagecolor="#ffffff"
     bordercolor="#000000"
     borderopacity="0.25"
     inkscape:showpageshadow="2"
     inkscape:pageopacity="0.0"
     inkscape:pagecheckerboard="0"
     inkscape:deskcolor="#d1d1d1"
     inkscape:document-units="px"
     showgrid="false"
     inkscape:zoom="12.53125"
     inkscape:cx="31.9601"
     inkscape:cy="32"
     inkscape:window-width="1920"
     inkscape:window-height="1011"
     inkscape:window-x="0"
     inkscape:window-y="0"
     inkscape:window-maximized="1"
     inkscape:current-layer="svg2112" />
  <defs
     id="defs2109">
    <linearGradient
       inkscape:collect="always"
       xlink:href="#linearGradient6060"
       id="linearGradient1602"
       x1="4.3359375"
       y1="3.5585938"
       x2="19.840315"
       y2="16.466707"
       gradientUnits="userSpaceOnUse"
       gradientTransform="matrix(1.2,0,0,1.2,18.8,20.806798)" />
    <linearGradient
       inkscape:collect="always"
       id="linearGradient6060">
      <stop
         style="stop-color:#8a8f97;stop-opacity:1;"
         offset="0"
         id="stop6056" />
      <stop
         style="stop-color:#8a8f97;stop-opacity:1"
         offset="0.14573747"
         id="stop6576" />
      <stop
         style="stop-color:#616e7a;stop-opacity:1"
         offset="0.89999998"
         id="stop6770" />
      <stop
         style="stop-color:#616e7a;stop-opacity:1"
         offset="1"
         id="stop6058" />
    </linearGradient>
    <linearGradient
       inkscape:collect="always"
       xlink:href="#linearGradient7024"
       id="linearGradient1667"
       x1="17"
       y1="17"
       x2="5"
       y2="5"
       gradientUnits="userSpaceOnUse"
       gradientTransform="matrix(1.2,0,0,1.2,18.8,20.799767)" />
    <linearGradient
       inkscape:collect="always"
       id="linearGradient7024">
      <stop
         style="stop-color:#ffffff;stop-opacity:1;"
         offset="0"
         id="stop7020" />
      <stop
         style="stop-color:#f0f0f0;stop-opacity:1"
         offset="0.25"
         id="stop7732" />
      <stop
         style="stop-color:#cccccc;stop-opacity:1"
         offset="1"
         id="stop7022" />
    </linearGradient>
    <linearGradient
       inkscape:collect="always"
       xlink:href="#linearGradient8250"
       id="linearGradient1659"
       x1="7"
       y1="7"
       x2="15"
       y2="15"
       gradientUnits="userSpaceOnUse"
       gradientTransform="translate(21,22.999767)" />
    <linearGradient
       inkscape:collect="always"
       id="linearGradient8250">
      <stop
         style="stop-color:#0568ba;stop-opacity:1;"
         offset="0"
         id="stop8246" />
      <stop
         style="stop-color:#0568ba;stop-opacity:1"
         offset="0.23999999"
         id="stop9054" />
      <stop
         style="stop-color:#0f4c8a;stop-opacity:1"
         offset="0.80000001"
         id="stop8830" />
      <stop
         style="stop-color:#0f4c8f;stop-opacity:1"
         offset="1"
         id="stop8248" />
    </linearGradient>
  </defs>
  <path
     id="rect261617"
     style="fill:#797774;stroke-width:0.811967;stroke-linecap:round;stroke-linejoin:round"
     d="M 8,11 H 55.999998 C 58.215999,11 60,12.784 60,15 V 49.000002 C 60,51.215999 58.215999,53 55.999998,53 H 8 C 5.7840001,53 4,51.215999 4,49.000002 V 15 c 0,-2.216 1.7840001,-4 4,-4 z"
     sodipodi:nodetypes="sssssssss" />
  <path
     id="rect261619"
     style="fill:#ffffff;fill-opacity:1;stroke-width:0.789524;stroke-linecap:round;stroke-linejoin:round"
     d="m 6.9999999,15 c -1.1080002,0 -2,0.892 -2,2 v 32 c 0,1.662002 1.338,3 3,3 H 56 c 1.661998,0 3,-1.337998 3,-3 V 17 c 0,-1.108 -0.892001,-2 -2,-2 z"
     sodipodi:nodetypes="sssssssss" />
  <path
     id="rect1066"
     style="fill:#c4c4c4;fill-opacity:1;stroke-width:3;stroke-linecap:round;stroke-linejoin:round"
     d="M 45.999999,11.999999 V 14 h 2.000002 v -2.000001 z m 4.000003,0 V 14 h 2.000001 v -2.000001 z m 3.999999,0 V 14 h 2.000001 v -2.000001 z" />
  <path
     id="path377"
     style="fill:url(#linearGradient1602);fill-opacity:1;stroke-width:1.2"
     d="M 36.144531,22.74 A 5,5 0 0 1 32,24.999766 5,5 0 0 1 27.873047,22.763438 12,12 0 0 0 24.347656,24.77711 5,5 0 0 1 24.205078,29.499766 5,5 0 0 1 20.195312,31.956797 12,12 0 0 0 20,33.999766 a 12,12 0 0 0 0.199219,2.060547 5,5 0 0 1 4.005859,2.439453 5,5 0 0 1 0.142578,4.722656 12,12 0 0 0 3.525391,2.013672 A 5,5 0 0 1 32,42.999766 a 5,5 0 0 1 4.154297,2.224609 12,12 0 0 0 3.519531,-2.017578 5,5 0 0 1 0.121094,-4.707031 5,5 0 0 1 4.005859,-2.439453 A 12,12 0 0 0 44,33.999766 12,12 0 0 0 43.822266,31.960704 5,5 0 0 1 39.794922,29.499766 5,5 0 0 1 39.677734,24.781016 12,12 0 0 0 36.144531,22.74 Z" />
  <circle
     style="fill:url(#linearGradient1667);fill-opacity:1;stroke-width:1.2"
     id="path379"
     cx="31.999998"
     cy="33.999767"
     r="6" />
  <circle
     style="fill:url(#linearGradient1659);fill-opacity:1;stroke-width:1"
     id="path433"
     cx="31.999998"
     cy="33.999767"
     r="4" />
</svg>
