<?xml version="1.0" encoding="UTF-8" standalone="no"?>
<!-- Created with Inkscape (http://www.inkscape.org/) -->

<svg
   width="64"
   height="64"
   viewBox="0 0 64 64"
   version="1.1"
   id="svg2535"
   inkscape:version="1.2 (1:1.2.1+202207142221+cd75a1ee6d)"
   sodipodi:docname="preferences-desktop-color.svg"
   xmlns:inkscape="http://www.inkscape.org/namespaces/inkscape"
   xmlns:sodipodi="http://sodipodi.sourceforge.net/DTD/sodipodi-0.dtd"
   xmlns="http://www.w3.org/2000/svg"
   xmlns:svg="http://www.w3.org/2000/svg">
  <sodipodi:namedview
     id="namedview2537"
     pagecolor="#ffffff"
     bordercolor="#000000"
     borderopacity="0.25"
     inkscape:showpageshadow="2"
     inkscape:pageopacity="0.0"
     inkscape:pagecheckerboard="0"
     inkscape:deskcolor="#d1d1d1"
     inkscape:document-units="px"
     showgrid="false"
     inkscape:zoom="12.65625"
     inkscape:cx="31.960494"
     inkscape:cy="32"
     inkscape:window-width="1920"
     inkscape:window-height="1012"
     inkscape:window-x="0"
     inkscape:window-y="0"
     inkscape:window-maximized="1"
     inkscape:current-layer="svg2535"
     showguides="false"
     inkscape:lockguides="true" />
  <defs
     id="defs2532">
    <linearGradient
       id="linearGradient45680"
       x1="-102.06"
       x2="-102.06"
       y1="1.3231"
       y2="19.157"
       gradientTransform="matrix(3.2381565,0,0,3.1356617,365.52224,-0.14868562)"
       gradientUnits="userSpaceOnUse">
      <stop
         stop-color="#ffdc23"
         offset="0"
         id="stop22" />
      <stop
         stop-color="#e6628a"
         offset=".31552"
         id="stop24" />
      <stop
         stop-color="#7b5fc1"
         offset=".55428"
         id="stop26" />
      <stop
         stop-color="#1e9be1"
         offset=".79721"
         id="stop28" />
      <stop
         stop-color="#0082dc"
         offset="1"
         id="stop30" />
    </linearGradient>
    <linearGradient
       id="linearGradient1954"
       x1="-109.09"
       x2="-101.26"
       y1="11.122"
       y2="18.440001"
       gradientTransform="matrix(3.2381565,0,0,3.1356617,365.52224,-0.14872082)"
       gradientUnits="userSpaceOnUse">
      <stop
         stop-color="#64d2eb"
         offset="0"
         id="stop2" />
      <stop
         stop-color="#0082dc"
         offset="1"
         id="stop4" />
    </linearGradient>
    <linearGradient
       id="linearGradient1431"
       x1="-107.04"
       x2="-99.660004"
       y1="6.9531002"
       y2="17.895"
       gradientTransform="matrix(3.2381565,0,0,3.1356617,365.52224,-0.14886202)"
       gradientUnits="userSpaceOnUse">
      <stop
         stop-color="#a578e1"
         offset="0"
         id="stop7" />
      <stop
         stop-color="#5046a0"
         offset="1"
         id="stop9" />
    </linearGradient>
    <linearGradient
       id="linearGradient1439"
       x1="-105"
       x2="-97.016998"
       y1="4.2921"
       y2="13.799"
       gradientTransform="matrix(3.2381565,0,0,3.1356617,365.52224,-0.14773322)"
       gradientUnits="userSpaceOnUse">
      <stop
         stop-color="#eb82aa"
         offset="0"
         id="stop12" />
      <stop
         stop-color="#dc2850"
         offset="1"
         id="stop14" />
    </linearGradient>
    <linearGradient
       id="linearGradient1447"
       x1="-102.1"
       x2="-98.566002"
       y1="1.4752001"
       y2="7.8610001"
       gradientTransform="matrix(3.2381565,0,0,3.1356617,365.4858,-0.14815642)"
       gradientUnits="userSpaceOnUse">
      <stop
         stop-color="#ffdc23"
         offset="0"
         id="stop17" />
      <stop
         stop-color="#f0a019"
         offset="1"
         id="stop19" />
    </linearGradient>
  </defs>
  <path
     d="m 35.047699,4.0000366 c -0.646727,-0.00494 -1.187847,0.4921726 -1.187847,0.4921726 -2.80046,2.3627613 -5.155464,4.6081234 -7.31535,6.7885418 v 0.0018 c -2.608407,2.632697 -4.660391,5.067422 -6.472015,7.400939 -4.308848,5.550348 -6.352527,9.981739 -7.552506,13.493127 h -0.0019 c 1.57e-4,5.78e-4 -1.4e-4,0.0012 0,0.0018 2.33e-4,6.02e-4 -2.04e-4,0.0012 0,0.0018 -1.589334,4.652925 -1.517276,7.514171 -1.517276,7.514171 -3.4e-5,11.213933 9.38708,20.305656 20.967199,20.305304 1.83931,0 3.596583,-0.29261 5.289885,-0.727324 5.72667,-1.470168 10.487607,-5.19829 13.196117,-10.182811 v -0.0036 c 1.532432,-2.820436 2.483019,-5.98319 2.483019,-9.391573 h 0.04324 c 0,0 0.485458,-5.016618 -3.426131,-11.613611 -0.588518,-0.737946 -1.620118,-2.144932 -2.381378,-3.100774 -0.582176,-0.11962 -1.153422,-0.240514 -1.716836,-0.362744 0.562174,0.12196 1.13415,0.241594 1.714942,0.360944 C 42.309075,20.726784 37.014819,18.179493 35.832691,6.5214317 35.633851,5.1138425 36.068839,4.0003512 35.047677,4.0003512 Z M 30.113726,18.603304 c 0.09558,0.07393 0.19364,0.14682 0.29367,0.220573 0.10002,0.07378 0.20228,0.148838 0.306844,0.222395 -0.10456,-0.07355 -0.206816,-0.14682 -0.306844,-0.220566 -0.10004,-0.07378 -0.19808,-0.148482 -0.29367,-0.222395 z m 3.714322,2.251288 c 0.241754,0.11792 0.48914,0.235124 0.745452,0.35183 -0.256752,-0.1169 -0.503342,-0.233704 -0.745452,-0.35183 z m 1.701791,0.769268 c 0.282052,0.11832 0.573324,0.235086 0.871606,0.35182 -0.297842,-0.11656 -0.589968,-0.23368 -0.871606,-0.35182 z m -15.359286,0.796604 c 0.04574,0.205886 0.0999,0.412696 0.16,0.617968 -0.06024,-0.205854 -0.1142,-0.4115 -0.16,-0.617968 z m 24.020697,1.91225 c 0.208818,0.04816 0.4193,0.09646 0.632526,0.144 -0.213316,-0.04762 -0.423564,-0.09584 -0.632526,-0.144 z m -18.367611,5.464981 c 0.272067,0.18002 0.556529,0.357982 0.850877,0.534116 -0.294394,-0.17614 -0.578826,-0.354104 -0.850877,-0.534116 z m 1.767655,1.057298 c 0.317306,0.17202 0.645596,0.341026 0.98643,0.508572 -0.340822,-0.16756 -0.669134,-0.336574 -0.98643,-0.508572 z m 4.386078,1.952322 c 0.415476,0.15274 0.844064,0.302968 1.285732,0.450264 -0.441668,-0.1473 -0.870258,-0.297526 -1.285732,-0.450264 z m 1.957778,0.669015 c 0.455002,0.14446 0.922317,0.286142 1.404347,0.424728 -0.482032,-0.1386 -0.949347,-0.280282 -1.404347,-0.424728 z m 2.893391,0.831248 c 0.254816,0.06622 0.51187,0.13042 0.77372,0.19506 0.261854,0.06462 0.519156,0.13232 0.771826,0.200518 -0.252624,-0.06818 -0.510048,-0.13406 -0.771826,-0.1987 -0.26183,-0.06462 -0.518898,-0.13066 -0.77372,-0.19688 z m 6.2028,2.076284 c 0.38357,0.18264 0.750479,0.3704 1.101257,0.565084 -0.350808,-0.1947 -0.717649,-0.382466 -1.101257,-0.565084 z m 4.209397,2.816412 c 0.243024,0.232896 0.470998,0.470158 0.685236,0.71276 -0.214224,-0.242608 -0.44222,-0.479902 -0.685236,-0.71276 z m 1.554948,1.835664 c 0.17276,0.25629 0.331918,0.517214 0.478162,0.782038 -0.14626,-0.264832 -0.305386,-0.525718 -0.478162,-0.782038 z m -9.214773,16.522994 c -0.232554,0.209236 -0.47536,0.41478 -0.724754,0.614332 0.24941,-0.19956 0.492192,-0.405112 0.724754,-0.614332 z m -1.10315,0.90963 c -0.12794,0.09718 -0.257272,0.19352 -0.387786,0.288038 -0.0681,0.04928 -0.1363,0.09346 -0.205192,0.13674 0.06894,-0.04324 0.13708,-0.08924 0.205192,-0.13852 0.1305,-0.09452 0.259842,-0.18902 0.387786,-0.286186 z"
     fill="url(#linearGradient45680)"
     id="path35"
     style="fill:url(#linearGradient45680);stroke-width:3.1865" />
  <path
     d="m 12.519872,32.177001 c -1.590681,4.655041 -1.51939,7.518405 -1.51939,7.518405 -3.2e-5,11.213935 9.388173,20.304954 20.968292,20.304598 1.839312,0 3.596293,-0.292838 5.289523,-0.727528 0.27945,-0.18496 0.559226,-0.319672 0.831608,-0.516874 1.04417,-0.756038 2.015992,-1.599984 2.749272,-2.503476 0.366652,-0.451706 0.673066,-0.917956 0.900238,-1.396758 0.227188,-0.478768 0.375194,-0.968754 0.421676,-1.468052 0.04648,-0.499298 -0.0086,-1.008226 -0.18406,-1.521532 -0.17534,-0.513266 -0.471942,-1.031615 -0.910296,-1.552289 -0.438368,-0.52068 -1.01781,-1.043646 -1.760382,-1.565278 -0.742538,-0.521626 -1.647914,-1.041172 -2.735872,-1.557156 -1.087958,-0.51602 -2.359085,-1.029042 -3.833811,-1.532856 -1.474508,-0.50385 -3.152876,-0.99916 -5.054918,-1.484278 -1.902261,-0.485116 -3.593707,-1.052712 -5.095355,-1.691666 -1.501758,-0.638961 -2.813646,-1.349599 -3.95257,-2.117841 -1.13878,-0.768208 -2.104956,-1.594904 -2.918311,-2.467812 -0.813319,-0.872946 -1.474145,-1.791782 -1.999636,-2.74491 -0.525491,-0.953126 -0.916231,-1.940365 -1.191382,-2.949051 -0.0023,-0.0084 -0.0027,-0.0172 -0.0065,-0.02608 z"
     fill="url(#linearGradient1954)"
     id="path37"
     style="fill:url(#linearGradient1954);stroke-width:3.1865" />
  <path
     d="m 12.517686,32.177001 c 0.0023,0.0084 0.0027,0.0174 0.0065,0.02616 0.275256,1.008722 0.665893,1.995961 1.191382,2.949053 0.52549,0.95309 1.186281,1.871962 1.999636,2.744906 0.813355,0.872942 1.77953,1.699604 2.918308,2.467812 1.138777,0.768208 2.450629,1.478884 3.952571,2.117841 1.50172,0.638952 3.193018,1.20655 5.095353,1.691666 1.902298,0.485118 3.580738,0.98043 5.054918,1.484282 1.474508,0.503848 2.745635,1.016866 3.833811,1.532852 1.08796,0.516018 1.993332,1.035568 2.73587,1.557162 0.742578,0.521626 1.322018,1.044558 1.760368,1.565272 0.438358,0.520712 0.73496,1.039023 0.910296,1.552291 0.17534,0.513274 0.230588,1.022232 0.18402,1.521532 -0.04648,0.499298 -0.1945,0.989282 -0.421674,1.46805 -0.227188,0.478768 -0.533578,0.945014 -0.900238,1.39676 -0.733318,0.903458 -1.705104,1.747442 -2.749274,2.503478 -0.272352,0.19722 -0.552196,0.331956 -0.831606,0.516866 5.72667,-1.470168 10.487241,-5.199352 13.195753,-10.183869 0.0102,-0.08382 0.04618,-0.1725 0.05526,-0.256026 0.13504,-1.256924 0.11936,-2.48104 -0.077,-3.655664 -0.19638,-1.174666 -0.572958,-2.299726 -1.157976,-3.358965 -0.584984,-1.059336 -1.378556,-2.052358 -2.40954,-2.963648 -1.030984,-0.911362 -2.299412,-1.74049 -3.833815,-2.471058 -1.534178,-0.73057 -3.33367,-1.362612 -5.42795,-1.879654 -2.09468,-0.517044 -3.963863,-1.085554 -5.625765,-1.696503 -1.661828,-0.610948 -3.116556,-1.264472 -4.385712,-1.952534 -1.26923,-0.688062 -2.352783,-1.409988 -3.269559,-2.158336 -0.916888,-0.748314 -1.667548,-1.522094 -2.272382,-2.313868 -0.604834,-0.791738 -1.064206,-1.602454 -1.397242,-2.420827 -0.333,-0.81837 -0.539444,-1.644538 -0.6409,-2.47268 -0.101346,-0.828144 -0.0965,-1.658086 -0.0066,-2.479138 0.0132,-0.109992 0.05178,-0.216031 0.06704,-0.325705 -4.308814,5.550349 -6.351765,9.981386 -7.551743,13.492774 z"
     fill="url(#linearGradient1431)"
     id="path39"
     style="fill:url(#linearGradient1431);stroke-width:3.1865" />
  <path
     d="m 20.071649,18.684227 c -0.016,0.109674 -0.05504,0.215713 -0.06706,0.325705 -0.08968,0.821088 -0.09486,1.65103 0.0066,2.479138 0.10134,0.828142 0.307934,1.654308 0.640902,2.47268 0.333,0.818373 0.79241,1.629089 1.397244,2.420827 0.60483,0.791738 1.355494,1.565554 2.27238,2.313868 0.916924,0.748316 2.000475,1.47024 3.269559,2.158336 1.26923,0.688062 2.723958,1.341552 4.385714,1.952534 1.661828,0.610947 3.531193,1.179495 5.625763,1.696503 2.094682,0.517038 3.894282,1.149048 5.428316,1.879654 1.534255,0.730566 2.802611,1.5597 3.833813,2.471056 1.030946,0.911362 1.824556,1.90435 2.409608,2.963656 0.585056,1.059309 0.961588,2.184511 1.157942,3.358925 0.19634,1.174518 0.211994,2.398638 0.07698,3.655668 -0.009,0.0835 -0.0449,0.17224 -0.05526,0.256026 1.532904,-2.820786 2.483197,-5.984244 2.483197,-9.393333 h 0.04354 c 0,0 0.484648,-5.017678 -3.426937,-11.614673 -0.588508,-0.737932 -1.619926,-2.145558 -2.381152,-3.101398 -1.842116,-0.378514 -3.615709,-0.767329 -5.160561,-1.184505 -1.836764,-0.495982 -3.47229,-1.016094 -4.924502,-1.555536 -1.452324,-0.539444 -2.721809,-1.098182 -3.828347,-1.668986 -1.106792,-0.570803 -2.051146,-1.155117 -2.85135,-1.745111 -0.800242,-0.589993 -1.456986,-1.185349 -1.989582,-1.782397 -0.532632,-0.597049 -0.940966,-1.195298 -1.244968,-1.787267 -0.304076,-0.591969 -0.503124,-1.17847 -0.617438,-1.75326 -0.11432,-0.574754 -0.14346,-1.138149 -0.10718,-1.683554 0.013,-0.186044 0.0703,-0.356289 0.09716,-0.537963 -2.609281,2.633437 -4.662213,5.069184 -6.474201,7.403407 z"
     fill="url(#linearGradient1439)"
     id="path41"
     style="fill:url(#linearGradient1439);stroke-width:3.1865" />
  <path
     d="m 26.54512,11.280469 c -0.02586,0.181712 -0.08484,0.351874 -0.09716,0.537963 -0.03644,0.545401 -0.0066,1.108799 0.10718,1.683554 0.11432,0.574753 0.313436,1.161256 0.617438,1.753224 0.304072,0.591973 0.712336,1.190218 1.244968,1.787267 0.532596,0.597052 1.18934,1.192404 1.989582,1.782398 0.800202,0.589992 1.744558,1.174343 2.85135,1.745111 1.106756,0.570806 2.376243,1.129506 3.828347,1.668984 1.452216,0.539482 3.087814,1.059554 4.924502,1.555538 1.54478,0.417138 3.318445,0.805991 5.160561,1.184503 C 42.310049,20.727528 37.013971,18.179532 35.831843,6.5214703 35.633003,5.1138811 36.068231,4.0001772 35.047083,4.0001772 34.400356,3.9952372 33.860694,4.4927738 33.860694,4.4927738 31.06023,6.8555351 28.704862,9.1001912 26.544974,11.28061 Z"
     fill="url(#linearGradient1447)"
     id="path43"
     style="fill:url(#linearGradient1447);stroke-width:3.1865" />
</svg>
