<?xml version="1.0" encoding="UTF-8" standalone="no"?>
<svg
   width="64"
   height="64"
   version="1.1"
   viewBox="0 0 64 64"
   id="svg6"
   sodipodi:docname="preferences-system-linux.svg"
   inkscape:version="1.3.2 (091e20ef0f, 2023-11-25, custom)"
   xmlns:inkscape="http://www.inkscape.org/namespaces/inkscape"
   xmlns:sodipodi="http://sodipodi.sourceforge.net/DTD/sodipodi-0.dtd"
   xmlns:xlink="http://www.w3.org/1999/xlink"
   xmlns="http://www.w3.org/2000/svg"
   xmlns:svg="http://www.w3.org/2000/svg"
   xmlns:rdf="http://www.w3.org/1999/02/22-rdf-syntax-ns#"
   xmlns:cc="http://creativecommons.org/ns#"
   xmlns:dc="http://purl.org/dc/elements/1.1/">
  <defs
     id="defs10">
    <linearGradient
       inkscape:collect="always"
       xlink:href="#linearGradient4676"
       id="linearGradient4678"
       x1="5.2915626"
       y1="7.2758985"
       x2="0.52915633"
       y2="0.92602324"
       gradientUnits="userSpaceOnUse"
       gradientTransform="matrix(7.559207,0,0,7.559207,7.9999994,-2.0000001e-6)" />
    <linearGradient
       inkscape:collect="always"
       id="linearGradient4676">
      <stop
         style="stop-color:#333333;stop-opacity:1;"
         offset="0"
         id="stop4672" />
      <stop
         style="stop-color:#696969;stop-opacity:1"
         offset="1"
         id="stop4674" />
    </linearGradient>
    <linearGradient
       inkscape:collect="always"
       xlink:href="#linearGradient4970"
       id="linearGradient4972"
       x1="7"
       y1="17.5"
       x2="19"
       y2="27.5"
       gradientUnits="userSpaceOnUse"
       gradientTransform="matrix(2.0000001,0,0,2.0000001,7.9999994,0)" />
    <linearGradient
       inkscape:collect="always"
       id="linearGradient4970">
      <stop
         style="stop-color:#ffffff;stop-opacity:1;"
         offset="0"
         id="stop4966" />
      <stop
         style="stop-color:#cccccc;stop-opacity:1"
         offset="1"
         id="stop4968" />
    </linearGradient>
    <linearGradient
       inkscape:collect="always"
       xlink:href="#linearGradient9529"
       id="linearGradient9531"
       x1="2.6457813"
       y1="2.3812032"
       x2="3.7040937"
       y2="3.4395156"
       gradientUnits="userSpaceOnUse"
       gradientTransform="matrix(7.559207,0,0,7.559207,7.9999994,-2.0000001e-6)" />
    <linearGradient
       inkscape:collect="always"
       id="linearGradient9529">
      <stop
         style="stop-color:#f8c93b;stop-opacity:1"
         offset="0"
         id="stop9525" />
      <stop
         style="stop-color:#ea8908;stop-opacity:1"
         offset="1"
         id="stop9527" />
    </linearGradient>
    <linearGradient
       inkscape:collect="always"
       xlink:href="#linearGradient4676"
       id="linearGradient10516"
       gradientUnits="userSpaceOnUse"
       x1="5.2915626"
       y1="7.2758985"
       x2="0.52915633"
       y2="0.92602324"
       gradientTransform="matrix(7.559207,0,0,7.559207,7.9999994,-2.0000001e-6)" />
    <linearGradient
       inkscape:collect="always"
       xlink:href="#linearGradient4676"
       id="linearGradient1571"
       gradientUnits="userSpaceOnUse"
       gradientTransform="matrix(7.559207,0,0,7.559207,7.9999994,-2.0000001e-6)"
       x1="5.2915626"
       y1="7.2758985"
       x2="0.52915633"
       y2="0.92602324" />
  </defs>
  <sodipodi:namedview
     id="namedview8"
     pagecolor="#ffffff"
     bordercolor="#666666"
     borderopacity="1.0"
     inkscape:pageshadow="2"
     inkscape:pageopacity="0.0"
     inkscape:pagecheckerboard="0"
     showgrid="false"
     inkscape:zoom="13.203125"
     inkscape:cx="32"
     inkscape:cy="32"
     inkscape:window-width="1880"
     inkscape:window-height="1048"
     inkscape:window-x="0"
     inkscape:window-y="0"
     inkscape:window-maximized="1"
     inkscape:current-layer="svg6"
     inkscape:showpageshadow="2"
     inkscape:deskcolor="#d1d1d1" />
  <metadata
     id="metadata2">
    <rdf:RDF>
      <cc:Work
         rdf:about="">
        <dc:format>image/svg+xml</dc:format>
        <dc:type
           rdf:resource="http://purl.org/dc/dcmitype/StillImage" />
      </cc:Work>
    </rdf:RDF>
  </metadata>
  <path
     id="path879"
     style="fill:url(#linearGradient4678);fill-opacity:1;stroke-width:1.25;stroke-linejoin:round"
     d="m 32.000008,6 c -5.52285,4e-7 -10.000004,4.477154 -10.000004,10.000004 2e-6,16.000009 -6.000002,15.000009 -6.000002,24.000011 0,8.836558 7.163448,16.000004 16.000006,16.000004 8.83656,0 16.000007,-7.163446 16.000007,-16.000004 0,-9.000002 -6.000005,-8.000002 -6.000005,-24.000011 C 42.00001,10.477154 37.522858,6.0000004 32.000008,6 Z"
     sodipodi:nodetypes="sccsccs" />
  <path
     style="fill:#eab108;stroke-width:1"
     d="m 22.525712,57.935139 c -0.42185,-0.06698 -0.794886,-0.1923 -1.612236,-0.544098 -1.216896,-0.523902 -1.784338,-0.6938 -4.01158,-1.2008 -1.11096,-0.2528 -1.524996,-0.3652 -2.489238,-0.676302 -0.350756,-0.11306 -0.81826,-0.257466 -1.038894,-0.3208 -0.598948,-0.17186 -0.75774,-0.238712 -0.977182,-0.411112 -0.29936,-0.235066 -0.438872,-0.597796 -0.385368,-1.001702 0.03432,-0.258934 0.1249,-0.507706 0.374968,-1.029596 0.334236,-0.697698 0.604426,-0.948694 0.655338,-1.635298 0.02992,-0.404 0.0054,-0.85839 -0.0974,-1.8044 -0.06086,-0.559698 -0.07476,-0.766004 -0.07564,-1.122302 -9.18e-4,-0.38649 0.004,-0.9556 0.04392,-1.102796 0.14986,-0.553592 0.263916,-0.872996 0.794414,-1.0108 0.15356,-0.04 0.252626,-0.04614 0.973272,-0.06004 0.44861,-0.0102 0.847664,-0.02578 0.905176,-0.03912 0.310828,-0.07 0.53712,-0.18698 0.748014,-0.387466 0.200888,-0.19102 0.338378,-0.385824 0.600586,-0.851 0.408172,-0.718104 1.213398,-0.711002 1.87095,-0.737592 0.18642,0.03912 0.248414,0.06498 0.452584,0.18208 0.20549,0.1184 0.263622,0.16498 0.442302,0.3548 0.449668,0.477698 0.664334,0.772508 1.672906,2.2962 0.79937,1.20801 1.04361,1.594402 1.365828,2.161202 0.351004,0.617498 0.983784,1.608102 1.218362,1.9074 0.03978,0.05098 0.283124,0.358978 0.54083,0.684898 0.257708,0.326178 0.493406,0.631298 0.523748,0.678196 0.48397,0.673386 0.823712,1.447102 0.944568,2.2204 0.04066,0.269422 0.04204,0.314978 0.0194,0.623498 -0.0289,0.3916 -0.05398,0.559 -0.09646,0.644498 -0.017,0.03378 -0.05458,0.1279 -0.08346,0.207778 -0.37004,1.028292 -1.292382,1.7998 -2.36092,1.975 -0.227226,0.03734 -0.677804,0.03734 -0.91876,0 z"
     id="path12" />
  <path
     style="fill:#eab108;stroke-width:1"
     d="m 41.474298,57.936011 c 0.421848,-0.06698 0.79488,-0.19226 1.612237,-0.544098 1.216892,-0.523898 1.784336,-0.6938 4.01158,-1.200796 1.11096,-0.2528 1.524992,-0.3652 2.489236,-0.676308 0.35076,-0.11306 0.818256,-0.25751 1.038892,-0.3208 0.598948,-0.17186 0.757736,-0.238666 0.97718,-0.41111 0.29936,-0.235068 0.438876,-0.597796 0.38536,-1.001698 -0.0344,-0.258934 -0.12488,-0.507694 -0.37496,-1.029592 -0.33424,-0.697702 -0.60442,-0.948698 -0.655336,-1.635306 -0.03,-0.404 -0.0056,-0.858392 0.09736,-1.804396 0.06076,-0.559698 0.07468,-0.766006 0.0756,-1.122298 9.2e-4,-0.386534 -0.004,-0.955606 -0.04382,-1.1028 -0.14984,-0.553606 -0.26392,-0.872996 -0.794412,-1.0108 -0.15356,-0.04 -0.25264,-0.04596 -0.973276,-0.06004 -0.448608,-0.0102 -0.84766,-0.02622 -0.905168,-0.03912 -0.31084,-0.07 -0.537128,-0.18702 -0.748016,-0.387512 -0.20088,-0.19102 -0.3384,-0.385822 -0.600576,-0.851 -0.40817,-0.718116 -1.213404,-0.711004 -1.870954,-0.7376 -0.18644,0.03912 -0.2484,0.06502 -0.452584,0.18214 -0.20548,0.11836 -0.2636,0.16498 -0.442302,0.3548 -0.449668,0.477698 -0.664332,0.772506 -1.672905,2.296204 -0.79937,1.208 -1.043608,1.594396 -1.365826,2.161196 -0.351004,0.617498 -0.983786,1.608102 -1.218362,1.9074 -0.03978,0.05106 -0.283126,0.359022 -0.540832,0.684912 -0.257706,0.326222 -0.493404,0.631298 -0.523746,0.678196 -0.483956,0.673386 -0.823712,1.447102 -0.944568,2.2204 -0.04066,0.269422 -0.04204,0.315022 -0.0194,0.623498 0.02888,0.3916 0.05398,0.559004 0.09646,0.644498 0.017,0.03378 0.05458,0.1279 0.08346,0.207822 0.370022,1.028294 1.292384,1.7998 2.36092,1.975 0.227226,0.03688 0.67782,0.03688 0.918762,0 z"
     id="path12-6" />
  <path
     id="path879-3"
     style="fill:url(#linearGradient4972);fill-opacity:1;stroke-width:0.625004;stroke-linejoin:round"
     d="m 32.000008,18.000004 c -2.761426,0 -5.000002,2.238578 -5.000002,5.000002 -0.02192,6.705493 -4.905422,13.033707 -5.000002,19.000011 0,5.522844 4.477154,10.000002 10.000004,10.000002 5.52285,0 10.000002,-4.477158 10.000002,-10.000002 -0.02388,-5.89006 -4.887728,-12.02821 -5,-19.000011 0,-2.761424 -2.238578,-5.000002 -5.000002,-5.000002 z"
     sodipodi:nodetypes="sccsccs" />
  <ellipse
     style="fill:#ffffff;fill-opacity:1;stroke-width:3.46412;stroke-linejoin:round"
     id="path5621"
     cx="29.000004"
     cy="16.000004"
     rx="3.0000012"
     ry="4.0000014" />
  <ellipse
     style="fill:#ffffff;fill-opacity:1;stroke-width:3.46412;stroke-linejoin:round"
     id="path5621-7"
     cx="35.000008"
     cy="16.000004"
     rx="3.0000012"
     ry="4.0000014" />
  <path
     id="path5299"
     style="fill:url(#linearGradient9531);fill-opacity:1;stroke-width:2;stroke-linejoin:round"
     d="m 36.00001,21.000006 c 0,2.20914 -1.790862,5.000003 -4.000002,5.000003 -2.209138,0 -4.000002,-2.790863 -4.000002,-5.000003 0,-2.20914 1.790862,-3 4.000002,-3 2.209142,0 4.000002,0.79086 4.000002,3 z"
     sodipodi:nodetypes="sssss" />
  <path
     id="path10049"
     style="fill:#1a1a1a;fill-opacity:1;stroke-width:2;stroke-linejoin:round"
     d="M 29.000006,14.000002 A 1.0000005,2.0000009 0 0 0 28,16.000004 a 1.0000005,2.0000009 0 0 0 1.000006,2 1.0000005,2.0000009 0 0 0 1.000008,-2 1.0000005,2.0000009 0 0 0 -1.000008,-2.000002 z m 6.000002,0 A 1.0000005,2.0000009 0 0 0 34,16.000004 a 1.0000005,2.0000009 0 0 0 1.000008,2 1.0000005,2.0000009 0 0 0 1.000008,-2 1.0000005,2.0000009 0 0 0 -1.000008,-2.000002 z" />
  <path
     id="path879-6"
     style="fill:url(#linearGradient1571);fill-opacity:1;stroke-width:1.25001;stroke-linejoin:round"
     d="m 19.718752,41.238295 c -1.656854,0 -3,1.343152 -3,3.000006 0,0.85884 0.629594,2.271542 1.466836,3.433148 0.77794,1.079316 1.735156,1.941848 2.533166,1.941848 1.656854,0 1.48047,-3.956426 1.48047,-5.61328 0,-0.94885 -0.82362,-2.761722 -2.480472,-2.761722 z"
     sodipodi:nodetypes="ssssss" />
  <path
     id="path879-1"
     style="fill:url(#linearGradient10516);fill-opacity:1;stroke-width:1.25001;stroke-linejoin:round"
     d="m 44.203139,41.238295 c -1.605337,0.0552 -2.402345,1.827704 -2.402345,2.761722 0,1.656854 -0.17638,5.61328 1.480473,5.61328 0.798008,0 1.753312,-0.86208 2.531248,-1.941404 0.837244,-1.16161 1.468756,-2.574752 1.468756,-3.433592 0,-1.656858 -1.343152,-3.000006 -3,-3.000006 -0.026,0 -0.0526,-8.72e-4 -0.07816,0 z" />
</svg>
