<?xml version="1.0" encoding="UTF-8" standalone="no"?>
<!-- Created with Inkscape (http://www.inkscape.org/) -->

<svg
   width="64"
   height="64"
   viewBox="0 0 64 64"
   version="1.1"
   id="svg2535"
   inkscape:version="1.2 (1:1.2.1+202207142221+cd75a1ee6d)"
   sodipodi:docname="preferences-system-time.svg"
   xmlns:inkscape="http://www.inkscape.org/namespaces/inkscape"
   xmlns:sodipodi="http://sodipodi.sourceforge.net/DTD/sodipodi-0.dtd"
   xmlns:xlink="http://www.w3.org/1999/xlink"
   xmlns="http://www.w3.org/2000/svg"
   xmlns:svg="http://www.w3.org/2000/svg">
  <sodipodi:namedview
     id="namedview2537"
     pagecolor="#ffffff"
     bordercolor="#000000"
     borderopacity="0.25"
     inkscape:showpageshadow="2"
     inkscape:pageopacity="0.0"
     inkscape:pagecheckerboard="0"
     inkscape:deskcolor="#d1d1d1"
     inkscape:document-units="px"
     showgrid="false"
     inkscape:zoom="13.03125"
     inkscape:cx="31.961631"
     inkscape:cy="32"
     inkscape:window-width="1920"
     inkscape:window-height="1012"
     inkscape:window-x="0"
     inkscape:window-y="0"
     inkscape:window-maximized="1"
     inkscape:current-layer="svg2535" />
  <defs
     id="defs2532">
    <radialGradient
       id="radialGradient875"
       cx="20.107"
       cy="28.705"
       r="28"
       gradientTransform="matrix(1.0656899,0.60179393,-0.47415593,0.839655,13.666102,-8.2264003)"
       gradientUnits="userSpaceOnUse">
      <stop
         stop-color="#5ab5e2"
         offset="0"
         id="stop2" />
      <stop
         stop-color="#4189ac"
         offset=".45901"
         id="stop4" />
      <stop
         stop-color="#295e76"
         offset="1"
         id="stop6" />
    </radialGradient>
    <linearGradient
       id="linearGradient883"
       x1="4"
       x2="59.861"
       y1="31.360001"
       y2="31.360001"
       gradientTransform="matrix(0.96425996,0,0,0.96425996,1.1437564,1.0783658)"
       gradientUnits="userSpaceOnUse">
      <stop
         stop-color="#b0d6df"
         offset="0"
         id="stop9" />
      <stop
         stop-color="#e1f8fc"
         offset=".21709"
         id="stop11" />
      <stop
         stop-color="#96c3ce"
         offset="1"
         id="stop13" />
    </linearGradient>
    <linearGradient
       inkscape:collect="always"
       xlink:href="#linearGradient1611"
       id="linearGradient1109"
       x1="1.8368058"
       y1="2.3578029"
       x2="1.8673608"
       y2="5.5564623"
       gradientUnits="userSpaceOnUse"
       gradientTransform="matrix(9.4488196,0,0,9.4488196,0.5000002,8.500004)" />
    <linearGradient
       inkscape:collect="always"
       id="linearGradient1611">
      <stop
         style="stop-color:#9ca3a8;stop-opacity:1;"
         offset="0"
         id="stop1607" />
      <stop
         style="stop-color:#63737d;stop-opacity:1"
         offset="1"
         id="stop1609" />
    </linearGradient>
    <linearGradient
       inkscape:collect="always"
       xlink:href="#linearGradient3161"
       id="linearGradient3163"
       x1="8.4666662"
       y1="15.345833"
       x2="8.4666662"
       y2="1.5874995"
       gradientUnits="userSpaceOnUse"
       gradientTransform="matrix(1.8897638,0,0,1.8897638,1.9999832,29.999936)" />
    <linearGradient
       inkscape:collect="always"
       id="linearGradient3161">
      <stop
         style="stop-color:#c7ccd1;stop-opacity:1;"
         offset="0"
         id="stop3157" />
      <stop
         style="stop-color:#fdfdfd;stop-opacity:1"
         offset="1"
         id="stop3159" />
    </linearGradient>
    <radialGradient
       id="radialGradient875-3"
       cx="20.107"
       cy="28.705"
       r="28"
       gradientTransform="matrix(0.51311877,0.28975761,-0.22830122,0.40428527,6.1726397,-4.3683762)"
       gradientUnits="userSpaceOnUse">
      <stop
         stop-color="#5ab5e2"
         offset="0"
         id="stop2-6" />
      <stop
         stop-color="#4189ac"
         offset=".45901"
         id="stop4-7" />
      <stop
         stop-color="#295e76"
         offset="1"
         id="stop6-5" />
    </radialGradient>
  </defs>
  <rect
     x="5"
     y="5"
     width="54"
     height="54"
     rx="26.999998"
     ry="26.999998"
     fill="url(#radialGradient875)"
     id="rect30"
     style="fill:url(#radialGradient875);stroke-width:0.964266" />
  <path
     id="path32"
     style="fill:url(#linearGradient883);stroke-width:0.964266"
     d="m 32.141511,6.2858854 c -2.082329,0.1476746 -4.118345,0.5283715 -6.104914,1.1723057 -0.708731,0.027662 -2.252768,0.9426801 -1.010047,1.37107 0.578348,0.617837 1.960607,0.8117587 1.792937,1.8213329 0.223033,0.887398 -2.062877,0.847231 -1.302112,1.650963 0.539422,0.7099 1.079057,1.4197 1.618513,2.129621 0.996034,-0.319924 1.325523,-1.336349 1.878122,-2.121508 1.53819,-0.678484 3.713241,-0.884819 4.729789,-2.190467 C 34.062337,9.1956262 34.382567,8.2722434 34.701113,7.3486677 33.847697,6.9944852 32.994888,6.6401528 32.141511,6.2858854 Z m -7.747762,0.2271595 c -0.765718,0.048534 -1.311766,0.5398287 -1.934915,0.8761868 -0.876614,0.1073655 -1.865208,0.4348107 -2.417626,1.1398544 0.983336,0.4462516 1.601287,-0.027908 2.450079,-0.365078 0.788083,-0.403748 3.471166,-0.5748043 2.247256,-1.6428503 -0.119263,-0.012863 -0.235407,-0.015043 -0.344794,-0.00812 z M 20.122336,9.3119754 C 19.403883,9.4193855 19.149797,10.953095 18.844564,9.887987 18.757028,9.7098395 18.668444,9.5348251 18.580897,9.3565958 18.090391,10.105321 18.92413,11.18658 17.802063,11.579514 c -0.553866,0.701151 -1.035514,1.853573 0.348853,1.435973 0.33866,-1.038957 1.390727,-2.498783 2.587997,-1.890291 1.205907,0.324006 2.321385,2.351448 3.305982,0.746381 -3.97e-4,-0.417455 -1.531017,-0.662152 -1.496818,-1.683415 -0.681331,-0.2922996 -2.139908,0.238789 -2.089057,-0.8234533 -0.123041,-0.054633 -0.234047,-0.068078 -0.336684,-0.052733 z m 25.178205,0.9857096 c -1.16505,0.23297 -2.317585,0.501337 -3.237026,1.302112 0.266888,1.067042 -1.107655,1.245272 -1.719921,1.837558 -0.444237,0.250679 0.0083,2.186835 0.397529,1.886236 0.827586,-1.091882 1.254838,-0.149769 2.024155,0.389416 0.692438,0.643126 1.130401,-1.193858 0.762605,-1.71181 -0.215793,-0.834773 0.835072,-1.45409 1.212871,-2.137733 1.15506,-0.740919 0.178914,0.944637 0.141982,1.533327 -0.58304,1.739692 2.587963,0.05483 0.49894,1.354844 -0.56036,0.559594 -0.76559,1.387504 -1.626632,1.801052 -0.464915,0.567462 -2.238767,0.301084 -1.999815,-0.584125 -0.647957,-1.015561 -0.489728,1.223585 -0.709874,1.21287 -1.073875,-0.319994 -1.395306,0.878707 -2.068775,1.452198 -0.515395,0.592101 -2.331911,0.222653 -0.973541,1.139854 0.990715,1.14318 -0.198587,0.932742 -1.01816,1.237209 -1.158211,0.199444 -0.962949,1.210707 -0.932977,2.121508 0.01774,0.501938 1.12858,1.246542 1.691526,0.896468 1.124458,-0.12042 0.840491,-1.501904 1.671245,-1.922744 0.69026,-0.590866 1.174309,-1.137896 2.21075,-1.152022 0.478509,0.456672 1.445345,1.143783 1.837558,1.517101 -1.082424,1.179358 0.497926,1.082632 0.649028,0.0081 0.533925,-0.591672 -1.759316,-1.982807 -0.247441,-1.37107 1.000708,0.330129 0.771698,1.35432 1.216924,2.044434 0.791428,1.337852 0.875522,0.337223 0.949203,-0.697703 1.314884,-0.413075 1.671624,2.292948 3.443902,1.659077 1.328222,0.34901 0.696663,1.205907 -0.141982,1.760485 -0.765913,0.558651 -1.905598,0.177544 -2.746197,-0.125743 -0.831605,-0.426943 -1.833836,-0.183851 -2.271595,0.665253 -0.971816,-0.838703 -1.658887,-2.169402 -3.070711,-2.243201 -1.33677,-0.06923 -2.689293,0.285587 -3.979349,0.649028 -1.429378,1.67751 -2.976669,3.311813 -3.642667,5.455887 -0.691329,0.849568 0.792967,1.356431 -0.332624,2.129619 -0.783637,0.731663 0.263734,1.637752 0.425923,2.458192 0.843324,1.000072 2.137461,4.286336 3.439844,3.013921 0.732944,-1.158028 1.219102,0.760615 2.080944,-0.44215 0.725411,-0.662152 1.315168,0.662775 2.332443,0.190658 0.904585,0.45091 0.98098,1.336533 0.502995,2.182356 -0.306951,0.858755 1.329725,1.212297 0.864017,2.214805 -0.219544,0.980366 0.210687,1.813341 0.697705,2.632617 -1.082518,1.129946 -0.951701,2.802797 -0.681478,4.218677 0.529648,1.941119 1.288649,3.886596 1.212869,5.930488 0.948503,0.248798 1.649504,-0.38004 2.433854,-0.709874 1.497071,0.211745 2.311472,-1.3838 3.24108,-2.299989 -0.698357,-0.93879 0.573466,-1.343813 1.099289,-1.95114 -0.786519,-0.680305 -1.310998,-1.339454 -0.0933,-1.87001 0.561708,-0.570528 1.616555,-0.895718 1.801048,-1.691527 -0.48371,-1.441438 -0.20876,-2.971757 -0.279891,-4.462063 0.596376,-1.201953 1.22832,-2.377893 2.218862,-3.305982 0.395035,-1.303375 1.345506,-2.499176 1.253434,-3.898221 -2.308866,0.690727 -1.612149,-0.293432 -0.332628,-1.229094 0.887949,-0.651221 2.151684,-1.258625 2.421684,-2.368951 0.193794,-1.09584 -0.662503,-2.798541 -1.407576,-1.188533 -0.361927,-0.513092 -1.636154,-0.987523 -1.618513,-1.792937 -0.273034,-1.624223 0.437678,-0.649396 1.070895,0.117643 1.221604,-0.905551 2.748085,1.752387 2.880059,1.018161 -0.716865,-6.944418 -4.046848,-13.089492 -8.993071,-17.446671 -0.441668,0.489085 -1.163698,2.183374 -1.691527,1.184474 -0.754806,-0.800719 -1.350927,-1.522309 0.186595,-1.225039 1.506776,-0.408931 0.0068,-0.645026 -0.782888,-0.738269 -0.79212,-0.09246 -1.525587,-0.384647 -2.271595,-0.649027 z m -28.88983,0.03651 c -0.121475,-0.0055 -0.24977,0.0013 -0.381303,0.02028 l -0.146031,-0.01217 -0.04057,-0.004 c -0.11269,0.08403 -0.221313,0.173851 -0.332627,0.259604 -0.290263,0.548248 0.506317,1.513082 -0.993823,1.119573 -0.120582,0.05464 -0.288352,0.09113 -0.494883,0.11358 -5.5199405,4.920228 -8.9927513,12.079043 -9.0174235,20.083337 0.5228417,1.071871 1.8034758,1.439303 2.7624225,2.032269 0.9761429,0.333915 2.2035868,0.284557 2.689407,1.362956 0.543356,0.56899 1.272244,1.329607 2.048492,1.391353 1.192857,-0.382243 1.36035,0.700802 0.758551,1.500876 -0.0652,0.876354 -1.037636,1.58196 -0.92892,2.352726 0.217318,0.863614 -1.08924,1.814112 -0.210934,2.604221 0.924023,1.651947 1.914359,3.258398 3.164008,4.685165 0.777265,0.680967 0.68502,1.618999 0.596294,2.555544 -0.30845,0.989822 0.625546,1.561777 1.127685,2.279709 -0.191598,0.351291 -0.366754,0.860689 -0.535448,1.42786 1.314871,0.923055 2.711985,1.733867 4.186226,2.413573 0.737414,-1.06635 1.389756,-1.857232 1.740204,-1.865955 0.701589,-0.491516 0.848614,-1.602824 1.330506,-2.340555 -0.01543,-0.783603 -0.514502,-1.515481 0.300174,-2.368951 0.613847,-0.518112 1.880832,-0.171778 2.109343,-1.253434 0.833843,-0.858907 0.1582,-2.048888 0.1582,-3.090991 0.647717,-0.887257 1.762817,-1.568895 1.638794,-2.794874 0.140323,-1.828529 -3.151966,-1.747099 -4.311975,-2.855721 -1.425851,-0.04081 -1.13729,-1.985084 -2.247256,-2.2432 -1.101962,0.05542 -1.499696,-0.806855 -1.890295,-1.683416 -0.606938,-0.413956 -1.750046,0.425474 -2.385175,-0.09329 -0.719362,-0.378972 -1.364508,-1.792077 -2.174238,-0.908641 -1.065688,0.772696 -2.112475,1.557358 -3.123444,0.263667 -0.655636,-0.590791 0.165685,-2.267727 -0.762607,-2.162072 -1.9817079,0.716825 0.630092,-2.878393 -1.2250391,-2.401401 -0.4393735,0.688691 -1.281776,1.75198 -2.1012258,0.937035 -0.8229259,-0.387207 -0.4180009,-1.647384 -0.3813037,-2.401401 0.035617,-0.881946 1.1515082,-1.321681 1.7929379,-1.723981 1.2440697,0.556383 0.9884387,-1.101884 2.0282107,-0.547616 1.008625,-0.214814 1.464567,1.404064 1.874066,1.464368 0.240664,-0.7971 -0.196184,-1.961434 0.54356,-2.486586 0.864338,-0.727542 2.005563,-1.243921 2.218862,-2.466303 0.01776,-1.305809 1.602371,-0.205974 1.995759,-1.095236 0.362674,-1.018891 1.422697,-0.955725 2.316216,-1.147967 0.488735,-0.453465 1.716284,-1.84953 0.198766,-1.440028 -0.552731,-0.0747 -2.776522,0.220056 -1.265604,-0.312345 0.744267,-0.563384 1.643005,-0.485641 2.478474,-0.596293 0.65797,-0.55705 1.811316,-0.742222 1.861897,-1.756431 -0.546106,-0.742731 -1.703911,-0.601926 -1.212869,-1.667189 -0.04745,-1.393468 -1.276159,-0.498419 -1.67936,-0.604406 0.65482,-0.911249 -0.849295,-1.484043 -1.354844,-1.49682 -0.343601,0.858745 -1.310401,1.599613 -0.969485,2.587997 -1.007185,0.163575 -1.478099,0.893446 -1.780768,1.80105 -0.301974,0.105185 -0.207201,-1.780045 -1.362957,-1.606342 -0.816365,-0.0197 -1.824927,-1.240225 -0.965429,-1.719923 1.178368,-0.745561 2.646058,-1.328158 3.391167,-2.519037 0.374936,-0.933271 -0.184054,-1.551707 -1.034385,-1.590122 z m 19.223379,1.233152 c -0.650351,0.505949 -1.961945,0.153119 -2.239145,0.640914 -0.116601,0.983881 1.409987,0.969088 2.020098,0.425924 0.997189,-0.368692 0.952602,-0.298599 0.219047,-1.066838 z m -14.444915,0.502997 c -1.382128,0.406666 -0.253212,1.310111 0.649028,1.298054 1.076484,-0.08685 0.07551,-1.290313 -0.649028,-1.298054 z m 16.481238,2.713744 c -0.09888,0.880414 0.74681,1.434157 0.397528,2.393289 -0.549999,1.208249 0.228324,1.570173 1.16825,0.82751 1.255315,-0.76808 -0.940557,-2.453729 -1.233152,-3.220799 z m -0.608463,1.39541 c -0.887451,0.02792 -0.527923,2.055993 0.198765,1.293998 0.834705,-0.145717 0.03302,-0.787749 -0.004,-1.26966 -0.07051,-0.01734 -0.13554,-0.0262 -0.194707,-0.02434 z m -14.201531,2.149903 c 0.165606,0.895323 0.224771,2.315626 0.880246,0.791001 -8.98e-4,-0.296305 -0.647211,-0.529018 -0.880246,-0.791001 z m 27.238867,9.204018 c 1.325878,1.156051 1.860919,2.832647 2.608279,4.368766 1.112045,0.583873 0.45356,1.476649 0.608462,2.226975 1.548352,1.355624 -1.566715,0.631152 -1.188532,-0.847792 -0.252666,-1.717728 -1.354289,-2.862831 -2.255368,-4.105097 -0.07086,-0.657564 -0.776905,-1.408855 0.227159,-1.642852 z" />
  <circle
     style="fill:url(#linearGradient1109);fill-opacity:1;stroke-width:0.937502;stroke-linejoin:round"
     id="path1021"
     cx="18"
     cy="46"
     r="15" />
  <circle
     style="fill:url(#linearGradient3163);fill-opacity:1;stroke-width:0.5"
     id="path2899"
     cx="18"
     cy="46"
     r="13" />
  <path
     id="rect1636"
     style="fill:#444444;fill-opacity:1;stroke-width:1;stroke-linejoin:round"
     d="M 17.94922,37 C 17.41939,37.02668 17,37.463312 17,38 v 7.949218 c -8.61e-4,0.017 0,0.03348 0,0.05078 0,0.554 0.446,1 1,1 H 18.050782 26 C 26.554002,47 27,46.554 27,46 27,45.446 26.554002,45 26.000002,45 h -7 v -7 c 0,-0.554 -0.446,-1 -1,-1 -0.0174,0 -0.0337,-8.6e-4 -0.05078,0 z"
     sodipodi:nodetypes="sscssccsscsss" />
</svg>
