<?xml version="1.0" encoding="UTF-8" standalone="no"?>
<!-- Created with Inkscape (http://www.inkscape.org/) -->

<svg
   width="64"
   height="64"
   viewBox="0 0 64 64"
   version="1.1"
   id="svg2112"
   inkscape:version="1.2.1 (9c6d41e410, 2022-07-14, custom)"
   sodipodi:docname="preferences-desktop-theme-windowdecorations.svg"
   xmlns:inkscape="http://www.inkscape.org/namespaces/inkscape"
   xmlns:sodipodi="http://sodipodi.sourceforge.net/DTD/sodipodi-0.dtd"
   xmlns:xlink="http://www.w3.org/1999/xlink"
   xmlns="http://www.w3.org/2000/svg"
   xmlns:svg="http://www.w3.org/2000/svg">
  <sodipodi:namedview
     id="namedview2114"
     pagecolor="#ffffff"
     bordercolor="#000000"
     borderopacity="0.25"
     inkscape:showpageshadow="2"
     inkscape:pageopacity="0.0"
     inkscape:pagecheckerboard="0"
     inkscape:deskcolor="#d1d1d1"
     inkscape:document-units="px"
     showgrid="false"
     inkscape:zoom="12.65625"
     inkscape:cx="31.960494"
     inkscape:cy="32"
     inkscape:window-width="1920"
     inkscape:window-height="1012"
     inkscape:window-x="0"
     inkscape:window-y="0"
     inkscape:window-maximized="1"
     inkscape:current-layer="svg2112" />
  <defs
     id="defs2109">
    <linearGradient
       inkscape:collect="always"
       xlink:href="#linearGradient2353"
       id="linearGradient1623"
       x1="1.490428"
       y1="0.96836084"
       x2="3.9701264"
       y2="1.9523772"
       gradientUnits="userSpaceOnUse"
       gradientTransform="matrix(5.5122507,5.5122507,-5.6871977,5.6871977,33.469102,13.127189)" />
    <linearGradient
       inkscape:collect="always"
       id="linearGradient2353">
      <stop
         style="stop-color:#c6d0d7;stop-opacity:1;"
         offset="0"
         id="stop2349" />
      <stop
         style="stop-color:#82888b;stop-opacity:1"
         offset="1"
         id="stop2351" />
    </linearGradient>
    <linearGradient
       inkscape:collect="always"
       xlink:href="#linearGradient34770"
       id="linearGradient5000"
       x1="1.3890625"
       y1="-3.175"
       x2="2.7956591"
       y2="-4.1435666"
       gradientUnits="userSpaceOnUse"
       gradientTransform="matrix(4.6915134,4.6915134,4.8791177,-4.8791177,31.617834,18.754017)" />
    <linearGradient
       inkscape:collect="always"
       id="linearGradient34770">
      <stop
         style="stop-color:#f8a731;stop-opacity:1;"
         offset="0"
         id="stop34766" />
      <stop
         style="stop-color:#ea631d;stop-opacity:1"
         offset="1"
         id="stop34768" />
    </linearGradient>
  </defs>
  <path
     id="rect261617"
     style="fill:#797774;stroke-width:0.811967;stroke-linecap:round;stroke-linejoin:round"
     d="M 8,11 H 55.999998 C 58.215999,11 60,12.784 60,15 V 49.000002 C 60,51.215999 58.215999,53 55.999998,53 H 8 C 5.7840001,53 4,51.215999 4,49.000002 V 15 c 0,-2.216 1.7840001,-4 4,-4 z"
     sodipodi:nodetypes="sssssssss" />
  <path
     id="rect261619"
     style="fill:#ffffff;fill-opacity:1;stroke-width:0.789524;stroke-linecap:round;stroke-linejoin:round"
     d="m 6.9999999,15 c -1.1080002,0 -2,0.892 -2,2 v 32 c 0,1.662002 1.338,3 3,3 H 56 c 1.661998,0 3,-1.337998 3,-3 V 17 c 0,-1.108 -0.892001,-2 -2,-2 z"
     sodipodi:nodetypes="sssssssss" />
  <path
     id="rect1066"
     style="fill:#c4c4c4;fill-opacity:1;stroke-width:3;stroke-linecap:round;stroke-linejoin:round"
     d="M 45.999999,11.999999 V 14 h 2.000002 v -2.000001 z m 4.000003,0 V 14 h 2.000001 v -2.000001 z m 3.999999,0 V 14 h 2.000001 v -2.000001 z" />
  <path
     id="path6136"
     style="color:#000000;fill:url(#linearGradient5000);stroke-width:1.79022;stroke-linecap:round;stroke-linejoin:round;-inkscape-stroke:none"
     d="m 27.157361,39.842649 c -7.635367,-1.966481 -8.086778,5.427919 -9.99353,7.941224 -0.347921,0.501924 -0.08155,0.72268 0.240913,0.920543 5.668193,0.642844 12.708417,-4.390327 9.752617,-8.861767 z"
     sodipodi:nodetypes="cccc" />
  <path
     id="path2852"
     style="color:#000000;fill:url(#linearGradient1623);fill-opacity:1;stroke-width:2.09503;stroke-linecap:round;stroke-linejoin:round;-inkscape-stroke:none"
     d="m 46.791713,20.2083 c -2.317447,-2.317496 -20.051352,15.400177 -23.216788,18.565556 -0.01396,0.01243 -0.02588,0.02588 -0.03933,0.03933 -0.429465,0.429464 -0.429465,1.120954 0,1.55041 l 3.100817,3.100851 c 0.429464,0.429466 1.120939,0.429466 1.55041,0 0.01358,-0.01358 0.02674,-0.02544 0.03933,-0.03933 3.165383,-3.165469 20.882984,-20.899447 18.56556,-23.216819 z"
     sodipodi:nodetypes="ccsssscc" />
</svg>
