<?xml version="1.0" encoding="UTF-8" standalone="no"?>
<svg
   width="64"
   height="64"
   viewBox="0 0 64 64"
   version="1.1"
   id="svg1886"
   inkscape:version="1.2.1 (9c6d41e410, 2022-07-14, custom)"
   sodipodi:docname="preferences-desktop.svg"
   xmlns:inkscape="http://www.inkscape.org/namespaces/inkscape"
   xmlns:sodipodi="http://sodipodi.sourceforge.net/DTD/sodipodi-0.dtd"
   xmlns:xlink="http://www.w3.org/1999/xlink"
   xmlns="http://www.w3.org/2000/svg"
   xmlns:svg="http://www.w3.org/2000/svg"
   xmlns:rdf="http://www.w3.org/1999/02/22-rdf-syntax-ns#"
   xmlns:cc="http://creativecommons.org/ns#"
   xmlns:dc="http://purl.org/dc/elements/1.1/">
  <defs
     id="defs1880">
    <linearGradient
       inkscape:collect="always"
       id="linearGradient24598">
      <stop
         style="stop-color:#000000;stop-opacity:1;"
         offset="0"
         id="stop24594" />
      <stop
         style="stop-color:#000000;stop-opacity:0;"
         offset="1"
         id="stop24596" />
    </linearGradient>
    <linearGradient
       inkscape:collect="always"
       id="linearGradient17820">
      <stop
         style="stop-color:#26aee7;stop-opacity:1;"
         offset="0"
         id="stop17816" />
      <stop
         style="stop-color:#037ed6;stop-opacity:1"
         offset="1"
         id="stop17818" />
    </linearGradient>
    <linearGradient
       inkscape:collect="always"
       id="linearGradient5821">
      <stop
         style="stop-color:#3bcaf5;stop-opacity:1;"
         offset="0"
         id="stop5817" />
      <stop
         style="stop-color:#1b9ee4;stop-opacity:1"
         offset="1"
         id="stop5819" />
    </linearGradient>
    <linearGradient
       inkscape:collect="always"
       id="linearGradient33432">
      <stop
         style="stop-color:#0271cb;stop-opacity:1;"
         offset="0"
         id="stop33428" />
      <stop
         style="stop-color:#0b5aa7;stop-opacity:1"
         offset="1"
         id="stop33430" />
    </linearGradient>
    <linearGradient
       inkscape:collect="always"
       xlink:href="#linearGradient5821"
       id="linearGradient8998"
       x1="8.4665594"
       y1="3.1749599"
       x2="8.4383011"
       y2="15.352538"
       gradientUnits="userSpaceOnUse"
       gradientTransform="matrix(3.7795752,0,0,3.7795752,-0.9999999,-3)" />
    <linearGradient
       inkscape:collect="always"
       xlink:href="#linearGradient17820"
       id="linearGradient10673"
       x1="7.2768879"
       y1="4.8618474"
       x2="7.2742996"
       y2="9.5925112"
       gradientUnits="userSpaceOnUse"
       gradientTransform="matrix(4.5616925,0,0,4.673952,-2.5372579,-5.858211)" />
    <linearGradient
       inkscape:collect="always"
       xlink:href="#linearGradient33432"
       id="linearGradient18679"
       x1="13.49358"
       y1="4.7624402"
       x2="13.493581"
       y2="5.8207603"
       gradientUnits="userSpaceOnUse"
       gradientTransform="scale(3.7795752)" />
    <linearGradient
       inkscape:collect="always"
       xlink:href="#linearGradient33432"
       id="linearGradient19205"
       x1="13.49358"
       y1="6.8790798"
       x2="13.493581"
       y2="7.9373999"
       gradientUnits="userSpaceOnUse"
       gradientTransform="scale(3.7795752)" />
    <linearGradient
       inkscape:collect="always"
       xlink:href="#linearGradient33432"
       id="linearGradient19811"
       x1="11.906099"
       y1="8.9957209"
       x2="11.9061"
       y2="10.05404"
       gradientUnits="userSpaceOnUse"
       gradientTransform="scale(3.7795752)" />
    <linearGradient
       inkscape:collect="always"
       xlink:href="#linearGradient33432"
       id="linearGradient23862"
       x1="8.2846289"
       y1="11.360404"
       x2="8.2846298"
       y2="12.418723"
       gradientUnits="userSpaceOnUse"
       gradientTransform="matrix(3.7795752,0,0,3.7795752,0.68762273,0.0625008)" />
    <radialGradient
       inkscape:collect="always"
       xlink:href="#linearGradient24598"
       id="radialGradient24600"
       cx="5.55618"
       cy="7.4082398"
       fx="5.55618"
       fy="7.4082398"
       r="3.7041199"
       gradientUnits="userSpaceOnUse"
       gradientTransform="matrix(3.2396354,0,0,3.2396359,3.0000026,4)" />
  </defs>
  <sodipodi:namedview
     id="base"
     pagecolor="#ffffff"
     bordercolor="#666666"
     borderopacity="1.0"
     inkscape:pageopacity="0.0"
     inkscape:pageshadow="2"
     inkscape:zoom="13.03125"
     inkscape:cx="29.928058"
     inkscape:cy="32"
     inkscape:document-units="px"
     inkscape:current-layer="svg1886"
     inkscape:document-rotation="0"
     showgrid="false"
     units="px"
     inkscape:window-width="1920"
     inkscape:window-height="1029"
     inkscape:window-x="0"
     inkscape:window-y="0"
     inkscape:window-maximized="1"
     inkscape:pagecheckerboard="0"
     showguides="false"
     inkscape:showpageshadow="2"
     inkscape:deskcolor="#d1d1d1" />
  <metadata
     id="metadata1883">
    <rdf:RDF>
      <cc:Work
         rdf:about="">
        <dc:format>image/svg+xml</dc:format>
        <dc:type
           rdf:resource="http://purl.org/dc/dcmitype/StillImage" />
      </cc:Work>
    </rdf:RDF>
  </metadata>
  <path
     id="rect1750"
     style="fill:url(#linearGradient8998);fill-opacity:1;stroke-width:1"
     d="M 4.9999996,9 H 59 c 1.662,0 3,1.338 3,3 v 40 c 0,1.662 -1.338,3 -3,3 H 4.9999996 C 3.338,55 2,53.662 2,52 V 12 C 2,10.338 3.338,9 4.9999996,9 Z"
     sodipodi:nodetypes="sssssssss" />
  <path
     id="rect9516"
     style="opacity:0.5;fill:#ffffff;stroke-width:2.08514;stroke-linecap:round;stroke-linejoin:round"
     d="m 8,13 h 48 c 1.108001,0 2,0.892 2,2 v 34 c 0,1.108001 -0.891999,2 -2,2 H 8 C 6.8919998,51 6,50.108001 6,49 V 15 c 0,-1.108 0.8919998,-2 2,-2 z"
     sodipodi:nodetypes="sssssssss" />
  <circle
     style="opacity:1;fill:url(#radialGradient24600);fill-opacity:1;stroke:none;stroke-width:2;stroke-linecap:round;stroke-linejoin:round;stroke-miterlimit:4;stroke-dasharray:none;stroke-opacity:1"
     id="path24396"
     cx="21"
     cy="28"
     r="14" />
  <path
     id="rect12137"
     style="opacity:1;fill:#0a56a0;fill-opacity:1;stroke:none;stroke-width:2;stroke-linecap:round;stroke-linejoin:round;stroke-miterlimit:4;stroke-dasharray:none;stroke-opacity:1"
     d="M 38.435547,19 C 37.1022,19.03355 36.033638,20.102201 36,21.435547 c -5.4e-4,0.02151 0,0.0428 0,0.06445 v 3.5 2 c -6.7e-5,0.554 -0.445997,1 -1,1 h -1 -5 v 2 h 5 1.5 c 1.385003,0 2.5,-1.114999 2.5,-2.5 v -2.5 -3 c 0,-0.554 0.445997,-1 1,-1 h 1 4 v -2 h -4 -1.5 z" />
  <circle
     style="opacity:1;fill:url(#linearGradient10673);fill-opacity:1;stroke:none;stroke-width:2.44339;stroke-linecap:round;stroke-linejoin:round;stroke-miterlimit:4;stroke-dasharray:none;stroke-opacity:1"
     id="path10577"
     cx="21"
     cy="28"
     r="11" />
  <path
     id="rect11079"
     style="opacity:1;fill:#ffffff;fill-opacity:1;stroke:none;stroke-width:2;stroke-linecap:round;stroke-linejoin:round;stroke-miterlimit:4;stroke-dasharray:none;stroke-opacity:1"
     d="m 21,17 a 11,11 0 0 0 -1,0.05078 V 29 H 31.94922 A 11,11 0 0 0 32,28 11,11 0 0 0 20.999998,17 Z" />
  <path
     id="rect11229"
     style="opacity:1;fill:#f18c0a;fill-opacity:1;stroke:none;stroke-width:2.2;stroke-linecap:round;stroke-linejoin:round;stroke-miterlimit:4;stroke-dasharray:none;stroke-opacity:1"
     d="M 21,17 V 28 H 32 A 11,11 0 0 0 21,17 Z" />
  <path
     id="rect11825"
     style="opacity:1;fill:#0e93e2;stroke-width:2;stroke-linecap:round;stroke-linejoin:round"
     d="m 45.000004,17.000001 h 6 c 1.662,0 3,1.338 3,3 0,1.662 -1.338,2.999999 -3,2.999999 h -6 c -1.662,0 -3,-1.337999 -3,-2.999999 0,-1.662 1.338,-3 3,-3 z" />
  <path
     id="rect11929"
     style="opacity:1;fill:#0e93e2;stroke-width:2;stroke-linecap:round;stroke-linejoin:round"
     d="m 45.000004,25.000001 h 6 c 1.662,0 3,1.338 3,3 v 10e-7 c 0,1.661999 -1.338,2.999999 -3,2.999999 h -6 c -1.662,0 -3,-1.338 -3,-2.999999 v -10e-7 c 0,-1.662 1.338,-3 3,-3 z" />
  <path
     id="rect12033"
     style="opacity:1;fill:#0e93e2;stroke-width:2;stroke-linecap:round;stroke-linejoin:round"
     d="m 45.000004,33.000002 h 6 c 1.662,0 3,1.337999 3,2.999999 v 2e-6 c 0,1.662001 -1.338,3.000001 -3,3.000001 h -6 c -1.662,0 -3,-1.338 -3,-3.000001 v -2e-6 c 0,-1.662 1.338,-2.999999 3,-2.999999 z" />
  <path
     id="rect17985"
     style="opacity:1;fill:#ffffff;stroke-width:2;stroke-linecap:round;stroke-linejoin:round"
     d="m 45,18 h 6 c 1.107998,0 2,0.892 2,2 0,1.108 -0.892002,2 -2,2 h -6 c -1.108001,0 -2,-0.892 -2,-2 0,-1.108 0.891999,-2 2,-2 z" />
  <path
     id="rect18286"
     style="opacity:1;fill:#ffffff;stroke-width:2;stroke-linecap:round;stroke-linejoin:round"
     d="m 45,26 h 6 c 1.107998,0 2,0.892 2,2 0,1.108 -0.892002,2 -2,2 h -6 c -1.108001,0 -2,-0.892 -2,-2 0,-1.108 0.891999,-2 2,-2 z" />
  <path
     id="rect18329"
     style="opacity:1;fill:#ffffff;stroke-width:2;stroke-linecap:round;stroke-linejoin:round"
     d="m 45,34 h 5.999996 c 1.108002,0 2,0.892 2,2 0,1.108 -0.891998,2 -2,2 H 45 c -1.108001,0 -2,-0.892 -2,-2 0,-1.108 0.891999,-2 2,-2 z" />
  <circle
     style="opacity:1;fill:url(#linearGradient18679);fill-opacity:1;stroke:none;stroke-width:2;stroke-linecap:round;stroke-linejoin:round;stroke-miterlimit:4;stroke-dasharray:none;stroke-opacity:1"
     id="path18591"
     cx="51"
     cy="20"
     r="2" />
  <circle
     style="opacity:1;fill:url(#linearGradient19205);fill-opacity:1;stroke:none;stroke-width:2;stroke-linecap:round;stroke-linejoin:round;stroke-miterlimit:4;stroke-dasharray:none;stroke-opacity:1"
     id="path19117"
     cx="51"
     cy="28"
     r="2" />
  <circle
     style="opacity:1;fill:url(#linearGradient19811);fill-opacity:1;stroke:none;stroke-width:2;stroke-linecap:round;stroke-linejoin:round;stroke-miterlimit:4;stroke-dasharray:none;stroke-opacity:1"
     id="path19723"
     cx="45"
     cy="36"
     r="2" />
  <path
     id="rect20137"
     style="opacity:1;fill:#0175d2;fill-opacity:1;stroke-width:2;stroke-linecap:round;stroke-linejoin:round"
     d="m 11,44 h 42 c 0.553999,0 1,0.445997 1,1 0,0.553999 -0.446001,1 -1,1 H 11 c -0.553999,0 -1,-0.446001 -1,-1 0,-0.554003 0.446001,-1 1,-1 z" />
  <path
     id="rect20656"
     style="opacity:1;fill:#f18c0a;fill-opacity:1;stroke-width:2;stroke-linecap:round;stroke-linejoin:round"
     d="M 11,44 H 30.999999 C 31.554,44 32,44.445997 32,45 c 0,0.553999 -0.446,1 -1.000001,1 H 11 c -0.553999,0 -1,-0.446001 -1,-1 0,-0.554003 0.446001,-1 1,-1 z" />
  <circle
     style="opacity:1;fill:#ffffff;fill-opacity:1;stroke:none;stroke-width:1.5;stroke-linecap:round;stroke-linejoin:round;stroke-miterlimit:4;stroke-dasharray:none;stroke-opacity:1"
     id="path23648"
     cx="32"
     cy="44.999996"
     r="3" />
  <circle
     style="opacity:1;fill:url(#linearGradient23862);fill-opacity:1;stroke:none;stroke-width:2;stroke-linecap:round;stroke-linejoin:round;stroke-miterlimit:4;stroke-dasharray:none;stroke-opacity:1"
     id="path23774"
     cx="32"
     cy="45"
     r="2" />
</svg>
