<?xml version="1.0" encoding="UTF-8" standalone="no"?>
<!-- Created with Inkscape (http://www.inkscape.org/) -->

<svg
   width="64"
   height="64"
   viewBox="0 0 64 64"
   version="1.1"
   id="svg5"
   inkscape:version="1.2 (1:1.2.1+202207142221+cd75a1ee6d)"
   sodipodi:docname="preferences-system.svg"
   xmlns:inkscape="http://www.inkscape.org/namespaces/inkscape"
   xmlns:sodipodi="http://sodipodi.sourceforge.net/DTD/sodipodi-0.dtd"
   xmlns:xlink="http://www.w3.org/1999/xlink"
   xmlns="http://www.w3.org/2000/svg"
   xmlns:svg="http://www.w3.org/2000/svg">
  <sodipodi:namedview
     id="namedview7"
     pagecolor="#ffffff"
     bordercolor="#666666"
     borderopacity="1.0"
     inkscape:pageshadow="2"
     inkscape:pageopacity="0.0"
     inkscape:pagecheckerboard="0"
     inkscape:document-units="px"
     showgrid="false"
     units="px"
     inkscape:zoom="12.65625"
     inkscape:cx="31.960494"
     inkscape:cy="32"
     inkscape:window-width="1920"
     inkscape:window-height="1012"
     inkscape:window-x="0"
     inkscape:window-y="0"
     inkscape:window-maximized="1"
     inkscape:current-layer="svg5"
     inkscape:showpageshadow="2"
     inkscape:deskcolor="#d1d1d1" />
  <defs
     id="defs2">
    <linearGradient
       inkscape:collect="always"
       id="linearGradient8250">
      <stop
         style="stop-color:#0568ba;stop-opacity:1;"
         offset="0"
         id="stop8246" />
      <stop
         style="stop-color:#0568ba;stop-opacity:1"
         offset="0.23999999"
         id="stop9054" />
      <stop
         style="stop-color:#0f4c8a;stop-opacity:1"
         offset="0.80000001"
         id="stop8830" />
      <stop
         style="stop-color:#0f4c8f;stop-opacity:1"
         offset="1"
         id="stop8248" />
    </linearGradient>
    <linearGradient
       inkscape:collect="always"
       id="linearGradient7024">
      <stop
         style="stop-color:#ffffff;stop-opacity:1;"
         offset="0"
         id="stop7020" />
      <stop
         style="stop-color:#f0f0f0;stop-opacity:1"
         offset="0.25"
         id="stop7732" />
      <stop
         style="stop-color:#cccccc;stop-opacity:1"
         offset="1"
         id="stop7022" />
    </linearGradient>
    <linearGradient
       inkscape:collect="always"
       id="linearGradient6060">
      <stop
         style="stop-color:#8a8f97;stop-opacity:1;"
         offset="0"
         id="stop6056" />
      <stop
         style="stop-color:#8a8f97;stop-opacity:1"
         offset="0.14573747"
         id="stop6576" />
      <stop
         style="stop-color:#616e7a;stop-opacity:1"
         offset="0.89999998"
         id="stop6770" />
      <stop
         style="stop-color:#616e7a;stop-opacity:1"
         offset="1"
         id="stop6058" />
    </linearGradient>
    <linearGradient
       inkscape:collect="always"
       xlink:href="#linearGradient6060"
       id="linearGradient1281"
       x1="2.167166"
       y1="2.6942132"
       x2="15.875"
       y2="13.395575"
       gradientUnits="userSpaceOnUse"
       gradientTransform="matrix(3.7795275,0,0,3.7795275,1.8848425e-7,2.499987e-4)" />
    <linearGradient
       inkscape:collect="always"
       xlink:href="#linearGradient8250"
       id="linearGradient1394"
       x1="-4.3425407"
       y1="0.48700973"
       x2="1.4123864"
       y2="6.2309871"
       gradientUnits="userSpaceOnUse"
       gradientTransform="matrix(3.7795275,0,0,3.7795275,36.661849,18.450064)" />
    <linearGradient
       inkscape:collect="always"
       xlink:href="#linearGradient7024"
       id="linearGradient1526"
       x1="2.9998865"
       y1="7.8184872"
       x2="-5.4667802"
       y2="-0.64817953"
       gradientUnits="userSpaceOnUse"
       gradientTransform="matrix(3.7795275,0,0,3.7795275,36.661849,18.450064)" />
  </defs>
  <path
     id="path428"
     style="fill:url(#linearGradient1281);fill-opacity:1;stroke-width:0.499997"
     d="M 40.945312,5.469 A 9.9999996,9.9999996 0 0 1 31.999998,11.00025 9.9999996,9.9999996 0 0 1 23.080078,5.4768127 27.999999,27.999999 0 0 0 13.503906,11.004156 9.9999996,9.9999996 0 0 1 13.8125,21.50025 9.9999996,9.9999996 0 0 1 4.5703126,26.463141 27.999999,27.999999 0 0 0 4,32.000251 a 27.999999,27.999999 0 0 0 0.5703126,5.53906 9.9999996,9.9999996 0 0 1 0.5820313,-0.03904 9.9999996,9.9999996 0 0 1 8.6601561,5.000001 9.9999996,9.9999996 0 0 1 -0.308595,10.496091 27.999999,27.999999 0 0 0 9.576172,5.527344 9.9999996,9.9999996 0 0 1 8.919921,-5.523436 9.9999996,9.9999996 0 0 1 8.919919,5.523436 27.999999,27.999999 0 0 0 9.589844,-5.53711 9.9999996,9.9999996 0 0 1 -0.32228,-10.486325 9.9999996,9.9999996 0 0 1 8.660156,-5.000001 9.9999996,9.9999996 0 0 1 0.582032,0.03904 A 27.999999,27.999999 0 0 0 60,32.000251 27.999999,27.999999 0 0 0 59.445313,26.463141 9.9999996,9.9999996 0 0 1 50.1875,21.50025 9.9999996,9.9999996 0 0 1 50.517566,11.00025 27.999999,27.999999 0 0 0 40.945301,5.469 Z" />
  <circle
     style="fill:url(#linearGradient1526);fill-opacity:1;stroke-width:0.999999"
     id="path1332"
     cx="32"
     cy="32.000248"
     r="14" />
  <circle
     style="fill:url(#linearGradient1394);fill-opacity:1;stroke-width:0.999999"
     id="path1386"
     cx="32"
     cy="32.000248"
     r="9.999999" />
</svg>
