<?xml version="1.0" encoding="UTF-8" standalone="no"?>
<!-- Created with Inkscape (http://www.inkscape.org/) -->

<svg
   width="64"
   height="64"
   viewBox="0 0 64 64"
   version="1.1"
   id="svg101634"
   inkscape:version="1.2.1 (9c6d41e410, 2022-07-14, custom)"
   sodipodi:docname="preferences-desktop-tablet.svg"
   xmlns:inkscape="http://www.inkscape.org/namespaces/inkscape"
   xmlns:sodipodi="http://sodipodi.sourceforge.net/DTD/sodipodi-0.dtd"
   xmlns:xlink="http://www.w3.org/1999/xlink"
   xmlns="http://www.w3.org/2000/svg"
   xmlns:svg="http://www.w3.org/2000/svg">
  <sodipodi:namedview
     id="namedview101636"
     pagecolor="#ffffff"
     bordercolor="#666666"
     borderopacity="1.0"
     inkscape:pageshadow="2"
     inkscape:pageopacity="0.0"
     inkscape:pagecheckerboard="0"
     inkscape:document-units="px"
     showgrid="false"
     units="px"
     inkscape:zoom="12.921875"
     inkscape:cx="31.961306"
     inkscape:cy="32"
     inkscape:window-width="1920"
     inkscape:window-height="1029"
     inkscape:window-x="0"
     inkscape:window-y="0"
     inkscape:window-maximized="1"
     inkscape:current-layer="svg101634"
     inkscape:showpageshadow="2"
     inkscape:deskcolor="#d1d1d1" />
  <defs
     id="defs101631">
    <linearGradient
       inkscape:collect="always"
       id="linearGradient1259">
      <stop
         style="stop-color:#1f2626;stop-opacity:1;"
         offset="0"
         id="stop1255" />
      <stop
         style="stop-color:#313332;stop-opacity:1"
         offset="0.2"
         id="stop1455" />
      <stop
         style="stop-color:#1a252e;stop-opacity:1"
         offset="1"
         id="stop1257" />
    </linearGradient>
    <linearGradient
       inkscape:collect="always"
       xlink:href="#linearGradient1259"
       id="linearGradient1261"
       x1="10.583333"
       y1="5.291667"
       x2="12.170833"
       y2="5.291667"
       gradientUnits="userSpaceOnUse"
       gradientTransform="matrix(1,0,0,0.96874995,0,0.03307297)" />
    <linearGradient
       inkscape:collect="always"
       xlink:href="#linearGradient4834"
       id="linearGradient3450"
       gradientUnits="userSpaceOnUse"
       gradientTransform="matrix(0.25556618,0,0,0.21146773,11.472515,9.8986357)"
       x1="-2.5513666"
       y1="1.0271932"
       x2="1.796531"
       y2="1.0384924" />
    <linearGradient
       inkscape:collect="always"
       id="linearGradient4834">
      <stop
         style="stop-color:#cdcdcd;stop-opacity:1"
         offset="0"
         id="stop4830" />
      <stop
         style="stop-color:#f1f1f1;stop-opacity:1"
         offset="1"
         id="stop4832" />
    </linearGradient>
    <linearGradient
       inkscape:collect="always"
       xlink:href="#linearGradient4834"
       id="linearGradient6894"
       x1="15.345834"
       y1="14.2875"
       x2="1.5874999"
       y2="3.5718749"
       gradientUnits="userSpaceOnUse"
       gradientTransform="scale(3.7795274)" />
  </defs>
  <rect
     style="opacity:1;fill:#fafafa;fill-opacity:1;stroke-width:3.99999;stroke-linecap:round;stroke-linejoin:round"
     id="rect8718"
     width="55.999996"
     height="43"
     x="4"
     y="12"
     ry="4" />
  <rect
     style="opacity:1;fill:url(#linearGradient6894);fill-opacity:1;stroke-width:4.14728;stroke-linecap:round;stroke-linejoin:round"
     id="rect939"
     width="55.999996"
     height="43"
     x="4"
     y="12"
     ry="4" />
  <path
     id="rect7300"
     style="opacity:0.5;fill:#333333;fill-opacity:1;stroke-width:3.99999;stroke-linecap:round;stroke-linejoin:round"
     d="M 8.9999996,17 H 55.000002 c 1.107999,0 1.999997,0.891998 1.999997,1.999997 v 31.000001 c 0,1.107999 -0.891998,2.000001 -1.999997,2.000001 H 8.9999996 c -1.1079999,0 -2.0000001,-0.892002 -2.0000001,-2.000001 V 18.999997 C 6.9999995,17.891998 7.8919997,17 8.9999996,17 Z" />
  <path
     id="rect7805"
     style="fill:#fafafa;stroke-width:3.99999;stroke-linecap:round;stroke-linejoin:round"
     d="M 8.9999999,17.999998 H 54.999998 c 0.553999,0 1.000003,0.446 1.000003,0.999999 v 30.999998 c 0,0.553999 -0.446004,1.000002 -1.000003,1.000002 H 8.9999999 c -0.5539997,0 -0.9999998,-0.446003 -0.9999998,-1.000002 V 18.999997 c 0,-0.553999 0.4460001,-0.999999 0.9999998,-0.999999 z" />
  <g
     id="g4766"
     transform="matrix(2.6725295,2.6725295,-2.6725295,2.6725295,32.292893,-23.466471)">
    <path
       id="rect1043"
       style="fill:url(#linearGradient1261);stroke-width:0.955895;stroke-linecap:round;stroke-linejoin:round"
       d="m 10.583333,1.1907077 c 0,0 0.304528,-0.1325831 0.794891,-0.1323743 0.479251,-0.00135 0.792609,0.1323743 0.792609,0.1323743 V 9.260417 h -1.5875 z"
       sodipodi:nodetypes="cccccc" />
    <path
       id="path3359"
       style="fill:url(#linearGradient3450);fill-opacity:1;stroke-width:0.246035;stroke-linecap:round;stroke-linejoin:round"
       d="m 10.583334,9.2604168 c 0.0025,0.2763686 0.23057,0.9663662 0.529166,1.3229172 h 0.529167 c 0.298596,-0.356551 0.526667,-1.0465486 0.529167,-1.3229172 z"
       sodipodi:nodetypes="ccccc" />
    <path
       id="rect3886"
       style="fill:#16212e;stroke-width:6.53193;stroke-linecap:round;stroke-linejoin:round"
       d="m 42.25,40 c 0.0018,1.257184 0.75,2 0.75,2 0,0 0.748174,-0.742816 0.75,-2 z"
       transform="scale(0.26458334)"
       sodipodi:nodetypes="cccc" />
  </g>
</svg>
