<?xml version="1.0" encoding="UTF-8" standalone="no"?>
<!-- Created with Inkscape (http://www.inkscape.org/) -->

<svg
   width="64"
   height="64"
   viewBox="0 0 64 64"
   version="1.1"
   id="svg69118"
   inkscape:version="1.2.1 (9c6d41e410, 2022-07-14, custom)"
   sodipodi:docname="preferences-desktop-locale.svg"
   xmlns:inkscape="http://www.inkscape.org/namespaces/inkscape"
   xmlns:sodipodi="http://sodipodi.sourceforge.net/DTD/sodipodi-0.dtd"
   xmlns:xlink="http://www.w3.org/1999/xlink"
   xmlns="http://www.w3.org/2000/svg"
   xmlns:svg="http://www.w3.org/2000/svg">
  <sodipodi:namedview
     id="namedview69120"
     pagecolor="#ffffff"
     bordercolor="#666666"
     borderopacity="1.0"
     inkscape:pageshadow="2"
     inkscape:pageopacity="0.0"
     inkscape:pagecheckerboard="0"
     inkscape:document-units="px"
     showgrid="false"
     units="px"
     inkscape:zoom="12.65625"
     inkscape:cx="29.866667"
     inkscape:cy="32"
     inkscape:window-width="1920"
     inkscape:window-height="1012"
     inkscape:window-x="0"
     inkscape:window-y="0"
     inkscape:window-maximized="1"
     inkscape:current-layer="svg69118"
     inkscape:showpageshadow="2"
     inkscape:deskcolor="#d1d1d1" />
  <defs
     id="defs69115">
    <linearGradient
       inkscape:collect="always"
       id="linearGradient3605">
      <stop
         style="stop-color:#0d6eaa;stop-opacity:1;"
         offset="0"
         id="stop3601" />
      <stop
         style="stop-color:#185086;stop-opacity:1"
         offset="1"
         id="stop3603" />
    </linearGradient>
    <linearGradient
       inkscape:collect="always"
       id="linearGradient1014">
      <stop
         style="stop-color:#33bff0;stop-opacity:1"
         offset="0"
         id="stop1010" />
      <stop
         style="stop-color:#1c9fe3;stop-opacity:1"
         offset="1"
         id="stop1012" />
    </linearGradient>
    <linearGradient
       inkscape:collect="always"
       xlink:href="#linearGradient3605"
       id="linearGradient1697"
       x1="12.474396"
       y1="5.0000038"
       x2="15.9998"
       y2="13.500037"
       gradientUnits="userSpaceOnUse"
       gradientTransform="matrix(3.9999842,0,0,3.9999842,-3.9989464,-1.9999366)" />
    <linearGradient
       inkscape:collect="always"
       xlink:href="#linearGradient1014"
       id="linearGradient1705"
       x1="7.2109375"
       y1="7.4824219"
       x2="10.197266"
       y2="14.636419"
       gradientUnits="userSpaceOnUse"
       gradientTransform="matrix(3.9999842,0,0,3.9999842,-3.9989464,1.9329536)" />
    <linearGradient
       inkscape:collect="always"
       xlink:href="#linearGradient984"
       id="linearGradient7450"
       x1="13.809379"
       y1="13.973848"
       x2="2.3889806"
       y2="3.7831419"
       gradientUnits="userSpaceOnUse"
       gradientTransform="matrix(2.6065708,0,0,2.6065708,1.9310355,1.9310405)" />
    <linearGradient
       inkscape:collect="always"
       id="linearGradient984">
      <stop
         style="stop-color:#117bb9;stop-opacity:1;"
         offset="0"
         id="stop980" />
      <stop
         style="stop-color:#15b393;stop-opacity:1"
         offset="1"
         id="stop982" />
    </linearGradient>
  </defs>
  <circle
     style="fill:url(#linearGradient7450);fill-opacity:1;stroke-width:2.93666;stroke-linecap:round;stroke-linejoin:round"
     id="path7362"
     cx="24"
     cy="24"
     r="20" />
  <path
     id="path1250"
     style="opacity:0.3;fill:#ffffff;stroke-width:4;stroke-linecap:round"
     d="m 24,4 a 8,20 0 0 1 7.328124,12 H 16.675781 A 8,20 0 0 1 24,4 Z m 0,0 A 20,20 0 0 0 19.339844,4.5976562 10,22 0 0 0 14.695312,16 H 5.6914062 A 20,20 0 0 0 4.9453124,18 H 14.386719 A 10,22 0 0 0 14,24 10,22 0 0 0 14.386719,30 H 4.9453124 a 20,20 0 0 0 0.7460938,2 H 14.695312 A 10,22 0 0 0 19.339844,43.402344 20,20 0 0 0 24,44 8,20 0 0 1 16.675781,32 H 31.324218 A 8,20 0 0 1 24,44 20,20 0 0 0 28.660156,43.402344 10,22 0 0 0 33.304688,32 h 9.003906 a 20,20 0 0 0 0.746094,-2 H 33.613282 A 10,22 0 0 0 34,24 10,22 0 0 0 33.621094,18 h 9.453124 a 20,20 0 0 0 -0.75,-2 H 33.3125 A 10,22 0 0 0 28.621094,4.5429688 20,20 0 0 0 24,4 Z M 16.386719,18 H 31.628906 A 8,20 0 0 1 32,24 8,20 0 0 1 31.613282,30 H 16.386719 A 8,20 0 0 1 16,24 8,20 0 0 1 16.386719,18 Z" />
  <path
     id="rect294"
     style="fill:url(#linearGradient1697);fill-opacity:1;stroke-width:10.583;stroke-linecap:round;stroke-linejoin:round"
     d="M 45.898438,18 C 44.837446,18 44,18.926632 44,20 v 2 H 34.10156 C 34.06736,21.9983 34.03462,22 34,22 c -1.107992,0 -2,0.892008 -2,2 v 4 c 0,1.10799 0.892008,2 2,2 1.10799,0 2,-0.89201 2,-2 v -2 h 20 v 2 c 0,1.10799 0.89201,2 2,2 1.10799,0 2,-0.89201 2,-2 V 24 C 60,22.926582 59.16128,22.053292 58.10156,22 58.06756,21.9983 58.03464,22 58,22 H 48 v -2 c 0,-1.107992 -0.89201,-2 -2,-2 H 45.89844 Z M 40,30 c -1.104562,0 -2,0.895438 -2,2 0,1.10456 0.895438,2 2,2 h 7 l -2.203124,4 H 36.101562 36 c -1.104562,0 -2,0.89544 -2,2 0,1.104562 0.895438,2 2,2 h 8 v 4 c 0,1.104564 -0.895438,2 -2,2 -1.10457,0 -2,0.89543 -2,2 0,1.10457 0.89543,2 2,2 3.313696,0 6,-2.686304 6,-6 v -4 h 8 c 1.104562,0 2,-0.895438 2,-2 0,-1.10456 -0.895438,-2 -2,-2 h -6.546876 l 2.851564,-5.820312 C 52.847954,31.171578 52.658496,30 51,30 H 40.101562 c -0.034,-8.6e-4 -0.0677,0 -0.10156,0 z"
     sodipodi:nodetypes="ssccsssssccsssssscssssssscccssscssssscsssccscss" />
  <path
     id="rect855"
     style="fill:url(#linearGradient1705);fill-opacity:1;stroke-width:3.99998;stroke-linecap:round;stroke-linejoin:round"
     d="m 24.84469,31.862522 c -0.778556,0.03888 -1.489214,0.531616 -1.773432,1.312496 L 12.12599,57.845598 c -0.378955,1.041174 0.154136,2.183536 1.195307,2.56249 1.041174,0.378958 2.183534,-0.15412 2.56249,-1.195308 L 19.766584,50 h 10.546834 l 3.914048,9.283092 c 0.378958,1.041176 1.521314,1.574262 2.56249,1.195308 1.041168,-0.378958 1.574262,-1.521314 1.195308,-2.56249 L 27.039994,33.24533 c -0.232034,-0.63751 -0.753124,-1.086182 -1.35937,-1.249996 -0.0126,-0.0034 -0.0264,-0.0046 -0.03908,-0.0078 l -0.0078,-0.0078 c -0.26029,-0.09476 -0.529536,-0.13016 -0.789054,-0.11722 z M 25.04001,37 l 3.820296,9 h -7.63279 z"
     sodipodi:nodetypes="cccsccccsccscccccccc" />
</svg>
