<?xml version="1.0" encoding="UTF-8" standalone="no"?>
<!-- Created with Inkscape (http://www.inkscape.org/) -->

<svg
   width="64"
   height="64"
   viewBox="0 0 64 64"
   version="1.1"
   id="svg5"
   inkscape:version="1.2.1 (9c6d41e410, 2022-07-14, custom)"
   sodipodi:docname="todo-app.svg"
   xmlns:inkscape="http://www.inkscape.org/namespaces/inkscape"
   xmlns:sodipodi="http://sodipodi.sourceforge.net/DTD/sodipodi-0.dtd"
   xmlns:xlink="http://www.w3.org/1999/xlink"
   xmlns="http://www.w3.org/2000/svg"
   xmlns:svg="http://www.w3.org/2000/svg">
  <sodipodi:namedview
     id="namedview7"
     pagecolor="#ffffff"
     bordercolor="#666666"
     borderopacity="1.0"
     inkscape:pageshadow="2"
     inkscape:pageopacity="0.0"
     inkscape:pagecheckerboard="0"
     inkscape:document-units="px"
     showgrid="false"
     units="px"
     height="64px"
     inkscape:zoom="12.578125"
     inkscape:cx="32"
     inkscape:cy="32"
     inkscape:window-width="1920"
     inkscape:window-height="1007"
     inkscape:window-x="0"
     inkscape:window-y="0"
     inkscape:window-maximized="1"
     inkscape:current-layer="svg5"
     inkscape:showpageshadow="2"
     inkscape:deskcolor="#d1d1d1" />
  <defs
     id="defs2">
    <linearGradient
       inkscape:collect="always"
       xlink:href="#linearGradient401210"
       id="linearGradient401212"
       x1="51.347549"
       y1="-173.12904"
       x2="64.771011"
       y2="-173.12901"
       gradientUnits="userSpaceOnUse"
       gradientTransform="matrix(-2.6135922,2.6135922,-1.7857195,-1.7857195,-118.46338,-427.85668)" />
    <linearGradient
       inkscape:collect="always"
       id="linearGradient401210">
      <stop
         style="stop-color:#56adfd;stop-opacity:1;"
         offset="0"
         id="stop401206" />
      <stop
         style="stop-color:#4190fd;stop-opacity:1"
         offset="1"
         id="stop401208" />
    </linearGradient>
  </defs>
  <path
     id="rect384720"
     style="fill:#185abd;stroke-width:1.20503;stroke-linecap:round;stroke-linejoin:round"
     d="M 33.091404,44.634496 13.458937,25.003512 c -0.856037,-0.855972 -2.234233,-0.855972 -3.090269,2e-6 L 4.642019,30.72974 c -0.8560084,0.856006 -0.8560408,2.234298 -4.2e-6,3.09027 L 24.27448,53.450994 c 0.856004,0.856006 2.234234,0.855972 3.09027,0 l 5.726652,-5.72623 c 0.856036,-0.855972 0.856006,-2.234262 2e-6,-3.090268 z"
     sodipodi:nodetypes="csscscssc" />
  <path
     id="rect391649"
     style="fill:url(#linearGradient401212);stroke-width:1.61671;stroke-linecap:round;stroke-linejoin:round"
     d="M 59.357996,21.457868 27.36475,53.450998 c -0.856004,0.856002 -2.234232,0.85598 -3.09027,4e-6 l -5.726022,-5.725606 c -0.856036,-0.855974 -0.856006,-2.234278 0,-3.09028 L 50.5417,12.641991 c 0.856006,-0.856004 2.234238,-0.855973 3.090274,0 l 5.726018,5.725608 c 0.85601,0.856003 0.85601,2.234267 4e-6,3.090269 z"
     sodipodi:nodetypes="ssssssscs" />
</svg>
