<?xml version="1.0" encoding="UTF-8" standalone="no"?>
<!-- Created with Inkscape (http://www.inkscape.org/) -->

<svg
   width="64"
   height="64"
   viewBox="0 0 64 64"
   version="1.1"
   id="svg5"
   inkscape:version="1.2.1 (9c6d41e410, 2022-07-14, custom)"
   sodipodi:docname="visual-studio-code.svg"
   xmlns:inkscape="http://www.inkscape.org/namespaces/inkscape"
   xmlns:sodipodi="http://sodipodi.sourceforge.net/DTD/sodipodi-0.dtd"
   xmlns:xlink="http://www.w3.org/1999/xlink"
   xmlns="http://www.w3.org/2000/svg"
   xmlns:svg="http://www.w3.org/2000/svg">
  <sodipodi:namedview
     id="namedview7"
     pagecolor="#ffffff"
     bordercolor="#000000"
     borderopacity="0.25"
     inkscape:showpageshadow="2"
     inkscape:pageopacity="0.0"
     inkscape:pagecheckerboard="0"
     inkscape:deskcolor="#d1d1d1"
     inkscape:document-units="px"
     showgrid="false"
     inkscape:zoom="12.640625"
     inkscape:cx="31.960445"
     inkscape:cy="32"
     inkscape:window-width="1920"
     inkscape:window-height="1012"
     inkscape:window-x="0"
     inkscape:window-y="0"
     inkscape:window-maximized="1"
     inkscape:current-layer="svg5" />
  <defs
     id="defs2">
    <linearGradient
       inkscape:collect="always"
       xlink:href="#linearGradient2463"
       id="linearGradient2465"
       x1="25.999876"
       y1="6.0003786"
       x2="26"
       y2="25.999962"
       gradientUnits="userSpaceOnUse"
       gradientTransform="matrix(2.7999091,0,0,2.8000051,-12.798634,-12.800029)" />
    <linearGradient
       inkscape:collect="always"
       id="linearGradient2463">
      <stop
         style="stop-color:#ffffff;stop-opacity:1;"
         offset="0"
         id="stop2459" />
      <stop
         style="stop-color:#ffffff;stop-opacity:0;"
         offset="1"
         id="stop2461" />
    </linearGradient>
  </defs>
  <path
     d="M 58.018329,9.93266 46.487348,4.3482879 C 45.152749,3.7018952 43.557529,3.9745864 42.50999,5.0281527 L 4.7616017,39.226868 c -1.0153381,0.931186 -1.0141621,2.539009 0.0028,3.468669 l 3.0834225,2.819347 c 0.8311536,0.760157 2.0829243,0.816036 2.9778618,0.133253 L 56.283222,11.381343 c 1.524995,-1.163667 3.715462,-0.06955 3.715462,1.855784 v -0.134686 c 0,-1.351519 -0.769771,-2.583548 -1.980355,-3.1698382 z"
     style="fill:#0072b0;stroke-width:2.79999"
     id="path3815" />
  <path
     d="m 58.018329,54.068536 -11.530981,5.584401 c -1.334599,0.646147 -2.929819,0.373577 -3.977358,-0.679864 L 4.7616017,23.514144 c -1.0153381,-0.93114 -1.0141621,-2.538997 0.0028,-3.468641 L 7.8477122,17.226045 C 8.6789218,16.466008 9.9306925,16.410057 10.82563,17.092872 L 56.283278,52.61969 c 1.524995,1.16363 3.715467,0.0696 3.715467,-1.855808 v 0.13484 c 0,1.35141 -0.769776,2.583424 -1.98036,3.16986 z"
     style="fill:#008eda;stroke-width:2.79999"
     id="path3843" />
  <path
     d="m 46.488132,59.653274 c -1.335047,0.645774 -2.930211,0.372975 -3.977806,-0.680761 1.290635,1.298179 3.497714,0.378621 3.497714,-1.457387 V 6.4848605 c 0,-1.8360326 -2.207079,-2.7555352 -3.497714,-1.4572622 1.047539,-1.0536839 2.642759,-1.3267391 3.977806,-0.6809123 l 11.529021,5.5766997 c 1.211501,0.5859823 1.98188,1.8184643 1.98188,3.1705663 v 37.812342 c 0,1.352076 -0.770404,2.58452 -1.98188,3.170508 z"
     style="fill:#1eacf8;stroke-width:2.79999"
     id="path3871" />
  <path
     d="m 44.917657,4.001708 c -0.353915,0.00616 -0.702851,0.068267 -1.039024,0.180494 -0.336,0.1121693 -0.65856,0.2726164 -0.951495,0.4867145 -0.05768,0.042003 -0.10864,0.096099 -0.16408,0.14219 -0.08512,0.070729 -0.17248,0.138998 -0.25144,0.2187444 L 20.686524,24.799415 10.826694,17.093932 C 9.9318125,16.411087 8.6775218,16.465152 7.8463682,17.225144 L 4.7620497,20.04702 c -1.0167941,0.929644 -1.0153381,2.536059 0,3.467192 l 8.5145943,8.0008 -8.5145943,7.710946 c -1.0153381,0.931187 -1.0167941,2.543003 0,3.472664 l 3.0843185,2.816414 c 0.8311536,0.760152 2.0854443,0.819496 2.9803258,0.13666 l 9.712213,-7.32267 21.972707,20.644568 c 0.26208,0.263368 0.557203,0.47624 0.874947,0.639843 0.953181,0.491028 2.099447,0.522612 3.100731,0.03824 l 11.527733,-5.572669 c 0.30632,-0.14824 0.58106,-0.340804 0.825776,-0.563278 0.1204,-0.10864 0.230048,-0.221088 0.333513,-0.344516 v -0.0056 c 0.103307,-0.123466 0.204512,-0.252028 0.289836,-0.38828 v -0.0056 c 0.17264,-0.277032 0.30296,-0.574376 0.393727,-0.891404 0.0448,-0.15398 0.08052,-0.309864 0.10388,-0.470306 3.49e-4,-0.0033 -3.51e-4,-0.0072 0,-0.01107 0.02268,-0.16238 0.03824,-0.325125 0.03824,-0.492201 v -0.0056 -0.13666 -37.526633 -0.136703 c 0,-0.0019 7e-6,-0.0036 0,-0.0055 0,-0.165373 -0.0156,-0.331362 -0.03824,-0.492201 -3.51e-4,-0.0035 3.49e-4,-0.0073 0,-0.01067 -0.02268,-0.160273 -0.05976,-0.315736 -0.10388,-0.469909 -0.180292,-0.629655 -0.533771,-1.19536 -1.017107,-1.634803 -0.24472,-0.222496 -0.519124,-0.415029 -0.825781,-0.5632847 L 46.487292,4.3466244 c -0.16688,-0.080698 -0.334883,-0.144598 -0.508484,-0.196902 -0.34664,-0.104554 -0.706776,-0.153614 -1.060927,-0.147622 z m 1.088255,15.126588 V 44.590841 L 29.425227,31.629876 Z"
     style="opacity:0.25;fill:url(#linearGradient2465);fill-opacity:1;stroke-width:2.79999"
     id="path1332" />
</svg>
