<?xml version="1.0" encoding="UTF-8" standalone="no"?>
<!-- Created with Inkscape (http://www.inkscape.org/) -->

<svg
   width="64"
   height="64"
   viewBox="0 0 64 64"
   version="1.1"
   id="svg5"
   inkscape:version="1.3.2 (091e20ef0f, 2023-11-25, custom)"
   sodipodi:docname="wayland.svg"
   xmlns:inkscape="http://www.inkscape.org/namespaces/inkscape"
   xmlns:sodipodi="http://sodipodi.sourceforge.net/DTD/sodipodi-0.dtd"
   xmlns:xlink="http://www.w3.org/1999/xlink"
   xmlns="http://www.w3.org/2000/svg"
   xmlns:svg="http://www.w3.org/2000/svg">
  <sodipodi:namedview
     id="namedview7"
     pagecolor="#ffffff"
     bordercolor="#666666"
     borderopacity="1.0"
     inkscape:pageshadow="2"
     inkscape:pageopacity="0.0"
     inkscape:pagecheckerboard="0"
     inkscape:document-units="px"
     showgrid="false"
     units="px"
     inkscape:zoom="12.625"
     inkscape:cx="32"
     inkscape:cy="32"
     inkscape:window-width="1920"
     inkscape:window-height="1012"
     inkscape:window-x="0"
     inkscape:window-y="0"
     inkscape:window-maximized="1"
     inkscape:current-layer="svg5"
     inkscape:showpageshadow="2"
     inkscape:deskcolor="#d1d1d1" />
  <defs
     id="defs2">
    <linearGradient
       inkscape:collect="always"
       xlink:href="#linearGradient1777"
       id="linearGradient2"
       x1="2.2857144"
       y1="2.3680553"
       x2="14.564292"
       y2="12.572753"
       gradientUnits="userSpaceOnUse"
       gradientTransform="matrix(3.4999999,0,0,3.4999999,3.9999999,3.9999999)" />
    <linearGradient
       inkscape:collect="always"
       id="linearGradient1777">
      <stop
         style="stop-color:#fedd00;stop-opacity:1;"
         offset="0"
         id="stop1773" />
      <stop
         style="stop-color:#fdcb00;stop-opacity:1"
         offset="0.63547182"
         id="stop1818" />
      <stop
         style="stop-color:#fab500;stop-opacity:1"
         offset="1"
         id="stop1775" />
    </linearGradient>
    <linearGradient
       inkscape:collect="always"
       id="linearGradient3161">
      <stop
         style="stop-color:#e6eaec;stop-opacity:1;"
         offset="0"
         id="stop3157" />
      <stop
         style="stop-color:#f6f6f6;stop-opacity:1;"
         offset="1"
         id="stop3159" />
    </linearGradient>
    <linearGradient
       inkscape:collect="always"
       xlink:href="#linearGradient3161"
       id="linearGradient3"
       x1="27"
       y1="27"
       x2="16"
       y2="2"
       gradientUnits="userSpaceOnUse"
       gradientTransform="scale(2)" />
  </defs>
  <circle
     style="fill:url(#linearGradient2);stroke-width:3.5"
     id="path1"
     cx="32"
     cy="32"
     r="28" />
  <path
     style="fill:url(#linearGradient3);stroke-width:2"
     d="m 52.347196,4 c 0.98584,5.72e-5 1.53678,0.7765035 1.652804,2.329368 l -1.245213,7.313104 h 0.304465 l 0.652416,-0.541716 h 0.17398 v 0.16252 c -0.898941,0.686217 -1.768841,2.56414 -2.609697,5.633796 -0.319002,2.636368 -0.855444,5.074067 -1.60932,7.313119 -0.666954,2.311325 -1.00042,4.442049 -1.000379,6.392198 l -1.261357,3.846148 c -2.8e-5,0.325044 0.478412,0.650076 1.435332,0.975076 -0.174,0.758419 -0.434983,1.137619 -0.782904,1.137606 v 0.216685 h 0.304465 v 0.1625 c -4.3e-5,0.397276 -0.492976,0.595907 -1.478829,0.595891 l 0.17398,0.216685 v 0.758391 h -0.304466 c 0.202948,0.758417 0.637891,1.137605 1.304855,1.137605 v 0.379185 h -1.304855 v 0.216688 c 0.434915,1.5e-5 0.652399,0.325044 0.652427,0.975091 l -1.826779,0.758389 0.17396,0.216687 v 0.16252 c -2.5e-5,0.252803 -0.21751,0.3792 -0.652425,0.3792 v 0.216672 c 0.550897,1.5e-5 0.826375,0.126387 0.826403,0.379204 -0.782932,0.325028 -1.812312,1.932108 -3.088136,4.821236 C 41.533051,52.717951 40.402181,54 39.445329,54 h -0.347961 c -0.724943,-0.577832 -1.319379,-2.491881 -1.783296,-5.742155 -1.855811,-4.947624 -2.783699,-7.854808 -2.783672,-8.721553 -2.7e-5,-2.239053 -0.594464,-4.223 -1.783296,-6.750997 -0.318988,-1.119519 -0.536459,-3.077198 -0.652428,-4.77459 h -0.782904 c -1.971795,3.719772 -3.001172,6.559919 -3.088152,8.654515 -0.55094,1.227893 -0.985896,2.708569 -1.304843,4.442036 1.188844,0.397275 1.783283,0.77646 1.783296,1.137591 v 0.216686 c -0.927917,-0.14444 -1.580332,-0.415304 -1.957281,-0.812561 -0.405956,0.975089 -0.9424,3.083668 -1.609311,7.525687 C 24.613532,51.233167 23.961104,52 23.178212,52 c -2.203756,-0.902848 -4.045044,-2.121108 -5.52386,-4.179617 -0.23198,1.4e-5 -0.608944,-1.029247 -1.130868,-3.087758 -0.318972,1.5e-5 -0.536444,-1.029246 -0.652428,-3.087757 -1.101877,-2.925228 -1.85578,-5.665807 -2.261736,-9.421683 v -5.63381 h -0.17398 l -0.782904,0.216688 v -0.216688 c 0,-0.252758 0.260968,-0.379162 0.782904,-0.379188 L 13.26136,22.959915 V 20.413863 L 12,12.288194 V 9.221136 C 12.55094,7.05434 13.507832,5.9709212 14.870667,5.970864 l 0.521964,0.541718 -0.521936,-0.16252 c 2.116749,2.88917 3.36361,4.926966 3.740564,6.913204 h 1.478829 v 0.379202 h -1.130865 v 0.433375 c 0.434941,1.661277 0.753901,2.491912 0.956893,2.491869 h 0.347961 l 0.782904,-0.216688 0.17398,0.216688 0.17398,-0.216688 0.17398,0.216688 v 0.16252 c -0.579945,0.433403 -0.971389,1.029289 -1.174368,1.787651 h -0.130466 v 0.379188 h 0.304466 c 0.40594,6.031097 1.159856,11.400281 2.261736,14.506078 L 23.482721,34 h 0.347948 c 0.434947,2.9e-5 1.348343,-2.368287 2.740191,-6.59366 0.898888,-1.914008 1.551304,-3.315519 1.957269,-4.760112 L 28.354149,22.05034 C 29.253024,20.641917 30.180913,20.000044 31.13782,20 h 0.304468 c 0.608917,4.4e-5 1.04386,0.334948 1.304856,1.129436 0.811877,1.191792 1.464308,2.701645 1.957268,5.08514 l 2.435724,5.03352 c 0.318933,0.397285 0.478412,0.848704 0.47844,1.354289 0.898873,2.13074 1.710768,4.711452 2.435724,5.397615 h 0.521936 c 0.608904,1.3e-5 1.420797,-3.808579 2.435709,-9.081259 0.17396,2.8e-5 0.6524,-1.40842 1.435334,-4.225348 v -0.216685 l -0.827495,-0.379203 -0.652428,0.216687 H 42.140955 V 23.88082 l 1.652804,-0.16252 h 1.305948 c 1.246829,-4.658673 2.39219,-8.270091 3.436105,-10.83423 0.347924,-5.27261 0.826376,-7.9089371 1.435333,-7.90898 L 52.347243,4"
     id="path4" />
</svg>
