<?xml version="1.0" encoding="UTF-8" standalone="no"?>
<!-- Created with Inkscape (http://www.inkscape.org/) -->

<svg
   width="64"
   height="64"
   viewBox="0 0 64 64"
   version="1.1"
   id="svg2112"
   inkscape:version="1.3.2 (091e20ef0f, 2023-11-25)"
   sodipodi:docname="yast-checkmedia.svg"
   xmlns:inkscape="http://www.inkscape.org/namespaces/inkscape"
   xmlns:sodipodi="http://sodipodi.sourceforge.net/DTD/sodipodi-0.dtd"
   xmlns:xlink="http://www.w3.org/1999/xlink"
   xmlns="http://www.w3.org/2000/svg"
   xmlns:svg="http://www.w3.org/2000/svg">
  <sodipodi:namedview
     id="namedview2114"
     pagecolor="#ffffff"
     bordercolor="#000000"
     borderopacity="0.25"
     inkscape:showpageshadow="2"
     inkscape:pageopacity="0.0"
     inkscape:pagecheckerboard="0"
     inkscape:deskcolor="#d1d1d1"
     inkscape:document-units="px"
     showgrid="false"
     inkscape:zoom="12.984375"
     inkscape:cx="32"
     inkscape:cy="32"
     inkscape:window-width="1920"
     inkscape:window-height="1028"
     inkscape:window-x="0"
     inkscape:window-y="0"
     inkscape:window-maximized="1"
     inkscape:current-layer="svg2112" />
  <defs
     id="defs2109">
    <linearGradient
       inkscape:collect="always"
       xlink:href="#linearGradient6804"
       id="linearGradient6808"
       x1="2.3812499"
       y1="8.4666672"
       x2="6.6145835"
       y2="12.700001"
       gradientUnits="userSpaceOnUse"
       gradientTransform="matrix(7.0866137,0,0,7.0866137,0.12499942,-42.999998)" />
    <linearGradient
       inkscape:collect="always"
       id="linearGradient6804">
      <stop
         style="stop-color:#ffffff;stop-opacity:1;"
         offset="0"
         id="stop6800" />
      <stop
         style="stop-color:#ffffff;stop-opacity:0;"
         offset="1"
         id="stop6802" />
    </linearGradient>
    <linearGradient
       inkscape:collect="always"
       xlink:href="#linearGradient162116"
       id="linearGradient162118"
       x1="96.408417"
       y1="238.0069"
       x2="127.77626"
       y2="238.0069"
       gradientUnits="userSpaceOnUse"
       gradientTransform="matrix(1.9127864,0,0,1.8455933,-182.40869,-407.26397)" />
    <linearGradient
       inkscape:collect="always"
       id="linearGradient162116">
      <stop
         style="stop-color:#e3edee;stop-opacity:1;"
         offset="0"
         id="stop162112" />
      <stop
         style="stop-color:#c9cdce;stop-opacity:1"
         offset="1"
         id="stop162114" />
    </linearGradient>
    <linearGradient
       inkscape:collect="always"
       xlink:href="#linearGradient219586"
       id="linearGradient1031"
       gradientUnits="userSpaceOnUse"
       gradientTransform="matrix(1.9127864,0,0,1.8455934,-182.40868,-407.26397)"
       x1="112.09232"
       y1="238.0069"
       x2="112.17286"
       y2="254.33937" />
    <linearGradient
       inkscape:collect="always"
       id="linearGradient219586">
      <stop
         style="stop-color:#b9bfbf;stop-opacity:1;"
         offset="0"
         id="stop219582" />
      <stop
         style="stop-color:#aaacab;stop-opacity:1"
         offset="1"
         id="stop219584" />
    </linearGradient>
    <linearGradient
       inkscape:collect="always"
       xlink:href="#linearGradient2496"
       id="linearGradient2498"
       x1="16.424316"
       y1="54.63533"
       x2="32.331596"
       y2="38.452602"
       gradientUnits="userSpaceOnUse"
       gradientTransform="matrix(1.8749999,0,0,1.8749999,0.12499942,-42.999998)" />
    <linearGradient
       inkscape:collect="always"
       id="linearGradient2496">
      <stop
         style="stop-color:#ffffff;stop-opacity:0.5"
         offset="0"
         id="stop2492" />
      <stop
         style="stop-color:#ffffff;stop-opacity:0"
         offset="0.44999999"
         id="stop3080" />
      <stop
         style="stop-color:#ffffff;stop-opacity:1"
         offset="0.5"
         id="stop2756" />
      <stop
         style="stop-color:#ffffff;stop-opacity:0"
         offset="0.55000001"
         id="stop3014" />
      <stop
         style="stop-color:#ffffff;stop-opacity:0.2"
         offset="1"
         id="stop2494" />
    </linearGradient>
    <linearGradient
       inkscape:collect="always"
       xlink:href="#linearGradient7820"
       id="linearGradient7822"
       x1="14.532227"
       y1="42.393677"
       x2="19.540161"
       y2="37.501221"
       gradientUnits="userSpaceOnUse"
       gradientTransform="matrix(1.9999998,0,0,1.9999998,-1.9999993,-47.999992)" />
    <linearGradient
       inkscape:collect="always"
       id="linearGradient7820">
      <stop
         style="stop-color:#858585;stop-opacity:1"
         offset="0"
         id="stop7816" />
      <stop
         style="stop-color:#ffffff;stop-opacity:1"
         offset="0.5"
         id="stop8592" />
      <stop
         style="stop-color:#868686;stop-opacity:1"
         offset="1"
         id="stop7818" />
    </linearGradient>
    <linearGradient
       inkscape:collect="always"
       xlink:href="#linearGradient7820"
       id="linearGradient10226"
       gradientUnits="userSpaceOnUse"
       x1="14.532227"
       y1="42.393677"
       x2="19.540161"
       y2="37.501221"
       gradientTransform="matrix(3.6000003,0,0,3.6000003,-29.200003,-112.00001)" />
    <linearGradient
       inkscape:collect="always"
       xlink:href="#linearGradient11941"
       id="linearGradient11943"
       x1="5.1081543"
       y1="42.191895"
       x2="7.4692383"
       y2="33.279785"
       gradientUnits="userSpaceOnUse"
       gradientTransform="matrix(1.8749999,0,0,1.8749999,0.12499942,-42.999998)" />
    <linearGradient
       inkscape:collect="always"
       id="linearGradient11941">
      <stop
         style="stop-color:#f89af4;stop-opacity:0"
         offset="0"
         id="stop11937" />
      <stop
         style="stop-color:#f89af4;stop-opacity:0"
         offset="0.40000001"
         id="stop12523" />
      <stop
         style="stop-color:#f89af4;stop-opacity:1"
         offset="0.5"
         id="stop12201" />
      <stop
         style="stop-color:#f89af4;stop-opacity:0"
         offset="0.60000002"
         id="stop12781" />
      <stop
         style="stop-color:#f89af4;stop-opacity:0;"
         offset="1"
         id="stop11939" />
    </linearGradient>
    <linearGradient
       inkscape:collect="always"
       xlink:href="#linearGradient3049"
       id="linearGradient3051"
       x1="38"
       y1="72.5"
       x2="44"
       y2="72.5"
       gradientUnits="userSpaceOnUse"
       gradientTransform="matrix(0.26458333,0,0,0.26458333,-6.5480414,-2.7123114)" />
    <linearGradient
       inkscape:collect="always"
       id="linearGradient3049">
      <stop
         style="stop-color:#4c565b;stop-opacity:1"
         offset="0"
         id="stop3045" />
      <stop
         style="stop-color:#636b70;stop-opacity:1"
         offset="0.40000001"
         id="stop3277" />
      <stop
         style="stop-color:#4b546a;stop-opacity:1"
         offset="0.60000002"
         id="stop3117" />
      <stop
         style="stop-color:#606568;stop-opacity:1"
         offset="1"
         id="stop3047" />
    </linearGradient>
    <linearGradient
       inkscape:collect="always"
       xlink:href="#linearGradient2353"
       id="linearGradient2355"
       x1="10.31875"
       y1="11.90625"
       x2="11.377084"
       y2="11.90625"
       gradientUnits="userSpaceOnUse"
       gradientTransform="translate(-6.5480419,-2.7123125)" />
    <linearGradient
       inkscape:collect="always"
       id="linearGradient2353">
      <stop
         style="stop-color:#c6d0d7;stop-opacity:1;"
         offset="0"
         id="stop2349" />
      <stop
         style="stop-color:#a6afb4;stop-opacity:1"
         offset="0.40000001"
         id="stop2421" />
      <stop
         style="stop-color:#666c70;stop-opacity:1"
         offset="0.60147125"
         id="stop2551" />
      <stop
         style="stop-color:#606568;stop-opacity:1"
         offset="1"
         id="stop2351" />
    </linearGradient>
    <linearGradient
       inkscape:collect="always"
       xlink:href="#linearGradient3713"
       id="linearGradient3715"
       x1="10.054167"
       y1="16.139584"
       x2="11.641667"
       y2="16.139584"
       gradientUnits="userSpaceOnUse"
       gradientTransform="translate(-6.5480419,-2.7123125)" />
    <linearGradient
       inkscape:collect="always"
       id="linearGradient3713">
      <stop
         style="stop-color:#70818a;stop-opacity:1"
         offset="0"
         id="stop3709" />
      <stop
         style="stop-color:#808f98;stop-opacity:1"
         offset="0.2"
         id="stop3973" />
      <stop
         style="stop-color:#8d9ba4;stop-opacity:1"
         offset="0.47"
         id="stop4103" />
      <stop
         style="stop-color:#5f707b;stop-opacity:1"
         offset="0.7372787"
         id="stop4361" />
      <stop
         style="stop-color:#5f707b;stop-opacity:1"
         offset="1"
         id="stop3711" />
    </linearGradient>
    <linearGradient
       inkscape:collect="always"
       xlink:href="#linearGradient5013"
       id="linearGradient5015"
       x1="6.0854168"
       y1="1.3229163"
       x2="15.610416"
       y2="10.847917"
       gradientUnits="userSpaceOnUse"
       gradientTransform="matrix(2.6771655,0,0,2.6771655,-64.541664,19.208334)" />
    <linearGradient
       inkscape:collect="always"
       id="linearGradient5013">
      <stop
         style="stop-color:#ffffff;stop-opacity:1;"
         offset="0"
         id="stop5009" />
      <stop
         style="stop-color:#cceaff;stop-opacity:1"
         offset="0.37060696"
         id="stop5145" />
      <stop
         style="stop-color:#ffffff;stop-opacity:1"
         offset="1"
         id="stop5011" />
    </linearGradient>
    <linearGradient
       inkscape:collect="always"
       xlink:href="#linearGradient932"
       id="linearGradient984"
       x1="5.8208337"
       y1="3.4395833"
       x2="10.583333"
       y2="3.4395833"
       gradientUnits="userSpaceOnUse"
       gradientTransform="matrix(-5.6692916,0,0,5.6692916,81.999997,16)" />
    <linearGradient
       inkscape:collect="always"
       id="linearGradient932">
      <stop
         style="stop-color:#bcc6cd;stop-opacity:1"
         offset="0"
         id="stop928" />
      <stop
         style="stop-color:#bcc5cc;stop-opacity:1"
         offset="1"
         id="stop930" />
    </linearGradient>
  </defs>
  <path
     id="path6272"
     style="opacity:0.4;fill:url(#linearGradient6808);fill-opacity:1;stroke-width:3.75;stroke-linecap:round;stroke-linejoin:round"
     d="M 31.999999,17 A 15,15 0 0 0 17,31.999999 15,15 0 0 0 31.999999,47 15,15 0 0 0 47,31.999999 15,15 0 0 0 31.999999,17 Z m 0,11.249999 a 3.7500001,3.7500001 0 0 1 3.750002,3.75 3.7500001,3.7500001 0 0 1 -3.750002,3.75 3.7500001,3.7500001 0 0 1 -3.749998,-3.75 3.7500001,3.7500001 0 0 1 3.749998,-3.75 z" />
  <path
     id="path9538"
     style="fill:#d0d0d0;fill-opacity:1;stroke-width:3.75;stroke-linecap:round;stroke-linejoin:round"
     d="m 31.999999,18.874999 a 13.125,13.125 0 0 0 -13.124999,13.125 13.125,13.125 0 0 0 13.124999,13.125 13.125,13.125 0 0 0 13.125004,-13.125 13.125,13.125 0 0 0 -13.125004,-13.125 z m 0,2.8125 a 10.312499,10.312499 0 0 1 10.312503,10.3125 10.312499,10.312499 0 0 1 -10.312503,10.312503 10.312499,10.312499 0 0 1 -10.312501,-10.312503 10.312499,10.312499 0 0 1 10.312501,-10.3125 z" />
  <path
     id="path151229"
     style="fill:url(#linearGradient162118);fill-opacity:1;stroke-width:2.48563;stroke-linecap:round;stroke-linejoin:round"
     d="M 32 4 C 16.536043 4.000001 4.000001 16.536043 4 32 C 4 47.463958 16.536042 59.999999 32 60 C 47.463959 60 60 47.463959 60 32 C 59.999999 16.536042 47.463958 4 32 4 z M 32 20.75 A 11.249999 11.249999 0 0 1 43.25 32 A 11.249999 11.249999 0 0 1 32 43.25 A 11.249999 11.249999 0 0 1 20.75 32 A 11.249999 11.249999 0 0 1 32 20.75 z " />
  <path
     id="path151229-3-3"
     style="fill:url(#linearGradient1031);fill-opacity:1;stroke-width:2.48563;stroke-linecap:round;stroke-linejoin:round"
     d="M 43.224609 32.703125 A 11.249999 11.249999 0 0 1 32 43.25 A 11.249999 11.249999 0 0 1 24.052734 39.947266 L 12.201172 51.798828 C 17.26817 56.865827 24.268021 60 32 60 C 46.877146 60 59.037456 48.396147 59.939453 33.746094 L 43.224609 32.703125 z " />
  <path
     id="rect2336"
     style="opacity:0.5;fill:url(#linearGradient2498);fill-opacity:1;stroke-width:3.75;stroke-linecap:round;stroke-linejoin:round"
     d="M 25.208984 4.8339844 C 14.657279 7.4633584 6.4796934 16.077256 4.4785156 26.863281 L 20.775391 30.125 L 20.955078 30.154297 A 11.249999 11.249999 0 0 1 29.283203 21.126953 L 25.208984 4.8339844 z M 43.044922 33.845703 A 11.25 11.25 0 0 1 34.716797 42.873047 L 38.791016 59.166016 C 49.342722 56.536642 57.520307 47.922745 59.521484 37.136719 L 43.224609 33.875 L 43.044922 33.845703 z " />
  <path
     id="path7246"
     style="opacity:0.5;fill:url(#linearGradient7822);fill-opacity:1;stroke-width:4.99997;stroke-linecap:round;stroke-linejoin:round"
     d="m 32,27 a 4.9999993,4.9999993 0 0 0 -5,5 4.9999993,4.9999993 0 0 0 5,5 4.9999993,4.9999993 0 0 0 5,-5 4.9999993,4.9999993 0 0 0 -5,-5 z m 0,1 a 3.9999991,3.9999991 0 0 1 0.103516,0.002 3.9999998,3.9999998 0 0 1 0.0098,0 3.9999991,3.9999991 0 0 1 0.0918,0.0039 3.9999998,3.9999998 0 0 1 0.06836,0.0039 3.9999998,3.9999998 0 0 1 0.06836,0.0059 3.9999991,3.9999991 0 0 1 0.07031,0.0059 3.9999998,3.9999998 0 0 1 0.04297,0.0039 3.9999991,3.9999991 0 0 1 0.05859,0.0078 3.9999998,3.9999998 0 0 1 0.05469,0.0078 3.9999991,3.9999991 0 0 1 0.113282,0.01758 3.9999991,3.9999991 0 0 1 0.03516,0.0059 3.9999998,3.9999998 0 0 1 0.07813,0.01563 3.9999991,3.9999991 0 0 1 0.02344,0.0039 3.9999998,3.9999998 0 0 1 0.08789,0.01953 3.9999991,3.9999991 0 0 1 0.01172,0.0039 3.9999998,3.9999998 0 0 1 0.199219,0.05273 3.9999998,3.9999998 0 0 1 0.0098,0.002 3.9999991,3.9999991 0 0 1 0.08984,0.02734 3.9999998,3.9999998 0 0 1 0.01953,0.0059 3.9999991,3.9999991 0 0 1 0.07813,0.02734 3.9999998,3.9999998 0 0 1 0.0293,0.0098 3.9999991,3.9999991 0 0 1 0.08594,0.0332 3.9999998,3.9999998 0 0 1 0.02148,0.0078 3.9999991,3.9999991 0 0 1 0.105469,0.04297 3.9999991,3.9999991 0 0 1 0.09375,0.03906 3.9999998,3.9999998 0 0 1 0.01172,0.0059 3.9999991,3.9999991 0 0 1 0.0332,0.01563 3.9999998,3.9999998 0 0 1 0.07031,0.0332 3.9999991,3.9999991 0 0 1 0.02344,0.01172 3.9999998,3.9999998 0 0 1 0.07813,0.04102 3.9999991,3.9999991 0 0 1 0.09961,0.05469 3.9999991,3.9999991 0 0 1 0.0039,0.002 3.9999998,3.9999998 0 0 1 0.0293,0.01758 3.9999991,3.9999991 0 0 1 0.05859,0.0332 3.9999998,3.9999998 0 0 1 0.0078,0.0039 3.9999991,3.9999991 0 0 1 0.08008,0.05078 3.9999998,3.9999998 0 0 1 0.01563,0.0098 3.9999991,3.9999991 0 0 1 0.07031,0.04687 3.9999998,3.9999998 0 0 1 0.08594,0.05859 3.9999998,3.9999998 0 0 1 0.0332,0.02344 3.9999991,3.9999991 0 0 1 0.117188,0.08789 3.9999998,3.9999998 0 0 1 0.0625,0.05273 3.9999991,3.9999991 0 0 1 0.07422,0.06055 3.9999998,3.9999998 0 0 1 0.01367,0.01172 3.9999991,3.9999991 0 0 1 0.09766,0.08789 3.9999998,3.9999998 0 0 1 0.07031,0.06641 3.9999991,3.9999991 0 0 1 0.148438,0.152344 3.9999998,3.9999998 0 0 1 0.01172,0.01172 3.9999991,3.9999991 0 0 1 0.05664,0.06445 3.9999998,3.9999998 0 0 1 0.01953,0.02148 3.9999991,3.9999991 0 0 1 0.01172,0.01367 3.9999991,3.9999991 0 0 1 0.06055,0.07422 3.9999991,3.9999991 0 0 1 0.04102,0.04883 3.9999998,3.9999998 0 0 1 0.03125,0.03906 3.9999991,3.9999991 0 0 1 0.03125,0.04297 3.9999998,3.9999998 0 0 1 0.03711,0.04883 3.9999991,3.9999991 0 0 1 0.02344,0.0332 3.9999998,3.9999998 0 0 1 0.05859,0.08594 3.9999998,3.9999998 0 0 1 0.04687,0.07031 3.9999991,3.9999991 0 0 1 0.0098,0.01563 3.9999998,3.9999998 0 0 1 0.05078,0.08008 3.9999991,3.9999991 0 0 1 0.05469,0.0957 3.9999998,3.9999998 0 0 1 0.002,0.0039 3.9999991,3.9999991 0 0 1 0.05469,0.09961 3.9999991,3.9999991 0 0 1 0.04102,0.07813 3.9999998,3.9999998 0 0 1 0.01172,0.02344 3.9999991,3.9999991 0 0 1 0.0332,0.07031 3.9999998,3.9999998 0 0 1 0.01563,0.0332 3.9999991,3.9999991 0 0 1 0.0059,0.01172 3.9999991,3.9999991 0 0 1 0.03906,0.09375 3.9999991,3.9999991 0 0 1 0.04297,0.105469 3.9999998,3.9999998 0 0 1 0.0078,0.02148 3.9999991,3.9999991 0 0 1 0.0078,0.01953 3.9999998,3.9999998 0 0 1 0.02539,0.06641 3.9999991,3.9999991 0 0 1 0.0098,0.0293 3.9999998,3.9999998 0 0 1 0.02734,0.07813 3.9999991,3.9999991 0 0 1 0.0059,0.01953 3.9999998,3.9999998 0 0 1 0.02734,0.08984 3.9999991,3.9999991 0 0 1 0.002,0.0098 3.9999998,3.9999998 0 0 1 0.05273,0.199219 3.9999998,3.9999998 0 0 1 0.0039,0.01172 3.9999991,3.9999991 0 0 1 0.01953,0.08789 3.9999998,3.9999998 0 0 1 0.0039,0.02344 3.9999991,3.9999991 0 0 1 0.01563,0.07813 3.9999998,3.9999998 0 0 1 0.0059,0.03516 3.9999991,3.9999991 0 0 1 0.01758,0.113282 3.9999991,3.9999991 0 0 1 0.0078,0.05469 3.9999998,3.9999998 0 0 1 0.002,0.01172 3.9999991,3.9999991 0 0 1 0.0098,0.08984 3.9999998,3.9999998 0 0 1 0.0059,0.07031 3.9999991,3.9999991 0 0 1 0.0039,0.0332 3.9999998,3.9999998 0 0 1 0.002,0.03516 3.9999998,3.9999998 0 0 1 0.0039,0.06836 3.9999998,3.9999998 0 0 1 0.0039,0.0918 3.9999991,3.9999991 0 0 1 0.0015,0.112906 3.9999991,3.9999991 0 0 1 -0.01172,0.298828 3.9999998,3.9999998 0 0 1 -0.002,0.0098 3.9999998,3.9999998 0 0 1 -0.01367,0.138672 3.9999991,3.9999991 0 0 1 -0.02344,0.18164 3.9999998,3.9999998 0 0 1 -0.01953,0.101563 3.9999991,3.9999991 0 0 1 -0.04883,0.228515 3.9999998,3.9999998 0 0 1 -0.01953,0.07617 3.9999991,3.9999991 0 0 1 -0.0625,0.208985 3.9999998,3.9999998 0 0 1 -0.05273,0.152343 3.9999991,3.9999991 0 0 1 -0.04297,0.107422 3.9999998,3.9999998 0 0 1 -0.07813,0.181641 3.9999991,3.9999991 0 0 1 -0.07031,0.144531 3.9999998,3.9999998 0 0 1 -0.05859,0.109375 3.9999991,3.9999991 0 0 1 -0.09961,0.167969 3.9999998,3.9999998 0 0 1 -0.07227,0.115234 3.9999991,3.9999991 0 0 1 -0.109375,0.152344 3.9999998,3.9999998 0 0 1 -0.07422,0.09961 3.9999991,3.9999991 0 0 1 -0.117187,0.140625 3.9999998,3.9999998 0 0 1 -0.08008,0.09375 3.9999991,3.9999991 0 0 1 -0.222656,0.222657 3.9999998,3.9999998 0 0 1 -0.01172,0.01172 3.9999991,3.9999991 0 0 1 -0.09375,0.08008 3.9999991,3.9999991 0 0 1 -0.140625,0.117187 3.9999998,3.9999998 0 0 1 -0.09961,0.07422 3.9999991,3.9999991 0 0 1 -0.152344,0.109375 3.9999998,3.9999998 0 0 1 -0.115234,0.07227 3.9999991,3.9999991 0 0 1 -0.167969,0.09961 3.9999998,3.9999998 0 0 1 -0.109375,0.05859 3.9999991,3.9999991 0 0 1 -0.144531,0.07031 3.9999998,3.9999998 0 0 1 -0.181641,0.07813 3.9999991,3.9999991 0 0 1 -0.107422,0.04297 3.9999998,3.9999998 0 0 1 -0.152343,0.05273 3.9999991,3.9999991 0 0 1 -0.208985,0.0625 3.9999998,3.9999998 0 0 1 -0.07617,0.01953 3.9999991,3.9999991 0 0 1 -0.228515,0.04883 3.9999998,3.9999998 0 0 1 -0.101563,0.01953 3.9999991,3.9999991 0 0 1 -0.18164,0.02344 3.9999998,3.9999998 0 0 1 -0.138672,0.01367 3.9999998,3.9999998 0 0 1 -0.0098,0.002 3.9999991,3.9999991 0 0 1 -0.298743,0.01163 3.9999991,3.9999991 0 0 1 -0.308594,-0.01367 3.9999998,3.9999998 0 0 1 -0.138672,-0.01367 3.9999991,3.9999991 0 0 1 -0.18164,-0.02344 3.9999998,3.9999998 0 0 1 -0.101563,-0.01953 3.9999991,3.9999991 0 0 1 -0.228515,-0.04883 3.9999998,3.9999998 0 0 1 -0.07617,-0.01953 3.9999991,3.9999991 0 0 1 -0.208985,-0.0625 3.9999998,3.9999998 0 0 1 -0.152343,-0.05273 3.9999991,3.9999991 0 0 1 -0.107422,-0.04297 3.9999998,3.9999998 0 0 1 -0.181641,-0.07813 3.9999991,3.9999991 0 0 1 -0.144531,-0.07031 3.9999998,3.9999998 0 0 1 -0.109375,-0.05859 3.9999991,3.9999991 0 0 1 -0.167969,-0.09961 3.9999998,3.9999998 0 0 1 -0.115234,-0.07227 3.9999991,3.9999991 0 0 1 -0.152344,-0.109375 3.9999998,3.9999998 0 0 1 -0.09961,-0.07422 3.9999991,3.9999991 0 0 1 -0.140625,-0.117187 3.9999998,3.9999998 0 0 1 -0.105469,-0.0918 3.9999991,3.9999991 0 0 1 -0.222656,-0.222657 3.9999998,3.9999998 0 0 1 -0.08008,-0.09375 3.9999991,3.9999991 0 0 1 -0.117187,-0.140625 3.9999998,3.9999998 0 0 1 -0.07422,-0.09961 3.9999991,3.9999991 0 0 1 -0.109375,-0.152344 3.9999998,3.9999998 0 0 1 -0.07227,-0.115234 3.9999991,3.9999991 0 0 1 -0.09961,-0.167969 3.9999998,3.9999998 0 0 1 -0.05859,-0.109375 3.9999991,3.9999991 0 0 1 -0.07031,-0.144531 3.9999998,3.9999998 0 0 1 -0.07813,-0.181641 3.9999991,3.9999991 0 0 1 -0.04297,-0.107422 3.9999998,3.9999998 0 0 1 -0.05273,-0.152343 3.9999991,3.9999991 0 0 1 -0.0625,-0.208985 3.9999998,3.9999998 0 0 1 -0.01953,-0.07617 3.9999991,3.9999991 0 0 1 -0.04883,-0.228515 3.9999998,3.9999998 0 0 1 -0.01953,-0.101563 3.9999991,3.9999991 0 0 1 -0.02344,-0.18164 3.9999998,3.9999998 0 0 1 -0.01367,-0.138672 3.9999991,3.9999991 0 0 1 -0.01367,-0.308592 3.9999991,3.9999991 0 0 1 0.01367,-0.308594 3.9999998,3.9999998 0 0 1 0.01367,-0.138672 3.9999991,3.9999991 0 0 1 0.02344,-0.18164 3.9999998,3.9999998 0 0 1 0.01953,-0.101563 3.9999991,3.9999991 0 0 1 0.04883,-0.228515 3.9999998,3.9999998 0 0 1 0.01953,-0.07617 3.9999991,3.9999991 0 0 1 0.0625,-0.208985 3.9999998,3.9999998 0 0 1 0.05273,-0.152343 3.9999991,3.9999991 0 0 1 0.04297,-0.107422 3.9999998,3.9999998 0 0 1 0.07813,-0.181641 3.9999991,3.9999991 0 0 1 0.07031,-0.144531 3.9999998,3.9999998 0 0 1 0.05859,-0.109375 3.9999991,3.9999991 0 0 1 0.09961,-0.167969 3.9999998,3.9999998 0 0 1 0.07227,-0.115234 3.9999991,3.9999991 0 0 1 0.109375,-0.152344 3.9999998,3.9999998 0 0 1 0.07422,-0.09961 3.9999991,3.9999991 0 0 1 0.117187,-0.140625 3.9999998,3.9999998 0 0 1 0.0918,-0.105469 3.9999991,3.9999991 0 0 1 0.222657,-0.222656 3.9999998,3.9999998 0 0 1 0.09375,-0.08008 3.9999991,3.9999991 0 0 1 0.140625,-0.117187 3.9999998,3.9999998 0 0 1 0.09961,-0.07422 3.9999991,3.9999991 0 0 1 0.152344,-0.109375 3.9999998,3.9999998 0 0 1 0.115234,-0.07227 3.9999991,3.9999991 0 0 1 0.167969,-0.09961 3.9999998,3.9999998 0 0 1 0.109375,-0.05859 3.9999991,3.9999991 0 0 1 0.144531,-0.07031 3.9999998,3.9999998 0 0 1 0.181641,-0.07813 3.9999991,3.9999991 0 0 1 0.107422,-0.04297 3.9999998,3.9999998 0 0 1 0.152343,-0.05273 3.9999991,3.9999991 0 0 1 0.208985,-0.0625 3.9999998,3.9999998 0 0 1 0.07617,-0.01953 3.9999991,3.9999991 0 0 1 0.228515,-0.04883 3.9999998,3.9999998 0 0 1 0.101563,-0.01953 3.9999991,3.9999991 0 0 1 0.18164,-0.02344 3.9999998,3.9999998 0 0 1 0.138672,-0.01367 3.9999991,3.9999991 0 0 1 0.308592,-0.01367 z" />
  <path
     id="path7246-2"
     style="opacity:0.5;fill:url(#linearGradient10226);fill-opacity:1;stroke-width:8.99996;stroke-linecap:round;stroke-linejoin:round"
     d="m 32,23 c -4.970564,-1e-6 -9,4.029436 -9,9 -3e-6,4.970565 4.029435,9 9,9 4.970564,0 9.000004,-4.029436 9,-9 0,-4.970563 -4.029437,-9 -9,-9 z m 0,1 c 4.418277,2e-6 8,3.581723 8,8 0,4.418277 -3.581723,8 -8,8 -4.418279,0 -8.000001,-3.581721 -8,-8 0,-4.418279 3.581721,-8.000001 8,-8 z" />
  <path
     id="path151229-7"
     style="opacity:0.5;fill:url(#linearGradient11943);fill-opacity:1;stroke-width:2.48563;stroke-linecap:round;stroke-linejoin:round"
     d="M 7.2539062 18.898438 C 5.1793134 22.808419 4.0000003 27.265285 4 32 C 4 36.734716 5.1793135 41.191581 7.2539062 45.101562 L 22.072266 37.255859 C 21.209997 35.638035 20.755911 33.833257 20.75 32 C 20.756 30.166743 21.209997 28.361966 22.072266 26.744141 L 7.2539062 18.898438 z " />
  <path
     id="path151229-2"
     style="fill:#d0d0d0;fill-opacity:1;stroke-width:2.31992;stroke-linecap:round;stroke-linejoin:round"
     d="M 32 4 C 16.536043 4.0000011 4.0000011 16.536043 4 32 C 4 47.463958 16.536042 59.999999 32 60 C 47.463959 60 60 47.463959 60 32 C 59.999999 16.536042 47.463958 4 32 4 z M 32 5 C 46.911672 5.000001 58.999999 17.088328 59 32 C 59 46.911674 46.911673 58.999999 32 59 C 17.088326 58.999999 5 46.911673 5 32 C 5.000001 17.088328 17.088327 5.000002 32 5 z " />
  <g
     id="g1960"
     transform="matrix(-2.004396,2.004396,2.004396,2.004396,36.466455,19.684328)">
    <path
       id="path2749"
       style="fill:url(#linearGradient3051);fill-opacity:1;stroke-width:0.79375;stroke-linecap:round;stroke-linejoin:round"
       d="m 3.5061243,16.337689 c 1.2e-6,0.438376 0.3553743,0.793749 0.79375,0.79375 0.4383763,-1e-6 0.7937505,-0.355375 0.793751,-0.793751 l -1.8e-6,-0.529168 -1.587498,1e-6 z"
       sodipodi:nodetypes="cscccc" />
    <rect
       style="fill:url(#linearGradient2355);fill-opacity:1;stroke-width:0.79375;stroke-linecap:round;stroke-linejoin:round"
       id="rect1454"
       width="1.0583334"
       height="2.1166668"
       x="3.7707086"
       y="8.1356039" />
    <rect
       style="fill:url(#linearGradient3715);fill-opacity:1;stroke-width:0.665335;stroke-linecap:round;stroke-linejoin:round"
       id="rect1712"
       width="1.5875"
       height="5.8208332"
       x="3.506125"
       y="10.516855" />
    <path
       id="rect1868"
       style="fill:#4a5359;stroke-width:0.693776;stroke-linecap:round;stroke-linejoin:round"
       d="m 3.7707077,10.252271 h 1.0583329 c 0.1465808,10e-7 0.2645838,0.118005 0.2645838,0.264584 H 3.5061245 c 0,-0.146579 0.1180041,-0.264584 0.2645832,-0.264584 z"
       sodipodi:nodetypes="ssccs" />
  </g>
  <circle
     style="fill:url(#linearGradient5015);fill-opacity:1;stroke-width:2.12501;stroke-linecap:round;stroke-linejoin:round"
     id="path4927"
     cx="-35.499996"
     cy="35.5"
     r="12.75"
     transform="scale(-1,1)" />
  <path
     id="path896"
     style="fill:url(#linearGradient984);fill-opacity:1;stroke-width:3.375;stroke-linecap:round;stroke-linejoin:round"
     d="m 35.5,22 c 7.455836,0 13.499998,6.044163 13.499998,13.5 0,7.455839 -6.044162,13.499999 -13.499998,13.499999 C 28.044164,48.999999 22,42.955839 22,35.5 22,28.044163 28.044164,22 35.5,22 Z m 0,2.5 c -6.075129,0 -11.000001,4.924873 -11.000001,11 0,6.075125 4.924872,11.000001 11.000001,11.000001 6.075126,0 11,-4.924876 11,-11.000001 0,-6.075127 -4.924874,-11 -11,-11 z" />
  <path
     id="path1102"
     style="fill:#677c81;fill-opacity:1;stroke-width:3.28572;stroke-linecap:round;stroke-linejoin:round"
     d="m 35.5,24 c 6.351265,1e-6 11.499997,5.148732 11.499997,11.5 0,6.351269 -5.148732,11.499998 -11.499997,11.500002 C 29.148731,46.999998 24.000001,41.851269 23.999998,35.5 23.999998,29.148731 29.148731,24.000001 35.5,24 Z m 0,1 C 29.701014,25 25,29.701017 25,35.5 c 0,5.798985 4.701014,10.499999 10.5,10.499999 5.798982,0 10.499999,-4.701014 10.499999,-10.499999 C 45.999999,29.701017 41.298982,25 35.5,25 Z" />
</svg>
