<?xml version="1.0" encoding="UTF-8" standalone="no"?>
<!-- Created with Inkscape (http://www.inkscape.org/) -->

<svg
   width="64"
   height="64"
   viewBox="0 0 64 64"
   version="1.1"
   id="svg364"
   inkscape:version="1.2.2 (1:1.2.2+202305151914+b0a8486541)"
   sodipodi:docname="youtube.svg"
   xmlns:inkscape="http://www.inkscape.org/namespaces/inkscape"
   xmlns:sodipodi="http://sodipodi.sourceforge.net/DTD/sodipodi-0.dtd"
   xmlns:xlink="http://www.w3.org/1999/xlink"
   xmlns="http://www.w3.org/2000/svg"
   xmlns:svg="http://www.w3.org/2000/svg">
  <sodipodi:namedview
     id="namedview366"
     pagecolor="#ffffff"
     bordercolor="#000000"
     borderopacity="0.25"
     inkscape:showpageshadow="2"
     inkscape:pageopacity="0.0"
     inkscape:pagecheckerboard="0"
     inkscape:deskcolor="#d1d1d1"
     inkscape:document-units="px"
     showgrid="false"
     inkscape:zoom="12.59375"
     inkscape:cx="32"
     inkscape:cy="32"
     inkscape:window-width="1920"
     inkscape:window-height="1008"
     inkscape:window-x="0"
     inkscape:window-y="0"
     inkscape:window-maximized="1"
     inkscape:current-layer="svg364" />
  <defs
     id="defs361">
    <linearGradient
       inkscape:collect="always"
       id="linearGradient1284">
      <stop
         style="stop-color:#e94f11;stop-opacity:1;"
         offset="0"
         id="stop1280" />
      <stop
         style="stop-color:#c62300;stop-opacity:1;"
         offset="1"
         id="stop1282" />
    </linearGradient>
    <linearGradient
       inkscape:collect="always"
       xlink:href="#linearGradient1284"
       id="linearGradient1297"
       x1="4"
       y1="12.000001"
       x2="60"
       y2="52"
       gradientUnits="userSpaceOnUse" />
    <linearGradient
       inkscape:collect="always"
       xlink:href="#linearGradient3143"
       id="linearGradient4303"
       x1="8.9958334"
       y1="12.832399"
       x2="5.8208337"
       y2="7.0115657"
       gradientUnits="userSpaceOnUse"
       gradientTransform="matrix(4.1994753,0,0,3.7795275,-3.6666674,-4.5004046)" />
    <linearGradient
       inkscape:collect="always"
       id="linearGradient3143">
      <stop
         style="stop-color:#d2d2d2;stop-opacity:1;"
         offset="0"
         id="stop3139" />
      <stop
         style="stop-color:#ffffff;stop-opacity:1"
         offset="1"
         id="stop3141" />
    </linearGradient>
  </defs>
  <path
     d="M 27.395341,51.964049 C 18.139423,51.784535 14.38258,51.626031 12.085292,51.318105 10.400602,51.092281 9.5732583,50.872129 8.6401443,50.401363 7.0989966,49.623849 6.1405286,48.539648 5.4488309,46.791408 4.8164229,45.19307 4.5589209,43.923584 4.3226009,41.239 4.0559149,38.20943 4.035069,37.66097 4.007377,32.94067 c -0.03262,-5.551085 0.03304,-7.370127 0.3983699,-11.054637 0.191576,-1.931608 0.470792,-3.215323 0.995442,-4.57662 0.4778058,-1.239707 0.9140317,-1.923887 1.7073697,-2.677847 0.9970799,-0.947588 2.0921177,-1.523626 3.4745054,-1.827715 2.063376,-0.453892 11.389517,-0.80385 21.421749,-0.80385 10.032231,0 19.358373,0.349958 21.421747,0.80385 1.492218,0.328253 2.58741,0.934569 3.655973,2.024002 0.836332,0.852663 1.267084,1.627447 1.779694,3.201192 0.528192,1.621562 0.730758,3.056632 1.03089,7.303322 0.14252,2.016692 0.1425,11.300191 0,13.315891 -0.16676,2.358052 -0.371392,4.457956 -0.507654,5.209342 -0.350308,1.93178 -1.038324,3.74046 -1.814022,4.768814 -0.532195,0.70553 -1.582783,1.546181 -2.461297,1.969457 -0.889574,0.428608 -1.73712,0.641098 -3.103448,0.77811 -4.233894,0.424556 -17.162839,0.734544 -24.611299,0.590068 z"
     style="fill:url(#linearGradient1297);fill-opacity:1"
     id="path304" />
  <path
     style="color:#000000;fill:url(#linearGradient4303);fill-opacity:1;stroke-width:3.98429;stroke-linecap:round;stroke-linejoin:round;-inkscape-stroke:none"
     d="M 23.910506,19.662736 C 23.352041,19.918693 23.000282,20.434926 23,20.998962 v 21.99975 c 0.0011,1.226627 1.548468,1.933708 2.649487,1.210722 L 42.317452,33.20956 c 0.910064,-0.599361 0.910064,-1.822084 0,-2.421449 L 25.649487,19.788237 c -0.507128,-0.333274 -1.179326,-0.381786 -1.738981,-0.125501 z"
     id="path3173"
     sodipodi:nodetypes="cccccccc" />
</svg>
