<?xml version="1.0" encoding="UTF-8" standalone="no"?>
<!-- Created with Inkscape (http://www.inkscape.org/) -->

<svg
   width="32"
   height="32"
   viewBox="0 0 32 32"
   version="1.1"
   id="svg2112"
   inkscape:version="1.2.1 (9c6d41e410, 2022-07-14, custom)"
   sodipodi:docname="accessories-character-map.svg"
   xmlns:inkscape="http://www.inkscape.org/namespaces/inkscape"
   xmlns:sodipodi="http://sodipodi.sourceforge.net/DTD/sodipodi-0.dtd"
   xmlns:xlink="http://www.w3.org/1999/xlink"
   xmlns="http://www.w3.org/2000/svg"
   xmlns:svg="http://www.w3.org/2000/svg">
  <sodipodi:namedview
     id="namedview2114"
     pagecolor="#ffffff"
     bordercolor="#000000"
     borderopacity="0.25"
     inkscape:showpageshadow="2"
     inkscape:pageopacity="0.0"
     inkscape:pagecheckerboard="0"
     inkscape:deskcolor="#d1d1d1"
     inkscape:document-units="px"
     showgrid="false"
     inkscape:zoom="25.0625"
     inkscape:cx="16"
     inkscape:cy="16"
     inkscape:window-width="1920"
     inkscape:window-height="1011"
     inkscape:window-x="0"
     inkscape:window-y="0"
     inkscape:window-maximized="1"
     inkscape:current-layer="svg2112" />
  <defs
     id="defs2109">
    <linearGradient
       inkscape:collect="always"
       xlink:href="#linearGradient23571"
       id="linearGradient23573"
       x1="0.5291667"
       y1="5.0270834"
       x2="16.404167"
       y2="19.84375"
       gradientUnits="userSpaceOnUse"
       gradientTransform="matrix(1.7637795,0,0,1.8897637,1.0666667,-7.5)" />
    <linearGradient
       inkscape:collect="always"
       id="linearGradient23571">
      <stop
         style="stop-color:#b6bec5;stop-opacity:1;"
         offset="0"
         id="stop23567" />
      <stop
         style="stop-color:#9ba3aa;stop-opacity:1"
         offset="1"
         id="stop23569" />
    </linearGradient>
  </defs>
  <rect
     style="fill:url(#linearGradient23573);fill-opacity:1;stroke-width:0.483045;stroke-linejoin:round"
     id="rect858"
     width="28"
     height="28"
     x="2"
     y="2"
     ry="4" />
  <rect
     style="opacity:0.2;fill:#000000;fill-opacity:1;stroke-width:0.5;stroke-linecap:round;stroke-linejoin:round"
     id="rect883"
     width="24"
     height="24"
     x="4"
     y="5"
     ry="2" />
  <rect
     style="fill:#edeef0;fill-opacity:1;stroke-width:0.5;stroke-linecap:round;stroke-linejoin:round"
     id="rect415"
     width="24"
     height="24"
     x="4"
     y="4"
     ry="2" />
  <path
     d="m 20.693359,24.917968 h -1.921875 v -1.59375 h -0.04687 c -0.40625,0.601563 -0.921875,1.066407 -1.546875,1.394532 -0.617187,0.320312 -1.300781,0.480468 -2.050781,0.480468 -1.195312,0 -2.132812,-0.320312 -2.812499,-0.960937 -0.67188,-0.640625 -1.007818,-1.441407 -1.007818,-2.402344 0,-1.125 0.351563,-1.996094 1.054688,-2.613281 0.703125,-0.625 1.6875,-1.011719 2.953124,-1.160157 l 3.457031,-0.398437 v -0.761719 c 0,-0.867187 -0.226562,-1.515625 -0.679687,-1.945312 -0.445313,-0.4375 -1.058594,-0.65625 -1.839844,-0.65625 -0.742187,0 -1.355469,0.167969 -1.839844,0.503907 -0.484374,0.328125 -0.855468,0.789062 -1.11328,1.382812 l -1.675782,-0.691407 c 0.390625,-0.90625 0.992188,-1.609374 1.804688,-2.109374 0.820312,-0.5 1.796874,-0.75 2.929687,-0.75 1.398437,0 2.46875,0.375 3.210937,1.125 0.75,0.742187 1.125,1.785155 1.125,3.128905 z m -1.921875,-4.875 v -0.820312 l -3.328125,0.375 c -0.742187,0.08594 -1.289062,0.300781 -1.640624,0.644531 -0.351563,0.335938 -0.527344,0.785156 -0.527344,1.347656 0,0.617188 0.203125,1.113282 0.609375,1.488282 0.40625,0.367187 0.9375,0.550782 1.59375,0.550782 0.984375,0 1.777343,-0.335938 2.378906,-1.007813 0.609375,-0.679687 0.914062,-1.539062 0.914062,-2.578126 z M 17.822266,10.644531 H 16.333984 L 13.263672,6.8007815 h 1.96875 z"
     style="font-size:48px;font-family:'Segoe UI Variable Static Display';-inkscape-font-specification:'Segoe UI Variable Static Display';text-align:center;text-anchor:middle;fill:#666666;stroke-width:0.5;stroke-linecap:round;stroke-linejoin:round"
     id="path1055" />
</svg>
