<?xml version="1.0" encoding="UTF-8" standalone="no"?>
<!-- Created with Inkscape (http://www.inkscape.org/) -->

<svg
   width="32"
   height="32"
   viewBox="0 0 32 32"
   version="1.1"
   id="svg484"
   inkscape:version="1.2.1 (9c6d41e410, 2022-07-14, custom)"
   sodipodi:docname="accessories-text-editor.svg"
   xmlns:inkscape="http://www.inkscape.org/namespaces/inkscape"
   xmlns:sodipodi="http://sodipodi.sourceforge.net/DTD/sodipodi-0.dtd"
   xmlns:xlink="http://www.w3.org/1999/xlink"
   xmlns="http://www.w3.org/2000/svg"
   xmlns:svg="http://www.w3.org/2000/svg">
  <sodipodi:namedview
     id="namedview486"
     pagecolor="#ffffff"
     bordercolor="#000000"
     borderopacity="0.25"
     inkscape:showpageshadow="2"
     inkscape:pageopacity="0.0"
     inkscape:pagecheckerboard="0"
     inkscape:deskcolor="#d1d1d1"
     inkscape:document-units="px"
     showgrid="false"
     inkscape:zoom="25.625"
     inkscape:cx="15.980488"
     inkscape:cy="16"
     inkscape:window-width="1920"
     inkscape:window-height="1029"
     inkscape:window-x="0"
     inkscape:window-y="0"
     inkscape:window-maximized="1"
     inkscape:current-layer="svg484" />
  <defs
     id="defs481">
    <linearGradient
       inkscape:collect="always"
       xlink:href="#linearGradient2818"
       id="linearGradient3170"
       x1="8.4666729"
       y1="14.287501"
       x2="8.4666729"
       y2="16.404167"
       gradientUnits="userSpaceOnUse"
       gradientTransform="matrix(1.7322833,0,0,1.8897635,1.3333334,-1.9999992)" />
    <linearGradient
       inkscape:collect="always"
       id="linearGradient2818">
      <stop
         style="stop-color:#000000;stop-opacity:0.40000001"
         offset="0"
         id="stop2814" />
      <stop
         style="stop-color:#000000;stop-opacity:0;"
         offset="1"
         id="stop2816" />
    </linearGradient>
    <linearGradient
       inkscape:collect="always"
       xlink:href="#linearGradient2818"
       id="linearGradient2820"
       x1="8.466671"
       y1="13.229167"
       x2="8.466671"
       y2="15.345834"
       gradientUnits="userSpaceOnUse"
       gradientTransform="matrix(1.7322833,0,0,1.8897635,1.3333334,-1.9999992)" />
    <linearGradient
       inkscape:collect="always"
       xlink:href="#linearGradient1552"
       id="linearGradient1554"
       x1="2.1166668"
       y1="10.318751"
       x2="14.816668"
       y2="10.318751"
       gradientUnits="userSpaceOnUse"
       gradientTransform="matrix(1.7322835,0,0,1.671714,1.3333328,-4.1921631)" />
    <linearGradient
       inkscape:collect="always"
       id="linearGradient1552">
      <stop
         style="stop-color:#75d4f0;stop-opacity:1;"
         offset="0"
         id="stop1548" />
      <stop
         style="stop-color:#40b0d1;stop-opacity:1"
         offset="1"
         id="stop1550" />
    </linearGradient>
  </defs>
  <rect
     style="fill:#974711;fill-opacity:1;stroke-width:0.379582"
     id="rect939"
     width="21.999998"
     height="24.999996"
     x="5"
     y="5"
     ry="0.99999994" />
  <rect
     style="fill:url(#linearGradient3170);fill-opacity:1;stroke-width:0.478711"
     id="rect3082"
     width="21.999998"
     height="3.9999998"
     x="5"
     y="25" />
  <rect
     style="fill:#ffffff;fill-opacity:1;stroke-width:0.478711"
     id="rect1934"
     width="22"
     height="24.999998"
     x="5"
     y="3"
     ry="0.99999994" />
  <rect
     style="fill:url(#linearGradient2820);fill-opacity:1;stroke-width:0.478711"
     id="rect2710"
     width="21.999998"
     height="3.9999998"
     x="5"
     y="23.000002" />
  <rect
     style="fill:url(#linearGradient1554);fill-opacity:1;stroke-width:0.450248"
     id="rect1392"
     width="22"
     height="24"
     x="5"
     y="2.0001445"
     ry="1" />
  <path
     id="rect2060"
     style="fill:#006e8f;stroke-width:0.500001"
     d="M 8.4609383,1.4430667e-4 C 7.648028,0.02060331 7.0000004,0.68212951 7.0000004,1.5001443 v 2.0000004 c 0,0.8309995 0.6690006,1.5000001 1.4999999,1.5000001 C 9.3309993,5.0001448 10,4.3311442 10,3.5001447 V 1.5001443 C 10,0.66914511 9.3309993,1.4430667e-4 8.5000003,1.4430667e-4 c -0.013,0 -0.02615,-3.2469e-4 -0.03906,0 z m 4.9999987,0 C 12.648028,0.02060231 12,0.68212931 12,1.5001443 v 2.0000004 c 0,0.8309995 0.669001,1.5000001 1.5,1.5000001 0.830999,0 1.5,-0.6690006 1.5,-1.5000001 V 1.5001443 C 15,0.66914491 14.330999,1.4430667e-4 13.5,1.4430667e-4 c -0.013,0 -0.02616,-3.2469e-4 -0.03906,0 z m 5,0 C 17.648028,0.02060331 17,0.68212931 17,1.5001443 v 2.0000004 c 0,0.8309995 0.669,1.5000001 1.5,1.5000001 0.830999,0 1.5,-0.6690006 1.5,-1.5000001 V 1.5001443 C 20,0.66914491 19.330999,1.4430667e-4 18.5,1.4430667e-4 c -0.013,0 -0.02615,-3.2469e-4 -0.03906,0 z m 5,0 C 22.648027,0.02060331 22,0.68212911 22,1.5001443 v 2.0000004 c 0,0.8309999 0.669,1.5000001 1.5,1.5000001 0.830998,0 1.5,-0.6690002 1.5,-1.5000001 V 1.5001443 C 25,0.66914471 24.330998,1.4430667e-4 23.5,1.4430667e-4 c -0.013,0 -0.02615,-3.2469e-4 -0.03906,0 z" />
  <path
     id="rect1581"
     style="fill:#006e8f;fill-opacity:1;stroke-width:0.999999"
     d="m 9.0000003,9.000001 v 2 H 23 v -2 z m 0,5 v 2 H 23 v -2 z m 0,4.999999 v 2.000001 H 23 V 19 Z"
     sodipodi:nodetypes="ccccccccccccccc" />
</svg>
