<?xml version="1.0" encoding="UTF-8" standalone="no"?>
<!-- Created with Inkscape (http://www.inkscape.org/) -->

<svg
   width="32"
   height="32"
   viewBox="0 0 32 32.000001"
   version="1.1"
   id="svg5"
   inkscape:version="1.2.1 (9c6d41e410, 2022-07-14, custom)"
   sodipodi:docname="calligrasheets.svg"
   xmlns:inkscape="http://www.inkscape.org/namespaces/inkscape"
   xmlns:sodipodi="http://sodipodi.sourceforge.net/DTD/sodipodi-0.dtd"
   xmlns="http://www.w3.org/2000/svg"
   xmlns:svg="http://www.w3.org/2000/svg">
  <sodipodi:namedview
     id="namedview7"
     pagecolor="#ffffff"
     bordercolor="#000000"
     borderopacity="0.25"
     inkscape:showpageshadow="2"
     inkscape:pageopacity="0.0"
     inkscape:pagecheckerboard="0"
     inkscape:deskcolor="#d1d1d1"
     inkscape:document-units="px"
     showgrid="false"
     inkscape:zoom="25.3125"
     inkscape:cx="16"
     inkscape:cy="16"
     inkscape:window-width="1920"
     inkscape:window-height="1012"
     inkscape:window-x="0"
     inkscape:window-y="0"
     inkscape:window-maximized="1"
     inkscape:current-layer="svg5" />
  <defs
     id="defs2" />
  <rect
     style="fill:#26c55c;fill-opacity:1;stroke-linecap:round;stroke-linejoin:round"
     id="rect234"
     width="27"
     height="22"
     x="2"
     y="5"
     ry="2" />
  <path
     id="rect344"
     style="fill:#248c43;fill-opacity:1;stroke-linecap:round;stroke-linejoin:round"
     d="m 2,10 v 9 h 9 v -9 z m 9,9 v 9 h 9 v -9 z" />
  <path
     id="rect379"
     style="fill:#32ae58;fill-opacity:1;stroke-linecap:round;stroke-linejoin:round"
     d="m 11,10 v 9 h 9 v -9 z m 9,9 v 9 h 7 c 1.107998,0 2,-0.892002 2,-2 v -7 z" />
  <path
     id="rect387"
     style="fill:#27733e;fill-opacity:1;stroke-linecap:round;stroke-linejoin:round"
     d="m 2,19 v 7 c 0,1.107999 0.8920011,2 2,2 h 7 v -9 z" />
  <path
     id="rect392"
     style="fill:#0faf3d;stroke-linecap:round;stroke-linejoin:round"
     d="m 4,4 h 23 c 1.108,0 2,0.892 2,2 v 4 H 2 V 6 C 2,4.892 2.892,4 4,4 Z"
     sodipodi:nodetypes="sssccss" />
</svg>
