<?xml version="1.0" encoding="UTF-8" standalone="no"?>
<!-- Created with Inkscape (http://www.inkscape.org/) -->

<svg
   width="32"
   height="32"
   viewBox="0 0 32 32"
   version="1.1"
   id="svg2112"
   inkscape:version="1.2.2 (1:1.2.2+202305151914+b0a8486541)"
   sodipodi:docname="github-desktop.svg"
   xmlns:inkscape="http://www.inkscape.org/namespaces/inkscape"
   xmlns:sodipodi="http://sodipodi.sourceforge.net/DTD/sodipodi-0.dtd"
   xmlns:xlink="http://www.w3.org/1999/xlink"
   xmlns="http://www.w3.org/2000/svg"
   xmlns:svg="http://www.w3.org/2000/svg">
  <sodipodi:namedview
     id="namedview2114"
     pagecolor="#ffffff"
     bordercolor="#000000"
     borderopacity="0.25"
     inkscape:showpageshadow="2"
     inkscape:pageopacity="0.0"
     inkscape:pagecheckerboard="0"
     inkscape:deskcolor="#d1d1d1"
     inkscape:document-units="px"
     showgrid="false"
     inkscape:zoom="25.9375"
     inkscape:cx="14.438554"
     inkscape:cy="16"
     inkscape:window-width="1920"
     inkscape:window-height="1008"
     inkscape:window-x="0"
     inkscape:window-y="0"
     inkscape:window-maximized="1"
     inkscape:current-layer="svg2112" />
  <defs
     id="defs2109">
    <linearGradient
       inkscape:collect="always"
       xlink:href="#linearGradient1736"
       id="linearGradient14331"
       x1="10.054167"
       y1="7.9375"
       x2="38.837044"
       y2="38.861431"
       gradientUnits="userSpaceOnUse"
       gradientTransform="matrix(0.66666666,0,0,0.66666666,1.6886719e-6,8.6154297e-7)" />
    <linearGradient
       inkscape:collect="always"
       id="linearGradient1736">
      <stop
         style="stop-color:#a578e1;stop-opacity:1;"
         offset="0"
         id="stop1732" />
      <stop
         style="stop-color:#5046a0;stop-opacity:1;"
         offset="1"
         id="stop1734" />
    </linearGradient>
  </defs>
  <circle
     style="fill:url(#linearGradient14331);fill-opacity:1;stroke-width:1.33333;stroke-linecap:round"
     id="path14323"
     cx="16"
     cy="16"
     r="14" />
  <path
     d="m 23.410156,8.702351 c -0.42608,-0.0199 -1.625553,0.3731375 -3.501953,1.678508 -1.084748,-0.327092 -2.313036,-0.3964274 -3.5,-0.3808594 -1.012438,0.01328 -2.36872,0.05877 -3.478515,0.3808594 C 11.052687,9.0755588 10.094469,8.6842042 9.6679687,8.7043041 9.5257686,8.7110041 9.4570311,8.7316481 9.4570311,8.7316481 8.7434611,10.582748 9.194928,12.251697 9.330078,12.591797 c -0.83826,0.93961 -1.3300781,2.141375 -1.3300781,3.609375 0,5.1538 3.3402001,6.50731 6.2500001,6.84671 -0.37408,0.33605 -1.109456,0.829612 -1.228516,1.698212 -0.74655,0.3443 -2.249068,0.73677 -3.4179685,-1.31836 0,0 -0.6924625,-1.291818 -2.0078125,-1.386718 0,0 -1.2777456,-0.01556 -0.087891,0.818359 0,0 0.8589281,0.412857 1.4550781,1.966797 0,0 0.3842069,2.816406 4.0292979,2.003906 0.0023,0.394994 0.0036,1.575305 0.0059,2.841797 C 13.965574,29.881919 14.967753,30 16,30 c 1.392334,0 2.732494,-0.208917 4,-0.583984 0.0026,-1.783579 0.0059,-3.342647 0.0059,-4.087891 0,-1.2542 -0.518471,-1.874708 -0.988281,-2.290008 C 21.936178,22.705377 25,21.366219 25,16.199219 c 0,-1.468 -0.408217,-2.667822 -1.248047,-3.607422 0.13435,-0.34018 0.586264,-2.009049 -0.128906,-3.8601489 0,0 -0.06891,-0.022667 -0.210938,-0.029297 z"
     style="fill:#ffffff"
     id="path2999" />
</svg>
