<?xml version="1.0" encoding="UTF-8" standalone="no"?>
<!-- Created with Inkscape (http://www.inkscape.org/) -->

<svg
   width="32"
   height="32"
   viewBox="0 0 32 32"
   version="1.1"
   id="svg2535"
   inkscape:version="1.2.1 (9c6d41e410, 2022-07-14, custom)"
   sodipodi:docname="gnome-calculator.svg"
   xmlns:inkscape="http://www.inkscape.org/namespaces/inkscape"
   xmlns:sodipodi="http://sodipodi.sourceforge.net/DTD/sodipodi-0.dtd"
   xmlns:xlink="http://www.w3.org/1999/xlink"
   xmlns="http://www.w3.org/2000/svg"
   xmlns:svg="http://www.w3.org/2000/svg">
  <sodipodi:namedview
     id="namedview2537"
     pagecolor="#ffffff"
     bordercolor="#000000"
     borderopacity="0.25"
     inkscape:showpageshadow="2"
     inkscape:pageopacity="0.0"
     inkscape:pagecheckerboard="0"
     inkscape:deskcolor="#d1d1d1"
     inkscape:document-units="px"
     showgrid="false"
     inkscape:zoom="26.65625"
     inkscape:cx="16"
     inkscape:cy="16"
     inkscape:window-width="1920"
     inkscape:window-height="1029"
     inkscape:window-x="0"
     inkscape:window-y="0"
     inkscape:window-maximized="1"
     inkscape:current-layer="svg2535"
     showguides="false"
     inkscape:lockguides="true" />
  <defs
     id="defs2532">
    <linearGradient
       inkscape:collect="always"
       xlink:href="#linearGradient10632"
       id="linearGradient986"
       x1="2.9104166"
       y1="0.5291667"
       x2="5.9287829"
       y2="3.7041667"
       gradientUnits="userSpaceOnUse"
       gradientTransform="matrix(6.9574055,0,0,8.8188975,-14.248947,-2.6666669)" />
    <linearGradient
       inkscape:collect="always"
       xlink:href="#linearGradient11400"
       id="linearGradient1114"
       x1="2.9104166"
       y1="1.0054166"
       x2="4.945673"
       y2="1.9125595"
       gradientUnits="userSpaceOnUse"
       gradientTransform="matrix(8.3527562,0,0,5.5118109,-16.31,-1.5416662)" />
    <linearGradient
       inkscape:collect="always"
       xlink:href="#linearGradient10590"
       id="linearGradient2162"
       x1="2.6458335"
       y1="2.3812501"
       x2="3.1750002"
       y2="3.7041669"
       gradientUnits="userSpaceOnUse"
       gradientTransform="matrix(9.4488178,0,0,8.3149605,-4.9999993,-2.8000004)" />
    <linearGradient
       inkscape:collect="always"
       id="linearGradient10590">
      <stop
         style="stop-color:#d38100;stop-opacity:1;"
         offset="0"
         id="stop10586" />
      <stop
         style="stop-color:#e16300;stop-opacity:1;"
         offset="1"
         id="stop10588" />
    </linearGradient>
    <linearGradient
       inkscape:collect="always"
       id="linearGradient11400">
      <stop
         style="stop-color:#92bf87;stop-opacity:1;"
         offset="0"
         id="stop11396" />
      <stop
         style="stop-color:#66875b;stop-opacity:1;"
         offset="1"
         id="stop11398" />
    </linearGradient>
    <linearGradient
       inkscape:collect="always"
       id="linearGradient10632">
      <stop
         style="stop-color:#e6e6e4;stop-opacity:1;"
         offset="0"
         id="stop10628" />
      <stop
         style="stop-color:#bcbcb9;stop-opacity:1;"
         offset="1"
         id="stop10630" />
    </linearGradient>
  </defs>
  <rect
     style="fill:url(#linearGradient986);fill-opacity:1.0;stroke-width:4.14499;stroke-linecap:round;stroke-linejoin:round;stroke-dasharray:49.7398, 4.14499"
     id="rect846"
     width="21"
     height="28"
     x="6"
     y="2"
     ry="2" />
  <rect
     style="fill:url(#linearGradient1114);fill-opacity:1.0;stroke-width:1.79523"
     id="rect960"
     width="17"
     height="5"
     x="8"
     y="4" />
  <rect
     style="fill:url(#linearGradient2162);fill-opacity:1.0;stroke-width:2.34519"
     id="rect473"
     width="5"
     height="11"
     x="20"
     y="17"
     ry="2.5" />
  <path
     id="path9349"
     style="fill:#4f4f4f;fill-opacity:1;stroke-width:0.714285;stroke-linecap:round"
     d="M 10.5 17 C 9.1192894 17 8 18.119289 8 19.5 C 8 20.88071 9.1192894 22 10.5 22 C 11.88071 22 13 20.88071 13 19.5 C 13 18.119289 11.88071 17 10.5 17 z M 16.5 17 C 15.11929 17 14 18.119289 14 19.5 C 14 20.88071 15.11929 22 16.5 22 C 17.880711 22 19 20.88071 19 19.5 C 19 18.119289 17.880711 17 16.5 17 z M 10.5 23 C 9.1192899 23 8 24.119289 8 25.5 C 8 26.88071 9.1192899 28 10.5 28 C 11.880711 28 13 26.88071 13 25.5 C 13 24.119289 11.880711 23 10.5 23 z M 16.5 23 C 15.119289 23 14 24.119289 14 25.5 C 14 26.88071 15.119289 28 16.5 28 C 17.88071 28 19 26.88071 19 25.5 C 19 24.119289 17.88071 23 16.5 23 z " />
  <path
     id="path8258"
     style="fill:#909090;fill-opacity:1;stroke-width:0.714286;stroke-linecap:round"
     d="M 10.5,11 C 9.1192882,11 8.0000003,12.119288 8.0000003,13.5 8.0000003,14.880712 9.1192882,16 10.5,16 11.880712,16 13,14.880712 13,13.5 13,12.119288 11.880712,11 10.5,11 Z m 6,0 C 15.119288,11 14,12.119288 14,13.5 14,14.880712 15.119288,16 16.5,16 17.880712,16 19,14.880712 19,13.5 19,12.119288 17.880712,11 16.5,11 Z m 6,0 C 21.119288,11 20,12.119288 20,13.5 20,14.880712 21.119288,16 22.5,16 23.880712,16 25,14.880712 25,13.5 25,12.119288 23.880712,11 22.5,11 Z"
     sodipodi:nodetypes="sssssssssssssss" />
</svg>
