<?xml version="1.0" encoding="UTF-8" standalone="no"?>
<!-- Created with Inkscape (http://www.inkscape.org/) -->

<svg
   width="32"
   height="32"
   viewBox="0 0 32 32"
   version="1.1"
   id="svg5"
   inkscape:version="1.2 (1:1.2.1+202207142221+cd75a1ee6d)"
   sodipodi:docname="google-chrome.svg"
   xmlns:inkscape="http://www.inkscape.org/namespaces/inkscape"
   xmlns:sodipodi="http://sodipodi.sourceforge.net/DTD/sodipodi-0.dtd"
   xmlns:xlink="http://www.w3.org/1999/xlink"
   xmlns="http://www.w3.org/2000/svg"
   xmlns:svg="http://www.w3.org/2000/svg">
  <sodipodi:namedview
     id="namedview7"
     pagecolor="#ffffff"
     bordercolor="#666666"
     borderopacity="1.0"
     inkscape:pageshadow="2"
     inkscape:pageopacity="0.0"
     inkscape:pagecheckerboard="0"
     inkscape:document-units="px"
     showgrid="false"
     units="px"
     inkscape:zoom="26.0625"
     inkscape:cx="15.980815"
     inkscape:cy="16"
     inkscape:window-width="1920"
     inkscape:window-height="1012"
     inkscape:window-x="0"
     inkscape:window-y="0"
     inkscape:window-maximized="1"
     inkscape:current-layer="svg5"
     inkscape:showpageshadow="2"
     inkscape:deskcolor="#d1d1d1" />
  <defs
     id="defs2">
    <linearGradient
       inkscape:collect="always"
       xlink:href="#linearGradient12495"
       id="linearGradient12497"
       x1="3.7041574"
       y1="5.15939"
       x2="8.9958239"
       y2="5.15939"
       gradientUnits="userSpaceOnUse"
       gradientTransform="matrix(3.112552,0,0,3.112552,-3.7647062,-3.764682)" />
    <linearGradient
       inkscape:collect="always"
       id="linearGradient12495">
      <stop
         style="stop-color:#db3328;stop-opacity:1;"
         offset="0"
         id="stop12491" />
      <stop
         style="stop-color:#e53d30;stop-opacity:1"
         offset="1"
         id="stop12493" />
    </linearGradient>
    <linearGradient
       inkscape:collect="always"
       xlink:href="#linearGradient13171"
       id="linearGradient13173"
       x1="4.4023013"
       y1="4.2994838"
       x2="5.9898009"
       y2="7.474484"
       gradientUnits="userSpaceOnUse"
       gradientTransform="matrix(3.112552,0,0,3.112552,-3.7647062,-3.764682)" />
    <linearGradient
       inkscape:collect="always"
       id="linearGradient13171">
      <stop
         style="stop-color:#32a651;stop-opacity:1;"
         offset="0"
         id="stop13167" />
      <stop
         style="stop-color:#279847;stop-opacity:1"
         offset="1"
         id="stop13169" />
    </linearGradient>
  </defs>
  <path
     d="m 15.999971,2.0000235 c -5.181778,0 -9.7025485,2.8172154 -12.123329,7.0017002 l 0.4566785,8.1648903 5.6043648,2.333424 6.0622857,-3.499921 V 9.0000704 H 28.122468 C 25.701274,4.8166187 21.181126,2.0000235 15.999971,2.0000235 Z"
     style="fill:url(#linearGradient12497);fill-opacity:1;stroke-width:0.054687"
     id="path1309" />
  <path
     d="m 2.0000818,16.000117 c 0,7.731944 6.2677364,13.999886 13.9998872,13.999886 L 22.140183,26.71758 22.062255,19.500038 15.999969,16.000117 9.9376853,19.500038 3.8766409,9.0017237 C 2.6853283,11.061039 1.9999994,13.449535 1.9999994,15.999911"
     style="fill:url(#linearGradient13173);fill-opacity:1;stroke-width:0.054687"
     id="path1449"
     sodipodi:nodetypes="cccccccc" />
  <path
     d="M 16.000116,16.000117 22.0624,19.500038 16.000116,30.000003 C 23.732058,30.000003 30,23.732061 30,16.000117 30,13.449328 29.314448,11.059965 28.122468,9.0000704 H 15.999971 Z"
     style="fill:#fbbf12;stroke-width:0.054687"
     id="path1829" />
  <path
     d="m 23.000163,16.000117 c 0,3.865971 -3.134074,7.000046 -7.000047,7.000046 -3.865973,0 -7.0000482,-3.134075 -7.0000482,-7.000046 0,-3.865972 3.1340752,-7.0000466 7.0000482,-7.0000466 3.865973,0 7.000047,3.1340746 7.000047,7.0000466"
     style="fill:#ffffff;stroke-width:0.054687"
     id="path2229" />
  <path
     d="m 21,16.000002 c 0,2.761383 -2.238618,4.999996 -4.999999,4.999996 C 13.238617,20.999998 11,18.761385 11,16.000002 c 0,-2.761384 2.238617,-5 5.000001,-5 2.761381,0 4.999999,2.238616 4.999999,5"
     style="fill:#4688f4;fill-opacity:1;stroke-width:0.0480762"
     id="path2029" />
</svg>
