<?xml version="1.0" encoding="UTF-8" standalone="no"?>
<!-- Created with Inkscape (http://www.inkscape.org/) -->

<svg
   width="32"
   height="32"
   viewBox="0 0 32 32"
   version="1.1"
   id="svg69118"
   inkscape:version="1.2.1 (9c6d41e410, 2022-07-14, custom)"
   sodipodi:docname="gufw.svg"
   xmlns:inkscape="http://www.inkscape.org/namespaces/inkscape"
   xmlns:sodipodi="http://sodipodi.sourceforge.net/DTD/sodipodi-0.dtd"
   xmlns:xlink="http://www.w3.org/1999/xlink"
   xmlns="http://www.w3.org/2000/svg"
   xmlns:svg="http://www.w3.org/2000/svg">
  <sodipodi:namedview
     id="namedview69120"
     pagecolor="#ffffff"
     bordercolor="#666666"
     borderopacity="1.0"
     inkscape:pageshadow="2"
     inkscape:pageopacity="0.0"
     inkscape:pagecheckerboard="0"
     inkscape:document-units="px"
     showgrid="false"
     units="px"
     inkscape:zoom="25.0625"
     inkscape:cx="16"
     inkscape:cy="16"
     inkscape:window-width="1920"
     inkscape:window-height="1011"
     inkscape:window-x="0"
     inkscape:window-y="0"
     inkscape:window-maximized="1"
     inkscape:current-layer="svg69118"
     inkscape:showpageshadow="2"
     inkscape:deskcolor="#d1d1d1" />
  <defs
     id="defs69115">
    <linearGradient
       inkscape:collect="always"
       id="linearGradient5685">
      <stop
         style="stop-color:#f8f8f8;stop-opacity:1;"
         offset="0"
         id="stop5681" />
      <stop
         style="stop-color:#c7c7c7;stop-opacity:1;"
         offset="1"
         id="stop5683" />
    </linearGradient>
    <linearGradient
       inkscape:collect="always"
       xlink:href="#linearGradient1615"
       id="linearGradient8763"
       x1="26.446239"
       y1="29.929234"
       x2="9.3050003"
       y2="3.0284214"
       gradientUnits="userSpaceOnUse"
       gradientTransform="matrix(0.99999993,0,0,1.0033788,2e-7,0.9613463)" />
    <linearGradient
       inkscape:collect="always"
       id="linearGradient1615">
      <stop
         style="stop-color:#592ea8;stop-opacity:1;"
         offset="0"
         id="stop1611" />
      <stop
         style="stop-color:#8962c9;stop-opacity:1;"
         offset="1"
         id="stop1613" />
    </linearGradient>
    <linearGradient
       inkscape:collect="always"
       xlink:href="#linearGradient5685"
       id="linearGradient5679"
       x1="4.5400023"
       y1="2.2835441"
       x2="7.0998597"
       y2="5.1087084"
       gradientUnits="userSpaceOnUse"
       gradientTransform="matrix(3.7795275,0,0,3.7795275,0,1)" />
  </defs>
  <path
     id="path5150"
     style="color:#000000;fill:url(#linearGradient8763);fill-opacity:1;stroke-width:1.00169;stroke-linecap:round;stroke-linejoin:round"
     d="M 15.999999,2 C 13.392279,2.183285 11.638662,2.4479623 9.3049997,3.9999998 7.0807399,5.2333118 4.5448535,5.9610817 3,5.9996948 2.4469754,5.9986668 2.0000544,6.4448015 2,6.9996951 v 7.9996059 0.002 c 0,3.199157 2.222755,6.799426 5.1132812,9.760678 2.6075115,2.671223 5.7927168,4.846505 8.8867178,5.238344 3.094003,-0.391837 6.279207,-2.567121 8.88672,-5.238344 2.890526,-2.961252 5.11328,-6.585112 5.11328,-9.784269 v -0.002 L 30,6.9996951 C 29.999945,6.4448015 29.554,6.0116669 29.000976,6.0126949 27.456121,5.9740817 24.919573,5.2333122 22.695311,3.9999998 20.36165,2.4479629 18.607721,2.1832856 15.999999,2 Z"
     sodipodi:nodetypes="cccccscccsccccc" />
  <path
     id="rect2691"
     style="fill:url(#linearGradient5679);fill-opacity:1;stroke-width:2;stroke-linecap:round"
     d="M 23.873047,4.5957033 3.4433594,19.916015 c 0.9190181,1.689012 2.2088643,3.348897 3.6699218,4.845703 0.8420379,0.862613 1.7455476,1.672854 2.6855467,2.388672 L 30,12 V 6.9999997 c -3.4e-5,-0.3474179 -0.174951,-0.6469799 -0.441406,-0.8222657 -0.02612,-0.017272 -0.05227,-0.034016 -0.08008,-0.048828 -5.17e-4,-2.733e-4 -0.0014,2.729e-4 -0.002,0 -0.02782,-0.01474 -0.05659,-0.028876 -0.08594,-0.041015 -5.7e-4,-2.344e-4 -0.0014,2.332e-4 -0.002,0 -0.01024,-0.0042 -0.02086,-0.00782 -0.03126,-0.011717 -0.01939,-0.00718 -0.03865,-0.013531 -0.05859,-0.01954 -0.02366,-0.00714 -0.04787,-0.014098 -0.07227,-0.01954 -0.0079,-0.00178 -0.01546,-0.00427 -0.02343,-0.00586 -6.27e-4,-1.235e-4 -0.0013,1.225e-4 -0.002,0 -0.0045,-8.81e-4 -0.0092,-0.00113 -0.01368,-0.00195 -0.06035,-0.010923 -0.123783,-0.017688 -0.187498,-0.017575 -0.07963,-0.00199 -0.163325,-0.00601 -0.248047,-0.011717 -0.08339,-0.00559 -0.169837,-0.014287 -0.257813,-0.023433 -0.0019,-2.026e-4 -0.0039,2.041e-4 -0.0059,0 -0.07467,-0.00782 -0.150777,-0.017046 -0.228514,-0.027326 -0.0361,-0.0048 -0.07267,-0.010318 -0.109376,-0.01561 C 28.095076,5.925653 28.040654,5.917409 27.98418,5.908225 27.90277,5.894997 27.820183,5.880937 27.736134,5.865256 27.709904,5.860346 27.684474,5.856716 27.658004,5.851574 27.598954,5.84016 27.538529,5.827083 27.478318,5.814459 27.424138,5.80312 27.371278,5.791593 27.31621,5.779309 27.27005,5.768991 27.22233,5.757048 27.175585,5.746087 27.089315,5.725904 27.001995,5.705982 26.913864,5.683589 26.804277,5.655734 26.693968,5.624946 26.581833,5.593746 26.512043,5.574319 26.441556,5.553917 26.370893,5.533198 26.345003,5.525598 26.318773,5.519478 26.292763,5.51173 26.210263,5.487087 26.128221,5.461886 26.044716,5.435557 25.931901,5.399992 25.817268,5.362839 25.702918,5.3242272 c -0.0073,-0.00245 -0.01421,-0.00533 -0.02147,-0.00782 -0.14007,-0.047497 -0.280116,-0.09645 -0.421875,-0.1484371 -0.128387,-0.047082 -0.257439,-0.095796 -0.386719,-0.1464832 -0.05155,-0.02022 -0.102659,-0.041722 -0.154295,-0.062498 -0.07474,-0.030085 -0.14976,-0.060559 -0.22461,-0.091797 -0.05009,-0.020901 -0.100278,-0.041072 -0.150391,-0.062498 -0.09772,-0.041779 -0.195334,-0.085175 -0.29297,-0.1289046 -0.04434,-0.01988 -0.08852,-0.040286 -0.132813,-0.060548 -0.01489,-0.0068 -0.03005,-0.012661 -0.04492,-0.01954 z" />
</svg>
