<?xml version="1.0" encoding="UTF-8" standalone="no"?>
<!-- Created with Inkscape (http://www.inkscape.org/) -->

<svg
   width="32"
   height="32"
   viewBox="0 0 32 32"
   version="1.1"
   id="svg5"
   inkscape:version="1.2.1 (9c6d41e410, 2022-07-14, custom)"
   sodipodi:docname="kdevelop.svg"
   xmlns:inkscape="http://www.inkscape.org/namespaces/inkscape"
   xmlns:sodipodi="http://sodipodi.sourceforge.net/DTD/sodipodi-0.dtd"
   xmlns:xlink="http://www.w3.org/1999/xlink"
   xmlns="http://www.w3.org/2000/svg"
   xmlns:svg="http://www.w3.org/2000/svg">
  <sodipodi:namedview
     id="namedview7"
     pagecolor="#ffffff"
     bordercolor="#666666"
     borderopacity="1.0"
     inkscape:pageshadow="2"
     inkscape:pageopacity="0.0"
     inkscape:pagecheckerboard="0"
     inkscape:document-units="px"
     showgrid="false"
     units="px"
     inkscape:zoom="25.84375"
     inkscape:cx="15.980653"
     inkscape:cy="16"
     inkscape:window-width="1920"
     inkscape:window-height="1029"
     inkscape:window-x="0"
     inkscape:window-y="0"
     inkscape:window-maximized="1"
     inkscape:current-layer="svg5"
     inkscape:showpageshadow="2"
     inkscape:deskcolor="#d1d1d1" />
  <defs
     id="defs2">
    <linearGradient
       inkscape:collect="always"
       xlink:href="#linearGradient7900"
       id="linearGradient1281"
       x1="2.167166"
       y1="2.6942132"
       x2="15.875"
       y2="13.395575"
       gradientUnits="userSpaceOnUse"
       gradientTransform="matrix(1.8897637,0,0,1.8897637,3e-7,0.00194791)" />
    <linearGradient
       inkscape:collect="always"
       id="linearGradient7900">
      <stop
         style="stop-color:#9bc062;stop-opacity:1;"
         offset="0"
         id="stop7892" />
      <stop
         style="stop-color:#96c74e;stop-opacity:1"
         offset="0.14573747"
         id="stop7894" />
      <stop
         style="stop-color:#699f3e;stop-opacity:1"
         offset="0.89999998"
         id="stop7896" />
      <stop
         style="stop-color:#5f9816;stop-opacity:1"
         offset="1"
         id="stop7898" />
    </linearGradient>
  </defs>
  <path
     id="path428"
     style="fill:url(#linearGradient1281);fill-opacity:1;stroke-width:0.249998"
     d="m 20.472656,2.7363229 a 4.9999998,4.9999998 0 0 1 -4.472657,2.765625 4.9999998,4.9999998 0 0 1 -4.45996,-2.7617186 14,14 0 0 0 -4.7880858,2.7636716 4.9999998,4.9999998 0 0 1 0.154297,5.2480471 4.9999998,4.9999998 0 0 1 -4.6210937,2.481446 14,14 0 0 0 -0.2851563,2.768554 14,14 0 0 0 0.2851563,2.76953 4.9999998,4.9999998 0 0 1 0.2910156,-0.01952 4.9999998,4.9999998 0 0 1 4.3300781,2.500001 4.9999998,4.9999998 0 0 1 -0.1542975,5.248045 14,14 0 0 0 4.7880863,2.763672 4.9999998,4.9999998 0 0 1 4.45996,-2.761718 4.9999998,4.9999998 0 0 1 4.459959,2.761719 14,14 0 0 0 4.794922,-2.768555 4.9999998,4.9999998 0 0 1 -0.16114,-5.243163 4.9999998,4.9999998 0 0 1 4.330078,-2.5 4.9999998,4.9999998 0 0 1 0.291016,0.01952 A 14,14 0 0 0 30,16.001948 14,14 0 0 0 29.722656,13.233394 4.9999998,4.9999998 0 0 1 25.09375,10.751948 4.9999998,4.9999998 0 0 1 25.258783,5.5019479 14,14 0 0 0 20.47265,2.7363229 Z" />
  <path
     d="M 14,10.5 V 15 l 4,-4.5 4,0.5 -6,6.25 6,5.75 -4,0.5 -4,-4 V 23 l -3,0.5 V 11 Z"
     style="opacity:0.2;fill:#000000"
     id="path4658"
     sodipodi:nodetypes="cccccccccccc" />
  <path
     d="M 14,9.5 V 14 l 4,-4.5 4,0.5 -6,6.25 6,5.75 -4,0.5 -4,-4 V 22 l -3,0.5 V 10 Z"
     style="fill:#ffffff"
     id="path4681"
     sodipodi:nodetypes="cccccccccccc" />
</svg>
