<?xml version="1.0" encoding="UTF-8" standalone="no"?>
<!-- Created with Inkscape (http://www.inkscape.org/) -->

<svg
   width="32"
   height="32"
   viewBox="0 0 32 32"
   version="1.1"
   id="svg5"
   inkscape:version="1.3.2 (091e20ef0f, 2023-11-25, custom)"
   sodipodi:docname="knights.svg"
   xmlns:inkscape="http://www.inkscape.org/namespaces/inkscape"
   xmlns:sodipodi="http://sodipodi.sourceforge.net/DTD/sodipodi-0.dtd"
   xmlns:xlink="http://www.w3.org/1999/xlink"
   xmlns="http://www.w3.org/2000/svg"
   xmlns:svg="http://www.w3.org/2000/svg">
  <sodipodi:namedview
     id="namedview7"
     pagecolor="#ffffff"
     bordercolor="#666666"
     borderopacity="1.0"
     inkscape:pageshadow="2"
     inkscape:pageopacity="0.0"
     inkscape:pagecheckerboard="0"
     inkscape:document-units="px"
     showgrid="false"
     units="px"
     height="48px"
     inkscape:zoom="24.8125"
     inkscape:cx="16"
     inkscape:cy="16"
     inkscape:window-width="1920"
     inkscape:window-height="1008"
     inkscape:window-x="0"
     inkscape:window-y="0"
     inkscape:window-maximized="1"
     inkscape:current-layer="svg5"
     inkscape:lockguides="true"
     inkscape:showpageshadow="2"
     inkscape:deskcolor="#d1d1d1" />
  <defs
     id="defs2">
    <linearGradient
       inkscape:collect="always"
       xlink:href="#linearGradient1327"
       id="linearGradient835"
       x1="8.9958334"
       y1="16.933334"
       x2="8.9958334"
       y2="2.1166668"
       gradientUnits="userSpaceOnUse"
       gradientTransform="matrix(1.8897638,0,0,1.8897638,-0.9999998,-2.0000001)" />
    <linearGradient
       inkscape:collect="always"
       xlink:href="#linearGradient1384"
       id="linearGradient1065"
       x1="34"
       y1="64"
       x2="34"
       y2="8"
       gradientUnits="userSpaceOnUse"
       gradientTransform="matrix(0.49999998,0,0,0.49999998,-0.9999998,-2.0000001)" />
    <linearGradient
       inkscape:collect="always"
       id="linearGradient1327">
      <stop
         style="stop-color:#323c4a;stop-opacity:1;"
         offset="0"
         id="stop1323" />
      <stop
         style="stop-color:#556171;stop-opacity:1;"
         offset="1"
         id="stop1325" />
    </linearGradient>
    <linearGradient
       inkscape:collect="always"
       id="linearGradient1384">
      <stop
         style="stop-color:#d1d1d1;stop-opacity:1;"
         offset="0"
         id="stop1380" />
      <stop
         style="stop-color:#f6f6f6;stop-opacity:1;"
         offset="1"
         id="stop1382" />
    </linearGradient>
  </defs>
  <path
     id="rect932"
     style="fill:url(#linearGradient835);fill-opacity:1;stroke-width:1.93104;stroke-linecap:round;stroke-linejoin:round"
     d="M 16 2 L 2 16 L 2 27 C 2 28.661998 3.3380017 30 5 30 L 16 30 L 30 16 L 30 5 C 30 3.3380015 28.661998 2 27 2 L 16 2 z " />
  <path
     d="m 9.7954617,17 c -0.060034,0.03077 -0.1287232,0.05382 -0.1828082,0.09614 -0.1041147,0.08222 -0.2055232,0.170086 -0.2988208,0.264797 -0.1024932,0.103865 -0.2084977,0.162773 -0.358046,0.194427 -0.3593991,0.07494 -0.7242032,0.157957 -1.0600736,0.30294 -0.7469193,0.323456 -1.2412596,0.932773 -1.5936261,1.665648 -0.3126123,0.651475 -0.3182929,1.357674 -0.2926035,2.067174 0.053004,1.463825 1.0911731,2.532474 1.5444087,3.658876 h 0.1173657 c -0.1768592,0 -0.3191055,0.122381 -0.3191055,0.27445 v 0.551099 c 0,0.152069 0.1422463,0.27445 0.3191055,0.27445 H 7.228569 c -0.2312164,0 -0.4172689,0.183704 -0.4172689,0.411949 v 0.826101 c 0,0.22825 0.1860548,0.411951 0.4172689,0.411951 h 3.762721 c 0.231216,0 0.417269,-0.183704 0.417269,-0.411951 v -0.826102 c 0,-0.22825 -0.186055,-0.41195 -0.417269,-0.41195 h -0.442689 c 0.176859,0 0.319105,-0.122381 0.319105,-0.27445 V 25.52445 C 10.867707,25.372381 10.725464,25.25 10.548601,25.25 h 0.04922 c 0.11466,-0.109455 0.224183,-0.305526 0.326404,-0.417451 0.463244,-0.504349 0.545994,-1.220175 0.22067,-1.83315 -0.15901,-0.299198 -0.382654,-0.542024 -0.640641,-0.74965 C 10.213812,22.016 9.9136384,21.795726 9.6207659,21.56555 9.5369359,21.49954 9.4628345,21.421172 9.3514216,21.317772 c 0.2761058,0.05994 0.4965041,0.137783 0.7187944,0.149329 0.383737,0.01954 0.714739,0.150425 1.021944,0.380325 0.118715,0.08882 0.256634,0.160044 0.395635,0.209552 0.180646,0.0638 0.270425,0.01814 0.378056,-0.149877 0.02839,-0.04428 0.04543,-0.09543 0.07247,-0.153733 0.213906,0.003 0.331544,-0.124025 0.390226,-0.327526 0.02003,-0.06958 0.05409,-0.133927 0.07869,-0.201573 0.166315,-0.453202 0.08086,-0.854427 -0.237705,-1.204226 -0.07112,-0.08003 -0.155766,-0.14657 -0.230136,-0.223302 -0.248242,-0.255191 -0.497845,-0.509015 -0.739878,-0.770266 -0.175777,-0.190025 -0.333976,-0.39688 -0.511377,-0.58542 -0.08789,-0.0929 -0.161985,-0.185873 -0.20282,-0.310448 -0.06166,-0.186697 -0.1774,-0.330385 -0.345876,-0.427542 -0.05977,-0.03439 -0.116825,-0.0745 -0.1600934,-0.103125 C 9.9098536,17.391628 10.074543,17.130955 9.7954617,17 Z"
     style="fill:#dbdbdb;fill-opacity:1;stroke-width:0.272704"
     id="path526" />
  <path
     id="rect2347"
     style="fill:url(#linearGradient1065);fill-opacity:1;stroke-width:1.99999;stroke-linecap:round;stroke-linejoin:round"
     d="M 5.0000004,2 C 3.3380004,2 2,3.3380004 2,5.0000005 V 15.999999 H 16 V 2 Z M 16,15.999999 V 30 h 11 c 1.662,0 3,-1.338 3,-3 V 15.999999 Z"
     sodipodi:nodetypes="sscccsccsscc" />
</svg>
