<?xml version="1.0" encoding="UTF-8" standalone="no"?>
<!-- Created with Inkscape (http://www.inkscape.org/) -->

<svg
   width="32"
   height="32"
   viewBox="0 0 32 32"
   version="1.1"
   id="svg2112"
   inkscape:version="1.3.2 (1:1.3.2+202311252150+091e20ef0f)"
   sodipodi:docname="libreoffice-impress.svg"
   xmlns:inkscape="http://www.inkscape.org/namespaces/inkscape"
   xmlns:sodipodi="http://sodipodi.sourceforge.net/DTD/sodipodi-0.dtd"
   xmlns:xlink="http://www.w3.org/1999/xlink"
   xmlns="http://www.w3.org/2000/svg"
   xmlns:svg="http://www.w3.org/2000/svg">
  <sodipodi:namedview
     id="namedview2114"
     pagecolor="#ffffff"
     bordercolor="#000000"
     borderopacity="0.25"
     inkscape:showpageshadow="2"
     inkscape:pageopacity="0.0"
     inkscape:pagecheckerboard="0"
     inkscape:deskcolor="#d1d1d1"
     inkscape:document-units="px"
     showgrid="false"
     inkscape:zoom="25.84375"
     inkscape:cx="16"
     inkscape:cy="16"
     inkscape:window-width="1920"
     inkscape:window-height="1008"
     inkscape:window-x="0"
     inkscape:window-y="0"
     inkscape:window-maximized="1"
     inkscape:current-layer="svg2112" />
  <defs
     id="defs2109">
    <linearGradient
       inkscape:collect="always"
       id="linearGradient3723">
      <stop
         style="stop-color:#b9501c;stop-opacity:1"
         offset="0"
         id="stop3719" />
      <stop
         style="stop-color:#d55d20;stop-opacity:1"
         offset="1"
         id="stop3721" />
    </linearGradient>
    <linearGradient
       inkscape:collect="always"
       id="linearGradient3529">
      <stop
         style="stop-color:#e5814f;stop-opacity:1"
         offset="0"
         id="stop3525" />
      <stop
         style="stop-color:#e15d2b;stop-opacity:1"
         offset="1"
         id="stop3527" />
    </linearGradient>
    <linearGradient
       inkscape:collect="always"
       xlink:href="#linearGradient3529"
       id="linearGradient2532"
       x1="5"
       y1="2"
       x2="27.00005"
       y2="30"
       gradientUnits="userSpaceOnUse" />
    <linearGradient
       inkscape:collect="always"
       xlink:href="#linearGradient3723"
       id="linearGradient2540"
       x1="27"
       y1="6.875"
       x2="22.125"
       y2="2"
       gradientUnits="userSpaceOnUse" />
  </defs>
  <path
     id="rect3085"
     style="fill:url(#linearGradient2532);fill-opacity:1;stroke-width:1.99999;stroke-linecap:round;stroke-linejoin:round"
     d="M 8,2 C 6.3431458,2 5,3.3431458 5,5 v 22 c 0,1.656854 1.3431458,3 3,3 h 16 c 1.656854,0 3,-1.343146 3,-3 V 13.5 C 27.003,12.258536 26.870586,11.870595 26,11 L 18,3 C 17.269427,2.3079061 16.874494,2 15.75,2 Z"
     sodipodi:nodetypes="sssssscccss" />
  <path
     id="rect2140"
     style="fill:url(#linearGradient2540);fill-opacity:1;stroke-width:1.99999;stroke-linecap:round;stroke-linejoin:round"
     d="M 20.25 2 C 19.733848 2.00295 19.541235 2.5291266 19.75 2.75 L 26.25 9.25 C 26.465713 9.4735929 26.998687 9.3038874 27 8.75 L 27 5 A 3 3 0 0 0 24 2 L 20.25 2 z " />
  <path
     id="path46529"
     style="fill:#ffffff;fill-opacity:1;stroke-width:1.49999;stroke-linecap:round;stroke-linejoin:round"
     d="M 12 14 A 2.9999997 2.9999997 0 0 1 12.294922 14.013672 A 3 3 0 0 0 12 14 z M 12 14 A 3 3 0 0 0 9 17 A 3 3 0 0 0 12 20 A 3 3 0 0 0 15 17 L 12 17 L 12 14 z M 15 17 A 3 3 0 0 0 14.986328 16.705078 A 2.9999997 2.9999997 0 0 1 15 17 z M 12.337891 14.019531 A 2.9999997 2.9999997 0 0 1 12.617188 14.066406 A 3 3 0 0 0 12.337891 14.019531 z M 12.630859 14.068359 A 2.9999997 2.9999997 0 0 1 12.90625 14.140625 A 3 3 0 0 0 12.630859 14.068359 z M 12.960938 14.158203 A 2.9999997 2.9999997 0 0 1 13.216797 14.257812 A 3 3 0 0 0 12.960938 14.158203 z M 13.222656 14.261719 A 2.9999997 2.9999997 0 0 1 13.490234 14.396484 A 3 3 0 0 0 13.222656 14.261719 z M 13.509766 14.408203 A 2.9999997 2.9999997 0 0 1 13.736328 14.554688 A 3 3 0 0 0 13.509766 14.408203 z M 13.787109 14.589844 A 2.9999997 2.9999997 0 0 1 14.007812 14.771484 A 3 3 0 0 0 13.787109 14.589844 z M 14.015625 14.777344 A 2.9999997 2.9999997 0 0 1 14.222656 14.984375 A 3 3 0 0 0 14.015625 14.777344 z M 14.228516 14.992188 A 2.9999997 2.9999997 0 0 1 14.410156 15.212891 A 3 3 0 0 0 14.228516 14.992188 z M 14.445312 15.263672 A 2.9999997 2.9999997 0 0 1 14.591797 15.490234 A 3 3 0 0 0 14.445312 15.263672 z M 14.603516 15.509766 A 2.9999997 2.9999997 0 0 1 14.738281 15.777344 A 3 3 0 0 0 14.603516 15.509766 z M 14.742188 15.783203 A 2.9999997 2.9999997 0 0 1 14.841797 16.039062 A 3 3 0 0 0 14.742188 15.783203 z M 14.859375 16.09375 A 2.9999997 2.9999997 0 0 1 14.931641 16.369141 A 3 3 0 0 0 14.859375 16.09375 z M 14.933594 16.382812 A 2.9999997 2.9999997 0 0 1 14.980469 16.662109 A 3 3 0 0 0 14.933594 16.382812 z " />
  <rect
     style="fill:#ffffff;fill-opacity:1;stroke-width:2.08893;stroke-linecap:round;stroke-linejoin:round"
     id="rect49460"
     width="5.9999976"
     height="1"
     x="17"
     y="19.999998" />
  <rect
     style="fill:#ffffff;fill-opacity:1;stroke-width:2.08893;stroke-linecap:round;stroke-linejoin:round"
     id="rect49720"
     width="5.9999976"
     height="0.99999917"
     x="17.000002"
     y="13.999999" />
  <rect
     style="fill:#ffffff;fill-opacity:1;stroke-width:2.08893;stroke-linecap:round;stroke-linejoin:round"
     id="rect49722"
     width="5.9999976"
     height="0.99999917"
     x="17.000002"
     y="17" />
  <rect
     style="fill:#ffffff;fill-opacity:1;stroke-width:1.99999;stroke-linecap:round;stroke-linejoin:round"
     id="rect48498"
     width="14.000002"
     height="1.000001"
     x="9"
     y="23.000002" />
</svg>
