<?xml version="1.0" encoding="UTF-8" standalone="no"?>
<!-- Created with Inkscape (http://www.inkscape.org/) -->

<svg
   width="32"
   height="32"
   viewBox="0 0 32 32"
   version="1.1"
   id="svg2112"
   inkscape:version="1.3.2 (1:1.3.2+202311252150+091e20ef0f)"
   sodipodi:docname="libreoffice-draw.svg"
   xmlns:inkscape="http://www.inkscape.org/namespaces/inkscape"
   xmlns:sodipodi="http://sodipodi.sourceforge.net/DTD/sodipodi-0.dtd"
   xmlns:xlink="http://www.w3.org/1999/xlink"
   xmlns="http://www.w3.org/2000/svg"
   xmlns:svg="http://www.w3.org/2000/svg">
  <sodipodi:namedview
     id="namedview2114"
     pagecolor="#ffffff"
     bordercolor="#000000"
     borderopacity="0.25"
     inkscape:showpageshadow="2"
     inkscape:pageopacity="0.0"
     inkscape:pagecheckerboard="0"
     inkscape:deskcolor="#d1d1d1"
     inkscape:document-units="px"
     showgrid="false"
     inkscape:zoom="25.34375"
     inkscape:cx="16"
     inkscape:cy="16"
     inkscape:window-width="1920"
     inkscape:window-height="1008"
     inkscape:window-x="0"
     inkscape:window-y="0"
     inkscape:window-maximized="1"
     inkscape:current-layer="svg2112" />
  <defs
     id="defs2109">
    <linearGradient
       inkscape:collect="always"
       id="linearGradient3529">
      <stop
         style="stop-color:#f6be00;stop-opacity:1"
         offset="0"
         id="stop3525" />
      <stop
         style="stop-color:#ff9c0a;stop-opacity:1"
         offset="1"
         id="stop3527" />
    </linearGradient>
    <linearGradient
       inkscape:collect="always"
       id="linearGradient3723">
      <stop
         style="stop-color:#e37a00;stop-opacity:1"
         offset="0"
         id="stop3719" />
      <stop
         style="stop-color:#ff9316;stop-opacity:1"
         offset="1"
         id="stop3721" />
    </linearGradient>
    <linearGradient
       inkscape:collect="always"
       xlink:href="#linearGradient3723"
       id="linearGradient6701"
       x1="27"
       y1="6.875"
       x2="22.125"
       y2="2"
       gradientUnits="userSpaceOnUse" />
    <linearGradient
       inkscape:collect="always"
       xlink:href="#linearGradient3529"
       id="linearGradient6709"
       x1="5"
       y1="2"
       x2="27.00005"
       y2="30"
       gradientUnits="userSpaceOnUse" />
  </defs>
  <path
     id="rect3085"
     style="fill:url(#linearGradient6709);fill-opacity:1;stroke-width:1.99999;stroke-linecap:round;stroke-linejoin:round"
     d="M 8,2 C 6.3431458,2 5,3.3431458 5,5 v 22 c 0,1.656854 1.3431458,3 3,3 h 16 c 1.656854,0 3,-1.343146 3,-3 V 13.5 C 27.003,12.258536 26.870586,11.870595 26,11 L 18,3 C 17.269427,2.3079061 16.874494,2 15.75,2 Z"
     sodipodi:nodetypes="sssssscccss" />
  <path
     id="rect2140"
     style="fill:url(#linearGradient6701);fill-opacity:1;stroke-width:1.99999;stroke-linecap:round;stroke-linejoin:round"
     d="M 20.25 2 C 19.733848 2.00295 19.541235 2.5291266 19.75 2.75 L 26.25 9.25 C 26.465713 9.4735929 26.998687 9.3038874 27 8.75 L 27 5 A 3 3 0 0 0 24 2 L 20.25 2 z " />
  <circle
     style="fill:#ffffff;fill-opacity:1;stroke-width:0.749998;stroke-linecap:round;stroke-linejoin:round"
     id="path12373"
     cx="12"
     cy="17"
     r="4" />
  <path
     id="rect6765"
     style="fill:#fff7ec;fill-opacity:1;stroke-width:2;stroke-linecap:round"
     d="M 17.75 15 C 17.3345 15 17 15.3345 17 15.75 L 17 21.25 C 17 21.6655 17.3345 22 17.75 22 L 23.25 22 C 23.6655 22 24 21.6655 24 21.25 L 24 15.75 C 24 15.3345 23.6655 15 23.25 15 L 17.75 15 z M 18 16 L 23 16 L 23 21 L 18 21 L 18 16 z " />
  <path
     id="path14298"
     style="color:#000000;fill:#ffdaaf;fill-opacity:1;stroke:none;stroke-width:0.995229;stroke-linecap:round;stroke-linejoin:round;-inkscape-stroke:none"
     d="m 15.999986,17.000001 a 0.52624684,0.47063522 0 0 0 -0.458365,0.237592 l -4.472651,7.058823 a 0.52624684,0.47063522 0 0 0 0.458365,0.703583 h 8.945814 A 0.52624684,0.47063522 0 0 0 20.931,24.296414 l -4.472649,-7.058822 a 0.52624684,0.47063522 0 0 0 -0.458365,-0.237591 z" />
</svg>
