<?xml version="1.0" encoding="UTF-8" standalone="no"?>
<!-- Created with Inkscape (http://www.inkscape.org/) -->

<svg
   width="32"
   height="32"
   viewBox="0 0 32 32"
   version="1.1"
   id="svg2112"
   inkscape:version="1.3.2 (1:1.3.2+202311252150+091e20ef0f)"
   sodipodi:docname="libreoffice-base.svg"
   xmlns:inkscape="http://www.inkscape.org/namespaces/inkscape"
   xmlns:sodipodi="http://sodipodi.sourceforge.net/DTD/sodipodi-0.dtd"
   xmlns:xlink="http://www.w3.org/1999/xlink"
   xmlns="http://www.w3.org/2000/svg"
   xmlns:svg="http://www.w3.org/2000/svg">
  <sodipodi:namedview
     id="namedview2114"
     pagecolor="#ffffff"
     bordercolor="#000000"
     borderopacity="0.25"
     inkscape:showpageshadow="2"
     inkscape:pageopacity="0.0"
     inkscape:pagecheckerboard="0"
     inkscape:deskcolor="#d1d1d1"
     inkscape:document-units="px"
     showgrid="false"
     inkscape:zoom="25.34375"
     inkscape:cx="16"
     inkscape:cy="16"
     inkscape:window-width="1920"
     inkscape:window-height="1008"
     inkscape:window-x="0"
     inkscape:window-y="0"
     inkscape:window-maximized="1"
     inkscape:current-layer="svg2112" />
  <defs
     id="defs2109">
    <linearGradient
       inkscape:collect="always"
       id="linearGradient3529">
      <stop
         style="stop-color:#b67cd7;stop-opacity:1"
         offset="0"
         id="stop3525" />
      <stop
         style="stop-color:#8536bd;stop-opacity:1"
         offset="1"
         id="stop3527" />
    </linearGradient>
    <linearGradient
       inkscape:collect="always"
       id="linearGradient3723">
      <stop
         style="stop-color:#541a7c;stop-opacity:1"
         offset="0"
         id="stop3719" />
      <stop
         style="stop-color:#702da1;stop-opacity:1"
         offset="1"
         id="stop3721" />
    </linearGradient>
    <linearGradient
       inkscape:collect="always"
       xlink:href="#linearGradient3723"
       id="linearGradient1147"
       x1="27"
       y1="6.875"
       x2="22.125"
       y2="2"
       gradientUnits="userSpaceOnUse" />
    <linearGradient
       inkscape:collect="always"
       xlink:href="#linearGradient3529"
       id="linearGradient1204"
       x1="5"
       y1="2"
       x2="27.00005"
       y2="30"
       gradientUnits="userSpaceOnUse" />
  </defs>
  <path
     id="rect3085"
     style="fill:url(#linearGradient1204);fill-opacity:1;stroke-width:1.99999;stroke-linecap:round;stroke-linejoin:round"
     d="M 8,2 C 6.3431458,2 5,3.3431458 5,5 v 22 c 0,1.656854 1.3431458,3 3,3 h 16 c 1.656854,0 3,-1.343146 3,-3 V 13.5 C 27.003,12.258536 26.870586,11.870595 26,11 L 18,3 C 17.269427,2.3079061 16.874494,2 15.75,2 Z"
     sodipodi:nodetypes="sssssscccss" />
  <path
     id="rect2140"
     style="fill:url(#linearGradient1147);fill-opacity:1;stroke-width:1.99999;stroke-linecap:round;stroke-linejoin:round"
     d="M 20.25 2 C 19.733848 2.00295 19.541235 2.5291266 19.75 2.75 L 26.25 9.25 C 26.465713 9.4735929 26.998687 9.3038874 27 8.75 L 27 5 A 3 3 0 0 0 24 2 L 20.25 2 z " />
  <path
     id="path8276-3-6-5"
     style="fill:#ffffff;fill-opacity:1;stroke-width:0.75;stroke-linecap:round;stroke-linejoin:round"
     d="M 11 22.75 L 11 24.5 C 11 25.328425 13.238586 26 16 26 C 18.761415 26 21 25.328425 21 24.5 L 21 22.75 C 21 23.578428 18.761415 24.25 16 24.25 C 13.238586 24.25 11 23.578428 11 22.75 z " />
  <path
     id="path8276-3-6-7"
     style="fill:#ffffff;fill-opacity:1;stroke-width:0.75;stroke-linecap:round;stroke-linejoin:round"
     d="M 11 20 L 11 21.75 C 11 22.578428 13.238587 23.25 16 23.25 C 18.761415 23.25 21 22.578428 21 21.75 L 21 20 C 21 20.828428 18.761415 21.5 16 21.5 C 13.238586 21.5 11 20.828428 11 20 z " />
  <path
     id="path8276-3-6"
     style="fill:#ffffff;fill-opacity:1;stroke-width:0.75;stroke-linecap:round;stroke-linejoin:round"
     d="M 11 17.25 L 11 19 C 11 19.828428 13.238586 20.5 16 20.5 C 18.761415 20.5 21 19.828428 21 19 L 21 17.25 C 21 18.078428 18.761415 18.75 16 18.75 C 13.238586 18.75 11 18.078428 11 17.25 z " />
  <path
     id="path8276-3"
     style="fill:#ffffff;fill-opacity:1;stroke-width:0.75;stroke-linecap:round;stroke-linejoin:round"
     d="m 16,13.250022 c -2.761413,0 -5,1.25 -5,1.25 v 1.75 c 0,0.828426 2.238587,1.5 5,1.5 2.761415,0 5,-0.671573 5,-1.5 v -1.75 c 0,0 -2.238585,-1.25 -5,-1.25 z" />
  <ellipse
     style="fill:#ffffff;fill-opacity:1;stroke-width:0.75;stroke-linecap:round;stroke-linejoin:round"
     id="path9564"
     cx="15.999973"
     cy="14.5"
     rx="4.9999876"
     ry="1.5000002" />
</svg>
