<?xml version="1.0" encoding="UTF-8" standalone="no"?>
<!-- Created with Inkscape (http://www.inkscape.org/) -->

<svg
   width="32"
   height="32"
   viewBox="0 0 32 32"
   version="1.1"
   id="svg2112"
   inkscape:version="1.3.2 (1:1.3.2+202311252150+091e20ef0f)"
   sodipodi:docname="libreoffice-math.svg"
   xmlns:inkscape="http://www.inkscape.org/namespaces/inkscape"
   xmlns:sodipodi="http://sodipodi.sourceforge.net/DTD/sodipodi-0.dtd"
   xmlns:xlink="http://www.w3.org/1999/xlink"
   xmlns="http://www.w3.org/2000/svg"
   xmlns:svg="http://www.w3.org/2000/svg">
  <sodipodi:namedview
     id="namedview2114"
     pagecolor="#ffffff"
     bordercolor="#000000"
     borderopacity="0.25"
     inkscape:showpageshadow="2"
     inkscape:pageopacity="0.0"
     inkscape:pagecheckerboard="0"
     inkscape:deskcolor="#d1d1d1"
     inkscape:document-units="px"
     showgrid="false"
     inkscape:zoom="25.34375"
     inkscape:cx="16"
     inkscape:cy="16"
     inkscape:window-width="1920"
     inkscape:window-height="1008"
     inkscape:window-x="0"
     inkscape:window-y="0"
     inkscape:window-maximized="1"
     inkscape:current-layer="svg2112" />
  <defs
     id="defs2109">
    <linearGradient
       inkscape:collect="always"
       xlink:href="#linearGradient2"
       id="linearGradient3515"
       x1="5"
       y1="2"
       x2="27.00005"
       y2="30"
       gradientUnits="userSpaceOnUse" />
    <linearGradient
       inkscape:collect="always"
       xlink:href="#linearGradient4"
       id="linearGradient3523"
       x1="27"
       y1="6.875"
       x2="22.125"
       y2="2"
       gradientUnits="userSpaceOnUse" />
    <linearGradient
       inkscape:collect="always"
       id="linearGradient2">
      <stop
         style="stop-color:#dd6b96;stop-opacity:1;"
         offset="0"
         id="stop1" />
      <stop
         style="stop-color:#d33d7e;stop-opacity:1;"
         offset="1"
         id="stop2" />
    </linearGradient>
    <linearGradient
       inkscape:collect="always"
       id="linearGradient4">
      <stop
         style="stop-color:#c0175a;stop-opacity:1;"
         offset="0"
         id="stop3" />
      <stop
         style="stop-color:#de4b7e;stop-opacity:1;"
         offset="1"
         id="stop4" />
    </linearGradient>
  </defs>
  <path
     id="rect3085"
     style="fill:url(#linearGradient3515);fill-opacity:1;stroke-width:1.99999;stroke-linecap:round;stroke-linejoin:round"
     d="M 8,2 C 6.3431458,2 5,3.3431458 5,5 v 22 c 0,1.656854 1.3431458,3 3,3 h 16 c 1.656854,0 3,-1.343146 3,-3 V 13.5 C 27.003,12.258536 26.870586,11.870595 26,11 L 18,3 C 17.269427,2.3079061 16.874494,2 15.75,2 Z"
     sodipodi:nodetypes="sssssscccss" />
  <path
     id="rect2140"
     style="fill:url(#linearGradient3523);fill-opacity:1;stroke-width:1.99999;stroke-linecap:round;stroke-linejoin:round"
     d="M 20.25 2 C 19.733848 2.00295 19.541235 2.5291266 19.75 2.75 L 26.25 9.25 C 26.465713 9.4735929 26.998687 9.3038874 27 8.75 L 27 5 A 3 3 0 0 0 24 2 L 20.25 2 z " />
  <path
     id="rect853"
     style="fill:#ffffff;fill-opacity:1;stroke-width:1.99999;stroke-linecap:round;stroke-linejoin:round"
     d="M 13.628906 14 C 13.623006 14.000156 13.617178 14.001658 13.611328 14.001953 C 13.604828 14.002279 13.598297 14.001457 13.591797 14.001953 C 13.585597 14.002426 13.578466 14.003206 13.572266 14.003906 C 13.559836 14.005206 13.547446 14.007866 13.535156 14.009766 C 13.533856 14.009967 13.53255 14.009558 13.53125 14.009766 C 13.52665 14.010488 13.522158 14.010919 13.517578 14.011719 C 13.511078 14.012819 13.504507 14.014325 13.498047 14.015625 C 13.485917 14.018125 13.474831 14.020438 13.462891 14.023438 C 13.454691 14.025537 13.44559 14.02895 13.4375 14.03125 C 13.4337 14.03235 13.429601 14.032103 13.425781 14.033203 C 13.420981 14.034703 13.416969 14.037463 13.412109 14.039062 C 13.400469 14.042962 13.388293 14.046381 13.376953 14.050781 C 13.368753 14.053981 13.361646 14.057047 13.353516 14.060547 C 13.345816 14.063847 13.337638 14.068736 13.330078 14.072266 C 13.327878 14.073266 13.326419 14.073219 13.324219 14.074219 C 13.320319 14.076119 13.31642 14.078078 13.3125 14.080078 C 13.30222 14.085178 13.29122 14.090113 13.28125 14.095703 C 13.27835 14.097403 13.276337 14.099863 13.273438 14.101562 C 13.266438 14.105562 13.258793 14.108981 13.251953 14.113281 C 13.249953 14.114481 13.248094 14.115888 13.246094 14.117188 C 13.240494 14.120787 13.235909 14.125276 13.230469 14.128906 C 13.226869 14.131306 13.22228 14.134219 13.21875 14.136719 C 13.21145 14.141819 13.204376 14.146974 13.197266 14.152344 C 13.190966 14.157144 13.185847 14.161046 13.179688 14.166016 C 13.177488 14.167716 13.173975 14.170075 13.171875 14.171875 C 13.168475 14.174675 13.165509 14.176888 13.162109 14.179688 C 13.154209 14.186387 13.146262 14.194112 13.138672 14.201172 C 13.136272 14.203372 13.135112 14.204831 13.132812 14.207031 C 13.128513 14.211231 13.123421 14.21453 13.119141 14.21875 C 13.116041 14.22185 13.112475 14.225316 13.109375 14.228516 C 13.102975 14.235116 13.097957 14.24312 13.091797 14.25 C 13.085897 14.2567 13.079929 14.262651 13.074219 14.269531 C 13.072619 14.271431 13.069959 14.273391 13.068359 14.275391 C 13.065059 14.279491 13.061894 14.284863 13.058594 14.289062 C 13.055194 14.293362 13.052158 14.296381 13.048828 14.300781 C 13.046028 14.304581 13.043716 14.30868 13.041016 14.3125 C 13.035116 14.3207 13.028987 14.329461 13.023438 14.337891 C 13.019638 14.343591 13.015349 14.349649 13.011719 14.355469 C 13.009719 14.358669 13.007859 14.361934 13.005859 14.365234 C 13.002959 14.370134 13.000847 14.373946 12.998047 14.378906 C 12.993647 14.386706 12.988575 14.394414 12.984375 14.402344 C 12.982575 14.405844 12.982269 14.410633 12.980469 14.414062 C 12.978569 14.417762 12.976409 14.420098 12.974609 14.423828 C 12.972209 14.428928 12.969097 14.434353 12.966797 14.439453 C 12.961697 14.450643 12.957655 14.463149 12.953125 14.474609 C 12.943925 14.497849 12.934574 14.520582 12.927734 14.544922 C 12.925534 14.552622 12.923875 14.560579 12.921875 14.568359 C 12.919375 14.578359 12.918116 14.589449 12.916016 14.599609 C 12.914516 14.606709 12.913409 14.613874 12.912109 14.621094 C 12.911009 14.627594 12.909203 14.634015 12.908203 14.640625 L 11.693359 22.085938 L 9.96875 19.099609 C 9.7610002 18.739777 9.3051451 18.616469 8.9453125 18.824219 C 8.5854808 19.031968 8.4621722 19.489777 8.6699219 19.849609 L 11.419922 24.611328 C 11.627672 24.971162 12.085481 25.094467 12.445312 24.886719 C 12.656777 24.764629 12.785797 24.555953 12.814453 24.332031 C 12.824253 24.301001 12.832061 24.269268 12.837891 24.236328 L 14.25 15.5 L 22.25 15.5 C 22.6655 15.5 23 15.165499 23 14.75 C 23 14.334501 22.665499 14 22.25 14 L 13.666016 14 C 13.660716 13.999874 13.655681 14.000014 13.650391 14 C 13.643091 13.999981 13.636126 13.99981 13.628906 14 z M 20.769531 18.068359 C 20.577845 18.068359 20.387135 18.142162 20.240234 18.289062 L 18.826172 19.703125 L 17.412109 18.289062 C 17.265208 18.142161 17.074526 18.070312 16.882812 18.070312 C 16.691099 18.070313 16.498463 18.142162 16.351562 18.289062 C 16.057761 18.582864 16.057761 19.055808 16.351562 19.349609 L 17.765625 20.765625 L 16.351562 22.179688 C 16.057761 22.473489 16.057761 22.946433 16.351562 23.240234 C 16.645364 23.534036 17.118308 23.534036 17.412109 23.240234 L 18.826172 21.826172 L 20.240234 23.240234 C 20.534036 23.534036 21.00698 23.534036 21.300781 23.240234 C 21.594583 22.946433 21.594583 22.473489 21.300781 22.179688 L 19.886719 20.765625 L 21.300781 19.349609 C 21.594583 19.055808 21.594583 18.582864 21.300781 18.289062 C 21.15388 18.142162 20.961217 18.068359 20.769531 18.068359 z " />
</svg>
