<?xml version="1.0" encoding="UTF-8" standalone="no"?>
<!-- Created with Inkscape (http://www.inkscape.org/) -->

<svg
   width="32"
   height="32"
   viewBox="0 0 32 32"
   version="1.1"
   id="svg2112"
   inkscape:version="1.2.1 (9c6d41e410, 2022-07-14, custom)"
   sodipodi:docname="libreoffice-math.svg"
   xmlns:inkscape="http://www.inkscape.org/namespaces/inkscape"
   xmlns:sodipodi="http://sodipodi.sourceforge.net/DTD/sodipodi-0.dtd"
   xmlns:xlink="http://www.w3.org/1999/xlink"
   xmlns="http://www.w3.org/2000/svg"
   xmlns:svg="http://www.w3.org/2000/svg">
  <sodipodi:namedview
     id="namedview2114"
     pagecolor="#ffffff"
     bordercolor="#000000"
     borderopacity="0.25"
     inkscape:showpageshadow="2"
     inkscape:pageopacity="0.0"
     inkscape:pagecheckerboard="0"
     inkscape:deskcolor="#d1d1d1"
     inkscape:document-units="px"
     showgrid="false"
     inkscape:zoom="25.84375"
     inkscape:cx="15.980653"
     inkscape:cy="16"
     inkscape:window-width="1920"
     inkscape:window-height="1029"
     inkscape:window-x="0"
     inkscape:window-y="0"
     inkscape:window-maximized="1"
     inkscape:current-layer="svg2112" />
  <defs
     id="defs2109">
    <linearGradient
       inkscape:collect="always"
       id="linearGradient3723">
      <stop
         style="stop-color:#3d4c65;stop-opacity:1"
         offset="0"
         id="stop3719" />
      <stop
         style="stop-color:#455572;stop-opacity:1"
         offset="1"
         id="stop3721" />
    </linearGradient>
    <linearGradient
       inkscape:collect="always"
       id="linearGradient3529">
      <stop
         style="stop-color:#526587;stop-opacity:1"
         offset="0"
         id="stop3525" />
      <stop
         style="stop-color:#445471;stop-opacity:1"
         offset="1"
         id="stop3527" />
    </linearGradient>
    <linearGradient
       inkscape:collect="always"
       xlink:href="#linearGradient3529"
       id="linearGradient3515"
       x1="5"
       y1="2"
       x2="27.00005"
       y2="30"
       gradientUnits="userSpaceOnUse" />
    <linearGradient
       inkscape:collect="always"
       xlink:href="#linearGradient3723"
       id="linearGradient3523"
       x1="27"
       y1="6.875"
       x2="22.125"
       y2="2"
       gradientUnits="userSpaceOnUse" />
  </defs>
  <path
     id="rect3085"
     style="fill:url(#linearGradient3515);fill-opacity:1;stroke-width:1.99999;stroke-linecap:round;stroke-linejoin:round"
     d="M 8,2 C 6.3431458,2 5,3.3431458 5,5 v 22 c 0,1.656854 1.3431458,3 3,3 h 16 c 1.656854,0 3,-1.343146 3,-3 V 13.5 C 27.003,12.258536 26.870586,11.870595 26,11 L 18,3 C 17.269427,2.3079061 16.874494,2 15.75,2 Z"
     sodipodi:nodetypes="sssssscccss" />
  <path
     id="rect2140"
     style="fill:url(#linearGradient3523);fill-opacity:1;stroke-width:1.99999;stroke-linecap:round;stroke-linejoin:round"
     d="M 20.25 2 C 19.733848 2.00295 19.541235 2.5291266 19.75 2.75 L 26.25 9.25 C 26.465713 9.4735929 26.998687 9.3038874 27 8.75 L 27 5 A 3 3 0 0 0 24 2 L 20.25 2 z " />
  <path
     id="rect608"
     style="fill:#fafafa;stroke-width:2;stroke-linecap:round"
     d="m 7.9999738,3.9999945 h 7.4996722 c 0.784739,-0.0044 1.118187,0.1182141 1.720708,0.7207346 l 7.046248,7.0455819 c 0.587618,0.598333 0.733372,0.872773 0.733372,1.733378 v 13.500483 c 0,0.554 -0.446,1 -1,1 H 7.9999738 c -0.554,0 -1,-0.446 -1,-1 V 4.9999945 c 0,-0.554 0.446,-1 1,-1 z"
     sodipodi:nodetypes="sccccssssss" />
  <path
     id="rect853"
     style="fill:#526587;fill-opacity:1;stroke-width:1.99999;stroke-linecap:round;stroke-linejoin:round"
     d="m 13.628884,14 c -0.0059,1.56e-4 -0.01172,6.82e-4 -0.01757,9.77e-4 -0.0065,3.26e-4 -0.01304,4.8e-4 -0.01954,9.76e-4 -0.0062,4.73e-4 -0.01236,0.0013 -0.01856,0.002 -0.01243,0.0013 -0.02483,0.003 -0.03712,0.0049 -0.0013,2.01e-4 -0.0026,7.68e-4 -0.0039,9.76e-4 -0.0046,7.22e-4 -0.0091,0.0012 -0.01368,0.002 -0.0065,0.0011 -0.01308,0.0026 -0.01954,0.0039 -0.01213,0.0025 -0.02419,0.0048 -0.03613,0.0078 -0.0082,0.0021 -0.01633,0.0045 -0.02442,0.0068 -0.0038,0.0011 -0.0079,0.0018 -0.01172,0.0029 -0.0048,0.0015 -0.0098,0.0033 -0.01466,0.0049 -0.01164,0.0039 -0.02283,0.0083 -0.03417,0.0127 -0.0082,0.0032 -0.01629,0.0063 -0.02442,0.0098 -0.0077,0.0033 -0.01489,0.0072 -0.02245,0.01073 -0.0022,0.001 -0.0046,0.0019 -0.0068,0.0029 -0.0039,0.0019 -0.0078,0.0039 -0.01172,0.0059 -0.01028,0.0051 -0.0203,0.01002 -0.03027,0.01561 -0.0029,0.0017 -0.0059,0.0032 -0.0088,0.0049 -0.007,0.004 -0.01368,0.0084 -0.02052,0.0127 -0.002,0.0012 -0.0039,0.0026 -0.0059,0.0039 -0.0056,0.0036 -0.01115,0.0071 -0.01659,0.01073 -0.0036,0.0024 -0.0072,0.0053 -0.01073,0.0078 -0.0073,0.0051 -0.01436,0.01024 -0.02147,0.01561 -0.0063,0.0048 -0.0124,0.0097 -0.01856,0.01467 -0.0022,0.0017 -0.0047,0.0031 -0.0068,0.0049 -0.0034,0.0028 -0.0064,0.006 -0.0098,0.0088 -0.0079,0.0067 -0.01584,0.01346 -0.02343,0.02052 -0.0024,0.0022 -0.0045,0.0046 -0.0068,0.0068 -0.0043,0.0042 -0.0094,0.0075 -0.01368,0.01172 -0.0031,0.0031 -0.0057,0.0066 -0.0088,0.0098 -0.0064,0.0066 -0.0124,0.01364 -0.01856,0.02052 -0.0059,0.0067 -0.01187,0.01364 -0.01758,0.02052 -0.0016,0.0019 -0.0033,0.0039 -0.0049,0.0059 -0.0033,0.0041 -0.0065,0.0085 -0.0098,0.0127 -0.0034,0.0043 -0.0074,0.0083 -0.01073,0.0127 -0.0028,0.0038 -0.0051,0.0079 -0.0078,0.01172 -0.0059,0.0082 -0.01202,0.01599 -0.01757,0.02442 -0.0038,0.0057 -0.0071,0.01175 -0.01073,0.01757 -0.002,0.0032 -0.0039,0.0065 -0.0059,0.0098 -0.0029,0.0049 -0.006,0.0097 -0.0088,0.01466 -0.0044,0.0078 -0.0085,0.0155 -0.0127,0.02343 -0.0018,0.0035 -0.0031,0.0073 -0.0049,0.01073 -0.0019,0.0037 -0.0041,0.007 -0.0059,0.01073 -0.0024,0.0051 -0.0045,0.01051 -0.0068,0.01561 -0.0051,0.01119 -0.01013,0.02271 -0.01466,0.03417 -0.0092,0.02324 -0.01758,0.04695 -0.02442,0.07129 -0.0022,0.0077 -0.0039,0.01565 -0.0059,0.02343 -0.0025,0.01 -0.0047,0.02011 -0.0068,0.03027 -0.0015,0.0071 -0.0026,0.01425 -0.0039,0.02147 -0.0011,0.0065 -0.0029,0.01293 -0.0039,0.01954 L 11.693937,22.086142 9.969331,19.098844 C 9.761581,18.739011 9.304752,18.616681 8.944919,18.824431 8.5850869,19.03218 8.46178,19.48901 8.6695299,19.848843 l 2.7499931,4.762683 c 0.20775,0.359834 0.665556,0.48314 1.025388,0.275392 0.211465,-0.12209 0.340483,-0.330765 0.369139,-0.554687 0.0098,-0.03103 0.01859,-0.06276 0.02442,-0.0957 L 14.25,15.50022 h 8.000001 c 0.4155,0 0.749998,-0.334499 0.749998,-0.749998 0,-0.415499 -0.334499,-0.749998 -0.749998,-0.749998 h -8.584085 c -0.0053,-1.26e-4 -0.01032,1.4e-5 -0.01561,0 -0.0073,-1.9e-5 -0.01425,-1.9e-4 -0.02147,0 z"
     sodipodi:nodetypes="csscsccccccccccccccccsccccccccccccccccscsccccccccccccsccscccssscscc" />
  <g
     id="g2235"
     transform="matrix(1.3362617,-1.3362617,1.3362617,1.3362617,-7.7543836,19.394407)">
    <rect
       style="fill:#3d4c65;fill-opacity:1;stroke-width:1.05833;stroke-linecap:round;stroke-linejoin:round"
       id="rect1831"
       width="0.79374999"
       height="3.7041667"
       x="9.036479"
       y="8.6067457"
       ry="0.39687502" />
    <rect
       style="fill:#455572;fill-opacity:1;stroke-width:1.05833;stroke-linecap:round;stroke-linejoin:round"
       id="rect2043"
       width="0.79374981"
       height="3.7041664"
       x="10.061954"
       y="-11.285437"
       ry="0.3968749"
       transform="rotate(90)" />
  </g>
</svg>
