<?xml version="1.0" encoding="UTF-8" standalone="no"?>
<!-- Created with Inkscape (http://www.inkscape.org/) -->

<svg
   width="32"
   height="32"
   viewBox="0 0 32 32"
   version="1.1"
   id="svg2112"
   inkscape:version="1.2.1 (9c6d41e410, 2022-07-14, custom)"
   sodipodi:docname="libreoffice-calc.svg"
   xmlns:inkscape="http://www.inkscape.org/namespaces/inkscape"
   xmlns:sodipodi="http://sodipodi.sourceforge.net/DTD/sodipodi-0.dtd"
   xmlns:xlink="http://www.w3.org/1999/xlink"
   xmlns="http://www.w3.org/2000/svg"
   xmlns:svg="http://www.w3.org/2000/svg">
  <sodipodi:namedview
     id="namedview2114"
     pagecolor="#ffffff"
     bordercolor="#000000"
     borderopacity="0.25"
     inkscape:showpageshadow="2"
     inkscape:pageopacity="0.0"
     inkscape:pagecheckerboard="0"
     inkscape:deskcolor="#d1d1d1"
     inkscape:document-units="px"
     showgrid="false"
     inkscape:zoom="25.84375"
     inkscape:cx="15.980653"
     inkscape:cy="16"
     inkscape:window-width="1920"
     inkscape:window-height="1029"
     inkscape:window-x="0"
     inkscape:window-y="0"
     inkscape:window-maximized="1"
     inkscape:current-layer="svg2112" />
  <defs
     id="defs2109">
    <linearGradient
       inkscape:collect="always"
       id="linearGradient3529">
      <stop
         style="stop-color:#6ed85e;stop-opacity:1"
         offset="0"
         id="stop3525" />
      <stop
         style="stop-color:#41ba2f;stop-opacity:1"
         offset="1"
         id="stop3527" />
    </linearGradient>
    <linearGradient
       inkscape:collect="always"
       id="linearGradient3723">
      <stop
         style="stop-color:#369a26;stop-opacity:1"
         offset="0"
         id="stop3719" />
      <stop
         style="stop-color:#3fb12c;stop-opacity:1"
         offset="1"
         id="stop3721" />
    </linearGradient>
    <linearGradient
       inkscape:collect="always"
       xlink:href="#linearGradient3723"
       id="linearGradient1266"
       x1="27"
       y1="6.875"
       x2="22.125"
       y2="2"
       gradientUnits="userSpaceOnUse" />
    <linearGradient
       inkscape:collect="always"
       xlink:href="#linearGradient3529"
       id="linearGradient1274"
       x1="5"
       y1="2"
       x2="27.00005"
       y2="30"
       gradientUnits="userSpaceOnUse" />
  </defs>
  <path
     id="rect3085"
     style="fill:url(#linearGradient1274);fill-opacity:1;stroke-width:1.99999;stroke-linecap:round;stroke-linejoin:round"
     d="M 8,2 C 6.3431458,2 5,3.3431458 5,5 v 22 c 0,1.656854 1.3431458,3 3,3 h 16 c 1.656854,0 3,-1.343146 3,-3 V 13.5 C 27.003,12.258536 26.870586,11.870595 26,11 L 18,3 C 17.269427,2.3079061 16.874494,2 15.75,2 Z"
     sodipodi:nodetypes="sssssscccss" />
  <path
     id="rect2140"
     style="fill:url(#linearGradient1266);fill-opacity:1;stroke-width:1.99999;stroke-linecap:round;stroke-linejoin:round"
     d="M 20.25 2 C 19.733848 2.00295 19.541235 2.5291266 19.75 2.75 L 26.25 9.25 C 26.465713 9.4735929 26.998687 9.3038874 27 8.75 L 27 5 A 3 3 0 0 0 24 2 L 20.25 2 z " />
  <path
     id="rect608"
     style="fill:#fafafa;stroke-width:2;stroke-linecap:round"
     d="m 7.9999738,3.9999945 h 7.4996722 c 0.784739,-0.0044 1.118187,0.1182141 1.720708,0.7207346 l 7.046248,7.0455819 c 0.587618,0.598333 0.733372,0.872773 0.733372,1.733378 v 13.500483 c 0,0.554 -0.446,1 -1,1 H 7.9999738 c -0.554,0 -1,-0.446 -1,-1 V 4.9999945 c 0,-0.554 0.446,-1 1,-1 z"
     sodipodi:nodetypes="sccccssssss" />
  <path
     id="rect67109"
     style="fill:#39a128;fill-opacity:1;stroke-width:1.99999;stroke-linecap:round;stroke-linejoin:round"
     d="m 10.999999,14.999972 h 9.999975 c 0.554,0 0.999999,0.445998 0.999999,0.999997 v 7.999981 c 0,0.553998 -0.445999,0.999998 -0.999999,0.999998 h -9.999975 c -0.553998,0 -0.999997,-0.446 -0.999997,-0.999998 v -7.999981 c 0,-0.553999 0.445999,-0.999997 0.999997,-0.999997 z"
     sodipodi:nodetypes="sssssssss" />
  <path
     id="rect67897"
     style="fill:#6ed85e;fill-opacity:1;stroke-width:1.99999;stroke-linecap:round;stroke-linejoin:round"
     d="M 21.999973,17 V 14.999996 C 21.999973,14.445998 21.553974,14 20.999974,14 h -9.999975 c -0.553998,0 -0.999997,0.445998 -0.999997,0.999996 V 17 Z"
     sodipodi:nodetypes="csssscc" />
  <path
     id="rect68390"
     style="fill:#369a26;fill-opacity:1;stroke-width:1.8839;stroke-linecap:round;stroke-linejoin:round"
     d="m 10.000002,23.000001 v 2.000046 c 0,0.553998 0.445999,0.999996 0.999998,0.999996 h 9.999976 c 0.554,0 0.999998,-0.445998 0.999998,-0.999996 v -2.000046 z"
     sodipodi:nodetypes="csssscc" />
  <path
     id="rect71991"
     style="fill:#3fb12c;fill-opacity:1;stroke-width:2.19088;stroke-linecap:round;stroke-linejoin:round"
     d="m 10,17.000003 h 11.999971 v 3 H 10 Z"
     sodipodi:nodetypes="ccccc" />
  <rect
     style="fill:#41ba2f;fill-opacity:1;stroke-width:0.830219;stroke-linecap:round;stroke-linejoin:round"
     id="rect76988"
     width="3.9999907"
     height="2.9999986"
     x="10.000001"
     y="20.000002" />
  <rect
     style="fill:#41ba2f;fill-opacity:1;stroke-width:2.19088;stroke-linecap:round;stroke-linejoin:round"
     id="rect78678"
     width="3.9999907"
     height="2.9999995"
     x="13.99999"
     y="17.000002" />
  <rect
     style="fill:#41ba2f;fill-opacity:1;stroke-width:2.19088;stroke-linecap:round;stroke-linejoin:round"
     id="rect78782"
     width="3.9999921"
     height="3"
     x="17.999985"
     y="20.000002" />
  <rect
     style="fill:#40b52d;fill-opacity:1;stroke-width:2.19088;stroke-linecap:round;stroke-linejoin:round"
     id="rect78784"
     width="3.999989"
     height="3"
     x="13.999995"
     y="23" />
  <path
     id="rect84235"
     style="fill:#47c931;fill-opacity:1;stroke-width:1.99999;stroke-linecap:round;stroke-linejoin:round"
     d="m 10.000002,23 v 2.000046 c 0,0.553998 0.445999,0.999998 0.999998,0.999998 h 2.999993 V 23 Z"
     sodipodi:nodetypes="cssccc" />
  <rect
     style="fill:#47c931;fill-opacity:1;stroke-width:2.19088;stroke-linecap:round;stroke-linejoin:round"
     id="rect85339"
     width="3.9999881"
     height="2.9999995"
     x="17.999985"
     y="17.000002" />
</svg>
