<?xml version="1.0" encoding="UTF-8" standalone="no"?>
<!-- Created with Inkscape (http://www.inkscape.org/) -->

<svg
   width="32"
   height="32"
   viewBox="0 0 32 32"
   version="1.1"
   id="svg1"
   inkscape:version="1.3.2 (091e20ef0f, 2023-11-25, custom)"
   sodipodi:docname="lunarclient.svg"
   xmlns:inkscape="http://www.inkscape.org/namespaces/inkscape"
   xmlns:sodipodi="http://sodipodi.sourceforge.net/DTD/sodipodi-0.dtd"
   xmlns:xlink="http://www.w3.org/1999/xlink"
   xmlns="http://www.w3.org/2000/svg"
   xmlns:svg="http://www.w3.org/2000/svg">
  <sodipodi:namedview
     id="namedview1"
     pagecolor="#ffffff"
     bordercolor="#000000"
     borderopacity="0.25"
     inkscape:showpageshadow="2"
     inkscape:pageopacity="0.0"
     inkscape:pagecheckerboard="0"
     inkscape:deskcolor="#d1d1d1"
     inkscape:document-units="px"
     inkscape:zoom="25.0625"
     inkscape:cx="16"
     inkscape:cy="16"
     inkscape:window-width="1920"
     inkscape:window-height="1012"
     inkscape:window-x="0"
     inkscape:window-y="0"
     inkscape:window-maximized="1"
     inkscape:current-layer="svg1" />
  <defs
     id="defs1">
    <linearGradient
       inkscape:collect="always"
       id="linearGradient1066">
      <stop
         style="stop-color:#555556;stop-opacity:1;"
         offset="0"
         id="stop1062" />
      <stop
         style="stop-color:#2d2d2d;stop-opacity:1;"
         offset="1"
         id="stop1064" />
    </linearGradient>
    <linearGradient
       inkscape:collect="always"
       xlink:href="#linearGradient1066"
       id="linearGradient3"
       x1="4"
       y1="2"
       x2="30"
       y2="30"
       gradientUnits="userSpaceOnUse" />
  </defs>
  <path
     d="M 16.574599,2 V 2.00137 C 15.992967,1.9870289 15.418618,2.1336551 14.914442,2.4251937 L 5.5855578,7.8337661 C 4.6042857,8.4024891 3.9998389,9.4537448 4,10.591373 v 10.817145 c 3.256e-4,1.137139 0.6047072,2.18776 1.5855578,2.756239 l 9.3288842,5.408572 c 0.981119,0.568877 2.189997,0.568877 3.171116,0 l 9.328885,-5.408572 C 28.395293,23.596278 28.999675,22.545657 29,21.408518 V 10.591373 C 29.000161,9.4537449 28.395715,8.4024893 27.414443,7.8337661 L 18.085558,2.4251937 C 17.625343,2.1585846 17.105778,2.0123757 16.574599,2 Z"
     style="fill:url(#linearGradient3)"
     id="path1" />
  <path
     d="m 16.603516,5.5 c -0.12691,-6.271e-4 -0.251904,0.030957 -0.363282,0.091797 0,0 -2.220154,1.2160016 -4.445312,2.523438 C 10.682343,8.768952 9.56926,9.445364 8.7167969,10.013672 8.2905654,10.297826 7.9306454,10.55169 7.6523438,10.78125 7.513193,10.89603 7.3952548,11.003257 7.2851562,11.128906 7.1750578,11.254556 7,11.361944 7,11.800781 V 20 h 1.5 v -7.960938 c 0.034326,-0.03248 0.050059,-0.05229 0.1074219,-0.09961 0.2056795,-0.169656 0.5379561,-0.408768 0.9414061,-0.677734 0.806901,-0.537934 1.905954,-1.207245 3.00586,-1.853516 2.017509,-1.185428 3.719669,-2.1162997 4.041015,-2.2929686 0.318874,0.179372 1.974906,1.1076816 3.943359,2.2910156 1.074886,0.646166 2.149374,1.314002 2.9375,1.851562 0.394064,0.26878 0.717565,0.506656 0.917969,0.675782 0.05573,0.04703 0.07214,0.06541 0.105469,0.09766 V 20 H 26 V 11.800781 C 26,11.370869 25.830558,11.260753 25.722656,11.134766 25.614754,11.008777 25.49765,10.902154 25.361328,10.787109 25.088684,10.55702 24.73719,10.301919 24.320312,10.017578 23.486559,9.448897 22.398168,8.772964 21.310547,8.119141 19.135304,6.8114948 16.966797,5.5957031 16.966797,5.5957031 16.855782,5.5335027 16.730767,5.5005687 16.603516,5.5 Z M 16.5,8 16.322266,8.322266 16,8.5 16.322266,8.677734 16.5,9 16.677734,8.677734 17,8.5 16.677734,8.322266 Z M 14.453125,9.453125 C 12.064659,10.411877 10.499543,12.727072 10.5,15.300781 10.502161,17.742927 11.915526,19.96382 14.126953,21 H 6 v 0.332031 h 2 v 0.330078 h 16 v -0.330078 h 2 V 21 h -6.544922 c 1.450843,-0.672313 2.591745,-1.871168 3.191406,-3.353516 -0.745843,0.299272 -1.542058,0.453078 -2.345703,0.453125 C 16.821535,18.100052 14.000635,15.280027 14,11.800781 13.999797,10.996479 14.153608,10.199578 14.453125,9.453125 Z M 21.5,11 21.322266,11.322266 21,11.5 21.322266,11.677734 21.5,12 21.677734,11.677734 22,11.5 21.677734,11.322266 Z m -5.90625,0.679688 -0.263672,0.484374 -0.486328,0.265626 0.486328,0.265624 0.263672,0.484376 0.265625,-0.484376 0.484375,-0.265624 -0.484375,-0.265626 z M 9.5,12 9.322266,12.322266 9,12.5 9.322266,12.677734 9.5,13 9.677734,12.677734 10,12.5 9.677734,12.322266 Z m 9,1 -0.177734,0.322266 L 18,13.5 18.322266,13.677734 18.5,14 18.677734,13.677734 19,13.5 18.677734,13.322266 Z m 4,0.599609 -0.353516,0.646485 L 21.5,14.599609 22.146484,14.953125 22.5,15.599609 22.853516,14.953125 23.5,14.599609 22.853516,14.246094 Z M 19.400391,14.75 19.134766,15.234375 18.650391,15.5 19.134766,15.765625 19.400391,16.25 19.666016,15.765625 20.150391,15.5 19.666016,15.234375 Z M 10,17.5 9.646484,18.146484 9,18.5 9.646484,18.853516 10,19.5 10.353516,18.853516 11,18.5 10.353516,18.146484 Z m -4,4.169922 v 0.333984 h 3 v 0.326172 H 7 v 0.332031 h 18 v -0.332031 h -2 v -0.326172 h 3 v -0.333984 z m 5,1 V 23 H 9 v 0.332031 h 4.5 v 0.330078 h 5 V 23.332031 H 23 V 23 h -2 v -0.330078 z m 1.5,1 v 0.333984 h 7 v -0.333984 z"
     style="fill:#ffffff"
     id="path2" />
</svg>
