<?xml version="1.0" encoding="UTF-8" standalone="no"?>
<!-- Created with Inkscape (http://www.inkscape.org/) -->

<svg
   width="32"
   height="32"
   viewBox="0 0 32 32"
   version="1.1"
   id="svg5"
   inkscape:version="1.2.1 (9c6d41e410, 2022-07-14, custom)"
   sodipodi:docname="ms-office.svg"
   xmlns:inkscape="http://www.inkscape.org/namespaces/inkscape"
   xmlns:sodipodi="http://sodipodi.sourceforge.net/DTD/sodipodi-0.dtd"
   xmlns:xlink="http://www.w3.org/1999/xlink"
   xmlns="http://www.w3.org/2000/svg"
   xmlns:svg="http://www.w3.org/2000/svg">
  <sodipodi:namedview
     id="namedview7"
     pagecolor="#ffffff"
     bordercolor="#000000"
     borderopacity="0.25"
     inkscape:showpageshadow="2"
     inkscape:pageopacity="0.0"
     inkscape:pagecheckerboard="0"
     inkscape:deskcolor="#d1d1d1"
     inkscape:document-units="px"
     showgrid="false"
     inkscape:zoom="25.0625"
     inkscape:cx="15.98005"
     inkscape:cy="16"
     inkscape:window-width="1920"
     inkscape:window-height="1011"
     inkscape:window-x="0"
     inkscape:window-y="0"
     inkscape:window-maximized="1"
     inkscape:current-layer="svg5" />
  <defs
     id="defs2">
    <linearGradient
       inkscape:collect="always"
       xlink:href="#linearGradient1260"
       id="linearGradient2046"
       gradientUnits="userSpaceOnUse"
       x1="45.200001"
       y1="-1.42"
       x2="45.200001"
       y2="57.799999"
       gradientTransform="matrix(0.45833324,0,0,0.45833324,1.3333386,1.1933554)" />
    <linearGradient
       inkscape:collect="always"
       id="linearGradient1260">
      <stop
         style="stop-color:#ffb900;stop-opacity:1;"
         offset="0"
         id="stop1256" />
      <stop
         style="stop-color:#ef8400;stop-opacity:1;"
         offset="0.17"
         id="stop1264" />
      <stop
         style="stop-color:#e25c01;stop-opacity:1;"
         offset="0.30000001"
         id="stop1266" />
      <stop
         style="stop-color:#d93f01;stop-opacity:1;"
         offset="0.465"
         id="stop1268" />
      <stop
         style="stop-color:#d83b01;stop-opacity:1;"
         offset="0.5"
         id="stop1258" />
    </linearGradient>
    <linearGradient
       inkscape:collect="always"
       xlink:href="#linearGradient1336"
       id="linearGradient2106"
       gradientUnits="userSpaceOnUse"
       x1="35.16"
       y1="-0.23999999"
       x2="28.52"
       y2="9.2399998"
       gradientTransform="matrix(0.45833324,0,0,0.45833324,1.3333386,1.1933554)" />
    <linearGradient
       inkscape:collect="always"
       id="linearGradient1336">
      <stop
         style="stop-color:#000000;stop-opacity:0.40000001;"
         offset="0"
         id="stop1332" />
      <stop
         style="stop-color:#000000;stop-opacity:0;"
         offset="1"
         id="stop1334" />
    </linearGradient>
    <linearGradient
       inkscape:collect="always"
       xlink:href="#linearGradient1336"
       id="linearGradient2136"
       gradientUnits="userSpaceOnUse"
       x1="46.32"
       y1="56.549999"
       x2="27.99"
       y2="54.950001"
       gradientTransform="matrix(0.45833324,0,0,0.45833324,1.3333386,1.1933554)" />
    <linearGradient
       inkscape:collect="always"
       xlink:href="#linearGradient1876"
       id="linearGradient2016"
       gradientUnits="userSpaceOnUse"
       x1="34.52"
       y1="0.67000002"
       x2="3.1600001"
       y2="45.450001"
       gradientTransform="matrix(0.45833324,0,0,0.45833324,1.3333386,1.1933554)" />
    <linearGradient
       inkscape:collect="always"
       id="linearGradient1876">
      <stop
         style="stop-color:#800600;stop-opacity:1;"
         offset="0"
         id="stop1872" />
      <stop
         style="stop-color:#c72727;stop-opacity:1;"
         offset="0.73000002"
         id="stop1880" />
      <stop
         style="stop-color:#c13959;stop-opacity:1;"
         offset="0.82000005"
         id="stop1886" />
      <stop
         style="stop-color:#bc4b81;stop-opacity:1;"
         offset="0.91000003"
         id="stop1884" />
      <stop
         style="stop-color:#b95799;stop-opacity:1;"
         offset="0.97000003"
         id="stop1882" />
      <stop
         style="stop-color:#b85ba2;stop-opacity:1;"
         offset="1"
         id="stop1874" />
    </linearGradient>
    <linearGradient
       inkscape:collect="always"
       xlink:href="#linearGradient1606"
       id="linearGradient2076"
       gradientUnits="userSpaceOnUse"
       x1="18.5"
       y1="55.630001"
       x2="59.439999"
       y2="55.630001"
       gradientTransform="matrix(0.45833324,0,0,0.45833324,1.3333386,1.1933554)" />
    <linearGradient
       inkscape:collect="always"
       id="linearGradient1606">
      <stop
         style="stop-color:#f32b44;stop-opacity:1;"
         offset="0"
         id="stop1602" />
      <stop
         style="stop-color:#a4070a;stop-opacity:1;"
         offset="0.60000002"
         id="stop1604" />
    </linearGradient>
  </defs>
  <path
     d="m 17.104585,2.1100219 2.103749,4.8124987 V 24.000001 l -2.071666,5.610015 7.832915,-2.232083 C 26.169823,27.033088 26.997544,25.936311 27,24.687517 V 7.032521 C 27.000549,5.7802285 26.169608,4.6798005 24.965,4.3375225 Z"
     style="fill:url(#linearGradient2046);fill-opacity:1;stroke-width:0.458333"
     id="path2027"
     sodipodi:nodetypes="ccccccccc" />
  <path
     d="m 19.208334,24.000001 h -8.740415 c -1.4974391,0.01604 -2.02173,1.646179 -0.7287487,2.401683 l 5.2066647,2.951665 c 0.428853,0.243785 0.913782,0.37173 1.407084,0.37125 v 0 c 0.265411,-1.73e-4 0.529397,-0.03877 0.783749,-0.114583 1.228622,-0.349084 2.075121,-1.472751 2.071666,-2.749999 z"
     style="fill:url(#linearGradient2076);fill-opacity:1;stroke-width:0.458333"
     id="path2057"
     sodipodi:nodetypes="ccccssccc" />
  <path
     d="m 19.208334,24.000001 h -8.740415 c -1.4974391,0.01604 -2.02173,1.646179 -0.7287487,2.401683 l 5.2066647,2.951665 c 0.428853,0.243785 0.913782,0.37173 1.407084,0.37125 v 0 c 0.265411,-1.73e-4 0.529397,-0.03877 0.783749,-0.114583 1.228622,-0.349084 2.07512,-1.472751 2.071666,-2.749999 z"
     style="fill:url(#linearGradient2136);fill-opacity:1;stroke-width:0.458333"
     id="path2117"
     sodipodi:nodetypes="ccccssccc" />
  <path
     d="M 7.172504,23.472934 9.4641709,22.235435 C 10.104338,21.883599 10.501521,21.210499 10.500003,20.480019 V 11.47377 c 8.71e-4,-0.840307 0.526163,-1.590731 1.315416,-1.8791666 l 7.392915,-2.6720828 v -2.030416 c -0.0017,-1.2929427 -0.860187,-2.428161 -2.103749,-2.7820827 -0.257765,-0.074019 -0.524736,-0.1110551 -0.792917,-0.11 v 0 c -0.504425,0.00115 -1.000056,0.1321645 -1.439166,0.3804166 L 6.4116716,7.206688 C 5.5388923,7.7040109 4.9999984,8.6313274 5.0000052,9.6358543 V 22.175851 c -0.00287,1.116763 1.1907508,1.829377 2.1724988,1.297083 z"
     style="fill:url(#linearGradient2016);fill-opacity:1;stroke-width:0.458333"
     id="path1997" />
  <path
     d="M 7.172504,23.472934 9.4641709,22.235435 C 10.104338,21.883599 10.501521,21.210499 10.500003,20.480019 V 11.47377 c 8.71e-4,-0.840307 0.526163,-1.590731 1.315416,-1.8791666 l 7.392915,-2.6720828 v -2.030416 c -0.0017,-1.2929427 -0.860187,-2.4281608 -2.103749,-2.7820827 -0.257765,-0.074019 -0.524736,-0.1110551 -0.792917,-0.11 v 0 c -0.504425,0.00115 -1.000056,0.1321647 -1.439166,0.3804166 L 6.4116716,7.206688 C 5.5388923,7.7040109 4.9999984,8.6313274 5.0000052,9.6358543 V 22.175851 c -0.00277,1.116763 1.1907508,1.829377 2.1724988,1.297083 z"
     style="fill:url(#linearGradient2106);fill-opacity:1;stroke-width:0.458333"
     id="path2087" />
</svg>
