<?xml version="1.0" encoding="UTF-8" standalone="no"?>
<!-- Created with Inkscape (http://www.inkscape.org/) -->

<svg
   width="32"
   height="32"
   viewBox="0 0 32 32.000002"
   version="1.1"
   id="svg580"
   inkscape:version="1.2 (1:1.2.1+202207142221+cd75a1ee6d)"
   sodipodi:docname="org.xfce.terminal-settings.svg"
   xmlns:inkscape="http://www.inkscape.org/namespaces/inkscape"
   xmlns:sodipodi="http://sodipodi.sourceforge.net/DTD/sodipodi-0.dtd"
   xmlns:xlink="http://www.w3.org/1999/xlink"
   xmlns="http://www.w3.org/2000/svg"
   xmlns:svg="http://www.w3.org/2000/svg">
  <sodipodi:namedview
     id="namedview582"
     pagecolor="#ffffff"
     bordercolor="#000000"
     borderopacity="0.25"
     inkscape:showpageshadow="2"
     inkscape:pageopacity="0.0"
     inkscape:pagecheckerboard="0"
     inkscape:deskcolor="#d1d1d1"
     inkscape:document-units="px"
     showgrid="false"
     inkscape:zoom="25.3125"
     inkscape:cx="15.980247"
     inkscape:cy="16"
     inkscape:window-width="1920"
     inkscape:window-height="1012"
     inkscape:window-x="0"
     inkscape:window-y="0"
     inkscape:window-maximized="1"
     inkscape:current-layer="svg580" />
  <defs
     id="defs577">
    <linearGradient
       inkscape:collect="always"
       xlink:href="#linearGradient962"
       id="linearGradient1795"
       x1="0.5291667"
       y1="8.4666672"
       x2="15.345833"
       y2="8.4666672"
       gradientUnits="userSpaceOnUse"
       gradientTransform="matrix(1.8897638,0,0,1.8897638,1,1.9999996)" />
    <linearGradient
       inkscape:collect="always"
       id="linearGradient962">
      <stop
         style="stop-color:#4f4f4f;stop-opacity:1;"
         offset="0"
         id="stop958" />
      <stop
         style="stop-color:#303030;stop-opacity:1"
         offset="1"
         id="stop960" />
    </linearGradient>
    <linearGradient
       inkscape:collect="always"
       xlink:href="#linearGradient3366"
       id="linearGradient3368"
       x1="0.5291667"
       y1="3.175"
       x2="5.8208337"
       y2="3.175"
       gradientUnits="userSpaceOnUse"
       gradientTransform="matrix(1.8897638,0,0,1.8897638,1,0.9999996)" />
    <linearGradient
       inkscape:collect="always"
       id="linearGradient3366">
      <stop
         style="stop-color:#cccccc;stop-opacity:1;"
         offset="0"
         id="stop3362" />
      <stop
         style="stop-color:#cfcfcf;stop-opacity:1"
         offset="1"
         id="stop3364" />
    </linearGradient>
    <linearGradient
       inkscape:collect="always"
       xlink:href="#linearGradient3102"
       id="linearGradient3104"
       x1="5.8208332"
       y1="3.1750002"
       x2="11.1125"
       y2="3.1750002"
       gradientUnits="userSpaceOnUse"
       gradientTransform="matrix(1.8897639,0,0,1.8897638,-3e-7,1.0000001)" />
    <linearGradient
       inkscape:collect="always"
       id="linearGradient3102">
      <stop
         style="stop-color:#979797;stop-opacity:1;"
         offset="0"
         id="stop3098" />
      <stop
         style="stop-color:#999999;stop-opacity:1"
         offset="1"
         id="stop3100" />
    </linearGradient>
    <linearGradient
       inkscape:collect="always"
       xlink:href="#linearGradient3000"
       id="linearGradient3002"
       x1="11.641666"
       y1="3.1750002"
       x2="16.404167"
       y2="3.175"
       gradientUnits="userSpaceOnUse"
       gradientTransform="matrix(1.8897638,0,0,1.8897638,-0.9999999,0.9999996)" />
    <linearGradient
       inkscape:collect="always"
       id="linearGradient3000">
      <stop
         style="stop-color:#616161;stop-opacity:1;"
         offset="0"
         id="stop2996" />
      <stop
         style="stop-color:#636363;stop-opacity:1"
         offset="1"
         id="stop2998" />
    </linearGradient>
    <linearGradient
       inkscape:collect="always"
       xlink:href="#linearGradient3366"
       id="linearGradient3795"
       x1="7.8253856"
       y1="10.813717"
       x2="12.587885"
       y2="11.872049"
       gradientUnits="userSpaceOnUse"
       gradientTransform="matrix(1.8897638,0,0,1.8897638,2.2118697,1.0646298)" />
    <linearGradient
       inkscape:collect="always"
       xlink:href="#linearGradient3102"
       id="linearGradient4653"
       x1="1.8182354"
       y1="13.25029"
       x2="6.5807357"
       y2="14.308622"
       gradientUnits="userSpaceOnUse"
       gradientTransform="matrix(-0.06194412,1.0619441,-1.0619441,0.06194412,21.165655,2.7018148)" />
    <linearGradient
       inkscape:collect="always"
       xlink:href="#linearGradient3366"
       id="linearGradient4373"
       x1="2.1166668"
       y1="8.5166645"
       x2="6.8791666"
       y2="9.5749969"
       gradientUnits="userSpaceOnUse"
       gradientTransform="matrix(1.0619441,-0.06194412,-0.06194412,1.0619441,0.46880949,-2.9000569)" />
    <linearGradient
       inkscape:collect="always"
       xlink:href="#linearGradient7024"
       id="linearGradient7026"
       x1="14.634075"
       y1="13.653037"
       x2="4.0507412"
       y2="3.0697033"
       gradientUnits="userSpaceOnUse"
       gradientTransform="matrix(0.73490815,0,0,0.73490815,17.134194,16.85517)" />
    <linearGradient
       inkscape:collect="always"
       id="linearGradient7024">
      <stop
         style="stop-color:#ffffff;stop-opacity:1;"
         offset="0"
         id="stop7020" />
      <stop
         style="stop-color:#f0f0f0;stop-opacity:1"
         offset="0.25"
         id="stop7732" />
      <stop
         style="stop-color:#cccccc;stop-opacity:1"
         offset="1"
         id="stop7022" />
    </linearGradient>
    <linearGradient
       inkscape:collect="always"
       xlink:href="#linearGradient8250"
       id="linearGradient8252"
       x1="5.458415"
       y1="4.8895097"
       x2="12.337581"
       y2="11.768677"
       gradientUnits="userSpaceOnUse"
       gradientTransform="matrix(0.62992125,0,0,0.62992125,18.228299,17.586662)" />
    <linearGradient
       inkscape:collect="always"
       id="linearGradient8250">
      <stop
         style="stop-color:#0568ba;stop-opacity:1;"
         offset="0"
         id="stop8246" />
      <stop
         style="stop-color:#0568ba;stop-opacity:1"
         offset="0.23999999"
         id="stop9054" />
      <stop
         style="stop-color:#0f4c8a;stop-opacity:1"
         offset="0.80000001"
         id="stop8830" />
      <stop
         style="stop-color:#0f4c8f;stop-opacity:1"
         offset="1"
         id="stop8248" />
    </linearGradient>
    <linearGradient
       inkscape:collect="always"
       id="linearGradient6060">
      <stop
         style="stop-color:#8a8f97;stop-opacity:1;"
         offset="0"
         id="stop6056" />
      <stop
         style="stop-color:#8a8f97;stop-opacity:1"
         offset="0.14573747"
         id="stop6576" />
      <stop
         style="stop-color:#616e7a;stop-opacity:1"
         offset="0.89999998"
         id="stop6770" />
      <stop
         style="stop-color:#616e7a;stop-opacity:1"
         offset="1"
         id="stop6058" />
    </linearGradient>
    <linearGradient
       inkscape:collect="always"
       xlink:href="#linearGradient6060"
       id="linearGradient1752"
       x1="17"
       y1="16.328125"
       x2="30"
       y2="26.061293"
       gradientUnits="userSpaceOnUse" />
  </defs>
  <rect
     style="fill:url(#linearGradient1795);fill-opacity:1;stroke-width:0.499999"
     id="rect1685"
     width="28"
     height="21"
     x="2"
     y="6"
     ry="2" />
  <path
     id="rect1899"
     style="fill:url(#linearGradient3368);fill-opacity:1;stroke-width:0.499999"
     d="M 4.0000002,5 H 28.000001 c 1.108,0 2.000001,0.892 2.000001,2 V 9 H 2.0000001 V 7 c 0,-1.108 0.8920001,-2 2.0000001,-2 z"
     sodipodi:nodetypes="sssccss" />
  <rect
     style="fill:url(#linearGradient3104);fill-opacity:1;stroke-width:0.5"
     id="rect2168"
     width="10"
     height="4"
     x="11"
     y="5" />
  <path
     id="rect2398"
     style="fill:url(#linearGradient3002);fill-opacity:1;stroke-width:0.61237"
     d="m 20.999998,5 h 7.000003 C 29.108,5 30,5.892 30,7 v 2 h -9 z"
     sodipodi:nodetypes="cssccc" />
  <path
     id="rect3748"
     style="fill:url(#linearGradient3795);fill-opacity:1;stroke-width:0.499999"
     d="M 17.499999,21 H 25.5 c 0.277,0 0.5,0.222999 0.5,0.500001 V 23.5 C 26,23.777 25.777,24 25.5,24 H 17.499999 C 17.223,24 17,23.777 17,23.5 V 21.500001 C 17,21.222999 17.223,21 17.499999,21 Z" />
  <g
     id="g4959"
     transform="matrix(1.2520117,1.3362648,-1.2520117,1.3362648,12.431606,0.1867462)">
    <path
       id="rect4127"
       style="fill:url(#linearGradient4653);stroke-width:0.280494"
       d="M 7.2465427,5.7180405 6.9843126,10.213604 c -0.00908,0.155659 -0.1417032,0.288282 -0.297362,0.297362 l -1.1238905,0.06556 C 5.4074013,10.585603 5.2893971,10.467599 5.2984768,10.31194 L 5.5607069,5.8163767 C 5.5697866,5.6607178 5.7024101,5.5280943 5.8580689,5.5190146 L 6.9819595,5.453457 c 0.1556588,-0.00908 0.273663,0.1089245 0.2645832,0.2645835 z" />
    <path
       id="rect3899"
       style="fill:url(#linearGradient4373);stroke-width:0.280494"
       d="M 2.4863962,5.7156871 6.9819595,5.453457 c 0.1556588,-0.00908 0.273663,0.1089245 0.2645832,0.2645835 L 7.1809852,6.8419312 C 7.1719055,6.9975901 7.039282,7.1302136 6.8836232,7.1392933 L 2.3880599,7.4015234 C 2.2324011,7.4106031 2.1143969,7.2925989 2.1234766,7.13694 L 2.1890341,6.0130493 C 2.1981138,5.8573904 2.3307374,5.7247668 2.4863962,5.7156871 Z" />
  </g>
  <path
     id="path1035"
     style="fill:url(#linearGradient1752);fill-opacity:1"
     d="M 26.115234 16.328125 C 25.672832 17.031425 24.892224 17.5 24 17.5 C 23.110868 17.5 22.331891 17.035168 21.888672 16.335938 A 7 7 0 0 0 19.285156 17.839844 C 19.667811 18.573242 19.680503 19.480666 19.236328 20.25 C 18.793279 21.017384 18.005445 21.458921 17.181641 21.496094 A 7 7 0 0 0 17 23 A 7 7 0 0 0 17.181641 24.507812 C 18.004999 24.545419 18.793658 24.983273 19.236328 25.75 C 19.680503 26.519334 19.667811 27.426758 19.285156 28.160156 A 7 7 0 0 0 21.888672 29.664062 C 22.331891 28.964832 23.110868 28.5 24 28.5 C 24.889132 28.5 25.668109 28.964832 26.111328 29.664062 A 7 7 0 0 0 28.714844 28.160156 C 28.332189 27.426758 28.319497 26.519334 28.763672 25.75 C 29.206342 24.983273 29.995001 24.545419 30.818359 24.507812 A 7 7 0 0 0 31 23 A 7 7 0 0 0 30.833984 21.496094 C 30.004522 21.463872 29.209526 21.022242 28.763672 20.25 C 28.317762 19.477661 28.333638 18.566922 28.720703 17.832031 A 7 7 0 0 0 26.115234 16.328125 z " />
  <circle
     style="fill:url(#linearGradient7026);fill-opacity:1;stroke-width:0.194444"
     id="path6952"
     cx="24"
     cy="23"
     r="3.5" />
  <circle
     style="fill:url(#linearGradient8252);fill-opacity:1;stroke-width:0.166666"
     id="path8010"
     cx="24"
     cy="23"
     r="2" />
</svg>
