<?xml version="1.0" encoding="UTF-8" standalone="no"?>
<svg
   width="32"
   height="32"
   version="1.1"
   viewBox="0 0 32 32"
   id="svg6"
   sodipodi:docname="preferences-system-linux.svg"
   inkscape:version="1.3.2 (091e20ef0f, 2023-11-25, custom)"
   xmlns:inkscape="http://www.inkscape.org/namespaces/inkscape"
   xmlns:sodipodi="http://sodipodi.sourceforge.net/DTD/sodipodi-0.dtd"
   xmlns:xlink="http://www.w3.org/1999/xlink"
   xmlns="http://www.w3.org/2000/svg"
   xmlns:svg="http://www.w3.org/2000/svg"
   xmlns:rdf="http://www.w3.org/1999/02/22-rdf-syntax-ns#"
   xmlns:cc="http://creativecommons.org/ns#"
   xmlns:dc="http://purl.org/dc/elements/1.1/">
  <defs
     id="defs10">
    <linearGradient
       inkscape:collect="always"
       xlink:href="#linearGradient4676"
       id="linearGradient4678"
       x1="5.2915626"
       y1="7.2758985"
       x2="0.52915633"
       y2="0.92602324"
       gradientUnits="userSpaceOnUse"
       gradientTransform="matrix(3.7796033,0,0,3.7796033,3.9999997,-10e-7)" />
    <linearGradient
       inkscape:collect="always"
       id="linearGradient4676">
      <stop
         style="stop-color:#333333;stop-opacity:1;"
         offset="0"
         id="stop4672" />
      <stop
         style="stop-color:#696969;stop-opacity:1"
         offset="1"
         id="stop4674" />
    </linearGradient>
    <linearGradient
       inkscape:collect="always"
       xlink:href="#linearGradient4970"
       id="linearGradient4972"
       x1="7"
       y1="17.5"
       x2="19"
       y2="27.5"
       gradientUnits="userSpaceOnUse"
       gradientTransform="translate(3.9999997)" />
    <linearGradient
       inkscape:collect="always"
       id="linearGradient4970">
      <stop
         style="stop-color:#ffffff;stop-opacity:1;"
         offset="0"
         id="stop4966" />
      <stop
         style="stop-color:#cccccc;stop-opacity:1"
         offset="1"
         id="stop4968" />
    </linearGradient>
    <linearGradient
       inkscape:collect="always"
       xlink:href="#linearGradient9529"
       id="linearGradient9531"
       x1="2.6457813"
       y1="2.3812032"
       x2="3.7040937"
       y2="3.4395156"
       gradientUnits="userSpaceOnUse"
       gradientTransform="matrix(3.7796033,0,0,3.7796033,3.9999997,-10e-7)" />
    <linearGradient
       inkscape:collect="always"
       id="linearGradient9529">
      <stop
         style="stop-color:#f8c93b;stop-opacity:1"
         offset="0"
         id="stop9525" />
      <stop
         style="stop-color:#ea8908;stop-opacity:1"
         offset="1"
         id="stop9527" />
    </linearGradient>
    <linearGradient
       inkscape:collect="always"
       xlink:href="#linearGradient4676"
       id="linearGradient10516"
       gradientUnits="userSpaceOnUse"
       x1="5.2915626"
       y1="7.2758985"
       x2="0.52915633"
       y2="0.92602324"
       gradientTransform="matrix(3.7796033,0,0,3.7796033,3.9999997,-10e-7)" />
    <linearGradient
       inkscape:collect="always"
       xlink:href="#linearGradient4676"
       id="linearGradient1571"
       gradientUnits="userSpaceOnUse"
       gradientTransform="matrix(3.7796033,0,0,3.7796033,3.9999997,-10e-7)"
       x1="5.2915626"
       y1="7.2758985"
       x2="0.52915633"
       y2="0.92602324" />
  </defs>
  <sodipodi:namedview
     id="namedview8"
     pagecolor="#ffffff"
     bordercolor="#666666"
     borderopacity="1.0"
     inkscape:pageshadow="2"
     inkscape:pageopacity="0.0"
     inkscape:pagecheckerboard="0"
     showgrid="false"
     inkscape:zoom="26.40625"
     inkscape:cx="16"
     inkscape:cy="16"
     inkscape:window-width="1880"
     inkscape:window-height="1048"
     inkscape:window-x="0"
     inkscape:window-y="0"
     inkscape:window-maximized="1"
     inkscape:current-layer="svg6"
     inkscape:showpageshadow="2"
     inkscape:deskcolor="#d1d1d1" />
  <metadata
     id="metadata2">
    <rdf:RDF>
      <cc:Work
         rdf:about="">
        <dc:format>image/svg+xml</dc:format>
        <dc:type
           rdf:resource="http://purl.org/dc/dcmitype/StillImage" />
      </cc:Work>
    </rdf:RDF>
  </metadata>
  <path
     id="path879"
     style="fill:url(#linearGradient4678);fill-opacity:1;stroke-width:0.625002;stroke-linejoin:round"
     d="m 16.000004,3 c -2.761425,2e-7 -5.000002,2.2385771 -5.000002,5.000002 10e-7,8.000004 -3.0000008,7.500004 -3.0000008,12.000005 0,4.418279 3.5817238,8.000002 8.0000028,8.000002 4.41828,0 8.000003,-3.581723 8.000003,-8.000002 0,-4.500001 -3.000002,-4.000001 -3.000002,-12.000005 0,-2.7614249 -2.238576,-5.0000018 -5.000001,-5.000002 z"
     sodipodi:nodetypes="sccsccs" />
  <path
     style="fill:#eab108;stroke-width:0.5"
     d="M 11.262856,28.967569 C 11.051931,28.93408 10.865413,28.871414 10.456738,28.69552 9.8482901,28.433569 9.5645691,28.34862 8.450948,28.09512 7.8954683,27.96872 7.6884505,27.91252 7.2063291,27.756969 7.0309513,27.700436 6.7971992,27.628236 6.6868816,27.596569 6.387408,27.510635 6.3080122,27.477213 6.1982911,27.391013 6.0486111,27.27348 5.9788549,27.092115 6.0056066,26.890162 c 0.017156,-0.129467 0.062447,-0.253853 0.1874845,-0.514798 0.1671178,-0.348849 0.3022132,-0.474347 0.327669,-0.817649 0.014956,-0.202 0.00269,-0.429195 -0.048704,-0.9022 -0.030427,-0.279849 -0.03738,-0.383002 -0.037818,-0.561151 -4.589e-4,-0.193245 0.00202,-0.4778 0.021956,-0.551398 0.074927,-0.276796 0.1319578,-0.436498 0.3972067,-0.5054 0.076778,-0.02 0.1263134,-0.02307 0.4866366,-0.03002 0.2243044,-0.0051 0.4238318,-0.01289 0.4525878,-0.01956 0.1554134,-0.035 0.2685598,-0.09349 0.3740067,-0.193733 0.1004445,-0.09551 0.169189,-0.192912 0.3002932,-0.4255 0.204086,-0.359052 0.606699,-0.355501 0.935475,-0.368796 0.09321,0.01956 0.124207,0.03249 0.226292,0.09104 0.102745,0.0592 0.131811,0.08249 0.221151,0.1774 0.2248339,0.238849 0.3321669,0.386254 0.8364529,1.1481 0.399685,0.604005 0.521805,0.797201 0.682914,1.080601 0.175502,0.308749 0.491892,0.804051 0.609181,0.9537 0.01989,0.02549 0.141562,0.179489 0.270415,0.342449 0.128854,0.163089 0.246703,0.315649 0.261874,0.339098 0.241985,0.336693 0.411856,0.723551 0.472284,1.1102 0.02033,0.134711 0.02102,0.157489 0.0097,0.311749 -0.01445,0.1958 -0.02699,0.2795 -0.04823,0.322249 -0.0085,0.01689 -0.02729,0.06395 -0.04173,0.103889 -0.18502,0.514146 -0.646191,0.8999 -1.18046,0.9875 -0.113613,0.01867 -0.338902,0.01867 -0.45938,0 z"
     id="path12" />
  <path
     style="fill:#eab108;stroke-width:0.5"
     d="m 20.737149,28.968005 c 0.210924,-0.03349 0.39744,-0.09613 0.806118,-0.272049 0.608446,-0.261949 0.892168,-0.3469 2.00579,-0.600398 0.55548,-0.1264 0.762496,-0.1826 1.244618,-0.338154 0.17538,-0.05653 0.409128,-0.128755 0.519446,-0.1604 0.299474,-0.08593 0.378868,-0.119333 0.48859,-0.205555 0.14968,-0.117534 0.219438,-0.298898 0.19268,-0.500849 -0.0172,-0.129467 -0.06244,-0.253847 -0.18748,-0.514796 -0.16712,-0.348851 -0.30221,-0.474349 -0.327668,-0.817653 -0.015,-0.202 -0.0028,-0.429196 0.04868,-0.902198 0.03038,-0.279849 0.03734,-0.383003 0.0378,-0.561149 4.6e-4,-0.193267 -0.002,-0.477803 -0.02191,-0.5514 -0.07492,-0.276803 -0.13196,-0.436498 -0.397206,-0.5054 -0.07678,-0.02 -0.12632,-0.02298 -0.486638,-0.03002 -0.224304,-0.0051 -0.42383,-0.01311 -0.452584,-0.01956 -0.15542,-0.035 -0.268564,-0.09351 -0.374008,-0.193756 -0.10044,-0.09551 -0.1692,-0.192911 -0.300288,-0.4255 -0.204085,-0.359058 -0.606702,-0.355502 -0.935477,-0.3688 -0.09322,0.01956 -0.1242,0.03251 -0.226292,0.09107 -0.10274,0.05918 -0.1318,0.08249 -0.221151,0.1774 -0.224834,0.238849 -0.332166,0.386253 -0.836452,1.148102 -0.399685,0.604 -0.521804,0.797198 -0.682913,1.080598 -0.175502,0.308749 -0.491893,0.804051 -0.609181,0.9537 -0.01989,0.02553 -0.141563,0.179511 -0.270416,0.342456 -0.128853,0.163111 -0.246702,0.315649 -0.261873,0.339098 -0.241978,0.336693 -0.411856,0.723551 -0.472284,1.1102 -0.02033,0.134711 -0.02102,0.157511 -0.0097,0.311749 0.01444,0.1958 0.02699,0.279502 0.04823,0.322249 0.0085,0.01689 0.02729,0.06395 0.04173,0.103911 0.185011,0.514147 0.646192,0.8999 1.18046,0.9875 0.113613,0.01844 0.33891,0.01844 0.459381,0 z"
     id="path12-6" />
  <path
     id="path879-3"
     style="fill:url(#linearGradient4972);fill-opacity:1;stroke-width:0.312502;stroke-linejoin:round"
     d="m 16.000004,9.0000024 c -1.380713,0 -2.500001,1.1192886 -2.500001,2.5000006 -0.01096,3.352746 -2.452711,6.516853 -2.500001,9.500005 0,2.761422 2.238577,5.000001 5.000002,5.000001 2.761425,0 5.000001,-2.238579 5.000001,-5.000001 -0.01194,-2.94503 -2.443864,-6.014105 -2.5,-9.500005 0,-1.380712 -1.119289,-2.5000006 -2.500001,-2.5000006 z"
     sodipodi:nodetypes="sccsccs" />
  <ellipse
     style="fill:#ffffff;fill-opacity:1;stroke-width:1.73206;stroke-linejoin:round"
     id="path5621"
     cx="14.500003"
     cy="8.0000019"
     rx="1.5000006"
     ry="2.0000007" />
  <ellipse
     style="fill:#ffffff;fill-opacity:1;stroke-width:1.73206;stroke-linejoin:round"
     id="path5621-7"
     cx="17.500004"
     cy="8.0000019"
     rx="1.5000006"
     ry="2.0000007" />
  <path
     id="path5299"
     style="fill:url(#linearGradient9531);fill-opacity:1;stroke-width:1;stroke-linejoin:round"
     d="m 18.000005,10.500003 c 0,1.10457 -0.895431,2.500001 -2.000001,2.500001 -1.104569,0 -2.000001,-1.395431 -2.000001,-2.500001 0,-1.1045696 0.895431,-1.4999999 2.000001,-1.4999999 1.104571,0 2.000001,0.3954296 2.000001,1.4999999 z"
     sodipodi:nodetypes="sssss" />
  <path
     id="path10049"
     style="fill:#1a1a1a;fill-opacity:1;stroke-width:1;stroke-linejoin:round"
     d="M 14.500003,7.0000014 A 0.50000022,1.0000004 0 0 0 14,8.000002 0.50000022,1.0000004 0 0 0 14.500003,9.0000024 0.50000022,1.0000004 0 0 0 15.000007,8.000002 0.50000022,1.0000004 0 0 0 14.500003,7.0000014 Z m 3.000001,0 A 0.50000022,1.0000004 0 0 0 17,8.000002 0.50000022,1.0000004 0 0 0 17.500004,9.0000024 0.50000022,1.0000004 0 0 0 18.000008,8.000002 0.50000022,1.0000004 0 0 0 17.500004,7.0000014 Z" />
  <path
     id="path879-6"
     style="fill:url(#linearGradient1571);fill-opacity:1;stroke-width:0.625005;stroke-linejoin:round"
     d="m 9.8593761,20.619147 c -0.828427,0 -1.4999997,0.671576 -1.4999997,1.500003 0,0.42942 0.3147963,1.135771 0.7334177,1.716574 0.38897,0.539658 0.867578,0.970924 1.2665829,0.970924 0.828427,0 0.740235,-1.978213 0.740235,-2.80664 0,-0.474425 -0.41181,-1.380861 -1.2402359,-1.380861 z"
     sodipodi:nodetypes="ssssss" />
  <path
     id="path879-1"
     style="fill:url(#linearGradient10516);fill-opacity:1;stroke-width:0.625005;stroke-linejoin:round"
     d="m 22.101569,20.619147 c -0.802668,0.0276 -1.201172,0.913852 -1.201172,1.380861 0,0.828427 -0.08819,2.80664 0.740236,2.80664 0.399004,0 0.876656,-0.43104 1.265624,-0.970702 0.418622,-0.580805 0.734378,-1.287376 0.734378,-1.716796 0,-0.828429 -0.671576,-1.500003 -1.5,-1.500003 -0.013,0 -0.0263,-4.36e-4 -0.03908,0 z" />
</svg>
