<?xml version="1.0" encoding="UTF-8" standalone="no"?>
<!-- Created with Inkscape (http://www.inkscape.org/) -->

<svg
   width="32"
   height="32"
   viewBox="0 0 32 32.000002"
   version="1.1"
   id="svg580"
   inkscape:version="1.2.1 (9c6d41e410, 2022-07-14, custom)"
   sodipodi:docname="preferences-desktop.svg"
   xmlns:inkscape="http://www.inkscape.org/namespaces/inkscape"
   xmlns:sodipodi="http://sodipodi.sourceforge.net/DTD/sodipodi-0.dtd"
   xmlns:xlink="http://www.w3.org/1999/xlink"
   xmlns="http://www.w3.org/2000/svg"
   xmlns:svg="http://www.w3.org/2000/svg">
  <sodipodi:namedview
     id="namedview582"
     pagecolor="#ffffff"
     bordercolor="#000000"
     borderopacity="0.25"
     inkscape:showpageshadow="2"
     inkscape:pageopacity="0.0"
     inkscape:pagecheckerboard="0"
     inkscape:deskcolor="#d1d1d1"
     inkscape:document-units="px"
     showgrid="false"
     inkscape:zoom="25.625"
     inkscape:cx="14.946341"
     inkscape:cy="16"
     inkscape:window-width="1920"
     inkscape:window-height="1029"
     inkscape:window-x="0"
     inkscape:window-y="0"
     inkscape:window-maximized="1"
     inkscape:current-layer="svg580" />
  <defs
     id="defs577">
    <linearGradient
       inkscape:collect="always"
       xlink:href="#linearGradient5821"
       id="linearGradient1010"
       x1="4.2332802"
       y1="1.05832"
       x2="4.2332802"
       y2="7.4082398"
       gradientUnits="userSpaceOnUse"
       gradientTransform="scale(3.7795752)" />
    <linearGradient
       inkscape:collect="always"
       id="linearGradient5821">
      <stop
         style="stop-color:#3bcaf5;stop-opacity:1;"
         offset="0"
         id="stop5817" />
      <stop
         style="stop-color:#1b9ee4;stop-opacity:1"
         offset="1"
         id="stop5819" />
    </linearGradient>
    <radialGradient
       inkscape:collect="always"
       xlink:href="#linearGradient24598"
       id="radialGradient24600"
       cx="5.55618"
       cy="7.4082398"
       fx="5.55618"
       fy="7.4082398"
       r="3.7041199"
       gradientUnits="userSpaceOnUse"
       gradientTransform="matrix(1.8512202,0,0,1.8512205,-0.28571333,0.28571427)" />
    <linearGradient
       inkscape:collect="always"
       id="linearGradient24598">
      <stop
         style="stop-color:#000000;stop-opacity:1;"
         offset="0"
         id="stop24594" />
      <stop
         style="stop-color:#000000;stop-opacity:0;"
         offset="1"
         id="stop24596" />
    </linearGradient>
    <linearGradient
       inkscape:collect="always"
       xlink:href="#linearGradient17820"
       id="linearGradient10673"
       x1="7.2768879"
       y1="4.8618474"
       x2="7.2742996"
       y2="9.5925112"
       gradientUnits="userSpaceOnUse"
       gradientTransform="matrix(2.488196,0,0,2.5494285,-2.8385051,-4.4681163)" />
    <linearGradient
       inkscape:collect="always"
       id="linearGradient17820">
      <stop
         style="stop-color:#26aee7;stop-opacity:1;"
         offset="0"
         id="stop17816" />
      <stop
         style="stop-color:#037ed6;stop-opacity:1"
         offset="1"
         id="stop17818" />
    </linearGradient>
    <linearGradient
       inkscape:collect="always"
       xlink:href="#linearGradient33432"
       id="linearGradient18679"
       x1="13.49358"
       y1="4.7624402"
       x2="13.493581"
       y2="5.8207603"
       gradientUnits="userSpaceOnUse"
       gradientTransform="matrix(1.8897876,0,0,1.8897876,0.49999531,-1.9434656e-6)" />
    <linearGradient
       inkscape:collect="always"
       id="linearGradient33432">
      <stop
         style="stop-color:#0271cb;stop-opacity:1;"
         offset="0"
         id="stop33428" />
      <stop
         style="stop-color:#0b5aa7;stop-opacity:1"
         offset="1"
         id="stop33430" />
    </linearGradient>
    <linearGradient
       inkscape:collect="always"
       xlink:href="#linearGradient33432"
       id="linearGradient19205"
       x1="13.49358"
       y1="6.8790798"
       x2="13.493581"
       y2="7.9373999"
       gradientUnits="userSpaceOnUse"
       gradientTransform="matrix(1.8897876,0,0,1.8897876,0.49999531,-1.9434656e-6)" />
    <linearGradient
       inkscape:collect="always"
       xlink:href="#linearGradient33432"
       id="linearGradient19811"
       x1="11.906099"
       y1="8.9957209"
       x2="11.9061"
       y2="10.05404"
       gradientUnits="userSpaceOnUse"
       gradientTransform="matrix(1.8897876,0,0,1.8897876,0.49999531,-1.9434656e-6)" />
    <linearGradient
       inkscape:collect="always"
       xlink:href="#linearGradient33432"
       id="linearGradient23862"
       x1="8.2846289"
       y1="11.360404"
       x2="8.2846298"
       y2="12.418723"
       gradientUnits="userSpaceOnUse"
       gradientTransform="matrix(1.8897875,0,0,1.8897875,0.34381169,0.53124547)" />
  </defs>
  <rect
     style="fill:url(#linearGradient1010);fill-opacity:1;stroke-width:2;stroke-linecap:round;stroke-linejoin:round"
     id="rect448"
     width="32"
     height="24"
     x="0"
     y="4"
     ry="1" />
  <path
     id="rect9516"
     style="opacity:0.5;fill:#ffffff;stroke-width:1.04257;stroke-linecap:round;stroke-linejoin:round"
     d="M 3.0000001,5.9999996 H 29.000001 c 0.554,0 1,0.4460001 1,1.0000001 V 25 c 0,0.554001 -0.446,1 -1,1 H 3.0000001 C 2.4459997,26 2,25.554001 2,25 V 6.9999997 c 0,-0.554 0.4459997,-1.0000001 1.0000001,-1.0000001 z"
     sodipodi:nodetypes="sssssssss" />
  <circle
     style="fill:url(#radialGradient24600);fill-opacity:1;stroke:none;stroke-width:1.14286;stroke-linecap:round;stroke-linejoin:round;stroke-miterlimit:4;stroke-dasharray:none;stroke-opacity:1"
     id="path24396"
     cx="10"
     cy="14"
     r="8" />
  <path
     id="rect16371-5"
     style="fill:#0a56a0;fill-opacity:1;stroke-width:1.63289;stroke-linecap:round;stroke-linejoin:round"
     d="m 19.000001,8.9999997 a 0.99999959,1 0 0 0 -1,1 V 14 h -4 v 1 h 4 a 0.99999959,1 0 0 0 1,-1 V 9.9999997 h 2 c 0,-0.365073 0.09613,-0.706007 0.265624,-1 z" />
  <circle
     style="fill:url(#linearGradient10673);fill-opacity:1;stroke:none;stroke-width:1.33276;stroke-linecap:round;stroke-linejoin:round;stroke-miterlimit:4;stroke-dasharray:none;stroke-opacity:1"
     id="path10577"
     cx="9.999999"
     cy="14"
     r="6" />
  <path
     id="rect11079"
     style="fill:#ffffff;fill-opacity:1;stroke:none;stroke-width:1.16667;stroke-linecap:round;stroke-linejoin:round;stroke-miterlimit:4;stroke-dasharray:none;stroke-opacity:1"
     d="m 9.9999993,7.9999997 a 5.9999997,5.9999997 0 0 0 -1,0.085936 v 6.9140633 h 6.9140627 a 5.9999997,5.9999997 0 0 0 0.08594,-1 5.9999997,5.9999997 0 0 0 -6,-5.9999995 z" />
  <path
     id="rect11229"
     style="fill:#f18c0a;fill-opacity:1;stroke:none;stroke-width:1.2;stroke-linecap:round;stroke-linejoin:round;stroke-miterlimit:4;stroke-dasharray:none;stroke-opacity:1"
     d="m 10,8 v 6 h 6.000001 A 6,6 0 0 0 10,8 Z" />
  <path
     id="rect11825"
     style="opacity:0.5;fill:#0e93e2;stroke-width:1.33333;stroke-linecap:round;stroke-linejoin:round"
     d="m 23.000001,7.9999997 h 3.000001 c 1.108,0 2,0.8919997 2,2 0,1.1080003 -0.892,2.0000003 -2,2.0000003 h -3.000001 c -1.108001,0 -2,-0.892 -2,-2.0000003 0,-1.1080003 0.891999,-2 2,-2 z"
     sodipodi:nodetypes="sssssss" />
  <path
     id="rect11929"
     style="opacity:0.5;fill:#0e93e2;stroke-width:1.33333;stroke-linecap:round;stroke-linejoin:round"
     d="m 23.000001,12 h 3.000001 c 1.108,0 2,0.892 2,2 v 0 c 0,1.108 -0.892,2 -2,2 h -3.000001 c -1.108001,0 -2,-0.892 -2,-2 v 0 c 0,-1.108 0.891999,-2 2,-2 z"
     sodipodi:nodetypes="sssssssss" />
  <path
     id="rect12033"
     style="opacity:0.5;fill:#0e93e2;stroke-width:1.33333;stroke-linecap:round;stroke-linejoin:round"
     d="m 23,16 h 3 c 1.107999,0 1.999998,0.891999 1.999998,1.999999 V 18 c 0,1.108 -0.891999,2 -1.999998,2 h -3 c -1.108,0 -1.999999,-0.892 -1.999999,-2 v -1e-6 C 21.000001,16.891999 21.892,16 23,16 Z"
     sodipodi:nodetypes="sssssssss" />
  <path
     id="rect17985"
     style="fill:#ffffff;stroke-width:1;stroke-linecap:round;stroke-linejoin:round"
     d="m 22.999997,8.9999989 h 3 c 0.553999,0 1,0.4459998 1,0.9999998 0,0.5540003 -0.446001,1.0000003 -1,1.0000003 h -3 c -0.554001,0 -1,-0.446 -1,-1.0000003 0,-0.554 0.445999,-0.9999998 1,-0.9999998 z" />
  <path
     id="rect18286"
     style="fill:#ffffff;stroke-width:1;stroke-linecap:round;stroke-linejoin:round"
     d="m 22.999997,12.999999 h 3 c 0.553999,0 1,0.446 1,1 0,0.554 -0.446001,1 -1,1 h -3 c -0.554001,0 -1,-0.446 -1,-1 0,-0.554 0.445999,-1 1,-1 z" />
  <path
     id="rect18329"
     style="fill:#ffffff;stroke-width:1;stroke-linecap:round;stroke-linejoin:round"
     d="m 22.999997,16.999999 h 2.999998 c 0.554001,0 1,0.446 1,1 0,0.554 -0.445999,1 -1,1 h -2.999998 c -0.554001,0 -1,-0.446 -1,-1 0,-0.554 0.445999,-1 1,-1 z" />
  <circle
     style="fill:url(#linearGradient18679);fill-opacity:1;stroke:none;stroke-width:1;stroke-linecap:round;stroke-linejoin:round;stroke-miterlimit:4;stroke-dasharray:none;stroke-opacity:1"
     id="path18591"
     cx="25.999996"
     cy="10"
     r="1" />
  <circle
     style="fill:url(#linearGradient19205);fill-opacity:1;stroke:none;stroke-width:1;stroke-linecap:round;stroke-linejoin:round;stroke-miterlimit:4;stroke-dasharray:none;stroke-opacity:1"
     id="path19117"
     cx="25.999996"
     cy="13.999998"
     r="1" />
  <circle
     style="fill:url(#linearGradient19811);fill-opacity:1;stroke:none;stroke-width:1;stroke-linecap:round;stroke-linejoin:round;stroke-miterlimit:4;stroke-dasharray:none;stroke-opacity:1"
     id="path19723"
     cx="22.999998"
     cy="17.999998"
     r="1" />
  <path
     id="rect20137"
     style="fill:#0175d2;fill-opacity:1;stroke-width:2;stroke-linecap:round;stroke-linejoin:round"
     d="m 5,22.000002 h 22 c 0.553999,0 1,0.445997 1,1 0,0.553999 -0.446001,1 -1,1 H 5 c -0.5539999,0 -1,-0.446001 -1,-1 0,-0.554003 0.4460001,-1 1,-1 z"
     sodipodi:nodetypes="sssssss" />
  <path
     id="rect20656"
     style="fill:#f18c0a;fill-opacity:1;stroke-width:2;stroke-linecap:round;stroke-linejoin:round"
     d="m 5,22.000002 h 9.999999 c 0.554001,0 1.000001,0.445997 1.000001,1 0,0.553999 -0.446,1 -1.000001,1 H 5 c -0.5539999,0 -1,-0.446001 -1,-1 0,-0.554003 0.4460001,-1 1,-1 z"
     sodipodi:nodetypes="sssssss" />
  <circle
     style="fill:#ffffff;fill-opacity:1;stroke:none;stroke-width:1;stroke-linecap:round;stroke-linejoin:round;stroke-miterlimit:4;stroke-dasharray:none;stroke-opacity:1"
     id="path23648"
     cx="16.000002"
     cy="23"
     r="2" />
  <circle
     style="fill:url(#linearGradient23862);fill-opacity:1;stroke:none;stroke-width:1;stroke-linecap:round;stroke-linejoin:round;stroke-miterlimit:4;stroke-dasharray:none;stroke-opacity:1"
     id="path23774"
     cx="16.000002"
     cy="23"
     r="1" />
</svg>
