<?xml version="1.0" encoding="UTF-8" standalone="no"?>
<!-- Created with Inkscape (http://www.inkscape.org/) -->

<svg
   width="32"
   height="32"
   viewBox="0 0 32 32"
   version="1.1"
   id="svg5"
   inkscape:version="1.2 (1:1.2.1+202207142221+cd75a1ee6d)"
   sodipodi:docname="preferences-system.svg"
   xmlns:inkscape="http://www.inkscape.org/namespaces/inkscape"
   xmlns:sodipodi="http://sodipodi.sourceforge.net/DTD/sodipodi-0.dtd"
   xmlns:xlink="http://www.w3.org/1999/xlink"
   xmlns="http://www.w3.org/2000/svg"
   xmlns:svg="http://www.w3.org/2000/svg">
  <sodipodi:namedview
     id="namedview7"
     pagecolor="#ffffff"
     bordercolor="#666666"
     borderopacity="1.0"
     inkscape:pageshadow="2"
     inkscape:pageopacity="0.0"
     inkscape:pagecheckerboard="0"
     inkscape:document-units="px"
     showgrid="false"
     units="px"
     inkscape:zoom="25.3125"
     inkscape:cx="15.980247"
     inkscape:cy="16"
     inkscape:window-width="1920"
     inkscape:window-height="1012"
     inkscape:window-x="0"
     inkscape:window-y="0"
     inkscape:window-maximized="1"
     inkscape:current-layer="svg5"
     inkscape:showpageshadow="2"
     inkscape:deskcolor="#d1d1d1" />
  <defs
     id="defs2">
    <linearGradient
       inkscape:collect="always"
       id="linearGradient8250">
      <stop
         style="stop-color:#0568ba;stop-opacity:1;"
         offset="0"
         id="stop8246" />
      <stop
         style="stop-color:#0568ba;stop-opacity:1"
         offset="0.23999999"
         id="stop9054" />
      <stop
         style="stop-color:#0f4c8a;stop-opacity:1"
         offset="0.80000001"
         id="stop8830" />
      <stop
         style="stop-color:#0f4c8f;stop-opacity:1"
         offset="1"
         id="stop8248" />
    </linearGradient>
    <linearGradient
       inkscape:collect="always"
       id="linearGradient7024">
      <stop
         style="stop-color:#ffffff;stop-opacity:1;"
         offset="0"
         id="stop7020" />
      <stop
         style="stop-color:#f0f0f0;stop-opacity:1"
         offset="0.25"
         id="stop7732" />
      <stop
         style="stop-color:#cccccc;stop-opacity:1"
         offset="1"
         id="stop7022" />
    </linearGradient>
    <linearGradient
       inkscape:collect="always"
       id="linearGradient6060">
      <stop
         style="stop-color:#8a8f97;stop-opacity:1;"
         offset="0"
         id="stop6056" />
      <stop
         style="stop-color:#8a8f97;stop-opacity:1"
         offset="0.14573747"
         id="stop6576" />
      <stop
         style="stop-color:#616e7a;stop-opacity:1"
         offset="0.89999998"
         id="stop6770" />
      <stop
         style="stop-color:#616e7a;stop-opacity:1"
         offset="1"
         id="stop6058" />
    </linearGradient>
    <linearGradient
       inkscape:collect="always"
       xlink:href="#linearGradient6060"
       id="linearGradient1281"
       x1="2.167166"
       y1="2.6942132"
       x2="15.875"
       y2="13.395575"
       gradientUnits="userSpaceOnUse"
       gradientTransform="matrix(1.8897637,0,0,1.8897637,1e-7,0.001948)" />
    <linearGradient
       inkscape:collect="always"
       xlink:href="#linearGradient8250"
       id="linearGradient1394"
       x1="-4.3425407"
       y1="0.48700973"
       x2="1.4123864"
       y2="6.2309871"
       gradientUnits="userSpaceOnUse"
       gradientTransform="matrix(1.8897637,0,0,1.8897637,18.330924,9.2249076)" />
    <linearGradient
       inkscape:collect="always"
       xlink:href="#linearGradient7024"
       id="linearGradient1526"
       x1="2.9998865"
       y1="7.8184872"
       x2="-5.4667802"
       y2="-0.64817953"
       gradientUnits="userSpaceOnUse"
       gradientTransform="matrix(1.8897637,0,0,1.8897637,18.330924,9.2249076)" />
  </defs>
  <path
     id="path428"
     style="fill:url(#linearGradient1281);fill-opacity:1;stroke-width:0.249998"
     d="M 20.472656,2.736323 A 4.9999998,4.9999998 0 0 1 15.999999,5.501948 4.9999998,4.9999998 0 0 1 11.540039,2.7402294 14,14 0 0 0 6.751953,5.503901 4.9999998,4.9999998 0 0 1 6.90625,10.751948 4.9999998,4.9999998 0 0 1 2.2851563,13.233394 14,14 0 0 0 2,16.001948 a 14,14 0 0 0 0.2851563,2.76953 4.9999998,4.9999998 0 0 1 0.2910156,-0.01952 4.9999998,4.9999998 0 0 1 4.3300781,2.500001 4.9999998,4.9999998 0 0 1 -0.1542975,5.248045 14,14 0 0 0 4.7880865,2.763672 4.9999998,4.9999998 0 0 1 4.45996,-2.761718 4.9999998,4.9999998 0 0 1 4.459959,2.761719 14,14 0 0 0 4.794922,-2.768555 4.9999998,4.9999998 0 0 1 -0.16114,-5.243163 4.9999998,4.9999998 0 0 1 4.330078,-2.5 4.9999998,4.9999998 0 0 1 0.291016,0.01952 A 14,14 0 0 0 30,16.001948 14,14 0 0 0 29.722656,13.233394 4.9999998,4.9999998 0 0 1 25.09375,10.751948 a 4.9999998,4.9999998 0 0 1 0.165033,-5.25 14,14 0 0 0 -4.786133,-2.765625 z" />
  <circle
     style="fill:url(#linearGradient1526);fill-opacity:1;stroke-width:0.499999"
     id="path1332"
     cx="16"
     cy="16"
     r="7" />
  <circle
     style="fill:url(#linearGradient1394);fill-opacity:1;stroke-width:0.499999"
     id="path1386"
     cx="16"
     cy="16"
     r="4.9999995" />
</svg>
