<?xml version="1.0" encoding="UTF-8" standalone="no"?>
<!-- Created with Inkscape (http://www.inkscape.org/) -->

<svg
   width="32"
   height="32"
   viewBox="0 0 32 32"
   version="1.1"
   id="svg5"
   inkscape:version="1.2.1 (9c6d41e410, 2022-07-14, custom)"
   sodipodi:docname="preferences-desktop-font.svg"
   xmlns:inkscape="http://www.inkscape.org/namespaces/inkscape"
   xmlns:sodipodi="http://sodipodi.sourceforge.net/DTD/sodipodi-0.dtd"
   xmlns:xlink="http://www.w3.org/1999/xlink"
   xmlns="http://www.w3.org/2000/svg"
   xmlns:svg="http://www.w3.org/2000/svg">
  <sodipodi:namedview
     id="namedview7"
     pagecolor="#ffffff"
     bordercolor="#000000"
     borderopacity="0.25"
     inkscape:showpageshadow="2"
     inkscape:pageopacity="0.0"
     inkscape:pagecheckerboard="0"
     inkscape:deskcolor="#d1d1d1"
     inkscape:document-units="px"
     showgrid="false"
     inkscape:zoom="25.0625"
     inkscape:cx="16"
     inkscape:cy="16"
     inkscape:window-width="1920"
     inkscape:window-height="1011"
     inkscape:window-x="0"
     inkscape:window-y="0"
     inkscape:window-maximized="1"
     inkscape:current-layer="svg5" />
  <defs
     id="defs2">
    <linearGradient
       inkscape:collect="always"
       xlink:href="#linearGradient1723"
       id="linearGradient4915"
       x1="8.0000715"
       y1="4.9999995"
       x2="11"
       y2="11.99975"
       gradientUnits="userSpaceOnUse"
       gradientTransform="matrix(2.0000713,0,0,2.0000713,-7.0007486,-7.000356)" />
    <linearGradient
       inkscape:collect="always"
       id="linearGradient1723">
      <stop
         style="stop-color:#1088d6;stop-opacity:1;"
         offset="0"
         id="stop1719" />
      <stop
         style="stop-color:#076cbe;stop-opacity:1"
         offset="1"
         id="stop1721" />
    </linearGradient>
    <linearGradient
       inkscape:collect="always"
       xlink:href="#linearGradient1723"
       id="linearGradient2161"
       gradientUnits="userSpaceOnUse"
       gradientTransform="matrix(2.0000713,0,0,2.0000713,0.999447,-3.000356)"
       x1="8.0000715"
       y1="4.9999995"
       x2="13.499795"
       y2="15.499625" />
  </defs>
  <path
     id="rect287"
     style="fill:url(#linearGradient4915);fill-opacity:1;stroke-width:2.00007;stroke-linecap:round;stroke-linejoin:round"
     d="M 8,3 2,17 h 2 l 2.298828,-5 h 5.501953 l 0.488281,1.4375 1.021485,-2.425781 L 10,3 Z M 9,5.5 11,10 H 7 Z" />
  <path
     id="path2137"
     style="fill:url(#linearGradient2161);fill-opacity:1;stroke-width:2.00007;stroke-linecap:round;stroke-linejoin:round"
     d="M 17,7 9,26 H 8 c -0.553999,0 -1,0.446001 -1,1 0,0.553999 0.446001,1 1,1 h 4 c 0.553999,0 1,-0.446001 1,-1 0,-0.553999 -0.446001,-1 -1,-1 h -1 l 2.198609,-5 h 9.702782 L 25,26 h -1 c -0.553999,0 -1,0.446001 -1,1 0,0.553999 0.446001,1 1,1 h 4 c 0.553999,0 1,-0.446001 1,-1 0,-0.553999 -0.446001,-1 -1,-1 H 27 L 19,7 Z m 1,2.5 4.100609,9.5 H 13.99939 Z"
     sodipodi:nodetypes="ccssssssccccssssssccccccc" />
</svg>
