<?xml version="1.0" encoding="UTF-8" standalone="no"?>
<!-- Created with Inkscape (http://www.inkscape.org/) -->

<svg
   width="32"
   height="32"
   viewBox="0 0 32 32"
   version="1.1"
   id="svg69118"
   inkscape:version="1.2.1 (9c6d41e410, 2022-07-14, custom)"
   sodipodi:docname="preferences-desktop-locale.svg"
   xmlns:inkscape="http://www.inkscape.org/namespaces/inkscape"
   xmlns:sodipodi="http://sodipodi.sourceforge.net/DTD/sodipodi-0.dtd"
   xmlns:xlink="http://www.w3.org/1999/xlink"
   xmlns="http://www.w3.org/2000/svg"
   xmlns:svg="http://www.w3.org/2000/svg">
  <sodipodi:namedview
     id="namedview69120"
     pagecolor="#ffffff"
     bordercolor="#666666"
     borderopacity="1.0"
     inkscape:pageshadow="2"
     inkscape:pageopacity="0.0"
     inkscape:pagecheckerboard="0"
     inkscape:document-units="px"
     showgrid="false"
     units="px"
     inkscape:zoom="25.3125"
     inkscape:cx="14.933333"
     inkscape:cy="16"
     inkscape:window-width="1920"
     inkscape:window-height="1012"
     inkscape:window-x="0"
     inkscape:window-y="0"
     inkscape:window-maximized="1"
     inkscape:current-layer="svg69118"
     inkscape:showpageshadow="2"
     inkscape:deskcolor="#d1d1d1" />
  <defs
     id="defs69115">
    <linearGradient
       inkscape:collect="always"
       id="linearGradient3605">
      <stop
         style="stop-color:#0d6eaa;stop-opacity:1;"
         offset="0"
         id="stop3601" />
      <stop
         style="stop-color:#185086;stop-opacity:1"
         offset="1"
         id="stop3603" />
    </linearGradient>
    <linearGradient
       inkscape:collect="always"
       id="linearGradient1014">
      <stop
         style="stop-color:#33bff0;stop-opacity:1"
         offset="0"
         id="stop1010" />
      <stop
         style="stop-color:#1c9fe3;stop-opacity:1"
         offset="1"
         id="stop1012" />
    </linearGradient>
    <linearGradient
       inkscape:collect="always"
       xlink:href="#linearGradient3605"
       id="linearGradient1697"
       x1="12.474396"
       y1="5.0000038"
       x2="15.9998"
       y2="13.500037"
       gradientUnits="userSpaceOnUse"
       gradientTransform="matrix(1.9999921,0,0,1.9999921,-1.9994732,-0.9999683)" />
    <linearGradient
       inkscape:collect="always"
       xlink:href="#linearGradient1014"
       id="linearGradient1705"
       x1="7.2109375"
       y1="7.4824219"
       x2="10.197266"
       y2="14.636419"
       gradientUnits="userSpaceOnUse"
       gradientTransform="matrix(1.9999921,0,0,1.9999921,-1.9994732,0.9664768)" />
    <linearGradient
       inkscape:collect="always"
       xlink:href="#linearGradient984"
       id="linearGradient7450"
       x1="13.809379"
       y1="13.973848"
       x2="2.3889806"
       y2="3.7831419"
       gradientUnits="userSpaceOnUse"
       gradientTransform="matrix(1.3032854,0,0,1.3032854,0.96551774,0.96552024)" />
    <linearGradient
       inkscape:collect="always"
       id="linearGradient984">
      <stop
         style="stop-color:#117bb9;stop-opacity:1;"
         offset="0"
         id="stop980" />
      <stop
         style="stop-color:#15b393;stop-opacity:1"
         offset="1"
         id="stop982" />
    </linearGradient>
  </defs>
  <circle
     style="fill:url(#linearGradient7450);fill-opacity:1;stroke-width:1.46833;stroke-linecap:round;stroke-linejoin:round"
     id="path7362"
     cx="12"
     cy="12"
     r="10" />
  <path
     id="path1250"
     style="opacity:0.3;fill:#ffffff;stroke-width:2;stroke-linecap:round"
     d="m 12,2 a 4,10 0 0 1 3.664062,6 H 8.3378906 A 4,10 0 0 1 12,2 Z m 0,0 A 10,10 0 0 0 9.6699219,2.2988281 5,11 0 0 0 7.3476562,8 H 2.8457031 A 10,10 0 0 0 2.4726562,9 H 7.1933594 A 5,11 0 0 0 7,12 5,11 0 0 0 7.1933594,15 H 2.4726562 a 10,10 0 0 0 0.3730469,1 H 7.3476562 A 5,11 0 0 0 9.6699219,21.701172 10,10 0 0 0 12,22 4,10 0 0 1 8.3378906,16 H 15.662109 A 4,10 0 0 1 12,22 10,10 0 0 0 14.330078,21.701172 5,11 0 0 0 16.652344,16 h 4.501953 a 10,10 0 0 0 0.373047,-1 H 16.806641 A 5,11 0 0 0 17,12 5,11 0 0 0 16.810547,9 h 4.726562 a 10,10 0 0 0 -0.375,-1 H 16.65625 A 5,11 0 0 0 14.310547,2.2714844 10,10 0 0 0 12,2 Z M 8.1933594,9 H 15.814453 A 4,10 0 0 1 16,12 4,10 0 0 1 15.806641,15 H 8.1933594 A 4,10 0 0 1 8,12 4,10 0 0 1 8.1933594,9 Z" />
  <path
     id="rect294"
     style="fill:url(#linearGradient1697);fill-opacity:1;stroke-width:5.29148;stroke-linecap:round;stroke-linejoin:round"
     d="M 22.949219,9 C 22.418723,9 22,9.463316 22,10 v 1 h -4.94922 c -0.0171,-8.61e-4 -0.03347,0 -0.05078,0 -0.553996,0 -1,0.446004 -1,1 v 2 c 0,0.553995 0.446004,1 1,1 0.553995,0 1,-0.446005 1,-1 v -1 h 10 v 1 c 0,0.553995 0.446005,1 1,1 0.553995,0 1,-0.446005 1,-1 V 12 C 30,11.463291 29.58064,11.026646 29.05078,11 29.03378,10.999139 29.01732,11 29,11 H 24 V 10 C 24,9.446004 23.553995,9 23,9 H 22.94922 Z M 20,15 c -0.552281,0 -1,0.447719 -1,1 0,0.55228 0.447719,1 1,1 h 3.5 l -1.101562,2 H 18.050781 18 c -0.552281,0 -1,0.44772 -1,1 0,0.552281 0.447719,1 1,1 h 4 v 2 c 0,0.552282 -0.447719,1 -1,1 -0.552285,0 -1,0.447715 -1,1 0,0.552285 0.447715,1 1,1 1.656848,0 3,-1.343152 3,-3 v -2 h 4 c 0.552281,0 1,-0.447719 1,-1 0,-0.55228 -0.447719,-1 -1,-1 h -3.273438 l 1.425782,-2.910156 C 26.423977,15.585789 26.329248,15 25.5,15 h -5.449219 c -0.017,-4.3e-4 -0.03385,0 -0.05078,0 z"
     sodipodi:nodetypes="ssccsssssccsssssscssssssscccssscssssscsssccscss" />
  <path
     id="rect855"
     style="fill:url(#linearGradient1705);fill-opacity:1;stroke-width:1.99999;stroke-linecap:round;stroke-linejoin:round"
     d="m 12.422345,15.931261 c -0.389278,0.01944 -0.744607,0.265808 -0.886716,0.656248 l -5.4726342,12.33529 c -0.1894773,0.520587 0.077068,1.091768 0.5976538,1.281245 0.5205867,0.189479 1.0917669,-0.07706 1.2812449,-0.597654 L 9.883292,25 h 5.273417 l 1.957024,4.641546 c 0.189479,0.520588 0.760657,0.787131 1.281245,0.597654 0.520584,-0.189479 0.787131,-0.760657 0.597654,-1.281245 l -5.472635,-12.33529 c -0.116017,-0.318755 -0.376562,-0.543091 -0.679685,-0.624998 -0.0063,-0.0017 -0.0132,-0.0023 -0.01954,-0.0039 l -0.0039,-0.0039 c -0.130145,-0.04738 -0.264768,-0.06508 -0.394527,-0.05861 z M 12.520005,18.5 14.430153,23 h -3.816395 z"
     sodipodi:nodetypes="cccsccccsccscccccccc" />
</svg>
