<?xml version="1.0" encoding="UTF-8" standalone="no"?>
<!-- Created with Inkscape (http://www.inkscape.org/) -->

<svg
   width="32"
   height="32"
   viewBox="0 0 32 32"
   version="1.1"
   id="svg993"
   inkscape:version="1.2.1 (9c6d41e410, 2022-07-14, custom)"
   sodipodi:docname="preferences-system-bluetooth.svg"
   xmlns:inkscape="http://www.inkscape.org/namespaces/inkscape"
   xmlns:sodipodi="http://sodipodi.sourceforge.net/DTD/sodipodi-0.dtd"
   xmlns="http://www.w3.org/2000/svg"
   xmlns:svg="http://www.w3.org/2000/svg">
  <sodipodi:namedview
     id="namedview995"
     pagecolor="#ffffff"
     bordercolor="#666666"
     borderopacity="1.0"
     inkscape:pageshadow="2"
     inkscape:pageopacity="0.0"
     inkscape:pagecheckerboard="0"
     inkscape:document-units="px"
     showgrid="false"
     units="px"
     inkscape:zoom="25.25"
     inkscape:cx="16"
     inkscape:cy="16"
     inkscape:window-width="1920"
     inkscape:window-height="1010"
     inkscape:window-x="0"
     inkscape:window-y="0"
     inkscape:window-maximized="1"
     inkscape:current-layer="svg993"
     inkscape:showpageshadow="2"
     inkscape:deskcolor="#d1d1d1" />
  <defs
     id="defs990" />
  <rect
     style="fill:#1e91fa;fill-opacity:1;stroke-width:1.5;stroke-linecap:round;stroke-linejoin:round"
     id="rect1076"
     width="20"
     height="28"
     x="6"
     y="2"
     ry="10" />
  <path
     d="m 15.322326,7.0318298 c -0.19404,0.07377 -0.32231,0.25977 -0.32231,0.46736 v 7.3282022 l -4.191083,-3.721469 c -0.21714,-0.1706 -0.53146,-0.13289 -0.70207,0.08425 -0.1706083,0.21714 -0.1328883,0.53146 0.08425,0.70207 l 4.681383,4.106669 -4.681383,4.107021 c -0.2171383,0.1706 -0.2548583,0.4849 -0.08425,0.702 0.17061,0.2172 0.48493,0.2549 0.70207,0.0843 l 4.191083,-3.721721 v 7.328338 c 0,0.2076 0.12827,0.3936 0.32231,0.4674 0.19404,0.0738 0.41348,0.02 0.5514,-0.1352 l 4.999317,-4.499317 c 0.09159,-0.103 0.13658,-0.2393 0.12431,-0.3767 -0.01227,-0.1373 -0.0807,-0.2635 -0.18911,-0.3486 l -4.317117,-3.607521 4.317117,-3.606159 c 0.10841,-0.08518 0.17684,-0.21135 0.18911,-0.34867 0.01227,-0.13733 -0.03272,-0.27362 -0.12431,-0.37667 L 15.873726,7.1669698 c -0.154289,-0.138893 -0.35736,-0.20895 -0.5514,-0.13518 z m 0.67769,9.8530022 3.572427,3.179621 -3.572427,3.119317 z m 0,-1.7718 V 8.8142298 l 3.572427,3.1204432 z"
     id="path346"
     sodipodi:nodetypes="csccsccccccssccccccscscccccccccc"
     style="fill:#ffffff" />
</svg>
