<?xml version="1.0" encoding="UTF-8" standalone="no"?>
<!-- Created with Inkscape (http://www.inkscape.org/) -->

<svg
   width="32"
   height="32"
   viewBox="0 0 32 32"
   version="1.1"
   id="svg2535"
   inkscape:version="1.2 (1:1.2.1+202207142221+cd75a1ee6d)"
   sodipodi:docname="preferences-desktop-color.svg"
   xmlns:inkscape="http://www.inkscape.org/namespaces/inkscape"
   xmlns:sodipodi="http://sodipodi.sourceforge.net/DTD/sodipodi-0.dtd"
   xmlns="http://www.w3.org/2000/svg"
   xmlns:svg="http://www.w3.org/2000/svg">
  <sodipodi:namedview
     id="namedview2537"
     pagecolor="#ffffff"
     bordercolor="#000000"
     borderopacity="0.25"
     inkscape:showpageshadow="2"
     inkscape:pageopacity="0.0"
     inkscape:pagecheckerboard="0"
     inkscape:deskcolor="#d1d1d1"
     inkscape:document-units="px"
     showgrid="false"
     inkscape:zoom="25.3125"
     inkscape:cx="13.254321"
     inkscape:cy="16"
     inkscape:window-width="1920"
     inkscape:window-height="1012"
     inkscape:window-x="0"
     inkscape:window-y="0"
     inkscape:window-maximized="1"
     inkscape:current-layer="svg2535"
     showguides="false"
     inkscape:lockguides="true" />
  <defs
     id="defs2532">
    <linearGradient
       id="linearGradient45680"
       x1="-102.06"
       x2="-102.06"
       y1="1.3231"
       y2="19.157"
       gradientTransform="matrix(1.6190781,0,0,1.5678307,182.76115,-0.07428076)"
       gradientUnits="userSpaceOnUse">
      <stop
         stop-color="#ffdc23"
         offset="0"
         id="stop22" />
      <stop
         stop-color="#e6628a"
         offset=".31552"
         id="stop24" />
      <stop
         stop-color="#7b5fc1"
         offset=".55428"
         id="stop26" />
      <stop
         stop-color="#1e9be1"
         offset=".79721"
         id="stop28" />
      <stop
         stop-color="#0082dc"
         offset="1"
         id="stop30" />
    </linearGradient>
    <linearGradient
       id="linearGradient1954"
       x1="-109.09"
       x2="-101.26"
       y1="11.122"
       y2="18.440001"
       gradientTransform="matrix(1.6190781,0,0,1.5678307,182.76115,-0.07429836)"
       gradientUnits="userSpaceOnUse">
      <stop
         stop-color="#64d2eb"
         offset="0"
         id="stop2" />
      <stop
         stop-color="#0082dc"
         offset="1"
         id="stop4" />
    </linearGradient>
    <linearGradient
       id="linearGradient1431"
       x1="-107.04"
       x2="-99.660004"
       y1="6.9531002"
       y2="17.895"
       gradientTransform="matrix(1.6190781,0,0,1.5678307,182.76115,-0.07436896)"
       gradientUnits="userSpaceOnUse">
      <stop
         stop-color="#a578e1"
         offset="0"
         id="stop7" />
      <stop
         stop-color="#5046a0"
         offset="1"
         id="stop9" />
    </linearGradient>
    <linearGradient
       id="linearGradient1439"
       x1="-105"
       x2="-97.016998"
       y1="4.2921"
       y2="13.799"
       gradientTransform="matrix(1.6190781,0,0,1.5678307,182.76115,-0.07380456)"
       gradientUnits="userSpaceOnUse">
      <stop
         stop-color="#eb82aa"
         offset="0"
         id="stop12" />
      <stop
         stop-color="#dc2850"
         offset="1"
         id="stop14" />
    </linearGradient>
    <linearGradient
       id="linearGradient1447"
       x1="-102.1"
       x2="-98.566002"
       y1="1.4752001"
       y2="7.8610001"
       gradientTransform="matrix(1.6190781,0,0,1.5678307,182.74293,-0.07401616)"
       gradientUnits="userSpaceOnUse">
      <stop
         stop-color="#ffdc23"
         offset="0"
         id="stop17" />
      <stop
         stop-color="#f0a019"
         offset="1"
         id="stop19" />
    </linearGradient>
  </defs>
  <path
     d="M 17.523898,2.0000801 C 17.200535,1.9976101 16.929975,2.2461664 16.929975,2.2461664 15.529745,3.4275469 14.352243,4.5502278 13.2723,5.640437 v 9.113e-4 C 11.968097,6.9576953 10.942105,8.1750577 10.036293,9.341816 7.8818692,12.11699 6.8600301,14.332685 6.2600407,16.088379 h -9.411e-4 c 7.86e-5,2.89e-4 -7.03e-5,6.2e-4 0,9.11e-4 1.164e-4,3.01e-4 -1.021e-4,6.11e-4 0,9.12e-4 -0.7946669,2.326462 -0.7586381,3.757085 -0.7586381,3.757085 -1.67e-5,5.606966 4.6935395,10.152827 10.4835985,10.152651 0.919655,0 1.798291,-0.146305 2.644942,-0.363662 2.863335,-0.735084 5.243803,-2.599145 6.598058,-5.091405 v -0.0018 c 0.766216,-1.410218 1.241509,-2.991595 1.241509,-4.695786 h 0.02162 c 0,0 0.242729,-2.508309 -1.713065,-5.806805 -0.294259,-0.368973 -0.810059,-1.072466 -1.190689,-1.550387 -0.291088,-0.05981 -0.576711,-0.120257 -0.858418,-0.181372 0.281087,0.06098 0.567075,0.120797 0.857471,0.180472 -2.430902,-2.12574 -5.07803,-3.3993853 -5.669094,-9.2284155 -0.09942,-0.7037945 0.118074,-1.2605401 -0.392507,-1.2605401 z m -2.466986,7.3016328 c 0.04779,0.036964 0.09682,0.07341 0.146835,0.1102866 0.05001,0.036888 0.10114,0.074419 0.153422,0.1111975 -0.05228,-0.036775 -0.103408,-0.07341 -0.153422,-0.1102828 -0.05002,-0.036888 -0.09904,-0.074241 -0.146835,-0.1111975 z m 1.857161,1.1256441 c 0.120877,0.05896 0.24457,0.117562 0.372726,0.175915 -0.128376,-0.05845 -0.251671,-0.116852 -0.372726,-0.175915 z m 0.850895,0.384634 c 0.141026,0.05916 0.286662,0.117543 0.435803,0.17591 -0.148921,-0.05828 -0.294984,-0.11684 -0.435803,-0.17591 z m -7.679642,0.398302 c 0.02287,0.102943 0.04995,0.206348 0.08,0.308984 -0.03012,-0.102927 -0.0571,-0.20575 -0.08,-0.308984 z m 12.010347,0.956125 c 0.104409,0.02408 0.20965,0.04823 0.316263,0.072 -0.106658,-0.02381 -0.211782,-0.04792 -0.316263,-0.072 z m -9.183804,2.73249 c 0.136033,0.09001 0.278264,0.178991 0.425438,0.267058 -0.147197,-0.08807 -0.289413,-0.177052 -0.425438,-0.267058 z m 0.883827,0.528649 c 0.158653,0.08601 0.322798,0.170513 0.493215,0.254286 -0.170411,-0.08378 -0.334567,-0.168287 -0.493215,-0.254286 z m 2.193039,0.976161 c 0.207738,0.07637 0.422032,0.151484 0.642866,0.225132 -0.220834,-0.07365 -0.435129,-0.148763 -0.642866,-0.225132 z m 0.978889,0.334507 c 0.227501,0.07223 0.461158,0.143071 0.702173,0.212364 -0.241016,-0.0693 -0.474673,-0.140141 -0.702173,-0.212364 z m 1.446695,0.415624 c 0.127408,0.03311 0.255935,0.06521 0.38686,0.09753 0.130927,0.03231 0.259578,0.06616 0.385913,0.100259 -0.126312,-0.03409 -0.255024,-0.06703 -0.385913,-0.09935 -0.130915,-0.03231 -0.259449,-0.06533 -0.38686,-0.09844 z m 3.1014,1.038142 c 0.191785,0.09132 0.375239,0.1852 0.550628,0.282542 -0.175404,-0.09735 -0.358824,-0.191233 -0.550628,-0.282542 z m 2.104698,1.408206 c 0.121512,0.116448 0.235499,0.235079 0.342618,0.35638 -0.107112,-0.121304 -0.22111,-0.239951 -0.342618,-0.35638 z m 0.777474,0.917832 c 0.08638,0.128145 0.165959,0.258607 0.239081,0.391019 -0.07313,-0.132416 -0.152693,-0.262859 -0.239081,-0.391019 z m -4.607386,8.261496 c -0.116277,0.104618 -0.23768,0.20739 -0.362377,0.307166 0.124705,-0.09978 0.246096,-0.202556 0.362377,-0.307166 z M 19.23893,29.23434 c -0.06397,0.04859 -0.128636,0.09676 -0.193893,0.144019 -0.03405,0.02464 -0.06815,0.04673 -0.102596,0.06837 0.03447,-0.02162 0.06854,-0.04462 0.102596,-0.06926 0.06525,-0.04726 0.129921,-0.09451 0.193893,-0.143093 z"
     fill="url(#linearGradient45680)"
     id="path35"
     style="fill:url(#linearGradient45680);stroke-width:1.59325" />
  <path
     d="m 6.2599862,16.088561 c -0.7953407,2.32752 -0.7596948,3.759202 -0.7596948,3.759202 -1.63e-5,5.606967 4.6940856,10.152476 10.4841446,10.152298 0.919656,0 1.798146,-0.146419 2.644761,-0.363764 0.139725,-0.09248 0.279613,-0.159836 0.415804,-0.258437 0.522085,-0.378019 1.007996,-0.799992 1.374636,-1.251738 0.183326,-0.225853 0.336533,-0.458978 0.450119,-0.698379 0.113594,-0.239384 0.187597,-0.484377 0.210838,-0.734026 0.02324,-0.249649 -0.0043,-0.504113 -0.09203,-0.760766 -0.08767,-0.256633 -0.235971,-0.515807 -0.455148,-0.776144 -0.219184,-0.26034 -0.508905,-0.521823 -0.880191,-0.782639 C 19.281956,24.113355 18.829268,23.853582 18.285289,23.59559 17.74131,23.33758 17.105747,23.081069 16.368384,22.829162 15.63113,22.577237 14.791946,22.329582 13.840925,22.087023 12.889795,21.844465 12.044072,21.560667 11.293248,21.24119 10.542369,20.92171 9.8864251,20.566391 9.3169634,20.18227 8.747573,19.798166 8.2644851,19.384818 7.8578076,18.948364 7.4511486,18.511891 7.1207355,18.052473 6.8579899,17.575909 6.5952443,17.099346 6.3998745,16.605727 6.2622993,16.101384 c -0.00117,-0.0042 -0.00136,-0.0086 -0.00327,-0.01304 z"
     fill="url(#linearGradient1954)"
     id="path37"
     style="fill:url(#linearGradient1954);stroke-width:1.59325" />
  <path
     d="m 6.2588932,16.088561 c 0.00115,0.0042 0.00134,0.0087 0.00327,0.01308 0.1376277,0.504361 0.3329461,0.99798 0.5956906,1.474526 0.2627452,0.476545 0.5931405,0.935981 0.999818,1.372453 0.4066776,0.436471 0.8897651,0.849802 1.4591539,1.233906 0.5693884,0.384104 1.2253143,0.739442 1.9762853,1.05892 0.75086,0.319476 1.596509,0.603275 2.547676,0.845833 0.951149,0.242559 1.790369,0.490215 2.527459,0.742141 0.737254,0.251924 1.372817,0.508433 1.916905,0.766426 0.54398,0.258009 0.996666,0.517784 1.367935,0.778581 0.371289,0.260813 0.661009,0.522279 0.880184,0.782636 0.219179,0.260356 0.36748,0.519511 0.455148,0.776145 0.08767,0.256637 0.115294,0.511116 0.09201,0.760766 -0.02324,0.249649 -0.09725,0.494641 -0.210837,0.734025 -0.113594,0.239384 -0.266789,0.472507 -0.450119,0.69838 -0.366659,0.451729 -0.852552,0.873721 -1.374637,1.251739 -0.136176,0.09861 -0.276098,0.165978 -0.415803,0.258433 2.863335,-0.735084 5.24362,-2.599676 6.597876,-5.091934 0.0051,-0.04191 0.02309,-0.08625 0.02763,-0.128013 0.06752,-0.628462 0.05968,-1.24052 -0.0385,-1.827832 -0.09819,-0.587333 -0.286479,-1.149863 -0.578988,-1.679482 -0.292492,-0.529668 -0.689278,-1.026179 -1.20477,-1.481824 -0.515492,-0.455681 -1.149706,-0.870245 -1.916907,-1.235529 -0.767089,-0.365285 -1.666835,-0.681306 -2.713975,-0.939827 -1.04734,-0.258522 -1.981931,-0.542777 -2.812882,-0.848251 -0.830914,-0.305474 -1.558278,-0.632236 -2.192856,-0.976267 -0.634615,-0.344031 -1.176391,-0.704994 -1.634779,-1.079168 -0.458444,-0.374157 -0.833774,-0.761047 -1.136191,-1.156934 -0.302417,-0.395869 -0.532103,-0.801227 -0.698621,-1.210413 -0.1665,-0.409185 -0.269722,-0.822269 -0.32045,-1.23634 -0.050673,-0.414072 -0.04825,-0.8290429 -0.0033,-1.2395691 0.0066,-0.054996 0.02589,-0.1080151 0.03352,-0.1628523 C 7.8814323,12.11749 6.8599571,14.333008 6.2599681,16.088702 Z"
     fill="url(#linearGradient1431)"
     id="path39"
     style="fill:url(#linearGradient1431);stroke-width:1.59325" />
  <path
     d="m 10.035874,9.3421747 c -0.008,0.054837 -0.02752,0.1078563 -0.03353,0.1628522 -0.04484,0.410544 -0.04743,0.8255151 0.0033,1.2395691 0.05067,0.414071 0.153967,0.827154 0.320451,1.23634 0.1665,0.409186 0.396205,0.814544 0.698622,1.210413 0.302415,0.395869 0.677747,0.782777 1.13619,1.156934 0.458462,0.374158 1.000237,0.73512 1.634779,1.079168 0.634615,0.344031 1.361979,0.670776 2.192857,0.976267 0.830914,0.305473 1.765596,0.589747 2.812881,0.848251 1.047341,0.258519 1.947141,0.574524 2.714158,0.939827 0.767127,0.365283 1.401305,0.77985 1.916906,1.235528 0.515473,0.455681 0.912278,0.952175 1.204804,1.481828 0.292528,0.529654 0.480794,1.092255 0.578971,1.679462 0.09817,0.587259 0.105997,1.199319 0.03849,1.827834 -0.0045,0.04175 -0.02245,0.08612 -0.02763,0.128013 0.766452,-1.410393 1.241598,-2.992122 1.241598,-4.696666 h 0.02177 c 0,0 0.242324,-2.508839 -1.713468,-5.807336 C 24.482769,13.671493 23.96706,12.96768 23.586447,12.48976 22.665389,12.300503 21.778593,12.106096 21.006167,11.897508 20.087785,11.649517 19.270022,11.389461 18.543916,11.11974 17.817754,10.850018 17.183012,10.570649 16.629743,10.285247 16.076347,9.9998453 15.60417,9.7076886 15.204068,9.4126916 14.803947,9.1176949 14.475575,8.8200171 14.209277,8.521493 13.942961,8.2229685 13.738794,7.9238442 13.586793,7.62786 13.434755,7.3318754 13.335231,7.0386248 13.278074,6.7512299 c -0.05716,-0.2873771 -0.07173,-0.5690747 -0.05359,-0.8417771 0.0065,-0.093022 0.03515,-0.1781442 0.04858,-0.2689814 -1.30464,1.3167182 -2.331106,2.534592 -3.2371,3.7017033 z"
     fill="url(#linearGradient1439)"
     id="path41"
     style="fill:url(#linearGradient1439);stroke-width:1.59325" />
  <path
     d="m 13.272609,5.640296 c -0.01293,0.090856 -0.04242,0.175937 -0.04858,0.2689815 -0.01822,0.2727004 -0.0033,0.5543996 0.05359,0.8417767 0.05716,0.2873764 0.156718,0.580628 0.308719,0.8766123 0.152036,0.2959861 0.356168,0.5951085 0.622484,0.893633 0.266298,0.2985259 0.59467,0.5962023 0.994791,0.8911989 0.400101,0.2949959 0.872279,0.5871716 1.425675,0.8725556 0.553378,0.285403 1.188121,0.564753 1.914173,0.834492 0.726108,0.269741 1.543907,0.529777 2.462251,0.777769 0.77239,0.208569 1.659222,0.402995 2.58028,0.592251 C 21.155073,10.363825 18.507034,9.0898269 17.91597,3.2607968 17.81655,2.5570023 18.034164,2.0001504 17.52359,2.0001504 17.200227,1.9976804 16.930396,2.2464487 16.930396,2.2464487 15.530164,3.4278292 14.35248,4.5501571 13.272536,5.6403663 Z"
     fill="url(#linearGradient1447)"
     id="path43"
     style="fill:url(#linearGradient1447);stroke-width:1.59325" />
</svg>
