<?xml version="1.0" encoding="UTF-8" standalone="no"?>
<!-- Created with Inkscape (http://www.inkscape.org/) -->

<svg
   width="32"
   height="32"
   viewBox="0 0 32 32"
   version="1.1"
   id="svg5"
   inkscape:version="1.2.1 (9c6d41e410, 2022-07-14, custom)"
   sodipodi:docname="preferences-desktop-theme-windowdecorations.svg"
   xmlns:inkscape="http://www.inkscape.org/namespaces/inkscape"
   xmlns:sodipodi="http://sodipodi.sourceforge.net/DTD/sodipodi-0.dtd"
   xmlns:xlink="http://www.w3.org/1999/xlink"
   xmlns="http://www.w3.org/2000/svg"
   xmlns:svg="http://www.w3.org/2000/svg">
  <sodipodi:namedview
     id="namedview7"
     pagecolor="#ffffff"
     bordercolor="#666666"
     borderopacity="1.0"
     inkscape:pageshadow="2"
     inkscape:pageopacity="0.0"
     inkscape:pagecheckerboard="0"
     inkscape:document-units="px"
     showgrid="false"
     units="px"
     height="64px"
     inkscape:zoom="25.3125"
     inkscape:cx="15.980247"
     inkscape:cy="16"
     inkscape:window-width="1920"
     inkscape:window-height="1012"
     inkscape:window-x="0"
     inkscape:window-y="0"
     inkscape:window-maximized="1"
     inkscape:current-layer="svg5"
     inkscape:showpageshadow="2"
     inkscape:deskcolor="#d1d1d1" />
  <defs
     id="defs2">
    <linearGradient
       inkscape:collect="always"
       xlink:href="#linearGradient2353"
       id="linearGradient1623"
       x1="1.490428"
       y1="0.96836084"
       x2="3.9701264"
       y2="1.9523772"
       gradientUnits="userSpaceOnUse"
       gradientTransform="matrix(2.8814524,2.8814524,-2.9729035,2.9729035,16.608996,5.4073339)" />
    <linearGradient
       inkscape:collect="always"
       id="linearGradient2353">
      <stop
         style="stop-color:#c6d0d7;stop-opacity:1;"
         offset="0"
         id="stop2349" />
      <stop
         style="stop-color:#82888b;stop-opacity:1"
         offset="1"
         id="stop2351" />
    </linearGradient>
    <linearGradient
       inkscape:collect="always"
       xlink:href="#linearGradient34770"
       id="linearGradient5000"
       x1="1.3890625"
       y1="-3.175"
       x2="2.7956591"
       y2="-4.1435666"
       gradientUnits="userSpaceOnUse"
       gradientTransform="matrix(2.4524234,2.4524234,2.5504909,-2.5504909,15.641271,8.3486805)" />
    <linearGradient
       inkscape:collect="always"
       id="linearGradient34770">
      <stop
         style="stop-color:#f8a731;stop-opacity:1;"
         offset="0"
         id="stop34766" />
      <stop
         style="stop-color:#ea631d;stop-opacity:1"
         offset="1"
         id="stop34768" />
    </linearGradient>
  </defs>
  <rect
     style="fill:#797774;fill-opacity:1;stroke-linecap:round"
     id="rect1086"
     width="28"
     height="22"
     x="2"
     y="5"
     ry="2.0000002" />
  <path
     id="rect1043"
     style="fill:#ffffff;fill-opacity:1;stroke-width:3;stroke-linecap:round;stroke-linejoin:round"
     d="M 3.9999998,8 H 28 c 0.554,0 1,0.4460001 1,0.9999999 V 25 c 0,0.554 -0.446,0.999999 -1,0.999999 H 3.9999998 C 3.4459999,25.999999 2.9999999,25.554 2.9999999,25 V 8.9999999 C 2.9999999,8.4460001 3.4459999,8 3.9999998,8 Z"
     sodipodi:nodetypes="sssssssss" />
  <path
     id="rect1066"
     style="fill:#c4c4c4;fill-opacity:1;stroke-width:1.5;stroke-linecap:round;stroke-linejoin:round"
     d="m 23.000001,5.9999999 v 0.9999999 h 1 V 5.9999999 Z m 2,0 v 0.9999999 h 1 V 5.9999999 Z m 2,0 V 6.9999998 H 28 V 5.9999999 Z" />
  <path
     id="path6136"
     style="color:#000000;fill:url(#linearGradient5000);stroke-width:0.935811;stroke-linecap:round;stroke-linejoin:round;-inkscape-stroke:none"
     d="m 13.309621,19.372469 c -3.9912821,-1.027951 -4.2272517,2.837369 -5.2239796,4.151163 -0.1818708,0.262375 -0.042633,0.377772 0.1259339,0.481202 2.9629697,0.336038 6.6431487,-2.294982 5.0980457,-4.632365 z"
     sodipodi:nodetypes="cccc" />
  <path
     id="path2852"
     style="color:#000000;fill:url(#linearGradient1623);fill-opacity:1;stroke-width:1.09515;stroke-linecap:round;stroke-linejoin:round;-inkscape-stroke:none"
     d="M 23.573204,9.1088859 C 22.361792,7.8974476 13.09164,17.159114 11.436952,18.813772 c -0.0073,0.0065 -0.01353,0.01353 -0.02056,0.02056 -0.224497,0.224496 -0.224497,0.585963 0,0.810455 l 1.620909,1.620927 c 0.224496,0.224496 0.585955,0.224496 0.810455,0 0.0071,-0.0071 0.01398,-0.0133 0.02056,-0.02056 C 15.522975,19.59045 24.784604,10.32026 23.573203,9.1088859 Z"
     sodipodi:nodetypes="ccsssscc" />
</svg>
