<?xml version="1.0" encoding="UTF-8" standalone="no"?>
<!-- Created with Inkscape (http://www.inkscape.org/) -->

<svg
   width="32"
   height="32"
   viewBox="0 0 32 32"
   version="1.1"
   id="svg5"
   inkscape:version="1.2.1 (9c6d41e410, 2022-07-14, custom)"
   sodipodi:docname="preferences-desktop-accessibility.svg"
   xmlns:inkscape="http://www.inkscape.org/namespaces/inkscape"
   xmlns:sodipodi="http://sodipodi.sourceforge.net/DTD/sodipodi-0.dtd"
   xmlns:xlink="http://www.w3.org/1999/xlink"
   xmlns="http://www.w3.org/2000/svg"
   xmlns:svg="http://www.w3.org/2000/svg">
  <sodipodi:namedview
     id="namedview7"
     pagecolor="#ffffff"
     bordercolor="#666666"
     borderopacity="1.0"
     inkscape:pageshadow="2"
     inkscape:pageopacity="0.0"
     inkscape:pagecheckerboard="0"
     inkscape:document-units="px"
     showgrid="false"
     units="px"
     height="48px"
     inkscape:zoom="25.25"
     inkscape:cx="16"
     inkscape:cy="16"
     inkscape:window-width="1920"
     inkscape:window-height="1010"
     inkscape:window-x="0"
     inkscape:window-y="0"
     inkscape:window-maximized="1"
     inkscape:current-layer="svg5"
     inkscape:lockguides="true"
     inkscape:showpageshadow="2"
     inkscape:deskcolor="#d1d1d1" />
  <defs
     id="defs2">
    <linearGradient
       inkscape:collect="always"
       id="linearGradient2779">
      <stop
         style="stop-color:#4397ff;stop-opacity:1;"
         offset="0"
         id="stop2775" />
      <stop
         style="stop-color:#2b59b2;stop-opacity:1"
         offset="1"
         id="stop2777" />
    </linearGradient>
    <linearGradient
       inkscape:collect="always"
       xlink:href="#linearGradient2779"
       id="linearGradient2781"
       x1="8.2020826"
       y1="0.52916664"
       x2="8.1665678"
       y2="15.340623"
       gradientUnits="userSpaceOnUse"
       gradientTransform="matrix(1.8897535,0,0,1.8897535,2.061419e-4,1.0000055)" />
  </defs>
  <path
     id="rect1286"
     style="fill:url(#linearGradient2781);fill-opacity:1;stroke-width:1.69967;stroke-linecap:round;stroke-linejoin:round"
     d="m 15.500122,2 c -2.209125,0 -3.999978,1.7908535 -3.999978,3.999978 0,2.209125 1.790853,3.9999785 3.999978,3.9999785 2.209125,0 3.999979,-1.7908535 3.999979,-3.9999785 C 19.5001,3.7908535 17.709246,2 15.500122,2 Z M 6.7697005,7.904265 C 6.025758,7.912865 5.31916,8.3387545 4.9826008,9.0605085 4.5143446,10.064688 4.9452128,11.250441 5.9493925,11.718697 l 6.0507485,2.821274 v 5.104464 L 9.21207,27.304549 c -0.378955,1.041173 0.154136,2.184508 1.195306,2.563464 1.04117,0.378951 2.184508,-0.154147 2.563463,-1.195307 l 2.529283,-6.949181 2.529283,6.949181 c 0.378954,1.041168 1.522295,1.574256 2.563462,1.195307 1.041173,-0.378956 1.574256,-1.522291 1.195307,-2.563464 L 19.000102,19.644435 V 14.539971 L 25.05085,11.718697 C 26.055033,11.250441 26.485901,10.064688 26.017643,9.0605085 25.549384,8.056329 24.364613,7.6254605 23.36043,8.093717 l -4.082009,1.90331 c -0.985325,0.931706 -2.315188,1.502921 -3.778299,1.502921 -1.463112,0 -2.792974,-0.571215 -3.7783,-1.502921 L 7.639813,8.093717 C 7.3573875,7.9620195 7.0608085,7.9009005 6.7697005,7.904265 Z"
     sodipodi:nodetypes="sssssssccccscccsccccsccsccs" />
</svg>
