<?xml version="1.0" encoding="UTF-8" standalone="no"?>
<!-- Created with Inkscape (http://www.inkscape.org/) -->

<svg
   width="32"
   height="32"
   viewBox="0 0 32 32"
   version="1.1"
   id="svg5"
   inkscape:version="1.2.1 (9c6d41e410, 2022-07-14, custom)"
   sodipodi:docname="preferences-desktop-default-applications.svg"
   xmlns:inkscape="http://www.inkscape.org/namespaces/inkscape"
   xmlns:sodipodi="http://sodipodi.sourceforge.net/DTD/sodipodi-0.dtd"
   xmlns:xlink="http://www.w3.org/1999/xlink"
   xmlns="http://www.w3.org/2000/svg"
   xmlns:svg="http://www.w3.org/2000/svg">
  <sodipodi:namedview
     id="namedview7"
     pagecolor="#ffffff"
     bordercolor="#666666"
     borderopacity="1.0"
     inkscape:pageshadow="2"
     inkscape:pageopacity="0.0"
     inkscape:pagecheckerboard="0"
     inkscape:document-units="px"
     showgrid="false"
     units="px"
     height="64px"
     inkscape:zoom="26.65625"
     inkscape:cx="15.005862"
     inkscape:cy="16.037515"
     inkscape:window-width="1920"
     inkscape:window-height="1029"
     inkscape:window-x="0"
     inkscape:window-y="0"
     inkscape:window-maximized="1"
     inkscape:current-layer="svg5"
     inkscape:showpageshadow="2"
     inkscape:deskcolor="#d1d1d1" />
  <defs
     id="defs2">
    <linearGradient
       inkscape:collect="always"
       id="linearGradient1723">
      <stop
         style="stop-color:#1088d6;stop-opacity:1;"
         offset="0"
         id="stop1719" />
      <stop
         style="stop-color:#076cbe;stop-opacity:1"
         offset="1"
         id="stop1721" />
    </linearGradient>
    <linearGradient
       inkscape:collect="always"
       xlink:href="#linearGradient1723"
       id="linearGradient960"
       x1="16"
       y1="9"
       x2="16"
       y2="25.000002"
       gradientUnits="userSpaceOnUse" />
    <linearGradient
       inkscape:collect="always"
       xlink:href="#linearGradient6911"
       id="linearGradient59378"
       x1="35.875587"
       y1="-37.89032"
       x2="55.549019"
       y2="-19.004301"
       gradientUnits="userSpaceOnUse"
       gradientTransform="matrix(0.51430994,0,0,0.51583445,0.95093882,38.247438)" />
    <linearGradient
       inkscape:collect="always"
       id="linearGradient6911">
      <stop
         style="stop-color:#50b10e;stop-opacity:1;"
         offset="0"
         id="stop6907" />
      <stop
         style="stop-color:#18840f;stop-opacity:1"
         offset="1"
         id="stop6909" />
    </linearGradient>
  </defs>
  <rect
     style="fill:#797774;stroke-linecap:round;fill-opacity:1"
     id="rect1086"
     width="30"
     height="24"
     x="1"
     y="4"
     ry="2.0000002" />
  <path
     id="rect1043"
     style="fill:#fafafa;fill-opacity:1;stroke-width:3;stroke-linecap:round;stroke-linejoin:round"
     d="M 2.9999998,7 H 29 c 0.554,0 1,0.4460001 1,0.9999999 V 26 c 0,0.554 -0.446,0.999999 -1,0.999999 H 2.9999998 C 2.4459999,26.999999 1.9999999,26.554 1.9999999,26 V 7.9999999 C 1.9999999,7.4460001 2.4459999,7 2.9999998,7 Z"
     sodipodi:nodetypes="sssssssss" />
  <path
     id="rect1066"
     style="fill:#c4c4c4;fill-opacity:1;stroke-width:1.5;stroke-linecap:round;stroke-linejoin:round"
     d="m 24.000001,4.9999999 v 0.9999999 h 1 V 4.9999999 Z m 2,0 v 0.9999999 h 1 V 4.9999999 Z m 2,0 V 5.9999998 H 29 V 4.9999999 Z" />
  <path
     id="rect845"
     style="fill:#bebebe;fill-opacity:1;stroke-width:2.12132;stroke-linecap:round;stroke-linejoin:round"
     d="m 4.0000001,10 v 1 h 5.0000001 v -1 z m 19.0000009,0 v 1 h 5 V 10 Z M 4.0000001,13 v 1.000001 H 9.0000002 V 13 Z m 19.0000009,0 v 1.000001 h 5 V 13 Z M 4.0000001,16.000001 v 1 h 5.0000001 v -1 z m 19.0000009,0 v 1 h 5 v -1 z m -19.0000009,3 v 1 h 5.0000001 v -1 z m 19.0000009,0 v 1 h 5 v -1 z m -19.0000009,3 v 1 h 5.0000001 v -1 z m 19.0000009,0 v 1 h 5 v -1 z" />
  <rect
     style="fill:url(#linearGradient960);stroke-linecap:round;fill-opacity:1"
     id="rect398"
     width="10.000001"
     height="16.000002"
     x="10.999999"
     y="9"
     ry="1" />
  <ellipse
     style="fill:url(#linearGradient59378);fill-opacity:1;stroke-width:0.408839;stroke-linecap:round;stroke-linejoin:round"
     id="path55509"
     cx="24.5"
     cy="23.5"
     rx="7.5"
     ry="7.4999995" />
  <path
     id="path69248"
     style="opacity:0.2;fill:#4d4d4d;fill-opacity:0.996078;stroke-width:0.85686;stroke-linecap:round;stroke-linejoin:round"
     d="m 24.500002,16.000001 c -4.142136,0 -7.5,3.357865 -7.5,7.5 0,4.142135 3.357864,7.5 7.5,7.5 4.142135,0 7.5,-3.357865 7.5,-7.5 0,-4.142135 -3.357865,-7.5 -7.5,-7.5 z m 0,1 c 3.589856,0 6.5,2.910149 6.5,6.5 0,3.589856 -2.910144,6.5 -6.5,6.5 -3.589849,-4e-6 -6.5,-2.910148 -6.5,-6.5 0,-3.589849 2.910153,-6.5 6.5,-6.5 z" />
  <path
     id="rect1469"
     style="fill:#ffffff;stroke-width:1.99994;stroke-linecap:round;stroke-linejoin:round"
     d="m 23.835031,26.578927 c -0.196762,0.177865 -0.498701,0.171099 -0.688445,-0.01852 -0.006,-0.006 -0.01209,-0.01134 -0.01776,-0.01776 l -2.517923,-2.517366 c -0.195878,-0.195832 -0.195855,-0.511223 0,-0.707089 0.195855,-0.195855 0.511226,-0.195855 0.707089,0 l 2.182331,2.181777 4.596075,-4.596075 c 0.195856,-0.195855 0.511227,-0.195855 0.70709,0 0.195855,0.195855 0.195855,0.511226 0,0.707089 L 23.87182,26.54265 c -0.0057,0.0064 -0.01172,0.01172 -0.01776,0.01814 -0.006,0.006 -0.01209,0.01285 -0.0189,0.01852 z"
     sodipodi:nodetypes="cscscccssccccc" />
</svg>
