<?xml version="1.0" encoding="UTF-8" standalone="no"?>
<!-- Created with Inkscape (http://www.inkscape.org/) -->

<svg
   width="32"
   height="32"
   viewBox="0 0 32 32"
   version="1.1"
   id="svg5"
   inkscape:version="1.2.1 (9c6d41e410, 2022-07-14, custom)"
   sodipodi:docname="preferences-online-accounts.svg"
   xmlns:inkscape="http://www.inkscape.org/namespaces/inkscape"
   xmlns:sodipodi="http://sodipodi.sourceforge.net/DTD/sodipodi-0.dtd"
   xmlns:xlink="http://www.w3.org/1999/xlink"
   xmlns="http://www.w3.org/2000/svg"
   xmlns:svg="http://www.w3.org/2000/svg">
  <sodipodi:namedview
     id="namedview7"
     pagecolor="#ffffff"
     bordercolor="#666666"
     borderopacity="1.0"
     inkscape:pageshadow="2"
     inkscape:pageopacity="0.0"
     inkscape:pagecheckerboard="0"
     inkscape:document-units="px"
     showgrid="false"
     units="px"
     height="16px"
     showguides="false"
     inkscape:zoom="25.3125"
     inkscape:cx="15.980247"
     inkscape:cy="16"
     inkscape:window-width="1920"
     inkscape:window-height="1012"
     inkscape:window-x="0"
     inkscape:window-y="0"
     inkscape:window-maximized="1"
     inkscape:current-layer="svg5"
     inkscape:showpageshadow="2"
     inkscape:deskcolor="#d1d1d1" />
  <defs
     id="defs2">
    <linearGradient
       inkscape:collect="always"
       xlink:href="#linearGradient984"
       id="linearGradient7450"
       x1="2.9104171"
       y1="3.1750004"
       x2="14.552084"
       y2="12.700001"
       gradientUnits="userSpaceOnUse"
       gradientTransform="matrix(1.7594351,0,0,1.7594351,1.6034493,0.60344843)" />
    <linearGradient
       inkscape:collect="always"
       id="linearGradient984">
      <stop
         style="stop-color:#26b4eb;stop-opacity:1;"
         offset="0"
         id="stop980" />
      <stop
         style="stop-color:#15b393;stop-opacity:1"
         offset="1"
         id="stop982" />
    </linearGradient>
    <linearGradient
       inkscape:collect="always"
       id="linearGradient3933">
      <stop
         style="stop-color:#93daee;stop-opacity:1"
         offset="0"
         id="stop3929" />
      <stop
         style="stop-color:#afe5e3;stop-opacity:1"
         offset="1"
         id="stop3931" />
    </linearGradient>
    <linearGradient
       inkscape:collect="always"
       xlink:href="#linearGradient3933"
       id="linearGradient1155"
       x1="3.0835817"
       y1="10.200703"
       x2="25.814161"
       y2="24.21023"
       gradientUnits="userSpaceOnUse"
       gradientTransform="translate(1)" />
    <linearGradient
       inkscape:collect="always"
       xlink:href="#linearGradient2497"
       id="linearGradient2320"
       x1="8.562398"
       y1="1.3003726"
       x2="8.5805483"
       y2="8.2474289"
       gradientUnits="userSpaceOnUse"
       gradientTransform="matrix(1.1629316,0,0,1.1629316,-0.846154,11.46154)" />
    <linearGradient
       inkscape:collect="always"
       id="linearGradient2497">
      <stop
         style="stop-color:#1998df;stop-opacity:1;"
         offset="0"
         id="stop2493" />
      <stop
         style="stop-color:#076cbe;stop-opacity:1;"
         offset="1"
         id="stop2495" />
    </linearGradient>
    <linearGradient
       inkscape:collect="always"
       xlink:href="#linearGradient2497"
       id="linearGradient3853"
       x1="12.001918"
       y1="13.000003"
       x2="12.001917"
       y2="20.000031"
       gradientUnits="userSpaceOnUse"
       gradientTransform="matrix(0.99999606,0,0,0.99999606,-3.0018699,10.000048)" />
  </defs>
  <circle
     style="fill:url(#linearGradient7450);fill-opacity:1;stroke-width:1.98225;stroke-linecap:round;stroke-linejoin:round"
     id="path7362"
     cx="16.5"
     cy="15.5"
     r="13.5" />
  <path
     id="path371"
     style="opacity:0.6;fill:url(#linearGradient1155);fill-opacity:1"
     d="M 16.5,2 A 13.5,13.5 0 0 0 3,15.5 13.5,13.5 0 0 0 16.5,29 13.5,13.5 0 0 0 30,15.5 13.5,13.5 0 0 0 16.5,2 Z m 0,1 A 12.5,12.5 0 0 1 17.634766,3.0546875 12.5,12.5 0 0 0 16.5,3 Z m 0,0 a 4.5,12.5 0 0 1 4.041016,7 H 12.46875 A 4.5,12.5 0 0 1 16.5,3 Z m 1.140625,0.054687 A 12.5,12.5 0 0 1 18.751953,3.2089839 12.5,12.5 0 0 0 17.640625,3.054687 Z m -2.492187,0.041016 a 12.5,12.5 0 0 0 -0.931641,0.140625 12.5,12.5 0 0 1 0.931641,-0.140625 z m 3.61914,0.1152344 A 12.5,12.5 0 0 1 28.158203,11 12.5,12.5 0 0 1 29,15.5 12.5,12.5 0 0 1 28.128906,20 12.5,12.5 0 0 1 27.703125,21 12.5,12.5 0 0 1 18.794922,27.761719 5.5,13.5 0 0 0 21.515625,21 h 6.1875 a 12.5,12.5 0 0 0 0.425781,-1 H 21.673828 A 5.5,13.5 0 0 0 22,15.5 5.5,13.5 0 0 0 21.683594,11 h 6.474609 A 12.5,12.5 0 0 0 27.722656,10 H 21.521484 A 5.5,13.5 0 0 0 18.767578,3.2109374 Z m -4.5625,0.027344 A 5.5,13.5 0 0 0 11.484375,10 h -6.1875 A 12.5,12.5 0 0 0 4.8710938,11 H 11.326172 A 5.5,13.5 0 0 0 11,15.5 5.5,13.5 0 0 0 11.326172,20 H 4.8710938 a 12.5,12.5 0 0 0 0.4257812,1 h 6.1875 A 5.5,13.5 0 0 0 14.205078,27.761719 12.5,12.5 0 0 1 5.296875,21 12.5,12.5 0 0 1 4.8710938,20 12.5,12.5 0 0 1 4,15.5 12.5,12.5 0 0 1 4.8710938,11 12.5,12.5 0 0 1 5.296875,10 12.5,12.5 0 0 1 14.205078,3.2382814 Z M 12.306641,11 h 8.390625 A 4.5,12.5 0 0 1 21,15.5 4.5,12.5 0 0 1 20.693359,20 H 12.306641 A 4.5,12.5 0 0 1 12,15.5 4.5,12.5 0 0 1 12.306641,11 Z m 0.162109,10 h 8.0625 A 4.5,12.5 0 0 1 16.5,28 4.5,12.5 0 0 1 12.46875,21 Z m 1.748047,6.763672 a 12.5,12.5 0 0 0 0.931641,0.140625 12.5,12.5 0 0 1 -0.931641,-0.140625 z m 4.566406,0 a 12.5,12.5 0 0 1 -0.931641,0.140625 12.5,12.5 0 0 0 0.931641,-0.140625 z" />
  <circle
     style="fill:url(#linearGradient2320);fill-opacity:1;stroke-width:1.34768;stroke-linecap:round;stroke-linejoin:round"
     id="path846"
     cx="9"
     cy="17.000002"
     r="4" />
  <path
     id="rect1284"
     style="fill:url(#linearGradient3853);fill-opacity:1;stroke-width:0.559016;stroke-linejoin:round"
     d="m 4,23 c -1.0713308,0 -2,0.762572 -2,2 v 1 c 0,1.744114 3,4 7,4 4,0 7,-2.255886 7,-4 v -1 c 0,-1.237428 -0.928669,-2 -1.999999,-2 z"
     sodipodi:nodetypes="cssssscc" />
</svg>
