<?xml version="1.0" encoding="UTF-8" standalone="no"?>
<!-- Created with Inkscape (http://www.inkscape.org/) -->

<svg
   width="32"
   height="32"
   viewBox="0 0 32 32"
   version="1.1"
   id="svg2112"
   inkscape:version="1.2.1 (9c6d41e410, 2022-07-14, custom)"
   sodipodi:docname="preferences-security.svg"
   xmlns:inkscape="http://www.inkscape.org/namespaces/inkscape"
   xmlns:sodipodi="http://sodipodi.sourceforge.net/DTD/sodipodi-0.dtd"
   xmlns:xlink="http://www.w3.org/1999/xlink"
   xmlns="http://www.w3.org/2000/svg"
   xmlns:svg="http://www.w3.org/2000/svg">
  <sodipodi:namedview
     id="namedview2114"
     pagecolor="#ffffff"
     bordercolor="#000000"
     borderopacity="0.25"
     inkscape:showpageshadow="2"
     inkscape:pageopacity="0.0"
     inkscape:pagecheckerboard="0"
     inkscape:deskcolor="#d1d1d1"
     inkscape:document-units="px"
     showgrid="false"
     inkscape:zoom="25.84375"
     inkscape:cx="16"
     inkscape:cy="16"
     inkscape:window-width="1920"
     inkscape:window-height="1029"
     inkscape:window-x="0"
     inkscape:window-y="0"
     inkscape:window-maximized="1"
     inkscape:current-layer="svg2112" />
  <defs
     id="defs2109">
    <linearGradient
       inkscape:collect="always"
       xlink:href="#linearGradient115183"
       id="linearGradient8763"
       x1="10"
       y1="1.0351562"
       x2="9.8847656"
       y2="14.952974"
       gradientUnits="userSpaceOnUse"
       gradientTransform="matrix(0.99999993,0,0,1.0033788,2e-7,0.96134631)" />
    <linearGradient
       inkscape:collect="always"
       id="linearGradient115183">
      <stop
         style="stop-color:#37c6f0;stop-opacity:1"
         offset="0"
         id="stop115179" />
      <stop
         style="stop-color:#29b5e8;stop-opacity:1"
         offset="1"
         id="stop115181" />
    </linearGradient>
    <linearGradient
       inkscape:collect="always"
       id="linearGradient129670">
      <stop
         style="stop-color:#1096eb;stop-opacity:1"
         offset="0"
         id="stop129666" />
      <stop
         style="stop-color:#056ac2;stop-opacity:1"
         offset="1"
         id="stop129668" />
    </linearGradient>
    <linearGradient
       inkscape:collect="always"
       id="linearGradient1709">
      <stop
         style="stop-color:#0d559f;stop-opacity:1"
         offset="0"
         id="stop1705" />
      <stop
         style="stop-color:#144b8c;stop-opacity:1"
         offset="1"
         id="stop1707" />
    </linearGradient>
    <linearGradient
       inkscape:collect="always"
       xlink:href="#linearGradient129670"
       id="linearGradient1266"
       gradientUnits="userSpaceOnUse"
       gradientTransform="matrix(0.99999993,0,0,1.0033788,-10e-7,0.961345)"
       x1="21"
       y1="1.0351573"
       x2="21"
       y2="28.93277" />
    <linearGradient
       inkscape:collect="always"
       xlink:href="#linearGradient1709"
       id="linearGradient1291"
       gradientUnits="userSpaceOnUse"
       gradientTransform="matrix(0.49999997,0,0,0.49999997,2e-7,0.5000013)"
       x1="40"
       y1="31.000002"
       x2="40"
       y2="59.000004" />
  </defs>
  <path
     id="path5150"
     style="color:#000000;fill:url(#linearGradient8763);fill-opacity:1;stroke-width:1.00169;stroke-linecap:round;stroke-linejoin:round"
     d="M 15.999999,2 C 13.392279,2.1832851 11.638662,2.4479624 9.3049999,3.9999999 7.0807399,5.2333119 4.5448535,5.9610818 3,5.999695 2.4469754,5.998665 2.0000544,6.4448016 2,6.9996952 v 8.9993218 0.002 c 0,3.199157 2.222755,5.799594 5.1132813,8.760845 2.6075116,2.671223 5.7927167,4.846506 8.8867177,5.238344 3.094003,-0.391837 6.279207,-2.567121 8.88672,-5.238344 2.890526,-2.961251 5.11328,-5.585279 5.11328,-8.784436 v -0.002 L 30,6.9996942 C 29.999945,6.4448016 29.554,6.011667 29.000976,6.012695 27.456121,5.9740819 24.919573,5.2333122 22.695311,3.9999999 20.36165,2.4479629 18.607721,2.1832857 15.999999,2 Z"
     sodipodi:nodetypes="cccccscccsccccc" />
  <path
     d="m 15.999999,2 v 14 h 14 V 6.9782105 C 29.999946,6.4233165 29.552045,5.9862765 28.999023,5.9873045 27.454165,5.9486915 24.919576,5.2333119 22.69531,4 20.361651,2.447963 18.607722,2.183286 15.999999,2 Z m 0,14 -14,-0.02457 v 0.04688 0.0019 c 0,6.180302 7.853598,12.98251 14,13.975743 z"
     style="color:#000000;fill:url(#linearGradient1266);fill-opacity:1;stroke-width:1.00169;stroke-linecap:round;stroke-linejoin:round"
     id="path1252" />
  <path
     d="m 16,16.000001 v 14 C 22.14639,29.00677 30,22.203727 30,16.023439 v -0.02344 z"
     style="color:#000000;fill:url(#linearGradient1291);fill-opacity:1;stroke-width:1.00169;stroke-linecap:round;stroke-linejoin:round"
     id="path1277" />
</svg>
