<?xml version="1.0" encoding="UTF-8" standalone="no"?>
<!-- Created with Inkscape (http://www.inkscape.org/) -->

<svg
   width="32"
   height="32"
   viewBox="0 0 32 32"
   version="1.1"
   id="svg2535"
   inkscape:version="1.2 (1:1.2.1+202207142221+cd75a1ee6d)"
   sodipodi:docname="preferences-system-time.svg"
   xmlns:inkscape="http://www.inkscape.org/namespaces/inkscape"
   xmlns:sodipodi="http://sodipodi.sourceforge.net/DTD/sodipodi-0.dtd"
   xmlns:xlink="http://www.w3.org/1999/xlink"
   xmlns="http://www.w3.org/2000/svg"
   xmlns:svg="http://www.w3.org/2000/svg">
  <sodipodi:namedview
     id="namedview2537"
     pagecolor="#ffffff"
     bordercolor="#000000"
     borderopacity="0.25"
     inkscape:showpageshadow="2"
     inkscape:pageopacity="0.0"
     inkscape:pagecheckerboard="0"
     inkscape:deskcolor="#d1d1d1"
     inkscape:document-units="px"
     showgrid="false"
     inkscape:zoom="26.0625"
     inkscape:cx="15.980815"
     inkscape:cy="16"
     inkscape:window-width="1920"
     inkscape:window-height="1012"
     inkscape:window-x="0"
     inkscape:window-y="0"
     inkscape:window-maximized="1"
     inkscape:current-layer="svg2535" />
  <defs
     id="defs2532">
    <radialGradient
       id="radialGradient875"
       cx="20.107"
       cy="28.705"
       r="28"
       gradientTransform="matrix(0.55257996,0.3120413,-0.24585863,0.43537667,6.4935346,-4.8581336)"
       gradientUnits="userSpaceOnUse">
      <stop
         stop-color="#5ab5e2"
         offset="0"
         id="stop2" />
      <stop
         stop-color="#4189ac"
         offset=".45901"
         id="stop4" />
      <stop
         stop-color="#295e76"
         offset="1"
         id="stop6" />
    </radialGradient>
    <linearGradient
       id="linearGradient883"
       x1="4"
       x2="59.861"
       y1="31.360001"
       y2="31.360001"
       gradientTransform="matrix(0.49998665,0,0,0.49998665,4.6625611e-4,-0.03343993)"
       gradientUnits="userSpaceOnUse">
      <stop
         stop-color="#b0d6df"
         offset="0"
         id="stop9" />
      <stop
         stop-color="#e1f8fc"
         offset=".21709"
         id="stop11" />
      <stop
         stop-color="#96c3ce"
         offset="1"
         id="stop13" />
    </linearGradient>
    <linearGradient
       inkscape:collect="always"
       xlink:href="#linearGradient1611"
       id="linearGradient1109"
       x1="1.8368058"
       y1="2.3578029"
       x2="1.8673608"
       y2="5.5564623"
       gradientUnits="userSpaceOnUse"
       gradientTransform="matrix(4.7244098,0,0,4.7244098,-0.24999989,4.750002)" />
    <linearGradient
       inkscape:collect="always"
       id="linearGradient1611">
      <stop
         style="stop-color:#9ca3a8;stop-opacity:1;"
         offset="0"
         id="stop1607" />
      <stop
         style="stop-color:#63737d;stop-opacity:1"
         offset="1"
         id="stop1609" />
    </linearGradient>
    <linearGradient
       inkscape:collect="always"
       xlink:href="#linearGradient3161"
       id="linearGradient3163"
       x1="8.4666662"
       y1="15.345833"
       x2="8.4666662"
       y2="1.5874995"
       gradientUnits="userSpaceOnUse"
       gradientTransform="matrix(0.94488189,0,0,0.94488189,0.49999158,15.499968)" />
    <linearGradient
       inkscape:collect="always"
       id="linearGradient3161">
      <stop
         style="stop-color:#c7ccd1;stop-opacity:1;"
         offset="0"
         id="stop3157" />
      <stop
         style="stop-color:#fdfdfd;stop-opacity:1"
         offset="1"
         id="stop3159" />
    </linearGradient>
    <radialGradient
       id="radialGradient875-3"
       cx="20.107"
       cy="28.705"
       r="28"
       gradientTransform="matrix(0.51311877,0.28975761,-0.22830122,0.40428527,6.1726397,-4.3683762)"
       gradientUnits="userSpaceOnUse">
      <stop
         stop-color="#5ab5e2"
         offset="0"
         id="stop2-6" />
      <stop
         stop-color="#4189ac"
         offset=".45901"
         id="stop4-7" />
      <stop
         stop-color="#295e76"
         offset="1"
         id="stop6-5" />
    </radialGradient>
  </defs>
  <rect
     x="2"
     y="2"
     width="28"
     height="28"
     rx="13.999999"
     ry="13.999999"
     fill="url(#radialGradient875)"
     id="rect30"
     style="fill:url(#radialGradient875);stroke-width:0.49999" />
  <path
     id="path32"
     style="fill:url(#linearGradient883);stroke-width:0.49999"
     d="m 16.073376,2.6667554 c -1.079726,0.076572 -2.135438,0.2739704 -3.165511,0.6078622 -0.36749,0.014343 -1.168102,0.4887971 -0.523728,0.7109252 0.299884,0.3203599 1.016611,0.4209119 0.929671,0.9443949 0.115647,0.4601323 -1.06964,0.4393048 -0.675169,0.856055 0.2797,0.3680963 0.559511,0.736141 0.839229,1.1042478 0.516462,-0.1658867 0.687308,-0.6929214 0.973841,-1.1000412 0.79758,-0.351807 1.925384,-0.4587955 2.452483,-1.1357977 C 17.06936,4.1755099 17.235405,3.6967188 17.400577,3.2178277 16.958065,3.0341775 16.515868,2.8504496 16.073376,2.6667554 Z m -4.017358,0.1177864 c -0.397039,0.025166 -0.680175,0.2799112 -1.003289,0.4543191 -0.454541,0.055671 -0.967145,0.2254574 -1.253584,0.5910356 0.509878,0.2313897 0.830297,-0.014471 1.270411,-0.1892997 0.408636,-0.2093508 1.799864,-0.2980467 1.165244,-0.8518483 -0.06184,-0.00667 -0.122063,-0.0078 -0.178782,-0.00421 z M 9.8412116,4.2358391 C 9.4686802,4.2915332 9.3369322,5.0867899 9.1786628,4.5345118 9.1332739,4.442139 9.0873415,4.3513908 9.0419464,4.2589756 8.7876101,4.6472037 9.2199192,5.2078564 8.6381072,5.4116001 8.3509169,5.7751594 8.1011736,6.3727118 8.8189935,6.1561787 8.9945948,5.6174601 9.5401111,4.860513 10.160918,5.1760273 10.786203,5.3440307 11.364599,6.3952972 11.875131,5.5630399 11.874925,5.346582 11.08127,5.2197021 11.099003,4.6901582 10.74572,4.5385953 9.9894212,4.8139745 10.015788,4.2631823 9.9519892,4.2348539 9.8944303,4.2278827 9.8412116,4.2358391 Z M 22.896577,4.746948 c -0.6041,0.1207991 -1.201711,0.2599526 -1.678458,0.6751688 0.138386,0.5532813 -0.57434,0.6456968 -0.891811,0.9528081 -0.230345,0.1299817 0.0043,1.1339147 0.206126,0.9780481 0.429119,-0.566161 0.650657,-0.077658 1.049562,0.2019196 0.359042,0.3334728 0.586134,-0.6190376 0.395425,-0.8876049 -0.111893,-0.4328455 0.433,-0.753973 0.628896,-1.1084546 0.59892,-0.3841801 0.09277,0.4898121 0.07362,0.7950586 -0.302317,0.9020625 1.341907,0.028428 0.25871,0.7025119 C 22.64809,7.3465629 22.541674,7.7758501 22.095208,7.9902818 21.854141,8.2845214 20.934366,8.1464001 21.058267,7.6874024 20.722289,7.1608153 20.804334,8.321854 20.690184,8.3162979 20.13336,8.1503757 19.966692,8.771924 19.617486,9.0692897 c -0.267242,0.3070155 -1.209139,0.1154496 -0.504799,0.5910355 0.513704,0.5927598 -0.102971,0.4836438 -0.527935,0.6415158 -0.600554,0.103415 -0.499307,0.627774 -0.483766,1.100041 0.0092,0.260264 0.58519,0.646355 0.877088,0.464835 0.583052,-0.06244 0.43581,-0.778765 0.866571,-0.996978 0.357913,-0.306375 0.608901,-0.59002 1.146315,-0.597345 0.248116,0.236793 0.749438,0.593073 0.952808,0.786645 -0.561257,0.611519 0.258184,0.561365 0.336533,0.0042 0.27685,-0.306793 -0.912238,-1.028122 -0.128303,-0.710925 0.518886,0.171178 0.40014,0.70224 0.630998,1.060077 0.41037,0.693701 0.453974,0.174856 0.492179,-0.361772 0.681792,-0.214187 0.866768,1.188936 1.785727,0.860262 0.688708,0.180968 0.361233,0.625285 -0.07362,0.912844 -0.39714,0.289671 -0.988088,0.09206 -1.423954,-0.0652 -0.431203,-0.221378 -0.950878,-0.09533 -1.177864,0.344946 -0.503905,-0.434883 -0.860164,-1.124875 -1.592221,-1.163141 -0.69314,-0.0359 -1.394448,0.148082 -2.063366,0.336533 -0.741159,0.86982 -1.543458,1.717236 -1.88879,2.828978 -0.358467,0.440517 0.411168,0.703335 -0.172472,1.104247 -0.40633,0.379381 0.136751,0.849205 0.220849,1.274618 0.437279,0.518556 1.108313,2.222545 1.783623,1.562774 0.380045,-0.600459 0.632127,0.394393 1.079008,-0.229263 0.376139,-0.343338 0.681939,0.343661 1.209415,0.09886 0.469044,0.233805 0.508656,0.693017 0.260812,1.131592 -0.15916,0.44528 0.689487,0.628598 0.448009,1.148417 -0.113838,0.508338 0.109245,0.940251 0.361773,1.365061 -0.561306,0.585898 -0.493475,1.453302 -0.353359,2.187462 0.274632,1.006506 0.668188,2.015272 0.628895,3.075068 0.491816,0.129006 0.855298,-0.197058 1.261998,-0.368083 0.776259,0.109794 1.198541,-0.717526 1.68056,-1.192587 -0.362111,-0.48678 0.297353,-0.696792 0.570002,-1.011702 -0.407825,-0.352751 -0.679777,-0.694532 -0.04838,-0.969635 0.291256,-0.295829 0.838214,-0.464446 0.933877,-0.877088 -0.250813,-0.747412 -0.108246,-1.540911 -0.145129,-2.313662 0.309232,-0.623235 0.636907,-1.232982 1.150521,-1.714213 0.204833,-0.675824 0.69767,-1.295869 0.649929,-2.0213 -1.19719,0.358155 -0.835929,-0.15215 -0.172474,-0.637308 0.460418,-0.33767 1.115688,-0.65262 1.255688,-1.228345 0.100486,-0.568213 -0.34352,-1.451095 -0.729854,-0.616276 -0.187666,-0.266048 -0.848376,-0.512049 -0.839229,-0.929671 -0.141573,-0.84219 0.226944,-0.336724 0.555279,0.061 0.633424,-0.469545 1.424933,0.908645 1.493364,0.527935 C 29.552084,10.932933 27.825426,7.7465979 25.260718,5.4873199 25.031705,5.74092 24.657319,6.61944 24.38363,6.1014921 23.992249,5.6863041 23.683149,5.3121467 24.480383,5.4662867 25.261674,5.2542478 24.483953,5.1318286 24.074441,5.0834807 23.663712,5.0355402 23.283396,4.8840335 22.896577,4.746948 Z M 7.9166652,4.765878 C 7.8536782,4.763028 7.7871547,4.766577 7.7189523,4.776395 l -0.07572,-0.00631 -0.021033,-0.0021 C 7.5637673,4.8115578 7.5074443,4.8581298 7.4497262,4.9025944 7.2992197,5.1868712 7.7122605,5.6871552 6.9344104,5.4831133 6.8718863,5.5114449 6.7848946,5.5303667 6.6778043,5.5420065 3.815613,8.0932359 2.0148963,11.805214 2.0021033,15.955589 c 0.2711031,0.555785 0.9351356,0.746305 1.4323672,1.053769 0.5061482,0.173141 1.1426006,0.147548 1.3945074,0.706718 0.2817403,0.295032 0.6596821,0.689426 1.0621812,0.721442 0.6185183,-0.1982 0.7053662,0.363379 0.3933226,0.778232 -0.033806,0.454406 -0.5380338,0.820276 -0.4816624,1.219932 0.1126837,0.4478 -0.5647908,0.940651 -0.1093731,1.350337 0.4791227,0.856565 0.992631,1.68954 1.6405969,2.429345 0.4030258,0.353094 0.3551956,0.839481 0.3091894,1.325097 -0.1599369,0.513241 0.3243569,0.80981 0.5847255,1.182071 -0.099347,0.182151 -0.1901687,0.446283 -0.2776395,0.740372 0.6817852,0.478621 1.4062145,0.899042 2.1706355,1.251482 0.382363,-0.552922 0.720614,-0.963009 0.902328,-0.967532 0.363787,-0.25486 0.440022,-0.831094 0.689892,-1.213621 -0.008,-0.406313 -0.266779,-0.785805 0.155646,-1.228345 0.318291,-0.268651 0.975246,-0.08907 1.093733,-0.649929 0.432363,-0.445359 0.08203,-1.062386 0.08203,-1.602736 0.335853,-0.460059 0.914053,-0.813501 0.849745,-1.449194 0.07276,-0.948126 -1.634353,-0.905903 -2.235839,-1.480744 -0.73933,-0.02116 -0.589706,-1.029303 -1.165244,-1.163141 C 9.9218575,18.987877 9.7156251,18.540775 9.5130922,18.086262 9.1983834,17.871618 8.605661,18.306878 8.2763346,18.037886 7.9033298,17.841383 7.5688098,17.108662 7.1489501,17.56674 6.5963709,17.967397 6.0535926,18.374259 5.5293866,17.703456 5.189427,17.39712 5.6152971,16.527598 5.1339606,16.582382 4.1064084,16.954069 5.4606751,15.089882 4.4987552,15.337211 4.2709319,15.69431 3.8341306,16.245645 3.4092307,15.823081 2.9825284,15.622307 3.1924895,14.968882 3.2115177,14.57791 c 0.018468,-0.457305 0.5970783,-0.685316 0.9296715,-0.893916 0.6450732,0.288495 0.5125236,-0.571347 1.0516647,-0.283949 0.5229907,-0.111385 0.7594049,0.728033 0.9717381,0.759302 0.1247883,-0.413311 -0.101725,-1.01704 0.281846,-1.289341 0.448175,-0.377244 1.0399213,-0.644996 1.1505212,-1.278824 0.00921,-0.677086 0.8308586,-0.106801 1.034838,-0.5679 C 8.8198498,10.494968 9.3694914,10.527721 9.8327982,10.42804 10.086216,10.19291 10.722723,9.4690245 9.9358613,9.6813585 9.6492607,9.6426251 8.4961836,9.7954621 9.2796226,9.5194022 9.6655385,9.2272772 10.131551,9.2675879 10.564757,9.2102128 10.905927,8.9213726 11.503958,8.8253574 11.530185,8.2994712 11.247019,7.9143515 10.646676,7.9873617 10.90129,7.4350029 10.876684,6.7124638 10.239578,7.1765637 10.030511,7.1216068 10.370047,6.6491077 9.5901358,6.3521036 9.3279992,6.3454782 9.1498362,6.7907534 8.6485321,7.174907 8.8253035,7.6874024 8.3030589,7.7722189 8.0588816,8.1506711 7.901942,8.6212806 7.7453628,8.6758207 7.7945044,7.698294 7.1952234,7.7883622 6.7719235,7.7781496 6.2489654,7.1452826 6.6946309,6.8965506 7.3056366,6.5099629 8.0666612,6.2078761 8.4530142,5.5903831 8.6474242,5.1064674 8.3575773,4.7857969 7.9166652,4.765878 Z m 9.9676778,0.6394121 c -0.337219,0.262344 -1.017305,0.079395 -1.161038,0.332326 -0.06046,0.5101603 0.731104,0.5024898 1.047458,0.2208495 0.517061,-0.1911739 0.493942,-0.1548298 0.11358,-0.5531755 z M 10.394387,5.666103 C 9.6777278,5.8769671 10.263092,6.3454198 10.73092,6.3391683 11.289097,6.2941322 10.770075,5.6701168 10.394387,5.666103 Z m 8.545827,1.4071272 c -0.05127,0.4565108 0.387235,0.7436366 0.206126,1.2409642 -0.285185,0.6264996 0.11839,0.8141638 0.605759,0.4290793 0.650904,-0.3982636 -0.487696,-1.2723038 -0.639412,-1.6700435 z m -0.315499,0.7235453 c -0.46016,0.014476 -0.273738,1.0660704 0.103063,0.6709621 0.43281,-0.075557 0.01712,-0.4084624 -0.0021,-0.6583422 -0.03656,-0.00899 -0.07028,-0.013585 -0.100959,-0.01262 z m -7.363757,1.1147646 c 0.08587,0.464242 0.116548,1.2006949 0.456424,0.4101491 -4.66e-4,-0.15364 -0.335591,-0.2743061 -0.456424,-0.4101491 z m 14.123857,4.7724539 c 0.687492,0.599434 0.964921,1.46878 1.352441,2.265286 0.576616,0.302749 0.235179,0.76567 0.315499,1.154728 0.802849,0.702916 -0.812371,0.327264 -0.616276,-0.439596 -0.131012,-0.890674 -0.702224,-1.484431 -1.16945,-2.128569 -0.03674,-0.340959 -0.40284,-0.730517 0.117786,-0.851849 z" />
  <circle
     style="fill:url(#linearGradient1109);fill-opacity:1;stroke-width:0.468751;stroke-linejoin:round"
     id="path1021"
     cx="8.5"
     cy="23.5"
     r="7.5" />
  <circle
     style="fill:url(#linearGradient3163);fill-opacity:1;stroke-width:0.25"
     id="path2899"
     cx="8.5"
     cy="23.5"
     r="6.5" />
  <path
     id="rect1636"
     style="fill:#444444;fill-opacity:1;stroke-width:0.500001;stroke-linejoin:round"
     d="M 8.47461,19 C 8.209695,19.01334 8,19.231656 8,19.5 v 3.974609 c -4.303e-4,0.0085 0,0.01674 0,0.02539 0,0.277 0.223,0.5 0.5,0.5 H 8.525391 12.5 C 12.777001,24 13,23.777 13,23.5 13,23.223 12.777001,23 12.500001,23 h -3.5 v -3.5 c 0,-0.277 -0.223,-0.5 -0.5,-0.5 -0.0087,0 -0.01685,-4.3e-4 -0.025391,0 z"
     sodipodi:nodetypes="sscssccsscsss" />
</svg>
