<?xml version="1.0" encoding="UTF-8" standalone="no"?>
<!-- Created with Inkscape (http://www.inkscape.org/) -->

<svg
   width="32"
   height="32"
   viewBox="0 0 32 32"
   version="1.1"
   id="svg5"
   inkscape:version="1.2.2 (1:1.2.2+202305151914+b0a8486541)"
   sodipodi:docname="system-software-install.svg"
   xmlns:inkscape="http://www.inkscape.org/namespaces/inkscape"
   xmlns:sodipodi="http://sodipodi.sourceforge.net/DTD/sodipodi-0.dtd"
   xmlns:xlink="http://www.w3.org/1999/xlink"
   xmlns="http://www.w3.org/2000/svg"
   xmlns:svg="http://www.w3.org/2000/svg">
  <sodipodi:namedview
     id="namedview7"
     pagecolor="#ffffff"
     bordercolor="#666666"
     borderopacity="1.0"
     inkscape:pageshadow="2"
     inkscape:pageopacity="0.0"
     inkscape:pagecheckerboard="0"
     inkscape:document-units="px"
     showgrid="false"
     units="px"
     height="64px"
     inkscape:zoom="25.1875"
     inkscape:cx="16"
     inkscape:cy="16"
     inkscape:window-width="1920"
     inkscape:window-height="1008"
     inkscape:window-x="0"
     inkscape:window-y="0"
     inkscape:window-maximized="1"
     inkscape:current-layer="svg5"
     inkscape:showpageshadow="2"
     inkscape:deskcolor="#d1d1d1" />
  <defs
     id="defs2">
    <linearGradient
       inkscape:collect="always"
       id="linearGradient934">
      <stop
         style="stop-color:#345996;stop-opacity:1;"
         offset="0"
         id="stop930" />
      <stop
         style="stop-color:#1d375f;stop-opacity:1;"
         offset="1"
         id="stop932" />
    </linearGradient>
    <linearGradient
       inkscape:collect="always"
       xlink:href="#linearGradient1314"
       id="linearGradient1308"
       x1="6.3499999"
       y1="0.52916664"
       x2="6.3499999"
       y2="1.3229167"
       gradientUnits="userSpaceOnUse"
       gradientTransform="matrix(2.5196844,0,0,2.519684,1.5e-6,0.6666673)" />
    <linearGradient
       inkscape:collect="always"
       id="linearGradient1314">
      <stop
         style="stop-color:#21baff;stop-opacity:1;"
         offset="0"
         id="stop1310" />
      <stop
         style="stop-color:#057dbd;stop-opacity:1"
         offset="1"
         id="stop1312" />
    </linearGradient>
    <linearGradient
       inkscape:collect="always"
       id="linearGradient1545">
      <stop
         style="stop-color:#2ed9ff;stop-opacity:1;"
         offset="0"
         id="stop1541" />
      <stop
         style="stop-color:#057dbd;stop-opacity:1"
         offset="1"
         id="stop1543" />
    </linearGradient>
    <linearGradient
       inkscape:collect="always"
       xlink:href="#linearGradient1545"
       id="linearGradient6196"
       gradientUnits="userSpaceOnUse"
       x1="46.000008"
       y1="4"
       x2="46.000004"
       y2="18"
       gradientTransform="matrix(0.49999988,0,0,0.49999988,2e-6,5.0000049e-7)" />
    <linearGradient
       inkscape:collect="always"
       xlink:href="#linearGradient1545"
       id="linearGradient6204"
       x1="18"
       y1="4"
       x2="18"
       y2="18"
       gradientUnits="userSpaceOnUse"
       gradientTransform="matrix(0.49999988,0,0,0.49999988,2e-6,5.0000049e-7)" />
    <linearGradient
       inkscape:collect="always"
       xlink:href="#linearGradient934"
       id="linearGradient7720"
       x1="11"
       y1="12"
       x2="60"
       y2="60"
       gradientUnits="userSpaceOnUse"
       gradientTransform="scale(0.5)" />
    <linearGradient
       inkscape:collect="always"
       id="linearGradient1451">
      <stop
         style="stop-color:#56b512;stop-opacity:1;"
         offset="0"
         id="stop1447" />
      <stop
         style="stop-color:#84cd5a;stop-opacity:1;"
         offset="1"
         id="stop1449" />
    </linearGradient>
    <linearGradient
       inkscape:collect="always"
       xlink:href="#linearGradient1451"
       id="linearGradient1514"
       x1="16.115164"
       y1="25.999807"
       x2="16.154947"
       y2="16.378096"
       gradientUnits="userSpaceOnUse" />
  </defs>
  <path
     id="rect1335"
     style="fill:url(#linearGradient7720);fill-opacity:1.0;stroke-width:0.499999"
     d="M 4,6 A 2,2 0 0 0 2,8 v 14 c 0,4.431996 3.5680044,8 8,8 h 12 c 4.431996,0 8,-3.568004 8,-8 V 8 A 2,2 0 0 0 28,6 Z" />
  <path
     id="rect846"
     style="fill:url(#linearGradient6204);fill-opacity:1;stroke-width:0.467707"
     d="M 10,2 A 1.9999996,2 0 0 0 8,3.9999994 V 8.499998 c 0,0.277 0.223,0.5 0.5,0.5 h 1 c 0.277,0 0.5,-0.223 0.5,-0.5 V 3.9999994 Z" />
  <path
     id="rect1529"
     style="fill:url(#linearGradient6196);fill-opacity:1;stroke-width:0.499999"
     d="M 21.999999,2 A 1.9999996,1.9999996 0 0 1 24,3.9999994 V 8.499998 c 0,0.277 -0.223,0.5 -0.500001,0.5 h -1.000001 c -0.276999,0 -0.499999,-0.223 -0.499999,-0.5 V 3.9999994 Z" />
  <rect
     style="fill:url(#linearGradient1308);fill-opacity:1;stroke-width:0.666665"
     id="rect1300"
     width="11.999997"
     height="1.9999995"
     x="10"
     y="2" />
  <path
     id="rect1289"
     style="opacity:1;fill:url(#linearGradient1514);fill-opacity:1;stroke:none;stroke-width:2;stroke-linecap:round"
     d="M 14.5 11 A 1.5 1.5 0 0 0 13 12.5 L 13 19 L 11 19 C 10.109364 19.00035 9.6634137 20.077037 10.292969 20.707031 L 15.292969 25.707031 C 15.683498 26.097399 16.316502 26.097399 16.707031 25.707031 L 21.707031 20.707031 C 22.336587 20.077037 21.890636 19.00035 21 19 L 19 19 L 19 12.5 A 1.5 1.5 0 0 0 17.5 11 L 14.5 11 z " />
</svg>
