<?xml version="1.0" encoding="UTF-8" standalone="no"?>
<!-- Created with Inkscape (http://www.inkscape.org/) -->

<svg
   width="32"
   height="32"
   viewBox="0 0 32 32"
   version="1.1"
   id="svg2112"
   inkscape:version="1.2.1 (9c6d41e410, 2022-07-14, custom)"
   sodipodi:docname="system-software-update.svg"
   xmlns:inkscape="http://www.inkscape.org/namespaces/inkscape"
   xmlns:sodipodi="http://sodipodi.sourceforge.net/DTD/sodipodi-0.dtd"
   xmlns:xlink="http://www.w3.org/1999/xlink"
   xmlns="http://www.w3.org/2000/svg"
   xmlns:svg="http://www.w3.org/2000/svg">
  <sodipodi:namedview
     id="namedview2114"
     pagecolor="#ffffff"
     bordercolor="#000000"
     borderopacity="0.25"
     inkscape:showpageshadow="2"
     inkscape:pageopacity="0.0"
     inkscape:pagecheckerboard="0"
     inkscape:deskcolor="#d1d1d1"
     inkscape:document-units="px"
     showgrid="false"
     inkscape:zoom="25.3125"
     inkscape:cx="15.980247"
     inkscape:cy="16"
     inkscape:window-width="1920"
     inkscape:window-height="1012"
     inkscape:window-x="0"
     inkscape:window-y="0"
     inkscape:window-maximized="1"
     inkscape:current-layer="svg2112" />
  <defs
     id="defs2109">
    <linearGradient
       inkscape:collect="always"
       xlink:href="#linearGradient59376"
       id="linearGradient59378"
       x1="45.787689"
       y1="-43.129013"
       x2="45.593357"
       y2="-14.11183"
       gradientUnits="userSpaceOnUse"
       gradientTransform="matrix(0.96004525,0,0,0.962891,-27.958252,43.528542)" />
    <linearGradient
       inkscape:collect="always"
       id="linearGradient59376">
      <stop
         style="stop-color:#189ae1;stop-opacity:1;"
         offset="0"
         id="stop59372" />
      <stop
         style="stop-color:#037cd6;stop-opacity:0.99607843"
         offset="1"
         id="stop59374" />
    </linearGradient>
  </defs>
  <ellipse
     style="fill:url(#linearGradient59378);fill-opacity:1;stroke-width:0.763165;stroke-linecap:round;stroke-linejoin:round"
     id="path55509"
     cx="16"
     cy="15.999999"
     rx="14"
     ry="13.999999" />
  <path
     d="M 16.029297,8.0000498 C 12.646451,7.9887868 9.540184,9.8880685 8,12.877003 V 11.00005 c 0,-0.553998 -0.446001,-1 -1,-1 -0.553999,0 -1,0.446002 -1,1 v 4 c 0,0.553998 0.446001,1 1,1 h 4 c 0.553998,0 1,-0.446002 1,-1 0,-0.553998 -0.446002,-1 -1,-1 H 9.675781 c 1.242835,-2.625584 3.992803,-4.2299424 6.933594,-3.972656 3.160991,0.276551 5.73416,2.632953 6.285156,5.757812 0.0962,0.543528 0.614599,0.906319 1.158203,0.810547 0.543528,-0.0962 0.906319,-0.614599 0.810547,-1.158203 C 24.156775,11.43075 20.838285,8.389809 16.785156,8.035206 16.531836,8.013043 16.280095,8.000885 16.029297,8.0000498 Z M 21,18.00005 c -0.553998,0 -1,0.446002 -1,1 0,0.553998 0.446002,1 1,1 h 1.324219 c -1.149528,2.427291 -3.598727,4 -6.324219,4 -2.94622,0 -5.570458,-1.836928 -6.578125,-4.605469 C 9.232973,18.875857 8.659463,18.608336 8.140625,18.796925 7.621901,18.985827 7.35438,19.559337 7.542969,20.078175 8.835853,23.630345 12.21986,26.00005 16,26.00005 c 3.397188,0 6.472962,-1.914809 8,-4.880859 v 1.880859 c 0,0.553998 0.446002,1 1,1 0.553998,0 1,-0.446002 1,-1 v -4 c 0,-0.553998 -0.446002,-1 -1,-1 z"
     style="color:#000000;fill:#000000;stroke:none;stroke-linecap:round;opacity:0.2"
     id="path1151" />
  <path
     id="path368"
     style="color:#000000;fill:#f9f9f9;stroke:none;stroke-linecap:round"
     d="M 16.029297,7 C 12.646451,6.988737 9.5401839,8.8880191 8,11.876953 V 10 C 8,9.4460016 7.5539988,9 7,9 6.4460012,9 6,9.4460016 6,10 v 4 c 0,0.553998 0.4460012,1 1,1 h 4 c 0.553998,0 1,-0.446002 1,-1 0,-0.553998 -0.446002,-1 -1,-1 H 9.6757812 c 1.2428348,-2.625584 3.9928028,-4.2299422 6.9335938,-3.9726562 3.160991,0.2765508 5.73416,2.6329532 6.285156,5.7578122 0.0962,0.543528 0.614599,0.906319 1.158203,0.810547 0.543528,-0.0962 0.906319,-0.614599 0.810547,-1.158203 C 24.156775,10.4307 20.838285,7.3897592 16.785156,7.0351562 16.531836,7.0129936 16.280095,7.000835 16.029297,7 Z M 21,17 c -0.553998,0 -1,0.446002 -1,1 0,0.553998 0.446002,1 1,1 h 1.324219 C 21.174691,21.427291 18.725492,23 16,23 13.05378,23 10.429542,21.163072 9.421875,18.394531 9.2329729,17.875807 8.6594627,17.608286 8.140625,17.796875 7.621901,17.985777 7.3543795,18.559287 7.5429688,19.078125 8.835853,22.630295 12.21986,25 16,25 c 3.397188,0 6.472962,-1.914809 8,-4.880859 V 22 c 0,0.553998 0.446002,1 1,1 0.553998,0 1,-0.446002 1,-1 v -4 c 0,-0.553998 -0.446002,-1 -1,-1 z"
     sodipodi:nodetypes="scsssssssscscccssssscscccscssssss" />
</svg>
