<?xml version="1.0" encoding="UTF-8" standalone="no"?>
<!-- Created with Inkscape (http://www.inkscape.org/) -->

<svg
   width="32"
   height="32"
   viewBox="0 0 32 32"
   version="1.1"
   id="svg5"
   sodipodi:docname="system-file-manager.svg"
   inkscape:version="1.2.1 (9c6d41e410, 2022-07-14, custom)"
   xmlns:inkscape="http://www.inkscape.org/namespaces/inkscape"
   xmlns:sodipodi="http://sodipodi.sourceforge.net/DTD/sodipodi-0.dtd"
   xmlns:xlink="http://www.w3.org/1999/xlink"
   xmlns="http://www.w3.org/2000/svg"
   xmlns:svg="http://www.w3.org/2000/svg">
  <sodipodi:namedview
     id="namedview7"
     pagecolor="#ffffff"
     bordercolor="#000000"
     borderopacity="0.25"
     inkscape:showpageshadow="2"
     inkscape:pageopacity="0.0"
     inkscape:pagecheckerboard="0"
     inkscape:deskcolor="#d1d1d1"
     inkscape:document-units="px"
     showgrid="false"
     inkscape:zoom="25.25"
     inkscape:cx="16"
     inkscape:cy="16"
     inkscape:window-width="1920"
     inkscape:window-height="1010"
     inkscape:window-x="0"
     inkscape:window-y="0"
     inkscape:window-maximized="1"
     inkscape:current-layer="svg5" />
  <defs
     id="defs2">
    <linearGradient
       inkscape:collect="always"
       xlink:href="#linearGradient3968"
       id="linearGradient2254"
       gradientUnits="userSpaceOnUse"
       gradientTransform="matrix(0.75,0,0,0.75,-2.7500002,-5.500001)"
       x1="6.333334"
       y1="22.000002"
       x2="43.666668"
       y2="22.000002" />
    <linearGradient
       inkscape:collect="always"
       id="linearGradient3968">
      <stop
         style="stop-color:#ffffff;stop-opacity:1;"
         offset="0"
         id="stop3964" />
      <stop
         style="stop-color:#ffffff;stop-opacity:0;"
         offset="1"
         id="stop3966" />
    </linearGradient>
    <linearGradient
       inkscape:collect="always"
       xlink:href="#linearGradient2823"
       id="linearGradient2817"
       x1="13"
       y1="32.333332"
       x2="22"
       y2="44.333332"
       gradientUnits="userSpaceOnUse"
       gradientTransform="matrix(0.75,0,0,0.75,-1.5,-3.25)" />
    <linearGradient
       inkscape:collect="always"
       id="linearGradient2823">
      <stop
         style="stop-color:#1191de;stop-opacity:1;"
         offset="0"
         id="stop2819" />
      <stop
         style="stop-color:#0061b3;stop-opacity:1"
         offset="1"
         id="stop2821" />
    </linearGradient>
    <linearGradient
       inkscape:collect="always"
       id="linearGradient3856">
      <stop
         style="stop-color:#fed761;stop-opacity:1;"
         offset="0"
         id="stop3852" />
      <stop
         style="stop-color:#f5b302;stop-opacity:1"
         offset="1"
         id="stop3854" />
    </linearGradient>
    <linearGradient
       inkscape:collect="always"
       xlink:href="#linearGradient3856"
       id="linearGradient10412"
       x1="24"
       y1="21"
       x2="56"
       y2="55.999996"
       gradientUnits="userSpaceOnUse"
       gradientTransform="scale(0.5)" />
  </defs>
  <path
     id="rect846"
     style="fill:#de9e00;fill-opacity:1;stroke-width:1;stroke-linecap:round;stroke-linejoin:round;stroke-dasharray:12, 1"
     d="M 4,4 C 2.8954316,4 2,4.8954316 2,6 V 17.5 C 2,18.330998 2.6690016,19 3.5,19 h 25 c 0.830999,0 1.498085,-0.669004 1.5,-1.5 V 8 C 30,7.4477153 29.552285,7 29,7 H 15 L 13,5 C 12.317374,4.3318855 11.830998,4 11,4 Z"
     sodipodi:nodetypes="sssssccsccss" />
  <path
     id="rect1170"
     style="fill:url(#linearGradient10412);fill-opacity:1;stroke-width:1.32288;stroke-linecap:round;stroke-linejoin:round;stroke-dasharray:15.8745, 1.32288"
     d="M 15,8 C 14.412897,8 14.156805,8.343195 14,8.5 L 12.000001,11 H 3.9999999 C 2.8919999,11 2,11.892 2,13 v 12.999999 c 0,1.108001 0.8919999,1.999999 2,1.999999 h 24 c 1.108001,0 2,-0.891998 2,-1.999999 V 9 C 30,8.446 29.554,8 28.999999,8 Z"
     sodipodi:nodetypes="sscsssssccss" />
  <path
     id="rect2197"
     style="fill:url(#linearGradient2817);fill-opacity:1;stroke-width:0.75"
     d="m 8,21 c -1.107999,0 -2,0.892001 -2,2 v 5 h 20 v -5 c 0,-1.107999 -0.892001,-2 -2,-2 z"
     sodipodi:nodetypes="ssccsss" />
  <rect
     style="fill:#0f4a8a;fill-opacity:1;stroke-width:0.591605"
     id="rect2195"
     width="14"
     height="1"
     x="9"
     y="24"
     ry="0.5" />
  <path
     id="path2230"
     style="opacity:0.3;fill:url(#linearGradient2254);fill-opacity:1;stroke-width:1.98432;stroke-linecap:round;stroke-linejoin:round;stroke-dasharray:23.8118, 1.98432"
     d="M 15,8 C 14.412897,8 14.156805,8.343195 14,8.5 L 12,11 H 3.9999999 c -1.1079977,0 -2,0.892002 -2,2 v 1 c 0,-1.107998 0.8920022,-2 2,-2 H 12 L 14,9.5 C 14.13853,9.3268378 14.412897,9 15,9 h 14 c 0.554,0 1,0.446001 1,1 V 9 C 30,8.446001 29.554001,8 29,8 Z"
     sodipodi:nodetypes="sccsscscssscsss" />
</svg>
