<?xml version="1.0" encoding="UTF-8" standalone="no"?>
<!-- Created with Inkscape (http://www.inkscape.org/) -->

<svg
   width="32"
   height="32"
   viewBox="0 0 32 32"
   version="1.1"
   id="svg5"
   inkscape:version="1.2.2 (1:1.2.2+202305151914+b0a8486541)"
   sodipodi:docname="system-run.svg"
   xmlns:inkscape="http://www.inkscape.org/namespaces/inkscape"
   xmlns:sodipodi="http://sodipodi.sourceforge.net/DTD/sodipodi-0.dtd"
   xmlns:xlink="http://www.w3.org/1999/xlink"
   xmlns="http://www.w3.org/2000/svg"
   xmlns:svg="http://www.w3.org/2000/svg">
  <sodipodi:namedview
     id="namedview7"
     pagecolor="#ffffff"
     bordercolor="#666666"
     borderopacity="1.0"
     inkscape:pageshadow="2"
     inkscape:pageopacity="0.0"
     inkscape:pagecheckerboard="0"
     inkscape:document-units="px"
     showgrid="false"
     units="px"
     height="64px"
     inkscape:zoom="25.3125"
     inkscape:cx="14.4"
     inkscape:cy="16"
     inkscape:window-width="1920"
     inkscape:window-height="1008"
     inkscape:window-x="0"
     inkscape:window-y="0"
     inkscape:window-maximized="1"
     inkscape:current-layer="svg5"
     inkscape:showpageshadow="2"
     inkscape:deskcolor="#d1d1d1" />
  <defs
     id="defs2">
    <linearGradient
       inkscape:collect="always"
       xlink:href="#linearGradient1738"
       id="linearGradient7562"
       x1="5.1154499"
       y1="4.9610038"
       x2="5.1425061"
       y2="7.2102246"
       gradientUnits="userSpaceOnUse"
       gradientTransform="matrix(3.4882684,0,0,3.4882684,0.54222946,-0.30530509)" />
    <linearGradient
       inkscape:collect="always"
       id="linearGradient1738">
      <stop
         style="stop-color:#696f75;stop-opacity:1;"
         offset="0"
         id="stop1734" />
      <stop
         style="stop-color:#4d4e50;stop-opacity:1"
         offset="1"
         id="stop1736" />
    </linearGradient>
    <linearGradient
       inkscape:collect="always"
       xlink:href="#linearGradient1798"
       id="linearGradient7728"
       x1="3.2308109"
       y1="2.3813164"
       x2="3.1946909"
       y2="5.3985844"
       gradientUnits="userSpaceOnUse"
       gradientTransform="matrix(3.2402491,0,0,3.2402491,1.7863866,1.2841561)" />
    <linearGradient
       inkscape:collect="always"
       id="linearGradient1798">
      <stop
         style="stop-color:#aeb7bc;stop-opacity:1;"
         offset="0"
         id="stop1794" />
      <stop
         style="stop-color:#959ea5;stop-opacity:1"
         offset="1"
         id="stop1796" />
    </linearGradient>
  </defs>
  <rect
     style="fill:#797774;stroke-linecap:round;fill-opacity:1"
     id="rect1086"
     width="30"
     height="24"
     x="1"
     y="4"
     ry="2.0000002" />
  <path
     id="rect1043"
     style="fill:#fafafa;fill-opacity:1;stroke-width:3;stroke-linecap:round;stroke-linejoin:round"
     d="M 2.9999998,7 H 29 c 0.554,0 1,0.4460001 1,0.9999999 V 26 c 0,0.554 -0.446,0.999999 -1,0.999999 H 2.9999998 C 2.4459999,26.999999 1.9999999,26.554 1.9999999,26 V 7.9999999 C 1.9999999,7.4460001 2.4459999,7 2.9999998,7 Z"
     sodipodi:nodetypes="sssssssss" />
  <path
     id="rect1066"
     style="fill:#c4c4c4;fill-opacity:1;stroke-width:1.5;stroke-linecap:round;stroke-linejoin:round"
     d="m 24.000001,4.9999999 v 0.9999999 h 1 V 4.9999999 Z m 2,0 v 0.9999999 h 1 V 4.9999999 Z m 2,0 V 5.9999998 H 29 V 4.9999999 Z" />
  <path
     id="path6320"
     style="color:#000000;fill:url(#linearGradient7562);fill-opacity:1;stroke:none;stroke-width:2.32519;stroke-linecap:round;stroke-linejoin:round"
     d="m 18.386547,17.000004 c -0.283784,-9.5e-4 -0.531577,0.191285 -0.599609,0.466797 l -0.197266,1.09375 -1.041016,-0.373047 c -0.270988,-0.07836 -0.561126,0.0375 -0.703125,0.28125 l -0.615234,1.064453 c -0.142747,0.24527 -0.101071,0.557231 0.103515,0.753906 l 0.84375,0.712891 -0.84375,0.71875 c -0.203357,0.1955 -0.24751,0.505152 -0.107421,0.75 l 0.617187,1.064453 c 0.142007,0.243746 0.430183,0.359619 0.701172,0.28125 l 1.046875,-0.373047 0.199219,1.089844 c 0.06762,0.273867 0.313614,0.467648 0.595703,0.46875 h 1.228515 c 0.282091,-0.0011 0.528076,-0.194884 0.595704,-0.46875 l 0.199218,-1.087891 1.044922,0.371094 c 0.270989,0.07836 0.561124,-0.0375 0.703125,-0.28125 l 0.615235,-1.064453 c 0.140087,-0.244848 0.09594,-0.5545 -0.107422,-0.75 l -0.84375,-0.71875 0.84375,-0.712891 c 0.204583,-0.196675 0.248222,-0.508636 0.105468,-0.753906 l -0.615234,-1.064453 c -0.142008,-0.243746 -0.432136,-0.359618 -0.703125,-0.28125 l -1.042969,0.373047 -0.199218,-1.09375 c -0.06763,-0.273867 -0.313613,-0.465695 -0.595704,-0.466797 z m 0.613281,3 c 0.552284,0 1,0.447717 1,1 0,0.552283 -0.447716,1 -1,1 -0.552284,0 -1,-0.447716 -1,-1 0,-0.552283 0.447717,-1 1,-1 z" />
  <path
     id="path7172"
     style="color:#000000;fill:url(#linearGradient7728);fill-opacity:1;stroke-width:2.69911;stroke-linecap:round;stroke-linejoin:round"
     d="m 12.254889,9.0002078 c -0.336916,0.01471 -0.620862,0.265638 -0.674805,0.601562 L 11.329108,11.109583 9.8994215,10.574427 c -0.326281,-0.124453 -0.69478,0.0052 -0.8710929,0.30664 l -0.714844,1.237304 c -0.176123,0.303849 -0.105471,0.690507 0.166992,0.91211 l 1.1787099,0.969726 -1.1835929,0.976562 c -0.267955,0.221286 -0.33648,0.601591 -0.164062,0.903321 l 0.713867,1.23828 c 0.1738639,0.30319 0.5406799,0.43461 0.8681629,0.3125 l 1.4335935,-0.537109 0.252929,1.511719 c 0.05799,0.344664 0.357525,0.595752 0.707032,0.594726 h 1.427734 c 0.347514,-0.0015 0.644487,-0.252027 0.702148,-0.594726 l 0.25293,-1.511719 1.43457,0.537109 c 0.327484,0.122109 0.695273,-0.0093 0.86914,-0.3125 l 0.714844,-1.23828 c 0.172417,-0.30173 0.101936,-0.682035 -0.166016,-0.903321 l -1.18164,-0.976562 1.17871,-0.969726 c 0.272465,-0.221603 0.343115,-0.608262 0.166993,-0.91211 l -0.714844,-1.237304 c -0.176314,-0.301434 -0.543837,-0.431095 -0.870117,-0.30664 l -1.433594,0.535156 -0.250976,-1.5078132 c -0.05536,-0.344794 -0.352943,-0.599585 -0.702148,-0.601562 h -1.427734 c -0.01098,-1.8e-5 -0.02133,-4.584e-4 -0.03222,0 z m 0.746094,2.9999992 c 1.104567,0 1.999999,0.895432 1.999999,2 0,1.104568 -0.895432,2 -1.999999,2 -1.104569,0 -2,-0.895431 -2,-2 0,-1.104568 0.895431,-2 2,-2 z"
     sodipodi:nodetypes="sccccccccccccccccccccccccccccccsssssss" />
</svg>
