<?xml version="1.0" encoding="UTF-8" standalone="no"?>
<!-- Created with Inkscape (http://www.inkscape.org/) -->

<svg
   width="32"
   height="32"
   viewBox="0 0 32 32"
   version="1.1"
   id="svg5"
   inkscape:version="1.2.1 (9c6d41e410, 2022-07-14, custom)"
   sodipodi:docname="visual-studio-code.svg"
   xmlns:inkscape="http://www.inkscape.org/namespaces/inkscape"
   xmlns:sodipodi="http://sodipodi.sourceforge.net/DTD/sodipodi-0.dtd"
   xmlns:xlink="http://www.w3.org/1999/xlink"
   xmlns="http://www.w3.org/2000/svg"
   xmlns:svg="http://www.w3.org/2000/svg">
  <sodipodi:namedview
     id="namedview7"
     pagecolor="#ffffff"
     bordercolor="#000000"
     borderopacity="0.25"
     inkscape:showpageshadow="2"
     inkscape:pageopacity="0.0"
     inkscape:pagecheckerboard="0"
     inkscape:deskcolor="#d1d1d1"
     inkscape:document-units="px"
     showgrid="false"
     inkscape:zoom="25.28125"
     inkscape:cx="15.980222"
     inkscape:cy="16"
     inkscape:window-width="1920"
     inkscape:window-height="1012"
     inkscape:window-x="0"
     inkscape:window-y="0"
     inkscape:window-maximized="1"
     inkscape:current-layer="svg5" />
  <defs
     id="defs2">
    <linearGradient
       inkscape:collect="always"
       xlink:href="#linearGradient2463"
       id="linearGradient2465"
       x1="25.999876"
       y1="6.0003786"
       x2="26"
       y2="25.999962"
       gradientUnits="userSpaceOnUse"
       gradientTransform="matrix(1.3999544,0,0,1.4000024,-6.3988621,-6.4000137)" />
    <linearGradient
       inkscape:collect="always"
       id="linearGradient2463">
      <stop
         style="stop-color:#ffffff;stop-opacity:1;"
         offset="0"
         id="stop2459" />
      <stop
         style="stop-color:#ffffff;stop-opacity:0;"
         offset="1"
         id="stop2461" />
    </linearGradient>
  </defs>
  <path
     d="M 29.009615,4.9663296 23.244125,2.1741439 C 22.576826,1.8509476 21.779216,1.9872932 21.255447,2.5140763 L 2.3812548,19.613432 c -0.507669,0.465593 -0.507081,1.269504 0.0014,1.734334 l 1.5417111,1.409673 c 0.4155767,0.380079 1.041462,0.408018 1.4889309,0.06663 L 28.142062,5.6906711 c 0.762497,-0.5818333 1.85773,-0.034777 1.85773,0.9278917 V 6.55122 c 0,-0.6757597 -0.384885,-1.2917737 -0.990177,-1.584919 z"
     style="fill:#0072b0;stroke-width:1.39999"
     id="path3815" />
  <path
     d="m 29.009615,27.034265 -5.76549,2.7922 c -0.667299,0.323073 -1.464909,0.186789 -1.988678,-0.339932 L 2.3812548,11.757071 c -0.507669,-0.46557 -0.507081,-1.269499 0.0014,-1.734321 L 3.9243099,8.6130221 C 4.3399146,8.2330034 4.9657999,8.2050276 5.4132688,8.5464356 L 28.14209,26.309842 c 0.762497,0.581815 1.857733,0.0348 1.857733,-0.927904 v 0.06742 c 0,0.675705 -0.384888,1.291712 -0.99018,1.58493 z"
     style="fill:#008eda;stroke-width:1.39999"
     id="path3843" />
  <path
     d="m 23.244517,29.826634 c -0.667523,0.322886 -1.465105,0.186487 -1.988902,-0.340381 0.645317,0.649089 1.748856,0.189311 1.748856,-0.728693 V 3.2424301 c 0,-0.9180162 -1.103539,-1.3777674 -1.748856,-0.728631 0.523769,-0.5268419 1.321379,-0.6633695 1.988902,-0.3404561 l 5.76451,2.7883495 c 0.605751,0.2929913 0.99094,0.9092322 0.99094,1.5852831 V 25.453144 c 0,0.676038 -0.385202,1.29226 -0.99094,1.585254 z"
     style="fill:#1eacf8;stroke-width:1.39999"
     id="path3871" />
  <path
     d="m 22.45928,2.000854 c -0.176957,0.00308 -0.351425,0.034133 -0.519512,0.090247 -0.168,0.056085 -0.32928,0.1363082 -0.475747,0.2433572 -0.02884,0.021001 -0.05432,0.048049 -0.08204,0.071095 -0.04256,0.035365 -0.08624,0.069499 -0.12572,0.1093722 L 10.343715,12.399706 5.4138008,8.5469649 C 4.9663599,8.2055428 4.3392146,8.232575 3.9236379,8.6125713 L 2.3814788,10.023509 c -0.508397,0.464822 -0.507669,1.268029 0,1.733596 l 4.2572965,4.000399 -4.2572965,3.855473 c -0.507669,0.465593 -0.508397,1.271501 0,1.736332 l 1.5421591,1.408206 c 0.4155767,0.380076 1.042722,0.409748 1.4901629,0.06833 l 4.8561052,-3.661334 10.986353,10.322283 c 0.13104,0.131684 0.278601,0.23812 0.437473,0.319921 0.476591,0.245514 1.049723,0.261306 1.550365,0.01912 l 5.763866,-2.786334 c 0.15316,-0.07412 0.29053,-0.170402 0.412888,-0.281639 0.0602,-0.05432 0.115024,-0.110544 0.166757,-0.172258 v -0.0028 c 0.05165,-0.06173 0.102256,-0.126014 0.144918,-0.19414 v -0.0028 c 0.08632,-0.138516 0.15148,-0.287188 0.196863,-0.445702 0.0224,-0.07699 0.04026,-0.154932 0.05194,-0.235153 1.75e-4,-0.0017 -1.75e-4,-0.0036 0,-0.0055 0.01134,-0.08119 0.01912,-0.162563 0.01912,-0.246101 v -0.0028 -0.06833 V 6.618964 6.550613 c 0,-9.102e-4 3e-6,-0.00182 0,-0.00273 0,-0.082687 -0.0078,-0.1656819 -0.01912,-0.2461007 -1.75e-4,-0.00175 1.75e-4,-0.00364 0,-0.00532 -0.01134,-0.080137 -0.02988,-0.157868 -0.05194,-0.2349551 C 29.839243,5.7466104 29.662504,5.4637579 29.420836,5.2440367 29.298476,5.1327887 29.161274,5.0365221 29.007945,4.9623943 L 23.244097,2.1733122 c -0.08344,-0.040349 -0.167441,-0.072299 -0.254242,-0.098451 -0.17332,-0.052277 -0.353388,-0.076807 -0.530463,-0.073811 z m 0.544127,7.5632927 V 22.295418 l -8.290341,-6.480482 z"
     style="opacity:0.25;fill:url(#linearGradient2465);fill-opacity:1;stroke-width:1.39999"
     id="path1332" />
</svg>
