<?xml version="1.0" encoding="UTF-8" standalone="no"?>
<!-- Created with Inkscape (http://www.inkscape.org/) -->

<svg
   width="32"
   height="32"
   viewBox="0 0 32 32"
   version="1.1"
   id="svg931"
   inkscape:version="1.2.2 (1:1.2.2+202305151914+b0a8486541)"
   sodipodi:docname="waydroid.svg"
   xmlns:inkscape="http://www.inkscape.org/namespaces/inkscape"
   xmlns:sodipodi="http://sodipodi.sourceforge.net/DTD/sodipodi-0.dtd"
   xmlns:xlink="http://www.w3.org/1999/xlink"
   xmlns="http://www.w3.org/2000/svg"
   xmlns:svg="http://www.w3.org/2000/svg">
  <sodipodi:namedview
     id="namedview933"
     pagecolor="#ffffff"
     bordercolor="#666666"
     borderopacity="1.0"
     inkscape:pageshadow="2"
     inkscape:pageopacity="0.0"
     inkscape:pagecheckerboard="0"
     inkscape:document-units="px"
     showgrid="false"
     units="px"
     inkscape:zoom="25.1875"
     inkscape:cx="15.980149"
     inkscape:cy="16"
     inkscape:window-width="1920"
     inkscape:window-height="1008"
     inkscape:window-x="0"
     inkscape:window-y="0"
     inkscape:window-maximized="1"
     inkscape:current-layer="svg931"
     inkscape:showpageshadow="2"
     inkscape:deskcolor="#d1d1d1" />
  <defs
     id="defs928">
    <linearGradient
       inkscape:collect="always"
       id="linearGradient1729">
      <stop
         style="stop-color:#84cd5a;stop-opacity:1;"
         offset="0"
         id="stop1725" />
      <stop
         style="stop-color:#56b512;stop-opacity:1;"
         offset="1"
         id="stop1727" />
    </linearGradient>
    <linearGradient
       inkscape:collect="always"
       xlink:href="#linearGradient1729"
       id="linearGradient4727"
       x1="72.154198"
       y1="110.2231"
       x2="96.828377"
       y2="134.37447"
       gradientUnits="userSpaceOnUse"
       gradientTransform="matrix(0.80241732,0,0,0.81978731,-51.797272,-83.258991)" />
    <linearGradient
       inkscape:collect="always"
       id="linearGradient1498">
      <stop
         style="stop-color:#f09300;stop-opacity:1;"
         offset="0"
         id="stop1494" />
      <stop
         style="stop-color:#ffc420;stop-opacity:1;"
         offset="1"
         id="stop1496" />
    </linearGradient>
    <linearGradient
       inkscape:collect="always"
       xlink:href="#linearGradient1498"
       id="linearGradient2065"
       x1="12.937499"
       y1="13.937499"
       x2="3.0624998"
       y2="4.0624995"
       gradientUnits="userSpaceOnUse"
       gradientTransform="matrix(2.0000001,0,0,2.0000001,-2e-8,-0.99999971)" />
    <linearGradient
       inkscape:collect="always"
       xlink:href="#linearGradient1729"
       id="linearGradient1266"
       x1="6.125"
       y1="7.125"
       x2="25.875"
       y2="26.875"
       gradientUnits="userSpaceOnUse" />
  </defs>
  <path
     d="M 27.39291,2.2894629 C 26.724598,1.8005627 25.786539,1.9456864 25.297207,2.6136816 l -4.105469,5.6054688 c -0.4889,0.6683117 -0.343776,1.6063706 0.324219,2.0957026 0.667802,0.489318 1.605766,0.345083 2.095703,-0.322265 L 27.717129,4.3871192 C 28.207362,3.7184617 28.062142,2.7789106 27.39291,2.2894629 Z M 5.7288476,2.0179785 C 5.3358118,1.9570395 4.9346637,2.0546925 4.6136132,2.2894629 3.944381,2.7789107 3.7991618,3.7184618 4.2893945,4.3871192 L 8.3948633,9.992588 c 0.4900529,0.668585 1.4295087,0.812915 2.0976567,0.322265 0.667348,-0.489936 0.811583,-1.4279004 0.322265,-2.0957026 L 6.7112695,2.6136816 C 6.4758335,2.2925994 6.1224033,2.0782928 5.7288476,2.0179785 Z"
     style="color:#000000;fill:url(#linearGradient1266);stroke-linecap:round;stroke-linejoin:round;-inkscape-stroke:none;fill-opacity:1"
     id="path576"
     sodipodi:nodetypes="ccccccccccccccc" />
  <path
     id="path858"
     style="fill:url(#linearGradient4727);fill-opacity:1;stroke-width:0.858368;stroke-linecap:round;stroke-linejoin:round"
     d="M 16 3 A 14 14 0 0 0 2 17 L 30 17 A 14 14 0 0 0 16 3 z " />
  <path
     d="M 29.771176,14.497328 C 24.586348,15.619518 18.90271,16.263157 16,16.263157 c -3.029012,0 -8.7608064,-0.576586 -13.7682976,-1.663651 C 2.0855654,15.391516 2.0080438,16.194661 2.0000002,17 2.0000004,24.731986 8.2680136,31 16,31 23.731986,31 30,24.731986 30,17 29.9989,16.160603 29.92232,15.323005 29.771176,14.497328 Z"
     style="fill:url(#linearGradient2065);fill-opacity:1;stroke-width:2"
     id="path1330" />
  <path
     d="m 27.868626,14.884456 c -1.572708,0.300245 -3.143974,0.548948 -4.646998,0.755552 l -1.364308,5.237046 -3.907279,-4.688732 c -0.726611,0.04501 -1.400514,0.07484 -1.950041,0.07484 -0.554956,0 -1.224639,-0.02646 -1.939967,-0.06477 l -3.915913,4.590875 -1.3110604,-5.07874 c -1.5720422,-0.19964 -3.2079468,-0.4483 -4.8225744,-0.752674 l 3.8655426,11.361892 c 0.5481376,1.11577 1.2551862,0.909822 2.0119242,0.28495 l 6.172491,-6.378134 5.968135,6.189606 c 0.718526,0.974008 1.718204,1.048498 2.21916,-0.700864 z"
     style="fill:#f2f2f2;stroke-width:2"
     id="path1358" />
  <path
     id="path2216"
     style="fill:#f9f9f9;stroke-width:2;stroke-linecap:round;stroke-linejoin:round"
     d="m 10,9 a 2.0000001,2.0000001 0 0 0 -2,2 2.0000001,2.0000001 0 0 0 2,2 2.0000001,2.0000001 0 0 0 2,-2 2.0000001,2.0000001 0 0 0 -2,-2 z M 22.000001,9 A 2.0000001,2.0000001 0 0 0 20,11 2.0000001,2.0000001 0 0 0 22.000001,13 2.0000001,2.0000001 0 0 0 24,11 2.0000001,2.0000001 0 0 0 22.000001,9 Z" />
</svg>
