<?xml version="1.0" encoding="UTF-8" standalone="no"?>
<!-- Created with Inkscape (http://www.inkscape.org/) -->

<svg
   width="32"
   height="32"
   viewBox="0 0 32 32"
   version="1.1"
   id="svg5"
   inkscape:version="1.3.2 (091e20ef0f, 2023-11-25, custom)"
   sodipodi:docname="wayland.svg"
   xmlns:inkscape="http://www.inkscape.org/namespaces/inkscape"
   xmlns:sodipodi="http://sodipodi.sourceforge.net/DTD/sodipodi-0.dtd"
   xmlns:xlink="http://www.w3.org/1999/xlink"
   xmlns="http://www.w3.org/2000/svg"
   xmlns:svg="http://www.w3.org/2000/svg">
  <sodipodi:namedview
     id="namedview7"
     pagecolor="#ffffff"
     bordercolor="#666666"
     borderopacity="1.0"
     inkscape:pageshadow="2"
     inkscape:pageopacity="0.0"
     inkscape:pagecheckerboard="0"
     inkscape:document-units="px"
     showgrid="false"
     units="px"
     inkscape:zoom="25.25"
     inkscape:cx="16"
     inkscape:cy="16"
     inkscape:window-width="1920"
     inkscape:window-height="1012"
     inkscape:window-x="0"
     inkscape:window-y="0"
     inkscape:window-maximized="1"
     inkscape:current-layer="svg5"
     inkscape:showpageshadow="2"
     inkscape:deskcolor="#d1d1d1" />
  <defs
     id="defs2">
    <linearGradient
       inkscape:collect="always"
       xlink:href="#linearGradient1777"
       id="linearGradient2"
       x1="2.2857144"
       y1="2.3680553"
       x2="14.564292"
       y2="12.572753"
       gradientUnits="userSpaceOnUse"
       gradientTransform="matrix(1.75,0,0,1.75,2,2)" />
    <linearGradient
       inkscape:collect="always"
       id="linearGradient1777">
      <stop
         style="stop-color:#fedd00;stop-opacity:1;"
         offset="0"
         id="stop1773" />
      <stop
         style="stop-color:#fdcb00;stop-opacity:1"
         offset="0.63547182"
         id="stop1818" />
      <stop
         style="stop-color:#fab500;stop-opacity:1"
         offset="1"
         id="stop1775" />
    </linearGradient>
    <linearGradient
       inkscape:collect="always"
       id="linearGradient3161">
      <stop
         style="stop-color:#e6eaec;stop-opacity:1;"
         offset="0"
         id="stop3157" />
      <stop
         style="stop-color:#f6f6f6;stop-opacity:1;"
         offset="1"
         id="stop3159" />
    </linearGradient>
    <linearGradient
       inkscape:collect="always"
       xlink:href="#linearGradient3161"
       id="linearGradient3"
       x1="27"
       y1="27"
       x2="16"
       y2="2"
       gradientUnits="userSpaceOnUse" />
  </defs>
  <circle
     style="fill:url(#linearGradient2);stroke-width:1.75"
     id="path1"
     cx="16"
     cy="16"
     r="14" />
  <path
     style="fill:url(#linearGradient3)"
     d="m 26.173598,2 c 0.49292,2.86e-5 0.76839,0.3882517 0.826402,1.164684 l -0.622607,3.656552 h 0.152233 l 0.326208,-0.270858 h 0.08699 v 0.08126 c -0.449471,0.343109 -0.884421,1.28207 -1.304849,2.816898 -0.1595,1.318184 -0.427722,2.537033 -0.80466,3.656559 -0.333476,1.155663 -0.50021,2.221025 -0.500189,3.1961 l -0.630679,1.923074 c -1.4e-5,0.162522 0.239206,0.325038 0.717666,0.487538 -0.087,0.379209 -0.217491,0.568809 -0.391452,0.568802 v 0.108343 h 0.152233 v 0.08125 c -2.1e-5,0.198638 -0.246488,0.297953 -0.739415,0.297945 l 0.08699,0.108343 v 0.379195 h -0.152232 c 0.101474,0.379209 0.318945,0.568803 0.652427,0.568803 v 0.189593 h -0.652427 v 0.108344 c 0.217457,7e-6 0.326199,0.162522 0.326213,0.487545 l -0.913389,0.379195 0.08698,0.108343 v 0.08126 c -1.3e-5,0.126401 -0.108756,0.1896 -0.326213,0.1896 v 0.108336 c 0.275449,7e-6 0.413187,0.06319 0.413201,0.189602 -0.391466,0.162514 -0.906156,0.966054 -1.544068,2.410618 C 20.766525,26.358975 20.201091,27 19.722665,27 h -0.173981 c -0.362471,-0.288916 -0.659689,-1.245941 -0.891648,-2.871077 -0.927905,-2.473812 -1.391849,-3.927404 -1.391836,-4.360777 -1.3e-5,-1.119527 -0.297232,-2.1115 -0.891648,-3.375499 -0.159494,-0.559759 -0.268229,-1.538598 -0.326214,-2.387294 h -0.391452 c -0.985897,1.859886 -1.500586,3.279959 -1.544076,4.327257 -0.27547,0.613947 -0.492948,1.354285 -0.652421,2.221018 0.594422,0.198637 0.891641,0.38823 0.891648,0.568795 v 0.108344 c -0.463959,-0.07222 -0.790166,-0.207652 -0.978641,-0.406281 -0.202978,0.487545 -0.4712,1.541834 -0.804655,3.762843 C 12.306766,25.616583 11.980552,26 11.589106,26 10.487228,25.548576 9.566584,24.939446 8.827176,23.910191 8.711186,23.910199 8.522704,23.395568 8.261742,22.366313 8.102256,22.36632 7.99352,21.851689 7.935528,20.822434 7.384589,19.35982 7.007638,17.989531 6.80466,16.111593 V 13.294687 H 6.71767 l -0.391452,0.108344 v -0.108344 c 0,-0.126378 0.130484,-0.18958 0.391452,-0.189594 L 6.63068,11.479957 V 10.206931 L 6,6.144097 V 4.610568 C 6.27547,3.52717 6.753916,2.9854606 7.435333,2.985432 L 7.696315,3.256291 7.435347,3.175031 c 1.058375,1.444585 1.681806,2.463483 1.870282,3.456602 h 0.739415 V 6.821234 H 9.479611 V 7.037921 C 9.697082,7.86856 9.856562,8.283877 9.958058,8.283856 h 0.173981 l 0.391452,-0.108344 0.08699,0.108344 0.08699,-0.108344 0.08699,0.108344 v 0.08126 c -0.289973,0.216701 -0.485695,0.514645 -0.587184,0.893825 h -0.06523 v 0.189594 h 0.152233 c 0.20297,3.015549 0.579928,5.700141 1.130868,7.25304 L 11.741361,17 h 0.173974 c 0.217473,1.5e-5 0.674171,-1.184143 1.370095,-3.29683 0.449444,-0.957004 0.775652,-1.657759 0.978635,-2.380056 L 14.177075,11.02517 C 14.626512,10.320959 15.090457,10.000022 15.56891,10 h 0.152234 c 0.304459,2.2e-5 0.52193,0.167474 0.652428,0.564718 0.405939,0.595896 0.732154,1.350823 0.978634,2.54257 l 1.217862,2.51676 c 0.159467,0.198643 0.239206,0.424352 0.23922,0.677145 0.449437,1.06537 0.855384,2.355726 1.217862,2.698807 h 0.260968 c 0.304452,7e-6 0.710399,-1.904289 1.217855,-4.540629 0.08698,1.4e-5 0.3262,-0.70421 0.717666,-2.112674 v -0.108343 l -0.413747,-0.189601 -0.326214,0.108343 H 21.070477 V 11.94041 l 0.826402,-0.08126 h 0.652974 C 23.173268,9.529813 23.745949,7.724105 24.267906,6.442035 24.441868,3.80573 24.681094,2.4875665 24.985573,2.487545 L 26.173621,2"
     id="path4" />
</svg>
