<?xml version="1.0" encoding="UTF-8" standalone="no"?>
<!-- Created with Inkscape (http://www.inkscape.org/) -->

<svg
   width="32"
   height="32"
   viewBox="0 0 32 32"
   version="1.1"
   id="svg1"
   inkscape:version="1.3.2 (091e20ef0f, 2023-11-25, custom)"
   sodipodi:docname="wine.svg"
   xmlns:inkscape="http://www.inkscape.org/namespaces/inkscape"
   xmlns:sodipodi="http://sodipodi.sourceforge.net/DTD/sodipodi-0.dtd"
   xmlns:xlink="http://www.w3.org/1999/xlink"
   xmlns="http://www.w3.org/2000/svg"
   xmlns:svg="http://www.w3.org/2000/svg">
  <sodipodi:namedview
     id="namedview1"
     pagecolor="#ffffff"
     bordercolor="#000000"
     borderopacity="0.25"
     inkscape:showpageshadow="2"
     inkscape:pageopacity="0.0"
     inkscape:pagecheckerboard="0"
     inkscape:deskcolor="#d1d1d1"
     inkscape:document-units="px"
     inkscape:zoom="24.84375"
     inkscape:cx="15.979874"
     inkscape:cy="16"
     inkscape:window-width="1920"
     inkscape:window-height="1008"
     inkscape:window-x="0"
     inkscape:window-y="0"
     inkscape:window-maximized="1"
     inkscape:current-layer="svg1" />
  <defs
     id="defs1">
    <linearGradient
       inkscape:collect="always"
       id="linearGradient6">
      <stop
         style="stop-color:#bdc3c8;stop-opacity:1;"
         offset="0"
         id="stop5" />
      <stop
         style="stop-color:#dbdbdb;stop-opacity:1;"
         offset="1"
         id="stop6" />
    </linearGradient>
    <linearGradient
       id="linearGradient7"
       inkscape:collect="always">
      <stop
         style="stop-color:#e83a3a;stop-opacity:1;"
         offset="0"
         id="stop7" />
      <stop
         style="stop-color:#de5e5e;stop-opacity:1;"
         offset="1"
         id="stop8" />
    </linearGradient>
    <linearGradient
       inkscape:collect="always"
       xlink:href="#linearGradient6"
       id="linearGradient9"
       x1="16.128302"
       y1="29"
       x2="4"
       y2="1"
       gradientUnits="userSpaceOnUse"
       gradientTransform="translate(5,1)" />
    <linearGradient
       inkscape:collect="always"
       xlink:href="#linearGradient7"
       id="linearGradient11"
       x1="14"
       y1="12.75"
       x2="8"
       y2="6.7500005"
       gradientUnits="userSpaceOnUse"
       gradientTransform="matrix(1.6666666,0,0,1.6666666,-2.3333334,-2.25)" />
  </defs>
  <path
     id="path3"
     style="fill:url(#linearGradient9)"
     d="M 10,2 C 9.4460024,2 9,2.4460024 9,3 v 11 c 0,3.52636 2.607861,6.442371 6,6.927734 V 28 h -3 c -0.553998,0 -1,0.446003 -1,1 0,0.553997 0.446002,1 1,1 h 8 c 0.553997,0 1,-0.446003 1,-1 0,-0.553997 -0.446003,-1 -1,-1 H 17 V 20.927734 C 20.392139,20.442371 23,17.52636 23,14 V 3 C 23,2.4460024 22.553996,2 22,2 Z"
     sodipodi:nodetypes="sssccssssssccssss" />
  <path
     id="path4"
     style="fill:url(#linearGradient11);stroke-width:1.66666"
     d="M 11.5,9 C 11.223,9 11,9.2230003 11,9.5 V 14 c 0,2.761418 2.238582,5 5,5 2.761418,0 5,-2.238582 5,-5 V 9.5 C 21,9.2230003 20.777,9 20.5,9 Z" />
</svg>
