<?xml version="1.0" encoding="UTF-8" standalone="no"?>
<!-- Created with Inkscape (http://www.inkscape.org/) -->

<svg
   width="32"
   height="32"
   viewBox="0 0 32 32"
   version="1.1"
   id="svg1"
   inkscape:version="1.3.2 (091e20ef0f, 2023-11-25, custom)"
   sodipodi:docname="winecfg.svg"
   xmlns:inkscape="http://www.inkscape.org/namespaces/inkscape"
   xmlns:sodipodi="http://sodipodi.sourceforge.net/DTD/sodipodi-0.dtd"
   xmlns:xlink="http://www.w3.org/1999/xlink"
   xmlns="http://www.w3.org/2000/svg"
   xmlns:svg="http://www.w3.org/2000/svg">
  <sodipodi:namedview
     id="namedview1"
     pagecolor="#ffffff"
     bordercolor="#000000"
     borderopacity="0.25"
     inkscape:showpageshadow="2"
     inkscape:pageopacity="0.0"
     inkscape:pagecheckerboard="0"
     inkscape:deskcolor="#d1d1d1"
     inkscape:document-units="px"
     inkscape:zoom="24.84375"
     inkscape:cx="15.979874"
     inkscape:cy="16"
     inkscape:window-width="1920"
     inkscape:window-height="1008"
     inkscape:window-x="0"
     inkscape:window-y="0"
     inkscape:window-maximized="1"
     inkscape:current-layer="svg1" />
  <defs
     id="defs1">
    <linearGradient
       inkscape:collect="always"
       id="linearGradient6">
      <stop
         style="stop-color:#bdc3c8;stop-opacity:1;"
         offset="0"
         id="stop5" />
      <stop
         style="stop-color:#dbdbdb;stop-opacity:1;"
         offset="1"
         id="stop6" />
    </linearGradient>
    <linearGradient
       id="linearGradient7"
       inkscape:collect="always">
      <stop
         style="stop-color:#e83a3a;stop-opacity:1;"
         offset="0"
         id="stop7" />
      <stop
         style="stop-color:#de5e5e;stop-opacity:1;"
         offset="1"
         id="stop8" />
    </linearGradient>
    <linearGradient
       inkscape:collect="always"
       xlink:href="#linearGradient6"
       id="linearGradient9"
       x1="16.128302"
       y1="29"
       x2="4"
       y2="1"
       gradientUnits="userSpaceOnUse"
       gradientTransform="translate(5,1)" />
    <linearGradient
       inkscape:collect="always"
       xlink:href="#linearGradient7"
       id="linearGradient11"
       x1="14"
       y1="12.75"
       x2="8"
       y2="6.7500005"
       gradientUnits="userSpaceOnUse"
       gradientTransform="matrix(1.6666666,0,0,1.6666666,-2.3333334,-2.25)" />
    <linearGradient
       inkscape:collect="always"
       xlink:href="#linearGradient6060"
       id="linearGradient6062"
       x1="1.0583334"
       y1="1.0583338"
       x2="15.345835"
       y2="13.229167"
       gradientUnits="userSpaceOnUse"
       gradientTransform="matrix(0.94488187,0,0,0.94488187,14.999995,16.009027)" />
    <linearGradient
       inkscape:collect="always"
       id="linearGradient6060">
      <stop
         style="stop-color:#8a8f97;stop-opacity:1;"
         offset="0"
         id="stop6056" />
      <stop
         style="stop-color:#8a8f97;stop-opacity:1"
         offset="0.14573747"
         id="stop6576" />
      <stop
         style="stop-color:#616e7a;stop-opacity:1"
         offset="0.89999998"
         id="stop6770" />
      <stop
         style="stop-color:#616e7a;stop-opacity:1"
         offset="1"
         id="stop6058" />
    </linearGradient>
    <linearGradient
       inkscape:collect="always"
       xlink:href="#linearGradient7024"
       id="linearGradient7026"
       x1="14.634075"
       y1="13.653037"
       x2="4.0507412"
       y2="3.0697033"
       gradientUnits="userSpaceOnUse"
       gradientTransform="matrix(0.83989503,0,0,0.83989503,15.153353,16.977816)" />
    <linearGradient
       inkscape:collect="always"
       id="linearGradient7024">
      <stop
         style="stop-color:#ffffff;stop-opacity:1;"
         offset="0"
         id="stop7020" />
      <stop
         style="stop-color:#f0f0f0;stop-opacity:1"
         offset="0.25"
         id="stop7732" />
      <stop
         style="stop-color:#cccccc;stop-opacity:1"
         offset="1"
         id="stop7022" />
    </linearGradient>
    <linearGradient
       inkscape:collect="always"
       xlink:href="#linearGradient8250"
       id="linearGradient8252"
       x1="5.458415"
       y1="4.8895097"
       x2="12.337581"
       y2="11.768677"
       gradientUnits="userSpaceOnUse"
       gradientTransform="matrix(0.94488187,0,0,0.94488187,14.342438,15.880474)" />
    <linearGradient
       inkscape:collect="always"
       id="linearGradient8250">
      <stop
         style="stop-color:#0568ba;stop-opacity:1;"
         offset="0"
         id="stop8246" />
      <stop
         style="stop-color:#0568ba;stop-opacity:1"
         offset="0.23999999"
         id="stop9054" />
      <stop
         style="stop-color:#0f4c8a;stop-opacity:1"
         offset="0.80000001"
         id="stop8830" />
      <stop
         style="stop-color:#0f4c8f;stop-opacity:1"
         offset="1"
         id="stop8248" />
    </linearGradient>
  </defs>
  <path
     id="path3"
     style="fill:url(#linearGradient9)"
     d="M 10,2 C 9.4460024,2 9,2.4460024 9,3 v 11 c 0,3.52636 2.607861,6.442371 6,6.927734 V 28 h -3 c -0.553998,0 -1,0.446003 -1,1 0,0.553997 0.446002,1 1,1 h 8 c 0.553997,0 1,-0.446003 1,-1 0,-0.553997 -0.446003,-1 -1,-1 H 17 V 20.927734 C 20.392139,20.442371 23,17.52636 23,14 V 3 C 23,2.4460024 22.553996,2 22,2 Z"
     sodipodi:nodetypes="sssccssssssccssss" />
  <path
     id="path4"
     style="fill:url(#linearGradient11);stroke-width:1.66666"
     d="M 11.5,9 C 11.223,9 11,9.2230003 11,9.5 V 14 c 0,2.761418 2.238582,5 5,5 2.761418,0 5,-2.238582 5,-5 V 9.5 C 21,9.2230003 20.777,9 20.5,9 Z" />
  <path
     id="path5884"
     style="fill:url(#linearGradient6062);fill-opacity:1;stroke-width:0.25"
     d="m 20.513667,16.406 c -1.050583,0.344436 -2.018369,0.902895 -2.842285,1.640137 0.449725,0.900182 0.418186,1.965879 -0.08398,2.83789 -0.504541,0.857939 -1.401737,1.409793 -2.395019,1.473145 -0.121339,0.542439 -0.185815,1.096049 -0.192383,1.651855 0.0075,0.556073 0.07295,1.109849 0.195313,1.652344 0.992123,0.06419 1.888004,0.615728 2.392089,1.472657 0.500388,0.868367 0.534097,1.929255 0.08985,2.827636 0.820368,0.733112 1.783134,1.28913 2.828124,1.633301 0.55609,-0.834162 1.492102,-1.33542 2.49463,-1.335937 1.002954,-8.2e-5 1.939604,0.501041 2.496092,1.335449 1.05035,-0.345636 2.017643,-0.905262 2.840821,-1.643555 -0.444766,-0.893129 -0.416399,-1.948936 0.07568,-2.816894 0.503973,-0.857116 1.399874,-1.408848 2.392093,-1.473145 0.122315,-0.542336 0.187773,-1.095946 0.195303,-1.651856 -0.0066,-0.555806 -0.07104,-1.109416 -0.192383,-1.651855 C 29.814331,22.29382 28.917134,21.741966 28.412593,20.884027 27.917927,20.012406 27.89118,18.951339 28.341303,18.055902 27.514541,17.313646 26.54223,16.751745 25.486323,16.406 24.935789,17.244231 24.002824,17.751938 22.999995,17.759027 21.997166,17.751938 21.0642,17.244231 20.513667,16.406 Z"
     sodipodi:nodetypes="ccccccccccccccccccccc" />
  <circle
     style="fill:url(#linearGradient7026);fill-opacity:1;stroke-width:0.222222"
     id="path6952"
     cx="22.999996"
     cy="24.000483"
     r="4" />
  <circle
     style="fill:url(#linearGradient8252);fill-opacity:1;stroke-width:0.25"
     id="path8010"
     cx="22.999994"
     cy="24.000483"
     r="3" />
</svg>
