<?xml version="1.0" encoding="UTF-8" standalone="no"?>
<!-- Created with Inkscape (http://www.inkscape.org/) -->

<svg
   width="32"
   height="32"
   viewBox="0 0 32 32"
   version="1.1"
   id="svg1"
   inkscape:version="1.4.2 (ebf0e940d0, 2025-05-08)"
   sodipodi:docname="winefile.svg"
   xmlns:inkscape="http://www.inkscape.org/namespaces/inkscape"
   xmlns:sodipodi="http://sodipodi.sourceforge.net/DTD/sodipodi-0.dtd"
   xmlns:xlink="http://www.w3.org/1999/xlink"
   xmlns="http://www.w3.org/2000/svg"
   xmlns:svg="http://www.w3.org/2000/svg">
  <sodipodi:namedview
     id="namedview1"
     pagecolor="#ffffff"
     bordercolor="#000000"
     borderopacity="0.25"
     inkscape:showpageshadow="2"
     inkscape:pageopacity="0.0"
     inkscape:pagecheckerboard="0"
     inkscape:deskcolor="#d1d1d1"
     inkscape:document-units="px"
     inkscape:zoom="24.90625"
     inkscape:cx="16"
     inkscape:cy="16"
     inkscape:window-width="1920"
     inkscape:window-height="1011"
     inkscape:window-x="0"
     inkscape:window-y="0"
     inkscape:window-maximized="1"
     inkscape:current-layer="svg1" />
  <defs
     id="defs1">
    <linearGradient
       inkscape:collect="always"
       id="linearGradient6">
      <stop
         style="stop-color:#bdc3c8;stop-opacity:1;"
         offset="0"
         id="stop5" />
      <stop
         style="stop-color:#dbdbdb;stop-opacity:1;"
         offset="1"
         id="stop6" />
    </linearGradient>
    <linearGradient
       id="linearGradient7"
       inkscape:collect="always">
      <stop
         style="stop-color:#e83a3a;stop-opacity:1;"
         offset="0"
         id="stop7" />
      <stop
         style="stop-color:#de5e5e;stop-opacity:1;"
         offset="1"
         id="stop8" />
    </linearGradient>
    <linearGradient
       inkscape:collect="always"
       xlink:href="#linearGradient6"
       id="linearGradient9"
       x1="16.128302"
       y1="29"
       x2="4"
       y2="1"
       gradientUnits="userSpaceOnUse"
       gradientTransform="translate(5,1)" />
    <linearGradient
       inkscape:collect="always"
       xlink:href="#linearGradient7"
       id="linearGradient11"
       x1="14"
       y1="12.75"
       x2="8"
       y2="6.7500005"
       gradientUnits="userSpaceOnUse"
       gradientTransform="matrix(1.6666666,0,0,1.6666666,-2.3333334,-2.25)" />
    <linearGradient
       inkscape:collect="always"
       xlink:href="#linearGradient4405"
       id="linearGradient4407"
       x1="32"
       y1="10.5"
       x2="32"
       y2="18.5"
       gradientUnits="userSpaceOnUse"
       gradientTransform="matrix(0.25000002,0,0,0.25000002,15.500018,15.750072)" />
    <linearGradient
       inkscape:collect="always"
       id="linearGradient4405">
      <stop
         style="stop-color:#fcbc19;stop-opacity:1;"
         offset="0"
         id="stop4401" />
      <stop
         style="stop-color:#f4b61f;stop-opacity:1"
         offset="1"
         id="stop4403" />
    </linearGradient>
    <linearGradient
       inkscape:collect="always"
       xlink:href="#linearGradient11972"
       id="linearGradient11974"
       x1="5.2916665"
       y1="5.5562496"
       x2="13.758334"
       y2="13.493751"
       gradientUnits="userSpaceOnUse"
       gradientTransform="matrix(0.94488191,0,0,0.94488191,15.500018,18.000072)" />
    <linearGradient
       inkscape:collect="always"
       id="linearGradient11972">
      <stop
         style="stop-color:#fce798;stop-opacity:1"
         offset="0"
         id="stop11968" />
      <stop
         style="stop-color:#ffc937;stop-opacity:1"
         offset="1"
         id="stop11970" />
    </linearGradient>
    <linearGradient
       inkscape:collect="always"
       xlink:href="#linearGradient12673"
       id="linearGradient770"
       gradientUnits="userSpaceOnUse"
       gradientTransform="matrix(0.25000002,0,0,0.25000002,15.500018,16.750072)"
       x1="-2.0000002"
       y1="27"
       x2="61.999996"
       y2="27" />
    <linearGradient
       inkscape:collect="always"
       id="linearGradient12673">
      <stop
         style="stop-color:#ffffff;stop-opacity:1;"
         offset="0"
         id="stop12669" />
      <stop
         style="stop-color:#ffffff;stop-opacity:0;"
         offset="1"
         id="stop12671" />
    </linearGradient>
  </defs>
  <path
     id="path3"
     style="fill:url(#linearGradient9)"
     d="M 10,2 C 9.4460024,2 9,2.4460024 9,3 v 11 c 0,3.52636 2.607861,6.442371 6,6.927734 V 28 h -3 c -0.553998,0 -1,0.446003 -1,1 0,0.553997 0.446002,1 1,1 h 8 c 0.553997,0 1,-0.446003 1,-1 0,-0.553997 -0.446003,-1 -1,-1 H 17 V 20.927734 C 20.392139,20.442371 23,17.52636 23,14 V 3 C 23,2.4460024 22.553996,2 22,2 Z"
     sodipodi:nodetypes="sssccssssssccssss" />
  <path
     id="path4"
     style="fill:url(#linearGradient11);stroke-width:1.66666"
     d="M 11.5,9 C 11.223,9 11,9.2230003 11,9.5 V 14 c 0,2.761418 2.238582,5 5,5 2.761418,0 5,-2.238582 5,-5 V 9.5 C 21,9.2230003 20.777,9 20.5,9 Z" />
  <path
     id="rect846"
     style="fill:url(#linearGradient4407);fill-opacity:1;stroke-width:0.500001;stroke-linecap:round;stroke-linejoin:round;stroke-dasharray:6, 0.500001"
     d="M 16.000017,18 C 15.469932,18.0018 15.033369,18.416966 15.0049,18.946289 15.01995,20.065808 15,27.000144 15,27.000144 h 16 v -6.500072 c 0,-0.277001 -0.223574,-0.517836 -0.5,-0.5 H 22.75 L 21.75,18.5 C 21.408687,18.165942 21.1655,18 20.75,18 Z"
     sodipodi:nodetypes="ccccssccsc" />
  <path
     id="rect1170"
     style="fill:url(#linearGradient11974);fill-opacity:1;stroke-width:0.66144;stroke-linecap:round;stroke-linejoin:round;stroke-dasharray:7.93723, 0.66144"
     d="m 23.000017,21.000072 -1.75,2 h -5.25 c -0.554,0 -1,0.446001 -1,1.000001 v 6.499999 c 0,0.277002 0.223,0.5 0.5,0.5 h 15 c 0.277001,0 0.499999,-0.223 0.499999,-0.5 v -9 c 0,-0.277002 -0.222999,-0.5 -0.499999,-0.5 z"
     sodipodi:nodetypes="ccsccccccsc" />
  <path
     d="m 15.000017,29.500072 v 1 c 0,0.277002 0.223,0.5 0.5,0.5 h 15 c 0.277001,0 0.5,-0.222999 0.5,-0.5 v -1 c 0,0.276998 -0.223,0.5 -0.5,0.5 h -15 c -0.277001,0 -0.5,-0.222999 -0.5,-0.5 z"
     style="fill:#e4a729;fill-opacity:1;stroke-width:0.66144;stroke-linecap:round;stroke-linejoin:round;stroke-dasharray:7.93723, 0.66144"
     id="path781" />
  <path
     d="m 23.000017,21.000072 -1.75,2 h -5.25 c -0.554,0 -1,0.446001 -1,1.000001 V 25 c 0,-0.554 0.446,-1 1,-1 h 5.5 l 1.75,-2 h 7.25 c 0.277002,0 0.5,0.222999 0.5,0.5 v -0.999928 c 0,-0.277002 -0.223001,-0.5 -0.5,-0.5 z"
     style="opacity:0.3;fill:url(#linearGradient770);fill-opacity:1;stroke-width:0.66144;stroke-linecap:round;stroke-linejoin:round;stroke-dasharray:7.93723, 0.66144"
     id="path756"
     sodipodi:nodetypes="ccsscsccscssc" />
</svg>
