<?xml version="1.0" encoding="UTF-8" standalone="no"?>
<!-- Created with Inkscape (http://www.inkscape.org/) -->

<svg
   width="32"
   height="32"
   viewBox="0 0 32 32"
   version="1.1"
   id="svg364"
   inkscape:version="1.2.2 (1:1.2.2+202305151914+b0a8486541)"
   sodipodi:docname="youtube.svg"
   xmlns:inkscape="http://www.inkscape.org/namespaces/inkscape"
   xmlns:sodipodi="http://sodipodi.sourceforge.net/DTD/sodipodi-0.dtd"
   xmlns:xlink="http://www.w3.org/1999/xlink"
   xmlns="http://www.w3.org/2000/svg"
   xmlns:svg="http://www.w3.org/2000/svg">
  <sodipodi:namedview
     id="namedview366"
     pagecolor="#ffffff"
     bordercolor="#000000"
     borderopacity="0.25"
     inkscape:showpageshadow="2"
     inkscape:pageopacity="0.0"
     inkscape:pagecheckerboard="0"
     inkscape:deskcolor="#d1d1d1"
     inkscape:document-units="px"
     showgrid="false"
     inkscape:zoom="25.1875"
     inkscape:cx="15.980149"
     inkscape:cy="16"
     inkscape:window-width="1920"
     inkscape:window-height="1008"
     inkscape:window-x="0"
     inkscape:window-y="0"
     inkscape:window-maximized="1"
     inkscape:current-layer="svg364" />
  <defs
     id="defs361">
    <linearGradient
       inkscape:collect="always"
       id="linearGradient1284">
      <stop
         style="stop-color:#e94f11;stop-opacity:1;"
         offset="0"
         id="stop1280" />
      <stop
         style="stop-color:#c62300;stop-opacity:1;"
         offset="1"
         id="stop1282" />
    </linearGradient>
    <linearGradient
       inkscape:collect="always"
       xlink:href="#linearGradient1284"
       id="linearGradient1297"
       x1="4"
       y1="12.000001"
       x2="60"
       y2="52"
       gradientUnits="userSpaceOnUse"
       gradientTransform="scale(0.50000002)" />
    <linearGradient
       inkscape:collect="always"
       xlink:href="#linearGradient3143"
       id="linearGradient4303"
       x1="8.9958334"
       y1="12.832399"
       x2="5.8208337"
       y2="7.0115657"
       gradientUnits="userSpaceOnUse"
       gradientTransform="matrix(2.0997378,0,0,1.9652906,-1.3333359,-2.9795952)" />
    <linearGradient
       inkscape:collect="always"
       id="linearGradient3143">
      <stop
         style="stop-color:#d2d2d2;stop-opacity:1;"
         offset="0"
         id="stop3139" />
      <stop
         style="stop-color:#ffffff;stop-opacity:1"
         offset="1"
         id="stop3141" />
    </linearGradient>
  </defs>
  <path
     d="M 13.697671,25.982025 C 9.0697118,25.892268 7.1912901,25.813016 6.042646,25.659053 5.200301,25.546141 4.7866291,25.436065 4.3200721,25.200682 3.5494982,24.811925 3.0702642,24.269824 2.7244154,23.395704 2.4082114,22.596535 2.2794604,21.961792 2.1613004,20.6195 2.0279573,19.104715 2.0175344,18.830485 2.0036884,16.470335 c -0.01631,-2.775543 0.01652,-3.685064 0.199185,-5.527319 0.095788,-0.965804 0.235396,-1.607661 0.497721,-2.28831 C 2.9394973,8.034853 3.1576102,7.692763 3.5542792,7.315783 4.0528192,6.841989 4.6003381,6.55397 5.291532,6.401925 6.32322,6.174979 10.986291,6 16.002407,6 c 5.016116,0 9.679187,0.174979 10.710874,0.401925 0.746109,0.164127 1.293705,0.467285 1.827986,1.012001 0.418166,0.426332 0.633542,0.813724 0.889847,1.600596 0.264096,0.810781 0.365379,1.528316 0.515445,3.651661 0.07126,1.008346 0.07125,5.650096 0,6.657946 -0.08338,1.179026 -0.185696,2.228978 -0.253827,2.604671 -0.175154,0.96589 -0.519162,1.87023 -0.907011,2.384407 -0.266097,0.352765 -0.791391,0.773091 -1.230648,0.984729 -0.444787,0.214304 -0.86856,0.320549 -1.551724,0.389055 -2.116947,0.212278 -8.58142,0.367272 -12.30565,0.295034 z"
     style="fill:url(#linearGradient1297);fill-opacity:1;stroke-width:0.5"
     id="path304" />
  <path
     style="color:#000000;fill:url(#linearGradient4303);fill-opacity:1;stroke-width:2.03158;stroke-linecap:round;stroke-linejoin:round;-inkscape-stroke:none"
     d="M 12.455252,9.5848306 C 12.176021,9.7179236 12.000141,9.9863566 12,10.279646 v 11.439499 c 5.56e-4,0.637825 0.774236,1.005496 1.324743,0.629556 l 8.333984,-5.71975 c 0.455031,-0.311657 0.455031,-0.947453 0,-1.259112 L 13.324743,9.6500896 C 13.071179,9.4767926 12.73508,9.4515666 12.455252,9.5848306 Z"
     id="path3173"
     sodipodi:nodetypes="cccccccc" />
</svg>
