<?xml version="1.0" encoding="UTF-8" standalone="no"?>
<!-- Created with Inkscape (http://www.inkscape.org/) -->

<svg
   width="32"
   height="32"
   viewBox="0 0 32 32"
   version="1.1"
   id="svg364"
   inkscape:version="1.2.2 (1:1.2.2+202305151914+b0a8486541)"
   sodipodi:docname="youtube-dl.svg"
   xmlns:inkscape="http://www.inkscape.org/namespaces/inkscape"
   xmlns:sodipodi="http://sodipodi.sourceforge.net/DTD/sodipodi-0.dtd"
   xmlns:xlink="http://www.w3.org/1999/xlink"
   xmlns="http://www.w3.org/2000/svg"
   xmlns:svg="http://www.w3.org/2000/svg">
  <sodipodi:namedview
     id="namedview366"
     pagecolor="#ffffff"
     bordercolor="#000000"
     borderopacity="0.25"
     inkscape:showpageshadow="2"
     inkscape:pageopacity="0.0"
     inkscape:pagecheckerboard="0"
     inkscape:deskcolor="#d1d1d1"
     inkscape:document-units="px"
     showgrid="false"
     inkscape:zoom="25.1875"
     inkscape:cx="15.980149"
     inkscape:cy="16"
     inkscape:window-width="1920"
     inkscape:window-height="1008"
     inkscape:window-x="0"
     inkscape:window-y="0"
     inkscape:window-maximized="1"
     inkscape:current-layer="svg364" />
  <defs
     id="defs361">
    <linearGradient
       inkscape:collect="always"
       id="linearGradient1284">
      <stop
         style="stop-color:#e94f11;stop-opacity:1;"
         offset="0"
         id="stop1280" />
      <stop
         style="stop-color:#c62300;stop-opacity:1;"
         offset="1"
         id="stop1282" />
    </linearGradient>
    <linearGradient
       inkscape:collect="always"
       xlink:href="#linearGradient1284"
       id="linearGradient1297"
       x1="4"
       y1="12.000001"
       x2="60"
       y2="52"
       gradientUnits="userSpaceOnUse"
       gradientTransform="scale(0.50000002)" />
    <linearGradient
       inkscape:collect="always"
       id="linearGradient3143">
      <stop
         style="stop-color:#d2d2d2;stop-opacity:1;"
         offset="0"
         id="stop3139" />
      <stop
         style="stop-color:#ffffff;stop-opacity:1"
         offset="1"
         id="stop3141" />
    </linearGradient>
    <linearGradient
       inkscape:collect="always"
       xlink:href="#linearGradient3143"
       id="linearGradient1514"
       x1="16.115164"
       y1="25.999807"
       x2="16"
       y2="12"
       gradientUnits="userSpaceOnUse"
       gradientTransform="translate(-3.3279116e-7,-2.9999996)" />
  </defs>
  <path
     d="M 13.697671,25.982025 C 9.0697118,25.892268 7.1912901,25.813016 6.042646,25.659053 5.200301,25.546141 4.7866291,25.436065 4.3200721,25.200682 3.5494982,24.811925 3.0702642,24.269824 2.7244154,23.395704 2.4082114,22.596535 2.2794604,21.961792 2.1613004,20.6195 2.0279573,19.104715 2.0175344,18.830485 2.0036884,16.470335 c -0.01631,-2.775543 0.01652,-3.685064 0.199185,-5.527319 0.095788,-0.965804 0.235396,-1.607661 0.497721,-2.28831 C 2.9394973,8.034853 3.1576102,7.692763 3.5542792,7.315783 4.0528192,6.841989 4.6003381,6.55397 5.291532,6.401925 6.32322,6.174979 10.986291,6 16.002407,6 c 5.016116,0 9.679187,0.174979 10.710874,0.401925 0.746109,0.164127 1.293705,0.467285 1.827986,1.012001 0.418166,0.426332 0.633542,0.813724 0.889847,1.600596 0.264096,0.810781 0.365379,1.528316 0.515445,3.651661 0.07126,1.008346 0.07125,5.650096 0,6.657946 -0.08338,1.179026 -0.185696,2.228978 -0.253827,2.604671 -0.175154,0.96589 -0.519162,1.87023 -0.907011,2.384407 -0.266097,0.352765 -0.791391,0.773091 -1.230648,0.984729 -0.444787,0.214304 -0.86856,0.320549 -1.551724,0.389055 -2.116947,0.212278 -8.58142,0.367272 -12.30565,0.295034 z"
     style="fill:url(#linearGradient1297);fill-opacity:1;stroke-width:0.5"
     id="path304" />
  <path
     id="rect1289"
     style="fill:url(#linearGradient1514);fill-opacity:1;stroke:none;stroke-width:2;stroke-linecap:round"
     d="M 14.5,9 C 13.671573,9 13,9.671573 13,10.5 V 16 h -2 c -0.890636,3.5e-4 -1.3365866,1.077037 -0.707031,1.707031 l 5,5 c 0.390529,0.390368 1.023533,0.390368 1.414062,0 l 5,-5 C 22.336587,17.077037 21.890636,16.00035 21,16 H 19 V 10.5 C 19,9.671573 18.328427,9 17.5,9 Z"
     sodipodi:nodetypes="ssccccccccsss" />
</svg>
