<?xml version="1.0" encoding="UTF-8" standalone="no"?>
<svg
   width="16"
   height="16"
   version="1.1"
   id="svg7"
   sodipodi:docname="configure.svg"
   inkscape:version="1.2.2 (1:1.2.2+202305151914+b0a8486541)"
   xmlns:inkscape="http://www.inkscape.org/namespaces/inkscape"
   xmlns:sodipodi="http://sodipodi.sourceforge.net/DTD/sodipodi-0.dtd"
   xmlns="http://www.w3.org/2000/svg"
   xmlns:svg="http://www.w3.org/2000/svg">
  <sodipodi:namedview
     id="namedview9"
     pagecolor="#ffffff"
     bordercolor="#000000"
     borderopacity="0.25"
     inkscape:showpageshadow="2"
     inkscape:pageopacity="0.0"
     inkscape:pagecheckerboard="0"
     inkscape:deskcolor="#d1d1d1"
     showgrid="false"
     inkscape:zoom="51.875"
     inkscape:cx="7.9903614"
     inkscape:cy="8"
     inkscape:window-width="1920"
     inkscape:window-height="1008"
     inkscape:window-x="0"
     inkscape:window-y="0"
     inkscape:window-maximized="1"
     inkscape:current-layer="svg7" />
  <defs
     id="defs3">
    <style
       id="current-color-scheme"
       type="text/css">.ColorScheme-Text { color:#363636; }</style>
  </defs>
  <path
     id="path419"
     style="opacity:1;fill:currentColor;stroke-width:2;stroke-linecap:round;stroke-linejoin:round"
     d="M 7.5097656 0 C 6.9816762 -1.0499989e-05 6.4740621 0.20965475 6.1015625 0.58398438 C 5.7313129 0.955994 5.5235175 1.4617786 5.5234375 1.9863281 C 5.5155375 2.5340976 5.0808126 2.9638738 4.5332031 2.9648438 C 4.3703333 2.9628138 4.2123555 2.9171273 4.0722656 2.8339844 C 4.0696656 2.8326544 4.0670531 2.8313581 4.0644531 2.8300781 C 3.1162041 2.2867187 1.8932557 2.6174741 1.3476562 3.5644531 L 0.83203125 4.4121094 C 0.83003125 4.4153394 0.82817187 4.418595 0.82617188 4.421875 C 0.28121242 5.3676841 0.60719219 6.5898724 1.5507812 7.1386719 L 1.5527344 7.140625 C 1.8605941 7.3183448 2.0488281 7.6445704 2.0488281 8 C 2.0488281 8.3555396 1.8606441 8.6815852 1.5527344 8.859375 C 0.60930532 9.4051345 0.28143242 10.626313 0.82617188 11.570312 L 0.82617188 11.572266 L 1.3144531 12.414062 L 1.3164062 12.416016 C 1.573496 12.878365 2.0047124 13.220635 2.5136719 13.365234 C 3.0235314 13.510204 3.5709036 13.444737 4.0332031 13.185547 C 4.0352031 13.184247 4.0370625 13.182941 4.0390625 13.181641 C 4.2646523 13.049991 4.5328965 13.014481 4.7851562 13.082031 L 4.7871094 13.082031 C 5.0394191 13.149531 5.2531326 13.314346 5.3828125 13.541016 L 5.3867188 13.548828 C 5.4702387 13.689588 5.5158781 13.848119 5.5175781 14.011719 C 5.5201781 15.104218 6.4165867 16 7.5097656 16 L 8.4882812 16 C 9.5793802 16 10.475269 15.106704 10.480469 14.015625 C 10.480474 14.014325 10.480474 14.013019 10.480469 14.011719 C 10.479169 13.748499 10.583381 13.496757 10.769531 13.310547 C 10.954601 13.125477 11.205207 13.023348 11.466797 13.023438 C 11.632277 13.028837 11.795533 13.07445 11.939453 13.15625 C 12.884952 13.699329 14.107851 13.372507 14.65625 12.429688 L 15.166016 11.578125 C 15.167316 11.576125 15.168622 11.574266 15.169922 11.572266 C 15.435892 11.115816 15.509227 10.573089 15.373047 10.0625 C 15.236887 9.5520406 14.903222 9.1149922 14.445312 8.8515625 C 14.217723 8.7206426 14.052065 8.5056929 13.984375 8.2519531 C 13.916715 7.9983234 13.951815 7.7288029 14.083984 7.5019531 C 14.084656 7.5006531 14.085238 7.4993569 14.085938 7.4980469 C 14.171177 7.349247 14.29445 7.2259249 14.443359 7.140625 C 14.444659 7.1399806 14.445966 7.1393319 14.447266 7.1386719 C 15.346425 6.6127024 15.672969 5.4774335 15.224609 4.5527344 C 15.213309 4.5068414 15.195545 4.462784 15.171875 4.421875 L 14.685547 3.578125 C 14.139927 2.6312159 12.917049 2.3004305 11.96875 2.84375 C 11.96675 2.84504 11.964891 2.8463363 11.962891 2.8476562 C 11.737221 2.9806061 11.468503 3.0189749 11.214844 2.953125 C 10.961264 2.8872851 10.743908 2.7221335 10.611328 2.4960938 L 10.611328 2.4941406 C 10.527878 2.3535108 10.482199 2.1948498 10.480469 2.03125 C 10.490576 1.4999522 10.288715 0.98493133 9.9179688 0.60351562 C 9.5426891 0.21748601 9.0266507 -0.00021999978 8.4882812 0 L 7.5097656 0 z M 7.5097656 1 L 8.4882812 1 C 8.756721 0.9998868 9.0139721 1.1082214 9.2011719 1.3007812 C 9.3883517 1.4933111 9.4881987 1.7531046 9.4804688 2.0214844 C 9.4803418 2.0279944 9.4803418 2.0345056 9.4804688 2.0410156 C 9.4840687 2.3792253 9.5779602 2.7107134 9.75 3.0019531 C 10.01667 3.4566327 10.452641 3.787442 10.962891 3.9199219 C 11.47086 4.0517817 12.011844 3.9775744 12.464844 3.7128906 C 12.944973 3.4377909 13.54216 3.5986855 13.818359 4.078125 L 14.287109 4.890625 C 14.292509 4.902569 14.298368 4.9142973 14.304688 4.9257812 C 14.577297 5.4034208 14.418049 5.9976909 13.943359 6.2753906 C 13.64312 6.4482305 13.393613 6.6977172 13.220703 6.9980469 L 13.220703 7 C 12.955553 7.4561595 12.881568 7.9998861 13.017578 8.5097656 C 13.153728 9.0201451 13.487283 9.4552503 13.945312 9.71875 C 14.172872 9.8496799 14.33859 10.066653 14.40625 10.320312 C 14.47355 10.572652 14.43716 10.840306 14.306641 11.066406 C 14.305969 11.067606 14.307317 11.069113 14.306641 11.070312 L 13.794922 11.921875 C 13.793622 11.923875 13.792316 11.925734 13.791016 11.927734 C 13.513226 12.405354 12.91629 12.564922 12.4375 12.289062 L 12.435547 12.287109 C 12.145947 12.12151 11.819728 12.030384 11.486328 12.021484 C 11.483028 12.021452 11.479862 12.021452 11.476562 12.021484 C 10.946743 12.018884 10.4372 12.228896 10.0625 12.603516 C 9.6880304 12.978085 9.4779288 13.485856 9.4804688 14.015625 C 9.4757688 14.566044 9.0393007 15 8.4882812 15 L 7.5097656 15 C 6.9554062 15 6.515625 14.562042 6.515625 14.007812 C 6.515637 14.005813 6.515637 14.003953 6.515625 14.001953 C 6.512125 13.664463 6.4192667 13.333678 6.2480469 13.042969 C 5.9859671 12.586399 5.5535514 12.251334 5.0449219 12.115234 C 4.5381524 11.979545 3.9970683 12.052193 3.5429688 12.314453 C 3.312359 12.443733 3.0413691 12.474634 2.7871094 12.402344 C 2.5328496 12.330104 2.317593 12.160907 2.1894531 11.929688 C 2.1881531 11.926388 2.1868469 11.923222 2.1855469 11.919922 L 1.6933594 11.072266 C 1.4185496 10.596056 1.5767749 10.001862 2.0527344 9.7265625 C 2.6686238 9.3709529 3.0488281 8.7111993 3.0488281 8 C 3.0488281 7.2893407 2.6679438 6.6310903 2.0527344 6.2753906 L 2.0527344 6.2734375 C 1.5762549 5.9952778 1.4177697 5.4002145 1.6933594 4.921875 L 2.2089844 4.0742188 C 2.2109844 4.0709888 2.2128438 4.0677331 2.2148438 4.0644531 C 2.4910535 3.5850436 3.0883099 3.4221859 3.5683594 3.6972656 C 3.8585691 3.8677455 4.188751 3.9613438 4.5253906 3.9648438 C 4.5273906 3.9648551 4.52925 3.9648551 4.53125 3.9648438 C 5.6151489 3.9649763 6.5078375 3.0837289 6.5234375 2 C 6.5234695 1.99674 6.5234695 1.9934944 6.5234375 1.9902344 C 6.5222375 1.7277546 6.6253971 1.4770454 6.8105469 1.2910156 C 6.9956567 1.1050158 7.2473559 1 7.5097656 1 z M 8 5 C 6.3491017 5 5 6.3491017 5 8 C 5 9.6508983 6.3491017 11 8 11 C 9.6508983 11 11 9.6508983 11 8 C 11 6.3491017 9.6508983 5 8 5 z M 8 6 C 9.1104989 6 10 6.8895111 10 8 C 10 9.1104889 9.1104889 10 8 10 C 6.8895111 10 6 9.1104889 6 8 C 6 6.8895111 6.8895111 6 8 6 z "
     class="ColorScheme-Text" />
</svg>
