<?xml version="1.0" encoding="UTF-8" standalone="no"?>
<!-- Created with Inkscape (http://www.inkscape.org/) -->

<svg
   width="16"
   height="16"
   viewBox="0 0 16 16.000001"
   version="1.1"
   id="svg5"
   inkscape:version="1.2.2 (1:1.2.2+202305151914+b0a8486541)"
   sodipodi:docname="document-open-remote.svg"
   xmlns:inkscape="http://www.inkscape.org/namespaces/inkscape"
   xmlns:sodipodi="http://sodipodi.sourceforge.net/DTD/sodipodi-0.dtd"
   xmlns="http://www.w3.org/2000/svg"
   xmlns:svg="http://www.w3.org/2000/svg">
  <sodipodi:namedview
     id="namedview7"
     pagecolor="#ffffff"
     bordercolor="#000000"
     borderopacity="0.25"
     inkscape:showpageshadow="2"
     inkscape:pageopacity="0.0"
     inkscape:pagecheckerboard="0"
     inkscape:deskcolor="#d1d1d1"
     inkscape:document-units="px"
     showgrid="false"
     inkscape:zoom="50.375"
     inkscape:cx="7.9900744"
     inkscape:cy="8"
     inkscape:window-width="1920"
     inkscape:window-height="1008"
     inkscape:window-x="0"
     inkscape:window-y="0"
     inkscape:window-maximized="1"
     inkscape:current-layer="svg5" />
  <defs
     id="defs2">
    <style
       id="current-color-scheme"
       type="text/css">
         .ColorScheme-Text {
         color:#363636;}
      </style>
  </defs>
  <path
     id="path347"
     style="fill:currentColor;stroke-width:1.5;stroke-linecap:round;stroke-linejoin:round;paint-order:stroke fill markers"
     class="ColorScheme-Text"
     d="M 2 0 C 0.89200111 0 0 0.89200111 0 2 L 0 12 C 0 13.107999 0.89200111 14 2 14 L 7 14 L 7 15 L 0.5 15 C 0.22300028 15 0 15.223 0 15.5 C 0 15.777 0.22300028 16 0.5 16 L 15.5 16 C 15.777 16 16 15.777 16 15.5 C 16 15.223 15.777 15 15.5 15 L 8 15 L 8 14 L 14 14 C 15.107999 14 16 13.107999 16 12 L 16 4 C 16 2.8920011 15.107999 2 14 2 L 9 2 L 7 0 L 2 0 z M 2 1 L 6.5859375 1 L 8.0820312 2.5039062 L 6.5859375 4 L 1 4 L 1 2 C 1 1.4460006 1.4460006 1 2 1 z M 9 3 L 14 3 C 14.553999 3 15 3.4460006 15 4 L 15 12 C 15 12.553999 14.553999 13 14 13 L 2 13 C 1.4460006 13 1 12.553999 1 12 L 1 5 L 7 5 L 9 3 z " />
</svg>
