<?xml version="1.0" encoding="UTF-8" standalone="no"?>
<!-- Created with Inkscape (http://www.inkscape.org/) -->

<svg
   width="16"
   height="16"
   viewBox="0 0 16 16.000001"
   version="1.1"
   id="svg5"
   inkscape:version="1.2.2 (1:1.2.2+202305151914+b0a8486541)"
   sodipodi:docname="go-parent-folder.svg"
   xmlns:inkscape="http://www.inkscape.org/namespaces/inkscape"
   xmlns:sodipodi="http://sodipodi.sourceforge.net/DTD/sodipodi-0.dtd"
   xmlns="http://www.w3.org/2000/svg"
   xmlns:svg="http://www.w3.org/2000/svg">
  <sodipodi:namedview
     id="namedview7"
     pagecolor="#ffffff"
     bordercolor="#000000"
     borderopacity="0.25"
     inkscape:showpageshadow="2"
     inkscape:pageopacity="0.0"
     inkscape:pagecheckerboard="0"
     inkscape:deskcolor="#d1d1d1"
     inkscape:document-units="px"
     showgrid="false"
     inkscape:zoom="51.875"
     inkscape:cx="7.9903614"
     inkscape:cy="8"
     inkscape:window-width="1920"
     inkscape:window-height="1008"
     inkscape:window-x="0"
     inkscape:window-y="0"
     inkscape:window-maximized="1"
     inkscape:current-layer="svg5" />
  <defs
     id="defs2">
    <style
       id="current-color-scheme"
       type="text/css">
         .ColorScheme-Text {
         color:#363636;}
      </style>
  </defs>
  <path
     id="path347"
     style="fill:currentColor;stroke-width:1.5;stroke-linecap:round;stroke-linejoin:round;paint-order:stroke fill markers"
     class="ColorScheme-Text"
     d="M 2 1 C 0.89200333 1 0 1.8920033 0 3 L 0 13 C 0 14.107997 0.89200333 15 2 15 L 8.7636719 15 C 8.557444 14.688549 8.3907973 14.352631 8.2675781 14 L 2 14 C 1.4460018 14 1 13.553997 1 13 L 1 6 L 7 6 L 9 4 L 14 4 C 14.553997 4 15 4.4460018 15 5 L 15 8.7578125 C 15.377552 9.0102881 15.714706 9.3184682 16 9.671875 L 16 5 C 16 3.8920033 15.107997 3 14 3 L 9 3 L 7 1 L 2 1 z M 2 2 L 6.5859375 2 L 8.0820312 3.5039062 L 6.5859375 5 L 1 5 L 1 3 C 1 2.4460018 1.4460018 2 2 2 z M 12.5 9 C 10.567012 9 9 10.567011 9 12.5 C 9 14.43299 10.567012 16 12.5 16 C 14.432988 16 16 14.43299 16 12.5 C 16 10.567011 14.432988 9 12.5 9 z M 12.5 10 L 15 12.5 L 14.292969 13.207031 L 13 11.914062 L 13 14.914062 L 12 14.914062 L 12 11.914062 L 10.707031 13.207031 L 10 12.5 L 12.5 10 z " />
</svg>
