<?xml version="1.0" encoding="UTF-8" standalone="no"?>
<svg
   width="16"
   height="16"
   version="1"
   id="svg1"
   sodipodi:docname="audacious-panel.svg"
   inkscape:version="1.4.2 (ebf0e940d0, 2025-05-08)"
   xmlns:inkscape="http://www.inkscape.org/namespaces/inkscape"
   xmlns:sodipodi="http://sodipodi.sourceforge.net/DTD/sodipodi-0.dtd"
   xmlns="http://www.w3.org/2000/svg"
   xmlns:svg="http://www.w3.org/2000/svg">
  <sodipodi:namedview
     id="namedview1"
     pagecolor="#ffffff"
     bordercolor="#000000"
     borderopacity="0.25"
     inkscape:showpageshadow="2"
     inkscape:pageopacity="0.0"
     inkscape:pagecheckerboard="0"
     inkscape:deskcolor="#d1d1d1"
     inkscape:zoom="49.375"
     inkscape:cx="7.9898734"
     inkscape:cy="8"
     inkscape:window-width="1920"
     inkscape:window-height="1015"
     inkscape:window-x="0"
     inkscape:window-y="0"
     inkscape:window-maximized="1"
     inkscape:current-layer="svg1" />
  <defs
     id="defs1">
    <style
       id="current-color-scheme"
       type="text/css">
   .ColorScheme-Text { color:#dedede; } .ColorScheme-Highlight { color:#4285f4; } .ColorScheme-NeutralText { color:#ff9800; } .ColorScheme-PositiveText { color:#4caf50; } .ColorScheme-NegativeText { color:#f44336; }
   </style>
  </defs>
  <path
     id="path1"
     style="fill:currentColor"
     class="ColorScheme-Text"
     d="M 8 1 C 4.1340068 1 1 4.1340068 1 8 C 1 11.865993 4.1340068 15 8 15 C 11.865993 15 15 11.865993 15 8 C 15 4.1340068 11.865993 1 8 1 z M 8 2 A 6 6 0 0 1 14 8 A 6 6 0 0 1 8 14 A 6 6 0 0 1 2 8 A 6 6 0 0 1 8 2 z M 8.3300781 4.5742188 C 8.2238246 4.570188 8.1170147 4.5748581 8.0039062 4.5800781 C 7.3365661 4.6109259 6.1540196 4.5861631 5.6933594 5.1660156 C 5.4118735 5.520251 5.5432546 6.344085 5.9746094 6.4296875 C 6.5120463 6.5362838 7.4216545 6.2729388 8.0039062 6.3378906 C 8.4100688 6.3832197 8.5252124 6.7308439 8.1953125 6.9726562 C 7.8448475 7.2286931 7.0498014 7.1507645 6.6484375 7.2792969 C 5.2609729 7.7240191 4.7638473 8.666604 5.1035156 9.9433594 C 5.3251056 10.775393 6.1094175 11.392602 6.9648438 11.427734 C 8.6098017 11.42345 8.3027088 10.537044 9.0996094 10.998047 C 9.3618154 11.321092 9.8918096 11.42434 10.166016 11.197266 C 10.606453 10.833091 11.268639 10.638922 10.800781 9.8925781 C 10.576278 9.5352576 11.100671 9.0710003 10.982422 7.2929688 C 10.878739 5.7154473 9.9318312 4.6347147 8.3320312 4.5742188 L 8.3300781 4.5742188 z M 8.0117188 8.1367188 C 8.5640422 8.1367186 9 8.5504853 9 9.0644531 C 9 9.5784211 8.5640422 10 8.0117188 10 C 7.4581162 10 7 9.5784211 7 9.0644531 C 7 8.5504853 7.4581163 8.1367186 8.0117188 8.1367188 z " />
</svg>
