<?xml version="1.0" encoding="UTF-8" standalone="no"?>
<svg
   width="16"
   height="16"
   version="1.1"
   viewBox="0 0 16 16"
   id="svg7"
   sodipodi:docname="network-wireless-signal-weak.svg"
   inkscape:version="1.2.1 (9c6d41e410, 2022-07-14, custom)"
   xmlns:inkscape="http://www.inkscape.org/namespaces/inkscape"
   xmlns:sodipodi="http://sodipodi.sourceforge.net/DTD/sodipodi-0.dtd"
   xmlns="http://www.w3.org/2000/svg"
   xmlns:svg="http://www.w3.org/2000/svg">
  <sodipodi:namedview
     id="namedview9"
     pagecolor="#ffffff"
     bordercolor="#666666"
     borderopacity="1.0"
     inkscape:pageshadow="2"
     inkscape:pageopacity="0.0"
     inkscape:pagecheckerboard="0"
     showgrid="false"
     inkscape:zoom="50.125"
     inkscape:cx="7.7107232"
     inkscape:cy="8.0199501"
     inkscape:window-width="1920"
     inkscape:window-height="1011"
     inkscape:window-x="0"
     inkscape:window-y="0"
     inkscape:window-maximized="1"
     inkscape:current-layer="svg7"
     showguides="true"
     inkscape:showpageshadow="2"
     inkscape:deskcolor="#d1d1d1" />
  <defs
     id="defs3">
    <style
       id="current-color-scheme"
       type="text/css">.ColorScheme-Text { color:#dedede; }</style>
  </defs>
  <path
     id="path345"
     style="fill:currentColor;stroke-width:1.06586;stroke-linejoin:round"
     class="ColorScheme-Text"
     d="m 8,11 c -0.5522174,-2.87e-4 -0.9993903,0.447783 -1,1 -2.874e-4,0.552852 0.4471482,1.000288 1,1 0.5522171,-6.1e-4 1.0002873,-0.447783 1,-1 -6.089e-4,-0.551583 -0.4484169,-0.999391 -1,-1 z"
     sodipodi:nodetypes="ccccc" />
  <path
     id="path1046"
     style="opacity:0.2;fill:currentColor;stroke:none;stroke-linecap:round;stroke-linejoin:round"
     class="ColorScheme-Text"
     d="M 8 2 C 4.7854208 2 1.8123676 3.7160928 0.20507812 6.5 C 0.066708203 6.7394278 0.14896589 7.0457064 0.38867188 7.1835938 C 0.62809962 7.3219636 0.93437828 7.239706 1.0722656 7 C 2.5017245 4.5241046 5.1410823 3 8 3 C 10.858917 3 13.498277 4.5241048 14.927734 7 C 15.065621 7.2397062 15.3719 7.3219638 15.611328 7.1835938 C 15.851034 7.0457065 15.933292 6.7394278 15.794922 6.5 C 14.187631 3.716093 11.214579 2 8 2 z M 8 5 C 5.8572143 5 3.8760802 6.1442933 2.8046875 8 C 2.66599 8.238916 2.7473307 8.5450367 2.9863281 8.6835938 C 3.2257559 8.8219637 3.5320345 8.739706 3.6699219 8.5 C 4.5634839 6.9523049 6.2128758 6 8 6 C 9.7871241 6 11.436516 6.9523051 12.330078 8.5 C 12.467965 8.7397062 12.774244 8.8219638 13.013672 8.6835938 C 13.252669 8.5450365 13.33401 8.2389159 13.195312 8 C 12.123921 6.1442935 10.142786 5 8 5 z M 8 8 C 6.929008 8 5.9378397 8.5724931 5.4023438 9.5 C 5.2636461 9.7389158 5.344987 10.045037 5.5839844 10.183594 C 5.8234121 10.321964 6.1296909 10.239704 6.2675781 10 C 6.6252435 9.3805041 7.2846693 9 8 9 C 8.7153306 9 9.3747561 9.3805041 9.7324219 10 C 9.8703087 10.239706 10.176588 10.321964 10.416016 10.183594 C 10.655013 10.045036 10.736354 9.7389158 10.597656 9.5 C 10.062161 8.5724932 9.0709919 8 8 8 z " />
</svg>
