<?xml version="1.0" encoding="UTF-8" standalone="no"?>
<svg
   width="16"
   height="16"
   version="1.1"
   viewBox="0 0 16 16"
   id="svg7"
   sodipodi:docname="network-wireless-secure-signal-ok.svg"
   inkscape:version="1.2.1 (9c6d41e410, 2022-07-14, custom)"
   xmlns:inkscape="http://www.inkscape.org/namespaces/inkscape"
   xmlns:sodipodi="http://sodipodi.sourceforge.net/DTD/sodipodi-0.dtd"
   xmlns="http://www.w3.org/2000/svg"
   xmlns:svg="http://www.w3.org/2000/svg">
  <sodipodi:namedview
     id="namedview9"
     pagecolor="#ffffff"
     bordercolor="#666666"
     borderopacity="1.0"
     inkscape:pageshadow="2"
     inkscape:pageopacity="0.0"
     inkscape:pagecheckerboard="0"
     showgrid="false"
     inkscape:zoom="50.125"
     inkscape:cx="7.9900249"
     inkscape:cy="8"
     inkscape:window-width="1920"
     inkscape:window-height="1011"
     inkscape:window-x="0"
     inkscape:window-y="0"
     inkscape:window-maximized="1"
     inkscape:current-layer="svg7"
     showguides="true"
     inkscape:showpageshadow="2"
     inkscape:deskcolor="#d1d1d1" />
  <defs
     id="defs3">
    <style
       id="current-color-scheme"
       type="text/css">.ColorScheme-Text { color:#dedede; }</style>
  </defs>
  <path
     id="path345"
     style="fill:currentColor;stroke-width:1.06586;stroke-linejoin:round"
     class="ColorScheme-Text"
     d="M 8 8 C 6.9290069 8 5.9378403 8.5724927 5.4023438 9.5 A 0.5 0.5 0 0 0 5.5839844 10.183594 A 0.5 0.5 0 0 0 6.2675781 10 C 6.6252438 9.3805048 7.2846686 9 8 9 C 8.7153313 9 9.3747561 9.3805049 9.7324219 10 A 0.5 0.5 0 0 0 10.416016 10.183594 A 0.5 0.5 0 0 0 10.597656 9.5 C 10.06216 8.5724928 9.070993 8 8 8 z M 8 11 C 7.4477826 10.999713 7.0006097 11.447783 7 12 C 6.9997126 12.552852 7.4471482 13.000288 8 13 C 8.5522171 12.99939 9.0002873 12.552217 9 12 C 8.9993911 11.448417 8.5515831 11.000609 8 11 z " />
  <path
     id="path2843"
     style="fill:currentColor;fill-opacity:1;stroke-linejoin:round"
     d="M 13.5 10 C 12.671573 10 12 10.671573 12 11.5 L 12 12 C 11.446 12 11 12.446 11 13 L 11 15 C 11 15.554 11.446 16 12 16 L 15 16 C 15.554 16 16 15.554 16 15 L 16 13 C 16 12.446 15.554 12 15 12 L 15 11.5 C 15 10.671573 14.328427 10 13.5 10 z M 13.5 11 C 13.776142 11 14 11.223858 14 11.5 L 14 12 L 13 12 L 13 11.5 C 13 11.223858 13.223858 11 13.5 11 z M 12 13 L 15 13 L 15 15 L 12 15 L 12 13 z "
     class="ColorScheme-Text" />
  <path
     id="path1046"
     style="fill:currentColor;stroke-linecap:round;stroke-linejoin:round;-inkscape-stroke:none;stroke:none;opacity:0.2"
     d="M 8 2 C 4.7854176 2 1.8123692 3.71609 0.20507812 6.5 A 0.5 0.5 0 0 0 0.38867188 7.1835938 A 0.5 0.5 0 0 0 1.0722656 7 C 2.5017259 4.5241021 5.1410794 3 8 3 C 10.85892 3 13.498275 4.5241023 14.927734 7 A 0.5 0.5 0 0 0 15.611328 7.1835938 A 0.5 0.5 0 0 0 15.794922 6.5 C 14.18763 3.7160902 11.214582 2 8 2 z M 8 5 C 5.8572122 5 3.8760813 6.1442914 2.8046875 8 A 0.5 0.5 0 0 0 2.9863281 8.6835938 A 0.5 0.5 0 0 0 3.6699219 8.5 C 4.5634848 6.9523034 6.212874 6 8 6 C 9.7871259 6 11.436515 6.9523036 12.330078 8.5 A 0.5 0.5 0 0 0 13.013672 8.6835938 A 0.5 0.5 0 0 0 13.195312 8 C 12.123919 6.1442916 10.142788 5 8 5 z "
     class="ColorScheme-Text" />
</svg>
