<?xml version="1.0" encoding="UTF-8" standalone="no"?>
<!-- Created with Inkscape (http://www.inkscape.org/) -->

<svg
   width="16"
   height="16"
   viewBox="0 0 16 16"
   version="1.1"
   id="svg357"
   inkscape:version="1.2.1 (9c6d41e410, 2022-07-14, custom)"
   sodipodi:docname="network-unavailable.svg"
   xmlns:inkscape="http://www.inkscape.org/namespaces/inkscape"
   xmlns:sodipodi="http://sodipodi.sourceforge.net/DTD/sodipodi-0.dtd"
   xmlns="http://www.w3.org/2000/svg"
   xmlns:svg="http://www.w3.org/2000/svg">
  <sodipodi:namedview
     id="namedview359"
     pagecolor="#ffffff"
     bordercolor="#000000"
     borderopacity="0.25"
     inkscape:showpageshadow="2"
     inkscape:pageopacity="0.0"
     inkscape:pagecheckerboard="0"
     inkscape:deskcolor="#d1d1d1"
     inkscape:document-units="px"
     showgrid="false"
     inkscape:zoom="50.625"
     inkscape:cx="8"
     inkscape:cy="8"
     inkscape:window-width="1920"
     inkscape:window-height="1012"
     inkscape:window-x="0"
     inkscape:window-y="0"
     inkscape:window-maximized="1"
     inkscape:current-layer="svg357" />
  <defs
     id="defs354">
    <style
       id="current-color-scheme"
       type="text/css">
         .ColorScheme-Text { color:#dedede; }
     </style>
  </defs>
  <path
     id="path848"
     style="opacity:1;fill:currentColor;fill-opacity:1;stroke-width:2;stroke-linecap:round;stroke-linejoin:round"
     class="ColorScheme-Text"
     d="M 8 0 C 7.9103631 0 7.8225425 0.0079202616 7.734375 0.01953125 A 8.0000003 8.0000003 0 0 0 0.6015625 5 L 0.58789062 5 A 8.0000001 8.0000001 0 0 0 0.25976562 6 L 0.26953125 6 A 8.0000003 8.0000003 0 0 0 0 8 A 8.0000003 8.0000003 0 0 0 0.26953125 10 L 0.25976562 10 A 8.0000001 8.0000001 0 0 0 0.58789062 11 L 0.6015625 11 A 8.0000003 8.0000003 0 0 0 7.734375 15.980469 C 7.8225429 15.992079 7.9103636 16 8 16 C 8.0896359 16 8.1774574 15.992099 8.265625 15.980469 A 8.0000003 8.0000003 0 0 0 9 15.902344 L 9 14.595703 C 8.6870668 14.855254 8.35138 15 8 15 A 6.9999999 6.9999999 0 0 1 7.8222656 14.986328 C 6.7024378 14.833519 5.7507831 13.244538 5.2929688 11 L 9 11 L 9 10 L 5.125 10 C 5.0440871 9.3659915 5 8.6953447 5 8 C 5 7.3046553 5.0440871 6.6340084 5.125 6 L 10.875 6 C 10.95591 6.6340084 11 7.3046553 11 8 C 11 8.3396044 10.99089 8.6735696 10.970703 9 L 11.96875 9 C 11.988931 8.6723632 12 8.3385282 12 8 C 12 7.3096448 11.95721 6.6390359 11.875 6 L 14.707031 6 A 6.9999999 6.9999999 0 0 1 15 8 A 6.9999999 6.9999999 0 0 1 14.925781 9 L 15.927734 9 A 8.0000003 8.0000003 0 0 0 16 8 A 8.0000003 8.0000003 0 0 0 15.730469 6 L 15.746094 6 A 8.0000001 8.0000001 0 0 0 15.416016 5 L 15.398438 5 A 8.0000003 8.0000003 0 0 0 8.265625 0.01953125 C 8.1774571 0.0079212616 8.0896365 2.999997e-07 8 0 z M 8 1 C 9.1959799 0.9999999 10.225153 2.6374841 10.707031 5 L 5.2929688 5 C 5.7507832 2.7554627 6.7024378 1.1664809 7.8222656 1.0136719 A 6.9999999 6.9999999 0 0 1 8 1 z M 10.236328 1.3671875 A 6.9999999 6.9999999 0 0 1 14.322266 5 L 11.708984 5 C 11.40839 3.5156418 10.891346 2.2522305 10.236328 1.3671875 z M 5.7597656 1.3730469 C 5.1067044 2.2578133 4.5909788 3.5187621 4.2910156 5 L 1.6894531 5 A 6.9999999 6.9999999 0 0 1 5.7597656 1.3730469 z M 1.3027344 6 L 4.125 6 C 4.0427921 6.6390359 4 7.3096448 4 8 C 4 8.6903552 4.0427922 9.360964 4.125 10 L 1.3027344 10 A 6.9999999 6.9999999 0 0 1 1 8 A 6.9999999 6.9999999 0 0 1 1.3027344 6 z M 1.6894531 11 L 4.2910156 11 C 4.5909788 12.481239 5.1067043 13.742187 5.7597656 14.626953 A 6.9999999 6.9999999 0 0 1 1.6894531 11 z " />
  <path
     id="rect1912"
     style="opacity:1;fill:currentColor;stroke-width:2"
     d="m 15.292891,10.343145 -2.12132,2.12132 -2.12132,-2.12132 -0.707107,0.707107 2.12132,2.12132 -2.12132,2.12132 0.707107,0.707107 2.12132,-2.12132 2.12132,2.12132 0.707107,-0.707107 -2.12132,-2.12132 2.12132,-2.12132 z"
     class="ColorScheme-Text" />
</svg>
