<?xml version="1.0" encoding="UTF-8" standalone="no"?>
<svg
   width="16"
   height="16"
   version="1.1"
   viewBox="0 0 16 16"
   id="svg7"
   sodipodi:docname="network-wireless-signal-good.svg"
   inkscape:version="1.2.1 (9c6d41e410, 2022-07-14, custom)"
   xmlns:inkscape="http://www.inkscape.org/namespaces/inkscape"
   xmlns:sodipodi="http://sodipodi.sourceforge.net/DTD/sodipodi-0.dtd"
   xmlns="http://www.w3.org/2000/svg"
   xmlns:svg="http://www.w3.org/2000/svg">
  <sodipodi:namedview
     id="namedview9"
     pagecolor="#ffffff"
     bordercolor="#666666"
     borderopacity="1.0"
     inkscape:pageshadow="2"
     inkscape:pageopacity="0.0"
     inkscape:pagecheckerboard="0"
     showgrid="false"
     inkscape:zoom="50.5"
     inkscape:cx="8"
     inkscape:cy="8"
     inkscape:window-width="1920"
     inkscape:window-height="1010"
     inkscape:window-x="0"
     inkscape:window-y="0"
     inkscape:window-maximized="1"
     inkscape:current-layer="svg7"
     showguides="true"
     inkscape:showpageshadow="2"
     inkscape:deskcolor="#d1d1d1" />
  <defs
     id="defs3">
    <style
       id="current-color-scheme"
       type="text/css">.ColorScheme-Text { color:#dedede; }</style>
  </defs>
  <path
     id="path1931"
     style="opacity:1;fill:currentColor;stroke-width:1.28132;stroke-linejoin:round"
     d="m 7.9993119,5.35375 c -1.483625,0 -2.910831,0.4504475 -4.1113281,1.2714844 -0.1091361,0.074639 -0.2169993,0.1517164 -0.3222657,0.2324214 -0.4210653,0.322822 -0.8092531,0.6943 -1.1582031,1.109376 -0.032447,0.038597 -0.060844,0.080384 -0.083984,0.123046 -0.023141,0.042663 -0.040734,0.085514 -0.054688,0.13086 -0.055814,0.181383 -0.039524,0.379747 0.046875,0.548828 0.0216,0.04227 0.047936,0.083045 0.078125,0.121094 0.030189,0.038048 0.064856,0.073022 0.1035157,0.105468 0.13683,0.11493 0.30266,0.169922 0.46875,0.169922 0.05211,0 0.1032375,-0.0047 0.1542969,-0.015625 0.051059,-0.010923 0.1023597,-0.027101 0.1503906,-0.048828 0.096062,-0.043453 0.1837794,-0.10936 0.2558594,-0.195312 1.1166994,-1.3291 2.7471563,-2.091797 4.4726563,-2.091797 1.7255,0 3.3554571,0.762677 4.4726561,2.091797 0.07232,0.08621 0.159798,0.151923 0.25586,0.195312 0.04803,0.021694 0.09939,0.037946 0.15039,0.048828 0.051,0.010883 0.10231,0.015625 0.154297,0.015625 0.16609,0 0.33189,-0.0545 0.46875,-0.169922 0.03866,-0.032447 0.07333,-0.067407 0.103516,-0.105468 0.03019,-0.038062 0.05653,-0.078805 0.07813,-0.121094 0.08639,-0.169157 0.102682,-0.367492 0.04687,-0.548828 -0.01395,-0.045334 -0.03155,-0.088231 -0.05469,-0.13086 -0.02314,-0.042629 -0.05154,-0.084509 -0.08398,-0.123046 C 13.154767,7.4481868 12.656327,6.9984328 12.11064,6.6252344 11.783228,6.4013153 11.438966,6.2045124 11.081343,6.0373438 10.127681,5.591561 9.0783119,5.3537501 7.9993119,5.35375 Z m 0,3.2148438 c -1.2954996,0 -2.5188687,0.570416 -3.3554688,1.5664062 -0.2595999,0.30878 -0.2194362,0.769727 0.089844,1.029297 0.13683,0.11493 0.3046131,0.171875 0.4707031,0.171875 0.20844,0 0.4144338,-0.0898 0.5585938,-0.261719 0.5586298,-0.6648 1.3738279,-1.044924 2.2363279,-1.044921 0.86252,0 1.677728,0.380161 2.2363281,1.044921 0.14465,0.17242 0.350624,0.261719 0.558594,0.261719 0.16609,0 0.333863,-0.05645 0.470703,-0.171875 0.30928,-0.2596 0.349414,-0.720547 0.08984,-1.029297 C 10.518061,9.1390398 9.2947119,8.5685938 7.9993119,8.5685938 Z m 0,2.7675782 c -0.6638481,-3.45e-4 -1.202392,0.537324 -1.203125,1.201172 -3.455e-4,0.664611 0.5385143,1.203471 1.203125,1.203125 0.6638478,-7.33e-4 1.2015174,-0.539277 1.201172,-1.203125 -7.319e-4,-0.663086 -0.5380864,-1.20044 -1.201172,-1.201172 z"
     sodipodi:nodetypes="sscssssscssscscssscscsscssssccscccsccsccccc"
     class="ColorScheme-Text" />
  <path
     d="m 7.9993119,2.26 c -3.021,0 -5.873725,1.3332032 -7.828125,3.6582032 -0.2596,0.30878 -0.2194334,0.7697266 0.089844,1.0292966 0.1368298,0.11493 0.3026898,0.169922 0.46875,0.169922 0.2084398,0 0.4159168,-0.087844 0.5605468,-0.259766 1.6753998,-1.993399 4.1204842,-3.1367184 6.7089842,-3.1367182 2.5885001,0 5.0336841,1.1438192 6.7089841,3.1367182 0.14465,0.171922 0.352077,0.259766 0.560547,0.259766 0.16609,0 0.333873,-0.054502 0.470703,-0.169922 0.30878,-0.25913 0.347491,-0.7210166 0.08789,-1.0292966 C 13.873537,3.5931032 11.020312,2.26 7.9993119,2.26 Z"
     style="opacity:0.35;fill:currentColor;stroke-width:1.28132;stroke-linejoin:round"
     id="path945"
     class="ColorScheme-Text" />
</svg>
