<?xml version="1.0" encoding="UTF-8" standalone="no"?>
<!-- Created with Inkscape (http://www.inkscape.org/) -->

<svg
   width="16"
   height="16"
   viewBox="0 0 16 16"
   version="1.1"
   id="svg2112"
   inkscape:version="1.3.2 (091e20ef0f, 2023-11-25, custom)"
   sodipodi:docname="obs-tray.svg"
   xmlns:inkscape="http://www.inkscape.org/namespaces/inkscape"
   xmlns:sodipodi="http://sodipodi.sourceforge.net/DTD/sodipodi-0.dtd"
   xmlns="http://www.w3.org/2000/svg"
   xmlns:svg="http://www.w3.org/2000/svg">
  <sodipodi:namedview
     id="namedview2114"
     pagecolor="#ffffff"
     bordercolor="#000000"
     borderopacity="0.25"
     inkscape:showpageshadow="2"
     inkscape:pageopacity="0.0"
     inkscape:pagecheckerboard="0"
     inkscape:deskcolor="#d1d1d1"
     inkscape:document-units="px"
     showgrid="false"
     inkscape:zoom="50.125"
     inkscape:cx="8.0199501"
     inkscape:cy="8.0199501"
     inkscape:window-width="1920"
     inkscape:window-height="1008"
     inkscape:window-x="0"
     inkscape:window-y="0"
     inkscape:window-maximized="1"
     inkscape:current-layer="svg2112" />
  <defs
     id="defs2109">
    <style
       id="current-color-scheme"
       type="text/css">
   .ColorScheme-Text { color:#dedede; } .ColorScheme-Highlight { color:#3daee9; } .ColorScheme-NeutralText { color:#ff9800; } .ColorScheme-PositiveText { color:#4caf50; } .ColorScheme-NegativeText { color:#f44336; }
    </style>
  </defs>
  <path
     d="M 8,1 C 4.1340107,1 1,4.1340107 1,8 c 0,3.865989 3.1340107,7 7,7 3.865989,0 7,-3.134011 7,-7 C 15,4.1340107 11.865989,1 8,1 Z m 0,1.0449219 c 3.041915,0.00359 5.592024,2.2993959 5.914062,5.3242187 C 13.749603,7.1069109 13.558999,6.8554698 13.324219,6.625 12.672049,5.9789506 11.880505,5.5945499 10.941406,5.46875 10.800766,5.449922 10.682737,5.415894 10.492188,5.486328 10.300508,5.556196 10.206761,5.7090775 10.150391,5.8046874 10.068951,5.9424973 9.60394,6.4159913 9.34375,6.5820311 c -0.7380293,0.4716096 -1.9996351,0.4718296 -2.7402344,0 C 5.7277865,6.0242218 5.2292189,4.9312959 5.3867188,3.9667969 5.4759787,3.4208974 5.7072973,2.9460621 6.0917969,2.5390625 6.1716468,2.4544506 6.23248,2.3886543 6.28125,2.3339844 6.29305,2.3208274 6.30229,2.3040847 6.3125,2.2929688 6.8601818,2.1297354 7.4285118,2.0461983 8,2.0449219 Z M 4.2910156,3.3398438 C 4.0562359,3.8553432 3.9010938,4.5176005 3.9023438,5.0625 c 0.0013,0.5086895 0.1254295,1.1133036 0.3183593,1.5957031 0.05093,0.1273699 0.1126752,0.2977795 0.296875,0.4121094 0.1841998,0.1143299 0.3150102,0.1099894 0.5,0.1308594 0.1607199,0.018034 0.4937452,0.090044 0.640625,0.140625 1.4780985,0.5084695 2.1744681,2.202642 1.4804688,3.6191411 -0.4655896,0.951599 -1.5877666,1.579849 -2.5722657,1.46875 -0.1274898,-0.01474 -0.2218338,-0.02067 -0.3085937,-0.01953 -0.04344,0 -0.073686,-0.0088 -0.1660156,0.01953 -0.01089,0.0023 -0.027176,0.01386 -0.041016,0.01953 C 2.7771736,11.320868 2.0471579,9.7015426 2.0449219,8 2.0444911,6.1855214 2.8713958,4.4698934 4.2910156,3.3398438 Z m 0.4550782,1.5136718 0.00195,0.00391 C 4.8521668,5.4837312 5.103471,6.0134536 5.5253906,6.5019531 5.3805108,6.4691692 5.2386749,6.4247872 5.109375,6.4101562 5.0050351,6.3983283 4.9724269,6.3910641 4.9667969,6.3925781 c 4.97e-4,0.00116 0.00115,0.00408 0.00195,0.00586 -0.0031,-0.00275 -0.00511,-0.0051 -0.00391,-0.00586 -0.0024,-0.00572 -0.0012,-0.00531 -0.011719,-0.029297 C 4.8078351,5.9998816 4.6982856,5.4324165 4.6972656,5.0605469 4.6971526,5.0056509 4.7399638,4.9195256 4.7460938,4.8535156 Z m 6.0546872,1.3867188 c 0.01021,6.805e-4 -0.02578,0.00758 0.0332,0.015625 0.32325,0.043327 0.51944,0.2708163 0.78711,0.3789062 -0.33573,-0.050699 -0.637939,-0.2433868 -0.980469,-0.1855468 -0.06919,0.011115 -0.08933,0.092225 -0.15625,0.1074218 0.10094,-0.1127399 0.244946,-0.2012763 0.316406,-0.3164062 z m 0.414063,0.9609375 c 1.029899,0.024386 2.045869,0.712646 2.417968,1.703125 0.02949,0.078715 0.04908,0.1376769 0.06836,0.1855469 0.0091,0.023819 0.02186,0.042247 0.0332,0.066406 0.0068,0.012703 0.01127,0.025867 0.02148,0.044922 0.0045,0.00953 0.01128,0.019844 0.02149,0.035156 0.0068,0.00941 0.02042,0.023525 0.03516,0.039063 C 13.213897,12.006421 10.795862,13.953191 8,13.955078 7.1345492,13.952378 6.280073,13.761122 5.4960938,13.394531 c 0.3613596,0 0.7216015,-0.02449 1.0195312,-0.115234 l 0.03125,-0.01172 0.019531,-0.0098 0.00781,-0.0059 c 0.8044991,-0.262 1.6487348,-0.85138 2.1152343,-1.505859 l 0.25,-0.347656 -0.2324219,-0.691407 C 8.1723618,9.0886329 9.114889,7.5102685 10.773438,7.2304688 c 0.145179,-0.024612 0.292816,-0.032813 0.441406,-0.029297 z M 9.238281,7.4023438 C 8.6638018,7.8691833 8.206356,8.4488694 7.9726562,9.1054688 7.7514865,8.4717894 7.3346613,7.8874745 6.7949219,7.421875 7.5952211,7.7216447 8.447682,7.7226444 9.238281,7.4023438 Z M 7.96875,11 l 0.085937,0.267578 -0.015625,0.01953 c -0.09051,0.12817 -0.3357545,0.208464 -0.4902344,0.345703 0.08371,-0.124759 0.2360445,-0.182249 0.3027344,-0.318359 C 7.9027124,11.210103 7.93155,11.10435 7.96875,11 Z"
     style="fill:currentColor"
     id="path1"
     class="ColorScheme-Text" />
</svg>
