<?xml version="1.0" encoding="UTF-8" standalone="no"?>
<!-- Created with Inkscape (http://www.inkscape.org/) -->

<svg
   width="16"
   height="16"
   viewBox="0 0 16 16"
   version="1.1"
   id="svg2112"
   inkscape:version="1.3.2 (091e20ef0f, 2023-11-25, custom)"
   sodipodi:docname="obs-tray-active.svg"
   xmlns:inkscape="http://www.inkscape.org/namespaces/inkscape"
   xmlns:sodipodi="http://sodipodi.sourceforge.net/DTD/sodipodi-0.dtd"
   xmlns="http://www.w3.org/2000/svg"
   xmlns:svg="http://www.w3.org/2000/svg">
  <sodipodi:namedview
     id="namedview2114"
     pagecolor="#ffffff"
     bordercolor="#000000"
     borderopacity="0.25"
     inkscape:showpageshadow="2"
     inkscape:pageopacity="0.0"
     inkscape:pagecheckerboard="0"
     inkscape:deskcolor="#d1d1d1"
     inkscape:document-units="px"
     showgrid="false"
     inkscape:zoom="50.25"
     inkscape:cx="8"
     inkscape:cy="8"
     inkscape:window-width="1920"
     inkscape:window-height="1008"
     inkscape:window-x="0"
     inkscape:window-y="0"
     inkscape:window-maximized="1"
     inkscape:current-layer="svg2112" />
  <defs
     id="defs2109">
    <style
       id="current-color-scheme"
       type="text/css">
   .ColorScheme-Text { color:#dedede; } .ColorScheme-Highlight { color:#3daee9; } .ColorScheme-NeutralText { color:#ff9800; } .ColorScheme-PositiveText { color:#4caf50; } .ColorScheme-NegativeText { color:#f44336; }
    </style>
  </defs>
  <path
     id="path1"
     style="fill:currentColor"
     class="ColorScheme-Text"
     d="M 8 1 C 4.1340146 1 1 4.1340146 1 8 C 1 11.511646 3.5855953 14.420315 6.9570312 14.923828 A 5 5 0 0 1 6.3125 13.705078 C 6.0337529 13.62175 5.7610356 13.518419 5.4960938 13.394531 C 5.7341563 13.394531 5.9698579 13.382809 6.1894531 13.349609 A 5 5 0 0 1 6.0078125 12.113281 C 5.5553193 12.361042 5.0451064 12.483708 4.5664062 12.429688 C 4.4389166 12.414948 4.3445723 12.409016 4.2578125 12.410156 C 4.2143725 12.410156 4.1841264 12.401358 4.0917969 12.429688 C 4.0809069 12.431987 4.0646212 12.443549 4.0507812 12.449219 C 2.7771752 11.32087 2.0471579 9.7015409 2.0449219 8 C 2.0444911 6.1855232 2.8713972 4.4698922 4.2910156 3.3398438 C 4.0562362 3.8553426 3.9010938 4.517601 3.9023438 5.0625 C 3.9036437 5.571189 4.0277735 6.1758041 4.2207031 6.6582031 C 4.2716331 6.7855729 4.3333785 6.9559827 4.5175781 7.0703125 C 4.7017777 7.1846423 4.8325885 7.1803019 5.0175781 7.2011719 C 5.1782979 7.2192059 5.5113235 7.2912159 5.6582031 7.3417969 C 6.3801001 7.5901312 6.9133468 8.1221173 7.1914062 8.765625 A 5 5 0 0 1 7.5996094 8.3476562 C 7.3826175 8.0081522 7.1104749 7.6940829 6.7949219 7.421875 C 7.4240083 7.6575132 8.0844908 7.7050701 8.7226562 7.5605469 A 5 5 0 0 1 11 7 A 5 5 0 0 1 14.9375 8.921875 C 14.977255 8.6199566 15 8.3127725 15 8 C 15 4.1340146 11.865985 1 8 1 z M 8 2.0449219 C 11.041912 2.0485119 13.592025 4.3443208 13.914062 7.3691406 C 13.749604 7.1069112 13.558999 6.8554696 13.324219 6.625 C 12.672049 5.9789512 11.880504 5.5945498 10.941406 5.46875 C 10.800766 5.449922 10.682736 5.4158942 10.492188 5.4863281 C 10.300508 5.5561961 10.206761 5.7090777 10.150391 5.8046875 C 10.068951 5.9424973 9.6039397 6.4159916 9.34375 6.5820312 C 8.6057214 7.0536404 7.3441142 7.0538604 6.6035156 6.5820312 C 5.7277874 6.0242225 5.229219 4.9312949 5.3867188 3.9667969 C 5.4759786 3.4208979 5.7072977 2.9460617 6.0917969 2.5390625 C 6.1716467 2.4544507 6.23248 2.3886542 6.28125 2.3339844 C 6.29305 2.3208274 6.30229 2.3040846 6.3125 2.2929688 C 6.8601813 2.1297355 7.4285124 2.0461983 8 2.0449219 z M 4.7460938 4.8535156 L 4.7480469 4.8574219 C 4.8521698 5.4837268 5.1034714 6.0134541 5.5253906 6.5019531 C 5.380511 6.4691693 5.2386748 6.4247872 5.109375 6.4101562 C 5.0050352 6.3983284 4.9724269 6.3910641 4.9667969 6.3925781 C 4.9672939 6.3937381 4.96795 6.3966575 4.96875 6.3984375 C 4.96565 6.3956875 4.9636438 6.3933381 4.9648438 6.3925781 C 4.9624438 6.3868581 4.963644 6.3872682 4.953125 6.3632812 C 4.8078423 5.9998821 4.6982856 5.4324161 4.6972656 5.0605469 C 4.6971526 5.0056509 4.7399638 4.9195256 4.7460938 4.8535156 z M 10.800781 6.2402344 C 10.810991 6.2409149 10.775004 6.2478144 10.833984 6.2558594 C 11.157234 6.2991863 11.353424 6.5266758 11.621094 6.6347656 C 11.285364 6.5840667 10.983155 6.3913788 10.640625 6.4492188 C 10.571435 6.4603337 10.551295 6.5414438 10.484375 6.5566406 C 10.585315 6.4439008 10.729321 6.3553642 10.800781 6.2402344 z " />
  <path
     d="m 11,8 c -2.209139,0 -4,1.790861 -4,4 0,2.209139 1.790861,4 4,4 2.209139,0 4,-1.790861 4,-4 0,-2.209139 -1.790861,-4 -4,-4 z m 0,1 c 1.656854,0 3,1.343146 3,3 0,1.656854 -1.343146,3 -3,3 C 9.343146,15 8,13.656854 8,12 8,10.343146 9.343146,9 11,9 Z m -1,1 v 4 l 3,-2 z"
     style="fill:currentColor"
     id="path1-3"
     class="ColorScheme-Highlight" />
</svg>
