<?xml version="1.0" encoding="UTF-8" standalone="no"?>
<!-- Created with Inkscape (http://www.inkscape.org/) -->

<svg
   width="16"
   height="16"
   viewBox="0 0 16 16"
   version="1.1"
   id="svg5"
   inkscape:version="1.2.1 (9c6d41e410, 2022-07-14, custom)"
   sodipodi:docname="redshift-status-off.svg"
   xmlns:inkscape="http://www.inkscape.org/namespaces/inkscape"
   xmlns:sodipodi="http://sodipodi.sourceforge.net/DTD/sodipodi-0.dtd"
   xmlns="http://www.w3.org/2000/svg"
   xmlns:svg="http://www.w3.org/2000/svg">
  <sodipodi:namedview
     id="namedview7"
     pagecolor="#ffffff"
     bordercolor="#000000"
     borderopacity="0.25"
     inkscape:showpageshadow="2"
     inkscape:pageopacity="0.0"
     inkscape:pagecheckerboard="0"
     inkscape:deskcolor="#d1d1d1"
     inkscape:document-units="px"
     showgrid="false"
     inkscape:zoom="50.5625"
     inkscape:cx="8.0197775"
     inkscape:cy="8.0197775"
     inkscape:window-width="1920"
     inkscape:window-height="1012"
     inkscape:window-x="0"
     inkscape:window-y="0"
     inkscape:window-maximized="1"
     inkscape:current-layer="svg5" />
  <defs
     id="defs2">
    <style
       id="current-color-scheme"
       type="text/css">
         .ColorScheme-Text { color:#dedede; }
     </style>
  </defs>
  <path
     id="path234"
     style="fill:currentColor;stroke-width:1.2;stroke-linecap:round;stroke-linejoin:round;opacity:0.2"
     class="ColorScheme-Text"
     d="M 8,0 C 4.686308,0 2,2.686308 2,6 c 0.00408,3.353643 3,4.347542 3,7 v 1 c 0,1.107997 0.8920033,2 2,2 h 2 c 1.107997,0 2,-0.892003 2,-2 V 13 C 11,10.347542 13.9959,9.353643 14,6 14,2.686308 11.313693,0 8,0 Z m 0,1 c 2.761412,0 5,2.2385872 5,5 -0.0034,2.7947061 -3.0006129,4.394103 -3,6 H 6 C 6.0006129,10.394103 3.0034,8.7947057 3,6 3,3.2385872 5.2385874,1 8,1 Z M 6,13 h 4 v 1 c 0,0.554009 -0.4459898,1 -1,1 H 7 C 6.4459898,15 6,14.554009 6,14 Z" />
</svg>
