<?xml version="1.0" encoding="UTF-8" standalone="no"?>
<!-- Created with Inkscape (http://www.inkscape.org/) -->

<svg
   width="16"
   height="16"
   viewBox="0 0 16 16"
   version="1.1"
   id="svg5"
   inkscape:version="1.2.1 (9c6d41e410, 2022-07-14, custom)"
   sodipodi:docname="updates-notifier-inactive.svg"
   xmlns:inkscape="http://www.inkscape.org/namespaces/inkscape"
   xmlns:sodipodi="http://sodipodi.sourceforge.net/DTD/sodipodi-0.dtd"
   xmlns="http://www.w3.org/2000/svg"
   xmlns:svg="http://www.w3.org/2000/svg">
  <sodipodi:namedview
     id="namedview7"
     pagecolor="#ffffff"
     bordercolor="#000000"
     borderopacity="0.25"
     inkscape:showpageshadow="2"
     inkscape:pageopacity="0.0"
     inkscape:pagecheckerboard="0"
     inkscape:deskcolor="#d1d1d1"
     inkscape:document-units="px"
     showgrid="false"
     inkscape:zoom="50.625"
     inkscape:cx="7.4666667"
     inkscape:cy="8"
     inkscape:window-width="1920"
     inkscape:window-height="1012"
     inkscape:window-x="0"
     inkscape:window-y="0"
     inkscape:window-maximized="1"
     inkscape:current-layer="svg5" />
  <defs
     id="defs2">
    <style
       id="current-color-scheme"
       type="text/css">
   .ColorScheme-Text { color:#dedede; } .ColorScheme-Highlight { color:#3daee9; } .ColorScheme-NeutralText { color:#ff9800; } .ColorScheme-PositiveText { color:#4caf50; } .ColorScheme-NegativeText { color:#f44336; }</style>
  </defs>
  <path
     id="path234"
     style="fill:currentColor;stroke-width:2;opacity:0.2"
     class="ColorScheme-Text"
     d="M 8 0 C 4.9873883 0 2.3644947 1.666739 1 4.1269531 L 1 3 L 0 3 L 0 8 L 1 8 L 5 8 L 5 7 L 1.0722656 7 C 1.557628 3.6078738 4.4736537 1 8 1 C 9.9329868 1 11.68247 1.7840333 12.949219 3.0507812 L 13.65625 2.34375 C 12.208537 0.896038 10.209129 0 8 0 z M 11 8 L 11 9 L 14.927734 9 C 14.442372 12.392127 11.526346 15 8 15 C 6.0670128 15 4.3175299 14.215966 3.0507812 12.949219 L 2.34375 13.65625 C 3.7914625 15.103962 5.7908712 16 8 16 C 11.012612 16 13.635505 14.33326 15 11.873047 L 15 13 L 16 13 L 16 8 L 15 8 L 11 8 z " />
</svg>
