<?xml version="1.0" encoding="UTF-8" standalone="no"?>
<!-- Created with Inkscape (http://www.inkscape.org/) -->

<svg
   width="16"
   height="16"
   viewBox="0 0 16 16"
   version="1.1"
   id="svg5"
   inkscape:version="1.2.1 (9c6d41e410, 2022-07-14, custom)"
   sodipodi:docname="updates-notifier-inactive.svg"
   xmlns:inkscape="http://www.inkscape.org/namespaces/inkscape"
   xmlns:sodipodi="http://sodipodi.sourceforge.net/DTD/sodipodi-0.dtd"
   xmlns="http://www.w3.org/2000/svg"
   xmlns:svg="http://www.w3.org/2000/svg">
  <sodipodi:namedview
     id="namedview7"
     pagecolor="#ffffff"
     bordercolor="#000000"
     borderopacity="0.25"
     inkscape:showpageshadow="2"
     inkscape:pageopacity="0.0"
     inkscape:pagecheckerboard="0"
     inkscape:deskcolor="#d1d1d1"
     inkscape:document-units="px"
     showgrid="false"
     inkscape:zoom="50.125"
     inkscape:cx="7.9900249"
     inkscape:cy="8"
     inkscape:window-width="1920"
     inkscape:window-height="1011"
     inkscape:window-x="0"
     inkscape:window-y="0"
     inkscape:window-maximized="1"
     inkscape:current-layer="svg5" />
  <defs
     id="defs2">
    <style
       id="current-color-scheme"
       type="text/css">
   .ColorScheme-Text { color:#dedede; } .ColorScheme-Highlight { color:#3daee9; } .ColorScheme-NeutralText { color:#ff9800; } .ColorScheme-PositiveText { color:#4caf50; } .ColorScheme-NegativeText { color:#f44336; }</style>
  </defs>
  <path
     id="path234"
     style="fill:currentColor;stroke-width:2;opacity:0.2"
     class="ColorScheme-Text"
     d="M 8.0039062 0.5 C 4.8871108 0.49720445 2.0422448 2.4432147 0.953125 5.4355469 C 0.85883053 5.6949652 0.99259168 5.9817211 1.2519531 6.0761719 C 1.5113716 6.1704664 1.7981273 6.0367052 1.8925781 5.7773438 C 2.9359404 2.9107297 5.8231681 1.1565061 8.8476562 1.5546875 C 11.726721 1.9337235 13.98032 4.164998 14.419922 7 L 11.5 7 C 11.223 7 11 7.2230018 11 7.5 C 11 7.7769982 11.223 8 11.5 8 L 15.5 8 C 15.51731 8 15.533931 7.9997416 15.550781 7.9980469 C 15.803523 7.9725268 16 7.7596857 16 7.5 L 16 3.5 C 16 3.2230018 15.777 3 15.5 3 C 15.223 3 15 3.2230018 15 3.5 L 15 5.3125 C 14.03359 2.7976558 11.754926 0.9299746 8.9785156 0.56445312 C 8.6519162 0.52145549 8.3263335 0.5002892 8.0039062 0.5 z M 0.5 8 C 0.48269012 8 0.46606873 8.0003123 0.44921875 8.0019531 C 0.1964791 8.0274793 7.4014794e-17 8.2403145 0 8.5 L 0 12.5 C 0 12.777 0.2230014 13 0.5 13 C 0.7769986 13 1 12.777 1 12.5 L 1 9.9765625 C 1.0611569 10.191315 1.1355459 10.400909 1.2148438 10.607422 L 1.2128906 10.611328 C 2.1793017 13.126175 4.4579614 14.993853 7.234375 15.359375 C 7.5609749 15.402375 7.8865568 15.423538 8.2089844 15.423828 C 11.325783 15.426628 14.170645 13.480616 15.259766 10.488281 C 15.354066 10.228863 15.220295 9.9421071 14.960938 9.8476562 C 14.701519 9.7533613 14.414763 9.8871227 14.320312 10.146484 C 13.27695 13.013102 10.389726 14.767322 7.3652344 14.369141 C 4.5121657 13.993527 2.2746427 11.798497 1.8066406 9 L 4.5 9 C 4.7769985 8.9999999 5 8.7769985 5 8.5 C 5 8.2230025 4.7769985 8 4.5 8 L 0.5 8 z " />
</svg>
