<?xml version="1.0" encoding="UTF-8" standalone="no"?>
<!-- Created with Inkscape (http://www.inkscape.org/) -->

<svg
   width="24"
   height="24"
   viewBox="0 0 24 24"
   version="1.1"
   id="svg423"
   inkscape:version="1.4.2 (ebf0e940d0, 2025-05-08)"
   sodipodi:docname="audio-volume-muted-symbolic.svg"
   xmlns:inkscape="http://www.inkscape.org/namespaces/inkscape"
   xmlns:sodipodi="http://sodipodi.sourceforge.net/DTD/sodipodi-0.dtd"
   xmlns="http://www.w3.org/2000/svg"
   xmlns:svg="http://www.w3.org/2000/svg">
  <sodipodi:namedview
     id="namedview425"
     pagecolor="#ffffff"
     bordercolor="#000000"
     borderopacity="0.25"
     inkscape:showpageshadow="2"
     inkscape:pageopacity="0.0"
     inkscape:pagecheckerboard="0"
     inkscape:deskcolor="#d1d1d1"
     inkscape:document-units="px"
     showgrid="false"
     inkscape:zoom="33.041667"
     inkscape:cx="12"
     inkscape:cy="12"
     inkscape:window-width="1920"
     inkscape:window-height="1007"
     inkscape:window-x="0"
     inkscape:window-y="0"
     inkscape:window-maximized="1"
     inkscape:current-layer="svg423" />
  <defs
     id="defs420">
    <style
       id="current-color-scheme"
       type="text/css">
        .ColorScheme-Text { color:#dedede; } .ColorScheme-Highlight { color:#4285f4; } .ColorScheme-NeutralText { color:#ff9800; } .ColorScheme-PositiveText { color:#4caf50; } .ColorScheme-NegativeText { color:#f44336; }
     </style>
  </defs>
  <path
     id="path408"
     style="fill:currentColor"
     class="ColorScheme-Text"
     d="M 9.9863281,6.7089844 C 9.7273022,6.7127935 9.4779826,6.8165087 9.2929688,7.0019531 L 7.296875,9 H 6 C 4.9093044,9 4,9.9093044 4,11 v 2 c 0,1.090696 0.9093044,2 2,2 h 1.296875 l 1.9960938,1.998047 C 9.9229623,17.627545 10.999622,17.181612 11,16.291016 V 7.7089844 c -2.6e-5,-0.4044036 -0.243599,-0.7689933 -0.617187,-0.9238282 -0.09097,-0.038013 -0.187061,-0.062365 -0.285157,-0.072266 -0.03725,-0.00362 -0.07432,-0.00445 -0.1113279,-0.00391 z M 10,7.7109375 V 16.289062 L 7.7109375,14 H 6 C 5.4460024,14 5,13.553997 5,13 v -2 c 0,-0.553998 0.4460024,-1 1,-1 h 1.7109375 z m 3.878906,1.3789063 c -0.127809,0 -0.255581,0.04855 -0.353515,0.1464843 -0.195869,0.1958683 -0.195868,0.5111625 0,0.7070313 l 2.060547,2.0605466 -2.060547,2.060547 c -0.195859,0.195878 -0.195869,0.511164 0,0.707031 0.195868,0.195869 0.511172,0.195879 0.707031,0 l 2.060547,-2.060546 2.060547,2.060546 c 0.195868,0.195869 0.511162,0.195869 0.707031,0 0.195868,-0.195867 0.195868,-0.511164 0,-0.707031 L 17,12.003906 19.060547,9.9433594 c 0.195877,-0.1958585 0.195868,-0.5111629 0,-0.7070313 -0.195869,-0.1958683 -0.511155,-0.1958584 -0.707031,0 L 16.292969,11.296875 14.232422,9.2363281 C 14.134487,9.1383941 14.006716,9.0898438 13.878906,9.0898438 Z" />
</svg>
