<?xml version="1.0" encoding="UTF-8" standalone="no"?>
<!-- Created with Inkscape (http://www.inkscape.org/) -->

<svg
   width="24"
   height="24"
   viewBox="0 0 24 24"
   version="1.1"
   id="svg2098"
   sodipodi:docname="network-unavailable-symbolic.svg"
   inkscape:version="1.4.2 (ebf0e940d0, 2025-05-08)"
   xmlns:inkscape="http://www.inkscape.org/namespaces/inkscape"
   xmlns:sodipodi="http://sodipodi.sourceforge.net/DTD/sodipodi-0.dtd"
   xmlns="http://www.w3.org/2000/svg"
   xmlns:svg="http://www.w3.org/2000/svg">
  <sodipodi:namedview
     id="namedview2100"
     pagecolor="#ffffff"
     bordercolor="#000000"
     borderopacity="0.25"
     inkscape:showpageshadow="2"
     inkscape:pageopacity="0.0"
     inkscape:pagecheckerboard="0"
     inkscape:deskcolor="#d1d1d1"
     inkscape:document-units="px"
     showgrid="false"
     inkscape:zoom="33.041667"
     inkscape:cx="12"
     inkscape:cy="12"
     inkscape:window-width="1920"
     inkscape:window-height="1007"
     inkscape:window-x="0"
     inkscape:window-y="0"
     inkscape:window-maximized="1"
     inkscape:current-layer="svg2098" />
  <defs
     id="defs2">
    <style
       id="current-color-scheme"
       type="text/css">
        .ColorScheme-Text { color:#dedede; } .ColorScheme-Highlight { color:#4285f4; } .ColorScheme-NeutralText { color:#ff9800; } .ColorScheme-PositiveText { color:#4caf50; } .ColorScheme-NegativeText { color:#f44336; }
     </style>
  </defs>
  <path
     d="M 11.999997,4 C 11.91036,4 11.822539,4.00792 11.734372,4.019531 8.5830008,4.1288764 5.7898366,6.0791964 4.6015593,8.9999998 h -0.013672 c -0.1312064,0.3257697 -0.2408185,0.6598257 -0.328125,1 h 0.00977 C 4.0956246,10.652616 4.0050605,11.324629 4.0000007,12 c 0.00506,0.675371 0.095624,1.347383 0.2695313,2 h -0.00977 c 0.087307,0.340174 0.1969186,0.67423 0.328125,1 h 0.013672 c 1.1882773,2.920804 3.9814414,4.871124 7.132813,4.980469 0.08817,0.01161 0.175988,0.01953 0.265625,0.01953 0.08964,0 0.177457,-0.0079 0.265625,-0.01953 0.245863,-0.01472 0.490916,-0.04079 0.734375,-0.07813 V 18.595703 C 12.687063,18.855254 12.351377,19 11.999997,19 11.940697,18.9962 11.881446,18.9916 11.822262,18.98633 10.702434,18.833521 9.7507796,17.24454 9.2929653,15.000002 h 3.7070317 v -1 H 9.1249965 c -0.080913,-0.634009 -0.125,-1.304655 -0.125,-2 0,-0.695345 0.044087,-1.365992 0.125,-2 h 5.7500005 c 0.08091,0.634008 0.125,1.304655 0.125,2 0,0.339604 -0.0091,0.67357 -0.0293,1 h 0.99805 c 0.02018,-0.327637 0.03125,-0.661472 0.03125,-1 0,-0.690355 -0.04279,-1.360964 -0.125,-2 h 2.832031 c 0.193902,0.648982 0.292587,1.32267 0.292969,2 -8.02e-4,0.334679 -0.02561,0.66887 -0.07422,1 h 1.001953 c 0.04497,-0.331494 0.06911,-0.665484 0.07227,-1 -0.0051,-0.675371 -0.09563,-1.347383 -0.269532,-2 h 0.01563 c -0.08795,-0.340221 -0.198213,-0.6742778 -0.330082,-1 h -0.01758 C 18.210157,6.0791964 15.416993,4.1288764 12.265622,4.0195312 12.177454,4.0079213 12.089633,4.0000003 11.999997,4 Z m 0,1 c 1.19598,-1e-7 2.225153,1.6374841 2.707031,4 H 9.2929656 C 9.75078,6.7554627 10.702435,5.1664809 11.822262,5.0136719 11.881446,5.0083619 11.940696,5.0038019 11.999997,5 Z m 2.236328,0.3671875 C 16.034448,5.9741767 17.509052,7.2852487 18.322263,9 H 15.708981 C 15.408387,7.5156418 14.891343,6.2522305 14.236325,5.3671875 Z m -4.4765626,0.00586 C 9.1067012,6.2578133 8.5909756,7.5187621 8.2910124,9 H 5.6894499 C 6.5003282,7.2906365 7.9686001,5.9822964 9.7597624,5.3730475 Z M 5.3027312,10 h 2.8222656 c -0.082208,0.639036 -0.125,1.309645 -0.125,2 0,0.690355 0.042792,1.360964 0.125,2 H 5.3027312 C 5.105521,13.351506 5.0035451,12.677807 4.9999968,12 5.0035448,11.322192 5.105521,10.648494 5.3027312,10 Z m 0.3867187,5 h 2.6015625 c 0.2999632,1.481239 0.8156887,2.742187 1.46875,3.626953 C 7.9686001,18.017704 6.5003283,16.709363 5.6894499,15 Z m 13.6034371,-0.656855 -2.121319,2.12132 -2.12132,-2.12132 -0.707107,0.707107 2.121319,2.12132 -2.121319,2.12132 0.707107,0.707107 2.12132,-2.12132 2.12132,2.12132 0.707107,-0.707107 -2.12132,-2.12132 2.12132,-2.12132 z"
     style="fill:currentColor"
     class="ColorScheme-Text"
     id="path1" />
</svg>
