<?xml version="1.0" encoding="UTF-8" standalone="no"?>
<!-- Created with Inkscape (http://www.inkscape.org/) -->

<svg
   width="16"
   height="16"
   viewBox="0 0 16 16.000001"
   version="1.1"
   id="svg5"
   inkscape:version="1.4.2 (ebf0e940d0, 2025-05-08)"
   sodipodi:docname="xapp-prefs-preview-symbolic.svg"
   xmlns:inkscape="http://www.inkscape.org/namespaces/inkscape"
   xmlns:sodipodi="http://sodipodi.sourceforge.net/DTD/sodipodi-0.dtd"
   xmlns="http://www.w3.org/2000/svg"
   xmlns:svg="http://www.w3.org/2000/svg">
  <sodipodi:namedview
     id="namedview7"
     pagecolor="#ffffff"
     bordercolor="#000000"
     borderopacity="0.25"
     inkscape:showpageshadow="2"
     inkscape:pageopacity="0.0"
     inkscape:pagecheckerboard="0"
     inkscape:deskcolor="#d1d1d1"
     inkscape:document-units="px"
     showgrid="false"
     inkscape:zoom="33.041667"
     inkscape:cx="8.0050441"
     inkscape:cy="8.0050441"
     inkscape:window-width="1920"
     inkscape:window-height="1011"
     inkscape:window-x="0"
     inkscape:window-y="0"
     inkscape:window-maximized="1"
     inkscape:current-layer="svg5" />
  <defs
     id="defs2">
    <style
       id="current-color-scheme"
       type="text/css">
        .ColorScheme-Text { color:#dedede; } .ColorScheme-Highlight { color:#4285f4; } .ColorScheme-NeutralText { color:#ff9800; } .ColorScheme-PositiveText { color:#4caf50; } .ColorScheme-NegativeText { color:#f44336; }
     </style>
  </defs>
  <path
     id="path1"
     style="fill:currentColor;fill-opacity:1"
     class="ColorScheme-Text"
     d="M 2,0 C 0.8920033,0 0,0.8920033 0,2 v 12 c 0,1.107997 0.8920033,2 2,2 h 12 c 1.107997,0 2,-0.892003 2,-2 V 2 C 16,0.8920033 15.107997,0 14,0 Z m 0,1 h 12 c 0.553997,0 1,0.4460018 1,1 V 13.171875 L 9.414063,7.587891 C 9.022327,7.196155 8.511237,7 8,7 7.488763,7 6.977673,7.196155 6.585938,7.587891 L 1,13.171875 V 2 C 1,1.4460018 1.4460018,1 2,1 Z m 10,2 c -1.104567,0 -2,0.8954327 -2,2 0,1.104567 0.895433,2 2,2 1.104567,0 2,-0.895433 2,-2 0,-1.1045673 -0.895433,-2 -2,-2 z m 0,1 c 0.552283,-3e-7 1,0.4477164 1,1 0,0.5522835 -0.447717,1 -1,1 C 11.447717,6 11,5.5522835 11,5 11,4.4477164 11.447717,3.9999997 12,4 Z M 8,8.001953 c 0.255581,0 0.511163,0.0971 0.707031,0.292969 l 6.173828,6.169922 v 0.002 C 14.713398,14.783443 14.384479,15 14,15 H 2 C 1.6149052,15 1.2863416,14.782323 1.1191406,14.464844 L 7.292969,8.294922 C 7.488837,8.099054 7.744419,8.001953 8,8.001953 Z" />
</svg>
