<?xml version="1.0" encoding="UTF-8" standalone="no"?>
<svg
   width="22"
   height="22"
   version="1.1"
   viewBox="0 0 22 22"
   id="svg6"
   sodipodi:docname="drive-harddisk-system.svg"
   inkscape:version="1.2.1 (9c6d41e410, 2022-07-14, custom)"
   xmlns:inkscape="http://www.inkscape.org/namespaces/inkscape"
   xmlns:sodipodi="http://sodipodi.sourceforge.net/DTD/sodipodi-0.dtd"
   xmlns:xlink="http://www.w3.org/1999/xlink"
   xmlns="http://www.w3.org/2000/svg"
   xmlns:svg="http://www.w3.org/2000/svg"
   xmlns:rdf="http://www.w3.org/1999/02/22-rdf-syntax-ns#"
   xmlns:cc="http://creativecommons.org/ns#"
   xmlns:dc="http://purl.org/dc/elements/1.1/">
  <defs
     id="defs10">
    <linearGradient
       inkscape:collect="always"
       id="linearGradient58462">
      <stop
         style="stop-color:#636363;stop-opacity:1;"
         offset="0"
         id="stop58458" />
      <stop
         style="stop-color:#ababab;stop-opacity:0.99607843"
         offset="1"
         id="stop58460" />
    </linearGradient>
    <linearGradient
       inkscape:collect="always"
       id="linearGradient50927">
      <stop
         style="stop-color:#000000;stop-opacity:1;"
         offset="0"
         id="stop50923" />
      <stop
         style="stop-color:#000000;stop-opacity:0;"
         offset="1"
         id="stop50925" />
    </linearGradient>
    <linearGradient
       inkscape:collect="always"
       id="linearGradient48004">
      <stop
         style="stop-color:#ffffff;stop-opacity:0"
         offset="0"
         id="stop48000" />
      <stop
         style="stop-color:#ffffff;stop-opacity:1"
         offset="0.50032598"
         id="stop48328" />
      <stop
         style="stop-color:#ffffff;stop-opacity:0;"
         offset="1"
         id="stop48002" />
    </linearGradient>
    <linearGradient
       inkscape:collect="always"
       id="linearGradient10484">
      <stop
         style="stop-color:#2e2e2e;stop-opacity:1;"
         offset="0"
         id="stop10480" />
      <stop
         style="stop-color:#616161;stop-opacity:1"
         offset="1"
         id="stop10482" />
    </linearGradient>
    <linearGradient
       inkscape:collect="always"
       xlink:href="#linearGradient48004"
       id="linearGradient1287"
       x1="5.5561409"
       y1="4.497828"
       x2="6.6144533"
       y2="3.4395156"
       gradientUnits="userSpaceOnUse"
       gradientTransform="matrix(3.779602,0,0,3.779602,-1,4.0000002)" />
    <linearGradient
       inkscape:collect="always"
       xlink:href="#linearGradient58462"
       id="linearGradient1616"
       x1="6.0852971"
       y1="1.8520468"
       x2="6.0852971"
       y2="3.9686718"
       gradientUnits="userSpaceOnUse"
       gradientTransform="matrix(3.779602,0,0,3.779602,-1,4.0000002)" />
    <linearGradient
       inkscape:collect="always"
       xlink:href="#linearGradient48004"
       id="linearGradient1886"
       x1="-0.2645781"
       y1="3.4395156"
       x2="0.79373461"
       y2="4.497828"
       gradientUnits="userSpaceOnUse"
       gradientTransform="matrix(3.779602,0,0,3.779602,-1,4.0000002)" />
    <linearGradient
       inkscape:collect="always"
       xlink:href="#linearGradient10484"
       id="linearGradient2337"
       x1="5.8207188"
       y1="1.8520468"
       x2="5.820322"
       y2="3.4402168"
       gradientUnits="userSpaceOnUse"
       gradientTransform="matrix(3.779602,0,0,3.779602,-1,4.0000002)" />
    <linearGradient
       inkscape:collect="always"
       xlink:href="#linearGradient50927"
       id="linearGradient7996"
       x1="6.1514416"
       y1="1.5874687"
       x2="5.7176604"
       y2="1.970152"
       gradientUnits="userSpaceOnUse"
       gradientTransform="matrix(3.779602,0,0,3.779602,-1,4.0000002)" />
    <linearGradient
       inkscape:collect="always"
       xlink:href="#linearGradient50927"
       id="linearGradient9665"
       x1="0.42189243"
       y1="1.5634823"
       x2="0.80732602"
       y2="1.8611001"
       gradientUnits="userSpaceOnUse"
       gradientTransform="matrix(3.779602,0,0,3.779602,-1,4.0000002)" />
    <linearGradient
       inkscape:collect="always"
       xlink:href="#linearGradient4676"
       id="linearGradient17588"
       gradientUnits="userSpaceOnUse"
       gradientTransform="matrix(1.8898017,0,0,1.8898017,-1.0000017,-1.5000037)"
       x1="5.2915626"
       y1="7.2758985"
       x2="0.52915633"
       y2="0.92602324" />
    <linearGradient
       inkscape:collect="always"
       id="linearGradient4676">
      <stop
         style="stop-color:#333333;stop-opacity:1;"
         offset="0"
         id="stop4672" />
      <stop
         style="stop-color:#696969;stop-opacity:1"
         offset="1"
         id="stop4674" />
    </linearGradient>
    <linearGradient
       inkscape:collect="always"
       xlink:href="#linearGradient4970"
       id="linearGradient4972"
       x1="7"
       y1="17.5"
       x2="19"
       y2="27.5"
       gradientUnits="userSpaceOnUse"
       gradientTransform="matrix(0.60000015,0,0,0.47058832,-2.2000022,-1.2352971)" />
    <linearGradient
       inkscape:collect="always"
       id="linearGradient4970">
      <stop
         style="stop-color:#ffffff;stop-opacity:1;"
         offset="0"
         id="stop4966" />
      <stop
         style="stop-color:#cccccc;stop-opacity:1"
         offset="1"
         id="stop4968" />
    </linearGradient>
    <linearGradient
       inkscape:collect="always"
       xlink:href="#linearGradient9529"
       id="linearGradient9531"
       x1="2.6457813"
       y1="2.3812032"
       x2="3.7040937"
       y2="3.4395156"
       gradientUnits="userSpaceOnUse"
       gradientTransform="matrix(1.8898017,0,0,1.8898017,-1.0000017,-1.5000037)" />
    <linearGradient
       inkscape:collect="always"
       id="linearGradient9529">
      <stop
         style="stop-color:#f8c93b;stop-opacity:1"
         offset="0"
         id="stop9525" />
      <stop
         style="stop-color:#ea8908;stop-opacity:1"
         offset="1"
         id="stop9527" />
    </linearGradient>
    <linearGradient
       inkscape:collect="always"
       xlink:href="#linearGradient4676"
       id="linearGradient20018"
       gradientUnits="userSpaceOnUse"
       gradientTransform="matrix(1.8898017,0,0,1.8898017,-1.0000017,-1.5000037)"
       x1="5.2915626"
       y1="7.2758985"
       x2="0.52915633"
       y2="0.92602324" />
    <linearGradient
       inkscape:collect="always"
       xlink:href="#linearGradient4676"
       id="linearGradient20020"
       gradientUnits="userSpaceOnUse"
       gradientTransform="matrix(1.8898017,0,0,1.8898017,-1.0000017,-1.5000037)"
       x1="5.2915626"
       y1="7.2758985"
       x2="0.52915633"
       y2="0.92602324" />
  </defs>
  <sodipodi:namedview
     id="namedview8"
     pagecolor="#ffffff"
     bordercolor="#666666"
     borderopacity="1.0"
     inkscape:pageshadow="2"
     inkscape:pageopacity="0.0"
     inkscape:pagecheckerboard="0"
     showgrid="false"
     inkscape:zoom="36.727273"
     inkscape:cx="11"
     inkscape:cy="11"
     inkscape:window-width="1920"
     inkscape:window-height="1010"
     inkscape:window-x="0"
     inkscape:window-y="0"
     inkscape:window-maximized="1"
     inkscape:current-layer="svg6"
     inkscape:showpageshadow="2"
     inkscape:deskcolor="#d1d1d1" />
  <metadata
     id="metadata2">
    <rdf:RDF>
      <cc:Work
         rdf:about="">
        <dc:format>image/svg+xml</dc:format>
        <dc:type
           rdf:resource="http://purl.org/dc/dcmitype/StillImage" />
      </cc:Work>
    </rdf:RDF>
  </metadata>
  <path
     id="rect2936"
     style="opacity:1;fill:#e1e3e6;stroke-width:1;stroke-linecap:round;stroke-linejoin:round"
     d="m 5.0000003,6 c -4e-7,0 -3.1847562,3.5488818 -4.75000034,5.375 0,0 0.64199997,2.625 1.74999994,2.625 H 20 c 1.108,0 1.749999,-2.625 1.749999,-2.625 L 17,6 Z"
     sodipodi:nodetypes="ccccccc" />
  <path
     d="m 4.9999999,6 c 0,0 -3.1847562,3.5488818 -4.75000013,5.375 0,0 0.64199978,2.625 1.74999993,2.625 H 20 c 1.108,0 1.75,-2.625 1.75,-2.625 L 17,6 Z"
     style="opacity:0.3;fill:url(#linearGradient9665);fill-opacity:1;stroke-width:1;stroke-linecap:round;stroke-linejoin:round"
     id="path9568" />
  <path
     d="m 4.9999999,6 -4.74999998,5.375 c 0,0 0.64200001,2.625 1.74999988,2.625 H 20 c 1.108,0 1.75,-2.625 1.75,-2.625 L 17,6 Z"
     style="opacity:0.3;fill:url(#linearGradient7996);fill-opacity:1;stroke-width:1;stroke-linecap:round;stroke-linejoin:round"
     id="path7862"
     sodipodi:nodetypes="ccssccc" />
  <rect
     style="fill:url(#linearGradient1616);fill-opacity:1;stroke-width:1;stroke-linecap:round;stroke-linejoin:round"
     id="rect1153"
     width="22"
     height="7"
     x="0"
     y="11"
     ry="1" />
  <rect
     style="opacity:0.4;fill:url(#linearGradient1287);fill-opacity:1;stroke-width:1;stroke-linecap:round;stroke-linejoin:round"
     id="rect1257"
     width="22"
     height="7"
     x="0"
     y="11"
     ry="1" />
  <rect
     style="opacity:0.4;fill:url(#linearGradient1886);fill-opacity:1;stroke-width:1;stroke-linecap:round;stroke-linejoin:round"
     id="rect1878"
     width="22"
     height="7"
     x="0"
     y="11"
     ry="1" />
  <path
     id="rect2212"
     style="opacity:1;fill:url(#linearGradient2337);stroke-width:1;stroke-linecap:round;stroke-linejoin:round"
     d="m 21,11 v 5 c 0,0.554 -0.446,1 -1,1 H 2.0000001 c -0.554,0 -1,-0.446 -1,-1 v -5 z"
     sodipodi:nodetypes="csssscc" />
  <circle
     style="fill:#12ff12;fill-opacity:1;stroke-width:0.800002;stroke-linecap:round;stroke-linejoin:round;stroke-dasharray:9.6, 0.800002"
     id="path30449"
     cx="4"
     cy="14"
     r="1" />
  <path
     id="path879"
     style="fill:url(#linearGradient20018);fill-opacity:1;stroke-width:0.312501;stroke-linejoin:round"
     d="m 5.0000003,-2.4e-6 c -1.3807116,0 -2.5000005,1.1192886 -2.5000005,2.5000011 3e-7,4.0000019 -1.5000006,3.7500019 -1.5000006,6.000002 0,2.2091403 1.7908618,4.0000033 4.0000011,4.0000033 2.2091397,0 4.0000022,-1.790863 4.0000022,-4.0000033 0,-2.2500001 -1.5000013,-2.0000001 -1.5000013,-6.0000021 0,-1.3807124 -1.1192885,-2.500001 -2.5000009,-2.500001 z"
     sodipodi:nodetypes="sccsccs" />
  <path
     style="fill:#eab108;stroke-width:0.25"
     d="m 2.6314266,12.983784 c -0.1054626,-0.01675 -0.1987215,-0.04808 -0.4030589,-0.136026 -0.304224,-0.130974 -0.4460845,-0.173449 -1.0028952,-0.3002 -0.2777397,-0.0632 -0.3812487,-0.0913 -0.62230931,-0.169074 -0.087689,-0.02828 -0.20456497,-0.06438 -0.25972378,-0.0802 -0.14973683,-0.04298 -0.18943485,-0.05968 -0.24429536,-0.102775 -0.07484,-0.05877 -0.10971812,-0.14945 -0.096342,-0.250427 0.00858,-0.06473 0.031223,-0.126927 0.093742,-0.257399 0.083559,-0.174424 0.15110666,-0.237173 0.16383449,-0.408825 0.00748,-0.100998 0.00135,-0.214598 -0.024352,-0.451099 -0.0152134,-0.139926 -0.01869,-0.191502 -0.018909,-0.280575 -2.294e-4,-0.09663 0.00101,-0.238901 0.01098,-0.2757 0.037463,-0.138397 0.065979,-0.218249 0.19860336,-0.2527 0.038389,-0.01001 0.063157,-0.01154 0.24331837,-0.01502 0.11215214,-0.0025 0.21191595,-0.0065 0.22629385,-0.0098 0.077707,-0.0175 0.13427988,-0.04675 0.18700338,-0.09688 0.050222,-0.04775 0.084595,-0.09645 0.1501467,-0.21275 0.1020434,-0.179528 0.3033497,-0.177751 0.4677377,-0.1844 0.046606,0.0098 0.062104,0.01625 0.1131457,0.04553 0.051371,0.02959 0.065906,0.04125 0.1105758,0.0887 0.1124157,0.1194243 0.1660834,0.193127 0.4182264,0.5740497 0.1998426,0.302002 0.260902,0.3986 0.3414569,0.540302 0.087751,0.154373 0.245946,0.402025 0.3045906,0.47685 0.00994,0.01273 0.070781,0.08975 0.1352085,0.171223 0.064426,0.08155 0.1233515,0.157825 0.1309372,0.169549 0.1209943,0.168348 0.205928,0.361776 0.236142,0.555099 0.010157,0.06735 0.010514,0.07875 0.0048,0.155876 -0.0072,0.0979 -0.013486,0.139751 -0.02411,0.161124 -0.0043,0.0085 -0.013629,0.03198 -0.02086,0.05195 -0.09251,0.257072 -0.323096,0.44995 -0.5902304,0.49375 -0.056806,0.0093 -0.1694508,0.0093 -0.22969,0 z"
     id="path12" />
  <path
     style="fill:#eab108;stroke-width:0.25"
     d="m 7.368573,12.984002 c 0.1054613,-0.01674 0.1987202,-0.04808 0.4030582,-0.136024 0.3042242,-0.130975 0.4460851,-0.173451 1.0028963,-0.300199 0.27774,-0.0632 0.381248,-0.0913 0.6223092,-0.169076 0.08769,-0.02827 0.204564,-0.06438 0.2597236,-0.0802 0.1497364,-0.04298 0.189433,-0.05968 0.244294,-0.102775 0.07484,-0.05877 0.1097177,-0.14945 0.09634,-0.250427 -0.0086,-0.06473 -0.03122,-0.126923 -0.09374,-0.257398 -0.08356,-0.174425 -0.151105,-0.237174 -0.163835,-0.408825 -0.0075,-0.101 -0.0014,-0.214599 0.02434,-0.4511 0.015184,-0.139926 0.01867,-0.191501 0.0189,-0.280575 2.31e-4,-0.09663 -9.99e-4,-0.238901 -0.010957,-0.275699 -0.03745,-0.138402 -0.06598,-0.21825 -0.1986025,-0.252702 -0.03839,-0.01 -0.06316,-0.01149 -0.2433189,-0.01501 -0.1121514,-0.0025 -0.2119152,-0.0065 -0.2262922,-0.0098 -0.077715,-0.017501 -0.1342871,-0.046751 -0.1870093,-0.096881 -0.05022,-0.04775 -0.0846,-0.09645 -0.1501435,-0.21275 C 8.6644964,9.5050352 8.4631874,9.5068112 8.2988004,9.5001632 c -0.04661,0.0098 -0.0621,0.01625 -0.1131457,0.04552 -0.05137,0.02959 -0.06591,0.04125 -0.1105757,0.0887 -0.1124157,0.1194242 -0.1660834,0.193126 -0.4182264,0.5740498 -0.199843,0.302001 -0.260902,0.3986 -0.341457,0.5403 -0.08775,0.154373 -0.245946,0.402025 -0.30459,0.47685 -0.0099,0.01277 -0.07078,0.08975 -0.1352086,0.171227 -0.06443,0.08155 -0.1233514,0.157825 -0.1309371,0.169549 -0.1209886,0.168348 -0.205928,0.361776 -0.236142,0.5551 -0.010157,0.06735 -0.010514,0.07875 -0.0048,0.155876 0.0072,0.0979 0.013486,0.139751 0.02411,0.161124 0.0043,0.0085 0.013643,0.03198 0.02086,0.05195 0.09251,0.257073 0.3230951,0.44995 0.5902291,0.49375 0.05681,0.0093 0.1694549,0.0093 0.2296909,0 z"
     id="path12-6" />
  <path
     id="path879-3"
     style="fill:url(#linearGradient4972);fill-opacity:1;stroke-width:0.166054;stroke-linejoin:round"
     d="m 4.9999993,2.9999989 c -0.8284271,0 -1.4999997,0.526724 -1.4999997,1.1764708 C 3.4933996,5.7542336 2.028373,7.2432236 1.9999991,8.6470587 1.9999991,9.9465532 3.3431456,11 4.9999993,11 6.6568547,11 8.0000002,9.9465532 8.0000002,8.6470587 7.9928003,7.2611626 6.5336817,5.8168936 6.4999997,4.1764697 c 0,-0.6497468 -0.6715731,-1.1764708 -1.5000004,-1.1764708 z"
     sodipodi:nodetypes="sccsccs" />
  <path
     id="path879-6"
     style="fill:url(#linearGradient20020);fill-opacity:1;stroke-width:0.312501;stroke-linejoin:round"
     d="m 1.9296868,8.8095717 c -0.4142136,0 -0.7500001,0.3357872 -0.7500001,0.7500005 0,0.214712 0.1573983,0.5678858 0.3667088,0.8582868 0.1944852,0.26983 0.4337892,0.485463 0.6332916,0.485463 0.4142136,0 0.3701176,-0.9891068 0.3701176,-1.4033208 0,-0.2372113 -0.205905,-0.6904295 -0.6201179,-0.6904295 z"
     sodipodi:nodetypes="ssssss" />
  <path
     id="path879-1"
     style="fill:url(#linearGradient17588);fill-opacity:1;stroke-width:0.312501;stroke-linejoin:round"
     d="m 8.0507833,8.8095717 c -0.4013341,0.013786 -0.6005861,0.4569252 -0.6005861,0.6904295 0,0.414214 -0.0441,1.4033208 0.370118,1.4033208 0.199502,0 0.4383281,-0.21552 0.6328121,-0.485351 0.2093111,-0.290402 0.3671891,-0.6436878 0.3671891,-0.8583988 0,-0.4142143 -0.3357881,-0.7500005 -0.7500001,-0.7500005 -0.0065,0 -0.013143,-2.19e-4 -0.01954,0 z" />
  <path
     id="path13003"
     style="fill:#ffffff;stroke-width:0.82808;stroke-linecap:round;stroke-linejoin:round"
     d="M 4.2500002,1.499998 A 0.7500002,1.0000003 0 0 0 3.5000001,2.4999982 0.7500002,1.0000003 0 0 0 4.2500002,3.4999986 0.7500002,1.0000003 0 0 0 5.0000003,2.4999982 0.7500002,1.0000003 0 0 0 4.2500002,1.499998 Z M 5.0000003,2.4999982 A 0.7500002,1.0000003 0 0 0 5.7500006,3.4999986 0.7500002,1.0000003 0 0 0 6.5000007,2.4999982 0.7500002,1.0000003 0 0 0 5.7500006,1.499998 0.7500002,1.0000003 0 0 0 5.0000003,2.4999982 Z" />
  <path
     id="path10049"
     style="fill:#1a1a1a;fill-opacity:1;stroke-width:0.5;stroke-linejoin:round"
     d="m 4.2500012,1.9999985 a 0.25000013,0.50000024 0 0 0 -0.2500025,0.5 0.25000013,0.50000024 0 0 0 0.2500025,0.5000001 0.25000013,0.50000024 0 0 0 0.2500023,-0.5000001 0.25000013,0.50000024 0 0 0 -0.2500023,-0.5 z m 1.5000004,0 a 0.25000013,0.50000024 0 0 0 -0.250002,0.5 0.25000013,0.50000024 0 0 0 0.250002,0.5000001 0.25000013,0.50000024 0 0 0 0.2500021,-0.5000001 0.25000013,0.50000024 0 0 0 -0.2500021,-0.5 z" />
  <path
     id="path5299"
     style="fill:url(#linearGradient9531);fill-opacity:1;stroke-width:0.5;stroke-linejoin:round"
     d="M 6.0000006,3.7499996 C 6.0000006,4.3022846 5.5522857,5 5.0000003,5 4.4477155,5 4.0000002,4.3022846 4.0000002,3.7499996 c 0,-0.5522853 0.4477153,-0.7500004 1.0000001,-0.7500004 0.5522854,0 1.0000003,0.197715 1.0000003,0.7500004 z"
     sodipodi:nodetypes="sssss" />
</svg>
