<?xml version="1.0" encoding="UTF-8" standalone="no"?>
<!-- Created with Inkscape (http://www.inkscape.org/) -->

<svg
   width="22"
   height="22"
   viewBox="0 0 22 22"
   version="1.1"
   id="svg2112"
   inkscape:version="1.2.1 (9c6d41e410, 2022-07-14, custom)"
   sodipodi:docname="media-optical.svg"
   xmlns:inkscape="http://www.inkscape.org/namespaces/inkscape"
   xmlns:sodipodi="http://sodipodi.sourceforge.net/DTD/sodipodi-0.dtd"
   xmlns:xlink="http://www.w3.org/1999/xlink"
   xmlns="http://www.w3.org/2000/svg"
   xmlns:svg="http://www.w3.org/2000/svg">
  <sodipodi:namedview
     id="namedview2114"
     pagecolor="#ffffff"
     bordercolor="#000000"
     borderopacity="0.25"
     inkscape:showpageshadow="2"
     inkscape:pageopacity="0.0"
     inkscape:pagecheckerboard="0"
     inkscape:deskcolor="#d1d1d1"
     inkscape:document-units="px"
     showgrid="false"
     inkscape:zoom="36.727273"
     inkscape:cx="11.040842"
     inkscape:cy="11.027228"
     inkscape:window-width="1920"
     inkscape:window-height="1011"
     inkscape:window-x="0"
     inkscape:window-y="0"
     inkscape:window-maximized="1"
     inkscape:current-layer="svg2112"
     showguides="false" />
  <defs
     id="defs2109">
    <linearGradient
       inkscape:collect="always"
       xlink:href="#linearGradient162116"
       id="linearGradient162118"
       x1="96.408417"
       y1="238.0069"
       x2="127.77626"
       y2="238.0069"
       gradientUnits="userSpaceOnUse"
       gradientTransform="matrix(0.63759547,0,0,0.61519777,-60.469564,-135.42132)" />
    <linearGradient
       inkscape:collect="always"
       id="linearGradient162116">
      <stop
         style="stop-color:#e3edee;stop-opacity:1;"
         offset="0"
         id="stop162112" />
      <stop
         style="stop-color:#c9cdce;stop-opacity:1"
         offset="1"
         id="stop162114" />
    </linearGradient>
    <linearGradient
       inkscape:collect="always"
       xlink:href="#linearGradient219586"
       id="linearGradient1031"
       gradientUnits="userSpaceOnUse"
       gradientTransform="matrix(0.63759547,0,0,0.61519781,-60.469561,-135.42132)"
       x1="112.09232"
       y1="238.0069"
       x2="112.17286"
       y2="254.33937" />
    <linearGradient
       inkscape:collect="always"
       id="linearGradient219586">
      <stop
         style="stop-color:#b9bfbf;stop-opacity:1;"
         offset="0"
         id="stop219582" />
      <stop
         style="stop-color:#aaacab;stop-opacity:1"
         offset="1"
         id="stop219584" />
    </linearGradient>
    <linearGradient
       inkscape:collect="always"
       xlink:href="#linearGradient2496"
       id="linearGradient2498"
       x1="16.424316"
       y1="54.63533"
       x2="32.331596"
       y2="38.452602"
       gradientUnits="userSpaceOnUse"
       gradientTransform="matrix(0.62499998,0,0,0.62499998,0.37499988,-14)" />
    <linearGradient
       inkscape:collect="always"
       id="linearGradient2496">
      <stop
         style="stop-color:#ffffff;stop-opacity:0.5"
         offset="0"
         id="stop2492" />
      <stop
         style="stop-color:#ffffff;stop-opacity:0"
         offset="0.44999999"
         id="stop3080" />
      <stop
         style="stop-color:#ffffff;stop-opacity:1"
         offset="0.5"
         id="stop2756" />
      <stop
         style="stop-color:#ffffff;stop-opacity:0"
         offset="0.55000001"
         id="stop3014" />
      <stop
         style="stop-color:#ffffff;stop-opacity:0.2"
         offset="1"
         id="stop2494" />
    </linearGradient>
    <linearGradient
       inkscape:collect="always"
       xlink:href="#linearGradient11941"
       id="linearGradient11943"
       x1="5.1081543"
       y1="42.191895"
       x2="7.4692383"
       y2="33.279785"
       gradientUnits="userSpaceOnUse"
       gradientTransform="matrix(0.62499998,0,0,0.62499998,0.37499988,-14)" />
    <linearGradient
       inkscape:collect="always"
       id="linearGradient11941">
      <stop
         style="stop-color:#f89af4;stop-opacity:0"
         offset="0"
         id="stop11937" />
      <stop
         style="stop-color:#f89af4;stop-opacity:0"
         offset="0.40000001"
         id="stop12523" />
      <stop
         style="stop-color:#f89af4;stop-opacity:1"
         offset="0.5"
         id="stop12201" />
      <stop
         style="stop-color:#f89af4;stop-opacity:0"
         offset="0.60000002"
         id="stop12781" />
      <stop
         style="stop-color:#f89af4;stop-opacity:0;"
         offset="1"
         id="stop11939" />
    </linearGradient>
    <linearGradient
       inkscape:collect="always"
       xlink:href="#linearGradient16450"
       id="linearGradient16452"
       x1="17.605227"
       y1="29.40974"
       x2="27.150551"
       y2="39.243584"
       gradientUnits="userSpaceOnUse"
       gradientTransform="matrix(0.62499998,0,0,0.62499998,0.37499988,-14)" />
    <linearGradient
       inkscape:collect="always"
       id="linearGradient16450">
      <stop
         style="stop-color:#6fef7e;stop-opacity:0"
         offset="0"
         id="stop16446" />
      <stop
         style="stop-color:#6fef7e;stop-opacity:0"
         offset="0.44792882"
         id="stop17132" />
      <stop
         style="stop-color:#6fef7e;stop-opacity:1"
         offset="0.5"
         id="stop16680" />
      <stop
         style="stop-color:#6fef7e;stop-opacity:0"
         offset="0.55000001"
         id="stop16938" />
      <stop
         style="stop-color:#6fef7e;stop-opacity:0;"
         offset="1"
         id="stop16448" />
    </linearGradient>
  </defs>
  <path
     id="path151229"
     style="fill:url(#linearGradient162118);fill-opacity:1;stroke-width:0.828544;stroke-linecap:round;stroke-linejoin:round"
     d="m 11,1 c -5.5228422,2e-7 -10.00000044,4.4771578 -10,10 6e-7,5.522841 4.4771586,10 10,10 5.522842,0 9.999999,-4.477159 10,-10 C 21,5.4771575 16.522843,0.99999978 11,1 Z m 0,6 c 2.209137,-1.1e-6 4.000001,1.7908632 4,4 0,2.209137 -1.790863,4.000001 -4,4 C 8.7908643,15 7,13.209137 7,11 7,8.7908637 8.7908632,6.9999997 11,7 Z" />
  <path
     id="path151229-3-3"
     style="fill:url(#linearGradient1031);fill-opacity:1;stroke-width:0.828544;stroke-linecap:round;stroke-linejoin:round"
     d="m 14.990234,11.25 c -0.0081,0.130387 -0.0227,0.26001 -0.04297,0.386719 -0.01529,0.09556 -0.03276,0.190029 -0.05469,0.283203 -0.0438,0.186065 -0.101152,0.365985 -0.169922,0.541016 -0.03427,0.08722 -0.07123,0.173703 -0.111328,0.257812 -0.107262,0.224997 -0.23519,0.437307 -0.380859,0.636719 -0.07189,0.09842 -0.148139,0.193842 -0.228516,0.285156 -9.39e-4,0.0011 -10e-4,0.0028 -0.002,0.0039 -6.1e-4,6.92e-4 -0.0013,0.0013 -0.002,0.002 -0.07447,0.08431 -0.153127,0.164432 -0.234375,0.242188 -0.007,0.0067 -0.01249,0.01483 -0.01953,0.02148 -0.005,0.0047 -0.01057,0.009 -0.01563,0.01367 -6.73e-4,6.28e-4 -0.0013,0.0013 -0.002,0.002 -0.08318,0.07755 -0.1702,0.150395 -0.259765,0.220703 -0.0014,0.0011 -0.0025,0.0028 -0.0039,0.0039 -0.0014,0.0011 -0.0025,0.0028 -0.0039,0.0039 -0.0051,0.004 -0.0105,0.0078 -0.01563,0.01172 -0.08823,0.06819 -0.179571,0.132599 -0.273437,0.193359 -0.0027,0.0018 -0.0051,0.0041 -0.0078,0.0059 -0.0012,7.81e-4 -0.0027,0.0012 -0.0039,0.002 -0.0013,5.87e-4 -0.0027,0.0012 -0.0039,0.002 -0.09881,0.06332 -0.2002,0.123123 -0.304688,0.177734 -0.0013,6.75e-4 -0.0026,0.0013 -0.0039,0.002 -0.0013,6.76e-4 -0.0026,0.0013 -0.0039,0.002 -5.16e-4,2.69e-4 -0.0014,-2.68e-4 -0.002,0 -0.0014,4.04e-4 -0.0026,0.0013 -0.0039,0.002 -0.100594,0.0521 -0.20324,0.10095 -0.308594,0.144532 -0.02074,0.0086 -0.04159,0.01715 -0.0625,0.02539 -0.0038,0.0015 -0.0079,0.0024 -0.01172,0.0039 -0.09418,0.03677 -0.18961,0.06993 -0.287109,0.09961 -0.01558,0.0047 -0.03122,0.0091 -0.04687,0.01367 -0.111558,0.03246 -0.224491,0.05926 -0.339844,0.08203 -0.0014,2.77e-4 -0.0025,0.0017 -0.0039,0.002 -0.0032,6.37e-4 -0.0065,0.0013 -0.0098,0.002 -0.0051,9.94e-4 -0.01049,9.79e-4 -0.01563,0.002 -0.112083,0.02126 -0.226614,0.03908 -0.341797,0.05078 -0.0053,5.35e-4 -0.01036,0.0014 -0.01563,0.002 -0.0091,8.84e-4 -0.01827,0.0011 -0.02734,0.002 -0.0071,6.48e-4 -0.01433,0.0013 -0.02148,0.002 C 11.23012,14.994075 11.116142,15 11,15 10.861269,15 10.724936,14.9923 10.589844,14.97852 10.522544,14.97162 10.45688,14.96332 10.390625,14.95313 10.324415,14.94301 10.258457,14.9313 10.193359,14.91797 10.063164,14.89133 9.9357986,14.85927 9.8105469,14.82031 9.6852952,14.781355 9.5629976,14.73615 9.4433594,14.685547 9.3237212,14.634944 9.2071045,14.579156 9.09375,14.517578 8.9803955,14.456 8.8700725,14.388289 8.7636719,14.316406 8.6572713,14.244523 8.5538546,14.167455 8.4550781,14.085938 8.3563017,14.00442 8.2623571,13.918607 8.171875,13.828125 L 3.9355469,18.066406 A 10,10 0 0 0 11,21 10,10 0 0 0 20.976562,11.623047 Z" />
  <path
     id="rect2336"
     style="opacity:0.5;fill:url(#linearGradient2498);fill-opacity:1;stroke-width:1.25;stroke-linecap:round;stroke-linejoin:round"
     d="M 8.5761719,1.3066406 A 10,10 0 0 0 1.1777344,9.1582031 L 7.0566406,10.333984 C 7.3201963,8.7614015 8.4998794,7.5004009 10.029297,7.1191406 Z M 14.943359,11.666016 c -0.263555,1.572583 -1.443238,2.833584 -2.972656,3.214843 l 1.453125,5.8125 a 10,10 0 0 0 7.398438,-7.851562 z" />
  <path
     id="path151229-7"
     style="opacity:0.5;fill:url(#linearGradient11943);fill-opacity:1;stroke-width:0.828544;stroke-linecap:round;stroke-linejoin:round"
     d="M 2.1660156,6.3242188 C 1.4015447,7.7645896 1.0018862,9.3693312 1,11 c 0.00189,1.630669 0.4015447,3.23541 1.1660156,4.675781 L 7.4648438,12.871094 C 7.1685457,12.312578 7,11.676299 7,11 7,10.323701 7.1685458,9.6874225 7.4648438,9.1289062 Z" />
  <path
     id="path151229-1"
     style="opacity:0.5;fill:url(#linearGradient16452);fill-opacity:1;stroke-width:0.828544;stroke-linecap:round;stroke-linejoin:round"
     d="m 13.982422,1.4550781 -1.791016,5.7246094 c 1.178957,0.3672993 2.123487,1.2667457 2.554688,2.4160156 L 20.363281,7.4882812 A 10,10 0 0 0 13.982422,1.4550781 Z" />
</svg>
