<?xml version="1.0" encoding="UTF-8" standalone="no"?>
<!-- Created with Inkscape (http://www.inkscape.org/) -->

<svg
   width="22"
   height="22"
   viewBox="0 0 22 22"
   version="1.1"
   id="svg101634"
   inkscape:version="1.2.1 (9c6d41e410, 2022-07-14, custom)"
   sodipodi:docname="media-memory.svg"
   xmlns:inkscape="http://www.inkscape.org/namespaces/inkscape"
   xmlns:sodipodi="http://sodipodi.sourceforge.net/DTD/sodipodi-0.dtd"
   xmlns:xlink="http://www.w3.org/1999/xlink"
   xmlns="http://www.w3.org/2000/svg"
   xmlns:svg="http://www.w3.org/2000/svg">
  <sodipodi:namedview
     id="namedview101636"
     pagecolor="#ffffff"
     bordercolor="#666666"
     borderopacity="1.0"
     inkscape:pageshadow="2"
     inkscape:pageopacity="0.0"
     inkscape:pagecheckerboard="0"
     inkscape:document-units="px"
     showgrid="false"
     units="px"
     inkscape:zoom="38.772727"
     inkscape:cx="10.987104"
     inkscape:cy="11"
     inkscape:window-width="1920"
     inkscape:window-height="1029"
     inkscape:window-x="0"
     inkscape:window-y="0"
     inkscape:window-maximized="1"
     inkscape:current-layer="svg101634"
     inkscape:showpageshadow="2"
     inkscape:deskcolor="#d1d1d1"
     showguides="false" />
  <defs
     id="defs101631">
    <linearGradient
       inkscape:collect="always"
       xlink:href="#linearGradient1668"
       id="linearGradient1662"
       x1="-2"
       y1="22"
       x2="-2"
       y2="40"
       gradientUnits="userSpaceOnUse"
       gradientTransform="translate(13,-20)" />
    <linearGradient
       inkscape:collect="always"
       id="linearGradient1668">
      <stop
         style="stop-color:#6f767b;stop-opacity:1;"
         offset="0"
         id="stop1664" />
      <stop
         style="stop-color:#505559;stop-opacity:1"
         offset="1"
         id="stop1666" />
    </linearGradient>
    <linearGradient
       inkscape:collect="always"
       xlink:href="#linearGradient2695"
       id="linearGradient2689"
       x1="-2.0000002"
       y1="26"
       x2="-2"
       y2="37"
       gradientUnits="userSpaceOnUse"
       gradientTransform="translate(13,-20)" />
    <linearGradient
       inkscape:collect="always"
       id="linearGradient2695">
      <stop
         style="stop-color:#dde1e6;stop-opacity:1;"
         offset="0"
         id="stop2691" />
      <stop
         style="stop-color:#aeb7c0;stop-opacity:1"
         offset="1"
         id="stop2693" />
    </linearGradient>
    <linearGradient
       inkscape:collect="always"
       xlink:href="#linearGradient1686"
       id="linearGradient1680"
       x1="-2"
       y1="24.12855"
       x2="-2"
       y2="39.128551"
       gradientUnits="userSpaceOnUse"
       gradientTransform="translate(13,-20.12855)" />
    <linearGradient
       inkscape:collect="always"
       id="linearGradient1686">
      <stop
         style="stop-color:#6f767b;stop-opacity:1;"
         offset="0"
         id="stop1682" />
      <stop
         style="stop-color:#51565a;stop-opacity:1;"
         offset="1"
         id="stop1684" />
    </linearGradient>
  </defs>
  <path
     id="rect305"
     style="fill:url(#linearGradient1662);fill-opacity:1;stroke-width:0.724704;stroke-linecap:round"
     d="M 6,2 C 5.4460006,2 5,2.446001 5,3 v 16 c 0,0.553999 0.4460006,1 1,1 h 10 c 0.553999,0 1,-0.446001 1,-1 V 3 C 17,2.446001 16.553999,2 16,2 H 12 C 12,2.5522847 11.552285,3 11,3 10.447715,3 10,2.5522847 10,2 Z"
     sodipodi:nodetypes="sssssssscscs" />
  <path
     id="rect2643"
     style="fill:url(#linearGradient2689);fill-opacity:1;stroke-width:0.863149;stroke-linecap:round"
     d="M 4.5,6 C 3.6690016,6 3,6.4460016 3,7 3,7.5539984 3.6690016,8 4.5,8 h 13 C 18.330998,8 19,7.5539984 19,7 19,6.4460016 18.330998,6 17.5,6 Z m 0,3 C 3.6690016,9 3,9.4460016 3,10 c 0,0.553998 0.6690016,1 1.5,1 h 13 C 18.330998,11 19,10.553998 19,10 19,9.4460016 18.330998,9 17.5,9 Z m 0,3 C 3.6690016,12 3,12.446002 3,13 c 0,0.553998 0.6690016,1 1.5,1 h 13 c 0.830998,0 1.5,-0.446002 1.5,-1 0,-0.553998 -0.669002,-1 -1.5,-1 z m 0,3 C 3.6690016,15 3,15.446002 3,16 c 0,0.553998 0.6690016,1 1.5,1 h 13 c 0.830998,0 1.5,-0.446002 1.5,-1 0,-0.553998 -0.669002,-1 -1.5,-1 z"
     sodipodi:nodetypes="ssssssssssssssssssssssssssss" />
  <path
     id="rect309"
     style="fill:#4d4d4d;fill-opacity:1;stroke-width:2.04024;stroke-linecap:round"
     d="M 6,2 C 5.4460012,2 5,2.446002 5,3 V 4 C 5,3.446002 5.4460012,3 6,3 h 4 c 0,0.5522847 0.447715,1 1,1 0.552285,0 1,-0.4477153 1,-1 h 4 c 0.553999,0 1,0.446002 1,1 V 3 C 17,2.446002 16.553999,2 16,2 H 12 C 12,2.5522847 11.552285,3 11,3 10.447715,3 10,2.5522847 10,2 Z"
     sodipodi:nodetypes="sscscscscsscscs" />
  <path
     id="rect303"
     style="fill:url(#linearGradient1680);fill-opacity:1;stroke-width:0.620311;stroke-linecap:round"
     d="m 7.0000001,4 c -0.5539994,0 -1,0.446001 -1,1 v 13 c 0,0.553999 0.4460006,1 1,1 H 15 c 0.553999,0 1,-0.446001 1,-1 V 5 C 16,4.446001 15.553999,4 15,4 H 12 C 12,4.5522847 11.552285,5 11,5 10.447715,5 10,4.5522847 10,4 Z"
     sodipodi:nodetypes="sssssssscscs" />
  <path
     d="m 6.9999999,5 c -0.553999,0 -1,0.446002 -1,1 v 1 c 0,-0.553998 0.446002,-1 1,-1 h 2.9999999 c 0,0.552285 0.4477162,1 1.0000002,1 0.552285,0 1,-0.447715 1,-1 h 3 c 0.553998,0 1,0.446002 1,1 V 6 C 16,5.446002 15.553999,5 15,5 H 12 C 12,5.552285 11.552285,6 11,6 10.447716,6 9.9999998,5.552285 9.9999998,5 Z"
     style="fill:#8b9095;fill-opacity:1;stroke-width:1.66088;stroke-linecap:round"
     id="path1985"
     sodipodi:nodetypes="sscscscscsscscs" />
  <path
     id="rect307"
     style="fill:#4d4d4d;fill-opacity:1;stroke-width:1.66088;stroke-linecap:round"
     d="m 7.0000001,4 c -0.5539988,0 -1,0.446002 -1,1 v 1 c 0,-0.553998 0.4460016,-1 1,-1 H 10 c 0,0.552285 0.447715,1 1,1 0.552285,0 1,-0.447715 1,-1 h 3 c 0.553998,0 1,0.446002 1,1 V 5 C 16,4.446002 15.553999,4 15,4 H 12 C 12,4.552285 11.552285,5 11,5 10.447715,5 10,4.552285 10,4 Z"
     sodipodi:nodetypes="sscscscscsscscs" />
  <path
     id="rect2273"
     style="fill:#4d4d4d;fill-opacity:1;stroke-linecap:round"
     d="m 6.0000001,17 v 1 c 0,0.553999 0.4460006,1 1,1 H 15 c 0.553999,0 1,-0.446001 1,-1 v -1 c 0,0.553999 -0.446001,1 -1,1 H 7.0000001 c -0.5539994,0 -1,-0.446001 -1,-1 z"
     sodipodi:nodetypes="csssscssc" />
</svg>
