<?xml version="1.0" encoding="UTF-8" standalone="no"?>
<!-- Created with Inkscape (http://www.inkscape.org/) -->

<svg
   width="22"
   height="22"
   viewBox="0 0 22 22"
   version="1.1"
   id="svg144504"
   inkscape:version="1.2.2 (1:1.2.2+202305151914+b0a8486541)"
   sodipodi:docname="network-wireless.svg"
   xmlns:inkscape="http://www.inkscape.org/namespaces/inkscape"
   xmlns:sodipodi="http://sodipodi.sourceforge.net/DTD/sodipodi-0.dtd"
   xmlns:xlink="http://www.w3.org/1999/xlink"
   xmlns="http://www.w3.org/2000/svg"
   xmlns:svg="http://www.w3.org/2000/svg">
  <sodipodi:namedview
     id="namedview144506"
     pagecolor="#ffffff"
     bordercolor="#666666"
     borderopacity="1.0"
     inkscape:pageshadow="2"
     inkscape:pageopacity="0.0"
     inkscape:pagecheckerboard="0"
     inkscape:document-units="px"
     showgrid="false"
     units="px"
     inkscape:zoom="36.636364"
     inkscape:cx="10.986352"
     inkscape:cy="11"
     inkscape:window-width="1920"
     inkscape:window-height="1008"
     inkscape:window-x="0"
     inkscape:window-y="0"
     inkscape:window-maximized="1"
     inkscape:current-layer="svg144504"
     inkscape:showpageshadow="2"
     inkscape:deskcolor="#d1d1d1" />
  <defs
     id="defs144501">
    <linearGradient
       inkscape:collect="always"
       id="linearGradient329500">
      <stop
         style="stop-color:#000000;stop-opacity:0"
         offset="0"
         id="stop329496" />
      <stop
         style="stop-color:#000000;stop-opacity:0"
         offset="0.4698768"
         id="stop330200" />
      <stop
         style="stop-color:#000000;stop-opacity:1"
         offset="1"
         id="stop329498" />
    </linearGradient>
    <radialGradient
       inkscape:collect="always"
       xlink:href="#linearGradient329500"
       id="radialGradient329502"
       cx="8.4666672"
       cy="12.7"
       fx="8.4666672"
       fy="12.7"
       r="7.6729169"
       gradientUnits="userSpaceOnUse"
       gradientTransform="matrix(2.5947665,0,0,2.5907091,-10.971092,-13.52397)" />
    <radialGradient
       inkscape:collect="always"
       xlink:href="#linearGradient329500"
       id="radialGradient331953"
       cx="8.4666672"
       cy="12.170835"
       fx="8.4666672"
       fy="12.170835"
       r="4.2333336"
       gradientUnits="userSpaceOnUse"
       gradientTransform="matrix(2.3942616,0,0,2.4807263,-9.2734827,-11.564594)" />
  </defs>
  <path
     id="path332853"
     style="color:#000000;fill:#3cc2e2;stroke:none;stroke-width:0.736936;stroke-linecap:round;stroke-linejoin:round;-inkscape-stroke:none"
     d="M 10.997932,4.0019525 C 7.3540954,4.0049905 3.8389171,5.3953162 1.1216966,7.9108042 a 0.36202581,0.37509974 0 0 0 -0.02121,0.5398838 l 9.6358504,10.43508 a 0.36202581,0.37509974 0 0 0 0.523896,0 L 20.898206,8.445561 A 0.36202581,0.37509974 0 0 0 20.879824,7.9056764 C 18.160737,5.3910615 14.6426,4.0024214 10.997932,4.0019525 Z" />
  <path
     id="path332859"
     style="color:#000000;fill:#1787d6;stroke-width:0.736936;stroke-linecap:round;stroke-linejoin:round;-inkscape-stroke:none"
     d="m 10.997932,8.126905 c -2.6166831,0.0034 -5.1447469,0.985722 -7.1181854,2.766083 a 0.36202581,0.37509974 0 0 0 -0.02404,0.542815 l 6.8806314,7.449965 a 0.36202581,0.37509974 0 0 0 0.523895,0 l 6.885579,-7.458755 a 0.36202581,0.37509974 0 0 0 -0.02404,-0.539884 C 16.146162,9.107762 13.615625,8.127285 10.997932,8.126905 Z" />
  <path
     id="path332865"
     style="color:#000000;fill:url(#radialGradient329502);stroke-width:0.736936;stroke-linecap:round;stroke-linejoin:round;-inkscape-stroke:none"
     d="m 10.997932,8.126905 c -2.6166831,0.0034 -5.1447469,0.985722 -7.1181854,2.766083 a 0.36202581,0.37509974 0 0 0 -0.02404,0.542815 l 6.8806314,7.449965 a 0.36202581,0.37509974 0 0 0 0.523895,0 l 6.885579,-7.458755 a 0.36202581,0.37509974 0 0 0 -0.02404,-0.539884 C 16.146162,9.107762 13.615625,8.127285 10.997932,8.126905 Z" />
  <path
     id="path332871"
     style="color:#000000;fill:#02589f;stroke-width:0.736936;stroke-linecap:round;stroke-linejoin:round;-inkscape-stroke:none"
     d="m 10.997932,12.25259 c -1.5834686,0.0038 -3.106059,0.63809 -4.2484287,1.77422 a 0.36202581,0.37509974 0 0 0 -0.010599,0.531826 l 3.9974397,4.327132 a 0.36202581,0.37509974 0 0 0 0.523895,0 l 4.002385,-4.335189 a 0.36202581,0.37509974 0 0 0 -0.01067,-0.528898 c -1.14489,-1.135058 -2.669412,-1.768808 -4.25402,-1.769091 z" />
  <path
     id="path332877"
     style="color:#000000;opacity:0.2;fill:url(#radialGradient331953);stroke-width:0.736936;stroke-linecap:round;stroke-linejoin:round;-inkscape-stroke:none"
     d="m 10.997932,12.25259 c -1.5842976,0.001 -3.1069343,0.633837 -4.2512566,1.769091 a 0.36202581,0.37509974 0 0 0 -0.013437,0.531094 l 4.0030956,4.332995 a 0.36202581,0.37509974 0 0 0 0.523895,0 l 4.002392,-4.335191 a 0.36202581,0.37509974 0 0 0 -0.01067,-0.528898 C 14.106955,12.886907 12.582438,12.252663 10.997934,12.25259 Z" />
</svg>
