<?xml version="1.0" encoding="UTF-8" standalone="no"?>
<!-- Created with Inkscape (http://www.inkscape.org/) -->

<svg
   width="22"
   height="22"
   viewBox="0 0 22 22"
   version="1.1"
   id="svg2112"
   inkscape:version="1.2.1 (9c6d41e410, 2022-07-14, custom)"
   sodipodi:docname="org.gnome.Software.Socialize.svg"
   xmlns:inkscape="http://www.inkscape.org/namespaces/inkscape"
   xmlns:sodipodi="http://sodipodi.sourceforge.net/DTD/sodipodi-0.dtd"
   xmlns:xlink="http://www.w3.org/1999/xlink"
   xmlns="http://www.w3.org/2000/svg"
   xmlns:svg="http://www.w3.org/2000/svg">
  <sodipodi:namedview
     id="namedview2114"
     pagecolor="#ffffff"
     bordercolor="#000000"
     borderopacity="0.25"
     inkscape:showpageshadow="2"
     inkscape:pageopacity="0.0"
     inkscape:pagecheckerboard="0"
     inkscape:deskcolor="#d1d1d1"
     inkscape:document-units="px"
     showgrid="false"
     inkscape:zoom="36.454545"
     inkscape:cx="11"
     inkscape:cy="11"
     inkscape:window-width="1920"
     inkscape:window-height="1011"
     inkscape:window-x="0"
     inkscape:window-y="0"
     inkscape:window-maximized="1"
     inkscape:current-layer="svg2112" />
  <defs
     id="defs2109">
    <linearGradient
       inkscape:collect="always"
       id="linearGradient1275">
      <stop
         style="stop-color:#bc3f00;stop-opacity:1;"
         offset="0"
         id="stop1271" />
      <stop
         style="stop-color:#c75944;stop-opacity:1;"
         offset="1"
         id="stop1273" />
    </linearGradient>
    <linearGradient
       inkscape:collect="always"
       id="linearGradient1021">
      <stop
         style="stop-color:#ffdd2e;stop-opacity:1;"
         offset="0"
         id="stop1017" />
      <stop
         style="stop-color:#ffab03;stop-opacity:1;"
         offset="1"
         id="stop1019" />
    </linearGradient>
    <linearGradient
       inkscape:collect="always"
       xlink:href="#linearGradient1021"
       id="linearGradient4020"
       x1="32"
       y1="4"
       x2="60"
       y2="60"
       gradientUnits="userSpaceOnUse"
       gradientTransform="matrix(0.35714285,0,0,0.35714285,-0.42857143,-0.42857143)" />
    <linearGradient
       inkscape:collect="always"
       xlink:href="#linearGradient1275"
       id="linearGradient1277"
       x1="16.600012"
       y1="9.2000113"
       x2="16.600012"
       y2="6"
       gradientUnits="userSpaceOnUse"
       gradientTransform="matrix(1.5624946,0,0,1.5624946,-8.9374278,-3.3749676)" />
  </defs>
  <circle
     style="fill:url(#linearGradient4020);fill-opacity:1;stroke-width:0.357143;stroke-linecap:round;stroke-linejoin:round"
     id="path368"
     cx="11"
     cy="11"
     r="10" />
  <path
     id="path375"
     style="opacity:0.8;fill:#313131;fill-opacity:1;stroke-width:0.5;stroke-linecap:round;stroke-linejoin:round"
     d="m 7.111328,14.445312 c -0.198901,3e-5 -0.390621,0.07809 -0.53125,0.21875 -0.292817,0.29288 -0.292817,0.767668 0,1.060547 1.171895,1.171894 2.762613,1.830079 4.419922,1.830079 1.657308,0 3.246075,-0.658185 4.417969,-1.830079 0.292817,-0.292879 0.292817,-0.767667 0,-1.060547 -0.29288,-0.292816 -0.767667,-0.292816 -1.060547,0 -0.890997,0.890999 -2.097361,1.390626 -3.357422,1.390626 -1.260061,0 -2.468377,-0.499627 -3.359375,-1.390626 -0.140629,-0.140658 -0.330396,-0.21872 -0.529297,-0.21875 z"
     sodipodi:nodetypes="cscscccscc" />
  <path
     id="path964"
     style="opacity:1;fill:url(#linearGradient1277);fill-opacity:1;stroke-width:1.5625;stroke-linecap:round;stroke-linejoin:round"
     d="M 6.40625 6 C 5.4348045 5.999994 5 6.6995637 5 7.5625 C 5.0000065 8.5958413 7.5 11 7.5 11 C 7.5 11 9.9999935 8.5958413 10 7.5625 C 10 6.6995637 9.5651955 5.999994 8.59375 6 C 7.9843353 6.0000038 7.5 6.5614969 7.5 6.9375 C 7.5 6.5614969 7.0156647 6.0000038 6.40625 6 z M 13.40625 6 C 12.434806 5.999994 12 6.6995645 12 7.5625 C 12.000006 8.5958403 14.5 11 14.5 11 C 14.5 11 16.999994 8.5958403 17 7.5625 C 17 6.6995645 16.565194 5.999994 15.59375 6 C 14.984336 6.0000038 14.5 6.5614973 14.5 6.9375 C 14.5 6.5614973 14.015664 6.0000038 13.40625 6 z " />
</svg>
