<?xml version="1.0" encoding="UTF-8" standalone="no"?>
<!-- Created with Inkscape (http://www.inkscape.org/) -->

<svg
   width="22"
   height="22"
   viewBox="0 0 22 22"
   version="1.1"
   id="svg2112"
   inkscape:version="1.2.1 (9c6d41e410, 2022-07-14, custom)"
   sodipodi:docname="accessories-character-map.svg"
   xmlns:inkscape="http://www.inkscape.org/namespaces/inkscape"
   xmlns:sodipodi="http://sodipodi.sourceforge.net/DTD/sodipodi-0.dtd"
   xmlns:xlink="http://www.w3.org/1999/xlink"
   xmlns="http://www.w3.org/2000/svg"
   xmlns:svg="http://www.w3.org/2000/svg">
  <sodipodi:namedview
     id="namedview2114"
     pagecolor="#ffffff"
     bordercolor="#000000"
     borderopacity="0.25"
     inkscape:showpageshadow="2"
     inkscape:pageopacity="0.0"
     inkscape:pagecheckerboard="0"
     inkscape:deskcolor="#d1d1d1"
     inkscape:document-units="px"
     showgrid="false"
     inkscape:zoom="36.454545"
     inkscape:cx="11"
     inkscape:cy="11"
     inkscape:window-width="1920"
     inkscape:window-height="1011"
     inkscape:window-x="0"
     inkscape:window-y="0"
     inkscape:window-maximized="1"
     inkscape:current-layer="svg2112" />
  <defs
     id="defs2109">
    <linearGradient
       inkscape:collect="always"
       xlink:href="#linearGradient23571"
       id="linearGradient23573"
       x1="0.5291667"
       y1="5.0270834"
       x2="16.404167"
       y2="19.138195"
       gradientUnits="userSpaceOnUse"
       gradientTransform="matrix(1.2598425,0,0,1.4173228,0.3333334,-6.125)" />
    <linearGradient
       inkscape:collect="always"
       id="linearGradient23571">
      <stop
         style="stop-color:#b6bec5;stop-opacity:1;"
         offset="0"
         id="stop23567" />
      <stop
         style="stop-color:#9ba3aa;stop-opacity:1"
         offset="1"
         id="stop23569" />
    </linearGradient>
  </defs>
  <rect
     style="fill:url(#linearGradient23573);fill-opacity:1;stroke-width:0.353553;stroke-linejoin:round"
     id="rect858"
     width="20"
     height="20"
     x="1"
     y="1"
     ry="3" />
  <rect
     style="opacity:0.2;fill:#000000;fill-opacity:1;stroke-width:0.375;stroke-linecap:round;stroke-linejoin:round"
     id="rect883"
     width="18"
     height="18"
     x="2"
     y="3"
     ry="2" />
  <rect
     style="fill:#edeef0;fill-opacity:1;stroke-width:0.375;stroke-linecap:round;stroke-linejoin:round"
     id="rect415"
     width="18"
     height="18"
     x="2"
     y="2"
     ry="2" />
  <path
     id="path1523-0"
     style="fill:#666666;fill-opacity:1;stroke-width:2;stroke-linecap:round;stroke-linejoin:round"
     d="m 11,5 -1,2 h 1 L 13,5 Z M 10.5,8 C 8.8358687,8 7.6931748,8.449484 7.2304688,9.615234 l 0.9003906,0.449219 C 8.4255831,9.206087 9.219257,9 10.5,9 12.156848,9 13,9.343151 13,11 v 1.267578 C 12.705815,12.097389 12.364308,12 12,12 H 9.5 C 8.1150054,12 7,13.115004 7,14.5 7,15.884996 8.1150054,17 9.5,17 H 11 c 0.684583,0 1.425837,-0.272059 2,-0.714844 V 17 h 1 V 14.5 14 11 C 14,8.7908676 12.709133,8 10.5,8 Z m -1,5 H 12 c 0.552283,0 1,0.447717 1,1 v 0.5 C 13,15.330996 11.830996,16 11,16 H 9.5 C 8.6690028,16 8,15.330996 8,14.5 8,13.669004 8.6690028,13 9.5,13 Z" />
</svg>
