<?xml version="1.0" encoding="UTF-8" standalone="no"?>
<!-- Created with Inkscape (http://www.inkscape.org/) -->

<svg
   width="22"
   height="22"
   viewBox="0 0 22 22"
   version="1.1"
   id="svg5"
   inkscape:version="1.2.1 (9c6d41e410, 2022-07-14, custom)"
   sodipodi:docname="accessories-text-editor.svg"
   xmlns:inkscape="http://www.inkscape.org/namespaces/inkscape"
   xmlns:sodipodi="http://sodipodi.sourceforge.net/DTD/sodipodi-0.dtd"
   xmlns:xlink="http://www.w3.org/1999/xlink"
   xmlns="http://www.w3.org/2000/svg"
   xmlns:svg="http://www.w3.org/2000/svg">
  <sodipodi:namedview
     id="namedview7"
     pagecolor="#ffffff"
     bordercolor="#666666"
     borderopacity="1.0"
     inkscape:pageshadow="2"
     inkscape:pageopacity="0.0"
     inkscape:pagecheckerboard="0"
     inkscape:document-units="px"
     showgrid="false"
     units="px"
     height="64px"
     inkscape:zoom="37.909091"
     inkscape:cx="10.28777"
     inkscape:cy="13.413669"
     inkscape:window-width="1920"
     inkscape:window-height="1029"
     inkscape:window-x="0"
     inkscape:window-y="0"
     inkscape:window-maximized="1"
     inkscape:current-layer="svg5"
     inkscape:showpageshadow="2"
     inkscape:deskcolor="#d1d1d1"
     showguides="false" />
  <defs
     id="defs2">
    <linearGradient
       inkscape:collect="always"
       id="linearGradient2818">
      <stop
         style="stop-color:#000000;stop-opacity:0.40000001"
         offset="0"
         id="stop2814" />
      <stop
         style="stop-color:#000000;stop-opacity:0;"
         offset="1"
         id="stop2816" />
    </linearGradient>
    <linearGradient
       inkscape:collect="always"
       id="linearGradient1552">
      <stop
         style="stop-color:#75d4f0;stop-opacity:1;"
         offset="0"
         id="stop1548" />
      <stop
         style="stop-color:#40b0d1;stop-opacity:1"
         offset="1"
         id="stop1550" />
    </linearGradient>
    <linearGradient
       inkscape:collect="always"
       xlink:href="#linearGradient1552"
       id="linearGradient1554"
       x1="2.1166668"
       y1="10.318751"
       x2="10.583334"
       y2="10.318751"
       gradientUnits="userSpaceOnUse"
       gradientTransform="matrix(1.8897635,0,0,1.8897635,-0.9999997,-5.9999285)" />
    <linearGradient
       inkscape:collect="always"
       xlink:href="#linearGradient2818"
       id="linearGradient2820"
       x1="8.466671"
       y1="13.229167"
       x2="8.466671"
       y2="15.345834"
       gradientUnits="userSpaceOnUse"
       gradientTransform="matrix(1.2598425,0,0,1.8897634,0.33333287,-8.9999968)" />
    <linearGradient
       inkscape:collect="always"
       xlink:href="#linearGradient2818"
       id="linearGradient3170"
       x1="8.4666729"
       y1="14.287501"
       x2="8.4666729"
       y2="16.404167"
       gradientUnits="userSpaceOnUse"
       gradientTransform="matrix(1.2598424,0,0,1.8897634,0.33333325,-8.9999279)" />
  </defs>
  <rect
     style="fill:#974711;fill-opacity:1;stroke-width:0.396461"
     id="rect939"
     width="16"
     height="13.999999"
     x="3"
     y="8.0000696"
     ry="0.99999988" />
  <rect
     style="fill:url(#linearGradient3170);fill-opacity:1;stroke-width:0.408246"
     id="rect3082"
     width="16"
     height="3.9999995"
     x="3"
     y="18.000067" />
  <rect
     style="fill:#ffffff;fill-opacity:1;stroke-width:0.499997"
     id="rect1934"
     width="16"
     height="12.999999"
     x="3"
     y="7"
     ry="0.99999988" />
  <rect
     style="fill:url(#linearGradient2820);fill-opacity:1;stroke-width:0.408246"
     id="rect2710"
     width="16"
     height="3.9999995"
     x="3"
     y="16" />
  <rect
     style="fill:url(#linearGradient1554);fill-opacity:1;stroke-width:0.499997"
     id="rect1392"
     width="16"
     height="17"
     x="3"
     y="1.0000708"
     ry="0.99999988" />
  <path
     id="rect1581"
     style="fill:#006e8f;fill-opacity:1;stroke-width:0.499997"
     d="m 5.9999998,6.00007 v 2 h 9.9999992 v -2 z m 0,4 v 2 h 9.9999992 v -2 z m 0,4 v 2 h 9.9999992 v -2 z"
     sodipodi:nodetypes="ccccccccccccccc" />
  <path
     id="rect1559"
     style="fill:#006e8f;stroke-width:0.999999"
     d="M 5.7246091,7.0758219e-5 C 5.1826691,0.01370926 4.7499998,0.45472696 4.7499998,1.0000707 v 1 c 0,0.554 0.4460001,1 1.0000002,1 0.5539997,0 0.9999998,-0.446 0.9999998,-1 v -1 C 6.7499998,0.44607071 6.3039997,7.0758219e-5 5.75,7.0758219e-5 c -0.00866,0 -0.016781,-2.16484069e-4 -0.025398,0 z m 3.4999999,0 C 8.682669,0.01370926 8.2499997,0.45472696 8.2499997,1.0000707 v 1 c 0,0.554 0.4460001,1 1.0000002,1 0.5539997,0 1.0000001,-0.446 1.0000001,-1 v -1 C 10.25,0.44607071 9.8039996,7.0758219e-5 9.2499999,7.0758219e-5 c -0.00866,0 -0.016781,-2.16484069e-4 -0.025398,0 z m 3.5,0 C 12.182669,0.01370926 11.75,0.45472696 11.75,1.0000707 v 1 c 0,0.554 0.446,1 1,1 0.554,0 1,-0.446 1,-1 v -1 c 0,-0.55399999 -0.446,-0.999999941781 -1,-0.999999941781 -0.0087,0 -0.01678,-2.16484069e-4 -0.0254,0 z m 3.499999,0 C 15.682668,0.01370926 15.25,0.45472696 15.25,1.0000707 v 1 c 0,0.554 0.446,1 1,1 0.553999,0 1,-0.446 1,-1 v -1 c 0,-0.55399999 -0.446001,-0.999999941781 -1,-0.999999941781 -0.0087,0 -0.01678,-2.16484069e-4 -0.0254,0 z"
     sodipodi:nodetypes="ssssssssssssssssssssssssssssssss" />
</svg>
