<?xml version="1.0" encoding="UTF-8" standalone="no"?>
<!-- Created with Inkscape (http://www.inkscape.org/) -->

<svg
   width="22"
   height="22"
   viewBox="0 0 22 22"
   version="1.1"
   id="svg2112"
   inkscape:version="1.2.1 (9c6d41e410, 2022-07-14, custom)"
   sodipodi:docname="applets-screenshooter.svg"
   xmlns:inkscape="http://www.inkscape.org/namespaces/inkscape"
   xmlns:sodipodi="http://sodipodi.sourceforge.net/DTD/sodipodi-0.dtd"
   xmlns:xlink="http://www.w3.org/1999/xlink"
   xmlns="http://www.w3.org/2000/svg"
   xmlns:svg="http://www.w3.org/2000/svg">
  <sodipodi:namedview
     id="namedview2114"
     pagecolor="#ffffff"
     bordercolor="#000000"
     borderopacity="0.25"
     inkscape:showpageshadow="2"
     inkscape:pageopacity="0.0"
     inkscape:pagecheckerboard="0"
     inkscape:deskcolor="#d1d1d1"
     inkscape:document-units="px"
     showgrid="false"
     inkscape:zoom="37.590909"
     inkscape:cx="10.986699"
     inkscape:cy="11"
     inkscape:window-width="1920"
     inkscape:window-height="1029"
     inkscape:window-x="0"
     inkscape:window-y="0"
     inkscape:window-maximized="1"
     inkscape:current-layer="svg2112" />
  <defs
     id="defs2109">
    <linearGradient
       inkscape:collect="always"
       xlink:href="#linearGradient1430"
       id="linearGradient5396"
       x1="0.26458001"
       y1="0.26458001"
       x2="3.9686999"
       y2="3.9687002"
       gradientUnits="userSpaceOnUse"
       gradientTransform="scale(3.7795752)" />
    <linearGradient
       inkscape:collect="always"
       id="linearGradient1430">
      <stop
         style="stop-color:#f1f3f4;stop-opacity:1;"
         offset="0"
         id="stop1426" />
      <stop
         style="stop-color:#e1e5e7;stop-opacity:1"
         offset="1"
         id="stop1428" />
    </linearGradient>
    <linearGradient
       inkscape:collect="always"
       xlink:href="#linearGradient1587"
       id="linearGradient6150"
       x1="11"
       y1="5"
       x2="11"
       y2="15"
       gradientUnits="userSpaceOnUse" />
    <linearGradient
       inkscape:collect="always"
       id="linearGradient1587">
      <stop
         style="stop-color:#a0a7ac;stop-opacity:1;"
         offset="0"
         id="stop1583" />
      <stop
         style="stop-color:#81888e;stop-opacity:1"
         offset="1"
         id="stop1585" />
    </linearGradient>
    <linearGradient
       inkscape:collect="always"
       xlink:href="#linearGradient1740"
       id="linearGradient1742"
       x1="10.583333"
       y1="12.170834"
       x2="10.583334"
       y2="8.9958334"
       gradientUnits="userSpaceOnUse"
       gradientTransform="matrix(1.2598424,0,0,1.2598424,-0.33333214,-1.3333323)" />
    <linearGradient
       inkscape:collect="always"
       id="linearGradient1740">
      <stop
         style="stop-color:#000000;stop-opacity:0"
         offset="0"
         id="stop1736" />
      <stop
         style="stop-color:#000000;stop-opacity:1"
         offset="0.5"
         id="stop1744" />
      <stop
         style="stop-color:#000000;stop-opacity:0;"
         offset="1"
         id="stop1738" />
    </linearGradient>
    <linearGradient
       inkscape:collect="always"
       xlink:href="#linearGradient1587"
       id="linearGradient6148"
       x1="5"
       y1="12"
       x2="15"
       y2="12"
       gradientUnits="userSpaceOnUse" />
    <linearGradient
       inkscape:collect="always"
       xlink:href="#linearGradient1452"
       id="linearGradient7655"
       x1="13"
       y1="15"
       x2="13.012762"
       y2="21.053324"
       gradientUnits="userSpaceOnUse" />
    <linearGradient
       inkscape:collect="always"
       id="linearGradient1452">
      <stop
         style="stop-color:#50baec;stop-opacity:1"
         offset="0"
         id="stop1448" />
      <stop
         style="stop-color:#1ea1e4;stop-opacity:1"
         offset="1"
         id="stop1450" />
    </linearGradient>
    <linearGradient
       inkscape:collect="always"
       xlink:href="#linearGradient1452"
       id="linearGradient7609"
       x1="15"
       y1="10.499983"
       x2="21"
       y2="10.499983"
       gradientUnits="userSpaceOnUse" />
  </defs>
  <rect
     style="fill:url(#linearGradient5396);fill-opacity:1;stroke-width:2;stroke-linejoin:round"
     id="rect859"
     width="14"
     height="14"
     x="1"
     y="1"
     ry="2" />
  <path
     id="rect1065"
     style="fill:url(#linearGradient6150);fill-opacity:1;stroke-width:1.63299;stroke-linejoin:round"
     d="M 11,4.9999999 V 7 15 h 2 V 7 A 2.0000001,2.0000001 0 0 0 11,4.9999999 Z" />
  <rect
     style="opacity:0.4;fill:url(#linearGradient1742);fill-opacity:1;stroke-width:0.333333"
     id="rect1734"
     width="2"
     height="3.9999998"
     x="11"
     y="10.000002" />
  <path
     id="rect1169"
     style="fill:url(#linearGradient6148);fill-opacity:1;stroke-width:1.51186;stroke-linejoin:round"
     d="m 5,11 a 2.0000001,2.0000001 0 0 0 2.0000001,2 H 15 V 11 H 7.0000001 Z" />
  <path
     id="rect1599"
     style="fill:#b8c2cc;fill-opacity:1;stroke-width:0.408247"
     d="m 11,11 c 0,0.554 -0.446,1 -1,1 H 6 c -0.5539999,0 -1,-0.446 -1,-1 1.2e-6,0 6,0 6,0 z"
     sodipodi:nodetypes="csscc" />
  <path
     id="path6714"
     style="fill:url(#linearGradient7655);fill-opacity:1;stroke-width:1.66667;stroke-linejoin:round"
     d="m 11,15 v 1.050781 c -0.16454,-0.03368 -0.332051,-0.05069 -0.5,-0.05078 -1.380712,0 -2.5000001,1.119288 -2.5000001,2.5 0,1.380712 1.1192881,2.5 2.5000001,2.5 1.380712,0 2.5,-1.119288 2.5,-2.5 2.77e-4,-0.02147 2.77e-4,-0.04297 0,-0.06445 v -3.435545 z m -0.5,2 A 1.5,1.5 0 0 1 12,18.5 1.5,1.5 0 0 1 10.5,20 1.5,1.5 0 0 1 8.9999999,18.5 1.5,1.5 0 0 1 10.5,17 Z" />
  <path
     id="path7431"
     style="fill:url(#linearGradient7609);fill-opacity:1;stroke-width:1.66667;stroke-linejoin:round"
     d="M 18.435547,8.0000002 C 17.084656,8.0342202 16,9.140862 16,10.5 c 9.1e-5,0.167949 0.01712,0.335464 0.05078,0.5 h -1.050783 v 2 h 3.435547 c 0.02147,2.77e-4 0.04298,2.77e-4 0.06445,0 1.380712,0 2.5,-1.119288 2.5,-2.5 0,-1.380712 -1.119288,-2.4999998 -2.5,-2.4999998 -0.02158,0 -0.04301,-5.43e-4 -0.06445,0 z M 18.499997,9 a 1.5,1.5 0 0 1 1.5,1.5 1.5,1.5 0 0 1 -1.5,1.5 1.5,1.5 0 0 1 -1.5,-1.5 1.5,1.5 0 0 1 1.5,-1.5 z" />
  <path
     id="rect1816"
     style="fill:#d83b01;fill-opacity:1;stroke-width:2;stroke-linejoin:round"
     d="M 3.9746096,2.9999999 C 3.4326688,3.0136369 3,3.4546564 3,3.9999999 v 1 h 2 v -2 H 4 c -0.00866,0 -0.016781,-2.165e-4 -0.025399,0 z m 2.0253904,0 v 2 h 1.9999999 v -2 z m 2.9999999,0 v 2 H 11 v -1 c 0,-0.5540003 -0.446,-1 -1,-1 z M 3,5.9999999 V 8.0000002 H 5 V 5.9999999 Z M 3,9 v 1 c 0,0.554 0.4460001,1 1,1 H 5 V 9 Z" />
</svg>
