<?xml version="1.0" encoding="UTF-8" standalone="no"?>
<!-- Created with Inkscape (http://www.inkscape.org/) -->

<svg
   width="22"
   height="22"
   viewBox="0 0 22 22"
   version="1.1"
   id="svg2112"
   inkscape:version="1.4.2 (ebf0e940d0, 2025-05-08)"
   sodipodi:docname="audacious.svg"
   xmlns:inkscape="http://www.inkscape.org/namespaces/inkscape"
   xmlns:sodipodi="http://sodipodi.sourceforge.net/DTD/sodipodi-0.dtd"
   xmlns:xlink="http://www.w3.org/1999/xlink"
   xmlns="http://www.w3.org/2000/svg"
   xmlns:svg="http://www.w3.org/2000/svg">
  <sodipodi:namedview
     id="namedview2114"
     pagecolor="#ffffff"
     bordercolor="#000000"
     borderopacity="0.25"
     inkscape:showpageshadow="2"
     inkscape:pageopacity="0.0"
     inkscape:pagecheckerboard="0"
     inkscape:deskcolor="#d1d1d1"
     inkscape:document-units="px"
     showgrid="false"
     inkscape:zoom="35.909091"
     inkscape:cx="10.986076"
     inkscape:cy="11"
     inkscape:window-width="1920"
     inkscape:window-height="1015"
     inkscape:window-x="0"
     inkscape:window-y="0"
     inkscape:window-maximized="1"
     inkscape:current-layer="svg2112"
     showguides="false" />
  <defs
     id="defs2109">
    <linearGradient
       inkscape:collect="always"
       xlink:href="#linearGradient1788"
       id="linearGradient1132"
       x1="13.758333"
       y1="13.229166"
       x2="3.7041652"
       y2="3.7041662"
       gradientUnits="userSpaceOnUse"
       gradientTransform="matrix(1.2598426,0,0,1.2598426,0.3333348,0.33333472)" />
    <linearGradient
       inkscape:collect="always"
       id="linearGradient3143">
      <stop
         style="stop-color:#d2d2d2;stop-opacity:1;"
         offset="0"
         id="stop3139" />
      <stop
         style="stop-color:#ffffff;stop-opacity:1"
         offset="1"
         id="stop3141" />
    </linearGradient>
    <linearGradient
       inkscape:collect="always"
       xlink:href="#linearGradient3143"
       id="linearGradient1010"
       x1="11.90625"
       y1="12.700001"
       x2="4.4979177"
       y2="4.7625003"
       gradientUnits="userSpaceOnUse"
       gradientTransform="matrix(1.2094488,0,0,1.2094488,0.75999982,0.75999961)" />
    <linearGradient
       inkscape:collect="always"
       id="linearGradient1788">
      <stop
         style="stop-color:#232223;stop-opacity:1;"
         offset="0"
         id="stop1784" />
      <stop
         style="stop-color:#49484d;stop-opacity:1"
         offset="1"
         id="stop1786" />
    </linearGradient>
    <linearGradient
       inkscape:collect="always"
       xlink:href="#linearGradient1788"
       id="linearGradient2"
       x1="15.8"
       y1="15.903627"
       x2="5.9614143"
       y2="6.8915796"
       gradientUnits="userSpaceOnUse" />
  </defs>
  <circle
     style="fill:url(#linearGradient1132);fill-opacity:1;stroke-width:0.666667;stroke-linecap:round;stroke-linejoin:round;stroke-dasharray:8.00001, 0.666667"
     id="path846"
     cx="11"
     cy="11"
     r="10" />
  <circle
     style="fill:url(#linearGradient1010);fill-opacity:1;stroke-width:0.639999;stroke-linecap:round;stroke-linejoin:round"
     id="path922"
     cx="11"
     cy="11"
     r="8" />
  <path
     fill="#ffffff"
     d="m 11.440925,6.0019127 c -0.14227,-0.00594 -0.28744,0.00317 -0.43737,0.010744 -0.89035,0.045067 -2.4656004,0.00803 -3.0800004,0.85378 -0.37544,0.51679 -0.20058,1.7191 0.37476,1.8439 0.71675,0.15554 1.9285004,-0.23009 2.7052004,-0.13531 0.5416,0.066078 0.6998,0.57406 0.25874,0.92678 -0.46702,0.37346 -1.5272004,0.26024 -2.0626004,0.44782 -1.8506,0.6485003 -2.5156,2.0225003 -2.0625,3.8843003 0.29546,1.2141 1.3415,2.1149 2.4824,2.1661 2.1947004,-0.0057 1.7853004,-1.2971 2.8480004,-0.625 0.34972,0.47077 1.0546,0.62183 1.4198,0.29103 0.5872,-0.53184 1.4726,-0.81667 0.84805,-1.9051 -0.29912,-0.52125 0.39816,-1.197 0.24124,-3.7909003 -0.13921,-2.3011 -1.4017,-3.8798 -3.5358,-3.9681 z m -0.28544,5.5617003 c 0.4943,-1e-6 0.88395,0.40301 0.88395,0.90528 0,0.50229 -0.38965,0.91711 -0.88395,0.91711 -0.4943,0 -0.90235,-0.41483 -0.90235,-0.91711 0,-0.50229 0.40806,-0.90528 0.90235,-0.90528 z"
     id="path3"
     style="fill:url(#linearGradient2)" />
</svg>
