<?xml version="1.0" encoding="UTF-8" standalone="no"?>
<!-- Created with Inkscape (http://www.inkscape.org/) -->

<svg
   width="22"
   height="22"
   viewBox="0 0 22 22"
   version="1.1"
   id="svg5"
   inkscape:version="1.4.2 (ebf0e940d0, 2025-05-08)"
   sodipodi:docname="cities-skylines-2.svg"
   xmlns:inkscape="http://www.inkscape.org/namespaces/inkscape"
   xmlns:sodipodi="http://sodipodi.sourceforge.net/DTD/sodipodi-0.dtd"
   xmlns:xlink="http://www.w3.org/1999/xlink"
   xmlns="http://www.w3.org/2000/svg"
   xmlns:svg="http://www.w3.org/2000/svg">
  <sodipodi:namedview
     id="namedview7"
     pagecolor="#ffffff"
     bordercolor="#000000"
     borderopacity="0.25"
     inkscape:showpageshadow="2"
     inkscape:pageopacity="0.0"
     inkscape:pagecheckerboard="0"
     inkscape:deskcolor="#d1d1d1"
     inkscape:document-units="px"
     showgrid="false"
     inkscape:zoom="36.318182"
     inkscape:cx="10.986233"
     inkscape:cy="11"
     inkscape:window-width="1920"
     inkscape:window-height="1011"
     inkscape:window-x="0"
     inkscape:window-y="0"
     inkscape:window-maximized="1"
     inkscape:current-layer="svg5"
     showguides="true" />
  <defs
     id="defs2">
    <linearGradient
       id="linearGradient1"
       inkscape:collect="always">
      <stop
         style="stop-color:#185eee;stop-opacity:1;"
         offset="0"
         id="stop1" />
      <stop
         style="stop-color:#18c8ee;stop-opacity:1;"
         offset="1"
         id="stop2" />
    </linearGradient>
    <linearGradient
       inkscape:collect="always"
       xlink:href="#linearGradient1"
       id="linearGradient5"
       x1="12"
       y1="2"
       x2="12"
       y2="22"
       gradientUnits="userSpaceOnUse"
       gradientTransform="translate(-1,-1)" />
  </defs>
  <rect
     style="fill:url(#linearGradient5)"
     id="rect1"
     width="20"
     height="20"
     x="1"
     y="1"
     ry="3" />
  <path
     d="m 10.86264,4.0009799 c -8.74e-4,1.0093195 0,2.018779 -2.92e-4,3.0280984 1.997486,1.1024117 3.995409,2.2045437 5.99304,3.3070967 0.0481,0.0252 0.09329,0.0546 0.1443,0.0756 V 8.035044 c 0.0011,-0.071394 0,-0.1432086 -0.01749,-0.213903 C 16.939928,7.5781144 16.805247,7.3509126 16.609491,7.1916053 16.504546,7.1034124 16.378464,7.045457 16.259669,6.9777024 14.887055,6.2200828 13.514148,5.4627432 12.141532,4.7052638 11.714894,4.4705024 11.289278,4.2340613 10.862057,4 Z m -0.723549,1.4e-4 C 10.069121,4.0389179 10.000625,4.0781139 9.930945,4.1159117 8.153702,5.1059124 6.3767507,6.0959134 4.5995076,7.0859145 4.5382886,7.1195115 4.4770691,7.1545085 4.4225557,7.1965061 4.1813241,7.3787716 4.0253617,7.6611292 4.0059757,7.9556657 v 0.2140423 2.077435 c 7.288e-4,0.0756 0,0.152727 0.014575,0.228321 0.026237,0.172886 0.1151499,0.336255 0.2499772,0.453984 0.077251,0.0728 0.1757857,0.117586 0.2671769,0.171206 0.6344901,0.357812 1.2686887,0.715903 1.9031791,1.073715 0.094743,0.0518 0.1880294,0.109188 0.2842306,0.158467 7.289e-4,-0.127386 0,-0.25366 2.914e-4,-0.380488 -5.829e-4,-0.686507 0,-1.372872 0.00102,-2.059377 C 6.727009,9.569737 6.7254059,9.246502 6.7273005,8.923268 6.8205885,8.868668 6.9169332,8.81688 7.0112395,8.764661 8.056917,8.185527 9.102448,7.6059735 10.148274,7.0272597 c 0,-1.0091794 4.36e-4,-2.018079 -2.93e-4,-3.0271184 z m 4.146416,5.6632471 c -7.3e-4,0.0924 0,0.185626 -1.46e-4,0.278578 7.28e-4,0.688465 0,1.377212 -10e-4,2.065676 -1.47e-4,0.355852 0,0.711564 -1.47e-4,1.067554 -1.140565,0.63177 -2.281277,1.26354 -3.421846,1.895449 4.39e-4,1.009039 -8.74e-4,2.01808 7.3e-4,3.027118 0.118072,-0.0644 0.236713,-0.131586 0.355216,-0.197383 1.702177,-0.948425 3.404501,-1.896709 5.106823,-2.845133 0.08892,-0.0504 0.180887,-0.09659 0.260471,-0.159308 0.202314,-0.155107 0.343845,-0.381049 0.392676,-0.625189 0.02916,-0.132986 0.01894,-0.26864 0.02042,-0.403168 -1.45e-4,-0.672227 -1.45e-4,-1.344453 0,-2.016539 -7.26e-4,-0.077 0,-0.156368 -0.01458,-0.233503 -0.03352,-0.222021 -0.17579,-0.425705 -0.375918,-0.541197 -0.776023,-0.437745 -1.551463,-0.87619 -2.328068,-1.312955 z M 4.002769,11.586835 c -2.916e-4,0.778058 -1.458e-4,1.556115 -1.458e-4,2.334033 7.287e-4,0.0448 0,0.0896 0,0.135786 0.014575,0.194725 0.07871,0.386089 0.1942972,0.546377 0.091829,0.128786 0.2157237,0.23798 0.3571103,0.316515 C 6.4150854,15.946223 8.275849,16.973323 10.136759,18 c 0.0011,-1.009459 0,-2.018919 5.83e-4,-3.028379 C 9.659542,14.706905 9.180868,14.443726 8.702632,14.179707 7.1793015,13.338935 5.6559709,12.498441 4.1326405,11.657809 4.0889115,11.635409 4.0466435,11.607409 4,11.587809 Z"
     style="fill:#ffffff"
     id="path1" />
</svg>
