<?xml version="1.0" encoding="UTF-8" standalone="no"?>
<!-- Created with Inkscape (http://www.inkscape.org/) -->

<svg
   width="22"
   height="22"
   viewBox="0 0 22 22.000001"
   version="1.1"
   id="svg5"
   inkscape:version="1.2.1 (9c6d41e410, 2022-07-14, custom)"
   sodipodi:docname="code-oss.svg"
   xmlns:inkscape="http://www.inkscape.org/namespaces/inkscape"
   xmlns:sodipodi="http://sodipodi.sourceforge.net/DTD/sodipodi-0.dtd"
   xmlns:xlink="http://www.w3.org/1999/xlink"
   xmlns="http://www.w3.org/2000/svg"
   xmlns:svg="http://www.w3.org/2000/svg">
  <sodipodi:namedview
     id="namedview7"
     pagecolor="#ffffff"
     bordercolor="#000000"
     borderopacity="0.25"
     inkscape:showpageshadow="2"
     inkscape:pageopacity="0.0"
     inkscape:pagecheckerboard="0"
     inkscape:deskcolor="#d1d1d1"
     inkscape:document-units="px"
     showgrid="false"
     inkscape:zoom="36.454545"
     inkscape:cx="11"
     inkscape:cy="11"
     inkscape:window-width="1920"
     inkscape:window-height="1011"
     inkscape:window-x="0"
     inkscape:window-y="0"
     inkscape:window-maximized="1"
     inkscape:current-layer="svg5" />
  <defs
     id="defs2">
    <linearGradient
       inkscape:collect="always"
       id="linearGradient2687">
      <stop
         style="stop-color:#2861ad;stop-opacity:1;"
         offset="0"
         id="stop2683" />
      <stop
         style="stop-color:#548bbf;stop-opacity:1;"
         offset="1"
         id="stop2685" />
    </linearGradient>
    <linearGradient
       inkscape:collect="always"
       xlink:href="#linearGradient2687"
       id="linearGradient2689"
       x1="16"
       y1="15.109246"
       x2="8"
       y2="2.385673"
       gradientUnits="userSpaceOnUse"
       gradientTransform="matrix(1.25,0,0,1.414697,1,-1.3750044)" />
    <linearGradient
       inkscape:collect="always"
       id="linearGradient3143">
      <stop
         style="stop-color:#d2d2d2;stop-opacity:1;"
         offset="0"
         id="stop3139" />
      <stop
         style="stop-color:#ffffff;stop-opacity:1"
         offset="1"
         id="stop3141" />
    </linearGradient>
    <linearGradient
       inkscape:collect="always"
       xlink:href="#linearGradient3143"
       id="linearGradient8657"
       x1="8"
       y1="22"
       x2="6"
       y2="2"
       gradientUnits="userSpaceOnUse"
       gradientTransform="translate(-1,-1)" />
    <linearGradient
       inkscape:collect="always"
       xlink:href="#linearGradient3143"
       id="linearGradient8666"
       x1="20"
       y1="19"
       x2="10"
       y2="5"
       gradientUnits="userSpaceOnUse"
       gradientTransform="translate(-1,-1)" />
  </defs>
  <rect
     style="fill:url(#linearGradient2689);fill-opacity:1;stroke-width:1.3298;stroke-linecap:round;stroke-linejoin:round"
     id="rect234"
     width="20"
     height="18"
     x="1"
     y="2"
     ry="1" />
  <path
     id="rect5831"
     style="fill:url(#linearGradient8666);fill-opacity:1;stroke-width:2;stroke-linecap:round;stroke-linejoin:round"
     d="M 10,4 C 9.446001,4 9,4.4460006 9,5 9,5.5539994 9.446001,6 10,6 h 6 C 16.553999,6 17,5.5539994 17,5 17,4.4460006 16.553999,4 16,4 Z m 2,4 c -0.553999,0 -1,0.4460006 -1,1 0,0.553999 0.446001,1 1,1 h 6 c 0.553999,0 1,-0.446001 1,-1 0,-0.5539994 -0.446001,-1 -1,-1 z m 0,4 c -0.553999,0 -1,0.446001 -1,1 0,0.553999 0.446001,1 1,1 h 6 c 0.553999,0 1,-0.446001 1,-1 0,-0.553999 -0.446001,-1 -1,-1 z m -2,4 c -0.553999,0 -1,0.446001 -1,1 0,0.553999 0.446001,1 1,1 h 6 c 0.553999,0 1,-0.446001 1,-1 0,-0.553999 -0.446001,-1 -1,-1 z" />
  <rect
     style="opacity:0.2;fill:#000000;fill-opacity:1;stroke-width:1.13389;stroke-linecap:round;stroke-linejoin:round"
     id="rect9469"
     width="5"
     height="18"
     x="1"
     y="2"
     ry="1" />
  <rect
     style="fill:url(#linearGradient8657);fill-opacity:1;stroke-width:1.82574;stroke-linecap:round;stroke-linejoin:round"
     id="rect5829"
     width="2"
     height="20"
     x="5"
     y="1"
     ry="1" />
</svg>
