<?xml version="1.0" encoding="UTF-8" standalone="no"?>
<!-- Created with Inkscape (http://www.inkscape.org/) -->

<svg
   width="22"
   height="22"
   viewBox="0 0 22 22"
   version="1.1"
   id="svg2535"
   inkscape:version="1.2.1 (9c6d41e410, 2022-07-14, custom)"
   sodipodi:docname="gnome-calculator.svg"
   xmlns:inkscape="http://www.inkscape.org/namespaces/inkscape"
   xmlns:sodipodi="http://sodipodi.sourceforge.net/DTD/sodipodi-0.dtd"
   xmlns:xlink="http://www.w3.org/1999/xlink"
   xmlns="http://www.w3.org/2000/svg"
   xmlns:svg="http://www.w3.org/2000/svg">
  <sodipodi:namedview
     id="namedview2537"
     pagecolor="#ffffff"
     bordercolor="#000000"
     borderopacity="0.25"
     inkscape:showpageshadow="2"
     inkscape:pageopacity="0.0"
     inkscape:pagecheckerboard="0"
     inkscape:deskcolor="#d1d1d1"
     inkscape:document-units="px"
     showgrid="false"
     inkscape:zoom="38.772727"
     inkscape:cx="10.987104"
     inkscape:cy="11"
     inkscape:window-width="1920"
     inkscape:window-height="1029"
     inkscape:window-x="0"
     inkscape:window-y="0"
     inkscape:window-maximized="1"
     inkscape:current-layer="svg2535" />
  <defs
     id="defs2532">
    <linearGradient
       inkscape:collect="always"
       xlink:href="#linearGradient10632"
       id="linearGradient986"
       x1="2.9104166"
       y1="0.5291667"
       x2="6.0854163"
       y2="4.7625008"
       gradientUnits="userSpaceOnUse"
       gradientTransform="matrix(4.7244094,0,0,4.7244094,-9.749999,-1.5000001)" />
    <linearGradient
       inkscape:collect="always"
       xlink:href="#linearGradient11400"
       id="linearGradient1114"
       x1="2.9104166"
       y1="1.0054166"
       x2="5.0270829"
       y2="1.7991667"
       gradientUnits="userSpaceOnUse"
       gradientTransform="matrix(5.1968503,0,0,5.0393699,-9.125,-2.0666665)" />
    <linearGradient
       inkscape:collect="always"
       xlink:href="#linearGradient10590"
       id="linearGradient2162"
       x1="2.6458335"
       y1="2.3812501"
       x2="3.1750002"
       y2="3.7041669"
       gradientUnits="userSpaceOnUse"
       gradientTransform="matrix(5.6692912,0,0,5.2913385,-1,-0.6)" />
    <linearGradient
       inkscape:collect="always"
       id="linearGradient10590">
      <stop
         style="stop-color:#d38100;stop-opacity:1;"
         offset="0"
         id="stop10586" />
      <stop
         style="stop-color:#e16300;stop-opacity:1;"
         offset="1"
         id="stop10588" />
    </linearGradient>
    <linearGradient
       inkscape:collect="always"
       id="linearGradient11400">
      <stop
         style="stop-color:#92bf87;stop-opacity:1;"
         offset="0"
         id="stop11396" />
      <stop
         style="stop-color:#66875b;stop-opacity:1;"
         offset="1"
         id="stop11398" />
    </linearGradient>
    <linearGradient
       inkscape:collect="always"
       id="linearGradient10632">
      <stop
         style="stop-color:#e6e6e4;stop-opacity:1;"
         offset="0"
         id="stop10628" />
      <stop
         style="stop-color:#bcbcb9;stop-opacity:1;"
         offset="1"
         id="stop10630" />
    </linearGradient>
  </defs>
  <rect
     style="fill:url(#linearGradient986);fill-opacity:1.0;stroke-width:2.5;stroke-linecap:round;stroke-linejoin:round;stroke-dasharray:30, 2.5"
     id="rect846"
     width="15"
     height="20"
     x="4"
     y="1"
     ry="1" />
  <rect
     style="fill:url(#linearGradient1114);fill-opacity:1.0;stroke-width:1.354"
     id="rect960"
     width="11"
     height="4"
     x="6"
     y="2.9999998" />
  <rect
     style="fill:url(#linearGradient2162);fill-opacity:1.0;stroke-width:1.44913"
     id="rect473"
     width="3"
     height="7"
     x="14"
     y="12"
     ry="1.5" />
  <path
     id="path9349"
     style="fill:#4f4f4f;fill-opacity:1;stroke-width:0.428571;stroke-linecap:round"
     d="M 7.5 12 C 6.6715744 12 6 12.671575 6 13.5 C 6 14.328425 6.6715744 15 7.5 15 C 8.3284256 15 9 14.328425 9 13.5 C 9 12.671575 8.3284256 12 7.5 12 z M 11.5 12 C 10.671575 12 10 12.671575 10 13.5 C 10 14.328425 10.671575 15 11.5 15 C 12.328426 15 13 14.328425 13 13.5 C 13 12.671575 12.328426 12 11.5 12 z M 7.5 16 C 6.6715744 16 6 16.671575 6 17.5 C 6 18.328425 6.6715744 19 7.5 19 C 8.3284256 19 9 18.328425 9 17.5 C 9 16.671575 8.3284256 16 7.5 16 z M 11.5 16 C 10.671575 16 10 16.671575 10 17.5 C 10 18.328425 10.671575 19 11.5 19 C 12.328426 19 13 18.328425 13 17.5 C 13 16.671575 12.328426 16 11.5 16 z " />
  <path
     id="path8258"
     style="fill:#909090;fill-opacity:1;stroke-width:0.428571;stroke-linecap:round"
     d="m 7.4999999,8 c -0.8284271,0 -1.5,0.6715729 -1.5,1.5 0,0.828427 0.6715729,1.5 1.5,1.5 C 8.3284271,11 9,10.328427 9,9.5 9,8.6715728 8.3284271,7.9999999 7.4999999,8 Z M 11.5,8 C 10.671573,7.9999998 9.9999998,8.6715728 9.9999999,9.5 9.9999998,10.328427 10.671573,11 11.5,11 12.328427,11 13,10.328427 13,9.5 13,8.6715729 12.328427,8 11.5,8 Z m 4,0 C 14.671573,8 14,8.6715729 14,9.5 14,10.328427 14.671573,11 15.5,11 16.328427,11 17,10.328427 17,9.5 17,8.6715729 16.328427,8 15.5,8 Z"
     sodipodi:nodetypes="sssssssssssssss" />
</svg>
