<?xml version="1.0" encoding="UTF-8" standalone="no"?>
<!-- Created with Inkscape (http://www.inkscape.org/) -->

<svg
   width="22"
   height="22"
   viewBox="0 0 22 22"
   version="1.1"
   id="svg2535"
   inkscape:version="1.2.1 (9c6d41e410, 2022-07-14, custom)"
   sodipodi:docname="gufw.svg"
   xmlns:inkscape="http://www.inkscape.org/namespaces/inkscape"
   xmlns:sodipodi="http://sodipodi.sourceforge.net/DTD/sodipodi-0.dtd"
   xmlns:xlink="http://www.w3.org/1999/xlink"
   xmlns="http://www.w3.org/2000/svg"
   xmlns:svg="http://www.w3.org/2000/svg">
  <sodipodi:namedview
     id="namedview2537"
     pagecolor="#ffffff"
     bordercolor="#000000"
     borderopacity="0.25"
     inkscape:showpageshadow="2"
     inkscape:pageopacity="0.0"
     inkscape:pagecheckerboard="0"
     inkscape:deskcolor="#d1d1d1"
     inkscape:document-units="px"
     showgrid="false"
     inkscape:zoom="36.454545"
     inkscape:cx="11"
     inkscape:cy="11"
     inkscape:window-width="1920"
     inkscape:window-height="1011"
     inkscape:window-x="0"
     inkscape:window-y="0"
     inkscape:window-maximized="1"
     inkscape:current-layer="svg2535" />
  <defs
     id="defs2532">
    <linearGradient
       inkscape:collect="always"
       xlink:href="#linearGradient1615"
       id="linearGradient8763"
       x1="32.000641"
       y1="32.927395"
       x2="7.999784"
       y2="3.427068"
       gradientUnits="userSpaceOnUse"
       gradientTransform="matrix(0.62497772,0,0,0.62711173,1.0003132,0.3508454)" />
    <linearGradient
       inkscape:collect="always"
       id="linearGradient1615">
      <stop
         style="stop-color:#592ea8;stop-opacity:1;"
         offset="0"
         id="stop1611" />
      <stop
         style="stop-color:#8962c9;stop-opacity:1;"
         offset="1"
         id="stop1613" />
    </linearGradient>
    <linearGradient
       inkscape:collect="always"
       id="linearGradient5685">
      <stop
         style="stop-color:#f8f8f8;stop-opacity:1;"
         offset="0"
         id="stop5681" />
      <stop
         style="stop-color:#c7c7c7;stop-opacity:1;"
         offset="1"
         id="stop5683" />
    </linearGradient>
    <linearGradient
       inkscape:collect="always"
       xlink:href="#linearGradient5685"
       id="linearGradient2811"
       x1="9.7988281"
       y1="9.2412109"
       x2="21"
       y2="21"
       gradientUnits="userSpaceOnUse" />
  </defs>
  <path
     id="path5150"
     style="color:#000000;fill:url(#linearGradient8763);fill-opacity:1;stroke-width:0.626044;stroke-linecap:round;stroke-linejoin:round"
     d="M 11,1 C 8.54299,1 7.4584796,1.5299814 6,2.5 4.7586251,3.4428128 3.4748099,4 2,4 A 1,1 0 0 0 1,5 v 6 c 0,2.110185 1.5111607,4.449241 3.1953125,6.101562 C 5.8249408,18.771071 9.066328,20.755101 11,21 12.933672,20.755101 16.17506,18.771071 17.804688,17.101562 19.48884,15.449241 21,13.110185 21,11 V 5 A 1,1 0 0 0 20,4 C 18.52519,4 17.241375,3.4428128 16,2.5 14.54152,1.5299814 13.45701,1 11,1 Z" />
  <path
     id="rect2694"
     style="fill:url(#linearGradient2811);stroke-linecap:round;stroke-linejoin:round;fill-opacity:1"
     d="M 16.886719 3.0976562 L 2.7109375 15.384766 C 3.1615869 16.005173 3.6706141 16.586781 4.1953125 17.101562 C 5.0295739 17.95624 6.2868433 18.892714 7.5742188 19.636719 L 21 8 L 21 5 A 1 1 0 0 0 20 4 C 18.872422 4 17.857397 3.6723888 16.886719 3.0976562 z " />
</svg>
