<?xml version="1.0" encoding="UTF-8" standalone="no"?>
<!-- Created with Inkscape (http://www.inkscape.org/) -->

<svg
   width="22"
   height="22"
   viewBox="0 0 22 22"
   version="1.1"
   id="svg2112"
   inkscape:version="1.2.1 (9c6d41e410, 2022-07-14, custom)"
   sodipodi:docname="kalarm.svg"
   xmlns:inkscape="http://www.inkscape.org/namespaces/inkscape"
   xmlns:sodipodi="http://sodipodi.sourceforge.net/DTD/sodipodi-0.dtd"
   xmlns:xlink="http://www.w3.org/1999/xlink"
   xmlns="http://www.w3.org/2000/svg"
   xmlns:svg="http://www.w3.org/2000/svg">
  <sodipodi:namedview
     id="namedview2114"
     pagecolor="#ffffff"
     bordercolor="#000000"
     borderopacity="0.25"
     inkscape:showpageshadow="2"
     inkscape:pageopacity="0.0"
     inkscape:pagecheckerboard="0"
     inkscape:deskcolor="#d1d1d1"
     inkscape:document-units="px"
     showgrid="false"
     inkscape:zoom="37.590909"
     inkscape:cx="10.308343"
     inkscape:cy="11.053204"
     inkscape:window-width="1920"
     inkscape:window-height="1029"
     inkscape:window-x="0"
     inkscape:window-y="0"
     inkscape:window-maximized="1"
     inkscape:current-layer="svg2112" />
  <defs
     id="defs2109">
    <linearGradient
       inkscape:collect="always"
       xlink:href="#linearGradient3161"
       id="linearGradient3163"
       x1="8.4666662"
       y1="15.345833"
       x2="8.4666662"
       y2="1.5874995"
       gradientUnits="userSpaceOnUse"
       gradientTransform="matrix(1.1629316,0,0,1.1629316,1.153848,1.1538478)" />
    <linearGradient
       inkscape:collect="always"
       id="linearGradient3161">
      <stop
         style="stop-color:#c7ccd1;stop-opacity:1;"
         offset="0"
         id="stop3157" />
      <stop
         style="stop-color:#fdfdfd;stop-opacity:1"
         offset="1"
         id="stop3159" />
    </linearGradient>
    <linearGradient
       inkscape:collect="always"
       xlink:href="#linearGradient1611"
       id="linearGradient884"
       x1="8"
       y1="0"
       x2="8"
       y2="16"
       gradientUnits="userSpaceOnUse"
       gradientTransform="matrix(1.25,0,0,1.25,1.0000005,1.0000002)" />
    <linearGradient
       inkscape:collect="always"
       id="linearGradient1611">
      <stop
         style="stop-color:#9ca3a8;stop-opacity:1;"
         offset="0"
         id="stop1607" />
      <stop
         style="stop-color:#63737d;stop-opacity:1"
         offset="1"
         id="stop1609" />
    </linearGradient>
  </defs>
  <circle
     style="fill:url(#linearGradient884);fill-opacity:1;stroke-width:1.25;stroke-linecap:round"
     id="path299"
     cx="11"
     cy="11"
     r="10" />
  <circle
     style="fill:url(#linearGradient3163);fill-opacity:1;stroke-width:0.307692"
     id="path2899"
     cx="11"
     cy="11"
     r="8" />
  <path
     id="rect3855"
     style="fill:#d73a02;stroke-width:0.499999"
     d="m 11,11 c 0.277,0 0.5,0.222999 0.5,0.5 v 5.750001 c 0,0.276997 -0.223,0.499997 -0.5,0.499997 -0.277,0 -0.5,-0.222992 -0.5,-0.499997 V 11.5 C 10.5,11.222999 10.723,11 11,11 Z"
     sodipodi:nodetypes="sssssss" />
  <path
     id="rect4157"
     style="fill:#3f4545;stroke-width:0.374999"
     d="M 5.6947405,8.163 C 5.4869905,8.522834 5.6094315,8.979769 5.96926,9.187519 l 4.371537,2.312654 c 0.367272,0.194295 0.816769,0.08531 1.024518,-0.274519 0.207751,-0.359834 0.08531,-0.81677 -0.274519,-1.02452 L 6.7192595,7.888481 C 6.3594265,7.68073 5.90249,7.803166 5.6947405,8.163 Z"
     sodipodi:nodetypes="scssccs" />
  <path
     id="rect4625"
     style="fill:#3f4545;stroke-width:0.374999"
     d="m 16.152664,6.0688345 c 0.146904,0.146903 0.146904,0.3834295 10e-7,0.530331 l -4.803533,4.8032665 c -0.146901,0.146901 -0.383429,0.146903 -0.530331,0 -0.146901,-0.146901 -0.146905,-0.383433 0,-0.53033 l 4.803533,-4.803267 c 0.146901,-0.1469005 0.383429,-0.1469025 0.53033,-5e-7 z"
     sodipodi:nodetypes="sccsscs" />
  <circle
     style="fill:#0c0c0c;fill-opacity:1;stroke-width:0.499999"
     id="path3553"
     cx="11"
     cy="11"
     r="2" />
</svg>
