<?xml version="1.0" encoding="UTF-8" standalone="no"?>
<!-- Created with Inkscape (http://www.inkscape.org/) -->

<svg
   width="22"
   height="22"
   viewBox="0 0 22 22"
   version="1.1"
   id="svg5"
   inkscape:version="1.2.1 (9c6d41e410, 2022-07-14, custom)"
   sodipodi:docname="kate.svg"
   xmlns:inkscape="http://www.inkscape.org/namespaces/inkscape"
   xmlns:sodipodi="http://sodipodi.sourceforge.net/DTD/sodipodi-0.dtd"
   xmlns:xlink="http://www.w3.org/1999/xlink"
   xmlns="http://www.w3.org/2000/svg"
   xmlns:svg="http://www.w3.org/2000/svg">
  <sodipodi:namedview
     id="namedview7"
     pagecolor="#ffffff"
     bordercolor="#000000"
     borderopacity="0.25"
     inkscape:showpageshadow="2"
     inkscape:pageopacity="0.0"
     inkscape:pagecheckerboard="0"
     inkscape:deskcolor="#d1d1d1"
     inkscape:document-units="px"
     showgrid="false"
     inkscape:zoom="36.772727"
     inkscape:cx="10.986403"
     inkscape:cy="11"
     inkscape:window-width="1920"
     inkscape:window-height="1012"
     inkscape:window-x="0"
     inkscape:window-y="0"
     inkscape:window-maximized="1"
     inkscape:current-layer="svg5"
     showguides="false" />
  <defs
     id="defs2">
    <linearGradient
       inkscape:collect="always"
       xlink:href="#linearGradient13862"
       id="linearGradient13864"
       x1="15.023741"
       y1="11.6178"
       x2="20.870384"
       y2="17.389194"
       gradientUnits="userSpaceOnUse"
       gradientTransform="matrix(0.50000014,0,0,0.50000014,-1.0000013,-0.50000114)" />
    <linearGradient
       inkscape:collect="always"
       id="linearGradient13862">
      <stop
         style="stop-color:#e6e6e6;stop-opacity:1;"
         offset="0"
         id="stop13858" />
      <stop
         style="stop-color:#b3b3b3;stop-opacity:1;"
         offset="1"
         id="stop13860" />
    </linearGradient>
    <linearGradient
       inkscape:collect="always"
       xlink:href="#linearGradient5110"
       id="linearGradient5112"
       x1="37.078941"
       y1="12.288808"
       x2="20.276628"
       y2="31.786217"
       gradientUnits="userSpaceOnUse"
       gradientTransform="matrix(0.50000014,0,0,0.50000014,-1.0000013,-0.50000114)" />
    <linearGradient
       inkscape:collect="always"
       id="linearGradient5110">
      <stop
         style="stop-color:#ffffff;stop-opacity:1;"
         offset="0"
         id="stop5106" />
      <stop
         style="stop-color:#b3b3b3;stop-opacity:1;"
         offset="1"
         id="stop5108" />
    </linearGradient>
    <linearGradient
       inkscape:collect="always"
       xlink:href="#linearGradient5110"
       id="linearGradient6572"
       x1="26.609182"
       y1="31.458633"
       x2="25.756056"
       y2="21.949287"
       gradientUnits="userSpaceOnUse"
       gradientTransform="matrix(0.50000014,0,0,0.50000014,-1.0000013,-0.50000114)" />
    <linearGradient
       inkscape:collect="always"
       xlink:href="#linearGradient5110"
       id="linearGradient12404"
       x1="17.576595"
       y1="12.781805"
       x2="28.050064"
       y2="10.215283"
       gradientUnits="userSpaceOnUse"
       gradientTransform="matrix(0.50000014,0,0,0.50000014,-1.0000013,-0.50000114)" />
    <linearGradient
       inkscape:collect="always"
       xlink:href="#linearGradient10942"
       id="linearGradient10944"
       x1="26.245859"
       y1="9.2360821"
       x2="23.220625"
       y2="16.559277"
       gradientUnits="userSpaceOnUse"
       gradientTransform="matrix(0.50000014,0,0,0.50000014,-1.0000013,-0.50000114)" />
    <linearGradient
       inkscape:collect="always"
       id="linearGradient10942">
      <stop
         style="stop-color:#cccccc;stop-opacity:1;"
         offset="0"
         id="stop10938" />
      <stop
         style="stop-color:#b3b3b3;stop-opacity:1;"
         offset="1"
         id="stop10940" />
    </linearGradient>
    <linearGradient
       inkscape:collect="always"
       xlink:href="#linearGradient9482"
       id="linearGradient9484"
       x1="13.481789"
       y1="26.418924"
       x2="37.078941"
       y2="14.640833"
       gradientUnits="userSpaceOnUse"
       gradientTransform="matrix(0.50000014,0,0,0.50000014,-1.0000013,-0.50000114)" />
    <linearGradient
       inkscape:collect="always"
       id="linearGradient9482">
      <stop
         style="stop-color:#e6e6e6;stop-opacity:1;"
         offset="0"
         id="stop9478" />
      <stop
         style="stop-color:#ffffff;stop-opacity:1;"
         offset="1"
         id="stop9480" />
    </linearGradient>
    <linearGradient
       inkscape:collect="always"
       id="linearGradient25654">
      <stop
         style="stop-color:#2a7fff;stop-opacity:1;"
         offset="0"
         id="stop25650" />
      <stop
         style="stop-color:#00ccff;stop-opacity:1;"
         offset="1"
         id="stop25652" />
    </linearGradient>
    <linearGradient
       inkscape:collect="always"
       xlink:href="#linearGradient25654"
       id="linearGradient957"
       x1="22"
       y1="22.007812"
       x2="2"
       y2="2.0078115"
       gradientUnits="userSpaceOnUse"
       gradientTransform="translate(-1,-1.0078115)" />
  </defs>
  <circle
     style="fill:url(#linearGradient957);fill-opacity:1;stroke-linecap:round;stroke-linejoin:round"
     id="path395"
     cx="11"
     cy="11"
     r="10" />
  <path
     style="fill:url(#linearGradient13864);fill-opacity:1;stroke-width:0.56147"
     d="M 8.5383911,8.373891 C 7.9409011,6.3903169 4.5643953,6.871643 4,6.8285793 4.6334695,6.5141269 5.2023431,6.6304245 6.5082721,5.6843978 9.024055,3.8619485 10.7891,3.8377253 12.122933,4.5614654 8.4764261,4.7000843 10.073217,6.7328763 10.610314,7.7796382 9.927284,7.9780374 8.8490711,8.277534 8.5383911,8.373891 Z"
     id="path10" />
  <path
     style="fill:url(#linearGradient5112);fill-opacity:1;stroke-width:0.56147"
     d="m 17.539474,5.6444041 c -1.313109,1.7344561 -3.49629,4.0778259 -5.885655,4.3865099 -2.389367,0.308678 -4.8917919,-0.03328 -5.4194409,1.746205 -0.4859143,1.638746 1.447652,3.168763 3.2201889,2.800009 1.893625,-0.393945 1.484667,-2.540233 0.448929,-4.001799 0.786742,-0.04511 0.32383,0.229512 1.657971,0.16226 l 0.866572,2.702047 c 0.497445,1.248636 1.710449,4.08254 1.940758,6.281411 C 13.261274,18.129608 12.691634,17.544755 10.975236,16.396642 8.7766421,14.925983 6.7714821,14.876195 5.7408952,12.709465 4.7125325,10.547415 6.2982601,8.990006 8.7339831,8.31554 12.214811,7.3516759 15.214006,6.4378454 17.539474,5.6444041 Z"
     id="path12" />
  <path
     style="fill:url(#linearGradient6572);fill-opacity:1;stroke-width:0.56147"
     d="m 9.903497,10.575329 c 0.786741,-0.04511 0.640394,-0.03343 1.974533,-0.100683 1.988609,1.695073 2.647752,2.281574 6.121971,4.754673 -3.492056,-0.249807 -6.13424,-1.382933 -8.096504,-4.65399 z"
     id="path14" />
  <path
     style="fill:url(#linearGradient12404);fill-opacity:1;stroke-width:0.56147"
     d="M 4,6.8285793 C 4.6334695,6.5141269 5.2059417,6.2549272 6.5118721,5.3089001 9.027654,3.4864513 11.691204,3.8839026 13.025036,4.6076415 9.378531,4.7462611 9.848373,5.4728213 9.834915,6.0424004 7.4121681,5.5317171 6.7047781,6.22655 4,6.8285793 Z"
     id="path16" />
  <path
     style="fill:url(#linearGradient10944);fill-opacity:1;stroke-width:0.56147"
     d="M 13.025036,4.6076415 C 9.378531,4.7462611 10.073218,6.7328771 10.610314,7.7796382 10.184787,7.9032405 10.004036,8.04405 9.435195,8.194597 7.1399781,4.1049124 11.151734,3.5728691 13.025036,4.6076415 Z"
     id="path18" />
  <path
     style="fill:url(#linearGradient9484);fill-opacity:1;stroke-width:0.56147"
     d="M 6.3975151,13.728297 C 4.6131156,11.430664 5.1671354,9.32468 8.6612481,8.230482 12.10936,7.150686 15.214006,6.4378446 17.539474,5.6444041 11.263897,8.035535 3.1810985,9.633278 6.3975151,13.728297 Z"
     id="path20" />
</svg>
