<?xml version="1.0" encoding="UTF-8" standalone="no"?>
<!-- Created with Inkscape (http://www.inkscape.org/) -->

<svg
   width="22"
   height="22"
   viewBox="0 0 22 22"
   version="1.1"
   id="svg2535"
   inkscape:version="1.2.1 (9c6d41e410, 2022-07-14, custom)"
   sodipodi:docname="kdevelop.svg"
   xmlns:inkscape="http://www.inkscape.org/namespaces/inkscape"
   xmlns:sodipodi="http://sodipodi.sourceforge.net/DTD/sodipodi-0.dtd"
   xmlns:xlink="http://www.w3.org/1999/xlink"
   xmlns="http://www.w3.org/2000/svg"
   xmlns:svg="http://www.w3.org/2000/svg">
  <sodipodi:namedview
     id="namedview2537"
     pagecolor="#ffffff"
     bordercolor="#000000"
     borderopacity="0.25"
     inkscape:showpageshadow="2"
     inkscape:pageopacity="0.0"
     inkscape:pagecheckerboard="0"
     inkscape:deskcolor="#d1d1d1"
     inkscape:document-units="px"
     showgrid="false"
     inkscape:zoom="37.590909"
     inkscape:cx="10.986699"
     inkscape:cy="11"
     inkscape:window-width="1920"
     inkscape:window-height="1029"
     inkscape:window-x="0"
     inkscape:window-y="0"
     inkscape:window-maximized="1"
     inkscape:current-layer="svg2535" />
  <defs
     id="defs2532">
    <linearGradient
       inkscape:collect="always"
       xlink:href="#linearGradient7900"
       id="linearGradient1602"
       x1="4.3359375"
       y1="3.5585938"
       x2="19.840315"
       y2="16.466707"
       gradientUnits="userSpaceOnUse" />
    <linearGradient
       inkscape:collect="always"
       id="linearGradient7900">
      <stop
         style="stop-color:#9bc062;stop-opacity:1;"
         offset="0"
         id="stop7892" />
      <stop
         style="stop-color:#96c74e;stop-opacity:1"
         offset="0.14573747"
         id="stop7894" />
      <stop
         style="stop-color:#699f3e;stop-opacity:1"
         offset="0.89999998"
         id="stop7896" />
      <stop
         style="stop-color:#5f9816;stop-opacity:1"
         offset="1"
         id="stop7898" />
    </linearGradient>
  </defs>
  <path
     id="path377"
     style="fill:url(#linearGradient1602);fill-opacity:1.0"
     d="M 14.087891 1.4902344 A 4 4 0 0 1 11 3 A 4 4 0 0 1 7.921875 1.5019531 A 10 10 0 0 0 4.3359375 3.5585938 A 4 4 0 0 1 4.0722656 7 A 4 4 0 0 1 1.2441406 8.9179688 A 10 10 0 0 0 1 11 A 10 10 0 0 0 1.2460938 13.083984 A 4 4 0 0 1 4.0722656 15 A 4 4 0 0 1 4.3359375 18.441406 A 10 10 0 0 0 7.921875 20.498047 A 4 4 0 0 1 11 19 A 4 4 0 0 1 14.105469 20.488281 A 10 10 0 0 0 17.6875 18.417969 A 4 4 0 0 1 17.927734 15 A 4 4 0 0 1 20.753906 13.083984 A 10 10 0 0 0 21 11 A 10 10 0 0 0 20.779297 8.9199219 A 4 4 0 0 1 17.927734 7 A 4 4 0 0 1 17.691406 3.5703125 A 10 10 0 0 0 14.087891 1.4902344 z " />
  <path
     d="m 10,7 v 3.4999 L 12.4999,7 15,7.44999 11.5,11.99989 15,16.49979 12.4999,16.99978 10,13.49988 v 2.9999 l -2,0.49999 v -9.5498 z"
     style="opacity:0.2;fill:#000000"
     id="path2796"
     sodipodi:nodetypes="cccccccccccc" />
  <path
     d="M 10,6 V 9.4999 L 12.4999,6 15,6.44999 11.5,10.99989 15,15.49979 12.4999,15.99978 10,12.49988 v 2.9999 l -2,0.49999 v -9.5498 z"
     style="fill:#ffffff"
     id="path2773"
     sodipodi:nodetypes="cccccccccccc" />
</svg>
