<?xml version="1.0" encoding="UTF-8" standalone="no"?>
<!-- Created with Inkscape (http://www.inkscape.org/) -->

<svg
   width="22"
   height="22"
   viewBox="0 0 22 22"
   version="1.1"
   id="svg5"
   inkscape:version="1.3.2 (1:1.3.2+202311252150+091e20ef0f)"
   sodipodi:docname="libreoffice-calc.svg"
   xmlns:inkscape="http://www.inkscape.org/namespaces/inkscape"
   xmlns:sodipodi="http://sodipodi.sourceforge.net/DTD/sodipodi-0.dtd"
   xmlns:xlink="http://www.w3.org/1999/xlink"
   xmlns="http://www.w3.org/2000/svg"
   xmlns:svg="http://www.w3.org/2000/svg">
  <sodipodi:namedview
     id="namedview7"
     pagecolor="#ffffff"
     bordercolor="#666666"
     borderopacity="1.0"
     inkscape:pageshadow="2"
     inkscape:pageopacity="0.0"
     inkscape:pagecheckerboard="0"
     inkscape:document-units="px"
     showgrid="false"
     units="px"
     height="64px"
     inkscape:zoom="36.863636"
     inkscape:cx="11"
     inkscape:cy="11"
     inkscape:window-width="1920"
     inkscape:window-height="1008"
     inkscape:window-x="0"
     inkscape:window-y="0"
     inkscape:window-maximized="1"
     inkscape:current-layer="svg5"
     inkscape:showpageshadow="2"
     inkscape:deskcolor="#d1d1d1" />
  <defs
     id="defs2">
    <linearGradient
       inkscape:collect="always"
       id="linearGradient3723">
      <stop
         style="stop-color:#369a26;stop-opacity:1"
         offset="0"
         id="stop3719" />
      <stop
         style="stop-color:#3fb12c;stop-opacity:1"
         offset="1"
         id="stop3721" />
    </linearGradient>
    <linearGradient
       inkscape:collect="always"
       id="linearGradient3529">
      <stop
         style="stop-color:#6ed85e;stop-opacity:1"
         offset="0"
         id="stop3525" />
      <stop
         style="stop-color:#41ba2f;stop-opacity:1"
         offset="1"
         id="stop3527" />
    </linearGradient>
    <linearGradient
       inkscape:collect="always"
       xlink:href="#linearGradient3723"
       id="linearGradient3212"
       x1="3.447747"
       y1="0.64509004"
       x2="2.7696862"
       y2="0"
       gradientUnits="userSpaceOnUse"
       gradientTransform="matrix(7.5591312,0,0,7.5591312,-6.5659066,1)" />
    <linearGradient
       inkscape:collect="always"
       xlink:href="#linearGradient3529"
       id="linearGradient3634"
       x1="2"
       y1="-1.3228346e-07"
       x2="10.000097"
       y2="10.000122"
       gradientUnits="userSpaceOnUse"
       gradientTransform="matrix(1.9999755,0,0,1.9999755,-0.99995088,1)" />
  </defs>
  <path
     id="rect857"
     style="fill:url(#linearGradient3634);fill-opacity:1;stroke-width:1.99997"
     d="M 4.9999754,1 C 3.891989,1 3,1.891989 3,2.9999754 V 19.000025 C 3,20.108008 3.891989,21 4.9999754,21 H 16.999634 c 1.107987,0 1.999975,-0.891992 1.999975,-1.999975 V 10.499768 C 19.02262,9.2065148 18.266652,8.34067 17.601188,7.6007737 L 12.399225,2.3984205 C 11.65933,1.7329598 10.592299,1.0129385 9.0008303,1 Z"
     sodipodi:nodetypes="ssssssccccs" />
  <path
     d="m 14.370515,1 c -1.213331,0.00999 -0.893592,1.1343034 -0.601571,1.3984515 l 4.26703,4.2872027 c 0.264145,0.2920256 1.388474,0.6117681 1.398452,-0.6015708 V 3.00002 C 19.434426,1.8920091 18.542417,1 17.434405,1 Z"
     style="fill:url(#linearGradient3212);fill-opacity:1;stroke-width:2.00002"
     id="path3058"
     sodipodi:nodetypes="ccccssc" />
  <path
     id="rect1"
     style="fill:#ffffff"
     d="M 7 11 C 6.4460036 11 6 11.446006 6 12 L 6 17 C 6 17.553994 6.4460036 18 7 18 L 15 18 C 15.553994 18 16 17.553994 16 17 L 16 12 C 16 11.446006 15.553994 11 15 11 L 7 11 z M 7 11.865234 L 15 11.865234 L 15 13 L 7 13 L 7 11.865234 z M 7 14 L 9 14 L 9 15 L 7 15 L 7 14 z M 10 14 L 12 14 L 12 15 L 10 15 L 10 14 z M 13 14 L 15 14 L 15 15 L 13 15 L 13 14 z M 7 16 L 9 16 L 9 17 L 7 17 L 7 16 z M 10 16 L 12 16 L 12 17 L 10 17 L 10 16 z M 13 16 L 15 16 L 15 17 L 13 17 L 13 16 z " />
</svg>
