<?xml version="1.0" encoding="UTF-8" standalone="no"?>
<!-- Created with Inkscape (http://www.inkscape.org/) -->

<svg
   width="22"
   height="22"
   viewBox="0 0 22 22"
   version="1.1"
   id="svg5"
   inkscape:version="1.2.1 (9c6d41e410, 2022-07-14, custom)"
   sodipodi:docname="libreoffice-math.svg"
   xmlns:inkscape="http://www.inkscape.org/namespaces/inkscape"
   xmlns:sodipodi="http://sodipodi.sourceforge.net/DTD/sodipodi-0.dtd"
   xmlns:xlink="http://www.w3.org/1999/xlink"
   xmlns="http://www.w3.org/2000/svg"
   xmlns:svg="http://www.w3.org/2000/svg">
  <sodipodi:namedview
     id="namedview7"
     pagecolor="#ffffff"
     bordercolor="#666666"
     borderopacity="1.0"
     inkscape:pageshadow="2"
     inkscape:pageopacity="0.0"
     inkscape:pagecheckerboard="0"
     inkscape:document-units="px"
     showgrid="false"
     units="px"
     height="64px"
     inkscape:zoom="37.590909"
     inkscape:cx="10.986699"
     inkscape:cy="11"
     inkscape:window-width="1920"
     inkscape:window-height="1029"
     inkscape:window-x="0"
     inkscape:window-y="0"
     inkscape:window-maximized="1"
     inkscape:current-layer="svg5"
     inkscape:showpageshadow="2"
     inkscape:deskcolor="#d1d1d1" />
  <defs
     id="defs2">
    <linearGradient
       inkscape:collect="always"
       id="linearGradient3723">
      <stop
         style="stop-color:#3d4c65;stop-opacity:1"
         offset="0"
         id="stop3719" />
      <stop
         style="stop-color:#455572;stop-opacity:1"
         offset="1"
         id="stop3721" />
    </linearGradient>
    <linearGradient
       inkscape:collect="always"
       id="linearGradient3529">
      <stop
         style="stop-color:#526587;stop-opacity:1"
         offset="0"
         id="stop3525" />
      <stop
         style="stop-color:#445471;stop-opacity:1"
         offset="1"
         id="stop3527" />
    </linearGradient>
    <linearGradient
       inkscape:collect="always"
       xlink:href="#linearGradient3723"
       id="linearGradient3212"
       x1="3.447747"
       y1="0.64509004"
       x2="2.7696862"
       y2="0"
       gradientUnits="userSpaceOnUse"
       gradientTransform="matrix(7.5591312,0,0,7.5591312,-6.5659066,1)" />
    <linearGradient
       inkscape:collect="always"
       xlink:href="#linearGradient3529"
       id="linearGradient3634"
       x1="2"
       y1="-1.3228346e-07"
       x2="10.000097"
       y2="10.000122"
       gradientUnits="userSpaceOnUse"
       gradientTransform="matrix(1.9999755,0,0,1.9999755,-0.9999509,1)" />
  </defs>
  <path
     id="rect857"
     style="fill:url(#linearGradient3634);fill-opacity:1;stroke-width:1.99997"
     d="M 4.9999754,1 C 3.891989,1 3,1.8919892 3,2.9999755 V 19.000025 C 3,20.108008 3.891989,21 4.9999754,21 H 16.999634 c 1.107987,0 1.999975,-0.891992 1.999975,-1.999975 V 10.499768 C 19.02262,9.2065148 18.266652,8.34067 17.601188,7.6007737 L 12.399225,2.3984204 C 11.65933,1.7329597 10.592299,1.0129386 9.0008303,1 Z"
     sodipodi:nodetypes="ssssssccccs" />
  <path
     d="m 14.370515,1 c -1.213331,0.00999 -0.893592,1.1343033 -0.601571,1.3984516 l 4.26703,4.2872026 c 0.264145,0.2920256 1.388474,0.6117681 1.398452,-0.6015708 V 3.0000201 C 19.434426,1.8920091 18.542417,1 17.434405,1 Z"
     style="fill:url(#linearGradient3212);fill-opacity:1;stroke-width:2.00002"
     id="path3058"
     sodipodi:nodetypes="ccccssc" />
  <path
     d="m 4.9999509,1.9999756 c -0.5539866,0 -0.9999755,0.4459888 -0.9999755,0.9999754 V 18.99956 c 0,0.553986 0.4459889,0.999974 0.9999755,0.999974 H 16.999658 c 0.553986,0 0.999975,-0.445988 0.999975,-0.999974 V 10.499378 C 17.99317,9.703653 17.633159,9.1701437 17.300431,8.8002002 L 11.199409,2.6991771 C 10.829465,2.3664508 10.295957,2.0064448 9.5002321,1.9999756 Z"
     style="fill:#ffffff;fill-opacity:1;stroke-width:0.264576"
     id="path863"
     sodipodi:nodetypes="ssssssccccs" />
  <path
     style="color:#000000;fill:#526587;fill-opacity:1;stroke:none;stroke-width:3.77944;stroke-linejoin:round;-inkscape-stroke:none"
     d="M 9.5028901,9.9997846 C 9.2593664,9.99876 9.050519,10.173319 9.0083155,10.41316 L 7.255014,16.893809 5.4431486,13.269882 4.5499622,13.720166 7.0483261,18.717092 c 0.2128276,0.442816 0.8698348,0.345292 0.9448588,-0.140252 L 9.9236475,10.996315 H 17.002215 V 9.9997846 Z"
     id="path1199"
     sodipodi:nodetypes="ccccccccccc" />
  <g
     id="g14804"
     transform="matrix(2.6724642,2.6724642,-2.6724642,2.6724642,27.719427,5.1930439)">
    <rect
       style="fill:#3d4c65;fill-opacity:1;stroke:none;stroke-width:0.264583;stroke-linecap:butt;stroke-linejoin:round;stroke-miterlimit:4;stroke-dasharray:none"
       id="rect7754"
       width="0.26458335"
       height="1.8520833"
       x="-0.83577478"
       y="3.5685468" />
    <rect
       style="fill:#455572;fill-opacity:1;stroke:none;stroke-width:0.264583;stroke-linecap:butt;stroke-linejoin:round;stroke-miterlimit:4;stroke-dasharray:none"
       id="rect12575"
       width="0.26458335"
       height="1.8520833"
       x="4.3622966"
       y="-0.22255856"
       transform="rotate(90)" />
  </g>
</svg>
