<?xml version="1.0" encoding="UTF-8" standalone="no"?>
<!-- Created with Inkscape (http://www.inkscape.org/) -->

<svg
   width="22"
   height="22"
   viewBox="0 0 22 22"
   version="1.1"
   id="svg2535"
   inkscape:version="1.2 (1:1.2.1+202207142221+cd75a1ee6d)"
   sodipodi:docname="preferences-desktop-color.svg"
   xmlns:inkscape="http://www.inkscape.org/namespaces/inkscape"
   xmlns:sodipodi="http://sodipodi.sourceforge.net/DTD/sodipodi-0.dtd"
   xmlns="http://www.w3.org/2000/svg"
   xmlns:svg="http://www.w3.org/2000/svg">
  <sodipodi:namedview
     id="namedview2537"
     pagecolor="#ffffff"
     bordercolor="#000000"
     borderopacity="0.25"
     inkscape:showpageshadow="2"
     inkscape:pageopacity="0.0"
     inkscape:pagecheckerboard="0"
     inkscape:deskcolor="#d1d1d1"
     inkscape:document-units="px"
     showgrid="false"
     inkscape:zoom="36.818182"
     inkscape:cx="10.98642"
     inkscape:cy="11"
     inkscape:window-width="1920"
     inkscape:window-height="1012"
     inkscape:window-x="0"
     inkscape:window-y="0"
     inkscape:window-maximized="1"
     inkscape:current-layer="svg2535"
     showguides="false"
     inkscape:lockguides="true" />
  <defs
     id="defs2532">
    <linearGradient
       id="linearGradient45680"
       x1="-102.06"
       x2="-102.06"
       y1="1.3231"
       y2="19.157"
       gradientTransform="matrix(1.1564843,0,0,1.1198791,130.61506,-0.48167347)"
       gradientUnits="userSpaceOnUse">
      <stop
         stop-color="#ffdc23"
         offset="0"
         id="stop22" />
      <stop
         stop-color="#e6628a"
         offset=".31552"
         id="stop24" />
      <stop
         stop-color="#7b5fc1"
         offset=".55428"
         id="stop26" />
      <stop
         stop-color="#1e9be1"
         offset=".79721"
         id="stop28" />
      <stop
         stop-color="#0082dc"
         offset="1"
         id="stop30" />
    </linearGradient>
    <linearGradient
       id="linearGradient1954"
       x1="-109.09"
       x2="-101.26"
       y1="11.122"
       y2="18.440001"
       gradientTransform="matrix(1.1564843,0,0,1.1198791,130.61506,-0.48168597)"
       gradientUnits="userSpaceOnUse">
      <stop
         stop-color="#64d2eb"
         offset="0"
         id="stop2" />
      <stop
         stop-color="#0082dc"
         offset="1"
         id="stop4" />
    </linearGradient>
    <linearGradient
       id="linearGradient1431"
       x1="-107.04"
       x2="-99.660004"
       y1="6.9531002"
       y2="17.895"
       gradientTransform="matrix(1.1564843,0,0,1.1198791,130.61506,-0.48173647)"
       gradientUnits="userSpaceOnUse">
      <stop
         stop-color="#a578e1"
         offset="0"
         id="stop7" />
      <stop
         stop-color="#5046a0"
         offset="1"
         id="stop9" />
    </linearGradient>
    <linearGradient
       id="linearGradient1439"
       x1="-105"
       x2="-97.016998"
       y1="4.2921"
       y2="13.799"
       gradientTransform="matrix(1.1564843,0,0,1.1198791,130.61506,-0.48133327)"
       gradientUnits="userSpaceOnUse">
      <stop
         stop-color="#eb82aa"
         offset="0"
         id="stop12" />
      <stop
         stop-color="#dc2850"
         offset="1"
         id="stop14" />
    </linearGradient>
    <linearGradient
       id="linearGradient1447"
       x1="-102.1"
       x2="-98.566002"
       y1="1.4752001"
       y2="7.8610001"
       gradientTransform="matrix(1.1564843,0,0,1.1198791,130.60204,-0.48148447)"
       gradientUnits="userSpaceOnUse">
      <stop
         stop-color="#ffdc23"
         offset="0"
         id="stop17" />
      <stop
         stop-color="#f0a019"
         offset="1"
         id="stop19" />
    </linearGradient>
  </defs>
  <path
     d="M 12.588462,1.000013 C 12.357489,0.998251 12.164233,1.1757889 12.164233,1.1757889 11.164069,2.0196321 10.322996,2.8215471 9.551607,3.6002679 v 6.429e-4 C 8.620034,4.5411594 7.887182,5.4107042 7.240174,6.2441033 5.7013001,8.2263699 4.9714145,9.8090099 4.5428508,11.063077 h -6.677e-4 c 5.57e-5,2.06e-4 -5e-5,4.28e-4 0,6.66e-4 8.29e-5,2.16e-4 -7.28e-5,4.29e-4 0,6.19e-4 -0.5676194,1.661759 -0.5418842,2.683633 -0.5418842,2.683633 -1.24e-5,4.004976 3.3525281,7.252019 7.4882841,7.251894 0.656897,0 1.284494,-0.104504 1.889244,-0.259759 2.04524,-0.52506 3.745574,-1.856532 4.712899,-3.636718 v -0.0013 c 0.547297,-1.007298 0.886792,-2.136853 0.886792,-3.354133 h 0.01544 c 0,0 0.173379,-1.791649 -1.223618,-4.1477181 -0.210185,-0.263552 -0.578613,-0.766046 -0.850492,-1.107419 -0.20792,-0.04272 -0.411936,-0.0859 -0.613155,-0.129551 0.200777,0.04356 0.405053,0.08628 0.612479,0.128908 C 15.181823,6.9738509 13.291017,6.0641042 12.868829,1.9005111 12.797815,1.3978007 12.953168,1.0001253 12.588467,1.0001253 Z M 10.82633,6.2154652 c 0.03414,0.026405 0.06916,0.052436 0.104882,0.078776 0.03573,0.026348 0.07225,0.053156 0.109587,0.079427 -0.03734,-0.026267 -0.07386,-0.052436 -0.109587,-0.078773 -0.03573,-0.026352 -0.07075,-0.053029 -0.104882,-0.079427 z m 1.326543,0.8040314 c 0.08635,0.042114 0.174694,0.083973 0.266233,0.1256538 -0.09169,-0.041752 -0.179765,-0.083466 -0.266233,-0.1256538 z m 0.607783,0.2747386 c 0.100736,0.042257 0.204759,0.083959 0.311288,0.12565 -0.106371,-0.041629 -0.210703,-0.083457 -0.311288,-0.12565 z M 7.275198,7.5787366 c 0.01633,0.073531 0.03568,0.1473914 0.05714,0.2207029 -0.02151,-0.073519 -0.04078,-0.1469643 -0.05714,-0.2207029 z m 8.578819,0.6829463 c 0.07458,0.0172 0.14975,0.03445 0.225902,0.05143 -0.07618,-0.017 -0.151273,-0.03423 -0.225902,-0.05143 z m -6.55986,1.9517791 c 0.09717,0.06429 0.198761,0.12785 0.303884,0.190756 -0.10514,-0.06291 -0.206724,-0.126466 -0.303884,-0.190756 z m 0.631306,0.377606 c 0.113322,0.06144 0.230568,0.121795 0.352295,0.181633 -0.121722,-0.05984 -0.238977,-0.120205 -0.352295,-0.181633 z m 1.566455,0.697258 c 0.148384,0.05455 0.301452,0.108203 0.459189,0.160809 -0.157737,-0.05261 -0.310805,-0.10626 -0.459189,-0.160809 z m 0.699205,0.238934 c 0.162503,0.05159 0.3294,0.102193 0.501553,0.151689 -0.172154,-0.0495 -0.339051,-0.100101 -0.501553,-0.151689 z m 1.033355,0.296874 c 0.09101,0.02365 0.182812,0.04658 0.276329,0.06966 0.09351,0.02308 0.185412,0.04726 0.275653,0.07161 -0.09023,-0.02435 -0.182161,-0.04788 -0.275653,-0.07096 -0.0935,-0.02308 -0.185321,-0.04667 -0.276329,-0.07032 z m 2.215286,0.74153 c 0.136989,0.06523 0.268027,0.132286 0.393306,0.201816 -0.125289,-0.06954 -0.256304,-0.136595 -0.393306,-0.201816 z m 1.503356,1.005862 c 0.0868,0.08318 0.168213,0.167913 0.244727,0.254557 -0.07651,-0.08665 -0.157936,-0.171394 -0.244727,-0.254557 z m 0.555338,0.655594 c 0.06169,0.09153 0.118543,0.184719 0.170773,0.279299 -0.05223,-0.09458 -0.109067,-0.187756 -0.170773,-0.279299 z m -3.290991,5.901069 c -0.08306,0.07473 -0.169771,0.148135 -0.25884,0.219404 0.08907,-0.07127 0.175783,-0.144683 0.25884,-0.219404 z m -0.393981,0.324868 c -0.0457,0.0347 -0.09189,0.06911 -0.138495,0.10287 -0.02433,0.0176 -0.04867,0.03338 -0.07329,0.04884 0.02463,-0.01544 0.04895,-0.03187 0.07329,-0.04947 0.04661,-0.03376 0.09281,-0.06751 0.138495,-0.102209 z"
     fill="url(#linearGradient45680)"
     id="path35"
     style="fill:url(#linearGradient45680);stroke-width:1.13804" />
  <path
     d="M 4.5428118,11.063214 C 3.9747113,12.725729 4.0001723,13.748359 4.0001723,13.748359 4.0001609,17.753335 7.353092,21.000127 11.488847,21 c 0.656897,0 1.284391,-0.104585 1.889115,-0.259831 0.0998,-0.06606 0.199724,-0.114169 0.297003,-0.184598 0.372918,-0.270014 0.719997,-0.571423 0.981883,-0.894099 0.130946,-0.161323 0.240381,-0.327841 0.321514,-0.498842 0.08114,-0.170989 0.133997,-0.345983 0.150598,-0.524304 0.01661,-0.178321 -0.0031,-0.360081 -0.06574,-0.543405 C 15.00059,17.911612 14.894669,17.726488 14.738115,17.540533 14.581554,17.354576 14.374611,17.167802 14.109407,16.981505 13.844214,16.79521 13.520866,16.609658 13.132309,16.425378 12.743753,16.241085 12.289779,16.057863 11.763091,15.87793 11.236481,15.697983 10.637064,15.521087 9.957764,15.34783 9.278385,15.174574 8.674297,14.971861 8.137995,14.743664 7.601652,14.515463 7.133121,14.261664 6.726362,13.987292 6.319658,13.712932 5.974595,13.417683 5.6841112,13.105931 5.3936419,12.794164 5.1576326,12.466009 4.9699576,12.125606 4.7822822,11.785203 4.6427323,11.432618 4.5444637,11.072373 c -8.081e-4,-0.003 -9.563e-4,-0.0061 -0.00234,-0.0093 z"
     fill="url(#linearGradient1954)"
     id="path37"
     style="fill:url(#linearGradient1954);stroke-width:1.13804" />
  <path
     d="m 4.5420309,11.063214 c 8.08e-4,0.003 9.562e-4,0.0062 0.00234,0.0093 0.098306,0.360258 0.2378191,0.712843 0.4254939,1.053233 0.1876749,0.340389 0.4236718,0.668558 0.7141559,0.980323 0.2904834,0.311766 0.6355443,0.607002 1.0422513,0.881362 0.406706,0.27436 0.875225,0.528173 1.411633,0.756372 0.536328,0.228197 1.140363,0.43091 1.819768,0.604166 0.679392,0.173257 1.278835,0.350154 1.805328,0.530101 0.52661,0.179946 0.980583,0.363166 1.369217,0.547447 0.388558,0.184292 0.711904,0.369845 0.977098,0.556129 0.265205,0.186295 0.472148,0.373056 0.628703,0.559026 0.156556,0.185968 0.262485,0.371079 0.325105,0.554389 0.06261,0.183312 0.08235,0.365083 0.06572,0.543405 -0.01661,0.17832 -0.06946,0.353314 -0.150597,0.524303 -0.08114,0.170988 -0.190563,0.337505 -0.321514,0.498843 -0.2619,0.322664 -0.608965,0.624086 -0.981883,0.894099 -0.09727,0.07044 -0.197214,0.118556 -0.297002,0.184595 2.045239,-0.52506 3.745443,-1.856911 4.712768,-3.637096 0.0036,-0.02994 0.01649,-0.06161 0.01974,-0.09144 0.04823,-0.448901 0.04263,-0.886085 -0.02749,-1.305594 -0.07014,-0.419523 -0.204627,-0.821331 -0.413562,-1.19963 -0.208922,-0.378289 -0.492342,-0.73294 -0.86055,-1.058401 -0.368209,-0.325486 -0.821218,-0.621603 -1.369219,-0.88252 -0.54792,-0.260918 -1.190596,-0.486647 -1.938552,-0.671305 -0.7481,-0.184659 -1.415666,-0.387698 -2.009203,-0.605894 C 10.898271,11.070231 10.378725,10.83683 9.925455,10.591093 9.472159,10.345357 9.085175,10.087526 8.757755,9.8202589 8.430296,9.5530039 8.162203,9.2766539 7.946191,8.9938779 7.730179,8.7111139 7.566118,8.4215729 7.447176,8.1292969 7.328248,7.8370214 7.254517,7.5419618 7.218284,7.2461966 7.182094,6.9504309 7.183824,6.6540233 7.215884,6.3607904 7.220584,6.3215094 7.234374,6.2836364 7.239834,6.2444671 5.7009725,8.2267339 4.9713474,9.8092479 4.5427837,11.063315 Z"
     fill="url(#linearGradient1431)"
     id="path39"
     style="fill:url(#linearGradient1431);stroke-width:1.13804" />
  <path
     d="m 7.239875,6.2443661 c -0.0057,0.039171 -0.01966,0.077041 -0.02396,0.1163233 -0.03203,0.2932458 -0.03387,0.5896539 0.0024,0.8854067 0.03619,0.2957648 0.109978,0.5908238 0.228893,0.8830998 0.11893,0.292276 0.283004,0.581817 0.499017,0.864581 0.21601,0.282764 0.484104,0.559126 0.811564,0.826381 0.327473,0.2672561 0.714456,0.5250861 1.1677,0.7708341 0.453296,0.245737 0.972842,0.479126 1.566326,0.697334 0.593508,0.218195 1.26114,0.421248 2.009201,0.605894 0.7481,0.184656 1.390814,0.410374 1.938683,0.671305 0.547948,0.260916 1.000933,0.557036 1.369218,0.88252 0.368195,0.325486 0.651629,0.680125 0.860574,1.058448 0.20895,0.378325 0.343426,0.780183 0.413552,1.199617 0.07012,0.41947 0.07572,0.856656 0.02749,1.305595 -0.0033,0.02982 -0.01604,0.06151 -0.01974,0.09144 0.547466,-1.007424 0.886857,-2.13723 0.886857,-3.354762 h 0.01556 c 0,0 0.173088,-1.792028 -1.223906,-4.1480971 C 17.559107,9.3367369 17.190743,8.8340129 16.918876,8.4926419 16.26097,8.3574589 15.627544,8.2185959 15.07581,8.0696039 14.419823,7.892468 13.835709,7.7067137 13.31706,7.5140561 12.798373,7.3213975 12.344986,7.121848 11.949794,6.9179895 11.554511,6.7141314 11.217241,6.5054475 10.931455,6.2947356 10.645654,6.0840237 10.411102,5.8713966 10.220891,5.6581652 10.030664,5.4449337 9.884831,5.2312733 9.776259,5.0198556 9.66766,4.808438 9.596571,4.5989737 9.555746,4.3936914 9.514916,4.1884223 9.504509,3.9872099 9.517471,3.7924222 9.522171,3.7259782 9.542571,3.6651761 9.552161,3.6002925 8.620275,4.5408056 7.887085,5.4107152 7.239947,6.2443661 Z"
     fill="url(#linearGradient1439)"
     id="path41"
     style="fill:url(#linearGradient1439);stroke-width:1.13804" />
  <path
     d="m 9.551828,3.6001672 c -0.0092,0.064897 -0.0303,0.1256692 -0.03469,0.1921296 -0.01301,0.1947859 -0.0024,0.3959997 0.03828,0.6012693 0.04083,0.2052691 0.111942,0.4147343 0.220514,0.6261514 0.108597,0.2114191 0.254406,0.4250777 0.444631,0.6383096 0.190212,0.2132328 0.424764,0.4258585 0.710564,0.6365704 0.285788,0.2107115 0.623057,0.4194086 1.01834,0.6232543 0.39527,0.2038591 0.848658,0.4033948 1.367267,0.5960657 0.518648,0.192672 1.102791,0.378412 1.758749,0.5555494 0.551708,0.148977 1.18516,0.287854 1.843059,0.423036 C 15.182165,6.9741166 13.29071,6.064118 12.86852,1.9005249 12.797506,1.3978145 12.952948,1.0000632 12.588249,1.0000632 12.357275,0.99830323 12.164538,1.1759905 12.164538,1.1759905 11.164373,2.0198338 10.32317,2.8214966 9.551782,3.6002175 Z"
     fill="url(#linearGradient1447)"
     id="path43"
     style="fill:url(#linearGradient1447);stroke-width:1.13804" />
</svg>
