<?xml version="1.0" encoding="UTF-8" standalone="no"?>
<!-- Created with Inkscape (http://www.inkscape.org/) -->

<svg
   width="22"
   height="22"
   viewBox="0 0 22 22"
   version="1.1"
   id="svg5"
   inkscape:version="1.2.1 (9c6d41e410, 2022-07-14, custom)"
   sodipodi:docname="preferences-desktop-theme-windowdecorations.svg"
   xmlns:inkscape="http://www.inkscape.org/namespaces/inkscape"
   xmlns:sodipodi="http://sodipodi.sourceforge.net/DTD/sodipodi-0.dtd"
   xmlns:xlink="http://www.w3.org/1999/xlink"
   xmlns="http://www.w3.org/2000/svg"
   xmlns:svg="http://www.w3.org/2000/svg">
  <sodipodi:namedview
     id="namedview7"
     pagecolor="#ffffff"
     bordercolor="#666666"
     borderopacity="1.0"
     inkscape:pageshadow="2"
     inkscape:pageopacity="0.0"
     inkscape:pagecheckerboard="0"
     inkscape:document-units="px"
     showgrid="false"
     units="px"
     height="64px"
     inkscape:zoom="36.727273"
     inkscape:cx="10.278465"
     inkscape:cy="11"
     inkscape:window-width="1920"
     inkscape:window-height="1012"
     inkscape:window-x="0"
     inkscape:window-y="0"
     inkscape:window-maximized="1"
     inkscape:current-layer="svg5"
     inkscape:showpageshadow="2"
     inkscape:deskcolor="#d1d1d1" />
  <defs
     id="defs2">
    <linearGradient
       inkscape:collect="always"
       xlink:href="#linearGradient2353"
       id="linearGradient1623"
       x1="1.490428"
       y1="0.96836084"
       x2="3.9701264"
       y2="1.9523772"
       gradientUnits="userSpaceOnUse"
       gradientTransform="matrix(1.837414,1.837414,-1.8957296,1.8957296,11.4897,4.7090674)" />
    <linearGradient
       inkscape:collect="always"
       id="linearGradient2353">
      <stop
         style="stop-color:#c6d0d7;stop-opacity:1;"
         offset="0"
         id="stop2349" />
      <stop
         style="stop-color:#82888b;stop-opacity:1"
         offset="1"
         id="stop2351" />
    </linearGradient>
    <linearGradient
       inkscape:collect="always"
       xlink:href="#linearGradient34770"
       id="linearGradient5000"
       x1="1.3890625"
       y1="-3.175"
       x2="2.7956591"
       y2="-4.1435666"
       gradientUnits="userSpaceOnUse"
       gradientTransform="matrix(1.5638353,1.5638353,1.62637,-1.62637,10.872611,6.5846734)" />
    <linearGradient
       inkscape:collect="always"
       id="linearGradient34770">
      <stop
         style="stop-color:#f8a731;stop-opacity:1;"
         offset="0"
         id="stop34766" />
      <stop
         style="stop-color:#ea631d;stop-opacity:1"
         offset="1"
         id="stop34768" />
    </linearGradient>
  </defs>
  <rect
     style="fill:#797774;fill-opacity:1;stroke:none;stroke-width:0.414716;stroke-linecap:round;stroke-linejoin:round"
     id="rect261617"
     width="19.999998"
     height="16"
     x="1"
     y="3"
     ry="2" />
  <path
     id="rect1043"
     style="fill:#fafafa;fill-opacity:1;stroke-width:3;stroke-linecap:round;stroke-linejoin:round"
     d="M 2.9999997,6 H 18.999999 C 19.553999,6 20,6.4460001 20,6.9999998 v 9.9999992 c 0,0.554 -0.446001,0.999999 -1.000001,0.999999 H 2.9999997 c -0.5539998,0 -0.9999998,-0.445999 -0.9999998,-0.999999 V 6.9999998 C 1.9999999,6.4460001 2.4459999,6 2.9999997,6 Z"
     sodipodi:nodetypes="sssssssss" />
  <path
     id="rect1066"
     style="fill:#c4c4c4;fill-opacity:1;stroke-width:1.5;stroke-linecap:round;stroke-linejoin:round"
     d="m 14,3.9999999 v 0.9999998 h 1 V 3.9999999 Z m 2,0 v 0.9999998 h 1 V 3.9999999 Z m 2,0 v 0.9999998 h 0.999999 V 3.9999999 Z" />
  <path
     id="path6136"
     style="color:#000000;fill:url(#linearGradient5000);stroke-width:0.596738;stroke-linecap:round;stroke-linejoin:round;-inkscape-stroke:none"
     d="m 9.3857891,13.614206 c -2.5451183,-0.655493 -2.6955888,1.809303 -3.3311716,2.64707 -0.1159748,0.167308 -0.027213,0.240888 0.080307,0.306848 1.8893941,0.214281 4.2361315,-1.463442 3.2508646,-2.953918 z"
     sodipodi:nodetypes="cccc" />
  <path
     id="path2852"
     style="color:#000000;fill:url(#linearGradient1623);fill-opacity:1;stroke-width:0.698343;stroke-linecap:round;stroke-linejoin:round;-inkscape-stroke:none"
     d="M 15.930562,7.0694333 C 15.158081,6.2969357 9.2467891,12.202817 8.1916455,13.257942 c -0.00461,0.0042 -0.00866,0.0087 -0.013115,0.01311 -0.1431572,0.143157 -0.1431572,0.373648 0,0.516802 l 1.0336044,1.033616 c 0.1431571,0.143157 0.3736482,0.143157 0.5168022,0 0.0045,-0.0045 0.009,-0.0085 0.01311,-0.01311 C 10.797183,13.753206 16.70304,7.8418894 15.930567,7.0694329 Z"
     sodipodi:nodetypes="ccsssscc" />
</svg>
