<?xml version="1.0" encoding="UTF-8" standalone="no"?>
<!-- Created with Inkscape (http://www.inkscape.org/) -->

<svg
   width="22"
   height="22"
   viewBox="0 0 22 22"
   version="1.1"
   id="svg2112"
   inkscape:version="1.2.2 (1:1.2.2+202305151914+b0a8486541)"
   sodipodi:docname="preferences-system-splash.svg"
   xmlns:inkscape="http://www.inkscape.org/namespaces/inkscape"
   xmlns:sodipodi="http://sodipodi.sourceforge.net/DTD/sodipodi-0.dtd"
   xmlns:xlink="http://www.w3.org/1999/xlink"
   xmlns="http://www.w3.org/2000/svg"
   xmlns:svg="http://www.w3.org/2000/svg">
  <sodipodi:namedview
     id="namedview2114"
     pagecolor="#ffffff"
     bordercolor="#000000"
     borderopacity="0.25"
     inkscape:showpageshadow="2"
     inkscape:pageopacity="0.0"
     inkscape:pagecheckerboard="0"
     inkscape:deskcolor="#d1d1d1"
     inkscape:document-units="px"
     showgrid="false"
     inkscape:zoom="37.727273"
     inkscape:cx="10.986747"
     inkscape:cy="11"
     inkscape:window-width="1920"
     inkscape:window-height="1008"
     inkscape:window-x="0"
     inkscape:window-y="0"
     inkscape:window-maximized="1"
     inkscape:current-layer="svg2112" />
  <defs
     id="defs2109">
    <linearGradient
       inkscape:collect="always"
       xlink:href="#linearGradient2986"
       id="linearGradient2988"
       x1="0.092814192"
       y1="13.470937"
       x2="-3.2895818"
       y2="13.470937"
       gradientUnits="userSpaceOnUse"
       gradientTransform="matrix(2.3651875,0,0,0.3059441,14.780478,15.878647)" />
    <linearGradient
       inkscape:collect="always"
       id="linearGradient2986">
      <stop
         style="stop-color:#818990;stop-opacity:1;"
         offset="0"
         id="stop2982" />
      <stop
         style="stop-color:#bcc5cf;stop-opacity:1"
         offset="1"
         id="stop2984" />
    </linearGradient>
    <linearGradient
       inkscape:collect="always"
       xlink:href="#linearGradient1116"
       id="linearGradient988"
       x1="0"
       y1="6.5000005"
       x2="16"
       y2="6.5000005"
       gradientUnits="userSpaceOnUse"
       gradientTransform="matrix(1.25,0,0,1.2727272,1,1.7272731)" />
    <linearGradient
       inkscape:collect="always"
       id="linearGradient1116">
      <stop
         style="stop-color:#555a5f;stop-opacity:1;"
         offset="0"
         id="stop1112" />
      <stop
         style="stop-color:#4b4f53;stop-opacity:1"
         offset="1"
         id="stop1114" />
    </linearGradient>
    <linearGradient
       inkscape:collect="always"
       xlink:href="#linearGradient2301"
       id="linearGradient3955"
       x1="5.0270834"
       y1="6.8791666"
       x2="8.2020836"
       y2="8.9958334"
       gradientUnits="userSpaceOnUse"
       gradientTransform="matrix(5.6692915,0,0,5.6692911,-26.500002,-34.999998)" />
    <linearGradient
       inkscape:collect="always"
       id="linearGradient2301">
      <stop
         style="stop-color:#3fe3e7;stop-opacity:1;"
         offset="0"
         id="stop2297" />
      <stop
         style="stop-color:#066bbc;stop-opacity:1"
         offset="1"
         id="stop2299" />
    </linearGradient>
  </defs>
  <path
     id="rect958"
     style="fill:#bcc5cf;stroke-width:4.08249;stroke-linecap:round;stroke-linejoin:round"
     d="m 10.000001,17 h 2.000001 L 12,19 h -2 z"
     sodipodi:nodetypes="ccccc" />
  <rect
     style="fill:url(#linearGradient988);fill-opacity:1;stroke-width:1.26131"
     id="rect978"
     width="20"
     height="14"
     x="1"
     y="3"
     ry="2" />
  <rect
     style="fill:url(#linearGradient3955);fill-opacity:1;stroke-width:4.5;stroke-linecap:round;stroke-linejoin:round"
     id="rect3867"
     width="18"
     height="12"
     x="1.9999994"
     y="4.0000005"
     ry="1" />
  <path
     id="rect2848"
     style="fill:url(#linearGradient2988);stroke-width:1.12535;stroke-linecap:round;stroke-linejoin:round"
     d="m 7.0000003,19 h 8.0000007 v 1 H 7.0000003 Z" />
  <path
     id="path917"
     style="opacity:0.5;fill:#ffffff;stroke-width:0.555554;stroke-linecap:square;stroke-linejoin:bevel"
     d="M 10.999999,5.0000079 C 8.23858,5.0000079 6.0000069,7.238581 6.0000069,10 c 0,2.76142 2.2385731,4.999993 4.9999921,4.999993 2.76142,0 4.999993,-2.238573 4.999993,-4.999993 0,-2.761419 -2.238573,-4.9999921 -4.999993,-4.9999921 z m 0,0.9999985 c 2.209136,0 3.999994,1.7908582 3.999994,3.9999936 0,2.209136 -1.790858,3.999994 -3.999994,3.999994 -2.2091354,0 -3.9999936,-1.790858 -3.9999936,-3.999994 0,-2.2091354 1.7908582,-3.9999936 3.9999936,-3.9999936 z" />
  <path
     id="path955"
     style="fill:#ffffff;stroke-width:0.555554;stroke-linecap:square;stroke-linejoin:bevel"
     d="m 10.999999,5.0000079 v 0.9999985 c 2.209134,0 3.999994,1.7908602 3.999994,3.9999936 0,1.104567 -0.448017,2.104265 -1.171873,2.828121 l 0.70703,0.70703 c 0.04661,-0.04661 0.09197,-0.09416 0.136719,-0.142578 a 4.9999923,4.9999923 0 0 0 0.06055,-0.06641 4.9999923,4.9999923 0 0 0 0.003,-0.003 c 0.03096,-0.03478 0.0618,-0.06983 0.0918,-0.105468 a 4.9999923,4.9999923 0 0 0 0.01465,-0.01758 4.9999923,4.9999923 0 0 0 0.04004,-0.04981 c 0.035,-0.04307 0.06994,-0.08662 0.103516,-0.13086 a 4.9999923,4.9999923 0 0 0 0.02149,-0.02832 c 0.008,-0.01065 0.01555,-0.02151 0.02343,-0.03223 0.0291,-0.03956 0.05701,-0.07968 0.08496,-0.120117 a 4.9999923,4.9999923 0 0 0 0.05469,-0.0791 c 3.99e-4,-6e-4 6e-4,-0.0014 10e-4,-0.002 a 4.9999923,4.9999923 0 0 0 0.07715,-0.121093 4.9999923,4.9999923 0 0 0 0.06152,-0.10254 c 0.004,-0.0069 0.0087,-0.01358 0.0127,-0.02051 a 4.9999923,4.9999923 0 0 0 0.07031,-0.124999 4.9999923,4.9999923 0 0 0 0.0498,-0.09473 c 0.0056,-0.01076 0.01111,-0.02142 0.0166,-0.03222 a 4.9999923,4.9999923 0 0 0 0.0068,-0.01465 4.9999923,4.9999923 0 0 0 0.05664,-0.114258 4.9999923,4.9999923 0 0 0 0.05957,-0.13086 4.9999923,4.9999923 0 0 0 0.05371,-0.127929 c 6.5e-4,-0.0016 0.0013,-0.0032 0.0019,-0.0049 a 4.9999923,4.9999923 0 0 0 0.05176,-0.133789 4.9999923,4.9999923 0 0 0 0.03809,-0.108398 c 0.0031,-0.0092 0.0067,-0.01815 0.0098,-0.02734 a 4.9999923,4.9999923 0 0 0 0.0049,-0.01465 4.9999923,4.9999923 0 0 0 0.0791,-0.259765 4.9999923,4.9999923 0 0 0 0.03613,-0.139648 4.9999923,4.9999923 0 0 0 0.03223,-0.139649 4.9999923,4.9999923 0 0 0 0.02441,-0.125 c 9.5e-4,-0.0052 0.002,-0.01042 0.003,-0.01563 a 4.9999923,4.9999923 0 0 0 0.0068,-0.04004 4.9999923,4.9999923 0 0 0 0.02929,-0.186523 c 0.0026,-0.01911 0.0054,-0.03843 0.0078,-0.05762 a 4.9999923,4.9999923 0 0 0 0.0049,-0.04199 4.9999923,4.9999923 0 0 0 0.0098,-0.08691 c 0.0065,-0.06666 0.01077,-0.133773 0.01465,-0.201171 a 4.9999923,4.9999923 0 0 0 0.0039,-0.05664 c 0.0034,-0.07457 0.0056,-0.14914 0.0058,-0.224571 a 4.9999923,4.9999923 0 0 0 0,-0.026365 c -2.61e-4,-0.079675 -0.0029,-0.1585477 -0.0068,-0.2373041 a 4.9999923,4.9999923 0 0 0 0,-0.00295 c -1.5e-4,-0.00295 -8e-4,-0.00584 -10e-4,-0.00879 -0.0036,-0.068466 -0.0083,-0.1363918 -0.01465,-0.2041012 a 4.9999923,4.9999923 0 0 0 -0.0049,-0.055664 4.9999923,4.9999923 0 0 0 -0.002,-0.01367 c -0.0057,-0.052897 -0.01319,-0.1058134 -0.02051,-0.1582028 a 4.9999923,4.9999923 0 0 0 -0.0166,-0.1132813 4.9999923,4.9999923 0 0 0 -0.02539,-0.1416013 4.9999923,4.9999923 0 0 0 -0.02929,-0.1406248 4.9999923,4.9999923 0 0 0 -0.06738,-0.2656246 c -0.0012,-0.0042 -0.0018,-0.00853 -0.003,-0.012695 a 4.9999923,4.9999923 0 0 0 -0.003,-0.00977 4.9999923,4.9999923 0 0 0 -0.08301,-0.2617181 c -2.37e-4,-7e-4 -7.5e-4,-0.00125 -10e-4,-0.00195 a 4.9999923,4.9999923 0 0 0 -10e-4,-10e-4 4.9999923,4.9999923 0 0 0 -0.04101,-0.1152338 c -0.0024,-0.00645 -0.0044,-0.01309 -0.0068,-0.01953 a 4.9999923,4.9999923 0 0 0 -0.01758,-0.04297 4.9999923,4.9999923 0 0 0 -0.03613,-0.089844 4.9999923,4.9999923 0 0 0 -0.253906,-0.5253897 c -9.5e-4,-0.00165 -0.002,-0.00325 -0.003,-0.0049 a 4.9999923,4.9999923 0 0 0 -0.0039,-0.00684 4.9999923,4.9999923 0 0 0 -0.310546,-0.4833978 c -0.0011,-0.00155 -0.0018,-0.00335 -0.0029,-0.0049 a 4.9999923,4.9999923 0 0 0 -0.003,-0.0039 4.9999923,4.9999923 0 0 0 -0.366211,-0.4462883 c -0.0014,-0.00155 -0.0025,-0.00335 -0.0039,-0.0049 a 4.9999923,4.9999923 0 0 0 -0.0098,-0.00879 4.9999923,4.9999923 0 0 0 -0.406249,-0.3906244 c -0.0031,-0.0027 -0.0057,-0.0061 -0.0088,-0.00879 a 4.9999923,4.9999923 0 0 0 -0.0077,-0.00585 4.9999923,4.9999923 0 0 0 -0.460937,-0.349609 4.9999923,4.9999923 0 0 0 -0.502929,-0.2949215 c -0.002,-10e-4 -0.0039,-0.00195 -0.0059,-0.00295 a 4.9999923,4.9999923 0 0 0 -0.0059,-0.00195 4.9999923,4.9999923 0 0 0 -0.533202,-0.2343747 4.9999923,4.9999923 0 0 0 -0.557617,-0.1689452 c -0.002,-4.78e-4 -0.0038,-0.0015 -0.0059,-0.00195 a 4.9999923,4.9999923 0 0 0 -0.0088,-0.00195 4.9999923,4.9999923 0 0 0 -0.547851,-0.097656 c -0.01268,-0.00155 -0.02538,-0.00345 -0.03809,-0.0049 a 4.9999923,4.9999923 0 0 0 -0.572085,-0.033092 z" />
</svg>
