<?xml version="1.0" encoding="UTF-8" standalone="no"?>
<!-- Created with Inkscape (http://www.inkscape.org/) -->

<svg
   width="22"
   height="22"
   viewBox="0 0 22 22.000001"
   version="1.1"
   id="svg5"
   inkscape:version="1.2.1 (9c6d41e410, 2022-07-14, custom)"
   sodipodi:docname="preferences-system-windows.svg"
   xmlns:inkscape="http://www.inkscape.org/namespaces/inkscape"
   xmlns:sodipodi="http://sodipodi.sourceforge.net/DTD/sodipodi-0.dtd"
   xmlns="http://www.w3.org/2000/svg"
   xmlns:svg="http://www.w3.org/2000/svg">
  <sodipodi:namedview
     id="namedview7"
     pagecolor="#ffffff"
     bordercolor="#000000"
     borderopacity="0.25"
     inkscape:showpageshadow="2"
     inkscape:pageopacity="0.0"
     inkscape:pagecheckerboard="0"
     inkscape:deskcolor="#d1d1d1"
     inkscape:document-units="px"
     showgrid="false"
     inkscape:zoom="36.454545"
     inkscape:cx="10.986284"
     inkscape:cy="11"
     inkscape:window-width="1920"
     inkscape:window-height="1011"
     inkscape:window-x="0"
     inkscape:window-y="0"
     inkscape:window-maximized="1"
     inkscape:current-layer="svg5" />
  <defs
     id="defs2" />
  <rect
     style="fill:#797774;stroke-linecap:round;stroke-linejoin:round"
     id="rect421"
     width="18"
     height="14"
     x="3"
     y="2"
     ry="2" />
  <path
     d="M 5.0000003,5 H 18.999999 c 0.554,0 1,0.4460001 1,0.9999998 v 8.0000012 c 0,0.553999 -0.446,0.999998 -1,0.999998 H 5.0000003 c -0.5539998,0 -0.9999998,-0.445999 -0.9999998,-0.999998 V 5.9999998 C 4.0000005,5.4460001 4.4460005,5 5.0000003,5 Z"
     style="fill:#fafafa;fill-opacity:1;stroke-width:3;stroke-linecap:round;stroke-linejoin:round"
     id="path431" />
  <path
     d="m 14,3 v 0.9999998 h 1 V 3 Z m 2,0 v 0.9999998 h 1 V 3 Z m 2,0 v 0.9999998 h 1 V 3 Z"
     style="fill:#c4c4c4;fill-opacity:1;stroke-width:1.5;stroke-linecap:round;stroke-linejoin:round"
     id="path464" />
  <rect
     style="fill:#797774;fill-opacity:1;stroke:none;stroke-width:0.368024;stroke-linecap:round;stroke-linejoin:round"
     id="rect261617"
     width="18"
     height="14"
     x="1"
     y="6"
     ry="2" />
  <path
     id="rect1043"
     style="fill:#fafafa;fill-opacity:1;stroke-width:3;stroke-linecap:round;stroke-linejoin:round"
     d="M 2.9999996,9.0000001 H 16.999999 c 0.554,0 1,0.4460001 1,0.9999998 V 18 c 0,0.553999 -0.446,0.999998 -1,0.999998 H 2.9999996 C 2.4459998,18.999998 1.9999998,18.553999 1.9999998,18 V 9.9999999 c 0,-0.5539997 0.446,-0.9999998 0.9999998,-0.9999998 z"
     sodipodi:nodetypes="sssssssss" />
  <path
     id="rect1066"
     style="fill:#c4c4c4;fill-opacity:1;stroke-width:1.5;stroke-linecap:round;stroke-linejoin:round"
     d="m 11.999999,7 v 0.9999998 h 1 V 7 Z m 2,0 v 0.9999998 h 1 V 7 Z m 2,0 v 0.9999998 h 1 V 7 Z"
     sodipodi:nodetypes="ccccccccccccccc" />
</svg>
