<?xml version="1.0" encoding="UTF-8" standalone="no"?>
<!-- Created with Inkscape (http://www.inkscape.org/) -->

<svg
   width="22"
   height="22"
   viewBox="0 0 22 22"
   version="1.1"
   id="svg69118"
   inkscape:version="1.2.1 (9c6d41e410, 2022-07-14, custom)"
   sodipodi:docname="preferences-online-accounts.svg"
   xmlns:inkscape="http://www.inkscape.org/namespaces/inkscape"
   xmlns:sodipodi="http://sodipodi.sourceforge.net/DTD/sodipodi-0.dtd"
   xmlns:xlink="http://www.w3.org/1999/xlink"
   xmlns="http://www.w3.org/2000/svg"
   xmlns:svg="http://www.w3.org/2000/svg">
  <sodipodi:namedview
     id="namedview69120"
     pagecolor="#ffffff"
     bordercolor="#666666"
     borderopacity="1.0"
     inkscape:pageshadow="2"
     inkscape:pageopacity="0.0"
     inkscape:pagecheckerboard="0"
     inkscape:document-units="px"
     showgrid="false"
     units="px"
     inkscape:zoom="36.818182"
     inkscape:cx="10.98642"
     inkscape:cy="11"
     inkscape:window-width="1920"
     inkscape:window-height="1012"
     inkscape:window-x="0"
     inkscape:window-y="0"
     inkscape:window-maximized="1"
     inkscape:current-layer="svg69118"
     inkscape:showpageshadow="2"
     inkscape:deskcolor="#d1d1d1"
     showguides="false" />
  <defs
     id="defs69115">
    <linearGradient
       inkscape:collect="always"
       id="linearGradient2497">
      <stop
         style="stop-color:#1998df;stop-opacity:1;"
         offset="0"
         id="stop2493" />
      <stop
         style="stop-color:#076cbe;stop-opacity:1;"
         offset="1"
         id="stop2495" />
    </linearGradient>
    <linearGradient
       inkscape:collect="always"
       xlink:href="#linearGradient984"
       id="linearGradient7450"
       x1="2.9104171"
       y1="3.1750004"
       x2="14.552084"
       y2="12.700001"
       gradientUnits="userSpaceOnUse"
       gradientTransform="matrix(1.1729569,0,0,1.1729569,2.0689654,0.06896521)" />
    <linearGradient
       inkscape:collect="always"
       id="linearGradient984">
      <stop
         style="stop-color:#26b4eb;stop-opacity:1;"
         offset="0"
         id="stop980" />
      <stop
         style="stop-color:#15b393;stop-opacity:1"
         offset="1"
         id="stop982" />
    </linearGradient>
    <linearGradient
       inkscape:collect="always"
       id="linearGradient3933">
      <stop
         style="stop-color:#93daee;stop-opacity:1"
         offset="0"
         id="stop3929" />
      <stop
         style="stop-color:#afe5e3;stop-opacity:1"
         offset="1"
         id="stop3931" />
    </linearGradient>
    <linearGradient
       inkscape:collect="always"
       xlink:href="#linearGradient3933"
       id="linearGradient1092"
       x1="2.0112064"
       y1="5.8552232"
       x2="16.656895"
       y2="16.056877"
       gradientUnits="userSpaceOnUse"
       gradientTransform="translate(2)" />
    <linearGradient
       inkscape:collect="always"
       xlink:href="#linearGradient2497"
       id="linearGradient2320"
       x1="8.562398"
       y1="1.3003726"
       x2="8.5805483"
       y2="8.2474289"
       gradientUnits="userSpaceOnUse"
       gradientTransform="matrix(0.87219869,0,0,0.87219869,-1.3846155,6.846154)" />
    <linearGradient
       inkscape:collect="always"
       xlink:href="#linearGradient2497"
       id="linearGradient3853"
       x1="9.9999533"
       y1="12.999999"
       x2="9.9999533"
       y2="19"
       gradientUnits="userSpaceOnUse"
       gradientTransform="translate(-3.9998827,2.0000004)" />
  </defs>
  <circle
     style="fill:url(#linearGradient7450);fill-opacity:1;stroke-width:1.32151;stroke-linecap:round;stroke-linejoin:round"
     id="path7362"
     cx="12"
     cy="10"
     r="9" />
  <path
     id="path371"
     style="opacity:0.6;fill:url(#linearGradient1092);fill-opacity:1"
     d="m 12,1 a 9,9 0 0 0 -9,9 9,9 0 0 0 9,9 9,9 0 0 0 9,-9 9,9 0 0 0 -9,-9 z m 0,1 A 8,8 0 0 1 13.003906,2.0644531 8,8 0 0 0 12,2 Z m 0,0 a 3,8 0 0 1 2.597656,4 H 9.4023438 A 3,8 0 0 1 12,2 Z m 1.046875,0.070312 A 8,8 0 0 1 14.035156,2.265625 8,8 0 0 1 19.412109,6.9960938 8,8 0 0 0 18.925781,6 h -3.34375 A 4,9 0 0 0 14.035156,2.265625 8,8 0 0 0 13.046875,2.0703125 Z m -2.136719,0.015625 a 8,8 0 0 0 -0.71875,0.1445313 8,8 0 0 1 0.71875,-0.1445313 z M 9.9589844,2.2871094 A 4,9 0 0 0 8.4257812,6 H 5.0957031 A 8,8 0 0 1 9.9589844,2.2871094 Z M 5.0742188,6.0351562 A 8,8 0 0 0 4.6503906,6.9023438 8,8 0 0 1 5.0742188,6.0351562 Z M 4.609375,7 H 8.2382812 A 4,9 0 0 0 8,10 4,9 0 0 0 8.2382812,13 H 4.609375 A 8,8 0 0 1 4,10 8,8 0 0 1 4.609375,7 Z M 9.2207031,7 H 14.779297 A 3,8 0 0 1 15,10 3,8 0 0 1 14.779297,13 H 9.2207031 A 3,8 0 0 1 9,10 3,8 0 0 1 9.2207031,7 Z m 6.5488279,0 h 3.644531 A 8,8 0 0 1 20,10 8,8 0 0 1 19.390625,13 H 15.761719 A 4,9 0 0 0 16,10 4,9 0 0 0 15.769531,7 Z M 4.6503906,13.097656 a 8,8 0 0 0 0.4238282,0.867188 8,8 0 0 1 -0.4238282,-0.867188 z m 14.6992184,0 a 8,8 0 0 1 -0.423828,0.867188 8,8 0 0 0 0.423828,-0.867188 z M 5.0957031,14 H 8.4257812 A 4,9 0 0 0 9.9589844,17.712891 8,8 0 0 1 5.0957031,14 Z m 4.3066407,0 H 14.597656 A 3,8 0 0 1 12,18 3,8 0 0 1 9.4023438,14 Z m 6.1718752,0 h 3.330078 A 8,8 0 0 1 14.041016,17.712891 4,9 0 0 0 15.574219,14 Z m -5.382813,3.769531 a 8,8 0 0 0 0.71875,0.144531 8,8 0 0 1 -0.71875,-0.144531 z m 3.617188,0 a 8,8 0 0 1 -0.71875,0.144531 8,8 0 0 0 0.71875,-0.144531 z" />
  <circle
     style="fill:url(#linearGradient2320);fill-opacity:1.0;stroke-width:1.01076;stroke-linecap:round;stroke-linejoin:round"
     id="path846"
     cx="6"
     cy="11"
     r="3" />
  <path
     id="rect1284"
     style="fill:url(#linearGradient3853);fill-opacity:1.0;stroke-width:0.559019;stroke-linejoin:round"
     d="M 3.5,15 C 1.8380034,15 1,15.838004 1,17.5 V 18 c -0.014373,1.571284 2.1839356,3.007922 5,3 2.8160644,0.0079 5.01437,-1.428716 5,-3 V 17.5 C 11,15.838003 10.161996,15 8.5,15 Z"
     sodipodi:nodetypes="cscccscc" />
</svg>
