<?xml version="1.0" encoding="UTF-8" standalone="no"?>
<!-- Created with Inkscape (http://www.inkscape.org/) -->

<svg
   width="22"
   height="22"
   viewBox="0 0 22 22"
   version="1.1"
   id="svg2535"
   inkscape:version="1.2 (1:1.2.1+202207142221+cd75a1ee6d)"
   sodipodi:docname="preferences-system.svg"
   xmlns:inkscape="http://www.inkscape.org/namespaces/inkscape"
   xmlns:sodipodi="http://sodipodi.sourceforge.net/DTD/sodipodi-0.dtd"
   xmlns:xlink="http://www.w3.org/1999/xlink"
   xmlns="http://www.w3.org/2000/svg"
   xmlns:svg="http://www.w3.org/2000/svg">
  <sodipodi:namedview
     id="namedview2537"
     pagecolor="#ffffff"
     bordercolor="#000000"
     borderopacity="0.25"
     inkscape:showpageshadow="2"
     inkscape:pageopacity="0.0"
     inkscape:pagecheckerboard="0"
     inkscape:deskcolor="#d1d1d1"
     inkscape:document-units="px"
     showgrid="false"
     inkscape:zoom="36.818182"
     inkscape:cx="10.98642"
     inkscape:cy="11"
     inkscape:window-width="1920"
     inkscape:window-height="1012"
     inkscape:window-x="0"
     inkscape:window-y="0"
     inkscape:window-maximized="1"
     inkscape:current-layer="svg2535" />
  <defs
     id="defs2532">
    <linearGradient
       inkscape:collect="always"
       id="linearGradient6060">
      <stop
         style="stop-color:#8a8f97;stop-opacity:1;"
         offset="0"
         id="stop6056" />
      <stop
         style="stop-color:#8a8f97;stop-opacity:1"
         offset="0.14573747"
         id="stop6576" />
      <stop
         style="stop-color:#616e7a;stop-opacity:1"
         offset="0.89999998"
         id="stop6770" />
      <stop
         style="stop-color:#616e7a;stop-opacity:1"
         offset="1"
         id="stop6058" />
    </linearGradient>
    <linearGradient
       inkscape:collect="always"
       id="linearGradient7024">
      <stop
         style="stop-color:#ffffff;stop-opacity:1;"
         offset="0"
         id="stop7020" />
      <stop
         style="stop-color:#f0f0f0;stop-opacity:1"
         offset="0.25"
         id="stop7732" />
      <stop
         style="stop-color:#cccccc;stop-opacity:1"
         offset="1"
         id="stop7022" />
    </linearGradient>
    <linearGradient
       inkscape:collect="always"
       id="linearGradient8250">
      <stop
         style="stop-color:#0568ba;stop-opacity:1;"
         offset="0"
         id="stop8246" />
      <stop
         style="stop-color:#0568ba;stop-opacity:1"
         offset="0.23999999"
         id="stop9054" />
      <stop
         style="stop-color:#0f4c8a;stop-opacity:1"
         offset="0.80000001"
         id="stop8830" />
      <stop
         style="stop-color:#0f4c8f;stop-opacity:1"
         offset="1"
         id="stop8248" />
    </linearGradient>
    <linearGradient
       inkscape:collect="always"
       xlink:href="#linearGradient6060"
       id="linearGradient1602"
       x1="4.3359375"
       y1="3.5585938"
       x2="19.840315"
       y2="16.466707"
       gradientUnits="userSpaceOnUse" />
    <linearGradient
       inkscape:collect="always"
       xlink:href="#linearGradient8250"
       id="linearGradient1659"
       x1="7"
       y1="7"
       x2="15"
       y2="15"
       gradientUnits="userSpaceOnUse" />
    <linearGradient
       inkscape:collect="always"
       xlink:href="#linearGradient7024"
       id="linearGradient1667"
       x1="17"
       y1="17"
       x2="5"
       y2="5"
       gradientUnits="userSpaceOnUse" />
  </defs>
  <path
     id="path377"
     style="fill:url(#linearGradient1602);fill-opacity:1"
     d="M 14.087891 1.4902344 A 4 4 0 0 1 11 3 A 4 4 0 0 1 7.921875 1.5019531 A 10 10 0 0 0 4.3359375 3.5585938 A 4 4 0 0 1 4.0722656 7 A 4 4 0 0 1 1.2441406 8.9179688 A 10 10 0 0 0 1 11 A 10 10 0 0 0 1.2460938 13.083984 A 4 4 0 0 1 4.0722656 15 A 4 4 0 0 1 4.3359375 18.441406 A 10 10 0 0 0 7.921875 20.498047 A 4 4 0 0 1 11 19 A 4 4 0 0 1 14.105469 20.488281 A 10 10 0 0 0 17.6875 18.417969 A 4 4 0 0 1 17.927734 15 A 4 4 0 0 1 20.753906 13.083984 A 10 10 0 0 0 21 11 A 10 10 0 0 0 20.779297 8.9199219 A 4 4 0 0 1 17.927734 7 A 4 4 0 0 1 17.691406 3.5703125 A 10 10 0 0 0 14.087891 1.4902344 z " />
  <circle
     style="fill:url(#linearGradient1667);fill-opacity:1"
     id="path379"
     cx="11"
     cy="11"
     r="5" />
  <circle
     style="fill:url(#linearGradient1659);fill-opacity:1"
     id="path433"
     cx="11"
     cy="11"
     r="4" />
</svg>
