<?xml version="1.0" encoding="UTF-8" standalone="no"?>
<!-- Created with Inkscape (http://www.inkscape.org/) -->

<svg
   width="22"
   height="22"
   viewBox="0 0 22 22"
   version="1.1"
   id="svg5"
   inkscape:version="1.2.1 (9c6d41e410, 2022-07-14, custom)"
   sodipodi:docname="preferences-desktop-accessibility.svg"
   xmlns:inkscape="http://www.inkscape.org/namespaces/inkscape"
   xmlns:sodipodi="http://sodipodi.sourceforge.net/DTD/sodipodi-0.dtd"
   xmlns:xlink="http://www.w3.org/1999/xlink"
   xmlns="http://www.w3.org/2000/svg"
   xmlns:svg="http://www.w3.org/2000/svg">
  <sodipodi:namedview
     id="namedview7"
     pagecolor="#ffffff"
     bordercolor="#666666"
     borderopacity="1.0"
     inkscape:pageshadow="2"
     inkscape:pageopacity="0.0"
     inkscape:pagecheckerboard="0"
     inkscape:document-units="px"
     showgrid="false"
     units="px"
     height="48px"
     inkscape:zoom="36.727273"
     inkscape:cx="11"
     inkscape:cy="11"
     inkscape:window-width="1920"
     inkscape:window-height="1010"
     inkscape:window-x="0"
     inkscape:window-y="0"
     inkscape:window-maximized="1"
     inkscape:current-layer="svg5"
     inkscape:lockguides="true"
     inkscape:showpageshadow="2"
     inkscape:deskcolor="#d1d1d1" />
  <defs
     id="defs2">
    <linearGradient
       inkscape:collect="always"
       id="linearGradient2779">
      <stop
         style="stop-color:#4397ff;stop-opacity:1;"
         offset="0"
         id="stop2775" />
      <stop
         style="stop-color:#2b59b2;stop-opacity:1"
         offset="1"
         id="stop2777" />
    </linearGradient>
    <linearGradient
       inkscape:collect="always"
       xlink:href="#linearGradient2779"
       id="linearGradient2781"
       x1="8.7312498"
       y1="0.5292055"
       x2="8.7313251"
       y2="16.404205"
       gradientUnits="userSpaceOnUse"
       gradientTransform="matrix(1.2236142,0,0,1.2236142,0.64172902,0.9273128)" />
  </defs>
  <path
     id="rect1286"
     style="fill:url(#linearGradient2781);fill-opacity:1;stroke-width:1.10054;stroke-linecap:round;stroke-linejoin:round"
     d="m 11.00003,1 c -1.6568359,-1.1e-7 -2.9999672,1.3431308 -2.9999672,2.9999667 0,1.6568346 1.3431313,2.9999666 2.9999672,2.9999666 1.656835,0 2.999967,-1.343132 2.999967,-2.9999666 C 13.999997,2.3431308 12.656865,0.99999989 11.00003,1 Z m 6.753831,3.9999555 c -0.26082,0.00705 -0.524871,0.078625 -0.76757,0.2187476 l -2.830046,1.2382674 c -0.731978,0.9387448 -1.873596,1.5429517 -3.156215,1.5429517 -1.228435,0 -2.3267683,-0.5542501 -3.0605134,-1.4257654 H 7.8945952 L 5.1133762,5.310499 C 4.8464081,5.1563647 4.5557745,5.0875542 4.2696355,5.0937045 3.7233706,5.1054209 3.1967198,5.3945722 2.9024634,5.9042424 2.4540726,6.6808782 2.7176176,7.6667651 3.4942536,8.1151553 l 4.2089376,2.0878677 v 3.556601 l -1.9452909,5.06635 c -0.3067166,0.8427 0.1260424,1.767478 0.9687392,2.074196 0.842699,0.30672 1.767478,-0.124083 2.0741956,-0.966786 l 1.5761539,-4.33003 c 0.176245,-0.446971 0.71728,-0.456716 0.923818,-0.0078 l 1.578108,4.337843 c 0.306718,0.842699 1.231496,1.273504 2.074196,0.966786 0.842698,-0.306718 1.275459,-1.231497 0.968739,-2.074196 l -1.843729,-5.06635 V 10.203023 L 18.605414,8.0214063 C 19.382051,7.5730161 19.645596,6.587129 19.197205,5.8104934 18.888936,5.2765562 18.327666,4.9844516 17.753861,4.9999555 Z" />
</svg>
