<?xml version="1.0" encoding="UTF-8" standalone="no"?>
<!-- Created with Inkscape (http://www.inkscape.org/) -->

<svg
   width="22"
   height="22"
   viewBox="0 0 22 22"
   version="1.1"
   id="svg5"
   inkscape:version="1.3.2 (091e20ef0f, 2023-11-25, custom)"
   sodipodi:docname="spotify-client.svg"
   xmlns:inkscape="http://www.inkscape.org/namespaces/inkscape"
   xmlns:sodipodi="http://sodipodi.sourceforge.net/DTD/sodipodi-0.dtd"
   xmlns:xlink="http://www.w3.org/1999/xlink"
   xmlns="http://www.w3.org/2000/svg"
   xmlns:svg="http://www.w3.org/2000/svg">
  <sodipodi:namedview
     id="namedview7"
     pagecolor="#ffffff"
     bordercolor="#666666"
     borderopacity="1.0"
     inkscape:pageshadow="2"
     inkscape:pageopacity="0.0"
     inkscape:pagecheckerboard="0"
     inkscape:document-units="px"
     showgrid="false"
     units="px"
     inkscape:zoom="36.727273"
     inkscape:cx="11"
     inkscape:cy="11"
     inkscape:window-width="1920"
     inkscape:window-height="1012"
     inkscape:window-x="0"
     inkscape:window-y="0"
     inkscape:window-maximized="1"
     inkscape:current-layer="svg5"
     inkscape:showpageshadow="2"
     inkscape:deskcolor="#d1d1d1" />
  <defs
     id="defs2">
    <linearGradient
       inkscape:collect="always"
       xlink:href="#linearGradient13"
       id="linearGradient884"
       x1="8"
       y1="0"
       x2="8"
       y2="16"
       gradientUnits="userSpaceOnUse"
       gradientTransform="matrix(1.25,0,0,1.25,1,1)" />
    <linearGradient
       inkscape:collect="always"
       id="linearGradient1066">
      <stop
         style="stop-color:#555556;stop-opacity:1;"
         offset="0"
         id="stop1062" />
      <stop
         style="stop-color:#2d2d2d;stop-opacity:1;"
         offset="1"
         id="stop1064" />
    </linearGradient>
    <linearGradient
       inkscape:collect="always"
       xlink:href="#linearGradient1066"
       id="linearGradient10"
       x1="10.158578"
       y1="5.9750957"
       x2="18.000101"
       y2="16.00099"
       gradientUnits="userSpaceOnUse" />
    <linearGradient
       inkscape:collect="always"
       id="linearGradient13">
      <stop
         style="stop-color:#64d36c;stop-opacity:1;"
         offset="0"
         id="stop12" />
      <stop
         style="stop-color:#22b04c;stop-opacity:1;"
         offset="1"
         id="stop13" />
    </linearGradient>
  </defs>
  <circle
     style="fill:url(#linearGradient884);stroke-width:1.25;stroke-linecap:round"
     id="path299"
     cx="11"
     cy="11"
     r="10" />
  <path
     d="M 10.158578,5.9750959 C 8.0758357,5.9680844 6.0743062,6.345357 4.5531096,7.1059553 4.0590211,7.3529277 3.8587567,7.9537211 4.105844,8.4477521 4.3528164,8.9418406 4.9536098,9.1421055 5.4476408,8.8950177 6.7091244,8.2642759 8.8431563,7.8817261 10.945687,7.9985334 c 2.10253,0.1168073 4.165941,0.7294299 5.414063,1.7695311 0.423959,0.3536875 1.054337,0.2968575 1.408203,-0.126953 C 18.12164,9.2171525 18.06481,8.5867746 17.641,8.2329084 15.889128,6.7730147 13.452522,6.1356319 11.055063,6.0024396 10.75538,5.9857906 10.456113,5.9760975 10.158578,5.9750959 Z M 9.7542812,9.9985335 c -1.4692197,0.01525 -2.9181733,0.2057605 -4.2089841,0.5234375 -0.402472,0.09907 -0.6482734,0.505824 -0.5488281,0.908204 0.099071,0.402472 0.5058238,0.648273 0.9082031,0.548828 3.1078241,-0.764858 7.4441459,-0.616323 9.9550779,0.912109 0.353777,0.215929 0.815629,0.103965 1.03125,-0.25 0.215929,-0.353777 0.103965,-0.815629 -0.25,-1.03125 -1.545528,-0.94078 -3.459124,-1.423803 -5.416016,-1.566406 -0.489223,-0.03565 -0.980963,-0.050011 -1.4707028,-0.044921 z m 0.9472658,3.3925785 c -1.5453248,0.0078 -3.0399327,0.265914 -4.1874999,0.648437 -0.3923231,0.130886 -0.604647,0.554661 -0.4746094,0.947266 0.1308862,0.392323 0.5546603,0.604647 0.9472656,0.47461 1.0259238,-0.341975 2.5309769,-0.595143 4.0019527,-0.570313 1.470977,0.02483 2.901891,0.338291 3.837891,0.978516 0.341904,0.234255 0.808997,0.146785 1.042969,-0.195313 0.234255,-0.341904 0.146785,-0.808997 -0.195313,-1.042969 -1.313996,-0.898773 -3.008092,-1.210361 -4.662109,-1.238281 -0.103376,-0.0017 -0.207525,-0.0025 -0.310547,-0.002 z"
     style="color:#000000;fill:url(#linearGradient10);stroke-linecap:round;-inkscape-stroke:none"
     id="path1" />
</svg>
