<?xml version="1.0" encoding="UTF-8" standalone="no"?>
<!-- Created with Inkscape (http://www.inkscape.org/) -->

<svg
   width="22"
   height="22"
   viewBox="0 0 22 22"
   version="1.1"
   id="svg5"
   inkscape:version="1.2.1 (9c6d41e410, 2022-07-14, custom)"
   sodipodi:docname="visual-studio-code.svg"
   xmlns:inkscape="http://www.inkscape.org/namespaces/inkscape"
   xmlns:sodipodi="http://sodipodi.sourceforge.net/DTD/sodipodi-0.dtd"
   xmlns:xlink="http://www.w3.org/1999/xlink"
   xmlns="http://www.w3.org/2000/svg"
   xmlns:svg="http://www.w3.org/2000/svg">
  <sodipodi:namedview
     id="namedview7"
     pagecolor="#ffffff"
     bordercolor="#000000"
     borderopacity="0.25"
     inkscape:showpageshadow="2"
     inkscape:pageopacity="0.0"
     inkscape:pagecheckerboard="0"
     inkscape:deskcolor="#d1d1d1"
     inkscape:document-units="px"
     showgrid="false"
     inkscape:zoom="36.772727"
     inkscape:cx="10.986403"
     inkscape:cy="11"
     inkscape:window-width="1920"
     inkscape:window-height="1012"
     inkscape:window-x="0"
     inkscape:window-y="0"
     inkscape:window-maximized="1"
     inkscape:current-layer="svg5" />
  <defs
     id="defs2">
    <linearGradient
       inkscape:collect="always"
       xlink:href="#linearGradient2463"
       id="linearGradient2465"
       x1="25.999876"
       y1="6.0003786"
       x2="26"
       y2="25.999962"
       gradientUnits="userSpaceOnUse"
       gradientTransform="matrix(0.99996726,0,0,0.99996726,-4.9995106,-4.9998031)" />
    <linearGradient
       inkscape:collect="always"
       id="linearGradient2463">
      <stop
         style="stop-color:#ffffff;stop-opacity:1;"
         offset="0"
         id="stop2459" />
      <stop
         style="stop-color:#ffffff;stop-opacity:0;"
         offset="1"
         id="stop2461" />
    </linearGradient>
  </defs>
  <path
     d="M 20.292255,3.1187338 16.174048,1.1243842 C 15.697406,0.89353767 15.127685,0.99092397 14.753564,1.3671847 L 1.2720005,13.58059 c -0.36262062,0.332554 -0.36220062,0.906756 10e-4,1.238767 l 1.1012221,1.006875 c 0.2968404,0.271475 0.7439013,0.291431 1.0635219,0.04759 L 19.672574,3.6361028 c 0.544641,-0.4155808 1.32695,-0.02484 1.32695,0.662757 v -0.0481 c 0,-0.4826688 -0.274918,-0.9226636 -0.707269,-1.132046 z"
     style="fill:#0072b0;stroke-width:0.999978"
     id="path3815" />
  <path
     d="m 20.292255,18.881002 -4.118207,1.994359 c -0.476642,0.23076 -1.046363,0.133417 -1.420484,-0.242799 L 1.2720005,7.9690964 C 0.90937988,7.6365579 0.90979988,7.0623428 1.2730005,6.7303382 L 2.3741826,5.7234245 C 2.671043,5.4519919 3.1181039,5.4320099 3.4377245,5.6758644 L 19.672594,18.363575 c 0.544641,0.415567 1.326952,0.02486 1.326952,-0.662766 v 0.04816 c 0,0.482629 -0.27492,0.922619 -0.707271,1.132053 z"
     style="fill:#008eda;stroke-width:0.999978"
     id="path3843" />
  <path
     d="m 16.174328,20.875482 c -0.476802,0.230626 -1.046503,0.133201 -1.420644,-0.24312 0.460941,0.463619 1.249183,0.135217 1.249183,-0.520477 V 1.8874195 c 0,-0.6557032 -0.788242,-0.98408573 -1.249183,-0.5204328 0.374121,-0.37630273 0.943842,-0.47381903 1.420644,-0.2431745 l 4.117507,1.9916096 c 0.432679,0.2092723 0.707814,0.6494292 0.707814,1.132306 V 17.751669 c 0,0.482867 -0.275144,0.923011 -0.707814,1.132285 z"
     style="fill:#1eacf8;stroke-width:0.999978"
     id="path3871" />
  <path
     d="m 15.613445,1.00061 c -0.126398,0.0022 -0.251018,0.02438 -0.37108,0.06446 -0.12,0.04006 -0.2352,0.09736 -0.339819,0.1738205 -0.0206,0.015 -0.0388,0.03432 -0.0586,0.05078 -0.0304,0.02526 -0.0616,0.04964 -0.0898,0.07812 L 6.9594709,8.4281053 3.4381045,5.6762424 C 3.1185039,5.4323779 2.670543,5.4516859 2.3737026,5.7231025 L 1.2721605,6.7308802 c -0.36314062,0.3320046 -0.36262062,0.9057037 0,1.2382402 L 4.3130861,10.82645 1.2721605,13.580265 c -0.36262062,0.332554 -0.36314062,0.908183 0,1.240194 l 1.1015421,1.005827 c 0.2968404,0.271473 0.7448013,0.292667 1.0644019,0.04881 l 3.4686463,-2.615148 7.8473932,7.372805 c 0.0936,0.09406 0.199001,0.17008 0.312481,0.228507 0.340422,0.175361 0.749802,0.186641 1.107403,0.01366 l 4.117047,-1.990169 c 0.1094,-0.05294 0.207521,-0.121712 0.29492,-0.201164 0.043,-0.0388 0.08216,-0.07896 0.119112,-0.123037 v -0.002 c 0.03689,-0.04409 0.07304,-0.09001 0.103513,-0.138667 v -0.002 c 0.06166,-0.09894 0.1082,-0.205127 0.140616,-0.318347 0.016,-0.05499 0.02876,-0.110663 0.0371,-0.167962 1.25e-4,-0.0012 -1.25e-4,-0.0026 0,-0.0039 0.0081,-0.05799 0.01366,-0.116112 0.01366,-0.17578 v -0.002 -0.04881 -13.4019052 -0.04882 c 0,-6.5e-4 2e-6,-0.0013 0,-0.00195 0,-0.05906 -0.0056,-0.1183401 -0.01366,-0.1757802 -1.25e-4,-0.00125 1.25e-4,-0.0026 0,-0.0038 -0.0081,-0.05724 -0.02134,-0.1127601 -0.0371,-0.1678204 -0.06439,-0.2249501 -0.190632,-0.4269806 -0.363252,-0.583919 -0.0874,-0.07946 -0.185401,-0.1482196 -0.294922,-0.2011662 L 16.174028,1.1237902 c -0.0596,-0.02882 -0.1196,-0.05164 -0.181601,-0.07032 -0.1238,-0.03734 -0.25242,-0.0548602 -0.378902,-0.05272 z m 0.388662,5.4021658 v 9.0934522 l -5.921671,-4.628756 z"
     style="opacity:0.25;fill:url(#linearGradient2465);fill-opacity:1;stroke-width:0.999978"
     id="path1332" />
</svg>
