<?xml version="1.0" encoding="UTF-8" standalone="no"?>
<!-- Created with Inkscape (http://www.inkscape.org/) -->

<svg
   width="22"
   height="22"
   viewBox="0 0 22 22"
   version="1.1"
   id="svg5"
   inkscape:version="1.3.2 (091e20ef0f, 2023-11-25, custom)"
   sodipodi:docname="wayland.svg"
   xmlns:inkscape="http://www.inkscape.org/namespaces/inkscape"
   xmlns:sodipodi="http://sodipodi.sourceforge.net/DTD/sodipodi-0.dtd"
   xmlns:xlink="http://www.w3.org/1999/xlink"
   xmlns="http://www.w3.org/2000/svg"
   xmlns:svg="http://www.w3.org/2000/svg">
  <sodipodi:namedview
     id="namedview7"
     pagecolor="#ffffff"
     bordercolor="#666666"
     borderopacity="1.0"
     inkscape:pageshadow="2"
     inkscape:pageopacity="0.0"
     inkscape:pagecheckerboard="0"
     inkscape:document-units="px"
     showgrid="false"
     units="px"
     inkscape:zoom="36.727273"
     inkscape:cx="11"
     inkscape:cy="11"
     inkscape:window-width="1920"
     inkscape:window-height="1012"
     inkscape:window-x="0"
     inkscape:window-y="0"
     inkscape:window-maximized="1"
     inkscape:current-layer="svg5"
     inkscape:showpageshadow="2"
     inkscape:deskcolor="#d1d1d1" />
  <defs
     id="defs2">
    <linearGradient
       inkscape:collect="always"
       xlink:href="#linearGradient1777"
       id="linearGradient2"
       x1="2.2857144"
       y1="2.3680553"
       x2="14.564292"
       y2="12.572753"
       gradientUnits="userSpaceOnUse"
       gradientTransform="matrix(1.25,0,0,1.25,1,1)" />
    <linearGradient
       inkscape:collect="always"
       id="linearGradient1777">
      <stop
         style="stop-color:#fedd00;stop-opacity:1;"
         offset="0"
         id="stop1773" />
      <stop
         style="stop-color:#fdcb00;stop-opacity:1"
         offset="0.63547182"
         id="stop1818" />
      <stop
         style="stop-color:#fab500;stop-opacity:1"
         offset="1"
         id="stop1775" />
    </linearGradient>
    <linearGradient
       inkscape:collect="always"
       id="linearGradient3161">
      <stop
         style="stop-color:#e6eaec;stop-opacity:1;"
         offset="0"
         id="stop3157" />
      <stop
         style="stop-color:#f6f6f6;stop-opacity:1;"
         offset="1"
         id="stop3159" />
    </linearGradient>
    <linearGradient
       inkscape:collect="always"
       xlink:href="#linearGradient3161"
       id="linearGradient7"
       x1="19.040949"
       y1="19"
       x2="11"
       y2="1"
       gradientUnits="userSpaceOnUse" />
  </defs>
  <circle
     style="fill:url(#linearGradient2);stroke-width:1.25"
     id="path1"
     cx="11"
     cy="11"
     r="10" />
  <path
     style="fill:url(#linearGradient7)"
     d="m 18.44905,1 c 0.353048,2.06e-5 0.550349,0.2795412 0.591899,0.8385724 L 18.595016,4.47129 h 0.109034 l 0.233642,-0.195018 h 0.06231 v 0.058506 c -0.321929,0.247038 -0.633456,0.92309 -0.934581,2.028166 -0.11424,0.9490935 -0.30635,1.8266645 -0.576327,2.632723 -0.238847,0.832078 -0.358267,1.599138 -0.358252,2.301192 l -0.451715,1.384614 c -10e-6,0.117015 0.171328,0.234026 0.514018,0.351027 -0.06232,0.27303 -0.155775,0.409542 -0.280372,0.409538 v 0.07801 h 0.109034 v 0.0585 c -1.5e-5,0.143019 -0.176543,0.214525 -0.529595,0.21452 l 0.0623,0.07801 v 0.273021 h -0.109034 c 0.07268,0.273031 0.22844,0.409538 0.467292,0.409538 v 0.136508 h -0.467292 v 0.07801 c 0.15575,5e-6 0.233636,0.117016 0.233646,0.351032 l -0.654203,0.27302 0.0623,0.07801 v 0.05851 c -9e-6,0.09101 -0.07789,0.136512 -0.233646,0.136512 v 0.078 c 0.197287,5e-6 0.29594,0.04549 0.29595,0.136513 -0.280382,0.117011 -0.649021,0.695559 -1.105917,1.735645 C 14.576312,18.538463 14.171328,19 13.828662,19 H 13.70405 c -0.259613,-0.208019 -0.472492,-0.897078 -0.638629,-2.067176 -0.664598,-1.781144 -0.996893,-2.82773 -0.996883,-3.139759 -10e-6,-0.806059 -0.212888,-1.164292 -0.63863,-2.074371 -0.114235,-0.403027 -0.192115,-1.107791 -0.233646,-1.718853 H 10.91589 c -0.706134,1.339119 -1.074773,2.005584 -1.105922,2.759638 -0.197301,0.442041 -0.353067,0.975085 -0.467288,1.599133 0.425748,0.143018 0.638626,0.279526 0.638631,0.409532 v 0.07801 C 9.649007,14.794154 9.415365,14.696643 9.280372,14.55363 9.134993,14.904662 8.9428825,15.47967 8.7040505,17.078797 8.517131,17.819861 8.283485,18.099928 8.0031175,18.099928 7.2139125,17.774903 6.554515,17.332321 6.0249245,16.591257 c -0.083076,6e-6 -0.218074,-0.370529 -0.404984,-1.111592 -0.11423,5e-6 -0.1921105,-0.370529 -0.233646,-1.111593 C 4.991692,13.31499 4.721706,12.512462 4.5763265,11.160347 V 9.132175 h -0.062308 l -0.2803724,0.07801 v -0.07801 c 0,-0.09099 0.093457,-0.1364975 0.2803724,-0.1365075 L 4.4517155,7.8255695 V 6.90899 L 4,3.4841014 V 2.2359965 C 4.1973012,1.45595 4.5399815,1.0659191 5.0280365,1.0658986 l 0.186925,0.195018 -0.186915,-0.058505 c 0.758046,1.0401013 1.20457,2.4173208 1.339563,3.1323663 H 6.897205 V 4.4712904 H 6.4922215 V 4.6273049 C 6.647982,5.225365 6.762207,5.5243925 6.834902,5.5243775 h 0.1246115 l 0.280372,-0.078008 0.062304,0.078008 0.062308,-0.078008 0.062303,0.078008 v 0.058505 C 7.219113,5.7389075 7.0789295,5.953427 7.0062395,6.226437 h -0.04672 V 6.3629445 H 7.068554 C 7.2139285,8.53414 7.4839195,9.678406 7.878522,10.796494 l 0.233646,0.195013 h 0.1246065 c 0.155761,10e-6 0.4828645,0.239651 0.9813105,-1.281484 C 9.539993,9.02098 9.773634,8.5164367 9.919018,7.9963838 l -0.0623,-0.2145201 c 0.3219,-0.5070314 0.654194,-0.7605494 0.996879,-0.7605649 h 0.109035 c 0.218064,1.55e-5 0.373825,0.1430235 0.467292,0.4290395 0.290749,0.429045 0.524395,0.972592 0.700933,1.8306507 l 0.872276,2.028166 c 0.114216,0.143024 0.171328,0.305534 0.171338,0.487546 0.321903,0.767066 0.612657,0.956281 0.872276,1.203299 h 0.186915 c 0.218059,5e-6 0.508813,-1.131087 0.872271,-3.029252 0.0623,10e-6 0.233636,-0.507032 0.514018,-1.521126 V 8.371615 L 15.323611,8.235102 15.089965,8.31311 h -0.29595 V 8.1570955 l 0.591899,-0.058506 h 0.467683 c 0.44651,-1.677124 0.856685,-2.977234 1.230529,-3.9003245 0.124597,-1.8981397 0.29594,-2.8472172 0.514019,-2.8472326 L 18.449067,1"
     id="path5" />
</svg>
