<?xml version="1.0" encoding="UTF-8" standalone="no"?>
<!-- Created with Inkscape (http://www.inkscape.org/) -->

<svg
   width="22"
   height="22"
   viewBox="0 0 22 22"
   version="1.1"
   id="svg364"
   inkscape:version="1.2.2 (1:1.2.2+202305151914+b0a8486541)"
   sodipodi:docname="youtube.svg"
   xmlns:inkscape="http://www.inkscape.org/namespaces/inkscape"
   xmlns:sodipodi="http://sodipodi.sourceforge.net/DTD/sodipodi-0.dtd"
   xmlns:xlink="http://www.w3.org/1999/xlink"
   xmlns="http://www.w3.org/2000/svg"
   xmlns:svg="http://www.w3.org/2000/svg">
  <sodipodi:namedview
     id="namedview366"
     pagecolor="#ffffff"
     bordercolor="#000000"
     borderopacity="0.25"
     inkscape:showpageshadow="2"
     inkscape:pageopacity="0.0"
     inkscape:pagecheckerboard="0"
     inkscape:deskcolor="#d1d1d1"
     inkscape:document-units="px"
     showgrid="false"
     inkscape:zoom="36.636364"
     inkscape:cx="10.986352"
     inkscape:cy="11"
     inkscape:window-width="1920"
     inkscape:window-height="1008"
     inkscape:window-x="0"
     inkscape:window-y="0"
     inkscape:window-maximized="1"
     inkscape:current-layer="svg364" />
  <defs
     id="defs361">
    <linearGradient
       inkscape:collect="always"
       id="linearGradient1284">
      <stop
         style="stop-color:#e94f11;stop-opacity:1;"
         offset="0"
         id="stop1280" />
      <stop
         style="stop-color:#c62300;stop-opacity:1;"
         offset="1"
         id="stop1282" />
    </linearGradient>
    <linearGradient
       inkscape:collect="always"
       xlink:href="#linearGradient1284"
       id="linearGradient1297"
       x1="4"
       y1="12.000001"
       x2="60"
       y2="52"
       gradientUnits="userSpaceOnUse"
       gradientTransform="matrix(0.35714287,0,0,0.35000001,-0.4285709,-0.1999998)" />
    <linearGradient
       inkscape:collect="always"
       xlink:href="#linearGradient3143"
       id="linearGradient1070"
       x1="5.8539066"
       y1="6.3996096"
       x2="4.7955728"
       y2="4.8121095"
       gradientUnits="userSpaceOnUse"
       gradientTransform="matrix(4.4094484,0,0,4.4054114,-13.145832,-12.53052)" />
    <linearGradient
       inkscape:collect="always"
       id="linearGradient3143">
      <stop
         style="stop-color:#d2d2d2;stop-opacity:1;"
         offset="0"
         id="stop3139" />
      <stop
         style="stop-color:#ffffff;stop-opacity:1"
         offset="1"
         id="stop3141" />
    </linearGradient>
  </defs>
  <path
     d="M 9.3554792,17.987417 C 6.0497947,17.924587 4.7080649,17.869111 3.8876049,17.761337 3.2859299,17.682297 2.9904499,17.605245 2.6571949,17.440478 2.106785,17.168347 1.764475,16.788877 1.5174402,16.176993 c -0.22586,-0.559418 -0.317825,-1.003739 -0.402225,-1.943343 -0.095245,-1.060349 -0.10269,-1.252311 -0.11258,-2.904415 -0.01165,-1.942881 0.0118,-2.579545 0.142275,-3.8691238 0.06842,-0.6760628 0.16814,-1.1253627 0.355515,-1.601817 C 1.6710701,5.4243971 1.826865,5.1849341 2.1102,4.9210481 2.4663,4.5893923 2.8573849,4.387779 3.3510949,4.2813475 4.0880149,4.1224853 7.4187798,4 11.001719,4 c 3.58294,0 6.913705,0.1224853 7.650624,0.2813475 0.532935,0.1148889 0.924075,0.3270995 1.305705,0.7084007 0.29869,0.2984324 0.45253,0.5696068 0.635605,1.1204172 0.18864,0.5675467 0.260985,1.0698212 0.368175,2.5561626 0.0509,0.705842 0.05089,3.955067 0,4.660562 -0.05956,0.825318 -0.13264,1.560285 -0.181305,1.82327 -0.12511,0.676123 -0.37083,1.309161 -0.647865,1.669085 -0.19007,0.246935 -0.56528,0.541164 -0.879035,0.68931 -0.317705,0.150013 -0.6204,0.224384 -1.108374,0.272338 -1.512105,0.148595 -6.129586,0.257091 -8.7897498,0.206524 z"
     style="fill:url(#linearGradient1297);fill-opacity:1;stroke-width:0.353554"
     id="path304" />
  <path
     style="color:#000000;fill:url(#linearGradient1070);fill-opacity:1;stroke:none;stroke-width:6.27526;stroke-linecap:round;stroke-linejoin:round;-inkscape-stroke:none"
     d="m 8.5150227,6.5663259 c -0.308866,0.1267427 -0.511746,0.4259509 -0.515001,0.759538 v 7.3368671 c -0.0051,0.745105 0.899027,1.118893 1.4223755,0.58803 l 5.3330848,-3.668993 c 0.326026,-0.324355 0.326026,-0.851699 0,-1.176058 L 9.4224002,6.737834 C 9.1825512,6.5024723 8.8243497,6.4347707 8.5150227,6.5663259 Z"
     id="path2850"
     sodipodi:nodetypes="cccccccc" />
</svg>
