<?xml version="1.0" encoding="UTF-8" standalone="no"?>
<!-- Created with Inkscape (http://www.inkscape.org/) -->

<svg
   width="22"
   height="22"
   viewBox="0 0 22 22"
   version="1.1"
   id="svg364"
   inkscape:version="1.2.2 (1:1.2.2+202305151914+b0a8486541)"
   sodipodi:docname="youtube-dl.svg"
   xmlns:inkscape="http://www.inkscape.org/namespaces/inkscape"
   xmlns:sodipodi="http://sodipodi.sourceforge.net/DTD/sodipodi-0.dtd"
   xmlns:xlink="http://www.w3.org/1999/xlink"
   xmlns="http://www.w3.org/2000/svg"
   xmlns:svg="http://www.w3.org/2000/svg">
  <sodipodi:namedview
     id="namedview366"
     pagecolor="#ffffff"
     bordercolor="#000000"
     borderopacity="0.25"
     inkscape:showpageshadow="2"
     inkscape:pageopacity="0.0"
     inkscape:pagecheckerboard="0"
     inkscape:deskcolor="#d1d1d1"
     inkscape:document-units="px"
     showgrid="false"
     inkscape:zoom="36.636364"
     inkscape:cx="10.986352"
     inkscape:cy="11"
     inkscape:window-width="1920"
     inkscape:window-height="1008"
     inkscape:window-x="0"
     inkscape:window-y="0"
     inkscape:window-maximized="1"
     inkscape:current-layer="svg364" />
  <defs
     id="defs361">
    <linearGradient
       inkscape:collect="always"
       id="linearGradient1284">
      <stop
         style="stop-color:#e94f11;stop-opacity:1;"
         offset="0"
         id="stop1280" />
      <stop
         style="stop-color:#c62300;stop-opacity:1;"
         offset="1"
         id="stop1282" />
    </linearGradient>
    <linearGradient
       inkscape:collect="always"
       xlink:href="#linearGradient1284"
       id="linearGradient1297"
       x1="4"
       y1="12.000001"
       x2="60"
       y2="52"
       gradientUnits="userSpaceOnUse"
       gradientTransform="matrix(0.35714287,0,0,0.35000001,-0.4285709,-0.1999998)" />
    <linearGradient
       inkscape:collect="always"
       id="linearGradient3143">
      <stop
         style="stop-color:#d2d2d2;stop-opacity:1;"
         offset="0"
         id="stop3139" />
      <stop
         style="stop-color:#ffffff;stop-opacity:1"
         offset="1"
         id="stop3141" />
    </linearGradient>
    <linearGradient
       inkscape:collect="always"
       xlink:href="#linearGradient3143"
       id="linearGradient1030"
       gradientUnits="userSpaceOnUse"
       gradientTransform="matrix(0.75002413,0,0,0.75002413,2.7499281,0.49973499)"
       x1="10.933846"
       y1="20.665808"
       x2="10.999742"
       y2="7.3334508" />
  </defs>
  <path
     d="M 9.3554792,17.987417 C 6.0497947,17.924587 4.7080649,17.869111 3.8876049,17.761337 3.2859299,17.682297 2.9904499,17.605245 2.6571949,17.440478 2.106785,17.168347 1.764475,16.788877 1.5174402,16.176993 c -0.22586,-0.559418 -0.317825,-1.003739 -0.402225,-1.943343 -0.095245,-1.060349 -0.10269,-1.252311 -0.11258,-2.904415 -0.01165,-1.942881 0.0118,-2.579545 0.142275,-3.8691238 0.06842,-0.6760628 0.16814,-1.1253627 0.355515,-1.601817 C 1.6710701,5.4243971 1.826865,5.1849341 2.1102,4.9210481 2.4663,4.5893923 2.8573849,4.387779 3.3510949,4.2813475 4.0880149,4.1224853 7.4187798,4 11.001719,4 c 3.58294,0 6.913705,0.1224853 7.650624,0.2813475 0.532935,0.1148889 0.924075,0.3270995 1.305705,0.7084007 0.29869,0.2984324 0.45253,0.5696068 0.635605,1.1204172 0.18864,0.5675467 0.260985,1.0698212 0.368175,2.5561626 0.0509,0.705842 0.05089,3.955067 0,4.660562 -0.05956,0.825318 -0.13264,1.560285 -0.181305,1.82327 -0.12511,0.676123 -0.37083,1.309161 -0.647865,1.669085 -0.19007,0.246935 -0.56528,0.541164 -0.879035,0.68931 -0.317705,0.150013 -0.6204,0.224384 -1.108374,0.272338 -1.512105,0.148595 -6.129586,0.257091 -8.7897498,0.206524 z"
     style="fill:url(#linearGradient1297);fill-opacity:1;stroke-width:0.353554"
     id="path304" />
  <path
     id="path1011"
     style="fill:url(#linearGradient1030);fill-opacity:1;stroke:none;stroke-width:1.50005;stroke-linecap:round"
     d="M 10,6 C 9.4460016,6 9,6.4460012 9,7 v 4 H 6.749625 c -0.6679976,2.63e-4 -1.0034311,0.80874 -0.53125,1.28125 l 4.252328,3.498047 c 0.292906,0.292785 0.767641,0.292785 1.060547,0 L 15.781625,12.28125 C 16.253807,11.80874 15.918372,11.000263 15.250375,11 H 13 V 7 C 13,6.4460012 12.553998,6 12,6 Z"
     sodipodi:nodetypes="ssccccccccsss" />
</svg>
