<?xml version="1.0" encoding="UTF-8" standalone="no"?>
<svg
   width="22"
   height="22"
   version="1.1"
   viewBox="0 0 22 22"
   id="svg3"
   sodipodi:docname="edit-delete-symbolic.svg"
   inkscape:version="1.4.2 (ebf0e940d0, 2025-05-08)"
   xmlns:inkscape="http://www.inkscape.org/namespaces/inkscape"
   xmlns:sodipodi="http://sodipodi.sourceforge.net/DTD/sodipodi-0.dtd"
   xmlns="http://www.w3.org/2000/svg"
   xmlns:svg="http://www.w3.org/2000/svg">
  <sodipodi:namedview
     id="namedview3"
     pagecolor="#ffffff"
     bordercolor="#000000"
     borderopacity="0.25"
     inkscape:showpageshadow="2"
     inkscape:pageopacity="0.0"
     inkscape:pagecheckerboard="0"
     inkscape:deskcolor="#d1d1d1"
     inkscape:zoom="36.227273"
     inkscape:cx="11"
     inkscape:cy="11"
     inkscape:window-width="1920"
     inkscape:window-height="1011"
     inkscape:window-x="0"
     inkscape:window-y="0"
     inkscape:window-maximized="1"
     inkscape:current-layer="svg3" />
  <defs
     id="defs1">
    <style
       id="current-color-scheme"
       type="text/css">.ColorScheme-Text { color:#363636; }</style>
  </defs>
  <path
     d="M 9,3 C 8.446,3 8,3.446 8,4 V 5 H 3.5 C 3.223,5 3,5.223 3,5.5 3,5.777 3.223,6 3.5,6 h 0.49805 l 0.54688,11.061 c 0.0612,1.0155 0.90615,1.9395 1.998,1.9395 h 7.9141 c 1.0919,0 1.9368,-0.92391 1.998,-1.9395 L 17.00191,6 h 0.49805 c 0.277,0 0.5,-0.223 0.5,-0.5 0,-0.277 -0.223,-0.5 -0.5,-0.5 h -4.5 V 4 c 0,-0.554 -0.446,-1 -1,-1 h -3 z m 0,1 h 3 V 5 H 9 Z M 5,6 h 11 l -0.54297,11 c -0.03333,0.553 -0.446,1 -1,1 h -7.9141 c -0.554,0 -0.96667,-0.447 -1,-1 L 4.99996,6 Z M 7.5,8 C 7.223,8 7,8.223 7,8.5 v 7 C 7,15.777 7.223,16 7.5,16 7.777,16 8,15.777 8,15.5 v -7 C 8,8.223 7.777,8 7.5,8 Z m 3,0 C 10.223,8 10,8.223 10,8.5 v 7 c 0,0.277 0.223,0.5 0.5,0.5 0.277,0 0.5,-0.223 0.5,-0.5 v -7 C 11,8.223 10.777,8 10.5,8 Z m 3,0 C 13.223,8 13,8.223 13,8.5 v 7 c 0,0.277 0.223,0.5 0.5,0.5 0.277,0 0.5,-0.223 0.5,-0.5 v -7 C 14,8.223 13.777,8 13.5,8 Z"
     style="fill:#363636;fill-opacity:1"
     id="path1" />
</svg>
