<?xml version="1.0" encoding="UTF-8" standalone="no"?>
<svg
   width="22"
   height="22"
   enable-background="new"
   version="1.1"
   id="svg1"
   sodipodi:docname="edit-cut-symbolic.svg"
   inkscape:version="1.4.2 (ebf0e940d0, 2025-05-08)"
   xmlns:inkscape="http://www.inkscape.org/namespaces/inkscape"
   xmlns:sodipodi="http://sodipodi.sourceforge.net/DTD/sodipodi-0.dtd"
   xmlns="http://www.w3.org/2000/svg"
   xmlns:svg="http://www.w3.org/2000/svg">
  <defs
     id="defs1">
    <style
       id="current-color-scheme"
       type="text/css">
        .ColorScheme-Text { color:#363636; } .ColorScheme-Highlight { color:#4285f4; } .ColorScheme-NeutralText { color:#ff9800; } .ColorScheme-PositiveText { color:#4caf50; } .ColorScheme-NegativeText { color:#f44336; }
     </style>
  </defs>
  <sodipodi:namedview
     id="namedview1"
     pagecolor="#ffffff"
     bordercolor="#000000"
     borderopacity="0.25"
     inkscape:showpageshadow="2"
     inkscape:pageopacity="0.0"
     inkscape:pagecheckerboard="0"
     inkscape:deskcolor="#d1d1d1"
     inkscape:zoom="36.227273"
     inkscape:cx="11"
     inkscape:cy="11"
     inkscape:window-width="1920"
     inkscape:window-height="1012"
     inkscape:window-x="0"
     inkscape:window-y="0"
     inkscape:window-maximized="1"
     inkscape:current-layer="svg1" />
  <path
     id="path1"
     style="fill:currentColor;fill-opacity:1"
     class="ColorScheme-Text"
     d="m 6.5078125,3.0000846 c -0.096289,-0.00175 -0.1924506,0.023682 -0.2792969,0.080078 -0.23159,0.1504 -0.2988275,0.4598163 -0.1484375,0.6914063 L 10.404297,10.429773 8.4804688,13.39071 C 8.0435488,13.14221 7.53857,13.000085 7,13.000085 c -1.6568,0 -3,1.3431 -3,3 0,1.6569 1.3432,3 3,3 1.6568,0 3,-1.3431 3,-3 0,-0.7554 -0.279364,-1.445256 -0.740234,-1.972656 L 11,11.347741 12.740234,14.027429 C 12.279334,14.554829 12,15.244685 12,16.000085 c 0,1.6569 1.3431,3 3,3 1.6569,0 3,-1.3431 3,-3 0,-1.6569 -1.3431,-3 -3,-3 -0.5386,0 -1.043569,0.142125 -1.480469,0.390625 L 6.9199219,3.2286002 C 6.8259281,3.0838565 6.6682945,3.0030061 6.5078125,3.0000846 Z m 8.9843755,0 c -0.160495,0.00292 -0.31811,0.081819 -0.41211,0.2265625 l -3.484375,5.3671875 0.597656,0.917969 3.726563,-5.7402346 c 0.1504,-0.23159 0.08316,-0.5410063 -0.148438,-0.6914063 -0.08685,-0.056396 -0.183,-0.081831 -0.279296,-0.080078 z M 7,14.000085 c 1.10457,0 2,0.8954 2,2 0,1.1046 -0.89543,2 -2,2 -1.10457,0 -2,-0.8954 -2,-2 0,-1.1046 0.89543,-2 2,-2 z m 8,0 c 1.1046,0 2,0.8954 2,2 0,1.1046 -0.8954,2 -2,2 -1.1046,0 -2,-0.8954 -2,-2 0,-1.1046 0.8954,-2 2,-2 z" />
</svg>
