<?xml version="1.0" encoding="UTF-8" standalone="no"?>
<!-- Created with Inkscape (http://www.inkscape.org/) -->

<svg
   width="24"
   height="24"
   viewBox="0 0 24 24"
   version="1.1"
   id="svg5"
   inkscape:version="1.4.2 (ebf0e940d0, 2025-05-08)"
   sodipodi:docname="folder-tar.svg"
   xmlns:inkscape="http://www.inkscape.org/namespaces/inkscape"
   xmlns:sodipodi="http://sodipodi.sourceforge.net/DTD/sodipodi-0.dtd"
   xmlns:xlink="http://www.w3.org/1999/xlink"
   xmlns="http://www.w3.org/2000/svg"
   xmlns:svg="http://www.w3.org/2000/svg">
  <sodipodi:namedview
     id="namedview7"
     pagecolor="#ffffff"
     bordercolor="#666666"
     borderopacity="1.0"
     inkscape:pageshadow="2"
     inkscape:pageopacity="0.0"
     inkscape:pagecheckerboard="0"
     inkscape:document-units="px"
     showgrid="false"
     units="px"
     height="64px"
     inkscape:zoom="33.375"
     inkscape:cx="12"
     inkscape:cy="12"
     inkscape:window-width="1920"
     inkscape:window-height="1011"
     inkscape:window-x="0"
     inkscape:window-y="0"
     inkscape:window-maximized="1"
     inkscape:current-layer="svg5"
     inkscape:showpageshadow="2"
     inkscape:deskcolor="#d1d1d1" />
  <defs
     id="defs2">
    <linearGradient
       inkscape:collect="always"
       xlink:href="#linearGradient2290"
       id="linearGradient11974"
       x1="5.2916665"
       y1="5.5562496"
       x2="10.508907"
       y2="11.1125"
       gradientUnits="userSpaceOnUse"
       gradientTransform="matrix(1.8897638,0,0,1.8897638,7e-7,-1.0000006)" />
    <linearGradient
       inkscape:collect="always"
       xlink:href="#linearGradient2474"
       id="linearGradient4407"
       x1="32"
       y1="10.5"
       x2="32"
       y2="18.5"
       gradientUnits="userSpaceOnUse"
       gradientTransform="matrix(0.50000004,0,0,0.50000004,7e-7,-1.5000007)" />
    <linearGradient
       inkscape:collect="always"
       xlink:href="#linearGradient2350"
       id="linearGradient1370"
       gradientUnits="userSpaceOnUse"
       gradientTransform="matrix(0.50000004,0,0,0.50000004,9e-7,-1.5000007)"
       x1="1.9999999"
       y1="27"
       x2="46.036999"
       y2="27.197477" />
    <linearGradient
       inkscape:collect="always"
       id="linearGradient2290">
      <stop
         style="stop-color:#fce798;stop-opacity:1;"
         offset="0"
         id="stop2286" />
      <stop
         style="stop-color:#ffc937;stop-opacity:1"
         offset="1"
         id="stop2288" />
    </linearGradient>
    <linearGradient
       inkscape:collect="always"
       id="linearGradient2474">
      <stop
         style="stop-color:#fcbc19;stop-opacity:1;"
         offset="0"
         id="stop2470" />
      <stop
         style="stop-color:#f4b61f;stop-opacity:1;"
         offset="1"
         id="stop2472" />
    </linearGradient>
    <linearGradient
       inkscape:collect="always"
       id="linearGradient2350">
      <stop
         style="stop-color:#ffffff;stop-opacity:1;"
         offset="0"
         id="stop2346" />
      <stop
         style="stop-color:#ffffff;stop-opacity:0;"
         offset="1"
         id="stop2348" />
    </linearGradient>
    <linearGradient
       inkscape:collect="always"
       xlink:href="#linearGradient6118"
       id="linearGradient6120"
       x1="4.2333336"
       y1="2.1166668"
       x2="4.2333336"
       y2="2.9104171"
       gradientUnits="userSpaceOnUse"
       gradientTransform="matrix(7.5590505,0,0,5.0393691,-8.9999801,3.3333337)" />
    <linearGradient
       inkscape:collect="always"
       id="linearGradient6118">
      <stop
         style="stop-color:#999999;stop-opacity:1;"
         offset="0"
         id="stop6114" />
      <stop
         style="stop-color:#7e7e7e;stop-opacity:1"
         offset="1"
         id="stop6116" />
    </linearGradient>
    <linearGradient
       inkscape:collect="always"
       xlink:href="#linearGradient5150"
       id="linearGradient5152"
       x1="3.4395833"
       y1="3.1750002"
       x2="2.9104166"
       y2="1.8520834"
       gradientUnits="userSpaceOnUse"
       gradientTransform="matrix(3.7795275,0,0,3.7795275,3.0000001,6.9999984)" />
    <linearGradient
       inkscape:collect="always"
       id="linearGradient5150">
      <stop
         style="stop-color:#aaaaaa;stop-opacity:1;"
         offset="0"
         id="stop5146" />
      <stop
         style="stop-color:#f6f6f5;stop-opacity:1"
         offset="1"
         id="stop5148" />
    </linearGradient>
    <linearGradient
       inkscape:collect="always"
       xlink:href="#linearGradient3105"
       id="linearGradient3097"
       x1="-2.9802322e-08"
       y1="3.7041669"
       x2="1.8520834"
       y2="3.7041669"
       gradientUnits="userSpaceOnUse"
       gradientTransform="matrix(3.7795275,0,0,3.7795275,1e-7,1.9999988)" />
    <linearGradient
       inkscape:collect="always"
       id="linearGradient3105">
      <stop
         style="stop-color:#d3d3d3;stop-opacity:1;"
         offset="0"
         id="stop3099" />
      <stop
         style="stop-color:#e1e1e1;stop-opacity:1"
         offset="0.2"
         id="stop3101" />
      <stop
         style="stop-color:#a3a3a3;stop-opacity:0;"
         offset="1"
         id="stop3103" />
    </linearGradient>
    <linearGradient
       inkscape:collect="always"
       xlink:href="#linearGradient11186"
       id="linearGradient11180"
       x1="0.26458338"
       y1="3.7041667"
       x2="1.5875001"
       y2="3.7041667"
       gradientUnits="userSpaceOnUse"
       gradientTransform="matrix(3.7795275,0,0,3.7795275,1e-7,1.9999988)" />
    <linearGradient
       inkscape:collect="always"
       id="linearGradient11186">
      <stop
         style="stop-color:#999999;stop-opacity:1;"
         offset="0.75488114"
         id="stop11182" />
      <stop
         style="stop-color:#7e7e7e;stop-opacity:0;"
         offset="1"
         id="stop11184" />
    </linearGradient>
    <linearGradient
       inkscape:collect="always"
       xlink:href="#linearGradient4066"
       id="linearGradient4068"
       x1="1.0583334"
       y1="2.1166668"
       x2="1.0583334"
       y2="3.96875"
       gradientUnits="userSpaceOnUse"
       gradientTransform="matrix(5.0393703,0,0,4.8593926,2.6666668,3.714284)" />
    <linearGradient
       inkscape:collect="always"
       id="linearGradient4066">
      <stop
         style="stop-color:#d3d3d3;stop-opacity:1;"
         offset="0"
         id="stop4062" />
      <stop
         style="stop-color:#e1e1e1;stop-opacity:1"
         offset="0.2"
         id="stop4454" />
      <stop
         style="stop-color:#a3a3a3;stop-opacity:1"
         offset="1"
         id="stop4064" />
    </linearGradient>
  </defs>
  <path
     id="rect846"
     style="fill:url(#linearGradient4407);fill-opacity:1;stroke-width:1;stroke-linecap:round;stroke-linejoin:round;stroke-dasharray:12, 1"
     d="M 2.5000001,3.0000001 C 1.7731731,3.0036466 1.0015558,3.6984193 1,4.5000002 V 19.999999 H 22.999999 V 7.0000002 C 22.999999,6.4459971 22.554,6 21.999999,6 H 11.500001 l -2,-2.0000005 C 8.8173726,3.3318841 8.3310005,3 7.5000002,3 Z"
     sodipodi:nodetypes="ccccssccsc" />
  <path
     id="rect1170"
     style="fill:url(#linearGradient11974);fill-opacity:1;stroke-width:1.32288;stroke-linecap:round;stroke-linejoin:round;stroke-dasharray:15.8745, 1.32288"
     d="m 12.5,6.9999994 -3,1.9999997 H 3.0000009 C 1.8920006,8.9999991 1.0000007,9.8919993 1.0000007,11 v 10 c 0,0.554003 0.4460001,1 1,1 H 21.999999 c 0.554004,0 1,-0.445999 1,-1 V 7.9999996 c 0,-0.5540031 -0.445999,-1.0000002 -1,-1.0000002 z"
     sodipodi:nodetypes="ccsccccccsc" />
  <path
     d="M 1.0000005,19.999999 V 21 c 0,0.554003 0.4459994,1 1.0000002,1 H 22 c 0.554003,0 1,-0.445999 1,-1 V 19.999999 C 23,20.553995 22.554,21 22,21 H 2.0000007 C 1.4459976,21 1.0000005,20.554 1.0000005,19.999999 Z"
     style="fill:#e4a729;fill-opacity:1;stroke-width:1.32288;stroke-linecap:round;stroke-linejoin:round;stroke-dasharray:15.8745, 1.32288"
     id="path1381"
     sodipodi:nodetypes="csssscssc" />
  <path
     d="m 12.5,6.9999994 -3,2.0000001 H 3.0000007 C 1.8920008,8.9999995 1.0000009,9.8919997 1.0000009,11 v 1 c 0,-1.108 0.8939119,-1.934936 1.9999998,-2.0000003 H 9.5 l 3,-2.0000001 H 22 c 0.554003,0 1,0.4459998 1,0.9999999 V 7.9999989 C 23,7.4459957 22.554001,6.9999994 22,6.9999994 Z"
     style="opacity:0.3;fill:url(#linearGradient1370);fill-opacity:1;stroke-width:1.32288;stroke-linecap:round;stroke-linejoin:round;stroke-dasharray:15.8745, 1.32288"
     id="path1296"
     sodipodi:nodetypes="ccssccccscssc" />
  <rect
     style="fill:#9f802b;fill-opacity:1;stroke-width:1.25831"
     id="rect3074"
     width="17"
     height="4"
     x="5"
     y="13.999999" />
  <rect
     style="fill:url(#linearGradient6120);fill-opacity:1;stroke-width:1.63299"
     id="rect6090"
     width="2"
     height="4"
     x="21"
     y="13.999999" />
  <path
     id="rect5034"
     style="fill:url(#linearGradient5152);fill-opacity:1;stroke-width:0.999999"
     d="m 8,14.999999 v 1 h 1 v -1 z m 1,1 v 1 h 1 v -1 z m 1,0 h 1 v -1 h -1 z m 1,0 v 1 h 1 v -1 z m 1,0 h 1 v -1 h -1 z m 1,0 v 1 h 1 v -1 z m 1,0 h 1 v -1 h -1 z m 1,0 v 1 h 1 v -1 z m 1,0 h 1 v -1 h -1 z m 1,0 v 1 h 1 v -1 z m 1,0 h 1 v -1 h -1 z m 1,0 v 1 h 1 v -1 z m 1,0 h 1 v 1 h 1 v -2 h -2 z" />
  <rect
     style="opacity:0.2;fill:#000000;fill-opacity:1;stroke-width:2;stroke-linecap:round"
     id="rect11283"
     width="4"
     height="9.000001"
     x="5"
     y="14"
     ry="1" />
  <rect
     style="fill:url(#linearGradient4068);fill-opacity:1;stroke-width:1.3093"
     id="rect3442"
     width="4"
     height="9"
     x="4"
     y="14"
     ry="1" />
  <rect
     style="fill:url(#linearGradient3097);fill-opacity:1;stroke-width:2;stroke-linecap:round"
     id="rect2535"
     width="7.000001"
     height="6.0000005"
     x="0"
     y="13"
     ry="2" />
  <rect
     style="fill:#747474;fill-opacity:1;stroke-width:2"
     id="rect4652"
     width="2"
     height="2"
     x="5"
     y="14.999999" />
  <rect
     style="fill:#74550e;fill-opacity:1;stroke-width:2"
     id="rect7104"
     width="2"
     height="2"
     x="5"
     y="19.999998" />
  <rect
     style="fill:url(#linearGradient11180);fill-opacity:1;stroke-width:1.41421"
     id="rect6824"
     width="5"
     height="4"
     x="1.0000002"
     y="13.999999"
     ry="1" />
  <rect
     style="fill:#e6e6e6;fill-opacity:1;stroke-width:2;stroke-linecap:round"
     id="rect2533"
     width="3.0000002"
     height="2"
     x="2"
     y="14.999999" />
</svg>
