<?xml version="1.0" encoding="UTF-8" standalone="no"?>
<!-- Created with Inkscape (http://www.inkscape.org/) -->

<svg
   width="16"
   height="16"
   viewBox="0 0 16 16"
   version="1.1"
   id="svg5"
   inkscape:version="1.2.1 (9c6d41e410, 2022-07-14, custom)"
   sodipodi:docname="folder-documents.svg"
   xmlns:inkscape="http://www.inkscape.org/namespaces/inkscape"
   xmlns:sodipodi="http://sodipodi.sourceforge.net/DTD/sodipodi-0.dtd"
   xmlns:xlink="http://www.w3.org/1999/xlink"
   xmlns="http://www.w3.org/2000/svg"
   xmlns:svg="http://www.w3.org/2000/svg">
  <sodipodi:namedview
     id="namedview7"
     pagecolor="#ffffff"
     bordercolor="#666666"
     borderopacity="1.0"
     inkscape:pageshadow="2"
     inkscape:pageopacity="0.0"
     inkscape:pagecheckerboard="0"
     inkscape:document-units="px"
     showgrid="false"
     units="px"
     height="64px"
     inkscape:zoom="50.5"
     inkscape:cx="8"
     inkscape:cy="8"
     inkscape:window-width="1920"
     inkscape:window-height="1010"
     inkscape:window-x="0"
     inkscape:window-y="0"
     inkscape:window-maximized="1"
     inkscape:current-layer="svg5"
     showguides="false"
     inkscape:showpageshadow="2"
     inkscape:deskcolor="#d1d1d1" />
  <defs
     id="defs2">
    <linearGradient
       inkscape:collect="always"
       id="linearGradient1290">
      <stop
         style="stop-color:#b3c4d5;stop-opacity:1;"
         offset="0"
         id="stop1286" />
      <stop
         style="stop-color:#6986a3;stop-opacity:1"
         offset="1"
         id="stop1288" />
    </linearGradient>
    <linearGradient
       inkscape:collect="always"
       xlink:href="#linearGradient1290"
       id="linearGradient2984"
       x1="0.52916658"
       y1="-7.8427888e-08"
       x2="3.3404446"
       y2="3.8004949"
       gradientUnits="userSpaceOnUse"
       gradientTransform="scale(3.7795273)" />
  </defs>
  <rect
     style="fill:url(#linearGradient2984);fill-opacity:1;stroke-width:0.999999"
     id="rect924"
     width="12"
     height="16"
     x="2"
     y="1.323489e-23"
     ry="1" />
  <path
     id="rect2731"
     style="opacity:1;fill:#ffffff;fill-opacity:1;stroke-width:3;stroke-linecap:round;stroke-linejoin:round"
     d="M 3.9746097,4 C 3.7096955,4.013342 3.5000003,4.2316548 3.5000003,4.4999997 c 0,0.2770016 0.2230001,0.5000001 0.5,0.5000001 H 8 c 0.2770016,0 0.5000001,-0.2229996 0.5000001,-0.5000001 C 8.5000001,4.2229982 8.2770004,4 8,4 H 4.0000003 C 3.9913452,4 3.983155,3.9995695 3.9746097,4 Z M 9.9746095,4 C 9.7096953,4.0133421 9.5000003,4.2316559 9.5000003,4.4999997 v 2 C 9.5000003,6.7770013 9.723,6.9999998 10,6.9999998 h 2 c 0.277002,0 0.5,-0.2229996 0.5,-0.5000001 v -2 C 12.5,4.2229982 12.277,4 12,4 H 10 C 9.99134,4 9.983143,3.9995695 9.974602,4 Z M 3.9746097,5.9999996 c -0.2649142,0.013342 -0.4746094,0.2316548 -0.4746094,0.5000001 0,0.2770016 0.2230001,0.5000001 0.5,0.5000001 H 8 c 0.2770016,0 0.5000001,-0.2229996 0.5000001,-0.5000001 C 8.5000001,6.2229982 8.2770004,5.9999996 8,5.9999996 H 4.0000003 c -0.00866,0 -0.016845,-4.301e-4 -0.025391,0 z m -0.00586,2 C 3.7071535,8.0131747 3.5000003,8.2291573 3.5000003,8.4941403 v 0.011717 c 0,0.2735319 0.2206095,0.4941407 0.4941406,0.4941407 H 12.005859 C 12.279391,8.9999976 12.5,8.7793866 12.5,8.5058569 V 8.4941403 C 12.5,8.2206084 12.279389,7.9999996 12.005859,7.9999996 H 3.9941409 c -0.00855,0 -0.016951,-4.248e-4 -0.02539,0 z m 0,2.0000001 C 3.7071549,10.01319 3.5000015,10.229156 3.5000015,10.494141 v 0.01172 c 0,0.273532 0.2206098,0.494141 0.4941405,0.494141 h 8.011717 c 0.273532,0 0.494141,-0.220611 0.494141,-0.494141 v -0.01172 c 0,-0.273532 -0.220611,-0.4941413 -0.494141,-0.4941413 H 3.9941409 c -0.00855,0 -0.016951,-4.249e-4 -0.02539,0 z" />
</svg>
