<?xml version="1.0" encoding="UTF-8" standalone="no"?>
<!-- Created with Inkscape (http://www.inkscape.org/) -->

<svg
   width="16"
   height="16"
   viewBox="0 0 16 16"
   version="1.1"
   id="svg5"
   inkscape:version="1.2.1 (9c6d41e410, 2022-07-14, custom)"
   sodipodi:docname="folder-games.svg"
   xmlns:inkscape="http://www.inkscape.org/namespaces/inkscape"
   xmlns:sodipodi="http://sodipodi.sourceforge.net/DTD/sodipodi-0.dtd"
   xmlns:xlink="http://www.w3.org/1999/xlink"
   xmlns="http://www.w3.org/2000/svg"
   xmlns:svg="http://www.w3.org/2000/svg">
  <sodipodi:namedview
     id="namedview7"
     pagecolor="#ffffff"
     bordercolor="#666666"
     borderopacity="1.0"
     inkscape:pageshadow="2"
     inkscape:pageopacity="0.0"
     inkscape:pagecheckerboard="0"
     inkscape:document-units="px"
     showgrid="false"
     units="px"
     height="64px"
     inkscape:zoom="50.625"
     inkscape:cx="8"
     inkscape:cy="8"
     inkscape:window-width="1920"
     inkscape:window-height="1012"
     inkscape:window-x="0"
     inkscape:window-y="0"
     inkscape:window-maximized="1"
     inkscape:current-layer="svg5"
     inkscape:showpageshadow="2"
     inkscape:deskcolor="#d1d1d1" />
  <defs
     id="defs2">
    <linearGradient
       inkscape:collect="always"
       xlink:href="#linearGradient2290"
       id="linearGradient11974"
       x1="4.2333331"
       y1="4.2331805"
       x2="13.229166"
       y2="12.69977"
       gradientUnits="userSpaceOnUse"
       gradientTransform="matrix(0.94488191,0,0,0.94488191,-0.49999966,2.0002167)" />
    <linearGradient
       inkscape:collect="always"
       xlink:href="#linearGradient2474"
       id="linearGradient4407"
       x1="32"
       y1="2.5000007"
       x2="32"
       y2="18.5"
       gradientUnits="userSpaceOnUse"
       gradientTransform="matrix(0.25000002,0,0,0.25000002,-0.49999966,0.75021643)" />
    <linearGradient
       inkscape:collect="always"
       xlink:href="#linearGradient2350"
       id="linearGradient5594"
       x1="1.9999999"
       y1="27"
       x2="65.999992"
       y2="26.99942"
       gradientUnits="userSpaceOnUse"
       gradientTransform="matrix(0.25000002,0,0,0.25000002,-0.49999966,-0.24992784)" />
    <linearGradient
       inkscape:collect="always"
       id="linearGradient2350">
      <stop
         style="stop-color:#ffffff;stop-opacity:1;"
         offset="0"
         id="stop2346" />
      <stop
         style="stop-color:#ffffff;stop-opacity:0;"
         offset="1"
         id="stop2348" />
    </linearGradient>
    <linearGradient
       inkscape:collect="always"
       id="linearGradient2290">
      <stop
         style="stop-color:#fce798;stop-opacity:1;"
         offset="0"
         id="stop2286" />
      <stop
         style="stop-color:#ffc937;stop-opacity:1"
         offset="1"
         id="stop2288" />
    </linearGradient>
    <linearGradient
       inkscape:collect="always"
       id="linearGradient2474">
      <stop
         style="stop-color:#fcbc19;stop-opacity:1;"
         offset="0"
         id="stop2470" />
      <stop
         style="stop-color:#f4b61f;stop-opacity:1;"
         offset="1"
         id="stop2472" />
    </linearGradient>
    <linearGradient
       inkscape:collect="always"
       id="linearGradient2083">
      <stop
         style="stop-color:#bf910d;stop-opacity:1;"
         offset="0"
         id="stop2079" />
      <stop
         style="stop-color:#a87704;stop-opacity:1"
         offset="1"
         id="stop2081" />
    </linearGradient>
    <linearGradient
       inkscape:collect="always"
       xlink:href="#linearGradient2083"
       id="linearGradient1389"
       x1="2.1166666"
       y1="2.116657"
       x2="2.1166666"
       y2="3.4395738"
       gradientUnits="userSpaceOnUse"
       gradientTransform="scale(3.7795275)" />
  </defs>
  <path
     id="rect846"
     style="fill:url(#linearGradient4407);fill-opacity:1;stroke-width:0.500001;stroke-linecap:round;stroke-linejoin:round;stroke-dasharray:6, 0.500001"
     d="M 1.0000004,1 C 0.46991538,1.0018232 0.03335161,1.4169658 0.00488315,1.946289 0.01993323,3.0658079 0,10.000072 0,10.000072 H 16 V 3.5000726 C 16,3.223071 15.777,3.0000721 15.5,3.0000721 H 8.0000004 L 6.7500003,1.4999997 C 6.4086863,1.165942 6.1655001,1 5.75,1 Z"
     sodipodi:nodetypes="ccccssccsc" />
  <path
     id="rect1170"
     style="fill:url(#linearGradient11974);fill-opacity:1;stroke-width:0.66144;stroke-linecap:round;stroke-linejoin:round;stroke-dasharray:7.93723, 0.66144"
     d="m 8.0000004,4.000072 -2.0000001,1.9999276 -4.9999998,3e-7 C 0.44600031,5.9999999 3.4015747e-7,6.4460001 3.4015747e-7,7.0000002 V 14.5 C 3.4015747e-7,14.777002 0.2230004,15 0.50000034,15 H 15.5 C 15.777001,15 16,14.777001 16,14.5 V 4.5000725 C 16,4.223071 15.777,4.0000724 15.5,4.0000724 Z"
     sodipodi:nodetypes="ccsccccccsc" />
  <path
     id="rect823"
     style="opacity:1;fill:url(#linearGradient1389);fill-opacity:1;stroke-width:0.983868"
     d="M 5.4355467,8 C 4.0806976,8.0340963 3,9.1366419 3,10.5 3,11.884999 4.1150014,13 5.5000002,13 H 10.5 C 11.884999,13 13,11.884999 13,10.5 13,9.1150015 11.884999,8 10.5,8 H 5.5000002 C 5.4783432,8 5.4570532,7.9994588 5.4355467,8 Z M 5,8.9999999 H 5.9999999 V 10 h 1.0000002 v 1 H 5.9999999 v 1 H 5 V 11 H 3.9999998 V 10 H 5 Z m 5.730469,0 c 0.0064,-1.629e-4 0.01308,0 0.01954,0 0.414214,0 0.75,0.3357921 0.75,0.75 0,0.4142141 -0.335785,0.7500001 -0.75,0.7500001 -0.414215,0 -0.750001,-0.335785 -0.75,-0.7500001 0,-0.4077404 0.325202,-0.7397197 0.730468,-0.75 z M 9.7304688,10.5 c 0.00643,-1.63e-4 0.013077,0 0.01954,0 0.4142152,0 0.7500002,0.335785 0.7500002,0.75 0,0.414215 -0.335785,0.75 -0.7500002,0.75 -0.4142139,0 -0.7500011,-0.335784 -0.75,-0.75 0,-0.407741 0.3252019,-0.739733 0.7304689,-0.75 z" />
  <path
     id="rect1170-2"
     style="fill:#e4a729;fill-opacity:1;stroke-width:0.66144;stroke-linecap:round;stroke-linejoin:round;stroke-dasharray:7.93723, 0.66144"
     d="m 0,13.500217 v 1 c 0,0.277002 0.22299968,0.5 0.50000012,0.5 H 15.5 c 0.277001,0 0.5,-0.222999 0.5,-0.5 v -1 c 0,0.276998 -0.223,0.500001 -0.5,0.500001 H 0.50000012 C 0.22299855,14.000218 0,13.777218 0,13.500217 Z"
     sodipodi:nodetypes="csssscssc" />
  <path
     id="rect1170-75"
     style="opacity:0.3;fill:url(#linearGradient5594);fill-opacity:1;stroke-width:0.66144;stroke-linecap:round;stroke-linejoin:round;stroke-dasharray:7.93723, 0.66144"
     d="M 8.0000004,4.0000002 6.0000003,5.9999277 h -5 C 0.44600031,5.9999277 3.4015747e-7,6.4459279 3.4015747e-7,6.999928 V 7.9999282 C 3.4015747e-7,7.4459281 0.44600031,6.999928 1.0000003,6.999928 h 5 L 8.0000004,5.0000005 H 15.5 c 0.277001,0 0.5,0.2229996 0.5,0.4999997 V 4.5 C 16,4.2229984 15.777,4.0000002 15.5,4.0000002 Z"
     sodipodi:nodetypes="ccsscsccscssc" />
</svg>
