<?xml version="1.0" encoding="UTF-8" standalone="no"?>
<!-- Created with Inkscape (http://www.inkscape.org/) -->

<svg
   width="16"
   height="16"
   viewBox="0 0 4.2333333 4.2333335"
   version="1.1"
   id="svg5"
   inkscape:version="1.2.1 (9c6d41e410, 2022-07-14, custom)"
   sodipodi:docname="folder-open.svg"
   xmlns:inkscape="http://www.inkscape.org/namespaces/inkscape"
   xmlns:sodipodi="http://sodipodi.sourceforge.net/DTD/sodipodi-0.dtd"
   xmlns:xlink="http://www.w3.org/1999/xlink"
   xmlns="http://www.w3.org/2000/svg"
   xmlns:svg="http://www.w3.org/2000/svg">
  <sodipodi:namedview
     id="namedview7"
     pagecolor="#ffffff"
     bordercolor="#666666"
     borderopacity="1.0"
     inkscape:pageshadow="2"
     inkscape:pageopacity="0.0"
     inkscape:pagecheckerboard="0"
     inkscape:document-units="px"
     showgrid="false"
     units="px"
     height="64px"
     inkscape:zoom="50.5"
     inkscape:cx="8"
     inkscape:cy="8"
     inkscape:window-width="1920"
     inkscape:window-height="1010"
     inkscape:window-x="0"
     inkscape:window-y="0"
     inkscape:window-maximized="1"
     inkscape:current-layer="svg5"
     inkscape:showpageshadow="2"
     inkscape:deskcolor="#d1d1d1" />
  <defs
     id="defs2">
    <linearGradient
       inkscape:collect="always"
       xlink:href="#linearGradient2474"
       id="linearGradient4407"
       x1="32"
       y1="2.5000007"
       x2="32"
       y2="18.5"
       gradientUnits="userSpaceOnUse"
       gradientTransform="matrix(0.06614584,0,0,0.06614584,0.13229176,0.4630781)" />
    <linearGradient
       inkscape:collect="always"
       id="linearGradient2350">
      <stop
         style="stop-color:#ffffff;stop-opacity:1;"
         offset="0"
         id="stop2346" />
      <stop
         style="stop-color:#ffffff;stop-opacity:0;"
         offset="1"
         id="stop2348" />
    </linearGradient>
    <linearGradient
       inkscape:collect="always"
       id="linearGradient2290">
      <stop
         style="stop-color:#fce798;stop-opacity:1;"
         offset="0"
         id="stop2286" />
      <stop
         style="stop-color:#ffc937;stop-opacity:1"
         offset="1"
         id="stop2288" />
    </linearGradient>
    <linearGradient
       inkscape:collect="always"
       id="linearGradient2474">
      <stop
         style="stop-color:#fcbc19;stop-opacity:1;"
         offset="0"
         id="stop2470" />
      <stop
         style="stop-color:#f4b61f;stop-opacity:1;"
         offset="1"
         id="stop2472" />
    </linearGradient>
    <linearGradient
       inkscape:collect="always"
       xlink:href="#linearGradient2290"
       id="linearGradient11974"
       x1="6.0854163"
       y1="6.3497705"
       x2="12.687233"
       y2="12.326091"
       gradientUnits="userSpaceOnUse"
       gradientTransform="matrix(0.25000001,0,0,0.25000001,0.13229172,0.26464062)" />
    <linearGradient
       inkscape:collect="always"
       xlink:href="#linearGradient2350"
       id="linearGradient5594"
       x1="-2.0000012"
       y1="25"
       x2="61.870148"
       y2="25.015379"
       gradientUnits="userSpaceOnUse"
       gradientTransform="matrix(0.06614584,0,0,0.06614584,0.13229174,0.46302075)" />
    <linearGradient
       inkscape:collect="always"
       xlink:href="#linearGradient1719"
       id="linearGradient1721"
       x1="2.1166666"
       y1="1.0583334"
       x2="2.1166666"
       y2="1.8520834"
       gradientUnits="userSpaceOnUse"
       gradientTransform="matrix(1.0833334,0,0,1,-0.04409725,0.26458328)" />
    <linearGradient
       inkscape:collect="always"
       id="linearGradient1719">
      <stop
         style="stop-color:#ffffff;stop-opacity:1"
         offset="0"
         id="stop1715" />
      <stop
         style="stop-color:#e5e6e7;stop-opacity:1"
         offset="1"
         id="stop1717" />
    </linearGradient>
  </defs>
  <path
     id="rect846"
     style="fill:url(#linearGradient4407);fill-opacity:1;stroke-width:0.132292;stroke-linecap:round;stroke-linejoin:round;stroke-dasharray:1.5875, 0.132292"
     d="M 0.52916678,0.52916667 C 0.38891512,0.52964907 0.27340762,0.63948887 0.26587534,0.77953896 0.26985734,1.075745 0.26458334,2.6458907 0.26458334,2.6458907 H 3.9687499 V 1.1906633 c 0,-0.07329 -0.059002,-0.1322918 -0.1322916,-0.1322918 H 2.1166667 L 1.7859376,0.66145827 C 1.6956316,0.57307217 1.6312886,0.52916667 1.5213542,0.52916667 Z"
     sodipodi:nodetypes="ccccssccsc" />
  <path
     id="rect1611"
     style="fill:url(#linearGradient1721);stroke-width:0.826161;stroke-linecap:round;stroke-linejoin:round"
     d="M 0.66145835,1.3229167 H 3.5718751 c 0.07329,0 0.1322917,0.059002 0.1322917,0.1322917 V 2.778125 c 0,0.07329 -0.059002,0.1322917 -0.1322917,0.1322917 H 0.66145835 c -0.0732896,0 -0.13229168,-0.059002 -0.13229168,-0.1322917 V 1.4552084 c 0,-0.07329 0.0590021,-0.1322917 0.13229168,-0.1322917 z"
     sodipodi:nodetypes="sssssssss" />
  <path
     id="rect1170"
     style="fill:url(#linearGradient11974);fill-opacity:1;stroke-width:0.175006;stroke-linecap:round;stroke-linejoin:round;stroke-dasharray:2.10006, 0.175006"
     d="M 1.984375,1.5875 1.5875,1.8520833 H 0.26458332 C 0.11800411,1.8520833 -5.5e-8,1.9700875 -5.5e-8,2.1166667 L 0.26458339,3.5719323 c 0,0.07329 0.0590021,0.1322917 0.13229167,0.1322917 H 3.8364583 c 0.07329,0 0.1322916,-0.059002 0.1322916,-0.1322917 L 4.2333334,1.7197917 c 0,-0.07329 -0.059002,-0.1322917 -0.1322916,-0.1322917 z"
     sodipodi:nodetypes="ccsccccccsc" />
  <path
     id="rect1170-75"
     style="opacity:0.3;fill:url(#linearGradient5594);fill-opacity:1;stroke-width:0.175006;stroke-linecap:round;stroke-linejoin:round;stroke-dasharray:2.10006, 0.175006"
     d="M 1.984375,1.5875 1.5875,1.8520833 H 0.26458332 C 0.11800416,1.8520833 0,1.9700875 0,2.1166667 L 0.05101338,2.3972515 C 0.0595659,2.2662099 0.08255194,2.2580499 0.13229165,2.2489583 H 1.5875 L 1.984375,1.984375 h 2.1166667 c 0.07329,0 0.077068,0.1322917 0.077068,0.1322917 L 4.2333332,1.7197916 C 4.2351801,1.637281 4.1743312,1.5875 4.1010415,1.5875 Z"
     sodipodi:nodetypes="ccscccccsccsc" />
  <path
     id="rect1170-2"
     style="fill:#e4a729;fill-opacity:1;stroke-width:0.175006;stroke-linecap:round;stroke-linejoin:round;stroke-dasharray:2.10006, 0.175006"
     d="m 0.26458334,3.3073491 v 0.2645833 c 0,0.07329 0.059002,0.1322917 0.1322917,0.1322917 H 3.8364583 c 0.07329,0 0.1322917,-0.059002 0.1322917,-0.1322917 V 3.3073491 c 0,0.073289 -0.059002,0.1322917 -0.1322917,0.1322917 H 0.39687504 c -0.07329,0 -0.1322917,-0.059002 -0.1322917,-0.1322917 z"
     sodipodi:nodetypes="csssscssc" />
</svg>
