<?xml version="1.0" encoding="UTF-8" standalone="no"?>
<!-- Created with Inkscape (http://www.inkscape.org/) -->

<svg
   width="16"
   height="16"
   viewBox="0 0 16 16"
   version="1.1"
   id="svg5"
   inkscape:version="1.4.2 (ebf0e940d0, 2025-05-08)"
   sodipodi:docname="folder-tar.svg"
   xmlns:inkscape="http://www.inkscape.org/namespaces/inkscape"
   xmlns:sodipodi="http://sodipodi.sourceforge.net/DTD/sodipodi-0.dtd"
   xmlns:xlink="http://www.w3.org/1999/xlink"
   xmlns="http://www.w3.org/2000/svg"
   xmlns:svg="http://www.w3.org/2000/svg">
  <sodipodi:namedview
     id="namedview7"
     pagecolor="#ffffff"
     bordercolor="#666666"
     borderopacity="1.0"
     inkscape:pageshadow="2"
     inkscape:pageopacity="0.0"
     inkscape:pagecheckerboard="0"
     inkscape:document-units="px"
     showgrid="false"
     units="px"
     height="64px"
     inkscape:zoom="50.0625"
     inkscape:cx="8"
     inkscape:cy="8"
     inkscape:window-width="1920"
     inkscape:window-height="1011"
     inkscape:window-x="0"
     inkscape:window-y="0"
     inkscape:window-maximized="1"
     inkscape:current-layer="svg5"
     inkscape:showpageshadow="2"
     inkscape:deskcolor="#d1d1d1" />
  <defs
     id="defs2">
    <linearGradient
       inkscape:collect="always"
       xlink:href="#linearGradient2290"
       id="linearGradient11974"
       x1="4.2333331"
       y1="4.2331805"
       x2="13.229166"
       y2="12.69977"
       gradientUnits="userSpaceOnUse"
       gradientTransform="matrix(0.94488191,0,0,0.94488191,-0.49999966,2.0002167)" />
    <linearGradient
       inkscape:collect="always"
       xlink:href="#linearGradient2474"
       id="linearGradient4407"
       x1="32"
       y1="2.5000007"
       x2="32"
       y2="18.5"
       gradientUnits="userSpaceOnUse"
       gradientTransform="matrix(0.25000002,0,0,0.25000002,-0.49999966,0.75021643)" />
    <linearGradient
       inkscape:collect="always"
       xlink:href="#linearGradient2350"
       id="linearGradient5594"
       x1="1.9999999"
       y1="27"
       x2="65.999992"
       y2="26.99942"
       gradientUnits="userSpaceOnUse"
       gradientTransform="matrix(0.25000002,0,0,0.25000002,-0.49999966,-0.24992784)" />
    <linearGradient
       inkscape:collect="always"
       id="linearGradient2350">
      <stop
         style="stop-color:#ffffff;stop-opacity:1;"
         offset="0"
         id="stop2346" />
      <stop
         style="stop-color:#ffffff;stop-opacity:0;"
         offset="1"
         id="stop2348" />
    </linearGradient>
    <linearGradient
       inkscape:collect="always"
       id="linearGradient2290">
      <stop
         style="stop-color:#fce798;stop-opacity:1;"
         offset="0"
         id="stop2286" />
      <stop
         style="stop-color:#ffc937;stop-opacity:1"
         offset="1"
         id="stop2288" />
    </linearGradient>
    <linearGradient
       inkscape:collect="always"
       id="linearGradient2474">
      <stop
         style="stop-color:#fcbc19;stop-opacity:1;"
         offset="0"
         id="stop2470" />
      <stop
         style="stop-color:#f4b61f;stop-opacity:1;"
         offset="1"
         id="stop2472" />
    </linearGradient>
    <linearGradient
       inkscape:collect="always"
       xlink:href="#linearGradient5150"
       id="linearGradient5152"
       x1="3.4395833"
       y1="3.1750002"
       x2="2.9104166"
       y2="1.8520834"
       gradientUnits="userSpaceOnUse"
       gradientTransform="matrix(3.7795275,0,0,3.7795275,0,1)" />
    <linearGradient
       inkscape:collect="always"
       id="linearGradient5150">
      <stop
         style="stop-color:#aaaaaa;stop-opacity:1;"
         offset="0"
         id="stop5146" />
      <stop
         style="stop-color:#f6f6f5;stop-opacity:1"
         offset="1"
         id="stop5148" />
    </linearGradient>
    <linearGradient
       inkscape:collect="always"
       xlink:href="#linearGradient6118"
       id="linearGradient6120"
       x1="4.2333336"
       y1="2.1166668"
       x2="4.2333336"
       y2="2.9104171"
       gradientUnits="userSpaceOnUse"
       gradientTransform="matrix(3.7795275,0,0,3.7795275,0,1)" />
    <linearGradient
       inkscape:collect="always"
       id="linearGradient6118">
      <stop
         style="stop-color:#999999;stop-opacity:1;"
         offset="0"
         id="stop6114" />
      <stop
         style="stop-color:#7e7e7e;stop-opacity:1"
         offset="1"
         id="stop6116" />
    </linearGradient>
    <linearGradient
       inkscape:collect="always"
       xlink:href="#linearGradient4066"
       id="linearGradient4068"
       x1="1.0583334"
       y1="2.1166668"
       x2="1.0583334"
       y2="3.96875"
       gradientUnits="userSpaceOnUse"
       gradientTransform="matrix(3.7795275,0,0,3.7795275,0,1)" />
    <linearGradient
       inkscape:collect="always"
       id="linearGradient4066">
      <stop
         style="stop-color:#d3d3d3;stop-opacity:1;"
         offset="0"
         id="stop4062" />
      <stop
         style="stop-color:#e1e1e1;stop-opacity:1"
         offset="0.2"
         id="stop4454" />
      <stop
         style="stop-color:#a3a3a3;stop-opacity:1"
         offset="1"
         id="stop4064" />
    </linearGradient>
  </defs>
  <path
     id="rect846"
     style="fill:url(#linearGradient4407);fill-opacity:1;stroke-width:0.500001;stroke-linecap:round;stroke-linejoin:round;stroke-dasharray:6, 0.500001"
     d="M 1.0000004,1 C 0.46991538,1.0018232 0.03335161,1.4169658 0.00488315,1.946289 0.01993323,3.0658079 0,10.000072 0,10.000072 H 16 V 3.5000726 C 16,3.223071 15.777,3.0000721 15.5,3.0000721 H 8.0000004 L 6.7500003,1.4999997 C 6.4086863,1.165942 6.1655001,1 5.75,1 Z"
     sodipodi:nodetypes="ccccssccsc" />
  <path
     id="rect1170"
     style="fill:url(#linearGradient11974);fill-opacity:1;stroke-width:0.66144;stroke-linecap:round;stroke-linejoin:round;stroke-dasharray:7.93723, 0.66144"
     d="m 8.0000004,4.000072 -2.0000001,1.9999276 -4.9999998,3e-7 C 0.44600031,5.9999999 3.4015747e-7,6.4460001 3.4015747e-7,7.0000002 V 14.5 C 3.4015747e-7,14.777002 0.2230004,15 0.50000034,15 H 15.5 C 15.777001,15 16,14.777001 16,14.5 V 4.5000725 C 16,4.223071 15.777,4.0000724 15.5,4.0000724 Z"
     sodipodi:nodetypes="ccsccccccsc" />
  <path
     id="rect1170-2"
     style="fill:#e4a729;fill-opacity:1;stroke-width:0.66144;stroke-linecap:round;stroke-linejoin:round;stroke-dasharray:7.93723, 0.66144"
     d="m 0,13.500217 v 1 c 0,0.277002 0.22299968,0.5 0.50000012,0.5 H 15.5 c 0.277001,0 0.5,-0.222999 0.5,-0.5 v -1 c 0,0.276998 -0.223,0.500001 -0.5,0.500001 H 0.50000012 C 0.22299855,14.000218 0,13.777218 0,13.500217 Z"
     sodipodi:nodetypes="csssscssc" />
  <path
     id="rect1170-75"
     style="opacity:0.3;fill:url(#linearGradient5594);fill-opacity:1;stroke-width:0.66144;stroke-linecap:round;stroke-linejoin:round;stroke-dasharray:7.93723, 0.66144"
     d="M 8.0000004,4.0000002 6.0000003,5.9999277 h -5 C 0.44600031,5.9999277 3.4015747e-7,6.4459279 3.4015747e-7,6.999928 V 7.9999282 C 3.4015747e-7,7.4459281 0.44600031,6.999928 1.0000003,6.999928 h 5 L 8.0000004,5.0000005 H 15.5 c 0.277001,0 0.5,0.2229996 0.5,0.4999997 V 4.5 C 16,4.2229984 15.777,4.0000002 15.5,4.0000002 Z"
     sodipodi:nodetypes="ccsscsccscssc" />
  <rect
     style="fill:#9b8441;fill-opacity:1;stroke-width:0.999999"
     id="rect3074"
     width="16"
     height="3"
     x="0"
     y="9" />
  <rect
     style="fill:#a7a7a7;fill-opacity:1;stroke-width:0.999999"
     id="rect6824"
     width="1"
     height="2.9999998"
     x="0"
     y="9" />
  <path
     id="rect5034"
     style="fill:url(#linearGradient5152);fill-opacity:1;stroke-width:0.999999"
     d="m 1,9 1e-7,1 h -1 v 1 h 1 L 1,12 h 4 v -1 h 1 v 1 h 1 v -1 h 1 v 1 h 1 v -1 h 0.9999998 v 1 H 11 v -1 h 1 v 1 h 1 v -1 h 1 v 1 h 1 V 9 h -2 v 1 H 12 V 9 h -1 v 1 H 9.9999998 V 9 H 9 v 1 H 8 V 9 H 7 v 1 H 6 V 9 H 5 v 1 H 4 V 9 Z"
     sodipodi:nodetypes="ccccccccccccccccccccccccccccccccccccccccccccccccc" />
  <rect
     style="fill:url(#linearGradient4068);fill-opacity:1;stroke-width:0.999999"
     id="rect3442"
     width="3"
     height="7"
     x="1"
     y="9" />
  <rect
     style="fill:#747474;fill-opacity:1;stroke-width:0.999999"
     id="rect4652"
     width="1"
     height="1"
     x="2"
     y="10" />
  <rect
     style="fill:url(#linearGradient6120);fill-opacity:1;stroke-width:0.999999"
     id="rect6090"
     width="1.0000006"
     height="3.0000005"
     x="15"
     y="9" />
  <rect
     style="fill:#74550e;fill-opacity:1;stroke-width:0.999999"
     id="rect7104"
     width="1"
     height="1"
     x="2"
     y="13.999999" />
</svg>
