<?xml version="1.0" encoding="UTF-8" standalone="no"?>
<!-- Created with Inkscape (http://www.inkscape.org/) -->

<svg
   width="16"
   height="16"
   viewBox="0 0 16 16"
   version="1.1"
   id="svg5"
   inkscape:version="1.2.1 (9c6d41e410, 2022-07-14, custom)"
   sodipodi:docname="folder-template.svg"
   xmlns:inkscape="http://www.inkscape.org/namespaces/inkscape"
   xmlns:sodipodi="http://sodipodi.sourceforge.net/DTD/sodipodi-0.dtd"
   xmlns:xlink="http://www.w3.org/1999/xlink"
   xmlns="http://www.w3.org/2000/svg"
   xmlns:svg="http://www.w3.org/2000/svg">
  <sodipodi:namedview
     id="namedview7"
     pagecolor="#ffffff"
     bordercolor="#666666"
     borderopacity="1.0"
     inkscape:pageshadow="2"
     inkscape:pageopacity="0.0"
     inkscape:pagecheckerboard="0"
     inkscape:document-units="px"
     showgrid="false"
     units="px"
     height="64px"
     inkscape:zoom="50.5"
     inkscape:cx="8"
     inkscape:cy="8"
     inkscape:window-width="1920"
     inkscape:window-height="1010"
     inkscape:window-x="0"
     inkscape:window-y="0"
     inkscape:window-maximized="1"
     inkscape:current-layer="svg5"
     inkscape:showpageshadow="2"
     inkscape:deskcolor="#d1d1d1" />
  <defs
     id="defs2">
    <linearGradient
       inkscape:collect="always"
       id="linearGradient5539">
      <stop
         style="stop-color:#ffffff;stop-opacity:0"
         offset="0"
         id="stop5535" />
      <stop
         style="stop-color:#ffffff;stop-opacity:0.33664191"
         offset="1"
         id="stop5537" />
    </linearGradient>
    <linearGradient
       inkscape:collect="always"
       id="linearGradient5001">
      <stop
         style="stop-color:#ffffff;stop-opacity:0"
         offset="0"
         id="stop4997" />
      <stop
         style="stop-color:#ffffff;stop-opacity:1"
         offset="1"
         id="stop4999" />
    </linearGradient>
    <linearGradient
       inkscape:collect="always"
       id="linearGradient4263">
      <stop
         style="stop-color:#ffffff;stop-opacity:1"
         offset="0"
         id="stop4259" />
      <stop
         style="stop-color:#ffffff;stop-opacity:0.50196081"
         offset="1"
         id="stop4261" />
    </linearGradient>
    <linearGradient
       inkscape:collect="always"
       id="linearGradient11972">
      <stop
         style="stop-color:#4ad2e3;stop-opacity:1"
         offset="0"
         id="stop11968" />
      <stop
         style="stop-color:#8660c5;stop-opacity:1"
         offset="1"
         id="stop11970" />
    </linearGradient>
    <linearGradient
       inkscape:collect="always"
       xlink:href="#linearGradient4263"
       id="linearGradient4265"
       x1="8.4584417"
       y1="6.3224587"
       x2="8.4666672"
       y2="9.5250006"
       gradientUnits="userSpaceOnUse"
       gradientTransform="matrix(2.1804967,0,0,2.2397197,-10.961538,-14.22222)" />
    <linearGradient
       inkscape:collect="always"
       xlink:href="#linearGradient5001"
       id="linearGradient5003"
       x1="19"
       y1="44.711914"
       x2="32"
       y2="36"
       gradientUnits="userSpaceOnUse"
       gradientTransform="matrix(0.57692313,0,0,0.59259252,-10.961538,-14.22222)" />
    <linearGradient
       inkscape:collect="always"
       xlink:href="#linearGradient5539"
       id="linearGradient5541"
       x1="11.853752"
       y1="12.168457"
       x2="8.4666672"
       y2="9.5250006"
       gradientUnits="userSpaceOnUse"
       gradientTransform="matrix(2.1804967,0,0,2.2397197,-10.961538,-14.22222)" />
    <linearGradient
       inkscape:collect="always"
       xlink:href="#linearGradient11972"
       id="linearGradient939"
       gradientUnits="userSpaceOnUse"
       gradientTransform="matrix(2.1804967,0,0,2.2397197,-10.961224,-14.222323)"
       x1="5.320261"
       y1="6.4749041"
       x2="11.797989"
       y2="13.101656" />
  </defs>
  <path
     id="path3182-6"
     style="color:#000000;fill:url(#linearGradient939);fill-opacity:1;stroke:none;stroke-width:2.21033;stroke-linecap:round;stroke-linejoin:round;stroke-miterlimit:4;stroke-dasharray:none"
     d="M 7.4999841,7.5590547e-8 C 7.1806367,7.5590547e-8 6.861882,0.06759465 6.5636115,0.20370262 L 1.371304,2.5752297 C 0.82941498,2.822387 0.4135631,3.2680354 0.18816037,3.8067124 c -0.0129521,0.030917 -0.0255107,0.062219 -0.0371815,0.093755 -0.001987,0.0054 -0.003683,0.010734 -0.005626,0.016139 -0.0134748,0.037266 -0.0255107,0.074268 -0.0371864,0.1122747 -0.01151357,0.037493 -0.0229644,0.075254 -0.03267477,0.1134198 -9.157e-5,3.583e-4 9.117e-5,7.997e-4 0,0.00116 -0.0089193,0.03515 -0.01742286,0.070798 -0.02478954,0.1064768 -0.0022459,0.010734 -0.0046658,0.021505 -0.0067593,0.032428 -0.0017134,0.00896 -0.0029001,0.017688 -0.004515,0.026608 -0.0041428,0.022715 -0.0077856,0.045377 -0.01127384,0.068289 C 0.02298792,4.4113537 0.01836262,4.4458007 0.01463522,4.48027 0.01261582,4.498865 0.01060242,4.517234 0.00900913,4.53584 0.00750219,4.553528 0.00674141,4.571178 0.0056294,4.589078 0.00443227,4.6079 0.0030128,4.626798 0.00224962,4.64579 c -9.115e-5,0.00224 8.419e-5,0.00469 0,0.00695 C 0.00117397,4.6819198 3.4956092e-6,4.711332 3.4956092e-6,4.7406952 V 11.259213 C 1.1075562e-4,11.464127 0.02653701,11.665095 0.07549908,11.857592 c 0.0069986,0.02751 0.01460788,0.05387 0.02253732,0.08101 0.19021783,0.652149 0.64784082,1.200844 1.2732877,1.486111 l 5.1911789,2.371501 h 0.00113 c 0.036964,0.01682 0.073965,0.03269 0.1115527,0.04746 3.243e-4,1.26e-4 8.028e-4,-1.28e-4 0.00113,0 0.037606,0.01478 0.075681,0.02903 0.1138016,0.04166 3.352e-4,1.12e-4 7.918e-4,-1.1e-4 0.00113,0 0.076588,0.02529 0.1538872,0.04676 0.2321234,0.06365 3.534e-4,7.6e-5 7.722e-4,-7.7e-5 0.00113,0 0.156824,0.03375 0.3162029,0.05093 0.4755103,0.05093 0.039904,0 0.080674,-0.0014 0.1205707,-0.0034 0.2791408,-0.01478 0.5559451,-0.08114 0.8169312,-0.200228 l 5.1911761,-2.371528 c 0.651158,-0.296996 1.122059,-0.879641 1.296955,-1.567134 0.04895,-0.192459 0.07425,-0.39342 0.07436,-0.598334 V 4.7407719 c -2.2e-5,-0.040989 -0.0013,-0.082065 -0.0034,-0.122691 -0.0021,-0.040543 -0.005,-0.080247 -0.009,-0.1203628 -0.0035,-0.034507 -0.0074,-0.068871 -0.0124,-0.1030035 -8.27e-4,-0.00582 -0.0014,-0.011641 -0.0022,-0.017461 -0.0011,-0.00695 -0.0022,-0.013909 -0.0034,-0.020825 C 14.9643,4.3238496 14.95807,4.2914096 14.95161,4.2592006 14.93581,4.1812026 14.91616,4.1042475 14.89304,4.0288648 14.697094,3.3910991 14.243671,2.8557343 13.628665,2.5752297 L 8.4374846,0.20370254 C 8.1392141,0.06759477 7.819333,7.5590547e-8 7.4999841,7.5590547e-8 Z" />
  <path
     style="color:#000000;opacity:0.4;fill:url(#linearGradient4265);fill-opacity:1;stroke:none;stroke-width:2.21033;stroke-linecap:round;stroke-linejoin:round;stroke-miterlimit:4;stroke-dasharray:none"
     d="M 6.5630329,0.20414947 1.3713803,2.5752772 C 0.5379046,2.9554258 4.900844e-4,3.804044 5.151424e-7,4.7407912 V 11.259205 C 4.900844e-4,12.195952 0.5379046,13.04457 1.3713803,13.42472 l 5.1916526,2.371128 c 0.5965405,0.272202 1.2773944,0.272202 1.8739354,0 L 13.628621,13.42472 c 0.833475,-0.38015 1.370889,-1.228768 1.371377,-2.165515 V 4.7407912 C 14.99951,3.8040448 14.462096,2.9554258 13.628621,2.5752772 L 8.4369683,0.20414947 c -0.596541,-0.27219929 -1.2773949,-0.27219929 -1.8739354,0 z"
     id="path3182"
     sodipodi:nodetypes="ccccccccccccc" />
  <path
     id="rect3501"
     style="opacity:0.4;fill:url(#linearGradient5003);fill-opacity:1;stroke-width:2.2102;stroke-linecap:round;stroke-linejoin:round"
     d="M 0.18817673,3.8067124 C 0.06686694,4.0965908 1.7220475e-4,4.4129939 0,4.7407398 v 6.5185172 c 4.8975324e-4,0.936745 0.53784341,1.78536 1.371319,2.16551 l 5.1911817,2.371527 c 0.2982727,0.136104 0.6181512,0.203701 0.9375001,0.203701 V 7.1111097 Z" />
  <path
     id="rect3501-7"
     style="opacity:0.4;fill:url(#linearGradient5541);fill-opacity:1;stroke-width:2.2102;stroke-linecap:round;stroke-linejoin:round"
     d="M 14.811821,3.806712 C 14.933121,4.0965904 14.999822,4.4129939 15,4.7407398 v 6.5185182 c -4.93e-4,0.936745 -0.537846,1.785359 -1.37132,2.165509 L 8.4374989,15.796294 C 8.1392262,15.932402 7.8193478,15.999995 7.5000008,15.999995 V 7.1111101 Z" />
</svg>
