<?xml version="1.0" encoding="UTF-8" standalone="no"?>
<!-- Created with Inkscape (http://www.inkscape.org/) -->

<svg
   width="16"
   height="16"
   viewBox="0 0 16 16"
   version="1.1"
   id="svg5"
   inkscape:version="1.2.1 (9c6d41e410, 2022-07-14, custom)"
   sodipodi:docname="folder-blue.svg"
   xmlns:inkscape="http://www.inkscape.org/namespaces/inkscape"
   xmlns:sodipodi="http://sodipodi.sourceforge.net/DTD/sodipodi-0.dtd"
   xmlns:xlink="http://www.w3.org/1999/xlink"
   xmlns="http://www.w3.org/2000/svg"
   xmlns:svg="http://www.w3.org/2000/svg">
  <sodipodi:namedview
     id="namedview7"
     pagecolor="#ffffff"
     bordercolor="#666666"
     borderopacity="1.0"
     inkscape:pageshadow="2"
     inkscape:pageopacity="0.0"
     inkscape:pagecheckerboard="0"
     inkscape:document-units="px"
     showgrid="false"
     units="px"
     height="64px"
     inkscape:zoom="50.625"
     inkscape:cx="8"
     inkscape:cy="8"
     inkscape:window-width="1920"
     inkscape:window-height="1012"
     inkscape:window-x="0"
     inkscape:window-y="0"
     inkscape:window-maximized="1"
     inkscape:current-layer="svg5"
     inkscape:showpageshadow="2"
     inkscape:deskcolor="#d1d1d1" />
  <defs
     id="defs2">
    <linearGradient
       inkscape:collect="always"
       xlink:href="#linearGradient3553"
       id="linearGradient11974"
       x1="4.2333331"
       y1="4.2331805"
       x2="13.229166"
       y2="12.69977"
       gradientUnits="userSpaceOnUse"
       gradientTransform="matrix(0.94488191,0,0,0.94488191,-0.49999966,2.0002166)" />
    <linearGradient
       inkscape:collect="always"
       xlink:href="#linearGradient3673"
       id="linearGradient4407"
       x1="32"
       y1="2.5000007"
       x2="32"
       y2="18.5"
       gradientUnits="userSpaceOnUse"
       gradientTransform="matrix(0.25000002,0,0,0.25000002,-0.49999966,0.75021643)" />
    <linearGradient
       inkscape:collect="always"
       xlink:href="#linearGradient2350"
       id="linearGradient5594"
       x1="1.9999999"
       y1="27"
       x2="65.999992"
       y2="26.99942"
       gradientUnits="userSpaceOnUse"
       gradientTransform="matrix(0.25000002,0,0,0.25000002,-0.49999966,-0.2499278)" />
    <linearGradient
       inkscape:collect="always"
       id="linearGradient2350">
      <stop
         style="stop-color:#ffffff;stop-opacity:1;"
         offset="0"
         id="stop2346" />
      <stop
         style="stop-color:#ffffff;stop-opacity:0;"
         offset="1"
         id="stop2348" />
    </linearGradient>
    <linearGradient
       inkscape:collect="always"
       id="linearGradient3613">
      <stop
         style="stop-color:#0a5ba8;stop-opacity:1;"
         offset="0"
         id="stop3609" />
      <stop
         style="stop-color:#104a5c;stop-opacity:1"
         offset="1"
         id="stop3611" />
    </linearGradient>
    <linearGradient
       inkscape:collect="always"
       id="linearGradient3553">
      <stop
         style="stop-color:#27aee9;stop-opacity:1;"
         offset="0"
         id="stop3549" />
      <stop
         style="stop-color:#0669bc;stop-opacity:1"
         offset="1"
         id="stop3551" />
    </linearGradient>
    <linearGradient
       inkscape:collect="always"
       id="linearGradient3673">
      <stop
         style="stop-color:#0272cb;stop-opacity:1;"
         offset="0"
         id="stop3669" />
      <stop
         style="stop-color:#0768ba;stop-opacity:1"
         offset="1"
         id="stop3671" />
    </linearGradient>
    <linearGradient
       inkscape:collect="always"
       xlink:href="#linearGradient3613"
       id="linearGradient19401"
       x1="0"
       y1="3.77037"
       x2="4.2333336"
       y2="3.77037"
       gradientUnits="userSpaceOnUse"
       gradientTransform="scale(3.7795275)" />
  </defs>
  <path
     id="rect846"
     style="fill:url(#linearGradient4407);fill-opacity:1;stroke-width:0.500001;stroke-linecap:round;stroke-linejoin:round;stroke-dasharray:6, 0.500001"
     d="M 1.0000004,1 C 0.46991538,1.0018232 0.03335161,1.4169658 0.00488315,1.946289 0.01993323,3.0658078 0,10.000072 0,10.000072 H 16 V 3.5000725 C 16,3.2230709 15.777,3.000072 15.5,3.000072 H 8.0000004 L 6.7500003,1.4999997 C 6.4086863,1.165942 6.1655001,1 5.75,1 Z"
     sodipodi:nodetypes="ccccssccsc" />
  <path
     id="rect1170"
     style="fill:url(#linearGradient11974);fill-opacity:1;stroke-width:0.66144;stroke-linecap:round;stroke-linejoin:round;stroke-dasharray:7.93723, 0.66144"
     d="M 8.0000004,4.000072 6.0000003,5.9999997 1.0000005,6 C 0.44600031,6 3.4015747e-7,6.4460002 3.4015747e-7,7.0000003 V 14.5 C 3.4015747e-7,14.777002 0.2230004,15 0.50000034,15 H 15.5 C 15.777001,15 16,14.777001 16,14.5 V 4.5000725 C 16,4.2230709 15.777,4.0000724 15.5,4.0000724 Z"
     sodipodi:nodetypes="ccsccccccsc" />
  <path
     id="rect1170-2"
     style="fill:url(#linearGradient19401);fill-opacity:1;stroke-width:0.66144;stroke-linecap:round;stroke-linejoin:round;stroke-dasharray:7.93723, 0.66144"
     d="m 0,13.500217 v 1 c 0,0.277002 0.22299968,0.5 0.50000012,0.5 H 15.5 c 0.277001,0 0.5,-0.222999 0.5,-0.5 v -1 c 0,0.276998 -0.223,0.5 -0.5,0.5 H 0.50000012 C 0.22299855,14.000217 0,13.777218 0,13.500217 Z"
     sodipodi:nodetypes="csssscssc" />
  <path
     id="rect1170-75"
     style="opacity:0.3;fill:url(#linearGradient5594);fill-opacity:1;stroke-width:0.66144;stroke-linecap:round;stroke-linejoin:round;stroke-dasharray:7.93723, 0.66144"
     d="M 8.0000004,4.0000002 6.0000003,5.9999279 h -5 C 0.44600031,5.9999279 3.4015747e-7,6.445928 3.4015747e-7,6.9999281 V 7.9999283 C 3.4015747e-7,7.4459282 0.44600031,6.9999281 1.0000003,6.9999281 h 5 L 8.0000004,5.0000006 H 15.5 c 0.277001,0 0.5,0.2229996 0.5,0.4999997 V 4.4999999 C 16,4.2229983 15.777,4.0000002 15.5,4.0000002 Z"
     sodipodi:nodetypes="ccsscsccscssc" />
</svg>
