<?xml version="1.0" encoding="UTF-8" standalone="no"?>
<!-- Created with Inkscape (http://www.inkscape.org/) -->

<svg
   width="16"
   height="16"
   viewBox="0 0 4.2333333 4.2333335"
   version="1.1"
   id="svg5"
   inkscape:version="1.2.1 (9c6d41e410, 2022-07-14, custom)"
   sodipodi:docname="folder-vbox.svg"
   xmlns:inkscape="http://www.inkscape.org/namespaces/inkscape"
   xmlns:sodipodi="http://sodipodi.sourceforge.net/DTD/sodipodi-0.dtd"
   xmlns:xlink="http://www.w3.org/1999/xlink"
   xmlns="http://www.w3.org/2000/svg"
   xmlns:svg="http://www.w3.org/2000/svg">
  <sodipodi:namedview
     id="namedview7"
     pagecolor="#ffffff"
     bordercolor="#666666"
     borderopacity="1.0"
     inkscape:pageshadow="2"
     inkscape:pageopacity="0.0"
     inkscape:pagecheckerboard="0"
     inkscape:document-units="px"
     showgrid="false"
     units="px"
     height="64px"
     inkscape:zoom="50.5"
     inkscape:cx="8"
     inkscape:cy="8"
     inkscape:window-width="1920"
     inkscape:window-height="1010"
     inkscape:window-x="0"
     inkscape:window-y="0"
     inkscape:window-maximized="1"
     inkscape:current-layer="svg5"
     inkscape:showpageshadow="2"
     inkscape:deskcolor="#d1d1d1" />
  <defs
     id="defs2">
    <linearGradient
       inkscape:collect="always"
       xlink:href="#linearGradient2290"
       id="linearGradient11974"
       x1="4.2333331"
       y1="4.2331805"
       x2="11.702937"
       y2="11.641666"
       gradientUnits="userSpaceOnUse"
       gradientTransform="matrix(0.25000001,0,0,0.25000001,0.13229176,0.52922399)" />
    <linearGradient
       inkscape:collect="always"
       xlink:href="#linearGradient2474"
       id="linearGradient4407"
       x1="32"
       y1="2.5000007"
       x2="32"
       y2="18.5"
       gradientUnits="userSpaceOnUse"
       gradientTransform="matrix(0.06614584,0,0,0.06614584,0.13229176,0.4630781)" />
    <linearGradient
       inkscape:collect="always"
       xlink:href="#linearGradient2350"
       id="linearGradient5594"
       x1="1.9999999"
       y1="27"
       x2="57.91507"
       y2="26.89282"
       gradientUnits="userSpaceOnUse"
       gradientTransform="matrix(0.06614584,0,0,0.06614584,0.13229176,-0.06612674)" />
    <linearGradient
       inkscape:collect="always"
       id="linearGradient2350">
      <stop
         style="stop-color:#ffffff;stop-opacity:1;"
         offset="0"
         id="stop2346" />
      <stop
         style="stop-color:#ffffff;stop-opacity:0;"
         offset="1"
         id="stop2348" />
    </linearGradient>
    <linearGradient
       inkscape:collect="always"
       id="linearGradient2290">
      <stop
         style="stop-color:#fce798;stop-opacity:1;"
         offset="0"
         id="stop2286" />
      <stop
         style="stop-color:#ffc937;stop-opacity:1"
         offset="1"
         id="stop2288" />
    </linearGradient>
    <linearGradient
       inkscape:collect="always"
       id="linearGradient2474">
      <stop
         style="stop-color:#fcbc19;stop-opacity:1;"
         offset="0"
         id="stop2470" />
      <stop
         style="stop-color:#f4b61f;stop-opacity:1;"
         offset="1"
         id="stop2472" />
    </linearGradient>
    <linearGradient
       inkscape:collect="always"
       id="linearGradient2083">
      <stop
         style="stop-color:#bf910d;stop-opacity:1;"
         offset="0"
         id="stop2079" />
      <stop
         style="stop-color:#a87704;stop-opacity:1"
         offset="1"
         id="stop2081" />
    </linearGradient>
    <linearGradient
       inkscape:collect="always"
       xlink:href="#linearGradient2083"
       id="linearGradient10392"
       gradientUnits="userSpaceOnUse"
       x1="3.3066416"
       y1="1.7203724"
       x2="3.3066416"
       y2="3.3074801"
       gradientTransform="translate(0,-0.13234325)" />
  </defs>
  <path
     id="rect846"
     style="fill:url(#linearGradient4407);fill-opacity:1;stroke-width:0.132292;stroke-linecap:round;stroke-linejoin:round;stroke-dasharray:1.5875, 0.132292"
     d="M 0.52916678,0.52916667 C 0.38891512,0.52964907 0.27340762,0.63948887 0.26587534,0.77953896 0.26985734,1.075745 0.26458334,2.6458907 0.26458334,2.6458907 H 3.9687499 V 1.1906633 c 0,-0.07329 -0.059002,-0.1322918 -0.1322916,-0.1322918 H 2.1166667 L 1.7859376,0.66145827 C 1.6956316,0.57307217 1.6312886,0.52916667 1.5213542,0.52916667 Z"
     sodipodi:nodetypes="ccccssccsc" />
  <path
     id="rect1170"
     style="fill:url(#linearGradient11974);fill-opacity:1;stroke-width:0.175006;stroke-linecap:round;stroke-linejoin:round;stroke-dasharray:2.10006, 0.175006"
     d="M 2.1166667,1.0583525 1.8520833,1.3229358 H 0.5291668 c -0.14657921,0 -0.26458337,0.1180042 -0.26458337,0.2645834 v 1.9844132 c 0,0.07329 0.0590021,0.1322917 0.13229167,0.1322917 h 3.4395832 c 0.07329,0 0.1322916,-0.059002 0.1322916,-0.1322917 V 1.1906442 c 0,-0.07329 -0.059002,-0.1322917 -0.1322916,-0.1322917 z"
     sodipodi:nodetypes="ccsccccccsc" />
  <path
     id="rect1170-2"
     style="fill:#e4a729;fill-opacity:1;stroke-width:0.175006;stroke-linecap:round;stroke-linejoin:round;stroke-dasharray:2.10006, 0.175006"
     d="m 0.26458334,3.3073491 v 0.2645833 c 0,0.07329 0.059002,0.1322917 0.1322917,0.1322917 H 3.8364583 c 0.07329,0 0.1322917,-0.059002 0.1322917,-0.1322917 V 3.3073491 c 0,0.073289 -0.059002,0.1322917 -0.1322917,0.1322917 H 0.39687504 c -0.07329,0 -0.1322917,-0.059002 -0.1322917,-0.1322917 z"
     sodipodi:nodetypes="csssscssc" />
  <path
     id="rect1170-75"
     style="opacity:0.3;fill:url(#linearGradient5594);fill-opacity:1;stroke-width:0.175006;stroke-linecap:round;stroke-linejoin:round;stroke-dasharray:2.10006, 0.175006"
     d="M 2.1166667,1.0583525 1.8520833,1.3229358 H 0.52916675 c -0.14657916,0 -0.26458332,0.1180042 -0.26458332,0.2645834 v 0.2645834 c 0,-0.1465792 0.11800416,-0.2645834 0.26458332,-0.2645834 H 1.8520833 L 2.1166667,1.3229359 h 1.7197916 c 0.07329,0 0.1322917,0.059002 0.1322917,0.1322916 V 1.1906441 c 0,-0.07329 -0.059002,-0.1322916 -0.1322917,-0.1322916 z"
     sodipodi:nodetypes="ccsscsccscssc" />
  <path
     style="color:#000000;fill:url(#linearGradient10392);fill-opacity:1;stroke:none;stroke-linecap:round;stroke-linejoin:round;-inkscape-stroke:none"
     d="m 1.9759933,1.5883598 c -0.059524,0.00384 -0.1091189,0.047035 -0.1210938,0.1054688 L 1.5332031,2.637188 1.4414062,2.4535942 C 1.4186229,2.4088496 1.3724745,2.380858 1.3222656,2.3813286 H 0.92630207 c -0.07347,-2.899e-4 -0.13310237,0.059342 -0.13281245,0.1328125 7.8654e-4,0.072706 0.0601026,0.13115 0.13281245,0.1308594 H 1.2402344 L 1.46875,3.1020317 c 0.056348,0.1126219 0.2233026,0.090274 0.2480469,-0.033203 l 0.300212,-0.8320314 0.1054688,0.3183594 c 0.039313,0.1225019 0.2126399,0.1225019 0.2519531,0 L 2.5131027,2.137188 2.6517746,2.5551567 c 0.01839,0.054285 0.069642,0.090556 0.1269531,0.089844 H 3.3080246 C 3.3799729,2.6442259 3.4381093,2.5860894 3.4388839,2.5141411 3.4391745,2.4414313 3.3807308,2.3821152 3.3080246,2.3813286 H 2.8724777 l -0.234375,-0.703125 c -0.041134,-0.1186014 -0.2088656,-0.1186014 -0.25,0 L 2.2494308,2.0942192 2.1107589,1.6782036 C 2.0915583,1.6210452 2.0361397,1.5840995 1.9759933,1.5883598 Z"
     id="path10382"
     sodipodi:nodetypes="cccccccccccccccccccccccccc" />
</svg>
