<?xml version="1.0" encoding="UTF-8" standalone="no"?>
<!-- Created with Inkscape (http://www.inkscape.org/) -->

<svg
   width="16"
   height="16"
   viewBox="0 0 16 15.999999"
   version="1.1"
   id="svg2607"
   inkscape:version="1.2.1 (9c6d41e410, 2022-07-14, custom)"
   sodipodi:docname="network-workgroup.svg"
   xmlns:inkscape="http://www.inkscape.org/namespaces/inkscape"
   xmlns:sodipodi="http://sodipodi.sourceforge.net/DTD/sodipodi-0.dtd"
   xmlns:xlink="http://www.w3.org/1999/xlink"
   xmlns="http://www.w3.org/2000/svg"
   xmlns:svg="http://www.w3.org/2000/svg">
  <sodipodi:namedview
     id="namedview2609"
     pagecolor="#ffffff"
     bordercolor="#000000"
     borderopacity="0.25"
     inkscape:showpageshadow="2"
     inkscape:pageopacity="0.0"
     inkscape:pagecheckerboard="0"
     inkscape:deskcolor="#d1d1d1"
     inkscape:document-units="px"
     showgrid="false"
     inkscape:zoom="50.5"
     inkscape:cx="8"
     inkscape:cy="8"
     inkscape:window-width="1920"
     inkscape:window-height="1010"
     inkscape:window-x="0"
     inkscape:window-y="0"
     inkscape:window-maximized="1"
     inkscape:current-layer="svg2607" />
  <defs
     id="defs2604">
    <radialGradient
       inkscape:collect="always"
       xlink:href="#linearGradient1819"
       id="radialGradient1821"
       cx="-8.4892759"
       cy="6.6485348"
       fx="-8.4892759"
       fy="6.6485348"
       r="4"
       gradientTransform="matrix(1.0708191,0.55067573,-0.51934821,1.009901,15.543386,1.1419388)"
       gradientUnits="userSpaceOnUse" />
    <linearGradient
       inkscape:collect="always"
       id="linearGradient1819">
      <stop
         style="stop-color:#5ab5e2;stop-opacity:1;"
         offset="0"
         id="stop1815" />
      <stop
         style="stop-color:#4189ac;stop-opacity:1;"
         offset="0.5"
         id="stop1823" />
      <stop
         style="stop-color:#295e76;stop-opacity:1;"
         offset="1"
         id="stop1817" />
    </linearGradient>
    <linearGradient
       inkscape:collect="always"
       xlink:href="#linearGradient1339"
       id="linearGradient1341"
       x1="-16.257299"
       y1="3.3388042"
       x2="-8.2772894"
       y2="3.3388042"
       gradientUnits="userSpaceOnUse"
       gradientTransform="translate(16.2573,0.56970465)" />
    <linearGradient
       inkscape:collect="always"
       id="linearGradient1339">
      <stop
         style="stop-color:#b0d6df;stop-opacity:1;"
         offset="0"
         id="stop1335" />
      <stop
         style="stop-color:#e1f8fc;stop-opacity:1;"
         offset="0.5"
         id="stop1343" />
      <stop
         style="stop-color:#96c3ce;stop-opacity:1;"
         offset="1"
         id="stop1337" />
    </linearGradient>
    <linearGradient
       inkscape:collect="always"
       xlink:href="#linearGradient2301"
       id="linearGradient3955"
       x1="5.0270834"
       y1="6.8791666"
       x2="8.2020836"
       y2="8.9958334"
       gradientUnits="userSpaceOnUse"
       gradientTransform="matrix(3.7795275,0,0,3.7795275,-16.000001,-22.999999)" />
    <linearGradient
       inkscape:collect="always"
       id="linearGradient2301">
      <stop
         style="stop-color:#3fe3e7;stop-opacity:1;"
         offset="0"
         id="stop2297" />
      <stop
         style="stop-color:#066bbc;stop-opacity:1"
         offset="1"
         id="stop2299" />
    </linearGradient>
    <linearGradient
       inkscape:collect="always"
       id="linearGradient1116">
      <stop
         style="stop-color:#555a5f;stop-opacity:1;"
         offset="0"
         id="stop1112" />
      <stop
         style="stop-color:#4b4f53;stop-opacity:1"
         offset="1"
         id="stop1114" />
    </linearGradient>
    <linearGradient
       inkscape:collect="always"
       xlink:href="#linearGradient2986"
       id="linearGradient1165"
       x1="2.6458335"
       y1="3.8364599"
       x2="1.0583335"
       y2="3.8364599"
       gradientUnits="userSpaceOnUse"
       gradientTransform="matrix(3.7795275,0,0,3.7795275,2,2.4e-6)" />
    <linearGradient
       inkscape:collect="always"
       id="linearGradient2986">
      <stop
         style="stop-color:#818990;stop-opacity:1;"
         offset="0"
         id="stop2982" />
      <stop
         style="stop-color:#9fa8b0;stop-opacity:1"
         offset="1"
         id="stop2984" />
    </linearGradient>
    <linearGradient
       inkscape:collect="always"
       xlink:href="#linearGradient1116"
       id="linearGradient1908"
       x1="4"
       y1="32"
       x2="60"
       y2="32"
       gradientUnits="userSpaceOnUse"
       gradientTransform="matrix(0.25000001,0,0,0.26315791,0.9999996,-1.4210512)" />
  </defs>
  <rect
     style="fill:#bcc5cf;fill-opacity:1;stroke-width:0.795742;stroke-linecap:round;stroke-linejoin:round"
     id="rect2848"
     width="2"
     height="2"
     x="7.999999"
     y="12.000001" />
  <rect
     style="fill:url(#linearGradient1908);fill-opacity:1;stroke-width:0.256494;stroke-linecap:round"
     id="rect1537"
     width="14"
     height="10"
     x="1.9999995"
     y="2.000001"
     ry="1" />
  <rect
     style="fill:url(#linearGradient3955);fill-opacity:1;stroke-width:3;stroke-linecap:round;stroke-linejoin:round"
     id="rect3867"
     width="12"
     height="8"
     x="2.9999995"
     y="3.000001" />
  <rect
     style="fill:url(#linearGradient1165);fill-opacity:1;stroke-width:1.63664;stroke-linecap:round;stroke-linejoin:round"
     id="rect1839"
     width="6"
     height="1"
     x="6.0000005"
     y="14.000007" />
  <ellipse
     style="fill:url(#radialGradient1821);fill-opacity:1"
     id="path1449"
     cx="4.0000854"
     cy="3.9999146"
     rx="4"
     ry="3.9999146" />
  <path
     d="m 4.0207522,0.199996 c -0.308485,0.0218759 -0.610267,0.0785068 -0.904567,0.17390248 -0.104996,0.004097 -0.333181,0.13933157 -0.149076,0.20279547 0.08568,0.0915296 0.290222,0.1206576 0.265379,0.2702211 0.03303,0.13146365 -0.305567,0.12549875 -0.192862,0.24456795 0.07991,0.1051683 0.159825,0.2103424 0.23974,0.3155138 0.147556,-0.047395 0.196248,-0.1985159 0.278112,-0.3148335 0.227876,-0.1005143 0.550388,-0.1308745 0.700985,-0.32429975 l 0.14157,-0.41045768 C 4.2736042,0.30493547 4.1471712,0.25246502 4.0207482,0.19998213 Z m -1.096857,0.0351496 c -0.141343,-0.0152466 -0.231757,0.071616 -0.337259,0.12856441 -0.129866,0.0159043 -0.276594,0.0642414 -0.358432,0.16869014 0.145677,0.06611 0.237422,-0.004324 0.363166,-0.054274 0.116749,-0.0598133 0.513842,-0.0847688 0.332526,-0.24299453 z m -0.912087,0.41952435 c -0.07267,0.1109201 0.05104,0.27146185 -0.115186,0.32967305 -0.08205,0.103872 -0.153758,0.2743676 0.05133,0.2125024 0.05017,-0.1539163 0.206022,-0.36981915 0.383392,-0.2796745 0.178649,0.048 0.343992,0.3482057 0.489856,0.1104227 -5.9e-5,-0.061844 -0.226889,-0.09802 -0.221821,-0.24931495 -0.100935,-0.0433028 -0.316699,0.0353877 -0.309166,-0.121979 -0.145823,-0.0647493 -0.187823,0.25788805 -0.239502,0.0775559 -0.01297,-0.0263924 -0.02594,-0.0527834 -0.0389,-0.0791856 z m 3.958448,0.139841 c -0.172595,0.0345146 -0.343071,0.0739381 -0.479283,0.19256875 0.03954,0.1580773 -0.164394,0.1846765 -0.255099,0.2724208 -0.06581,0.037138 0.0012,0.3240068 0.05885,0.2794745 0.122604,-0.1617569 0.186025,-0.022224 0.299992,0.057654 0.102581,0.095276 0.167717,-0.1769295 0.113231,-0.2536615 -0.03197,-0.1236676 0.123561,-0.2151545 0.179532,-0.3164326 0.171114,-0.1097635 0.02653,0.1400376 0.02105,0.227249 -0.08637,0.2577271 0.3831248,0.00778 0.07365,0.200369 -0.08301,0.082901 -0.113409,0.2057149 -0.240968,0.2669799 -0.06887,0.084067 -0.33174,0.044664 -0.296341,-0.086476 -0.09599,-0.1504505 -0.0723,0.181076 -0.104913,0.1794886 -0.159087,-0.047405 -0.206434,0.1301685 -0.306206,0.2151284 -0.07635,0.087717 -0.345898,0.03329 -0.144661,0.1691706 0.14677,0.1693564 -0.02925,0.1380366 -0.150663,0.1831419 -0.171583,0.029545 -0.142904,0.1789833 -0.138463,0.3139136 0.0026,0.074359 0.167316,0.1846764 0.250715,0.1328141 0.166582,-0.017839 0.12455,-0.2222752 0.247623,-0.28462 0.102259,-0.087534 0.174021,-0.1682634 0.327568,-0.1703562 0.07089,0.067654 0.214171,0.1693565 0.272273,0.2246616 -0.160358,0.1747158 0.07365,0.1604772 0.09604,0.0013 0.0791,-0.087653 -0.260542,-0.2939145 -0.03655,-0.203289 0.148248,0.048907 0.114157,0.2003561 0.180117,0.3025935 C 6.0549952,2.8968 6.0675512,2.7489029 6.0784662,2.5955842 6.2732591,2.5343892 6.3260591,2.9347922 6.588613,2.8408876 6.7853828,2.8925916 6.6921381,3.0198297 6.567901,3.1019879 6.4544358,3.1847499 6.2852415,3.1280209 6.16071,3.0830899 6.037512,3.0198419 5.889037,3.0561039 5.824184,3.1818969 5.680215,3.0576472 5.578296,2.8602641 5.369141,2.8493314 5.171105,2.8390734 4.971176,2.8917264 4.78006,2.9455684 4.568305,3.1940832 4.339203,3.4361176 4.240538,3.7537513 4.138121,3.879611 4.357496,3.955013 4.190748,4.0695572 4.074656,4.1779503 4.230288,4.3118325 4.254308,4.4333746 4.37924,4.581532 4.570779,5.0688677 4.763724,4.8803657 4.872306,4.7088091 4.944306,4.9927424 5.071982,4.8145567 5.179449,4.7164627 5.266484,4.9131157 5.417189,4.8431677 5.5512,4.9099667 5.562852,5.0409088 5.492039,5.1662152 5.446559,5.293434 5.689047,5.3457464 5.620055,5.494263 5.587515,5.6394989 5.651235,5.7627908 5.723391,5.8841609 5.563022,6.0515562 5.582354,6.2995249 5.622387,6.5092812 5.700847,6.7968465 5.813223,7.0852418 5.801998,7.3880349 5.942513,7.4248849 6.046167,7.3318299 6.162364,7.282964 6.3841471,7.314334 6.5048009,7.0776904 6.642516,6.94196 6.539059,6.8028847 6.727506,6.7428696 6.805406,6.6528979 6.688887,6.552113 6.6116788,6.4542648 6.792064,6.3756658 6.875278,6.2911438 7.0311645,6.2433672 7.058498,6.1254724 6.986838,5.9119291 7.027657,5.6850418 7.017108,5.46426 7.105458,5.2861951 7.1992623,5.1119211 7.3460101,4.9744302 7.4045321,4.7813417 7.5451911,4.6043577 7.5315508,4.3970964 7.1895036,4.4994233 7.292783,4.3536314 7.4823378,4.2150214 7.6138805,4.1185454 7.800918,4.0285584 7.8409167,3.8640696 7.8696407,3.7017261 7.7427547,3.4496652 7.6323737,3.6881802 7.5787577,3.6121682 7.3898717,3.5416767 7.3924871,3.4223585 7.3520381,3.1817375 7.4575551,3.3262615 7.5513633,3.4398955 7.7695592,3.2781518 8.0543126,3.8862997 7.962221,3.4523605 7.8374701,2.5132385 7.3612746,1.6260042 6.6479701,1.0026845 6.5827431,1.0721416 6.4738926,1.3311039 6.394908,1.181627 6.2830869,1.0630042 6.1953265,0.9559113 6.423103,0.9999504 6.6463257,0.9393691 6.4239598,0.9041454 6.3069468,0.890332 6.1895962,0.87663505 6.0807802,0.83364975 5.9702592,0.79448325 Z m -4.369106,0.00583 C 1.4534732,0.85721855 1.6746902,1.0740958 1.4099272,1.0046443 1.1196542,1.1361764 0.92628518,1.4553809 0.72452918,1.7039486 0.25391318,2.3690287 -0.00194882,3.1817838 1.1177518e-5,3.9964337 0.07723118,4.1558156 0.26741918,4.2098289 0.40970918,4.2978144 c 0.144611,0.049466 0.326727,0.041998 0.398698,0.2017549 0.0805,0.084295 0.188503,0.1973292 0.30350102,0.2064756 0.176716,-0.056629 0.201635,0.1036007 0.112482,0.2221266 -0.0097,0.1298268 -0.154156,0.2345424 -0.138051,0.3487257 0.03219,0.1279408 -0.16095502,0.2688605 -0.03084,0.3859113 0.13689,0.2447282 0.283394,0.4823898 0.468524,0.6937584 0.115147,0.1008831 0.101494,0.2397807 0.08835,0.3785257 -0.0457,0.1466381 0.0929,0.231462 0.16729,0.3378217 -0.181277,0.3323641 0.309726,0.3987908 0.515228,0.5441212 0.103316,-0.094477 0.111528,-0.2473965 0.282928,-0.2516598 0.103937,-0.072816 0.126126,-0.2371956 0.197514,-0.3464844 -0.0023,-0.1160882 -0.07663,-0.2245682 0.04406,-0.3510048 0.09094,-0.076755 0.278593,-0.025587 0.312446,-0.1858091 0.12353,-0.1272416 0.02358,-0.3035943 0.02358,-0.4579759 0.09596,-0.1314444 0.261502,-0.2323427 0.24313,-0.4139652 0.02079,-0.2708863 -0.466924,-0.2587125 -0.638773,-0.4229507 -0.211235,-0.00605 -0.168518,-0.2938999 -0.332953,-0.3321373 -0.16325,0.0082 -0.222609,-0.1196977 -0.280475,-0.2495547 -0.08992,-0.061327 -0.259141,0.063303 -0.353232,-0.013568 -0.106571,-0.056141 -0.202169,-0.2655685 -0.322127,-0.134691 -0.157876,0.1144705 -0.31314,0.2307553 -0.46291,0.039103 -0.09713,-0.087523 0.02491,-0.3359773 -0.11261502,-0.3203263 -0.29358,0.1061934 0.09305,-0.42643 -0.181782,-0.3557669 -0.06509,0.1020245 -0.189943,0.2594494 -0.31134,0.1387162 -0.121913,-0.057362 -0.06178,-0.2438744 -0.05634,-0.3555791 0.0053,-0.1306556 0.170623,-0.1957958 0.265647,-0.2553948 0.184303,0.082425 0.146477,-0.1632102 0.300514,-0.081098 0.14942302,-0.031824 0.21688902,0.2078755 0.27755402,0.2168092 0.03565,-0.1180861 -0.02871,-0.2906737 0.08088,-0.3684726 0.128047,-0.1077815 0.297047,-0.1844353 0.328646,-0.3655256 0.0026,-0.1934491 0.237369,-0.030418 0.295647,-0.1621569 0.05373,-0.1509434 0.210436,-0.1415157 0.342807,-0.1699952 0.0724,-0.067179 0.254381,-0.2741012 0.02957,-0.2134356 -0.08188,-0.011066 -0.411525,0.032806 -0.18769,-0.046066 0.11026,-0.083462 0.243902,-0.071897 0.367673,-0.08829 0.09748,-0.082524 0.267874,-0.1101706 0.275367,-0.2604208 -0.0809,-0.1100319 -0.252275,-0.089089 -0.179528,-0.2469026 -0.007,-0.2064355 -0.188849,-0.073906 -0.248581,-0.089608 0.09701,-0.1349972 -0.126141,-0.2199954 -0.201036,-0.2218882 -0.0509,0.1272189 -0.194009,0.2369806 -0.143504,0.383405 -0.14921,0.024234 -0.219116,0.1322306 -0.263954,0.2666876 -0.04474,0.015583 -0.03019,-0.2637018 -0.20141,-0.2379685 -0.12094,-0.00292 -0.270447,-0.1833826 -0.143117,-0.2544476 0.17457,-0.1104514 0.391619,-0.1969028 0.502003,-0.3733255 0.06348,-0.15801025 -0.05359,-0.25499485 -0.209476,-0.23255535 l -0.02174,-0.00151 z m 2.937137,0.18193015 c -0.09635,0.074954 -0.290846,0.023184 -0.331914,0.095449 -0.01727,0.1457571 0.209049,0.1434777 0.299433,0.06301 0.14773,-0.05462 0.141143,-0.044652 0.03247,-0.1584629 z m -2.140221,0.074705 c -0.204755,0.060246 -0.03743,0.1943551 0.09623,0.1925689 0.159476,-0.012865 0.0111,-0.1914221 -0.09623,-0.1925689 z m 2.441682,0.4023367 c -0.01466,0.1304289 0.110642,0.2118747 0.0589,0.3539656 -0.08148,0.1789962 0.03394,0.2327422 0.173182,0.1227205 0.185968,-0.1137872 -0.139359,-0.3630482 -0.182703,-0.4766857 h -0.04938 z m -0.06133,0.2097513 c -0.167119,-0.041079 -0.114248,0.308674 5.84e-4,0.1882624 0.123659,-0.021589 0.0049,-0.1168698 -5.84e-4,-0.1882624 z m -2.132755,0.315233 c 0.02453,0.132638 0.03337,0.3429131 0.130462,0.1170478 -1.34e-4,-0.043896 -0.09594,-0.078236 -0.130462,-0.1170478 z m 4.0355136,1.3637043 c 0.1964221,0.1712632 0.2759924,0.4192984 0.3867114,0.6468672 0.1647421,0.086498 0.067223,0.2187818 0.090168,0.3299377 C 7.3874389,4.5256352 6.9257697,4.4186746 6.9817974,4.1995754 6.9443801,3.9451036 6.7809231,3.7752382 6.6474301,3.5912022 6.6369231,3.4937875 6.5324342,3.3826736 6.6811813,3.3480081 Z"
     style="fill:url(#linearGradient1341);fill-opacity:1;stroke-width:0.142851"
     id="path1308" />
</svg>
