<?xml version="1.0" encoding="UTF-8" standalone="no"?>
<!-- Created with Inkscape (http://www.inkscape.org/) -->

<svg
   width="16"
   height="16"
   viewBox="0 0 16 16"
   version="1.1"
   id="svg5"
   inkscape:version="1.2.1 (9c6d41e410, 2022-07-14, custom)"
   sodipodi:docname="user-trash.svg"
   xmlns:inkscape="http://www.inkscape.org/namespaces/inkscape"
   xmlns:sodipodi="http://sodipodi.sourceforge.net/DTD/sodipodi-0.dtd"
   xmlns:xlink="http://www.w3.org/1999/xlink"
   xmlns="http://www.w3.org/2000/svg"
   xmlns:svg="http://www.w3.org/2000/svg">
  <sodipodi:namedview
     id="namedview7"
     pagecolor="#ffffff"
     bordercolor="#666666"
     borderopacity="1.0"
     inkscape:pageshadow="2"
     inkscape:pageopacity="0.0"
     inkscape:pagecheckerboard="0"
     inkscape:document-units="px"
     showgrid="false"
     units="px"
     height="64px"
     inkscape:zoom="51.6875"
     inkscape:cx="7.9903265"
     inkscape:cy="8"
     inkscape:window-width="1920"
     inkscape:window-height="1029"
     inkscape:window-x="0"
     inkscape:window-y="0"
     inkscape:window-maximized="1"
     inkscape:current-layer="svg5"
     inkscape:showpageshadow="2"
     inkscape:deskcolor="#d1d1d1" />
  <defs
     id="defs2">
    <linearGradient
       inkscape:collect="always"
       xlink:href="#linearGradient60807"
       id="linearGradient43497"
       x1="5.0269842"
       y1="1.0583125"
       x2="1.4788554"
       y2="1.415241"
       gradientUnits="userSpaceOnUse"
       gradientTransform="matrix(0.94490397,0,0,0.94490397,-5.3e-6,6.28e-5)" />
    <linearGradient
       inkscape:collect="always"
       id="linearGradient60807">
      <stop
         style="stop-color:#b7bfc7;stop-opacity:0.02526831"
         offset="0"
         id="stop60801" />
      <stop
         style="stop-color:#b6bfc6;stop-opacity:0"
         offset="0.36555651"
         id="stop61639" />
      <stop
         style="stop-color:#b6bfc5;stop-opacity:1"
         offset="0.48513398"
         id="stop60809" />
      <stop
         style="stop-color:#b6bfc5;stop-opacity:0"
         offset="0.73108482"
         id="stop60803" />
      <stop
         style="stop-color:#b6bfc5;stop-opacity:1"
         offset="1"
         id="stop60805" />
    </linearGradient>
    <linearGradient
       inkscape:collect="always"
       xlink:href="#linearGradient60807"
       id="linearGradient59848"
       gradientUnits="userSpaceOnUse"
       x1="5.0269852"
       y1="1.0582422"
       x2="1.8391933"
       y2="1.3265172"
       gradientTransform="matrix(-0.94490397,0,0,0.94490397,16.000055,1.2924e-4)" />
    <linearGradient
       inkscape:collect="always"
       xlink:href="#linearGradient18900"
       id="linearGradient113015"
       gradientUnits="userSpaceOnUse"
       x1="9.3394947"
       y1="4.2414846"
       x2="9.3713646"
       y2="15.277747"
       gradientTransform="matrix(0.94490397,0,0,0.94490397,-5.3e-6,1.2924e-4)" />
    <linearGradient
       inkscape:collect="always"
       id="linearGradient18900">
      <stop
         style="stop-color:#ffffff;stop-opacity:0.80000001"
         offset="0"
         id="stop18896" />
      <stop
         style="stop-color:#ffffff;stop-opacity:0.58473009"
         offset="0.70040143"
         id="stop94701" />
      <stop
         style="stop-color:#ffffff;stop-opacity:0.08762626"
         offset="0.89186656"
         id="stop23845" />
      <stop
         style="stop-color:#fcfcfc;stop-opacity:0.49152461"
         offset="1"
         id="stop18898" />
    </linearGradient>
    <linearGradient
       inkscape:collect="always"
       xlink:href="#linearGradient91628"
       id="linearGradient91630"
       x1="3.1274393"
       y1="9.5520172"
       x2="5.8981671"
       y2="9.1497135"
       gradientUnits="userSpaceOnUse"
       gradientTransform="matrix(0.94490397,0,0,0.94490397,-5.3e-6,6.28e-5)" />
    <linearGradient
       inkscape:collect="always"
       id="linearGradient91628">
      <stop
         style="stop-color:#cccccc;stop-opacity:1"
         offset="0"
         id="stop91624" />
      <stop
         style="stop-color:#cccccc;stop-opacity:0"
         offset="0.1152868"
         id="stop92528" />
      <stop
         style="stop-color:#cccccc;stop-opacity:0"
         offset="1"
         id="stop91626" />
    </linearGradient>
    <linearGradient
       inkscape:collect="always"
       xlink:href="#linearGradient91628"
       id="linearGradient94280"
       gradientUnits="userSpaceOnUse"
       x1="3.1274393"
       y1="9.5520172"
       x2="5.8981671"
       y2="9.1497135"
       gradientTransform="matrix(-0.94490397,0,0,0.94490397,16.000056,6.28e-5)" />
    <linearGradient
       inkscape:collect="always"
       id="linearGradient122406">
      <stop
         style="stop-color:#ffffff;stop-opacity:1;"
         offset="0"
         id="stop122402" />
      <stop
         style="stop-color:#ffffff;stop-opacity:0.60000002"
         offset="0.5"
         id="stop123180" />
      <stop
         style="stop-color:#ffffff;stop-opacity:1"
         offset="1"
         id="stop122404" />
    </linearGradient>
    <linearGradient
       inkscape:collect="always"
       xlink:href="#linearGradient122406"
       id="linearGradient1174"
       x1="6.1417325e-08"
       y1="5.3242188"
       x2="32"
       y2="5.3242188"
       gradientUnits="userSpaceOnUse"
       gradientTransform="matrix(0.50000436,0,0,0.50000436,-1.73e-5,-8.68e-6)" />
  </defs>
  <path
     style="color:#000000;fill:#c9d1d7;fill-opacity:0.501961;stroke:none;stroke-width:0.944905;stroke-linecap:round;stroke-linejoin:round;-inkscape-stroke:none"
     d="m 3.249511,1.0000663 c -0.065885,5.449e-4 -0.1288943,0.027073 -0.1753262,0.07382 L 2.0739169,2.3236325 c -0.055023,0.0546 -0.081612,0.1316308 -0.071974,0.2085433 L 3.5023477,14.03343 c 0.017008,0.123595 0.122541,0.215729 0.2472967,0.215926 H 12.25025 c 0.125463,7.3e-4 0.232035,-0.09164 0.249145,-0.215926 L 13.997953,2.5321758 c 0.01009,-0.076617 -0.0158,-0.1536032 -0.07013,-0.2085433 L 12.927556,1.0738872 c -0.04689,-0.047197 -0.110647,-0.073764 -0.177171,-0.07382 z"
     id="path8844"
     sodipodi:nodetypes="ccccccccccccc" />
  <path
     id="path8844-8"
     style="color:#000000;fill:#8e8e8e;fill-opacity:0.253914;stroke:none;stroke-width:0.944905;stroke-linecap:round;stroke-linejoin:round;-inkscape-stroke:none"
     d="M 3.249511,1.0000663 C 3.183626,1.0006112 3.1206469,1.0270523 3.074215,1.0737983 L 2.7230069,1.5000044 H 13.278598 L 12.92728,1.0737972 c -0.04689,-0.047197 -0.11023,-0.073675 -0.176758,-0.073732 z"
     sodipodi:nodetypes="ccccccc" />
  <path
     style="color:#000000;opacity:0.5;fill:url(#linearGradient43497);fill-opacity:1;stroke:none;stroke-width:0.944905;stroke-linecap:round;stroke-linejoin:round;-inkscape-stroke:none"
     d="M 3.2495103,1 C 3.1836253,1.0005448 3.1206197,1.027073 3.074184,1.0738205 L 2.0739165,2.323567 c -0.055023,0.0546 -0.081612,0.1316307 -0.071974,0.2085433 L 3.5023477,14.033364 4.5000112,13.00011 h 0.249999 V 1.0000663 Z"
     id="path8844-3"
     sodipodi:nodetypes="ccccccccc" />
  <path
     style="color:#000000;opacity:0.5;fill:url(#linearGradient59848);fill-opacity:1;stroke:none;stroke-width:0.944905;stroke-linecap:round;stroke-linejoin:round;-inkscape-stroke:none"
     d="m 12.750538,1.0000663 c 0.06588,5.449e-4 0.128894,0.027073 0.175322,0.07382 l 1.000271,1.2497469 c 0.05502,0.054599 0.08161,0.1316307 0.07197,0.2085433 l -1.500402,11.5012535 -0.997664,-1.033254 -0.25,-6.6e-5 V 1.0000663 Z"
     id="path8844-3-9"
     sodipodi:nodetypes="ccccccccc" />
  <path
     id="rect849"
     style="fill:#9ba1a6;fill-opacity:1;stroke-width:0.250001"
     d="m 12.50004,14.000115 v 0.749886 C 12.50004,14.8885 12.38854,15 12.250038,15 H 3.7500084 C 3.6115101,15 3.5000093,14.8885 3.5000093,14.750001 V 14.000115 L 4.5000112,13.00011 h 7.0000248 z"
     sodipodi:nodetypes="csssscccc" />
  <path
     id="rect2730-7"
     style="opacity:0.8;fill:url(#linearGradient113015);fill-opacity:1;stroke-width:0.261474"
     d="m 2.0737325,2.3238019 c -0.047706,0.031215 -0.067567,0.072787 -0.073732,0.1762711 L 3.5000063,14.000116 H 12.500038 L 14.000043,2.5000721 c -0.0062,-0.1034825 -0.02604,-0.1450539 -0.07373,-0.1762712 0.04136,0.08429 0.0098,0.1702598 -0.126465,0.1762712 H 2.2001981 C 2.0639033,2.4940626 2.0323742,2.4080927 2.0737325,2.3238019 Z"
     sodipodi:nodetypes="ccccccccc" />
  <path
     id="rect2730-0"
     style="opacity:0.4;fill:url(#linearGradient91630);fill-opacity:1;stroke-width:0.261474"
     d="m 2.0737325,2.3238019 c -0.047706,0.031215 -0.067567,0.072789 -0.073732,0.1762711 L 3.5000074,14.000115 H 12.500042 L 14.000047,2.5000721 c -0.0061,-0.1034825 -0.02604,-0.1450539 -0.07373,-0.1762712 0.04136,0.08429 0.0098,0.1702598 -0.126468,0.1762712 H 2.2001984 C 2.0639037,2.4940626 2.0323708,2.4080927 2.0737325,2.3238019 Z" />
  <path
     id="rect2730-0-1"
     style="opacity:0.4;fill:url(#linearGradient94280);fill-opacity:1;stroke-width:0.261474"
     d="M 2.0737317,2.3238019 C 2.0260261,2.3550209 2.0061645,2.3965889 2,2.500073 L 3.5000067,14.000115 H 12.500042 L 14.000047,2.5000728 c -0.0061,-0.1034825 -0.02604,-0.1450538 -0.07373,-0.1762711 0.04136,0.084286 0.0098,0.1702597 -0.126468,0.1762711 H 2.2001977 C 2.063903,2.4940255 2.0323701,2.4080953 2.0737317,2.3238019 Z" />
  <path
     d="m 7.2269036,4.7500813 c -0.3236702,0 -0.5886541,0.153881 -0.7506547,0.4355482 L 5.9846838,6.1726927 7.3796337,6.9434868 8.0872971,5.5806673 8.5000262,4.7500813 Z"
     style="fill:#0068ba;fill-opacity:1;stroke-width:0.088193"
     id="path138735"
     sodipodi:nodetypes="scccccs" />
  <path
     d="M 7.5000225,4.7500813 8.6429238,6.7969638 8.0713076,7.1211836 9.891615,7.7837212 10.617893,5.7729932 10.055393,6.1056765 9.4593391,4.972739 C 9.3736686,4.8274039 9.2283849,4.7500805 9.0407184,4.7500805 Z"
     style="fill:#0091e6;fill-opacity:1;stroke-width:0.088193"
     id="path142126"
     sodipodi:nodetypes="cccccccsc" />
  <path
     d="M 11.41794,8.8819863 10.891336,7.9131633 9.4598278,8.6137301 10.170285,9.9750949 10.62774,10.974911 11.411369,9.3136075 c 0.0945,-0.2015752 0.0583,-0.3394914 0.0066,-0.4316212 z"
     style="fill:#0068ba;fill-opacity:1;stroke-width:0.088193"
     id="path138735-0"
     sodipodi:nodetypes="ccccccc" />
  <path
     d="m 11.247536,9.6598489 -2.018611,-0.00265 0.00503,-0.657145 -1.4344898,1.4141101 1.432998,1.465394 -0.00688,-0.653481 h 1.0000048 c 0.168697,-0.0015 0.30758,-0.0891 0.402137,-0.251209 z"
     style="fill:#0091e6;fill-opacity:1;stroke-width:0.088193"
     id="path142126-6"
     sodipodi:nodetypes="ccccccccc" />
  <path
     d="m 5.4592674,10.941923 c 0.1314002,0.218391 0.2685227,0.229121 0.3828801,0.24306 l 1.4078741,1.24e-4 V 9.5011883 l -1.7893943,0.00161 -0.7905567,0.00994 z"
     style="fill:#0068ba;fill-opacity:1;stroke-width:0.088193"
     id="path146733"
     sodipodi:nodetypes="ccccccc" />
  <path
     d="M 5.4021813,10.837737 6.4758248,8.780267 7.0563985,9.0881609 6.4158878,7.1970571 4.4543825,7.7914984 5.0371967,8.0871568 4.5754463,8.9741709 c -0.076544,0.1503434 -0.05551,0.3094931 0.037153,0.472696 z"
     style="fill:#0091e6;fill-opacity:1;stroke-width:0.088193"
     id="path146730"
     sodipodi:nodetypes="cccccccsc" />
  <path
     id="rect2730-0-1-5"
     style="opacity:0.4;fill:url(#linearGradient1174);fill-opacity:1;stroke-width:0.261474"
     d="m 2.07422,2.3242303 c -0.047709,0.031219 -0.068058,0.072299 -0.074219,0.1757828 l 0.04492,0.3476591 c 0.00816,-0.00882 0.018406,-0.016309 0.029292,-0.023437 -0.04136,0.084293 -0.010318,0.1697355 0.1259766,0.1757828 H 13.799908 c 0.136291,-0.00601 0.167343,-0.091497 0.125976,-0.1757828 0.01092,0.00715 0.02113,0.014574 0.02929,0.023437 l 0.04492,-0.3476591 c -0.006,-0.1034824 -0.02653,-0.1445655 -0.07422,-0.1757828 0.04137,0.084286 0.01032,0.1697715 -0.125976,0.1757828 H 2.2001977 C 2.063903,2.4939658 2.0328614,2.408524 2.07422,2.3242303 Z" />
</svg>
