<?xml version="1.0" encoding="UTF-8" standalone="no"?>
<!-- Created with Inkscape (http://www.inkscape.org/) -->

<svg
   width="64"
   height="64"
   viewBox="0 0 64 64"
   version="1.1"
   id="svg5"
   inkscape:version="1.2.1 (9c6d41e410, 2022-07-14, custom)"
   sodipodi:docname="application-x-msi.svg"
   xmlns:inkscape="http://www.inkscape.org/namespaces/inkscape"
   xmlns:sodipodi="http://sodipodi.sourceforge.net/DTD/sodipodi-0.dtd"
   xmlns:xlink="http://www.w3.org/1999/xlink"
   xmlns="http://www.w3.org/2000/svg"
   xmlns:svg="http://www.w3.org/2000/svg">
  <sodipodi:namedview
     id="namedview7"
     pagecolor="#ffffff"
     bordercolor="#666666"
     borderopacity="1.0"
     inkscape:pageshadow="2"
     inkscape:pageopacity="0.0"
     inkscape:pagecheckerboard="0"
     inkscape:document-units="px"
     showgrid="false"
     units="px"
     inkscape:zoom="12.921875"
     inkscape:cx="27.395405"
     inkscape:cy="32"
     inkscape:window-width="1920"
     inkscape:window-height="1029"
     inkscape:window-x="0"
     inkscape:window-y="0"
     inkscape:window-maximized="1"
     inkscape:current-layer="svg5"
     showguides="true"
     inkscape:showpageshadow="2"
     inkscape:deskcolor="#d1d1d1" />
  <defs
     id="defs2">
    <linearGradient
       inkscape:collect="always"
       id="linearGradient16450">
      <stop
         style="stop-color:#6fef7e;stop-opacity:0"
         offset="0"
         id="stop16446" />
      <stop
         style="stop-color:#6fef7e;stop-opacity:0"
         offset="0.44792882"
         id="stop17132" />
      <stop
         style="stop-color:#6fef7e;stop-opacity:1"
         offset="0.5"
         id="stop16680" />
      <stop
         style="stop-color:#6fef7e;stop-opacity:0"
         offset="0.55000001"
         id="stop16938" />
      <stop
         style="stop-color:#6fef7e;stop-opacity:0;"
         offset="1"
         id="stop16448" />
    </linearGradient>
    <linearGradient
       inkscape:collect="always"
       id="linearGradient11941">
      <stop
         style="stop-color:#f89af4;stop-opacity:0"
         offset="0"
         id="stop11937" />
      <stop
         style="stop-color:#f89af4;stop-opacity:0"
         offset="0.40000001"
         id="stop12523" />
      <stop
         style="stop-color:#f89af4;stop-opacity:1"
         offset="0.5"
         id="stop12201" />
      <stop
         style="stop-color:#f89af4;stop-opacity:0"
         offset="0.60000002"
         id="stop12781" />
      <stop
         style="stop-color:#f89af4;stop-opacity:0;"
         offset="1"
         id="stop11939" />
    </linearGradient>
    <linearGradient
       inkscape:collect="always"
       id="linearGradient7820">
      <stop
         style="stop-color:#858585;stop-opacity:1"
         offset="0"
         id="stop7816" />
      <stop
         style="stop-color:#ffffff;stop-opacity:1"
         offset="0.5"
         id="stop8592" />
      <stop
         style="stop-color:#868686;stop-opacity:1"
         offset="1"
         id="stop7818" />
    </linearGradient>
    <linearGradient
       inkscape:collect="always"
       id="linearGradient6804">
      <stop
         style="stop-color:#ffffff;stop-opacity:1;"
         offset="0"
         id="stop6800" />
      <stop
         style="stop-color:#ffffff;stop-opacity:0;"
         offset="1"
         id="stop6802" />
    </linearGradient>
    <linearGradient
       inkscape:collect="always"
       id="linearGradient2496">
      <stop
         style="stop-color:#ffffff;stop-opacity:0.5"
         offset="0"
         id="stop2492" />
      <stop
         style="stop-color:#ffffff;stop-opacity:0"
         offset="0.44999999"
         id="stop3080" />
      <stop
         style="stop-color:#ffffff;stop-opacity:1"
         offset="0.5"
         id="stop2756" />
      <stop
         style="stop-color:#ffffff;stop-opacity:0"
         offset="0.55000001"
         id="stop3014" />
      <stop
         style="stop-color:#ffffff;stop-opacity:0.2"
         offset="1"
         id="stop2494" />
    </linearGradient>
    <linearGradient
       inkscape:collect="always"
       id="linearGradient2986">
      <stop
         style="stop-color:#818990;stop-opacity:1;"
         offset="0"
         id="stop2982" />
      <stop
         style="stop-color:#9fa8b0;stop-opacity:1"
         offset="1"
         id="stop2984" />
    </linearGradient>
    <linearGradient
       inkscape:collect="always"
       id="linearGradient2301">
      <stop
         style="stop-color:#3fe3e7;stop-opacity:1;"
         offset="0"
         id="stop2297" />
      <stop
         style="stop-color:#066bbc;stop-opacity:1"
         offset="1"
         id="stop2299" />
    </linearGradient>
    <linearGradient
       inkscape:collect="always"
       id="linearGradient1116">
      <stop
         style="stop-color:#555a5f;stop-opacity:1;"
         offset="0"
         id="stop1112" />
      <stop
         style="stop-color:#4b4f53;stop-opacity:1"
         offset="1"
         id="stop1114" />
    </linearGradient>
    <linearGradient
       inkscape:collect="always"
       xlink:href="#linearGradient1116"
       id="linearGradient1118"
       x1="1.0583334"
       y1="7.276042"
       x2="15.875"
       y2="7.276042"
       gradientUnits="userSpaceOnUse"
       gradientTransform="matrix(3.7795276,0,0,3.6826165,-2.999997e-8,1.2051275)" />
    <linearGradient
       inkscape:collect="always"
       xlink:href="#linearGradient2301"
       id="linearGradient2303"
       x1="1.3229166"
       y1="2.6458333"
       x2="15.610417"
       y2="12.170833"
       gradientUnits="userSpaceOnUse"
       gradientTransform="scale(3.7795276)" />
    <linearGradient
       inkscape:collect="always"
       xlink:href="#linearGradient2986"
       id="linearGradient2988"
       x1="0.092813492"
       y1="10.202362"
       x2="0.092813492"
       y2="13.470933"
       gradientUnits="userSpaceOnUse"
       gradientTransform="matrix(2.3651879,0,0,2.4475531,35.780479,19.029177)" />
    <linearGradient
       inkscape:collect="always"
       xlink:href="#linearGradient162116"
       id="linearGradient162118"
       x1="96.408417"
       y1="238.0069"
       x2="127.77626"
       y2="238.0069"
       gradientUnits="userSpaceOnUse"
       gradientTransform="matrix(1.0201529,0,0,0.98431651,-97.35131,-194.27413)" />
    <linearGradient
       inkscape:collect="always"
       id="linearGradient162116">
      <stop
         style="stop-color:#e3edee;stop-opacity:1;"
         offset="0"
         id="stop162112" />
      <stop
         style="stop-color:#c9cdce;stop-opacity:1"
         offset="1"
         id="stop162114" />
    </linearGradient>
    <linearGradient
       inkscape:collect="always"
       xlink:href="#linearGradient219586"
       id="linearGradient219588"
       x1="112.09232"
       y1="238.0069"
       x2="112.17286"
       y2="254.33937"
       gradientUnits="userSpaceOnUse"
       gradientTransform="matrix(1.0201529,0,0,0.98431655,-97.351307,-194.27413)" />
    <linearGradient
       inkscape:collect="always"
       id="linearGradient219586">
      <stop
         style="stop-color:#b9bfbf;stop-opacity:1;"
         offset="0"
         id="stop219582" />
      <stop
         style="stop-color:#aaacab;stop-opacity:1"
         offset="1"
         id="stop219584" />
    </linearGradient>
    <linearGradient
       inkscape:collect="always"
       xlink:href="#linearGradient219586"
       id="linearGradient1701"
       gradientUnits="userSpaceOnUse"
       gradientTransform="matrix(1.0201529,0,0,0.98431655,-97.351307,-194.27413)"
       x1="112.09232"
       y1="238.0069"
       x2="112.17286"
       y2="254.33937" />
    <linearGradient
       inkscape:collect="always"
       xlink:href="#linearGradient2496"
       id="linearGradient2498"
       x1="16.424316"
       y1="54.63533"
       x2="32.331596"
       y2="38.452602"
       gradientUnits="userSpaceOnUse" />
    <linearGradient
       inkscape:collect="always"
       xlink:href="#linearGradient6804"
       id="linearGradient6808"
       x1="2.3812499"
       y1="8.4666672"
       x2="6.6145835"
       y2="12.700001"
       gradientUnits="userSpaceOnUse"
       gradientTransform="scale(3.7795276)" />
    <linearGradient
       inkscape:collect="always"
       xlink:href="#linearGradient7820"
       id="linearGradient7822"
       x1="14.532227"
       y1="42.393677"
       x2="19.540161"
       y2="37.501221"
       gradientUnits="userSpaceOnUse" />
    <linearGradient
       inkscape:collect="always"
       xlink:href="#linearGradient7820"
       id="linearGradient10226"
       gradientUnits="userSpaceOnUse"
       x1="14.532227"
       y1="42.393677"
       x2="19.540161"
       y2="37.501221"
       gradientTransform="matrix(2.0000002,0,0,2.0000002,-17.000001,-40.000004)" />
    <linearGradient
       inkscape:collect="always"
       xlink:href="#linearGradient11941"
       id="linearGradient11943"
       x1="5.1081543"
       y1="42.191895"
       x2="7.4692383"
       y2="33.279785"
       gradientUnits="userSpaceOnUse" />
    <linearGradient
       inkscape:collect="always"
       xlink:href="#linearGradient16450"
       id="linearGradient16452"
       x1="17.605227"
       y1="29.40974"
       x2="27.150551"
       y2="39.243584"
       gradientUnits="userSpaceOnUse" />
  </defs>
  <path
     id="rect958"
     style="fill:#bcc5cf;stroke-width:5.00001;stroke-linecap:round;stroke-linejoin:round"
     d="m 21.000001,51.000003 h 21.999998 l 3,3 H 18 Z"
     sodipodi:nodetypes="ccccc" />
  <rect
     style="fill:url(#linearGradient2988);fill-opacity:1;stroke-width:3.18297;stroke-linecap:round;stroke-linejoin:round"
     id="rect2848"
     width="8.000001"
     height="8.000001"
     x="28"
     y="43.999996" />
  <path
     id="rect1418"
     style="fill:#b8c2cc;stroke-width:5.00001;stroke-linecap:round;stroke-linejoin:round"
     d="M 8.0000001,8 H 56.000002 C 58.384124,8 60,9.5850586 60,12 V 24.999999 H 4.0000003 V 12 c 0,-2.6211089 1.4479014,-4 3.9999998,-4 z"
     sodipodi:nodetypes="sssccss" />
  <path
     id="rect846"
     style="fill:url(#linearGradient1118);stroke-width:4.9355;stroke-linecap:round;stroke-linejoin:round"
     d="M 7.0000003,8.9999991 H 57 c 1.662002,0 3,1.3379999 3,2.9999999 v 32.000002 c 0,1.661998 -1.337998,3 -3,3 H 7.0000003 c -1.662,0 -3,-1.338002 -3,-3 V 11.999999 c 0,-1.662 1.338,-2.9999999 3,-2.9999999 z" />
  <rect
     style="fill:#44484c;fill-opacity:1;stroke-width:5.00001;stroke-linecap:round;stroke-linejoin:round"
     id="rect1839"
     width="28"
     height="2.0000002"
     x="18"
     y="54.000004" />
  <path
     id="rect2053"
     style="fill:url(#linearGradient2303);stroke-width:5.00001;stroke-linecap:round;stroke-linejoin:round"
     d="M 6.9999999,9.9999994 H 57 c 1.108003,0 2.000002,0.8919996 2.000002,2.0000006 v 31.999997 c 0,1.108002 -0.891999,2.000001 -2.000002,2.000001 H 6.9999999 c -1.1079999,0 -2.0000001,-0.891999 -2.0000001,-2.000001 V 12 c 0,-1.108001 0.8920002,-2.0000006 2.0000001,-2.0000006 z" />
  <path
     id="path6272"
     style="opacity:0.4;fill:url(#linearGradient6808);fill-opacity:1;stroke-width:2;stroke-linecap:round;stroke-linejoin:round"
     d="m 17.000001,32 a 8.0000006,8.0000006 0 0 0 -8.0000008,8 8.0000006,8.0000006 0 0 0 8.0000008,8.000001 8.0000006,8.0000006 0 0 0 8,-8.000001 8.0000006,8.0000006 0 0 0 -8,-8 z m 0,6 a 2.0000002,2.0000002 0 0 1 2,2 2.0000002,2.0000002 0 0 1 -2,2 2.0000002,2.0000002 0 0 1 -2,-2 2.0000002,2.0000002 0 0 1 2,-2 z" />
  <path
     id="path9538"
     style="opacity:1;fill:#d0d0d0;fill-opacity:1;stroke-width:2;stroke-linecap:round;stroke-linejoin:round"
     d="M 17.000001,33 A 7.0000002,7.0000002 0 0 0 10,40 a 7.0000002,7.0000002 0 0 0 7.000001,7 7.0000002,7.0000002 0 0 0 7,-7 7.0000002,7.0000002 0 0 0 -7,-7 z m 0,1.5 a 5.4999999,5.4999999 0 0 1 5.5,5.5 5.4999999,5.4999999 0 0 1 -5.5,5.5 5.4999999,5.4999999 0 0 1 -5.5,-5.5 5.4999999,5.4999999 0 0 1 5.5,-5.5 z" />
  <path
     id="path151229"
     style="fill:url(#linearGradient162118);fill-opacity:1;stroke-width:1.32567;stroke-linecap:round;stroke-linejoin:round"
     d="M 17.000001,24 A 16.000001,16.000001 0 0 0 1,40.000002 a 16.000001,16.000001 0 0 0 16.000001,15.999999 16.000001,16.000001 0 0 0 16,-15.999999 16.000001,16.000001 0 0 0 -16,-16.000002 z m 0,10 a 6,6 0 0 1 6,6.000002 6,6 0 0 1 -6,6 A 6,6 0 0 1 11,40.000002 6,6 0 0 1 17.000001,34 Z" />
  <path
     id="path151229-3"
     style="fill:url(#linearGradient219588);fill-opacity:1;stroke-width:1.32567;stroke-linecap:round;stroke-linejoin:round"
     d="M 22.986329,40.374999 A 6,6 0 0 1 17.000001,46.000002 6,6 0 0 1 12.76172,44.238281 L 5.6953126,51.30469 A 16.000001,16.000001 0 0 0 17.000001,56.000001 16.000001,16.000001 0 0 0 32.962892,40.998047 Z" />
  <path
     id="path151229-3-3"
     style="fill:url(#linearGradient1701);fill-opacity:1;stroke-width:1.32567;stroke-linecap:round;stroke-linejoin:round"
     d="M 22.986329,40.374999 A 6,6 0 0 1 17.000001,46.000002 6,6 0 0 1 12.76172,44.238281 L 5.6953126,51.30469 A 16.000001,16.000001 0 0 0 17.000001,56.000001 16.000001,16.000001 0 0 0 32.962893,40.998047 Z" />
  <path
     id="rect2336"
     style="opacity:0.5;fill:url(#linearGradient2498);fill-opacity:1;stroke-width:2;stroke-linecap:round;stroke-linejoin:round"
     d="M 13.123048,24.490234 A 16.000001,16.000001 0 0 0 1.2851562,37.052734 L 11.013673,39 l 0.0957,0.01563 a 6.0000001,6.0000001 0 0 1 4.441406,-4.814453 z m 9.767578,16.494141 a 6.0000003,6.0000003 0 0 1 -4.441406,4.814453 l 2.427734,9.710939 A 16.000001,16.000001 0 0 0 32.714845,42.947266 L 22.986329,41 Z" />
  <path
     id="path7246"
     style="opacity:0.5;fill:url(#linearGradient7822);fill-opacity:1;stroke-width:2.5;stroke-linecap:round;stroke-linejoin:round"
     d="m 17.000001,37.5 a 2.5,2.5 0 0 0 -2.5,2.5 2.5,2.5 0 0 0 2.5,2.5 2.5,2.5 0 0 0 2.5,-2.5 2.5,2.5 0 0 0 -2.5,-2.5 z m 0,0.5 a 2.0000002,2.0000002 0 0 1 2,2 2.0000002,2.0000002 0 0 1 -2,2 2.0000002,2.0000002 0 0 1 -2,-2 2.0000002,2.0000002 0 0 1 2,-2 z" />
  <path
     id="path7246-2"
     style="opacity:0.5;fill:url(#linearGradient10226);fill-opacity:1;stroke-width:4.99997;stroke-linecap:round;stroke-linejoin:round"
     d="m 17.000001,35 a 4.9999998,4.9999998 0 0 0 -5,5 4.9999998,4.9999998 0 0 0 5,5 4.9999998,4.9999998 0 0 0 5,-5 4.9999998,4.9999998 0 0 0 -5,-5 z m 0,0.5 a 4.4999997,4.4999997 0 0 1 4.5,4.5 4.4999997,4.4999997 0 0 1 -4.5,4.5 4.4999997,4.4999997 0 0 1 -4.5,-4.5 4.4999997,4.4999997 0 0 1 4.5,-4.5 z" />
  <path
     id="path151229-7"
     style="opacity:0.5;fill:url(#linearGradient11943);fill-opacity:1;stroke-width:1.32567;stroke-linecap:round;stroke-linejoin:round"
     d="M 2.8671876,32.517578 C 1.6440323,34.822174 1.0030177,37.390927 1,40 c 0.00302,2.609073 0.6440323,5.177826 1.8671876,7.482423 L 11.705079,42.802734 C 11.245201,41.939893 11.003153,40.977738 11.000001,40 c 0.0032,-0.977738 0.2452,-1.939893 0.705078,-2.802734 z"
     sodipodi:nodetypes="ccccccc" />
  <path
     id="path151229-1"
     style="opacity:0.5;fill:url(#linearGradient16452);fill-opacity:1;stroke-width:1.32567;stroke-linecap:round;stroke-linejoin:round"
     d="m 21.771485,24.728516 -2.982422,9.544922 a 6.0000001,6.0000001 0 0 1 3.828126,3.61914 L 31.98047,34.382812 A 16.000001,16.000001 0 0 0 21.771485,24.728516 Z" />
  <path
     id="path151229-2"
     style="fill:#d0d0d0;fill-opacity:1;stroke-width:1.32567;stroke-linecap:round;stroke-linejoin:round"
     d="M 17.000001,24 A 16.000001,16.000001 0 0 0 1,40 16.000001,16.000001 0 0 0 17.000001,56.000001 16.000001,16.000001 0 0 0 33.000001,40 a 16.000001,16.000001 0 0 0 -16,-16 z m 0,0.5 a 15.500001,15.500001 0 0 1 15.5,15.5 15.500001,15.500001 0 0 1 -15.5,15.500001 A 15.500001,15.500001 0 0 1 1.5,40 15.500001,15.500001 0 0 1 17.000001,24.5 Z" />
</svg>
