<?xml version="1.0" encoding="UTF-8" standalone="no"?>
<!-- Created with Inkscape (http://www.inkscape.org/) -->

<svg
   width="64"
   height="64"
   viewBox="0 0 64 64"
   version="1.1"
   id="svg5"
   inkscape:version="1.2.1 (9c6d41e410, 2022-07-14, custom)"
   sodipodi:docname="application-x-ms-dos-executable.svg"
   xmlns:inkscape="http://www.inkscape.org/namespaces/inkscape"
   xmlns:sodipodi="http://sodipodi.sourceforge.net/DTD/sodipodi-0.dtd"
   xmlns:xlink="http://www.w3.org/1999/xlink"
   xmlns="http://www.w3.org/2000/svg"
   xmlns:svg="http://www.w3.org/2000/svg">
  <sodipodi:namedview
     id="namedview7"
     pagecolor="#ffffff"
     bordercolor="#666666"
     borderopacity="1.0"
     inkscape:pageshadow="2"
     inkscape:pageopacity="0.0"
     inkscape:pagecheckerboard="0"
     inkscape:document-units="px"
     showgrid="false"
     units="px"
     height="64px"
     inkscape:zoom="12.921875"
     inkscape:cx="31.961306"
     inkscape:cy="32"
     inkscape:window-width="1920"
     inkscape:window-height="1029"
     inkscape:window-x="0"
     inkscape:window-y="0"
     inkscape:window-maximized="1"
     inkscape:current-layer="svg5"
     inkscape:showpageshadow="2"
     inkscape:deskcolor="#d1d1d1" />
  <defs
     id="defs2">
    <linearGradient
       inkscape:collect="always"
       id="linearGradient1723">
      <stop
         style="stop-color:#1088d6;stop-opacity:1;"
         offset="0"
         id="stop1719" />
      <stop
         style="stop-color:#076cbe;stop-opacity:1"
         offset="1"
         id="stop1721" />
    </linearGradient>
    <linearGradient
       inkscape:collect="always"
       xlink:href="#linearGradient1723"
       id="linearGradient960"
       x1="16"
       y1="9"
       x2="16"
       y2="25.000002"
       gradientUnits="userSpaceOnUse"
       gradientTransform="matrix(2.1999998,0,0,2.0624998,-3.1999956,-0.56249779)" />
  </defs>
  <rect
     style="fill:#797774;fill-opacity:1;stroke-width:2;stroke-linecap:round"
     id="rect1086"
     width="60"
     height="46"
     x="1.999999"
     y="10"
     ry="4.0000005" />
  <path
     id="rect1066"
     style="fill:#c4c4c4;fill-opacity:1;stroke-width:3;stroke-linecap:round;stroke-linejoin:round"
     d="m 48,11 v 2 h 2 v -2 z m 4,0 v 2 h 2 v -2 z m 4,0 v 2 h 1.999998 v -2 z" />
  <rect
     style="fill:#fafafa;fill-opacity:1;stroke-width:1.47622;stroke-linecap:round"
     id="rect1738"
     width="58"
     height="41"
     x="3"
     y="14"
     ry="3" />
  <rect
     style="fill:url(#linearGradient960);fill-opacity:1;stroke-width:2.13014;stroke-linecap:round"
     id="rect398"
     width="22"
     height="33"
     x="21"
     y="18"
     ry="3" />
  <path
     id="rect845"
     style="fill:#bebebe;fill-opacity:1;stroke-width:3.28634;stroke-linecap:round;stroke-linejoin:round"
     d="m 6,18 v 1 h 12 v -1 z m 39.999998,0 v 1 h 12 V 18 Z M 6,22 v 1 h 12 v -1 z m 39.999998,0 v 1 h 12 V 22 Z M 6,26 v 1 h 12 v -1 z m 39.999998,0 v 1 h 12 V 26 Z M 6,30 v 1 h 12 v -1 z m 39.999998,0 v 1 h 12 V 30 Z M 6,34 v 1 h 12 v -1 z m 39.999998,0 v 1 h 12 V 34 Z M 6,38.000001 v 0.999998 h 12 v -0.999998 z m 39.999998,0 v 0.999998 h 12 V 38.000001 Z M 6,41.999999 v 0.999999 h 12 v -0.999999 z m 39.999998,0 v 0.999999 h 12 V 41.999999 Z M 6,45.999998 v 1.000003 h 12 v -1.000003 z m 39.999998,0 v 1.000003 h 12 v -1.000003 z" />
</svg>
