<?xml version="1.0" encoding="UTF-8" standalone="no"?>
<!-- Created with Inkscape (http://www.inkscape.org/) -->

<svg
   width="64"
   height="64"
   viewBox="0 0 64 64"
   version="1.1"
   id="svg5"
   inkscape:version="1.2.1 (9c6d41e410, 2022-07-14, custom)"
   sodipodi:docname="application-x-perl.svg"
   xmlns:inkscape="http://www.inkscape.org/namespaces/inkscape"
   xmlns:sodipodi="http://sodipodi.sourceforge.net/DTD/sodipodi-0.dtd"
   xmlns:xlink="http://www.w3.org/1999/xlink"
   xmlns="http://www.w3.org/2000/svg"
   xmlns:svg="http://www.w3.org/2000/svg">
  <sodipodi:namedview
     id="namedview7"
     pagecolor="#ffffff"
     bordercolor="#000000"
     borderopacity="0.25"
     inkscape:showpageshadow="2"
     inkscape:pageopacity="0.0"
     inkscape:pagecheckerboard="0"
     inkscape:deskcolor="#d1d1d1"
     inkscape:document-units="px"
     showgrid="false"
     inkscape:zoom="12.53125"
     inkscape:cx="32"
     inkscape:cy="32"
     inkscape:window-width="1920"
     inkscape:window-height="1011"
     inkscape:window-x="0"
     inkscape:window-y="0"
     inkscape:window-maximized="1"
     inkscape:current-layer="svg5"
     showguides="false" />
  <defs
     id="defs2">
    <linearGradient
       inkscape:collect="always"
       id="linearGradient3605">
      <stop
         style="stop-color:#0d6eaa;stop-opacity:1;"
         offset="0"
         id="stop3601" />
      <stop
         style="stop-color:#185086;stop-opacity:1"
         offset="1"
         id="stop3603" />
    </linearGradient>
    <linearGradient
       inkscape:collect="always"
       xlink:href="#linearGradient3605"
       id="linearGradient1706"
       x1="46.000046"
       y1="21"
       x2="46.000046"
       y2="52"
       gradientUnits="userSpaceOnUse"
       gradientTransform="translate(0,2)" />
  </defs>
  <path
     id="rect846"
     style="fill:#7d7d7b;stroke-width:2;stroke-linecap:round;stroke-linejoin:round"
     d="M 12,4 H 40.5 L 51.999999,15.5 V 60.000002 H 12 Z"
     sodipodi:nodetypes="cccccc" />
  <path
     id="rect1454"
     style="fill:#fafafa;stroke-width:2;stroke-linecap:round;stroke-linejoin:round"
     d="M 13,5 V 59 H 51 V 17 H 40 c -0.554003,0 -1,-0.446 -1,-1 V 5 Z m 27,0 v 11 h 11 z"
     sodipodi:nodetypes="ccccsscccccc" />
  <path
     d="m 36.181905,39.52275 c 0.27452,1.588293 0.4609,2.767764 0.55832,4.375906 0.027,1.001466 -0.27082,1.985468 -0.85051,2.810074 -0.13639,0.477847 -0.54535,0 -0.83754,0 -0.72077,0 -0.9869,-0.764713 -1.37657,-1.236252 -0.38955,-0.471537 -0.11056,-0.898456 0.14937,-1.274336 0.27922,-0.197519 0.38955,-0.63717 0.79218,-0.63717 0.40253,0 0.35063,-0.541619 0.2922,-0.828372 0.26613,-0.401456 0.10379,-0.571827 0.3636,-1.01148 0.46739,-0.203829 0.33111,-0.917501 0.49345,-1.318956 0.12985,-0.286752 0,-0.834795 0.37003,-0.955807 0,0 0.0451,0 0.0384,0.06313 m -0.44799,-16.363352 c -0.61033,-0.06975 -1.07129,0.337794 -1.58426,0.567196 -0.42574,0.139035 -0.85929,0.253885 -1.2985,0.343993 -0.31813,0.637278 -1.05188,1.01316 -1.44797,1.612133 -0.4053,1.190221 -1.15968,2.236495 -2.16853,3.007588 -1.44143,0.732829 -1.76813,2.325804 -2.24207,3.823233 -0.16234,0.337682 -0.13639,0.834796 -0.3117,1.121439 -0.57141,0.15932 -0.26625,-0.573396 -0.33112,-0.923923 -0.0846,-0.522466 0.38312,-0.86015 0.4155,-1.369995 0.19338,-0.362152 0.27463,-1.271494 0.23375,-1.678386 -0.0654,-0.91119 0.21424,-2.019897 -0.44144,-2.765456 -0.38967,-0.222981 -0.26625,-0.69452 -0.40907,-1.057778 -0.38729,-0.518817 -0.88041,-0.952807 -1.44798,-1.274337 -0.46739,-0.04428 -0.89597,-0.637278 -1.37645,-0.363256 -0.29862,0.344104 -0.85051,0.337681 -1.025824,0.796487 -0.110558,0.573508 -0.766124,0.420609 -1.194707,0.560774 -0.545347,0.21025 -1.647102,0 -2.09509,0.426922 -0.447987,0.426919 -1.181734,1.051354 -0.960957,1.771449 0.51297,0.987583 2.237914,0.490579 2.958688,1.089552 -0.227635,0.662731 -0.489862,1.813127 -0.785642,2.449411 -0.117824,0.864015 -0.135239,1.738373 -0.0519,2.606246 0.136388,0.86657 -0.09138,1.981699 0.649362,2.593404 0.42204,0.152899 0.396091,0.637168 0.558321,0.994005 0.162339,0.356837 0.474045,-0.127439 0.603897,0.216671 0.376572,0.203826 0.03835,0.637167 0.246725,0.892036 0.346487,0.06729 0.664997,0.233575 0.915487,0.477957 0.39907,0.27276 0.77081,0.582126 1.11021,0.923924 0.2597,0.522466 0.59093,-0.509736 0.87658,-0.121126 0.14614,0.354055 0.57469,0.503211 0.91549,0.318638 0.52864,-0.08746 1.02774,-0.299578 1.4544,-0.618124 0.27922,0.974961 0.0643,2.032739 0.18829,3.039476 0.17257,0.735149 -0.11934,1.483365 -0.0759,2.236567 0.19467,0.742167 0.30787,1.502646 0.33766,2.268452 0.21109,1.591219 -0.0646,3.208104 -0.79208,4.645185 -0.0868,0.450465 -0.44415,0.803755 -0.90252,0.892149 -0.32468,0.146475 -0.99987,0.407765 -0.77266,0.866571 0.75315,0.637168 1.94786,0.567086 2.81145,0.242135 0.5713,-0.274021 0.0778,-0.955808 0.37003,-1.369995 0.38313,-1.452811 0.19484,-3.007591 0.64925,-4.460403 0.35166,-0.732445 0.4845,-1.547727 0.38312,-2.351268 0.0914,-0.49069 -0.11687,-1.083241 0.20781,-1.484696 0.005,-0.4937 0.19174,-0.968972 0.52583,-1.338109 0.10582,-0.749614 0.16005,-1.505373 0.16234,-2.262141 0.45729,-0.140275 0.93885,-0.187968 1.41548,-0.140162 0,0.420608 -0.30516,0.904878 -0.21423,1.376415 0.0956,0.529713 -0.008,0.653194 -0.29219,1.11334 -0.20126,0.828373 -0.33766,1.847842 0.18829,2.548784 0.87002,0.936654 2.00629,1.599396 2.83086,2.599825 0.28017,0.221871 0.29818,0.634743 0.0384,0.879303 -0.15129,0.539733 -0.56437,0.971348 -1.10378,1.153325 -0.34409,0.133849 -0.89598,0.637168 -0.49345,0.987692 0.8102,0.179213 1.65598,0.123873 2.43476,-0.159318 0.53249,-0.191206 0.33766,-0.821955 0.54546,-1.217098 0.28672,0.382228 0.55117,0.780075 0.79207,1.191633 0.33123,0.484269 0.90252,0.08304 1.29862,-0.06975 0.0467,-0.708516 -0.099,-1.416508 -0.42203,-2.051772 -0.18175,-0.42061 -0.88955,-0.433343 -0.85706,-0.9495 0.35063,-1.274337 1.22066,-2.268341 1.90894,-3.345271 0.57129,-0.535201 0.14282,-1.331798 0.17532,-2.007165 -0.18209,-1.735899 0.24632,-3.058411 1.21411,-4.522381 0.20046,0.813198 0.45864,1.611636 0.77267,2.389465 0.22634,0.91198 0.63702,1.770056 1.20768,2.523319 0.26613,0.904879 0.19471,1.911617 0.37003,2.84827 0.25093,1.619667 0.1581,2.872957 -0.27267,4.455752 0.0451,0.579817 -0.51297,1.006737 -0.46096,1.573825 0.15579,0.522576 0.77909,0.101863 1.10377,0.32495 0.58626,0.178661 1.21718,-0.09289 1.48036,-0.637169 -0.13547,-0.442694 -0.22682,-0.897247 -0.27279,-1.357264 -0.44551,-1.34002 -0.54369,-2.368091 -0.28564,-3.7547 0.0519,-0.75187 0.51296,-1.66948 -0.0846,-2.313071 -0.16235,-0.688209 0.11687,-1.433656 -0.0519,-2.141019 -0.40037,-1.812239 -0.44665,-3.682582 -0.13641,-5.511758 0.1038,-0.254867 0,-0.726404 0.27922,-0.866571 0.2763,0.404839 0.40028,0.89149 0.35063,1.376309 0.25246,0.751454 0.28412,1.5575 0.0914,2.325801 -0.47394,0.592551 -0.18175,1.395461 -0.12331,2.064515 0.0778,0.471538 0.57783,0.13385 0.64924,-0.159321 0.43632,-0.797526 0.78876,-1.636573 1.05189,-2.504165 0.29862,-0.395032 0,-0.86026 0,-1.274448 0.46096,-0.05757 0.28565,-0.567085 0.0384,-0.790068 -0.24673,-0.815641 -0.18829,-1.758716 -0.74672,-2.453236 -0.88287,-0.895963 -1.61486,-1.924079 -2.16853,-3.04579 -0.59092,-1.828802 -2.27897,-3.045898 -2.85037,-4.893742 -0.21438,-1.072302 -0.86968,-2.010461 -1.81147,-2.593404 -0.41944,-0.188999 -0.85372,-0.344541 -1.29861,-0.465115 -0.37853,0.07751 -0.7629,0.124395 -1.14924,0.140163"
     style="fill:url(#linearGradient1706);fill-opacity:1"
     id="path724" />
</svg>
