<?xml version="1.0" encoding="UTF-8" standalone="no"?>
<!-- Created with Inkscape (http://www.inkscape.org/) -->

<svg
   width="64"
   height="64"
   viewBox="0 0 64 64"
   version="1.1"
   id="svg5"
   inkscape:version="1.2.1 (9c6d41e410, 2022-07-14, custom)"
   sodipodi:docname="application-json.svg"
   xmlns:inkscape="http://www.inkscape.org/namespaces/inkscape"
   xmlns:sodipodi="http://sodipodi.sourceforge.net/DTD/sodipodi-0.dtd"
   xmlns:xlink="http://www.w3.org/1999/xlink"
   xmlns="http://www.w3.org/2000/svg"
   xmlns:svg="http://www.w3.org/2000/svg">
  <sodipodi:namedview
     id="namedview7"
     pagecolor="#ffffff"
     bordercolor="#000000"
     borderopacity="0.25"
     inkscape:showpageshadow="2"
     inkscape:pageopacity="0.0"
     inkscape:pagecheckerboard="0"
     inkscape:deskcolor="#d1d1d1"
     inkscape:document-units="px"
     showgrid="false"
     inkscape:zoom="12.53125"
     inkscape:cx="32"
     inkscape:cy="32"
     inkscape:window-width="1920"
     inkscape:window-height="1011"
     inkscape:window-x="0"
     inkscape:window-y="0"
     inkscape:window-maximized="1"
     inkscape:current-layer="svg5"
     showguides="false" />
  <defs
     id="defs2">
    <linearGradient
       inkscape:collect="always"
       xlink:href="#linearGradient3605"
       id="linearGradient2252"
       x1="14.5"
       y1="5"
       x2="14.5"
       y2="18"
       gradientUnits="userSpaceOnUse"
       gradientTransform="matrix(2,0,0,2,13.000002,14)" />
    <linearGradient
       inkscape:collect="always"
       id="linearGradient3605">
      <stop
         style="stop-color:#0d6eaa;stop-opacity:1;"
         offset="0"
         id="stop3601" />
      <stop
         style="stop-color:#185086;stop-opacity:1"
         offset="1"
         id="stop3603" />
    </linearGradient>
  </defs>
  <path
     id="rect846"
     style="fill:#7d7d7b;stroke-width:2;stroke-linecap:round;stroke-linejoin:round"
     d="M 12,4 H 40.5 L 51.999999,15.5 V 60.000002 H 12 Z"
     sodipodi:nodetypes="cccccc" />
  <path
     id="rect1454"
     style="fill:#fafafa;stroke-width:2;stroke-linecap:round;stroke-linejoin:round"
     d="M 13,5 V 59 H 51 V 17 H 40 c -0.554003,0 -1,-0.446 -1,-1 V 5 Z m 27,0 v 11 h 11 z"
     sodipodi:nodetypes="ccccsscccccc" />
  <path
     id="path701"
     style="fill:url(#linearGradient2252);fill-opacity:1;stroke-width:0.999996;stroke-linecap:round;stroke-linejoin:round"
     d="m 27,24 c -2.209132,0 -4,2.000004 -4,6 v 4 c 0,1.104568 -0.895432,2 -2,2 -0.552282,0 -1,0.447716 -1,1 0,0.552286 0.447718,1 1,1 1.104568,0 2,0.895436 2,2 v 4 c 0,3.999996 1.790868,6 4,6 h 1 c 0.553998,0 1,-0.446 1,-1 0,-0.554 -0.446002,-1 -1,-1 h -1 c -1.104564,0 -2,-0.920002 -2,-4 V 40 C 24.999692,38.85181 24.505986,37.759108 23.644532,37 24.505986,36.24089 24.999692,35.148192 25,34 v -4 c 0,-3.079996 0.895436,-4 2,-4 h 1 c 0.553998,0 1,-0.446002 1,-1 0,-0.553998 -0.446002,-1 -1,-1 z m 9,0 c -0.553998,0 -1,0.446002 -1,1 0,0.553998 0.446002,1 1,1 h 1 c 1.104566,0 2,0.920004 2,4 v 4 c 3.08e-4,1.148192 0.494018,2.24089 1.355468,3 -0.86145,0.759108 -1.35516,1.85181 -1.355468,3 v 4 c 0,3.08 -0.895434,4 -2,4 h -1 c -0.553998,0 -1,0.446 -1,1 0,0.554 0.446002,1 1,1 h 1 c 2.209134,0 4,-2.000004 4,-6 v -4 c 0,-1.104562 0.895436,-2 2,-2 0.552284,0 1,-0.447714 1,-1 0,-0.552284 -0.447716,-1 -1,-1 -1.104564,0 -2,-0.895432 -2,-2 v -4 c 0,-3.999996 -1.790866,-6 -4,-6 z"
     sodipodi:nodetypes="sssssssssssssscccssssssssssscccsssssssssssssss" />
</svg>
