<?xml version="1.0" encoding="UTF-8" standalone="no"?>
<!-- Created with Inkscape (http://www.inkscape.org/) -->

<svg
   width="64"
   height="64"
   viewBox="0 0 64 64"
   version="1.1"
   id="svg5"
   inkscape:version="1.2.1 (9c6d41e410, 2022-07-14, custom)"
   sodipodi:docname="application-vnd.ms-excel.template.macroenabled.12.svg"
   xmlns:inkscape="http://www.inkscape.org/namespaces/inkscape"
   xmlns:sodipodi="http://sodipodi.sourceforge.net/DTD/sodipodi-0.dtd"
   xmlns="http://www.w3.org/2000/svg"
   xmlns:svg="http://www.w3.org/2000/svg">
  <sodipodi:namedview
     id="namedview7"
     pagecolor="#ffffff"
     bordercolor="#000000"
     borderopacity="0.25"
     inkscape:showpageshadow="2"
     inkscape:pageopacity="0.0"
     inkscape:pagecheckerboard="0"
     inkscape:deskcolor="#d1d1d1"
     inkscape:document-units="px"
     showgrid="false"
     inkscape:zoom="12.921875"
     inkscape:cx="29.871826"
     inkscape:cy="31.961306"
     inkscape:window-width="1920"
     inkscape:window-height="1010"
     inkscape:window-x="0"
     inkscape:window-y="0"
     inkscape:window-maximized="1"
     inkscape:current-layer="svg5"
     showguides="false" />
  <defs
     id="defs2" />
  <path
     id="rect1054"
     style="fill:#7d7d7b;stroke-width:3;stroke-linecap:round;stroke-linejoin:round"
     d="m 11,4 h 36.000007 l 5.999992,2 4e-6,54.000005 H 14.999998 V 55.999999 H 11 Z"
     sodipodi:nodetypes="cccccccc" />
  <path
     id="rect1308"
     style="fill:#fafafa;fill-opacity:1;stroke-width:3.99999;stroke-linecap:round;stroke-linejoin:round"
     d="M 12,17 V 55 H 48.000001 V 17 Z M 49,6 V 55.999999 H 16.000001 v 3 H 52 V 6.5 Z"
     sodipodi:nodetypes="cccccccccccc" />
  <path
     id="rect341"
     style="fill:#185c37;fill-opacity:1;stroke-width:2.64574;stroke-linecap:round"
     d="m 32,39.000001 v 3 h 4 c 0.553999,0 1,-0.446001 1,-1 v -1 c 0,-0.553999 -0.446001,-1 -1,-1 z" />
  <path
     id="rect343"
     style="fill:#107c41;fill-opacity:1;stroke-width:2.64574;stroke-linecap:round"
     d="m 32,33.000001 v 3 h 4 c 0.553999,0 1,-0.446001 1,-1 v -1 c 0,-0.553999 -0.446001,-1 -1,-1 z" />
  <path
     id="rect345"
     style="fill:#21a366;fill-opacity:1;stroke-width:2.64574;stroke-linecap:round"
     d="m 32,27.000001 v 3 h 4 c 0.553999,0 1,-0.446001 1,-1 v -1 c 0,-0.553999 -0.446001,-1 -1,-1 z" />
  <rect
     style="fill:#6dc898;fill-opacity:1;stroke-width:2.04939"
     id="rect518"
     width="7"
     height="3"
     x="39"
     y="27"
     ry="1" />
  <rect
     style="fill:#4fae7f;fill-opacity:1;stroke-width:2.04939"
     id="rect520"
     width="7"
     height="3"
     x="39"
     y="33"
     ry="1" />
  <rect
     style="fill:#134a2c;fill-opacity:1;stroke-width:2.04939"
     id="rect522"
     width="7"
     height="3"
     x="39"
     y="39"
     ry="1" />
  <path
     id="rect6964"
     style="fill:#41be68;fill-opacity:1;stroke-width:2.78796;stroke-linecap:round;stroke-linejoin:round"
     d="M 11.000002,4.000001 47.999998,4 V 18 H 11.000002 Z"
     sodipodi:nodetypes="ccccc" />
  <path
     id="rect13579"
     style="fill:#0c7c42;fill-opacity:1;stroke-width:2.82019;stroke-linecap:round;stroke-linejoin:round"
     d="m 47.999998,4 v 2 l 5.000001,2 V 6 Z M 11,17 v 1 h 36.999998 v -1 z"
     sodipodi:nodetypes="cccccccccc" />
  <path
     id="rect1973"
     style="fill:#0c7c42;fill-opacity:1;stroke-width:3;stroke-linecap:round;stroke-linejoin:round"
     d="M 7.0000001,22 H 26.999999 c 1.662001,0 3,1.338 3,3 v 20 c 0,1.661998 -1.337999,3 -3,3 H 7.0000001 C 5.338,48 4,46.661998 4,45 V 25 c 0,-1.662 1.338,-3 3.0000001,-3 z" />
  <path
     id="rect12096"
     style="fill:#ffffff;fill-opacity:1;stroke-width:1.59295;stroke-linecap:round;stroke-linejoin:round"
     d="M 11.275861,27 15.4812,34.58309 11,42.653609 h 2.612389 l 1.996367,-3.886958 c 0.382342,-0.807092 0.785488,-1.592329 1.210272,-2.548094 h 0.08506 c 0.488533,0.955765 0.892796,1.741002 1.296341,2.548094 l 2.059624,3.886958 H 23 L 18.518789,34.688871 22.702354,27 h -2.590617 l -1.827323,3.674356 c -0.382343,0.722131 -0.679195,1.423284 -1.08271,2.379049 h -0.08505 C 16.62816,32.09764 16.288704,31.396489 15.906399,30.674356 L 14.015815,27 Z" />
</svg>
