<?xml version="1.0" encoding="UTF-8" standalone="no"?>
<!-- Created with Inkscape (http://www.inkscape.org/) -->

<svg
   width="64"
   height="64"
   viewBox="0 0 64 64"
   version="1.1"
   id="svg2112"
   inkscape:version="1.2.1 (9c6d41e410, 2022-07-14, custom)"
   sodipodi:docname="application-x-shellscript.svg"
   xmlns:inkscape="http://www.inkscape.org/namespaces/inkscape"
   xmlns:sodipodi="http://sodipodi.sourceforge.net/DTD/sodipodi-0.dtd"
   xmlns:xlink="http://www.w3.org/1999/xlink"
   xmlns="http://www.w3.org/2000/svg"
   xmlns:svg="http://www.w3.org/2000/svg">
  <sodipodi:namedview
     id="namedview2114"
     pagecolor="#ffffff"
     bordercolor="#000000"
     borderopacity="0.25"
     inkscape:showpageshadow="2"
     inkscape:pageopacity="0.0"
     inkscape:pagecheckerboard="0"
     inkscape:deskcolor="#d1d1d1"
     inkscape:document-units="px"
     showgrid="false"
     inkscape:zoom="12.53125"
     inkscape:cx="32"
     inkscape:cy="32"
     inkscape:window-width="1920"
     inkscape:window-height="1011"
     inkscape:window-x="0"
     inkscape:window-y="0"
     inkscape:window-maximized="1"
     inkscape:current-layer="svg2112" />
  <defs
     id="defs2109">
    <linearGradient
       inkscape:collect="always"
       id="linearGradient2996">
      <stop
         style="stop-color:#1a1a1a;stop-opacity:1;"
         offset="0"
         id="stop2992" />
      <stop
         style="stop-color:#525252;stop-opacity:1;"
         offset="1"
         id="stop2994" />
    </linearGradient>
    <linearGradient
       inkscape:collect="always"
       xlink:href="#linearGradient2996"
       id="linearGradient14141"
       x1="61"
       y1="55"
       x2="3"
       y2="14"
       gradientUnits="userSpaceOnUse" />
  </defs>
  <path
     id="rect261617"
     style="fill:#797774;stroke-width:0.811967;stroke-linecap:round;stroke-linejoin:round"
     d="M 6.0000002,10 H 57.999998 C 60.215999,10 62,11.784 62,14 V 52.000002 C 62,54.215999 60.215999,56 57.999998,56 H 6.0000002 C 3.7840001,56 2,54.215999 2,52.000002 V 14 c 0,-2.216 1.7840001,-4 4.0000002,-4 z" />
  <path
     id="rect261619"
     style="fill:url(#linearGradient14141);stroke-width:0.789524;stroke-linecap:round;stroke-linejoin:round;fill-opacity:1"
     d="m 4.9999999,14 c -1.1080002,0 -2,0.892 -2,2 v 36 c 0,1.662002 1.338,3 3,3 H 58 c 1.661998,0 3,-1.337998 3,-3 V 16 c 0,-1.108 -0.892001,-2 -2,-2 z" />
  <path
     id="rect1066"
     style="fill:#c4c4c4;fill-opacity:1;stroke-width:3;stroke-linecap:round;stroke-linejoin:round"
     d="M 47.999999,10.999999 V 13 h 2.000002 v -2.000001 z m 4.000003,0 V 13 h 2.000001 v -2.000001 z m 3.999999,0 V 13 h 2.000001 v -2.000001 z" />
  <path
     id="rect233"
     style="fill:#ffffff;stroke-width:1.22475"
     d="M 7 16 L 7 18 L 5 18 L 5 19 L 7 19 L 7 21 L 5 21 L 5 22 L 7 22 L 7 24 L 8 24 L 8 22 L 10 22 L 10 24 L 11 24 L 11 22 L 13 22 L 13 21 L 11 21 L 11 19 L 13 19 L 13 18 L 11 18 L 11 16 L 10 16 L 10 18 L 8 18 L 8 16 L 7 16 z M 15 16 L 15 22 L 16 22 L 16 16 L 15 16 z M 8 19 L 10 19 L 10 21 L 8 21 L 8 19 z M 15 23 L 15 24 L 16 24 L 16 23 L 15 23 z " />
</svg>
