<?xml version="1.0" encoding="UTF-8" standalone="no"?>
<!-- Created with Inkscape (http://www.inkscape.org/) -->

<svg
   width="64"
   height="64"
   viewBox="0 0 64 64"
   version="1.1"
   id="svg5"
   inkscape:version="1.2.1 (9c6d41e410, 2022-07-14, custom)"
   sodipodi:docname="application-x-deb.svg"
   xmlns:inkscape="http://www.inkscape.org/namespaces/inkscape"
   xmlns:sodipodi="http://sodipodi.sourceforge.net/DTD/sodipodi-0.dtd"
   xmlns:xlink="http://www.w3.org/1999/xlink"
   xmlns="http://www.w3.org/2000/svg"
   xmlns:svg="http://www.w3.org/2000/svg">
  <sodipodi:namedview
     id="namedview7"
     pagecolor="#ffffff"
     bordercolor="#000000"
     borderopacity="0.25"
     inkscape:showpageshadow="2"
     inkscape:pageopacity="0.0"
     inkscape:pagecheckerboard="0"
     inkscape:deskcolor="#d1d1d1"
     inkscape:document-units="px"
     showgrid="false"
     inkscape:zoom="12.8125"
     inkscape:cx="29.892683"
     inkscape:cy="32.039024"
     inkscape:window-width="1920"
     inkscape:window-height="1029"
     inkscape:window-x="0"
     inkscape:window-y="0"
     inkscape:window-maximized="1"
     inkscape:current-layer="svg5"
     showguides="false" />
  <defs
     id="defs2">
    <linearGradient
       inkscape:collect="always"
       xlink:href="#linearGradient40996"
       id="linearGradient4221"
       x1="3.9687502"
       y1="2.9104166"
       x2="3.4395833"
       y2="5.8208332"
       gradientUnits="userSpaceOnUse"
       gradientTransform="matrix(3.7795275,0,0,3.7795275,-2.0000001,-5.0000006)" />
    <linearGradient
       inkscape:collect="always"
       id="linearGradient40996">
      <stop
         style="stop-color:#f57da7;stop-opacity:1"
         offset="0"
         id="stop40992" />
      <stop
         style="stop-color:#f775a4;stop-opacity:1"
         offset="1"
         id="stop40994" />
    </linearGradient>
    <linearGradient
       inkscape:collect="always"
       xlink:href="#linearGradient26892"
       id="linearGradient2237"
       x1="2.9104166"
       y1="5.2916665"
       x2="5.2576041"
       y2="5.6950111"
       gradientUnits="userSpaceOnUse"
       gradientTransform="matrix(3.7795275,0,0,3.7795275,-2.5e-7,-1.0000003)" />
    <linearGradient
       inkscape:collect="always"
       id="linearGradient26892">
      <stop
         style="stop-color:#cb6085;stop-opacity:1"
         offset="0"
         id="stop26888" />
      <stop
         style="stop-color:#832949;stop-opacity:1"
         offset="1"
         id="stop26890" />
    </linearGradient>
    <linearGradient
       inkscape:collect="always"
       xlink:href="#linearGradient26892"
       id="linearGradient2944"
       x1="13.493751"
       y1="6.0854168"
       x2="11.906252"
       y2="12.435419"
       gradientUnits="userSpaceOnUse"
       gradientTransform="matrix(3.7795275,0,0,3.7795275,-1.77e-6,-5.0000006)" />
    <linearGradient
       inkscape:collect="always"
       xlink:href="#linearGradient56461"
       id="linearGradient56463"
       x1="-252.87521"
       y1="78.478691"
       x2="-238.4166"
       y2="92.637772"
       gradientUnits="userSpaceOnUse"
       gradientTransform="matrix(2.1440542,0,0,3.1781727,553.17811,-232.41884)" />
    <linearGradient
       inkscape:collect="always"
       id="linearGradient56461">
      <stop
         style="stop-color:#fb95b9;stop-opacity:1"
         offset="0"
         id="stop56457-9" />
      <stop
         style="stop-color:#f63479;stop-opacity:1"
         offset="1"
         id="stop56459-1" />
    </linearGradient>
    <linearGradient
       inkscape:collect="always"
       xlink:href="#linearGradient70845"
       id="linearGradient1579"
       x1="10.537197"
       y1="7.5774555"
       x2="13.497259"
       y2="16.186811"
       gradientUnits="userSpaceOnUse"
       gradientTransform="matrix(3.0404773,0,0,3.4845804,9.9618902,-1.4042529)" />
    <linearGradient
       inkscape:collect="always"
       id="linearGradient70845">
      <stop
         style="stop-color:#d04d79;stop-opacity:1"
         offset="0"
         id="stop70841-7" />
      <stop
         style="stop-color:#b63664;stop-opacity:1"
         offset="1"
         id="stop70843-0" />
    </linearGradient>
    <linearGradient
       inkscape:collect="always"
       xlink:href="#linearGradient40996"
       id="linearGradient4750"
       x1="16.139584"
       y1="5.2916665"
       x2="11.377084"
       y2="7.4083333"
       gradientUnits="userSpaceOnUse"
       gradientTransform="matrix(3.7795275,0,0,3.7795275,-1.0000014,-3.0000008)" />
    <linearGradient
       inkscape:collect="always"
       xlink:href="#linearGradient40996"
       id="linearGradient4939"
       x1="7.1437502"
       y1="2.1166668"
       x2="14.022917"
       y2="6.0854168"
       gradientUnits="userSpaceOnUse"
       gradientTransform="matrix(3.7795275,0,0,3.7795275,-1.9999997,-5.0000006)" />
  </defs>
  <path
     id="rect3961"
     style="fill:url(#linearGradient4221);fill-opacity:1;stroke-width:0.999999"
     d="M 4,12.999999 13,5.9999993 19.999997,9.9999994 17.511076,20.545802 11,16.999999 Z"
     sodipodi:nodetypes="cccccc" />
  <path
     id="rect2034"
     style="fill:url(#linearGradient2237);fill-opacity:1;stroke-width:0.999999"
     d="M 11,16.999999 19.999997,9.9999994 36.222029,49.072099 10.999996,51.000002 Z"
     sodipodi:nodetypes="ccccc" />
  <path
     id="rect2627"
     style="fill:url(#linearGradient2944);fill-opacity:1;stroke-width:0.999999"
     d="m 19.999997,9.9999994 31.000002,7.9999996 4e-6,32.000008 L 19.999997,44 Z"
     sodipodi:nodetypes="ccccc" />
  <path
     id="rect45418"
     style="fill:url(#linearGradient56463);fill-opacity:1;stroke-width:0.690667"
     d="m 11,16.999999 30.999999,8 4.000003,-1 L 41.999999,61.999996 11,53.999999 Z"
     sodipodi:nodetypes="cccccc" />
  <path
     id="rect1571"
     style="fill:url(#linearGradient1579);fill-opacity:1;stroke-width:0.861211"
     d="m 41.999999,24.999999 9,-7 v 36.999995 l -9,7.000002 z"
     sodipodi:nodetypes="ccccc" />
  <path
     id="rect4424"
     style="fill:url(#linearGradient4750);fill-opacity:1;stroke-width:0.999999"
     d="m 50.999999,17.999999 9,-1 -8.000001,7 -9.999999,1 z"
     sodipodi:nodetypes="ccccc" />
  <path
     id="rect4774"
     style="fill:url(#linearGradient4939);fill-opacity:1;stroke-width:0.899331"
     d="M 25.000001,2.9999995 56,10.999998 50.999999,17.999999 19.999997,9.9999994 Z"
     sodipodi:nodetypes="ccccc" />
  <path
     id="rect5659"
     style="fill:#c65981;fill-opacity:1;stroke-width:0.999999"
     d="m 25.000004,2 31,7.9999984 L 56,10.999998 25.000001,2.9999995 Z"
     sodipodi:nodetypes="ccccc" />
  <path
     id="path2"
     style="opacity:0.6;fill:#ffffff;stroke-width:0.0699987"
     d="m 22.015772,35.570934 c -0.26982,-0.07563 -0.538526,-0.159798 -0.803894,-0.222122 l 0.116901,0.05858 c 0.19525,-5.1e-4 0.479879,0.135572 0.687005,0.163654 z M 20.836454,35.2657 c -0.438966,-0.133002 -1.047901,-0.126085 -0.859952,-0.265701 -0.716444,0.05904 -1.988232,0.04467 -2.701803,0.454072 l -0.0223,-0.158135 c -0.327005,0.273524 -1.425823,0.653418 -1.513395,1.129956 l -0.0875,-0.01172 c -0.170154,0.226167 -0.280252,0.512632 -0.415211,0.759953 -0.222614,0.298205 -0.326325,0.02721 -0.294614,0.09812 -0.437708,0.728208 -0.655129,1.39486 -0.842994,1.938061 0.133833,0.248768 0.0033,1.205556 0.0539,2.02772 -0.219855,3.889553 2.785916,8.837817 6.071463,10.923341 0.481603,0.347414 1.197782,0.601391 1.806985,0.840907 -0.718745,-0.467172 -0.811672,-0.404209 -1.511667,-0.903186 -0.505036,-0.421667 -0.615716,-0.733489 -0.973421,-1.174054 l 0.141543,0.301569 c -0.701461,-0.503598 -0.40806,-0.455825 -0.978761,-0.8443 l 0.151181,-0.142375 c -0.227414,-0.100006 -0.60223,-0.602321 -0.704776,-0.842347 l -0.248655,-0.08069 C 17.607592,48.839265 17.448334,48.515805 17.45996,48.314107 l -0.08047,0.11399 c -0.09101,-0.189581 -1.099646,-1.783396 -0.576401,-1.30735 -0.09725,-0.124308 -0.226393,-0.227111 -0.366538,-0.532614 l 0.106469,-0.08289 c -0.251792,-0.415514 -0.463446,-0.908077 -0.447345,-1.040391 0.134325,0.230325 0.22749,0.298167 0.319748,0.362873 -0.635792,-1.809117 -0.671546,-0.331465 -1.153202,-2.025744 l 0.101859,0.02872 c -0.07816,-0.146154 -0.125481,-0.291137 -0.188259,-0.439438 l 0.04437,-0.425726 c -0.45786,-0.695977 -0.128013,-2.297117 -0.06198,-3.217099 0.04588,-0.367219 0.382087,-0.653435 0.637916,-1.201157 l -0.155906,-0.08353 c 0.297789,-0.411205 1.701015,-1.467835 2.350742,-1.150713 0.314948,-0.280781 -0.06259,-0.02419 -0.124158,-0.146193 0.69145,-0.463937 0.908901,-0.174689 1.37551,-0.133606 0.50329,-0.115578 -0.431811,-0.04059 -0.193171,-0.184214 0.869877,0.09441 0.616456,-0.280743 1.751346,0.01928 0.119697,0.111722 -0.277796,0.0042 -0.377613,0.05624 0.72477,-0.0909 2.29381,0.560844 3.312786,1.402472 1.182633,0.983149 2.511012,3.100176 2.563442,4.656227 l 0.05972,0.03779 c -0.03024,0.600075 0.09343,1.351506 -0.120983,1.922502 l 0.147099,-0.25338 1.4e-4,5e-5 c 0.01739,0.473279 -0.136441,0.643782 -0.275225,0.994378 l -0.249487,0.03402 c -0.204321,0.322242 0.01965,0.258935 -0.126463,0.521219 -0.318879,0.167358 -0.967604,0.534705 -1.175218,0.514235 -0.151407,-0.05843 0.102841,-0.141354 0.136063,-0.198085 -0.426784,0.13784 -0.342538,0.315251 -0.995168,0.255912 l -0.0189,-0.04928 c -1.610086,0.171137 -3.846232,-2.143593 -3.816763,-4.180618 -0.01739,0.123703 -0.04898,0.07979 -0.08462,0.119319 -0.083,-1.083828 0.486694,-1.934778 1.447283,-2.017258 0.939878,-0.123137 2.041331,0.46879 2.714514,1.341154 -0.369751,-0.618977 -1.105554,-1.400183 -1.977748,-1.669622 -0.854551,-0.297411 -1.65383,-0.04543 -1.920597,0.446786 -0.437707,0.116334 -0.488466,0.884549 -0.679211,0.95904 -0.256517,1.792615 0.482691,2.876481 1.733299,4.290096 0.196838,0.204359 0.05541,0.173065 0.08209,0.283805 -0.415506,-0.345751 -0.796089,-0.778024 -1.108909,-1.251534 0.165996,0.303534 0.345108,0.604838 0.576672,0.874741 -0.391717,-0.275376 -0.915152,-1.282431 -1.067882,-1.371269 0.675276,1.454941 2.739964,3.11788 3.821098,3.059259 -0.500205,-0.163502 -1.135793,-0.403105 -1.697888,-0.81552 -0.235956,-0.207269 -0.557088,-0.576 -0.499835,-0.602192 1.475508,1.088289 2.999727,1.509411 4.276229,0.950627 0.32485,-0.13474 0.679665,-0.435867 0.78215,-0.404527 -0.154393,0.175975 0.02646,0.121172 -0.09233,0.282898 0.323754,-0.404073 -0.140523,-0.263584 0.334525,-0.779615 l 0.175408,0.305537 c -0.06523,-0.456884 0.53819,-0.7634 0.476999,-1.470822 0.138256,-0.159231 0.154319,0.281575 0.0076,0.710204 0.20383,-0.460588 0.05382,-0.601028 0.106243,-1.023201 0.05677,0.168944 0.130696,0.353423 0.168869,0.523827 -0.132623,-0.564994 0.136252,-0.820743 0.202772,-1.096902 -0.06561,-0.05314 -0.204964,0.153865 -0.236825,-0.468185 0.0045,-0.263509 0.07385,-0.112025 0.100422,-0.167584 -0.05201,-0.04906 -0.188636,-0.301758 -0.271635,-0.721883 0.06017,-0.06969 0.161046,0.296126 0.242948,0.33944 -0.05276,-0.329235 -0.143471,-0.598496 -0.14725,-0.837657 -0.239433,-0.58758 -0.08474,0.03591 -0.278892,-0.316422 -0.254891,-0.887747 0.211503,-0.107452 0.242948,-0.457209 0.386412,0.700293 0.60663,1.64776 0.707649,2.043764 -0.07718,-0.466137 -0.201827,-0.935739 -0.354104,-1.401706 0.117392,0.09211 -0.188939,-0.970061 0.15258,-0.216264 -0.364611,-1.474761 -1.560911,-3.164149 -2.66151,-4.153146 0.134703,0.172233 0.304744,0.388846 0.243629,0.390822 C 24.833247,37.735786 24.929527,37.745499 24.851064,37.579264 24.405235,37.23563 24.375849,37.420675 24.080528,37.299088 23.240199,36.547499 23.078345,36.535994 22.304857,35.9751 l 0.03515,0.177185 c -0.556702,-0.388066 -0.648628,-0.165846 -1.250412,-0.454555 -0.03666,-0.04226 0.192756,-0.03326 0.38171,0.0079 -0.538296,-0.124913 -0.513131,-0.2928 -1.039869,-0.359168 0.129827,-0.04377 0.267024,-0.05397 0.405513,-0.08111 z m 0.435311,0.259313 c 0.154053,0.08364 0.333014,0.170154 0.307842,0.197783 0.168492,0.02419 0.206778,0.0042 -0.307842,-0.197783 z m 0.307842,0.197783 -0.109001,-0.01739 0.101442,0.02797 z m -7.104903,0.834397 c -1.51e-4,0.0094 6.39e-4,0.01701 0.0021,0.02419 -5.85e-4,-0.0079 -0.0012,-0.01625 -0.0021,-0.02419 z m 0.0021,0.02419 c 0.0291,0.409595 -0.308031,0.437231 0.07729,0.308107 0.199181,-0.376138 -0.05216,-0.184365 -0.07729,-0.308107 z m -0.322242,1.181662 c -0.24994,0.228623 -0.114973,0.345826 -0.141354,0.553654 0.09044,-0.244762 0.106809,-0.405521 0.141354,-0.553654 z m 10.29027,5.67593 c -0.03591,-0.01209 -0.08156,0.06198 -0.104617,0.152807 0.05367,0.04755 0.09638,0.401605 0.14846,0.211124 0.01739,-0.253682 -0.0083,-0.351874 -0.04392,-0.363968 z m 3.157202,2.025347 c -4.6e-5,3.37e-4 -7.2e-5,7.03e-4 -1.4e-4,10e-4 l 4.23e-4,-9.37e-4 z m -1.4e-4,10e-4 -0.04195,0.09003 c -0.07782,0.524092 -0.245745,1.009614 -0.503236,1.422693 0.284031,-0.43101 0.468147,-0.948514 0.545227,-1.512703 z m -3.34397,-1.023552 c -0.03863,0.177487 -0.142488,0.305084 -0.240454,0.443906 -0.539754,0.143319 -0.0508,-0.220309 -2.91e-4,-0.407804 -0.580293,0.519292 -0.07971,0.409036 -0.100762,0.605344 0.171969,-0.174614 0.297298,-0.388966 0.341556,-0.641446 z m -1.17685,0.686967 c -0.234747,-0.02797 -0.473552,-0.11365 -0.714354,-0.223332 -0.288756,-0.100989 0.05458,0.168642 0.431479,0.363893 0.104163,-0.04339 0.198727,-0.09131 0.282897,-0.140637 z m -3.643926,-1.288845 c 0.06365,0.25731 0.193965,0.505882 0.315288,0.754718 l -0.08893,-0.294311 C 19.563084,44.152632 19.50367,43.997332 19.437112,43.839892 Z m -0.222161,0.314645 -0.04029,0.187805 c 0.189694,0.326854 0.340233,0.660986 0.582546,0.95071 -0.174274,-0.403865 -0.303799,-0.591625 -0.542083,-1.138462 z" />
</svg>
