<?xml version="1.0" encoding="UTF-8" standalone="no"?>
<!-- Created with Inkscape (http://www.inkscape.org/) -->

<svg
   width="64"
   height="64"
   viewBox="0 0 64 64"
   version="1.1"
   id="svg5"
   inkscape:version="1.2.1 (9c6d41e410, 2022-07-14, custom)"
   sodipodi:docname="application-x-trash.svg"
   xmlns:inkscape="http://www.inkscape.org/namespaces/inkscape"
   xmlns:sodipodi="http://sodipodi.sourceforge.net/DTD/sodipodi-0.dtd"
   xmlns="http://www.w3.org/2000/svg"
   xmlns:svg="http://www.w3.org/2000/svg">
  <sodipodi:namedview
     id="namedview7"
     pagecolor="#ffffff"
     bordercolor="#000000"
     borderopacity="0.25"
     inkscape:showpageshadow="2"
     inkscape:pageopacity="0.0"
     inkscape:pagecheckerboard="0"
     inkscape:deskcolor="#d1d1d1"
     inkscape:document-units="px"
     showgrid="false"
     inkscape:zoom="12.8125"
     inkscape:cx="27.82439"
     inkscape:cy="32.117073"
     inkscape:window-width="1920"
     inkscape:window-height="1029"
     inkscape:window-x="0"
     inkscape:window-y="0"
     inkscape:window-maximized="1"
     inkscape:current-layer="svg5"
     showguides="false" />
  <defs
     id="defs2" />
  <path
     id="rect846"
     style="fill:#7d7d7b;stroke-width:2;stroke-linecap:round;stroke-linejoin:round"
     d="M 12,4 H 40.5 L 51.999999,15.5 V 60.000002 H 12 Z"
     sodipodi:nodetypes="cccccc" />
  <path
     id="rect1454"
     style="fill:#fafafa;stroke-width:2;stroke-linecap:round;stroke-linejoin:round"
     d="M 13,5 V 59 H 51 V 17 H 40 c -0.554003,0 -1,-0.446 -1,-1 V 5 Z m 27,0 v 11 h 11 z"
     sodipodi:nodetypes="ccccsscccccc" />
  <path
     d="m 28.907042,22.000003 c -1.29467,0 -2.354607,0.61552 -3.002607,1.742187 l -1.966253,3.948238 5.579779,3.083164 2.830642,-5.451258 1.65091,-3.322331 z"
     style="fill:#0068ba;fill-opacity:1;stroke-width:0.352771"
     id="path138735"
     sodipodi:nodetypes="scccccs" />
  <path
     d="m 29.999513,22.000003 4.57159,8.1875 -2.286458,1.296874 7.281206,2.650141 2.905104,-8.042882 -2.249995,1.330729 -2.384209,-4.531735 C 37.49407,22.309292 36.912938,21.999999 36.162275,22 Z"
     style="fill:#0091e6;fill-opacity:1;stroke-width:0.352771"
     id="path142126"
     sodipodi:nodetypes="cccccccsc" />
  <path
     d="m 45.67113,38.527558 -2.10641,-3.875273 -5.726015,2.802255 2.841823,5.445437 1.829813,3.99925 3.134506,-6.645188 c 0.378017,-0.806294 0.233197,-1.357958 0.02646,-1.726481 z"
     style="fill:#0068ba;fill-opacity:1;stroke-width:0.352771"
     id="path138735-0"
     sodipodi:nodetypes="ccccccc" />
  <path
     d="m 44.989514,41.639001 -8.074415,-0.01058 0.02011,-2.628571 -5.737939,5.656418 5.731972,5.861552 -0.02744,-2.613917 h 4.000005 c 0.674793,-0.006 1.230323,-0.35641 1.608545,-1.004825 z"
     style="fill:#0091e6;fill-opacity:1;stroke-width:0.352771"
     id="path142126-6"
     sodipodi:nodetypes="ccccccccc" />
  <path
     d="m 21.836524,46.767276 c 0.525594,0.873562 1.074091,0.916471 1.531514,0.972227 l 5.631476,4.95e-4 v -6.735636 l -7.157551,0.0064 -3.162215,0.0398 z"
     style="fill:#0068ba;fill-opacity:1;stroke-width:0.352771"
     id="path146733"
     sodipodi:nodetypes="ccccccc" />
  <path
     d="m 21.60818,46.35053 4.294558,-8.229845 2.322286,1.231574 -2.562033,-7.564388 -7.845991,2.377756 2.331248,1.182629 -1.846995,3.548044 c -0.306176,0.601365 -0.222051,1.237973 0.148546,1.890777 z"
     style="fill:#0091e6;fill-opacity:1;stroke-width:0.352771"
     id="path146730"
     sodipodi:nodetypes="cccccccsc" />
</svg>
