<?xml version="1.0" encoding="UTF-8" standalone="no"?>
<!-- Created with Inkscape (http://www.inkscape.org/) -->

<svg
   width="64"
   height="64"
   viewBox="0 0 64 64"
   version="1.1"
   id="svg5"
   inkscape:version="1.2.1 (9c6d41e410, 2022-07-14, custom)"
   sodipodi:docname="application-x-desktop.svg"
   xmlns:inkscape="http://www.inkscape.org/namespaces/inkscape"
   xmlns:sodipodi="http://sodipodi.sourceforge.net/DTD/sodipodi-0.dtd"
   xmlns:xlink="http://www.w3.org/1999/xlink"
   xmlns="http://www.w3.org/2000/svg"
   xmlns:svg="http://www.w3.org/2000/svg">
  <sodipodi:namedview
     id="namedview7"
     pagecolor="#ffffff"
     bordercolor="#000000"
     borderopacity="0.25"
     inkscape:showpageshadow="2"
     inkscape:pageopacity="0.0"
     inkscape:pagecheckerboard="0"
     inkscape:deskcolor="#d1d1d1"
     inkscape:document-units="px"
     showgrid="false"
     inkscape:zoom="12.921875"
     inkscape:cx="32"
     inkscape:cy="32"
     inkscape:window-width="1920"
     inkscape:window-height="1029"
     inkscape:window-x="0"
     inkscape:window-y="0"
     inkscape:window-maximized="1"
     inkscape:current-layer="svg5"
     showguides="false" />
  <defs
     id="defs2">
    <linearGradient
       inkscape:collect="always"
       xlink:href="#linearGradient239772"
       id="linearGradient7728"
       x1="3.2308109"
       y1="2.3813164"
       x2="3.1946909"
       y2="5.3985844"
       gradientUnits="userSpaceOnUse"
       gradientTransform="matrix(7.7765933,0,0,7.7765933,5.0869942,7.4819772)" />
    <linearGradient
       inkscape:collect="always"
       id="linearGradient239772">
      <stop
         style="stop-color:#aeb7bc;stop-opacity:1;"
         offset="0"
         id="stop239768" />
      <stop
         style="stop-color:#959ea5;stop-opacity:1"
         offset="1"
         id="stop239770" />
    </linearGradient>
  </defs>
  <path
     id="rect846"
     style="fill:#7d7d7b;stroke-width:2;stroke-linecap:round;stroke-linejoin:round"
     d="M 12,4 H 40.5 L 51.999999,15.5 V 60.000002 H 12 Z"
     sodipodi:nodetypes="cccccc" />
  <path
     id="rect1454"
     style="fill:#fafafa;stroke-width:2;stroke-linecap:round;stroke-linejoin:round"
     d="M 13,5 V 59 H 51 V 17 H 40 c -0.554003,0 -1,-0.446 -1,-1 V 5 Z m 27,0 v 11 h 11 z"
     sodipodi:nodetypes="ccccsscccccc" />
  <path
     id="path7172"
     style="color:#000000;fill:url(#linearGradient7728);fill-opacity:1;stroke-width:6.47787;stroke-linecap:round;stroke-linejoin:round"
     d="M 30.210938 26 C 29.402339 26.03531 28.721258 26.637141 28.591797 27.443359 L 27.990234 31.064453 L 24.556641 29.777344 C 23.773567 29.478658 22.889951 29.790247 22.466797 30.513672 L 20.751953 33.482422 C 20.329257 34.211655 20.500387 35.141983 21.154297 35.673828 L 23.982422 38 L 21.140625 40.34375 C 20.497532 40.874835 20.334244 41.78952 20.748047 42.513672 L 22.458984 45.482422 C 22.876261 46.210076 23.758961 46.527436 24.544922 46.234375 L 27.986328 44.945312 L 28.591797 48.574219 C 28.730982 49.401413 29.448294 50.002461 30.287109 50 L 33.716797 50 C 34.550831 49.9963 35.262005 49.396698 35.400391 48.574219 L 36.005859 44.945312 L 39.451172 46.234375 C 40.237131 46.527436 41.11983 46.210202 41.537109 45.482422 L 43.251953 42.513672 C 43.665754 41.789524 43.4966 40.874831 42.853516 40.34375 L 40.017578 38 L 42.845703 35.673828 C 43.499616 35.141983 43.670743 34.211654 43.248047 33.482422 L 41.533203 30.513672 C 41.110049 29.790232 40.226431 29.478653 39.443359 29.777344 L 36.001953 31.064453 L 35.400391 27.443359 C 35.267524 26.615853 34.554887 26.004745 33.716797 26 L 30.287109 26 C 30.260749 25.999955 30.237067 25.9989 30.210938 26 z M 32 34 A 4 4 0 0 1 36 38 A 4 4 0 0 1 32 42 A 4 4 0 0 1 28 38 A 4 4 0 0 1 32 34 z " />
</svg>
