<?xml version="1.0" encoding="UTF-8" standalone="no"?>
<!-- Created with Inkscape (http://www.inkscape.org/) -->

<svg
   width="64"
   height="64"
   viewBox="0 0 64 64"
   version="1.1"
   id="svg5"
   inkscape:version="1.2.1 (9c6d41e410, 2022-07-14, custom)"
   sodipodi:docname="application-x-theme.svg"
   xmlns:inkscape="http://www.inkscape.org/namespaces/inkscape"
   xmlns:sodipodi="http://sodipodi.sourceforge.net/DTD/sodipodi-0.dtd"
   xmlns:xlink="http://www.w3.org/1999/xlink"
   xmlns="http://www.w3.org/2000/svg"
   xmlns:svg="http://www.w3.org/2000/svg">
  <sodipodi:namedview
     id="namedview7"
     pagecolor="#ffffff"
     bordercolor="#000000"
     borderopacity="0.25"
     inkscape:showpageshadow="2"
     inkscape:pageopacity="0.0"
     inkscape:pagecheckerboard="0"
     inkscape:deskcolor="#d1d1d1"
     inkscape:document-units="px"
     showgrid="false"
     inkscape:zoom="12.8125"
     inkscape:cx="29.853659"
     inkscape:cy="32.039024"
     inkscape:window-width="1920"
     inkscape:window-height="1029"
     inkscape:window-x="0"
     inkscape:window-y="0"
     inkscape:window-maximized="1"
     inkscape:current-layer="svg5"
     showguides="false" />
  <defs
     id="defs2">
    <linearGradient
       inkscape:collect="always"
       xlink:href="#linearGradient2986"
       id="linearGradient2988"
       x1="0.092813492"
       y1="10.202362"
       x2="0.092813492"
       y2="13.470933"
       gradientUnits="userSpaceOnUse"
       gradientTransform="matrix(1.1825939,0,0,1.2237765,33.890239,29.514589)" />
    <linearGradient
       inkscape:collect="always"
       id="linearGradient2986">
      <stop
         style="stop-color:#818990;stop-opacity:1;"
         offset="0"
         id="stop2982" />
      <stop
         style="stop-color:#9fa8b0;stop-opacity:1"
         offset="1"
         id="stop2984" />
    </linearGradient>
    <linearGradient
       inkscape:collect="always"
       xlink:href="#linearGradient1116"
       id="linearGradient1118"
       x1="1.0583334"
       y1="7.276042"
       x2="15.875"
       y2="7.276042"
       gradientUnits="userSpaceOnUse"
       gradientTransform="matrix(1.8897638,0,0,1.8413082,16,21.102563)" />
    <linearGradient
       inkscape:collect="always"
       id="linearGradient1116">
      <stop
         style="stop-color:#555a5f;stop-opacity:1;"
         offset="0"
         id="stop1112" />
      <stop
         style="stop-color:#4b4f53;stop-opacity:1"
         offset="1"
         id="stop1114" />
    </linearGradient>
    <linearGradient
       inkscape:collect="always"
       xlink:href="#linearGradient2301"
       id="linearGradient2303"
       x1="1.3229166"
       y1="2.6458333"
       x2="15.605761"
       y2="11.985207"
       gradientUnits="userSpaceOnUse"
       gradientTransform="matrix(1.8197725,0,0,1.8197725,16.592593,21.185184)" />
    <linearGradient
       inkscape:collect="always"
       id="linearGradient2301">
      <stop
         style="stop-color:#3fe3e7;stop-opacity:1;"
         offset="0"
         id="stop2297" />
      <stop
         style="stop-color:#066bbc;stop-opacity:1"
         offset="1"
         id="stop2299" />
    </linearGradient>
  </defs>
  <path
     id="rect846"
     style="fill:#7d7d7b;stroke-width:2;stroke-linecap:round;stroke-linejoin:round"
     d="M 12,4 H 40.5 L 51.999999,15.5 V 60.000002 H 12 Z"
     sodipodi:nodetypes="cccccc" />
  <path
     id="rect1454"
     style="fill:#fafafa;stroke-width:2;stroke-linecap:round;stroke-linejoin:round"
     d="M 13,5 V 59 H 51 V 17 H 40 c -0.554003,0 -1,-0.446 -1,-1 V 5 Z m 27,0 v 11 h 11 z"
     sodipodi:nodetypes="ccccsscccccc" />
  <path
     id="rect958"
     style="fill:#bcc5cf;stroke-width:2.50001;stroke-linecap:round;stroke-linejoin:round"
     d="m 26.5,45.5 h 10.999999 l 1.499997,1.500001 H 25 Z"
     sodipodi:nodetypes="ccccc" />
  <rect
     style="fill:url(#linearGradient2988);fill-opacity:1;stroke-width:1.59148;stroke-linecap:round;stroke-linejoin:round"
     id="rect2848"
     width="4"
     height="4"
     x="29.999998"
     y="42" />
  <path
     id="rect1418"
     style="fill:#b8c2cc;stroke-width:2.50001;stroke-linecap:round;stroke-linejoin:round"
     d="m 20,24 h 23.999997 c 1.192063,0 2.000001,0.792529 2.000001,2 v 6.5 H 18 V 26 c 0,-1.310555 0.723951,-2 2,-2 z"
     sodipodi:nodetypes="sssccss" />
  <path
     id="rect846-3"
     style="fill:url(#linearGradient1118);stroke-width:2.46775;stroke-linecap:round;stroke-linejoin:round"
     d="m 19.5,24.999999 h 24.999998 c 0.831001,0 1.5,0.669 1.5,1.5 v 15.999998 c 0,0.831001 -0.668999,1.500003 -1.5,1.500003 H 19.5 C 18.669,44 18,43.330998 18,42.499997 V 26.499999 c 0,-0.831 0.669,-1.5 1.5,-1.5 z" />
  <rect
     style="fill:#44484c;fill-opacity:1;stroke-width:2.50001;stroke-linecap:round;stroke-linejoin:round"
     id="rect1839"
     width="14"
     height="1"
     x="24.999998"
     y="47.000004" />
  <path
     id="rect2053"
     style="fill:url(#linearGradient2303);stroke-width:2.40741;stroke-linecap:round;stroke-linejoin:round"
     d="m 19.962963,25.999999 h 24.07407 c 0.533484,0 0.962963,0.429481 0.962963,0.962963 v 15.074553 c 0,0.533484 -0.429479,0.962967 -0.962963,0.962967 H 19.962963 C 19.429482,43.000482 19,42.570999 19,42.037515 V 26.962962 c 0,-0.533482 0.429482,-0.962963 0.962963,-0.962963 z"
     sodipodi:nodetypes="sssssssss" />
  <path
     id="rect45946"
     style="fill:#797774;stroke-width:1.03226;stroke-linecap:round;stroke-linejoin:round"
     d="m 32.999999,22 h 12.999996 c 1.108002,0 1.999997,0.892 1.999997,2 v 8.999999 c 0,1.108001 -0.891995,2 -1.999997,2 H 32.999999 c -1.108,0 -2,-0.891999 -2,-2 V 24 c 0,-1.108 0.892,-2 2,-2 z"
     sodipodi:nodetypes="sssssssss" />
  <rect
     style="fill:#fafafa;fill-opacity:1;stroke-width:2.36074;stroke-linecap:round;stroke-linejoin:round"
     id="rect53915"
     width="15"
     height="11"
     x="32"
     y="23"
     ry="1" />
  <rect
     style="fill:#0078d4;fill-opacity:1;stroke-width:0.615632;stroke-linecap:round;stroke-linejoin:round"
     id="rect54151"
     width="2.9999962"
     height="3"
     x="42.000011"
     y="28.999998" />
  <rect
     style="fill:#f18c0a;fill-opacity:1;stroke-width:0.615632;stroke-linecap:round;stroke-linejoin:round"
     id="rect54153"
     width="3"
     height="3"
     x="42.000011"
     y="24.999998" />
  <rect
     style="fill:#18b5a3;fill-opacity:1;stroke-width:0.615632;stroke-linecap:round;stroke-linejoin:round"
     id="rect61747"
     width="3"
     height="3"
     x="38.000004"
     y="24.999998" />
  <rect
     style="fill:#56b60e;fill-opacity:1;stroke-width:0.615632;stroke-linecap:round;stroke-linejoin:round"
     id="rect61851"
     width="3.0000019"
     height="3"
     x="38.000004"
     y="28.999998" />
  <rect
     style="fill:#9a70d4;fill-opacity:1;stroke-width:0.615632;stroke-linecap:round;stroke-linejoin:round"
     id="rect61853"
     width="3"
     height="3"
     x="34.000008"
     y="24.999998" />
  <rect
     style="fill:#e25113;fill-opacity:1;stroke-width:0.615632;stroke-linecap:round;stroke-linejoin:round"
     id="rect61855"
     width="3.0000019"
     height="3"
     x="34.000004"
     y="28.999998" />
</svg>
