<?xml version="1.0" encoding="UTF-8" standalone="no"?>
<!-- Created with Inkscape (http://www.inkscape.org/) -->

<svg
   width="64"
   height="64"
   viewBox="0 0 64 64"
   version="1.1"
   id="svg5"
   inkscape:version="1.2.1 (9c6d41e410, 2022-07-14, custom)"
   sodipodi:docname="application-x-iso.svg"
   xmlns:inkscape="http://www.inkscape.org/namespaces/inkscape"
   xmlns:sodipodi="http://sodipodi.sourceforge.net/DTD/sodipodi-0.dtd"
   xmlns:xlink="http://www.w3.org/1999/xlink"
   xmlns="http://www.w3.org/2000/svg"
   xmlns:svg="http://www.w3.org/2000/svg">
  <sodipodi:namedview
     id="namedview7"
     pagecolor="#ffffff"
     bordercolor="#000000"
     borderopacity="0.25"
     inkscape:showpageshadow="2"
     inkscape:pageopacity="0.0"
     inkscape:pagecheckerboard="0"
     inkscape:deskcolor="#d1d1d1"
     inkscape:document-units="px"
     showgrid="false"
     inkscape:zoom="12.625"
     inkscape:cx="32"
     inkscape:cy="32"
     inkscape:window-width="1920"
     inkscape:window-height="1010"
     inkscape:window-x="0"
     inkscape:window-y="0"
     inkscape:window-maximized="1"
     inkscape:current-layer="svg5"
     showguides="false" />
  <defs
     id="defs2">
    <linearGradient
       inkscape:collect="always"
       xlink:href="#linearGradient6804"
       id="linearGradient6808"
       x1="2.3812499"
       y1="8.4666672"
       x2="6.6145835"
       y2="12.700001"
       gradientUnits="userSpaceOnUse"
       gradientTransform="matrix(3.7795275,0,0,3.7795275,14.999999,-2.0000002)" />
    <linearGradient
       inkscape:collect="always"
       id="linearGradient6804">
      <stop
         style="stop-color:#ffffff;stop-opacity:1;"
         offset="0"
         id="stop6800" />
      <stop
         style="stop-color:#ffffff;stop-opacity:0;"
         offset="1"
         id="stop6802" />
    </linearGradient>
    <linearGradient
       inkscape:collect="always"
       xlink:href="#linearGradient162116"
       id="linearGradient162118"
       x1="96.408417"
       y1="238.0069"
       x2="127.77626"
       y2="238.0069"
       gradientUnits="userSpaceOnUse"
       gradientTransform="matrix(1.0201528,0,0,0.98431648,-82.351309,-196.27412)" />
    <linearGradient
       inkscape:collect="always"
       id="linearGradient162116">
      <stop
         style="stop-color:#e3edee;stop-opacity:1;"
         offset="0"
         id="stop162112" />
      <stop
         style="stop-color:#c9cdce;stop-opacity:1"
         offset="1"
         id="stop162114" />
    </linearGradient>
    <linearGradient
       inkscape:collect="always"
       xlink:href="#linearGradient219586"
       id="linearGradient942"
       gradientUnits="userSpaceOnUse"
       gradientTransform="matrix(1.0201528,0,0,0.98431652,-82.351305,-196.27412)"
       x1="112.09232"
       y1="238.0069"
       x2="112.17286"
       y2="254.33937" />
    <linearGradient
       inkscape:collect="always"
       id="linearGradient219586">
      <stop
         style="stop-color:#b9bfbf;stop-opacity:1;"
         offset="0"
         id="stop219582" />
      <stop
         style="stop-color:#aaacab;stop-opacity:1"
         offset="1"
         id="stop219584" />
    </linearGradient>
    <linearGradient
       inkscape:collect="always"
       xlink:href="#linearGradient2496"
       id="linearGradient2498"
       x1="16.424316"
       y1="54.63533"
       x2="32.331596"
       y2="38.452602"
       gradientUnits="userSpaceOnUse"
       gradientTransform="translate(14.999999,-2.0000004)" />
    <linearGradient
       inkscape:collect="always"
       id="linearGradient2496">
      <stop
         style="stop-color:#ffffff;stop-opacity:0.5"
         offset="0"
         id="stop2492" />
      <stop
         style="stop-color:#ffffff;stop-opacity:0"
         offset="0.44999999"
         id="stop3080" />
      <stop
         style="stop-color:#ffffff;stop-opacity:1"
         offset="0.5"
         id="stop2756" />
      <stop
         style="stop-color:#ffffff;stop-opacity:0"
         offset="0.55000001"
         id="stop3014" />
      <stop
         style="stop-color:#ffffff;stop-opacity:0.2"
         offset="1"
         id="stop2494" />
    </linearGradient>
    <linearGradient
       inkscape:collect="always"
       xlink:href="#linearGradient7820"
       id="linearGradient7822"
       x1="14.532227"
       y1="42.393677"
       x2="19.540161"
       y2="37.501221"
       gradientUnits="userSpaceOnUse"
       gradientTransform="translate(14.999999,-2.0000004)" />
    <linearGradient
       inkscape:collect="always"
       id="linearGradient7820">
      <stop
         style="stop-color:#858585;stop-opacity:1"
         offset="0"
         id="stop7816" />
      <stop
         style="stop-color:#ffffff;stop-opacity:1"
         offset="0.5"
         id="stop8592" />
      <stop
         style="stop-color:#868686;stop-opacity:1"
         offset="1"
         id="stop7818" />
    </linearGradient>
    <linearGradient
       inkscape:collect="always"
       xlink:href="#linearGradient7820"
       id="linearGradient10226"
       gradientUnits="userSpaceOnUse"
       x1="14.532227"
       y1="42.393677"
       x2="19.540161"
       y2="37.501221"
       gradientTransform="matrix(2.0000001,0,0,2.0000001,-2.000002,-42)" />
    <linearGradient
       inkscape:collect="always"
       xlink:href="#linearGradient11941"
       id="linearGradient11943"
       x1="5.1081543"
       y1="42.191895"
       x2="7.4692383"
       y2="33.279785"
       gradientUnits="userSpaceOnUse"
       gradientTransform="translate(14.999999,-2.0000004)" />
    <linearGradient
       inkscape:collect="always"
       id="linearGradient11941">
      <stop
         style="stop-color:#f89af4;stop-opacity:0"
         offset="0"
         id="stop11937" />
      <stop
         style="stop-color:#f89af4;stop-opacity:0"
         offset="0.40000001"
         id="stop12523" />
      <stop
         style="stop-color:#f89af4;stop-opacity:1"
         offset="0.5"
         id="stop12201" />
      <stop
         style="stop-color:#f89af4;stop-opacity:0"
         offset="0.60000002"
         id="stop12781" />
      <stop
         style="stop-color:#f89af4;stop-opacity:0;"
         offset="1"
         id="stop11939" />
    </linearGradient>
    <linearGradient
       inkscape:collect="always"
       xlink:href="#linearGradient16450"
       id="linearGradient16452"
       x1="17.605227"
       y1="29.40974"
       x2="27.150551"
       y2="39.243584"
       gradientUnits="userSpaceOnUse"
       gradientTransform="translate(14.999999,-2.0000004)" />
    <linearGradient
       inkscape:collect="always"
       id="linearGradient16450">
      <stop
         style="stop-color:#6fef7e;stop-opacity:0"
         offset="0"
         id="stop16446" />
      <stop
         style="stop-color:#6fef7e;stop-opacity:0"
         offset="0.44792882"
         id="stop17132" />
      <stop
         style="stop-color:#6fef7e;stop-opacity:1"
         offset="0.5"
         id="stop16680" />
      <stop
         style="stop-color:#6fef7e;stop-opacity:0"
         offset="0.55000001"
         id="stop16938" />
      <stop
         style="stop-color:#6fef7e;stop-opacity:0;"
         offset="1"
         id="stop16448" />
    </linearGradient>
    <linearGradient
       inkscape:collect="always"
       xlink:href="#linearGradient219586"
       id="linearGradient2185"
       gradientUnits="userSpaceOnUse"
       gradientTransform="matrix(1.0201528,0,0,0.98431652,-82.351305,-196.27412)"
       x1="112.09232"
       y1="238.0069"
       x2="112.17286"
       y2="254.33937" />
  </defs>
  <path
     id="rect846"
     style="fill:#7d7d7b;stroke-width:2;stroke-linecap:round;stroke-linejoin:round"
     d="M 12,4 H 40.5 L 51.999999,15.5 V 60.000002 H 12 Z"
     sodipodi:nodetypes="cccccc" />
  <path
     id="rect1454"
     style="fill:#fafafa;stroke-width:2;stroke-linecap:round;stroke-linejoin:round"
     d="M 13,5 V 59 H 51 V 17 H 40 c -0.554003,0 -1,-0.446 -1,-1 V 5 Z m 27,0 v 11 h 11 z"
     sodipodi:nodetypes="ccccsscccccc" />
  <path
     id="path6272"
     style="opacity:0.4;fill:url(#linearGradient6808);fill-opacity:1;stroke-width:2;stroke-linecap:round;stroke-linejoin:round"
     d="m 31.999999,30 a 8.0000004,8.0000004 0 0 0 -8,8 8.0000004,8.0000004 0 0 0 8,8.000002 A 8.0000004,8.0000004 0 0 0 39.999997,38 8.0000004,8.0000004 0 0 0 31.999999,30 Z m 0,6 A 2.0000001,2.0000001 0 0 1 34,38 a 2.0000001,2.0000001 0 0 1 -2.000001,2.000002 2.0000001,2.0000001 0 0 1 -2,-2.000002 2.0000001,2.0000001 0 0 1 2,-2 z" />
  <path
     id="path9538"
     style="fill:#d0d0d0;fill-opacity:1;stroke-width:2;stroke-linecap:round;stroke-linejoin:round"
     d="m 31.999999,31 a 7.0000001,7.0000001 0 0 0 -7,7 7.0000001,7.0000001 0 0 0 7,7.000003 A 7.0000001,7.0000001 0 0 0 38.999998,38 7.0000001,7.0000001 0 0 0 31.999999,31 Z m 0,1.5 a 5.4999998,5.4999998 0 0 1 5.5,5.5 5.4999998,5.4999998 0 0 1 -5.5,5.500003 5.4999998,5.4999998 0 0 1 -5.5,-5.500003 5.4999998,5.4999998 0 0 1 5.5,-5.5 z" />
  <path
     id="path151229"
     style="fill:url(#linearGradient162118);fill-opacity:1;stroke-width:1.32567;stroke-linecap:round;stroke-linejoin:round"
     d="m 31.999999,22 a 16.000001,16.000001 0 0 0 -16,16 16.000001,16.000001 0 0 0 16,16.000003 A 16.000001,16.000001 0 0 0 47.999998,38 16.000001,16.000001 0 0 0 31.999999,22 Z m 0,10.000002 A 5.9999999,5.9999999 0 0 1 38,38 a 5.9999999,5.9999999 0 0 1 -6.000001,6.000004 5.9999999,5.9999999 0 0 1 -6,-6.000004 5.9999999,5.9999999 0 0 1 6,-5.999998 z" />
  <path
     id="path151229-3"
     style="fill:url(#linearGradient2185);fill-opacity:1;stroke-width:1.32567;stroke-linecap:round;stroke-linejoin:round"
     d="m 37.986325,38.374998 a 5.9999999,5.9999999 0 0 1 -5.986326,5.625006 5.9999999,5.9999999 0 0 1 -4.238281,-1.761721 l -7.066406,7.066409 a 16.000001,16.000001 0 0 0 11.304687,4.695311 16.000001,16.000001 0 0 0 15.962892,-15.001958 z" />
  <path
     id="path151229-3-3"
     style="fill:url(#linearGradient942);fill-opacity:1;stroke-width:1.32567;stroke-linecap:round;stroke-linejoin:round"
     d="m 37.986325,38.374998 a 5.9999999,5.9999999 0 0 1 -5.986326,5.625006 5.9999999,5.9999999 0 0 1 -4.238281,-1.761721 l -7.066406,7.066409 a 16.000001,16.000001 0 0 0 11.304687,4.695311 16.000001,16.000001 0 0 0 15.962892,-15.001958 z" />
  <path
     id="rect2336"
     style="opacity:0.5;fill:url(#linearGradient2498);fill-opacity:1;stroke-width:2;stroke-linecap:round;stroke-linejoin:round"
     d="m 28.123046,22.490234 a 16.000001,16.000001 0 0 0 -11.837891,12.5625 l 9.728516,1.947265 0.0957,0.0155 a 5.9999999,5.9999999 0 0 1 4.441406,-4.814452 z m 9.767578,16.494141 a 6.0000003,6.0000003 0 0 1 -4.441406,4.814456 l 2.427735,9.710937 a 16.000001,16.000001 0 0 0 11.837891,-12.5625 l -9.728519,-1.947269 z" />
  <path
     id="path7246"
     style="opacity:0.5;fill:url(#linearGradient7822);fill-opacity:1;stroke-width:2.5;stroke-linecap:round;stroke-linejoin:round"
     d="m 31.999999,35.5 a 2.4999999,2.4999999 0 0 0 -2.5,2.5 2.4999999,2.4999999 0 0 0 2.5,2.500003 2.4999999,2.4999999 0 0 0 2.5,-2.500003 2.4999999,2.4999999 0 0 0 -2.5,-2.5 z m 0,0.5 A 2.0000001,2.0000001 0 0 1 34,38 a 2.0000001,2.0000001 0 0 1 -2.000001,2.000002 2.0000001,2.0000001 0 0 1 -2,-2.000002 2.0000001,2.0000001 0 0 1 2,-2 z" />
  <path
     id="path7246-2"
     style="opacity:0.5;fill:url(#linearGradient10226);fill-opacity:1;stroke-width:4.99997;stroke-linecap:round;stroke-linejoin:round"
     d="m 31.999999,33.000001 a 4.9999997,4.9999997 0 0 0 -5,4.999999 4.9999997,4.9999997 0 0 0 5,5.000002 A 4.9999997,4.9999997 0 0 0 36.999998,38 4.9999997,4.9999997 0 0 0 31.999999,33.000001 Z m 0,0.499997 A 4.4999996,4.4999996 0 0 1 36.500001,38 4.4999996,4.4999996 0 0 1 31.999999,42.500004 4.4999996,4.4999996 0 0 1 27.5,38 4.4999996,4.4999996 0 0 1 31.999999,33.499998 Z" />
  <path
     id="path151229-7"
     style="opacity:0.5;fill:url(#linearGradient11943);fill-opacity:1;stroke-width:1.32567;stroke-linecap:round;stroke-linejoin:round"
     d="M 17.867187,30.517578 C 16.644032,32.822174 16.003017,35.390926 15.999999,38 c 0.003,2.609076 0.644033,5.177828 1.867188,7.482426 l 8.83789,-4.67969 C 26.245199,39.939896 26.003151,38.977738 25.999999,38 c 0.0032,-0.977739 0.245201,-1.939894 0.705078,-2.802733 z"
     sodipodi:nodetypes="ccccccc" />
  <path
     id="path151229-1"
     style="opacity:0.5;fill:url(#linearGradient16452);fill-opacity:1;stroke-width:1.32567;stroke-linecap:round;stroke-linejoin:round"
     d="m 36.771484,22.728516 -2.982422,9.544924 a 5.9999999,5.9999999 0 0 1 3.828125,3.619139 l 9.36328,-3.509767 A 16.000001,16.000001 0 0 0 36.771484,22.728516 Z" />
  <path
     id="path151229-2"
     style="fill:#d0d0d0;fill-opacity:1;stroke-width:1.32567;stroke-linecap:round;stroke-linejoin:round"
     d="m 31.999999,22 a 16.000001,16.000001 0 0 0 -16,16 16.000001,16.000001 0 0 0 16,16.000003 A 16.000001,16.000001 0 0 0 47.999998,38 16.000001,16.000001 0 0 0 31.999999,22 Z m 0,0.5 A 15.500001,15.500001 0 0 1 47.499997,38 15.500001,15.500001 0 0 1 31.999999,53.500002 15.500001,15.500001 0 0 1 16.499999,38 a 15.500001,15.500001 0 0 1 15.5,-15.5 z" />
</svg>
