<?xml version="1.0" encoding="UTF-8" standalone="no"?>
<!-- Created with Inkscape (http://www.inkscape.org/) -->

<svg
   width="64"
   height="64"
   viewBox="0 0 64 64"
   version="1.1"
   id="svg5"
   inkscape:version="1.2.1 (9c6d41e410, 2022-07-14, custom)"
   sodipodi:docname="application-vnd.ms-powerpoint.svg"
   xmlns:inkscape="http://www.inkscape.org/namespaces/inkscape"
   xmlns:sodipodi="http://sodipodi.sourceforge.net/DTD/sodipodi-0.dtd"
   xmlns="http://www.w3.org/2000/svg"
   xmlns:svg="http://www.w3.org/2000/svg">
  <sodipodi:namedview
     id="namedview7"
     pagecolor="#ffffff"
     bordercolor="#000000"
     borderopacity="0.25"
     inkscape:showpageshadow="2"
     inkscape:pageopacity="0.0"
     inkscape:pagecheckerboard="0"
     inkscape:deskcolor="#d1d1d1"
     inkscape:document-units="px"
     showgrid="false"
     inkscape:zoom="12.921875"
     inkscape:cx="32"
     inkscape:cy="32"
     inkscape:window-width="1920"
     inkscape:window-height="1029"
     inkscape:window-x="0"
     inkscape:window-y="0"
     inkscape:window-maximized="1"
     inkscape:current-layer="svg5"
     showguides="false" />
  <defs
     id="defs2" />
  <path
     id="rect846"
     style="fill:#7d7d7b;stroke-width:2;stroke-linecap:round;stroke-linejoin:round"
     d="M 12,4 H 40.5 L 51.999999,15.5 V 60.000002 H 12 Z"
     sodipodi:nodetypes="cccccc" />
  <path
     id="rect1454"
     style="fill:#fafafa;stroke-width:2;stroke-linecap:round;stroke-linejoin:round"
     d="M 13,5 V 59 H 51 V 17 H 40 c -0.554003,0 -1,-0.446 -1,-1 V 5 Z m 27,0 v 11 h 11 z"
     sodipodi:nodetypes="ccccsscccccc" />
  <path
     id="rect8443"
     style="fill:#c0c5cb;fill-opacity:1;stroke-width:3;stroke-linecap:round;stroke-linejoin:round"
     d="m 36,22.048829 c -5.052808,0.502222 -9,4.766191 -9,9.951172 0,5.522847 4.477152,10.000002 10,10.000002 5.184982,0 9.44895,-3.947195 9.951174,-9.000002 H 37.999999 36 v -2 z M 18,45.000003 c -0.554,0 -1,0.446 -1,0.999999 0,0.553999 0.446,1.000003 1,1.000003 h 28.000004 c 0.553999,0 0.999999,-0.446004 0.999999,-1.000003 0,-0.553999 -0.446,-0.999999 -0.999999,-0.999999 z m 0,5.000001 c -0.554,0 -1,0.446 -1,0.999999 0,0.554 0.446,0.999999 1,0.999999 h 28.000004 c 0.553999,0 0.999999,-0.445999 0.999999,-0.999999 0,-0.553999 -0.446,-0.999999 -0.999999,-0.999999 z"
     sodipodi:nodetypes="csscccccssssssssssssss" />
  <path
     id="path928"
     style="fill:#e8ab72;fill-opacity:1;stroke-width:3;stroke-linecap:round;stroke-linejoin:round"
     d="m 37.999999,22.050782 v 8.949219 h 8.949221 a 9.9999997,9.9999997 0 0 0 -8.949221,-8.949219 z" />
  <path
     id="rect1973"
     style="fill:#cb3a22;stroke-width:3;stroke-linecap:round;stroke-linejoin:round"
     d="M 7.0000002,21 H 26.999999 c 1.662,0 3,1.338 3,3 v 20.000001 c 0,1.661998 -1.338,3 -3,3 H 7.0000002 C 5.3379999,47.000001 4,45.661999 4,44.000001 V 24 c 0,-1.662 1.3379999,-3 3.0000002,-3 z" />
  <path
     id="rect16145"
     style="fill:#ffffff;fill-opacity:1;stroke-width:1.6282;stroke-linecap:round;stroke-linejoin:round"
     d="m 12,26 v 16 h 2.518616 v -6.056976 h 2.409434 c 3.473477,0 6.034715,-1.60616 6.034715,-5.079635 C 22.962765,27.23795 20.401441,26 16.841129,26 Z m 2.518616,2.041606 h 2.084007 c 2.539979,0 3.863788,0.69428 3.863788,2.821783 0,2.062376 -1.237395,3.039089 -3.755665,3.039089 h -2.19213 z" />
</svg>
