<?xml version="1.0" encoding="UTF-8" standalone="no"?>
<!-- Created with Inkscape (http://www.inkscape.org/) -->

<svg
   width="64"
   height="64"
   viewBox="0 0 64 64"
   version="1.1"
   id="svg5"
   inkscape:version="1.2.1 (9c6d41e410, 2022-07-14, custom)"
   sodipodi:docname="application-vnd.ms-excel.svg"
   xmlns:inkscape="http://www.inkscape.org/namespaces/inkscape"
   xmlns:sodipodi="http://sodipodi.sourceforge.net/DTD/sodipodi-0.dtd"
   xmlns="http://www.w3.org/2000/svg"
   xmlns:svg="http://www.w3.org/2000/svg">
  <sodipodi:namedview
     id="namedview7"
     pagecolor="#ffffff"
     bordercolor="#000000"
     borderopacity="0.25"
     inkscape:showpageshadow="2"
     inkscape:pageopacity="0.0"
     inkscape:pagecheckerboard="0"
     inkscape:deskcolor="#d1d1d1"
     inkscape:document-units="px"
     showgrid="false"
     inkscape:zoom="12.625"
     inkscape:cx="32"
     inkscape:cy="32"
     inkscape:window-width="1920"
     inkscape:window-height="1010"
     inkscape:window-x="0"
     inkscape:window-y="0"
     inkscape:window-maximized="1"
     inkscape:current-layer="svg5"
     showguides="true" />
  <defs
     id="defs2" />
  <path
     id="rect846"
     style="fill:#7d7d7b;stroke-width:2;stroke-linecap:round;stroke-linejoin:round"
     d="M 12,4 H 40.5 L 51.999999,15.5 V 60.000002 H 12 Z"
     sodipodi:nodetypes="cccccc" />
  <path
     id="rect1454"
     style="fill:#fafafa;stroke-width:2;stroke-linecap:round;stroke-linejoin:round"
     d="M 13,5 V 59 H 51 V 17 H 40 c -0.554003,0 -1,-0.446 -1,-1 V 5 Z m 27,0 v 11 h 11 z"
     sodipodi:nodetypes="ccccsscccccc" />
  <rect
     style="fill:#185c37;fill-opacity:1;stroke-width:2.64574;stroke-linecap:round"
     id="rect341"
     width="7"
     height="3"
     x="32"
     y="38"
     ry="1" />
  <rect
     style="fill:#107c41;fill-opacity:1;stroke-width:2.64574;stroke-linecap:round"
     id="rect343"
     width="7"
     height="3"
     x="32"
     y="32"
     ry="1" />
  <rect
     style="fill:#21a366;fill-opacity:1;stroke-width:2.64574;stroke-linecap:round"
     id="rect345"
     width="7"
     height="3"
     x="32"
     y="26"
     ry="1" />
  <rect
     style="fill:#6dc898;fill-opacity:1;stroke-width:2.04939"
     id="rect518"
     width="7"
     height="3"
     x="41"
     y="26"
     ry="1" />
  <rect
     style="fill:#4fae7f;fill-opacity:1;stroke-width:2.04939"
     id="rect520"
     width="7"
     height="3"
     x="41"
     y="32"
     ry="1" />
  <rect
     style="fill:#134a2c;fill-opacity:1;stroke-width:2.04939"
     id="rect522"
     width="7"
     height="3"
     x="41"
     y="38"
     ry="1" />
  <path
     id="rect1973"
     style="fill:#0c7c42;fill-opacity:1;stroke-width:3;stroke-linecap:round;stroke-linejoin:round"
     d="m 7,21 h 19.999998 c 1.662002,0 3,1.338 3,3 v 20.000001 c 0,1.661998 -1.337998,3 -3,3 H 7 c -1.662,0 -3,-1.338002 -3,-3 V 24 c 0,-1.662 1.338,-3 3,-3 z" />
  <path
     id="rect12096"
     style="fill:#ffffff;fill-opacity:1;stroke-width:1.59295;stroke-linecap:round;stroke-linejoin:round"
     d="M 11.275861,26 15.481199,33.58309 11,41.65361 h 2.612388 l 1.996367,-3.886959 c 0.382343,-0.807091 0.785488,-1.592328 1.210273,-2.548093 h 0.08506 c 0.488533,0.955765 0.892795,1.741002 1.296339,2.548093 l 2.059625,3.886959 h 2.739952 L 18.518793,33.688871 22.702358,26 h -2.590617 l -1.827323,3.674356 c -0.382343,0.722131 -0.679194,1.423284 -1.08271,2.379049 h -0.08505 C 16.62816,31.09764 16.288704,30.396489 15.906399,29.674356 L 14.015815,26 Z" />
</svg>
