<?xml version="1.0" encoding="UTF-8" standalone="no"?>
<!-- Created with Inkscape (http://www.inkscape.org/) -->

<svg
   width="64"
   height="64"
   viewBox="0 0 64 64"
   version="1.1"
   id="svg5"
   inkscape:version="1.2.1 (9c6d41e410, 2022-07-14, custom)"
   sodipodi:docname="application-octet-stream.svg"
   xmlns:inkscape="http://www.inkscape.org/namespaces/inkscape"
   xmlns:sodipodi="http://sodipodi.sourceforge.net/DTD/sodipodi-0.dtd"
   xmlns="http://www.w3.org/2000/svg"
   xmlns:svg="http://www.w3.org/2000/svg">
  <sodipodi:namedview
     id="namedview7"
     pagecolor="#ffffff"
     bordercolor="#000000"
     borderopacity="0.25"
     inkscape:showpageshadow="2"
     inkscape:pageopacity="0.0"
     inkscape:pagecheckerboard="0"
     inkscape:deskcolor="#d1d1d1"
     inkscape:document-units="px"
     showgrid="false"
     inkscape:zoom="12.53125"
     inkscape:cx="32"
     inkscape:cy="32"
     inkscape:window-width="1920"
     inkscape:window-height="1011"
     inkscape:window-x="0"
     inkscape:window-y="0"
     inkscape:window-maximized="1"
     inkscape:current-layer="svg5"
     showguides="false" />
  <defs
     id="defs2" />
  <path
     id="rect846"
     style="fill:#7d7d7b;stroke-width:2;stroke-linecap:round;stroke-linejoin:round"
     d="M 12,4 H 40.5 L 51.999999,15.5 V 60.000002 H 12 Z"
     sodipodi:nodetypes="cccccc" />
  <path
     id="rect1454"
     style="fill:#fafafa;stroke-width:2;stroke-linecap:round;stroke-linejoin:round"
     d="M 13,5 V 59 H 51 V 17 H 40 c -0.554003,0 -1,-0.446 -1,-1 V 5 Z m 27,0 v 11 h 11 z"
     sodipodi:nodetypes="ccccsscccccc" />
  <path
     id="path2107"
     style="font-size:14.6667px;font-family:'Segoe UI';-inkscape-font-specification:'Segoe UI';text-align:center;text-anchor:middle;fill:#b4b4b4;stroke-linecap:round;stroke-linejoin:round"
     d="m 21.125,19 c -0.181424,0.157553 -0.396267,0.319228 -0.644531,0.486328 -0.248265,0.162327 -0.513238,0.319878 -0.794922,0.472656 -0.27691,0.148004 -0.56033,0.284071 -0.851563,0.408204 -0.286459,0.119357 -0.558593,0.215494 -0.816406,0.287109 v 1.189453 c 0.229167,-0.05729 0.462456,-0.136068 0.701172,-0.236328 0.24349,-0.100261 0.472656,-0.207682 0.6875,-0.322266 0.219618,-0.114583 0.416015,-0.229167 0.587891,-0.34375 0.176649,-0.119358 0.309678,-0.225694 0.40039,-0.316406 v 8.873047 h 1.173828 V 19 Z m 7.240234,0.05664 c -0.558594,0 -1.055772,0.120659 -1.490234,0.359375 -0.429688,0.233941 -0.788845,0.584852 -1.080078,1.052734 -0.291233,0.463108 -0.513238,1.037108 -0.666016,1.724609 -0.148004,0.687501 -0.222656,1.481336 -0.222656,2.378907 0,0.816407 0.07161,1.540798 0.214844,2.175781 0.143229,0.630209 0.353949,1.163193 0.630859,1.597656 0.276911,0.434462 0.614583,0.766927 1.015625,0.996094 0.405816,0.224392 0.867187,0.335937 1.382813,0.335937 0.544271,0 1.02821,-0.117621 1.453125,-0.351562 0.429687,-0.238716 0.790798,-0.58355 1.082031,-1.03711 0.296008,-0.458334 0.52105,-1.019964 0.673828,-1.683593 0.157553,-0.66363 0.236328,-1.425781 0.236328,-2.285157 0,-3.509119 -1.077254,-5.263671 -3.230469,-5.263671 z m 7.90625,0 c -0.558594,0 -1.055772,0.120659 -1.490234,0.359375 -0.429688,0.233941 -0.788845,0.584852 -1.080078,1.052734 -0.291233,0.463108 -0.513238,1.037108 -0.666016,1.724609 -0.148004,0.687501 -0.222656,1.481336 -0.222656,2.378907 0,0.816407 0.07161,1.540798 0.214844,2.175781 0.143229,0.630209 0.353949,1.163193 0.630859,1.597656 0.276911,0.434462 0.614583,0.766927 1.015625,0.996094 0.405816,0.224392 0.867187,0.335937 1.382813,0.335937 0.544272,0 1.028211,-0.117621 1.453125,-0.351562 0.429688,-0.238716 0.790798,-0.58355 1.082031,-1.03711 0.296007,-0.458334 0.52105,-1.019964 0.673828,-1.683593 0.157553,-0.66363 0.236328,-1.425781 0.236328,-2.285157 0,-3.509119 -1.077254,-5.263671 -3.230469,-5.263671 z m 7.90625,0 c -0.558594,0 -1.055772,0.120659 -1.490234,0.359375 -0.429688,0.233941 -0.788845,0.584852 -1.080078,1.052734 -0.291233,0.463108 -0.513238,1.037108 -0.666016,1.724609 -0.148003,0.687501 -0.222656,1.481336 -0.222656,2.378907 0,0.816407 0.07162,1.540798 0.214844,2.175781 0.143229,0.630209 0.353949,1.163193 0.630859,1.597656 0.27691,0.434462 0.614583,0.766927 1.015625,0.996094 0.405816,0.224392 0.867186,0.335937 1.382813,0.335937 0.544271,0 1.028211,-0.117621 1.453125,-0.351562 0.429688,-0.238716 0.790798,-0.58355 1.082031,-1.03711 0.296007,-0.458334 0.52105,-1.019964 0.673828,-1.683593 0.157553,-0.66363 0.236328,-1.425781 0.236328,-2.285157 0,-3.509119 -1.077254,-5.263671 -3.230469,-5.263671 z m -15.86914,0.996093 c 1.389324,0 2.083984,1.460934 2.083984,4.382813 0,2.826392 -0.708982,4.240234 -2.126953,4.240234 -1.437068,0 -2.15625,-1.388235 -2.15625,-4.162109 0,-2.974396 0.733505,-4.460938 2.199219,-4.460938 z m 7.90625,0 c 1.389324,0 2.083984,1.460934 2.083984,4.382813 0,2.826392 -0.708982,4.240234 -2.126953,4.240234 -1.437068,0 -2.15625,-1.388235 -2.15625,-4.162109 0,-2.974396 0.733505,-4.460938 2.199219,-4.460938 z m 7.90625,0 c 1.389324,0 2.083984,1.460934 2.083984,4.382813 0,2.826392 -0.708982,4.240234 -2.126953,4.240234 -1.437068,0 -2.15625,-1.388235 -2.15625,-4.162109 0,-2.974396 0.733505,-4.460938 2.199219,-4.460938 z M 29.03125,32.334117 c -0.181424,0.157553 -0.396267,0.319227 -0.644531,0.486328 -0.248265,0.162327 -0.513238,0.319879 -0.794922,0.472657 -0.27691,0.148004 -0.56033,0.284071 -0.851563,0.408203 -0.286459,0.119358 -0.558593,0.215495 -0.816406,0.287109 v 1.1875 c 0.229167,-0.05729 0.462456,-0.136067 0.701172,-0.236328 0.24349,-0.10026 0.472656,-0.207682 0.6875,-0.322265 0.219618,-0.114584 0.416015,-0.229167 0.587891,-0.34375 0.176649,-0.119358 0.309678,-0.223742 0.40039,-0.314454 v 8.873047 h 1.173828 V 32.334117 Z m -8.572266,0.05664 c -0.558594,0 -1.055772,0.118706 -1.490234,0.357422 -0.429688,0.233941 -0.788845,0.584851 -1.080078,1.052734 -0.291233,0.463108 -0.513238,1.039062 -0.666016,1.726563 C 17.074652,36.214978 17,37.006859 17,37.90443 c 0,0.816407 0.07162,1.542751 0.214844,2.177734 0.14323,0.63021 0.353949,1.163194 0.630859,1.597657 0.276911,0.434462 0.614583,0.764973 1.015625,0.99414 0.405816,0.224393 0.867187,0.337891 1.382813,0.337891 0.544271,0 1.02821,-0.117622 1.453125,-0.351563 0.429687,-0.238716 0.790798,-0.585503 1.082031,-1.039062 0.296008,-0.458334 0.52105,-1.018012 0.673828,-1.681641 0.157553,-0.663629 0.236328,-1.42578 0.236328,-2.285156 0,-3.509119 -1.077253,-5.263672 -3.230469,-5.263672 z m 15.8125,0 c -0.558594,0 -1.055772,0.118706 -1.490234,0.357422 -0.429688,0.233941 -0.788845,0.584851 -1.080078,1.052734 -0.291233,0.463108 -0.513238,1.039062 -0.666016,1.726563 -0.148004,0.687501 -0.222656,1.479382 -0.222656,2.376953 0,0.816407 0.07161,1.542751 0.214844,2.177734 0.143229,0.63021 0.353949,1.163194 0.630859,1.597657 0.276911,0.434462 0.614583,0.764973 1.015625,0.99414 0.405816,0.224393 0.867187,0.337891 1.382813,0.337891 0.544272,0 1.028211,-0.117622 1.453125,-0.351563 0.429688,-0.238716 0.790798,-0.585503 1.082031,-1.039062 0.296007,-0.458334 0.52105,-1.018012 0.673828,-1.681641 0.157553,-0.663629 0.236328,-1.42578 0.236328,-2.285156 0,-3.509119 -1.077254,-5.263672 -3.230469,-5.263672 z m 7.90625,0 c -0.558594,0 -1.055772,0.118706 -1.490234,0.357422 -0.429688,0.233941 -0.788845,0.584851 -1.080078,1.052734 -0.291233,0.463108 -0.513238,1.039062 -0.666016,1.726563 -0.148003,0.687501 -0.222656,1.479382 -0.222656,2.376953 0,0.816407 0.07162,1.542751 0.214844,2.177734 0.143229,0.63021 0.353949,1.163194 0.630859,1.597657 0.27691,0.434462 0.614583,0.764973 1.015625,0.99414 0.405816,0.224393 0.867186,0.337891 1.382813,0.337891 0.544271,0 1.028211,-0.117622 1.453125,-0.351563 0.429688,-0.238716 0.790798,-0.585503 1.082031,-1.039062 0.296007,-0.458334 0.52105,-1.018012 0.673828,-1.681641 0.157553,-0.663629 0.236328,-1.42578 0.236328,-2.285156 0,-3.509119 -1.077254,-5.263672 -3.230469,-5.263672 z m -23.77539,0.996094 c 1.389324,0 2.083984,1.460933 2.083984,4.382812 0,2.826393 -0.708982,4.238281 -2.126953,4.238281 -1.437068,10e-7 -2.15625,-1.386281 -2.15625,-4.160156 0,-2.974396 0.733505,-4.460937 2.199219,-4.460937 z m 15.8125,0 c 1.389324,0 2.083984,1.460933 2.083984,4.382812 0,2.826393 -0.708982,4.238281 -2.126953,4.238281 -1.437068,10e-7 -2.15625,-1.386281 -2.15625,-4.160156 0,-2.974396 0.733505,-4.460937 2.199219,-4.460937 z m 7.90625,0 c 1.389324,0 2.083984,1.460933 2.083984,4.382812 0,2.826393 -0.708982,4.238281 -2.126953,4.238281 -1.437068,10e-7 -2.15625,-1.386281 -2.15625,-4.160156 0,-2.974396 0.733505,-4.460937 2.199219,-4.460937 z M 36.9375,45.666133 c -0.181424,0.157552 -0.396267,0.32118 -0.644531,0.488281 -0.248265,0.162326 -0.513238,0.319878 -0.794922,0.472656 -0.27691,0.148003 -0.56033,0.284071 -0.851563,0.408203 -0.286459,0.119358 -0.558593,0.213542 -0.816406,0.285156 v 1.189454 c 0.229167,-0.05729 0.462457,-0.136068 0.701172,-0.236328 0.24349,-0.100261 0.472656,-0.207682 0.6875,-0.322266 0.219618,-0.114583 0.416015,-0.229167 0.587891,-0.34375 0.176649,-0.119358 0.309678,-0.223741 0.40039,-0.314453 v 8.873047 h 1.173828 v -10.5 z m -16.478516,0.05859 c -0.558594,0 -1.055772,0.118707 -1.490234,0.357422 -0.429688,0.233942 -0.788845,0.584852 -1.080078,1.052735 -0.291233,0.463108 -0.513238,1.039061 -0.666016,1.726562 C 17.074652,49.548946 17,50.340828 17,51.238398 c 0,0.816408 0.07162,1.542751 0.214844,2.177735 0.14323,0.630208 0.353949,1.16124 0.630859,1.595703 0.276911,0.434462 0.614583,0.766926 1.015625,0.996093 0.405816,0.224393 0.867187,0.335938 1.382813,0.335938 0.544271,0 1.02821,-0.115668 1.453125,-0.349609 0.429687,-0.238716 0.790798,-0.585503 1.082031,-1.039063 0.296008,-0.458334 0.52105,-1.019964 0.673828,-1.683594 0.157553,-0.663629 0.236328,-1.423827 0.236328,-2.283203 0,-3.509119 -1.077253,-5.263672 -3.230469,-5.263672 z m 7.90625,0 c -0.558594,0 -1.055772,0.118707 -1.490234,0.357422 -0.429688,0.233942 -0.788845,0.584852 -1.080078,1.052735 -0.291233,0.463108 -0.513238,1.039061 -0.666016,1.726562 -0.148004,0.687501 -0.222656,1.479383 -0.222656,2.376953 0,0.816408 0.07161,1.542751 0.214844,2.177735 0.143229,0.630208 0.353949,1.16124 0.630859,1.595703 0.276911,0.434462 0.614583,0.766926 1.015625,0.996093 0.405816,0.224393 0.867187,0.335938 1.382813,0.335938 0.544271,0 1.02821,-0.115668 1.453125,-0.349609 0.429687,-0.238716 0.790798,-0.585503 1.082031,-1.039063 0.296008,-0.458334 0.52105,-1.019964 0.673828,-1.683594 0.157553,-0.663629 0.236328,-1.423827 0.236328,-2.283203 0,-3.509119 -1.077254,-5.263672 -3.230469,-5.263672 z m 15.8125,0 c -0.558594,0 -1.055772,0.118707 -1.490234,0.357422 -0.429688,0.233942 -0.788845,0.584852 -1.080078,1.052735 -0.291233,0.463108 -0.513238,1.039061 -0.666016,1.726562 -0.148003,0.687501 -0.222656,1.479383 -0.222656,2.376953 0,0.816408 0.07162,1.542751 0.214844,2.177735 0.143229,0.630208 0.353949,1.16124 0.630859,1.595703 0.27691,0.434462 0.614583,0.766926 1.015625,0.996093 0.405816,0.224393 0.867186,0.335938 1.382813,0.335938 0.544271,0 1.028211,-0.115668 1.453125,-0.349609 0.429688,-0.238716 0.790798,-0.585503 1.082031,-1.039063 0.296007,-0.458334 0.52105,-1.019964 0.673828,-1.683594 0.157553,-0.663629 0.236328,-1.423827 0.236328,-2.283203 0,-3.509119 -1.077254,-5.263672 -3.230469,-5.263672 z m -23.77539,0.994141 c 1.389324,0 2.083984,1.460934 2.083984,4.382812 0,2.826393 -0.708982,4.240235 -2.126953,4.240235 -1.437068,0 -2.15625,-1.386282 -2.15625,-4.160156 0,-2.974397 0.733505,-4.462891 2.199219,-4.462891 z m 7.90625,0 c 1.389324,0 2.083984,1.460934 2.083984,4.382812 0,2.826393 -0.708982,4.240235 -2.126953,4.240235 -1.437068,0 -2.15625,-1.386282 -2.15625,-4.160156 0,-2.974397 0.733505,-4.462891 2.199219,-4.462891 z m 15.8125,0 c 1.389324,0 2.083984,1.460934 2.083984,4.382812 0,2.826393 -0.708982,4.240235 -2.126953,4.240235 -1.437068,0 -2.15625,-1.386282 -2.15625,-4.160156 0,-2.974397 0.733505,-4.462891 2.199219,-4.462891 z"
     sodipodi:nodetypes="ccccccccccccccscccscscscccssscccscscscccssscccscscscccsssssssssssssssssccccccccccccccscccscscscccssscccscscscccssscccscscscccsssssssssssssssssccccccccccccccscccscscscccssscccscscscccssscccscscscccsssssssssssssssss" />
</svg>
