<?xml version="1.0" encoding="UTF-8" standalone="no"?>
<!-- Created with Inkscape (http://www.inkscape.org/) -->

<svg
   width="64"
   height="64"
   viewBox="0 0 64 64"
   version="1.1"
   id="svg5"
   inkscape:version="1.2.1 (9c6d41e410, 2022-07-14, custom)"
   sodipodi:docname="application-vnd.ms-powerpoint.template.macroenabled.12.svg"
   xmlns:inkscape="http://www.inkscape.org/namespaces/inkscape"
   xmlns:sodipodi="http://sodipodi.sourceforge.net/DTD/sodipodi-0.dtd"
   xmlns="http://www.w3.org/2000/svg"
   xmlns:svg="http://www.w3.org/2000/svg">
  <sodipodi:namedview
     id="namedview7"
     pagecolor="#ffffff"
     bordercolor="#000000"
     borderopacity="0.25"
     inkscape:showpageshadow="2"
     inkscape:pageopacity="0.0"
     inkscape:pagecheckerboard="0"
     inkscape:deskcolor="#d1d1d1"
     inkscape:document-units="px"
     showgrid="false"
     inkscape:zoom="12.625"
     inkscape:cx="32"
     inkscape:cy="32"
     inkscape:window-width="1920"
     inkscape:window-height="1010"
     inkscape:window-x="0"
     inkscape:window-y="0"
     inkscape:window-maximized="1"
     inkscape:current-layer="svg5"
     showguides="false" />
  <defs
     id="defs2" />
  <path
     id="rect1054"
     style="fill:#7d7d7b;stroke-width:3;stroke-linecap:round;stroke-linejoin:round"
     d="m 11,4 h 36.000007 l 5.999992,2 4e-6,54.000005 H 14.999998 V 55.999999 H 11 Z"
     sodipodi:nodetypes="cccccccc" />
  <path
     id="rect1308"
     style="fill:#fafafa;fill-opacity:1;stroke-width:3.99999;stroke-linecap:round;stroke-linejoin:round"
     d="M 12,17 V 55 H 48.000001 V 17 Z M 49,6 V 55.999999 H 16.000001 v 3 H 52 V 6.5 Z"
     sodipodi:nodetypes="cccccccccccc" />
  <path
     id="path345"
     style="fill:#e77d57;fill-opacity:1;stroke-width:3.19974"
     d="M 36 27 A 8 8 0 0 0 32 28.091797 L 32 41.908203 A 8 8 0 0 0 36 43 A 8 8 0 0 0 44 35 L 36 35 L 36 27 z " />
  <path
     id="path649"
     style="fill:#ed6c47;fill-opacity:1;stroke-width:4"
     d="M 32 35 L 32 41.927734 A 8 8 0 0 0 36 43 A 8 8 0 0 0 44 35 L 32 35 z " />
  <path
     id="path344"
     style="fill:#f1ab69;fill-opacity:1;stroke-width:2.66666;stroke-linecap:round"
     d="m 38,25 v 8 h 8 a 7.9999986,7.9999986 0 0 0 -8,-8 z" />
  <path
     id="rect6964"
     style="fill:#efa276;fill-opacity:1;stroke-width:2.78796;stroke-linecap:round;stroke-linejoin:round"
     d="M 11.000002,4.000001 47.999998,4 V 18 H 11.000002 Z"
     sodipodi:nodetypes="ccccc" />
  <path
     id="rect13579"
     style="fill:#dc772e;fill-opacity:1;stroke-width:2.82019;stroke-linecap:round;stroke-linejoin:round"
     d="m 47.999998,4 v 2 l 5.000001,2 V 6 Z M 11,17 v 1 h 36.999998 v -1 z"
     sodipodi:nodetypes="cccccccccc" />
  <path
     id="rect1973"
     style="fill:#cb3a22;stroke-width:3;stroke-linecap:round;stroke-linejoin:round"
     d="M 6.9999999,22 H 27 c 1.662,0 3,1.338 3,3 v 20 c 0,1.661998 -1.338,3 -3,3 H 6.9999999 C 5.3379999,48 4,46.661998 4,45 V 25 c 0,-1.662 1.3379999,-3 2.9999999,-3 z" />
  <path
     id="rect16145"
     style="fill:#ffffff;fill-opacity:1;stroke-width:1.6282;stroke-linecap:round;stroke-linejoin:round"
     d="m 12,27 v 15.999999 h 2.518617 v -6.056975 h 2.409434 c 3.473477,0 6.034715,-1.60616 6.034715,-5.079635 C 22.962766,28.237949 20.401441,27 16.841129,27 Z m 2.518617,2.041606 h 2.084007 c 2.539979,0 3.863787,0.694279 3.863787,2.821783 0,2.062375 -1.237394,3.039089 -3.755665,3.039089 h -2.192129 z" />
</svg>
