<?xml version="1.0" encoding="UTF-8" standalone="no"?>
<!-- Created with Inkscape (http://www.inkscape.org/) -->

<svg
   width="64"
   height="64"
   viewBox="0 0 64 64"
   version="1.1"
   id="svg5"
   inkscape:version="1.2.1 (9c6d41e410, 2022-07-14, custom)"
   sodipodi:docname="application-vnd.ms-word.svg"
   xmlns:inkscape="http://www.inkscape.org/namespaces/inkscape"
   xmlns:sodipodi="http://sodipodi.sourceforge.net/DTD/sodipodi-0.dtd"
   xmlns="http://www.w3.org/2000/svg"
   xmlns:svg="http://www.w3.org/2000/svg">
  <sodipodi:namedview
     id="namedview7"
     pagecolor="#ffffff"
     bordercolor="#000000"
     borderopacity="0.25"
     inkscape:showpageshadow="2"
     inkscape:pageopacity="0.0"
     inkscape:pagecheckerboard="0"
     inkscape:deskcolor="#d1d1d1"
     inkscape:document-units="px"
     showgrid="false"
     inkscape:zoom="13.328125"
     inkscape:cx="31.962485"
     inkscape:cy="32"
     inkscape:window-width="1920"
     inkscape:window-height="1029"
     inkscape:window-x="0"
     inkscape:window-y="0"
     inkscape:window-maximized="1"
     inkscape:current-layer="svg5"
     showguides="false" />
  <defs
     id="defs2" />
  <path
     id="rect846"
     style="fill:#7d7d7b;stroke-width:2;stroke-linecap:round;stroke-linejoin:round"
     d="M 12,4 H 40.5 L 51.999999,15.5 V 60.000002 H 12 Z"
     sodipodi:nodetypes="cccccc" />
  <path
     id="rect1454"
     style="fill:#fafafa;stroke-width:2;stroke-linecap:round;stroke-linejoin:round"
     d="M 13,5 V 59 H 51 V 17 H 40 c -0.554003,0 -1,-0.446 -1,-1 V 5 Z m 27,0 v 11 h 11 z"
     sodipodi:nodetypes="ccccsscccccc" />
  <rect
     style="fill:#103f91;fill-opacity:1;stroke-width:0.836656;stroke-linecap:round"
     id="rect445"
     width="14"
     height="1.9999998"
     x="33"
     y="40"
     ry="0.99999988" />
  <rect
     style="fill:#1859bb;fill-opacity:1;stroke-width:3.05505;stroke-linecap:round"
     id="rect341"
     width="14"
     height="2"
     x="33"
     y="35"
     ry="1" />
  <rect
     style="fill:#2b7cd3;fill-opacity:1;stroke-width:3.05505;stroke-linecap:round"
     id="rect343"
     width="14"
     height="2"
     x="33"
     y="30"
     ry="1" />
  <rect
     style="fill:#41a5ee;fill-opacity:1;stroke-width:3.05505;stroke-linecap:round"
     id="rect345"
     width="14"
     height="2"
     x="33"
     y="25"
     ry="1" />
  <path
     id="rect1973"
     style="fill:#1859bb;fill-opacity:1;stroke-width:3;stroke-linecap:round;stroke-linejoin:round"
     d="M 6.9999997,21 H 27 c 1.662002,0 3,1.338 3,3 v 20.000001 c 0,1.661998 -1.337998,3 -3,3 H 6.9999997 C 5.338,47.000001 4,45.661999 4,44.000001 V 24 c 0,-1.662 1.338,-3 2.9999997,-3 z" />
  <path
     id="rect8731"
     style="fill:#ffffff;fill-opacity:1;stroke-width:1.41673;stroke-linecap:round;stroke-linejoin:round"
     d="m 8.9999997,27 2.8150123,13.92195 h 2.662823 l 1.83271,-7.726522 c 0.226677,-1.095606 0.453536,-2.134435 0.661326,-3.192253 h 0.07563 c 0.188897,1.057818 0.415278,2.096647 0.641955,3.192253 l 1.869602,7.726522 H 22.26062 L 24.999998,27 h -2.097422 l -1.321727,7.234916 c -0.226678,1.473391 -0.453577,2.965911 -0.699141,4.477083 h -0.09408 c -0.321122,-1.511172 -0.62336,-3.003692 -0.944484,-4.477083 L 18.048251,27 h -1.945236 l -1.776445,7.234916 c -0.321122,1.473391 -0.661138,2.965911 -0.944486,4.477083 h -0.07471 C 13.042918,37.200827 12.796613,35.727194 12.551047,34.234916 L 11.247767,27 Z" />
</svg>
