<?xml version="1.0" encoding="UTF-8" standalone="no"?>
<!-- Created with Inkscape (http://www.inkscape.org/) -->

<svg
   width="64"
   height="64"
   viewBox="0 0 64 64"
   version="1.1"
   id="svg5"
   inkscape:version="1.2.1 (9c6d41e410, 2022-07-14, custom)"
   sodipodi:docname="application-vnd.ms-access.svg"
   xmlns:inkscape="http://www.inkscape.org/namespaces/inkscape"
   xmlns:sodipodi="http://sodipodi.sourceforge.net/DTD/sodipodi-0.dtd"
   xmlns="http://www.w3.org/2000/svg"
   xmlns:svg="http://www.w3.org/2000/svg">
  <sodipodi:namedview
     id="namedview7"
     pagecolor="#ffffff"
     bordercolor="#000000"
     borderopacity="0.25"
     inkscape:showpageshadow="2"
     inkscape:pageopacity="0.0"
     inkscape:pagecheckerboard="0"
     inkscape:deskcolor="#d1d1d1"
     inkscape:document-units="px"
     showgrid="false"
     inkscape:zoom="12.53125"
     inkscape:cx="31.9601"
     inkscape:cy="32"
     inkscape:window-width="1920"
     inkscape:window-height="1011"
     inkscape:window-x="0"
     inkscape:window-y="0"
     inkscape:window-maximized="1"
     inkscape:current-layer="svg5"
     showguides="true" />
  <defs
     id="defs2" />
  <path
     id="rect846"
     style="fill:#7d7d7b;stroke-width:2;stroke-linecap:round;stroke-linejoin:round"
     d="M 12,4 H 40.5 L 51.999999,15.5 V 60.000002 H 12 Z"
     sodipodi:nodetypes="cccccc" />
  <path
     id="rect1454"
     style="fill:#fafafa;stroke-width:2;stroke-linecap:round;stroke-linejoin:round"
     d="M 13,5 V 59 H 51 V 17 H 40 c -0.554003,0 -1,-0.446 -1,-1 V 5 Z m 27,0 v 11 h 11 z"
     sodipodi:nodetypes="ccccsscccccc" />
  <rect
     style="fill:#c94f60;fill-opacity:1;stroke-width:0.547721;stroke-linecap:round"
     id="rect445-7"
     width="6"
     height="1.9999998"
     x="38"
     y="34"
     ry="0.99999988" />
  <rect
     style="fill:#e08095;fill-opacity:1;stroke-width:2;stroke-linecap:round"
     id="rect341"
     width="6"
     height="2"
     x="38"
     y="30.000002"
     ry="1" />
  <path
     id="rect343"
     style="fill:#af2031;fill-opacity:1;stroke-width:2.3094;stroke-linecap:round"
     d="m 31.999998,34.000004 v 2 h 3 c 0.554,0 1,-0.446 1,-1 0,-0.554 -0.446,-1 -1,-1 z"
     sodipodi:nodetypes="ccsssc" />
  <path
     id="rect345"
     style="fill:#c94f60;fill-opacity:1;stroke-width:2.3094;stroke-linecap:round"
     d="m 31.999998,30 v 2 h 3 c 0.554,0 1,-0.446 1,-1 0,-0.554 -0.446,-1 -1,-1 z"
     sodipodi:nodetypes="ccsssc" />
  <path
     id="rect445"
     style="fill:#c94f60;fill-opacity:1;stroke-width:2;stroke-linecap:round;stroke-linejoin:round"
     d="m 46.000001,27 v 14 c 0,0.552285 -0.447715,1 -1,1 H 32 v 1 h 13.000001 c 1.107995,0 2,-0.892005 2,-2 V 27 Z"
     sodipodi:nodetypes="cssccsscc" />
  <path
     id="rect346"
     style="fill:#e08095;fill-opacity:1;stroke-width:2;stroke-linecap:round;stroke-linejoin:round"
     d="m 31.999998,24 h 13.000001 c 1.108,0 2,0.892 2,2 v 2 H 31.999998 Z"
     sodipodi:nodetypes="cssccc" />
  <path
     id="rect1973"
     style="fill:#af2031;fill-opacity:1;stroke-width:3;stroke-linecap:round;stroke-linejoin:round"
     d="m 7,21 h 19.999998 c 1.662002,0 3,1.338 3,3 v 20.000001 c 0,1.661998 -1.337998,3 -3,3 H 7 c -1.662,0 -3,-1.338002 -3,-3 V 24 c 0,-1.662 1.338,-3 3,-3 z" />
  <path
     d="M 9.3780127,42.008456 15.369652,26.008433 h 2.990241 l 5.94701,16.000023 h -2.912137 l -1.372387,-3.860535 h -6.415628 l -1.327758,3.860535 z m 4.9205093,-6.047427 h 5.00977 l -2.220367,-6.359841 q -0.07811,-0.245468 -0.1339,-0.490937 -0.05578,-0.256624 -0.111579,-0.624825 h -0.06694 q -0.05578,0.334728 -0.122733,0.591353 -0.05578,0.256624 -0.14506,0.502092 z"
     style="font-weight:600;font-size:11.4254px;font-family:'Segoe UI Variable Static Text';-inkscape-font-specification:'Segoe UI Variable Static Text Semi-Bold';text-align:center;text-anchor:middle;fill:#ffffff;stroke-width:1.90423;stroke-linecap:round;stroke-linejoin:round"
     id="path9147" />
  <rect
     style="fill:#881421;fill-opacity:1;stroke-width:3.54965"
     id="rect520"
     width="6"
     height="2"
     x="38"
     y="38"
     ry="1" />
  <path
     id="rect522"
     style="fill:#66121c;fill-opacity:1;stroke-width:3.54965"
     d="M 32 38 L 32 40 L 35 40 C 35.553999 40 36 39.553999 36 39 C 36 38.446001 35.553999 38 35 38 L 32 38 z " />
</svg>
