<?xml version="1.0" encoding="UTF-8" standalone="no"?>
<!-- Created with Inkscape (http://www.inkscape.org/) -->

<svg
   width="64"
   height="64"
   viewBox="0 0 64 64"
   version="1.1"
   id="svg5"
   inkscape:version="1.2.1 (9c6d41e410, 2022-07-14, custom)"
   sodipodi:docname="rpm.svg"
   xmlns:inkscape="http://www.inkscape.org/namespaces/inkscape"
   xmlns:sodipodi="http://sodipodi.sourceforge.net/DTD/sodipodi-0.dtd"
   xmlns:xlink="http://www.w3.org/1999/xlink"
   xmlns="http://www.w3.org/2000/svg"
   xmlns:svg="http://www.w3.org/2000/svg">
  <sodipodi:namedview
     id="namedview7"
     pagecolor="#ffffff"
     bordercolor="#000000"
     borderopacity="0.25"
     inkscape:showpageshadow="2"
     inkscape:pageopacity="0.0"
     inkscape:pagecheckerboard="0"
     inkscape:deskcolor="#d1d1d1"
     inkscape:document-units="px"
     showgrid="false"
     inkscape:zoom="12.8125"
     inkscape:cx="29.892683"
     inkscape:cy="32.039024"
     inkscape:window-width="1920"
     inkscape:window-height="1029"
     inkscape:window-x="0"
     inkscape:window-y="0"
     inkscape:window-maximized="1"
     inkscape:current-layer="svg5"
     showguides="false" />
  <defs
     id="defs2">
    <linearGradient
       inkscape:collect="always"
       xlink:href="#linearGradient10541"
       id="linearGradient4221"
       x1="3.9687502"
       y1="2.9104166"
       x2="3.4395833"
       y2="5.8208332"
       gradientUnits="userSpaceOnUse"
       gradientTransform="matrix(3.7795275,0,0,3.7795275,-2.0000001,-5.0000006)" />
    <linearGradient
       inkscape:collect="always"
       id="linearGradient10541">
      <stop
         style="stop-color:#f1764d;stop-opacity:1"
         offset="0"
         id="stop10537" />
      <stop
         style="stop-color:#f56652;stop-opacity:1"
         offset="1"
         id="stop10539" />
    </linearGradient>
    <linearGradient
       inkscape:collect="always"
       xlink:href="#linearGradient10535"
       id="linearGradient2237"
       x1="2.9104166"
       y1="5.2916665"
       x2="5.2576041"
       y2="5.6950111"
       gradientUnits="userSpaceOnUse"
       gradientTransform="matrix(3.7795275,0,0,3.7795275,-3e-7,-1.0000003)" />
    <linearGradient
       inkscape:collect="always"
       id="linearGradient10535">
      <stop
         style="stop-color:#a2362a;stop-opacity:1"
         offset="0"
         id="stop10531" />
      <stop
         style="stop-color:#7a2826;stop-opacity:1"
         offset="1"
         id="stop10533" />
    </linearGradient>
    <linearGradient
       inkscape:collect="always"
       xlink:href="#linearGradient10535"
       id="linearGradient2944"
       x1="13.493751"
       y1="6.0854168"
       x2="11.906252"
       y2="12.435419"
       gradientUnits="userSpaceOnUse"
       gradientTransform="matrix(3.7795275,0,0,3.7795275,-1.82e-6,-5.0000006)" />
    <linearGradient
       inkscape:collect="always"
       xlink:href="#linearGradient56461"
       id="linearGradient56463"
       x1="-252.87521"
       y1="78.478691"
       x2="-238.4166"
       y2="92.637772"
       gradientUnits="userSpaceOnUse"
       gradientTransform="matrix(2.1440542,0,0,3.1781727,553.17811,-232.41884)" />
    <linearGradient
       inkscape:collect="always"
       id="linearGradient56461">
      <stop
         style="stop-color:#ff6843;stop-opacity:1"
         offset="0"
         id="stop56457-9" />
      <stop
         style="stop-color:#d3322b;stop-opacity:1"
         offset="1"
         id="stop56459-1" />
    </linearGradient>
    <linearGradient
       inkscape:collect="always"
       xlink:href="#linearGradient70845"
       id="linearGradient1579"
       x1="10.537197"
       y1="7.5774555"
       x2="13.497259"
       y2="16.186811"
       gradientUnits="userSpaceOnUse"
       gradientTransform="matrix(3.0404773,0,0,3.4845804,9.9618899,-1.4042529)" />
    <linearGradient
       inkscape:collect="always"
       id="linearGradient70845">
      <stop
         style="stop-color:#cd4e41;stop-opacity:1"
         offset="0"
         id="stop70841-7" />
      <stop
         style="stop-color:#a72d0e;stop-opacity:1"
         offset="1"
         id="stop70843-0" />
    </linearGradient>
    <linearGradient
       inkscape:collect="always"
       xlink:href="#linearGradient10541"
       id="linearGradient4750"
       x1="16.139584"
       y1="5.2916665"
       x2="11.377084"
       y2="7.4083333"
       gradientUnits="userSpaceOnUse"
       gradientTransform="matrix(3.7795275,0,0,3.7795275,-1.0000014,-3.0000008)" />
    <linearGradient
       inkscape:collect="always"
       xlink:href="#linearGradient10541"
       id="linearGradient4939"
       x1="7.1437502"
       y1="2.1166668"
       x2="14.022917"
       y2="6.0854168"
       gradientUnits="userSpaceOnUse"
       gradientTransform="matrix(3.7795275,0,0,3.7795275,-1.9999998,-5.0000006)" />
  </defs>
  <path
     id="rect3961"
     style="fill:url(#linearGradient4221);fill-opacity:1;stroke-width:0.999999"
     d="M 4,13 13,5.9999993 19.999997,9.9999989 17.511076,20.545802 11,16.999999 Z"
     sodipodi:nodetypes="cccccc" />
  <path
     id="rect2034"
     style="fill:url(#linearGradient2237);fill-opacity:1;stroke-width:0.999999"
     d="M 11,16.999999 19.999997,9.9999999 36.222029,49.0721 10.999996,51.000003 Z"
     sodipodi:nodetypes="ccccc" />
  <path
     id="rect2627"
     style="fill:url(#linearGradient2944);fill-opacity:1;stroke-width:0.999999"
     d="m 19.999997,9.9999989 31.000002,8.0000001 4e-6,32.000009 L 19.999997,44 Z"
     sodipodi:nodetypes="ccccc" />
  <path
     id="rect45418"
     style="fill:url(#linearGradient56463);fill-opacity:1;stroke-width:0.690667"
     d="m 11,16.999999 31,8 L 46.000002,24 42,61.999996 11,53.999999 Z"
     sodipodi:nodetypes="cccccc" />
  <path
     id="rect1571"
     style="fill:url(#linearGradient1579);fill-opacity:1;stroke-width:0.861211"
     d="m 42,24.999999 8.999999,-7 V 54.999994 L 42,61.999996 Z"
     sodipodi:nodetypes="ccccc" />
  <path
     id="rect4424"
     style="fill:url(#linearGradient4750);fill-opacity:1;stroke-width:0.999999"
     d="m 50.999999,17.999999 9,-1 -8.000001,7 -9.999998,1 z"
     sodipodi:nodetypes="ccccc" />
  <path
     id="rect4774"
     style="fill:url(#linearGradient4939);fill-opacity:1;stroke-width:0.899331"
     d="m 25.000001,2.9999995 31,7.9999995 -5.000002,7 -31.000002,-8.0000001 z"
     sodipodi:nodetypes="ccccc" />
  <path
     id="rect5659"
     style="fill:#e04232;fill-opacity:1;stroke-width:0.999999"
     d="m 25.000004,2 31,7.9999979 -3e-6,1.0000011 -31,-7.9999995 z"
     sodipodi:nodetypes="ccccc" />
  <path
     id="path7481"
     style="opacity:0.6;fill:#ffffff;fill-opacity:1;stroke-width:0.85714;stroke-linecap:round;stroke-linejoin:round"
     d="M 15.876953,40 A 14.380914,10.013272 50.157052 0 0 11,41.613281 v 3.66211 a 11.984095,8.3443929 50.157051 0 1 9.070312,-2.50586 11.984095,8.3443929 50.157051 0 1 10,13.640625 11.984095,8.3443929 50.157051 0 1 -0.332031,2.425782 l 2.103516,0.542968 a 14.380914,10.013272 50.157052 0 0 0.228515,-2.240234 14.380914,10.013272 50.157052 0 0 -12,-16.369141 A 14.380914,10.013272 50.157052 0 0 15.876953,40 Z m 1.441406,4.253906 c -3.063222,0.0067 -5.248047,2.151738 -5.248047,5.603516 0,0 1.392223,-5.452019 8,-3.087891 0.586585,0.213506 1.15361,0.505465 1.689454,0.857422 l 1.554687,-0.990234 c -0.991495,-0.801226 -2.089331,-1.44687 -3.244141,-1.867188 -0.966498,-0.351777 -1.89425,-0.517494 -2.751953,-0.515625 z m 8.03711,3.914063 -4.636719,2.947265 a 2.3968192,1.6688787 50.157052 0 0 -0.648438,-0.345703 2.3968192,1.6688787 50.157052 0 0 -2,1.273438 2.3968192,1.6688787 50.157052 0 0 2,2.726562 2.3968192,1.6688787 50.157052 0 0 2,-1.271484 2.3968192,1.6688787 50.157052 0 0 -0.03711,-0.390625 l 4.736328,-3.009766 z m 2.132812,4.300781 -1.58789,1.007812 c 0.109833,0.493981 0.169921,0.988807 0.169921,1.476563 l 2,0.728516 c 0,-1.061677 -0.206503,-2.149226 -0.582031,-3.212891 z M 11,53.660156 V 54 l 0.148438,0.03906 A 11.984095,8.3443929 50.157051 0 1 11,53.660156 Z" />
</svg>
