<?xml version="1.0" encoding="UTF-8" standalone="no"?>
<!-- Created with Inkscape (http://www.inkscape.org/) -->

<svg
   width="64"
   height="64"
   viewBox="0 0 64 64"
   version="1.1"
   id="svg5"
   inkscape:version="1.2.1 (9c6d41e410, 2022-07-14, custom)"
   sodipodi:docname="text-x-html.svg"
   xmlns:inkscape="http://www.inkscape.org/namespaces/inkscape"
   xmlns:sodipodi="http://sodipodi.sourceforge.net/DTD/sodipodi-0.dtd"
   xmlns:xlink="http://www.w3.org/1999/xlink"
   xmlns="http://www.w3.org/2000/svg"
   xmlns:svg="http://www.w3.org/2000/svg">
  <sodipodi:namedview
     id="namedview7"
     pagecolor="#ffffff"
     bordercolor="#000000"
     borderopacity="0.25"
     inkscape:showpageshadow="2"
     inkscape:pageopacity="0.0"
     inkscape:pagecheckerboard="0"
     inkscape:deskcolor="#d1d1d1"
     inkscape:document-units="px"
     showgrid="false"
     inkscape:zoom="12.65625"
     inkscape:cx="32"
     inkscape:cy="32"
     inkscape:window-width="1920"
     inkscape:window-height="1012"
     inkscape:window-x="0"
     inkscape:window-y="0"
     inkscape:window-maximized="1"
     inkscape:current-layer="svg5"
     showguides="false" />
  <defs
     id="defs2">
    <linearGradient
       inkscape:collect="always"
       xlink:href="#linearGradient984"
       id="linearGradient7450"
       x1="13.809379"
       y1="13.973848"
       x2="2.3889806"
       y2="3.7831419"
       gradientUnits="userSpaceOnUse"
       gradientTransform="matrix(1.0426283,0,0,1.0426283,23.172414,23.172416)" />
    <linearGradient
       inkscape:collect="always"
       id="linearGradient984">
      <stop
         style="stop-color:#117bb9;stop-opacity:1;"
         offset="0"
         id="stop980" />
      <stop
         style="stop-color:#15b393;stop-opacity:1"
         offset="1"
         id="stop982" />
    </linearGradient>
  </defs>
  <path
     id="rect846"
     style="fill:#7d7d7b;stroke-width:2;stroke-linecap:round;stroke-linejoin:round"
     d="M 12,4 H 40.5 L 51.999999,15.5 V 60.000002 H 12 Z"
     sodipodi:nodetypes="cccccc" />
  <path
     id="rect1454"
     style="fill:#fafafa;stroke-width:2;stroke-linecap:round;stroke-linejoin:round"
     d="M 13,5 V 59 H 51 V 17 H 40 c -0.554003,0 -1,-0.446 -1,-1 V 5 Z m 27,0 v 11 h 11 z"
     sodipodi:nodetypes="ccccsscccccc" />
  <circle
     style="fill:url(#linearGradient7450);fill-opacity:1;stroke-width:1.17467;stroke-linecap:round;stroke-linejoin:round"
     id="path7362"
     cx="32"
     cy="32"
     r="8" />
  <path
     id="path1250"
     style="fill:#ffffff;stroke-width:2;stroke-linecap:round;opacity:0.3"
     d="M 32 24 A 3 8 0 0 1 34.597656 28 L 29.402344 28 A 3 8 0 0 1 32 24 z M 32 24 A 8 8 0 0 0 29.964844 24.277344 A 4 9 0 0 0 28.425781 28 L 25.091797 28 A 8 8 0 0 0 24.601562 29 L 28.238281 29 A 4 9 0 0 0 28 32 A 4 9 0 0 0 28.238281 35 L 24.601562 35 A 8 8 0 0 0 25.091797 36 L 28.425781 36 A 4 9 0 0 0 29.964844 39.722656 A 8 8 0 0 0 32 40 A 3 8 0 0 1 29.402344 36 L 34.597656 36 A 3 8 0 0 1 32 40 A 8 8 0 0 0 34.035156 39.722656 A 4 9 0 0 0 35.574219 36 L 38.908203 36 A 8 8 0 0 0 39.398438 35 L 35.761719 35 A 4 9 0 0 0 36 32 A 4 9 0 0 0 35.769531 29 L 39.414062 29 A 8 8 0 0 0 38.925781 28 L 35.582031 28 A 4 9 0 0 0 34.035156 24.265625 A 8 8 0 0 0 32 24 z M 29.220703 29 L 34.779297 29 A 3 8 0 0 1 35 32 A 3 8 0 0 1 34.779297 35 L 29.220703 35 A 3 8 0 0 1 29 32 A 3 8 0 0 1 29.220703 29 z " />
  <path
     id="rect5109"
     style="opacity:1;fill:#c3c3c3;fill-opacity:1;stroke-width:2;stroke-linecap:round"
     d="m 17,44 v 1 h 30 v -1 z m 0,4 v 1 h 30 v -1 z m 0,4 v 1 h 30 v -1 z"
     sodipodi:nodetypes="ccccccccccccccc" />
  <path
     id="rect7181"
     style="opacity:1;fill:#c3c3c3;stroke-width:2;stroke-linecap:round"
     d="M 22.65625 26.548828 C 22.528441 26.548828 22.400668 26.599332 22.302734 26.697266 L 17 32 L 22.302734 37.302734 C 22.498602 37.498602 22.813898 37.498602 23.009766 37.302734 C 23.205634 37.106866 23.205634 36.791572 23.009766 36.595703 L 18.414062 32 L 23.009766 27.404297 C 23.205634 27.208428 23.205634 26.893134 23.009766 26.697266 C 22.911832 26.599332 22.784059 26.548828 22.65625 26.548828 z M 41.34375 26.550781 C 41.215941 26.550781 41.088168 26.599332 40.990234 26.697266 C 40.794366 26.893134 40.794366 27.208428 40.990234 27.404297 L 45.585938 32 L 40.990234 36.595703 C 40.794366 36.791572 40.794366 37.106866 40.990234 37.302734 C 41.186102 37.498602 41.501398 37.498602 41.697266 37.302734 L 47 32 L 41.697266 26.697266 C 41.599332 26.599332 41.471559 26.550781 41.34375 26.550781 z " />
</svg>
