<?xml version="1.0" encoding="UTF-8" standalone="no"?>
<!-- Created with Inkscape (http://www.inkscape.org/) -->

<svg
   width="64"
   height="64"
   viewBox="0 0 64 64"
   version="1.1"
   id="svg5"
   inkscape:version="1.2.1 (9c6d41e410, 2022-07-14, custom)"
   sodipodi:docname="text-x-java.svg"
   xmlns:inkscape="http://www.inkscape.org/namespaces/inkscape"
   xmlns:sodipodi="http://sodipodi.sourceforge.net/DTD/sodipodi-0.dtd"
   xmlns:xlink="http://www.w3.org/1999/xlink"
   xmlns="http://www.w3.org/2000/svg"
   xmlns:svg="http://www.w3.org/2000/svg">
  <sodipodi:namedview
     id="namedview7"
     pagecolor="#ffffff"
     bordercolor="#000000"
     borderopacity="0.25"
     inkscape:showpageshadow="2"
     inkscape:pageopacity="0.0"
     inkscape:pagecheckerboard="0"
     inkscape:deskcolor="#d1d1d1"
     inkscape:document-units="px"
     showgrid="false"
     inkscape:zoom="12.53125"
     inkscape:cx="32"
     inkscape:cy="32"
     inkscape:window-width="1920"
     inkscape:window-height="1011"
     inkscape:window-x="0"
     inkscape:window-y="0"
     inkscape:window-maximized="1"
     inkscape:current-layer="svg5"
     showguides="false" />
  <defs
     id="defs2">
    <linearGradient
       inkscape:collect="always"
       xlink:href="#linearGradient1221"
       id="linearGradient1223"
       x1="16.156954"
       y1="19.655781"
       x2="22.000704"
       y2="26.999916"
       gradientUnits="userSpaceOnUse"
       gradientTransform="matrix(2.0000494,0,0,2.0000494,-4.9467239e-4,-5.3068526e-4)" />
    <linearGradient
       inkscape:collect="always"
       id="linearGradient1221">
      <stop
         style="stop-color:#4d86da;stop-opacity:0.99996549;"
         offset="0"
         id="stop1217" />
      <stop
         style="stop-color:#1655c3;stop-opacity:0.99996549;"
         offset="1"
         id="stop1219" />
    </linearGradient>
    <linearGradient
       inkscape:collect="always"
       xlink:href="#linearGradient1229"
       id="linearGradient1231"
       x1="19.629608"
       y1="20.226093"
       x2="17.762423"
       y2="10.73"
       gradientUnits="userSpaceOnUse"
       gradientTransform="matrix(2.0000494,0,0,2.0000494,-4.9467239e-4,-5.3068526e-4)" />
    <linearGradient
       inkscape:collect="always"
       id="linearGradient1229">
      <stop
         style="stop-color:#fa7800;stop-opacity:1;"
         offset="0"
         id="stop1225" />
      <stop
         style="stop-color:#faa500;stop-opacity:1;"
         offset="1"
         id="stop1227" />
    </linearGradient>
  </defs>
  <path
     id="rect846"
     style="fill:#7d7d7b;stroke-width:2;stroke-linecap:round;stroke-linejoin:round"
     d="M 12,4 H 40.5 L 51.999999,15.5 V 60.000002 H 12 Z"
     sodipodi:nodetypes="cccccc" />
  <path
     id="rect1454"
     style="fill:#fafafa;stroke-width:2;stroke-linecap:round;stroke-linejoin:round"
     d="M 13,5 V 59 H 51 V 17 H 40 c -0.554003,0 -1,-0.446 -1,-1 V 5 Z m 27,0 v 11 h 11 z"
     sodipodi:nodetypes="ccccsscccccc" />
  <path
     d="m 28.224265,39.136217 c -0.0686,-0.0016 -0.167164,5.08e-4 -0.29688,0.004 -0.778364,0.02044 -2.600317,0.186885 -4.718868,1.210968 -3.340106,1.615674 8.260153,2.352994 14.265977,0.773457 0.624396,-0.42635 1.488319,-0.796894 1.488319,-0.796896 0,0 -2.454879,0.438084 -4.902465,0.644549 -2.994886,0.250938 -6.211548,0.301871 -7.824411,0.08594 -3.819873,-0.510113 2.093799,-1.918017 2.093799,-1.918017 0,0 -0.03688,-0.0024 -0.105463,-0.004 z m 13.086262,0.320321 c -0.391332,0.0011 -0.80808,0.07277 -1.234406,0.222662 -0.342413,0.121563 -0.52345,0.398448 -0.52345,0.398446 0,0 0.216314,-0.08699 0.699235,-0.187504 1.97028,-0.410737 4.792666,2.640147 -1.312532,5.812643 -0.02824,0.07553 -0.125002,0.160264 -0.125002,0.160164 7.134572,-1.875562 5.733773,-6.255328 2.660221,-6.402502 -0.05488,-0.0026 -0.108163,-0.004 -0.164064,-0.004 z m -14.359731,3.906347 c -5.511938,1.829417 3.067784,3.904555 10.769799,1.652384 -0.818671,-0.288649 -1.339878,-0.816427 -1.339878,-0.816427 -3.764175,0.724822 -5.937055,0.702155 -8.69162,0.41798 -2.130085,-0.220325 -0.738301,-1.253937 -0.738301,-1.253937 z m 0.781269,3.281331 c -5.003494,1.398069 3.044046,4.288815 9.414297,1.558631 -1.043379,-0.405738 -1.789108,-0.87502 -1.789108,-0.875022 -2.841658,0.537828 -4.163729,0.57543 -6.742353,0.28126 -2.128503,-0.244707 -0.882836,-0.964869 -0.882836,-0.964869 z m -3.234453,2.562564 c -2.150253,-0.08286 -7.0345,2.066747 -2.867259,2.742253 12.988191,2.106315 23.678057,-0.949173 20.309096,-2.46881 0,0 0.921961,0.757193 -1.011743,1.343783 -3.676996,1.113895 -15.305671,1.45275 -18.535617,0.04688 -1.161082,-0.505111 1.01435,-1.208418 1.699263,-1.355503 0.714297,-0.154904 1.125028,-0.125004 1.125028,-0.125004 -0.161405,-0.113702 -0.411591,-0.171784 -0.718768,-0.183603 z M 44.002,50.917758 c 0,0 -0.410392,1.051956 -4.84387,1.886767 -5.001825,0.941283 -11.169564,0.829825 -14.828492,0.226568 9e-5,-8.8e-5 0.750146,0.620223 4.601677,0.867209 5.860226,0.375129 14.857553,-0.207647 15.070685,-2.980544 z"
     style="fill:url(#linearGradient1223);fill-opacity:1;stroke-width:2.00005"
     id="path370" />
  <path
     d="m 35.525228,21.46 c 1.364216,5.372569 -4.810835,6.997845 -7.039236,10.344006 -1.518231,2.279536 0.744486,4.725715 3.828219,7.507997 -1.202512,-2.717907 -5.282915,-5.097653 0,-9.269761 C 38.902244,24.84123 35.525228,21.46 35.525228,21.46 Z m 3.734467,6.644695 c 0,0 -11.137282,2.783478 -5.816551,8.914283 1.56963,1.807141 -0.414071,3.433677 -0.414071,3.433677 0,0 3.986686,-2.056496 2.156302,-4.632927 -1.709519,-2.402681 -3.022768,-3.598972 4.07432,-7.715033 z"
     style="fill:url(#linearGradient1231);fill-opacity:1;stroke-width:2.00005"
     id="path454" />
</svg>
