<?xml version="1.0" encoding="UTF-8" standalone="no"?>
<!-- Created with Inkscape (http://www.inkscape.org/) -->

<svg
   width="64"
   height="64"
   viewBox="0 0 64 64"
   version="1.1"
   id="svg5"
   inkscape:version="1.2.1 (9c6d41e410, 2022-07-14, custom)"
   sodipodi:docname="text-x-script.svg"
   xmlns:inkscape="http://www.inkscape.org/namespaces/inkscape"
   xmlns:sodipodi="http://sodipodi.sourceforge.net/DTD/sodipodi-0.dtd"
   xmlns="http://www.w3.org/2000/svg"
   xmlns:svg="http://www.w3.org/2000/svg">
  <sodipodi:namedview
     id="namedview7"
     pagecolor="#ffffff"
     bordercolor="#000000"
     borderopacity="0.25"
     inkscape:showpageshadow="2"
     inkscape:pageopacity="0.0"
     inkscape:pagecheckerboard="0"
     inkscape:deskcolor="#d1d1d1"
     inkscape:document-units="px"
     showgrid="false"
     inkscape:zoom="12.53125"
     inkscape:cx="32"
     inkscape:cy="32"
     inkscape:window-width="1920"
     inkscape:window-height="1011"
     inkscape:window-x="0"
     inkscape:window-y="0"
     inkscape:window-maximized="1"
     inkscape:current-layer="svg5"
     showguides="false" />
  <defs
     id="defs2" />
  <path
     id="rect846"
     style="fill:#7d7d7b;stroke-width:2;stroke-linecap:round;stroke-linejoin:round"
     d="M 12,4 H 40.5 L 51.999999,15.5 V 60.000002 H 12 Z"
     sodipodi:nodetypes="cccccc" />
  <path
     id="rect1454"
     style="fill:#fafafa;stroke-width:2;stroke-linecap:round;stroke-linejoin:round"
     d="M 13,5 V 59 H 51 V 17 H 40 c -0.554003,0 -1,-0.446 -1,-1 V 5 Z m 27,0 v 11 h 11 z"
     sodipodi:nodetypes="ccccsscccccc" />
  <path
     id="rect1748"
     style="fill:#999999;fill-opacity:1;stroke-width:2.89827;stroke-linecap:round;stroke-linejoin:round"
     d="m 28.000001,46.999998 v 1.000003 h 18.000001 v -1.000003 z m -10.000001,3 v 1.000003 h 24 v -1.000003 z m 0,3 v 1.000003 h 12.000001 v -1.000003 z"
     sodipodi:nodetypes="ccccccccccccccc" />
  <path
     id="rect845"
     style="fill:#4aa8e5;fill-opacity:1;stroke-width:3;stroke-linecap:round;stroke-linejoin:round"
     d="m 18,23 v 1 h 20 v -1 z m 0,3 v 1 h 14 v -1 z m 0,3 v 1 h 26 v -1 z" />
  <path
     id="rect2215"
     style="fill:#b19af4;fill-opacity:1;stroke-width:2.12132;stroke-linecap:round;stroke-linejoin:round"
     d="m 18,32 v 1 h 8 v -1 z m 0,3 v 1 h 8 v -1 z m 0,3 v 1 h 8 v -1 z" />
  <path
     id="rect2530"
     style="fill:#e89090;fill-opacity:1;stroke-width:3;stroke-linecap:round;stroke-linejoin:round"
     d="m 18,41 v 1 h 8 v -1 z m 0,3 v 1 h 8 v -1 z m 0,3 v 1 h 8 v -1 z" />
  <path
     id="rect2675"
     style="fill:#cb86ee;fill-opacity:1;stroke-width:3;stroke-linecap:round;stroke-linejoin:round"
     d="m 28,32 v 1 h 16 v -1 z m 0,3 v 1 h 18 v -1 z m 0,3 v 1 h 14 v -1 z" />
  <path
     id="rect3319"
     style="fill:#a9ee86;fill-opacity:1;stroke-width:3;stroke-linecap:round;stroke-linejoin:round"
     d="m 28,41 v 1 h 18 v -1 z m 0,3 v 1 h 14 v -1 z" />
</svg>
