<?xml version="1.0" encoding="UTF-8" standalone="no"?>
<!-- Created with Inkscape (http://www.inkscape.org/) -->

<svg
   width="64"
   height="64"
   viewBox="0 0 64 64"
   version="1.1"
   id="svg5"
   inkscape:version="1.2.1 (9c6d41e410, 2022-07-14, custom)"
   sodipodi:docname="text-richtext.svg"
   xmlns:inkscape="http://www.inkscape.org/namespaces/inkscape"
   xmlns:sodipodi="http://sodipodi.sourceforge.net/DTD/sodipodi-0.dtd"
   xmlns="http://www.w3.org/2000/svg"
   xmlns:svg="http://www.w3.org/2000/svg">
  <sodipodi:namedview
     id="namedview7"
     pagecolor="#ffffff"
     bordercolor="#000000"
     borderopacity="0.25"
     inkscape:showpageshadow="2"
     inkscape:pageopacity="0.0"
     inkscape:pagecheckerboard="0"
     inkscape:deskcolor="#d1d1d1"
     inkscape:document-units="px"
     showgrid="false"
     inkscape:zoom="12.625"
     inkscape:cx="32"
     inkscape:cy="32"
     inkscape:window-width="1920"
     inkscape:window-height="1010"
     inkscape:window-x="0"
     inkscape:window-y="0"
     inkscape:window-maximized="1"
     inkscape:current-layer="svg5"
     showguides="false" />
  <defs
     id="defs2" />
  <path
     id="rect846"
     style="fill:#7d7d7b;stroke-width:2;stroke-linecap:round;stroke-linejoin:round"
     d="M 12,4 H 40.5 L 51.999999,15.5 V 60.000002 H 12 Z"
     sodipodi:nodetypes="cccccc" />
  <path
     id="rect1454"
     style="fill:#fafafa;stroke-width:2;stroke-linecap:round;stroke-linejoin:round"
     d="M 13,5 V 59 H 51 V 17 H 40 c -0.554003,0 -1,-0.446 -1,-1 V 5 Z m 27,0 v 11 h 11 z"
     sodipodi:nodetypes="ccccsscccccc" />
  <path
     id="rect1748"
     style="fill:#999999;fill-opacity:1;stroke-width:2.89827;stroke-linecap:round;stroke-linejoin:round"
     d="M 24 24 L 19.357422 37 L 18.5 37 C 18.223 37 18 37.223 18 37.5 C 18 37.777 18.223 38 18.5 38 L 19 38 L 20 38 L 22.5 38 C 22.777 38 23 37.777 23 37.5 C 23 37.223 22.777 37 22.5 37 L 20.375 37 L 21.5 34 L 27.5 34 L 28.625 37 L 27.5 37 C 27.223 37 27 37.223 27 37.5 C 27 37.777 27.223 38 27.5 38 L 31.5 38 C 31.777 38 32 37.777 32 37.5 C 32 37.223 31.777 37 31.5 37 L 30.642578 37 L 26 24 L 24 24 z M 34 25 L 34 26 L 46 26 L 46 25 L 34 25 z M 24.5 25.667969 L 27.25 33 L 21.875 33 L 24.5 25.667969 z M 34 28 L 34 29 L 46 29 L 46 28 L 34 28 z M 34 31 L 34 32 L 46 32 L 46 31 L 34 31 z M 34 34 L 34 35 L 46 35 L 46 34 L 34 34 z M 34 37 L 34 38 L 46 38 L 46 37 L 34 37 z M 18 40 L 18 41 L 46 41 L 46 40 L 18 40 z M 18 43 L 18 44 L 46 44 L 46 43 L 18 43 z M 18 46 L 18 47 L 46 47 L 46 46 L 18 46 z M 18 49 L 18 50 L 46 50 L 46 49 L 18 49 z M 18 52 L 18 53 L 30 53 L 30 52 L 18 52 z " />
</svg>
