<?xml version="1.0" encoding="UTF-8" standalone="no"?>
<!-- Created with Inkscape (http://www.inkscape.org/) -->

<svg
   width="64"
   height="64"
   viewBox="0 0 64 64"
   version="1.1"
   id="svg5"
   inkscape:version="1.2.1 (9c6d41e410, 2022-07-14, custom)"
   sodipodi:docname="unknown.svg"
   xmlns:inkscape="http://www.inkscape.org/namespaces/inkscape"
   xmlns:sodipodi="http://sodipodi.sourceforge.net/DTD/sodipodi-0.dtd"
   xmlns:xlink="http://www.w3.org/1999/xlink"
   xmlns="http://www.w3.org/2000/svg"
   xmlns:svg="http://www.w3.org/2000/svg">
  <sodipodi:namedview
     id="namedview7"
     pagecolor="#ffffff"
     bordercolor="#000000"
     borderopacity="0.25"
     inkscape:showpageshadow="2"
     inkscape:pageopacity="0.0"
     inkscape:pagecheckerboard="0"
     inkscape:deskcolor="#d1d1d1"
     inkscape:document-units="px"
     showgrid="false"
     inkscape:zoom="12.65625"
     inkscape:cx="31.960494"
     inkscape:cy="32"
     inkscape:window-width="1920"
     inkscape:window-height="1012"
     inkscape:window-x="0"
     inkscape:window-y="0"
     inkscape:window-maximized="1"
     inkscape:current-layer="svg5"
     showguides="false" />
  <defs
     id="defs2">
    <linearGradient
       inkscape:collect="always"
       id="linearGradient59376">
      <stop
         style="stop-color:#189ae1;stop-opacity:1;"
         offset="0"
         id="stop59372" />
      <stop
         style="stop-color:#037cd6;stop-opacity:0.99607843"
         offset="1"
         id="stop59374" />
    </linearGradient>
    <linearGradient
       inkscape:collect="always"
       xlink:href="#linearGradient59376"
       id="linearGradient1080"
       x1="31.999998"
       y1="16.999996"
       x2="44"
       y2="56.999996"
       gradientUnits="userSpaceOnUse" />
  </defs>
  <path
     id="rect846"
     style="fill:#7d7d7b;stroke-width:2;stroke-linecap:round;stroke-linejoin:round"
     d="M 12,4 H 40.5 L 51.999999,15.5 V 60.000002 H 12 Z"
     sodipodi:nodetypes="cccccc" />
  <path
     id="rect1454"
     style="fill:#fafafa;stroke-width:2;stroke-linecap:round;stroke-linejoin:round"
     d="M 13,5 V 59 H 51 V 17 H 40 c -0.554003,0 -1,-0.446 -1,-1 V 5 Z m 27,0 v 11 h 11 z"
     sodipodi:nodetypes="ccccsscccccc" />
  <path
     id="path929"
     style="fill:url(#linearGradient1080);stroke-width:0.283641;stroke-linecap:round;stroke-linejoin:round;fill-opacity:1"
     d="m 31.999999,16.999997 c -6.627417,0 -11.999999,5.372583 -11.999999,12 -1e-6,1.104571 0.89543,2 2,2 1.104569,0 2.000001,-0.895429 1.999999,-2 0,-4.418278 3.581722,-8 8,-8 4.418276,1e-6 8,3.581722 8,8 0,2.810973 -1.450009,4.782222 -3.642578,6.208984 -4.451937,2.985457 -6.357422,5.93253 -6.357422,10.791016 -10e-7,1.104571 0.895431,2 2,2 1.104571,0 2.000001,-0.895429 2,-2 0,-3.353747 1.817884,-5.522896 4.154297,-7.201172 3.50098,-2.095323 5.845703,-5.421769 5.845703,-9.798828 0,-6.627417 -5.372585,-11.999998 -12,-12 z m -0.0625,35 c -1.350892,0.03402 -2.437501,1.140863 -2.4375,2.5 -10e-7,1.380718 1.119289,2.5 2.5,2.5 1.380714,0 2.500003,-1.119282 2.5,-2.5 3e-6,-1.380714 -1.119286,-2.5 -2.5,-2.5 -0.02158,0 -0.04107,-5.44e-4 -0.0625,0 z"
     sodipodi:nodetypes="sssssscssscsscssssc" />
</svg>
