<?xml version="1.0" encoding="UTF-8" standalone="no"?>
<!-- Created with Inkscape (http://www.inkscape.org/) -->

<svg
   width="64"
   height="64"
   viewBox="0 0 64 64"
   version="1.1"
   id="svg5"
   inkscape:version="1.2.1 (9c6d41e410, 2022-07-14, custom)"
   sodipodi:docname="video-x-generic.svg"
   xmlns:inkscape="http://www.inkscape.org/namespaces/inkscape"
   xmlns:sodipodi="http://sodipodi.sourceforge.net/DTD/sodipodi-0.dtd"
   xmlns:xlink="http://www.w3.org/1999/xlink"
   xmlns="http://www.w3.org/2000/svg"
   xmlns:svg="http://www.w3.org/2000/svg">
  <sodipodi:namedview
     id="namedview7"
     pagecolor="#ffffff"
     bordercolor="#666666"
     borderopacity="1.0"
     inkscape:pageshadow="2"
     inkscape:pageopacity="0.0"
     inkscape:pagecheckerboard="0"
     inkscape:document-units="px"
     showgrid="false"
     units="px"
     height="64px"
     inkscape:zoom="12.921875"
     inkscape:cx="31.961306"
     inkscape:cy="32"
     inkscape:window-width="1920"
     inkscape:window-height="1029"
     inkscape:window-x="0"
     inkscape:window-y="0"
     inkscape:window-maximized="1"
     inkscape:current-layer="svg5"
     inkscape:showpageshadow="2"
     inkscape:deskcolor="#d1d1d1" />
  <defs
     id="defs2">
    <linearGradient
       inkscape:collect="always"
       xlink:href="#linearGradient12418"
       id="linearGradient2216"
       x1="42"
       y1="6.0000005"
       x2="55"
       y2="29.999998"
       gradientUnits="userSpaceOnUse"
       gradientTransform="matrix(2.0000001,0,0,2.0000001,-65.000003,-3.9999979)" />
    <linearGradient
       inkscape:collect="always"
       id="linearGradient12418">
      <stop
         style="stop-color:#52e4ff;stop-opacity:1;"
         offset="0"
         id="stop12414" />
      <stop
         style="stop-color:#d29eff;stop-opacity:1"
         offset="1"
         id="stop12416" />
    </linearGradient>
    <linearGradient
       inkscape:collect="always"
       id="linearGradient27684">
      <stop
         style="stop-color:#4a4a4a;stop-opacity:1;"
         offset="0"
         id="stop27680" />
      <stop
         style="stop-color:#232323;stop-opacity:0.74901962"
         offset="1"
         id="stop27682" />
    </linearGradient>
    <linearGradient
       inkscape:collect="always"
       xlink:href="#linearGradient27684"
       id="linearGradient1826"
       x1="1.5875002"
       y1="1.5875005"
       x2="14.2875"
       y2="16.404167"
       gradientUnits="userSpaceOnUse"
       gradientTransform="matrix(3.7795276,0,0,3.7795276,1.9999994,-2.0000014)" />
  </defs>
  <rect
     style="fill:url(#linearGradient1826);fill-opacity:1;stroke-width:1.04997;stroke-linecap:round"
     id="rect1818"
     width="48"
     height="56"
     x="8"
     y="4"
     ry="3" />
  <path
     id="rect2063"
     style="fill:url(#linearGradient2216);fill-opacity:1;stroke-width:6;stroke-linecap:round;stroke-linejoin:round"
     d="m 23,8.0000037 c -2.215999,0 -4.000001,1.7840005 -4.000001,4.0000003 v 14.000001 c 0,2.216001 1.784002,3.999999 4.000001,3.999999 h 18.000001 c 2.216001,0 3.999998,-1.783998 3.999998,-3.999999 V 12.000004 c 0,-2.2159998 -1.783997,-4.0000003 -3.999998,-4.0000003 z m 0,26.0000023 c -2.215999,0 -4.000001,1.783998 -4.000001,3.999996 v 14.000001 c 0,2.215997 1.784002,3.999995 4.000001,3.999995 h 18.000001 c 2.216001,0 3.999998,-1.783998 3.999998,-3.999995 V 38.000002 c 0,-2.215998 -1.783997,-3.999996 -3.999998,-3.999996 z"
     sodipodi:nodetypes="ssssssssssssssssss" />
  <path
     id="rect1125"
     style="fill:#ffffff;stroke-width:0.999999;stroke-linecap:round"
     d="m 12,7.0000019 c -0.553999,0 -1.000001,0.4460013 -1.000001,0.9999999 v 4.0000002 c 0,0.553999 0.446002,1 1.000001,1 h 1.999999 c 0.553999,0 1.000001,-0.446001 1.000001,-1 V 8.0000018 C 15,7.4460032 14.553998,7.0000019 13.999999,7.0000019 Z m 37.000002,0 c -0.553999,0 -1.000003,0.4460013 -1.000003,0.9999999 v 4.0000002 c 0,0.553999 0.446004,1 1.000003,1 h 1.999997 c 0.554,0 1.000003,-0.446001 1.000003,-1 V 8.0000018 c 0,-0.5539986 -0.446003,-0.9999999 -1.000003,-0.9999999 z M 12,18.000002 c -0.553999,0 -1.000001,0.446002 -1.000001,1 v 4.000001 c 0,0.553998 0.446002,1 1.000001,1 h 1.999999 c 0.553999,0 1.000001,-0.446002 1.000001,-1 v -4.000001 c 0,-0.553998 -0.446002,-1 -1.000001,-1 z m 37.000002,0 c -0.553999,0 -1.000003,0.446002 -1.000003,1 v 4.000001 c 0,0.553998 0.446004,1 1.000003,1 h 1.999997 c 0.554,0 1.000003,-0.446002 1.000003,-1 v -4.000001 c 0,-0.553998 -0.446003,-1 -1.000003,-1 z M 12,29.000003 c -0.553999,0 -1.000001,0.446001 -1.000001,1 v 3.999999 c 0,0.554 0.446002,1.000001 1.000001,1.000001 h 1.999999 C 14.553998,35.000003 15,34.554002 15,34.000002 v -3.999999 c 0,-0.553999 -0.446002,-1 -1.000001,-1 z m 37.000002,0 c -0.553999,0 -1.000003,0.446001 -1.000003,1 v 3.999999 c 0,0.554 0.446004,1.000001 1.000003,1.000001 h 1.999997 c 0.554,0 1.000003,-0.446001 1.000003,-1.000001 v -3.999999 c 0,-0.553999 -0.446003,-1 -1.000003,-1 z M 12,40.000003 c -0.553999,0 -1.000001,0.445999 -1.000001,0.999999 V 45 c 0,0.554 0.446002,1.000003 1.000001,1.000003 h 1.999999 C 14.553998,46.000003 15,45.554 15,45 v -3.999998 c 0,-0.554 -0.446002,-0.999999 -1.000001,-0.999999 z m 37.000002,0 c -0.553999,0 -1.000003,0.445999 -1.000003,0.999999 V 45 c 0,0.554 0.446004,1.000003 1.000003,1.000003 h 1.999997 c 0.554,0 1.000003,-0.446003 1.000003,-1.000003 v -3.999998 c 0,-0.554 -0.446003,-0.999999 -1.000003,-0.999999 z M 12,51 c -0.553999,0 -1.000001,0.446004 -1.000001,1.000003 v 3.999999 C 10.999999,56.554001 11.446001,57 12,57 h 1.999999 C 14.553998,57 15,56.554001 15,56.000002 V 52.000003 C 15,51.446004 14.553998,51 13.999999,51 Z m 37.000002,0 c -0.553999,0 -1.000003,0.446004 -1.000003,1.000003 v 3.999999 C 47.999999,56.554001 48.446003,57 49.000002,57 h 1.999997 c 0.554,0 1.000003,-0.445999 1.000003,-0.999998 V 52.000003 C 52.000002,51.446004 51.553999,51 50.999999,51 Z" />
</svg>
