<?xml version="1.0" encoding="UTF-8" standalone="no"?>
<!-- Created with Inkscape (http://www.inkscape.org/) -->

<svg
   width="64"
   height="64"
   viewBox="0 0 64 64"
   version="1.1"
   id="svg5"
   inkscape:version="1.2.1 (9c6d41e410, 2022-07-14, custom)"
   sodipodi:docname="x-office-document.svg"
   xmlns:inkscape="http://www.inkscape.org/namespaces/inkscape"
   xmlns:sodipodi="http://sodipodi.sourceforge.net/DTD/sodipodi-0.dtd"
   xmlns="http://www.w3.org/2000/svg"
   xmlns:svg="http://www.w3.org/2000/svg">
  <sodipodi:namedview
     id="namedview7"
     pagecolor="#ffffff"
     bordercolor="#000000"
     borderopacity="0.25"
     inkscape:showpageshadow="2"
     inkscape:pageopacity="0.0"
     inkscape:pagecheckerboard="0"
     inkscape:deskcolor="#d1d1d1"
     inkscape:document-units="px"
     showgrid="false"
     inkscape:zoom="12.921875"
     inkscape:cx="29.91052"
     inkscape:cy="32.077388"
     inkscape:window-width="1920"
     inkscape:window-height="1029"
     inkscape:window-x="0"
     inkscape:window-y="0"
     inkscape:window-maximized="1"
     inkscape:current-layer="svg5"
     showguides="false" />
  <defs
     id="defs2" />
  <path
     id="rect846"
     style="fill:#7d7d7b;stroke-width:2;stroke-linecap:round;stroke-linejoin:round"
     d="M 12,4 H 40.5 L 51.999999,15.5 V 60.000002 H 12 Z"
     sodipodi:nodetypes="cccccc" />
  <path
     id="rect1454"
     style="fill:#fafafa;stroke-width:2;stroke-linecap:round;stroke-linejoin:round"
     d="M 13,5 V 59 H 51 V 17 H 40 c -0.554003,0 -1,-0.446 -1,-1 V 5 Z m 27,0 v 11 h 11 z"
     sodipodi:nodetypes="ccccsscccccc" />
  <path
     id="rect4164"
     style="fill:#69b0ec;fill-opacity:1;stroke-width:3;stroke-linecap:round;stroke-linejoin:round"
     d="M 32.999999,27 C 32.446,27 32,27.446 32,28 c 0,0.554 0.446,1 0.999999,1 h 14 c 0.553999,0 1.000002,-0.446 1.000002,-1 0,-0.554 -0.446003,-1 -1.000002,-1 z m 0,5 C 32.446,32 32,32.446 32,33 c 0,0.554 0.446,1 0.999999,1 h 14 c 0.553999,0 1.000002,-0.446 1.000002,-1 0,-0.554 -0.446003,-1 -1.000002,-1 z"
     sodipodi:nodetypes="ssssssssssssss" />
  <path
     id="path7787"
     style="font-weight:500;font-size:5.02601px;line-height:1.25;font-family:'Noto Sans CJK KR';-inkscape-font-specification:'Noto Sans CJK KR Medium';fill:#2784bd;fill-opacity:1;stroke-width:0.474898"
     d="m 21.999999,20 -4.642578,13 h -0.857422 c -0.277,0 -0.5,0.223 -0.5,0.5 0,0.277 0.223,0.5 0.5,0.5 h 0.5 1 2.5 c 0.277,0 0.5,-0.223 0.5,-0.5 0,-0.277 -0.223,-0.5 -0.5,-0.5 h -2.125 l 1.125,-3 h 6 l 1.125,3 h -1.125 c -0.277,0 -0.5,0.223 -0.5,0.5 0,0.277 0.223,0.5 0.5,0.5 h 4 c 0.277,0 0.5,-0.223 0.5,-0.5 0,-0.277 -0.223,-0.5 -0.5,-0.5 H 28.642577 L 23.999999,20 Z m 0.5,1.667969 2.75,7.332031 h -5.375 z M 16.999999,37 c -0.553998,0 -1,0.446 -1,1 0,0.553997 0.446002,1 1,1 h 30 c 0.554001,0 1,-0.446003 1,-1 0,-0.554 -0.445999,-1 -1,-1 z"
     sodipodi:nodetypes="ccsssccsssccccsssssscccccccsssssss" />
  <path
     id="rect8443"
     style="fill:#c0c5cb;fill-opacity:1;stroke-width:3;stroke-linecap:round;stroke-linejoin:round"
     d="M 16.999999,42 C 16.445999,42 16,42.445999 16,42.999998 c 0,0.554 0.445999,1.000003 0.999999,1.000003 H 29 c 0.554,0 0.999999,-0.446003 0.999999,-1.000003 C 29.999999,42.445999 29.554,42 29,42 Z M 35,42 c -1.108,0 -2.000001,0.891998 -2.000001,2.000001 v 7.999997 c 0,1.108003 0.892001,2.000001 2.000001,2.000001 h 11 c 1.107999,0 2.000001,-0.891998 2.000001,-2.000001 V 44.000001 C 48.000001,42.891998 47.107999,42 46,42 Z M 16.999999,47.000001 C 16.445999,47.000001 16,47.446 16,47.999999 c 0,0.554 0.445999,0.999999 0.999999,0.999999 H 29 c 0.554,0 0.999999,-0.445999 0.999999,-0.999999 C 29.999999,47.446 29.554,47.000001 29,47.000001 Z m 0,4.999997 C 16.446,51.999998 16,52.446001 16,53.000001 c 0,0.553999 0.446,0.999998 0.999999,0.999998 H 29 c 0.553999,0 0.999999,-0.445999 0.999999,-0.999998 0,-0.554 -0.446,-1.000003 -0.999999,-1.000003 z" />
  <rect
     style="fill:#88c0f0;fill-opacity:1;stroke-width:3;stroke-linecap:round;stroke-linejoin:round"
     id="rect9115"
     width="13"
     height="10"
     x="34"
     y="43"
     ry="1" />
</svg>
