<?xml version="1.0" encoding="UTF-8" standalone="no"?>
<!-- Created with Inkscape (http://www.inkscape.org/) -->

<svg
   width="32"
   height="32"
   viewBox="0 0 32 32"
   version="1.1"
   id="svg5"
   inkscape:version="1.2.1 (9c6d41e410, 2022-07-14, custom)"
   sodipodi:docname="application-x-iso.svg"
   xmlns:inkscape="http://www.inkscape.org/namespaces/inkscape"
   xmlns:sodipodi="http://sodipodi.sourceforge.net/DTD/sodipodi-0.dtd"
   xmlns:xlink="http://www.w3.org/1999/xlink"
   xmlns="http://www.w3.org/2000/svg"
   xmlns:svg="http://www.w3.org/2000/svg">
  <sodipodi:namedview
     id="namedview7"
     pagecolor="#ffffff"
     bordercolor="#000000"
     borderopacity="0.25"
     inkscape:showpageshadow="2"
     inkscape:pageopacity="0.0"
     inkscape:pagecheckerboard="0"
     inkscape:deskcolor="#d1d1d1"
     inkscape:document-units="px"
     showgrid="false"
     inkscape:zoom="25.25"
     inkscape:cx="16"
     inkscape:cy="16"
     inkscape:window-width="1920"
     inkscape:window-height="1010"
     inkscape:window-x="0"
     inkscape:window-y="0"
     inkscape:window-maximized="1"
     inkscape:current-layer="svg5" />
  <defs
     id="defs2">
    <linearGradient
       inkscape:collect="always"
       xlink:href="#linearGradient6804"
       id="linearGradient6808"
       x1="2.3812499"
       y1="8.4666672"
       x2="6.6145835"
       y2="12.700001"
       gradientUnits="userSpaceOnUse"
       gradientTransform="matrix(1.8897638,0,0,1.8897638,7.5000004,-1.0000007)" />
    <linearGradient
       inkscape:collect="always"
       id="linearGradient6804">
      <stop
         style="stop-color:#ffffff;stop-opacity:1;"
         offset="0"
         id="stop6800" />
      <stop
         style="stop-color:#ffffff;stop-opacity:0;"
         offset="1"
         id="stop6802" />
    </linearGradient>
    <linearGradient
       inkscape:collect="always"
       xlink:href="#linearGradient162116"
       id="linearGradient162118"
       x1="96.408417"
       y1="238.0069"
       x2="127.77626"
       y2="238.0069"
       gradientUnits="userSpaceOnUse"
       gradientTransform="matrix(0.51007641,0,0,0.49215824,-41.175654,-98.137061)" />
    <linearGradient
       inkscape:collect="always"
       id="linearGradient162116">
      <stop
         style="stop-color:#e3edee;stop-opacity:1;"
         offset="0"
         id="stop162112" />
      <stop
         style="stop-color:#c9cdce;stop-opacity:1"
         offset="1"
         id="stop162114" />
    </linearGradient>
    <linearGradient
       inkscape:collect="always"
       xlink:href="#linearGradient219586"
       id="linearGradient935"
       gradientUnits="userSpaceOnUse"
       gradientTransform="matrix(0.51007641,0,0,0.49215828,-41.175654,-98.137061)"
       x1="112.09232"
       y1="238.0069"
       x2="112.17286"
       y2="254.33937" />
    <linearGradient
       inkscape:collect="always"
       id="linearGradient219586">
      <stop
         style="stop-color:#b9bfbf;stop-opacity:1;"
         offset="0"
         id="stop219582" />
      <stop
         style="stop-color:#aaacab;stop-opacity:1"
         offset="1"
         id="stop219584" />
    </linearGradient>
    <linearGradient
       inkscape:collect="always"
       xlink:href="#linearGradient2496"
       id="linearGradient2498"
       x1="16.424316"
       y1="54.63533"
       x2="32.331596"
       y2="38.452602"
       gradientUnits="userSpaceOnUse"
       gradientTransform="matrix(0.5,0,0,0.5,7.5000004,-1.0000011)" />
    <linearGradient
       inkscape:collect="always"
       id="linearGradient2496">
      <stop
         style="stop-color:#ffffff;stop-opacity:0.5"
         offset="0"
         id="stop2492" />
      <stop
         style="stop-color:#ffffff;stop-opacity:0"
         offset="0.44999999"
         id="stop3080" />
      <stop
         style="stop-color:#ffffff;stop-opacity:1"
         offset="0.5"
         id="stop2756" />
      <stop
         style="stop-color:#ffffff;stop-opacity:0"
         offset="0.55000001"
         id="stop3014" />
      <stop
         style="stop-color:#ffffff;stop-opacity:0.2"
         offset="1"
         id="stop2494" />
    </linearGradient>
    <linearGradient
       inkscape:collect="always"
       id="linearGradient7820">
      <stop
         style="stop-color:#858585;stop-opacity:1"
         offset="0"
         id="stop7816" />
      <stop
         style="stop-color:#ffffff;stop-opacity:1"
         offset="0.5"
         id="stop8592" />
      <stop
         style="stop-color:#868686;stop-opacity:1"
         offset="1"
         id="stop7818" />
    </linearGradient>
    <linearGradient
       inkscape:collect="always"
       xlink:href="#linearGradient7820"
       id="linearGradient10226"
       gradientUnits="userSpaceOnUse"
       x1="14.532227"
       y1="42.393677"
       x2="19.540161"
       y2="37.501221"
       gradientTransform="matrix(0.8,0,0,0.8,2.3999994,-13)" />
    <linearGradient
       inkscape:collect="always"
       xlink:href="#linearGradient11941"
       id="linearGradient11943"
       x1="5.1081543"
       y1="42.191895"
       x2="7.4692383"
       y2="33.279785"
       gradientUnits="userSpaceOnUse"
       gradientTransform="matrix(0.5,0,0,0.5,7.5000004,-1.0000011)" />
    <linearGradient
       inkscape:collect="always"
       id="linearGradient11941">
      <stop
         style="stop-color:#f89af4;stop-opacity:0"
         offset="0"
         id="stop11937" />
      <stop
         style="stop-color:#f89af4;stop-opacity:0"
         offset="0.40000001"
         id="stop12523" />
      <stop
         style="stop-color:#f89af4;stop-opacity:1"
         offset="0.5"
         id="stop12201" />
      <stop
         style="stop-color:#f89af4;stop-opacity:0"
         offset="0.60000002"
         id="stop12781" />
      <stop
         style="stop-color:#f89af4;stop-opacity:0;"
         offset="1"
         id="stop11939" />
    </linearGradient>
    <linearGradient
       inkscape:collect="always"
       xlink:href="#linearGradient16450"
       id="linearGradient16452"
       x1="17.605227"
       y1="29.40974"
       x2="27.150551"
       y2="39.243584"
       gradientUnits="userSpaceOnUse"
       gradientTransform="matrix(0.5,0,0,0.5,7.5000004,-1.0000011)" />
    <linearGradient
       inkscape:collect="always"
       id="linearGradient16450">
      <stop
         style="stop-color:#6fef7e;stop-opacity:0"
         offset="0"
         id="stop16446" />
      <stop
         style="stop-color:#6fef7e;stop-opacity:0"
         offset="0.44792882"
         id="stop17132" />
      <stop
         style="stop-color:#6fef7e;stop-opacity:1"
         offset="0.5"
         id="stop16680" />
      <stop
         style="stop-color:#6fef7e;stop-opacity:0"
         offset="0.55000001"
         id="stop16938" />
      <stop
         style="stop-color:#6fef7e;stop-opacity:0;"
         offset="1"
         id="stop16448" />
    </linearGradient>
    <linearGradient
       inkscape:collect="always"
       xlink:href="#linearGradient219586"
       id="linearGradient9249"
       gradientUnits="userSpaceOnUse"
       gradientTransform="matrix(0.51007641,0,0,0.49215828,-41.175654,-98.137061)"
       x1="112.09232"
       y1="238.0069"
       x2="112.17286"
       y2="254.33937" />
  </defs>
  <path
     id="rect846"
     style="fill:#7d7d7b;stroke-width:0.999999;stroke-linecap:round;stroke-linejoin:round"
     d="M 5,1 H 20.5 L 27,7.5 V 31 H 5 Z"
     sodipodi:nodetypes="cccccc" />
  <path
     id="rect1454"
     style="fill:#fafafa;stroke-width:0.999999;stroke-linecap:round;stroke-linejoin:round"
     d="M 6,1.9999987 V 29.999998 H 26 V 9 H 20 C 19.314274,9 19.000001,8.5097479 19.000001,8 V 1.9999987 Z m 14,0 V 8 h 6 z"
     sodipodi:nodetypes="ccccsscccccc" />
  <path
     id="path6272"
     style="opacity:0.4;fill:url(#linearGradient6808);fill-opacity:1;stroke-width:0.999999;stroke-linecap:round;stroke-linejoin:round"
     d="m 16,15 a 4.0000002,4.0000002 0 0 0 -4,4 4.0000002,4.0000002 0 0 0 4,4.000001 A 4.0000002,4.0000002 0 0 0 20,19 4.0000002,4.0000002 0 0 0 16,15 Z m 0,3 a 1.0000001,1.0000001 0 0 1 1,1 1.0000001,1.0000001 0 0 1 -1,1.000001 A 1.0000001,1.0000001 0 0 1 15,19 1.0000001,1.0000001 0 0 1 16,18 Z" />
  <path
     id="path151229"
     style="fill:url(#linearGradient162118);fill-opacity:1;stroke-width:0.662835;stroke-linecap:round;stroke-linejoin:round"
     d="m 16,11 c -4.418278,0 -7.9999996,3.581722 -8,8 4e-7,4.418278 3.581722,8 8,8 4.418278,0 8,-3.581722 8,-8 0,-4.418278 -3.581722,-8 -8,-8 z m 0,5.000001 C 17.656854,16 19,17.343146 19.000001,19 c 10e-7,1.656855 -1.343146,3.000003 -3.000001,3.000002 -1.656855,0 -3.000001,-1.343147 -3,-3.000002 10e-7,-1.656854 1.343146,-2.999999 3,-2.999999 z"
     sodipodi:nodetypes="ssssssssss" />
  <path
     id="path151229-3"
     style="fill:url(#linearGradient9249);fill-opacity:1;stroke-width:0.662835;stroke-linecap:round;stroke-linejoin:round"
     d="M 18.993164,19.187499 A 3,3 0 0 1 16,22.000002 3,3 0 0 1 13.88086,21.119141 l -3.533203,3.533205 A 8.0000008,8.0000008 0 0 0 16,27 8.0000008,8.0000008 0 0 0 23.981446,19.499022 Z" />
  <path
     id="path151229-3-3"
     style="fill:url(#linearGradient935);fill-opacity:1;stroke-width:0.662835;stroke-linecap:round;stroke-linejoin:round"
     d="M 18.993164,19.187499 A 3,3 0 0 1 16,22.000002 3,3 0 0 1 13.88086,21.119141 l -3.533203,3.533205 A 8.0000008,8.0000008 0 0 0 16,27 8.0000008,8.0000008 0 0 0 23.981446,19.499022 Z" />
  <path
     id="rect2336"
     style="opacity:0.5;fill:url(#linearGradient2498);fill-opacity:1;stroke-width:0.999999;stroke-linecap:round;stroke-linejoin:round"
     d="m 14.061524,11.245117 a 8.0000008,8.0000008 0 0 0 -5.918946,6.28125 l 4.864258,0.973632 0.04785,0.0077 a 3,3 0 0 1 2.220705,-2.407226 z m 4.883789,8.24707 a 3.0000002,3.0000002 0 0 1 -2.220703,2.407228 l 1.213867,4.855469 a 8.0000008,8.0000008 0 0 0 5.918946,-6.28125 l -4.864259,-0.973635 z" />
  <path
     id="path7246-2"
     style="opacity:0.5;fill:url(#linearGradient10226);fill-opacity:1;stroke-width:1.99999;stroke-linecap:round;stroke-linejoin:round"
     d="M 16 17 C 14.895431 17 14 17.895432 14 19 C 13.999999 20.104569 14.895431 21 16 21 C 17.104569 21 18.000001 20.10457 18 19 C 18 17.895432 17.104569 17 16 17 z M 16 18 C 16.552284 18 17 18.447716 17 19 C 17 19.552284 16.552284 20 16 20 C 15.447716 20 14.999999 19.552284 15 19 C 15 18.447716 15.447716 18 16 18 z " />
  <path
     id="path151229-7"
     style="opacity:0.5;fill:url(#linearGradient11943);fill-opacity:1;stroke-width:0.662835;stroke-linecap:round;stroke-linejoin:round"
     d="M 8.933594,15.258789 C 8.322017,16.411087 8.001509,17.695463 8,19 c 0.0015,1.304538 0.322016,2.588914 0.933594,3.741213 l 4.418945,-2.339845 C 13.1226,19.969948 13.001576,19.488869 13,19 c 0.0016,-0.48887 0.1226,-0.969947 0.352539,-1.401367 z"
     sodipodi:nodetypes="ccccccc" />
  <path
     id="path151229-1"
     style="opacity:0.5;fill:url(#linearGradient16452);fill-opacity:1;stroke-width:0.662835;stroke-linecap:round;stroke-linejoin:round"
     d="m 18.385743,11.364258 -1.491212,4.772462 a 3,3 0 0 1 1.914064,1.809569 l 4.681639,-1.754883 a 8.0000008,8.0000008 0 0 0 -5.104491,-4.827148 z" />
  <path
     id="path151229-2"
     style="fill:#d0d0d0;fill-opacity:1;stroke-width:0.662835;stroke-linecap:round;stroke-linejoin:round"
     d="M 16 11 C 11.581726 11 8.0000004 14.581726 8 19 C 8.0000004 23.418274 11.581726 27 16 27 C 20.418274 27 24 23.418274 24 19 C 24 14.581726 20.418274 11 16 11 z M 16 12 C 19.86599 12 23 15.13401 23 19 C 23 22.865989 19.865989 25.999999 16 26 C 12.134009 26 9.0000003 22.86599 9 19 C 8.9999997 15.13401 12.134009 12 16 12 z " />
</svg>
