<?xml version="1.0" encoding="UTF-8" standalone="no"?>
<!-- Created with Inkscape (http://www.inkscape.org/) -->

<svg
   width="32"
   height="32"
   viewBox="0 0 32 32"
   version="1.1"
   id="svg5"
   inkscape:version="1.2.1 (9c6d41e410, 2022-07-14, custom)"
   sodipodi:docname="application-vnd.ms-access.svg"
   xmlns:inkscape="http://www.inkscape.org/namespaces/inkscape"
   xmlns:sodipodi="http://sodipodi.sourceforge.net/DTD/sodipodi-0.dtd"
   xmlns="http://www.w3.org/2000/svg"
   xmlns:svg="http://www.w3.org/2000/svg">
  <sodipodi:namedview
     id="namedview7"
     pagecolor="#ffffff"
     bordercolor="#000000"
     borderopacity="0.25"
     inkscape:showpageshadow="2"
     inkscape:pageopacity="0.0"
     inkscape:pagecheckerboard="0"
     inkscape:deskcolor="#d1d1d1"
     inkscape:document-units="px"
     showgrid="false"
     inkscape:zoom="25.0625"
     inkscape:cx="15.98005"
     inkscape:cy="16"
     inkscape:window-width="1920"
     inkscape:window-height="1011"
     inkscape:window-x="0"
     inkscape:window-y="0"
     inkscape:window-maximized="1"
     inkscape:current-layer="svg5" />
  <defs
     id="defs2" />
  <path
     id="rect846"
     style="fill:#7d7d7b;stroke-width:0.999999;stroke-linecap:round;stroke-linejoin:round"
     d="M 5,1 H 20.5 L 27,7.5 V 31 H 5 Z"
     sodipodi:nodetypes="cccccc" />
  <path
     id="rect1454"
     style="fill:#fafafa;stroke-width:0.999999;stroke-linecap:round;stroke-linejoin:round"
     d="M 6,1.9999987 V 29.999998 H 26 V 9 H 20 C 19.314274,9 19.000001,8.5097479 19.000001,8 V 1.9999987 Z m 14,0 V 8 h 6 z"
     sodipodi:nodetypes="ccccsscccccc" />
  <rect
     style="fill:#c94f60;fill-opacity:1;stroke-width:0.316227;stroke-linecap:round"
     id="rect445-7"
     width="4"
     height="0.99999988"
     x="18"
     y="19"
     ry="0.49999994" />
  <rect
     style="fill:#e08095;fill-opacity:1;stroke-width:1.1547;stroke-linecap:round"
     id="rect341"
     width="4"
     height="1"
     x="18"
     y="16"
     ry="0.5" />
  <path
     id="rect343"
     style="fill:#af2031;fill-opacity:1;stroke-width:1.1547;stroke-linecap:round"
     d="m 15,19 v 1 h 1.5 C 16.777,20 17,19.777 17,19.5 17,19.223 16.777,19 16.5,19 Z"
     sodipodi:nodetypes="ccsssc" />
  <path
     id="rect345"
     style="fill:#c94f60;fill-opacity:1;stroke-width:1.1547;stroke-linecap:round"
     d="m 15,16 v 1 h 1.5 C 16.777,17 17,16.777 17,16.5 17,16.223 16.777,16 16.5,16 Z"
     sodipodi:nodetypes="ccsssc" />
  <path
     id="rect445"
     style="fill:#c94f60;fill-opacity:1;stroke-linecap:round;stroke-linejoin:round"
     d="m 23,13 v 9 h -8 v 1 h 8 c 0.553998,0 1,-0.446002 1,-1 v -9 z"
     sodipodi:nodetypes="ccccsscc" />
  <path
     id="rect346"
     style="fill:#e08095;fill-opacity:1;stroke-linecap:round;stroke-linejoin:round"
     d="m 15,12 h 8 c 0.554,0 1,0.446 1,1 v 1 h -9 z"
     sodipodi:nodetypes="cssccc" />
  <path
     id="rect2355"
     style="fill:#af2031;fill-opacity:1;stroke-width:10.0698;stroke-linecap:round;stroke-linejoin:round"
     d="M 2.0000002,11 H 13 c 0.554,0 1,0.446 1,1 v 11.000001 c 0,0.554 -0.446,1 -1,1 H 2.0000002 C 1.4460001,24.000001 1,23.554001 1,23.000001 V 12 c 0,-0.554 0.4460001,-1 1.0000002,-1 z" />
  <path
     d="m 3.7677769,21.500006 2.9958202,-8.000012 h 1.4951207 l 2.9735052,8.000012 H 9.7761537 L 9.0899602,19.569738 H 5.8821453 l -0.6638782,1.930268 z m 2.4602546,-3.023714 h 2.504885 L 7.6227336,15.296371 Q 7.5836819,15.173637 7.5557879,15.050903 7.5278938,14.922591 7.4999998,14.73849 H 7.466527 Q 7.438633,14.905854 7.40516,15.034167 7.377266,15.162479 7.332635,15.285213 Z"
     style="font-weight:600;font-size:11.4254px;font-family:'Segoe UI Variable Static Text';-inkscape-font-specification:'Segoe UI Variable Static Text Semi-Bold';text-align:center;text-anchor:middle;fill:#ffffff;stroke-width:0.952115;stroke-linecap:round;stroke-linejoin:round"
     id="path9147" />
</svg>
