<?xml version="1.0" encoding="UTF-8" standalone="no"?>
<!-- Created with Inkscape (http://www.inkscape.org/) -->

<svg
   width="32"
   height="32"
   viewBox="0 0 32 32"
   version="1.1"
   id="svg5"
   inkscape:version="1.2.1 (9c6d41e410, 2022-07-14, custom)"
   sodipodi:docname="application-x-ms-dos-executable.svg"
   xmlns:inkscape="http://www.inkscape.org/namespaces/inkscape"
   xmlns:sodipodi="http://sodipodi.sourceforge.net/DTD/sodipodi-0.dtd"
   xmlns:xlink="http://www.w3.org/1999/xlink"
   xmlns="http://www.w3.org/2000/svg"
   xmlns:svg="http://www.w3.org/2000/svg">
  <sodipodi:namedview
     id="namedview7"
     pagecolor="#ffffff"
     bordercolor="#666666"
     borderopacity="1.0"
     inkscape:pageshadow="2"
     inkscape:pageopacity="0.0"
     inkscape:pagecheckerboard="0"
     inkscape:document-units="px"
     showgrid="false"
     units="px"
     height="64px"
     inkscape:zoom="25.84375"
     inkscape:cx="15.980653"
     inkscape:cy="16"
     inkscape:window-width="1920"
     inkscape:window-height="1029"
     inkscape:window-x="0"
     inkscape:window-y="0"
     inkscape:window-maximized="1"
     inkscape:current-layer="svg5"
     inkscape:showpageshadow="2"
     inkscape:deskcolor="#d1d1d1" />
  <defs
     id="defs2">
    <linearGradient
       inkscape:collect="always"
       id="linearGradient1723">
      <stop
         style="stop-color:#1088d6;stop-opacity:1;"
         offset="0"
         id="stop1719" />
      <stop
         style="stop-color:#076cbe;stop-opacity:1"
         offset="1"
         id="stop1721" />
    </linearGradient>
    <linearGradient
       inkscape:collect="always"
       xlink:href="#linearGradient1723"
       id="linearGradient960"
       x1="16"
       y1="9"
       x2="16"
       y2="25.000002"
       gradientUnits="userSpaceOnUse" />
  </defs>
  <rect
     style="fill:#797774;stroke-linecap:round;fill-opacity:1"
     id="rect1086"
     width="30"
     height="24"
     x="1"
     y="4"
     ry="2.0000002" />
  <path
     id="rect1043"
     style="fill:#fafafa;fill-opacity:1;stroke-width:3;stroke-linecap:round;stroke-linejoin:round"
     d="M 2.9999998,7 H 29 c 0.554,0 1,0.4460001 1,0.9999999 V 26 c 0,0.554 -0.446,0.999999 -1,0.999999 H 2.9999998 C 2.4459999,26.999999 1.9999999,26.554 1.9999999,26 V 7.9999999 C 1.9999999,7.4460001 2.4459999,7 2.9999998,7 Z"
     sodipodi:nodetypes="sssssssss" />
  <path
     id="rect1066"
     style="fill:#c4c4c4;fill-opacity:1;stroke-width:1.5;stroke-linecap:round;stroke-linejoin:round"
     d="m 24.000001,4.9999999 v 0.9999999 h 1 V 4.9999999 Z m 2,0 v 0.9999999 h 1 V 4.9999999 Z m 2,0 V 5.9999998 H 29 V 4.9999999 Z" />
  <path
     id="rect845"
     style="fill:#bebebe;fill-opacity:1;stroke-width:2.12132;stroke-linecap:round;stroke-linejoin:round"
     d="m 4.0000001,10 v 1 h 5.0000001 v -1 z m 19.0000009,0 v 1 h 5 V 10 Z M 4.0000001,13 v 1.000001 H 9.0000002 V 13 Z m 19.0000009,0 v 1.000001 h 5 V 13 Z M 4.0000001,16.000001 v 1 h 5.0000001 v -1 z m 19.0000009,0 v 1 h 5 v -1 z m -19.0000009,3 v 1 h 5.0000001 v -1 z m 19.0000009,0 v 1 h 5 v -1 z m -19.0000009,3 v 1 h 5.0000001 v -1 z m 19.0000009,0 v 1 h 5 v -1 z" />
  <rect
     style="fill:url(#linearGradient960);stroke-linecap:round;fill-opacity:1"
     id="rect398"
     width="10.000001"
     height="16.000002"
     x="10.999999"
     y="9"
     ry="1" />
</svg>
