<?xml version="1.0" encoding="UTF-8" standalone="no"?>
<!-- Created with Inkscape (http://www.inkscape.org/) -->

<svg
   width="32"
   height="32"
   viewBox="0 0 32 32"
   version="1.1"
   id="svg5"
   inkscape:version="1.2.1 (9c6d41e410, 2022-07-14, custom)"
   sodipodi:docname="application-pdf.svg"
   xmlns:inkscape="http://www.inkscape.org/namespaces/inkscape"
   xmlns:sodipodi="http://sodipodi.sourceforge.net/DTD/sodipodi-0.dtd"
   xmlns="http://www.w3.org/2000/svg"
   xmlns:svg="http://www.w3.org/2000/svg">
  <sodipodi:namedview
     id="namedview7"
     pagecolor="#ffffff"
     bordercolor="#000000"
     borderopacity="0.25"
     inkscape:showpageshadow="2"
     inkscape:pageopacity="0.0"
     inkscape:pagecheckerboard="0"
     inkscape:deskcolor="#d1d1d1"
     inkscape:document-units="px"
     showgrid="false"
     inkscape:zoom="25.84375"
     inkscape:cx="16"
     inkscape:cy="16"
     inkscape:window-width="1920"
     inkscape:window-height="1029"
     inkscape:window-x="0"
     inkscape:window-y="0"
     inkscape:window-maximized="1"
     inkscape:current-layer="svg5" />
  <defs
     id="defs2" />
  <path
     id="rect846"
     style="fill:#7d7d7b;stroke-width:0.999999;stroke-linecap:round;stroke-linejoin:round"
     d="M 5,1 H 20.5 L 27,7.5 V 31 H 5 Z"
     sodipodi:nodetypes="cccccc" />
  <path
     id="rect1454"
     style="fill:#fafafa;stroke-width:0.999999;stroke-linecap:round;stroke-linejoin:round"
     d="M 6,1.9999987 V 29.999998 H 26 V 9 H 20 C 19.314274,9 19.000001,8.5097479 19.000001,8 V 1.9999987 Z m 14,0 V 8 h 6 z"
     sodipodi:nodetypes="ccccsscccccc" />
  <path
     id="rect3166"
     style="fill:#cccccc;fill-opacity:1;stroke-width:1.76383;stroke-linecap:round;stroke-linejoin:round"
     d="M 8.0000002,5 V 6 H 17 V 5 Z m 0,3 V 8.9999997 H 17 V 8 Z m 0,3 v 1 H 24 v -1 z m 0,3 v 1 H 24 v -1 z m 0,3 v 1 H 24 v -1 z m 0,3 v 1 H 24 v -1 z m 0,3 v 1 H 24 v -1 z m 0,3 v 1 H 24 v -1 z" />
  <path
     id="rect5651"
     style="fill:#d84b4b;stroke-width:0.499997"
     d="M 4.0000004,16.000001 H 27.999999 v 10 H 4.0000004 Z"
     sodipodi:nodetypes="ccccc" />
  <path
     id="rect7200"
     style="fill:#b12e2e;fill-opacity:1;stroke-width:0.499997"
     d="M 4,16 V 26 H 28 V 16 Z m 1.0000002,1 H 27 v 8 H 5.0000002 Z"
     sodipodi:nodetypes="cccccccccc" />
  <path
     id="path1114"
     style="font-weight:500;font-size:8px;font-family:'Noto Sans';-inkscape-font-specification:'Noto Sans Medium';fill:#ffffff;stroke-width:1.00182;stroke-linecap:round"
     d="m 9,18 v 5.721314 h 0.8648498 v -2.171908 h 0.6163522 c 0.56636,0 1.014925,-0.08535 1.346192,-0.256324 0.331266,-0.176319 0.56744,-0.403086 0.706359,-0.680923 0.144261,-0.277837 0.215234,-0.577532 0.215234,-0.898112 0,-0.539645 -0.170696,-0.958933 -0.512649,-1.258142 C 11.894385,18.151353 11.350539,18 10.602516,18 Z m 4.903425,0 v 5.721314 h 1.602515 c 0.9564,0 1.699692,-0.241668 2.228651,-0.727883 0.534302,-0.491557 0.802237,-1.222431 0.802237,-2.189518 0,-0.614446 -0.11711,-1.126533 -0.352202,-1.537945 -0.235092,-0.416755 -0.566549,-0.731352 -0.99399,-0.945073 C 16.763194,18.107174 16.25856,18 15.676171,18 Z m 5.87589,0 v 5.721314 h 0.857023 v -2.379315 h 2.211041 V 20.604333 H 20.636338 V 18.737666 H 23 V 18 Z m -9.9144652,0.727883 h 0.6730952 c 0.454157,0 0.788096,0.0873 1.001817,0.25828 0.213721,0.165634 0.320895,0.419194 0.320895,0.761147 0,0.384697 -0.126517,0.660082 -0.377638,0.825716 -0.245779,0.165634 -0.611479,0.248498 -1.097694,0.248498 H 9.8648498 Z m 4.9053812,0 h 0.849196 c 0.641161,0 1.135863,0.172652 1.483159,0.514605 0.352639,0.33661 0.528302,0.865555 0.528302,1.586862 0,1.442616 -0.721467,2.164081 -2.164082,2.164081 h -0.696575 z" />
</svg>
