<?xml version="1.0" encoding="UTF-8" standalone="no"?>
<!-- Created with Inkscape (http://www.inkscape.org/) -->

<svg
   width="32"
   height="32"
   viewBox="0 0 32 32"
   version="1.1"
   id="svg5"
   inkscape:version="1.2.1 (9c6d41e410, 2022-07-14, custom)"
   sodipodi:docname="application-vnd.ms-powerpoint.svg"
   xmlns:inkscape="http://www.inkscape.org/namespaces/inkscape"
   xmlns:sodipodi="http://sodipodi.sourceforge.net/DTD/sodipodi-0.dtd"
   xmlns="http://www.w3.org/2000/svg"
   xmlns:svg="http://www.w3.org/2000/svg">
  <sodipodi:namedview
     id="namedview7"
     pagecolor="#ffffff"
     bordercolor="#000000"
     borderopacity="0.25"
     inkscape:showpageshadow="2"
     inkscape:pageopacity="0.0"
     inkscape:pagecheckerboard="0"
     inkscape:deskcolor="#d1d1d1"
     inkscape:document-units="px"
     showgrid="false"
     inkscape:zoom="25.25"
     inkscape:cx="15.980198"
     inkscape:cy="16"
     inkscape:window-width="1920"
     inkscape:window-height="1010"
     inkscape:window-x="0"
     inkscape:window-y="0"
     inkscape:window-maximized="1"
     inkscape:current-layer="svg5" />
  <defs
     id="defs2" />
  <path
     id="rect846"
     style="fill:#7d7d7b;stroke-width:0.999999;stroke-linecap:round;stroke-linejoin:round"
     d="M 5,1 H 20.5 L 27,7.5 V 31 H 5 Z"
     sodipodi:nodetypes="cccccc" />
  <path
     id="rect1454"
     style="fill:#fafafa;stroke-width:0.999999;stroke-linecap:round;stroke-linejoin:round"
     d="M 6,1.9999987 V 29.999998 H 26 V 9 H 20 C 19.314274,9 19.000001,8.5097479 19.000001,8 V 1.9999987 Z m 14,0 V 8 h 6 z"
     sodipodi:nodetypes="ccccsscccccc" />
  <path
     id="path344"
     style="fill:#f1ab69;fill-opacity:1;stroke-width:1.33333;stroke-linecap:round"
     d="m 20,13 v 4 h 4 a 3.9999993,3.9999993 0 0 0 -4,-4 z" />
  <path
     id="path345"
     style="fill:#e77d57;fill-opacity:1;stroke-width:1.59987"
     d="m 19,14 a 4,4 0 0 0 -4,4 4,4 0 0 0 4,4 4,4 0 0 0 4,-4 h -4 z" />
  <path
     id="path649"
     style="fill:#ed6c47;fill-opacity:1;stroke-width:2"
     d="m 15,18 a 4,4 0 0 0 4,4 4,4 0 0 0 4,-4 z" />
  <path
     id="rect2355"
     style="fill:#cb3a22;fill-opacity:1;stroke-width:10.0698;stroke-linecap:round;stroke-linejoin:round"
     d="M 2.0000002,11 H 13 c 0.554,0 1,0.446 1,1 v 11.000001 c 0,0.554 -0.446,1 -1,1 H 2.0000002 C 1.4460001,24.000001 1,23.554001 1,23.000001 V 12 c 0,-0.554 0.4460001,-1 1.0000002,-1 z" />
  <path
     d="m 5,21.5 h 1.2591587 v -3.028494 h 1.2048846 c 1.7367708,0 3.0176387,-0.803257 3.0176387,-2.540027 C 10.481682,14.118725 9.2008141,13.5 7.4206241,13.5 H 5 Z m 1.2591587,-4.048847 v -2.9308 h 1.0420626 c 1.2700135,0 1.9321572,0.347354 1.9321572,1.411126 0,1.031207 -0.6187245,1.519674 -1.8778832,1.519674 z"
     style="font-weight:500;font-size:10.5833px;line-height:1.25;font-family:'Noto Sans CJK KR';-inkscape-font-specification:'Noto Sans CJK KR Medium';fill:#ffffff;stroke-width:0.271371"
     id="path4103" />
</svg>
