<?xml version="1.0" encoding="UTF-8" standalone="no"?>
<!-- Created with Inkscape (http://www.inkscape.org/) -->

<svg
   width="32"
   height="32"
   viewBox="0 0 32 32"
   version="1.1"
   id="svg5"
   inkscape:version="1.2.1 (9c6d41e410, 2022-07-14, custom)"
   sodipodi:docname="application-vnd.ms-excel.svg"
   xmlns:inkscape="http://www.inkscape.org/namespaces/inkscape"
   xmlns:sodipodi="http://sodipodi.sourceforge.net/DTD/sodipodi-0.dtd"
   xmlns="http://www.w3.org/2000/svg"
   xmlns:svg="http://www.w3.org/2000/svg">
  <sodipodi:namedview
     id="namedview7"
     pagecolor="#ffffff"
     bordercolor="#000000"
     borderopacity="0.25"
     inkscape:showpageshadow="2"
     inkscape:pageopacity="0.0"
     inkscape:pagecheckerboard="0"
     inkscape:deskcolor="#d1d1d1"
     inkscape:document-units="px"
     showgrid="false"
     inkscape:zoom="25.25"
     inkscape:cx="15.980198"
     inkscape:cy="16"
     inkscape:window-width="1920"
     inkscape:window-height="1010"
     inkscape:window-x="0"
     inkscape:window-y="0"
     inkscape:window-maximized="1"
     inkscape:current-layer="svg5" />
  <defs
     id="defs2" />
  <path
     id="rect846"
     style="fill:#7d7d7b;stroke-width:0.999999;stroke-linecap:round;stroke-linejoin:round"
     d="M 5,1 H 20.5 L 27,7.5 V 31 H 5 Z"
     sodipodi:nodetypes="cccccc" />
  <path
     id="rect1454"
     style="fill:#fafafa;stroke-width:0.999999;stroke-linecap:round;stroke-linejoin:round"
     d="M 6,1.9999987 V 29.999998 H 26 V 9 H 20 C 19.314274,9 19.000001,8.5097479 19.000001,8 V 1.9999987 Z m 14,0 V 8 h 6 z"
     sodipodi:nodetypes="ccccsscccccc" />
  <rect
     style="fill:#185c37;fill-opacity:1;stroke-width:2.64574;stroke-linecap:round"
     id="rect341"
     width="4"
     height="1"
     x="15"
     y="20"
     ry="0.5" />
  <rect
     style="fill:#107c41;fill-opacity:1;stroke-width:2.64574;stroke-linecap:round"
     id="rect343"
     width="4"
     height="1"
     x="15"
     y="17"
     ry="0.5" />
  <rect
     style="fill:#21a366;fill-opacity:1;stroke-width:2.64574;stroke-linecap:round"
     id="rect345"
     width="4"
     height="1"
     x="15"
     y="14"
     ry="0.5" />
  <rect
     style="fill:#6dc898;fill-opacity:1;stroke-width:2.04939"
     id="rect518"
     width="4"
     height="1"
     x="20"
     y="14"
     ry="0.5" />
  <rect
     style="fill:#4fae7f;fill-opacity:1;stroke-width:2.04939"
     id="rect520"
     width="4"
     height="1"
     x="20"
     y="17"
     ry="0.5" />
  <rect
     style="fill:#134a2c;fill-opacity:1;stroke-width:2.04939"
     id="rect522"
     width="4"
     height="1"
     x="20"
     y="20"
     ry="0.5" />
  <path
     id="rect2355"
     style="fill:#0c7c42;fill-opacity:1;stroke-width:10.0698;stroke-linecap:round;stroke-linejoin:round"
     d="m 2,11 h 11 c 0.554,0 1,0.446 1,1 v 11.000001 c 0,0.554 -0.446,1 -1,1 H 2 c -0.554,0 -1,-0.446 -1,-1 V 12 c 0,-0.554 0.446,-1 1,-1 z" />
  <path
     id="rect12096"
     style="fill:#ffffff;fill-opacity:1;stroke-width:0.814099;stroke-linecap:round;stroke-linejoin:round"
     d="M 4.5745956,13.5 6.7237943,17.375447 4.4336127,21.5 h 1.3350989 l 1.0202727,-1.986485 c 0.195401,-0.412475 0.401434,-0.813782 0.618527,-1.302239 h 0.04347 c 0.249672,0.488457 0.4562761,0.889764 0.6625131,1.302239 L 9.1660943,21.5 H 10.566387 L 8.2761993,17.429508 10.414271,13.5 H 9.0902983 l -0.933879,1.877832 c -0.195402,0.369056 -0.347112,0.72739 -0.5533351,1.215848 h -0.043466 c -0.249653,-0.488458 -0.423137,-0.846791 -0.61852,-1.215848 L 5.9748886,13.5 Z" />
</svg>
