<?xml version="1.0" encoding="UTF-8" standalone="no"?>
<!-- Created with Inkscape (http://www.inkscape.org/) -->

<svg
   width="32"
   height="32"
   viewBox="0 0 32 32"
   version="1.1"
   id="svg5"
   inkscape:version="1.2.1 (9c6d41e410, 2022-07-14, custom)"
   sodipodi:docname="application-octet-stream.svg"
   xmlns:inkscape="http://www.inkscape.org/namespaces/inkscape"
   xmlns:sodipodi="http://sodipodi.sourceforge.net/DTD/sodipodi-0.dtd"
   xmlns="http://www.w3.org/2000/svg"
   xmlns:svg="http://www.w3.org/2000/svg">
  <sodipodi:namedview
     id="namedview7"
     pagecolor="#ffffff"
     bordercolor="#000000"
     borderopacity="0.25"
     inkscape:showpageshadow="2"
     inkscape:pageopacity="0.0"
     inkscape:pagecheckerboard="0"
     inkscape:deskcolor="#d1d1d1"
     inkscape:document-units="px"
     showgrid="false"
     inkscape:zoom="25.0625"
     inkscape:cx="16"
     inkscape:cy="16"
     inkscape:window-width="1920"
     inkscape:window-height="1011"
     inkscape:window-x="0"
     inkscape:window-y="0"
     inkscape:window-maximized="1"
     inkscape:current-layer="svg5" />
  <defs
     id="defs2" />
  <path
     id="rect846"
     style="fill:#7d7d7b;stroke-width:0.999999;stroke-linecap:round;stroke-linejoin:round"
     d="M 5,1 H 20.5 L 27,7.5 V 31 H 5 Z"
     sodipodi:nodetypes="cccccc" />
  <path
     id="rect1454"
     style="fill:#fafafa;stroke-width:0.999999;stroke-linecap:round;stroke-linejoin:round"
     d="M 6,1.9999987 V 29.999998 H 26 V 9 H 20 C 19.314274,9 19.000001,8.5097479 19.000001,8 V 1.9999987 Z m 14,0 V 8 h 6 z"
     sodipodi:nodetypes="ccccsscccccc" />
  <path
     id="path1684"
     style="font-weight:600;font-size:8px;font-family:'Segoe UI';-inkscape-font-specification:'Segoe UI Semi-Bold';text-align:center;text-anchor:middle;fill:#b4b4b4;stroke-linecap:round;stroke-linejoin:round"
     d="M 9.7148438 10 C 9.5664064 10.106771 9.4218749 10.201823 9.28125 10.285156 C 9.1432293 10.36849 9.0052082 10.44401 8.8671875 10.511719 C 8.731771 10.579428 8.5937499 10.640626 8.453125 10.695312 C 8.3125001 10.749999 8.1666665 10.802083 8.015625 10.851562 L 8.015625 11.625 C 8.2578123 11.5625 8.4726564 11.490886 8.6601562 11.410156 C 8.8502602 11.326823 9.0273439 11.226562 9.1914062 11.109375 L 9.1914062 15.726562 L 10.097656 15.726562 L 10.097656 10 L 9.7148438 10 z M 13.207031 10.03125 C 12.563803 10.03125 12.071614 10.285157 11.730469 10.792969 C 11.389323 11.300781 11.21875 12.04948 11.21875 13.039062 C 11.21875 13.940103 11.381511 14.628907 11.707031 15.105469 C 12.035156 15.582031 12.490886 15.820312 13.074219 15.820312 C 13.699218 15.820312 14.184896 15.571614 14.53125 15.074219 C 14.880208 14.574219 15.054688 13.850259 15.054688 12.902344 C 15.054688 10.988283 14.438801 10.03125 13.207031 10.03125 z M 17.648438 10.03125 C 17.005209 10.03125 16.513021 10.285157 16.171875 10.792969 C 15.830729 11.300781 15.660156 12.04948 15.660156 13.039062 C 15.660156 13.940103 15.822917 14.628907 16.148438 15.105469 C 16.476563 15.582031 16.932292 15.820312 17.515625 15.820312 C 18.140624 15.820312 18.626303 15.571614 18.972656 15.074219 C 19.321615 14.574219 19.496094 13.850259 19.496094 12.902344 C 19.496094 10.988283 18.880208 10.03125 17.648438 10.03125 z M 22.089844 10.03125 C 21.446615 10.03125 20.954427 10.285157 20.613281 10.792969 C 20.272136 11.300781 20.101562 12.04948 20.101562 13.039062 C 20.101563 13.940103 20.264323 14.628907 20.589844 15.105469 C 20.917968 15.582031 21.373698 15.820312 21.957031 15.820312 C 22.582031 15.820312 23.067709 15.571614 23.414062 15.074219 C 23.763021 14.574219 23.9375 13.850259 23.9375 12.902344 C 23.9375 10.988283 23.321613 10.03125 22.089844 10.03125 z M 13.164062 10.753906 C 13.807291 10.753906 14.128906 11.490887 14.128906 12.964844 C 14.128906 14.389322 13.800781 15.101562 13.144531 15.101562 C 12.477865 15.101562 12.144531 14.401041 12.144531 13 C 12.144531 11.502605 12.484375 10.753906 13.164062 10.753906 z M 17.605469 10.753906 C 18.248697 10.753906 18.570312 11.490887 18.570312 12.964844 C 18.570312 14.389322 18.242187 15.101562 17.585938 15.101562 C 16.919272 15.101562 16.585938 14.401041 16.585938 13 C 16.585938 11.502605 16.925781 10.753906 17.605469 10.753906 z M 22.046875 10.753906 C 22.690104 10.753906 23.011719 11.490887 23.011719 12.964844 C 23.011719 14.389322 22.683593 15.101562 22.027344 15.101562 C 21.360678 15.101562 21.027344 14.401041 21.027344 13 C 21.027344 11.502605 21.367188 10.753906 22.046875 10.753906 z M 14.15625 17 C 14.007813 17.106771 13.863281 17.201823 13.722656 17.285156 C 13.584636 17.368489 13.446614 17.44401 13.308594 17.511719 C 13.173177 17.579428 13.035156 17.640626 12.894531 17.695312 C 12.753907 17.749999 12.608073 17.802083 12.457031 17.851562 L 12.457031 18.625 C 12.699219 18.5625 12.914063 18.490886 13.101562 18.410156 C 13.291666 18.326823 13.46875 18.226562 13.632812 18.109375 L 13.632812 22.726562 L 14.539062 22.726562 L 14.539062 17 L 14.15625 17 z M 9.9882812 17.03125 C 9.3450527 17.03125 8.8528642 17.285157 8.5117188 17.792969 C 8.1705732 18.300781 8 19.04948 8 20.039062 C 8 20.940103 8.1627607 21.628907 8.4882812 22.105469 C 8.8164059 22.582031 9.272136 22.820312 9.8554688 22.820312 C 10.480468 22.820313 10.966146 22.571614 11.3125 22.074219 C 11.661458 21.574219 11.835937 20.850259 11.835938 19.902344 C 11.835938 17.988283 11.220051 17.03125 9.9882812 17.03125 z M 17.648438 17.03125 C 17.005209 17.03125 16.513021 17.285157 16.171875 17.792969 C 15.830729 18.300781 15.660156 19.04948 15.660156 20.039062 C 15.660156 20.940103 15.822917 21.628907 16.148438 22.105469 C 16.476563 22.582031 16.932292 22.820312 17.515625 22.820312 C 18.140624 22.820313 18.626303 22.571614 18.972656 22.074219 C 19.321615 21.574219 19.496094 20.850259 19.496094 19.902344 C 19.496094 17.988283 18.880208 17.03125 17.648438 17.03125 z M 22.089844 17.03125 C 21.446615 17.03125 20.954427 17.285157 20.613281 17.792969 C 20.272136 18.300781 20.101562 19.04948 20.101562 20.039062 C 20.101563 20.940103 20.264323 21.628907 20.589844 22.105469 C 20.917968 22.582031 21.373698 22.820312 21.957031 22.820312 C 22.582031 22.820313 23.067709 22.571614 23.414062 22.074219 C 23.763021 21.574219 23.9375 20.850259 23.9375 19.902344 C 23.9375 17.988283 23.321613 17.03125 22.089844 17.03125 z M 9.9453125 17.753906 C 10.588541 17.753906 10.910156 18.490887 10.910156 19.964844 C 10.910156 21.389322 10.58203 22.101562 9.9257812 22.101562 C 9.2591153 22.101562 8.9257812 21.401041 8.9257812 20 C 8.9257812 18.502605 9.2656257 17.753906 9.9453125 17.753906 z M 17.605469 17.753906 C 18.248697 17.753906 18.570312 18.490887 18.570312 19.964844 C 18.570312 21.389322 18.242187 22.101562 17.585938 22.101562 C 16.919272 22.101562 16.585938 21.401041 16.585938 20 C 16.585938 18.502605 16.925781 17.753906 17.605469 17.753906 z M 22.046875 17.753906 C 22.690104 17.753906 23.011719 18.490887 23.011719 19.964844 C 23.011719 21.389322 22.683593 22.101562 22.027344 22.101562 C 21.360678 22.101562 21.027344 21.401041 21.027344 20 C 21.027344 18.502605 21.367188 17.753906 22.046875 17.753906 z M 18.597656 24 C 18.449219 24.106771 18.304688 24.201823 18.164062 24.285156 C 18.026042 24.368489 17.888021 24.44401 17.75 24.511719 C 17.614583 24.579428 17.476563 24.640626 17.335938 24.695312 C 17.195313 24.749999 17.049479 24.802083 16.898438 24.851562 L 16.898438 25.625 C 17.140625 25.5625 17.355469 25.490886 17.542969 25.410156 C 17.733073 25.326823 17.910156 25.226562 18.074219 25.109375 L 18.074219 29.726562 L 18.980469 29.726562 L 18.980469 24 L 18.597656 24 z M 9.9882812 24.03125 C 9.3450527 24.03125 8.8528642 24.285157 8.5117188 24.792969 C 8.1705732 25.300781 8 26.04948 8 27.039062 C 8 27.940103 8.1627607 28.628907 8.4882812 29.105469 C 8.8164059 29.582031 9.272136 29.820312 9.8554688 29.820312 C 10.480468 29.820313 10.966146 29.571614 11.3125 29.074219 C 11.661458 28.574219 11.835937 27.850259 11.835938 26.902344 C 11.835938 24.988283 11.220051 24.03125 9.9882812 24.03125 z M 14.429688 24.03125 C 13.786459 24.03125 13.294271 24.285157 12.953125 24.792969 C 12.611979 25.300781 12.441406 26.04948 12.441406 27.039062 C 12.441406 27.940103 12.604166 28.628907 12.929688 29.105469 C 13.257812 29.582031 13.713542 29.820312 14.296875 29.820312 C 14.921874 29.820313 15.407553 29.571614 15.753906 29.074219 C 16.102865 28.574219 16.277344 27.850259 16.277344 26.902344 C 16.277344 24.988283 15.661457 24.03125 14.429688 24.03125 z M 22.089844 24.03125 C 21.446615 24.03125 20.954427 24.285157 20.613281 24.792969 C 20.272136 25.300781 20.101562 26.04948 20.101562 27.039062 C 20.101563 27.940103 20.264323 28.628907 20.589844 29.105469 C 20.917968 29.582031 21.373698 29.820312 21.957031 29.820312 C 22.582031 29.820313 23.067709 29.571614 23.414062 29.074219 C 23.763021 28.574219 23.9375 27.850259 23.9375 26.902344 C 23.9375 24.988283 23.321613 24.03125 22.089844 24.03125 z M 9.9453125 24.753906 C 10.588541 24.753906 10.910156 25.490887 10.910156 26.964844 C 10.910156 28.389322 10.58203 29.101562 9.9257812 29.101562 C 9.2591153 29.101562 8.9257812 28.401041 8.9257812 27 C 8.9257812 25.502605 9.2656257 24.753906 9.9453125 24.753906 z M 14.386719 24.753906 C 15.029947 24.753906 15.351562 25.490887 15.351562 26.964844 C 15.351562 28.389322 15.023437 29.101562 14.367188 29.101562 C 13.700521 29.101562 13.367188 28.401041 13.367188 27 C 13.367188 25.502605 13.707032 24.753906 14.386719 24.753906 z M 22.046875 24.753906 C 22.690104 24.753906 23.011719 25.490887 23.011719 26.964844 C 23.011719 28.389322 22.683593 29.101562 22.027344 29.101562 C 21.360678 29.101562 21.027344 28.401041 21.027344 27 C 21.027344 25.502605 21.367188 24.753906 22.046875 24.753906 z " />
</svg>
