<?xml version="1.0" encoding="UTF-8" standalone="no"?>
<!-- Created with Inkscape (http://www.inkscape.org/) -->

<svg
   width="32"
   height="32"
   viewBox="0 0 32 32"
   version="1.1"
   id="svg2112"
   inkscape:version="1.2.1 (9c6d41e410, 2022-07-14, custom)"
   sodipodi:docname="application-x-arj.svg"
   xmlns:inkscape="http://www.inkscape.org/namespaces/inkscape"
   xmlns:sodipodi="http://sodipodi.sourceforge.net/DTD/sodipodi-0.dtd"
   xmlns:xlink="http://www.w3.org/1999/xlink"
   xmlns="http://www.w3.org/2000/svg"
   xmlns:svg="http://www.w3.org/2000/svg">
  <sodipodi:namedview
     id="namedview2114"
     pagecolor="#ffffff"
     bordercolor="#000000"
     borderopacity="0.25"
     inkscape:showpageshadow="2"
     inkscape:pageopacity="0.0"
     inkscape:pagecheckerboard="0"
     inkscape:deskcolor="#d1d1d1"
     inkscape:document-units="px"
     showgrid="false"
     inkscape:zoom="25.0625"
     inkscape:cx="15.98005"
     inkscape:cy="16"
     inkscape:window-width="1920"
     inkscape:window-height="1011"
     inkscape:window-x="0"
     inkscape:window-y="0"
     inkscape:window-maximized="1"
     inkscape:current-layer="svg2112"
     showguides="false" />
  <defs
     id="defs2109">
    <linearGradient
       inkscape:collect="always"
       xlink:href="#linearGradient4405"
       id="linearGradient4407"
       x1="32"
       y1="10.5"
       x2="32"
       y2="18.5"
       gradientUnits="userSpaceOnUse"
       gradientTransform="matrix(0.50000001,0,0,0.50000001,1.0000004,-0.5000003)" />
    <linearGradient
       inkscape:collect="always"
       id="linearGradient4405">
      <stop
         style="stop-color:#fcbc19;stop-opacity:1;"
         offset="0"
         id="stop4401" />
      <stop
         style="stop-color:#f4b61f;stop-opacity:1"
         offset="1"
         id="stop4403" />
    </linearGradient>
    <linearGradient
       inkscape:collect="always"
       xlink:href="#linearGradient11972"
       id="linearGradient11974"
       x1="5.2916665"
       y1="5.5562496"
       x2="11.365417"
       y2="12.705174"
       gradientUnits="userSpaceOnUse"
       gradientTransform="matrix(1.8897637,0,0,1.8897637,1,0)" />
    <linearGradient
       inkscape:collect="always"
       id="linearGradient11972">
      <stop
         style="stop-color:#fce798;stop-opacity:1"
         offset="0"
         id="stop11968" />
      <stop
         style="stop-color:#ffc937;stop-opacity:1"
         offset="1"
         id="stop11970" />
    </linearGradient>
    <linearGradient
       inkscape:collect="always"
       xlink:href="#linearGradient12673"
       id="linearGradient5594"
       x1="2"
       y1="22"
       x2="58"
       y2="22"
       gradientUnits="userSpaceOnUse"
       gradientTransform="matrix(0.5,0,0,0.5,1.0000004,-0.5000003)" />
    <linearGradient
       inkscape:collect="always"
       id="linearGradient12673">
      <stop
         style="stop-color:#ffffff;stop-opacity:1;"
         offset="0"
         id="stop12669" />
      <stop
         style="stop-color:#ffffff;stop-opacity:0;"
         offset="1"
         id="stop12671" />
    </linearGradient>
    <linearGradient
       inkscape:collect="always"
       xlink:href="#linearGradient6090"
       id="linearGradient5817"
       gradientUnits="userSpaceOnUse"
       x1="2"
       y1="22"
       x2="58"
       y2="22"
       gradientTransform="matrix(0.50000001,0,0,0.50000001,1.0000004,-1.5000001)" />
    <linearGradient
       inkscape:collect="always"
       id="linearGradient6090">
      <stop
         style="stop-color:#e4a729;stop-opacity:1"
         offset="0"
         id="stop6086" />
      <stop
         style="stop-color:#e2b24b;stop-opacity:0"
         offset="1"
         id="stop6088" />
    </linearGradient>
    <linearGradient
       inkscape:collect="always"
       xlink:href="#linearGradient6118"
       id="linearGradient6120"
       x1="4.2333336"
       y1="2.1166668"
       x2="4.2333336"
       y2="2.9104171"
       gradientUnits="userSpaceOnUse"
       gradientTransform="matrix(11.338576,0,0,5.0393691,-17.999972,5.3333351)" />
    <linearGradient
       inkscape:collect="always"
       id="linearGradient6118">
      <stop
         style="stop-color:#999999;stop-opacity:1;"
         offset="0"
         id="stop6114" />
      <stop
         style="stop-color:#7e7e7e;stop-opacity:1"
         offset="1"
         id="stop6116" />
    </linearGradient>
    <linearGradient
       inkscape:collect="always"
       xlink:href="#linearGradient5150"
       id="linearGradient5152"
       x1="3.4494236"
       y1="1.8520833"
       x2="3.4459186"
       y2="2.9104166"
       gradientUnits="userSpaceOnUse"
       gradientTransform="matrix(3.7795275,0,0,-3.7795275,9,27)" />
    <linearGradient
       inkscape:collect="always"
       id="linearGradient5150">
      <stop
         style="stop-color:#aaaaaa;stop-opacity:1;"
         offset="0"
         id="stop5146" />
      <stop
         style="stop-color:#f6f6f5;stop-opacity:1"
         offset="1"
         id="stop5148" />
    </linearGradient>
    <linearGradient
       inkscape:collect="always"
       xlink:href="#linearGradient4066"
       id="linearGradient4068"
       x1="1.0583334"
       y1="2.1166668"
       x2="1.0583334"
       y2="3.96875"
       gradientUnits="userSpaceOnUse"
       gradientTransform="matrix(5.0393703,0,0,5.9392579,2.6666675,3.4285702)" />
    <linearGradient
       inkscape:collect="always"
       id="linearGradient4066">
      <stop
         style="stop-color:#d3d3d3;stop-opacity:1;"
         offset="0"
         id="stop4062" />
      <stop
         style="stop-color:#e1e1e1;stop-opacity:1"
         offset="0.2"
         id="stop4454" />
      <stop
         style="stop-color:#a3a3a3;stop-opacity:1"
         offset="1"
         id="stop4064" />
    </linearGradient>
    <linearGradient
       inkscape:collect="always"
       xlink:href="#linearGradient3105"
       id="linearGradient3097"
       x1="-1.0583334e-07"
       y1="3.7041669"
       x2="1.8520832"
       y2="3.7041669"
       gradientUnits="userSpaceOnUse"
       gradientTransform="matrix(3.7795275,0,0,3.7795275,1.0000004,3.9999992)" />
    <linearGradient
       inkscape:collect="always"
       id="linearGradient3105">
      <stop
         style="stop-color:#d3d3d3;stop-opacity:1;"
         offset="0"
         id="stop3099" />
      <stop
         style="stop-color:#e1e1e1;stop-opacity:1"
         offset="0.4285714"
         id="stop3101" />
      <stop
         style="stop-color:#a3a3a3;stop-opacity:0.6539132;"
         offset="1"
         id="stop3103" />
    </linearGradient>
    <linearGradient
       inkscape:collect="always"
       xlink:href="#linearGradient1168"
       id="linearGradient5653"
       x1="31"
       y1="21"
       x2="31"
       y2="29"
       gradientUnits="userSpaceOnUse" />
    <linearGradient
       inkscape:collect="always"
       id="linearGradient1168">
      <stop
         style="stop-color:#f4a46d;stop-opacity:1;"
         offset="0"
         id="stop1164" />
      <stop
         style="stop-color:#df7d00;stop-opacity:1;"
         offset="1"
         id="stop1166" />
    </linearGradient>
  </defs>
  <path
     id="rect846"
     style="fill:url(#linearGradient4407);fill-opacity:1;stroke-width:0.999999;stroke-linecap:round;stroke-linejoin:round;stroke-dasharray:12, 0.999999"
     d="M 4.0000004,4 C 2.9398304,4.0036467 2.0667029,4.8339318 2.009766,5.8925781 2.039863,8.1316157 2,19.5 2,19.5 H 30.000001 V 8 c 0,-0.5540001 -0.446,-1 -1,-1 h -13.5 l -2,-2 c -0.682628,-0.6681158 -1.169,-1 -2,-1 z"
     sodipodi:nodetypes="ccccssccsc" />
  <path
     id="rect1170"
     style="fill:url(#linearGradient11974);fill-opacity:1;stroke-width:1.32288;stroke-linecap:round;stroke-linejoin:round;stroke-dasharray:15.8745, 1.32288"
     d="M 15.500001,7.9999996 12.500001,10 H 4.0000006 c -1.1080002,0 -2.0000001,0.892 -2.0000001,2 v 12.999999 c 0,0.554 0.4459999,1.000001 1,1.000001 H 29.000001 c 0.554,0 1,-0.446001 1,-1.000001 V 8.9999999 c 0,-0.5540002 -0.445999,-1.0000003 -1,-1.0000003 z"
     sodipodi:nodetypes="ccsccccccsc" />
  <path
     id="rect1170-2"
     style="fill:#e4a729;fill-opacity:1;stroke-width:1.32288;stroke-linecap:round;stroke-linejoin:round;stroke-dasharray:15.8745, 1.32288"
     d="m 2.0000005,23.999999 v 1 c 0,0.554 0.4459999,1.000001 1,1.000001 H 29.000001 c 0.553999,0 1,-0.446001 1,-1.000001 v -1 c 0,0.554 -0.446001,1 -1,1 H 3.0000005 c -0.554,0 -1,-0.446 -1,-1 z"
     sodipodi:nodetypes="csssscssc" />
  <path
     id="rect1170-75"
     style="opacity:0.3;fill:url(#linearGradient5594);fill-opacity:1;stroke-width:1.32288;stroke-linecap:round;stroke-linejoin:round;stroke-dasharray:15.8745, 1.32288"
     d="M 15.500001,7.9999996 12.500001,10 H 4.0000002 C 2.8920004,10 2.0000005,10.892 2.0000005,11.999999 V 13 c 0,-1.108 0.8939118,-1.934936 1.9999997,-2 h 8.5000008 l 3,-2.0000001 H 29 C 29.554003,8.9999999 30.000001,9.446 30.000001,10 V 8.9999995 C 30.000001,8.4459997 29.554003,7.9999996 29,7.9999996 Z"
     sodipodi:nodetypes="ccsscsccscssc" />
  <path
     id="rect1170-75-2"
     style="fill:url(#linearGradient5817);fill-opacity:1;stroke-width:1.32288;stroke-linecap:round;stroke-linejoin:round;stroke-dasharray:15.8745, 1.32288"
     d="m 15.500001,7 -3,2 H 4.0000004 c -1.1045695,0 -1.9999999,0.895431 -2,2 v 0.947266 C 2.0272774,10.863385 2.909313,10 4.0000004,10 h 8.5000006 l 3,-2 h 13.5 c 0.545345,0 0.986362,0.4326694 1,0.9746094 V 8 c 0,-0.5540001 -0.445999,-1 -1,-1 z"
     sodipodi:nodetypes="ccsscsccscssc" />
  <rect
     style="fill:#ae9347;fill-opacity:1;stroke-width:1.25831"
     id="rect3074"
     width="21"
     height="4"
     x="7"
     y="16" />
  <rect
     style="opacity:0.3;fill:#000000;fill-opacity:1;stroke-width:2;stroke-linecap:round"
     id="rect11102"
     width="19"
     height="2"
     x="8"
     y="17" />
  <rect
     style="fill:url(#linearGradient6120);fill-opacity:1;stroke-width:2"
     id="rect6090"
     width="3"
     height="4"
     x="27.000002"
     y="16" />
  <path
     id="rect5034"
     style="fill:url(#linearGradient5152);fill-opacity:1;stroke-width:0.999999"
     d="M 9 17 L 9 18 L 10 18 L 10 17 L 9 17 z M 10 18 L 10 19 L 11 19 L 11 18 L 10 18 z M 11 18 L 12 18 L 12 17 L 11 17 L 11 18 z M 12 18 L 12 19 L 13 19 L 13 18 L 12 18 z M 13 18 L 14 18 L 14 17 L 13 17 L 13 18 z M 14 18 L 14 19 L 15 19 L 15 18 L 14 18 z M 15 18 L 16 18 L 16 17 L 15 17 L 15 18 z M 16 18 L 16 19 L 17 19 L 17 18 L 16 18 z M 17 18 L 18 18 L 18 17 L 17 17 L 17 18 z M 18 18 L 18 19 L 19 19 L 19 18 L 18 18 z M 19 18 L 20 18 L 20 17 L 19 17 L 19 18 z M 20 18 L 20 19 L 21 19 L 21 18 L 20 18 z M 21 18 L 22 18 L 22 17 L 21 17 L 21 18 z M 22 18 L 22 19 L 23 19 L 23 18 L 22 18 z M 23 18 L 24 18 L 24 17 L 23 17 L 23 18 z M 24 18 L 24 19 L 25 19 L 25 18 L 24 18 z M 25 18 L 26 18 L 26 17 L 25 17 L 25 18 z M 26 18 L 26 19 L 28.474609 19 L 28.5 19 C 28.777 19 29 18.777 29 18.5 L 29 17.5 C 29 17.223 28.777 17 28.5 17 L 28.474609 17 L 27 17 L 27 18 L 26 18 z M 9 18 L 8 18 L 8 19 L 9 19 L 9 18 z " />
  <rect
     style="opacity:0.2;fill:#000000;fill-opacity:1;stroke-width:2;stroke-linecap:round"
     id="rect11283"
     width="4"
     height="11"
     x="5"
     y="15.999999"
     ry="1" />
  <rect
     style="fill:#000000;fill-opacity:1;stroke-width:2;stroke-linecap:round;opacity:0.2"
     id="rect8144"
     width="1"
     height="3"
     x="5"
     y="23" />
  <path
     id="rect2535"
     style="fill:url(#linearGradient3097);fill-opacity:1;stroke-width:2;stroke-linecap:round"
     d="m 2,15 c -0.7982054,0.04753 -1,0.918149 -1,2 v 2 c 0.00606,1.094642 0.1820106,1.896293 1,2 H 3 C 5.0658076,20.899854 7,20.589945 8,20 V 16 C 6.842104,15.281562 5,15.19552 3,15 Z"
     sodipodi:nodetypes="ccccccccc" />
  <rect
     style="fill:#838383;fill-opacity:1;stroke-width:1.63299"
     id="rect6824-3"
     width="2"
     height="4"
     x="3"
     y="15.999999" />
  <path
     id="rect3442"
     style="fill:url(#linearGradient4068);fill-opacity:1;stroke-width:1.44748"
     d="M 4 16 L 4 27 L 8 27 L 8 16 L 4 16 z M 5 24 L 7 24 L 7 26 L 5 26 L 5 24 z " />
  <rect
     style="fill:#747474;fill-opacity:1;stroke-width:2"
     id="rect4652"
     width="2"
     height="2"
     x="5"
     y="17" />
  <rect
     style="fill:#e6e6e6;fill-opacity:1;stroke-width:2;stroke-linecap:round"
     id="rect2533"
     width="3.0000002"
     height="2"
     x="3"
     y="17" />
  <rect
     style="fill:url(#linearGradient5653);fill-opacity:1.0;stroke-width:4.5542;stroke-linecap:round;stroke-linejoin:round"
     id="rect332"
     width="18"
     height="8"
     x="13"
     y="21"
     ry="1" />
  <path
     id="path1137"
     style="font-weight:600;font-size:8px;font-family:'Segoe UI Variable Static Text';-inkscape-font-specification:'Segoe UI Variable Static Text Semi-Bold';text-align:center;text-anchor:middle;fill:#ffffff;stroke-linecap:round;stroke-linejoin:round"
     d="M 17.097656,22.000005 15,27.601567 h 1.015624 l 0.464844,-1.351562 h 2.246094 l 0.480469,1.351562 h 1.019531 l -2.082031,-5.601562 z m 3.902344,0 v 5.601562 h 0.929687 V 25.406255 H 22.4375 c 0.169271,0.0078 0.316406,0.0612 0.441406,0.160156 0.125,0.09635 0.264323,0.276042 0.417968,0.539063 l 0.863282,1.496093 h 1.070312 L 24.1875,25.847661 C 24.08854,25.678391 23.98177,25.533859 23.867187,25.414067 23.752604,25.29167 23.626301,25.200523 23.488281,25.14063 V 25.125 c 0.367187,-0.125 0.65625,-0.321615 0.867187,-0.589844 0.213542,-0.268229 0.320313,-0.595052 0.320313,-0.980468 0,-0.515625 -0.165365,-0.903647 -0.496094,-1.164063 C 23.848958,22.130209 23.395832,22 22.820312,22 Z m 6.101562,0 -0.01172,3.898438 c 0,0.361978 -0.06641,0.619791 -0.199219,0.773437 -0.130207,0.153646 -0.325521,0.230469 -0.585937,0.230469 -0.09375,0 -0.182292,-0.0091 -0.265625,-0.02734 -0.08073,-0.01823 -0.169271,-0.04557 -0.265625,-0.08203 l -0.265625,0.742187 c 0.148437,0.05729 0.291667,0.09765 0.429688,0.121094 0.140625,0.02604 0.283854,0.03906 0.429687,0.03906 0.549479,1e-6 0.963542,-0.154948 1.242187,-0.464843 0.28125,-0.309896 0.421875,-0.755209 0.421876,-1.335938 l -0.0039,-3.894531 z m -5.171875,0.753906 h 0.75 c 0.333333,0 0.585938,0.07813 0.757813,0.234375 0.174479,0.15625 0.261718,0.373698 0.261718,0.652344 0,0.291666 -0.09766,0.532552 -0.292968,0.722656 -0.192708,0.190104 -0.440105,0.285157 -0.742188,0.285157 h -0.734375 z m -4.339844,0.113282 h 0.02344 c 0.01302,0.08594 0.02604,0.158856 0.03906,0.21875 0.01302,0.05729 0.02865,0.114581 0.04687,0.171874 l 0.777344,2.226563 h -1.753906 l 0.773437,-2.234375 c 0.02083,-0.05729 0.03776,-0.115888 0.05078,-0.175781 0.01563,-0.0599 0.02995,-0.128906 0.04297,-0.207031 z" />
</svg>
