<?xml version="1.0" encoding="UTF-8" standalone="no"?>
<!-- Created with Inkscape (http://www.inkscape.org/) -->

<svg
   width="32"
   height="32"
   viewBox="0 0 32 32"
   version="1.1"
   id="svg5"
   inkscape:version="1.2.1 (9c6d41e410, 2022-07-14, custom)"
   sodipodi:docname="application-x-perl.svg"
   xmlns:inkscape="http://www.inkscape.org/namespaces/inkscape"
   xmlns:sodipodi="http://sodipodi.sourceforge.net/DTD/sodipodi-0.dtd"
   xmlns:xlink="http://www.w3.org/1999/xlink"
   xmlns="http://www.w3.org/2000/svg"
   xmlns:svg="http://www.w3.org/2000/svg">
  <sodipodi:namedview
     id="namedview7"
     pagecolor="#ffffff"
     bordercolor="#000000"
     borderopacity="0.25"
     inkscape:showpageshadow="2"
     inkscape:pageopacity="0.0"
     inkscape:pagecheckerboard="0"
     inkscape:deskcolor="#d1d1d1"
     inkscape:document-units="px"
     showgrid="false"
     inkscape:zoom="25.0625"
     inkscape:cx="16"
     inkscape:cy="16"
     inkscape:window-width="1920"
     inkscape:window-height="1011"
     inkscape:window-x="0"
     inkscape:window-y="0"
     inkscape:window-maximized="1"
     inkscape:current-layer="svg5" />
  <defs
     id="defs2">
    <linearGradient
       inkscape:collect="always"
       xlink:href="#linearGradient3605"
       id="linearGradient1706"
       x1="46.000046"
       y1="21"
       x2="46.000046"
       y2="52"
       gradientUnits="userSpaceOnUse"
       gradientTransform="matrix(0.49999838,0,0,0.48387086,4.7060243e-5,1.8387116)" />
    <linearGradient
       inkscape:collect="always"
       id="linearGradient3605">
      <stop
         style="stop-color:#0d6eaa;stop-opacity:1;"
         offset="0"
         id="stop3601" />
      <stop
         style="stop-color:#185086;stop-opacity:1"
         offset="1"
         id="stop3603" />
    </linearGradient>
  </defs>
  <path
     id="rect846"
     style="fill:#7d7d7b;stroke-width:0.999999;stroke-linecap:round;stroke-linejoin:round"
     d="M 5,1 H 20.5 L 27,7.5 V 31 H 5 Z"
     sodipodi:nodetypes="cccccc" />
  <path
     id="rect1454"
     style="fill:#fafafa;stroke-width:0.999999;stroke-linecap:round;stroke-linejoin:round"
     d="M 6,1.9999987 V 29.999998 H 26 V 9 H 20 C 19.314274,9 19.000001,8.5097479 19.000001,8 V 1.9999987 Z m 14,0 V 8 h 6 z"
     sodipodi:nodetypes="ccccsscccccc" />
  <path
     d="m 18.090941,19.994877 c 0.13726,0.768529 0.230449,1.339241 0.279159,2.117373 0.0135,0.484581 -0.135409,0.960711 -0.425253,1.359714 -0.06819,0.231215 -0.272675,0 -0.418769,0 -0.360384,0 -0.493449,-0.370023 -0.688283,-0.598186 -0.194774,-0.228164 -0.05528,-0.434738 0.07468,-0.616615 0.13961,-0.09557 0.194774,-0.308308 0.396089,-0.308308 0.201264,0 0.175314,-0.262074 0.146099,-0.400825 0.133065,-0.194252 0.05189,-0.27669 0.1818,-0.489425 0.233694,-0.09863 0.165554,-0.443952 0.246724,-0.638205 0.06492,-0.138751 0,-0.403933 0.185014,-0.462487 0,0 0.02255,0 0.0192,0.03054 M 17.863407,12.07071 c -0.305164,-0.03375 -0.535643,0.163449 -0.792128,0.27445 -0.212869,0.06727 -0.429643,0.122847 -0.649248,0.166448 -0.159064,0.30836 -0.525938,0.490239 -0.723982,0.780064 -0.20265,0.575913 -0.579838,1.082175 -1.084262,1.455284 -0.720712,0.354595 -0.884062,1.125389 -1.121031,1.849951 -0.08117,0.163395 -0.06819,0.403934 -0.15585,0.542632 -0.285704,0.07709 -0.133124,-0.27745 -0.165559,-0.447059 -0.0423,-0.252806 0.191559,-0.416202 0.207749,-0.662901 0.09669,-0.175235 0.137315,-0.615239 0.116875,-0.812122 -0.0327,-0.440898 0.10712,-0.977369 -0.220719,-1.338124 -0.194835,-0.107894 -0.133125,-0.336058 -0.204535,-0.511828 -0.193644,-0.25104 -0.440203,-0.461035 -0.723987,-0.616614 -0.233695,-0.02143 -0.447984,-0.308361 -0.688223,-0.175769 -0.14931,0.166502 -0.425254,0.163394 -0.512911,0.385397 -0.05528,0.277503 -0.38306,0.20352 -0.597351,0.271342 -0.272673,0.101734 -0.8235484,0 -1.0475417,0.206575 -0.2239928,0.206574 -0.590865,0.50872 -0.4804769,0.857152 0.2564841,0.477863 1.1189536,0.237377 1.4793396,0.527203 -0.113818,0.320676 -0.244931,0.877319 -0.39282,1.185199 -0.05891,0.418071 -0.06762,0.841148 -0.02595,1.261086 0.06819,0.419308 -0.04569,0.958886 0.32468,1.254873 0.211019,0.07398 0.198045,0.308307 0.27916,0.48097 0.08117,0.172664 0.237021,-0.06166 0.301947,0.104841 0.188285,0.09863 0.01918,0.308306 0.123362,0.43163 0.173243,0.03256 0.332498,0.11302 0.457742,0.23127 0.199534,0.131981 0.385404,0.281673 0.555103,0.44706 0.12985,0.252806 0.295464,-0.246647 0.438289,-0.05861 0.07307,0.171317 0.287344,0.243489 0.457743,0.154179 0.26432,-0.04232 0.513869,-0.144956 0.727198,-0.299092 0.13961,0.471756 0.03215,0.983583 0.09415,1.470714 0.08629,0.355718 -0.05967,0.717757 -0.03795,1.08221 0.09733,0.359113 0.153935,0.727087 0.168829,1.097638 0.105545,0.769944 -0.0323,1.552307 -0.396038,2.24767 -0.0434,0.217966 -0.222075,0.388913 -0.451259,0.431685 -0.162339,0.07088 -0.499933,0.197305 -0.386329,0.419308 0.376574,0.308307 0.973927,0.274396 1.405721,0.117162 0.285649,-0.132591 0.0389,-0.462488 0.185014,-0.6629 0.191565,-0.702974 0.09742,-1.455286 0.324624,-2.15826 0.17583,-0.354409 0.242249,-0.7489 0.19156,-1.13771 0.0457,-0.23743 -0.05843,-0.524149 0.103904,-0.718401 0.0025,-0.238887 0.09587,-0.468857 0.262914,-0.647472 0.05291,-0.362717 0.08003,-0.728406 0.08117,-1.094584 0.228645,-0.06788 0.469424,-0.09095 0.707738,-0.06782 0,0.203521 -0.152579,0.437845 -0.107114,0.666008 0.0478,0.256312 -0.004,0.316062 -0.146095,0.538713 -0.10063,0.400825 -0.168829,0.894116 0.09414,1.233282 0.435009,0.453219 1.003142,0.773901 1.415425,1.257979 0.140085,0.107357 0.14909,0.307134 0.0192,0.425469 -0.07564,0.261162 -0.282184,0.470008 -0.551888,0.558061 -0.172044,0.06476 -0.447988,0.308307 -0.246724,0.477915 0.405099,0.08672 0.827987,0.05994 1.217376,-0.07709 0.266244,-0.09252 0.16883,-0.397721 0.272729,-0.588919 0.14336,0.18495 0.275584,0.377456 0.396034,0.576597 0.165614,0.234324 0.451259,0.04018 0.649308,-0.03374 0.02335,-0.342831 -0.0495,-0.685407 -0.211014,-0.992793 -0.09088,-0.203521 -0.444774,-0.209681 -0.428529,-0.459435 0.175314,-0.616614 0.610328,-1.097584 0.954467,-1.618679 0.285644,-0.258969 0.07141,-0.644419 0.08766,-0.971209 -0.09104,-0.839951 0.123159,-1.479876 0.607053,-2.188249 0.10023,0.393483 0.229319,0.779825 0.386334,1.156193 0.113169,0.441281 0.318509,0.856478 0.603838,1.220961 0.133064,0.437845 0.09736,0.924976 0.185014,1.378195 0.125465,0.783709 0.07905,1.39014 -0.136334,2.156008 0.02255,0.280556 -0.256484,0.487131 -0.23048,0.761528 0.07789,0.25286 0.389544,0.04929 0.551884,0.157234 0.293129,0.08645 0.608588,-0.04494 0.740177,-0.308307 -0.06773,-0.214208 -0.113409,-0.434152 -0.136394,-0.656741 -0.222755,-0.648397 -0.271844,-1.14585 -0.14282,-1.81679 0.02595,-0.363808 0.256479,-0.807812 -0.0423,-1.119228 -0.08117,-0.333004 0.05844,-0.693703 -0.02595,-1.035976 -0.200184,-0.87689 -0.223324,-1.781894 -0.0682,-2.666979 0.0519,-0.123323 0,-0.351486 0.139609,-0.419309 0.13815,0.19589 0.20014,0.431367 0.175315,0.665956 0.126229,0.363607 0.142059,0.753629 0.0457,1.125387 -0.236969,0.286719 -0.09087,0.675223 -0.06165,0.998959 0.0389,0.228163 0.288914,0.06476 0.324619,-0.07709 0.218159,-0.3859 0.394378,-0.79189 0.525943,-1.211693 0.149309,-0.191144 0,-0.416254 0,-0.616668 0.230479,-0.02785 0.142824,-0.274395 0.0192,-0.38229 -0.123375,-0.394676 -0.09416,-0.851003 -0.373369,-1.187061 C 22.060798,16.888106 21.694805,16.39063 21.417971,15.847867 21.122512,14.962963 20.278489,14.374046 19.99279,13.479928 19.8856,12.961072 19.557951,12.507124 19.087058,12.225055 18.877339,12.133605 18.660199,12.058342 18.437755,12 c -0.189264,0.03751 -0.381449,0.06019 -0.574618,0.06782"
     style="fill:url(#linearGradient1706);fill-opacity:1;stroke-width:0.491868"
     id="path724" />
</svg>
