<?xml version="1.0" encoding="UTF-8" standalone="no"?>
<!-- Created with Inkscape (http://www.inkscape.org/) -->

<svg
   width="32"
   height="32"
   viewBox="0 0 32 32"
   version="1.1"
   id="svg5"
   inkscape:version="1.2.1 (9c6d41e410, 2022-07-14, custom)"
   sodipodi:docname="application-vnd.ms-word.svg"
   xmlns:inkscape="http://www.inkscape.org/namespaces/inkscape"
   xmlns:sodipodi="http://sodipodi.sourceforge.net/DTD/sodipodi-0.dtd"
   xmlns="http://www.w3.org/2000/svg"
   xmlns:svg="http://www.w3.org/2000/svg">
  <sodipodi:namedview
     id="namedview7"
     pagecolor="#ffffff"
     bordercolor="#000000"
     borderopacity="0.25"
     inkscape:showpageshadow="2"
     inkscape:pageopacity="0.0"
     inkscape:pagecheckerboard="0"
     inkscape:deskcolor="#d1d1d1"
     inkscape:document-units="px"
     showgrid="false"
     inkscape:zoom="26.65625"
     inkscape:cx="15.981243"
     inkscape:cy="16"
     inkscape:window-width="1920"
     inkscape:window-height="1029"
     inkscape:window-x="0"
     inkscape:window-y="0"
     inkscape:window-maximized="1"
     inkscape:current-layer="svg5"
     showguides="false" />
  <defs
     id="defs2" />
  <path
     id="rect846"
     style="fill:#7d7d7b;stroke-width:0.999999;stroke-linecap:round;stroke-linejoin:round"
     d="M 5,1 H 20.5 L 27,7.5 V 31 H 5 Z"
     sodipodi:nodetypes="cccccc" />
  <path
     id="rect1454"
     style="fill:#fafafa;stroke-width:0.999999;stroke-linecap:round;stroke-linejoin:round"
     d="M 6,1.9999987 V 29.999998 H 26 V 9 H 20 C 19.314274,9 19.000001,8.5097479 19.000001,8 V 1.9999987 Z m 14,0 V 8 h 6 z"
     sodipodi:nodetypes="ccccsscccccc" />
  <rect
     style="fill:#103f91;fill-opacity:1;stroke-width:0.447213;stroke-linecap:round"
     id="rect445"
     width="8"
     height="0.99999988"
     x="16"
     y="20"
     ry="0.49999994" />
  <rect
     style="fill:#1859bb;fill-opacity:1;stroke-width:1.63299;stroke-linecap:round"
     id="rect341"
     width="8"
     height="1"
     x="16"
     y="18"
     ry="0.5" />
  <rect
     style="fill:#2b7cd3;fill-opacity:1;stroke-width:1.63299;stroke-linecap:round"
     id="rect343"
     width="8"
     height="1"
     x="16"
     y="16"
     ry="0.5" />
  <rect
     style="fill:#41a5ee;fill-opacity:1;stroke-width:1.63299;stroke-linecap:round"
     id="rect345"
     width="8"
     height="1"
     x="16"
     y="14"
     ry="0.5" />
  <path
     id="rect2355"
     style="fill:#1859bb;stroke-width:10.0698;stroke-linecap:round;stroke-linejoin:round"
     d="M 2.0000001,11 H 12.999999 C 13.553999,11 14,11.445999 14,12 v 11.000001 c 0,0.554 -0.446001,1 -1.000001,1 H 2.0000001 C 1.446,24.000001 1,23.554001 1,23.000001 V 12 c 0,-0.554001 0.446,-1 1.0000001,-1 z" />
  <path
     id="rect8731"
     style="fill:#ffffff;fill-opacity:1;stroke-width:0.79691;stroke-linecap:round;stroke-linejoin:round"
     d="m 3,13.5 1.5834439,7.831097 H 6.081282 l 1.030899,-4.346169 c 0.1275062,-0.616278 0.2551144,-1.20062 0.3719962,-1.795642 h 0.042542 c 0.1062539,0.595022 0.2335937,1.179364 0.3610998,1.795642 l 1.0516517,4.346169 H 10.459099 L 11.999999,13.5 h -1.1798 l -0.743471,4.06964 c -0.1275059,0.828782 -0.2551367,1.668325 -0.3932668,2.518359 h -0.05292 C 9.4499091,19.237965 9.2799003,18.398422 9.099268,17.56964 L 8.0896409,13.5 H 6.9954458 L 5.9961954,17.56964 C 5.8155642,18.398422 5.624305,19.237965 5.464922,20.087999 H 5.4228974 C 5.2741413,19.237965 5.1355944,18.409046 4.9974636,17.56964 L 4.2643687,13.5 Z" />
</svg>
