<?xml version="1.0" encoding="UTF-8" standalone="no"?>
<!-- Created with Inkscape (http://www.inkscape.org/) -->

<svg
   width="32"
   height="32"
   viewBox="0 0 32 32"
   version="1.1"
   id="svg2112"
   inkscape:version="1.2.1 (9c6d41e410, 2022-07-14, custom)"
   sodipodi:docname="application-x-bzip.svg"
   xmlns:inkscape="http://www.inkscape.org/namespaces/inkscape"
   xmlns:sodipodi="http://sodipodi.sourceforge.net/DTD/sodipodi-0.dtd"
   xmlns:xlink="http://www.w3.org/1999/xlink"
   xmlns="http://www.w3.org/2000/svg"
   xmlns:svg="http://www.w3.org/2000/svg">
  <sodipodi:namedview
     id="namedview2114"
     pagecolor="#ffffff"
     bordercolor="#000000"
     borderopacity="0.25"
     inkscape:showpageshadow="2"
     inkscape:pageopacity="0.0"
     inkscape:pagecheckerboard="0"
     inkscape:deskcolor="#d1d1d1"
     inkscape:document-units="px"
     showgrid="false"
     inkscape:zoom="25.28125"
     inkscape:cx="16"
     inkscape:cy="16"
     inkscape:window-width="1920"
     inkscape:window-height="1012"
     inkscape:window-x="0"
     inkscape:window-y="0"
     inkscape:window-maximized="1"
     inkscape:current-layer="svg2112"
     showguides="false" />
  <defs
     id="defs2109">
    <linearGradient
       inkscape:collect="always"
       id="linearGradient1632">
      <stop
         style="stop-color:#8c6dba;stop-opacity:1;"
         offset="0"
         id="stop1628" />
      <stop
         style="stop-color:#634185;stop-opacity:1;"
         offset="1"
         id="stop1630" />
    </linearGradient>
    <linearGradient
       inkscape:collect="always"
       xlink:href="#linearGradient4405"
       id="linearGradient4407"
       x1="32"
       y1="10.5"
       x2="32"
       y2="18.5"
       gradientUnits="userSpaceOnUse"
       gradientTransform="matrix(0.50000001,0,0,0.50000001,1.0000004,-0.5000003)" />
    <linearGradient
       inkscape:collect="always"
       id="linearGradient4405">
      <stop
         style="stop-color:#fcbc19;stop-opacity:1;"
         offset="0"
         id="stop4401" />
      <stop
         style="stop-color:#f4b61f;stop-opacity:1"
         offset="1"
         id="stop4403" />
    </linearGradient>
    <linearGradient
       inkscape:collect="always"
       xlink:href="#linearGradient11972"
       id="linearGradient11974"
       x1="5.2916665"
       y1="5.5562496"
       x2="11.365417"
       y2="12.705174"
       gradientUnits="userSpaceOnUse"
       gradientTransform="matrix(1.8897637,0,0,1.8897637,1,0)" />
    <linearGradient
       inkscape:collect="always"
       id="linearGradient11972">
      <stop
         style="stop-color:#fce798;stop-opacity:1"
         offset="0"
         id="stop11968" />
      <stop
         style="stop-color:#ffc937;stop-opacity:1"
         offset="1"
         id="stop11970" />
    </linearGradient>
    <linearGradient
       inkscape:collect="always"
       xlink:href="#linearGradient12673"
       id="linearGradient5594"
       x1="2"
       y1="22"
       x2="58"
       y2="22"
       gradientUnits="userSpaceOnUse"
       gradientTransform="matrix(0.5,0,0,0.5,1.0000004,-0.5000003)" />
    <linearGradient
       inkscape:collect="always"
       id="linearGradient12673">
      <stop
         style="stop-color:#ffffff;stop-opacity:1;"
         offset="0"
         id="stop12669" />
      <stop
         style="stop-color:#ffffff;stop-opacity:0;"
         offset="1"
         id="stop12671" />
    </linearGradient>
    <linearGradient
       inkscape:collect="always"
       xlink:href="#linearGradient6090"
       id="linearGradient5817"
       gradientUnits="userSpaceOnUse"
       x1="2"
       y1="22"
       x2="58"
       y2="22"
       gradientTransform="matrix(0.50000001,0,0,0.50000001,1.0000004,-1.5000001)" />
    <linearGradient
       inkscape:collect="always"
       id="linearGradient6090">
      <stop
         style="stop-color:#e4a729;stop-opacity:1"
         offset="0"
         id="stop6086" />
      <stop
         style="stop-color:#e2b24b;stop-opacity:0"
         offset="1"
         id="stop6088" />
    </linearGradient>
    <linearGradient
       inkscape:collect="always"
       xlink:href="#linearGradient6118"
       id="linearGradient6120"
       x1="4.2333336"
       y1="2.1166668"
       x2="4.2333336"
       y2="2.9104171"
       gradientUnits="userSpaceOnUse"
       gradientTransform="matrix(11.338576,0,0,5.0393691,-17.999972,5.3333351)" />
    <linearGradient
       inkscape:collect="always"
       id="linearGradient6118">
      <stop
         style="stop-color:#999999;stop-opacity:1;"
         offset="0"
         id="stop6114" />
      <stop
         style="stop-color:#7e7e7e;stop-opacity:1"
         offset="1"
         id="stop6116" />
    </linearGradient>
    <linearGradient
       inkscape:collect="always"
       xlink:href="#linearGradient5150"
       id="linearGradient5152"
       x1="3.4494236"
       y1="1.8520833"
       x2="3.4459186"
       y2="2.9104166"
       gradientUnits="userSpaceOnUse"
       gradientTransform="matrix(3.7795275,0,0,-3.7795275,9,27)" />
    <linearGradient
       inkscape:collect="always"
       id="linearGradient5150">
      <stop
         style="stop-color:#aaaaaa;stop-opacity:1;"
         offset="0"
         id="stop5146" />
      <stop
         style="stop-color:#f6f6f5;stop-opacity:1"
         offset="1"
         id="stop5148" />
    </linearGradient>
    <linearGradient
       inkscape:collect="always"
       xlink:href="#linearGradient4066"
       id="linearGradient4068"
       x1="1.0583334"
       y1="2.1166668"
       x2="1.0583334"
       y2="3.96875"
       gradientUnits="userSpaceOnUse"
       gradientTransform="matrix(5.0393703,0,0,5.9392579,2.6666675,3.4285702)" />
    <linearGradient
       inkscape:collect="always"
       id="linearGradient4066">
      <stop
         style="stop-color:#d3d3d3;stop-opacity:1;"
         offset="0"
         id="stop4062" />
      <stop
         style="stop-color:#e1e1e1;stop-opacity:1"
         offset="0.2"
         id="stop4454" />
      <stop
         style="stop-color:#a3a3a3;stop-opacity:1"
         offset="1"
         id="stop4064" />
    </linearGradient>
    <linearGradient
       inkscape:collect="always"
       xlink:href="#linearGradient3105"
       id="linearGradient3097"
       x1="-1.0583334e-07"
       y1="3.7041669"
       x2="1.8520832"
       y2="3.7041669"
       gradientUnits="userSpaceOnUse"
       gradientTransform="matrix(3.7795275,0,0,3.7795275,1.0000004,3.9999992)" />
    <linearGradient
       inkscape:collect="always"
       id="linearGradient3105">
      <stop
         style="stop-color:#d3d3d3;stop-opacity:1;"
         offset="0"
         id="stop3099" />
      <stop
         style="stop-color:#e1e1e1;stop-opacity:1"
         offset="0.4285714"
         id="stop3101" />
      <stop
         style="stop-color:#a3a3a3;stop-opacity:0.6539132;"
         offset="1"
         id="stop3103" />
    </linearGradient>
    <linearGradient
       inkscape:collect="always"
       xlink:href="#linearGradient1632"
       id="linearGradient971"
       x1="28.000002"
       y1="15.999997"
       x2="28.000002"
       y2="21.399998"
       gradientUnits="userSpaceOnUse"
       gradientTransform="matrix(1,0,0,1.4814815,2.9999982,-2.7037001)" />
  </defs>
  <path
     id="rect846"
     style="fill:url(#linearGradient4407);fill-opacity:1;stroke-width:0.999999;stroke-linecap:round;stroke-linejoin:round;stroke-dasharray:12, 0.999999"
     d="M 4.0000004,4 C 2.9398304,4.0036467 2.0667029,4.8339318 2.009766,5.8925781 2.039863,8.1316157 2,19.5 2,19.5 H 30.000001 V 8 c 0,-0.5540001 -0.446,-1 -1,-1 h -13.5 l -2,-2 c -0.682628,-0.6681158 -1.169,-1 -2,-1 z"
     sodipodi:nodetypes="ccccssccsc" />
  <path
     id="rect1170"
     style="fill:url(#linearGradient11974);fill-opacity:1;stroke-width:1.32288;stroke-linecap:round;stroke-linejoin:round;stroke-dasharray:15.8745, 1.32288"
     d="M 15.500001,7.9999996 12.500001,10 H 4.0000006 c -1.1080002,0 -2.0000001,0.892 -2.0000001,2 v 12.999999 c 0,0.554 0.4459999,1.000001 1,1.000001 H 29.000001 c 0.554,0 1,-0.446001 1,-1.000001 V 8.9999999 c 0,-0.5540002 -0.445999,-1.0000003 -1,-1.0000003 z"
     sodipodi:nodetypes="ccsccccccsc" />
  <path
     id="rect1170-2"
     style="fill:#e4a729;fill-opacity:1;stroke-width:1.32288;stroke-linecap:round;stroke-linejoin:round;stroke-dasharray:15.8745, 1.32288"
     d="m 2.0000005,23.999999 v 1 c 0,0.554 0.4459999,1.000001 1,1.000001 H 29.000001 c 0.553999,0 1,-0.446001 1,-1.000001 v -1 c 0,0.554 -0.446001,1 -1,1 H 3.0000005 c -0.554,0 -1,-0.446 -1,-1 z"
     sodipodi:nodetypes="csssscssc" />
  <path
     id="rect1170-75"
     style="opacity:0.3;fill:url(#linearGradient5594);fill-opacity:1;stroke-width:1.32288;stroke-linecap:round;stroke-linejoin:round;stroke-dasharray:15.8745, 1.32288"
     d="M 15.500001,7.9999996 12.500001,10 H 4.0000002 C 2.8920004,10 2.0000005,10.892 2.0000005,11.999999 V 13 c 0,-1.108 0.8939118,-1.934936 1.9999997,-2 h 8.5000008 l 3,-2.0000001 H 29 C 29.554003,8.9999999 30.000001,9.446 30.000001,10 V 8.9999995 C 30.000001,8.4459997 29.554003,7.9999996 29,7.9999996 Z"
     sodipodi:nodetypes="ccsscsccscssc" />
  <path
     id="rect1170-75-2"
     style="fill:url(#linearGradient5817);fill-opacity:1;stroke-width:1.32288;stroke-linecap:round;stroke-linejoin:round;stroke-dasharray:15.8745, 1.32288"
     d="m 15.500001,7 -3,2 H 4.0000004 c -1.1045695,0 -1.9999999,0.895431 -2,2 v 0.947266 C 2.0272774,10.863385 2.909313,10 4.0000004,10 h 8.5000006 l 3,-2 h 13.5 c 0.545345,0 0.986362,0.4326694 1,0.9746094 V 8 c 0,-0.5540001 -0.445999,-1 -1,-1 z"
     sodipodi:nodetypes="ccsscsccscssc" />
  <rect
     style="fill:#ae9347;fill-opacity:1;stroke-width:1.25831"
     id="rect3074"
     width="21"
     height="4"
     x="7"
     y="16" />
  <rect
     style="opacity:0.3;fill:#000000;fill-opacity:1;stroke-width:2;stroke-linecap:round"
     id="rect11102"
     width="19"
     height="2"
     x="8"
     y="17" />
  <rect
     style="fill:url(#linearGradient6120);fill-opacity:1;stroke-width:2"
     id="rect6090"
     width="3"
     height="4"
     x="27.000002"
     y="16" />
  <path
     id="rect5034"
     style="fill:url(#linearGradient5152);fill-opacity:1;stroke-width:0.999999"
     d="M 9 17 L 9 18 L 10 18 L 10 17 L 9 17 z M 10 18 L 10 19 L 11 19 L 11 18 L 10 18 z M 11 18 L 12 18 L 12 17 L 11 17 L 11 18 z M 12 18 L 12 19 L 13 19 L 13 18 L 12 18 z M 13 18 L 14 18 L 14 17 L 13 17 L 13 18 z M 14 18 L 14 19 L 15 19 L 15 18 L 14 18 z M 15 18 L 16 18 L 16 17 L 15 17 L 15 18 z M 16 18 L 16 19 L 17 19 L 17 18 L 16 18 z M 17 18 L 18 18 L 18 17 L 17 17 L 17 18 z M 18 18 L 18 19 L 19 19 L 19 18 L 18 18 z M 19 18 L 20 18 L 20 17 L 19 17 L 19 18 z M 20 18 L 20 19 L 21 19 L 21 18 L 20 18 z M 21 18 L 22 18 L 22 17 L 21 17 L 21 18 z M 22 18 L 22 19 L 23 19 L 23 18 L 22 18 z M 23 18 L 24 18 L 24 17 L 23 17 L 23 18 z M 24 18 L 24 19 L 25 19 L 25 18 L 24 18 z M 25 18 L 26 18 L 26 17 L 25 17 L 25 18 z M 26 18 L 26 19 L 28.474609 19 L 28.5 19 C 28.777 19 29 18.777 29 18.5 L 29 17.5 C 29 17.223 28.777 17 28.5 17 L 28.474609 17 L 27 17 L 27 18 L 26 18 z M 9 18 L 8 18 L 8 19 L 9 19 L 9 18 z " />
  <rect
     style="opacity:0.2;fill:#000000;fill-opacity:1;stroke-width:2;stroke-linecap:round"
     id="rect11283"
     width="4"
     height="11"
     x="5"
     y="15.999999"
     ry="1" />
  <rect
     style="fill:#000000;fill-opacity:1;stroke-width:2;stroke-linecap:round;opacity:0.2"
     id="rect8144"
     width="1"
     height="3"
     x="5"
     y="23" />
  <path
     id="rect2535"
     style="fill:url(#linearGradient3097);fill-opacity:1;stroke-width:2;stroke-linecap:round"
     d="m 2,15 c -0.7982054,0.04753 -1,0.918149 -1,2 v 2 c 0.00606,1.094642 0.1820106,1.896293 1,2 H 3 C 5.0658076,20.899854 7,20.589945 8,20 V 16 C 6.842104,15.281562 5,15.19552 3,15 Z"
     sodipodi:nodetypes="ccccccccc" />
  <rect
     style="fill:#838383;fill-opacity:1;stroke-width:1.63299"
     id="rect6824-3"
     width="2"
     height="4"
     x="3"
     y="15.999999" />
  <path
     id="rect3442"
     style="fill:url(#linearGradient4068);fill-opacity:1;stroke-width:1.44748"
     d="M 4 16 L 4 27 L 8 27 L 8 16 L 4 16 z M 5 24 L 7 24 L 7 26 L 5 26 L 5 24 z " />
  <rect
     style="fill:#747474;fill-opacity:1;stroke-width:2"
     id="rect4652"
     width="2"
     height="2"
     x="5"
     y="17" />
  <rect
     style="fill:#e6e6e6;fill-opacity:1;stroke-width:2;stroke-linecap:round"
     id="rect2533"
     width="3.0000002"
     height="2"
     x="3"
     y="17" />
  <rect
     style="fill:url(#linearGradient971);fill-opacity:1.0;stroke-width:4.5542;stroke-linecap:round;stroke-linejoin:round"
     id="rect332"
     width="18"
     height="8"
     x="13"
     y="21"
     ry="1" />
  <path
     d="m 24.67271,27.601796 h -0.957106 v -5.602 h 0.957106 z m -1.949372,0 h -4.301117 v -0.449254 l 3.023674,-4.347996 h -2.793187 v -0.80475 h 4.10579 v 0.425814 l -3.011955,4.371436 h 2.976795 z m 4.355809,-1.949371 v 1.949371 h -0.953199 v -5.602 h 1.754043 c 0.651093,0 1.145923,0.151053 1.484492,0.45316 0.341172,0.299503 0.511759,0.737037 0.511759,1.312603 0,0.557335 -0.192724,1.011798 -0.578171,1.363388 -0.382843,0.348985 -0.898508,0.523478 -1.546996,0.523478 z m 0,-2.875225 v 2.105634 h 0.593797 c 0.395864,0 0.695367,-0.09245 0.898508,-0.277366 0.205745,-0.18491 0.308617,-0.451858 0.308617,-0.800844 0,-0.343777 -0.09766,-0.600307 -0.292991,-0.769591 C 28.394355,22.863145 28.103967,22.7772 27.715916,22.7772 Z M 14,27.601796 v -5.602 h 1.812642 c 0.554731,0 0.985754,0.117196 1.293069,0.35159 0.307317,0.231789 0.460975,0.554731 0.460975,0.968826 0,0.309919 -0.08855,0.579471 -0.265646,0.808656 -0.174493,0.229185 -0.406283,0.390656 -0.695367,0.484414 v 0.01562 c 0.367216,0.04428 0.66151,0.187514 0.882881,0.429721 0.221371,0.239602 0.332057,0.541709 0.332057,0.906321 0,0.494831 -0.178399,0.891997 -0.535198,1.191499 -0.354194,0.296899 -0.820376,0.445348 -1.398547,0.445348 z m 0.9532,-4.844129 v 1.593875 h 0.613329 c 0.30992,0 0.553429,-0.07423 0.730526,-0.222674 0.179701,-0.151053 0.269552,-0.360705 0.269552,-0.628955 0,-0.25002 -0.08334,-0.436232 -0.250019,-0.558637 -0.16668,-0.122406 -0.415398,-0.183609 -0.746152,-0.183609 z m 0,2.351747 v 1.73451 h 0.789124 c 0.338568,0 0.602911,-0.07943 0.79303,-0.238299 0.190119,-0.161472 0.285179,-0.380239 0.285179,-0.656302 0,-0.273458 -0.09766,-0.481808 -0.292991,-0.625049 -0.195328,-0.14324 -0.479205,-0.21486 -0.85163,-0.21486 z"
     style="font-weight:600;-inkscape-font-specification:'Segoe UI Variable Static Small Semi-Bold';stroke-width:0.750056;fill:#ffffff"
     id="path745" />
</svg>
