<?xml version="1.0" encoding="UTF-8" standalone="no"?>
<!-- Created with Inkscape (http://www.inkscape.org/) -->

<svg
   width="32"
   height="32"
   viewBox="0 0 32 32"
   version="1.1"
   id="svg5"
   inkscape:version="1.2.1 (9c6d41e410, 2022-07-14, custom)"
   sodipodi:docname="application-xml.svg"
   xmlns:inkscape="http://www.inkscape.org/namespaces/inkscape"
   xmlns:sodipodi="http://sodipodi.sourceforge.net/DTD/sodipodi-0.dtd"
   xmlns:xlink="http://www.w3.org/1999/xlink"
   xmlns="http://www.w3.org/2000/svg"
   xmlns:svg="http://www.w3.org/2000/svg">
  <sodipodi:namedview
     id="namedview7"
     pagecolor="#ffffff"
     bordercolor="#000000"
     borderopacity="0.25"
     inkscape:showpageshadow="2"
     inkscape:pageopacity="0.0"
     inkscape:pagecheckerboard="0"
     inkscape:deskcolor="#d1d1d1"
     inkscape:document-units="px"
     showgrid="false"
     inkscape:zoom="25.3125"
     inkscape:cx="16"
     inkscape:cy="16"
     inkscape:window-width="1920"
     inkscape:window-height="1012"
     inkscape:window-x="0"
     inkscape:window-y="0"
     inkscape:window-maximized="1"
     inkscape:current-layer="svg5" />
  <defs
     id="defs2">
    <linearGradient
       inkscape:collect="always"
       xlink:href="#linearGradient1115"
       id="linearGradient1117"
       x1="46"
       y1="46.787556"
       x2="31.547945"
       y2="24.11208"
       gradientUnits="userSpaceOnUse"
       gradientTransform="matrix(0.5,0,0,0.5,0,1.2739576)" />
    <linearGradient
       inkscape:collect="always"
       id="linearGradient1115">
      <stop
         style="stop-color:#9048bf;stop-opacity:1;"
         offset="0"
         id="stop1111" />
      <stop
         style="stop-color:#a569cd;stop-opacity:1;"
         offset="1"
         id="stop1113" />
    </linearGradient>
  </defs>
  <path
     id="rect846"
     style="fill:#7d7d7b;stroke-width:0.999999;stroke-linecap:round;stroke-linejoin:round"
     d="M 5,1 H 20.5 L 27,7.5 V 31 H 5 Z"
     sodipodi:nodetypes="cccccc" />
  <path
     id="rect1454"
     style="fill:#fafafa;stroke-width:0.999999;stroke-linecap:round;stroke-linejoin:round"
     d="M 6,1.9999987 V 29.999998 H 26 V 9 H 20 C 19.314274,9 19.000001,8.5097479 19.000001,8 V 1.9999987 Z m 14,0 V 8 h 6 z"
     sodipodi:nodetypes="ccccsscccccc" />
  <path
     id="rect7181"
     style="fill:url(#linearGradient1117);fill-opacity:1;stroke-width:2;stroke-linecap:round"
     d="m 17.855469,13.330597 c -0.194641,0.0097 -0.373282,0.133881 -0.444336,0.329102 l -3.761719,10.335937 c -0.09474,0.260295 0.03853,0.546863 0.298828,0.641602 0.260295,0.09474 0.545885,-0.03853 0.640625,-0.298828 l 3.761719,-10.336914 c 0.09474,-0.260295 -0.03853,-0.545886 -0.298828,-0.640625 -0.06507,-0.02369 -0.131409,-0.03351 -0.196289,-0.03027 z m -5.199219,2.217774 c -0.127809,0 -0.255581,0.0505 -0.353516,0.148437 L 9,18.999543 l 3.302734,3.302734 c 0.195867,0.195867 0.511164,0.195867 0.707031,0 0.195868,-0.195868 0.195868,-0.511162 0,-0.707031 l -2.595703,-2.595703 2.595703,-2.595703 c 0.195868,-0.195869 0.195868,-0.511164 0,-0.707032 -0.09793,-0.09793 -0.225706,-0.148437 -0.353515,-0.148437 z m 6.6875,0 c -0.127809,0 -0.255582,0.0505 -0.353516,0.148437 -0.195868,0.195868 -0.195868,0.511163 0,0.707032 l 2.595703,2.595703 -2.595703,2.595703 c -0.195868,0.195869 -0.195868,0.511163 0,0.707031 0.195867,0.195867 0.511164,0.195867 0.707031,0 L 23,18.999543 19.697265,15.696808 c -0.09793,-0.09793 -0.225706,-0.148437 -0.353515,-0.148437 z" />
</svg>
