<?xml version="1.0" encoding="UTF-8" standalone="no"?>
<!-- Created with Inkscape (http://www.inkscape.org/) -->

<svg
   width="32"
   height="32"
   viewBox="0 0 32 32"
   version="1.1"
   id="svg5"
   inkscape:version="1.2.1 (9c6d41e410, 2022-07-14, custom)"
   sodipodi:docname="application-vnd.oasis.opendocument.formula.svg"
   xmlns:inkscape="http://www.inkscape.org/namespaces/inkscape"
   xmlns:sodipodi="http://sodipodi.sourceforge.net/DTD/sodipodi-0.dtd"
   xmlns="http://www.w3.org/2000/svg"
   xmlns:svg="http://www.w3.org/2000/svg">
  <sodipodi:namedview
     id="namedview7"
     pagecolor="#ffffff"
     bordercolor="#000000"
     borderopacity="0.25"
     inkscape:showpageshadow="2"
     inkscape:pageopacity="0.0"
     inkscape:pagecheckerboard="0"
     inkscape:deskcolor="#d1d1d1"
     inkscape:document-units="px"
     showgrid="false"
     inkscape:zoom="25.15625"
     inkscape:cx="15.980124"
     inkscape:cy="16"
     inkscape:window-width="1920"
     inkscape:window-height="1008"
     inkscape:window-x="0"
     inkscape:window-y="0"
     inkscape:window-maximized="1"
     inkscape:current-layer="svg5" />
  <defs
     id="defs2" />
  <path
     id="rect846"
     style="fill:#7d7d7b;stroke-width:0.999999;stroke-linecap:round;stroke-linejoin:round"
     d="M 5,1 H 20.5 L 27,7.5 V 31 H 5 Z"
     sodipodi:nodetypes="cccccc" />
  <path
     id="rect1454"
     style="fill:#fafafa;stroke-width:0.999999;stroke-linecap:round;stroke-linejoin:round"
     d="M 6,1.9999987 V 29.999998 H 26 V 9 H 20 C 19.314274,9 19.000001,8.5097479 19.000001,8 V 1.9999987 Z m 14,0 V 8 h 6 z"
     sodipodi:nodetypes="ccccsscccccc" />
  <path
     id="rect844"
     style="fill:#808080;stroke-width:1.99999;stroke-linecap:round;stroke-linejoin:round"
     d="M 15,16 13.625,22 11.75,19.5 11,20 l 3,4 1.727539,-7 H 21 v -1 h -5 z m 1,2.5 1.5,2.5 -1.5,2.5 h 1 l 1.25,-2 1.25,2 h 1 L 19,21 20.5,18.5 h -1 l -1.25,2 -1.25,-2 z" />
  <path
     id="rect3044"
     style="fill:#b3b3b3;stroke-width:2.05797;stroke-linecap:round;stroke-linejoin:round"
     d="m 8.9999997,12 v 2 H 7 v 1 H 8.9999997 V 25 H 7 v 1 h 1.9999997 v 2 H 9.9999995 V 26 H 22 v 2 h 1 v -2 h 2.000001 V 25 H 23 V 15 h 2.000001 V 14 H 23 v -2 h -1 v 2 H 9.9999995 v -2 z m 0.9999998,3 H 22 V 25 H 9.9999995 Z" />
</svg>
