<?xml version="1.0" encoding="UTF-8" standalone="no"?>
<!-- Created with Inkscape (http://www.inkscape.org/) -->

<svg
   width="32"
   height="32"
   viewBox="0 0 32 32"
   version="1.1"
   id="svg5"
   inkscape:version="1.2.1 (9c6d41e410, 2022-07-14, custom)"
   sodipodi:docname="application-vnd.ms-word.template.macroenabled.12.svg"
   xmlns:inkscape="http://www.inkscape.org/namespaces/inkscape"
   xmlns:sodipodi="http://sodipodi.sourceforge.net/DTD/sodipodi-0.dtd"
   xmlns="http://www.w3.org/2000/svg"
   xmlns:svg="http://www.w3.org/2000/svg">
  <sodipodi:namedview
     id="namedview7"
     pagecolor="#ffffff"
     bordercolor="#000000"
     borderopacity="0.25"
     inkscape:showpageshadow="2"
     inkscape:pageopacity="0.0"
     inkscape:pagecheckerboard="0"
     inkscape:deskcolor="#d1d1d1"
     inkscape:document-units="px"
     showgrid="false"
     inkscape:zoom="26.65625"
     inkscape:cx="13.205158"
     inkscape:cy="16.075029"
     inkscape:window-width="1920"
     inkscape:window-height="1029"
     inkscape:window-x="0"
     inkscape:window-y="0"
     inkscape:window-maximized="1"
     inkscape:current-layer="svg5" />
  <defs
     id="defs2" />
  <path
     id="rect846"
     style="fill:#7d7d7b;stroke-width:0.999999;stroke-linecap:round;stroke-linejoin:round"
     d="M 5.0000008,1.0000004 26.999998,1.9999998 27.000002,31 H 7.0000009 V 29 H 5.0000008 Z"
     sodipodi:nodetypes="ccccccc" />
  <path
     id="rect1454"
     style="fill:#fafafa;stroke-width:0.999999;stroke-linecap:round;stroke-linejoin:round"
     d="M 6.0000007,2.0000006 V 28.000001 H 24.000001 V 2.0000006 Z m 19.0000003,0 V 29.000001 h -1 -16.0000002 v 1 H 26.000001 V 2.0000006 Z"
     sodipodi:nodetypes="ccccccccccccc" />
  <rect
     style="fill:#41a5ee;fill-opacity:1;stroke-width:1.39398;stroke-linecap:round;stroke-linejoin:round"
     id="rect6964"
     width="19"
     height="7"
     x="5.000001"
     y="1.0000002" />
  <path
     id="rect13579"
     style="fill:#2b7cd3;fill-opacity:1;stroke-width:1.41009;stroke-linecap:round;stroke-linejoin:round"
     d="m 23.999999,1 v 0.9999999 l 2.999999,1.0000003 V 1.9999998 Z M 5,7 V 8 H 23.999999 V 7 Z"
     sodipodi:nodetypes="cccccccccc" />
  <rect
     style="fill:#103f91;fill-opacity:1;stroke-width:0.387298;stroke-linecap:round"
     id="rect445"
     width="6"
     height="0.99999988"
     x="16"
     y="19.999998"
     ry="0.49999994" />
  <rect
     style="fill:#1859bb;fill-opacity:1;stroke-width:1.41421;stroke-linecap:round"
     id="rect341"
     width="6"
     height="1"
     x="16"
     y="17.999998"
     ry="0.5" />
  <rect
     style="fill:#2b7cd3;fill-opacity:1;stroke-width:1.41421;stroke-linecap:round"
     id="rect343"
     width="6"
     height="1"
     x="16"
     y="15.999998"
     ry="0.5" />
  <rect
     style="fill:#41a5ee;fill-opacity:1;stroke-width:1.41421;stroke-linecap:round"
     id="rect345"
     width="6"
     height="1"
     x="16"
     y="13.999999"
     ry="0.5" />
  <path
     id="rect2355"
     style="fill:#1859bb;stroke-width:10.0698;stroke-linecap:round;stroke-linejoin:round"
     d="M 2.0000001,11 H 12.999999 C 13.554,11 14,11.445999 14,12 v 11.000001 c 0,0.554 -0.446,1 -1.000001,1 H 2.0000001 C 1.446,24.000001 1,23.554001 1,23.000001 V 12 c 0,-0.554001 0.446,-1 1.0000001,-1 z" />
  <path
     id="rect8731"
     style="fill:#ffffff;fill-opacity:1;stroke-width:0.79691;stroke-linecap:round;stroke-linejoin:round"
     d="m 3,13.5 1.5834439,7.831097 H 6.081282 l 1.030899,-4.346169 c 0.1275062,-0.616279 0.2551144,-1.20062 0.3719962,-1.795642 h 0.042542 c 0.1062539,0.595022 0.2335937,1.179363 0.3610998,1.795642 l 1.0516517,4.346169 H 10.459099 L 12,13.5 h -1.179801 l -0.743471,4.06964 c -0.1275058,0.828782 -0.2551368,1.668325 -0.3932668,2.518359 h -0.05292 C 9.4499092,19.237965 9.2799002,18.398422 9.0992682,17.56964 L 8.0896409,13.5 H 6.9954458 L 5.9961954,17.56964 C 5.8155642,18.398422 5.624305,19.237965 5.464922,20.087999 H 5.4228974 C 5.2741412,19.237965 5.1355943,18.409046 4.9974636,17.56964 L 4.2643687,13.5 Z" />
</svg>
