<?xml version="1.0" encoding="UTF-8" standalone="no"?>
<!-- Created with Inkscape (http://www.inkscape.org/) -->

<svg
   width="32"
   height="32"
   viewBox="0 0 32 32"
   version="1.1"
   id="svg5"
   inkscape:version="1.2.1 (9c6d41e410, 2022-07-14, custom)"
   sodipodi:docname="application-vnd.ms-excel.template.macroenabled.12.svg"
   xmlns:inkscape="http://www.inkscape.org/namespaces/inkscape"
   xmlns:sodipodi="http://sodipodi.sourceforge.net/DTD/sodipodi-0.dtd"
   xmlns="http://www.w3.org/2000/svg"
   xmlns:svg="http://www.w3.org/2000/svg">
  <sodipodi:namedview
     id="namedview7"
     pagecolor="#ffffff"
     bordercolor="#000000"
     borderopacity="0.25"
     inkscape:showpageshadow="2"
     inkscape:pageopacity="0.0"
     inkscape:pagecheckerboard="0"
     inkscape:deskcolor="#d1d1d1"
     inkscape:document-units="px"
     showgrid="false"
     inkscape:zoom="25.25"
     inkscape:cx="16"
     inkscape:cy="16"
     inkscape:window-width="1920"
     inkscape:window-height="1010"
     inkscape:window-x="0"
     inkscape:window-y="0"
     inkscape:window-maximized="1"
     inkscape:current-layer="svg5" />
  <defs
     id="defs2" />
  <path
     id="rect846"
     style="fill:#7d7d7b;stroke-width:0.999999;stroke-linecap:round;stroke-linejoin:round"
     d="M 5.0000008,1.0000004 26.999998,1.9999998 27.000002,31 H 7.0000009 V 29 H 5.0000008 Z"
     sodipodi:nodetypes="ccccccc" />
  <path
     id="rect1454"
     style="fill:#fafafa;stroke-width:0.999999;stroke-linecap:round;stroke-linejoin:round"
     d="M 6.0000007,2.0000006 V 28.000001 H 24.000001 V 2.0000006 Z m 19.0000003,0 V 29.000001 h -1 -16.0000002 v 1 H 26.000001 V 2.0000006 Z"
     sodipodi:nodetypes="ccccccccccccc" />
  <path
     id="rect341"
     style="fill:#185c37;fill-opacity:1;stroke-width:2.64574;stroke-linecap:round"
     d="m 15,20 v 1 h 1.5 C 16.777,21 17,20.777 17,20.5 17,20.223 16.777,20 16.5,20 Z" />
  <path
     id="rect343"
     style="fill:#107c41;fill-opacity:1;stroke-width:2.64574;stroke-linecap:round"
     d="m 15,17 v 1 h 1.5 C 16.777,18 17,17.777 17,17.5 17,17.223 16.777,17 16.5,17 Z" />
  <path
     id="rect345"
     style="fill:#21a366;fill-opacity:1;stroke-width:2.64574;stroke-linecap:round"
     d="m 15,14 v 1 h 1.5 C 16.777,15 17,14.777 17,14.5 17,14.223 16.777,14 16.5,14 Z" />
  <rect
     style="fill:#6dc898;fill-opacity:1;stroke-width:2.04939"
     id="rect518"
     width="4"
     height="1"
     x="18"
     y="14"
     ry="0.5" />
  <rect
     style="fill:#4fae7f;fill-opacity:1;stroke-width:2.04939"
     id="rect520"
     width="4"
     height="1"
     x="18"
     y="17"
     ry="0.5" />
  <rect
     style="fill:#134a2c;fill-opacity:1;stroke-width:2.04939"
     id="rect522"
     width="4"
     height="1"
     x="18"
     y="20"
     ry="0.5" />
  <rect
     style="fill:#41be68;fill-opacity:1;stroke-width:1.39398;stroke-linecap:round;stroke-linejoin:round"
     id="rect6964"
     width="19"
     height="7"
     x="5.000001"
     y="1.0000002" />
  <path
     id="rect13579"
     style="fill:#0c7c42;fill-opacity:1;stroke-width:1.41009;stroke-linecap:round;stroke-linejoin:round"
     d="m 24,1 v 0.9999999 l 2.999999,1.0000003 V 1.9999998 Z M 5.000001,6.9999994 V 8 h 19 V 6.9999994 Z"
     sodipodi:nodetypes="cccccccccc" />
  <path
     id="rect2355"
     style="fill:#0c7c42;fill-opacity:1;stroke-width:10.0698;stroke-linecap:round;stroke-linejoin:round"
     d="M 2.0000001,11 H 13 c 0.554,0 1,0.446 1,1 v 11.000001 c 0,0.554 -0.446,1 -1,1 H 2.0000001 c -0.554,0 -1.0000001,-0.446 -1.0000001,-1 V 12 c 0,-0.554 0.4460001,-1 1.0000001,-1 z" />
  <path
     id="rect12096"
     style="fill:#ffffff;fill-opacity:1;stroke-width:0.814099;stroke-linecap:round;stroke-linejoin:round"
     d="M 4.6409827,13.5 6.7901816,17.375447 4.4999999,21.5 H 5.8350987 L 6.8553709,19.513515 C 7.0507724,19.10104 7.2568058,18.699733 7.4738981,18.211276 h 0.043468 c 0.2496718,0.488457 0.4562759,0.889764 0.662513,1.302239 L 9.2324798,21.5 H 10.632772 L 8.3425847,17.429508 10.480656,13.5 H 9.1566836 L 8.2228039,15.377832 C 8.0274023,15.746888 7.8756921,16.105222 7.6694697,16.59368 H 7.6260052 C 7.3763523,16.105222 7.2028682,15.746889 7.0074855,15.377832 L 6.0412757,13.5 Z" />
</svg>
