<?xml version="1.0" encoding="UTF-8" standalone="no"?>
<!-- Created with Inkscape (http://www.inkscape.org/) -->

<svg
   width="32"
   height="32"
   viewBox="0 0 32 32"
   version="1.1"
   id="svg5"
   inkscape:version="1.2.1 (9c6d41e410, 2022-07-14, custom)"
   sodipodi:docname="application-x-trash.svg"
   xmlns:inkscape="http://www.inkscape.org/namespaces/inkscape"
   xmlns:sodipodi="http://sodipodi.sourceforge.net/DTD/sodipodi-0.dtd"
   xmlns="http://www.w3.org/2000/svg"
   xmlns:svg="http://www.w3.org/2000/svg">
  <sodipodi:namedview
     id="namedview7"
     pagecolor="#ffffff"
     bordercolor="#000000"
     borderopacity="0.25"
     inkscape:showpageshadow="2"
     inkscape:pageopacity="0.0"
     inkscape:pagecheckerboard="0"
     inkscape:deskcolor="#d1d1d1"
     inkscape:document-units="px"
     showgrid="false"
     inkscape:zoom="25.625"
     inkscape:cx="14.946341"
     inkscape:cy="16"
     inkscape:window-width="1920"
     inkscape:window-height="1029"
     inkscape:window-x="0"
     inkscape:window-y="0"
     inkscape:window-maximized="1"
     inkscape:current-layer="svg5" />
  <defs
     id="defs2" />
  <path
     id="rect846"
     style="fill:#7d7d7b;stroke-width:0.999999;stroke-linecap:round;stroke-linejoin:round"
     d="M 5,1 H 20.5 L 27,7.5 V 31 H 5 Z"
     sodipodi:nodetypes="cccccc" />
  <path
     id="rect1454"
     style="fill:#fafafa;stroke-width:0.999999;stroke-linecap:round;stroke-linejoin:round"
     d="M 6,1.9999987 V 29.999998 H 26 V 9 H 20 C 19.314274,9 19.000001,8.5097479 19.000001,8 V 1.9999987 Z m 14,0 V 8 h 6 z"
     sodipodi:nodetypes="ccccsscccccc" />
  <path
     d="m 14.453993,12.000002 c -0.647331,0 -1.177297,0.307759 -1.501296,0.871089 l -0.983121,1.974109 2.789875,1.541575 1.415314,-2.725616 0.825451,-1.661157 z"
     style="fill:#0068ba;fill-opacity:1;stroke-width:0.176384"
     id="path138735"
     sodipodi:nodetypes="scccccs" />
  <path
     d="m 15.000226,12.000002 2.285783,4.093729 -1.143222,0.648434 3.640583,1.325064 1.452545,-4.021421 -1.124992,0.665361 -1.192097,-2.265856 C 18.747486,12.154646 18.456921,12 18.081592,12 Z"
     style="fill:#0091e6;fill-opacity:1;stroke-width:0.176384"
     id="path142126"
     sodipodi:nodetypes="cccccccsc" />
  <path
     d="m 22.835994,20.26374 -1.0532,-1.937629 -2.862991,1.401122 1.420903,2.722705 0.914901,1.999615 1.567246,-3.322578 c 0.189006,-0.403146 0.116598,-0.678976 0.01323,-0.863235 z"
     style="fill:#0068ba;fill-opacity:1;stroke-width:0.176384"
     id="path138735-0"
     sodipodi:nodetypes="ccccccc" />
  <path
     d="m 22.495188,21.819452 -4.037186,-0.0053 0.01005,-1.314278 -2.868955,2.828196 2.865972,2.930762 -0.01372,-1.306953 h 1.999991 c 0.337395,-0.003 0.615159,-0.178204 0.804268,-0.50241 z"
     style="fill:#0091e6;fill-opacity:1;stroke-width:0.176384"
     id="path142126-6"
     sodipodi:nodetypes="ccccccccc" />
  <path
     d="m 10.918752,24.383578 c 0.262794,0.436779 0.537043,0.458233 0.765753,0.486111 l 2.815724,2.48e-4 v -3.367804 l -3.578758,0.0032 -1.5810984,0.01992 z"
     style="fill:#0068ba;fill-opacity:1;stroke-width:0.176384"
     id="path146733"
     sodipodi:nodetypes="ccccccc" />
  <path
     d="m 10.804581,24.175206 2.147268,-4.114903 1.161137,0.615783 -1.28101,-3.782175 -3.922976,1.188873 1.165618,0.591311 -0.9234924,1.774013 c -0.153086,0.30068 -0.1110236,0.618984 0.074272,0.945383 z"
     style="fill:#0091e6;fill-opacity:1;stroke-width:0.176384"
     id="path146730"
     sodipodi:nodetypes="cccccccsc" />
</svg>
