<?xml version="1.0" encoding="UTF-8" standalone="no"?>
<!-- Created with Inkscape (http://www.inkscape.org/) -->

<svg
   width="32"
   height="32"
   viewBox="0 0 32 32"
   version="1.1"
   id="svg5"
   inkscape:version="1.2.1 (9c6d41e410, 2022-07-14, custom)"
   sodipodi:docname="application-json.svg"
   xmlns:inkscape="http://www.inkscape.org/namespaces/inkscape"
   xmlns:sodipodi="http://sodipodi.sourceforge.net/DTD/sodipodi-0.dtd"
   xmlns:xlink="http://www.w3.org/1999/xlink"
   xmlns="http://www.w3.org/2000/svg"
   xmlns:svg="http://www.w3.org/2000/svg">
  <sodipodi:namedview
     id="namedview7"
     pagecolor="#ffffff"
     bordercolor="#000000"
     borderopacity="0.25"
     inkscape:showpageshadow="2"
     inkscape:pageopacity="0.0"
     inkscape:pagecheckerboard="0"
     inkscape:deskcolor="#d1d1d1"
     inkscape:document-units="px"
     showgrid="false"
     inkscape:zoom="25.0625"
     inkscape:cx="16"
     inkscape:cy="16"
     inkscape:window-width="1920"
     inkscape:window-height="1011"
     inkscape:window-x="0"
     inkscape:window-y="0"
     inkscape:window-maximized="1"
     inkscape:current-layer="svg5" />
  <defs
     id="defs2">
    <linearGradient
       inkscape:collect="always"
       xlink:href="#linearGradient3605"
       id="linearGradient2252"
       x1="14.5"
       y1="5"
       x2="14.5"
       y2="18"
       gradientUnits="userSpaceOnUse"
       gradientTransform="translate(7.0000005,7.0000004)" />
    <linearGradient
       inkscape:collect="always"
       id="linearGradient3605">
      <stop
         style="stop-color:#0d6eaa;stop-opacity:1;"
         offset="0"
         id="stop3601" />
      <stop
         style="stop-color:#185086;stop-opacity:1"
         offset="1"
         id="stop3603" />
    </linearGradient>
  </defs>
  <path
     id="rect846"
     style="fill:#7d7d7b;stroke-width:0.999999;stroke-linecap:round;stroke-linejoin:round"
     d="M 5,1 H 20.5 L 27,7.5 V 31 H 5 Z"
     sodipodi:nodetypes="cccccc" />
  <path
     id="rect1454"
     style="fill:#fafafa;stroke-width:0.999999;stroke-linecap:round;stroke-linejoin:round"
     d="M 6,1.9999987 V 29.999998 H 26 V 9 H 20 C 19.314274,9 19.000001,8.5097479 19.000001,8 V 1.9999987 Z m 14,0 V 8 h 6 z"
     sodipodi:nodetypes="ccccsscccccc" />
  <path
     id="path701"
     style="fill:url(#linearGradient2252);fill-opacity:1;stroke-width:0.499998;stroke-linecap:round;stroke-linejoin:round"
     d="m 14,12 c -1.104567,0 -2,1.000002 -2,3 v 2 c 0,0.552284 -0.447716,1 -1,1 -0.276141,0 -0.5,0.223858 -0.5,0.5 0,0.276143 0.223859,0.5 0.5,0.5 0.552284,0 1,0.447718 1,1 v 2 c 0,1.999998 0.895433,3 2,3 h 0.5 C 14.776999,25 15,24.777 15,24.5 15,24.223 14.776999,24 14.5,24 H 14 c -0.552283,0 -1,-0.460001 -1,-2 V 20 C 12.999846,19.425905 12.752993,18.879554 12.322266,18.5 12.752993,18.120445 12.999846,17.574096 13,17 v -2 c 0,-1.539998 0.447717,-2 1,-2 h 0.5 C 14.776999,13 15,12.776999 15,12.5 15,12.223001 14.776999,12 14.5,12 Z m 3.5,0 c -0.276999,0 -0.5,0.223001 -0.5,0.5 0,0.276999 0.223001,0.5 0.5,0.5 H 18 c 0.552283,0 1,0.460002 1,2 v 2 c 1.54e-4,0.574096 0.247009,1.120445 0.677734,1.5 C 19.247009,18.879554 19.000154,19.425905 19,20 v 2 c 0,1.54 -0.447717,2 -1,2 h -0.5 c -0.276999,0 -0.5,0.223 -0.5,0.5 0,0.277 0.223001,0.5 0.5,0.5 H 18 c 1.104567,0 2,-1.000002 2,-3 v -2 c 0,-0.552281 0.447717,-1 1,-1 0.276142,0 0.5,-0.223857 0.5,-0.5 0,-0.276142 -0.223858,-0.5 -0.5,-0.5 -0.552283,0 -1,-0.447716 -1,-1 v -2 c 0,-1.999998 -0.895433,-3 -2,-3 z" />
</svg>
