<?xml version="1.0" encoding="UTF-8" standalone="no"?>
<!-- Created with Inkscape (http://www.inkscape.org/) -->

<svg
   width="32"
   height="32"
   viewBox="0 0 32 32"
   version="1.1"
   id="svg5"
   inkscape:version="1.2.1 (9c6d41e410, 2022-07-14, custom)"
   sodipodi:docname="audio-x-generic.svg"
   xmlns:inkscape="http://www.inkscape.org/namespaces/inkscape"
   xmlns:sodipodi="http://sodipodi.sourceforge.net/DTD/sodipodi-0.dtd"
   xmlns:xlink="http://www.w3.org/1999/xlink"
   xmlns="http://www.w3.org/2000/svg"
   xmlns:svg="http://www.w3.org/2000/svg">
  <sodipodi:namedview
     id="namedview7"
     pagecolor="#ffffff"
     bordercolor="#000000"
     borderopacity="0.25"
     inkscape:showpageshadow="2"
     inkscape:pageopacity="0.0"
     inkscape:pagecheckerboard="0"
     inkscape:deskcolor="#d1d1d1"
     inkscape:document-units="px"
     showgrid="false"
     inkscape:zoom="26.65625"
     inkscape:cx="16"
     inkscape:cy="16"
     inkscape:window-width="1920"
     inkscape:window-height="1029"
     inkscape:window-x="0"
     inkscape:window-y="0"
     inkscape:window-maximized="1"
     inkscape:current-layer="svg5" />
  <defs
     id="defs2">
    <linearGradient
       inkscape:collect="always"
       xlink:href="#linearGradient1304"
       id="linearGradient888"
       x1="29.999727"
       y1="19.341797"
       x2="23.010334"
       y2="14"
       gradientUnits="userSpaceOnUse"
       gradientTransform="translate(-6.9999999,-3.9999998)" />
    <linearGradient
       inkscape:collect="always"
       id="linearGradient1304">
      <stop
         style="stop-color:#272d34;stop-opacity:1;"
         offset="0"
         id="stop1300" />
      <stop
         style="stop-color:#5c6c7c;stop-opacity:1;"
         offset="1"
         id="stop1302" />
    </linearGradient>
  </defs>
  <path
     id="rect846"
     style="fill:#7d7d7b;stroke-width:0.999999;stroke-linecap:round;stroke-linejoin:round"
     d="M 5,1 H 20.5 L 27,7.5 V 31 H 5 Z"
     sodipodi:nodetypes="cccccc" />
  <path
     id="rect1454"
     style="fill:#fafafa;stroke-width:0.999999;stroke-linecap:round;stroke-linejoin:round"
     d="M 6,1.9999987 V 29.999998 H 26 V 9 H 20 C 19.314274,9 19.000001,8.5097479 19.000001,8 V 1.9999987 Z m 14,0 V 8 h 6 z"
     sodipodi:nodetypes="ccccsscccccc" />
  <path
     id="path1056"
     style="fill:url(#linearGradient888);fill-opacity:1;stroke-width:3.74998;stroke-linecap:round;stroke-linejoin:round"
     d="M 17.5,10 C 16.631923,9.9943817 16,10.419115 16,11.5 v 8.257812 C 15.259933,19.263561 14.389934,18.999843 13.5,19 11.014719,19 9,21.014719 9,23.5 9,25.985281 11.014719,28 13.5,28 15.985281,28 18,25.985281 18,23.5 v -9 l 4.060273,1.5 c 0.520587,0.189479 0.939454,-0.104205 0.939454,-0.658203 v -2 C 22.999727,12.7878 22.58086,12.189479 22.060273,12 Z"
     sodipodi:nodetypes="csccsssccsscc" />
</svg>
