<?xml version="1.0" encoding="UTF-8" standalone="no"?>
<!-- Created with Inkscape (http://www.inkscape.org/) -->

<svg
   width="32"
   height="32"
   viewBox="0 0 32 32"
   version="1.1"
   id="svg5"
   inkscape:version="1.2.1 (9c6d41e410, 2022-07-14, custom)"
   sodipodi:docname="font-x-generic.svg"
   xmlns:inkscape="http://www.inkscape.org/namespaces/inkscape"
   xmlns:sodipodi="http://sodipodi.sourceforge.net/DTD/sodipodi-0.dtd"
   xmlns:xlink="http://www.w3.org/1999/xlink"
   xmlns="http://www.w3.org/2000/svg"
   xmlns:svg="http://www.w3.org/2000/svg">
  <sodipodi:namedview
     id="namedview7"
     pagecolor="#ffffff"
     bordercolor="#000000"
     borderopacity="0.25"
     inkscape:showpageshadow="2"
     inkscape:pageopacity="0.0"
     inkscape:pagecheckerboard="0"
     inkscape:deskcolor="#d1d1d1"
     inkscape:document-units="px"
     showgrid="false"
     inkscape:zoom="25.25"
     inkscape:cx="15.980198"
     inkscape:cy="16"
     inkscape:window-width="1920"
     inkscape:window-height="1010"
     inkscape:window-x="0"
     inkscape:window-y="0"
     inkscape:window-maximized="1"
     inkscape:current-layer="svg5" />
  <defs
     id="defs2">
    <linearGradient
       inkscape:collect="always"
       id="linearGradient1723">
      <stop
         style="stop-color:#1088d6;stop-opacity:1;"
         offset="0"
         id="stop1719" />
      <stop
         style="stop-color:#076cbe;stop-opacity:1"
         offset="1"
         id="stop1721" />
    </linearGradient>
    <linearGradient
       inkscape:collect="always"
       xlink:href="#linearGradient1723"
       id="linearGradient4962"
       x1="7.0000005"
       y1="4.0000081"
       x2="11"
       y2="12"
       gradientUnits="userSpaceOnUse"
       gradientTransform="translate(4.9999997,6)" />
    <linearGradient
       inkscape:collect="always"
       xlink:href="#linearGradient1723"
       id="linearGradient13470"
       x1="10.114634"
       y1="13.778048"
       x2="16.114634"
       y2="24.778049"
       gradientUnits="userSpaceOnUse"
       gradientTransform="translate(6.885366,0.221952)" />
  </defs>
  <path
     id="rect846"
     style="fill:#7d7d7b;stroke-width:0.999999;stroke-linecap:round;stroke-linejoin:round"
     d="M 5,1 H 20.5 L 27,7.5 V 31 H 5 Z"
     sodipodi:nodetypes="cccccc" />
  <path
     id="rect1454"
     style="fill:#fafafa;stroke-width:0.999999;stroke-linecap:round;stroke-linejoin:round"
     d="M 6,1.9999987 V 29.999998 H 26 V 9 H 20 C 19.314274,9 19.000001,8.5097479 19.000001,8 V 1.9999987 Z m 14,0 V 8 h 6 z"
     sodipodi:nodetypes="ccccsscccccc" />
  <path
     id="rect287"
     style="fill:url(#linearGradient4962);fill-opacity:1;stroke-linecap:round;stroke-linejoin:round"
     d="M 12,10.000008 9,18 h 1 l 0.75,-2 h 3.5 l 0.458984,1.226562 0.53711,-1.339843 L 13,10.000008 Z M 12.5,11.333992 14,15 h -3 z"
     sodipodi:nodetypes="ccccccccccccc" />
  <path
     id="path11261"
     style="fill:url(#linearGradient13470);fill-opacity:1;stroke-linecap:round;stroke-linejoin:round"
     d="m 17,14 -4,10 h -0.5 c -0.277,0 -0.5,0.223 -0.5,0.5 0,0.277 0.223,0.5 0.5,0.5 h 2 C 14.777,25 15,24.777 15,24.5 15,24.223 14.777,24 14.5,24 H 14 l 1.199219,-3 h 4.601562 L 21,24 h -0.5 c -0.277,0 -0.5,0.223 -0.5,0.5 0,0.277 0.223,0.5 0.5,0.5 h 2 C 22.777,25 23,24.777 23,24.5 23,24.223 22.777,24 22.5,24 H 22 L 18,14 Z m 0.5,1.25 1.900391,4.75 h -3.800782 z" />
</svg>
