<?xml version="1.0" encoding="UTF-8" standalone="no"?>
<!-- Created with Inkscape (http://www.inkscape.org/) -->

<svg
   width="32"
   height="32"
   viewBox="0 0 32 32"
   version="1.1"
   id="svg5"
   inkscape:version="1.2.1 (9c6d41e410, 2022-07-14, custom)"
   sodipodi:docname="image-svg+xml.svg"
   xmlns:inkscape="http://www.inkscape.org/namespaces/inkscape"
   xmlns:sodipodi="http://sodipodi.sourceforge.net/DTD/sodipodi-0.dtd"
   xmlns="http://www.w3.org/2000/svg"
   xmlns:svg="http://www.w3.org/2000/svg">
  <sodipodi:namedview
     id="namedview7"
     pagecolor="#ffffff"
     bordercolor="#000000"
     borderopacity="0.25"
     inkscape:showpageshadow="2"
     inkscape:pageopacity="0.0"
     inkscape:pagecheckerboard="0"
     inkscape:deskcolor="#d1d1d1"
     inkscape:document-units="px"
     showgrid="false"
     inkscape:zoom="25.84375"
     inkscape:cx="15.980653"
     inkscape:cy="16"
     inkscape:window-width="1920"
     inkscape:window-height="1029"
     inkscape:window-x="0"
     inkscape:window-y="0"
     inkscape:window-maximized="1"
     inkscape:current-layer="svg5" />
  <defs
     id="defs2" />
  <path
     id="rect846"
     style="fill:#7d7d7b;stroke-width:0.999999;stroke-linecap:round;stroke-linejoin:round"
     d="M 5,1 H 20.5 L 27,7.5 V 31 H 5 Z"
     sodipodi:nodetypes="cccccc" />
  <path
     id="rect1454"
     style="fill:#fafafa;stroke-width:0.999999;stroke-linecap:round;stroke-linejoin:round"
     d="M 6,1.9999987 V 29.999998 H 26 V 9 H 20 C 19.314274,9 19.000001,8.5097479 19.000001,8 V 1.9999987 Z m 14,0 V 8 h 6 z"
     sodipodi:nodetypes="ccccsscccccc" />
  <path
     style="color:#000000;opacity:0.25;fill:#8f76e4;fill-rule:evenodd;stroke:none"
     d="m 12.000152,25.999782 c 6.500025,2.999979 9.500002,-4.000028 3.999999,-7.000007 -5.500002,-3.000006 -2.49991,-10.0000143 4,-7.000007"
     id="path1244" />
  <path
     style="color:#000000;fill:#8c59d9;fill-opacity:1;fill-rule:evenodd;stroke:none"
     d="m 17.793945,10.830724 c -2.25745,-0.275079 -3.988145,0.691152 -4.740234,2.195313 -1.002786,2.005548 -0.220039,4.815523 2.707031,6.412109 2.572928,1.403405 3.040189,3.593442 2.292968,5.087891 -0.747222,1.494449 -2.754662,2.445248 -5.843749,1.019531 l -0.419922,0.908203 c 3.410932,1.574259 6.155432,0.525082 7.158203,-1.480469 1.00277,-2.00555 0.218084,-4.815538 -2.708985,-6.412109 -2.572927,-1.403417 -3.03825,-3.593438 -2.291015,-5.087891 0.747235,-1.494452 2.752769,-2.445259 5.841797,-1.019531 l 0.419921,-0.908203 c -0.852719,-0.393569 -1.663532,-0.62315 -2.416015,-0.714844 z"
     id="path1246" />
  <path
     id="rect3763"
     style="fill:#f34f17;fill-opacity:1;stroke-linejoin:round"
     d="M 9.4999999,13.999667 A 1.5,1.5 0 0 0 8,15.499667 a 1.5,1.5 0 0 0 1.4999999,1.5 1.5,1.5 0 0 0 1.1347661,-0.519531 l 10.367187,5.986328 a 1.5,1.5 0 0 0 -0.002,0.0332 1.5,1.5 0 0 0 1.500001,1.5 1.5,1.5 0 0 0 1.5,-1.5 1.5,1.5 0 0 0 -1.5,-1.5 1.5,1.5 0 0 0 -1.134767,0.519531 L 10.998047,15.53287 a 1.5,1.5 0 0 0 0.002,-0.0332 1.5,1.5 0 0 0 -1.4999994,-1.5 z" />
  <path
     id="path15583"
     style="color:#000000;fill:#8f76e4;stroke:none;stroke-width:0.125001;stroke-dashoffset:1"
     d="m 19.000152,10.999667 v 0.25 1.750001 h 1.999999 v -2.000001 z m -4.000001,7 v 0.25 1.75 h 2 v -2 z m -4,7.000001 v 0.249999 1.75 h 2.000001 v -1.999999 z"
     sodipodi:nodetypes="cccccccccccccccccc" />
</svg>
