<?xml version="1.0" encoding="UTF-8" standalone="no"?>
<!-- Created with Inkscape (http://www.inkscape.org/) -->

<svg
   width="32"
   height="32"
   viewBox="0 0 32 32"
   version="1.1"
   id="svg5"
   inkscape:version="1.2.1 (9c6d41e410, 2022-07-14, custom)"
   sodipodi:docname="inode-symlink.svg"
   xmlns:inkscape="http://www.inkscape.org/namespaces/inkscape"
   xmlns:sodipodi="http://sodipodi.sourceforge.net/DTD/sodipodi-0.dtd"
   xmlns:xlink="http://www.w3.org/1999/xlink"
   xmlns="http://www.w3.org/2000/svg"
   xmlns:svg="http://www.w3.org/2000/svg">
  <sodipodi:namedview
     id="namedview7"
     pagecolor="#ffffff"
     bordercolor="#000000"
     borderopacity="0.25"
     inkscape:showpageshadow="2"
     inkscape:pageopacity="0.0"
     inkscape:pagecheckerboard="0"
     inkscape:deskcolor="#d1d1d1"
     inkscape:document-units="px"
     showgrid="false"
     inkscape:zoom="25.0625"
     inkscape:cx="16"
     inkscape:cy="16"
     inkscape:window-width="1920"
     inkscape:window-height="1011"
     inkscape:window-x="0"
     inkscape:window-y="0"
     inkscape:window-maximized="1"
     inkscape:current-layer="svg5" />
  <defs
     id="defs2">
    <linearGradient
       inkscape:collect="always"
       xlink:href="#linearGradient2733"
       id="linearGradient2735"
       x1="7.75032"
       y1="6.0000033"
       x2="16"
       y2="14.249681"
       gradientUnits="userSpaceOnUse"
       gradientTransform="translate(6.999683,6.0052728)" />
    <linearGradient
       inkscape:collect="always"
       id="linearGradient2733">
      <stop
         style="stop-color:#1b9de2;stop-opacity:1;"
         offset="0"
         id="stop2729" />
      <stop
         style="stop-color:#0178d4;stop-opacity:1"
         offset="1"
         id="stop2731" />
    </linearGradient>
  </defs>
  <path
     id="rect846"
     style="fill:#7d7d7b;stroke-width:0.999999;stroke-linecap:round;stroke-linejoin:round"
     d="M 5,1 H 20.5 L 27,7.5 V 31 H 5 Z"
     sodipodi:nodetypes="cccccc" />
  <path
     id="rect1454"
     style="fill:#fafafa;stroke-width:0.999999;stroke-linecap:round;stroke-linejoin:round"
     d="M 6,1.9999987 V 29.999998 H 26 V 9 H 20 C 19.314274,9 19.000001,8.5097479 19.000001,8 V 1.9999987 Z m 14,0 V 8 h 6 z"
     sodipodi:nodetypes="ccccsscccccc" />
  <path
     id="rect1721"
     style="fill:url(#linearGradient2735);fill-opacity:1;stroke-width:1.22474;stroke-linejoin:round"
     d="m 14.710936,12.005273 c -0.393878,-0.05627 -0.710938,0.347486 -0.710938,0.75 0,0.4155 0.3345,0.75 0.750001,0.75 h 5.69109 L 9.220386,24.724024 c -0.293816,0.293786 -0.293801,0.766744 0,1.060546 0.293802,0.293802 0.766729,0.293791 1.060547,0 l 11.21875,-11.216797 v 5.68718 c 0,0.415499 0.3345,0.75 0.75,0.75 0.4155,0 0.75,-0.3345 0.75,-0.75 v -7.460617 c 6.47e-4,-0.01281 0,-0.02608 0,-0.03906 0,-0.402516 -0.313564,-0.729987 -0.710938,-0.75 -0.01281,-6.46e-4 -0.02608,0 -0.03906,0 h -0.03906 -7.460622 c -0.013,0 -0.02634,0.0018 -0.03906,-2e-6 z"
     sodipodi:nodetypes="sssccsccssscssscsss" />
</svg>
