<?xml version="1.0" encoding="UTF-8" standalone="no"?>
<!-- Created with Inkscape (http://www.inkscape.org/) -->

<svg
   width="32"
   height="32"
   viewBox="0 0 32 32"
   version="1.1"
   id="svg5"
   inkscape:version="1.2.1 (9c6d41e410, 2022-07-14, custom)"
   sodipodi:docname="text-css.svg"
   xmlns:inkscape="http://www.inkscape.org/namespaces/inkscape"
   xmlns:sodipodi="http://sodipodi.sourceforge.net/DTD/sodipodi-0.dtd"
   xmlns="http://www.w3.org/2000/svg"
   xmlns:svg="http://www.w3.org/2000/svg">
  <sodipodi:namedview
     id="namedview7"
     pagecolor="#ffffff"
     bordercolor="#000000"
     borderopacity="0.25"
     inkscape:showpageshadow="2"
     inkscape:pageopacity="0.0"
     inkscape:pagecheckerboard="0"
     inkscape:deskcolor="#d1d1d1"
     inkscape:document-units="px"
     showgrid="false"
     inkscape:zoom="25.0625"
     inkscape:cx="16"
     inkscape:cy="16"
     inkscape:window-width="1920"
     inkscape:window-height="1011"
     inkscape:window-x="0"
     inkscape:window-y="0"
     inkscape:window-maximized="1"
     inkscape:current-layer="svg5" />
  <defs
     id="defs2" />
  <path
     id="rect846"
     style="fill:#7d7d7b;stroke-width:0.999999;stroke-linecap:round;stroke-linejoin:round"
     d="M 5,1 H 20.5 L 27,7.5 V 31 H 5 Z"
     sodipodi:nodetypes="cccccc" />
  <path
     id="rect1454"
     style="fill:#fafafa;stroke-width:0.999999;stroke-linecap:round;stroke-linejoin:round"
     d="M 6,1.9999987 V 29.999998 H 26 V 9 H 20 C 19.314274,9 19.000001,8.5097479 19.000001,8 V 1.9999987 Z m 14,0 V 8 h 6 z"
     sodipodi:nodetypes="ccccsscccccc" />
  <path
     id="path701"
     style="fill:#999999;fill-opacity:1;stroke-width:0.499998;stroke-linecap:round;stroke-linejoin:round"
     d="m 13,12 c -1.104566,0 -2,1.000004 -2,3 v 2 c 0,0.552283 -0.447717,1 -1,1 -0.276141,0 -0.5,0.223858 -0.5,0.5 0,0.276143 0.223859,0.5 0.5,0.5 0.552283,0 1,0.447719 1,1 v 2 c 0,1.999996 0.895434,3 2,3 h 0.5 C 13.776999,25 14,24.777 14,24.5 14,24.223 13.776999,24 13.5,24 H 13 c -0.552282,0 -1,-0.460003 -1,-2 V 20 C 11.999846,19.425906 11.752992,18.879554 11.322266,18.5 11.752992,18.120445 11.999846,17.574095 12,17 v -2 c 0,-1.539996 0.447718,-2 1,-2 h 0.5 C 13.776999,13 14,12.776999 14,12.5 14,12.223001 13.776999,12 13.5,12 Z m 5.5,0 c -0.276999,0 -0.5,0.223001 -0.5,0.5 0,0.276999 0.223001,0.5 0.5,0.5 H 19 c 0.552282,0 1,0.460004 1,2 v 2 c 1.54e-4,0.574095 0.24701,1.120445 0.677734,1.5 C 20.24701,18.879554 20.000154,19.425906 20,20 v 2 c 0,1.539998 -0.447718,2 -1,2 h -0.5 c -0.276999,0 -0.5,0.223 -0.5,0.5 0,0.277 0.223001,0.5 0.5,0.5 H 19 c 1.104566,0 2,-1.000004 2,-3 v -2 c 0,-0.55228 0.447718,-1 1,-1 0.276142,0 0.5,-0.223857 0.5,-0.5 0,-0.276142 -0.223858,-0.5 -0.5,-0.5 -0.552282,0 -1,-0.447717 -1,-1 v -2 c 0,-1.999996 -0.895434,-3 -2,-3 z M 16,15 c -0.552283,0 -1,0.447717 -1,1 0,0.552282 0.447717,1 1,1 0.552283,0 1,-0.447718 1,-1 0,-0.552283 -0.447717,-1 -1,-1 z m 0,5 c -0.552282,0 -1,0.447718 -1,1 0,0.552282 0.447718,1 1,1 0.09935,-3.38e-4 0.198086,-0.01548 0.292969,-0.04492 C 16.247399,22.224654 16.143656,22.539374 16,23 c 0.41198,-0.236421 1,-1.000004 1,-2 0,-0.552282 -0.447718,-1 -1,-1 z"
     sodipodi:nodetypes="sssssssssssssscccssssssssssscccsssssssssssssssssssssscccss" />
</svg>
