<?xml version="1.0" encoding="UTF-8" standalone="no"?>
<!-- Created with Inkscape (http://www.inkscape.org/) -->

<svg
   width="32"
   height="32"
   viewBox="0 0 32 32"
   version="1.1"
   id="svg5"
   inkscape:version="1.2.1 (9c6d41e410, 2022-07-14, custom)"
   sodipodi:docname="text-rust.svg"
   xmlns:inkscape="http://www.inkscape.org/namespaces/inkscape"
   xmlns:sodipodi="http://sodipodi.sourceforge.net/DTD/sodipodi-0.dtd"
   xmlns:xlink="http://www.w3.org/1999/xlink"
   xmlns="http://www.w3.org/2000/svg"
   xmlns:svg="http://www.w3.org/2000/svg">
  <sodipodi:namedview
     id="namedview7"
     pagecolor="#ffffff"
     bordercolor="#000000"
     borderopacity="0.25"
     inkscape:showpageshadow="2"
     inkscape:pageopacity="0.0"
     inkscape:pagecheckerboard="0"
     inkscape:deskcolor="#d1d1d1"
     inkscape:document-units="px"
     showgrid="false"
     inkscape:zoom="25.25"
     inkscape:cx="16"
     inkscape:cy="16"
     inkscape:window-width="1920"
     inkscape:window-height="1010"
     inkscape:window-x="0"
     inkscape:window-y="0"
     inkscape:window-maximized="1"
     inkscape:current-layer="svg5" />
  <defs
     id="defs2">
    <linearGradient
       inkscape:collect="always"
       xlink:href="#linearGradient1291"
       id="linearGradient1372"
       gradientUnits="userSpaceOnUse"
       gradientTransform="matrix(2.0157373,0,0,2.0157373,-1.0666193,-0.19994007)"
       x1="4.4979196"
       y1="5.8207517"
       x2="12.435461"
       y2="13.229085" />
    <linearGradient
       inkscape:collect="always"
       id="linearGradient1291">
      <stop
         style="stop-color:#333333;stop-opacity:1;"
         offset="0"
         id="stop1287" />
      <stop
         style="stop-color:#683f2b;stop-opacity:1"
         offset="1"
         id="stop1289" />
    </linearGradient>
  </defs>
  <path
     id="rect846"
     style="fill:#7d7d7b;stroke-width:0.999999;stroke-linecap:round;stroke-linejoin:round"
     d="M 5,1 H 20.5 L 27,7.5 V 31 H 5 Z"
     sodipodi:nodetypes="cccccc" />
  <path
     id="rect1454"
     style="fill:#fafafa;stroke-width:0.999999;stroke-linecap:round;stroke-linejoin:round"
     d="M 6,1.9999987 V 29.999998 H 26 V 9 H 20 C 19.314274,9 19.000001,8.5097479 19.000001,8 V 1.9999987 Z m 14,0 V 8 h 6 z"
     sodipodi:nodetypes="ccccsscccccc" />
  <path
     d="m 16.000019,11 c -0.07699,3.04e-4 -0.154092,0.03432 -0.195818,0.102086 l -0.416666,0.672911 -0.195817,0.01875 -0.538538,-0.578121 c -0.109266,-0.116897 -0.330444,-0.07348 -0.386456,0.07708 l -0.276057,0.738538 -0.190639,0.05729 -0.63958,-0.460414 c -0.130053,-0.09394 -0.338872,-0.0069 -0.364573,0.151041 l -0.127068,0.778121 -0.173971,0.09375 -0.718749,-0.327081 c -0.145966,-0.06672 -0.333203,0.0587 -0.327081,0.218748 l 0.02721,0.790621 -0.15103,0.125 -0.769784,-0.18229 c -0.156359,-0.03644 -0.315893,0.122801 -0.279156,0.279167 l 0.181229,0.769787 -0.123969,0.151042 -0.7906243,-0.0271 c -0.1594582,-0.0046 -0.2851653,0.180798 -0.218759,0.327081 l 0.3270801,0.718745 -0.093732,0.175 -0.7781178,0.126044 c -0.158211,0.0257 -0.2443842,0.234508 -0.1510299,0.364584 l 0.4604363,0.63959 -0.057298,0.190625 -0.7385386,0.276041 c -0.1499717,0.056 -0.1942677,0.276877 -0.077102,0.386456 l 0.5781241,0.538539 -0.018898,0.195833 -0.6729147,0.416664 c -0.1361763,0.08416 -0.1361763,0.308852 0,0.392707 l 0.6729147,0.416664 0.018898,0.195833 -0.5781241,0.538539 c -0.1172031,0.109255 -0.072869,0.330157 0.077102,0.386455 l 0.738539,0.276042 0.057298,0.190628 -0.4604145,0.639579 c -0.093619,0.130356 -0.00718,0.338143 0.1510299,0.363541 l 0.7781216,0.127095 0.093732,0.175007 -0.3270804,0.717705 c -0.066709,0.145962 0.059338,0.334552 0.218759,0.328123 l 0.7906206,-0.02812 0.123969,0.152088 -0.181267,0.769788 c -0.03666,0.156079 0.122797,0.31483 0.279156,0.278124 l 0.769788,-0.181255 0.15103,0.123946 -0.02721,0.79062 c -0.006,0.160048 0.181115,0.285472 0.327081,0.218752 l 0.718745,-0.327081 0.173972,0.09375 0.127067,0.77812 c 0.0257,0.158518 0.23452,0.244373 0.364573,0.151038 l 0.63958,-0.461459 0.190639,0.05834 0.276057,0.738538 c 0.05601,0.14993 0.27617,0.194578 0.385417,0.07708 l 0.53958,-0.578121 0.195818,0.01977 0.415619,0.671871 c 0.08387,0.135538 0.309581,0.135859 0.393752,0 l 0.416662,-0.671871 0.195817,-0.01977 0.538542,0.578121 c 0.109266,0.117513 0.330444,0.07284 0.386452,-0.07709 l 0.276019,-0.738537 0.19064,-0.05834 0.639579,0.461457 c 0.130057,0.09333 0.337841,0.0073 0.363541,-0.151041 l 0.127095,-0.778121 0.175007,-0.09375 0.717705,0.32708 c 0.145962,0.06672 0.333948,-0.0584 0.328124,-0.218747 l -0.02812,-0.790623 0.152088,-0.123969 0.769788,0.181255 c 0.156382,0.0367 0.31485,-0.122033 0.278124,-0.278124 l -0.181255,-0.769788 0.123946,-0.152088 0.790621,0.02812 c 0.159424,0.0065 0.285774,-0.182162 0.218751,-0.328124 l -0.32708,-0.717705 0.09375,-0.175008 0.778119,-0.127094 c 0.158517,-0.0254 0.244997,-0.233159 0.151038,-0.363537 l -0.460415,-0.639582 0.05729,-0.190628 0.738538,-0.276038 c 0.150251,-0.0563 0.1946,-0.277202 0.07708,-0.386457 l -0.578121,-0.538539 0.01977,-0.195832 0.671871,-0.416664 c 0.136184,-0.08386 0.136203,-0.308549 0,-0.392707 l -0.671864,-0.416662 -0.01975,-0.195833 0.578122,-0.538539 c 0.117517,-0.109576 0.07317,-0.330455 -0.07708,-0.386454 L 22.96875,16.990565 22.91146,16.79994 23.371875,16.160361 c 0.09396,-0.130077 0.0083,-0.338559 -0.149991,-0.364581 l -0.779164,-0.12604 -0.09375,-0.175 0.32708,-0.718746 c 0.06702,-0.146286 -0.05777,-0.33321 -0.218751,-0.32708 l -0.789579,0.0271 -0.124996,-0.151041 0.181254,-0.769787 c 0.03674,-0.156363 -0.121749,-0.315893 -0.278124,-0.279164 l -0.769787,0.182291 -0.152089,-0.125001 0.02812,-0.79062 c 0.006,-0.160052 -0.181092,-0.285169 -0.32708,-0.218748 l -0.718745,0.327081 -0.175007,-0.09375 -0.127094,-0.77812 c -0.0257,-0.157879 -0.233503,-0.244694 -0.363538,-0.151022 l -0.639575,0.460398 -0.190639,-0.05729 -0.276019,-0.738538 c -0.05601,-0.150557 -0.277191,-0.193976 -0.386457,-0.07708 l -0.538541,0.578122 -0.195817,-0.01875 -0.416663,-0.672913 c -0.04192,-0.06777 -0.118828,-0.101775 -0.195817,-0.102078 z m -0.02494,1.409368 c 0.237845,0 0.47616,0.158895 0.476039,0.476039 -2.68e-4,0.633841 -0.950797,0.633841 -0.951039,0 -1.32e-4,-0.317144 0.237165,-0.476039 0.475,-0.476039 z m 1.104143,0.783329 c 1.690534,0.31666 3.156447,1.360978 4.008313,2.855193 l -0.561455,1.26666 c -0.09686,0.219277 0.0022,0.475753 0.220834,0.572913 l 1.080202,0.479165 c 0.0336,0.337802 0.03685,0.678132 0.01149,1.016661 h -0.59999 c -0.06013,0 -0.08438,0.04004 -0.08438,0.09896 v 0.274999 c 0,0.649382 -0.366645,0.791138 -0.687496,0.827079 -0.305608,0.03443 -0.643663,-0.127597 -0.685449,-0.314582 -0.180253,-1.013857 -0.480893,-1.231114 -0.955206,-1.605201 0.588629,-0.373807 1.201036,-0.925416 1.201036,-1.663533 0,-0.797038 -0.546331,-1.298596 -0.918744,-1.544783 -0.52253,-0.344417 -1.101202,-0.37708 -1.257285,-0.37708 h -6.212466 c 0.858841,-0.959712 2.009495,-1.646235 3.274983,-1.885407 l 0.732287,0.768746 c 0.165543,0.173356 0.440323,0.180238 0.613538,0.01459 z m -6.777044,3.521856 c 0.237846,0 0.475117,0.158876 0.474996,0.47604 -2.65e-4,0.63382 -0.9507932,0.63382 -0.9510352,0 -1.32e-4,-0.317144 0.2381862,-0.47604 0.4760392,-0.47604 z m 11.345773,0.0229 c 0.237842,0 0.476159,0.157833 0.476038,0.474998 -2.66e-4,0.633821 -0.950795,0.633821 -0.951037,0 -1.33e-4,-0.317163 0.237154,-0.474998 0.474999,-0.474998 z m -10.347864,0.187499 h 0.699995 l -0.0021,3.706231 H 10.36884 c -0.206627,-0.725805 -0.27103,-1.561218 -0.189581,-2.31143 l 1.02395,-0.455206 c 0.218797,-0.09716 0.318009,-0.353658 0.220837,-0.572914 z m 3.161438,0 h 2.16353 c 0.102048,0 0.720832,0.04161 0.720832,0.504164 0,0.384025 -0.474406,0.572913 -0.864578,0.572913 H 14.46152 Z m 0,2.461444 h 1.726035 c 0.138142,0 0.73818,0.193826 0.930202,0.961455 0.06013,0.236088 0.193059,1.004109 0.283314,1.249993 0.08995,0.27572 0.455493,0.86562 0.845831,0.86562 h 2.470819 C 20.552032,22.68525 20.371408,22.8559 20.176061,23.052015 L 19.169817,22.83535 c -0.234255,-0.05019 -0.464389,0.09861 -0.514581,0.333332 L 18.41671,24.28326 c -1.553317,0.703606 -3.336801,0.694545 -4.883308,-0.02396 L 13.294876,23.145764 C 13.244686,22.91137 13.014397,22.762097 12.780297,22.812433 L 11.79697,23.02389 c -0.182702,-0.188168 -0.352441,-0.349459 -0.508331,-0.560412 h 4.711434 v -1.845822 h -1.538536 z m -2.009363,4.030202 c 0.237846,0 0.47616,0.157852 0.476039,0.474996 -2.64e-4,0.633821 -0.951817,0.633821 -0.952078,0 -1.32e-4,-0.317163 0.238186,-0.474996 0.476039,-0.474996 z m 7.045797,0.02188 c 0.237842,0 0.47616,0.158899 0.476039,0.476039 -2.66e-4,0.633841 -0.950795,0.633841 -0.951037,0 -1.33e-4,-0.317163 0.237158,-0.476039 0.474998,-0.476039 z"
     style="fill:url(#linearGradient1372);fill-opacity:1;stroke-width:0.533329"
     id="path1348" />
</svg>
