<?xml version="1.0" encoding="UTF-8" standalone="no"?>
<!-- Created with Inkscape (http://www.inkscape.org/) -->

<svg
   width="32"
   height="32"
   viewBox="0 0 32 32"
   version="1.1"
   id="svg5"
   inkscape:version="1.2.1 (9c6d41e410, 2022-07-14, custom)"
   sodipodi:docname="text-x-html.svg"
   xmlns:inkscape="http://www.inkscape.org/namespaces/inkscape"
   xmlns:sodipodi="http://sodipodi.sourceforge.net/DTD/sodipodi-0.dtd"
   xmlns:xlink="http://www.w3.org/1999/xlink"
   xmlns="http://www.w3.org/2000/svg"
   xmlns:svg="http://www.w3.org/2000/svg">
  <sodipodi:namedview
     id="namedview7"
     pagecolor="#ffffff"
     bordercolor="#000000"
     borderopacity="0.25"
     inkscape:showpageshadow="2"
     inkscape:pageopacity="0.0"
     inkscape:pagecheckerboard="0"
     inkscape:deskcolor="#d1d1d1"
     inkscape:document-units="px"
     showgrid="false"
     inkscape:zoom="25.3125"
     inkscape:cx="15.980247"
     inkscape:cy="16"
     inkscape:window-width="1920"
     inkscape:window-height="1012"
     inkscape:window-x="0"
     inkscape:window-y="0"
     inkscape:window-maximized="1"
     inkscape:current-layer="svg5" />
  <defs
     id="defs2">
    <linearGradient
       inkscape:collect="always"
       xlink:href="#linearGradient984"
       id="linearGradient7450"
       x1="13.809379"
       y1="13.973848"
       x2="2.3889806"
       y2="3.7831419"
       gradientUnits="userSpaceOnUse"
       gradientTransform="matrix(0.52131415,0,0,0.52131415,11.586207,10.586208)" />
    <linearGradient
       inkscape:collect="always"
       id="linearGradient984">
      <stop
         style="stop-color:#117bb9;stop-opacity:1;"
         offset="0"
         id="stop980" />
      <stop
         style="stop-color:#15b393;stop-opacity:1"
         offset="1"
         id="stop982" />
    </linearGradient>
  </defs>
  <path
     id="rect846"
     style="fill:#7d7d7b;stroke-width:0.999999;stroke-linecap:round;stroke-linejoin:round"
     d="M 5,1 H 20.5 L 27,7.5 V 31 H 5 Z"
     sodipodi:nodetypes="cccccc" />
  <path
     id="rect1454"
     style="fill:#fafafa;stroke-width:0.999999;stroke-linecap:round;stroke-linejoin:round"
     d="M 6,1.9999987 V 29.999998 H 26 V 9 H 20 C 19.314274,9 19.000001,8.5097479 19.000001,8 V 1.9999987 Z m 14,0 V 8 h 6 z"
     sodipodi:nodetypes="ccccsscccccc" />
  <circle
     style="fill:url(#linearGradient7450);fill-opacity:1;stroke-width:0.587335;stroke-linecap:round;stroke-linejoin:round"
     id="path7362"
     cx="16"
     cy="15"
     r="4" />
  <path
     id="rect5109"
     style="fill:#c3c3c3;fill-opacity:1;stroke-width:2;stroke-linecap:round"
     d="m 8,21 v 1 h 16 v -1 z m 0,2 v 1 h 16 v -1 z m 0,2.000001 v 1 h 16 v -1 z"
     sodipodi:nodetypes="ccccccccccccccc" />
  <path
     id="rect7181"
     style="fill:#c3c3c3;stroke-width:2;stroke-linecap:round"
     d="m 10.656,12.549924 c -0.127809,0 -0.255582,0.0505 -0.353516,0.148438 L 8,15.00066 l 2.302484,2.302515 c 0.195866,0.195869 0.511164,0.195868 0.707032,0 0.195868,-0.195867 0.195868,-0.511162 0,-0.707031 L 9.414062,15.00066 11.009516,13.405393 c 0.195868,-0.195868 0.195868,-0.511163 0,-0.707031 -0.09793,-0.09793 -0.225707,-0.148438 -0.353516,-0.148438 z m 10.688,0.002 c -0.127809,0 -0.255582,0.04855 -0.353516,0.146485 -0.195868,0.195868 -0.195868,0.511162 0,0.707031 l 1.595454,1.59522 -1.595454,1.595484 c -0.195868,0.195869 -0.195868,0.511164 0,0.707031 0.195868,0.195868 0.511166,0.195869 0.707032,0 L 24,15.00066 21.697516,12.698362 C 21.599582,12.600436 21.471809,12.551877 21.344,12.551877 Z"
     sodipodi:nodetypes="sccsscccsscscccsscscc" />
  <path
     id="path1250"
     style="opacity:0.3;fill:#ffffff;stroke-width:2;stroke-linecap:round"
     d="M 16 11 A 1 4 0 0 1 16.865234 13 L 15.136719 13 A 1 4 0 0 1 16 11 z M 16 11 A 4 4 0 0 0 14.695312 11.228516 A 2 5 0 0 0 14.169922 13 L 12.546875 13 A 4 4 0 0 0 12.134766 14 L 14.044922 14 A 2 5 0 0 0 14 15 A 2 5 0 0 0 14.044922 16 L 12.134766 16 A 4 4 0 0 0 12.546875 17 L 14.169922 17 A 2 5 0 0 0 14.695312 18.771484 A 4 4 0 0 0 16 19 A 1 4 0 0 1 15.136719 17 L 16.863281 17 A 1 4 0 0 1 16 19 A 4 4 0 0 0 17.304688 18.771484 A 2 5 0 0 0 17.830078 17 L 19.453125 17 A 4 4 0 0 0 19.865234 16 L 17.955078 16 A 2 5 0 0 0 18 15 A 2 5 0 0 0 17.958984 14 L 19.873047 14 A 4 4 0 0 0 19.462891 13 L 17.832031 13 A 2 5 0 0 0 17.302734 11.21875 A 4 4 0 0 0 16 11 z M 15.033203 14 L 16.96875 14 A 1 4 0 0 1 17 15 A 1 4 0 0 1 16.966797 16 L 15.033203 16 A 1 4 0 0 1 15 15 A 1 4 0 0 1 15.033203 14 z " />
</svg>
