<?xml version="1.0" encoding="UTF-8" standalone="no"?>
<!-- Created with Inkscape (http://www.inkscape.org/) -->

<svg
   width="32"
   height="32"
   viewBox="0 0 32 32"
   version="1.1"
   id="svg5"
   inkscape:version="1.2.1 (9c6d41e410, 2022-07-14, custom)"
   sodipodi:docname="video-x-generic.svg"
   xmlns:inkscape="http://www.inkscape.org/namespaces/inkscape"
   xmlns:sodipodi="http://sodipodi.sourceforge.net/DTD/sodipodi-0.dtd"
   xmlns:xlink="http://www.w3.org/1999/xlink"
   xmlns="http://www.w3.org/2000/svg"
   xmlns:svg="http://www.w3.org/2000/svg">
  <sodipodi:namedview
     id="namedview7"
     pagecolor="#ffffff"
     bordercolor="#000000"
     borderopacity="0.25"
     inkscape:showpageshadow="2"
     inkscape:pageopacity="0.0"
     inkscape:pagecheckerboard="0"
     inkscape:deskcolor="#d1d1d1"
     inkscape:document-units="px"
     showgrid="false"
     inkscape:zoom="25.625"
     inkscape:cx="16"
     inkscape:cy="16"
     inkscape:window-width="1920"
     inkscape:window-height="1029"
     inkscape:window-x="0"
     inkscape:window-y="0"
     inkscape:window-maximized="1"
     inkscape:current-layer="svg5" />
  <defs
     id="defs2">
    <linearGradient
       inkscape:collect="always"
       xlink:href="#linearGradient27684"
       id="linearGradient27686"
       x1="86.812088"
       y1="124.12689"
       x2="114.91612"
       y2="144.43559"
       gradientUnits="userSpaceOnUse"
       gradientTransform="matrix(0.85149444,0,0,1.4747208,-68.920013,-182.0525)" />
    <linearGradient
       inkscape:collect="always"
       id="linearGradient27684">
      <stop
         style="stop-color:#4a4a4a;stop-opacity:1;"
         offset="0"
         id="stop27680" />
      <stop
         style="stop-color:#232323;stop-opacity:0.74901962"
         offset="1"
         id="stop27682" />
    </linearGradient>
    <linearGradient
       inkscape:collect="always"
       xlink:href="#linearGradient12418"
       id="linearGradient2216"
       x1="42"
       y1="4.9999995"
       x2="56"
       y2="31"
       gradientUnits="userSpaceOnUse"
       gradientTransform="translate(-33.000003,-2.0000007)" />
    <linearGradient
       inkscape:collect="always"
       id="linearGradient12418">
      <stop
         style="stop-color:#52e4ff;stop-opacity:1;"
         offset="0"
         id="stop12414" />
      <stop
         style="stop-color:#d29eff;stop-opacity:1"
         offset="1"
         id="stop12416" />
    </linearGradient>
  </defs>
  <path
     id="rect862"
     style="fill:url(#linearGradient27686);stroke-width:0.826348;stroke-linecap:round;stroke-linejoin:round"
     d="M 3.9999983,1 H 27.999997 C 28.554,1 28.999999,1.4460001 28.999999,2.0000003 V 30 c 0,0.554 -0.445999,0.999999 -1.000002,0.999999 H 3.9999983 C 3.4459993,30.999999 3,30.554 3,30 V 2.0000003 C 3,1.4460001 3.4459993,1 3.9999983,1 Z"
     sodipodi:nodetypes="sssssssss" />
  <path
     id="rect1388"
     style="fill:#ffffff;stroke-width:3;stroke-linecap:round;stroke-linejoin:round"
     d="m 5.4746093,2.5001913 c -0.264915,0.013342 -0.474609,0.2316548 -0.474609,0.4999998 v 2.0000002 c 0,0.277002 0.222999,0.5 0.5,0.5 h 1 c 0.277001,0 0.5,-0.222999 0.5,-0.5 V 3.0001911 c 0,-0.2770016 -0.223,-0.4999998 -0.5,-0.4999998 h -1 c -0.0087,0 -0.01686,-4.304e-4 -0.0254,0 z m 20.0000017,0 c -0.264907,0.013342 -0.47461,0.2316548 -0.47461,0.4999998 v 2.0000002 c 0,0.277002 0.222992,0.5 0.500001,0.5 h 0.999999 c 0.277001,0 0.500001,-0.222999 0.500001,-0.5 V 3.0001911 c 0,-0.2770016 -0.222992,-0.4999998 -0.500001,-0.4999998 h -0.999999 c -0.0087,0 -0.01701,-4.304e-4 -0.02532,0 z m -20.0000017,6 c -0.264915,0.01334 -0.474609,0.231655 -0.474609,0.500001 v 1.9999987 c 0,0.277001 0.222999,0.500001 0.5,0.500001 h 1 c 0.277001,0 0.5,-0.223 0.5,-0.500001 V 9.0001923 c 0,-0.277002 -0.223,-0.500001 -0.5,-0.500001 h -1 c -0.0087,0 -0.01686,-4.3e-4 -0.0254,0 z m 20.0000017,0 c -0.264907,0.01334 -0.47461,0.231655 -0.47461,0.500001 v 1.9999987 c 0,0.277001 0.222992,0.500001 0.500001,0.500001 h 0.999999 c 0.277001,0 0.500001,-0.223 0.500001,-0.500001 V 9.0001923 c 0,-0.277002 -0.222992,-0.500001 -0.500001,-0.500001 h -0.999999 c -0.0087,0 -0.01701,-4.3e-4 -0.02532,0 z M 5.4746093,14.500192 c -0.264915,0.01342 -0.474609,0.231655 -0.474609,0.5 v 1.999999 c 0,0.277002 0.222999,0.500001 0.5,0.500001 h 1 c 0.277001,0 0.5,-0.222992 0.5,-0.500001 v -1.999999 c 0,-0.277002 -0.223,-0.5 -0.5,-0.5 h -1 c -0.0087,0 -0.01686,-4.3e-4 -0.0254,0 z m 20.0000017,0 c -0.264907,0.01342 -0.47461,0.231655 -0.47461,0.5 v 1.999999 c 0,0.277002 0.222992,0.500001 0.500001,0.500001 h 0.999999 c 0.277001,0 0.500001,-0.222992 0.500001,-0.500001 v -1.999999 c 0,-0.277002 -0.222992,-0.5 -0.500001,-0.5 h -0.999999 c -0.0087,0 -0.01701,-4.3e-4 -0.02532,0 z M 5.4746093,20.500194 c -0.264915,0.01323 -0.474609,0.231647 -0.474609,0.499997 v 2.000001 c 0,0.277002 0.222999,0.500001 0.5,0.500001 h 1 c 0.277001,0 0.5,-0.222992 0.5,-0.500001 v -2.000001 c 0,-0.277002 -0.223,-0.499997 -0.5,-0.499997 h -1 c -0.0087,0 -0.01686,-4.31e-4 -0.0254,0 z m 20.0000017,0 c -0.264907,0.01323 -0.47461,0.231647 -0.47461,0.499997 v 2.000001 c 0,0.277002 0.222992,0.500001 0.500001,0.500001 h 0.999999 c 0.277001,0 0.500001,-0.222992 0.500001,-0.500001 v -2.000001 c 0,-0.277002 -0.222992,-0.499997 -0.500001,-0.499997 h -0.999999 c -0.0087,0 -0.01701,-4.31e-4 -0.02532,0 z M 5.4746093,26.50019 c -0.264915,0.01323 -0.474609,0.231647 -0.474609,0.500001 v 2.000002 c 0,0.277001 0.222999,0.499997 0.5,0.499997 h 1 c 0.277001,0 0.5,-0.222992 0.5,-0.499997 v -2.000002 c 0,-0.277001 -0.223,-0.500001 -0.5,-0.500001 h -1 c -0.0087,0 -0.01686,-4.27e-4 -0.0254,0 z m 20.0000017,0 c -0.264907,0.01323 -0.47461,0.231647 -0.47461,0.500001 v 2.000002 c 0,0.277001 0.222992,0.499997 0.500001,0.499997 h 0.999999 c 0.277001,0 0.500001,-0.222992 0.500001,-0.499997 v -2.000002 c 0,-0.277001 -0.222992,-0.500001 -0.500001,-0.500001 h -0.999999 c -0.0087,0 -0.01701,-4.27e-4 -0.02532,0 z"
     sodipodi:nodetypes="sssssssssssssssssssssssssssssssssssssssscssssssssccssssssssccssssssssccssssssssccsssssssscssssssssss" />
  <path
     id="rect2063"
     style="fill:url(#linearGradient2216);fill-opacity:1;stroke-width:3;stroke-linecap:round;stroke-linejoin:round"
     d="m 11,3.0000002 c -1.1079987,0 -1.9999997,0.8920001 -1.9999997,2.0000001 V 13.000001 C 9.0000003,14.108001 9.8920013,15 11,15 h 10 c 1.108001,0 1.999999,-0.891999 1.999999,-1.999999 V 5.0000003 c 0,-1.108 -0.891998,-2.0000001 -1.999999,-2.0000001 z m 0,14.0000008 c -1.1079987,0 -1.9999997,0.891999 -1.9999997,1.999998 V 27 c 0,1.107999 0.892001,1.999998 1.9999997,1.999998 h 10 c 1.108001,0 1.999999,-0.891999 1.999999,-1.999998 V 18.999999 C 22.999999,17.892 22.108001,17.000001 21,17.000001 Z" />
</svg>
