<?xml version="1.0" encoding="UTF-8" standalone="no"?>
<!-- Created with Inkscape (http://www.inkscape.org/) -->

<svg
   width="32"
   height="32"
   viewBox="0 0 32 32"
   version="1.1"
   id="svg5"
   inkscape:version="1.2.1 (9c6d41e410, 2022-07-14, custom)"
   sodipodi:docname="x-office-document-template.svg"
   xmlns:inkscape="http://www.inkscape.org/namespaces/inkscape"
   xmlns:sodipodi="http://sodipodi.sourceforge.net/DTD/sodipodi-0.dtd"
   xmlns="http://www.w3.org/2000/svg"
   xmlns:svg="http://www.w3.org/2000/svg">
  <sodipodi:namedview
     id="namedview7"
     pagecolor="#ffffff"
     bordercolor="#000000"
     borderopacity="0.25"
     inkscape:showpageshadow="2"
     inkscape:pageopacity="0.0"
     inkscape:pagecheckerboard="0"
     inkscape:deskcolor="#d1d1d1"
     inkscape:document-units="px"
     showgrid="false"
     inkscape:zoom="25.84375"
     inkscape:cx="15.980653"
     inkscape:cy="16"
     inkscape:window-width="1920"
     inkscape:window-height="1029"
     inkscape:window-x="0"
     inkscape:window-y="0"
     inkscape:window-maximized="1"
     inkscape:current-layer="svg5" />
  <defs
     id="defs2" />
  <path
     id="rect846"
     style="fill:#7d7d7b;stroke-width:0.999999;stroke-linecap:round;stroke-linejoin:round"
     d="m 5.0000008,1.0000004 21.9999982,0.9999994 4e-6,28.9999992 H 7.0000009 V 29 H 5.0000008 Z"
     sodipodi:nodetypes="ccccccc" />
  <path
     id="rect1454"
     style="fill:#fafafa;stroke-width:0.999999;stroke-linecap:round;stroke-linejoin:round"
     d="M 6.0000007,2.0000006 V 28 H 24.000001 V 2.0000006 Z m 19.0000003,0 V 29 h -1 -16.0000003 v 1 H 26.000001 V 2.0000006 Z"
     sodipodi:nodetypes="ccccccccccccc" />
  <path
     id="path4039"
     style="font-size:10.5833px;line-height:1.25;font-family:'Noto Sans CJK KR';-inkscape-font-specification:'Noto Sans CJK KR';fill:#2784bd;fill-opacity:1;stroke-width:0.238745"
     d="M 11.000001,9 8,17 h 1.0000005 l 0.75,-1.999999 H 13.250001 L 14.000001,17 h 1 l -3,-8 z m 0.5,1.333985 1.375,3.666016 h -2.75 z M 8,18 v 1 h 14 v -1 z"
     sodipodi:nodetypes="cccccccccccccccccc" />
  <path
     id="rect1374"
     style="fill:#69b0ec;fill-opacity:1;stroke-width:3;stroke-linecap:round;stroke-linejoin:round"
     d="m 15.999999,14.000001 v 1 h 6.000002 v -1 z m 0,2 v 1 h 6.000002 v -1 z"
     sodipodi:nodetypes="cccccccccc" />
  <path
     id="rect1708"
     style="fill:#c0c5cb;fill-opacity:1;stroke-width:3;stroke-linecap:round;stroke-linejoin:round"
     d="m 8,20 v 1 h 6 v -1 z m 8.000001,0 c -0.553999,0 -1,0.446002 -1,1 v 3 c 0,0.554 0.446001,1 1,1 h 5 c 0.553999,0 1,-0.446 1,-1 v -3 c 0,-0.553998 -0.446001,-1 -1,-1 z M 8,22 v 1 h 6.000001 v -1 z m 0,2 v 1 h 6.000001 v -1 z"
     sodipodi:nodetypes="cccccssssssssscccccccccc" />
  <rect
     style="fill:#88c0f0;fill-opacity:1;stroke-width:3;stroke-linecap:round;stroke-linejoin:round"
     id="rect2355"
     width="5"
     height="3.0000002"
     x="16"
     y="21" />
  <rect
     style="fill:#69b0ec;fill-opacity:1;stroke-width:1.39398;stroke-linecap:round;stroke-linejoin:round"
     id="rect6964"
     width="19"
     height="7"
     x="5"
     y="1.0000004" />
  <path
     id="rect13579"
     style="fill:#2784bd;fill-opacity:1;stroke-width:1.41009;stroke-linecap:round;stroke-linejoin:round"
     d="m 24,1 v 0.9999999 l 3.000001,1.0000003 V 1.9999998 Z M 5,6.9999998 V 8 H 24 V 6.9999998 Z"
     sodipodi:nodetypes="cccccccccc" />
</svg>
