<?xml version="1.0" encoding="UTF-8" standalone="no"?>
<!-- Created with Inkscape (http://www.inkscape.org/) -->

<svg
   width="32"
   height="32"
   viewBox="0 0 32 32"
   version="1.1"
   id="svg5"
   inkscape:version="1.2.1 (9c6d41e410, 2022-07-14, custom)"
   sodipodi:docname="x-office-presentation-template.svg"
   xmlns:inkscape="http://www.inkscape.org/namespaces/inkscape"
   xmlns:sodipodi="http://sodipodi.sourceforge.net/DTD/sodipodi-0.dtd"
   xmlns="http://www.w3.org/2000/svg"
   xmlns:svg="http://www.w3.org/2000/svg">
  <sodipodi:namedview
     id="namedview7"
     pagecolor="#ffffff"
     bordercolor="#000000"
     borderopacity="0.25"
     inkscape:showpageshadow="2"
     inkscape:pageopacity="0.0"
     inkscape:pagecheckerboard="0"
     inkscape:deskcolor="#d1d1d1"
     inkscape:document-units="px"
     showgrid="false"
     inkscape:zoom="25.84375"
     inkscape:cx="14.974607"
     inkscape:cy="16.038694"
     inkscape:window-width="1920"
     inkscape:window-height="1029"
     inkscape:window-x="0"
     inkscape:window-y="0"
     inkscape:window-maximized="1"
     inkscape:current-layer="svg5" />
  <defs
     id="defs2" />
  <path
     id="rect846"
     style="fill:#7d7d7b;stroke-width:0.999999;stroke-linecap:round;stroke-linejoin:round"
     d="M 5.0000008,1.0000004 26.999998,1.9999998 27.000002,31 H 7.0000009 V 29 H 5.0000008 Z"
     sodipodi:nodetypes="ccccccc" />
  <path
     id="rect1454"
     style="fill:#fafafa;stroke-width:0.999999;stroke-linecap:round;stroke-linejoin:round"
     d="M 6.0000007,2.0000006 V 28.000001 H 24.000001 V 2.0000006 Z m 19.0000003,0 V 29.000001 h -1 -16.0000002 v 1 H 26.000001 V 2.0000006 Z"
     sodipodi:nodetypes="ccccccccccccc" />
  <rect
     style="fill:#e8ab72;fill-opacity:1;stroke-width:1.39398;stroke-linecap:round;stroke-linejoin:round"
     id="rect6964"
     width="19"
     height="7"
     x="5.0000005"
     y="1.0000002" />
  <path
     id="rect13579"
     style="fill:#e6821d;fill-opacity:1;stroke-width:1.41009;stroke-linecap:round;stroke-linejoin:round"
     d="m 23.999999,1 v 0.9999999 l 2.999999,1.0000003 V 1.9999998 Z M 5,7 V 8 H 23.999999 V 7 Z"
     sodipodi:nodetypes="cccccccccc" />
  <path
     id="rect2836"
     style="fill:#c0c5cb;fill-opacity:1;stroke-width:3;stroke-linecap:round;stroke-linejoin:round"
     d="m 15,11 c -2.761423,0 -4.999999,2.238577 -4.999999,5 0,2.761424 2.238576,5.000001 4.999999,5.000001 2.761424,0 5,-2.238577 5,-5.000001 H 15 Z M 7.0000001,23 v 1 H 23 v -1 z m 0,2 v 1 H 23 v -1 z"
     sodipodi:nodetypes="cssccccccccccccc" />
  <path
     id="path3412"
     style="fill:#e8ab72;fill-opacity:1;stroke-width:3;stroke-linecap:round;stroke-linejoin:round"
     d="m 16,10 v 5 h 5 c 0,-2.761424 -2.238577,-5.0000003 -5,-5 z"
     sodipodi:nodetypes="cccc" />
</svg>
