<?xml version="1.0" encoding="UTF-8" standalone="no"?>
<!-- Created with Inkscape (http://www.inkscape.org/) -->

<svg
   width="32"
   height="32"
   viewBox="0 0 32 32"
   version="1.1"
   id="svg5"
   inkscape:version="1.2.1 (9c6d41e410, 2022-07-14, custom)"
   sodipodi:docname="x-office-spreadsheet-template.svg"
   xmlns:inkscape="http://www.inkscape.org/namespaces/inkscape"
   xmlns:sodipodi="http://sodipodi.sourceforge.net/DTD/sodipodi-0.dtd"
   xmlns="http://www.w3.org/2000/svg"
   xmlns:svg="http://www.w3.org/2000/svg">
  <sodipodi:namedview
     id="namedview7"
     pagecolor="#ffffff"
     bordercolor="#000000"
     borderopacity="0.25"
     inkscape:showpageshadow="2"
     inkscape:pageopacity="0.0"
     inkscape:pagecheckerboard="0"
     inkscape:deskcolor="#d1d1d1"
     inkscape:document-units="px"
     showgrid="false"
     inkscape:zoom="25.84375"
     inkscape:cx="15.980653"
     inkscape:cy="16"
     inkscape:window-width="1920"
     inkscape:window-height="1029"
     inkscape:window-x="0"
     inkscape:window-y="0"
     inkscape:window-maximized="1"
     inkscape:current-layer="svg5" />
  <defs
     id="defs2" />
  <path
     id="rect846"
     style="fill:#7d7d7b;stroke-width:0.999999;stroke-linecap:round;stroke-linejoin:round"
     d="m 5.0000008,1.0000004 21.9999982,0.9999994 4e-6,28.9999992 H 7.0000009 V 29 H 5.0000008 Z"
     sodipodi:nodetypes="ccccccc" />
  <path
     id="rect1454"
     style="fill:#fafafa;stroke-width:0.999999;stroke-linecap:round;stroke-linejoin:round"
     d="M 6.0000007,2.0000006 V 28 H 24.000001 V 2.0000006 Z m 19.0000003,0 V 29 h -1 -16.0000003 v 1 H 26.000001 V 2.0000006 Z"
     sodipodi:nodetypes="ccccccccccccc" />
  <rect
     style="fill:#a0e68e;fill-opacity:1;stroke-width:1.39398;stroke-linecap:round;stroke-linejoin:round"
     id="rect6964"
     width="19"
     height="7"
     x="5.0000019"
     y="1.0000002" />
  <path
     id="rect13579"
     style="fill:#67c451;fill-opacity:1;stroke-width:1.41009;stroke-linecap:round;stroke-linejoin:round"
     d="m 24,1 v 0.9999999 l 2.999999,1.0000003 V 1.9999998 Z M 5.0000019,6.9999998 V 8 H 24.000002 V 6.9999998 Z"
     sodipodi:nodetypes="cccccccccc" />
  <path
     id="rect4459"
     style="fill:#c0c5cb;fill-opacity:1;stroke-width:3;stroke-linecap:round;stroke-linejoin:round"
     d="M 19.000001,8.9999999 V 11.999999 H 23 V 8.9999999 Z m -6.000001,0 v 2.9999991 h 4.000001 V 8.9999999 Z m -5.9999999,0 V 11.999999 H 11 V 8.9999999 Z m 0,15.0000001 v 3 H 11 v -3 z"
     sodipodi:nodetypes="cccccccccccccccccccc" />
  <path
     id="rect4880"
     style="fill:#67c451;fill-opacity:1;stroke-width:3;stroke-linecap:round;stroke-linejoin:round"
     d="m 7.0000001,14 v 2.999999 H 11 V 14 Z M 13,14 v 2.999999 h 4.000001 V 14 Z m 6,0 v 2.999999 h 4 V 14 Z M 7.0000001,19 v 3 H 11 V 19 Z M 13,19 v 3 h 4.000001 v -3 z m 6,0 v 3 h 4 v -3 z m -6,5 v 3 h 4.000001 v -3 z m 6,0 v 3 h 4 v -3 z"
     sodipodi:nodetypes="cccccccccccccccccccccccccccccccccccccccc" />
</svg>
