<?xml version="1.0" encoding="UTF-8" standalone="no"?>
<!-- Created with Inkscape (http://www.inkscape.org/) -->

<svg
   width="16"
   height="16"
   viewBox="0 0 16 16"
   version="1.1"
   id="svg1"
   inkscape:version="1.3.2 (091e20ef0f, 2023-11-25, custom)"
   sodipodi:docname="user-home-symbolic.svg"
   xmlns:inkscape="http://www.inkscape.org/namespaces/inkscape"
   xmlns:sodipodi="http://sodipodi.sourceforge.net/DTD/sodipodi-0.dtd"
   xmlns="http://www.w3.org/2000/svg"
   xmlns:svg="http://www.w3.org/2000/svg">
  <sodipodi:namedview
     id="namedview1"
     pagecolor="#ffffff"
     bordercolor="#000000"
     borderopacity="0.25"
     inkscape:showpageshadow="2"
     inkscape:pageopacity="0.0"
     inkscape:pagecheckerboard="0"
     inkscape:deskcolor="#d1d1d1"
     inkscape:document-units="px"
     inkscape:zoom="50.625"
     inkscape:cx="7.9901235"
     inkscape:cy="8"
     inkscape:window-width="1920"
     inkscape:window-height="1008"
     inkscape:window-x="0"
     inkscape:window-y="0"
     inkscape:window-maximized="1"
     inkscape:current-layer="layer1" />
  <defs
     id="defs1" />
  <g
     inkscape:label="Layer 1"
     inkscape:groupmode="layer"
     id="layer1">
    <path
       d="m 6.9975,0.3882025 c 0.57017,-0.51227 1.4348,-0.51227 2.005,0 l 5.5,4.9415 c 0.3166,0.28449 0.4975,0.69012 0.4975,1.1158 v 7.0542005 c 0,0.8284 -0.6716,1.5 -1.5,1.5 h -3 c -0.8284,0 -1.5,-0.6716 -1.5,-1.5 v -3 C 9,10.223503 8.7761,9.9997025 8.5,9.9997025 h -1 c -0.27614,0 -0.5,0.2238005 -0.5,0.5000005 v 3 c 0,0.8284 -0.67157,1.5 -1.5,1.5 h -3 c -0.82843,0 -1.5,-0.6716 -1.5,-1.5 V 6.4455025 c 0,-0.42567 0.18086,-0.8313 0.4975,-1.1158 z m 1.3367,0.74386 c -0.1901,-0.17076 -0.47831,-0.17075 -0.66837,0 l -5.5,4.9415 C 2.06029,6.1683925 2,6.3036025 2,6.4454925 v 7.0542005 c 0,0.2761 0.22386,0.5 0.5,0.5 h 3 c 0.27614,0 0.5,-0.2239 0.5,-0.5 v -3 C 6,9.6711925 6.67157,8.9996925 7.5,8.9996925 h 1 c 0.8284,0 1.5,0.6715 1.5,1.5000005 v 3 c 0,0.2761 0.2239,0.5 0.5,0.5 h 3 c 0.2761,0 0.5,-0.2239 0.5,-0.5 V 6.4454925 c 0,-0.14189 -0.0603,-0.2771 -0.1658,-0.37193 z"
       style="fill:#dedede;fill-opacity:1"
       id="path1" />
  </g>
</svg>
