<?xml version="1.0" encoding="UTF-8" standalone="no"?>
<!-- Created with Inkscape (http://www.inkscape.org/) -->

<svg
   width="16"
   height="16"
   viewBox="0 0 16 16"
   version="1.1"
   id="svg423"
   inkscape:version="1.3.2 (091e20ef0f, 2023-11-25, custom)"
   sodipodi:docname="process-working-symbolic.svg"
   xmlns:inkscape="http://www.inkscape.org/namespaces/inkscape"
   xmlns:sodipodi="http://sodipodi.sourceforge.net/DTD/sodipodi-0.dtd"
   xmlns="http://www.w3.org/2000/svg"
   xmlns:svg="http://www.w3.org/2000/svg">
  <sodipodi:namedview
     id="namedview425"
     pagecolor="#ffffff"
     bordercolor="#000000"
     borderopacity="0.25"
     inkscape:showpageshadow="2"
     inkscape:pageopacity="0.0"
     inkscape:pagecheckerboard="0"
     inkscape:deskcolor="#d1d1d1"
     inkscape:document-units="px"
     showgrid="false"
     inkscape:zoom="50.5625"
     inkscape:cx="8"
     inkscape:cy="7.9901112"
     inkscape:window-width="1920"
     inkscape:window-height="1014"
     inkscape:window-x="0"
     inkscape:window-y="0"
     inkscape:window-maximized="1"
     inkscape:current-layer="svg423" />
  <defs
     id="defs420" />
  <path
     d="M 11.496,1.9302726 C 9.0492,0.52437259 5.9948,0.72617259 3.7525,2.4395126 3.5339211,2.6075704 3.4924091,2.9207749 3.65966,3.1399826 c 0.1680372,0.2186012 0.4811996,0.2601179 0.70038,0.092851 1.9235,-1.4698 4.538,-1.6399 6.6372,-0.43462 2.1009,1.2131 3.2657,3.5667 2.9541,5.9728 -0.03525,0.27347 0.157282,0.523948 0.43059,0.56019 0.273439,0.03526 0.523891,-0.157297 0.56013,-0.43064 0.36316,-2.8041 -0.99592,-5.5556 -3.4443,-6.9693 -5.66e-4,-3.264e-4 -0.0011,-6.518e-4 -0.0017,-9.76e-4 z m -9.5463,4.9342 C 1.868569,6.7602688 1.7495475,6.6923562 1.61857,6.6755326 1.3451308,6.6402767 1.0946786,6.8328297 1.05844,7.1061726 c -0.36248,2.7988 0.98998,5.5453004 3.4308,6.9615004 0.00113,6.71e-4 0.00226,0.0013 0.00339,0.002 2.4467,1.406 5.5012,1.2041 7.7435,-0.50924 0.218579,-0.168058 0.260091,-0.481262 0.09284,-0.70047 -0.168038,-0.218601 -0.4812,-0.260117 -0.70038,-0.09285 -1.923,1.4693 -4.5366,1.6398 -6.6355,0.43556 -2.0944,-1.2152 -3.255,-3.5654004 -2.9439,-5.9669004 0.017565,-0.1320572 -0.018233,-0.2656692 -0.099466,-0.37125 z"
     style="fill:#363636;stroke-width:1.001;fill-opacity:1"
     id="path1" />
</svg>
