<?xml version="1.0" encoding="UTF-8" standalone="no"?>
<!-- Created with Inkscape (http://www.inkscape.org/) -->

<svg
   width="16"
   height="16"
   viewBox="0 0 16 16"
   version="1.1"
   id="svg423"
   inkscape:version="1.3.2 (091e20ef0f, 2023-11-25, custom)"
   sodipodi:docname="security-high-symbolic.svg"
   xmlns:inkscape="http://www.inkscape.org/namespaces/inkscape"
   xmlns:sodipodi="http://sodipodi.sourceforge.net/DTD/sodipodi-0.dtd"
   xmlns="http://www.w3.org/2000/svg"
   xmlns:svg="http://www.w3.org/2000/svg">
  <sodipodi:namedview
     id="namedview425"
     pagecolor="#ffffff"
     bordercolor="#000000"
     borderopacity="0.25"
     inkscape:showpageshadow="2"
     inkscape:pageopacity="0.0"
     inkscape:pagecheckerboard="0"
     inkscape:deskcolor="#d1d1d1"
     inkscape:document-units="px"
     showgrid="false"
     inkscape:zoom="50.5625"
     inkscape:cx="7.9901112"
     inkscape:cy="7.9901112"
     inkscape:window-width="1920"
     inkscape:window-height="1008"
     inkscape:window-x="0"
     inkscape:window-y="0"
     inkscape:window-maximized="1"
     inkscape:current-layer="svg423" />
  <defs
     id="defs420" />
  <path
     d="M 7.998,0 C 7.72698,0 7.45665,0.061232 7.18355,0.15625 7.171091,0.16056 7.158719,0.16512 7.146441,0.169922 c -1.1343,0.44698 -3.7671,1.3187 -5.1914,1.8867 -0.00785,0.00316 -0.015667,0.00641 -0.023438,0.00977 -0.22994,0.098563 -0.55638,0.30917 -0.73828,0.63867 -0.1819,0.3295 -0.18925,0.61851 -0.18945,0.84766 l -0.003906,5.3418 c -0.001241,1.4947 0.47441,2.739 1.4727,3.709 0.99665,0.96839 2.3954,1.7697 4.4707,3.0352 0.00124,7.68e-4 0.00267,0.0012 0.00391,0.002 0.00166,10e-4 0.00224,8.91e-4 0.00391,0.002 0.31446,0.19425 0.6773,0.35421 1.0391,0.35547 l 0.00195,0.002 h 0.00195 l 0.00195,-0.002 c 0.35749,-0.0013 0.73683,-0.16347 1.0527,-0.35938 h 0.00195 c 2.0468,-1.2375 3.4453,-2.0341 4.4473,-3.0059 1.0041,-0.97382 1.4968,-2.2275 1.498,-3.7363 l 0.0039,-5.3418 c 1.93e-4,-0.22992 -0.0038,-0.52168 -0.19141,-0.85742 -0.18756,-0.33575 -0.53463,-0.55217 -0.7832,-0.64648 -0.0065,-0.00202 -0.013,-0.00397 -0.01953,-0.00586 -1.3647,-0.48562 -3.9846,-1.4171 -5.1465,-1.875 C 8.846422,0.165222 8.833399,0.160672 8.820285,0.15638 8.547175,0.06135 8.268655,1.3e-4 7.998015,1.3e-4 Z m 0,1 c 0.13725,0 0.28371,0.028341 0.49414,0.10156 1.2077,0.47595 3.8144,1.3997 5.1777,1.8848 0.26536,0.10068 0.33035,0.2369 0.33008,0.56641 l -0.0039,5.3418 c -0.0023,2.6818 -1.3553,3.4048 -5.4727,5.8945 -0.2641,0.16398 -0.39277,0.21051 -0.5293,0.21094 -0.12747,-4.44e-4 -0.25937,-0.04699 -0.52344,-0.21094 -4.1723,-2.5445 -5.4729,-3.2311 -5.4707,-5.8945 L 2.00379,3.55277 C 2.0040789,3.22326 2.067902,3.09619 2.3241,2.98636 3.6783,2.44633 6.3058,1.57756 7.5136,1.10156 7.72404,1.028339 7.86988,1 7.99797,1 Z"
     style="fill:#363636;fill-opacity:1"
     id="path1" />
  <path
     d="m 7.998,2 c -3.965e-4,0 0.02461,-0.00341 0.16016,0.042969 1.1811,0.46426 3.439,1.2649 4.8418,1.7637 l -0.0039,5.0879 c -10e-4,1.1728 -0.18662,1.6201 -0.88867,2.3008 -0.70205,0.68064 -2.038,1.4905 -4.1016,2.7383 l -0.00587,0.002 -0.00195,0.0039 H 7.99602 l -0.0039,-0.004 c -2.0915,-1.2754 -3.4302,-2.0903 -4.125,-2.7655 -0.69479,-0.67527 -0.86815,-1.1065 -0.86719,-2.2754 l 0.00391,-5.0898 c 1.3371,-0.51455 3.6232,-1.2834 4.8379,-1.7598 L 7.84955,2.043119 C 7.9810646,1.99863 8.0164346,2.0001 7.9979946,2.0001 Z"
     style="opacity:1;fill:#363636;-inkscape-stroke:none"
     id="path1-3" />
</svg>
