<?xml version="1.0" encoding="UTF-8" standalone="no"?>
<svg
   width="16"
   height="16"
   version="1.1"
   viewBox="0 0 16 16"
   id="svg3"
   sodipodi:docname="edit-delete-symbolic.svg"
   inkscape:version="1.4.2 (ebf0e940d0, 2025-05-08)"
   xmlns:inkscape="http://www.inkscape.org/namespaces/inkscape"
   xmlns:sodipodi="http://sodipodi.sourceforge.net/DTD/sodipodi-0.dtd"
   xmlns="http://www.w3.org/2000/svg"
   xmlns:svg="http://www.w3.org/2000/svg">
  <sodipodi:namedview
     id="namedview3"
     pagecolor="#ffffff"
     bordercolor="#000000"
     borderopacity="0.25"
     inkscape:showpageshadow="2"
     inkscape:pageopacity="0.0"
     inkscape:pagecheckerboard="0"
     inkscape:deskcolor="#d1d1d1"
     inkscape:zoom="49.8125"
     inkscape:cx="8"
     inkscape:cy="8"
     inkscape:window-width="1920"
     inkscape:window-height="1011"
     inkscape:window-x="0"
     inkscape:window-y="0"
     inkscape:window-maximized="1"
     inkscape:current-layer="svg3" />
  <defs
     id="defs1">
    <style
       id="current-color-scheme"
       type="text/css">.ColorScheme-Text { color:#363636; }</style>
  </defs>
  <path
     d="M 6,0 C 5.446,0 5,0.446 5,1 V 2 H 0.5 C 0.223,2 0,2.223 0,2.5 0,2.777 0.223,3 0.5,3 h 0.49805 l 0.54688,11.061 c 0.0612,1.0155 0.90615,1.9395 1.998,1.9395 h 7.9141 c 1.0919,0 1.9368,-0.92391 1.998,-1.9395 L 14.00191,3 h 0.49805 c 0.277,0 0.5,-0.223 0.5,-0.5 0,-0.277 -0.223,-0.5 -0.5,-0.5 h -4.5 V 1 c 0,-0.554 -0.446,-1 -1,-1 h -3 z M 6,1 H 9 V 2 H 6 Z M 2,3 h 11 l -0.54297,11 c -0.03333,0.553 -0.446,1 -1,1 h -7.9141 c -0.554,0 -0.96667,-0.447 -1,-1 L 1.99996,3 Z M 4.5,5 C 4.223,5 4,5.223 4,5.5 v 7 C 4,12.777 4.223,13 4.5,13 4.777,13 5,12.777 5,12.5 v -7 C 5,5.223 4.777,5 4.5,5 Z m 3,0 C 7.223,5 7,5.223 7,5.5 v 7 C 7,12.777 7.223,13 7.5,13 7.777,13 8,12.777 8,12.5 v -7 C 8,5.223 7.777,5 7.5,5 Z m 3,0 C 10.223,5 10,5.223 10,5.5 v 7 c 0,0.277 0.223,0.5 0.5,0.5 0.277,0 0.5,-0.223 0.5,-0.5 v -7 C 11,5.223 10.777,5 10.5,5 Z"
     style="fill:#363636"
     id="path1" />
</svg>
