<?xml version="1.0" encoding="UTF-8" standalone="no"?>
<!-- Created with Inkscape (http://www.inkscape.org/) -->

<svg
   width="64"
   height="64"
   viewBox="0 0 64 64"
   version="1.1"
   id="svg5"
   inkscape:version="1.2.1 (9c6d41e410, 2022-07-14, custom)"
   sodipodi:docname="applications-office.svg"
   xmlns:inkscape="http://www.inkscape.org/namespaces/inkscape"
   xmlns:sodipodi="http://sodipodi.sourceforge.net/DTD/sodipodi-0.dtd"
   xmlns:xlink="http://www.w3.org/1999/xlink"
   xmlns="http://www.w3.org/2000/svg"
   xmlns:svg="http://www.w3.org/2000/svg">
  <sodipodi:namedview
     id="namedview7"
     pagecolor="#ffffff"
     bordercolor="#666666"
     borderopacity="1.0"
     inkscape:pageshadow="2"
     inkscape:pageopacity="0.0"
     inkscape:pagecheckerboard="0"
     inkscape:document-units="px"
     showgrid="false"
     units="px"
     height="16px"
     showguides="false"
     inkscape:zoom="12.921875"
     inkscape:cx="31.961306"
     inkscape:cy="32"
     inkscape:window-width="1920"
     inkscape:window-height="1029"
     inkscape:window-x="0"
     inkscape:window-y="0"
     inkscape:window-maximized="1"
     inkscape:current-layer="svg5"
     inkscape:showpageshadow="2"
     inkscape:deskcolor="#d1d1d1" />
  <defs
     id="defs2">
    <linearGradient
       inkscape:collect="always"
       xlink:href="#linearGradient984"
       id="linearGradient2759"
       x1="2.3812499"
       y1="2.9104168"
       x2="7.1437497"
       y2="9.5249996"
       gradientUnits="userSpaceOnUse"
       gradientTransform="matrix(7.5590546,0,0,7.5590546,-5.9999982,-12)" />
    <linearGradient
       inkscape:collect="always"
       id="linearGradient984">
      <stop
         style="stop-color:#26b4eb;stop-opacity:1;"
         offset="0"
         id="stop980" />
      <stop
         style="stop-color:#017adc;stop-opacity:1"
         offset="1"
         id="stop982" />
    </linearGradient>
    <linearGradient
       inkscape:collect="always"
       xlink:href="#linearGradient1353"
       id="linearGradient1355"
       x1="4.7625003"
       y1="0.5291667"
       x2="9.5249996"
       y2="7.1437502"
       gradientUnits="userSpaceOnUse"
       gradientTransform="matrix(7.5590546,0,0,7.5590546,-17.999999,0)" />
    <linearGradient
       inkscape:collect="always"
       id="linearGradient1353">
      <stop
         style="stop-color:#fafafa;stop-opacity:1;"
         offset="0"
         id="stop1349" />
      <stop
         style="stop-color:#c7cdd1;stop-opacity:1"
         offset="1"
         id="stop1351" />
    </linearGradient>
    <linearGradient
       inkscape:collect="always"
       xlink:href="#linearGradient2287"
       id="linearGradient2289"
       x1="11.641666"
       y1="2.2489583"
       x2="12.336344"
       y2="1.4608934"
       gradientUnits="userSpaceOnUse"
       gradientTransform="matrix(7.5590546,0,0,7.5590546,-44.000003,0)" />
    <linearGradient
       inkscape:collect="always"
       id="linearGradient2287">
      <stop
         style="stop-color:#6b7c85;stop-opacity:1"
         offset="0"
         id="stop2283" />
      <stop
         style="stop-color:#92a0a7;stop-opacity:1"
         offset="1"
         id="stop2285" />
    </linearGradient>
    <linearGradient
       inkscape:collect="always"
       xlink:href="#linearGradient7005"
       id="linearGradient5921"
       x1="13.493751"
       y1="10.980208"
       x2="6.0854168"
       y2="4.630208"
       gradientUnits="userSpaceOnUse"
       gradientTransform="matrix(3.7795276,0,0,3.7795276,0.999998,5.9999992)" />
    <linearGradient
       inkscape:collect="always"
       id="linearGradient7005">
      <stop
         style="stop-color:#0f7199;stop-opacity:1"
         offset="0"
         id="stop7001" />
      <stop
         style="stop-color:#78aed9;stop-opacity:1"
         offset="1"
         id="stop7003" />
    </linearGradient>
  </defs>
  <path
     id="rect846"
     style="fill:url(#linearGradient2759);stroke-width:8.21918;stroke-linecap:round;stroke-linejoin:round"
     d="M 16,9.9999998 H 33.999997 L 47.999996,23.999999 v 31.999996 c 0,2.216 -1.784,4 -4.000001,4 H 16 c -2.216,0 -4,-1.784 -4,-4 V 13.999999 C 12,11.784 13.784,9.9999998 16,9.9999998 Z"
     sodipodi:nodetypes="sccssssss" />
  <path
     id="rect848"
     style="fill:url(#linearGradient1355);fill-opacity:1;stroke-width:8.21918;stroke-linecap:round;stroke-linejoin:round"
     d="m 22.000001,4 h 17.999998 l 13.999995,13.999998 v 31.999996 c 0,2.216004 -1.783996,4.000002 -3.999994,4.000002 H 22.000001 C 19.784,53.999996 18,52.215998 18,49.999994 V 8 c 0,-2.2159999 1.784,-4 4.000001,-4 z"
     sodipodi:nodetypes="sccssssss" />
  <path
     d="m 25,27.000002 c -0.554004,0 -1,0.446 -1,1 0,0.554004 0.445998,1 1,1 h 9.999998 c 0.554002,0 1.000002,-0.446 1.000002,-1 0,-0.554002 -0.446,-1 -1.000002,-1 z m 14.999996,0 c -0.553994,0 -0.999998,0.446 -0.999998,1 v 7 c 0,0.554003 0.446,0.999999 0.999998,0.999999 h 7.000003 c 0.554002,0 0.999998,-0.445998 0.999998,-0.999999 v -7 c 0,-0.554002 -0.445998,-1 -0.999998,-1 z m -14.999996,6 c -0.554004,0 -1,0.446 -1,1 0,0.554004 0.445998,1 1,1 h 9.999998 c 0.554002,0 1.000002,-0.445998 1.000002,-1 0,-0.553996 -0.446,-1 -1.000002,-1 z m 0,5.999999 c -0.554004,0 -1,0.446 -1,1 0,0.554004 0.445998,1.000002 1,1.000002 h 21.999999 c 0.554002,0 0.999998,-0.446 0.999998,-1.000002 0,-0.554002 -0.445998,-1 -0.999998,-1 z m 0,6 c -0.554004,0 -1,0.446 -1,1.000004 0,0.553994 0.445998,0.999998 1,0.999998 h 21.999999 c 0.554002,0 0.999998,-0.446 0.999998,-0.999998 0,-0.554004 -0.445998,-1.000004 -0.999998,-1.000004 z"
     style="opacity:0.1;fill:#000000;fill-opacity:1;stroke-width:3;stroke-linecap:round;stroke-linejoin:round"
     id="path741" />
  <path
     id="rect1786"
     style="fill:url(#linearGradient2289);fill-opacity:1;stroke-width:7.99998;stroke-linecap:round;stroke-linejoin:round"
     d="m 39.999993,4 14.000001,13.999998 h -10 c -2.215997,0 -4.000001,-1.783998 -4.000001,-3.999999 z"
     sodipodi:nodetypes="ccscc" />
  <path
     id="rect870"
     style="fill:url(#linearGradient5921);fill-opacity:1;stroke-width:3;stroke-linecap:round;stroke-linejoin:round"
     d="m 25,26 c -0.554004,0 -1,0.446 -1,1 0,0.554004 0.445998,1 1,1 h 9.999998 C 35.554,28 36,27.554 36,27 36,26.445998 35.554,26 34.999998,26 Z m 14.999996,0 c -0.553994,0 -0.999998,0.446 -0.999998,1 v 7 c 0,0.554004 0.446,1 0.999998,1 h 7.000003 c 0.554002,0 0.999998,-0.445998 0.999998,-1 v -7 c 0,-0.554002 -0.445998,-1 -0.999998,-1 z M 25,32 c -0.554004,0 -1,0.446 -1,1 0,0.554004 0.445998,1 1,1 h 9.999998 C 35.554,34 36,33.554002 36,33 36,32.446004 35.554,32 34.999998,32 Z m 0,5.999999 c -0.554004,0 -1,0.446 -1,1 0,0.554004 0.445998,1.000002 1,1.000002 h 21.999999 c 0.554002,0 0.999998,-0.446 0.999998,-1.000002 0,-0.554002 -0.445998,-1 -0.999998,-1 z m 0,6 c -0.554004,0 -1,0.446 -1,1.000004 0,0.553994 0.445998,0.999998 1,0.999998 h 21.999999 c 0.554002,0 0.999998,-0.446 0.999998,-0.999998 0,-0.554004 -0.445998,-1.000004 -0.999998,-1.000004 z"
     sodipodi:nodetypes="sssssssssssssssssssssssssssssssssssss" />
</svg>
