<?xml version="1.0" encoding="UTF-8" standalone="no"?>
<!-- Created with Inkscape (http://www.inkscape.org/) -->

<svg
   width="64"
   height="64"
   viewBox="0 0 64 64"
   version="1.1"
   id="svg5"
   inkscape:version="1.2.1 (9c6d41e410, 2022-07-14, custom)"
   sodipodi:docname="applications-multimedia.svg"
   xmlns:inkscape="http://www.inkscape.org/namespaces/inkscape"
   xmlns:sodipodi="http://sodipodi.sourceforge.net/DTD/sodipodi-0.dtd"
   xmlns:xlink="http://www.w3.org/1999/xlink"
   xmlns="http://www.w3.org/2000/svg"
   xmlns:svg="http://www.w3.org/2000/svg">
  <sodipodi:namedview
     id="namedview7"
     pagecolor="#ffffff"
     bordercolor="#000000"
     borderopacity="0.25"
     inkscape:showpageshadow="2"
     inkscape:pageopacity="0.0"
     inkscape:pagecheckerboard="0"
     inkscape:deskcolor="#d1d1d1"
     inkscape:document-units="px"
     showgrid="false"
     inkscape:zoom="13.328125"
     inkscape:cx="32"
     inkscape:cy="32"
     inkscape:window-width="1920"
     inkscape:window-height="1029"
     inkscape:window-x="0"
     inkscape:window-y="0"
     inkscape:window-maximized="1"
     inkscape:current-layer="svg5"
     showguides="true" />
  <defs
     id="defs2">
    <linearGradient
       inkscape:collect="always"
       id="linearGradient27684">
      <stop
         style="stop-color:#4a4a4a;stop-opacity:1;"
         offset="0"
         id="stop27680" />
      <stop
         style="stop-color:#232323;stop-opacity:0.74901962"
         offset="1"
         id="stop27682" />
    </linearGradient>
    <linearGradient
       inkscape:collect="always"
       xlink:href="#linearGradient12418"
       id="linearGradient2216"
       x1="42.000004"
       y1="4.000001"
       x2="51.000004"
       y2="20.999998"
       gradientUnits="userSpaceOnUse"
       gradientTransform="matrix(2,0,0,2,-69.000006,-1.0000016)" />
    <linearGradient
       inkscape:collect="always"
       id="linearGradient12418">
      <stop
         style="stop-color:#52e4ff;stop-opacity:1;"
         offset="0"
         id="stop12414" />
      <stop
         style="stop-color:#d29eff;stop-opacity:1"
         offset="1"
         id="stop12416" />
    </linearGradient>
    <linearGradient
       inkscape:collect="always"
       xlink:href="#linearGradient27684"
       id="linearGradient982"
       x1="5.2062192"
       y1="1"
       x2="23"
       y2="26"
       gradientUnits="userSpaceOnUse"
       gradientTransform="matrix(1.7,0,0,1.6,1.9,2.4)" />
    <linearGradient
       inkscape:collect="always"
       xlink:href="#linearGradient1304"
       id="linearGradient888"
       x1="27.5"
       y1="22.841797"
       x2="24.04125"
       y2="21"
       gradientUnits="userSpaceOnUse"
       gradientTransform="matrix(4,0,0,4,-52,-61)" />
    <linearGradient
       inkscape:collect="always"
       id="linearGradient1304">
      <stop
         style="stop-color:#272d34;stop-opacity:1;"
         offset="0"
         id="stop1300" />
      <stop
         style="stop-color:#5c6c7c;stop-opacity:1;"
         offset="1"
         id="stop1302" />
    </linearGradient>
  </defs>
  <rect
     style="fill:url(#linearGradient982);fill-opacity:1;stroke-width:1.64925;stroke-linecap:round"
     id="rect419"
     width="34"
     height="40"
     x="7"
     y="4"
     ry="3" />
  <path
     id="rect1388"
     style="fill:#ffffff;stroke-width:6;stroke-linecap:round;stroke-linejoin:round"
     d="M 9.949219,6 C 9.418733,6 9,6.4633106 9,7 v 4 c 0,0.554003 0.445983,1 1,1 h 2 c 0.554001,0 1,-0.445999 1,-1 V 7 C 13,6.4459974 12.554017,6 12,6 H 10 Z M 35.949218,6 C 35.418734,6 35,6.4633106 35,7 v 4 c 0,0.554003 0.445982,1 1,1 h 2 c 0.554002,0 1,-0.445999 1,-1 V 7 C 39,6.4459974 38.554018,6 38,6 H 36 Z M 9.949219,16 C 9.418733,16 9,16.463309 9,17 v 4 c 0,0.554002 0.445983,1 1,1 h 2 c 0.554001,0 1,-0.445998 1,-1 v -4 c 0,-0.554003 -0.445983,-1 -1,-1 h -2 z m 25.999999,0 C 35.418734,16 35,16.463309 35,17 v 4 c 0,0.554002 0.445982,1 1,1 h 2 c 0.554002,0 1,-0.445998 1,-1 v -4 c 0,-0.554003 -0.445982,-1 -1,-1 H 36 Z M 9.949219,26 C 9.418725,26 9,26.46331 9,27 v 4 c 0,0.554004 0.445983,1 1,1 h 2 c 0.554001,0 1,-0.445982 1,-1 v -4 c 0,-0.554004 -0.445983,-1 -1,-1 h -2 z m 25.999999,0 C 35.418726,26 35,26.46331 35,27 v 4 c 0,0.554004 0.445982,1 1,1 h 2 c 0.554002,0 1,-0.445982 1,-1 v -4 c 0,-0.554004 -0.445982,-1 -1,-1 H 36 Z M 9.949219,36 C 9.418745,36 9,36.4633 9,37 v 4 c 0,0.554004 0.445983,1 1,1 h 2 c 0.554001,0 1,-0.445982 1,-1 v -4 c 0,-0.554004 -0.445983,-1 -1,-1 h -2 z m 25.999999,0 C 35.418746,36 35,36.4633 35,37 v 4 c 0,0.554004 0.445982,1 1,1 h 2 c 0.554002,0 1,-0.445982 1,-1 v -4 c 0,-0.554004 -0.445982,-1 -1,-1 h -2 z"
     sodipodi:nodetypes="sssssssscssssssssscssssssssscssssssssscssssssssscssssssssscssssssssscssssssssscs" />
  <path
     id="rect2063"
     style="fill:url(#linearGradient2216);fill-opacity:1;stroke-width:6;stroke-linecap:round;stroke-linejoin:round"
     d="M 18.999999,7 C 16.784002,7 15,8.7840002 15,11 v 7 c 0,2.216001 1.784002,4 3.999999,4 H 29 c 2.216002,0 3.999998,-1.783999 3.999998,-3.999999 V 11 C 32.999998,8.7840002 31.216002,7 29,7 Z m 0,19.000001 C 16.784002,26.000001 15,27.784002 15,30 v 7 c 0,2.215998 1.784002,3.999996 3.999999,3.999996 H 29 c 2.216002,0 3.999998,-1.783996 3.999998,-3.999996 v -7.000005 c 0,-2.215996 -1.783996,-3.999994 -3.999998,-3.999994 z"
     sodipodi:nodetypes="ssssssssssssssssss" />
  <path
     id="path1056"
     style="fill:url(#linearGradient888);fill-opacity:1;stroke-width:14.9999;stroke-linecap:round;stroke-linejoin:round"
     d="m 48,23 c -2.215986,0 -4,1.784012 -4,4 V 47.675782 C 43.062454,47.230936 42.03773,47.000106 41,47 c -3.865994,0 -7,3.134006 -7,7 0,3.865994 3.134006,7 7,7 3.865994,0 7,-3.134006 7,-7 V 33 l 6.242188,2 C 56.324538,35.75791 58,34.583182 58,32.367188 v -2 C 58,28.151202 56.324538,25.757916 54.242188,25 Z"
     sodipodi:nodetypes="csccsssccsscc" />
</svg>
