<?xml version="1.0" encoding="UTF-8" standalone="no"?>
<!-- Created with Inkscape (http://www.inkscape.org/) -->

<svg
   width="16"
   height="16"
   viewBox="0 0 16 16.000001"
   version="1.1"
   id="svg5"
   inkscape:version="1.2.1 (9c6d41e410, 2022-07-14, custom)"
   sodipodi:docname="application-x-javascript.svg"
   xmlns:inkscape="http://www.inkscape.org/namespaces/inkscape"
   xmlns:sodipodi="http://sodipodi.sourceforge.net/DTD/sodipodi-0.dtd"
   xmlns:xlink="http://www.w3.org/1999/xlink"
   xmlns="http://www.w3.org/2000/svg"
   xmlns:svg="http://www.w3.org/2000/svg">
  <sodipodi:namedview
     id="namedview7"
     pagecolor="#ffffff"
     bordercolor="#000000"
     borderopacity="0.25"
     inkscape:showpageshadow="2"
     inkscape:pageopacity="0.0"
     inkscape:pagecheckerboard="0"
     inkscape:deskcolor="#d1d1d1"
     inkscape:document-units="px"
     showgrid="false"
     inkscape:zoom="50.125"
     inkscape:cx="8"
     inkscape:cy="8"
     inkscape:window-width="1920"
     inkscape:window-height="1011"
     inkscape:window-x="0"
     inkscape:window-y="0"
     inkscape:window-maximized="1"
     inkscape:current-layer="svg5" />
  <defs
     id="defs2">
    <linearGradient
       inkscape:collect="always"
       id="linearGradient1246">
      <stop
         style="stop-color:#fe9000;stop-opacity:1;"
         offset="0"
         id="stop1242" />
      <stop
         style="stop-color:#f36401;stop-opacity:1;"
         offset="1"
         id="stop1244" />
    </linearGradient>
    <linearGradient
       inkscape:collect="always"
       xlink:href="#linearGradient1246"
       id="linearGradient1090"
       x1="12.5"
       y1="5"
       x2="12.5"
       y2="14"
       gradientUnits="userSpaceOnUse" />
  </defs>
  <path
     id="rect234"
     style="fill:#7d7d7b"
     d="m 2,0 h 9.5 L 14,2.5 V 16 H 2 Z"
     sodipodi:nodetypes="cccccc" />
  <path
     id="rect1746"
     style="fill:#fafafa"
     d="m 3,1 h 7 v 2 h 3 V 15 H 3 Z"
     sodipodi:nodetypes="ccccccc" />
  <path
     id="rect1800"
     style="fill:#fafafa;stroke-width:0.25"
     d="m 11,1 1,1.0000003 h -1 z"
     sodipodi:nodetypes="cccc" />
  <path
     id="path701"
     style="fill:url(#linearGradient1090);fill-opacity:1.0;stroke-width:0.499998;stroke-linecap:round;stroke-linejoin:round"
     d="M 7,5 C 5.8954316,5 5,5.8954316 5,7 V 8 C 5,8.5522842 4.5522841,9 4,9 3.7238579,9 3.5,9.2238579 3.5,9.5 3.5,9.7761421 3.7238579,10 4,10 c 0.5522841,0 1,0.447716 1,1 v 1 c 0,1.104568 0.8954316,2 2,2 V 13 C 6.4477159,13 6,12.552284 6,12 V 11 C 5.9998456,10.425903 5.7529925,9.8795541 5.3222656,9.5 5.7529925,9.1204459 5.9998456,8.5740967 6,8 V 7 C 6,6.4477159 6.4477159,6 7,6 Z m 2,0 v 1 c 0.5522841,0 1,0.4477159 1,1 v 1 c 1.54e-4,0.5740966 0.247008,1.1204458 0.677734,1.5 C 10.247008,9.8795542 10.000154,10.425903 10,11 v 1 c 0,0.552284 -0.4477159,1 -1,1 v 1 c 1.104568,0 2,-0.895432 2,-2 v -1 c 0,-0.552284 0.447716,-1 1,-1 0.276142,0 0.5,-0.2238579 0.5,-0.5 C 12.5,9.2238579 12.276142,9 12,9 11.447716,9 11,8.5522842 11,8 V 7 C 11,5.8954316 10.104568,5 9,5 Z M 8,7 C 7.4477153,7 7,7.4477153 7,8 7,8.5522847 7.4477153,9 8,9 8.5522847,9 9,8.5522847 9,8 9,7.4477153 8.5522847,7 8,7 Z m 0,3 c -0.5522841,0 -1,0.447716 -1,1 0,0.552284 0.4477159,1 1,1 0.099346,-3.38e-4 0.1980861,-0.01548 0.2929688,-0.04492 C 8.2474024,12.224658 8.143656,12.539374 8,13 8.4119804,12.763579 9,11.999998 9,11 9,10.447716 8.5522841,10 8,10 Z"
     sodipodi:nodetypes="csssssssccscccsccccscccsccssssssscssssssscccss" />
</svg>
