<?xml version="1.0" encoding="UTF-8" standalone="no"?>
<!-- Created with Inkscape (http://www.inkscape.org/) -->

<svg
   width="16"
   height="16"
   viewBox="0 0 16 16.000001"
   version="1.1"
   id="svg5"
   inkscape:version="1.2.1 (9c6d41e410, 2022-07-14, custom)"
   sodipodi:docname="application-x-perl.svg"
   xmlns:inkscape="http://www.inkscape.org/namespaces/inkscape"
   xmlns:sodipodi="http://sodipodi.sourceforge.net/DTD/sodipodi-0.dtd"
   xmlns:xlink="http://www.w3.org/1999/xlink"
   xmlns="http://www.w3.org/2000/svg"
   xmlns:svg="http://www.w3.org/2000/svg">
  <sodipodi:namedview
     id="namedview7"
     pagecolor="#ffffff"
     bordercolor="#000000"
     borderopacity="0.25"
     inkscape:showpageshadow="2"
     inkscape:pageopacity="0.0"
     inkscape:pagecheckerboard="0"
     inkscape:deskcolor="#d1d1d1"
     inkscape:document-units="px"
     showgrid="false"
     inkscape:zoom="50.125"
     inkscape:cx="8"
     inkscape:cy="8"
     inkscape:window-width="1920"
     inkscape:window-height="1011"
     inkscape:window-x="0"
     inkscape:window-y="0"
     inkscape:window-maximized="1"
     inkscape:current-layer="svg5" />
  <defs
     id="defs2">
    <linearGradient
       inkscape:collect="always"
       id="linearGradient3605">
      <stop
         style="stop-color:#0d6eaa;stop-opacity:1;"
         offset="0"
         id="stop3601" />
      <stop
         style="stop-color:#185086;stop-opacity:1"
         offset="1"
         id="stop3603" />
    </linearGradient>
    <linearGradient
       inkscape:collect="always"
       xlink:href="#linearGradient3605"
       id="linearGradient1287"
       x1="12.000007"
       y1="5"
       x2="12.000007"
       y2="14.000009"
       gradientUnits="userSpaceOnUse" />
  </defs>
  <path
     id="rect234"
     style="fill:#7d7d7b"
     d="m 2,0 h 9.5 L 14,2.5 V 16 H 2 Z"
     sodipodi:nodetypes="cccccc" />
  <path
     id="rect1746"
     style="fill:#fafafa"
     d="m 3,1 h 7 v 2 h 3 V 15 H 3 Z"
     sodipodi:nodetypes="ccccccc" />
  <path
     id="rect1800"
     style="fill:#fafafa;stroke-width:0.25"
     d="m 11,1 1,1.0000003 h -1 z"
     sodipodi:nodetypes="cccc" />
  <path
     d="m 9.1948537,9.7969249 c 0.078436,0.4611171 0.1316879,0.6032771 0.15952,1.0701571 0.00772,0.290748 -0.077374,0.576425 -0.2430028,0.815827 -0.038968,0.13873 -0.1558137,0 -0.2392968,0 -0.2059349,0 -0.2819718,-0.222014 -0.3933045,-0.358912 -0.1112996,-0.136898 -0.031588,-0.260842 0.042677,-0.369968 0.079776,-0.05734 0.1112996,-0.184985 0.226338,-0.184985 0.1150072,0 0.1001796,-0.157244 0.083483,-0.240495 0.076037,-0.116552 0.029656,0.03425 0.1038864,-0.09339 0.1335404,-0.05917 0.094603,-0.266371 0.140986,-0.382922 0.0371,-0.08325 0,-0.2423596 0.105724,-0.2774931 0,0 0.012893,0 0.01096,0.01833 M 9.0648264,5.0424263 C 8.8904472,5.0221764 8.758744,5.1404956 8.6121816,5.207096 8.49054,5.2474609 8.3666688,5.2808047 8.2411824,5.3069648 8.1502855,5.4919809 7.9406431,5.6011079 7.8274743,5.7750029 7.7116759,6.1205511 7.4961383,6.4243079 7.2078959,6.6481733 6.7960574,6.8609299 6.588285,7.3234064 6.452875,7.7581433 6.4064918,7.8561798 6.413907,8.0005033 6.3638162,8.0837222 6.2005566,8.1299764 6.2877462,7.9172526 6.2692122,7.8154868 6.2450402,7.6638029 6.378675,7.565766 6.3879262,7.4177464 6.4431779,7.3126056 6.4663926,7.1936478 6.4547122,7.0755179 6.4360122,6.8109791 6.5159222,6.4890968 6.3285854,6.2726441 6.217253,6.2079075 6.2525158,6.0710094 6.2117094,5.9655475 6.1010558,5.8149232 5.9601625,5.6889262 5.7980014,5.595579 5.6644613,5.5827213 5.5420085,5.4105629 5.4047293,5.4901175 5.3194089,5.5900187 5.1617261,5.588154 5.1116365,5.7213556 5.0800485,5.8878579 4.8927437,5.8434679 4.7702917,5.884161 4.614478,5.945201 4.4141192,5.884161 4.2861229,6.0081056 4.1581264,6.1320498 3.9484844,6.3133375 4.0115636,6.5223972 4.1581264,6.8091145 4.5365392,6.6648233 4.7424745,6.8387187 4.6774357,7.0311242 4.6025141,7.2200652 4.5180056,7.4047929 c -0.033664,0.2508429 -0.03864,0.5046886 -0.014828,0.7566516 0.038968,0.2515846 -0.026108,0.5753315 0.185532,0.7529231 0.1205828,0.04439 0.1131692,0.1849843 0.1595204,0.2885823 0.046383,0.103598 0.1354416,-0.037 0.172542,0.06291 0.1075928,0.05917 0.010956,0.184984 0.070493,0.258978 0.098998,0.01953 0.189998,0.06781 0.2615692,0.138761 0.1140177,0.07919 0.2202292,0.1690055 0.3172024,0.2682365 0.0742,0.1516836 0.1688353,-0.1479875 0.2504493,-0.03516 0.041756,0.10279 0.1641996,0.1460926 0.2615692,0.09251 0.15104,-0.02539 0.2936392,-0.08697 0.4155448,-0.179454 0.079776,0.2830516 0.018376,0.5901486 0.053796,0.8824276 0.049307,0.213429 0.08033,0.430653 0.092734,0.649325 0.055621,0.215468 0.087963,0.436252 0.096473,0.658582 0.060312,0.461967 -0.018459,0.931385 -0.226306,1.348601 -0.024788,0.13078 -0.1269007,0.233349 -0.2578628,0.259011 -0.092765,0.04253 -0.2856789,0.118383 -0.220762,0.251585 0.2151864,0.184984 0.5565313,0.164638 0.8032736,0.0703 0.1632264,-0.07956 0.022245,-0.277493 0.1057228,-0.397741 0.1094633,-0.421783 0.055666,-0.873171 0.1854997,-1.294955 0.1004719,-0.212645 0.1384276,-0.44934 0.1094632,-0.682626 0.026108,-0.142457 -0.033392,-0.314488 0.059372,-0.43104 0.00144,-0.143332 0.054782,-0.281314 0.1502368,-0.388483 0.030236,-0.21763 0.04573,-0.437043 0.046383,-0.65675 0.1306556,-0.04072 0.268244,-0.05457 0.4044249,-0.04069 0,0.122112 -0.08719,0.262706 -0.061211,0.399604 0.027324,0.153787 -0.00236,-0.01063 -0.083484,0.12296 -0.057504,0.240496 -0.096473,0.536472 0.053796,0.73997 0.2485787,0.271931 0.5732276,0.46434 0.8088173,0.754787 0.080049,0.06441 0.085195,0.18428 0.01096,0.255281 -0.043226,0.156697 -0.1612472,0.282005 -0.3153656,0.334837 -0.09831,0.03886 -0.2559925,0.184984 -0.140986,0.28675 0.231486,0.05203 0.4731376,0.03596 0.695648,-0.04626 0.1521393,-0.05551 0.096473,-0.238633 0.1558456,-0.353351 0.08192,0.11097 0.1574765,0.226473 0.226306,0.345957 0.094636,0.140594 0.2578626,0.02411 0.3710316,-0.02025 0.01333,-0.205699 -0.02827,-0.411244 -0.120579,-0.595675 -0.051929,-0.122113 -0.2541557,-0.12581 -0.2448726,-0.275662 0.1001793,-0.369968 0.3487576,-0.65855 0.5454106,-0.971207 0.163226,-0.155381 0.0408,-0.186384 0.05009,-0.382458 -0.05203,-0.50397 0.07038,-0.8879251 0.346889,-1.3129491 0.05728,0.236091 0.131041,0.467895 0.220763,0.6937161 0.06467,0.264768 0.182006,0.513887 0.345051,0.732576 0.07604,0.262707 0.05563,0.554985 0.105724,0.826916 0.0717,0.470226 0.04517,0.950153 -0.0779,1.409674 0.01289,0.168334 -0.146562,0.292278 -0.131703,0.456917 0.04451,0.151715 0.222599,0.02958 0.315366,0.09434 0.167502,0.05187 0.347763,-0.02697 0.422958,-0.184985 -0.03871,-0.128524 -0.06481,-0.26049 -0.07794,-0.394044 -0.12729,-0.389037 -0.155341,-0.803579 -0.08161,-1.206142 0.01483,-0.218285 0.146562,-0.484688 -0.02417,-0.671537 -0.04638,-0.199802 0.03339,-0.416222 -0.01483,-0.621585 -0.114389,-0.5261336 -0.127614,-1.0691361 -0.03897,-1.6001877 0.02966,-0.073994 0,-0.2108915 0.07977,-0.251585 0.07895,0.1175338 0.114366,0.2588194 0.10018,0.3995726 0.07213,0.218165 0.08118,0.452179 0.02611,0.675233 -0.135411,0.1720315 -0.05193,0.4051341 -0.03523,0.5993751 0.02224,0.136898 0.165096,0.03886 0.1855,-0.04626 0.124661,-0.23154 0.225359,-0.4751341 0.300539,-0.7270151 0.08532,-0.114687 0,-0.249753 0,-0.370002 0.131703,-0.01671 0.08161,-0.1646374 0.01096,-0.2293743 -0.0705,-0.2368037 -0.0538,-0.5105995 -0.213356,-0.7122341 C 11.463306,7.9328622 11.254166,7.634377 11.095977,7.3087192 10.927141,6.7777773 10.444842,6.4244269 10.281584,5.8879565 10.220332,5.5766431 10.033105,5.3042746 9.764022,5.1350334 9.64418,5.0801625 9.5201009,5.0350054 9.3929893,5 9.2848388,5.022504 9.1750181,5.0361145 9.064634,5.0406922"
     style="fill:url(#linearGradient1287);fill-opacity:1"
     id="path300" />
</svg>
