<?xml version="1.0" encoding="UTF-8" standalone="no"?>
<!-- Created with Inkscape (http://www.inkscape.org/) -->

<svg
   width="16"
   height="16"
   viewBox="0 0 16 16.000001"
   version="1.1"
   id="svg5"
   inkscape:version="1.2.1 (9c6d41e410, 2022-07-14, custom)"
   sodipodi:docname="application-x-sharedlib.svg"
   xmlns:inkscape="http://www.inkscape.org/namespaces/inkscape"
   xmlns:sodipodi="http://sodipodi.sourceforge.net/DTD/sodipodi-0.dtd"
   xmlns:xlink="http://www.w3.org/1999/xlink"
   xmlns="http://www.w3.org/2000/svg"
   xmlns:svg="http://www.w3.org/2000/svg">
  <sodipodi:namedview
     id="namedview7"
     pagecolor="#ffffff"
     bordercolor="#000000"
     borderopacity="0.25"
     inkscape:showpageshadow="2"
     inkscape:pageopacity="0.0"
     inkscape:pagecheckerboard="0"
     inkscape:deskcolor="#d1d1d1"
     inkscape:document-units="px"
     showgrid="false"
     inkscape:zoom="50.5"
     inkscape:cx="8"
     inkscape:cy="8"
     inkscape:window-width="1920"
     inkscape:window-height="1010"
     inkscape:window-x="0"
     inkscape:window-y="0"
     inkscape:window-maximized="1"
     inkscape:current-layer="svg5" />
  <defs
     id="defs2">
    <linearGradient
       inkscape:collect="always"
       xlink:href="#linearGradient1738"
       id="linearGradient7562"
       x1="5.1154499"
       y1="4.9610038"
       x2="5.1425061"
       y2="7.2102246"
       gradientUnits="userSpaceOnUse"
       gradientTransform="matrix(2.6162008,0,0,2.6162008,-3.8426865,-3.9788262)" />
    <linearGradient
       inkscape:collect="always"
       id="linearGradient1738">
      <stop
         style="stop-color:#696f75;stop-opacity:1;"
         offset="0"
         id="stop1734" />
      <stop
         style="stop-color:#4d4e50;stop-opacity:1"
         offset="1"
         id="stop1736" />
    </linearGradient>
    <linearGradient
       inkscape:collect="always"
       xlink:href="#linearGradient1798"
       id="linearGradient7728"
       x1="3.2308109"
       y1="2.3813164"
       x2="3.1946909"
       y2="5.3985844"
       gradientUnits="userSpaceOnUse"
       gradientTransform="matrix(2.2681267,0,0,2.2681267,-1.2353174,-2.4008319)" />
    <linearGradient
       inkscape:collect="always"
       id="linearGradient1798">
      <stop
         style="stop-color:#aeb7bc;stop-opacity:1;"
         offset="0"
         id="stop1794" />
      <stop
         style="stop-color:#959ea5;stop-opacity:1"
         offset="1"
         id="stop1796" />
    </linearGradient>
  </defs>
  <path
     id="rect234"
     style="fill:#7d7d7b"
     d="m 2,0 h 9.5 L 14,2.5 V 16 H 2 Z"
     sodipodi:nodetypes="cccccc" />
  <path
     id="rect1746"
     style="fill:#fafafa"
     d="m 3,1 h 7 v 2 h 3 V 15 H 3 Z"
     sodipodi:nodetypes="ccccccc" />
  <path
     id="rect1800"
     style="fill:#fafafa;stroke-width:0.25"
     d="m 11,1 1,1.0000003 h -1 z"
     sodipodi:nodetypes="cccc" />
  <path
     id="path6320"
     style="color:#000000;fill:url(#linearGradient7562);fill-opacity:1;stroke:none;stroke-width:1.7439;stroke-linecap:round;stroke-linejoin:round"
     d="m 9.5412478,9.0001487 c -0.212838,-7.2e-4 -0.400148,0.142976 -0.451172,0.34961 L 8.9435919,10.170071 8.1623419,9.8907737 c -0.203241,-0.05878 -0.420845,0.02812 -0.527344,0.2109383 l -0.460938,0.798828 c -0.107063,0.183953 -0.07727,0.416947 0.07617,0.564453 l 0.632815,0.535156 -0.632813,0.539063 c -0.152517,0.146626 -0.185141,0.378864 -0.08008,0.5625 l 0.462891,0.798828 c 0.106512,0.182809 0.322149,0.269715 0.52539,0.210937 l 0.785157,-0.279296 0.1503899,0.816406 c 0.05071,0.205401 0.2357,0.350736 0.447266,0.351562 h 0.9199222 c 0.211568,-8.4e-4 0.396544,-0.146163 0.447265,-0.351562 l 0.150391,-0.816406 0.783203,0.279296 c 0.203242,0.05876 0.420844,-0.02812 0.527344,-0.210937 l 0.460937,-0.798828 c 0.10506,-0.183636 0.07244,-0.415874 -0.08008,-0.5625 l -0.632809,-0.539063 0.632813,-0.535156 c 0.153438,-0.147506 0.185191,-0.3805 0.07813,-0.564453 L 12.367419,10.101712 C 12.260914,9.9189027 12.043318,9.8319977 11.840076,9.8907737 l -0.78125,0.2792973 -0.150391,-0.8203123 c -0.05072,-0.2054 -0.235697,-0.348784 -0.447265,-0.34961 z m 0.4589842,2.0000003 c 0.552284,0 1,0.447718 1,1 0,0.552283 -0.447716,1 -1,1 -0.5522832,0 -1.0000002,-0.447716 -1.0000002,-1 0,-0.552282 0.447718,-1 1.0000002,-1 z" />
  <path
     id="path7172"
     style="color:#000000;fill:url(#linearGradient7728);fill-opacity:1;stroke-width:1.88933;stroke-linecap:round;stroke-linejoin:round"
     d="m 6.0918151,3.0001457 c -0.235836,0.01027 -0.434896,0.186732 -0.472656,0.421875 l -0.173829,1.054687 -1.0019526,-0.375 c -0.2283914,-0.08712 -0.4859586,0.0038 -0.609375,0.214844 l -0.5,0.867188 c -0.1232834,0.21269 -0.073532,0.481601 0.1171875,0.636718 l 0.8242187,0.679688 -0.828125,0.683594 c -0.1875643,0.154897 -0.2359244,0.421606 -0.1152344,0.632812 l 0.5,0.867188 c 0.1217022,0.21223 0.3781888,0.304226 0.6074219,0.21875 l 1.0039059,-0.376953 0.175782,1.058593 c 0.04059,0.241259 0.251444,0.4167353 0.496093,0.4160163 h 1 c 0.243255,-0.0011 0.449873,-0.1761323 0.490235,-0.4160163 l 0.177734,-1.058593 1.003906,0.376953 c 0.229233,0.08547 0.487671,-0.0065 0.609375,-0.21875 l 0.5,-0.867188 c 0.1206889,-0.211206 0.07038,-0.477915 -0.117187,-0.632812 l -0.826172,-0.683594 0.824219,-0.679688 c 0.190722,-0.155117 0.2404699,-0.424028 0.117187,-0.636718 l -0.5,-0.867188 c -0.123418,-0.211 -0.380983,-0.30196 -0.609375,-0.214844 l -1.003906,0.375 -0.175781,-1.054687 c -0.038757,-0.241351 -0.245796,-0.420492 -0.490235,-0.421875 h -1 c -0.0077,-1.3e-5 -0.01582,-3.212e-4 -0.02344,0 z m 0.521484,2 c 0.828425,0 1.5,0.671577 1.5,1.5 0,0.828424 -0.671575,1.5 -1.5,1.5 -0.828425,0 -1.5,-0.671575 -1.5,-1.5 0,-0.828423 0.671577,-1.5 1.5,-1.5 z" />
</svg>
