<?xml version="1.0" encoding="UTF-8" standalone="no"?>
<!-- Created with Inkscape (http://www.inkscape.org/) -->

<svg
   width="16"
   height="16"
   viewBox="0 0 16 16.000001"
   version="1.1"
   id="svg5"
   inkscape:version="1.2.1 (9c6d41e410, 2022-07-14, custom)"
   sodipodi:docname="application-octet-stream.svg"
   xmlns:inkscape="http://www.inkscape.org/namespaces/inkscape"
   xmlns:sodipodi="http://sodipodi.sourceforge.net/DTD/sodipodi-0.dtd"
   xmlns="http://www.w3.org/2000/svg"
   xmlns:svg="http://www.w3.org/2000/svg">
  <sodipodi:namedview
     id="namedview7"
     pagecolor="#ffffff"
     bordercolor="#000000"
     borderopacity="0.25"
     inkscape:showpageshadow="2"
     inkscape:pageopacity="0.0"
     inkscape:pagecheckerboard="0"
     inkscape:deskcolor="#d1d1d1"
     inkscape:document-units="px"
     showgrid="false"
     inkscape:zoom="50.125"
     inkscape:cx="8"
     inkscape:cy="8"
     inkscape:window-width="1920"
     inkscape:window-height="1011"
     inkscape:window-x="0"
     inkscape:window-y="0"
     inkscape:window-maximized="1"
     inkscape:current-layer="svg5" />
  <defs
     id="defs2" />
  <path
     id="rect234"
     style="fill:#7d7d7b"
     d="m 2,0 h 9.5 L 14,2.5 V 16 H 2 Z"
     sodipodi:nodetypes="cccccc" />
  <path
     id="rect1746"
     style="fill:#fafafa"
     d="m 3,1 h 7 v 2 h 3 V 15 H 3 Z"
     sodipodi:nodetypes="ccccccc" />
  <path
     id="rect1800"
     style="fill:#fafafa;stroke-width:0.25"
     d="m 11,1 1,1.0000003 h -1 z"
     sodipodi:nodetypes="cccc" />
  <path
     id="rect233"
     style="fill:#b4b4b4;stroke-width:1.11803;stroke-linecap:round;stroke-linejoin:round"
     d="M 6.5 3 C 6.0000015 3.6101048 5.6689579 3.683399 5 4 L 5 5 C 5.4099684 4.8928973 5.6666676 4.666666 6 4.5 L 6 8 L 7 8 L 7 3 L 6.5 3 z M 5.875 9 C 4.8394681 9 4 10.119291 4 11.5 C 4 12.88071 4.8394681 14 5.875 14 C 6.9105319 14 7.75 12.88071 7.75 11.5 C 7.75 10.119291 6.9105319 9 5.875 9 z M 10.5 9 C 10.000001 9.6101041 9.6689583 9.6833983 9 10 L 9 11 C 9.4099696 10.892897 9.6666673 10.666667 10 10.5 L 10 14 L 11 14 L 11 9 L 10.5 9 z M 5.875 10 C 6.3582481 10 6.75 10.671575 6.75 11.5 C 6.75 12.328425 6.3582481 13 5.875 13 C 5.3917518 13 5 12.328425 5 11.5 C 5 10.671575 5.3917518 10 5.875 10 z " />
</svg>
