<?xml version="1.0" encoding="UTF-8" standalone="no"?>
<!-- Created with Inkscape (http://www.inkscape.org/) -->

<svg
   width="16"
   height="16"
   viewBox="0 0 16 16.000001"
   version="1.1"
   id="svg5"
   inkscape:version="1.2.1 (9c6d41e410, 2022-07-14, custom)"
   sodipodi:docname="application-pdf.svg"
   xmlns:inkscape="http://www.inkscape.org/namespaces/inkscape"
   xmlns:sodipodi="http://sodipodi.sourceforge.net/DTD/sodipodi-0.dtd"
   xmlns="http://www.w3.org/2000/svg"
   xmlns:svg="http://www.w3.org/2000/svg">
  <sodipodi:namedview
     id="namedview7"
     pagecolor="#ffffff"
     bordercolor="#000000"
     borderopacity="0.25"
     inkscape:showpageshadow="2"
     inkscape:pageopacity="0.0"
     inkscape:pagecheckerboard="0"
     inkscape:deskcolor="#d1d1d1"
     inkscape:document-units="px"
     showgrid="false"
     inkscape:zoom="50.5"
     inkscape:cx="8"
     inkscape:cy="8"
     inkscape:window-width="1920"
     inkscape:window-height="1010"
     inkscape:window-x="0"
     inkscape:window-y="0"
     inkscape:window-maximized="1"
     inkscape:current-layer="svg5" />
  <defs
     id="defs2" />
  <path
     id="rect234"
     style="fill:#7d7d7b"
     d="m 2,0 h 9.5 L 14,2.5 V 16 H 2 Z"
     sodipodi:nodetypes="cccccc" />
  <path
     id="rect1746"
     style="fill:#fafafa"
     d="m 3,1 h 7 v 2 h 3 V 15 H 3 Z"
     sodipodi:nodetypes="ccccccc" />
  <path
     d="M 4,2 V 3.0000002 H 9.000001 V 2 Z m 0,2.000001 v 1 h 8 v -1 z m 0,3 v 1 h 8 v -1 z m 0,3 v 1 h 8 v -1 z m 0,3.000001 v 1 h 8 v -1 z"
     style="fill:#cccccc;fill-opacity:1;stroke-width:3.07408;stroke-linecap:round;stroke-linejoin:round"
     id="path966"
     sodipodi:nodetypes="ccccccccccccccccccccccccc" />
  <rect
     style="fill:#d84b4b;fill-opacity:1;stroke-width:0.381881"
     id="rect5651"
     width="16"
     height="7"
     x="2.3925782e-08"
     y="6" />
  <path
     id="rect7200"
     style="fill:#b12e2e;fill-opacity:1;stroke-width:0.749998"
     d="M 5e-7,6.0000021 0,13 H 16 V 6.0000021 Z M 1.0000002,7 H 15 l 0,5 H 0.99999975 Z"
     sodipodi:nodetypes="cccccccccc" />
  <path
     id="rect1800"
     style="fill:#fafafa;stroke-width:0.25"
     d="m 11,1 1,1.0000003 h -1 z"
     sodipodi:nodetypes="cccc" />
  <path
     id="rect1758"
     style="fill:#ffffff;fill-opacity:1;stroke-linecap:round"
     d="M 2 7 L 2 12 L 3 12 L 3 10 L 3.5 10 C 4.3309976 10 5 9.3309976 5 8.5 C 5 7.6690024 4.3309976 7 3.5 7 L 2 7 z M 6 7 L 6 12 L 7 12 L 7.5 12 A 2.5 2.5 0 0 0 10 9.5 A 2.5 2.5 0 0 0 7.5 7 L 7 7 L 6 7 z M 11 7 L 11 12 L 12 12 L 12 10 L 14 10 L 14 9 L 12 9 L 12 8 L 14 8 L 14 7 L 11 7 z M 3 8 L 3.5 8 C 3.7769991 8 4 8.2230009 4 8.5 C 4 8.7769991 3.7769991 9 3.5 9 L 3 9 L 3 8 z M 7 8 L 7.5 8 A 1.5 1.5 0 0 1 9 9.5 A 1.5 1.5 0 0 1 7.5 11 L 7 11 L 7 8 z " />
</svg>
