<?xml version="1.0" encoding="UTF-8" standalone="no"?>
<!-- Created with Inkscape (http://www.inkscape.org/) -->

<svg
   width="16"
   height="16"
   viewBox="0 0 16 16"
   version="1.1"
   id="svg5"
   inkscape:version="1.2.1 (9c6d41e410, 2022-07-14, custom)"
   sodipodi:docname="application-x-executable.svg"
   xmlns:inkscape="http://www.inkscape.org/namespaces/inkscape"
   xmlns:sodipodi="http://sodipodi.sourceforge.net/DTD/sodipodi-0.dtd"
   xmlns:xlink="http://www.w3.org/1999/xlink"
   xmlns="http://www.w3.org/2000/svg"
   xmlns:svg="http://www.w3.org/2000/svg">
  <sodipodi:namedview
     id="namedview7"
     pagecolor="#ffffff"
     bordercolor="#666666"
     borderopacity="1.0"
     inkscape:pageshadow="2"
     inkscape:pageopacity="0.0"
     inkscape:pagecheckerboard="0"
     inkscape:document-units="px"
     showgrid="false"
     units="px"
     height="64px"
     inkscape:zoom="50.625"
     inkscape:cx="7.9901235"
     inkscape:cy="8"
     inkscape:window-width="1920"
     inkscape:window-height="1012"
     inkscape:window-x="0"
     inkscape:window-y="0"
     inkscape:window-maximized="1"
     inkscape:current-layer="svg5"
     inkscape:showpageshadow="2"
     inkscape:deskcolor="#d1d1d1" />
  <defs
     id="defs2">
    <linearGradient
       inkscape:collect="always"
       xlink:href="#linearGradient1738"
       id="linearGradient7562"
       x1="5.1154499"
       y1="4.9610038"
       x2="5.1425061"
       y2="7.2102246"
       gradientUnits="userSpaceOnUse"
       gradientTransform="matrix(2.6162008,0,0,2.6162008,-2.8426865,-4.9788262)" />
    <linearGradient
       inkscape:collect="always"
       id="linearGradient1738">
      <stop
         style="stop-color:#696f75;stop-opacity:1;"
         offset="0"
         id="stop1734" />
      <stop
         style="stop-color:#4d4e50;stop-opacity:1"
         offset="1"
         id="stop1736" />
    </linearGradient>
    <linearGradient
       inkscape:collect="always"
       xlink:href="#linearGradient1798"
       id="linearGradient7728"
       x1="3.2308109"
       y1="2.3813164"
       x2="3.1946909"
       y2="5.3985844"
       gradientUnits="userSpaceOnUse"
       gradientTransform="matrix(2.2681267,0,0,2.2681267,-2.2353174,-1.4008319)" />
    <linearGradient
       inkscape:collect="always"
       id="linearGradient1798">
      <stop
         style="stop-color:#aeb7bc;stop-opacity:1;"
         offset="0"
         id="stop1794" />
      <stop
         style="stop-color:#959ea5;stop-opacity:1"
         offset="1"
         id="stop1796" />
    </linearGradient>
  </defs>
  <path
     id="rect261617"
     style="fill:#797774;stroke-width:0.414716;stroke-linecap:round;stroke-linejoin:round"
     d="m 2,1 h 11.999999 c 1.108,0 2,0.8919999 2,2.0000001 V 13 c 0,1.108 -0.892,2 -2,2 H 2 C 0.89200001,15 0,14.108 0,13 V 3.0000001 C 0,1.8919999 0.89200001,1 2,1 Z"
     sodipodi:nodetypes="sssssssss" />
  <path
     id="rect1043"
     style="fill:#fafafa;fill-opacity:1;stroke-width:3;stroke-linecap:round;stroke-linejoin:round"
     d="M 1.9999996,3.9999997 H 13.999999 c 0.554,0 1,0.4460001 1,0.9999998 v 7.9999995 c 0,0.553999 -0.446,0.999999 -1,0.999999 H 1.9999996 c -0.5539998,0 -0.99999979,-0.446 -0.99999979,-0.999999 V 4.9999995 c 0,-0.5539997 0.44599999,-0.9999998 0.99999979,-0.9999998 z"
     sodipodi:nodetypes="sssssssss" />
  <path
     id="rect1066"
     style="fill:#c4c4c4;fill-opacity:1;stroke-width:1.5;stroke-linecap:round;stroke-linejoin:round"
     d="M 9.9999997,1.9999999 V 2.9999997 H 10.999999 V 1.9999999 Z m 2.0000003,0 v 0.9999998 h 0.999999 V 1.9999999 Z m 1.999999,0 v 0.9999998 h 1 V 1.9999999 Z" />
  <path
     id="path6320"
     style="color:#000000;fill:url(#linearGradient7562);fill-opacity:1;stroke:none;stroke-width:1.7439;stroke-linecap:round;stroke-linejoin:round"
     d="M 10.541248,8.000149 C 10.32841,7.9994287 10.1411,8.143124 10.090076,8.349758 L 9.943592,9.170071 9.162342,8.890773 C 8.9591009,8.831993 8.7414969,8.918893 8.6349979,9.101712 L 8.1740599,9.90054 c -0.107063,0.183953 -0.07727,0.416947 0.07617,0.564453 l 0.632815,0.535156 -0.632813,0.539063 c -0.152517,0.146626 -0.185141,0.378864 -0.08008,0.5625 l 0.462891,0.798828 c 0.106512,0.182809 0.322149,0.269715 0.5253901,0.210937 l 0.785157,-0.279296 0.15039,0.816406 c 0.05071,0.205401 0.2357,0.350736 0.447266,0.351562 h 0.919921 c 0.211568,-8.4e-4 0.396544,-0.146163 0.447265,-0.351562 l 0.150391,-0.816406 0.783203,0.279296 c 0.203242,0.05876 0.420844,-0.02812 0.527344,-0.210937 l 0.460937,-0.798828 c 0.10506,-0.183636 0.07244,-0.415874 -0.08008,-0.5625 l -0.632809,-0.539063 0.632813,-0.535156 c 0.153438,-0.147506 0.185191,-0.3805 0.07813,-0.564453 L 13.367418,9.101712 C 13.260913,8.918902 13.043317,8.831997 12.840075,8.890773 l -0.78125,0.279298 -0.150391,-0.820313 c -0.05072,-0.2054 -0.235697,-0.348783 -0.447265,-0.349609 z m 0.458984,2 c 0.552283,0 0.999999,0.447718 0.999999,1 0,0.552283 -0.447716,1 -0.999999,1 -0.552283,0 -1,-0.447716 -1,-1 0,-0.552282 0.447718,-1 1,-1 z" />
  <path
     id="path7172"
     style="color:#000000;fill:url(#linearGradient7728);fill-opacity:1;stroke-width:1.88933;stroke-linecap:round;stroke-linejoin:round"
     d="m 5.0918151,4.0001456 c -0.235836,0.01027 -0.434896,0.186732 -0.472656,0.421875 l -0.173829,1.054687 -1.0019526,-0.375 c -0.2283914,-0.08712 -0.4859586,0.0038 -0.609375,0.2148441 l -0.5,0.8671879 C 2.2107191,6.3964297 2.2604705,6.6653407 2.45119,6.8204576 l 0.8242187,0.679688 -0.828125,0.6835941 c -0.1875643,0.154897 -0.2359244,0.421606 -0.1152344,0.632812 l 0.5,0.867188 c 0.1217022,0.21223 0.3781888,0.304226 0.6074219,0.21875 l 1.0039059,-0.376953 0.175782,1.0585923 c 0.04059,0.241259 0.251444,0.416736 0.496093,0.416017 h 1 c 0.243255,-0.0011 0.449873,-0.176133 0.490235,-0.416017 l 0.177734,-1.0585923 1.003906,0.376953 c 0.229233,0.08547 0.487671,-0.0065 0.609375,-0.21875 l 0.5,-0.867188 C 9.01719,8.6053457 8.9668821,8.3386367 8.7793151,8.1837397 L 7.9531431,7.5001456 8.7773621,6.8204576 C 8.9680841,6.6653407 9.017831,6.3964297 8.8945491,6.1837396 l -0.5,-0.8671879 C 8.2711311,5.1055516 8.0135661,5.0145916 7.7851741,5.1017076 l -1.003906,0.375 -0.175781,-1.0546869 c -0.038757,-0.241351 -0.245796,-0.420492 -0.490235,-0.421875 h -1 c -0.0077,-1.3e-5 -0.01582,-3.212e-4 -0.02344,0 z m 0.521484,2 c 0.828425,0 1.5,0.671577 1.5,1.5 0,0.8284241 -0.671575,1.5000001 -1.5,1.5000001 -0.828425,0 -1.5,-0.671575 -1.5,-1.5 0,-0.828423 0.671577,-1.5 1.5,-1.5000001 z" />
</svg>
