<?xml version="1.0" encoding="UTF-8" standalone="no"?>
<!-- Created with Inkscape (http://www.inkscape.org/) -->

<svg
   width="16"
   height="16"
   viewBox="0 0 16 16.000001"
   version="1.1"
   id="svg5"
   inkscape:version="1.2.1 (9c6d41e410, 2022-07-14, custom)"
   sodipodi:docname="application-x-trash.svg"
   xmlns:inkscape="http://www.inkscape.org/namespaces/inkscape"
   xmlns:sodipodi="http://sodipodi.sourceforge.net/DTD/sodipodi-0.dtd"
   xmlns="http://www.w3.org/2000/svg"
   xmlns:svg="http://www.w3.org/2000/svg">
  <sodipodi:namedview
     id="namedview7"
     pagecolor="#ffffff"
     bordercolor="#000000"
     borderopacity="0.25"
     inkscape:showpageshadow="2"
     inkscape:pageopacity="0.0"
     inkscape:pagecheckerboard="0"
     inkscape:deskcolor="#d1d1d1"
     inkscape:document-units="px"
     showgrid="false"
     inkscape:zoom="51.6875"
     inkscape:cx="8"
     inkscape:cy="8"
     inkscape:window-width="1920"
     inkscape:window-height="1029"
     inkscape:window-x="0"
     inkscape:window-y="0"
     inkscape:window-maximized="1"
     inkscape:current-layer="svg5" />
  <defs
     id="defs2" />
  <path
     id="rect234"
     style="fill:#7d7d7b"
     d="m 2,0 h 9.5 L 14,2.5 V 16 H 2 Z"
     sodipodi:nodetypes="cccccc" />
  <path
     id="rect1746"
     style="fill:#fafafa"
     d="m 3,1 h 7 v 2 h 3 V 15 H 3 Z"
     sodipodi:nodetypes="ccccccc" />
  <path
     id="rect1800"
     style="fill:#fafafa;stroke-width:0.25"
     d="m 11,1 1,1.0000003 h -1 z"
     sodipodi:nodetypes="cccc" />
  <path
     d="m 7.2264987,5.0000008 c -0.3236676,0 -0.5886493,0.1538797 -0.7506486,0.4355447 L 5.9842889,6.4226007 7.3792276,7.1933886 8.0868852,5.8305801 8.4996111,5.0000008 Z"
     style="fill:#0068ba;fill-opacity:1;stroke-width:0.0881923"
     id="path138735"
     sodipodi:nodetypes="scccccs" />
  <path
     d="M 7.4996154,5.0000008 8.6425076,7.0468668 8.070896,7.371084 9.8911889,8.0336163 10.617462,6.0229045 10.054965,6.3555851 9.4589162,5.2226567 C 9.3732464,5.0773228 9.2279639,5 9.0402989,5 Z"
     style="fill:#0091e6;fill-opacity:1;stroke-width:0.0881923"
     id="path142126"
     sodipodi:nodetypes="cccccccsc" />
  <path
     d="m 11.417502,9.1318722 -0.526601,-0.9688149 -1.431496,0.7005612 0.710451,1.3613545 0.457452,0.999808 0.783623,-1.6612905 c 0.0945,-0.201574 0.0583,-0.339489 0.0066,-0.4316183 z"
     style="fill:#0068ba;fill-opacity:1;stroke-width:0.0881923"
     id="path138735-0"
     sodipodi:nodetypes="ccccccc" />
  <path
     d="m 11.247098,9.9097285 -2.018594,-0.0027 0.00502,-0.65714 -1.4344782,1.4140995 1.4329865,1.465381 -0.00688,-0.653475 h 0.9999967 c 0.168696,-0.0015 0.307578,-0.0891 0.402135,-0.251208 z"
     style="fill:#0091e6;fill-opacity:1;stroke-width:0.0881923"
     id="path142126-6"
     sodipodi:nodetypes="ccccccccc" />
  <path
     d="m 5.4588768,11.191793 c 0.1313991,0.218389 0.2685205,0.229118 0.382877,0.243058 l 1.4078628,1.23e-4 V 9.7510695 l -1.7893799,0.0016 -0.7905503,0.0099 z"
     style="fill:#0068ba;fill-opacity:1;stroke-width:0.0881923"
     id="path146733"
     sodipodi:nodetypes="ccccccc" />
  <path
     d="M 5.4017912,11.087607 6.475426,9.030154 7.055995,9.3380455 6.4154895,7.4469569 4.454,8.0413935 5.0368095,8.3370494 4.5750628,9.2240565 c -0.076543,0.150342 -0.055509,0.30949 0.037153,0.472692 z"
     style="fill:#0091e6;fill-opacity:1;stroke-width:0.0881923"
     id="path146730"
     sodipodi:nodetypes="cccccccsc" />
</svg>
