<?xml version="1.0" encoding="UTF-8" standalone="no"?>
<!-- Created with Inkscape (http://www.inkscape.org/) -->

<svg
   width="16"
   height="16"
   viewBox="0 0 16 16.000001"
   version="1.1"
   id="svg5"
   inkscape:version="1.2.1 (9c6d41e410, 2022-07-14, custom)"
   sodipodi:docname="application-x-zoo.svg"
   xmlns:inkscape="http://www.inkscape.org/namespaces/inkscape"
   xmlns:sodipodi="http://sodipodi.sourceforge.net/DTD/sodipodi-0.dtd"
   xmlns:xlink="http://www.w3.org/1999/xlink"
   xmlns="http://www.w3.org/2000/svg"
   xmlns:svg="http://www.w3.org/2000/svg">
  <sodipodi:namedview
     id="namedview7"
     pagecolor="#ffffff"
     bordercolor="#000000"
     borderopacity="0.25"
     inkscape:showpageshadow="2"
     inkscape:pageopacity="0.0"
     inkscape:pagecheckerboard="0"
     inkscape:deskcolor="#d1d1d1"
     inkscape:document-units="px"
     showgrid="false"
     inkscape:zoom="50.125"
     inkscape:cx="8"
     inkscape:cy="8"
     inkscape:window-width="1920"
     inkscape:window-height="1011"
     inkscape:window-x="0"
     inkscape:window-y="0"
     inkscape:window-maximized="1"
     inkscape:current-layer="svg5" />
  <defs
     id="defs2">
    <linearGradient
       inkscape:collect="always"
       xlink:href="#linearGradient4405"
       id="linearGradient4407"
       x1="32"
       y1="10.5"
       x2="32"
       y2="18.5"
       gradientUnits="userSpaceOnUse"
       gradientTransform="matrix(0.25000002,0,0,0.25000002,0.5000005,-1.2499282)" />
    <linearGradient
       inkscape:collect="always"
       id="linearGradient4405">
      <stop
         style="stop-color:#fcbc19;stop-opacity:1;"
         offset="0"
         id="stop4401" />
      <stop
         style="stop-color:#f4b61f;stop-opacity:1"
         offset="1"
         id="stop4403" />
    </linearGradient>
    <linearGradient
       inkscape:collect="always"
       xlink:href="#linearGradient11972"
       id="linearGradient11974"
       x1="5.2916665"
       y1="5.5562496"
       x2="13.758334"
       y2="13.493751"
       gradientUnits="userSpaceOnUse"
       gradientTransform="matrix(0.94488191,0,0,0.94488191,0.5000005,1.0000719)" />
    <linearGradient
       inkscape:collect="always"
       id="linearGradient11972">
      <stop
         style="stop-color:#fce798;stop-opacity:1"
         offset="0"
         id="stop11968" />
      <stop
         style="stop-color:#ffc937;stop-opacity:1"
         offset="1"
         id="stop11970" />
    </linearGradient>
    <linearGradient
       inkscape:collect="always"
       id="linearGradient12673">
      <stop
         style="stop-color:#ffffff;stop-opacity:1;"
         offset="0"
         id="stop12669" />
      <stop
         style="stop-color:#ffffff;stop-opacity:0;"
         offset="1"
         id="stop12671" />
    </linearGradient>
    <linearGradient
       inkscape:collect="always"
       xlink:href="#linearGradient5150"
       id="linearGradient5152"
       x1="3.4395833"
       y1="3.1750002"
       x2="2.9104166"
       y2="1.8520834"
       gradientUnits="userSpaceOnUse"
       gradientTransform="matrix(3.7795275,0,0,3.7795275,1.7e-7,7.215e-5)" />
    <linearGradient
       inkscape:collect="always"
       id="linearGradient5150">
      <stop
         style="stop-color:#aaaaaa;stop-opacity:1;"
         offset="0"
         id="stop5146" />
      <stop
         style="stop-color:#f6f6f5;stop-opacity:1"
         offset="1"
         id="stop5148" />
    </linearGradient>
    <linearGradient
       inkscape:collect="always"
       xlink:href="#linearGradient4066"
       id="linearGradient4068"
       x1="1.0583334"
       y1="2.1166668"
       x2="1.0583334"
       y2="3.96875"
       gradientUnits="userSpaceOnUse"
       gradientTransform="matrix(3.7795275,0,0,3.7795275,1.7e-7,7.215e-5)" />
    <linearGradient
       inkscape:collect="always"
       id="linearGradient4066">
      <stop
         style="stop-color:#d3d3d3;stop-opacity:1;"
         offset="0"
         id="stop4062" />
      <stop
         style="stop-color:#e1e1e1;stop-opacity:1"
         offset="0.2"
         id="stop4454" />
      <stop
         style="stop-color:#a3a3a3;stop-opacity:1"
         offset="1"
         id="stop4064" />
    </linearGradient>
    <linearGradient
       inkscape:collect="always"
       xlink:href="#linearGradient6118"
       id="linearGradient6120"
       x1="4.2333336"
       y1="2.1166668"
       x2="4.2333336"
       y2="2.9104171"
       gradientUnits="userSpaceOnUse"
       gradientTransform="matrix(3.7795275,0,0,3.7795275,1.7e-7,7.215e-5)" />
    <linearGradient
       inkscape:collect="always"
       id="linearGradient6118">
      <stop
         style="stop-color:#999999;stop-opacity:1;"
         offset="0"
         id="stop6114" />
      <stop
         style="stop-color:#7e7e7e;stop-opacity:1"
         offset="1"
         id="stop6116" />
    </linearGradient>
    <linearGradient
       inkscape:collect="always"
       xlink:href="#linearGradient12673"
       id="linearGradient770"
       gradientUnits="userSpaceOnUse"
       gradientTransform="matrix(0.25000002,0,0,0.25000002,0.5000005,-0.24992841)"
       x1="-2.0000002"
       y1="27"
       x2="61.999996"
       y2="27" />
    <linearGradient
       inkscape:collect="always"
       xlink:href="#linearGradient1014"
       id="linearGradient971"
       x1="10.000003"
       y1="16"
       x2="9.9658279"
       y2="22.014645"
       gradientUnits="userSpaceOnUse"
       gradientTransform="matrix(0.5,0,0,1.1666667,3.9999989,-9.666595)" />
    <filter
       inkscape:collect="always"
       style="color-interpolation-filters:sRGB"
       id="filter2500"
       x="-0.0024410109"
       y="-0.0024410109"
       width="1.004882"
       height="1.004882">
      <feGaussianBlur
         inkscape:collect="always"
         stdDeviation="0.0071196152"
         id="feGaussianBlur2502" />
    </filter>
    <linearGradient
       inkscape:collect="always"
       id="linearGradient1014">
      <stop
         style="stop-color:#33bff0;stop-opacity:1"
         offset="0"
         id="stop1010" />
      <stop
         style="stop-color:#1c9fe3;stop-opacity:1"
         offset="1"
         id="stop1012" />
    </linearGradient>
  </defs>
  <path
     id="rect846"
     style="fill:url(#linearGradient4407);fill-opacity:1;stroke-width:0.500001;stroke-linecap:round;stroke-linejoin:round;stroke-dasharray:6, 0.500001"
     d="M 1.0000004,1 C 0.4699154,1.00182 0.03335158,1.4169658 0.00488318,1.9462889 0.01993318,3.0658078 1.8e-7,10.000144 1.8e-7,10.000144 H 16 V 3.5000722 C 16,3.2230707 15.776426,2.9822356 15.5,3.0000721 H 7.7500003 L 6.7500005,1.4999997 C 6.4086865,1.165942 6.1655003,1 5.7500002,1 Z"
     sodipodi:nodetypes="ccccssccsc" />
  <path
     id="rect1170"
     style="fill:url(#linearGradient11974);fill-opacity:1;stroke-width:0.66144;stroke-linecap:round;stroke-linejoin:round;stroke-dasharray:7.93723, 0.66144"
     d="M 8.0000002,4.000072 6.2500003,6.0000724 H 1.0000001 C 0.446,6.0000724 0,6.4460726 0,7.0000727 v 6.4999993 c 0,0.277002 0.2230001,0.5 0.5,0.5 h 15 c 0.277001,0 0.499999,-0.223 0.499999,-0.5 V 4.5000721 C 15.999999,4.2230705 15.777,4.000072 15.5,4.000072 Z"
     sodipodi:nodetypes="ccsccccccsc" />
  <path
     d="m 3e-7,12.500072 v 1 c 0,0.277002 0.2229997,0.5 0.5000001,0.5 H 15.5 c 0.277001,0 0.5,-0.222999 0.5,-0.5 v -1 c 0,0.276998 -0.223,0.5 -0.5,0.5 H 0.5000004 c -0.2770016,0 -0.5000001,-0.222999 -0.5000001,-0.5 z"
     style="fill:#e4a729;fill-opacity:1;stroke-width:0.66144;stroke-linecap:round;stroke-linejoin:round;stroke-dasharray:7.93723, 0.66144"
     id="path781" />
  <path
     d="M 8.0000002,4.0000719 6.2500003,6.0000724 H 1.0000004 c -0.554,0 -1,0.4460003 -1,1.0000003 v 0.9999278 c 0,-0.5540003 0.446,-1.0000004 1,-1.0000004 H 6.5000002 L 8.2500001,4.9999996 H 15.5 c 0.277002,0 0.5,0.2229997 0.5,0.5000001 V 4.5000716 C 16,4.22307 15.776999,4.0000719 15.5,4.0000719 Z"
     style="opacity:0.3;fill:url(#linearGradient770);fill-opacity:1;stroke-width:0.66144;stroke-linecap:round;stroke-linejoin:round;stroke-dasharray:7.93723, 0.66144"
     id="path756"
     sodipodi:nodetypes="ccsscsccscssc" />
  <rect
     style="fill:#9b8441;fill-opacity:1;stroke-width:0.999999"
     id="rect3074"
     width="16"
     height="3"
     x="2.193451e-07"
     y="8.0000725" />
  <rect
     style="fill:#a7a7a7;fill-opacity:1;stroke-width:0.999999"
     id="rect6824"
     width="1"
     height="2.9999998"
     x="2.193451e-07"
     y="8.0000725" />
  <path
     id="rect5034"
     style="fill:url(#linearGradient5152);fill-opacity:1;stroke-width:0.999999"
     d="m 1.0000002,8.0000721 1e-7,1.0000003 H 2.6e-7 V 10.000072 H 1.0000003 l -1e-7,1 h 4 v -1 h 1 v 1 h 1 v -1 h 1 v 1 h 1 v -1 H 10 v 1 h 1 v -1 h 1 v 1 h 1 v -1 h 1 v 1 h 1 V 8.0000721 h -2 v 1 h -1 v -1 h -1 v 1 h -1 v -1 H 9.0000002 v 1 h -1 v -1 h -1 v 1 h -1 v -1 h -1 v 1 h -1 v -1 z"
     sodipodi:nodetypes="ccccccccccccccccccccccccccccccccccccccccccccccccc" />
  <rect
     style="fill:url(#linearGradient4068);fill-opacity:1;stroke-width:0.999999"
     id="rect3442"
     width="3"
     height="7"
     x="1.0000002"
     y="8.0000725" />
  <rect
     style="fill:#747474;fill-opacity:1;stroke-width:0.999999"
     id="rect4652"
     width="1"
     height="1"
     x="2.0000002"
     y="9.0000725" />
  <rect
     style="fill:url(#linearGradient6120);fill-opacity:1;stroke-width:0.999999"
     id="rect6090"
     width="1.0000006"
     height="3.0000005"
     x="15"
     y="8.0000725" />
  <rect
     style="fill:#74550e;fill-opacity:1;stroke-width:0.999999"
     id="rect7104"
     width="1"
     height="1"
     x="2.0000002"
     y="13.000072" />
  <rect
     style="fill:url(#linearGradient971);fill-opacity:1.0;stroke-width:2.85774;stroke-linecap:round;stroke-linejoin:round;filter:url(#filter2500)"
     id="rect332"
     width="7"
     height="7"
     x="9"
     y="9.0000706"
     ry="1" />
  <path
     id="rect328"
     style="fill:#ffffff;stroke-width:4;stroke-linecap:round;stroke-linejoin:round"
     d="M 11 10 L 11 11 L 13 11 L 11 14 L 11 15 L 14 15 L 14 14 L 12 14 L 14 11 L 14 10 L 11 10 z " />
</svg>
