<?xml version="1.0" encoding="UTF-8" standalone="no"?>
<!-- Created with Inkscape (http://www.inkscape.org/) -->

<svg
   width="16"
   height="16"
   viewBox="0 0 16 16.000001"
   version="1.1"
   id="svg5"
   inkscape:version="1.2.1 (9c6d41e410, 2022-07-14, custom)"
   sodipodi:docname="application-vnd.ms-access.svg"
   xmlns:inkscape="http://www.inkscape.org/namespaces/inkscape"
   xmlns:sodipodi="http://sodipodi.sourceforge.net/DTD/sodipodi-0.dtd"
   xmlns="http://www.w3.org/2000/svg"
   xmlns:svg="http://www.w3.org/2000/svg">
  <sodipodi:namedview
     id="namedview7"
     pagecolor="#ffffff"
     bordercolor="#000000"
     borderopacity="0.25"
     inkscape:showpageshadow="2"
     inkscape:pageopacity="0.0"
     inkscape:pagecheckerboard="0"
     inkscape:deskcolor="#d1d1d1"
     inkscape:document-units="px"
     showgrid="false"
     inkscape:zoom="50.125"
     inkscape:cx="8"
     inkscape:cy="8"
     inkscape:window-width="1920"
     inkscape:window-height="1011"
     inkscape:window-x="0"
     inkscape:window-y="0"
     inkscape:window-maximized="1"
     inkscape:current-layer="svg5" />
  <defs
     id="defs2" />
  <path
     id="rect234"
     style="fill:#7d7d7b"
     d="m 3,0 h 9.5 L 15,2.5 V 16 H 3 Z"
     sodipodi:nodetypes="cccccc" />
  <path
     id="rect1746"
     style="fill:#fafafa"
     d="m 4,1 h 7 v 2 h 3 V 15 H 4 Z"
     sodipodi:nodetypes="ccccccc" />
  <path
     id="rect1800"
     style="fill:#fafafa;stroke-width:0.25"
     d="m 12,1 1,1.0000003 h -1 z"
     sodipodi:nodetypes="cccc" />
  <rect
     style="fill:#af2031;stroke-linecap:round;fill-opacity:1"
     id="rect347"
     width="7"
     height="7"
     x="0"
     y="5"
     ry="1" />
  <path
     id="rect1196"
     style="fill:#ffffff;fill-opacity:1;stroke-width:4;stroke-linecap:round;stroke-linejoin:round"
     d="m 3,6 -1.5,5 h 1 L 2.800781,10 H 4.199219 L 4.5,11 h 1 L 4,6 Z M 3.5,7.666016 3.900391,9 H 3.099609 Z"
     sodipodi:nodetypes="ccccccccccccc" />
  <path
     id="rect445"
     style="fill:#c94f60;stroke-linecap:round;stroke-linejoin:round;fill-opacity:1"
     d="m 12,7 v 3 H 8 v 1 h 4 c 0.553998,0 1,-0.446002 1,-1 V 7 Z"
     sodipodi:nodetypes="ccccsscc" />
  <path
     id="rect346"
     style="fill:#e08095;stroke-linecap:round;stroke-linejoin:round;fill-opacity:1"
     d="m 8,6 h 4 c 0.554,0 1,0.446 1,1 V 8 H 8 Z"
     sodipodi:nodetypes="cssccc" />
</svg>
