<?xml version="1.0" encoding="UTF-8" standalone="no"?>
<!-- Created with Inkscape (http://www.inkscape.org/) -->

<svg
   width="16"
   height="16"
   viewBox="0 0 16 16.000001"
   version="1.1"
   id="svg5"
   inkscape:version="1.2.1 (9c6d41e410, 2022-07-14, custom)"
   sodipodi:docname="application-x-iso.svg"
   xmlns:inkscape="http://www.inkscape.org/namespaces/inkscape"
   xmlns:sodipodi="http://sodipodi.sourceforge.net/DTD/sodipodi-0.dtd"
   xmlns:xlink="http://www.w3.org/1999/xlink"
   xmlns="http://www.w3.org/2000/svg"
   xmlns:svg="http://www.w3.org/2000/svg">
  <sodipodi:namedview
     id="namedview7"
     pagecolor="#ffffff"
     bordercolor="#000000"
     borderopacity="0.25"
     inkscape:showpageshadow="2"
     inkscape:pageopacity="0.0"
     inkscape:pagecheckerboard="0"
     inkscape:deskcolor="#d1d1d1"
     inkscape:document-units="px"
     showgrid="false"
     inkscape:zoom="50.5"
     inkscape:cx="8"
     inkscape:cy="8"
     inkscape:window-width="1920"
     inkscape:window-height="1010"
     inkscape:window-x="0"
     inkscape:window-y="0"
     inkscape:window-maximized="1"
     inkscape:current-layer="svg5" />
  <defs
     id="defs2">
    <linearGradient
       inkscape:collect="always"
       xlink:href="#linearGradient162116"
       id="linearGradient162118"
       x1="96.408417"
       y1="238.0069"
       x2="127.77626"
       y2="238.0069"
       gradientUnits="userSpaceOnUse"
       gradientTransform="matrix(0.2550382,0,0,0.24607912,-20.587827,-49.568529)" />
    <linearGradient
       inkscape:collect="always"
       id="linearGradient162116">
      <stop
         style="stop-color:#e3edee;stop-opacity:1;"
         offset="0"
         id="stop162112" />
      <stop
         style="stop-color:#c9cdce;stop-opacity:1"
         offset="1"
         id="stop162114" />
    </linearGradient>
    <linearGradient
       inkscape:collect="always"
       xlink:href="#linearGradient219586"
       id="linearGradient4768"
       gradientUnits="userSpaceOnUse"
       gradientTransform="matrix(0.2550382,0,0,0.24607913,-20.587826,-49.568529)"
       x1="112.09232"
       y1="238.0069"
       x2="112.17286"
       y2="254.33937" />
    <linearGradient
       inkscape:collect="always"
       id="linearGradient219586">
      <stop
         style="stop-color:#b9bfbf;stop-opacity:1;"
         offset="0"
         id="stop219582" />
      <stop
         style="stop-color:#aaacab;stop-opacity:1"
         offset="1"
         id="stop219584" />
    </linearGradient>
    <linearGradient
       inkscape:collect="always"
       xlink:href="#linearGradient2496"
       id="linearGradient2498"
       x1="16.424316"
       y1="54.63533"
       x2="32.331596"
       y2="38.452602"
       gradientUnits="userSpaceOnUse"
       gradientTransform="matrix(0.25,0,0,0.25,3.75,-0.99999987)" />
    <linearGradient
       inkscape:collect="always"
       id="linearGradient2496">
      <stop
         style="stop-color:#ffffff;stop-opacity:0.5"
         offset="0"
         id="stop2492" />
      <stop
         style="stop-color:#ffffff;stop-opacity:0"
         offset="0.44999999"
         id="stop3080" />
      <stop
         style="stop-color:#ffffff;stop-opacity:1"
         offset="0.5"
         id="stop2756" />
      <stop
         style="stop-color:#ffffff;stop-opacity:0"
         offset="0.55000001"
         id="stop3014" />
      <stop
         style="stop-color:#ffffff;stop-opacity:0.2"
         offset="1"
         id="stop2494" />
    </linearGradient>
    <linearGradient
       inkscape:collect="always"
       xlink:href="#linearGradient11941"
       id="linearGradient11943"
       x1="5.1081543"
       y1="42.191895"
       x2="7.4692383"
       y2="33.279785"
       gradientUnits="userSpaceOnUse"
       gradientTransform="matrix(0.25,0,0,0.25,3.75,-0.99999987)" />
    <linearGradient
       inkscape:collect="always"
       id="linearGradient11941">
      <stop
         style="stop-color:#f89af4;stop-opacity:0"
         offset="0"
         id="stop11937" />
      <stop
         style="stop-color:#f89af4;stop-opacity:0"
         offset="0.40000001"
         id="stop12523" />
      <stop
         style="stop-color:#f89af4;stop-opacity:1"
         offset="0.5"
         id="stop12201" />
      <stop
         style="stop-color:#f89af4;stop-opacity:0"
         offset="0.60000002"
         id="stop12781" />
      <stop
         style="stop-color:#f89af4;stop-opacity:0;"
         offset="1"
         id="stop11939" />
    </linearGradient>
    <linearGradient
       inkscape:collect="always"
       xlink:href="#linearGradient16450"
       id="linearGradient16452"
       x1="17.605227"
       y1="29.40974"
       x2="27.150551"
       y2="39.243584"
       gradientUnits="userSpaceOnUse"
       gradientTransform="matrix(0.25,0,0,0.25,3.75,-0.99999987)" />
    <linearGradient
       inkscape:collect="always"
       id="linearGradient16450">
      <stop
         style="stop-color:#6fef7e;stop-opacity:0"
         offset="0"
         id="stop16446" />
      <stop
         style="stop-color:#6fef7e;stop-opacity:0"
         offset="0.44792882"
         id="stop17132" />
      <stop
         style="stop-color:#6fef7e;stop-opacity:1"
         offset="0.5"
         id="stop16680" />
      <stop
         style="stop-color:#6fef7e;stop-opacity:0"
         offset="0.55000001"
         id="stop16938" />
      <stop
         style="stop-color:#6fef7e;stop-opacity:0;"
         offset="1"
         id="stop16448" />
    </linearGradient>
    <linearGradient
       inkscape:collect="always"
       xlink:href="#linearGradient219586"
       id="linearGradient12303"
       gradientUnits="userSpaceOnUse"
       gradientTransform="matrix(0.2550382,0,0,0.24607913,-20.587826,-49.568529)"
       x1="112.09232"
       y1="238.0069"
       x2="112.17286"
       y2="254.33937" />
  </defs>
  <path
     id="rect234"
     style="fill:#7d7d7b"
     d="m 2,0 h 9.5 L 14,2.5 V 16 H 2 Z"
     sodipodi:nodetypes="cccccc" />
  <path
     id="rect1746"
     style="fill:#fafafa"
     d="m 3,1 h 7 v 2 h 3 V 15 H 3 Z"
     sodipodi:nodetypes="ccccccc" />
  <path
     id="rect1800"
     style="fill:#fafafa;stroke-width:0.25"
     d="m 11,1 1,1.0000003 h -1 z"
     sodipodi:nodetypes="cccc" />
  <path
     id="path151229"
     style="fill:url(#linearGradient162118);fill-opacity:1;stroke-width:0.331418;stroke-linecap:round;stroke-linejoin:round"
     d="M 8.0000003,5 A 4.0000003,4.0000003 0 0 0 4,9.0000004 4.0000003,4.0000003 0 0 0 8.0000003,13.000001 4.0000003,4.0000003 0 0 0 12,9.0000004 4.0000003,4.0000003 0 0 0 8.0000003,5 Z m 0,2.5000007 a 1.5,1.5 0 0 1 1.5,1.4999997 1.5,1.5 0 0 1 -1.5,1.5000006 1.5,1.5 0 0 1 -1.5,-1.5000006 1.5,1.5 0 0 1 1.5,-1.4999997 z" />
  <path
     id="path151229-3"
     style="fill:url(#linearGradient12303);fill-opacity:1;stroke-width:0.331418;stroke-linecap:round;stroke-linejoin:round"
     d="M 9.496582,9.0937492 A 1.5,1.5 0 0 1 8.0000003,10.500001 1.5,1.5 0 0 1 6.94043,10.059571 l -1.7666017,1.766602 a 4.0000003,4.0000003 0 0 0 2.826172,1.173828 4.0000003,4.0000003 0 0 0 3.9907227,-3.7504898 z" />
  <path
     id="path151229-3-3"
     style="fill:url(#linearGradient4768);fill-opacity:1;stroke-width:0.331418;stroke-linecap:round;stroke-linejoin:round"
     d="M 9.496582,9.0937492 A 1.5,1.5 0 0 1 8.0000003,10.500001 1.5,1.5 0 0 1 6.94043,10.059571 l -1.7666017,1.766602 a 4.0000003,4.0000003 0 0 0 2.826172,1.173828 4.0000003,4.0000003 0 0 0 3.9907227,-3.7504898 z" />
  <path
     id="rect2336"
     style="opacity:0.5;fill:url(#linearGradient2498);fill-opacity:1;stroke-width:0.5;stroke-linecap:round;stroke-linejoin:round"
     d="M 7.030762,5.1225587 A 4.0000003,4.0000003 0 0 0 4.0712893,8.2631837 L 6.5034183,8.75 6.5273453,8.75388 A 1.5,1.5 0 0 1 7.6376967,7.5502634 Z M 9.4726563,9.2460942 A 1.5000001,1.5000001 0 0 1 8.362305,10.449708 l 0.6069337,2.427734 A 4.0000003,4.0000003 0 0 0 11.928712,9.7368172 l -2.43213,-0.486817 z" />
  <path
     id="path151229-7"
     style="opacity:0.5;fill:url(#linearGradient11943);fill-opacity:1;stroke-width:0.331418;stroke-linecap:round;stroke-linejoin:round"
     d="M 4.466797,7.1293947 C 4.1610083,7.7055437 4.0007547,8.3477317 4,9.0000004 4.0007667,9.6522692 4.1610083,10.294457 4.466797,10.870607 L 6.67627,9.7006842 C 6.5613003,9.4849742 6.5007883,9.2444352 6.5000003,9.0000004 c 8e-4,-0.244435 0.0613,-0.4849737 0.1762697,-0.7006837 z"
     sodipodi:nodetypes="ccccccc" />
  <path
     id="path151229-1"
     style="opacity:0.5;fill:url(#linearGradient16452);fill-opacity:1;stroke-width:0.331418;stroke-linecap:round;stroke-linejoin:round"
     d="M 9.1928713,5.182129 8.447266,7.56836 A 1.5,1.5 0 0 1 9.4042973,8.4731447 L 11.745117,7.595703 A 4.0000003,4.0000003 0 0 0 9.1928713,5.182129 Z" />
</svg>
