<?xml version="1.0" encoding="UTF-8" standalone="no"?>
<!-- Created with Inkscape (http://www.inkscape.org/) -->

<svg
   width="16"
   height="16"
   viewBox="0 0 16 16"
   version="1.1"
   id="svg5"
   inkscape:version="1.2.1 (9c6d41e410, 2022-07-14, custom)"
   sodipodi:docname="application-x-deb.svg"
   xmlns:inkscape="http://www.inkscape.org/namespaces/inkscape"
   xmlns:sodipodi="http://sodipodi.sourceforge.net/DTD/sodipodi-0.dtd"
   xmlns:xlink="http://www.w3.org/1999/xlink"
   xmlns="http://www.w3.org/2000/svg"
   xmlns:svg="http://www.w3.org/2000/svg">
  <sodipodi:namedview
     id="namedview7"
     pagecolor="#ffffff"
     bordercolor="#000000"
     borderopacity="0.25"
     inkscape:showpageshadow="2"
     inkscape:pageopacity="0.0"
     inkscape:pagecheckerboard="0"
     inkscape:deskcolor="#d1d1d1"
     inkscape:document-units="px"
     showgrid="false"
     inkscape:zoom="50.5"
     inkscape:cx="7.2475248"
     inkscape:cy="8"
     inkscape:window-width="1920"
     inkscape:window-height="1010"
     inkscape:window-x="0"
     inkscape:window-y="0"
     inkscape:window-maximized="1"
     inkscape:current-layer="svg5"
     showguides="false" />
  <defs
     id="defs2">
    <linearGradient
       inkscape:collect="always"
       id="linearGradient26892">
      <stop
         style="stop-color:#cb6085;stop-opacity:1"
         offset="0"
         id="stop26888" />
      <stop
         style="stop-color:#832949;stop-opacity:1"
         offset="1"
         id="stop26890" />
    </linearGradient>
    <linearGradient
       inkscape:collect="always"
       id="linearGradient56461">
      <stop
         style="stop-color:#fb95b9;stop-opacity:1"
         offset="0"
         id="stop56457-9" />
      <stop
         style="stop-color:#f63479;stop-opacity:1"
         offset="1"
         id="stop56459-1" />
    </linearGradient>
    <linearGradient
       inkscape:collect="always"
       id="linearGradient40996">
      <stop
         style="stop-color:#f57da7;stop-opacity:1"
         offset="0"
         id="stop40992" />
      <stop
         style="stop-color:#f775a4;stop-opacity:1"
         offset="1"
         id="stop40994" />
    </linearGradient>
    <linearGradient
       inkscape:collect="always"
       id="linearGradient70845">
      <stop
         style="stop-color:#d04d79;stop-opacity:1"
         offset="0"
         id="stop70841-7" />
      <stop
         style="stop-color:#b63664;stop-opacity:1"
         offset="1"
         id="stop70843-0" />
    </linearGradient>
    <linearGradient
       inkscape:collect="always"
       xlink:href="#linearGradient56461"
       id="linearGradient2068"
       x1="3"
       y1="3"
       x2="11"
       y2="15"
       gradientUnits="userSpaceOnUse" />
    <linearGradient
       inkscape:collect="always"
       xlink:href="#linearGradient40996"
       id="linearGradient2076"
       x1="3"
       y1="1"
       x2="3"
       y2="3"
       gradientUnits="userSpaceOnUse" />
    <linearGradient
       inkscape:collect="always"
       xlink:href="#linearGradient40996"
       id="linearGradient2078"
       x1="6"
       y1="0"
       x2="13"
       y2="4"
       gradientUnits="userSpaceOnUse" />
    <linearGradient
       inkscape:collect="always"
       xlink:href="#linearGradient40996"
       id="linearGradient2080"
       x1="13"
       y1="4"
       x2="13"
       y2="5"
       gradientUnits="userSpaceOnUse" />
    <linearGradient
       inkscape:collect="always"
       xlink:href="#linearGradient26892"
       id="linearGradient2088"
       x1="3"
       y1="7.5"
       x2="5"
       y2="7.7157288"
       gradientUnits="userSpaceOnUse" />
    <linearGradient
       inkscape:collect="always"
       xlink:href="#linearGradient26892"
       id="linearGradient2090"
       x1="13"
       y1="4"
       x2="11"
       y2="9.999999"
       gradientUnits="userSpaceOnUse" />
    <linearGradient
       inkscape:collect="always"
       xlink:href="#linearGradient70845"
       id="linearGradient2098"
       x1="11"
       y1="5"
       x2="13"
       y2="14"
       gradientUnits="userSpaceOnUse" />
  </defs>
  <path
     id="rect3961"
     style="fill:url(#linearGradient2076);fill-opacity:1;stroke-width:0.27586"
     d="M 1,2 3,1 5,2 4.7961589,3.9781531 3,3 Z"
     sodipodi:nodetypes="cccccc" />
  <path
     id="rect2034"
     style="fill:url(#linearGradient2088);fill-opacity:1;stroke-width:0.27586"
     d="M 3,3 5,2 7,11 3,13 Z"
     sodipodi:nodetypes="ccccc" />
  <path
     id="rect2627"
     style="fill:url(#linearGradient2090);fill-opacity:1;stroke-width:0.27586"
     d="m 5,2 8,2 V 14 L 5,12 Z"
     sodipodi:nodetypes="ccccc" />
  <path
     id="rect45418"
     style="fill:url(#linearGradient2068);stroke-width:0.190529;fill-opacity:1"
     d="M 3,3 11,5 12.568965,4.5172414 11,15 3,13 Z"
     sodipodi:nodetypes="cccccc" />
  <path
     id="path2"
     style="opacity:0.6;fill:#ffffff;stroke-width:0.0199997"
     d="M 6.2902167,8.1631251 C 6.2131242,8.1415137 6.1363517,8.1174737 6.0605323,8.0996628 l 0.0334,0.016737 c 0.055783,-1.458e-4 0.1371086,0.038737 0.1962874,0.04676 z M 5.9532683,8.0759097 C 5.8278495,8.0379154 5.6538684,8.0398926 5.7075675,8 5.5028705,8.0168686 5.1395019,8.0127657 4.935625,8.1297348 L 4.929255,8.0845578 C 4.83583,8.1627028 4.5218765,8.2712492 4.496857,8.4074023 L 4.47186,8.4040923 c -0.048618,0.064619 -0.080068,0.1464662 -0.1186318,0.2171296 -0.063604,0.085197 -0.09324,0.00775 -0.084173,0.02804 -0.1250591,0.2080599 -0.1871794,0.3985319 -0.2408553,0.5537324 0.038234,0.071074 9.314e-4,0.3444444 0.015399,0.579348 -0.062816,1.1113007 0.7959751,2.5250887 1.7347025,3.1209537 0.1376005,0.09927 0.3422239,0.171825 0.5162815,0.240259 C 6.089226,13.010058 6.0626745,13.028047 5.8626769,12.885482 5.7183804,12.765006 5.6867576,12.675914 5.5845562,12.550039 l 0.040437,0.08617 C 5.4245756,12.492316 5.5084046,12.505965 5.3453474,12.394973 l 0.043199,-0.04068 c -0.06498,-0.02857 -0.1720658,-0.172092 -0.2013647,-0.240671 l -0.071048,-0.02305 C 5.0307364,11.954102 4.9852357,11.861686 4.9885569,11.804057 l -0.022988,0.03257 C 4.9395679,11.782467 4.6513847,11.32709 4.8008831,11.463102 4.7730961,11.427582 4.7361981,11.398222 4.6961633,11.310927 l 0.030422,-0.02368 C 4.6546403,11.16853 4.5941722,11.027798 4.5987724,10.989993 c 0.038374,0.06581 0.065001,0.08519 0.091359,0.103676 -0.1816551,-0.51689 -0.1918706,-0.09471 -0.329487,-0.578784 l 0.029104,0.0082 c -0.02233,-0.04176 -0.035847,-0.08318 -0.053784,-0.125553 l 0.012678,-0.121636 c -0.1308167,-0.1988 -0.036577,-0.6562674 -0.01771,-0.9191204 0.01311,-0.104924 0.1091679,-0.1866954 0.1822617,-0.3431874 l -0.044542,-0.023869 c 0.085087,-0.1174868 0.4860041,-0.4193816 0.6716406,-0.3287753 0.089983,-0.080225 -0.017883,-0.00693 -0.035471,-0.041766 0.1975569,-0.1325537 0.2596855,-0.049914 0.3930025,-0.038172 0.1437969,-0.033023 -0.1233745,-0.0116 -0.055194,-0.052634 0.2485361,0.026971 0.1761303,-0.080217 0.5003842,0.00554 0.0342,0.031926 -0.079375,0.00114 -0.1078851,0.016069 0.2070765,-0.02597 0.655374,0.1602424 0.9465099,0.400708 0.3378948,0.2808988 0.7174324,0.8857644 0.7324118,1.3303491 l 0.017063,0.0108 c -0.00859,0.17145 0.026692,0.386144 -0.034566,0.549286 l 0.042034,-0.07239 4e-5,1.5e-5 c 0.00497,0.135223 -0.038989,0.183937 -0.078631,0.284108 l -0.071284,0.0097 c -0.058382,0.09207 0.00566,0.07398 -0.036131,0.148919 -0.091113,0.04781 -0.2764582,0.152773 -0.3357765,0.146925 -0.043257,-0.0167 0.029389,-0.04038 0.038868,-0.05659 -0.1219382,0.03938 -0.097872,0.09008 -0.284333,0.07311 l -0.00537,-0.01408 c -0.4600271,0.0489 -1.0989255,-0.612457 -1.0905055,-1.194464 -0.00493,0.03535 -0.013995,0.0228 -0.024181,0.03409 C 5.6275686,9.8907993 5.7903341,9.6476703 6.0647877,9.6241052 6.3333236,9.588928 6.6480252,9.7580453 6.8403634,10.007291 6.7347246,9.8304403 6.5244898,9.6072395 6.2752928,9.5302572 6.0311351,9.4452801 5.8027695,9.5172744 5.7265506,9.6579093 c -0.1250593,0.03324 -0.1395619,0.25273 -0.1940605,0.274012 -0.073295,0.5121747 0.1379117,0.8218517 0.4952279,1.2257407 0.05624,0.05839 0.015828,0.04945 0.023457,0.08108 -0.1187159,-0.09879 -0.2274541,-0.222292 -0.3168306,-0.35758 0.047434,0.08672 0.098607,0.17281 0.1647639,0.249925 -0.1119428,-0.07868 -0.2614955,-0.366408 -0.3051335,-0.391791 0.1929364,0.415697 0.7828476,0.890822 1.091743,0.874074 -0.1429166,-0.04672 -0.3245131,-0.115173 -0.4851113,-0.233005 -0.067414,-0.05922 -0.159168,-0.164572 -0.1428102,-0.172055 0.4215741,0.310938 0.8570648,0.431259 1.2217795,0.271606 0.092817,-0.0385 0.1941903,-0.124532 0.2234714,-0.115578 -0.044114,0.05027 0.00754,0.03462 -0.026377,0.08083 0.092501,-0.115447 -0.040154,-0.07531 0.095583,-0.222746 l 0.050114,0.0873 c -0.01864,-0.130539 0.1537685,-0.218115 0.1362856,-0.420235 0.039503,-0.0455 0.044091,0.08045 0.00211,0.202916 0.058239,-0.131597 0.015377,-0.171723 0.03036,-0.292344 0.016223,0.04827 0.037337,0.100976 0.048246,0.149665 -0.037891,-0.161423 0.038926,-0.234494 0.057933,-0.313396 -0.018749,-0.01518 -0.058557,0.04396 -0.067662,-0.133767 0.00131,-0.07528 0.021103,-0.032 0.028697,-0.04788 -0.014857,-0.01402 -0.053903,-0.08622 -0.07761,-0.206252 0.017194,-0.01991 0.046012,0.0846 0.069416,0.09698 -0.015071,-0.09406 -0.040985,-0.170999 -0.042065,-0.239331 -0.068414,-0.1678797 -0.024211,0.01022 -0.079679,-0.09041 -0.072824,-0.2536417 0.060427,-0.0307 0.069416,-0.1306307 0.1104028,0.2000827 0.1733222,0.4707887 0.2021851,0.5839317 -0.022046,-0.133181 -0.057664,-0.267353 -0.1011703,-0.400487 0.033543,0.02632 -0.053983,-0.2771597 0.0436,-0.06179 C 7.8382528,9.5853435 7.4964552,9.1026602 7.1819987,8.8200906 7.2204787,8.8692963 7.2690644,8.9311894 7.2516113,8.931754 7.0952331,8.7817346 7.122741,8.78451 7.1003228,8.7370146 6.9729439,8.6388312 6.964548,8.6917061 6.8801703,8.6569621 6.6400766,8.4422221 6.5938326,8.4389353 6.3728356,8.2786805 l 0.01,0.050628 C 6.2237779,8.2184308 6.1975133,8.2819262 6.0255751,8.1994336 c -0.010474,-0.012074 0.055074,-0.00953 0.10906,0.00229 C 5.9808363,8.1660336 5.988026,8.1180626 5.8375306,8.0991 5.8746216,8.086597 5.9138236,8.083677 5.9533917,8.075923 Z m 0.1243748,0.074092 c 0.044017,0.023897 0.095144,0.048617 0.087959,0.056508 0.048137,0.00695 0.059075,0.0012 -0.087959,-0.056508 z m 0.087959,0.056508 -0.031143,-0.00497 0.028983,0.00797 z M 4.135631,8.4449096 c -4.37e-5,0.00269 1.823e-4,0.00491 5.886e-4,0.00693 -1.669e-4,-0.00229 -3.408e-4,-0.00463 -5.886e-4,-0.00693 z m 5.886e-4,0.00693 c 0.00834,0.1170268 -0.088009,0.1249228 0.022079,0.088032 0.056911,-0.1074639 -0.014902,-0.052674 -0.022079,-0.088032 z m -0.092067,0.337619 c -0.071414,0.065319 -0.03285,0.09881 -0.040389,0.1581874 0.025843,-0.069932 0.030515,-0.1158628 0.040389,-0.1581874 z m 2.9400766,1.6216934 c -0.010217,-0.0034 -0.023303,0.01771 -0.029886,0.04366 0.015337,0.01358 0.027537,0.114744 0.042423,0.06032 0.00497,-0.07248 -0.00234,-0.100533 -0.012548,-0.103986 z m 0.9020568,0.578671 c -1.31e-5,9.6e-5 -2e-5,2e-4 -4e-5,2.97e-4 l 1.212e-4,-2.68e-4 z m -4e-5,2.97e-4 -0.011989,0.02572 C 7.852029,11.165581 7.80404,11.304302 7.7304758,11.422324 7.8116258,11.299178 7.8642323,11.15132 7.8862552,10.990123 Z M 6.9308314,10.697649 c -0.011034,0.05071 -0.040709,0.08717 -0.068706,0.12683 -0.1542154,0.04095 -0.014514,-0.06295 -8.34e-5,-0.116515 -0.1657983,0.148369 -0.022771,0.116867 -0.028789,0.172955 0.049137,-0.04989 0.08494,-0.111133 0.097585,-0.18327 z m -0.3362428,0.196277 c -0.067073,-0.008 -0.1353005,-0.03247 -0.204101,-0.06381 -0.082502,-0.02885 0.015594,0.04819 0.1232799,0.103969 0.02976,-0.01239 0.056783,-0.02609 0.080823,-0.04018 z M 5.5534667,10.525684 c 0.018185,0.07352 0.055419,0.144538 0.09008,0.215634 l -0.025405,-0.08409 c -0.028697,-0.04219 -0.045667,-0.08656 -0.064686,-0.131545 z m -0.063474,0.0899 -0.011512,0.05366 c 0.054194,0.09338 0.097205,0.188854 0.1664419,0.271632 -0.049795,-0.115392 -0.086795,-0.169037 -0.1548807,-0.325277 z" />
  <path
     id="rect1571"
     style="fill:url(#linearGradient2098);stroke-width:0.237575;fill-opacity:1"
     d="m 11,5 2,-1 v 9.999999 l -2,1 z"
     sodipodi:nodetypes="ccccc" />
  <path
     id="rect4424"
     style="fill:url(#linearGradient2080);fill-opacity:1;stroke-width:0.27586"
     d="m 13,4 h 2 l -2,1 h -2 z"
     sodipodi:nodetypes="ccccc" />
  <path
     id="rect4774"
     style="fill:url(#linearGradient2078);fill-opacity:1;stroke-width:0.248092"
     d="M 6,0 14,2 13,4 5,2 Z"
     sodipodi:nodetypes="ccccc" />
</svg>
