<?xml version="1.0" encoding="UTF-8" standalone="no"?>
<!-- Created with Inkscape (http://www.inkscape.org/) -->

<svg
   width="16"
   height="16"
   viewBox="0 0 16 16.000001"
   version="1.1"
   id="svg5"
   inkscape:version="1.2.1 (9c6d41e410, 2022-07-14, custom)"
   sodipodi:docname="audio-x-flac.svg"
   xmlns:inkscape="http://www.inkscape.org/namespaces/inkscape"
   xmlns:sodipodi="http://sodipodi.sourceforge.net/DTD/sodipodi-0.dtd"
   xmlns:xlink="http://www.w3.org/1999/xlink"
   xmlns="http://www.w3.org/2000/svg"
   xmlns:svg="http://www.w3.org/2000/svg">
  <sodipodi:namedview
     id="namedview7"
     pagecolor="#ffffff"
     bordercolor="#000000"
     borderopacity="0.25"
     inkscape:showpageshadow="2"
     inkscape:pageopacity="0.0"
     inkscape:pagecheckerboard="0"
     inkscape:deskcolor="#d1d1d1"
     inkscape:document-units="px"
     showgrid="false"
     inkscape:zoom="50.625"
     inkscape:cx="7.9901235"
     inkscape:cy="8"
     inkscape:window-width="1920"
     inkscape:window-height="1012"
     inkscape:window-x="0"
     inkscape:window-y="0"
     inkscape:window-maximized="1"
     inkscape:current-layer="svg5" />
  <defs
     id="defs2">
    <linearGradient
       inkscape:collect="always"
       xlink:href="#linearGradient1303"
       id="linearGradient888"
       x1="24"
       y1="21"
       x2="28"
       y2="24.474487"
       gradientUnits="userSpaceOnUse"
       gradientTransform="translate(-16,-16)" />
    <linearGradient
       inkscape:collect="always"
       id="linearGradient1303">
      <stop
         style="stop-color:#38c494;stop-opacity:1;"
         offset="0"
         id="stop1299" />
      <stop
         style="stop-color:#0099a6;stop-opacity:1"
         offset="1"
         id="stop1301" />
    </linearGradient>
  </defs>
  <path
     id="rect234"
     style="fill:#7d7d7b"
     d="m 2,0 h 9.5 L 14,2.5 V 16 H 2 Z"
     sodipodi:nodetypes="cccccc" />
  <path
     id="rect1746"
     style="fill:#fafafa"
     d="m 3,1 h 7 v 2 h 3 V 15 H 3 Z"
     sodipodi:nodetypes="ccccccc" />
  <path
     id="rect1800"
     style="fill:#fafafa;stroke-width:0.25"
     d="m 11,1 1,1.0000003 h -1 z"
     sodipodi:nodetypes="cccc" />
  <path
     id="path1056"
     style="fill:url(#linearGradient888);fill-opacity:1.0;stroke-width:3.74998;stroke-linecap:round;stroke-linejoin:round"
     d="M 9,4 C 8.446003,4 8,4.4460026 8,5 V 9.501953 C 7.5675041,9.1767005 7.0411484,9.0005633 6.5,9 5.1192881,9 4,10.119288 4,11.5 4,12.880712 5.1192881,14 6.5,14 7.8807119,14 9,12.880712 9,11.5 V 7 l 2.060547,1 C 11.581135,8.1894787 12,7.8957954 12,7.3417969 v -1 C 12,5.7877994 11.581135,5.1894788 11.060547,5 Z"
     sodipodi:nodetypes="csccsssccsscc" />
</svg>
