<?xml version="1.0" encoding="UTF-8" standalone="no"?>
<!-- Created with Inkscape (http://www.inkscape.org/) -->

<svg
   width="16"
   height="16"
   viewBox="0 0 16 16.000001"
   version="1.1"
   id="svg5"
   inkscape:version="1.2.1 (9c6d41e410, 2022-07-14, custom)"
   sodipodi:docname="image-svg+xml-compressed.svg"
   xmlns:inkscape="http://www.inkscape.org/namespaces/inkscape"
   xmlns:sodipodi="http://sodipodi.sourceforge.net/DTD/sodipodi-0.dtd"
   xmlns="http://www.w3.org/2000/svg"
   xmlns:svg="http://www.w3.org/2000/svg">
  <sodipodi:namedview
     id="namedview7"
     pagecolor="#ffffff"
     bordercolor="#000000"
     borderopacity="0.25"
     inkscape:showpageshadow="2"
     inkscape:pageopacity="0.0"
     inkscape:pagecheckerboard="0"
     inkscape:deskcolor="#d1d1d1"
     inkscape:document-units="px"
     showgrid="false"
     inkscape:zoom="51.6875"
     inkscape:cx="7.47763"
     inkscape:cy="8.019347"
     inkscape:window-width="1920"
     inkscape:window-height="1029"
     inkscape:window-x="0"
     inkscape:window-y="0"
     inkscape:window-maximized="1"
     inkscape:current-layer="svg5" />
  <defs
     id="defs2" />
  <path
     id="rect234"
     style="fill:#7d7d7b"
     d="m 2,0 h 9.5 L 14,2.5 V 16 H 2 Z"
     sodipodi:nodetypes="cccccc" />
  <path
     id="rect1746"
     style="fill:#fafafa"
     d="m 3,1 h 7 v 2 h 3 V 15 H 3 Z"
     sodipodi:nodetypes="ccccccc" />
  <path
     id="rect1800"
     style="fill:#fafafa;stroke-width:0.25"
     d="m 11,1 1,1.0000003 h -1 z"
     sodipodi:nodetypes="cccc" />
  <path
     d="m 5.0335004,11.001368 c 2,2.999999 4.9999996,0 2.9999996,-3 -1.9999996,-3 2,-6 3,-2"
     style="color:#000000;opacity:0.25;fill:#929292;fill-opacity:1;fill-rule:evenodd;stroke-width:1px;-inkscape-stroke:none"
     id="path23819" />
  <path
     style="color:#000000;fill:#929292;fill-opacity:1;fill-rule:evenodd;-inkscape-stroke:none"
     d="M 9.0254,3.591801 C 8.6869,3.635981 8.3614,3.770613 8.084,3.968754 6.9744004,4.761317 6.4560004,6.585338 7.5840004,8.277348 c 0.8932996,1.339989 0.6160996,2.56556 0.062,3.11914 -0.2768,0.276791 -0.6008,0.39467 -0.9668,0.330078 -0.366,-0.06459 -0.817,-0.333911 -1.2637,-1.003906 l -0.832,0.554688 c 0.5533,0.830005 1.2273,1.310685 1.9238,1.433593 0.6965,0.122908 1.3725,-0.134214 1.8456996,-0.607422 C 9.2994,11.157102 9.5222,9.382668 8.415,7.722659 7.5430004,6.414673 8.0246,5.238689 8.665,4.781254 8.9852,4.552536 9.3001,4.503175 9.6084,4.652348 9.9167,4.80152 10.2872,5.211455 10.5146,6.121098 L 11.4834,5.87891 C 11.2108,4.788555 10.7063,4.073487 10.0459,3.75391 9.7156,3.594122 9.3629,3.547617 9.0244,3.591801 Z"
     id="path19306" />
  <path
     id="path3571-5"
     style="color:#000000;fill:#929292;fill-opacity:1;-inkscape-stroke:none"
     d="m 5.5000004,2.000004 c -0.8227,0 -1.5006,0.677245 -1.5,1.5 -6e-4,0.822755 0.6773,1.5 1.5,1.5 0.1585,0 0.3111,-0.02577 0.4551,-0.07227 L 9.6016,11.302735 C 9.2377,11.577541 8.9996,12.013441 9,12.5 c -6e-4,0.822754 0.6773,1.499999 1.5,1.499999 0.8227,0 1.5006,-0.677245 1.5,-1.5 6e-4,-0.795076 -0.6329,-1.454596 -1.418,-1.498046 l -3.8260996,-6.6875 c 0.1538,-0.235261 0.2443,-0.515007 0.2441,-0.814453 6e-4,-0.822755 -0.6773,-1.5 -1.5,-1.5 z m 0,1 c 0.2823,0 0.5002,0.218405 0.5,0.5 2e-4,0.281595 -0.2177,0.5 -0.5,0.5 -0.2823,0 -0.5002,-0.218405 -0.5,-0.5 -2e-4,-0.281595 0.2177,-0.5 0.5,-0.5 z M 10.5,12.000005 c 0.2823,0 0.5002,0.218406 0.5,0.5 2e-4,0.281597 -0.2177,0.499999 -0.5,0.499999 -0.2823,0 -0.5002,-0.218402 -0.5,-0.499999 -2e-4,-0.281594 0.2177,-0.5 0.5,-0.5 z" />
  <path
     id="rect3565-6"
     style="fill:#929292;fill-opacity:1;stroke:none"
     d="m 10,5 v 1.9999995 h 2 V 5 Z M 7,6.9999995 V 9 H 9 V 6.9999995 Z M 4,10 v 2 h 2 v -2 z" />
</svg>
