<?xml version="1.0" encoding="UTF-8" standalone="no"?>
<!-- Created with Inkscape (http://www.inkscape.org/) -->

<svg
   width="16"
   height="16"
   viewBox="0 0 16 16"
   version="1.1"
   id="svg5"
   inkscape:version="1.2.1 (9c6d41e410, 2022-07-14, custom)"
   sodipodi:docname="rpm.svg"
   xmlns:inkscape="http://www.inkscape.org/namespaces/inkscape"
   xmlns:sodipodi="http://sodipodi.sourceforge.net/DTD/sodipodi-0.dtd"
   xmlns:xlink="http://www.w3.org/1999/xlink"
   xmlns="http://www.w3.org/2000/svg"
   xmlns:svg="http://www.w3.org/2000/svg">
  <sodipodi:namedview
     id="namedview7"
     pagecolor="#ffffff"
     bordercolor="#000000"
     borderopacity="0.25"
     inkscape:showpageshadow="2"
     inkscape:pageopacity="0.0"
     inkscape:pagecheckerboard="0"
     inkscape:deskcolor="#d1d1d1"
     inkscape:document-units="px"
     showgrid="false"
     inkscape:zoom="50.5"
     inkscape:cx="8"
     inkscape:cy="8"
     inkscape:window-width="1920"
     inkscape:window-height="1010"
     inkscape:window-x="0"
     inkscape:window-y="0"
     inkscape:window-maximized="1"
     inkscape:current-layer="svg5"
     showguides="false" />
  <defs
     id="defs2">
    <linearGradient
       inkscape:collect="always"
       id="linearGradient70845">
      <stop
         style="stop-color:#cd4e41;stop-opacity:1"
         offset="0"
         id="stop70841-7" />
      <stop
         style="stop-color:#a72d0e;stop-opacity:1"
         offset="1"
         id="stop70843-0" />
    </linearGradient>
    <linearGradient
       inkscape:collect="always"
       xlink:href="#linearGradient70845"
       id="linearGradient15644"
       x1="11"
       y1="5"
       x2="13"
       y2="13.999999"
       gradientUnits="userSpaceOnUse" />
    <linearGradient
       inkscape:collect="always"
       id="linearGradient10541">
      <stop
         style="stop-color:#f1764d;stop-opacity:1"
         offset="0"
         id="stop10537" />
      <stop
         style="stop-color:#f56652;stop-opacity:1"
         offset="1"
         id="stop10539" />
    </linearGradient>
    <linearGradient
       inkscape:collect="always"
       xlink:href="#linearGradient10541"
       id="linearGradient18975"
       x1="15"
       y1="4"
       x2="11"
       y2="5"
       gradientUnits="userSpaceOnUse" />
    <linearGradient
       inkscape:collect="always"
       xlink:href="#linearGradient10541"
       id="linearGradient18983"
       x1="6"
       y1="0"
       x2="13"
       y2="4"
       gradientUnits="userSpaceOnUse" />
    <linearGradient
       inkscape:collect="always"
       xlink:href="#linearGradient10541"
       id="linearGradient18985"
       x1="3"
       y1="1"
       x2="3"
       y2="3"
       gradientUnits="userSpaceOnUse" />
    <linearGradient
       inkscape:collect="always"
       id="linearGradient10535">
      <stop
         style="stop-color:#a2362a;stop-opacity:1"
         offset="0"
         id="stop10531" />
      <stop
         style="stop-color:#7a2826;stop-opacity:1"
         offset="1"
         id="stop10533" />
    </linearGradient>
    <linearGradient
       inkscape:collect="always"
       xlink:href="#linearGradient10535"
       id="linearGradient21953"
       x1="13"
       y1="4"
       x2="11.784483"
       y2="9.7586203"
       gradientUnits="userSpaceOnUse" />
    <linearGradient
       inkscape:collect="always"
       xlink:href="#linearGradient10535"
       id="linearGradient21961"
       x1="3"
       y1="3"
       x2="5"
       y2="3.978153"
       gradientUnits="userSpaceOnUse" />
    <linearGradient
       inkscape:collect="always"
       id="linearGradient56461">
      <stop
         style="stop-color:#ff6843;stop-opacity:1"
         offset="0"
         id="stop56457-9" />
      <stop
         style="stop-color:#d3322b;stop-opacity:1"
         offset="1"
         id="stop56459-1" />
    </linearGradient>
    <linearGradient
       inkscape:collect="always"
       xlink:href="#linearGradient56461"
       id="linearGradient23477"
       x1="3"
       y1="3"
       x2="11"
       y2="15"
       gradientUnits="userSpaceOnUse" />
  </defs>
  <path
     id="rect3961"
     style="fill:url(#linearGradient18985);fill-opacity:1;stroke-width:0.27586"
     d="M 1,2 3,1 5,2 4.7961589,3.9781531 3,3 Z"
     sodipodi:nodetypes="cccccc" />
  <path
     id="rect2034"
     style="fill:url(#linearGradient21961);fill-opacity:1;stroke-width:0.27586"
     d="M 3,3 5,2 7,11 3,13 Z"
     sodipodi:nodetypes="ccccc" />
  <path
     id="rect2627"
     style="fill:url(#linearGradient21953);fill-opacity:1;stroke-width:0.27586"
     d="m 5,2 8,2 V 14 L 5,12 Z"
     sodipodi:nodetypes="ccccc" />
  <path
     id="rect45418"
     style="fill:url(#linearGradient23477);stroke-width:0.190529;fill-opacity:1"
     d="M 3,3 11,5 12.568965,4.5172414 11,15 3,13 Z"
     sodipodi:nodetypes="cccccc" />
  <path
     id="path7481"
     style="opacity:0.6;fill:#ffffff;fill-opacity:1;stroke-width:0.428568;stroke-linecap:round;stroke-linejoin:round"
     d="M 4.625 8 C 3.9933272 8.001361 3.4364398 8.1855511 3 8.5214844 L 3 9.3964844 C 3.6071549 8.9721079 4.5527435 8.7400131 6 9.2578125 C 6.2932917 9.3645644 6.5777814 9.5115222 6.8457031 9.6875 L 7.6230469 9.1914062 C 7.1273004 8.7907937 6.5774054 8.4679723 6 8.2578125 C 5.5167518 8.0819247 5.0538513 7.999066 4.625 8 z M 8.6425781 9.9570312 L 6.3242188 11.431641 C 6.2199129 11.357631 6.1103589 11.298246 6 11.257812 C 5.4474465 11.0567 4.9996192 11.341843 5 11.894531 C 5.0003806 12.446685 5.4479849 13.056896 6 13.257812 C 6.5521714 13.458786 6.999841 13.175158 7 12.623047 C 6.999795 12.559677 6.9926287 12.494276 6.9804688 12.427734 L 9.3496094 10.921875 L 8.6425781 9.9570312 z M 9.7089844 12.107422 L 8.9160156 12.611328 C 8.9709356 12.85832 9 13.105732 9 13.349609 L 10 13.714844 C 10 13.184006 9.8967472 12.639255 9.7089844 12.107422 z " />
  <path
     id="rect1571"
     style="fill:url(#linearGradient15644);stroke-width:0.237575;fill-opacity:1"
     d="m 11,5 2,-1 v 9.999999 l -2,1 z"
     sodipodi:nodetypes="ccccc" />
  <path
     id="rect4424"
     style="fill:url(#linearGradient18975);fill-opacity:1;stroke-width:0.27586"
     d="m 13,4 h 2 l -2,1 h -2 z"
     sodipodi:nodetypes="ccccc" />
  <path
     id="rect4774"
     style="fill:url(#linearGradient18983);fill-opacity:1;stroke-width:0.248092"
     d="M 6,0 14,2 13,4 5,2 Z"
     sodipodi:nodetypes="ccccc" />
</svg>
