<?xml version="1.0" encoding="UTF-8" standalone="no"?>
<!-- Created with Inkscape (http://www.inkscape.org/) -->

<svg
   width="16"
   height="16"
   viewBox="0 0 16 16.000001"
   version="1.1"
   id="svg5"
   inkscape:version="1.2.1 (9c6d41e410, 2022-07-14, custom)"
   sodipodi:docname="text-x-html.svg"
   xmlns:inkscape="http://www.inkscape.org/namespaces/inkscape"
   xmlns:sodipodi="http://sodipodi.sourceforge.net/DTD/sodipodi-0.dtd"
   xmlns:xlink="http://www.w3.org/1999/xlink"
   xmlns="http://www.w3.org/2000/svg"
   xmlns:svg="http://www.w3.org/2000/svg">
  <sodipodi:namedview
     id="namedview7"
     pagecolor="#ffffff"
     bordercolor="#000000"
     borderopacity="0.25"
     inkscape:showpageshadow="2"
     inkscape:pageopacity="0.0"
     inkscape:pagecheckerboard="0"
     inkscape:deskcolor="#d1d1d1"
     inkscape:document-units="px"
     showgrid="false"
     inkscape:zoom="50.625"
     inkscape:cx="8"
     inkscape:cy="8"
     inkscape:window-width="1920"
     inkscape:window-height="1012"
     inkscape:window-x="0"
     inkscape:window-y="0"
     inkscape:window-maximized="1"
     inkscape:current-layer="svg5" />
  <defs
     id="defs2">
    <linearGradient
       inkscape:collect="always"
       xlink:href="#linearGradient984"
       id="linearGradient7450"
       x1="13.809379"
       y1="13.973848"
       x2="2.3889806"
       y2="3.7831419"
       gradientUnits="userSpaceOnUse"
       gradientTransform="matrix(0.52131415,0,0,0.52131415,3.5862066,4.586208)" />
    <linearGradient
       inkscape:collect="always"
       id="linearGradient984">
      <stop
         style="stop-color:#117bb9;stop-opacity:1;"
         offset="0"
         id="stop980" />
      <stop
         style="stop-color:#15b393;stop-opacity:1"
         offset="1"
         id="stop982" />
    </linearGradient>
  </defs>
  <path
     id="rect234"
     style="fill:#7d7d7b"
     d="m 2,0 h 9.5 L 14,2.5 V 16 H 2 Z"
     sodipodi:nodetypes="cccccc" />
  <path
     id="rect1746"
     style="fill:#fafafa"
     d="m 3,1 h 7 v 2 h 3 V 15 H 3 Z"
     sodipodi:nodetypes="ccccccc" />
  <path
     id="rect1800"
     style="fill:#fafafa;stroke-width:0.25"
     d="m 11,1 1,1.0000003 h -1 z"
     sodipodi:nodetypes="cccc" />
  <circle
     style="fill:url(#linearGradient7450);fill-opacity:1;stroke-width:0.587335;stroke-linecap:round;stroke-linejoin:round"
     id="path7362"
     cx="8"
     cy="9"
     r="4" />
  <path
     id="path1250"
     style="opacity:0.3;fill:#ffffff;stroke-width:2;stroke-linecap:round"
     d="m 7.9999996,5 a 1,4 0 0 1 0.865234,2 h -1.728515 a 1,4 0 0 1 0.863281,-2 z m 0,0 A 4,4 0 0 0 6.6953116,5.228516 2,5 0 0 0 6.1699216,7 h -1.623047 a 4,4 0 0 0 -0.412109,1 h 1.910156 a 2,5 0 0 0 -0.044922,1 2,5 0 0 0 0.04492,1 h -1.910156 a 4,4 0 0 0 0.412109,1 h 1.623047 a 2,5 0 0 0 0.52539,1.771484 A 4,4 0 0 0 7.9999996,13 1,4 0 0 1 7.1367186,11 h 1.726562 A 1,4 0 0 1 7.9999996,13 4,4 0 0 0 9.3046876,12.771484 2,5 0 0 0 9.8300776,11 h 1.6230474 a 4,4 0 0 0 0.412109,-1 H 9.9550779 a 2,5 0 0 0 0.04492,-1 2,5 0 0 0 -0.04102,-1 H 11.873041 A 4,4 0 0 0 11.462885,7 H 9.8320306 A 2,5 0 0 0 9.3027336,5.21875 4,4 0 0 0 7.9999996,5 Z m -0.966797,3 h 1.935547 a 1,4 0 0 1 0.03125,1 1,4 0 0 1 -0.0332,1 h -1.933597 a 1,4 0 0 1 -0.033203,-1 1,4 0 0 1 0.0332,-1 z" />
</svg>
