<?xml version="1.0" encoding="UTF-8" standalone="no"?>
<!-- Created with Inkscape (http://www.inkscape.org/) -->

<svg
   width="16"
   height="16"
   viewBox="0 0 16 16.000001"
   version="1.1"
   id="svg5"
   inkscape:version="1.2.2 (1:1.2.2+202305151914+b0a8486541)"
   sodipodi:docname="text-x-python.svg"
   xmlns:inkscape="http://www.inkscape.org/namespaces/inkscape"
   xmlns:sodipodi="http://sodipodi.sourceforge.net/DTD/sodipodi-0.dtd"
   xmlns="http://www.w3.org/2000/svg"
   xmlns:svg="http://www.w3.org/2000/svg">
  <sodipodi:namedview
     id="namedview7"
     pagecolor="#ffffff"
     bordercolor="#000000"
     borderopacity="0.25"
     inkscape:showpageshadow="2"
     inkscape:pageopacity="0.0"
     inkscape:pagecheckerboard="0"
     inkscape:deskcolor="#d1d1d1"
     inkscape:document-units="px"
     showgrid="false"
     inkscape:zoom="51.875"
     inkscape:cx="7.9903614"
     inkscape:cy="8"
     inkscape:window-width="1920"
     inkscape:window-height="1008"
     inkscape:window-x="0"
     inkscape:window-y="0"
     inkscape:window-maximized="1"
     inkscape:current-layer="svg5" />
  <defs
     id="defs2" />
  <path
     id="rect234"
     style="fill:#7d7d7b"
     d="m 2,0 h 9.5 L 14,2.5 V 16 H 2 Z"
     sodipodi:nodetypes="cccccc" />
  <path
     id="rect1746"
     style="fill:#fafafa"
     d="m 3,1 h 7 v 2 h 3 V 15 H 3 Z"
     sodipodi:nodetypes="ccccccc" />
  <path
     id="rect1800"
     style="fill:#fafafa;stroke-width:0.25"
     d="m 11,1 1,1.0000003 h -1 z"
     sodipodi:nodetypes="cccc" />
  <path
     d="M 7.75,5 C 6.7801406,5 5.8598723,5.6159009 5.9199219,6.2792969 V 7.1542968 H 5.25 C 4.5599952,7.1542968 4,7.7491328 4,8.681641 v 0.68164 C 4,10.296076 4.5615756,10.953642 5.25,11 H 6 V 10.083984 C 6,9.549904 6.4449839,8.9999997 7,8.9999997 h 2 c 0,0 0.9999999,-0.07765 0.9999999,-1.0390619 V 6.2792969 C 9.9999999,5.6160035 9.2198806,5 8.25,5 Z M 7.5,6 C 7.7759999,6 8,6.224 8,6.5 8,6.7759998 7.7759999,6.9999998 7.5,6.9999998 7.224,6.9999998 7,6.7759998 7,6.5 7,6.224 7.224,6 7.5,6 Z"
     style="fill:#4584d6;fill-opacity:1"
     id="path4526" />
  <path
     d="M 9.9999999,6.9999999 V 7.9609376 C 9.9999999,8.9223437 9,8.9999997 9,8.9999997 H 6.9999998 c -0.081158,0 -0.1531089,0.03292 -0.2285156,0.05469 -0.067235,0.01918 -0.1395538,0.04524 -0.21875,0.08398 -0.3251433,0.194141 -0.5527344,0.56867 -0.5527344,0.9453143 V 11 11.720703 c 0,0.663294 0.7801193,1.279297 1.75,1.279297 h 0.5 c 0.9698591,0 1.8100502,-0.615798 1.7500001,-1.279297 v -0.875 H 10.75 c 0.689877,0 1.25,-0.596502 1.25,-1.529297 V 8.636719 C 12,7.7044164 11.438258,7.0472444 10.75,6.9999999 Z M 8.4980466,11 C 8.7743216,11 9,11.226216 9,11.501953 9,11.777692 8.7743216,12 8.4980466,12 8.2217716,12 7.9999997,11.777692 7.9999998,11.501953 7.9999998,11.226216 8.2217716,11 8.4980466,11 Z"
     style="fill:#ffde57;fill-opacity:1"
     id="path4554" />
</svg>
