<?xml version="1.0" encoding="UTF-8" standalone="no"?>
<!-- Created with Inkscape (http://www.inkscape.org/) -->

<svg
   width="16"
   height="16"
   viewBox="0 0 16 16.000001"
   version="1.1"
   id="svg5"
   inkscape:version="1.2.1 (9c6d41e410, 2022-07-14, custom)"
   sodipodi:docname="text-rust.svg"
   xmlns:inkscape="http://www.inkscape.org/namespaces/inkscape"
   xmlns:sodipodi="http://sodipodi.sourceforge.net/DTD/sodipodi-0.dtd"
   xmlns:xlink="http://www.w3.org/1999/xlink"
   xmlns="http://www.w3.org/2000/svg"
   xmlns:svg="http://www.w3.org/2000/svg">
  <sodipodi:namedview
     id="namedview7"
     pagecolor="#ffffff"
     bordercolor="#000000"
     borderopacity="0.25"
     inkscape:showpageshadow="2"
     inkscape:pageopacity="0.0"
     inkscape:pagecheckerboard="0"
     inkscape:deskcolor="#d1d1d1"
     inkscape:document-units="px"
     showgrid="false"
     inkscape:zoom="51.6875"
     inkscape:cx="7.2551391"
     inkscape:cy="7.9903265"
     inkscape:window-width="1920"
     inkscape:window-height="1010"
     inkscape:window-x="0"
     inkscape:window-y="0"
     inkscape:window-maximized="1"
     inkscape:current-layer="svg5" />
  <defs
     id="defs2">
    <linearGradient
       inkscape:collect="always"
       id="linearGradient1291">
      <stop
         style="stop-color:#333333;stop-opacity:1;"
         offset="0"
         id="stop1287" />
      <stop
         style="stop-color:#683f2b;stop-opacity:1"
         offset="1"
         id="stop1289" />
    </linearGradient>
    <linearGradient
       inkscape:collect="always"
       xlink:href="#linearGradient1291"
       id="linearGradient5280"
       x1="4"
       y1="5.5"
       x2="12"
       y2="13.5"
       gradientUnits="userSpaceOnUse" />
  </defs>
  <path
     id="rect234"
     style="fill:#7d7d7b"
     d="m 2,0 h 9.5 L 14,2.5 V 16 H 2 Z"
     sodipodi:nodetypes="cccccc" />
  <path
     id="rect1746"
     style="fill:#fafafa"
     d="m 3,1 h 7 v 2 h 3 V 15 H 3 Z"
     sodipodi:nodetypes="ccccccc" />
  <path
     id="rect1800"
     style="fill:#fafafa;stroke-width:0.25"
     d="m 11,1 1,1.0000003 h -1 z"
     sodipodi:nodetypes="cccc" />
  <path
     d="M 5,11 H 4 v 1 H 8 V 11 H 7 v -1 0 c 1,0 1,2 2,2 h 2 c 1,0 1,-2 1,-2 h -1 c 0,0 0,1 -1,1 C 9.5000001,11 9,10 9,10 H 9.5000001 C 10.331,10 11,9.3 11,8.5 11,7.7 10.331,7 9.5000001,7 H 4 V 8 H 5 M 7,8 H 8.5 C 8.777,8 9,8.2 9,8.5 9,8.8 8.777,9 8.5,9 H 7 Z"
     style="fill:url(#linearGradient5280);fill-opacity:1"
     id="path1267" />
</svg>
