<?xml version="1.0" encoding="UTF-8" standalone="no"?>
<!-- Created with Inkscape (http://www.inkscape.org/) -->

<svg
   width="16"
   height="16"
   viewBox="0 0 16 16.000001"
   version="1.1"
   id="svg5"
   inkscape:version="1.2.1 (9c6d41e410, 2022-07-14, custom)"
   sodipodi:docname="text-x-java.svg"
   xmlns:inkscape="http://www.inkscape.org/namespaces/inkscape"
   xmlns:sodipodi="http://sodipodi.sourceforge.net/DTD/sodipodi-0.dtd"
   xmlns:xlink="http://www.w3.org/1999/xlink"
   xmlns="http://www.w3.org/2000/svg"
   xmlns:svg="http://www.w3.org/2000/svg">
  <sodipodi:namedview
     id="namedview7"
     pagecolor="#ffffff"
     bordercolor="#000000"
     borderopacity="0.25"
     inkscape:showpageshadow="2"
     inkscape:pageopacity="0.0"
     inkscape:pagecheckerboard="0"
     inkscape:deskcolor="#d1d1d1"
     inkscape:document-units="px"
     showgrid="false"
     inkscape:zoom="50.125"
     inkscape:cx="8"
     inkscape:cy="8"
     inkscape:window-width="1920"
     inkscape:window-height="1011"
     inkscape:window-x="0"
     inkscape:window-y="0"
     inkscape:window-maximized="1"
     inkscape:current-layer="svg5" />
  <defs
     id="defs2">
    <linearGradient
       inkscape:collect="always"
       xlink:href="#linearGradient1221"
       id="linearGradient1223"
       x1="16.156954"
       y1="19.655781"
       x2="22.000704"
       y2="26.999916"
       gradientUnits="userSpaceOnUse"
       gradientTransform="matrix(0.66662758,0,0,0.66662758,-2.6662756,-3.945914)" />
    <linearGradient
       inkscape:collect="always"
       id="linearGradient1221">
      <stop
         style="stop-color:#4d86da;stop-opacity:0.99996549;"
         offset="0"
         id="stop1217" />
      <stop
         style="stop-color:#1655c3;stop-opacity:0.99996549;"
         offset="1"
         id="stop1219" />
    </linearGradient>
    <linearGradient
       inkscape:collect="always"
       xlink:href="#linearGradient1229"
       id="linearGradient1231"
       x1="19.629608"
       y1="20.226093"
       x2="17.762423"
       y2="10.73"
       gradientUnits="userSpaceOnUse"
       gradientTransform="matrix(0.66662758,0,0,0.66662758,-2.6662756,-3.945914)" />
    <linearGradient
       inkscape:collect="always"
       id="linearGradient1229">
      <stop
         style="stop-color:#fa7800;stop-opacity:1;"
         offset="0"
         id="stop1225" />
      <stop
         style="stop-color:#faa500;stop-opacity:1;"
         offset="1"
         id="stop1227" />
    </linearGradient>
  </defs>
  <path
     id="rect234"
     style="fill:#7d7d7b"
     d="m 2,0 h 9.5 L 14,2.5 V 16 H 2 Z"
     sodipodi:nodetypes="cccccc" />
  <path
     id="rect1746"
     style="fill:#fafafa"
     d="m 3,1 h 7 v 2 h 3 V 15 H 3 Z"
     sodipodi:nodetypes="ccccccc" />
  <path
     id="rect1800"
     style="fill:#fafafa;stroke-width:0.25"
     d="m 11,1 1,1.0000003 h -1 z"
     sodipodi:nodetypes="cccc" />
  <path
     d="m 6.7411935,9.098581 c -0.022867,-5.33e-4 -0.055716,1.7e-4 -0.098952,0.0013 -0.2594329,0.0068 -0.8667,0.06229 -1.5728244,0.403622 -1.1132765,0.538517 2.7531545,0.78427 4.7549292,0.257801 0.2081137,-0.142105 0.4960647,-0.265609 0.4960647,-0.265609 0,0 -0.8182247,0.146015 -1.6340189,0.214831 C 7.6881801,9.794166 6.616049,9.811141 6.0784726,9.739166 4.8052877,9.569143 6.7763477,9.09988 6.7763477,9.09988 c 0,0 -0.012293,-8e-4 -0.035151,-0.0013 z m 4.3617235,0.106765 c -0.130433,3.52e-4 -0.269337,0.02425 -0.411434,0.07421 -0.114128,0.04052 -0.174469,0.132805 -0.174469,0.132804 0,0 0.0721,-0.02899 0.233059,-0.0625 0.656705,-0.136901 1.597422,0.879975 -0.437474,1.937386 -0.0094,0.02517 -0.04166,0.05342 -0.04166,0.05338 2.377992,-0.625135 1.911098,-2.084935 0.886666,-2.133989 -0.01829,-8.89e-4 -0.03605,-0.0013 -0.05468,-0.0013 z m -4.7861778,1.302007 c -1.8371599,0.609755 1.0225093,1.30141 3.5896333,0.550748 C 9.6335054,10.961893 9.459784,10.785982 9.459784,10.785982 8.2051636,11.027569 7.4809308,11.020014 6.5628188,10.925297 5.8528495,10.851861 6.3167392,10.507353 6.3167392,10.507353 Z m 0.2604014,1.093686 c -1.6676924,0.465984 1.0145973,1.429485 3.1378372,0.5195 C 9.3672134,11.985304 9.1186583,11.82889 9.1186583,11.82889 8.1715179,12.00815 7.7308641,12.020684 6.8713948,11.922635 6.161953,11.841073 6.5771406,11.601039 6.5771406,11.601039 Z m -1.0780618,0.854117 c -0.7166911,-0.02762 -2.3446377,0.688858 -0.9556733,0.914008 4.3290363,0.702046 7.8920285,-0.316365 6.7691345,-0.822868 0,0 0.307295,0.252376 -0.33722,0.44789 -1.2255622,0.371267 -5.1014643,0.48421 -6.1780229,0.01563 C 4.4103015,12.84146 5.1353851,12.607044 5.3636704,12.55802 5.6017495,12.50639 5.7386482,12.51636 5.7386482,12.51636 5.6848512,12.47846 5.6014628,12.4591 5.4990788,12.45516 Z M 12,13.025434 c 0,0 -0.136786,0.350623 -1.614489,0.62887 -1.6671363,0.313735 -3.7228775,0.276585 -4.9424188,0.07552 3.02e-5,-2.9e-5 0.250028,0.206724 1.5337648,0.289046 C 8.9301032,14.143899 11.928962,13.949656 12,13.025434 Z"
     style="fill:url(#linearGradient1223);fill-opacity:1;stroke-width:0.666627"
     id="path370" />
  <path
     d="M 9.1746449,3.207 C 9.6293454,4.9977071 7.5711668,5.5394204 6.8284286,6.6547146 6.3223935,7.4144968 7.0765699,8.2298216 8.1043947,9.157172 7.7035912,8.2512781 6.3435704,7.4580954 8.1043947,6.0675088 10.300223,4.3339826 9.1746449,3.207 9.1746449,3.207 Z m 1.2447181,2.2147133 c 0,0 -3.7121175,0.9277493 -1.9386883,2.9711808 0.5231662,0.6023297 -0.1380124,1.1444639 -0.1380124,1.1444639 0,0 1.3287848,-0.6854422 0.718708,-1.5441808 C 8.4915774,7.1923501 8.0538645,6.7936199 10.419363,5.4217133 Z"
     style="fill:url(#linearGradient1231);fill-opacity:1;stroke-width:0.666627"
     id="path454" />
</svg>
