<?xml version="1.0" encoding="UTF-8" standalone="no"?>
<!-- Created with Inkscape (http://www.inkscape.org/) -->

<svg
   width="16"
   height="16"
   viewBox="0 0 16 16.000001"
   version="1.1"
   id="svg5"
   inkscape:version="1.3.2 (091e20ef0f, 2023-11-25, custom)"
   sodipodi:docname="text-x-ruby.svg"
   xmlns:inkscape="http://www.inkscape.org/namespaces/inkscape"
   xmlns:sodipodi="http://sodipodi.sourceforge.net/DTD/sodipodi-0.dtd"
   xmlns="http://www.w3.org/2000/svg"
   xmlns:svg="http://www.w3.org/2000/svg">
  <sodipodi:namedview
     id="namedview7"
     pagecolor="#ffffff"
     bordercolor="#000000"
     borderopacity="0.25"
     inkscape:showpageshadow="2"
     inkscape:pageopacity="0.0"
     inkscape:pagecheckerboard="0"
     inkscape:deskcolor="#d1d1d1"
     inkscape:document-units="px"
     showgrid="false"
     inkscape:zoom="50.5"
     inkscape:cx="8"
     inkscape:cy="8"
     inkscape:window-width="1920"
     inkscape:window-height="1012"
     inkscape:window-x="0"
     inkscape:window-y="0"
     inkscape:window-maximized="1"
     inkscape:current-layer="svg5" />
  <defs
     id="defs2" />
  <path
     id="rect234"
     style="fill:#7d7d7b"
     d="m 2,0 h 9.5 L 14,2.5 V 16 H 2 Z"
     sodipodi:nodetypes="cccccc" />
  <path
     id="rect1746"
     style="fill:#fafafa"
     d="m 3,1 h 7 v 2 h 3 V 15 H 3 Z"
     sodipodi:nodetypes="ccccccc" />
  <path
     d="M 11.998389,6.7818973 11.554354,12.554354 5.7818976,12.998389 Z"
     style="fill:#bf2336;stroke-width:0.222018"
     id="path1" />
  <path
     d="m 8.8901434,9.890143 2.6642106,2.664211 0.444035,-5.7724567 z"
     style="fill:#b31523;stroke-width:0.222018"
     id="path2" />
  <path
     d="M 6.1815292,7.1815289 C 4.2055729,9.135283 3.428511,11.533073 4.4497922,12.554354 5.471073,13.575635 7.8688626,12.798573 9.8226171,10.844819 11.776372,8.8910641 12.575635,6.4710727 11.554354,5.4497919 10.533073,4.4285112 8.1352837,5.2055726 6.1815292,7.1815289 Z"
     style="fill:#cf1928;stroke-width:0.222018"
     id="path3" />
  <path
     d="M 4.8938274,7.4479499 6.4479502,5.8938271 8.2240907,5.0057568 9.556196,5.8938271 8.8901434,7.8919851 6.8919854,9.668126 4.8938274,10.334178 4.0057571,9.002073 Z"
     style="fill:#d9414f;stroke-width:0.222018"
     id="path4" />
  <path
     d="M 9.556196,5.8938271 8.2240907,5.0057568 H 10.666284 Z M 11.998389,7.0039148 9.556196,5.8938271 8.8901434,7.8919851 Z M 6.8919854,9.668126 9.8226171,10.822617 8.8901434,7.8919851 Z m -1.998158,0.666052 0.8880702,2.664211 1.1100878,-3.330263 z M 4.0057571,9.002073 v 2.442193 l 0.8880703,-1.110088 z"
     style="fill:#eb6773;stroke-width:0.222018"
     id="path5" />
  <path
     id="rect1800"
     style="fill:#fafafa;stroke-width:0.25"
     d="m 11,1 1,1.0000003 h -1 z"
     sodipodi:nodetypes="cccc" />
</svg>
