<?xml version="1.0" encoding="UTF-8" standalone="no"?>
<!-- Created with Inkscape (http://www.inkscape.org/) -->

<svg
   width="16"
   height="16"
   viewBox="0 0 16 16.000001"
   version="1.1"
   id="svg5"
   inkscape:version="1.2.1 (9c6d41e410, 2022-07-14, custom)"
   sodipodi:docname="x-office-spreadsheet-template.svg"
   xmlns:inkscape="http://www.inkscape.org/namespaces/inkscape"
   xmlns:sodipodi="http://sodipodi.sourceforge.net/DTD/sodipodi-0.dtd"
   xmlns="http://www.w3.org/2000/svg"
   xmlns:svg="http://www.w3.org/2000/svg">
  <sodipodi:namedview
     id="namedview7"
     pagecolor="#ffffff"
     bordercolor="#000000"
     borderopacity="0.25"
     inkscape:showpageshadow="2"
     inkscape:pageopacity="0.0"
     inkscape:pagecheckerboard="0"
     inkscape:deskcolor="#d1d1d1"
     inkscape:document-units="px"
     showgrid="false"
     inkscape:zoom="53.3125"
     inkscape:cx="7.2497069"
     inkscape:cy="8.0187573"
     inkscape:window-width="1920"
     inkscape:window-height="1029"
     inkscape:window-x="0"
     inkscape:window-y="0"
     inkscape:window-maximized="1"
     inkscape:current-layer="svg5" />
  <defs
     id="defs2" />
  <path
     id="rect234"
     style="fill:#7d7d7b"
     d="m 2,0 h 9.5 L 14,2.5 V 16 H 2 Z"
     sodipodi:nodetypes="cccccc" />
  <path
     id="rect1746"
     style="fill:#fafafa"
     d="m 3,1 h 7 v 2 h 3 V 15 H 3 Z"
     sodipodi:nodetypes="ccccccc" />
  <path
     id="rect1800"
     style="fill:#fafafa;stroke-width:0.25"
     d="m 11,1 1,1.0000003 h -1 z"
     sodipodi:nodetypes="cccc" />
  <path
     id="rect7746"
     style="fill:#c0c5cb;fill-opacity:1;stroke-width:0.816497;stroke-linecap:round"
     d="M 4,6 V 8 H 6 V 6 Z m 0,6 v 2 h 2 v -2 z"
     sodipodi:nodetypes="cccccccccc" />
  <path
     id="rect7837"
     style="fill:#67c451;stroke-linecap:round;fill-opacity:1"
     d="M 7,6 V 8 H 9 V 6 Z m 3,0 v 2 h 2 V 6 Z M 4,9 v 2 H 6 V 9 Z m 3,0 v 2 H 9 V 9 Z m 3,0 v 2 h 2 V 9 Z m -3,3 v 2 h 2 v -2 z m 3,0 v 2 h 2 v -2 z"
     sodipodi:nodetypes="ccccccccccccccccccccccccccccccccccc" />
  <rect
     style="fill:#a0e68e;fill-opacity:1;stroke-linecap:round"
     id="rect573"
     width="12"
     height="4"
     x="2"
     y="0" />
  <path
     d="M 2.0000001,2.9999995 V 4 H 14 V 2.9999995 Z"
     style="fill:#67c451;fill-opacity:1;stroke-width:1.12063;stroke-linecap:round;stroke-linejoin:round"
     id="path711" />
</svg>
