<?xml version="1.0" encoding="UTF-8" standalone="no"?>
<svg
   height="22"
   width="22"
   version="1.1"
   id="svg22"
   sodipodi:docname="nm-stage01-connecting11.svg"
   inkscape:version="1.2.1 (9c6d41e410, 2022-07-14, custom)"
   xmlns:inkscape="http://www.inkscape.org/namespaces/inkscape"
   xmlns:sodipodi="http://sodipodi.sourceforge.net/DTD/sodipodi-0.dtd"
   xmlns:xlink="http://www.w3.org/1999/xlink"
   xmlns="http://www.w3.org/2000/svg"
   xmlns:svg="http://www.w3.org/2000/svg">
  <sodipodi:namedview
     id="namedview24"
     pagecolor="#ffffff"
     bordercolor="#000000"
     borderopacity="0.25"
     inkscape:showpageshadow="2"
     inkscape:pageopacity="0.0"
     inkscape:pagecheckerboard="0"
     inkscape:deskcolor="#d1d1d1"
     showgrid="false"
     inkscape:zoom="38.772727"
     inkscape:cx="11"
     inkscape:cy="11"
     inkscape:window-width="1920"
     inkscape:window-height="1029"
     inkscape:window-x="0"
     inkscape:window-y="0"
     inkscape:window-maximized="1"
     inkscape:current-layer="svg22" />
  <defs
     id="defs14">
    <linearGradient
       id="a">
      <stop
         offset="0"
         stop-color="#dbdee0"
         id="stop2" />
      <stop
         offset="1"
         stop-color="#dbdee0"
         stop-opacity="0"
         id="stop4" />
    </linearGradient>
    <linearGradient
       id="b">
      <stop
         offset="0"
         stop-color="#dbdee0"
         id="stop7" />
      <stop
         offset="1"
         stop-color="#dbdee0"
         stop-opacity="0"
         id="stop9" />
    </linearGradient>
    <linearGradient
       gradientTransform="matrix(-0.5,0.8660254,0.8660254,0.5,551.43712,387.65311)"
       gradientUnits="userSpaceOnUse"
       xlink:href="#b"
       id="d"
       x1="5.875"
       x2="3.875"
       y1="31.125"
       y2="4.125" />
    <linearGradient
       gradientTransform="rotate(-60,623.482,-263.118)"
       gradientUnits="userSpaceOnUse"
       xlink:href="#a"
       id="c"
       x1="12"
       x2="23"
       y1="6"
       y2="10" />
  </defs>
  <g
     font-weight="400"
     color="#000000"
     font-family="Sans"
     id="g20"
     transform="translate(-0.9997971,-0.9997971)">
    <path
       d="m 549.072,400 c -2.203,3.816 -0.888,8.725 2.928,10.928 3.816,2.203 8.725,0.888 10.928,-2.928 l -1.732,-1 A 5.985,5.985 0 0 1 553,409.196 5.985,5.985 0 0 1 550.804,401 a 1,1 0 1 0 -1.732,-1 z"
       style="line-height:normal;-inkscape-font-specification:Sans;text-indent:0;text-align:start;text-transform:none;fill:url(#c);marker:none"
       fill="url(#c)"
       overflow="visible"
       transform="translate(-544,-392)"
       id="path16" />
    <path
       d="m 549.072,400 c 2.203,-3.816 7.112,-5.131 10.928,-2.928 3.816,2.203 5.131,7.112 2.928,10.928 l -1.732,-1 A 5.985,5.985 0 0 0 559,398.804 5.985,5.985 0 0 0 550.804,401 Z"
       style="line-height:normal;-inkscape-font-specification:Sans;text-indent:0;text-align:start;text-transform:none;fill:url(#d);marker:none"
       fill="url(#d)"
       overflow="visible"
       transform="translate(-544,-392)"
       id="path18" />
  </g>
</svg>
