<?xml version="1.0" encoding="UTF-8" standalone="no"?>
<!-- Created with Inkscape (http://www.inkscape.org/) -->

<svg
   width="32"
   height="32"
   viewBox="0 0 32 32"
   version="1.1"
   id="svg5"
   inkscape:version="1.2.1 (9c6d41e410, 2022-07-14, custom)"
   sodipodi:docname="applications-internet.svg"
   xmlns:inkscape="http://www.inkscape.org/namespaces/inkscape"
   xmlns:sodipodi="http://sodipodi.sourceforge.net/DTD/sodipodi-0.dtd"
   xmlns:xlink="http://www.w3.org/1999/xlink"
   xmlns="http://www.w3.org/2000/svg"
   xmlns:svg="http://www.w3.org/2000/svg">
  <sodipodi:namedview
     id="namedview7"
     pagecolor="#ffffff"
     bordercolor="#666666"
     borderopacity="1.0"
     inkscape:pageshadow="2"
     inkscape:pageopacity="0.0"
     inkscape:pagecheckerboard="0"
     inkscape:document-units="px"
     showgrid="false"
     units="px"
     height="16px"
     showguides="false"
     inkscape:zoom="25.25"
     inkscape:cx="16"
     inkscape:cy="16"
     inkscape:window-width="1920"
     inkscape:window-height="1010"
     inkscape:window-x="0"
     inkscape:window-y="0"
     inkscape:window-maximized="1"
     inkscape:current-layer="svg5"
     inkscape:showpageshadow="2"
     inkscape:deskcolor="#d1d1d1" />
  <defs
     id="defs2">
    <linearGradient
       inkscape:collect="always"
       xlink:href="#linearGradient984"
       id="linearGradient7450"
       x1="2.9104171"
       y1="3.1750004"
       x2="14.552084"
       y2="12.700001"
       gradientUnits="userSpaceOnUse"
       gradientTransform="matrix(1.8245995,0,0,1.8245995,0.55172521,0.55172434)" />
    <linearGradient
       inkscape:collect="always"
       id="linearGradient984">
      <stop
         style="stop-color:#26b4eb;stop-opacity:1;"
         offset="0"
         id="stop980" />
      <stop
         style="stop-color:#15b393;stop-opacity:1"
         offset="1"
         id="stop982" />
    </linearGradient>
    <linearGradient
       inkscape:collect="always"
       xlink:href="#linearGradient3933"
       id="linearGradient1747"
       x1="2.2695312"
       y1="10"
       x2="27.51137"
       y2="25.808783"
       gradientUnits="userSpaceOnUse" />
    <linearGradient
       inkscape:collect="always"
       id="linearGradient3933">
      <stop
         style="stop-color:#93daee;stop-opacity:1"
         offset="0"
         id="stop3929" />
      <stop
         style="stop-color:#afe5e3;stop-opacity:1"
         offset="1"
         id="stop3931" />
    </linearGradient>
  </defs>
  <circle
     style="fill:url(#linearGradient7450);fill-opacity:1;stroke-width:2.05567;stroke-linecap:round;stroke-linejoin:round"
     id="path7362"
     cx="16"
     cy="16"
     r="14" />
  <path
     id="path1292"
     style="opacity:0.6;fill:url(#linearGradient1747);fill-opacity:1;stroke-width:1.36626;stroke-linecap:round;stroke-linejoin:round"
     d="M 16.000001,2.0000006 A 14,14 0 0 0 2.0000008,16 14,14 0 0 0 16.000001,30 a 14,14 0 0 0 14,-14 14,14 0 0 0 -14,-13.9999994 z m 0,1 A 13,13 0 0 1 18.435548,3.2304693 6.0000001,14 0 0 1 21.419923,10 H 10.593751 A 6.0000001,14 0 0 1 13.570313,3.2382818 13,13 0 0 1 16.000001,3.0000006 Z M 12.121095,3.5976568 A 7.0000001,15 0 0 0 9.5937507,10 H 4.4707039 A 13,13 0 0 1 12.121095,3.5976568 Z m 7.771484,0 A 13,13 0 0 1 27.531251,10 H 22.414063 A 7.0000001,15 0 0 0 19.892579,3.5976568 Z M 4.0019539,11 h 5.4140624 a 7.0000001,15 0 0 0 -0.4160156,5 7.0000001,15 0 0 0 0.4160156,5 H 4.0019539 A 13,13 0 0 1 3.0000008,16 13,13 0 0 1 4.0019539,11 Z m 6.4023441,0 h 11.199218 a 6.0000001,14 0 0 1 0.396485,5 6.0000001,14 0 0 1 -0.404297,5 H 10.404298 a 6.0000001,14 0 0 1 -0.404297,-5 6.0000001,14 0 0 1 0.404297,-5 z m 12.195312,0 h 5.398437 a 13,13 0 0 1 1.001954,5 13,13 0 0 1 -1.001954,5 H 22.583985 A 7.0000001,15 0 0 0 23.000001,16 7.0000001,15 0 0 0 22.59961,11 Z M 4.4707039,22 H 9.5937507 A 7.0000001,15 0 0 0 12.121095,28.402343 13,13 0 0 1 4.4707039,22 Z m 6.1230471,0 h 10.8125 A 6.0000001,14 0 0 1 18.429688,28.761718 13,13 0 0 1 16.000001,29 13,13 0 0 1 13.570313,28.761718 6.0000001,14 0 0 1 10.593751,22 Z m 11.8125,0 h 5.123046 A 13,13 0 0 1 19.878907,28.402343 7.0000001,15 0 0 0 22.406251,22 Z" />
</svg>
