<?xml version="1.0" encoding="UTF-8" standalone="no"?>
<!-- Created with Inkscape (http://www.inkscape.org/) -->

<svg
   width="32"
   height="32"
   viewBox="0 0 32 32"
   version="1.1"
   id="svg5"
   inkscape:version="1.2.1 (9c6d41e410, 2022-07-14, custom)"
   sodipodi:docname="applications-office.svg"
   xmlns:inkscape="http://www.inkscape.org/namespaces/inkscape"
   xmlns:sodipodi="http://sodipodi.sourceforge.net/DTD/sodipodi-0.dtd"
   xmlns:xlink="http://www.w3.org/1999/xlink"
   xmlns="http://www.w3.org/2000/svg"
   xmlns:svg="http://www.w3.org/2000/svg">
  <sodipodi:namedview
     id="namedview7"
     pagecolor="#ffffff"
     bordercolor="#666666"
     borderopacity="1.0"
     inkscape:pageshadow="2"
     inkscape:pageopacity="0.0"
     inkscape:pagecheckerboard="0"
     inkscape:document-units="px"
     showgrid="false"
     units="px"
     height="16px"
     showguides="false"
     inkscape:zoom="25.84375"
     inkscape:cx="15.980653"
     inkscape:cy="16"
     inkscape:window-width="1920"
     inkscape:window-height="1029"
     inkscape:window-x="0"
     inkscape:window-y="0"
     inkscape:window-maximized="1"
     inkscape:current-layer="svg5"
     inkscape:showpageshadow="2"
     inkscape:deskcolor="#d1d1d1" />
  <defs
     id="defs2">
    <linearGradient
       inkscape:collect="always"
       xlink:href="#linearGradient984"
       id="linearGradient2759"
       x1="2.3812499"
       y1="2.6458335"
       x2="7.1437497"
       y2="9.5249996"
       gradientUnits="userSpaceOnUse"
       gradientTransform="matrix(3.7795275,0,0,3.7795275,-3.9999995,-5.0000001)" />
    <linearGradient
       inkscape:collect="always"
       id="linearGradient984">
      <stop
         style="stop-color:#26b4eb;stop-opacity:1;"
         offset="0"
         id="stop980" />
      <stop
         style="stop-color:#017adc;stop-opacity:1"
         offset="1"
         id="stop982" />
    </linearGradient>
    <linearGradient
       inkscape:collect="always"
       xlink:href="#linearGradient1353"
       id="linearGradient1355"
       x1="4.4979167"
       y1="0.5291667"
       x2="9.260416"
       y2="7.4083333"
       gradientUnits="userSpaceOnUse"
       gradientTransform="matrix(3.7795275,0,0,3.7795275,-8,-1.0000001)" />
    <linearGradient
       inkscape:collect="always"
       id="linearGradient1353">
      <stop
         style="stop-color:#fafafa;stop-opacity:1;"
         offset="0"
         id="stop1349" />
      <stop
         style="stop-color:#c7cdd1;stop-opacity:1"
         offset="1"
         id="stop1351" />
    </linearGradient>
    <linearGradient
       inkscape:collect="always"
       xlink:href="#linearGradient2287"
       id="linearGradient2289"
       x1="11.641666"
       y1="2.2489583"
       x2="12.336344"
       y2="1.4608934"
       gradientUnits="userSpaceOnUse"
       gradientTransform="matrix(3.7795275,0,0,3.7795275,-22,-1.0000001)" />
    <linearGradient
       inkscape:collect="always"
       id="linearGradient2287">
      <stop
         style="stop-color:#6b7c85;stop-opacity:1"
         offset="0"
         id="stop2283" />
      <stop
         style="stop-color:#92a0a7;stop-opacity:1"
         offset="1"
         id="stop2285" />
    </linearGradient>
    <linearGradient
       inkscape:collect="always"
       xlink:href="#linearGradient7005"
       id="linearGradient5921"
       x1="13.493751"
       y1="10.980208"
       x2="6.0854168"
       y2="4.630208"
       gradientUnits="userSpaceOnUse"
       gradientTransform="matrix(1.8897639,0,0,1.8897639,0.4999993,2.9999982)" />
    <linearGradient
       inkscape:collect="always"
       id="linearGradient7005">
      <stop
         style="stop-color:#0f7199;stop-opacity:1"
         offset="0"
         id="stop7001" />
      <stop
         style="stop-color:#78aed9;stop-opacity:1"
         offset="1"
         id="stop7003" />
    </linearGradient>
  </defs>
  <path
     id="rect846"
     style="fill:url(#linearGradient2759);stroke-width:4.10959;stroke-linecap:round;stroke-linejoin:round"
     d="m 7.0000001,5.0000001 h 7.9999989 l 8,7.9999999 v 15.999999 c 0,1.108 -0.892,2 -2.000001,2 H 7.0000001 C 5.8920003,30.999999 5,30.107999 5,28.999999 V 7 C 5,5.8920002 5.8920003,5.0000001 7.0000001,5.0000001 Z"
     sodipodi:nodetypes="sccssssss" />
  <path
     id="rect848"
     style="fill:url(#linearGradient1355);fill-opacity:1;stroke-width:4.10959;stroke-linecap:round;stroke-linejoin:round"
     d="M 11.000001,1 H 20 l 6.999998,6.9999992 V 24.999998 c 0,1.108002 -0.891998,2.000001 -1.999997,2.000001 h -14 C 9.892,26.999999 9,26.108 9,24.999998 V 3.0000001 C 9.000001,1.8920001 9.892,1 11.000001,1 Z"
     sodipodi:nodetypes="sccssssss" />
  <path
     d="m 12.500001,14 c -0.277002,0 -0.5,0.223 -0.5,0.5 0,0.277002 0.222999,0.5 0.5,0.5 H 17.5 c 0.277001,0 0.500001,-0.223 0.500001,-0.5 0,-0.277001 -0.223,-0.5 -0.500001,-0.5 z m 7.499998,0 C 19.723002,14 19.5,14.223 19.5,14.5 V 18 c 0,0.277002 0.223,0.5 0.499999,0.5 h 3.500002 C 23.777002,18.5 24,18.277001 24,18 V 14.5 C 24,14.222999 23.777001,14 23.500001,14 Z m -7.499998,3 c -0.277002,0 -0.5,0.223 -0.5,0.5 0,0.277002 0.222999,0.5 0.5,0.5 H 17.5 c 0.277001,0 0.500001,-0.222999 0.500001,-0.5 0,-0.276998 -0.223,-0.5 -0.500001,-0.5 z m 0,3 c -0.277002,0 -0.5,0.223 -0.5,0.5 0,0.277002 0.222999,0.500001 0.5,0.500001 h 11 C 23.777002,21.000001 24,20.777001 24,20.5 24,20.222999 23.777001,20 23.500001,20 Z m 0,3 c -0.277002,0 -0.5,0.223 -0.5,0.500002 0,0.276997 0.222999,0.499999 0.5,0.499999 h 11 C 23.777002,24.000001 24,23.777001 24,23.500002 24,23.223 23.777001,23 23.500001,23 Z"
     style="fill:#000000;fill-opacity:1;stroke-width:1.5;stroke-linecap:round;stroke-linejoin:round;opacity:0.1"
     id="path741" />
  <path
     id="rect1786"
     style="fill:url(#linearGradient2289);fill-opacity:1;stroke-width:3.99999;stroke-linecap:round;stroke-linejoin:round"
     d="m 20,1 7.000001,6.9999992 h -5 C 20.892002,7.9999992 20,7.1080002 20,5.9999995 Z"
     sodipodi:nodetypes="ccscc" />
  <path
     id="rect870"
     style="fill:url(#linearGradient5921);fill-opacity:1;stroke-width:1.5;stroke-linecap:round;stroke-linejoin:round"
     d="m 12.500001,12.999999 c -0.277002,0 -0.5,0.223 -0.5,0.5 0,0.277002 0.222999,0.5 0.5,0.5 H 17.5 c 0.277001,0 0.500001,-0.223 0.500001,-0.5 0,-0.277001 -0.223,-0.5 -0.500001,-0.5 z m 7.499998,0 c -0.276997,0 -0.499999,0.223 -0.499999,0.5 v 3.5 c 0,0.277002 0.223,0.5 0.499999,0.5 h 3.500002 C 23.777002,17.499999 24,17.277 24,16.999999 v -3.5 c 0,-0.277001 -0.222999,-0.5 -0.499999,-0.5 z m -7.499998,3 c -0.277002,0 -0.5,0.223 -0.5,0.5 0,0.277002 0.222999,0.5 0.5,0.5 H 17.5 c 0.277001,0 0.500001,-0.222999 0.500001,-0.5 0,-0.276998 -0.223,-0.5 -0.500001,-0.5 z m 0,3 c -0.277002,0 -0.5,0.223 -0.5,0.5 0,0.277002 0.222999,0.500001 0.5,0.500001 h 11 C 23.777002,20 24,19.777 24,19.499999 c 0,-0.277001 -0.222999,-0.5 -0.499999,-0.5 z m 0,3 c -0.277002,0 -0.5,0.223 -0.5,0.500002 0,0.276997 0.222999,0.499999 0.5,0.499999 h 11 C 23.777002,23 24,22.777 24,22.500001 24,22.222999 23.777001,21.999999 23.500001,21.999999 Z"
     sodipodi:nodetypes="sssssssssssssssssssssssssssssssssssss" />
</svg>
