<?xml version="1.0" encoding="UTF-8" standalone="no"?>
<!-- Created with Inkscape (http://www.inkscape.org/) -->

<svg
   width="32"
   height="32"
   viewBox="0 0 32 32"
   version="1.1"
   id="svg5"
   inkscape:version="1.2.1 (9c6d41e410, 2022-07-14, custom)"
   sodipodi:docname="applications-all.svg"
   xmlns:inkscape="http://www.inkscape.org/namespaces/inkscape"
   xmlns:sodipodi="http://sodipodi.sourceforge.net/DTD/sodipodi-0.dtd"
   xmlns:xlink="http://www.w3.org/1999/xlink"
   xmlns="http://www.w3.org/2000/svg"
   xmlns:svg="http://www.w3.org/2000/svg">
  <sodipodi:namedview
     id="namedview7"
     pagecolor="#ffffff"
     bordercolor="#666666"
     borderopacity="1.0"
     inkscape:pageshadow="2"
     inkscape:pageopacity="0.0"
     inkscape:pagecheckerboard="0"
     inkscape:document-units="px"
     showgrid="false"
     units="px"
     height="16px"
     showguides="false"
     inkscape:zoom="26.0625"
     inkscape:cx="14.964029"
     inkscape:cy="16.019185"
     inkscape:window-width="1920"
     inkscape:window-height="1029"
     inkscape:window-x="0"
     inkscape:window-y="0"
     inkscape:window-maximized="1"
     inkscape:current-layer="svg5"
     inkscape:showpageshadow="2"
     inkscape:deskcolor="#d1d1d1" />
  <defs
     id="defs2">
    <linearGradient
       inkscape:collect="always"
       xlink:href="#linearGradient251123"
       id="linearGradient862"
       x1="2"
       y1="1.9999998"
       x2="30"
       y2="30"
       gradientUnits="userSpaceOnUse" />
    <linearGradient
       inkscape:collect="always"
       id="linearGradient251123">
      <stop
         style="stop-color:#a2a2a2;stop-opacity:1;"
         offset="0"
         id="stop251119" />
      <stop
         style="stop-color:#6d6d6d;stop-opacity:1"
         offset="1"
         id="stop251121" />
    </linearGradient>
    <linearGradient
       inkscape:collect="always"
       xlink:href="#linearGradient223269"
       id="linearGradient870"
       x1="0.5226469"
       y1="4.2283115"
       x2="4.2259517"
       y2="7.9221172"
       gradientUnits="userSpaceOnUse"
       gradientTransform="scale(3.7795275)" />
    <linearGradient
       inkscape:collect="always"
       id="linearGradient223269">
      <stop
         style="stop-color:#555556;stop-opacity:1;"
         offset="0"
         id="stop223265" />
      <stop
         style="stop-color:#2d2d2d;stop-opacity:1"
         offset="1"
         id="stop223267" />
    </linearGradient>
    <linearGradient
       inkscape:collect="always"
       xlink:href="#linearGradient2301"
       id="linearGradient1717"
       x1="4.1003823"
       y1="4.5457854"
       x2="1.3857501"
       y2="7.3719153"
       gradientUnits="userSpaceOnUse"
       gradientTransform="matrix(2.6725295,-2.6725295,2.6725295,2.6725295,1.5e-7,-3.875e-7)" />
    <linearGradient
       inkscape:collect="always"
       id="linearGradient2301">
      <stop
         style="stop-color:#3fe3e7;stop-opacity:1;"
         offset="0"
         id="stop2297" />
      <stop
         style="stop-color:#066bbc;stop-opacity:1"
         offset="1"
         id="stop2299" />
    </linearGradient>
  </defs>
  <path
     id="rect846"
     style="fill:url(#linearGradient862);fill-opacity:1;stroke-width:5.24999;stroke-linecap:round;stroke-linejoin:round"
     d="m 3.0000002,1.9999996 c -0.554,0 -1,0.446 -1,1 V 14.999999 c 0,0.554 0.446,1 1,1 H 15 c 0.554,0 1,-0.446 1,-1 V 2.9999996 c 0,-0.554 -0.446,-1 -1,-1 z M 17,15.999999 c -0.554,0 -1,0.446 -1,1 v 12 c 0,0.554 0.446,1 1,1 h 12 c 0.554,0 1,-0.446 1,-1 v -12 c 0,-0.554 -0.446,-1 -1,-1 z" />
  <path
     id="rect950"
     style="fill:url(#linearGradient870);fill-opacity:1;stroke-width:3;stroke-linecap:round;stroke-linejoin:round"
     d="M 3.0000001,16 H 15.000001 c 0.554,0 1,0.446 1,1 v 12.000001 c 0,0.554 -0.446,1 -1,1 H 3.0000001 C 2.446,30.000001 2,29.554001 2,29.000001 V 17 c 0,-0.554 0.446,-1 1.0000001,-1 z" />
  <path
     id="rect1158"
     style="fill:url(#linearGradient1717);fill-opacity:1;stroke-width:3;stroke-linecap:round;stroke-linejoin:round"
     d="m 16.293804,7.9277632 6.363961,-6.3639605 c 0.391737,-0.391737 1.022476,-0.391737 1.414213,3e-7 l 6.363961,6.3639602 c 0.391737,0.391738 0.391737,1.022477 0,1.414214 l -6.363961,6.3639598 c -0.391737,0.391738 -1.022476,0.391738 -1.414213,10e-7 L 16.293804,9.3419772 c -0.391737,-0.391737 -0.391737,-1.022477 0,-1.414214 z" />
</svg>
