<?xml version="1.0" encoding="UTF-8" standalone="no"?>
<!-- Created with Inkscape (http://www.inkscape.org/) -->

<svg
   width="32"
   height="32"
   viewBox="0 0 32 32"
   version="1.1"
   id="svg2112"
   inkscape:version="1.2.1 (9c6d41e410, 2022-07-14, custom)"
   sodipodi:docname="org.gnome.Software.Socialize.svg"
   xmlns:inkscape="http://www.inkscape.org/namespaces/inkscape"
   xmlns:sodipodi="http://sodipodi.sourceforge.net/DTD/sodipodi-0.dtd"
   xmlns:xlink="http://www.w3.org/1999/xlink"
   xmlns="http://www.w3.org/2000/svg"
   xmlns:svg="http://www.w3.org/2000/svg">
  <sodipodi:namedview
     id="namedview2114"
     pagecolor="#ffffff"
     bordercolor="#000000"
     borderopacity="0.25"
     inkscape:showpageshadow="2"
     inkscape:pageopacity="0.0"
     inkscape:pagecheckerboard="0"
     inkscape:deskcolor="#d1d1d1"
     inkscape:document-units="px"
     showgrid="false"
     inkscape:zoom="25.0625"
     inkscape:cx="15.98005"
     inkscape:cy="16"
     inkscape:window-width="1920"
     inkscape:window-height="1011"
     inkscape:window-x="0"
     inkscape:window-y="0"
     inkscape:window-maximized="1"
     inkscape:current-layer="svg2112" />
  <defs
     id="defs2109">
    <linearGradient
       inkscape:collect="always"
       id="linearGradient1021">
      <stop
         style="stop-color:#ffdd2e;stop-opacity:1;"
         offset="0"
         id="stop1017" />
      <stop
         style="stop-color:#ffab03;stop-opacity:1;"
         offset="1"
         id="stop1019" />
    </linearGradient>
    <linearGradient
       inkscape:collect="always"
       xlink:href="#linearGradient1021"
       id="linearGradient4020"
       x1="32"
       y1="4"
       x2="60"
       y2="60"
       gradientUnits="userSpaceOnUse"
       gradientTransform="scale(0.5)" />
    <linearGradient
       inkscape:collect="always"
       xlink:href="#linearGradient1275"
       id="linearGradient1277"
       x1="16.600012"
       y1="9.2000113"
       x2="16.600012"
       y2="6"
       gradientUnits="userSpaceOnUse"
       gradientTransform="matrix(2.1874923,0,0,2.1874923,-12.512399,-5.1249541)" />
    <linearGradient
       inkscape:collect="always"
       id="linearGradient1275">
      <stop
         style="stop-color:#bc3f00;stop-opacity:1;"
         offset="0"
         id="stop1271" />
      <stop
         style="stop-color:#c75944;stop-opacity:1;"
         offset="1"
         id="stop1273" />
    </linearGradient>
  </defs>
  <circle
     style="fill:url(#linearGradient4020);fill-opacity:1;stroke-width:0.5;stroke-linecap:round;stroke-linejoin:round"
     id="path368"
     cx="16"
     cy="16"
     r="14" />
  <path
     id="path375"
     style="opacity:0.8;fill:#313131;fill-opacity:1;stroke-width:0.5;stroke-linecap:round;stroke-linejoin:round"
     d="m 12.111328,18.445312 c -0.198901,3e-5 -0.390621,0.07809 -0.53125,0.21875 -0.292817,0.29288 -0.292817,0.767668 0,1.060547 1.171895,1.171894 2.762613,1.830079 4.419922,1.830079 1.657308,0 3.246075,-0.658185 4.417969,-1.830079 0.292817,-0.292879 0.292817,-0.767667 0,-1.060547 -0.29288,-0.292816 -0.767667,-0.292816 -1.060547,0 -0.890997,0.890999 -2.097361,1.390626 -3.357422,1.390626 -1.260061,0 -2.468377,-0.499627 -3.359375,-1.390626 -0.140629,-0.140658 -0.330396,-0.21872 -0.529297,-0.21875 z"
     sodipodi:nodetypes="cscscccscc" />
  <path
     id="path964"
     style="fill:url(#linearGradient1277);fill-opacity:1;stroke-width:2.1875;stroke-linecap:round;stroke-linejoin:round"
     d="M 8.9687498,8 C 7.6087263,7.9999916 7,8.9793901 7,10.1875 7.0000091,11.634178 10.5,15 10.5,15 10.5,15 13.999992,11.634178 14,10.1875 14,8.9793901 13.391274,7.9999916 12.03125,8 11.178069,8.0000061 10.5,8.7860956 10.5,9.3125002 10.5,8.7860956 9.821931,8.0000061 8.9687498,8 Z M 19.96875,8 C 18.608728,7.9999916 18,8.9793901 18,10.1875 18.000008,11.634177 21.5,15 21.5,15 21.5,15 24.999992,11.634177 25,10.1875 25,8.9793901 24.391272,7.9999916 23.03125,8 22.17807,8.0000061 21.5,8.7860956 21.5,9.3125002 21.5,8.7860956 20.82193,8.0000061 19.96875,8 Z"
     sodipodi:nodetypes="scccscsscccscs" />
</svg>
