<?xml version="1.0" encoding="UTF-8" standalone="no"?>
<!-- Created with Inkscape (http://www.inkscape.org/) -->

<svg
   width="16"
   height="16"
   viewBox="0 0 16 16"
   version="1.1"
   id="svg5"
   inkscape:version="1.3.2 (091e20ef0f, 2023-11-25, custom)"
   sodipodi:docname="kdeconnect-symbolic.svg"
   xmlns:inkscape="http://www.inkscape.org/namespaces/inkscape"
   xmlns:sodipodi="http://sodipodi.sourceforge.net/DTD/sodipodi-0.dtd"
   xmlns="http://www.w3.org/2000/svg"
   xmlns:svg="http://www.w3.org/2000/svg">
  <sodipodi:namedview
     id="namedview7"
     pagecolor="#ffffff"
     bordercolor="#000000"
     borderopacity="0.25"
     inkscape:showpageshadow="2"
     inkscape:pageopacity="0.0"
     inkscape:pagecheckerboard="0"
     inkscape:deskcolor="#d1d1d1"
     inkscape:document-units="px"
     showgrid="false"
     inkscape:zoom="50.25"
     inkscape:cx="8"
     inkscape:cy="8"
     inkscape:window-width="1920"
     inkscape:window-height="1008"
     inkscape:window-x="0"
     inkscape:window-y="0"
     inkscape:window-maximized="1"
     inkscape:current-layer="svg5" />
  <defs
     id="defs2">
    <style
       type="text/css"
       id="current-color-scheme">
        .ColorScheme-Text {
        color:#363636;
        }
     </style>
  </defs>
  <path
     id="rect5459"
     style="fill:currentColor;fill-opacity:1;stroke-width:2;stroke-linecap:round"
     class="ColorScheme-Text"
     d="M 5,0 C 3.8920022,0 3,0.8920022 3,2 v 12 c 0,1.107998 0.8920022,2 2,2 h 6 c 1.107998,0 2,-0.892002 2,-2 V 2 C 13,0.8920022 12.107998,0 11,0 Z m 0,1 h 6 c 0.553998,0 1,0.4460012 1,1 v 12 c 0,0.553998 -0.446002,1 -1,1 H 5 C 4.4460012,15 4,14.553998 4,14 V 2 C 4,1.4460012 4.4460012,1 5,1 Z M 6.5,12 C 6.223,12 6,12.223 6,12.5 6,12.777 6.223,13 6.5,13 h 3 C 9.777,13 10,12.777 10,12.5 10,12.223 9.777,12 9.5,12 Z" />
</svg>
