<?xml version="1.0" encoding="UTF-8" standalone="no"?>
<!-- Created with Inkscape (http://www.inkscape.org/) -->

<svg
   width="16"
   height="16"
   viewBox="0 0 16 16"
   version="1.1"
   id="svg423"
   inkscape:version="1.3.2 (091e20ef0f, 2023-11-25, custom)"
   sodipodi:docname="klipper-symbolic.svg"
   xmlns:inkscape="http://www.inkscape.org/namespaces/inkscape"
   xmlns:sodipodi="http://sodipodi.sourceforge.net/DTD/sodipodi-0.dtd"
   xmlns="http://www.w3.org/2000/svg"
   xmlns:svg="http://www.w3.org/2000/svg">
  <sodipodi:namedview
     id="namedview425"
     pagecolor="#ffffff"
     bordercolor="#000000"
     borderopacity="0.25"
     inkscape:showpageshadow="2"
     inkscape:pageopacity="0.0"
     inkscape:pagecheckerboard="0"
     inkscape:deskcolor="#d1d1d1"
     inkscape:document-units="px"
     showgrid="false"
     inkscape:zoom="50.5625"
     inkscape:cx="8"
     inkscape:cy="7.9901112"
     inkscape:window-width="1920"
     inkscape:window-height="1008"
     inkscape:window-x="0"
     inkscape:window-y="0"
     inkscape:window-maximized="1"
     inkscape:current-layer="svg423" />
  <defs
     id="defs2">
     <style
        id="current-color-scheme"
        type="text/css">
        .ColorScheme-Text { color:#363636; } .ColorScheme-Highlight { color:#4285f4; } .ColorScheme-NeutralText { color:#ff9800; } .ColorScheme-PositiveText { color:#4caf50; } .ColorScheme-NegativeText { color:#f44336; }
     </style>
  </defs>
  <path
     d="M 8,0 C 6.8954,0 6,0.89543 6,2 H 5 4.06055 4.000003 v 0.00586 c -1.113,0.032581 -2,0.93345 -2,2.0547 v 8.8789 c 0,1.142 0.91853,2.0605 2.0605,2.0605 h 7.8789 c 1.142,0 2.0605,-0.91853 2.0605,-2.0605 V 4.0605594 c 0,-1.142 -0.91853,-2.0605 -2.0605,-2.0605 h -0.93945 -1 c 0,-0.138 -0.00525,-0.27625 -0.03125,-0.40625 -0.19615,-0.93036 -1.0179,-1.5956 -1.9688,-1.5938 z M 7.988281,1 C 7.9921872,0.99997711 7.9960936,0.99997711 8,1 8.414,1 8.75425,1.266 8.90625,1.625 8.963141,1.74216 8.995066,1.86986 9,2 8.999939,2.88813 7.9284,3.3352 7.2969,2.71094 6.66533,2.08668 7.10024,1.01044 7.98831,1.00004 Z m -3.9883,2 h 1 1 v 1 c 0,0 -1,0 -1,1 h 6 c 0,-0.75 -0.56275,-0.953 -0.84375,-1 H 9.999981 V 3 h 1 1 c 0.554,0 1,0.446 1,1 v 9 c 0,0.554 -0.446,1 -1,1 h -8 c -0.554,0 -1,-0.446 -1,-1 V 4 c 0,-0.554 0.446,-1 1,-1 z"
     style="fill:currentColor"
     class="ColorScheme-Text"
     id="path1" />
</svg>
