<?xml version="1.0" encoding="UTF-8" standalone="no"?>
<svg
   width="16"
   height="16"
   version="1.1"
   viewBox="0 0 16 16"
   id="svg7"
   sodipodi:docname="network-wireless-signal-none.svg"
   inkscape:version="1.2.1 (9c6d41e410, 2022-07-14, custom)"
   xmlns:inkscape="http://www.inkscape.org/namespaces/inkscape"
   xmlns:sodipodi="http://sodipodi.sourceforge.net/DTD/sodipodi-0.dtd"
   xmlns="http://www.w3.org/2000/svg"
   xmlns:svg="http://www.w3.org/2000/svg">
  <sodipodi:namedview
     id="namedview9"
     pagecolor="#ffffff"
     bordercolor="#666666"
     borderopacity="1.0"
     inkscape:pageshadow="2"
     inkscape:pageopacity="0.0"
     inkscape:pagecheckerboard="0"
     showgrid="false"
     inkscape:zoom="50.5"
     inkscape:cx="7.4653465"
     inkscape:cy="8"
     inkscape:window-width="1920"
     inkscape:window-height="1010"
     inkscape:window-x="0"
     inkscape:window-y="0"
     inkscape:window-maximized="1"
     inkscape:current-layer="svg7"
     showguides="true"
     inkscape:showpageshadow="2"
     inkscape:deskcolor="#d1d1d1" />
  <defs
     id="defs3">
    <style
       id="current-color-scheme"
       type="text/css">.ColorScheme-Text { color:#363636; }</style>
  </defs>
  <path
     id="path1931"
     style="opacity:0.35;fill:currentColor;stroke-width:1.28132;stroke-linejoin:round"
     d="M 8 2.2597656 C 4.979 2.2597656 2.126275 3.5929688 0.171875 5.9179688 C -0.087725 6.2267487 -0.04755865 6.6876956 0.26171875 6.9472656 C 0.39854855 7.0621956 0.56440855 7.1171875 0.73046875 7.1171875 C 0.93890855 7.1171875 1.1463856 7.0293439 1.2910156 6.8574219 C 2.9664154 4.8640229 5.4115 3.7207029 8 3.7207031 C 10.5885 3.7207031 13.033684 4.8645229 14.708984 6.8574219 C 14.853634 7.0293439 15.061061 7.1171875 15.269531 7.1171875 C 15.435621 7.1171875 15.603404 7.0626856 15.740234 6.9472656 C 16.049014 6.6881356 16.087726 6.2262488 15.828125 5.9179688 C 13.874226 3.5928688 11.021 2.2597656 8 2.2597656 z M 8 5.3535156 C 6.516375 5.3535156 5.089169 5.8039631 3.8886719 6.625 C 3.7795358 6.699639 3.6716727 6.7767169 3.5664062 6.8574219 C 3.145341 7.1802439 2.7571531 7.5517209 2.4082031 7.9667969 C 2.3757561 8.0053939 2.3473588 8.0471817 2.3242188 8.0898438 C 2.3010778 8.1325067 2.2834852 8.1753571 2.2695312 8.2207031 C 2.2137173 8.4020861 2.2300072 8.6004503 2.3164062 8.7695312 C 2.3380062 8.8118013 2.3643422 8.852576 2.3945312 8.890625 C 2.4247203 8.928673 2.4593872 8.9636477 2.4980469 8.9960938 C 2.6348769 9.1110237 2.8007069 9.1660156 2.9667969 9.1660156 C 3.0189069 9.1660156 3.0700344 9.1613156 3.1210938 9.1503906 C 3.1721527 9.1394676 3.2234535 9.1232895 3.2714844 9.1015625 C 3.3675464 9.0581095 3.4552638 8.992202 3.5273438 8.90625 C 4.6440431 7.57715 6.2745 6.8144531 8 6.8144531 C 9.7255 6.8144531 11.355457 7.57713 12.472656 8.90625 C 12.544976 8.99246 12.632454 9.0581735 12.728516 9.1015625 C 12.776546 9.1232565 12.827906 9.1395086 12.878906 9.1503906 C 12.929906 9.1612736 12.981216 9.1660156 13.033203 9.1660156 C 13.199293 9.1660156 13.365093 9.1115157 13.501953 8.9960938 C 13.540613 8.9636468 13.575283 8.928686 13.605469 8.890625 C 13.635659 8.852563 13.661994 8.8118203 13.683594 8.7695312 C 13.769984 8.6003742 13.786281 8.4020391 13.730469 8.2207031 C 13.716519 8.1753691 13.698921 8.1324728 13.675781 8.0898438 C 13.652641 8.0472148 13.624237 8.0053339 13.591797 7.9667969 C 13.155453 7.4479519 12.657015 6.9981984 12.111328 6.625 C 11.783916 6.4010809 11.439654 6.204278 11.082031 6.0371094 C 10.128369 5.5913266 9.079 5.3535157 8 5.3535156 z M 8 8.5683594 C 6.7045004 8.5683594 5.4811314 9.1387754 4.6445312 10.134766 C 4.3849314 10.443546 4.4250948 10.904493 4.734375 11.164062 C 4.871205 11.278992 5.0389881 11.335937 5.2050781 11.335938 C 5.4135181 11.335938 5.6195119 11.246138 5.7636719 11.074219 C 6.3223017 10.409419 7.1375 10.029294 8 10.029297 C 8.86252 10.029297 9.677728 10.409459 10.236328 11.074219 C 10.380978 11.246639 10.586952 11.335937 10.794922 11.335938 C 10.961012 11.335938 11.128785 11.279488 11.265625 11.164062 C 11.574905 10.904462 11.615043 10.443516 11.355469 10.134766 C 10.518753 9.1388054 9.2954 8.5683594 8 8.5683594 z M 8 11.335938 C 7.3361519 11.335593 6.797608 11.873261 6.796875 12.537109 C 6.7965295 13.20172 7.3353893 13.74058 8 13.740234 C 8.6638478 13.739501 9.2015173 13.200957 9.2011719 12.537109 C 9.20044 11.874023 8.6630856 11.336669 8 11.335938 z "
     class="ColorScheme-Text" />
</svg>
