<?xml version="1.0" encoding="UTF-8" standalone="no"?>
<svg
   width="16"
   height="16"
   version="1.1"
   viewBox="0 0 16 16"
   id="svg7"
   sodipodi:docname="network-wireless-secure-signal-weak.svg"
   inkscape:version="1.2.1 (9c6d41e410, 2022-07-14, custom)"
   xmlns:inkscape="http://www.inkscape.org/namespaces/inkscape"
   xmlns:sodipodi="http://sodipodi.sourceforge.net/DTD/sodipodi-0.dtd"
   xmlns="http://www.w3.org/2000/svg"
   xmlns:svg="http://www.w3.org/2000/svg">
  <sodipodi:namedview
     id="namedview9"
     pagecolor="#ffffff"
     bordercolor="#666666"
     borderopacity="1.0"
     inkscape:pageshadow="2"
     inkscape:pageopacity="0.0"
     inkscape:pagecheckerboard="0"
     showgrid="false"
     inkscape:zoom="50.5"
     inkscape:cx="8"
     inkscape:cy="8"
     inkscape:window-width="1920"
     inkscape:window-height="1010"
     inkscape:window-x="0"
     inkscape:window-y="0"
     inkscape:window-maximized="1"
     inkscape:current-layer="svg7"
     showguides="true"
     inkscape:showpageshadow="2"
     inkscape:deskcolor="#d1d1d1" />
  <defs
     id="defs3">
    <style
       id="current-color-scheme"
       type="text/css">.ColorScheme-Text { color:#363636; }</style>
  </defs>
  <path
     id="path1931"
     style="opacity:1;fill:currentColor;stroke-width:1.28132;stroke-linejoin:round"
     d="m 7.9993119,11.336172 c -0.6638481,-3.45e-4 -1.202392,0.537324 -1.203125,1.201172 -3.455e-4,0.664611 0.5385143,1.203471 1.203125,1.203125 0.6638478,-7.33e-4 1.2015174,-0.539277 1.201172,-1.203125 -7.319e-4,-0.663086 -0.5380864,-1.20044 -1.201172,-1.201172 z"
     sodipodi:nodetypes="ccccc"
     class="ColorScheme-Text" />
  <path
     id="path945"
     style="opacity:0.35;fill:currentColor;stroke-width:1.28132;stroke-linejoin:round"
     class="ColorScheme-Text"
     d="M 8 2.2597656 C 4.979006 2.2597656 2.126271 3.5929734 0.171875 5.9179688 C -0.08772448 6.226748 -0.047558032 6.6876962 0.26171875 6.9472656 C 0.39854827 7.0621954 0.56440889 7.1171875 0.73046875 7.1171875 C 0.93890813 7.1171875 1.146386 7.0293435 1.2910156 6.8574219 C 2.966412 4.8640269 5.4115052 3.7207029 8 3.7207031 C 10.588495 3.7207031 13.033688 4.8645269 14.708984 6.8574219 C 14.853634 7.0293435 15.061061 7.1171875 15.269531 7.1171875 C 15.435621 7.1171875 15.603406 7.0626854 15.740234 6.9472656 C 16.049014 6.6881362 16.087726 6.226248 15.828125 5.9179688 C 13.87423 3.5928734 11.020994 2.2597656 8 2.2597656 z M 8 5.3535156 C 6.516378 5.3535156 5.0891666 5.8039647 3.8886719 6.625 C 3.779536 6.6996388 3.6716724 6.7767171 3.5664062 6.8574219 C 3.1453419 7.1802433 2.7571525 7.5517217 2.4082031 7.9667969 C 2.3757563 8.0053937 2.3473586 8.0471818 2.3242188 8.0898438 C 2.3010778 8.1325066 2.2834852 8.1753573 2.2695312 8.2207031 C 2.2137174 8.4020857 2.2300074 8.6004506 2.3164062 8.7695312 C 2.3380062 8.8118012 2.3643424 8.852576 2.3945312 8.890625 C 2.4247202 8.928673 2.4593872 8.9636478 2.4980469 8.9960938 C 2.6348765 9.1110234 2.8007071 9.1660156 2.9667969 9.1660156 C 3.0189067 9.1660156 3.0700344 9.1613156 3.1210938 9.1503906 C 3.1721526 9.1394676 3.2234535 9.1232895 3.2714844 9.1015625 C 3.3675462 9.0581095 3.4552638 8.9922018 3.5273438 8.90625 C 4.6440408 7.5771526 6.2745034 6.8144531 8 6.8144531 C 9.7254966 6.8144531 11.355459 7.5771326 12.472656 8.90625 C 12.544976 8.9924598 12.632454 9.0581735 12.728516 9.1015625 C 12.776546 9.1232565 12.827906 9.1395086 12.878906 9.1503906 C 12.929906 9.1612736 12.981216 9.1660156 13.033203 9.1660156 C 13.199293 9.1660156 13.365093 9.1115154 13.501953 8.9960938 C 13.540613 8.9636468 13.575283 8.928686 13.605469 8.890625 C 13.635659 8.852563 13.661994 8.8118202 13.683594 8.7695312 C 13.769984 8.6003746 13.786281 8.4020387 13.730469 8.2207031 C 13.716519 8.1753693 13.698921 8.1324726 13.675781 8.0898438 C 13.652641 8.0472148 13.624237 8.0053337 13.591797 7.9667969 C 13.155453 7.4479529 12.657015 6.9981976 12.111328 6.625 C 11.783916 6.4010813 11.439654 6.2042776 11.082031 6.0371094 C 10.128371 5.5913274 9.0789978 5.3535157 8 5.3535156 z M 8 8.5683594 C 6.7045017 8.5683594 5.4811305 9.1387764 4.6445312 10.134766 C 4.3849316 10.443545 4.4250951 10.904493 4.734375 11.164062 C 4.8712049 11.278992 5.0389883 11.335937 5.2050781 11.335938 C 5.4135179 11.335938 5.619512 11.246138 5.7636719 11.074219 C 6.3223011 10.409419 7.1375009 10.029294 8 10.029297 C 8.8625191 10.029297 9.6777286 10.409459 10.236328 11.074219 C 10.380978 11.246639 10.586952 11.335937 10.794922 11.335938 C 10.961012 11.335938 11.128785 11.279487 11.265625 11.164062 C 11.574905 10.904463 11.615042 10.443515 11.355469 10.134766 C 10.518754 9.1388064 9.2953987 8.5683594 8 8.5683594 z " />
  <path
     id="path2843"
     style="fill:currentColor;fill-opacity:1;stroke-linejoin:round"
     d="M 13.5 10 C 12.671573 10 12 10.671573 12 11.5 L 12 12 C 11.446 12 11 12.446 11 13 L 11 15 C 11 15.554 11.446 16 12 16 L 15 16 C 15.554 16 16 15.554 16 15 L 16 13 C 16 12.446 15.554 12 15 12 L 15 11.5 C 15 10.671573 14.328427 10 13.5 10 z M 13.5 11 C 13.776142 11 14 11.223858 14 11.5 L 14 12 L 13 12 L 13 11.5 C 13 11.223858 13.223858 11 13.5 11 z M 12 13 L 15 13 L 15 15 L 12 15 L 12 13 z "
     class="ColorScheme-Text" />
</svg>
