<?xml version="1.0" encoding="UTF-8" standalone="no"?>
<svg
   width="16"
   height="16"
   version="1.1"
   viewBox="0 0 16 16"
   id="svg7"
   sodipodi:docname="network-wireless-secure-signal-ok.svg"
   inkscape:version="1.2.1 (9c6d41e410, 2022-07-14, custom)"
   xmlns:inkscape="http://www.inkscape.org/namespaces/inkscape"
   xmlns:sodipodi="http://sodipodi.sourceforge.net/DTD/sodipodi-0.dtd"
   xmlns="http://www.w3.org/2000/svg"
   xmlns:svg="http://www.w3.org/2000/svg">
  <sodipodi:namedview
     id="namedview9"
     pagecolor="#ffffff"
     bordercolor="#666666"
     borderopacity="1.0"
     inkscape:pageshadow="2"
     inkscape:pageopacity="0.0"
     inkscape:pagecheckerboard="0"
     showgrid="false"
     inkscape:zoom="50.5"
     inkscape:cx="8"
     inkscape:cy="8"
     inkscape:window-width="1920"
     inkscape:window-height="1010"
     inkscape:window-x="0"
     inkscape:window-y="0"
     inkscape:window-maximized="1"
     inkscape:current-layer="svg7"
     showguides="true"
     inkscape:showpageshadow="2"
     inkscape:deskcolor="#d1d1d1" />
  <defs
     id="defs3">
    <style
       id="current-color-scheme"
       type="text/css">.ColorScheme-Text { color:#363636; }</style>
  </defs>
  <path
     id="path1931"
     style="opacity:1;fill:currentColor;stroke-width:1.28132;stroke-linejoin:round"
     d="m 7.9993119,8.5685938 c -1.2954996,0 -2.5188687,0.570416 -3.3554688,1.5664062 -0.2595999,0.30878 -0.2194362,0.769727 0.089844,1.029297 0.13683,0.11493 0.3046131,0.171875 0.4707031,0.171875 0.20844,0 0.4144338,-0.0898 0.5585938,-0.261719 0.5586298,-0.6648 1.3738279,-1.044924 2.2363279,-1.044921 0.86252,0 1.677728,0.380161 2.2363281,1.044921 0.14465,0.17242 0.350624,0.261719 0.558594,0.261719 0.16609,0 0.333863,-0.05645 0.470703,-0.171875 0.30928,-0.2596 0.349414,-0.720547 0.08984,-1.029297 C 10.518061,9.1390398 9.2947119,8.5685938 7.9993119,8.5685938 Z m 0,2.7675782 c -0.6638481,-3.45e-4 -1.202392,0.537324 -1.203125,1.201172 -3.455e-4,0.664611 0.5385143,1.203471 1.203125,1.203125 0.6638478,-7.33e-4 1.2015174,-0.539277 1.201172,-1.203125 -7.319e-4,-0.663086 -0.5380864,-1.20044 -1.201172,-1.201172 z"
     sodipodi:nodetypes="sccscccsccsccccc"
     class="ColorScheme-Text" />
  <path
     id="path945"
     style="opacity:0.35;fill:currentColor;stroke-width:1.28132;stroke-linejoin:round"
     class="ColorScheme-Text"
     d="M 8 2.2597656 C 4.979003 2.2597656 2.126273 3.5929711 0.171875 5.9179688 C -0.08772474 6.2267484 -0.047558341 6.6876959 0.26171875 6.9472656 C 0.39854841 7.0621955 0.56440872 7.1171875 0.73046875 7.1171875 C 0.93890834 7.1171875 1.1463858 7.0293437 1.2910156 6.8574219 C 2.9664137 4.8640249 5.4115026 3.7207029 8 3.7207031 C 10.588498 3.7207031 13.033686 4.8645249 14.708984 6.8574219 C 14.853634 7.0293437 15.061061 7.1171875 15.269531 7.1171875 C 15.435621 7.1171875 15.603405 7.0626855 15.740234 6.9472656 C 16.049014 6.6881359 16.087726 6.2262484 15.828125 5.9179688 C 13.874228 3.5928711 11.020997 2.2597656 8 2.2597656 z M 8 5.3535156 C 6.5163765 5.3535156 5.0891678 5.8039639 3.8886719 6.625 C 3.7795359 6.6996389 3.6716725 6.776717 3.5664062 6.8574219 C 3.1453414 7.1802436 2.7571528 7.5517213 2.4082031 7.9667969 C 2.3757562 8.0053938 2.3473587 8.0471818 2.3242188 8.0898438 C 2.3010778 8.1325067 2.2834852 8.1753572 2.2695312 8.2207031 C 2.2137173 8.4020859 2.2300073 8.6004504 2.3164062 8.7695312 C 2.3380062 8.8118012 2.3643423 8.852576 2.3945312 8.890625 C 2.4247202 8.928673 2.4593872 8.9636478 2.4980469 8.9960938 C 2.6348767 9.1110236 2.800707 9.1660156 2.9667969 9.1660156 C 3.0189068 9.1660156 3.0700344 9.1613156 3.1210938 9.1503906 C 3.1721527 9.1394676 3.2234535 9.1232895 3.2714844 9.1015625 C 3.3675463 9.0581095 3.4552638 8.9922019 3.5273438 8.90625 C 4.644042 7.5771513 6.2745017 6.8144531 8 6.8144531 C 9.7254983 6.8144531 11.355458 7.5771313 12.472656 8.90625 C 12.544976 8.9924599 12.632454 9.0581735 12.728516 9.1015625 C 12.776546 9.1232565 12.827906 9.1395086 12.878906 9.1503906 C 12.929906 9.1612736 12.981216 9.1660156 13.033203 9.1660156 C 13.199293 9.1660156 13.365093 9.1115156 13.501953 8.9960938 C 13.540613 8.9636468 13.575283 8.928686 13.605469 8.890625 C 13.635659 8.852563 13.661994 8.8118202 13.683594 8.7695312 C 13.769984 8.6003744 13.786281 8.4020389 13.730469 8.2207031 C 13.716519 8.1753692 13.698921 8.1324727 13.675781 8.0898438 C 13.652641 8.0472148 13.624237 8.0053338 13.591797 7.9667969 C 13.155453 7.4479524 12.657015 6.998198 12.111328 6.625 C 11.783916 6.4010811 11.439654 6.2042778 11.082031 6.0371094 C 10.12837 5.591327 9.0789989 5.3535157 8 5.3535156 z " />
  <path
     id="path2843"
     style="fill:currentColor;fill-opacity:1;stroke-linejoin:round"
     d="M 13.5 10 C 12.671573 10 12 10.671573 12 11.5 L 12 12 C 11.446 12 11 12.446 11 13 L 11 15 C 11 15.554 11.446 16 12 16 L 15 16 C 15.554 16 16 15.554 16 15 L 16 13 C 16 12.446 15.554 12 15 12 L 15 11.5 C 15 10.671573 14.328427 10 13.5 10 z M 13.5 11 C 13.776142 11 14 11.223858 14 11.5 L 14 12 L 13 12 L 13 11.5 C 13 11.223858 13.223858 11 13.5 11 z M 12 13 L 15 13 L 15 15 L 12 15 L 12 13 z "
     class="ColorScheme-Text" />
</svg>
