<?xml version="1.0" encoding="UTF-8" standalone="no"?>
<!-- Created with Inkscape (http://www.inkscape.org/) -->

<svg
   width="16"
   height="16"
   viewBox="0 0 16 16"
   version="1.1"
   id="svg2112"
   inkscape:version="1.3.2 (091e20ef0f, 2023-11-25, custom)"
   sodipodi:docname="obs-tray.svg"
   xmlns:inkscape="http://www.inkscape.org/namespaces/inkscape"
   xmlns:sodipodi="http://sodipodi.sourceforge.net/DTD/sodipodi-0.dtd"
   xmlns="http://www.w3.org/2000/svg"
   xmlns:svg="http://www.w3.org/2000/svg">
  <sodipodi:namedview
     id="namedview2114"
     pagecolor="#ffffff"
     bordercolor="#000000"
     borderopacity="0.25"
     inkscape:showpageshadow="2"
     inkscape:pageopacity="0.0"
     inkscape:pagecheckerboard="0"
     inkscape:deskcolor="#d1d1d1"
     inkscape:document-units="px"
     showgrid="false"
     inkscape:zoom="50.25"
     inkscape:cx="8"
     inkscape:cy="8"
     inkscape:window-width="1920"
     inkscape:window-height="1008"
     inkscape:window-x="0"
     inkscape:window-y="0"
     inkscape:window-maximized="1"
     inkscape:current-layer="svg2112" />
  <defs
     id="defs2109">
    <style
       id="current-color-scheme"
       type="text/css">
   .ColorScheme-Text { color:#363636; } .ColorScheme-Highlight { color:#3daee9; } .ColorScheme-NeutralText { color:#ff9800; } .ColorScheme-PositiveText { color:#4caf50; } .ColorScheme-NegativeText { color:#f44336; }
    </style>
  </defs>
  <path
     d="M 8,1 C 4.1340107,1 1,4.1340107 1,8 c 0,3.865989 3.1340107,7 7,7 3.865989,0 7,-3.134011 7,-7 C 15,4.1340107 11.865989,1 8,1 Z m 0,1.0449219 c 3.041915,0.00359 5.592024,2.2993959 5.914062,5.3242191 C 13.749603,7.106911 13.558999,6.85547 13.324219,6.625 12.672049,5.9789506 11.880505,5.5945499 10.941406,5.46875 10.800766,5.449922 10.682737,5.415894 10.492188,5.486328 10.300508,5.556196 10.206761,5.7090775 10.150391,5.8046874 10.068951,5.9424973 9.60394,6.415991 9.34375,6.582031 c -0.738029,0.47161 -1.999635,0.47183 -2.740234,0 C 5.7277865,6.024222 5.2292189,4.9312959 5.3867188,3.9667969 5.4759787,3.4208974 5.7072973,2.9460621 6.091797,2.5390625 6.171647,2.4544505 6.23248,2.3886543 6.28125,2.3339844 6.29305,2.3208274 6.30229,2.3040844 6.3125,2.2929684 6.860182,2.1297354 7.428512,2.0461983 8,2.0449219 Z M 4.2910156,3.3398438 C 4.0562359,3.8553432 3.9010938,4.5176005 3.9023438,5.0625 c 0.0013,0.5086895 0.1254295,1.113304 0.3183593,1.595703 0.05093,0.12737 0.1126752,0.29778 0.296875,0.41211 0.1841998,0.114329 0.3150102,0.109989 0.5,0.130859 0.1607199,0.01803 0.4937452,0.09004 0.640625,0.140625 1.4780989,0.508469 2.1744679,2.202642 1.4804689,3.619141 -0.46559,0.951599 -1.5877667,1.579849 -2.5722658,1.46875 -0.1274898,-0.01474 -0.2218338,-0.02067 -0.3085937,-0.01953 -0.04344,0 -0.073686,-0.0088 -0.1660156,0.01953 -0.01089,0.0023 -0.027176,0.01386 -0.041016,0.01953 C 2.7771736,11.320868 2.0471579,9.701543 2.0449219,8 2.0444911,6.185521 2.8713958,4.4698934 4.2910156,3.3398438 Z m 0.4550782,1.5136718 0.00195,0.00391 C 4.8521668,5.4837312 5.103471,6.013454 5.5253906,6.501953 5.3805108,6.469173 5.2386749,6.424783 5.109375,6.410153 5.0050351,6.398323 4.9724269,6.391063 4.9667969,6.392573 c 4.97e-4,0.0012 0.00115,0.0041 0.00195,0.0059 -0.0031,-0.0028 -0.00511,-0.0051 -0.00391,-0.0059 -0.0024,-0.0057 -0.0012,-0.0053 -0.011719,-0.0293 C 4.8078351,5.9998816 4.6982856,5.4324165 4.6972656,5.0605469 4.6971526,5.0056509 4.7399638,4.9195256 4.7460938,4.8535156 Z M 10.800781,6.240234 c 0.01021,6.81e-4 -0.02578,0.0076 0.0332,0.01563 0.32325,0.04333 0.51944,0.270817 0.78711,0.378907 -0.33573,-0.0507 -0.637939,-0.243387 -0.980469,-0.185547 -0.06919,0.01112 -0.08933,0.09223 -0.15625,0.107422 0.10094,-0.11274 0.244946,-0.201277 0.316406,-0.316407 z m 0.414063,0.960938 c 1.029899,0.02439 2.045869,0.712646 2.417968,1.703125 0.02949,0.07872 0.04908,0.137677 0.06836,0.185547 0.0091,0.02382 0.02186,0.04225 0.0332,0.06641 0.0068,0.0127 0.01127,0.02587 0.02148,0.04492 0.0045,0.0095 0.01128,0.01984 0.02149,0.03516 0.0068,0.0094 0.02042,0.02352 0.03516,0.03906 -0.598605,2.73103 -3.01664,4.6778 -5.812502,4.679687 -0.865451,-0.0027 -1.719927,-0.193956 -2.5039062,-0.560547 0.3613596,0 0.7216012,-0.02449 1.0195312,-0.115234 l 0.03125,-0.01172 0.01953,-0.0098 0.0078,-0.0059 c 0.804499,-0.262 1.648735,-0.85138 2.115234,-1.505859 l 0.25,-0.347656 -0.232422,-0.691407 c -0.534666,-1.618322 0.407861,-3.196687 2.06641,-3.476486 0.145179,-0.02461 0.292816,-0.03281 0.441406,-0.0293 z M 9.238281,7.402344 C 8.663802,7.869183 8.206356,8.448869 7.972656,9.105469 7.751487,8.471789 7.334661,7.887475 6.794922,7.421875 7.595221,7.721645 8.447682,7.722644 9.238281,7.402345 Z M 7.96875,11 8.05469,11.267578 8.03906,11.287108 C 7.94855,11.415278 7.703306,11.495572 7.548826,11.632811 7.632536,11.508052 7.78487,11.450562 7.85156,11.314452 7.902712,11.210103 7.93155,11.10435 7.96875,11 Z"
     style="fill:currentColor"
     id="path1"
     class="ColorScheme-Text" />
</svg>
