<?xml version="1.0" encoding="UTF-8" standalone="no"?>
<!-- Created with Inkscape (http://www.inkscape.org/) -->

<svg
   width="22"
   height="22"
   viewBox="0 0 22 22"
   version="1.1"
   id="svg423"
   inkscape:version="1.2.1 (9c6d41e410, 2022-07-14, custom)"
   sodipodi:docname="audio-volume-low.svg"
   xmlns:inkscape="http://www.inkscape.org/namespaces/inkscape"
   xmlns:sodipodi="http://sodipodi.sourceforge.net/DTD/sodipodi-0.dtd"
   xmlns="http://www.w3.org/2000/svg"
   xmlns:svg="http://www.w3.org/2000/svg">
  <sodipodi:namedview
     id="namedview425"
     pagecolor="#ffffff"
     bordercolor="#000000"
     borderopacity="0.25"
     inkscape:showpageshadow="2"
     inkscape:pageopacity="0.0"
     inkscape:pagecheckerboard="0"
     inkscape:deskcolor="#d1d1d1"
     inkscape:document-units="px"
     showgrid="false"
     inkscape:zoom="36.454545"
     inkscape:cx="11"
     inkscape:cy="11"
     inkscape:window-width="1920"
     inkscape:window-height="1011"
     inkscape:window-x="0"
     inkscape:window-y="0"
     inkscape:window-maximized="1"
     inkscape:current-layer="svg423" />
  <defs
     id="defs420">
    <style
       id="current-color-scheme"
       type="text/css">
   .ColorScheme-Text { color:#dedede; } .ColorScheme-Highlight { color:#4285f4; } .ColorScheme-NeutralText { color:#ff9800; } .ColorScheme-PositiveText { color:#4caf50; } .ColorScheme-NegativeText { color:#f44336; }
   </style>
  </defs>
  <path
     d="M 8.9863281,5.7085782 C 8.7273013,5.7123873 8.4779832,5.8161019 8.2929688,6.0015469 L 6.296875,7.9995938 H 5 c -1.0906989,0 -2,0.9093011 -2,2.0000001 v 2.0000001 c 0,1.090699 0.9093011,2 2,2 h 1.296875 l 1.9960938,1.998047 C 8.9229644,16.627142 9.999622,16.181209 10,15.29061 V 6.7085782 C 9.999974,6.3041734 9.756402,5.9395852 9.382813,5.78475 9.291843,5.746737 9.195752,5.722385 9.097656,5.712484 9.060406,5.708864 9.023336,5.708034 8.9863281,5.708574 Z M 9,6.7097969 V 15.289797 L 6.71,12.999594 H 5 c -0.5539994,0 -1,-0.446001 -1,-1 V 9.9995939 c 0,-0.554 0.4460006,-1.0000001 1,-1.0000001 h 1.71 z m 2.474609,1.3151875 c -0.132601,1.77e-5 -0.259761,0.052712 -0.353515,0.1464844 -0.195211,0.1952532 -0.195211,0.5117781 0,0.7070312 0.562769,0.5626499 0.878786,1.325295 0.878906,2.121094 -0.0033,0.794099 -0.321816,1.555135 -0.884766,2.115234 -0.19521,0.195254 -0.19521,0.511778 0,0.707032 0.195254,0.19521 0.511779,0.19521 0.707032,0 C 12.573125,13.07471 12.9963,12.060746 13,11.001547 v -0.002 C 12.99984,9.9389949 12.578194,8.9213681 11.828125,8.1714688 11.734371,8.0776966 11.607211,8.0250021 11.474609,8.0249844 Z"
     style="fill:currentColor;stroke-width:2.001;stroke-linecap:round;stroke-linejoin:round;-inkscape-stroke:none;paint-order:normal"
     class="ColorScheme-Text"
     id="path408"
     sodipodi:nodetypes="cccsssscccccccccccssssccccccccccscc" />
  <path
     id="path586"
     style="opacity:0.2;fill:currentColor;stroke-width:2.001;stroke-linecap:round;stroke-linejoin:round;-inkscape-stroke:none;paint-order:normal"
     class="ColorScheme-Text"
     d="m 15.716797,3.783 c -0.127944,0 -0.255889,0.048879 -0.353516,0.1464844 -0.195211,0.195253 -0.195211,0.5117782 0,0.7070313 C 17.051279,6.3242123 17.9997,8.6128017 18,10.999797 c -0.0097,2.382896 -0.964681,4.663254 -2.654297,6.34375 -0.197066,0.194919 -0.19787,0.512957 -0.002,0.708984 0.194919,0.197067 0.512957,0.19787 0.708984,0.002 C 17.930377,16.187041 18.9898,13.649844 19,11.00175 v -0.002 C 18.999599,8.3479992 17.94561,5.8043806 16.070312,3.9294844 15.972687,3.8318791 15.844741,3.783 15.716797,3.783 Z m -2.121094,2.1210938 c -0.127944,0 -0.25589,0.048879 -0.353515,0.1464843 -0.195211,0.1952531 -0.195211,0.5117783 0,0.7070313 C 14.367584,7.8828072 14.9998,9.4083999 15,10.999797 c -0.0065,1.588496 -0.643293,3.108219 -1.769531,4.228516 -0.197067,0.194919 -0.19787,0.512956 -0.002,0.708984 0.194918,0.197067 0.512956,0.19787 0.708984,0.002 1.314345,-1.307344 2.0556,-3.083904 2.0625,-4.9375 v -0.002 C 15.99972,9.1435979 15.261915,7.3629755 13.949219,6.0505781 13.851592,5.9529729 13.723647,5.9040938 13.595703,5.9040938 Z" />
</svg>
