<?xml version="1.0" encoding="UTF-8" standalone="no"?>
<!-- Created with Inkscape (http://www.inkscape.org/) -->

<svg
   width="22"
   height="22"
   viewBox="0 0 22 22"
   version="1.1"
   id="svg5"
   inkscape:version="1.3.2 (091e20ef0f, 2023-11-25, custom)"
   sodipodi:docname="kdeconnect-symbolic.svg"
   xmlns:inkscape="http://www.inkscape.org/namespaces/inkscape"
   xmlns:sodipodi="http://sodipodi.sourceforge.net/DTD/sodipodi-0.dtd"
   xmlns="http://www.w3.org/2000/svg"
   xmlns:svg="http://www.w3.org/2000/svg">
  <sodipodi:namedview
     id="namedview7"
     pagecolor="#ffffff"
     bordercolor="#000000"
     borderopacity="0.25"
     inkscape:showpageshadow="2"
     inkscape:pageopacity="0.0"
     inkscape:pagecheckerboard="0"
     inkscape:deskcolor="#d1d1d1"
     inkscape:document-units="px"
     showgrid="false"
     inkscape:zoom="36.545455"
     inkscape:cx="11"
     inkscape:cy="11"
     inkscape:window-width="1920"
     inkscape:window-height="1008"
     inkscape:window-x="0"
     inkscape:window-y="0"
     inkscape:window-maximized="1"
     inkscape:current-layer="svg5" />
  <defs
     id="defs2">
    <style
       type="text/css"
       id="current-color-scheme">
        .ColorScheme-Text {
        color:#dedede;
        }
     </style>
  </defs>
  <path
     id="rect5459"
     style="fill:currentColor;fill-opacity:1;stroke-width:2;stroke-linecap:round"
     class="ColorScheme-Text"
     d="M 8,3 C 6.8920022,3 6,3.8920022 6,5 v 12 c 0,1.107998 0.8920022,2 2,2 h 6 c 1.107998,0 2,-0.892002 2,-2 V 5 C 16,3.8920022 15.107998,3 14,3 Z m 0,1 h 6 c 0.553998,0 1,0.4460012 1,1 v 12 c 0,0.553998 -0.446002,1 -1,1 H 8 C 7.4460012,18 7,17.553998 7,17 V 5 C 7,4.4460012 7.4460012,4 8,4 Z M 9.5,15 C 9.223,15 9,15.223 9,15.5 9,15.777 9.223,16 9.5,16 h 3 C 12.777,16 13,15.777 13,15.5 13,15.223 12.777,15 12.5,15 Z" />
</svg>
