<?xml version="1.0" encoding="UTF-8" standalone="no"?>
<!-- Created with Inkscape (http://www.inkscape.org/) -->

<svg
   width="22"
   height="22"
   viewBox="0 0 22 22"
   version="1.1"
   id="svg423"
   inkscape:version="1.3.2 (091e20ef0f, 2023-11-25, custom)"
   sodipodi:docname="klipper-symbolic.svg"
   xmlns:inkscape="http://www.inkscape.org/namespaces/inkscape"
   xmlns:sodipodi="http://sodipodi.sourceforge.net/DTD/sodipodi-0.dtd"
   xmlns="http://www.w3.org/2000/svg"
   xmlns:svg="http://www.w3.org/2000/svg">
  <sodipodi:namedview
     id="namedview425"
     pagecolor="#ffffff"
     bordercolor="#000000"
     borderopacity="0.25"
     inkscape:showpageshadow="2"
     inkscape:pageopacity="0.0"
     inkscape:pagecheckerboard="0"
     inkscape:deskcolor="#d1d1d1"
     inkscape:document-units="px"
     showgrid="false"
     inkscape:zoom="36.545455"
     inkscape:cx="11"
     inkscape:cy="11"
     inkscape:window-width="1920"
     inkscape:window-height="1008"
     inkscape:window-x="0"
     inkscape:window-y="0"
     inkscape:window-maximized="1"
     inkscape:current-layer="svg423" />
  <defs
     id="defs2">
    <style
       id="current-color-scheme"
       type="text/css">
        .ColorScheme-Text { color:#dedede; } .ColorScheme-Highlight { color:#4285f4; } .ColorScheme-NeutralText { color:#ff9800; } .ColorScheme-PositiveText { color:#4caf50; } .ColorScheme-NegativeText { color:#f44336; }
     </style>
  </defs>
  <path
     d="m 10.999997,3 c -1.1046,0 -2,0.89543 -2,2 h -1 H 7.060547 7 V 5.00586 C 5.887,5.038441 5,5.93931 5,7.06056 v 8.8789 c 0,1.142 0.91853,2.0605 2.0605,2.0605 h 7.8789 c 1.142,0 2.0605,-0.91853 2.0605,-2.0605 V 7.0605594 c 0,-1.142 -0.91853,-2.0605 -2.0605,-2.0605 h -0.93945 -1 c 0,-0.138 -0.0053,-0.27625 -0.03125,-0.40625 -0.19615,-0.93036 -1.0179,-1.5956 -1.9688,-1.5938 z m -0.01172,1 c 0.0039,-2.29e-5 0.0078,-2.29e-5 0.01172,0 0.414,0 0.75425,0.266 0.90625,0.625 0.05689,0.11716 0.08882,0.24486 0.09375,0.375 -6.1e-5,0.88813 -1.0716,1.3352 -1.7031,0.71094 -0.63157,-0.62426 -0.19666,-1.7005 0.69141,-1.7109 z m -3.9883,2 h 1 1 v 1 c 0,0 -1,0 -1,1 h 6 c 0,-0.75 -0.56275,-0.953 -0.84375,-1 h -0.15625 V 6 h 1 1 c 0.554,0 1,0.446 1,1 v 9 c 0,0.554 -0.446,1 -1,1 h -8 c -0.554,0 -1,-0.446 -1,-1 V 7 c 0,-0.554 0.446,-1 1,-1 z"
     style="fill:currentColor"
     class="ColorScheme-Text"
     id="path1" />
</svg>
