<?xml version="1.0" encoding="UTF-8" standalone="no"?>
<svg
   width="22"
   height="22"
   version="1.1"
   viewBox="0 0 22 22"
   id="svg7"
   sodipodi:docname="network-wireless-signal-good.svg"
   inkscape:version="1.2.1 (9c6d41e410, 2022-07-14, custom)"
   xmlns:inkscape="http://www.inkscape.org/namespaces/inkscape"
   xmlns:sodipodi="http://sodipodi.sourceforge.net/DTD/sodipodi-0.dtd"
   xmlns="http://www.w3.org/2000/svg"
   xmlns:svg="http://www.w3.org/2000/svg">
  <sodipodi:namedview
     id="namedview9"
     pagecolor="#ffffff"
     bordercolor="#666666"
     borderopacity="1.0"
     inkscape:pageshadow="2"
     inkscape:pageopacity="0.0"
     inkscape:pagecheckerboard="0"
     showgrid="false"
     inkscape:zoom="36.454545"
     inkscape:cx="11"
     inkscape:cy="11"
     inkscape:window-width="1920"
     inkscape:window-height="1011"
     inkscape:window-x="0"
     inkscape:window-y="0"
     inkscape:window-maximized="1"
     inkscape:current-layer="svg7"
     showguides="true"
     inkscape:showpageshadow="2"
     inkscape:deskcolor="#d1d1d1" />
  <defs
     id="defs3">
    <style
       id="current-color-scheme"
       type="text/css">.ColorScheme-Text { color:#dedede; }</style>
  </defs>
  <path
     id="path345"
     style="fill:currentColor;stroke-width:1.06586;stroke-linejoin:round"
     class="ColorScheme-Text"
     d="M 11.0001,8 C 8.8573144,8 6.8761803,9.144293 5.8047876,11 5.6660901,11.238916 5.7474309,11.545037 5.9864282,11.683594 6.225856,11.821964 6.5321346,11.739706 6.670022,11.5 7.563584,9.952305 9.2129761,9 11.0001,9 c 1.787124,0 3.436516,0.952305 4.330078,2.5 0.137887,0.239706 0.444166,0.321964 0.683594,0.183594 C 16.252769,11.545037 16.33411,11.238916 16.195412,11 15.124021,9.144294 13.142886,8 11.0001,8 Z m 0,3 C 9.9291081,11 8.9379398,11.572494 8.4024439,12.5 A 0.5,0.5 0 0 0 8.5840845,13.183594 0.5,0.5 0 0 0 9.2676781,13 c 0.357666,-0.619495 1.0170909,-1 1.7324219,-1 0.715331,0 1.374756,0.380506 1.732422,1 A 0.5,0.5 0 0 0 13.416116,13.183594 0.5,0.5 0 0 0 13.597756,12.5 C 13.062261,11.572494 12.071092,11 11.0001,11 Z m 0,3 c -0.552217,-2.87e-4 -0.99939,0.447784 -1,1 -2.869e-4,0.552851 0.447149,1.000288 1,1 0.552217,-6.1e-4 1.000287,-0.447784 1,-1 -6.09e-4,-0.551582 -0.448417,-0.999391 -1,-1 z" />
  <path
     id="path1046"
     style="opacity:0.2;fill:currentColor;stroke:none;stroke-linecap:round;stroke-linejoin:round;-inkscape-stroke:none"
     d="M 11.0001,5 C 7.7855177,5 4.8124693,6.71609 3.2051782,9.5 3.0668082,9.739428 3.1490658,10.045706 3.388772,10.183594 3.6282,10.321964 3.9344782,10.239706 4.0723657,10 5.501826,7.5241021 8.1411795,6 11.0001,6 c 2.85892,0 5.498275,1.5241023 6.927734,4 0.137887,0.239706 0.444166,0.321964 0.683594,0.183594 C 18.851134,10.045706 18.933392,9.739428 18.795022,9.5 17.18773,6.7160902 14.214682,5 11.0001,5 Z"
     class="ColorScheme-Text"
     sodipodi:nodetypes="scccscccs" />
</svg>
