<?xml version="1.0" encoding="UTF-8" standalone="no"?>
<!-- Created with Inkscape (http://www.inkscape.org/) -->

<svg
   width="22"
   height="22"
   viewBox="0 0 22 22"
   version="1.1"
   id="svg851"
   inkscape:version="1.3.2 (091e20ef0f, 2023-11-25, custom)"
   sodipodi:docname="network-wired-available.svg"
   xmlns:inkscape="http://www.inkscape.org/namespaces/inkscape"
   xmlns:sodipodi="http://sodipodi.sourceforge.net/DTD/sodipodi-0.dtd"
   xmlns="http://www.w3.org/2000/svg"
   xmlns:svg="http://www.w3.org/2000/svg">
  <sodipodi:namedview
     id="namedview853"
     pagecolor="#ffffff"
     bordercolor="#666666"
     borderopacity="1.0"
     inkscape:pageshadow="2"
     inkscape:pageopacity="0.0"
     inkscape:pagecheckerboard="0"
     inkscape:document-units="px"
     showgrid="false"
     units="px"
     showguides="false"
     inkscape:zoom="36.545455"
     inkscape:cx="11"
     inkscape:cy="11"
     inkscape:window-width="1920"
     inkscape:window-height="1008"
     inkscape:window-x="0"
     inkscape:window-y="0"
     inkscape:window-maximized="1"
     inkscape:current-layer="svg851"
     inkscape:showpageshadow="2"
     inkscape:deskcolor="#d1d1d1" />
  <defs
     id="defs848">
    <style
       id="current-color-scheme"
       type="text/css">
        .ColorScheme-Text { color:#dedede; } .ColorScheme-Highlight { color:#3daee9; } .ColorScheme-NeutralText { color:#ff9800; } .ColorScheme-PositiveText { color:#4caf50; } .ColorScheme-NegativeText { color:#f44336; }
     </style>
  </defs>
  <path
     id="rect934"
     style="fill:currentColor;fill-opacity:1;stroke-width:3.99999;stroke-linecap:round;stroke-linejoin:round"
     class="ColorScheme-Text"
     d="M 5,4 C 3.892001,4 3,4.8920011 3,6 v 8 c 0,1.107999 0.892001,2 2,2 h 4 v 2 H 7 v 1 h 8 v -1 h -2 v -2 h 2 V 15 H 5 C 4.4460006,15 4,14.553999 4,14 V 6 C 4,5.4460006 4.4460006,5 5,5 h 8 V 4 Z m 5,12 h 2 v 2 h -2 z" />
  <path
     d="m 15,3 c -0.554,0 -1,0.446 -1,1 v 5 c 0,0.554 0.446,1 1,1 h 1 v 9 h 1 v -9 h 1 c 0.554,0 1,-0.446 1,-1 V 4 C 19,3.446 18.554,3 18,3 Z m 0,1 h 3 v 1 h -3 z m 0,2 h 3 v 3 h -3 z"
     style="fill:currentColor;fill-opacity:1;stroke-width:3.99999;stroke-linecap:round;stroke-linejoin:round"
     id="path1"
     class="ColorScheme-Highlight" />
</svg>
