<?xml version="1.0" encoding="UTF-8" standalone="no"?>
<!-- Created with Inkscape (http://www.inkscape.org/) -->

<svg
   width="22"
   height="22"
   viewBox="0 0 22 22"
   version="1.1"
   id="svg2112"
   inkscape:version="1.3.2 (091e20ef0f, 2023-11-25, custom)"
   sodipodi:docname="obs-tray.svg"
   xmlns:inkscape="http://www.inkscape.org/namespaces/inkscape"
   xmlns:sodipodi="http://sodipodi.sourceforge.net/DTD/sodipodi-0.dtd"
   xmlns="http://www.w3.org/2000/svg"
   xmlns:svg="http://www.w3.org/2000/svg">
  <sodipodi:namedview
     id="namedview2114"
     pagecolor="#ffffff"
     bordercolor="#000000"
     borderopacity="0.25"
     inkscape:showpageshadow="2"
     inkscape:pageopacity="0.0"
     inkscape:pagecheckerboard="0"
     inkscape:deskcolor="#d1d1d1"
     inkscape:document-units="px"
     showgrid="false"
     inkscape:zoom="36.545455"
     inkscape:cx="11"
     inkscape:cy="11"
     inkscape:window-width="1920"
     inkscape:window-height="1008"
     inkscape:window-x="0"
     inkscape:window-y="0"
     inkscape:window-maximized="1"
     inkscape:current-layer="svg2112" />
  <defs
     id="defs2109">
    <style
       id="current-color-scheme"
       type="text/css">
   .ColorScheme-Text { color:#dedede; } .ColorScheme-Highlight { color:#3daee9; } .ColorScheme-NeutralText { color:#ff9800; } .ColorScheme-PositiveText { color:#4caf50; } .ColorScheme-NegativeText { color:#f44336; }
    </style>
  </defs>
  <path
     d="m 11,4 c -3.8659893,0 -7,3.1340107 -7,7 0,3.865989 3.1340107,7 7,7 3.865989,0 7,-3.134011 7,-7 0,-3.8659893 -3.134011,-7 -7,-7 z m 0,1.0449219 c 3.041915,0.00359 5.592024,2.2993959 5.914062,5.3242191 C 16.749603,10.106911 16.558999,9.85547 16.324219,9.625 15.672049,8.9789506 14.880505,8.5945499 13.941406,8.46875 13.800766,8.449922 13.682737,8.415894 13.492188,8.486328 13.300508,8.556196 13.206761,8.7090775 13.150391,8.8046874 13.068951,8.9424973 12.60394,9.415991 12.34375,9.582031 c -0.738029,0.47161 -1.999635,0.47183 -2.740234,0 C 8.7277865,9.024222 8.2292189,7.9312959 8.3867188,6.9667969 8.4759787,6.4208974 8.7072973,5.9460621 9.091797,5.5390625 9.171647,5.4544505 9.23248,5.3886543 9.28125,5.3339844 9.29305,5.3208274 9.30229,5.3040844 9.3125,5.2929684 9.860182,5.1297354 10.428512,5.0461983 11,5.0449219 Z M 7.2910156,6.3398438 C 7.0562359,6.8553432 6.9010938,7.5176005 6.9023438,8.0625 c 0.0013,0.5086895 0.1254295,1.113304 0.3183593,1.595703 0.05093,0.12737 0.1126752,0.29778 0.296875,0.41211 0.1841998,0.114329 0.3150102,0.109989 0.5,0.130859 0.1607199,0.01803 0.4937452,0.09004 0.640625,0.140625 1.4780989,0.508469 2.1744679,2.202642 1.4804689,3.619141 -0.46559,0.951599 -1.5877667,1.579849 -2.5722658,1.46875 -0.1274898,-0.01474 -0.2218338,-0.02067 -0.3085937,-0.01953 -0.04344,0 -0.073686,-0.0088 -0.1660156,0.01953 -0.01089,0.0023 -0.027176,0.01386 -0.041016,0.01953 C 5.7771736,14.320868 5.0471579,12.701543 5.0449219,11 5.0444911,9.185521 5.8713958,7.4698934 7.2910156,6.3398438 Z m 0.4550782,1.5136718 0.00195,0.00391 C 7.8521668,8.4837312 8.103471,9.013454 8.5253906,9.501953 8.3805108,9.469173 8.2386749,9.424783 8.109375,9.410153 8.0050351,9.398323 7.9724269,9.391063 7.9667969,9.392573 c 4.97e-4,0.0012 0.00115,0.0041 0.00195,0.0059 -0.0031,-0.0028 -0.00511,-0.0051 -0.00391,-0.0059 -0.0024,-0.0057 -0.0012,-0.0053 -0.011719,-0.0293 C 7.8078351,8.9998816 7.6982856,8.4324165 7.6972656,8.0605469 7.6971526,8.0056509 7.7399638,7.9195256 7.7460938,7.8535156 Z M 13.800781,9.240234 c 0.01021,6.81e-4 -0.02578,0.0076 0.0332,0.01563 0.32325,0.04333 0.51944,0.270817 0.78711,0.378907 -0.33573,-0.0507 -0.637939,-0.243387 -0.980469,-0.185547 -0.06919,0.01112 -0.08933,0.09223 -0.15625,0.107422 0.10094,-0.11274 0.244946,-0.201277 0.316406,-0.316407 z m 0.414063,0.960938 c 1.029899,0.02439 2.045869,0.712646 2.417968,1.703125 0.02949,0.07872 0.04908,0.137677 0.06836,0.185547 0.0091,0.02382 0.02186,0.04225 0.0332,0.06641 0.0068,0.0127 0.01127,0.02587 0.02148,0.04492 0.0045,0.0095 0.01128,0.01984 0.02149,0.03516 0.0068,0.0094 0.02042,0.02352 0.03516,0.03906 -0.598605,2.73103 -3.01664,4.6778 -5.812502,4.679687 -0.865451,-0.0027 -1.719927,-0.193956 -2.5039062,-0.560547 0.3613596,0 0.7216012,-0.02449 1.0195312,-0.115234 l 0.03125,-0.01172 0.01953,-0.0098 0.0078,-0.0059 c 0.804499,-0.262 1.648735,-0.85138 2.115234,-1.505859 l 0.25,-0.347656 -0.232422,-0.691407 c -0.534666,-1.618322 0.407861,-3.196687 2.06641,-3.476486 0.145179,-0.02461 0.292816,-0.03281 0.441406,-0.0293 z m -1.976563,0.201172 c -0.574479,0.466839 -1.031925,1.046525 -1.265625,1.703125 -0.221169,-0.63368 -0.637995,-1.217994 -1.177734,-1.683594 0.800299,0.29977 1.65276,0.300769 2.443359,-0.01953 z M 10.96875,14 l 0.08594,0.267578 -0.01563,0.01953 c -0.09051,0.12817 -0.335754,0.208464 -0.490234,0.345703 0.08371,-0.124759 0.236044,-0.182249 0.302734,-0.318359 C 10.902712,14.210103 10.93155,14.10435 10.96875,14 Z"
     style="fill:currentColor"
     id="path1"
     class="ColorScheme-Text" />
</svg>
