<?xml version="1.0" encoding="UTF-8" standalone="no"?>
<!-- Created with Inkscape (http://www.inkscape.org/) -->

<svg
   width="22"
   height="22"
   viewBox="0 0 22 22"
   version="1.1"
   id="svg5"
   inkscape:version="1.2.1 (9c6d41e410, 2022-07-14, custom)"
   sodipodi:docname="redshift-status-on.svg"
   xmlns:inkscape="http://www.inkscape.org/namespaces/inkscape"
   xmlns:sodipodi="http://sodipodi.sourceforge.net/DTD/sodipodi-0.dtd"
   xmlns="http://www.w3.org/2000/svg"
   xmlns:svg="http://www.w3.org/2000/svg">
  <sodipodi:namedview
     id="namedview7"
     pagecolor="#ffffff"
     bordercolor="#000000"
     borderopacity="0.25"
     inkscape:showpageshadow="2"
     inkscape:pageopacity="0.0"
     inkscape:pagecheckerboard="0"
     inkscape:deskcolor="#d1d1d1"
     inkscape:document-units="px"
     showgrid="false"
     inkscape:zoom="36.772727"
     inkscape:cx="11"
     inkscape:cy="11"
     inkscape:window-width="1920"
     inkscape:window-height="1012"
     inkscape:window-x="0"
     inkscape:window-y="0"
     inkscape:window-maximized="1"
     inkscape:current-layer="svg5" />
  <defs
     id="defs2">
    <style
       id="current-color-scheme"
       type="text/css">
         .ColorScheme-Text { color:#dedede; }
     </style>
  </defs>
  <path
     id="path234"
     style="opacity:1;fill:currentColor;stroke-width:1.2;stroke-linecap:round;stroke-linejoin:round"
     class="ColorScheme-Text"
     d="M 11,3 C 7.686308,3 5,5.686308 5,9 c 0.00408,3.353643 3,4.347542 3,7 v 1 c 0,1.107997 0.8920033,2 2,2 h 2 c 1.107997,0 2,-0.892003 2,-2 v -1 c 0,-2.652458 2.9959,-3.646357 3,-7 0,-3.313692 -2.686307,-6 -6,-6 z m 0,1 c 2.761412,0 5,2.2385872 5,5 -0.0034,2.794706 -3.000613,4.394103 -3,6 H 9 C 9.000613,13.394103 6.0034,11.794706 6,9 6,6.2385872 8.2385874,4 11,4 Z M 9,16 h 4 v 1 c 0,0.554009 -0.44599,1 -1,1 H 10 C 9.44599,18 9,17.554009 9,17 Z" />
</svg>
