<?xml version="1.0" encoding="UTF-8" standalone="no"?>
<!-- Created with Inkscape (http://www.inkscape.org/) -->

<svg
   width="24"
   height="24"
   viewBox="0 0 24 24"
   version="1.1"
   id="svg5"
   inkscape:version="1.4.4 (dcaf3e7d9e, 2026-05-05)"
   sodipodi:docname="forza-horizon-6.svg"
   xmlns:inkscape="http://www.inkscape.org/namespaces/inkscape"
   xmlns:sodipodi="http://sodipodi.sourceforge.net/DTD/sodipodi-0.dtd"
   xmlns:xlink="http://www.w3.org/1999/xlink"
   xmlns="http://www.w3.org/2000/svg"
   xmlns:svg="http://www.w3.org/2000/svg">
  <sodipodi:namedview
     id="namedview7"
     pagecolor="#ffffff"
     bordercolor="#000000"
     borderopacity="0.25"
     inkscape:showpageshadow="2"
     inkscape:pageopacity="0.0"
     inkscape:pagecheckerboard="0"
     inkscape:deskcolor="#d1d1d1"
     inkscape:document-units="px"
     showgrid="false"
     inkscape:zoom="24.125"
     inkscape:cx="12"
     inkscape:cy="12"
     inkscape:window-width="1440"
     inkscape:window-height="831"
     inkscape:window-x="0"
     inkscape:window-y="0"
     inkscape:window-maximized="1"
     inkscape:current-layer="svg5"
     showguides="true" />
  <defs
     id="defs2">
    <linearGradient
       id="linearGradient3"
       inkscape:collect="always">
      <stop
         style="stop-color:#dfdfdf;stop-opacity:1;"
         offset="0"
         id="stop3" />
      <stop
         style="stop-color:#eeeeee;stop-opacity:1;"
         offset="1"
         id="stop4" />
    </linearGradient>
    <linearGradient
       inkscape:collect="always"
       xlink:href="#linearGradient5"
       id="linearGradient6"
       x1="13.333333"
       y1="16"
       x2="0"
       y2="2.6666667"
       gradientUnits="userSpaceOnUse"
       gradientTransform="matrix(1.5,0,0,1.5,2,-2)" />
    <linearGradient
       id="linearGradient5"
       inkscape:collect="always">
      <stop
         style="stop-color:#e3536d;stop-opacity:1;"
         offset="0"
         id="stop5" />
      <stop
         style="stop-color:#e9788d;stop-opacity:1;"
         offset="1"
         id="stop6" />
    </linearGradient>
    <linearGradient
       inkscape:collect="always"
       xlink:href="#linearGradient3"
       id="linearGradient2"
       x1="21"
       y1="21"
       x2="1"
       y2="1"
       gradientUnits="userSpaceOnUse"
       gradientTransform="translate(1,1)" />
  </defs>
  <rect
     style="fill:url(#linearGradient2)"
     id="rect1"
     width="20"
     height="20"
     x="2"
     y="2"
     ry="3" />
  <path
     id="rect9720"
     style="fill:#191919;fill-opacity:1;stroke-width:1.5;stroke-linecap:round;stroke-linejoin:round"
     d="M 10,8 C 8.338006,8 7.456586,9.401953 7,11 h 3 1 7 c 1.661994,0 3,-1.338006 3,-3 z M 3,12 10.035156,13.931641 9,16 l 3,-1 1,-3 h -2 z m 11,0 -1,3 2,-0.5 1,-2.5 z m 3,0 -1,2.5 2,-0.5 1,-2 z M 5.865234,13.648438 4,18 7.5,16 8.289062,14.423828 Z"
     sodipodi:nodetypes="scccscscccccccccccccccccccccc" />
  <path
     id="rect2"
     style="fill:url(#linearGradient6);fill-opacity:1;stroke-width:1.5"
     d="m 2,19 c 0,1.662 1.338,3 3,3 h 14 c 1.662,0 3,-1.338 3,-3 z" />
</svg>
