<?xml version="1.0" encoding="UTF-8" standalone="no"?>
<!-- Created with Inkscape (http://www.inkscape.org/) -->

<svg
   width="24"
   height="24"
   viewBox="0 0 24 24"
   version="1.1"
   id="svg5"
   inkscape:version="1.3.2 (1:1.3.2+202311252150+091e20ef0f)"
   sodipodi:docname="libreoffice-math.svg"
   xmlns:inkscape="http://www.inkscape.org/namespaces/inkscape"
   xmlns:sodipodi="http://sodipodi.sourceforge.net/DTD/sodipodi-0.dtd"
   xmlns:xlink="http://www.w3.org/1999/xlink"
   xmlns="http://www.w3.org/2000/svg"
   xmlns:svg="http://www.w3.org/2000/svg">
  <sodipodi:namedview
     id="namedview7"
     pagecolor="#ffffff"
     bordercolor="#666666"
     borderopacity="1.0"
     inkscape:pageshadow="2"
     inkscape:pageopacity="0.0"
     inkscape:pagecheckerboard="0"
     inkscape:document-units="px"
     showgrid="false"
     units="px"
     height="64px"
     inkscape:zoom="33.791667"
     inkscape:cx="12"
     inkscape:cy="12"
     inkscape:window-width="1920"
     inkscape:window-height="1008"
     inkscape:window-x="0"
     inkscape:window-y="0"
     inkscape:window-maximized="1"
     inkscape:current-layer="svg5"
     inkscape:showpageshadow="2"
     inkscape:deskcolor="#d1d1d1" />
  <defs
     id="defs2">
    <linearGradient
       inkscape:collect="always"
       xlink:href="#linearGradient4"
       id="linearGradient3212"
       x1="3.447747"
       y1="0.64509004"
       x2="2.7696862"
       y2="0"
       gradientUnits="userSpaceOnUse"
       gradientTransform="matrix(7.5591312,0,0,7.5591312,-5.5659066,2)" />
    <linearGradient
       inkscape:collect="always"
       xlink:href="#linearGradient2"
       id="linearGradient3634"
       x1="2"
       y1="-1.3228346e-07"
       x2="10.000097"
       y2="10.000122"
       gradientUnits="userSpaceOnUse"
       gradientTransform="matrix(1.9999755,0,0,1.9999755,4.91e-5,2)" />
    <linearGradient
       inkscape:collect="always"
       id="linearGradient2">
      <stop
         style="stop-color:#dd6b96;stop-opacity:1;"
         offset="0"
         id="stop1" />
      <stop
         style="stop-color:#d33d7e;stop-opacity:1;"
         offset="1"
         id="stop2" />
    </linearGradient>
    <linearGradient
       inkscape:collect="always"
       id="linearGradient4">
      <stop
         style="stop-color:#c0175a;stop-opacity:1;"
         offset="0"
         id="stop3" />
      <stop
         style="stop-color:#de4b7e;stop-opacity:1;"
         offset="1"
         id="stop4" />
    </linearGradient>
  </defs>
  <path
     id="rect857"
     style="fill:url(#linearGradient3634);stroke-width:1.99997"
     d="M 5.9999754,2 C 4.891989,2 4,2.8919892 4,3.9999755 V 20.000025 C 4,21.108008 4.891989,22 5.9999754,22 H 17.999634 c 1.107987,0 1.999975,-0.891992 1.999975,-1.999975 V 11.499768 C 20.02262,10.206515 19.266652,9.34067 18.601188,8.6007737 L 13.399225,3.3984204 C 12.65933,2.7329597 11.592299,2.0129386 10.00083,2 Z"
     sodipodi:nodetypes="ssssssccccs" />
  <path
     d="m 15.370515,2 c -1.213331,0.00999 -0.893592,1.1343033 -0.601571,1.3984516 l 4.26703,4.2872026 c 0.264145,0.2920256 1.388474,0.6117681 1.398452,-0.6015708 V 4.0000201 C 20.434426,2.8920091 19.542417,2 18.434405,2 Z"
     style="fill:url(#linearGradient3212);stroke-width:2.00002"
     id="path3058"
     sodipodi:nodetypes="ccccssc" />
  <path
     id="path1199"
     style="color:#000000;fill:#ffffff;fill-opacity:1;stroke:none;stroke-width:3.77944;stroke-linejoin:round;-inkscape-stroke:none"
     d="m 10.501953,11 c -0.243523,-10e-4 -0.451937,0.174222 -0.49414,0.414062 l -1.7519536,6.480469 -1.8125,-3.625 -0.8925782,0.451172 2.4980469,4.996094 c 0.2128274,0.442815 0.8702886,0.344918 0.9453125,-0.140625 l 1.9296874,-7.580078 h 7.078125 V 11 Z M 12.707031,13.496094 12,14.203125 14.121094,16.324219 12,18.445312 l 0.707031,0.707032 2.121094,-2.121094 2.121094,2.121094 0.707031,-0.707032 -2.121094,-2.121093 2.121094,-2.121094 -0.707031,-0.707031 -2.121094,2.121094 z" />
</svg>
