<?xml version="1.0" encoding="UTF-8" standalone="no"?>
<!-- Created with Inkscape (http://www.inkscape.org/) -->

<svg
   width="24"
   height="24"
   viewBox="0 0 24 24"
   version="1.1"
   id="svg5"
   inkscape:version="1.3.2 (1:1.3.2+202311252150+091e20ef0f)"
   sodipodi:docname="libreoffice-base.svg"
   xmlns:inkscape="http://www.inkscape.org/namespaces/inkscape"
   xmlns:sodipodi="http://sodipodi.sourceforge.net/DTD/sodipodi-0.dtd"
   xmlns:xlink="http://www.w3.org/1999/xlink"
   xmlns="http://www.w3.org/2000/svg"
   xmlns:svg="http://www.w3.org/2000/svg">
  <sodipodi:namedview
     id="namedview7"
     pagecolor="#ffffff"
     bordercolor="#666666"
     borderopacity="1.0"
     inkscape:pageshadow="2"
     inkscape:pageopacity="0.0"
     inkscape:pagecheckerboard="0"
     inkscape:document-units="px"
     showgrid="false"
     units="px"
     height="64px"
     inkscape:zoom="33.791667"
     inkscape:cx="12"
     inkscape:cy="12"
     inkscape:window-width="1920"
     inkscape:window-height="1008"
     inkscape:window-x="0"
     inkscape:window-y="0"
     inkscape:window-maximized="1"
     inkscape:current-layer="svg5"
     inkscape:showpageshadow="2"
     inkscape:deskcolor="#d1d1d1"
     showguides="false" />
  <defs
     id="defs2">
    <linearGradient
       inkscape:collect="always"
       id="linearGradient3723">
      <stop
         style="stop-color:#541a7c;stop-opacity:1"
         offset="0"
         id="stop3719" />
      <stop
         style="stop-color:#702da1;stop-opacity:1"
         offset="1"
         id="stop3721" />
    </linearGradient>
    <linearGradient
       inkscape:collect="always"
       id="linearGradient3529">
      <stop
         style="stop-color:#b67cd7;stop-opacity:1"
         offset="0"
         id="stop3525" />
      <stop
         style="stop-color:#8536bd;stop-opacity:1"
         offset="1"
         id="stop3527" />
    </linearGradient>
    <linearGradient
       inkscape:collect="always"
       xlink:href="#linearGradient3723"
       id="linearGradient3212"
       x1="3.4454715"
       y1="0.66961104"
       x2="2.7696862"
       y2="0"
       gradientUnits="userSpaceOnUse"
       gradientTransform="matrix(7.5591312,0,0,7.5591312,-5.5659066,2)" />
    <linearGradient
       inkscape:collect="always"
       xlink:href="#linearGradient3529"
       id="linearGradient3634"
       x1="2"
       y1="-1.3228346e-07"
       x2="10.000097"
       y2="10.000122"
       gradientUnits="userSpaceOnUse"
       gradientTransform="matrix(1.9999755,0,0,1.9999755,4.912e-5,2)" />
  </defs>
  <path
     id="rect857"
     style="fill:url(#linearGradient3634);fill-opacity:1;stroke-width:1.99997"
     d="M 5.9999754,2 C 4.891989,2 4,2.891989 4,3.9999754 V 20.000025 C 4,21.108008 4.891989,22 5.9999754,22 H 17.999634 c 1.107987,0 1.999975,-0.891992 1.999975,-1.999975 V 11.499768 C 19.986683,9.9082996 19.266652,9.34067 18.601188,8.6007737 L 13.399225,3.3984205 C 12.65933,2.7329598 12.09131,2.0129385 10.499841,2 Z"
     sodipodi:nodetypes="ssssssccccs" />
  <path
     d="m 15.370515,2 c -1.213331,0.00999 -0.893592,1.1343034 -0.601571,1.3984515 l 4.26703,4.267203 c 0.264145,0.2920257 1.388474,0.6117681 1.398452,-0.6015708 V 4.00002 C 20.434426,2.8920091 19.542417,2 18.434405,2 Z"
     style="fill:url(#linearGradient3212);fill-opacity:1;stroke-width:2.00002"
     id="path3058"
     sodipodi:nodetypes="ccccssc" />
  <path
     id="path6092"
     style="fill:#ffffff;fill-opacity:1;stroke-width:0.236647"
     d="M 8 16 L 8 18 C 8 19.104542 9.7908629 20 12 20 C 14.209137 20 16 19.104542 16 18 L 16 16 C 16 17.104542 14.209137 18 12 18 C 9.7908632 18 8 17.104542 8 16 z " />
  <path
     id="rect1587"
     style="fill:#ffffff;fill-opacity:1;stroke-width:0.894415"
     d="M 8 13 L 8 15 C 8 16.104541 9.7908651 17 12 17 C 14.209135 17 16 16.104541 16 15 L 16 13 C 16 14.104541 14.209135 15 12 15 C 9.7908654 15 8 14.104541 8 13 z " />
  <path
     id="rect1461"
     style="fill:#ffffff;fill-opacity:1;stroke-width:0.894415"
     d="M 8 10.5 L 8 12 C 8 13.104542 9.7908629 14 12 14 C 14.209137 14 16 13.104542 16 12 L 16 10.5 L 8 10.5 z " />
  <ellipse
     style="fill:#ffffff;fill-opacity:1;stroke-width:0.670821;stroke-linecap:round;stroke-linejoin:round"
     id="path9564"
     cx="11.999999"
     cy="10.5"
     rx="3.9999993"
     ry="1.5" />
</svg>
