<?xml version="1.0" encoding="UTF-8" standalone="no"?>
<!-- Created with Inkscape (http://www.inkscape.org/) -->

<svg
   width="24"
   height="24"
   viewBox="0 0 24 24"
   version="1.1"
   id="svg1"
   inkscape:version="1.3.2 (091e20ef0f, 2023-11-25, custom)"
   sodipodi:docname="lunarclient.svg"
   xmlns:inkscape="http://www.inkscape.org/namespaces/inkscape"
   xmlns:sodipodi="http://sodipodi.sourceforge.net/DTD/sodipodi-0.dtd"
   xmlns:xlink="http://www.w3.org/1999/xlink"
   xmlns="http://www.w3.org/2000/svg"
   xmlns:svg="http://www.w3.org/2000/svg">
  <sodipodi:namedview
     id="namedview1"
     pagecolor="#ffffff"
     bordercolor="#000000"
     borderopacity="0.25"
     inkscape:showpageshadow="2"
     inkscape:pageopacity="0.0"
     inkscape:pagecheckerboard="0"
     inkscape:deskcolor="#d1d1d1"
     inkscape:document-units="px"
     inkscape:zoom="33.416667"
     inkscape:cx="12"
     inkscape:cy="12"
     inkscape:window-width="1920"
     inkscape:window-height="1012"
     inkscape:window-x="0"
     inkscape:window-y="0"
     inkscape:window-maximized="1"
     inkscape:current-layer="svg1" />
  <defs
     id="defs1">
    <linearGradient
       inkscape:collect="always"
       id="linearGradient1066">
      <stop
         style="stop-color:#555556;stop-opacity:1;"
         offset="0"
         id="stop1062" />
      <stop
         style="stop-color:#2d2d2d;stop-opacity:1;"
         offset="1"
         id="stop1064" />
    </linearGradient>
    <linearGradient
       inkscape:collect="always"
       xlink:href="#linearGradient1066"
       id="linearGradient3"
       x1="1"
       y1="1"
       x2="21"
       y2="21"
       gradientUnits="userSpaceOnUse"
       gradientTransform="translate(1,1)" />
  </defs>
  <path
     d="m 12.053711,2 v 9.75e-4 C 11.634936,1.990733 11.221405,2.095467 10.858399,2.303711 L 4.1416015,6.166992 C 3.4350856,6.5732244 2.9998839,7.3241243 3,8.136719 v 7.726562 c 2.343e-4,0.812246 0.435389,1.562691 1.1416015,1.96875 l 6.7167975,3.863281 c 0.706405,0.406341 1.576798,0.406341 2.283203,0 l 6.716796,-3.863281 C 20.564611,17.425972 20.999766,16.675526 21,15.863281 V 8.136719 C 21.000116,7.3241242 20.564914,6.5732243 19.858398,6.166992 L 13.141602,2.303711 C 12.810247,2.1132751 12.43616,2.0088398 12.053711,2 Z"
     style="fill:url(#linearGradient3)"
     id="path1" />
  <path
     d="m 12,4.5020021 c -0.0824,-2.387e-4 -0.163583,0.019889 -0.236328,0.058594 0,0 -1.630343,0.8760545 -3.263672,1.8183593 C 7.6833357,6.8501078 6.8665949,7.3378765 6.2421875,7.7461428 5.9299838,7.9502759 5.6667215,8.1319157 5.4648438,8.2949709 5.363905,8.3764984 5.2792888,8.4519811 5.2011719,8.5391115 5.123055,8.6262419 5,8.6979663 5,9.000049 v 6 H 6 V 9.1582521 C 6.0268485,9.1328978 6.0452213,9.1134639 6.09375,9.0742678 6.2473402,8.9502141 6.4918924,8.7763839 6.7890625,8.5820802 7.3834027,8.1934732 8.1916675,7.7124885 9,7.2461428 c 1.498422,-0.8644744 2.788342,-1.5595409 3,-1.6738282 0.211658,0.1142873 1.501577,0.8093538 3,1.6738282 0.808332,0.4663457 1.616598,0.9473304 2.210938,1.3359374 0.29717,0.1943037 0.541722,0.3681339 0.695312,0.4921876 0.04853,0.039196 0.0669,0.05863 0.09375,0.083984 v 5.8417972 h 1 v -6 C 19,8.6979663 18.876945,8.6262419 18.798828,8.5391115 18.720711,8.4519811 18.636095,8.3764984 18.535156,8.2949709 18.333278,8.1319157 18.070017,7.9502759 17.757812,7.7461428 17.133405,7.3378765 16.316664,6.8501078 15.5,6.3789552 13.866672,5.4366504 12.236328,4.5605959 12.236328,4.5605959 12.163583,4.5218913 12.0824,4.5017634 12,4.5020021 Z m -0.244141,1.8710938 -0.132812,0.2421875 -0.242188,0.1328125 0.242188,0.1328125 0.132812,0.2421875 0.132813,-0.2421875 0.242187,-0.1328125 -0.242187,-0.1328125 z m -1.27539,1.1074219 C 8.9604227,8.2438826 8.0006987,9.7990888 8,11.500049 c 0.00395,1.689173 0.9535429,3.233863 2.458984,4 H 4.5 v 0.25 H 6 v 0.25 H 4.5 v 0.25 H 7 v 0.25 H 5 v 0.25 h 3 v 0.25 H 6.5 v 0.25 H 10 v 0.25 H 9.5 v 0.25 h 5 v -0.25 H 14 v -0.25 h 3.5 v -0.25 H 16 v -0.25 h 3 v -0.25 h -1.5 v -0.25 h 2 v -0.25 H 18 v -0.25 h 1.5 v -0.25 H 14.539062 C 15.393082,15.067372 16.086854,14.3736 16.519531,13.51958 15.893,13.834942 15.201423,13.999475 14.5,14.000049 c -2.485281,0 -4.5,-2.014719 -4.5,-4.5 5.74e-4,-0.7014229 0.165107,-1.3929999 0.480469,-2.0195312 z m 4.77539,0.8671874 -0.132812,0.2421876 -0.242188,0.1328124 0.242188,0.1328126 0.132812,0.2421874 0.13086,-0.2421874 0.24414,-0.1328126 -0.24414,-0.1328124 z M 11.246094,8.7715334 11.068359,9.093799 10.746094,9.2715334 11.068359,9.4492678 11.246094,9.7715334 11.421875,9.4492678 11.746094,9.2715334 11.421875,9.093799 Z M 7.1992188,8.9004396 7.0683594,9.1426271 6.8242188,9.2754396 7.0683594,9.4082521 7.1992188,9.6504396 7.3320312,9.4082521 7.5742188,9.2754396 7.3320312,9.1426271 Z m 6.0019532,0.9765625 -0.13086,0.2421879 -0.24414,0.132812 0.24414,0.132813 0.13086,0.242187 0.132812,-0.242187 0.242188,-0.132813 -0.242188,-0.132812 z M 16.25,10.500049 15.984375,10.984424 15.5,11.250049 15.984375,11.515674 16.25,12.000049 16.515625,11.515674 17,11.250049 16.515625,10.984424 Z m -2.5,0.75 -0.177734,0.322266 L 13.25,11.750049 13.572266,11.927783 13.75,12.250049 13.927734,11.927783 14.25,11.750049 13.927734,11.572315 Z M 7.265625,13.015674 7,13.500049 6.515625,13.765674 7,14.031299 7.265625,14.515674 7.53125,14.031299 8.015625,13.765674 7.53125,13.500049 Z"
     style="fill:#ffffff"
     id="path2" />
</svg>
