<?xml version="1.0" encoding="UTF-8" standalone="no"?>
<!-- Created with Inkscape (http://www.inkscape.org/) -->

<svg
   width="24"
   height="24"
   viewBox="0 0 24 24"
   version="1.1"
   id="svg5"
   inkscape:version="1.3.2 (091e20ef0f, 2023-11-25, custom)"
   sodipodi:docname="nvidia.svg"
   xmlns:inkscape="http://www.inkscape.org/namespaces/inkscape"
   xmlns:sodipodi="http://sodipodi.sourceforge.net/DTD/sodipodi-0.dtd"
   xmlns:xlink="http://www.w3.org/1999/xlink"
   xmlns="http://www.w3.org/2000/svg"
   xmlns:svg="http://www.w3.org/2000/svg">
  <sodipodi:namedview
     id="namedview7"
     pagecolor="#ffffff"
     bordercolor="#666666"
     borderopacity="1.0"
     inkscape:pageshadow="2"
     inkscape:pageopacity="0.0"
     inkscape:pagecheckerboard="0"
     inkscape:document-units="px"
     showgrid="false"
     units="px"
     height="48px"
     inkscape:zoom="33.666667"
     inkscape:cx="12"
     inkscape:cy="12"
     inkscape:window-width="1920"
     inkscape:window-height="1012"
     inkscape:window-x="0"
     inkscape:window-y="0"
     inkscape:window-maximized="1"
     inkscape:current-layer="svg5"
     inkscape:lockguides="true"
     inkscape:showpageshadow="2"
     inkscape:deskcolor="#d1d1d1"
     showguides="false" />
  <defs
     id="defs2">
    <linearGradient
       inkscape:collect="always"
       xlink:href="#linearGradient1270"
       id="linearGradient1272"
       x1="34"
       y1="31"
       x2="14"
       y2="17"
       gradientUnits="userSpaceOnUse"
       gradientTransform="translate(-12,-12.000001)" />
    <linearGradient
       inkscape:collect="always"
       id="linearGradient1270">
      <stop
         style="stop-color:#80d935;stop-opacity:1;"
         offset="0"
         id="stop1266" />
      <stop
         style="stop-color:#afd65f;stop-opacity:1;"
         offset="1"
         id="stop1268" />
    </linearGradient>
  </defs>
  <path
     id="path353"
     style="fill:url(#linearGradient1272);fill-opacity:1;stroke-width:0.999999"
     d="m 10.001953,5 v 1.8652339 c 4.440215,-0.045169 7.322266,3.9453131 7.322266,3.9453131 0,0 -3.402669,4.376953 -6.947266,4.376953 -0.324858,0 -0.08934,-0.03046 -0.375001,-0.08398 v 1.166015 c 0.244271,0.03277 -0.04162,0.05273 0.222656,0.05273 3.298497,0 5.684343,-1.781527 7.994141,-3.890625 0.38296,0.324458 1.951138,1.113484 2.273438,1.458984 -2.196098,1.945098 -7.3152,3.513672 -10.216797,3.513672 -0.2797003,0 -0.0094,-0.01799 -0.273438,-0.04492 V 19 H 22 V 5 Z m 0,12.359375 V 16.269531 C 5.9653568,15.731532 4.0429689,11.027344 4.0429689,11.027344 c 0,0 2.3485882,-2.8232351 5.9589841,-3.115235 v -0.0059 C 9.9347112,7.900809 9.7279298,7.895513 9.8164048,7.892527 c 0.062619,-0.0021 0.1237606,-2.151e-4 0.1855482,0 V 6.8886719 C 6.002957,7.2284318 2,10.810547 2,10.810547 c 0,0 2.5014588,5.999629 8.001953,6.548828 z m 0,-10.4707031 c 0.0305,-0.0025 0.02343,-0.00559 0,-0.00779 z m 0,-0.00779 v -0.015647 c -0.06217,6.331e-4 -0.1227702,-2.849e-4 -0.1855482,0.002 -0.087349,0.0032 0.1188132,0.00729 0.1855482,0.013682 z m 0,1.0117191 v 0.013682 c 0.02362,0.0019 0.0302,0.00401 0,0.0059 v 1.2656251 c 0.213899,-0.024076 -0.1065447,-0.041099 0.121092,-0.041019 2.094199,0 3.335937,1.7226559 3.335937,1.7226559 L 12,12.378906 c -0.765199,-1.349438 -0.725248,-1.944722 -1.998047,-2.107422 v 3.833985 c 0.288461,0.102618 0.07025,0.164062 0.427735,0.164062 2.483897,0 4.800781,-3.404297 4.800781,-3.404297 0,0 -2.064451,-2.9616372 -5.228516,-2.9726561 z m 0,6.212891 c -1.7199181,-0.6113 -2.8183592,-2.734375 -2.8183592,-2.734375 0,0 1.5376543,-1.263663 2.8144532,-1.101563 0.0014,0 0.0024,0.002 0.00389,0.002 V 9.1778082 c -2.4327972,0.2784 -4.4375003,1.9941408 -4.4375003,1.9941408 0,0 1.386703,3.356261 4.4375003,3.931641 z" />
</svg>
