<?xml version="1.0" encoding="UTF-8" standalone="no"?>
<!-- Created with Inkscape (http://www.inkscape.org/) -->

<svg
   width="22"
   height="22"
   viewBox="0 0 22 22"
   version="1.1"
   id="svg2535"
   inkscape:version="1.2 (1:1.2.1+202207142221+cd75a1ee6d)"
   sodipodi:docname="preferences-system-time.svg"
   xmlns:inkscape="http://www.inkscape.org/namespaces/inkscape"
   xmlns:sodipodi="http://sodipodi.sourceforge.net/DTD/sodipodi-0.dtd"
   xmlns:xlink="http://www.w3.org/1999/xlink"
   xmlns="http://www.w3.org/2000/svg"
   xmlns:svg="http://www.w3.org/2000/svg">
  <sodipodi:namedview
     id="namedview2537"
     pagecolor="#ffffff"
     bordercolor="#000000"
     borderopacity="0.25"
     inkscape:showpageshadow="2"
     inkscape:pageopacity="0.0"
     inkscape:pagecheckerboard="0"
     inkscape:deskcolor="#d1d1d1"
     inkscape:document-units="px"
     showgrid="false"
     inkscape:zoom="36.818182"
     inkscape:cx="10.98642"
     inkscape:cy="11"
     inkscape:window-width="1920"
     inkscape:window-height="1012"
     inkscape:window-x="0"
     inkscape:window-y="0"
     inkscape:window-maximized="1"
     inkscape:current-layer="svg2535" />
  <defs
     id="defs2532">
    <radialGradient
       id="radialGradient875"
       cx="20.107"
       cy="28.705"
       r="28"
       gradientTransform="matrix(0.35522241,0.2005937,-0.15804861,0.27987904,4.889023,-2.4087062)"
       gradientUnits="userSpaceOnUse">
      <stop
         stop-color="#5ab5e2"
         offset="0"
         id="stop2" />
      <stop
         stop-color="#4189ac"
         offset=".45901"
         id="stop4" />
      <stop
         stop-color="#295e76"
         offset="1"
         id="stop6" />
    </radialGradient>
    <linearGradient
       id="linearGradient883"
       x1="4"
       x2="59.861"
       y1="31.360001"
       y2="31.360001"
       gradientTransform="matrix(0.32141314,0,0,0.32141314,0.71461303,0.71431835)"
       gradientUnits="userSpaceOnUse">
      <stop
         stop-color="#b0d6df"
         offset="0"
         id="stop9" />
      <stop
         stop-color="#e1f8fc"
         offset=".21709"
         id="stop11" />
      <stop
         stop-color="#96c3ce"
         offset="1"
         id="stop13" />
    </linearGradient>
    <linearGradient
       inkscape:collect="always"
       xlink:href="#linearGradient1611"
       id="linearGradient1109"
       x1="1.8368058"
       y1="2.3578029"
       x2="1.8673608"
       y2="5.5564623"
       gradientUnits="userSpaceOnUse"
       gradientTransform="matrix(3.464567,0,0,3.464567,0.08333341,1.7499994)" />
    <linearGradient
       inkscape:collect="always"
       id="linearGradient1611">
      <stop
         style="stop-color:#9ca3a8;stop-opacity:1;"
         offset="0"
         id="stop1607" />
      <stop
         style="stop-color:#63737d;stop-opacity:1"
         offset="1"
         id="stop1609" />
    </linearGradient>
    <linearGradient
       inkscape:collect="always"
       xlink:href="#linearGradient3161"
       id="linearGradient3163"
       x1="8.4666662"
       y1="15.345833"
       x2="8.4666662"
       y2="1.5874995"
       gradientUnits="userSpaceOnUse"
       gradientTransform="matrix(0.65414902,0,0,0.65414902,0.96153281,9.9615167)" />
    <linearGradient
       inkscape:collect="always"
       id="linearGradient3161">
      <stop
         style="stop-color:#c7ccd1;stop-opacity:1;"
         offset="0"
         id="stop3157" />
      <stop
         style="stop-color:#fdfdfd;stop-opacity:1"
         offset="1"
         id="stop3159" />
    </linearGradient>
  </defs>
  <rect
     x="2.0003839"
     y="2"
     width="17.999617"
     height="17.999617"
     rx="8.9998083"
     ry="8.9998083"
     fill="url(#radialGradient875)"
     id="rect30"
     style="fill:url(#radialGradient875);stroke-width:0.321415" />
  <path
     d="M 11.046692,2.4499911 C 10.352597,2.4992151 9.6735911,2.6266315 9.0114153,2.8412718 8.7751759,2.8504918 8.2617615,3.1547678 8.6759935,3.2975615 8.8687721,3.503503 9.3289897,3.5690412 9.2731007,3.9055591 9.347444,4.2013525 8.5855755,4.1879314 8.8391599,4.4558368 9.0189634,4.6924654 9.198763,4.9291073 9.3785775,5.1657427 9.7105814,5.0591034 9.8201385,4.719082 10.004334,4.4573675 10.517053,4.2312104 11.242708,4.1628999 11.58155,3.727693 11.687727,3.4198403 11.793904,3.1120154 11.900084,2.804163 11.615617,2.6861046 11.331146,2.5680462 11.046693,2.4499595 Z M 8.5787644,2.5290781 C 8.2607399,2.4947711 8.0573159,2.6902141 7.8199309,2.818348 7.5277319,2.854136 7.1975939,2.9628912 7.013458,3.1979009 7.34123,3.3466484 7.5476564,3.1881719 7.8305805,3.0757843 8.093269,2.9412044 8.9867259,2.8850546 8.5787644,2.5290465 Z M 6.5265683,3.473008 C 6.3630697,3.7225781 6.641413,4.0837971 6.2673986,4.2147725 6.08278,4.4484845 5.9214433,4.8320997 6.3828896,4.6929027 6.4957739,4.3465907 6.8464388,3.8608091 7.2455206,4.0636356 7.6474821,4.1716356 8.019504,4.8470984 8.347697,4.3120866 8.3475643,4.172938 7.8371981,4.0915417 7.8485975,3.7511275 7.6214914,3.6536962 7.1360228,3.8307483 7.1529725,3.4766748 6.8248717,3.3309888 6.7303714,4.0569227 6.6140942,3.6511756 6.5849162,3.5917943 6.5557382,3.532413 6.5265562,3.4730045 Z m 8.9065097,0.3146423 c -0.388341,0.077655 -0.771914,0.1663608 -1.078387,0.4332801 0.08896,0.3556736 -0.369892,0.4155221 -0.573977,0.6129468 -0.148075,0.083558 0.0027,0.7290156 0.132427,0.6288177 0.275856,-0.3639533 0.418551,-0.050003 0.674985,0.129721 0.230808,0.214371 0.377363,-0.3980912 0.254767,-0.5707381 -0.07193,-0.2782522 0.27801,-0.4840974 0.403941,-0.7119738 0.385012,-0.2469679 0.05968,0.3150845 0.04736,0.5113103 -0.194343,0.5798857 0.862032,0.017499 0.165706,0.45083 -0.18678,0.1865272 -0.255171,0.4628594 -0.542179,0.6007056 -0.154968,0.1891502 -0.746414,0.1004939 -0.666765,-0.1945701 -0.215981,-0.3385134 -0.162671,0.4074214 -0.236051,0.4038497 -0.357951,-0.106662 -0.464479,0.2928794 -0.688964,0.4840392 -0.171795,0.1973631 -0.778274,0.074906 -0.325493,0.3806336 0.330232,0.3810519 -0.06581,0.3105826 -0.338994,0.4120694 -0.386062,0.066478 -0.321532,0.402712 -0.311542,0.7063056 0.0059,0.1673083 0.376463,0.4155216 0.564107,0.2988321 0.374812,-0.040139 0.280237,-0.5001191 0.557149,-0.6403952 0.230082,-0.1969512 0.391551,-0.378593 0.737024,-0.3833015 0.1595,0.1522205 0.48188,0.3810516 0.612616,0.5054884 -0.360801,0.3931105 0.165717,0.3610733 0.216083,0.00292 0.177971,-0.1972196 -0.586217,-0.6613077 -0.08227,-0.4574003 0.333563,0.1100409 0.256857,0.4508012 0.405263,0.680835 0.263803,0.4459415 0.292051,0.1131741 0.316611,-0.2317947 0.438285,-0.1376882 0.557083,0.7632185 1.14783,0.5519324 0.442731,0.1163338 0.232929,0.4026198 -0.04661,0.5874761 -0.255299,0.1862135 -0.635985,0.058579 -0.916179,-0.04252 -0.277196,-0.1423125 -0.611268,-0.060722 -0.757185,0.2223125 -0.323932,-0.2795622 -0.553248,-0.723674 -1.023847,-0.7482723 -0.445581,-0.023083 -0.895422,0.09539 -1.325432,0.2165344 -0.47645,0.5591584 -0.991929,1.1037358 -1.213924,1.8184118 -0.230438,0.283185 0.263153,0.452839 -0.112037,0.710564 -0.261207,0.243882 0.08896,0.545117 0.143021,0.818591 0.281103,0.333351 0.712065,1.42986 1.146185,1.00573 0.244309,-0.386001 0.406312,0.252846 0.693586,-0.148067 0.241799,-0.220713 0.43763,0.22176 0.776714,0.06439 0.301523,0.1503 0.327741,0.444921 0.168416,0.726856 -0.102316,0.286246 0.443269,0.403942 0.288037,0.738105 -0.07318,0.326782 0.07017,0.604185 0.232506,0.877271 -0.360832,0.376641 -0.317333,0.934568 -0.22726,1.406519 0.176546,0.647026 0.429381,1.295913 0.404121,1.977197 0.316162,0.08293 0.549379,-0.126467 0.810823,-0.236409 0.499013,0.07058 0.770478,-0.46187 1.080341,-0.767261 -0.232781,-0.312922 0.191229,-0.447951 0.366501,-0.650388 -0.262169,-0.226764 -0.435889,-0.446928 -0.03,-0.623776 0.187233,-0.190172 0.53798,-0.297675 0.599477,-0.562939 -0.161234,-0.48047 -0.06941,-0.990968 -0.09312,-1.487727 0.198788,-0.400642 0.409851,-0.792761 0.740025,-1.102117 0.131675,-0.434449 0.44816,-0.832662 0.417471,-1.299001 -0.769607,0.230238 -0.537232,-0.09779 -0.110734,-0.409671 0.295976,-0.217069 0.716804,-0.419543 0.806802,-0.789644 0.0646,-0.365273 -0.220867,-0.9324106 -0.46922,-0.395751 -0.12064,-0.171028 -0.545629,-0.3296333 -0.539748,-0.5980992 -0.09101,-0.5413969 0.146403,-0.2162192 0.357471,0.039458 0.490939,-0.3639232 1.131636,1.0044092 0.924429,0.028044 C 19.634262,7.6547698 18.562826,5.6584926 16.957891,4.2560233 16.81113,4.4123019 16.566219,4.9949667 16.388503,4.6586436 16.136906,4.3917424 15.939442,4.1507835 16.451939,4.2498714 16.954188,4.1135635 16.453839,4.0343102 16.190586,4.00323 15.926552,3.9724117 15.681706,3.8756948 15.433042,3.7875702 Z M 5.6025884,3.8007653 C 5.270315,3.9287438 5.7680561,4.4167179 5.1723372,4.2604518 4.5192216,4.556399 4.0841409,5.274609 3.6301905,5.8338864 2.5713034,7.3303167 1.9956155,9.1590157 2.0000253,10.991978 c 0.1737456,0.358609 0.6016671,0.48014 0.9218202,0.678107 0.3253743,0.111303 0.7351344,0.09449 0.8970712,0.45395 0.181115,0.18966 0.424131,0.443988 0.6828752,0.46457 0.3976108,-0.127412 0.4536801,0.233102 0.2530847,0.499788 -0.021732,0.292112 -0.346851,0.527718 -0.3106129,0.784634 0.072438,0.287867 -0.3621505,0.604936 -0.069388,0.8683 0.3080012,0.550638 0.6376361,1.085377 1.0541771,1.560956 0.2590828,0.226984 0.2283628,0.539509 0.198788,0.851684 -0.1028145,0.329934 0.2090268,0.520788 0.3764032,0.760094 -0.4078727,0.747822 0.6968836,0.897279 1.1592638,1.224273 0.2324602,-0.212575 0.2509376,-0.556638 0.6365866,-0.566238 0.2338583,-0.163834 0.2837832,-0.533688 0.4444104,-0.779593 -0.00514,-0.261196 -0.1724122,-0.505279 0.099142,-0.789763 0.2046116,-0.172701 0.6268366,-0.05753 0.703005,-0.418073 0.2779427,-0.286297 0.053048,-0.683085 0.053048,-1.030446 C 9.3156007,15.258475 9.6880769,15.031452 9.6467376,14.6228 9.6935092,14.013303 8.5961601,14.040693 8.2094986,13.67116 7.7342188,13.657554 7.8303367,13.009884 7.4603546,12.923847 7.0930424,12.942318 6.9594852,12.65453 6.8292881,12.362349 6.6269794,12.224366 6.2462203,12.504777 6.0345147,12.331857 5.7947308,12.205537 5.5796345,11.734329 5.3097302,12.028801 4.9545079,12.286361 4.6051654,12.548001 4.2681827,12.11678 4.0496417,11.919853 4.3242237,11.360827 4.0147994,11.396045 3.3542435,11.634982 4.2241527,10.436578 3.6057882,10.595572 3.4593334,10.825131 3.1784175,11.179331 2.9052731,10.907687 2.6309701,10.778621 2.7662813,10.358969 2.7785134,10.107634 2.7903849,9.8136597 3.1624151,9.6670938 3.3762207,9.5329962 3.7909021,9.7184534 3.7057925,9.1657746 4.0523762,9.3505255 4.3885777,9.2789224 4.5403756,9.8182443 4.6768728,9.8383453 4.7570922,9.5726517 4.6122735,9.1843295 4.8588503,9.0092818 5.1469569,8.7667733 5.5272061,8.5943022 5.5983046,8.1868491 5.6042234,7.7515885 6.1323836,8.118406 6.2635106,7.8219962 6.3843991,7.4823731 6.7369901,7.5035853 7.0348241,7.4395065 7.1977323,7.2883541 7.6071817,6.822779 7.1013521,6.9592767 6.9171126,6.9343771 6.1754215,7.0330908 6.6790507,6.8556273 6.9271344,6.6678365 7.2278294,6.6938586 7.5063133,6.6569753 7.7256332,6.4712962 8.1090293,6.4090912 8.125889,6.0710284 7.9438571,5.8234565 7.5582708,5.8705781 7.7219478,5.5154975 7.7061305,5.0510175 7.2970367,5.3492082 7.1626394,5.3138794 7.3809082,5.0101362 6.8788222,4.8188898 6.7103093,4.8146307 6.5957783,5.1008732 6.2737886,5.3478373 6.387425,5.6772919 6.0517032,5.7318158 5.8944155,5.9748107 5.7935278,6.2773392 5.6928718,6.3124 5.7256018,5.68401 5.3403576,5.7419098 5.0682418,5.7353447 4.7318506,5.3292987 5.0183441,5.1694028 5.4111254,4.9208872 5.899485,4.7263719 6.1478498,4.3294202 6.2906786,3.9738975 6.0272776,3.7556815 5.6765295,3.8061707 l -0.048903,-0.0034 z m 6.6085586,0.4093433 c -0.216779,0.1686463 -0.654406,0.052165 -0.746804,0.2147603 -0.03887,0.3279534 0.47036,0.3228245 0.673726,0.1417738 0.33239,-0.1228951 0.317574,-0.1004674 0.07306,-0.3565417 z M 7.3956499,4.3781951 C 6.9349497,4.5137478 7.3114344,4.8154939 7.6121752,4.8114752 7.970996,4.782524 7.6371579,4.3807753 7.3956499,4.3781951 Z m 5.4937831,0.905261 c -0.03296,0.2934652 0.248946,0.4767182 0.132521,0.7964224 -0.183329,0.4027415 0.07636,0.5236702 0.389662,0.2761209 0.41843,-0.2560214 -0.313553,-0.8168583 -0.411083,-1.0725429 h -0.11111 z M 12.75145,5.7553962 c -0.376014,-0.092428 -0.257057,0.6945166 0.0013,0.4235906 0.27823,-0.048571 0.01104,-0.2629569 -0.0013,-0.4235906 z M 7.95275,6.4646703 C 8.007954,6.7631056 8.027804,7.2362253 8.2462907,6.7280278 8.245991,6.6292612 8.0304268,6.5519963 7.95275,6.4646703 Z m 9.079907,3.068335 c 0.44195,0.3853421 0.620986,0.9434217 0.8701,1.4554507 0.370674,0.19462 0.151249,0.492259 0.202882,0.742362 0.516107,0.451866 -0.522651,0.211204 -0.396593,-0.281767 -0.08422,-0.572565 -0.451971,-0.954758 -0.752325,-1.368839 -0.02362,-0.2191834 -0.258741,-0.4691894 0.07594,-0.5471875 z"
     fill="url(#linearGradient883)"
     id="path32"
     style="fill:url(#linearGradient883);stroke-width:0.321415" />
  <circle
     style="fill:url(#linearGradient1109);fill-opacity:1;stroke-width:0.343751;stroke-linejoin:round"
     id="path1021"
     cx="6.5"
     cy="15.499998"
     r="5.5" />
  <circle
     style="fill:url(#linearGradient3163);fill-opacity:1;stroke-width:0.173077"
     id="path2899"
     cx="6.5000005"
     cy="15.5"
     r="4.5" />
  <path
     id="rect1636"
     style="fill:#444444;fill-opacity:1;stroke-width:0.500001;stroke-linejoin:round"
     d="m 6.4746095,12 c -0.2649144,0.01334 -0.4746094,0.231656 -0.4746094,0.5 v 2.974609 c -4.304e-4,0.0085 0,0.01674 0,0.02539 0,0.277 0.223,0.5 0.5,0.5 h 0.025391 2.9746094 C 9.7770005,16 10,15.777 10,15.5 10,15.223 9.7770005,15 9.5000005,15 h -2.5 v -2.5 c 0,-0.277 -0.223,-0.5 -0.5,-0.5 -0.00866,0 -0.016845,-4.3e-4 -0.025391,0 z" />
</svg>
