<?xml version="1.0" encoding="UTF-8" standalone="no"?>
<!-- Created with Inkscape (http://www.inkscape.org/) -->

<svg
   width="24"
   height="24"
   viewBox="0 0 24 24"
   version="1.1"
   id="svg2535"
   inkscape:version="1.2.1 (9c6d41e410, 2022-07-14, custom)"
   sodipodi:docname="system-file-manager.svg"
   xmlns:inkscape="http://www.inkscape.org/namespaces/inkscape"
   xmlns:sodipodi="http://sodipodi.sourceforge.net/DTD/sodipodi-0.dtd"
   xmlns:xlink="http://www.w3.org/1999/xlink"
   xmlns="http://www.w3.org/2000/svg"
   xmlns:svg="http://www.w3.org/2000/svg">
  <sodipodi:namedview
     id="namedview2537"
     pagecolor="#ffffff"
     bordercolor="#000000"
     borderopacity="0.25"
     inkscape:showpageshadow="2"
     inkscape:pageopacity="0.0"
     inkscape:pagecheckerboard="0"
     inkscape:deskcolor="#d1d1d1"
     inkscape:document-units="px"
     showgrid="false"
     inkscape:zoom="34.166667"
     inkscape:cx="11.985366"
     inkscape:cy="12"
     inkscape:window-width="1920"
     inkscape:window-height="1029"
     inkscape:window-x="0"
     inkscape:window-y="0"
     inkscape:window-maximized="1"
     inkscape:current-layer="svg2535" />
  <defs
     id="defs2532">
    <linearGradient
       inkscape:collect="always"
       xlink:href="#linearGradient11972"
       id="linearGradient11974"
       x1="0.52916628"
       y1="11.641666"
       x2="11.112499"
       y2="3.7041669"
       gradientUnits="userSpaceOnUse"
       gradientTransform="matrix(1.8897638,0,0,1.8897638,1.0000007,-1.0000004)" />
    <linearGradient
       inkscape:collect="always"
       xlink:href="#linearGradient2516"
       id="linearGradient2518"
       x1="19.291992"
       y1="39.291992"
       x2="19"
       y2="58"
       gradientUnits="userSpaceOnUse"
       gradientTransform="matrix(0.4,0,0,0.375,-0.6000004,0.2500001)" />
    <linearGradient
       inkscape:collect="always"
       id="linearGradient2516">
      <stop
         style="stop-color:#0a82ff;stop-opacity:1;"
         offset="0"
         id="stop2512" />
      <stop
         style="stop-color:#0564c8;stop-opacity:1;"
         offset="1"
         id="stop2514" />
    </linearGradient>
    <linearGradient
       inkscape:collect="always"
       xlink:href="#linearGradient2524"
       id="linearGradient2526"
       x1="44.708008"
       y1="39.291992"
       x2="45"
       y2="58"
       gradientUnits="userSpaceOnUse"
       gradientTransform="matrix(0.4,0,0,0.375,-1.0000004,0.2500001)" />
    <linearGradient
       inkscape:collect="always"
       id="linearGradient2524">
      <stop
         style="stop-color:#004bb9;stop-opacity:1;"
         offset="0"
         id="stop2520" />
      <stop
         style="stop-color:#0546b4;stop-opacity:1;"
         offset="1"
         id="stop2522" />
    </linearGradient>
    <linearGradient
       inkscape:collect="always"
       xlink:href="#linearGradient2508"
       id="linearGradient2510"
       x1="16"
       y1="34"
       x2="43.999996"
       y2="34"
       gradientUnits="userSpaceOnUse"
       gradientTransform="matrix(0.5,0,0,0.5,-3.0000004,-3.9999999)" />
    <linearGradient
       inkscape:collect="always"
       id="linearGradient2508">
      <stop
         style="stop-color:#1496ff;stop-opacity:1;"
         offset="0"
         id="stop2504" />
      <stop
         style="stop-color:#0a78ff;stop-opacity:1;"
         offset="1"
         id="stop2506" />
    </linearGradient>
    <linearGradient
       inkscape:collect="always"
       id="linearGradient11972">
      <stop
         style="stop-color:#ffc832;stop-opacity:1;"
         offset="0"
         id="stop11968" />
      <stop
         style="stop-color:#ffdc6e;stop-opacity:1;"
         offset="1"
         id="stop11970" />
    </linearGradient>
  </defs>
  <path
     id="rect846"
     style="fill:#e19600;fill-opacity:1;stroke-width:1;stroke-linecap:round;stroke-linejoin:round;stroke-dasharray:12, 1"
     d="M 3.5000001,3.0000001 C 2.7731731,3.0036501 2.0015558,3.6984193 2,4.5000001 V 19 H 22 V 7.0000003 C 22,6.4459971 21.554,6 21,6 H 11.999999 L 10.5,3.9999995 C 9.817372,3.3318841 9.3309997,3 8.4999995,3 Z"
     sodipodi:nodetypes="ccccssccsc" />
  <path
     id="rect1170"
     style="fill:url(#linearGradient11974);fill-opacity:1;stroke-width:1.32288;stroke-linecap:round;stroke-linejoin:round;stroke-dasharray:15.8745, 1.32288"
     d="m 11.999999,6 -2.5,2.9999992 H 4.0000009 C 2.8920006,8.9999992 2.0000007,9.8919999 2.0000007,11 v 9 c 0,0.554003 0.4460001,1 1,1 H 21 c 0.554003,0 1,-0.445999 1,-1 V 7.0000003 C 22,6.4459971 21.554,6 21,6 Z"
     sodipodi:nodetypes="ccsccccccsc" />
  <path
     id="rect1170-2"
     style="fill:#e4a729;fill-opacity:1;stroke-width:1.32288;stroke-linecap:round;stroke-linejoin:round;stroke-dasharray:15.8745, 1.32288"
     d="m 2,19 v 1 c 0,0.554003 0.4459994,1 1.0000002,1 H 21 c 0.554003,0 1,-0.445999 1,-1 v -1 c 0,0.553995 -0.445999,1 -1,1 H 3.0000002 C 2.4459971,20 2,19.554001 2,19 Z"
     sodipodi:nodetypes="csssscssc" />
  <path
     id="rect1170-75"
     style="opacity:0.3;fill:#ffffff;fill-opacity:1;stroke-width:1.32288;stroke-linecap:round;stroke-linejoin:round;stroke-dasharray:15.8745, 1.32288"
     d="m 11.999999,6 -2.5,2.9999992 H 4.0000006 c -1.108,0 -1.9999999,0.8920007 -1.9999999,2.0000008 v 1 c 0,-1.108 0.8939119,-1.934937 1.9999999,-2.0000001 H 9.9999991 L 12.5,7.0000003 h 8.500001 c 0.554003,0 1,0.4459993 1,0.9999995 V 6.9999995 C 22.000001,6.4459964 21.554001,6 21.000001,6 Z"
     sodipodi:nodetypes="ccsscsccscssc" />
  <rect
     style="fill:url(#linearGradient2518);fill-opacity:1;stroke-width:0.387299"
     id="rect1450"
     width="4"
     height="9"
     x="4.9999995"
     y="13" />
  <rect
     style="fill:url(#linearGradient2526);fill-opacity:1;stroke-width:0.387299"
     id="rect1452"
     width="4"
     height="9"
     x="15"
     y="13" />
  <path
     id="rect1448"
     style="fill:url(#linearGradient2510);fill-opacity:1;stroke-width:0.5"
     d="m 4.9999996,13 4.0004414,4 h 5.999558 l 4,-4 z"
     sodipodi:nodetypes="ccccc" />
</svg>
