<?xml version="1.0" encoding="UTF-8" standalone="no"?>
<!-- Created with Inkscape (http://www.inkscape.org/) -->

<svg
   width="24"
   height="24"
   viewBox="0 0 24 24"
   version="1.1"
   id="svg1"
   inkscape:version="1.3.2 (091e20ef0f, 2023-11-25, custom)"
   sodipodi:docname="winecfg.svg"
   xmlns:inkscape="http://www.inkscape.org/namespaces/inkscape"
   xmlns:sodipodi="http://sodipodi.sourceforge.net/DTD/sodipodi-0.dtd"
   xmlns:xlink="http://www.w3.org/1999/xlink"
   xmlns="http://www.w3.org/2000/svg"
   xmlns:svg="http://www.w3.org/2000/svg">
  <sodipodi:namedview
     id="namedview1"
     pagecolor="#ffffff"
     bordercolor="#000000"
     borderopacity="0.25"
     inkscape:showpageshadow="2"
     inkscape:pageopacity="0.0"
     inkscape:pagecheckerboard="0"
     inkscape:deskcolor="#d1d1d1"
     inkscape:document-units="px"
     inkscape:zoom="33.125"
     inkscape:cx="11.984906"
     inkscape:cy="12"
     inkscape:window-width="1920"
     inkscape:window-height="1008"
     inkscape:window-x="0"
     inkscape:window-y="0"
     inkscape:window-maximized="1"
     inkscape:current-layer="svg1" />
  <defs
     id="defs1">
    <linearGradient
       inkscape:collect="always"
       id="linearGradient6">
      <stop
         style="stop-color:#bdc3c8;stop-opacity:1;"
         offset="0"
         id="stop5" />
      <stop
         style="stop-color:#dbdbdb;stop-opacity:1;"
         offset="1"
         id="stop6" />
    </linearGradient>
    <linearGradient
       id="linearGradient7"
       inkscape:collect="always">
      <stop
         style="stop-color:#e83a3a;stop-opacity:1;"
         offset="0"
         id="stop7" />
      <stop
         style="stop-color:#de5e5e;stop-opacity:1;"
         offset="1"
         id="stop8" />
    </linearGradient>
    <linearGradient
       inkscape:collect="always"
       xlink:href="#linearGradient6"
       id="linearGradient9"
       x1="16"
       y1="21"
       x2="6"
       y2="1"
       gradientUnits="userSpaceOnUse"
       gradientTransform="translate(1,1)" />
    <linearGradient
       inkscape:collect="always"
       xlink:href="#linearGradient7"
       id="linearGradient11"
       x1="14"
       y1="13"
       x2="8"
       y2="6"
       gradientUnits="userSpaceOnUse"
       gradientTransform="translate(1,1)" />
    <linearGradient
       inkscape:collect="always"
       xlink:href="#linearGradient6060"
       id="linearGradient6062"
       x1="1.0583334"
       y1="1.0583338"
       x2="15.345835"
       y2="13.229167"
       gradientUnits="userSpaceOnUse"
       gradientTransform="matrix(0.70866141,0,0,0.70866141,11.000002,11.006271)" />
    <linearGradient
       inkscape:collect="always"
       id="linearGradient6060">
      <stop
         style="stop-color:#8a8f97;stop-opacity:1;"
         offset="0"
         id="stop6056" />
      <stop
         style="stop-color:#8a8f97;stop-opacity:1"
         offset="0.14573747"
         id="stop6576" />
      <stop
         style="stop-color:#616e7a;stop-opacity:1"
         offset="0.89999998"
         id="stop6770" />
      <stop
         style="stop-color:#616e7a;stop-opacity:1"
         offset="1"
         id="stop6058" />
    </linearGradient>
    <linearGradient
       inkscape:collect="always"
       xlink:href="#linearGradient8250"
       id="linearGradient8252"
       x1="5.458415"
       y1="4.8895097"
       x2="12.337581"
       y2="11.768677"
       gradientUnits="userSpaceOnUse"
       gradientTransform="matrix(0.6299213,0,0,0.6299213,11.228291,11.586525)" />
    <linearGradient
       inkscape:collect="always"
       id="linearGradient8250">
      <stop
         style="stop-color:#0568ba;stop-opacity:1;"
         offset="0"
         id="stop8246" />
      <stop
         style="stop-color:#0568ba;stop-opacity:1"
         offset="0.23999999"
         id="stop9054" />
      <stop
         style="stop-color:#0f4c8a;stop-opacity:1"
         offset="0.80000001"
         id="stop8830" />
      <stop
         style="stop-color:#0f4c8f;stop-opacity:1"
         offset="1"
         id="stop8248" />
    </linearGradient>
    <linearGradient
       inkscape:collect="always"
       xlink:href="#linearGradient7024"
       id="linearGradient7026"
       x1="14.634075"
       y1="13.653037"
       x2="4.0507412"
       y2="3.0697033"
       gradientUnits="userSpaceOnUse"
       gradientTransform="matrix(0.62992126,0,0,0.62992126,11.11502,11.732864)" />
    <linearGradient
       inkscape:collect="always"
       id="linearGradient7024">
      <stop
         style="stop-color:#ffffff;stop-opacity:1;"
         offset="0"
         id="stop7020" />
      <stop
         style="stop-color:#f0f0f0;stop-opacity:1"
         offset="0.25"
         id="stop7732" />
      <stop
         style="stop-color:#cccccc;stop-opacity:1"
         offset="1"
         id="stop7022" />
    </linearGradient>
  </defs>
  <path
     id="path3"
     style="fill:url(#linearGradient9)"
     d="M 8,2 C 7.4460006,2 7,2.4460006 7,3 v 8 a 5,5 0 0 0 4,4.886719 V 20 H 8 c -0.5539994,0 -1,0.446001 -1,1 0,0.553999 0.4460006,1 1,1 h 8 c 0.553999,0 1,-0.446001 1,-1 0,-0.553999 -0.446001,-1 -1,-1 H 13 V 15.886719 A 5,5 0 0 0 17,11 V 3 C 17,2.4460006 16.553999,2 16,2 Z" />
  <path
     id="path4"
     style="fill:url(#linearGradient11)"
     d="M 9.5,7 C 9.2230003,7 9,7.2230003 9,7.5 V 11 a 3,3 0 0 0 3,3 3,3 0 0 0 3,-3 V 7.5 C 15,7.2230003 14.777,7 14.5,7 Z" />
  <path
     id="path5884"
     style="fill:url(#linearGradient6062);fill-opacity:1;stroke-width:0.1875"
     d="m 15.135254,11.304 c -0.787938,0.258327 -1.513777,0.677171 -2.131713,1.230102 0.337293,0.675137 0.313639,1.474409 -0.06299,2.128418 -0.378406,0.643454 -1.051303,1.057345 -1.796264,1.104858 -0.091,0.40683 -0.139363,0.822037 -0.144287,1.238892 0.0056,0.417054 0.05472,0.832386 0.146483,1.239258 0.744092,0.04814 1.416002,0.461796 1.794066,1.104492 0.375293,0.651275 0.400574,1.446941 0.06738,2.120728 0.615277,0.549834 1.337352,0.966847 2.121094,1.224975 0.417067,-0.625621 1.119076,-1.001565 1.870972,-1.001953 0.752215,-6.1e-5 1.454703,0.375781 1.872069,1.001587 0.787764,-0.259227 1.513232,-0.678946 2.130616,-1.232666 -0.333573,-0.669847 -0.312298,-1.461702 0.05676,-2.112671 0.377977,-0.642837 1.049903,-1.056635 1.794067,-1.104858 0.09174,-0.406752 0.140838,-0.82196 0.146485,-1.238892 -0.0049,-0.416855 -0.05328,-0.832062 -0.144287,-1.238892 -0.744961,-0.04751 -1.417859,-0.461404 -1.796265,-1.104858 -0.370999,-0.653715 -0.391059,-1.449515 -0.05347,-2.121093 -0.620071,-0.556692 -1.349305,-0.978118 -2.141235,-1.237425 -0.412899,0.628673 -1.112624,1.009453 -1.864746,1.01477 -0.752122,-0.0053 -1.451846,-0.386097 -1.864746,-1.01477 z"
     sodipodi:nodetypes="ccccccccccccccccccccc" />
  <circle
     style="fill:url(#linearGradient7026);fill-opacity:1;stroke-width:0.166667"
     id="path6952"
     cx="17"
     cy="16.999863"
     r="3" />
  <circle
     style="fill:url(#linearGradient8252);fill-opacity:1;stroke-width:0.166667"
     id="path8010"
     cx="16.999992"
     cy="16.999863"
     r="2" />
</svg>
