<?xml version="1.0" encoding="UTF-8" standalone="no"?>
<!-- Created with Inkscape (http://www.inkscape.org/) -->

<svg
   width="32"
   height="32"
   viewBox="0 0 32 32"
   version="1.1"
   id="svg5"
   inkscape:version="1.2.1 (9c6d41e410, 2022-07-14, custom)"
   sodipodi:docname="folder-network.svg"
   xmlns:inkscape="http://www.inkscape.org/namespaces/inkscape"
   xmlns:sodipodi="http://sodipodi.sourceforge.net/DTD/sodipodi-0.dtd"
   xmlns:xlink="http://www.w3.org/1999/xlink"
   xmlns="http://www.w3.org/2000/svg"
   xmlns:svg="http://www.w3.org/2000/svg">
  <sodipodi:namedview
     id="namedview7"
     pagecolor="#ffffff"
     bordercolor="#666666"
     borderopacity="1.0"
     inkscape:pageshadow="2"
     inkscape:pageopacity="0.0"
     inkscape:pagecheckerboard="0"
     inkscape:document-units="px"
     showgrid="false"
     units="px"
     height="64px"
     inkscape:zoom="25.3125"
     inkscape:cx="15.980247"
     inkscape:cy="16"
     inkscape:window-width="1920"
     inkscape:window-height="1012"
     inkscape:window-x="0"
     inkscape:window-y="0"
     inkscape:window-maximized="1"
     inkscape:current-layer="svg5"
     inkscape:showpageshadow="2"
     inkscape:deskcolor="#d1d1d1" />
  <defs
     id="defs2">
    <linearGradient
       inkscape:collect="always"
       id="linearGradient2474">
      <stop
         style="stop-color:#fcbc19;stop-opacity:1;"
         offset="0"
         id="stop2470" />
      <stop
         style="stop-color:#f4b61f;stop-opacity:1;"
         offset="1"
         id="stop2472" />
    </linearGradient>
    <linearGradient
       inkscape:collect="always"
       id="linearGradient2412">
      <stop
         style="stop-color:#e4a729;stop-opacity:1;"
         offset="0"
         id="stop2408" />
      <stop
         style="stop-color:#e4a729;stop-opacity:0;"
         offset="1"
         id="stop2410" />
    </linearGradient>
    <linearGradient
       inkscape:collect="always"
       id="linearGradient2350">
      <stop
         style="stop-color:#ffffff;stop-opacity:1;"
         offset="0"
         id="stop2346" />
      <stop
         style="stop-color:#ffffff;stop-opacity:0;"
         offset="1"
         id="stop2348" />
    </linearGradient>
    <linearGradient
       inkscape:collect="always"
       id="linearGradient2290">
      <stop
         style="stop-color:#fce798;stop-opacity:1;"
         offset="0"
         id="stop2286" />
      <stop
         style="stop-color:#ffc937;stop-opacity:1"
         offset="1"
         id="stop2288" />
    </linearGradient>
    <linearGradient
       inkscape:collect="always"
       xlink:href="#linearGradient2290"
       id="linearGradient11974"
       x1="5.2916665"
       y1="5.5562496"
       x2="13.758334"
       y2="13.493751"
       gradientUnits="userSpaceOnUse"
       gradientTransform="scale(1.8897637)" />
    <linearGradient
       inkscape:collect="always"
       xlink:href="#linearGradient2474"
       id="linearGradient4407"
       x1="32"
       y1="10.5"
       x2="32"
       y2="18.5"
       gradientUnits="userSpaceOnUse"
       gradientTransform="matrix(0.5,0,0,0.5,0,-0.5000007)" />
    <linearGradient
       inkscape:collect="always"
       xlink:href="#linearGradient2350"
       id="linearGradient2508"
       gradientUnits="userSpaceOnUse"
       gradientTransform="matrix(0.5,0,0,0.5,0,-0.5000007)"
       x1="2"
       y1="22"
       x2="62"
       y2="22" />
    <linearGradient
       inkscape:collect="always"
       xlink:href="#linearGradient2412"
       id="linearGradient2543"
       gradientUnits="userSpaceOnUse"
       gradientTransform="matrix(0.5,0,0,0.5,2e-7,-1.5000002)"
       x1="2"
       y1="22"
       x2="62"
       y2="22" />
    <linearGradient
       inkscape:collect="always"
       xlink:href="#linearGradient149033"
       id="linearGradient149035"
       x1="33.53513"
       y1="69.619606"
       x2="33.53513"
       y2="80.484001"
       gradientUnits="userSpaceOnUse"
       gradientTransform="matrix(0.99507374,0,0,0.55226259,-17.369939,-13.448303)" />
    <linearGradient
       inkscape:collect="always"
       id="linearGradient149033">
      <stop
         style="stop-color:#66eb6e;stop-opacity:1;"
         offset="0"
         id="stop149029" />
      <stop
         style="stop-color:#66f575;stop-opacity:1"
         offset="0.27098432"
         id="stop156515" />
      <stop
         style="stop-color:#0b8643;stop-opacity:0.99607843"
         offset="1"
         id="stop149031" />
    </linearGradient>
    <linearGradient
       inkscape:collect="always"
       xlink:href="#linearGradient163636"
       id="linearGradient163638"
       x1="74.466713"
       y1="105.9203"
       x2="74.466713"
       y2="114.48812"
       gradientUnits="userSpaceOnUse"
       gradientTransform="matrix(2.4233797,0,0,0.46686319,-157.46108,-23.450293)" />
    <linearGradient
       inkscape:collect="always"
       id="linearGradient163636">
      <stop
         style="stop-color:#ebebeb;stop-opacity:1;"
         offset="0"
         id="stop163632" />
      <stop
         style="stop-color:#fdfdfd;stop-opacity:0.89803922"
         offset="0.36436081"
         id="stop175885" />
      <stop
         style="stop-color:#9c9c9c;stop-opacity:1"
         offset="1"
         id="stop163634" />
    </linearGradient>
  </defs>
  <path
     id="rect846"
     style="fill:url(#linearGradient4407);fill-opacity:1;stroke-width:0.999999;stroke-linecap:round;stroke-linejoin:round;stroke-dasharray:12, 0.999999"
     d="M 3,4 A 2.0000001,2.0000001 0 0 0 1.0097656,5.892578 C 1.0398625,8.1316154 1,19.5 1,19.5 H 31 V 7.9999998 C 31,7.4459997 30.554,6.9999999 30,6.9999999 H 14.5 l -2,-2.0000001 C 11.817372,4.3318841 11.331,4 10.5,4 Z" />
  <path
     id="rect1170"
     style="fill:url(#linearGradient11974);fill-opacity:1;stroke-width:1.32288;stroke-linecap:round;stroke-linejoin:round;stroke-dasharray:15.8745, 1.32288"
     d="m 14.5,7.9999994 -3,2.0000001 H 3.0000002 C 1.8919999,9.9999995 1,10.891999 1,12 v 14.999999 c 0,0.554 0.4459999,1 1,1 h 28 c 0.554,0 1,-0.446 1,-1 V 8.9999996 C 31,8.4459995 30.554001,7.9999994 30,7.9999994 Z"
     sodipodi:nodetypes="ccsccccccsc" />
  <path
     d="m 1.0000002,25.999999 v 1 c 0,0.554 0.4459999,1 1,1 H 30 c 0.554,0 1,-0.446 1,-1 v -1 c 0,0.553999 -0.446,1 -1,1 H 2.0000002 c -0.554,0 -1,-0.446001 -1,-1 z"
     style="fill:#e4a729;fill-opacity:1;stroke-width:1.32288;stroke-linecap:round;stroke-linejoin:round;stroke-dasharray:15.8745, 1.32288"
     id="path2554" />
  <path
     d="m 14.5,7.9999994 -3,2.0000001 H 3 c -1.108,0 -2,0.8919995 -2,1.9999995 v 1 C 1,11.892 1.893912,11.065064 3,11 h 8.5 l 3,-2.0000004 H 29.999999 C 30.554002,8.9999996 31,9.4459994 31,9.9999995 V 8.9999992 C 31,8.4459995 30.554002,7.9999994 29.999999,7.9999994 Z"
     style="opacity:0.3;fill:url(#linearGradient2508);fill-opacity:1;stroke-width:1.32288;stroke-linecap:round;stroke-linejoin:round;stroke-dasharray:15.8745, 1.32288"
     id="path2484" />
  <path
     d="M 14.5,6.9999999 11.5,9 H 3.0000002 c -1.1045695,10e-8 -1.9999999,0.8954308 -2,2 v 0.947266 c 0.027277,-1.083881 0.9093126,-1.9472662 2,-1.9472662 H 11.5 l 3,-2 H 30 c 0.545345,0 0.986362,0.4326693 1,0.9746093 V 7.9999998 C 31,7.4459997 30.554001,6.9999999 30,6.9999999 Z"
     style="fill:url(#linearGradient2543);fill-opacity:1;stroke-width:1.32288;stroke-linecap:round;stroke-linejoin:round;stroke-dasharray:15.8745, 1.32288"
     id="path2519" />
  <rect
     style="fill:url(#linearGradient163638);fill-opacity:1;stroke-width:0.562859;stroke-linecap:round;stroke-linejoin:round"
     id="rect160861"
     width="29.999996"
     height="3.9999998"
     x="1"
     y="25.999998"
     ry="0.99999994" />
  <path
     id="rect160861-5"
     style="opacity:0.2;fill:#000000;fill-opacity:0.996078;stroke-width:0.562859;stroke-linecap:round;stroke-linejoin:round"
     d="m 29.500001,25.999998 c 0.553999,0 0.999998,0.446002 0.999998,1.000001 v 2 c 0,0.554 -0.445999,0.999999 -0.999998,0.999999 h 0.5 c 0.554001,0 1,-0.445999 1,-0.999999 v -2 c 0,-0.553999 -0.445999,-1.000001 -1,-1.000001 z"
     sodipodi:nodetypes="csscssssc" />
  <rect
     style="fill:url(#linearGradient149035);fill-opacity:1;stroke-width:0.392277;stroke-linecap:round;stroke-linejoin:round"
     id="rect144869"
     width="21.999998"
     height="5.9999995"
     x="4.999999"
     y="25"
     ry="0.99999994" />
  <path
     id="rect1858"
     style="opacity:0.3;fill:#000000;fill-opacity:0.996078;stroke-width:1.5;stroke-linecap:round;stroke-linejoin:round"
     d="m 6.9999997,25 v 6.000001 H 7.5 V 25 Z M 24.5,25 v 6.000001 h 0.499997 V 25 Z"
     sodipodi:nodetypes="cccccccccc" />
  <path
     id="rect2034"
     style="opacity:0.3;fill:#ffffff;fill-opacity:0.996078;stroke-width:1.5;stroke-linecap:round;stroke-linejoin:round"
     d="m 7.5,25 v 6.000001 H 8 V 25 Z M 24,25 v 6.000001 h 0.5 V 25 Z"
     sodipodi:nodetypes="cccccccccc" />
</svg>
