<?xml version="1.0" encoding="UTF-8" standalone="no"?>
<!-- Created with Inkscape (http://www.inkscape.org/) -->

<svg
   width="32"
   height="32"
   viewBox="0 0 320 320"
   version="1.1"
   id="svg5"
   inkscape:version="1.2.1 (9c6d41e410, 2022-07-14, custom)"
   sodipodi:docname="folder-documents.svg"
   xmlns:inkscape="http://www.inkscape.org/namespaces/inkscape"
   xmlns:sodipodi="http://sodipodi.sourceforge.net/DTD/sodipodi-0.dtd"
   xmlns:xlink="http://www.w3.org/1999/xlink"
   xmlns="http://www.w3.org/2000/svg"
   xmlns:svg="http://www.w3.org/2000/svg">
  <sodipodi:namedview
     id="namedview7"
     pagecolor="#ffffff"
     bordercolor="#666666"
     borderopacity="1.0"
     inkscape:pageshadow="2"
     inkscape:pageopacity="0.0"
     inkscape:pagecheckerboard="0"
     inkscape:document-units="px"
     showgrid="false"
     units="px"
     height="64px"
     inkscape:zoom="25.25"
     inkscape:cx="16"
     inkscape:cy="16"
     inkscape:window-width="1920"
     inkscape:window-height="1010"
     inkscape:window-x="0"
     inkscape:window-y="0"
     inkscape:window-maximized="1"
     inkscape:current-layer="svg5"
     inkscape:showpageshadow="2"
     inkscape:deskcolor="#d1d1d1" />
  <defs
     id="defs2">
    <linearGradient
       inkscape:collect="always"
       xlink:href="#linearGradient1290"
       id="linearGradient2984"
       x1="0.52916658"
       y1="-7.8427888e-08"
       x2="3.3404446"
       y2="3.8004949"
       gradientUnits="userSpaceOnUse"
       gradientTransform="matrix(69.291333,0,0,66.141728,13.333332,20)" />
    <linearGradient
       inkscape:collect="always"
       id="linearGradient1290">
      <stop
         style="stop-color:#b3c4d5;stop-opacity:1;"
         offset="0"
         id="stop1286" />
      <stop
         style="stop-color:#6986a3;stop-opacity:1"
         offset="1"
         id="stop1288" />
    </linearGradient>
  </defs>
  <rect
     style="fill:url(#linearGradient2984);fill-opacity:1;stroke-width:17.9117"
     id="rect924"
     width="220"
     height="280"
     x="50"
     y="20"
     ry="20" />
  <path
     d="m 90.000002,99.999999 c -5.540001,0 -9.999998,4.460001 -9.999998,10.000001 0,5.54 4.459997,10 9.999998,10 H 150 c 5.54,0 10,-4.46 10,-10 0,-5.54 -4.46,-10.000001 -10,-10.000001 z m 100.000008,0 C 184.46,99.999999 180,104.46 180,110 v 40 c 0,5.54 4.46,10 10.00001,10 H 230 c 5.54,0 10.00001,-4.46 10.00001,-10 V 110 C 240.00001,104.46 235.54,99.999999 230,99.999999 Z M 90.000002,140 c -5.540001,0 -9.999998,4.46 -9.999998,10 0,5.54 4.459997,10 9.999998,10 H 150 c 5.54,0 10,-4.46 10,-10 0,-5.54 -4.46,-10 -10,-10 z m 0,40 c -5.540001,0 -9.999998,4.46 -9.999998,10 0,5.54 4.459997,10 9.999998,10 H 230 c 5.54,0 10.00001,-4.46 10.00001,-10 0,-5.54 -4.46001,-10 -10.00001,-10 z m 0,40 c -5.540001,0 -9.999998,4.46 -9.999998,10 0,5.54 4.459997,10 9.999998,10 H 230 c 5.54,0 10.00001,-4.46 10.00001,-10 0,-5.54 -4.46001,-10 -10.00001,-10 z"
     style="opacity:0.2;fill:#000000;fill-opacity:1;stroke:none;stroke-width:9.99999;stroke-linecap:round;stroke-linejoin:round;stroke-miterlimit:4;stroke-dasharray:none;stroke-opacity:1"
     id="path7079" />
  <path
     id="rect9178"
     style="fill:#ffffff;fill-opacity:1;stroke:none;stroke-width:9.99999;stroke-linecap:round;stroke-linejoin:round;stroke-miterlimit:4;stroke-dasharray:none;stroke-opacity:1"
     d="M 90.000002,90 C 84.460001,90 80,94.460001 80,99.999999 80,105.54 84.460001,110 90.000002,110 H 150 c 5.54,0 10,-4.46 10,-10.000001 C 160,94.460001 155.54,90 150,90 Z M 190.00001,90 C 184.46,90 180,94.460001 180,99.999999 V 140 c 0,5.54 4.46,10 10.00001,10 H 230 c 5.54,0 10.00001,-4.46 10.00001,-10 V 99.999999 C 240.00001,94.460001 235.54,90 230,90 Z M 90.000002,130 C 84.460001,130 80,134.46 80,140 c 0,5.54 4.460001,10 10.000002,10 H 150 c 5.54,0 10,-4.46 10,-10 0,-5.54 -4.46,-10 -10,-10 z m 0,40 C 84.460001,170 80,174.46 80,180 c 0,5.54 4.460001,10 10.000002,10 H 230 c 5.54,0 10.00001,-4.46 10.00001,-10 0,-5.54 -4.46001,-10 -10.00001,-10 z m 0,40 C 84.460001,210 80,214.46 80,220 c 0,5.54 4.460001,10 10.000002,10 H 230 c 5.54,0 10.00001,-4.46 10.00001,-10 0,-5.54 -4.46001,-10 -10.00001,-10 z"
     sodipodi:nodetypes="sssssssssssssssssssssssssssssssssssss" />
</svg>
