<?xml version="1.0" encoding="UTF-8" standalone="no"?>
<!-- Created with Inkscape (http://www.inkscape.org/) -->

<svg
   width="32"
   height="32"
   viewBox="0 0 32 32"
   version="1.1"
   id="svg5"
   inkscape:version="1.2.1 (9c6d41e410, 2022-07-14, custom)"
   sodipodi:docname="folder-open.svg"
   xmlns:inkscape="http://www.inkscape.org/namespaces/inkscape"
   xmlns:sodipodi="http://sodipodi.sourceforge.net/DTD/sodipodi-0.dtd"
   xmlns:xlink="http://www.w3.org/1999/xlink"
   xmlns="http://www.w3.org/2000/svg"
   xmlns:svg="http://www.w3.org/2000/svg">
  <sodipodi:namedview
     id="namedview7"
     pagecolor="#ffffff"
     bordercolor="#666666"
     borderopacity="1.0"
     inkscape:pageshadow="2"
     inkscape:pageopacity="0.0"
     inkscape:pagecheckerboard="0"
     inkscape:document-units="px"
     showgrid="false"
     units="px"
     height="64px"
     inkscape:zoom="25.25"
     inkscape:cx="16"
     inkscape:cy="16"
     inkscape:window-width="1920"
     inkscape:window-height="1010"
     inkscape:window-x="0"
     inkscape:window-y="0"
     inkscape:window-maximized="1"
     inkscape:current-layer="svg5"
     inkscape:showpageshadow="2"
     inkscape:deskcolor="#d1d1d1" />
  <defs
     id="defs2">
    <linearGradient
       inkscape:collect="always"
       id="linearGradient4405">
      <stop
         style="stop-color:#fcbc19;stop-opacity:1;"
         offset="0"
         id="stop4401" />
      <stop
         style="stop-color:#f4b61f;stop-opacity:1"
         offset="1"
         id="stop4403" />
    </linearGradient>
    <linearGradient
       inkscape:collect="always"
       xlink:href="#linearGradient2290"
       id="linearGradient11974"
       x1="5.2916665"
       y1="5.5562496"
       x2="11.676518"
       y2="11.731051"
       gradientUnits="userSpaceOnUse"
       gradientTransform="matrix(1.8897636,0,0,1.8897636,0,2)" />
    <linearGradient
       inkscape:collect="always"
       xlink:href="#linearGradient4405"
       id="linearGradient4407"
       x1="32"
       y1="10.5"
       x2="32"
       y2="18.5"
       gradientUnits="userSpaceOnUse"
       gradientTransform="matrix(0.49999997,0,0,0.49999997,0,-0.5000003)" />
    <linearGradient
       inkscape:collect="always"
       xlink:href="#linearGradient944"
       id="linearGradient946"
       x1="3.4395838"
       y1="1.8520832"
       x2="3.464314"
       y2="3.3940783"
       gradientUnits="userSpaceOnUse"
       gradientTransform="matrix(3.7795272,0,0,3.7795272,-1.0000002,1.0000001)" />
    <linearGradient
       inkscape:collect="always"
       id="linearGradient944">
      <stop
         style="stop-color:#ffffff;stop-opacity:1;"
         offset="0"
         id="stop940" />
      <stop
         style="stop-color:#e5e6e7;stop-opacity:1"
         offset="1"
         id="stop942" />
    </linearGradient>
    <linearGradient
       inkscape:collect="always"
       id="linearGradient2290">
      <stop
         style="stop-color:#fce798;stop-opacity:1;"
         offset="0"
         id="stop2286" />
      <stop
         style="stop-color:#ffc937;stop-opacity:1"
         offset="1"
         id="stop2288" />
    </linearGradient>
    <linearGradient
       inkscape:collect="always"
       id="linearGradient2350">
      <stop
         style="stop-color:#ffffff;stop-opacity:1;"
         offset="0"
         id="stop2346" />
      <stop
         style="stop-color:#ffffff;stop-opacity:0;"
         offset="1"
         id="stop2348" />
    </linearGradient>
    <linearGradient
       inkscape:collect="always"
       xlink:href="#linearGradient2350"
       id="linearGradient2508"
       gradientUnits="userSpaceOnUse"
       gradientTransform="matrix(0.5,0,0,0.5,-1.000001,1.5)"
       x1="2"
       y1="22"
       x2="66"
       y2="22" />
  </defs>
  <path
     id="rect846"
     style="fill:url(#linearGradient4407);fill-opacity:1;stroke-width:0.999999;stroke-linecap:round;stroke-linejoin:round;stroke-dasharray:12, 0.999999"
     d="M 3,4 A 2,2 0 0 0 1.0097657,5.892578 c 0.030096,2.2390375 -0.009766,13.607421 -0.009766,13.607421 H 30.999998 V 7.9999999 c 0,-0.5540002 -0.446,-1.0000001 -1,-1.0000001 H 14.499999 L 12.5,4.9999999 C 11.817372,4.3318842 11.330999,4 10.5,4 Z" />
  <rect
     style="fill:url(#linearGradient946);fill-opacity:1;stroke-width:3;stroke-linecap:round;stroke-linejoin:round"
     id="rect858"
     width="27.999998"
     height="9"
     x="2"
     y="8"
     ry="0.99999994" />
  <path
     id="rect1170"
     style="fill:url(#linearGradient11974);fill-opacity:1;stroke-width:1.32288;stroke-linecap:round;stroke-linejoin:round;stroke-dasharray:15.8745, 1.32288"
     d="m 13.499999,9.9999994 -3,1.9999996 H 2.0000001 c -1.1080001,0 -1.99999998017719,0.892 -1.99999998017719,2 L 1.0000001,26.999998 c 0,0.554 0.4459999,1 0.9999999,1 h 27.999998 c 0.554,0 1,-0.446 1,-1 l 1,-15.999998 c 0,-0.554 -0.445999,-1.0000006 -1,-1.0000006 z"
     sodipodi:nodetypes="ccsccccccsc" />
  <path
     d="m 0.99999905,25.999998 v 1 c 0,0.554 0.44599985,1 0.99999995,1 h 28 c 0.554,0 1,-0.446 1,-1 v -1 c 0,0.553999 -0.446,1 -1,1 h -28 c -0.554,0 -0.99999995,-0.446001 -0.99999995,-1 z"
     style="fill:#e4a729;fill-opacity:1;stroke-width:1.32288;stroke-linecap:round;stroke-linejoin:round;stroke-dasharray:15.8745, 1.32288"
     id="path2554" />
  <path
     d="m 13.499999,10 -3,2 h -8.5 c -1.108,0 -2,0.892 -2,2 v 1 c 0,-1.107999 0.893912,-1.934935 2,-1.999999 h 8.5 l 3,-2.000001 h 17.499999 c 0.554003,0 0.927353,0.562894 0.927353,1.116894 L 31.999999,11 c 0.03596,-0.552832 -0.445998,-1 -1.000001,-1 z"
     style="opacity:0.3;fill:url(#linearGradient2508);fill-opacity:1;stroke-width:1.32288;stroke-linecap:round;stroke-linejoin:round;stroke-dasharray:15.8745, 1.32288"
     id="path2484"
     sodipodi:nodetypes="ccssccccscssc" />
</svg>
