<?xml version="1.0" encoding="UTF-8" standalone="no"?>
<!-- Created with Inkscape (http://www.inkscape.org/) -->

<svg
   width="32"
   height="32"
   viewBox="0 0 32 32"
   version="1.1"
   id="svg5"
   inkscape:version="1.2.1 (9c6d41e410, 2022-07-14, custom)"
   sodipodi:docname="folder-videos.svg"
   xmlns:inkscape="http://www.inkscape.org/namespaces/inkscape"
   xmlns:sodipodi="http://sodipodi.sourceforge.net/DTD/sodipodi-0.dtd"
   xmlns:xlink="http://www.w3.org/1999/xlink"
   xmlns="http://www.w3.org/2000/svg"
   xmlns:svg="http://www.w3.org/2000/svg">
  <sodipodi:namedview
     id="namedview7"
     pagecolor="#ffffff"
     bordercolor="#666666"
     borderopacity="1.0"
     inkscape:pageshadow="2"
     inkscape:pageopacity="0.0"
     inkscape:pagecheckerboard="0"
     inkscape:document-units="px"
     showgrid="false"
     units="px"
     height="64px"
     inkscape:zoom="25.25"
     inkscape:cx="16"
     inkscape:cy="16"
     inkscape:window-width="1920"
     inkscape:window-height="1010"
     inkscape:window-x="0"
     inkscape:window-y="0"
     inkscape:window-maximized="1"
     inkscape:current-layer="svg5"
     inkscape:showpageshadow="2"
     inkscape:deskcolor="#d1d1d1" />
  <defs
     id="defs2">
    <linearGradient
       inkscape:collect="always"
       id="linearGradient1042">
      <stop
         style="stop-color:#b87bf7;stop-opacity:1;"
         offset="0"
         id="stop1038" />
      <stop
         style="stop-color:#8e4beb;stop-opacity:1"
         offset="1"
         id="stop1040" />
    </linearGradient>
    <linearGradient
       inkscape:collect="always"
       xlink:href="#linearGradient1042"
       id="linearGradient932"
       x1="0.5291667"
       y1="0"
       x2="3.7041667"
       y2="4.2333336"
       gradientUnits="userSpaceOnUse"
       gradientTransform="matrix(6.9291333,0,0,6.6141728,1.3333333,2)" />
  </defs>
  <rect
     style="opacity:1;fill:url(#linearGradient932);fill-opacity:1;stroke-width:1.79117"
     id="rect924"
     width="22"
     height="28"
     x="5"
     y="2"
     ry="2" />
  <path
     style="color:#000000;fill:#ffffff;stroke:none;stroke-width:7.17498;stroke-linecap:round;stroke-linejoin:round"
     d="m 12.588596,11.076064 c -0.352993,0.144982 -0.584852,0.487251 -0.588571,0.868839 v 8.392674 c -0.0058,0.852329 1.027458,1.279907 1.62557,0.67265 l 6.094954,-4.196976 c 0.372601,-0.371032 0.372601,-0.974262 0,-1.345298 l -6.094951,-4.1957 c -0.274112,-0.269234 -0.683485,-0.346678 -1.037002,-0.196189 z"
     id="path2850"
     sodipodi:nodetypes="cccccccc" />
  <path
     id="rect8567"
     style="fill:#5a428b;fill-opacity:1;stroke:none;stroke-width:1.5;stroke-linecap:round;stroke-linejoin:round;stroke-miterlimit:4;stroke-dasharray:none;stroke-opacity:1"
     d="M 7.4746094,4.0001913 C 7.209695,4.0135333 7,4.2318475 7,4.5001913 v 2 c 0,0.277 0.223,0.5 0.5,0.5 h 2 c 0.277,0 0.5,-0.223 0.5,-0.5 v -2 c 0,-0.277 -0.223,-0.5 -0.5,-0.5 h -2 c -0.00866,0 -0.016845,-4.304e-4 -0.025391,0 z m 14.9999996,0 C 22.209695,4.0135333 22,4.2318475 22,4.5001913 v 2 c 0,0.277 0.223,0.5 0.5,0.5 h 2 c 0.277,0 0.5,-0.223 0.5,-0.5 v -2 c 0,-0.277 -0.223,-0.5 -0.5,-0.5 h -2 c -0.0087,0 -0.01685,-4.304e-4 -0.02539,0 z M 7.4746094,11.000191 C 7.209695,11.013533 7,11.231847 7,11.500191 v 2 c 0,0.277 0.223,0.5 0.5,0.5 h 2 c 0.277,0 0.5,-0.223 0.5,-0.5 v -2 c 0,-0.277 -0.223,-0.5 -0.5,-0.5 h -2 c -0.00866,0 -0.016845,-4.3e-4 -0.025391,0 z m 14.9999996,0 C 22.209695,11.013533 22,11.231847 22,11.500191 v 2 c 0,0.277 0.223,0.5 0.5,0.5 h 2 c 0.277,0 0.5,-0.223 0.5,-0.5 v -2 c 0,-0.277 -0.223,-0.5 -0.5,-0.5 h -2 c -0.0087,0 -0.01685,-4.3e-4 -0.02539,0 z m -14.9999996,7 C 7.209695,18.013533 7,18.231847 7,18.500191 v 2 c 0,0.277 0.223,0.5 0.5,0.5 h 2 c 0.277,0 0.5,-0.223 0.5,-0.5 v -2 c 0,-0.277 -0.223,-0.5 -0.5,-0.5 h -2 c -0.00866,0 -0.016845,-4.3e-4 -0.025391,0 z m 14.9999996,0 C 22.209695,18.013533 22,18.231847 22,18.500191 v 2 c 0,0.277 0.223,0.5 0.5,0.5 h 2 c 0.277,0 0.5,-0.223 0.5,-0.5 v -2 c 0,-0.277 -0.223,-0.5 -0.5,-0.5 h -2 c -0.0087,0 -0.01685,-4.3e-4 -0.02539,0 z m -14.9999996,7 C 7.209695,25.013531 7,25.231847 7,25.500191 v 2 c 0,0.277 0.223,0.5 0.5,0.5 h 2 c 0.277,0 0.5,-0.223 0.5,-0.5 v -2 c 0,-0.277 -0.223,-0.5 -0.5,-0.5 h -2 c -0.00866,0 -0.016845,-4.3e-4 -0.025391,0 z m 14.9999996,0 C 22.209695,25.013531 22,25.231847 22,25.500191 v 2 c 0,0.277 0.223,0.5 0.5,0.5 h 2 c 0.277,0 0.5,-0.223 0.5,-0.5 v -2 c 0,-0.277 -0.223,-0.5 -0.5,-0.5 h -2 c -0.0087,0 -0.01685,-4.3e-4 -0.02539,0 z" />
</svg>
