<?xml version="1.0" encoding="UTF-8" standalone="no"?>
<!-- Created with Inkscape (http://www.inkscape.org/) -->

<svg
   width="32"
   height="32"
   viewBox="0 0 32 32"
   version="1.1"
   id="svg5"
   inkscape:version="1.2.1 (9c6d41e410, 2022-07-14, custom)"
   sodipodi:docname="folder-template.svg"
   xmlns:inkscape="http://www.inkscape.org/namespaces/inkscape"
   xmlns:sodipodi="http://sodipodi.sourceforge.net/DTD/sodipodi-0.dtd"
   xmlns:xlink="http://www.w3.org/1999/xlink"
   xmlns="http://www.w3.org/2000/svg"
   xmlns:svg="http://www.w3.org/2000/svg">
  <sodipodi:namedview
     id="namedview7"
     pagecolor="#ffffff"
     bordercolor="#666666"
     borderopacity="1.0"
     inkscape:pageshadow="2"
     inkscape:pageopacity="0.0"
     inkscape:pagecheckerboard="0"
     inkscape:document-units="px"
     showgrid="false"
     units="px"
     height="64px"
     inkscape:zoom="25.25"
     inkscape:cx="16"
     inkscape:cy="16"
     inkscape:window-width="1920"
     inkscape:window-height="1010"
     inkscape:window-x="0"
     inkscape:window-y="0"
     inkscape:window-maximized="1"
     inkscape:current-layer="svg5"
     inkscape:showpageshadow="2"
     inkscape:deskcolor="#d1d1d1" />
  <defs
     id="defs2">
    <linearGradient
       inkscape:collect="always"
       id="linearGradient5539">
      <stop
         style="stop-color:#ffffff;stop-opacity:0"
         offset="0"
         id="stop5535" />
      <stop
         style="stop-color:#ffffff;stop-opacity:0.33664191"
         offset="1"
         id="stop5537" />
    </linearGradient>
    <linearGradient
       inkscape:collect="always"
       id="linearGradient5001">
      <stop
         style="stop-color:#ffffff;stop-opacity:0"
         offset="0"
         id="stop4997" />
      <stop
         style="stop-color:#ffffff;stop-opacity:1"
         offset="1"
         id="stop4999" />
    </linearGradient>
    <linearGradient
       inkscape:collect="always"
       id="linearGradient4263">
      <stop
         style="stop-color:#ffffff;stop-opacity:1"
         offset="0"
         id="stop4259" />
      <stop
         style="stop-color:#ffffff;stop-opacity:0.00100058"
         offset="1"
         id="stop4261" />
    </linearGradient>
    <linearGradient
       inkscape:collect="always"
       id="linearGradient11972">
      <stop
         style="stop-color:#4ad2e3;stop-opacity:1"
         offset="0"
         id="stop11968" />
      <stop
         style="stop-color:#8660c5;stop-opacity:1"
         offset="1"
         id="stop11970" />
    </linearGradient>
    <linearGradient
       inkscape:collect="always"
       xlink:href="#linearGradient4263"
       id="linearGradient4265"
       x1="8.4584417"
       y1="6.3224587"
       x2="8.4666672"
       y2="9.5250006"
       gradientUnits="userSpaceOnUse"
       gradientTransform="matrix(3.7795276,0,0,3.7795276,-15.999999,-22.000001)" />
    <linearGradient
       inkscape:collect="always"
       xlink:href="#linearGradient5001"
       id="linearGradient5003"
       x1="19"
       y1="44.711914"
       x2="32"
       y2="36"
       gradientUnits="userSpaceOnUse"
       gradientTransform="translate(-15.999999,-22.000001)" />
    <linearGradient
       inkscape:collect="always"
       xlink:href="#linearGradient5539"
       id="linearGradient5541"
       x1="11.853752"
       y1="12.168457"
       x2="8.4666672"
       y2="9.5250006"
       gradientUnits="userSpaceOnUse"
       gradientTransform="matrix(3.7795276,0,0,3.7795276,-15.999999,-22.000001)" />
    <linearGradient
       inkscape:collect="always"
       xlink:href="#linearGradient11972"
       id="linearGradient939"
       gradientUnits="userSpaceOnUse"
       gradientTransform="matrix(3.7795276,0,0,3.7795276,-15.999454,-22.000174)"
       x1="5.320261"
       y1="6.4749041"
       x2="11.797989"
       y2="13.101656" />
  </defs>
  <path
     id="path3182-6"
     style="color:#000000;fill:url(#linearGradient939);fill-opacity:1;stroke:none;stroke-width:3.78025;stroke-linecap:round;stroke-linejoin:round;stroke-miterlimit:4;stroke-dasharray:none"
     d="M 15.999974,2 C 15.446436,2 14.89393,2.1140661 14.376927,2.343748 l -9,4.0019528 c -0.9392742,0.4170747 -1.6600841,1.16911 -2.0507822,2.0781279 -0.02245,0.052195 -0.04422,0.1049953 -0.064452,0.158211 -0.00344,0.00907 -0.00639,0.018142 -0.00975,0.027213 -0.023357,0.062854 -0.044224,0.1253292 -0.064456,0.1894678 -0.019956,0.063269 -0.03981,0.1269921 -0.05664,0.1913952 -1.587e-4,6.048e-4 1.58e-4,0.00135 0,0.00195 -0.015458,0.059338 -0.030198,0.1194708 -0.042969,0.1796787 -0.00389,0.018142 -0.00809,0.036283 -0.011717,0.05469 -0.00297,0.015118 -0.00503,0.029858 -0.00782,0.044939 -0.00718,0.038324 -0.013493,0.076573 -0.01954,0.1152378 -0.00896,0.057562 -0.01697,0.1156536 -0.023433,0.1738205 -0.0035,0.03137 -0.00699,0.062362 -0.00975,0.09377 -0.00261,0.029858 -0.00393,0.059679 -0.00586,0.089839 -0.00207,0.031748 -0.00454,0.063647 -0.00586,0.095698 -1.58e-4,0.00378 1.459e-4,0.00794 0,0.011717 -0.00186,0.04925 -0.00389,0.098875 -0.00389,0.1484247 V 20.999882 c 1.86e-4,0.345789 0.045986,0.684926 0.1308586,1.009765 0.012132,0.04641 0.025323,0.0909 0.039061,0.136705 0.3297109,1.1005 1.1229241,2.026424 2.2070321,2.507811 L 14.375,28.656116 h 0.002 c 0.06408,0.02835 0.128202,0.05518 0.193361,0.08009 5.62e-4,2.12e-4 0.0014,-2.15e-4 0.002,0 0.06516,0.02494 0.131179,0.04898 0.197264,0.0703 5.82e-4,1.89e-4 0.0014,-1.86e-4 0.002,0 0.132752,0.04275 0.266736,0.07892 0.402344,0.107414 6.13e-4,1.28e-4 0.0013,-1.29e-4 0.002,0 0.271823,0.05696 0.548087,0.08595 0.824218,0.08595 0.06919,0 0.139838,-0.0023 0.208985,-0.0057 0.483846,-0.02495 0.963639,-0.136932 1.416015,-0.33789 l 8.998047,-4.001953 c 1.128665,-0.501173 1.944893,-1.484386 2.248047,-2.644531 C 28.955972,21.68497 28.999815,21.345848 29,21.000056 V 10.000054 c -3.7e-5,-0.069165 -0.0023,-0.1384816 -0.0059,-0.2070423 -0.0036,-0.068409 -0.0086,-0.1354204 -0.01561,-0.2031118 -0.006,-0.058205 -0.01296,-0.1162205 -0.02147,-0.1738205 -0.0014,-0.00983 -0.0024,-0.019654 -0.0039,-0.02948 -0.0018,-0.011716 -0.0039,-0.023433 -0.0059,-0.03515 C 28.93822,9.2964574 28.92726,9.2417297 28.91596,9.1873801 28.88869,9.0557771 28.85461,8.9259125 28.814493,8.7987087 28.474963,7.7224807 27.689031,6.8190526 26.623021,6.3457008 L 17.624973,2.343748 C 17.107972,2.1140661 16.553511,2 15.999974,2 Z" />
  <path
     style="color:#000000;opacity:0.4;fill:url(#linearGradient4265);fill-opacity:1;stroke:none;stroke-width:3.78025;stroke-linecap:round;stroke-linejoin:round;stroke-miterlimit:4;stroke-dasharray:none"
     d="M 14.375924,2.3445022 5.3770597,6.3457813 c -1.4446916,0.6415 -2.3762101,2.0735445 -2.3770586,3.6543047 v 10.999826 c 8.485e-4,1.580761 0.932367,3.012805 2.3770586,3.654308 l 8.9988643,4.00128 c 1.034004,0.459337 2.214151,0.459337 3.248155,0 l 8.998865,-4.00128 c 1.44469,-0.641503 2.376207,-2.073547 2.377054,-3.654308 V 10.000086 C 28.999151,8.4193262 28.067634,6.9872813 26.622944,6.3457813 L 17.624079,2.3445022 c -1.034004,-0.4593362 -2.214151,-0.4593362 -3.248155,0 z"
     id="path3182"
     sodipodi:nodetypes="ccccccccccccc" />
  <path
     id="rect3501"
     style="opacity:0.4;fill:url(#linearGradient5003);fill-opacity:1;stroke-width:3.78002;stroke-linecap:round;stroke-linejoin:round"
     d="M 3.3261732,8.4238283 C 3.115903,8.9130005 3.0002986,9.4469283 3,10.000001 v 11 c 8.489e-4,1.580757 0.9322619,3.012794 2.3769527,3.654297 l 8.9980493,4.001953 c 0.517002,0.229671 1.071462,0.343748 1.625,0.343748 V 14 Z" />
  <path
     id="rect3501-7"
     style="opacity:0.4;fill:url(#linearGradient5541);fill-opacity:1;stroke-width:3.78002;stroke-linecap:round;stroke-linejoin:round"
     d="M 28.673825,8.423828 C 28.88408,8.9130001 28.999695,9.4469283 28.999998,10 v 11.000002 c -8.51e-4,1.580758 -0.932262,3.012794 -2.376952,3.654297 l -8.998048,4.001953 C 17.107997,28.885934 16.553536,29 16.000002,29 V 14 Z" />
</svg>
