<?xml version="1.0" encoding="UTF-8" standalone="no"?>
<!-- Created with Inkscape (http://www.inkscape.org/) -->

<svg
   width="32"
   height="32"
   viewBox="0 0 32 32"
   version="1.1"
   id="svg1080"
   inkscape:version="1.2.1 (9c6d41e410, 2022-07-14, custom)"
   sodipodi:docname="folder-onedrive.svg"
   xmlns:inkscape="http://www.inkscape.org/namespaces/inkscape"
   xmlns:sodipodi="http://sodipodi.sourceforge.net/DTD/sodipodi-0.dtd"
   xmlns="http://www.w3.org/2000/svg"
   xmlns:svg="http://www.w3.org/2000/svg">
  <sodipodi:namedview
     id="namedview1082"
     pagecolor="#ffffff"
     bordercolor="#000000"
     borderopacity="0.25"
     inkscape:showpageshadow="2"
     inkscape:pageopacity="0.0"
     inkscape:pagecheckerboard="0"
     inkscape:deskcolor="#d1d1d1"
     inkscape:document-units="px"
     showgrid="false"
     inkscape:zoom="25.0625"
     inkscape:cx="15.98005"
     inkscape:cy="16"
     inkscape:window-width="1920"
     inkscape:window-height="1011"
     inkscape:window-x="0"
     inkscape:window-y="0"
     inkscape:window-maximized="1"
     inkscape:current-layer="svg1080" />
  <defs
     id="defs1077" />
  <ellipse
     style="fill:#056ab6;fill-opacity:1;stroke-width:1.79999;stroke-linecap:round;stroke-linejoin:round"
     id="path396"
     cx="16"
     cy="15.99997"
     rx="9"
     ry="8.9999704" />
  <path
     d="m 9.0000017,10.857167 c -2.56511,0.0031 -4.9230737,1.423337 -6.1455079,3.70143 l -0.010258,0.0034 C 2.3067411,15.563058 2,16.709705 2,17.928556 c 0.00172,3.655037 2.7611001,6.708038 6.364258,7.040314 v 0.03106 H 9.0000001 23.875001 c 2.286513,0 4.255935,-1.280224 5.308105,-3.155884 l -9.679686,-5.828358 -7.054688,-4.246976 -0.02051,0.0034 C 11.382159,11.174996 10.20154,10.859887 9.0000017,10.857167 Z"
     style="fill:#1581d9;stroke-width:1.7589"
     id="path958" />
  <path
     d="m 23.875001,12.625012 c -0.866632,0.04338 -1.619621,0.204562 -2.327637,0.466131 v 0.0034 c -2.268679,0.955738 -4.627379,1.950277 -6.675293,2.814059 L 2.7382812,21.025738 c 1.0454832,2.150443 3.1196427,3.711999 5.6259768,3.943128 v 0.03107 H 23.875001 C 27.257743,24.999939 30,22.229717 30,18.812475 30,15.395232 27.257743,12.625011 23.875001,12.62501 Z"
     style="fill:#138fe6;stroke-width:1.7589"
     id="path991" />
  <path
     d="m 17.490234,14.803749 c -0.874808,0.368851 -1.814809,0.766059 -2.618163,1.104904 L 2.7382812,21.02574 c 0.00113,0.0022 0.00229,0.0047 0.00341,0.007 0.367653,0.754176 0.8678279,1.42919 1.4628907,2.006093 0.077175,0.07396 0.1553544,0.147138 0.2358398,0.217529 0.1705445,0.15092 0.3450573,0.297773 0.5297854,0.431602 0.1841535,0.13174 0.3772472,0.248851 0.5742186,0.362547 0.073193,0.04277 0.1404393,0.0945 0.215332,0.134654 0.1199319,0.06429 0.2484522,0.111934 0.3725586,0.169184 0.2401957,0.109465 0.4841042,0.21139 0.7382812,0.293488 0.1118411,0.03649 0.2239804,0.07274 0.338379,0.10359 0.3742698,0.09998 0.7579126,0.180884 1.1552736,0.217528 V 25 H 23.875 c 0.370074,0 0.728087,-0.0435 1.080078,-0.107049 0.10584,-0.01938 0.210648,-0.04419 0.314452,-0.06905 0.271628,-0.0642 0.536593,-0.149241 0.792968,-0.248602 0.14681,-0.05785 0.289687,-0.12105 0.430666,-0.189908 0.203798,-0.0979 0.400667,-0.205347 0.591306,-0.324564 0.160931,-0.102253 0.317834,-0.211412 0.468263,-0.328021 0.0828,-0.06328 0.159827,-0.132927 0.239257,-0.200262 0.554078,-0.476226 1.029431,-1.043677 1.391115,-1.688432 l -9.679689,-5.82841 z"
     style="fill:#38afec;stroke-width:1.7589"
     id="path1024" />
</svg>
