<?xml version="1.0" encoding="UTF-8" standalone="no"?>
<!-- Created with Inkscape (http://www.inkscape.org/) -->

<svg
   width="32"
   height="32"
   viewBox="0 0 32 32"
   version="1.1"
   id="svg5"
   inkscape:version="1.2.1 (9c6d41e410, 2022-07-14, custom)"
   sodipodi:docname="folder-music.svg"
   xmlns:inkscape="http://www.inkscape.org/namespaces/inkscape"
   xmlns:sodipodi="http://sodipodi.sourceforge.net/DTD/sodipodi-0.dtd"
   xmlns:xlink="http://www.w3.org/1999/xlink"
   xmlns="http://www.w3.org/2000/svg"
   xmlns:svg="http://www.w3.org/2000/svg">
  <sodipodi:namedview
     id="namedview7"
     pagecolor="#ffffff"
     bordercolor="#666666"
     borderopacity="1.0"
     inkscape:pageshadow="2"
     inkscape:pageopacity="0.0"
     inkscape:pagecheckerboard="0"
     inkscape:document-units="px"
     showgrid="false"
     units="px"
     height="64px"
     inkscape:zoom="25.25"
     inkscape:cx="16"
     inkscape:cy="16"
     inkscape:window-width="1920"
     inkscape:window-height="1010"
     inkscape:window-x="0"
     inkscape:window-y="0"
     inkscape:window-maximized="1"
     inkscape:current-layer="svg5"
     showguides="false"
     inkscape:showpageshadow="2"
     inkscape:deskcolor="#d1d1d1" />
  <defs
     id="defs2">
    <linearGradient
       inkscape:collect="always"
       xlink:href="#linearGradient979"
       id="linearGradient1477"
       x1="0"
       y1="1.0632324e-07"
       x2="4.2333336"
       y2="4.2333336"
       gradientUnits="userSpaceOnUse"
       gradientTransform="matrix(6.6141727,0,0,6.6141727,2,2)" />
    <linearGradient
       inkscape:collect="always"
       id="linearGradient953">
      <stop
         style="stop-color:#7f4947;stop-opacity:1;"
         offset="0"
         id="stop949" />
      <stop
         style="stop-color:#4f366f;stop-opacity:1"
         offset="1"
         id="stop951" />
    </linearGradient>
    <linearGradient
       inkscape:collect="always"
       xlink:href="#linearGradient953"
       id="linearGradient3163"
       x1="2"
       y1="22.696289"
       x2="30"
       y2="22.696289"
       gradientUnits="userSpaceOnUse" />
    <linearGradient
       inkscape:collect="always"
       id="linearGradient979">
      <stop
         style="stop-color:#f09154;stop-opacity:1;"
         offset="0"
         id="stop975" />
      <stop
         style="stop-color:#9d66af;stop-opacity:1"
         offset="1"
         id="stop977" />
    </linearGradient>
  </defs>
  <circle
     style="opacity:1;fill:url(#linearGradient1477);fill-opacity:1;stroke-width:5.24999;stroke-linecap:round;stroke-linejoin:round"
     id="path864"
     cx="16"
     cy="16"
     r="14" />
  <path
     id="path864-1"
     style="fill:url(#linearGradient3163);fill-opacity:1;stroke-width:5.24999;stroke-linecap:round;stroke-linejoin:round"
     d="M 29.986328,15.392577 A 14,14 0 0 1 16,28.999999 a 14,14 0 0 1 -13.9804688,-13.5 14,14 0 0 0 -0.019531,0.5 14,14 0 0 0 14,14 14,14 0 0 0 14,-14 14,14 0 0 0 -0.01367,-0.607422 z" />
  <path
     id="path3347"
     style="opacity:1;fill:#ffffff;fill-opacity:1;stroke-width:3;stroke-linecap:round;stroke-linejoin:round"
     d="M 16.232422,6.9999993 C 15.512124,7.0174434 15,7.5660149 15,8.4316401 v 9.1054679 c -0.60796,-0.351496 -1.297743,-0.536741 -2,-0.537109 -2.209139,0 -3.9999999,1.790861 -3.9999999,4 0,2.209139 1.7908609,4 3.9999999,4 2.209139,0 4,-1.790861 4,-4 v -8.340023 l 4.121094,1.498047 C 22.162273,14.536981 23,13.95157 23,12.84357 V 11 C 23,9.8919992 22.162273,9.0371608 21.121094,8.6582024 L 16.878906,7.1152337 C 16.651148,7.0323366 16.434105,6.995115 16.232422,6.9999993 Z"
     sodipodi:nodetypes="scccsssccssccs" />
</svg>
