<?xml version="1.0" encoding="UTF-8" standalone="no"?>
<!-- Created with Inkscape (http://www.inkscape.org/) -->

<svg
   width="32"
   height="32"
   viewBox="0 0 32 32.000002"
   version="1.1"
   id="svg580"
   inkscape:version="1.2.1 (9c6d41e410, 2022-07-14, custom)"
   sodipodi:docname="network-workgroup.svg"
   xmlns:inkscape="http://www.inkscape.org/namespaces/inkscape"
   xmlns:sodipodi="http://sodipodi.sourceforge.net/DTD/sodipodi-0.dtd"
   xmlns:xlink="http://www.w3.org/1999/xlink"
   xmlns="http://www.w3.org/2000/svg"
   xmlns:svg="http://www.w3.org/2000/svg">
  <sodipodi:namedview
     id="namedview582"
     pagecolor="#ffffff"
     bordercolor="#000000"
     borderopacity="0.25"
     inkscape:showpageshadow="2"
     inkscape:pageopacity="0.0"
     inkscape:pagecheckerboard="0"
     inkscape:deskcolor="#d1d1d1"
     inkscape:document-units="px"
     showgrid="false"
     inkscape:zoom="25.25"
     inkscape:cx="16"
     inkscape:cy="16"
     inkscape:window-width="1920"
     inkscape:window-height="1010"
     inkscape:window-x="0"
     inkscape:window-y="0"
     inkscape:window-maximized="1"
     inkscape:current-layer="svg580"
     showguides="true" />
  <defs
     id="defs577">
    <linearGradient
       inkscape:collect="always"
       xlink:href="#linearGradient2986"
       id="linearGradient2988"
       x1="0.092813492"
       y1="10.202362"
       x2="0.092813492"
       y2="13.470933"
       gradientUnits="userSpaceOnUse"
       gradientTransform="matrix(1.1825939,0,0,1.2237766,18.89024,10.514589)" />
    <linearGradient
       inkscape:collect="always"
       id="linearGradient2986">
      <stop
         style="stop-color:#818990;stop-opacity:1;"
         offset="0"
         id="stop2982" />
      <stop
         style="stop-color:#9fa8b0;stop-opacity:1"
         offset="1"
         id="stop2984" />
    </linearGradient>
    <linearGradient
       inkscape:collect="always"
       xlink:href="#linearGradient1116"
       id="linearGradient1908"
       x1="4"
       y1="32"
       x2="60"
       y2="32"
       gradientUnits="userSpaceOnUse"
       gradientTransform="matrix(0.50000001,0,0,0.50000002,1.0000003,-0.499999)" />
    <linearGradient
       inkscape:collect="always"
       id="linearGradient1116">
      <stop
         style="stop-color:#555a5f;stop-opacity:1;"
         offset="0"
         id="stop1112" />
      <stop
         style="stop-color:#4b4f53;stop-opacity:1"
         offset="1"
         id="stop1114" />
    </linearGradient>
    <linearGradient
       inkscape:collect="always"
       xlink:href="#linearGradient2301"
       id="linearGradient3955"
       x1="5.0270834"
       y1="6.8791666"
       x2="8.2020836"
       y2="8.9958334"
       gradientUnits="userSpaceOnUse"
       gradientTransform="matrix(8.1889761,0,0,8.031496,-37.166667,-48.25)" />
    <linearGradient
       inkscape:collect="always"
       id="linearGradient2301">
      <stop
         style="stop-color:#3fe3e7;stop-opacity:1;"
         offset="0"
         id="stop2297" />
      <stop
         style="stop-color:#066bbc;stop-opacity:1"
         offset="1"
         id="stop2299" />
    </linearGradient>
    <radialGradient
       inkscape:collect="always"
       xlink:href="#linearGradient1819"
       id="radialGradient1821"
       cx="-8.4892759"
       cy="6.6485348"
       fx="-8.4892759"
       fy="6.6485348"
       r="4"
       gradientTransform="matrix(2.0077644,1.0325391,-0.97376757,1.8936048,30.143538,4.1411803)"
       gradientUnits="userSpaceOnUse" />
    <linearGradient
       inkscape:collect="always"
       id="linearGradient1819">
      <stop
         style="stop-color:#5ab5e2;stop-opacity:1;"
         offset="0"
         id="stop1815" />
      <stop
         style="stop-color:#4189ac;stop-opacity:1;"
         offset="0.5"
         id="stop1823" />
      <stop
         style="stop-color:#295e76;stop-opacity:1;"
         offset="1"
         id="stop1817" />
    </linearGradient>
    <linearGradient
       inkscape:collect="always"
       xlink:href="#linearGradient1339"
       id="linearGradient1341"
       x1="-16.257299"
       y1="3.3388042"
       x2="-8.2772894"
       y2="3.3388042"
       gradientUnits="userSpaceOnUse"
       gradientTransform="matrix(1.8749801,0,0,1.8749801,31.482113,3.0681845)" />
    <linearGradient
       inkscape:collect="always"
       id="linearGradient1339">
      <stop
         style="stop-color:#b0d6df;stop-opacity:1;"
         offset="0"
         id="stop1335" />
      <stop
         style="stop-color:#e1f8fc;stop-opacity:1;"
         offset="0.5"
         id="stop1343" />
      <stop
         style="stop-color:#96c3ce;stop-opacity:1;"
         offset="1"
         id="stop1337" />
    </linearGradient>
  </defs>
  <path
     id="rect958"
     style="fill:#bcc5cf;stroke-width:2.50001;stroke-linecap:round;stroke-linejoin:round"
     d="m 11.5,26.500001 h 10.999999 l 1.499997,1.5 H 9.9999997 Z"
     sodipodi:nodetypes="ccccc" />
  <rect
     style="fill:url(#linearGradient2988);fill-opacity:1;stroke-width:1.59148;stroke-linecap:round;stroke-linejoin:round"
     id="rect2848"
     width="4"
     height="4"
     x="15"
     y="23.000002" />
  <rect
     style="fill:#44484c;fill-opacity:1;stroke-width:2.50001;stroke-linecap:round;stroke-linejoin:round"
     id="rect1839"
     width="14"
     height="1"
     x="9.999999"
     y="28.000006" />
  <rect
     style="fill:#b8c2cc;fill-opacity:1;stroke-width:1.03775"
     id="rect1256"
     width="28"
     height="13"
     x="3"
     y="5"
     ry="2" />
  <rect
     style="fill:url(#linearGradient1908);fill-opacity:1;stroke-width:0.499999;stroke-linecap:round"
     id="rect1537"
     width="28"
     height="19"
     x="3"
     y="6"
     ry="2" />
  <rect
     style="fill:url(#linearGradient3955);fill-opacity:1;stroke-width:6.43721;stroke-linecap:round;stroke-linejoin:round"
     id="rect3867"
     width="26"
     height="17"
     x="4"
     y="7"
     ry="1" />
  <ellipse
     style="fill:url(#radialGradient1821);fill-opacity:1;stroke-width:1.87501"
     id="path1449"
     cx="8.5000801"
     cy="9.5"
     rx="7.4999204"
     ry="7.5" />
  <path
     d="M 8.5388307,2.3749874 C 7.9604271,2.4160117 7.3945918,2.5221921 6.8427853,2.7010502 6.6459199,2.7087374 6.2180775,2.9622949 6.5632703,3.0812887 6.7239188,3.2529056 7.1074313,3.30752 7.060851,3.5879476 7.1227817,3.8344401 6.4879189,3.8232558 6.6992384,4.0465078 6.849068,4.2436956 6.9989073,4.4408946 7.148746,4.63809 7.425411,4.5492348 7.5167071,4.2658767 7.6702007,4.0477827 8.0974635,3.859321 8.7021671,3.8023966 8.9845335,3.4397286 L 9.2499743,2.6701281 C 9.0129228,2.5717459 8.7758628,2.4733658 8.5388228,2.3749611 Z M 6.4822453,2.4408931 C 6.21723,2.4122996 6.0477054,2.5751792 5.8498913,2.6819481 5.6063951,2.7117603 5.3312832,2.8023969 5.1778386,2.9982385 5.4509801,3.1221935 5.623,2.9901764 5.8587676,2.8964834 6.0776695,2.7843408 6.8222111,2.7375413 6.4822468,2.4408744 Z M 4.7721003,3.2274924 C 4.6358457,3.4354651 4.8677992,3.7364781 4.5561287,3.8456226 4.4022866,4.0403806 4.2678357,4.3600571 4.6523713,4.2440596 4.7464391,3.9554702 5.0386589,3.5506564 5.3712239,3.7196765 5.7061873,3.8096755 6.0162022,4.3725558 6.289694,3.9267174 6.2895835,3.8107684 5.8642816,3.7429316 5.8737841,3.4592565 5.6845332,3.3780699 5.27998,3.5256121 5.2941041,3.2305484 5.020689,3.1091434 4.9419401,3.7140832 4.8450426,3.3759718 4.8207266,3.3264911 4.7964051,3.2770104 4.7721057,3.2274921 Z m 7.4220107,0.262199 c -0.323612,0.064724 -0.643251,0.138636 -0.898646,0.3610631 0.07414,0.2963911 -0.308236,0.3462638 -0.478306,0.510782 -0.123392,0.069636 0.0022,0.6075067 0.110343,0.5240103 0.22988,-0.3032914 0.348794,-0.041662 0.562479,0.1080921 0.192338,0.1786485 0.314466,-0.33174 0.212306,-0.4756108 -0.05994,-0.2318732 0.231674,-0.4034096 0.336619,-0.5933038 0.320835,-0.2058053 0.04974,0.2625666 0.03947,0.4260873 -0.161942,0.4832333 0.718352,0.014625 0.138092,0.375688 -0.155642,0.155436 -0.212639,0.3857117 -0.45181,0.5005823 -0.12913,0.1576296 -0.622006,0.083736 -0.555633,-0.1621485 -0.17998,-0.2820927 -0.135562,0.3395138 -0.19671,0.3365363 -0.298285,-0.088874 -0.38706,0.2440644 -0.57413,0.4033629 -0.143155,0.1644728 -0.6485525,0.062418 -0.271237,0.31719 0.275191,0.3175416 -0.05484,0.2588172 -0.2824897,0.3433882 -0.321715,0.055387 -0.2679422,0.3355913 -0.2596158,0.5885823 0.00486,0.1394235 0.3137143,0.3462638 0.4700855,0.2490236 0.312338,-0.03345 0.233529,-0.4167611 0.464288,-0.5336566 0.191734,-0.1641171 0.326287,-0.3154902 0.614184,-0.3194143 0.132917,0.1268422 0.401567,0.3175393 0.510506,0.4212348 -0.300668,0.3275893 0.138093,0.3008931 0.180074,0.00246 0.14831,-0.1643421 -0.488511,-0.5510828 -0.06853,-0.3811628 0.277962,0.091705 0.214042,0.3756637 0.337716,0.5673578 0.219832,0.3716133 0.243375,0.094311 0.26384,-0.1931603 0.365233,-0.114749 0.464232,0.636008 0.956515,0.4599402 0.36894,0.096936 0.194108,0.3355125 -0.03883,0.4895573 C 13.10195,7.97135 12.784713,7.8649771 12.55122,7.7807414 12.320226,7.6621489 12.041838,7.7301343 11.92024,7.9660078 11.650301,7.7330414 11.459204,7.3629524 11.067044,7.3424533 10.69573,7.3232155 10.320867,7.4219341 9.9625278,7.5229018 9.5654921,7.9888621 9.13593,8.4426728 8.950935,9.0382286 8.7589057,9.2742136 9.1702293,9.4155907 8.85758,9.6303586 8.63991,9.8335936 8.931717,10.084619 8.9767535,10.31251 c 0.234245,0.277791 0.5933772,1.191536 0.955145,0.838099 0.2035895,-0.321666 0.3385875,0.210702 0.5779775,-0.123393 0.201499,-0.183916 0.364688,0.184798 0.647256,0.05364 0.251268,0.125249 0.273116,0.37076 0.140342,0.605707 -0.08527,0.238533 0.369387,0.336617 0.240028,0.615083 -0.06101,0.272315 0.05846,0.503485 0.193753,0.731051 -0.300689,0.313863 -0.264441,0.778799 -0.189381,1.172088 0.147111,0.539178 0.357815,1.079915 0.336767,1.647646 0.263463,0.06909 0.457813,-0.105374 0.67568,-0.197006 0.415838,0.05882 0.642062,-0.384885 0.900275,-0.639376 -0.19398,-0.260763 0.159355,-0.373289 0.305416,-0.541986 -0.218471,-0.18897 -0.363235,-0.372432 -0.02501,-0.519803 0.156017,-0.158474 0.448308,-0.248059 0.499558,-0.469109 -0.13436,-0.40039 -0.05782,-0.825798 -0.07761,-1.23976 0.165654,-0.333868 0.341535,-0.660628 0.616685,-0.918421 0.109723,-0.362037 0.37346,-0.693878 0.347885,-1.08249 -0.641331,0.191861 -0.447685,-0.0815 -0.09227,-0.3413866 C 15.275892,9.7221978 15.626585,9.5534814 15.701582,9.24507 15.755432,8.9406778 15.517534,8.4680686 15.310568,8.91528 15.210031,8.7727628 14.855881,8.6405893 14.860785,8.4168686 c -0.07584,-0.4511593 0.122004,-0.1801858 0.297889,0.032886 0.409113,-0.303265 0.943021,0.8370007 0.77035,0.023386 C 15.695114,6.712275 14.802257,5.0487287 13.464825,3.880016 13.342519,4.0102521 13.138434,4.495797 12.990339,4.2155305 12.780676,3.9931147 12.616128,3.7923175 13.043199,3.8748898 13.461737,3.7613035 13.044799,3.695248 12.825409,3.6693582 12.605375,3.6436705 12.401347,3.5630838 12.194122,3.4896408 Z M 4.0021246,3.5005664 C 3.7252332,3.6072151 4.1400106,4.0138514 3.6435855,3.8836304 3.0993292,4.1302502 2.7367663,4.7287534 2.3584778,5.1948131 1.4760821,6.4418255 0.99634597,7.965725 1.0000209,9.4931771 c 0.144786,0.2988379 0.5013847,0.4001115 0.7681757,0.5650819 0.2711427,0.09276 0.6126067,0.07875 0.7475508,0.378286 0.1509359,0.158042 0.3534393,0.36999 0.5690582,0.387139 0.3313391,-0.10618 0.3780617,0.19425 0.2109016,0.416481 -0.018187,0.243424 -0.2890394,0.439764 -0.2588429,0.653854 0.060356,0.239887 -0.3017874,0.50411 -0.057824,0.723576 0.256666,0.458862 0.5313581,0.904471 0.8784733,1.300784 0.2158982,0.189155 0.1902991,0.449585 0.1656541,0.70973 -0.085686,0.274942 0.1741859,0.433986 0.3136656,0.633407 -0.3398909,0.623175 0.5807298,0.747725 0.9660423,1.020216 0.1937154,-0.177148 0.2091129,-0.463863 0.5304843,-0.471856 0.19488,-0.136536 0.2364836,-0.444738 0.370335,-0.649652 -0.00434,-0.217663 -0.1436802,-0.421061 0.082611,-0.658128 0.1705104,-0.143904 0.5223563,-0.04798 0.5858299,-0.348388 0.2316165,-0.238574 0.044212,-0.569233 0.044212,-0.858696 C 7.0962715,13.048557 7.4066595,12.859376 7.372212,12.518836 7.4111906,12.01093 6.4967392,12.033756 6.1745258,11.725814 5.7784634,11.714378 5.8585572,11.174756 5.5502448,11.103061 5.2441543,11.118439 5.1328576,10.878631 5.0243598,10.635153 4.8557614,10.52016 4.5384756,10.753839 4.3620568,10.60971 4.1622386,10.504446 3.9829939,10.111771 3.7580754,10.357165 3.4620608,10.571794 3.1709439,10.789826 2.8901281,10.430476 2.7080115,10.26638 2.9368342,9.8005257 2.6789775,9.8298714 2.1285208,10.028983 2.8534444,9.0303236 2.3381398,9.162815 2.2160974,9.35411 1.9820006,9.6492786 1.7543836,9.4229064 1.5257991,9.3153578 1.6385473,8.9656457 1.6487471,8.7562014 1.658685,8.5112257 1.9686619,8.3890893 2.14683,8.2773428 2.4923944,8.4318971 2.4214715,7.971325 2.7102878,8.1252821 2.990453,8.06562 3.1169503,8.5150428 3.2306961,8.5317943 3.2975389,8.310385 3.1768653,7.9867864 3.3823444,7.8409143 3.62243,7.6388274 3.9393014,7.4951028 3.9985493,7.1555622 4.0034278,6.7928493 4.443611,7.0985258 4.5528812,6.8515213 4.6536238,6.5685046 4.9474444,6.5861815 5.1956376,6.5327842 5.3313861,6.4068228 5.6725969,6.0188481 5.2510812,6.1325957 5.0975578,6.1118421 4.4794802,6.1941139 4.8991662,6.046215 5.1059016,5.8897296 5.3564776,5.9114041 5.5885458,5.8806734 5.7713184,5.72595 6.0908036,5.6741046 6.1048533,5.3923891 5.9531673,5.1860812 5.6318425,5.225347 5.7682418,4.9294526 5.7551168,4.5423894 5.4141533,4.790873 5.3021569,4.7614355 5.4840491,4.5083175 5.065645,4.3489476 4.9252187,4.3453984 4.8297823,4.5839314 4.5614559,4.789733 4.6561514,5.0642754 4.3763858,5.1097039 4.2453132,5.3122056 4.161243,5.56431 4.0773566,5.5935225 4.1046373,5.0698736 3.7836029,5.1181226 3.5568432,5.1126851 3.2765206,4.7742851 3.5152618,4.6410396 3.8425771,4.4339443 4.2495394,4.2718504 4.4565073,3.9410608 4.5755312,3.6447952 4.3560271,3.4629521 4.0637441,3.5050248 l -0.040762,-0.00281 z M 9.5091978,3.8416812 C 9.3285435,3.9822109 8.9638678,3.8851434 8.8868657,4.0206481 8.8544871,4.2939395 9.2788285,4.2896664 9.4482964,4.1387905 9.7252878,4.0363791 9.7129371,4.0550727 9.509175,3.8416756 Z M 5.4963261,3.9817609 C 5.112415,4.0947285 5.4261461,4.3461727 5.6767557,4.342824 5.9757701,4.3186926 5.6975686,3.9839116 5.4963261,3.9817609 Z m 4.5781049,0.7543739 c -0.02749,0.244552 0.207452,0.3972595 0.110437,0.6636772 -0.152774,0.3356158 0.06364,0.4363886 0.324712,0.2300994 C 10.858266,5.4165632 10.248285,4.9492039 10.167016,4.7361348 Z M 9.9594385,5.1294139 C 9.6460943,5.0523894 9.7452264,5.7081713 9.96051,5.4824014 10.192369,5.4419229 9.9696957,5.2632745 9.9594385,5.1294139 Z M 5.9605655,5.7204691 C 6.0065569,5.9691632 6.0231341,6.3634246 6.2051796,5.939932 6.2049283,5.8576206 6.0252938,5.7932336 5.9605655,5.7204691 Z m 7.5665085,2.5569187 c 0.368287,0.3211165 0.51748,0.7861765 0.725075,1.2128643 0.308889,0.1621857 0.126037,0.41021 0.169067,0.6186259 0.430089,0.37655 -0.435531,0.176003 -0.330482,-0.2348059 -0.07016,-0.4771285 -0.376635,-0.7956235 -0.626931,-1.1406878 -0.01971,-0.18266 -0.215615,-0.3909857 0.06328,-0.4559836 z"
     style="fill:url(#linearGradient1341);fill-opacity:1;stroke-width:0.267843"
     id="path1308" />
</svg>
