<?xml version="1.0" encoding="UTF-8" standalone="no"?>
<!-- Created with Inkscape (http://www.inkscape.org/) -->

<svg
   width="32"
   height="32"
   viewBox="0 0 32 32"
   version="1.1"
   id="svg5"
   inkscape:version="1.2.1 (9c6d41e410, 2022-07-14, custom)"
   sodipodi:docname="user-trash.svg"
   xmlns:inkscape="http://www.inkscape.org/namespaces/inkscape"
   xmlns:sodipodi="http://sodipodi.sourceforge.net/DTD/sodipodi-0.dtd"
   xmlns:xlink="http://www.w3.org/1999/xlink"
   xmlns="http://www.w3.org/2000/svg"
   xmlns:svg="http://www.w3.org/2000/svg">
  <sodipodi:namedview
     id="namedview7"
     pagecolor="#ffffff"
     bordercolor="#666666"
     borderopacity="1.0"
     inkscape:pageshadow="2"
     inkscape:pageopacity="0.0"
     inkscape:pagecheckerboard="0"
     inkscape:document-units="px"
     showgrid="false"
     units="px"
     height="64px"
     inkscape:zoom="25.84375"
     inkscape:cx="15.980653"
     inkscape:cy="16"
     inkscape:window-width="1920"
     inkscape:window-height="1029"
     inkscape:window-x="0"
     inkscape:window-y="0"
     inkscape:window-maximized="1"
     inkscape:current-layer="svg5"
     inkscape:showpageshadow="2"
     inkscape:deskcolor="#d1d1d1" />
  <defs
     id="defs2">
    <linearGradient
       inkscape:collect="always"
       xlink:href="#linearGradient60807"
       id="linearGradient43497"
       x1="5.0269842"
       y1="1.0583125"
       x2="1.4788554"
       y2="1.415241"
       gradientUnits="userSpaceOnUse"
       gradientTransform="matrix(1.8897914,0,0,1.8897914,2.2842518e-5,1.4294881e-4)" />
    <linearGradient
       inkscape:collect="always"
       id="linearGradient60807">
      <stop
         style="stop-color:#b7bfc7;stop-opacity:0.02526831"
         offset="0"
         id="stop60801" />
      <stop
         style="stop-color:#b6bfc6;stop-opacity:0"
         offset="0.36555651"
         id="stop61639" />
      <stop
         style="stop-color:#b6bfc5;stop-opacity:1"
         offset="0.48513398"
         id="stop60809" />
      <stop
         style="stop-color:#b6bfc5;stop-opacity:0"
         offset="0.73108482"
         id="stop60803" />
      <stop
         style="stop-color:#b6bfc5;stop-opacity:1"
         offset="1"
         id="stop60805" />
    </linearGradient>
    <linearGradient
       inkscape:collect="always"
       xlink:href="#linearGradient60807"
       id="linearGradient59848"
       gradientUnits="userSpaceOnUse"
       x1="5.0269852"
       y1="1.0582422"
       x2="1.8391933"
       y2="1.3265172"
       gradientTransform="matrix(-1.8897914,0,0,1.8897914,31.999864,2.7579919e-4)" />
    <linearGradient
       inkscape:collect="always"
       xlink:href="#linearGradient18900"
       id="linearGradient113015"
       gradientUnits="userSpaceOnUse"
       x1="9.3394947"
       y1="4.2414846"
       x2="9.3713646"
       y2="15.277747"
       gradientTransform="matrix(1.8897914,0,0,1.8897914,2.2842518e-5,2.7583699e-4)" />
    <linearGradient
       inkscape:collect="always"
       id="linearGradient18900">
      <stop
         style="stop-color:#ffffff;stop-opacity:0.80000001"
         offset="0"
         id="stop18896" />
      <stop
         style="stop-color:#ffffff;stop-opacity:0.58473009"
         offset="0.70040143"
         id="stop94701" />
      <stop
         style="stop-color:#ffffff;stop-opacity:0.08762626"
         offset="0.89186656"
         id="stop23845" />
      <stop
         style="stop-color:#fcfcfc;stop-opacity:0.49152461"
         offset="1"
         id="stop18898" />
    </linearGradient>
    <linearGradient
       inkscape:collect="always"
       xlink:href="#linearGradient91628"
       id="linearGradient91630"
       x1="3.1274393"
       y1="9.5520172"
       x2="5.8981671"
       y2="9.1497135"
       gradientUnits="userSpaceOnUse"
       gradientTransform="matrix(1.8897914,0,0,1.8897914,2.2842518e-5,1.4294881e-4)" />
    <linearGradient
       inkscape:collect="always"
       id="linearGradient91628">
      <stop
         style="stop-color:#cccccc;stop-opacity:1"
         offset="0"
         id="stop91624" />
      <stop
         style="stop-color:#cccccc;stop-opacity:0"
         offset="0.1152868"
         id="stop92528" />
      <stop
         style="stop-color:#cccccc;stop-opacity:0"
         offset="1"
         id="stop91626" />
    </linearGradient>
    <linearGradient
       inkscape:collect="always"
       xlink:href="#linearGradient91628"
       id="linearGradient94280"
       gradientUnits="userSpaceOnUse"
       x1="3.1274393"
       y1="9.5520172"
       x2="5.8981671"
       y2="9.1497135"
       gradientTransform="matrix(-1.8897914,0,0,1.8897914,31.999866,1.4294881e-4)" />
    <linearGradient
       inkscape:collect="always"
       id="linearGradient122406">
      <stop
         style="stop-color:#ffffff;stop-opacity:1;"
         offset="0"
         id="stop122402" />
      <stop
         style="stop-color:#ffffff;stop-opacity:0.60000002"
         offset="0.5"
         id="stop123180" />
      <stop
         style="stop-color:#ffffff;stop-opacity:1"
         offset="1"
         id="stop122404" />
    </linearGradient>
    <linearGradient
       inkscape:collect="always"
       xlink:href="#linearGradient122406"
       id="linearGradient1174"
       x1="6.1417325e-08"
       y1="5.3242188"
       x2="32"
       y2="5.3242188"
       gradientUnits="userSpaceOnUse" />
  </defs>
  <path
     style="color:#000000;fill:#c9d1d7;fill-opacity:0.501961;stroke:none;stroke-width:1.88979;stroke-linecap:round;stroke-linejoin:round;-inkscape-stroke:none"
     d="M 6.4989985,2.0001326 C 6.3672253,2.0012222 6.2412159,2.0542818 6.1483529,2.1477722 L 4.1478309,4.6472418 C 4.03779,4.7564399 3.9846083,4.910501 4.0038839,5.0643247 l 3.000784,23.0023063 c 0.034016,0.247184 0.2450759,0.431455 0.4945924,0.431844 H 24.50032 c 0.250919,0.0015 0.464065,-0.183269 0.498287,-0.431844 L 27.995696,5.0643247 C 28.015917,4.9110914 27.964137,4.757121 27.855438,4.6472418 L 25.85492,2.147773 C 25.761149,2.0533793 25.633632,2.0002467 25.500585,2.0001333 Z"
     id="path8844"
     sodipodi:nodetypes="ccccccccccccc" />
  <path
     style="color:#000000;opacity:0.5;fill:url(#linearGradient43497);fill-opacity:1;stroke:none;stroke-width:1.88979;stroke-linecap:round;stroke-linejoin:round;-inkscape-stroke:none"
     d="M 6.4989974,1.9999999 C 6.3672242,2.0010895 6.2412147,2.0541492 6.1483518,2.1476396 L 4.1478306,4.6471106 C 4.0377896,4.7563088 3.9846079,4.9103698 4.0038835,5.0641936 L 7.0046679,28.0665 8.9999772,26.00001 H 9.4999746 V 2.0001326 Z"
     id="path8844-3"
     sodipodi:nodetypes="ccccccccc" />
  <path
     style="color:#000000;opacity:0.5;fill:url(#linearGradient59848);fill-opacity:1;stroke:none;stroke-width:1.88979;stroke-linecap:round;stroke-linejoin:round;-inkscape-stroke:none"
     d="m 25.500887,2.0001326 c 0.131774,0.00109 0.257783,0.054149 0.350642,0.1476396 l 2.000525,2.4994719 c 0.11004,0.1091981 0.163218,0.2632592 0.143943,0.4170829 l -3.000783,23.002305 -1.99531,-2.06649 -0.499997,-1.32e-4 V 2.0001326 Z"
     id="path8844-3-9"
     sodipodi:nodetypes="ccccccccc" />
  <path
     id="rect849"
     style="fill:#9ba1a6;fill-opacity:1;stroke-width:0.499997"
     d="m 24.999897,28.000001 v 1.49976 c 0,0.276998 -0.223,0.499997 -0.499999,0.499997 H 7.4999848 c -0.2769978,0 -0.4999974,-0.223 -0.4999974,-0.499997 v -1.49976 L 8.9999772,26.00001 H 22.999905 Z"
     sodipodi:nodetypes="csssscccc" />
  <path
     id="rect2730-7"
     style="opacity:0.8;fill:url(#linearGradient113015);fill-opacity:1;stroke-width:0.522943"
     d="m 4.1474624,4.6475804 c -0.09541,0.06243 -0.135137,0.1455723 -0.1474582,0.3525392 L 6.9999889,28.000003 H 24.999895 L 27.99988,5.0001177 C 27.9876,4.7931546 27.94782,4.7100126 27.852421,4.6475786 c 0.08272,0.1685782 0.01965,0.3405165 -0.252929,0.3525391 H 4.400391 C 4.127804,4.9880988 4.0647426,4.8161606 4.1474624,4.6475804 Z"
     sodipodi:nodetypes="ccccccccc" />
  <path
     id="rect2730-0"
     style="opacity:0.4;fill:url(#linearGradient91630);fill-opacity:1;stroke-width:0.522943"
     d="m 4.1474624,4.6475804 c -0.095414,0.062434 -0.135137,0.1455761 -0.147462,0.3525392 L 6.9999874,28.000001 H 24.999899 L 27.999883,5.0001177 C 27.9876,4.7931546 27.94782,4.7100126 27.852425,4.6475786 c 0.08272,0.1685782 0.01965,0.3405165 -0.25293,0.3525391 H 4.4003922 C 4.1278051,4.9880988 4.0647437,4.8161606 4.1474624,4.6475804 Z" />
  <path
     id="rect2730-0-1"
     style="opacity:0.4;fill:url(#linearGradient94280);fill-opacity:1;stroke-width:0.522943"
     d="M 4.1474609,4.6475804 C 4.0520467,4.7100182 4.0123239,4.7931527 4.0000027,5.0001196 L 6.9999858,28.000001 H 24.999899 L 27.999883,5.0001193 C 27.9876,4.7931561 27.94782,4.7100141 27.852425,4.6475801 c 0.08272,0.1685707 0.01965,0.3405165 -0.25293,0.3525392 H 4.4003907 C 4.1278036,4.9880248 4.0647422,4.8161659 4.1474609,4.6475804 Z" />
  <path
     id="path8844-8"
     style="color:#000000;fill:#8e8e8e;fill-opacity:0.253914;stroke:none;stroke-width:1.88979;stroke-linecap:round;stroke-linejoin:round;-inkscape-stroke:none"
     d="m 6.4989985,2.0001326 c -0.1317732,0.00109 -0.2577222,0.053972 -0.3505851,0.147462 L 5.4459995,2.9999999 H 26.556999 L 25.854369,2.1475931 C 25.760599,2.0531994 25.633905,2.0002444 25.500855,2.000131 Z"
     sodipodi:nodetypes="ccccccc" />
  <path
     d="m 14.453714,9.5000963 c -0.647332,0 -1.177298,0.3077594 -1.501296,0.8710897 l -0.983122,1.974108 2.789876,1.541575 1.415314,-2.725615 0.825451,-1.6611577 z"
     style="fill:#0068ba;fill-opacity:1;stroke-width:0.176384"
     id="path138735"
     sodipodi:nodetypes="scccccs" />
  <path
     d="m 14.999947,9.5000963 2.285783,4.0937297 -1.143223,0.648433 3.640583,1.325065 1.452545,-4.021421 -1.124992,0.665361 -1.192096,-2.2658562 c -0.17134,-0.2906676 -0.461906,-0.445313 -0.837235,-0.445313 z"
     style="fill:#0091e6;fill-opacity:1;stroke-width:0.176384"
     id="path142126"
     sodipodi:nodetypes="cccccccsc" />
  <path
     d="m 22.835714,17.763834 -1.0532,-1.937629 -2.86299,1.401122 1.420902,2.722705 0.914902,1.999615 1.567245,-3.322578 c 0.189007,-0.403146 0.116598,-0.678976 0.01323,-0.863235 z"
     style="fill:#0068ba;fill-opacity:1;stroke-width:0.176384"
     id="path138735-0"
     sodipodi:nodetypes="ccccccc" />
  <path
     d="m 22.494908,19.319546 -4.037186,-0.0053 0.01005,-1.314278 -2.868955,2.828196 2.865971,2.930762 -0.01372,-1.306953 h 1.999992 c 0.337394,-0.003 0.615158,-0.178204 0.804268,-0.50241 z"
     style="fill:#0091e6;fill-opacity:1;stroke-width:0.176384"
     id="path142126-6"
     sodipodi:nodetypes="ccccccccc" />
  <path
     d="m 10.918473,21.883672 c 0.262794,0.436779 0.537042,0.458233 0.765753,0.486111 l 2.815723,2.48e-4 v -3.367803 l -3.578757,0.0032 -1.581099,0.01992 z"
     style="fill:#0068ba;fill-opacity:1;stroke-width:0.176384"
     id="path146733"
     sodipodi:nodetypes="ccccccc" />
  <path
     d="m 10.804302,21.6753 2.147267,-4.114902 1.161138,0.615782 -1.281011,-3.782174 -3.9229755,1.188872 1.1656185,0.591311 -0.9234929,1.774013 c -0.153086,0.30068 -0.1110237,0.618984 0.074272,0.945383 z"
     style="fill:#0091e6;fill-opacity:1;stroke-width:0.176384"
     id="path146730"
     sodipodi:nodetypes="cccccccsc" />
  <path
     id="rect2730-0-1-5"
     style="opacity:0.4;fill:url(#linearGradient1174);fill-opacity:1;stroke-width:0.522943"
     d="M 4.1484374,4.6484373 C 4.0530232,4.7108751 4.0123212,4.7930329 3.9999999,4.9999998 l 0.089844,0.6953125 c 0.016315,-0.017642 0.036808,-0.032619 0.058593,-0.046875 -0.082719,0.1685854 -0.020634,0.339468 0.251953,0.3515625 H 27.599608 c 0.27258,-0.012023 0.334687,-0.1829918 0.251953,-0.3515625 0.02186,0.014308 0.04222,0.029151 0.05859,0.046875 l 0.08985,-0.6953125 c -0.01209,-0.2069631 -0.05304,-0.2891285 -0.148438,-0.3515625 0.08273,0.1685707 0.02063,0.3395398 -0.251953,0.3515625 H 4.4003904 C 4.1278034,4.9879053 4.0657187,4.8170227 4.1484374,4.6484373 Z" />
</svg>
