<?xml version="1.0" encoding="UTF-8" standalone="no"?>
<!-- Created with Inkscape (http://www.inkscape.org/) -->

<svg
   width="48"
   height="48"
   viewBox="0 0 48 48"
   version="1.1"
   id="svg5"
   inkscape:version="1.4.2 (ebf0e940d0, 2025-05-08)"
   sodipodi:docname="folder-tar.svg"
   xmlns:inkscape="http://www.inkscape.org/namespaces/inkscape"
   xmlns:sodipodi="http://sodipodi.sourceforge.net/DTD/sodipodi-0.dtd"
   xmlns:xlink="http://www.w3.org/1999/xlink"
   xmlns="http://www.w3.org/2000/svg"
   xmlns:svg="http://www.w3.org/2000/svg">
  <sodipodi:namedview
     id="namedview7"
     pagecolor="#ffffff"
     bordercolor="#666666"
     borderopacity="1.0"
     inkscape:pageshadow="2"
     inkscape:pageopacity="0.0"
     inkscape:pagecheckerboard="0"
     inkscape:document-units="px"
     showgrid="false"
     units="px"
     height="64px"
     inkscape:zoom="16.6875"
     inkscape:cx="24"
     inkscape:cy="24"
     inkscape:window-width="1920"
     inkscape:window-height="1011"
     inkscape:window-x="0"
     inkscape:window-y="0"
     inkscape:window-maximized="1"
     inkscape:current-layer="svg5"
     showguides="true"
     inkscape:showpageshadow="2"
     inkscape:deskcolor="#d1d1d1" />
  <defs
     id="defs2">
    <linearGradient
       inkscape:collect="always"
       xlink:href="#linearGradient2290"
       id="linearGradient6679"
       x1="17"
       y1="17.5"
       x2="39"
       y2="39.5"
       gradientUnits="userSpaceOnUse" />
    <linearGradient
       inkscape:collect="always"
       xlink:href="#linearGradient2474"
       id="linearGradient7109"
       x1="24.272949"
       y1="7.7161407"
       x2="24.264668"
       y2="14.865067"
       gradientUnits="userSpaceOnUse" />
    <linearGradient
       inkscape:collect="always"
       xlink:href="#linearGradient2412"
       id="linearGradient2543"
       gradientUnits="userSpaceOnUse"
       gradientTransform="translate(-7.5541798,-5.2849)"
       x1="8.5541801"
       y1="17.284901"
       x2="54.554184"
       y2="17.284901" />
    <linearGradient
       inkscape:collect="always"
       id="linearGradient2412">
      <stop
         style="stop-color:#e4a729;stop-opacity:1;"
         offset="0"
         id="stop2408" />
      <stop
         style="stop-color:#e4a729;stop-opacity:0;"
         offset="1"
         id="stop2410" />
    </linearGradient>
    <linearGradient
       inkscape:collect="always"
       id="linearGradient2350">
      <stop
         style="stop-color:#ffffff;stop-opacity:1;"
         offset="0"
         id="stop2346" />
      <stop
         style="stop-color:#ffffff;stop-opacity:0;"
         offset="1"
         id="stop2348" />
    </linearGradient>
    <linearGradient
       inkscape:collect="always"
       xlink:href="#linearGradient2350"
       id="linearGradient7578"
       x1="0.26458332"
       y1="4.1010418"
       x2="12.435417"
       y2="4.1010418"
       gradientUnits="userSpaceOnUse"
       gradientTransform="scale(3.7795274)" />
    <linearGradient
       inkscape:collect="always"
       id="linearGradient2474">
      <stop
         style="stop-color:#fcbc19;stop-opacity:1;"
         offset="0"
         id="stop2470" />
      <stop
         style="stop-color:#f4b61f;stop-opacity:1;"
         offset="1"
         id="stop2472" />
    </linearGradient>
    <linearGradient
       inkscape:collect="always"
       id="linearGradient2290">
      <stop
         style="stop-color:#fce798;stop-opacity:1;"
         offset="0"
         id="stop2286" />
      <stop
         style="stop-color:#ffc937;stop-opacity:1"
         offset="1"
         id="stop2288" />
    </linearGradient>
    <linearGradient
       inkscape:collect="always"
       xlink:href="#linearGradient6118"
       id="linearGradient6120"
       x1="3.96875"
       y1="2.1166663"
       x2="4.2333336"
       y2="2.9104171"
       gradientUnits="userSpaceOnUse"
       gradientTransform="matrix(15.118102,0,0,6.299212,-16.999964,12.666671)" />
    <linearGradient
       inkscape:collect="always"
       id="linearGradient6118">
      <stop
         style="stop-color:#b7b7b7;stop-opacity:1;"
         offset="0"
         id="stop6114" />
      <stop
         style="stop-color:#7e7e7e;stop-opacity:1"
         offset="1"
         id="stop6116" />
    </linearGradient>
    <linearGradient
       inkscape:collect="always"
       xlink:href="#linearGradient5150"
       id="linearGradient5152"
       x1="3.4494236"
       y1="1.8520833"
       x2="3.4459186"
       y2="2.9104166"
       gradientUnits="userSpaceOnUse"
       gradientTransform="matrix(3.7795275,0,0,-3.7795275,25,38.000002)" />
    <linearGradient
       inkscape:collect="always"
       id="linearGradient5150">
      <stop
         style="stop-color:#aaaaaa;stop-opacity:1;"
         offset="0"
         id="stop5146" />
      <stop
         style="stop-color:#f6f6f5;stop-opacity:1"
         offset="1"
         id="stop5148" />
    </linearGradient>
    <linearGradient
       inkscape:collect="always"
       xlink:href="#linearGradient3105"
       id="linearGradient3097"
       x1="-1.0583334e-07"
       y1="3.7041669"
       x2="2.645833"
       y2="3.7041671"
       gradientUnits="userSpaceOnUse"
       gradientTransform="matrix(3.7795276,0,0,3.7795276,4e-7,15)" />
    <linearGradient
       inkscape:collect="always"
       id="linearGradient3105">
      <stop
         style="stop-color:#d3d3d3;stop-opacity:1;"
         offset="0"
         id="stop3099" />
      <stop
         style="stop-color:#e1e1e1;stop-opacity:1"
         offset="0.09999993"
         id="stop3101" />
      <stop
         style="stop-color:#a3a3a3;stop-opacity:1;"
         offset="1"
         id="stop3103" />
    </linearGradient>
    <linearGradient
       inkscape:collect="always"
       xlink:href="#linearGradient5150"
       id="linearGradient5895"
       x1="8.8635416"
       y1="7.9374995"
       x2="8.8635416"
       y2="6.8791666"
       gradientUnits="userSpaceOnUse"
       gradientTransform="matrix(3.7795276,0,0,3.7795276,-5.000001,1.0000012)" />
    <linearGradient
       inkscape:collect="always"
       xlink:href="#linearGradient6118"
       id="linearGradient21937"
       x1="11.641666"
       y1="6.3499999"
       x2="11.641667"
       y2="7.6729164"
       gradientUnits="userSpaceOnUse"
       gradientTransform="matrix(3.7795276,0,0,3.7795276,-3.0000009,2)" />
    <radialGradient
       inkscape:collect="always"
       xlink:href="#linearGradient9539"
       id="radialGradient9543"
       cx="5.0270848"
       cy="9.5249987"
       fx="5.0270848"
       fy="9.5249987"
       r="0.52916664"
       gradientUnits="userSpaceOnUse"
       gradientTransform="matrix(-6.8743257e-6,7.5110786,-7.5590484,4.679342e-7,75.499852,-2.2629549)" />
    <linearGradient
       inkscape:collect="always"
       id="linearGradient9539">
      <stop
         style="stop-color:#000000;stop-opacity:1;"
         offset="0"
         id="stop9535" />
      <stop
         style="stop-color:#000000;stop-opacity:0;"
         offset="1"
         id="stop9545" />
      <stop
         style="stop-color:#000000;stop-opacity:0;"
         offset="1"
         id="stop9537" />
    </linearGradient>
    <linearGradient
       inkscape:collect="always"
       xlink:href="#linearGradient4066"
       id="linearGradient4068"
       x1="1.0583334"
       y1="2.1166668"
       x2="1.0583328"
       y2="4.1371207"
       gradientUnits="userSpaceOnUse"
       gradientTransform="matrix(5.0393704,0,0,5.9392578,2.6665714,14.428571)" />
    <linearGradient
       inkscape:collect="always"
       id="linearGradient4066">
      <stop
         style="stop-color:#d3d3d3;stop-opacity:1;"
         offset="0"
         id="stop4062" />
      <stop
         style="stop-color:#e1e1e1;stop-opacity:1"
         offset="0.2"
         id="stop4454" />
      <stop
         style="stop-color:#a3a3a3;stop-opacity:1"
         offset="1"
         id="stop4064" />
    </linearGradient>
  </defs>
  <path
     id="rect846"
     style="fill:url(#linearGradient7109);fill-opacity:1;stroke-width:2;stroke-linecap:round;stroke-linejoin:round;stroke-dasharray:24, 2"
     d="M 3.9999999,5 A 3.0000002,3.0000002 0 0 0 1,7.9999995 V 35.999998 H 46.999997 V 13 c 0,-1.108 -0.891998,-2.000001 -1.999997,-2.000001 H 22.999999 l -4,-3.9999993 C 17.634742,5.6637682 16.661999,5 14.999999,5 Z" />
  <path
     id="rect1170"
     style="fill:url(#linearGradient6679);fill-opacity:1;stroke-width:2.64576;stroke-linecap:round;stroke-linejoin:round;stroke-dasharray:31.749, 2.64576"
     d="M 20.999999,12 16,15 H 4.9999997 3.9999999 A 2.9999999,2.9999999 0 0 0 1,17.999999 v 1 V 41 c 0,1.107999 0.8919997,1.999996 1.9999999,1.999996 H 45 c 1.107999,0 1.999997,-0.891997 1.999997,-1.999996 V 13.999999 C 46.999997,12.892 46.108002,12 45,12 Z" />
  <path
     id="path2484"
     style="opacity:0.3;fill:url(#linearGradient7578);fill-opacity:1;stroke-width:2.03729;stroke-linecap:round;stroke-linejoin:round;stroke-dasharray:24.4474, 2.03729"
     d="M 20.999999,12 16,15 H 3.9999998 A 2.9999999,2.9999999 0 0 0 1,17.999999 v 1 a 2.9999999,2.9999999 0 0 1 2.9999998,-3 H 16 L 20.999999,13 H 45 c 1.108006,0 2.000001,0.892001 2.000001,2 v -1 c 0,-1.107999 -0.891995,-2 -2.000001,-2 z" />
  <path
     id="path2519"
     style="fill:url(#linearGradient2543);fill-opacity:1;stroke-width:2.64576;stroke-linecap:round;stroke-linejoin:round;stroke-dasharray:31.749, 2.64576"
     d="M 20.999999,11 16,14 H 3.9999998 A 2.9999999,2.9999999 0 0 0 1,17 v 0.999999 A 2.9999999,2.9999999 0 0 1 3.9999998,15 H 16 l 4.999999,-3 H 45 c 1.108002,0 2.000001,0.892001 2.000001,2 v -1 c 0,-1.107999 -0.891999,-2 -2.000001,-2 z" />
  <path
     id="path2554"
     style="fill:#e4a729;fill-opacity:1;stroke-width:2.64576;stroke-linecap:round;stroke-linejoin:round;stroke-dasharray:31.749, 2.64576"
     d="M 1,40.000001 V 41 c 0,1.107999 0.8920009,2 1.9999999,2 H 45 c 1.107999,0 1.999997,-0.892001 1.999997,-2 v -0.999999 c 0,1.107999 -0.891998,2.000001 -1.999997,2.000001 H 2.9999999 C 1.8920011,42.000002 1,41.108 1,40.000001 Z"
     sodipodi:nodetypes="csssscssc" />
  <rect
     style="fill:#ae9347;fill-opacity:1;stroke-width:1.84198"
     id="rect3074"
     width="40"
     height="5"
     x="4.9999976"
     y="26" />
  <rect
     style="opacity:0.3;fill:#000000;fill-opacity:1;stroke-width:3.17888;stroke-linecap:round"
     id="rect11102"
     width="34"
     height="3"
     x="7.999999"
     y="27.000002" />
  <rect
     style="fill:url(#linearGradient6120);fill-opacity:1;stroke-width:2.58199"
     id="rect6090"
     width="3.9999998"
     height="5"
     x="43"
     y="26" />
  <path
     id="rect5034"
     style="fill:url(#linearGradient5152);fill-opacity:1;stroke-width:0.999999"
     d="m 42.999997,27.000001 v 2 1 h 2.474612 0.02532 c 0.277001,0 0.499997,-0.222999 0.499997,-0.5 v -2 c 0,-0.277001 -0.222992,-0.5 -0.499997,-0.5 h -0.02532 z" />
  <rect
     style="opacity:0.5;fill:url(#radialGradient9543);fill-opacity:1;stroke-width:4.61877;stroke-linecap:round"
     id="rect8144"
     width="3.9999998"
     height="3.9999998"
     x="3.4999027"
     y="35.495876" />
  <path
     id="rect2535"
     style="fill:url(#linearGradient3097);fill-opacity:1;stroke-width:2;stroke-linecap:round"
     d="M 0.9999997,25 C 0.2017947,25.04753 0,25.918149 0,27 v 3 c 0.00605,1.094642 0.1820107,1.896293 0.9999997,2 H 1.9999995 C 3.7896953,31.913239 4.5114672,31.753438 6.314244,31.625935 7.0534686,31.573653 7.9999991,31.175248 7.9999987,30 l 4e-7,-2.999999 C 7.9999987,25.770974 7.107306,25.658438 6.3869647,25.542114 4.4367334,25.22718 3.460534,25.142782 1.9999995,25 Z"
     sodipodi:nodetypes="cccccsccscc" />
  <rect
     style="fill:#838383;fill-opacity:1;stroke-width:1.63299"
     id="rect6824-3"
     width="1.9999999"
     height="3.9999998"
     x="2.9999046"
     y="27" />
  <path
     id="rect3442"
     style="fill:url(#linearGradient4068);fill-opacity:1;stroke-width:1.44748"
     d="m 2.999999,27 v 11.974609 c -2.166e-4,0.0086 0,0.01674 0,0.0254 0,0.553999 0.4460008,1.000001 0.9999998,1.000001 h 3 c 0.553999,0 1.0000003,-0.446002 1.0000003,-1.000001 0,-0.0087 2.169e-4,-0.01678 0,-0.0254 V 27 Z m 0.9999998,1 h 3 v 2 h -3 z m 0,8 h 3 v 3 h -3 z" />
  <path
     id="rect5849"
     style="fill:url(#linearGradient5895);fill-opacity:1;stroke-width:0.999999;stroke-linecap:round"
     d="M 8 27 L 8 29 L 9 29 L 9 27 L 8 27 z M 9 29 L 9 30 L 10 30 L 10 29 L 9 29 z M 10 29 L 11 29 L 11 27 L 10 27 L 10 29 z M 11 29 L 11 30 L 12 30 L 12 29 L 11 29 z M 12 29 L 13 29 L 13 27 L 12 27 L 12 29 z M 13 29 L 13 30 L 14 30 L 14 29 L 13 29 z M 14 29 L 15 29 L 15 27 L 14 27 L 14 29 z M 15 29 L 15 30 L 16 30 L 16 29 L 15 29 z M 16 29 L 17 29 L 17 27 L 16 27 L 16 29 z M 17 29 L 17 30 L 18 30 L 18 29 L 17 29 z M 18 29 L 19 29 L 19 27 L 18 27 L 18 29 z M 19 29 L 19 30 L 20 30 L 20 29 L 19 29 z M 20 29 L 21 29 L 21 27 L 20 27 L 20 29 z M 21 29 L 21 30 L 22 30 L 22 29 L 21 29 z M 22 29 L 23 29 L 23 27 L 22 27 L 22 29 z M 23 29 L 23 30 L 24 30 L 24 29 L 23 29 z M 24 29 L 25 29 L 25 27 L 24 27 L 24 29 z M 25 29 L 25 30 L 26 30 L 26 29 L 25 29 z M 26 29 L 27 29 L 27 27 L 26 27 L 26 29 z M 27 29 L 27 30 L 28 30 L 28 29 L 27 29 z M 28 29 L 29 29 L 29 27 L 28 27 L 28 29 z M 29 29 L 29 30 L 30 30 L 30 29 L 29 29 z M 30 29 L 31 29 L 31 27 L 30 27 L 30 29 z M 31 29 L 31 30 L 32 30 L 32 29 L 31 29 z M 32 29 L 33 29 L 33 27 L 32 27 L 32 29 z M 33 29 L 33 30 L 34 30 L 34 29 L 33 29 z M 34 29 L 35 29 L 35 27 L 34 27 L 34 29 z M 35 29 L 35 30 L 36 30 L 36 29 L 35 29 z M 36 29 L 37 29 L 37 27 L 36 27 L 36 29 z M 37 29 L 37 30 L 38 30 L 38 29 L 37 29 z M 38 29 L 39 29 L 39 27 L 38 27 L 38 29 z M 39 29 L 39 30 L 40 30 L 40 29 L 39 29 z M 40 29 L 41 29 L 41 27 L 40 27 L 40 29 z M 41 29 L 41 30 L 42 30 L 42 29 L 41 29 z " />
  <path
     id="rect21929"
     style="opacity:0.6;fill:url(#linearGradient21937);fill-opacity:1;stroke-width:0.999999;stroke-linecap:round"
     d="M 4 28 L 4 30 L 7 30 L 7 29 L 46 29 L 46 28 L 7 28 L 4 28 z " />
</svg>
