<?xml version="1.0" encoding="UTF-8" standalone="no"?>
<!-- Created with Inkscape (http://www.inkscape.org/) -->

<svg
   width="48"
   height="48"
   viewBox="0 0 48 48"
   version="1.1"
   id="svg5"
   inkscape:version="1.2.1 (9c6d41e410, 2022-07-14, custom)"
   sodipodi:docname="folder-text.svg"
   xmlns:inkscape="http://www.inkscape.org/namespaces/inkscape"
   xmlns:sodipodi="http://sodipodi.sourceforge.net/DTD/sodipodi-0.dtd"
   xmlns:xlink="http://www.w3.org/1999/xlink"
   xmlns="http://www.w3.org/2000/svg"
   xmlns:svg="http://www.w3.org/2000/svg">
  <sodipodi:namedview
     id="namedview7"
     pagecolor="#ffffff"
     bordercolor="#666666"
     borderopacity="1.0"
     inkscape:pageshadow="2"
     inkscape:pageopacity="0.0"
     inkscape:pagecheckerboard="0"
     inkscape:document-units="px"
     showgrid="false"
     units="px"
     height="64px"
     inkscape:zoom="16.833333"
     inkscape:cx="23.970297"
     inkscape:cy="24"
     inkscape:window-width="1920"
     inkscape:window-height="1010"
     inkscape:window-x="0"
     inkscape:window-y="0"
     inkscape:window-maximized="1"
     inkscape:current-layer="svg5"
     showguides="true"
     inkscape:showpageshadow="2"
     inkscape:deskcolor="#d1d1d1" />
  <defs
     id="defs2">
    <linearGradient
       inkscape:collect="always"
       xlink:href="#linearGradient1290"
       id="linearGradient6679"
       x1="17"
       y1="17.5"
       x2="39"
       y2="39.5"
       gradientUnits="userSpaceOnUse" />
    <linearGradient
       inkscape:collect="always"
       xlink:href="#linearGradient873"
       id="linearGradient7109"
       x1="24.272949"
       y1="7.7161407"
       x2="24.264668"
       y2="14.865067"
       gradientUnits="userSpaceOnUse" />
    <linearGradient
       inkscape:collect="always"
       id="linearGradient2350">
      <stop
         style="stop-color:#ffffff;stop-opacity:1;"
         offset="0"
         id="stop2346" />
      <stop
         style="stop-color:#ffffff;stop-opacity:0;"
         offset="1"
         id="stop2348" />
    </linearGradient>
    <linearGradient
       inkscape:collect="always"
       xlink:href="#linearGradient2350"
       id="linearGradient7578"
       x1="0.26458332"
       y1="4.1010418"
       x2="12.435417"
       y2="4.1010418"
       gradientUnits="userSpaceOnUse"
       gradientTransform="scale(3.7795274)" />
    <linearGradient
       inkscape:collect="always"
       id="linearGradient883">
      <stop
         style="stop-color:#445865;stop-opacity:1;"
         offset="0"
         id="stop879" />
      <stop
         style="stop-color:#303f4c;stop-opacity:1;"
         offset="1"
         id="stop881" />
    </linearGradient>
    <linearGradient
       inkscape:collect="always"
       id="linearGradient873">
      <stop
         style="stop-color:#637e8d;stop-opacity:1;"
         offset="0"
         id="stop869" />
      <stop
         style="stop-color:#516775;stop-opacity:1;"
         offset="1"
         id="stop871" />
    </linearGradient>
    <linearGradient
       inkscape:collect="always"
       id="linearGradient1290">
      <stop
         style="stop-color:#b3c4d5;stop-opacity:1;"
         offset="0"
         id="stop1286" />
      <stop
         style="stop-color:#6986a3;stop-opacity:1"
         offset="1"
         id="stop1288" />
    </linearGradient>
    <linearGradient
       inkscape:collect="always"
       xlink:href="#linearGradient883"
       id="linearGradient13277"
       x1="1"
       y1="41.5"
       x2="46.999996"
       y2="41.5"
       gradientUnits="userSpaceOnUse" />
  </defs>
  <path
     id="rect846"
     style="fill:url(#linearGradient7109);fill-opacity:1.0;stroke-width:2;stroke-linecap:round;stroke-linejoin:round;stroke-dasharray:24, 2"
     d="M 3.9999999,5 A 3.0000002,3.0000002 0 0 0 1,7.9999995 V 35.999998 H 46.999997 V 13 c 0,-1.108 -0.891998,-2.000001 -1.999997,-2.000001 H 22.999999 l -4,-3.9999993 C 17.634742,5.6637682 16.661999,5 14.999999,5 Z" />
  <path
     id="rect1170"
     style="fill:url(#linearGradient6679);fill-opacity:1.0;stroke-width:2.64576;stroke-linecap:round;stroke-linejoin:round;stroke-dasharray:31.749, 2.64576"
     d="M 20.999999,12 16,15 H 4.9999997 3.9999999 A 2.9999999,2.9999999 0 0 0 1,17.999999 v 1 V 41 c 0,1.107999 0.8919997,1.999996 1.9999999,1.999996 H 45 c 1.107999,0 1.999997,-0.891997 1.999997,-1.999996 V 13.999999 C 46.999997,12.892 46.108002,12 45,12 Z" />
  <path
     id="path2484"
     style="opacity:0.3;fill:url(#linearGradient7578);fill-opacity:1;stroke-width:2.03729;stroke-linecap:round;stroke-linejoin:round;stroke-dasharray:24.4474, 2.03729"
     d="M 20.999999,12 16,15 H 3.9999998 A 2.9999999,2.9999999 0 0 0 1,17.999999 v 1 a 2.9999999,2.9999999 0 0 1 2.9999998,-3 H 16 L 20.999999,13 H 45 c 1.108006,0 2.000001,0.892001 2.000001,2 v -1 c 0,-1.107999 -0.891995,-2 -2.000001,-2 z" />
  <path
     id="path2554"
     style="fill:url(#linearGradient13277);fill-opacity:1.0;stroke-width:2.64576;stroke-linecap:round;stroke-linejoin:round;stroke-dasharray:31.749, 2.64576"
     d="M 1,40.000001 V 41 c 0,1.107999 0.8920009,2 1.9999999,2 H 45 c 1.107999,0 1.999997,-0.892001 1.999997,-2 v -0.999999 c 0,1.107999 -0.891998,2.000001 -1.999997,2.000001 H 2.9999999 C 1.8920011,42.000002 1,41.108 1,40.000001 Z"
     sodipodi:nodetypes="csssscssc" />
  <path
     id="rect1519"
     style="fill:#000000;opacity:0.2"
     d="m 13,21 c -0.553999,0 -1,0.446001 -1,1 0,0.553999 0.446001,1 1,1 h 22 c 0.553999,0 1,-0.446001 1,-1 0,-0.553999 -0.446001,-1 -1,-1 z m 0,5 c -0.553999,0 -1,0.446001 -1,1 0,0.553999 0.446001,1 1,1 h 16 c 0.553999,0 1,-0.446001 1,-1 0,-0.553999 -0.446001,-1 -1,-1 z m 0,5 c -0.553999,0 -1,0.446001 -1,1 0,0.553999 0.446001,1 1,1 h 22 c 0.553999,0 1,-0.446001 1,-1 0,-0.553999 -0.446001,-1 -1,-1 z m 0,5 c -0.553999,0 -1,0.446001 -1,1 0,0.553999 0.446001,1 1,1 h 10 c 0.553999,0 1,-0.446001 1,-1 0,-0.553999 -0.446001,-1 -1,-1 z" />
  <path
     id="rect870"
     style="fill:#ffffff;fill-opacity:1;stroke-width:3;stroke-linecap:round;stroke-linejoin:round"
     d="m 13,20 c -0.554,0 -1,0.446 -1,1 0,0.554 0.446,1 1,1 h 22 c 0.554,0 1,-0.446 1,-1 0,-0.554 -0.446,-1 -1,-1 z m 0,5 c -0.554,0 -1,0.446 -1,1 0,0.554 0.446,1 1,1 h 16 c 0.554,0 1,-0.446 1,-1 0,-0.554 -0.446,-1 -1,-1 z m 0,5 c -0.554,0 -1,0.446 -1,1 0,0.554 0.446,1 1,1 h 22 c 0.554,0 1,-0.446 1,-1 0,-0.554 -0.446,-1 -1,-1 z m 0,5 c -0.554,0 -1,0.446 -1,1 0,0.554 0.446,1 1,1 h 10 c 0.554,0 1,-0.446 1,-1 0,-0.554 -0.446,-1 -1,-1 z"
     sodipodi:nodetypes="ssssssssssssssssssssssssssss" />
</svg>
