<?xml version="1.0" encoding="UTF-8" standalone="no"?>
<!-- Created with Inkscape (http://www.inkscape.org/) -->

<svg
   width="48"
   height="48"
   viewBox="0 0 48 48"
   version="1.1"
   id="svg5"
   inkscape:version="1.2.1 (9c6d41e410, 2022-07-14, custom)"
   sodipodi:docname="folder-open.svg"
   xmlns:inkscape="http://www.inkscape.org/namespaces/inkscape"
   xmlns:sodipodi="http://sodipodi.sourceforge.net/DTD/sodipodi-0.dtd"
   xmlns:xlink="http://www.w3.org/1999/xlink"
   xmlns="http://www.w3.org/2000/svg"
   xmlns:svg="http://www.w3.org/2000/svg">
  <sodipodi:namedview
     id="namedview7"
     pagecolor="#ffffff"
     bordercolor="#666666"
     borderopacity="1.0"
     inkscape:pageshadow="2"
     inkscape:pageopacity="0.0"
     inkscape:pagecheckerboard="0"
     inkscape:document-units="px"
     showgrid="false"
     units="px"
     height="64px"
     inkscape:zoom="16.833333"
     inkscape:cx="24"
     inkscape:cy="24"
     inkscape:window-width="1920"
     inkscape:window-height="1010"
     inkscape:window-x="0"
     inkscape:window-y="0"
     inkscape:window-maximized="1"
     inkscape:current-layer="svg5"
     showguides="true"
     inkscape:showpageshadow="2"
     inkscape:deskcolor="#d1d1d1" />
  <defs
     id="defs2">
    <linearGradient
       inkscape:collect="always"
       id="linearGradient891">
      <stop
         style="stop-color:#ffffff;stop-opacity:1;"
         offset="0"
         id="stop887" />
      <stop
         style="stop-color:#e3e4e5;stop-opacity:1"
         offset="1"
         id="stop889" />
    </linearGradient>
    <linearGradient
       inkscape:collect="always"
       xlink:href="#linearGradient2290"
       id="linearGradient6679"
       x1="17"
       y1="17.5"
       x2="35.989326"
       y2="36.265442"
       gradientUnits="userSpaceOnUse"
       gradientTransform="translate(0,2)" />
    <linearGradient
       inkscape:collect="always"
       xlink:href="#linearGradient2474"
       id="linearGradient7109"
       x1="24.272949"
       y1="7.7161407"
       x2="24.264668"
       y2="14.865067"
       gradientUnits="userSpaceOnUse" />
    <linearGradient
       inkscape:collect="always"
       xlink:href="#linearGradient891"
       id="linearGradient893"
       x1="6.5721002"
       y1="3.3152282"
       x2="6.5721002"
       y2="5.6963501"
       gradientUnits="userSpaceOnUse"
       gradientTransform="matrix(4.018735,0,0,3.7795276,-1.6773272,-0.5299965)" />
    <linearGradient
       inkscape:collect="always"
       xlink:href="#linearGradient2350"
       id="linearGradient7578"
       x1="-2e-07"
       y1="4.146637"
       x2="12.700001"
       y2="4.146637"
       gradientUnits="userSpaceOnUse"
       gradientTransform="matrix(3.7795276,0,0,3.7795276,7.5590552e-7,1.9999998)" />
    <linearGradient
       inkscape:collect="always"
       id="linearGradient2350">
      <stop
         style="stop-color:#ffffff;stop-opacity:1;"
         offset="0"
         id="stop2346" />
      <stop
         style="stop-color:#ffffff;stop-opacity:0;"
         offset="1"
         id="stop2348" />
    </linearGradient>
    <linearGradient
       inkscape:collect="always"
       id="linearGradient2290">
      <stop
         style="stop-color:#fce798;stop-opacity:1;"
         offset="0"
         id="stop2286" />
      <stop
         style="stop-color:#ffc937;stop-opacity:1"
         offset="1"
         id="stop2288" />
    </linearGradient>
    <linearGradient
       inkscape:collect="always"
       id="linearGradient2474">
      <stop
         style="stop-color:#fcbc19;stop-opacity:1;"
         offset="0"
         id="stop2470" />
      <stop
         style="stop-color:#f4b61f;stop-opacity:1;"
         offset="1"
         id="stop2472" />
    </linearGradient>
  </defs>
  <path
     id="rect846"
     style="fill:url(#linearGradient7109);fill-opacity:1;stroke-width:2;stroke-linecap:round;stroke-linejoin:round;stroke-dasharray:24, 2"
     d="M 3.9999999,5 A 3.0000003,3.0000003 0 0 0 1,8 V 35.999999 H 47.000001 V 13 c 0,-1.108 -0.892002,-2 -2.000001,-2 H 23 L 19,7 C 17.634743,5.6637684 16.662,5 15,5 Z" />
  <path
     id="rect863"
     style="fill:url(#linearGradient893);stroke-width:3.09348;stroke-linecap:round;stroke-linejoin:round"
     d="M 4.1000002,12 H 43.899999 c 1.163399,0 2.1,0.9366 2.1,2.1 v 13.799999 c 0,1.1634 -0.936601,2.1 -2.1,2.1 H 4.1000002 c -1.1634002,0 -2.1000003,-0.9366 -2.1000003,-2.1 V 14.1 c 0,-1.1634 0.9366001,-2.1 2.1000003,-2.1 z" />
  <path
     id="rect1170"
     style="fill:url(#linearGradient6679);fill-opacity:1;stroke-width:2.64576;stroke-linecap:round;stroke-linejoin:round;stroke-dasharray:31.749, 2.64576"
     d="m 21,14 -5,3 H 2.9999999 C 1.3431456,17 -1.8333333e-8,18.403823 -1.8333333e-8,20 L 1,40.999998 c 0.055331,1.106619 0.8919997,1.999999 2,1.999999 h 42 c 1.107999,0 1.955717,-0.892885 2.000001,-1.999999 L 48,16 c 0,-1.175893 -0.891999,-2 -2.000001,-2 z"
     sodipodi:nodetypes="cccccssscsc" />
  <path
     id="path2554"
     style="fill:#e4a729;fill-opacity:1;stroke-width:2.64576;stroke-linecap:round;stroke-linejoin:round;stroke-dasharray:31.749, 2.64576"
     d="m 1,40.000003 v 0.999998 c 0,1.108003 0.892001,2 2.0000002,2 H 45 c 1.107999,0 1.999997,-0.891997 1.999997,-2 v -0.999998 c 0,1.107998 -0.891998,2.000001 -1.999997,2.000001 H 3.0000002 C 1.8920014,42.000004 1,41.108001 1,40.000003 Z"
     sodipodi:nodetypes="csssscssc" />
  <path
     id="path2484"
     style="opacity:0.3;fill:url(#linearGradient7578);fill-opacity:1;stroke-width:2.03729;stroke-linecap:round;stroke-linejoin:round;stroke-dasharray:24.4474, 2.03729"
     d="m 21,14 -4.999999,3 H 3 C 1.3431461,17 5.0958004e-8,18.396851 1.0765092e-7,19.999999 L 0.05273603,21 C 0.05273595,19.343146 1.3431458,17.999999 3,17.999999 H 16.000001 L 21,15 h 24.999999 c 1.108006,0 1.954598,1.027124 1.954598,2.135122 L 48,16 c 0,-1.208822 -0.891995,-2 -2.000001,-2 z"
     sodipodi:nodetypes="ccsccsccsccsc" />
</svg>
