<?xml version="1.0" encoding="UTF-8" standalone="no"?>
<!-- Created with Inkscape (http://www.inkscape.org/) -->

<svg
   width="48"
   height="48"
   viewBox="0 0 48 48"
   version="1.1"
   id="svg5"
   inkscape:version="1.2.1 (9c6d41e410, 2022-07-14, custom)"
   sodipodi:docname="folder-vbox.svg"
   xmlns:inkscape="http://www.inkscape.org/namespaces/inkscape"
   xmlns:sodipodi="http://sodipodi.sourceforge.net/DTD/sodipodi-0.dtd"
   xmlns:xlink="http://www.w3.org/1999/xlink"
   xmlns="http://www.w3.org/2000/svg"
   xmlns:svg="http://www.w3.org/2000/svg">
  <sodipodi:namedview
     id="namedview7"
     pagecolor="#ffffff"
     bordercolor="#666666"
     borderopacity="1.0"
     inkscape:pageshadow="2"
     inkscape:pageopacity="0.0"
     inkscape:pagecheckerboard="0"
     inkscape:document-units="px"
     showgrid="false"
     units="px"
     height="64px"
     inkscape:zoom="16.833333"
     inkscape:cx="24"
     inkscape:cy="24"
     inkscape:window-width="1920"
     inkscape:window-height="1010"
     inkscape:window-x="0"
     inkscape:window-y="0"
     inkscape:window-maximized="1"
     inkscape:current-layer="svg5"
     showguides="true"
     inkscape:showpageshadow="2"
     inkscape:deskcolor="#d1d1d1" />
  <defs
     id="defs2">
    <linearGradient
       inkscape:collect="always"
       xlink:href="#linearGradient2290"
       id="linearGradient6679"
       x1="17"
       y1="17.5"
       x2="39"
       y2="39.5"
       gradientUnits="userSpaceOnUse" />
    <linearGradient
       inkscape:collect="always"
       xlink:href="#linearGradient2474"
       id="linearGradient7109"
       x1="24.272949"
       y1="7.7161407"
       x2="24.264668"
       y2="14.865067"
       gradientUnits="userSpaceOnUse" />
    <linearGradient
       inkscape:collect="always"
       xlink:href="#linearGradient2412"
       id="linearGradient2543"
       gradientUnits="userSpaceOnUse"
       gradientTransform="translate(-7.5541798,-5.2849)"
       x1="8.5541801"
       y1="17.284901"
       x2="54.554184"
       y2="17.284901" />
    <linearGradient
       inkscape:collect="always"
       id="linearGradient2412">
      <stop
         style="stop-color:#e4a729;stop-opacity:1;"
         offset="0"
         id="stop2408" />
      <stop
         style="stop-color:#e4a729;stop-opacity:0;"
         offset="1"
         id="stop2410" />
    </linearGradient>
    <linearGradient
       inkscape:collect="always"
       id="linearGradient2350">
      <stop
         style="stop-color:#ffffff;stop-opacity:1;"
         offset="0"
         id="stop2346" />
      <stop
         style="stop-color:#ffffff;stop-opacity:0;"
         offset="1"
         id="stop2348" />
    </linearGradient>
    <linearGradient
       inkscape:collect="always"
       xlink:href="#linearGradient2350"
       id="linearGradient7578"
       x1="0.26458332"
       y1="4.1010418"
       x2="12.435417"
       y2="4.1010418"
       gradientUnits="userSpaceOnUse"
       gradientTransform="scale(3.7795274)" />
    <linearGradient
       inkscape:collect="always"
       id="linearGradient2474">
      <stop
         style="stop-color:#fcbc19;stop-opacity:1;"
         offset="0"
         id="stop2470" />
      <stop
         style="stop-color:#f4b61f;stop-opacity:1;"
         offset="1"
         id="stop2472" />
    </linearGradient>
    <linearGradient
       inkscape:collect="always"
       id="linearGradient2290">
      <stop
         style="stop-color:#fce798;stop-opacity:1;"
         offset="0"
         id="stop2286" />
      <stop
         style="stop-color:#ffc937;stop-opacity:1"
         offset="1"
         id="stop2288" />
    </linearGradient>
    <linearGradient
       inkscape:collect="always"
       xlink:href="#linearGradient2083"
       id="linearGradient7923"
       x1="10.583984"
       y1="4.6307259"
       x2="10.583984"
       y2="10.451375"
       gradientUnits="userSpaceOnUse"
       gradientTransform="matrix(3.7795276,0,0,3.7795276,3.141e-5,4.7888057e-5)" />
    <linearGradient
       inkscape:collect="always"
       id="linearGradient2083">
      <stop
         style="stop-color:#bf910d;stop-opacity:1;"
         offset="0"
         id="stop2079" />
      <stop
         style="stop-color:#a87704;stop-opacity:1"
         offset="1"
         id="stop2081" />
    </linearGradient>
  </defs>
  <path
     id="rect846"
     style="fill:url(#linearGradient7109);fill-opacity:1;stroke-width:2;stroke-linecap:round;stroke-linejoin:round;stroke-dasharray:24, 2"
     d="M 3.9999999,5 A 3.0000002,3.0000002 0 0 0 1,7.9999995 V 35.999998 H 46.999997 V 13 c 0,-1.108 -0.891998,-2.000001 -1.999997,-2.000001 H 22.999999 l -4,-3.9999993 C 17.634742,5.6637682 16.661999,5 14.999999,5 Z" />
  <path
     id="rect1170"
     style="fill:url(#linearGradient6679);fill-opacity:1;stroke-width:2.64576;stroke-linecap:round;stroke-linejoin:round;stroke-dasharray:31.749, 2.64576"
     d="M 20.999999,12 16,15 H 4.9999997 3.9999999 A 2.9999999,2.9999999 0 0 0 1,17.999999 v 1 V 41 c 0,1.107999 0.8919997,1.999996 1.9999999,1.999996 H 45 c 1.107999,0 1.999997,-0.891997 1.999997,-1.999996 V 13.999999 C 46.999997,12.892 46.108002,12 45,12 Z" />
  <path
     id="path2484"
     style="opacity:0.3;fill:url(#linearGradient7578);fill-opacity:1;stroke-width:2.03729;stroke-linecap:round;stroke-linejoin:round;stroke-dasharray:24.4474, 2.03729"
     d="M 20.999999,12 16,15 H 3.9999998 A 2.9999999,2.9999999 0 0 0 1,17.999999 v 1 a 2.9999999,2.9999999 0 0 1 2.9999998,-3 H 16 L 20.999999,13 H 45 c 1.108006,0 2.000001,0.892001 2.000001,2 v -1 c 0,-1.107999 -0.891995,-2 -2.000001,-2 z" />
  <path
     id="path2519"
     style="fill:url(#linearGradient2543);fill-opacity:1;stroke-width:2.64576;stroke-linecap:round;stroke-linejoin:round;stroke-dasharray:31.749, 2.64576"
     d="M 20.999999,11 16,14 H 3.9999998 A 2.9999999,2.9999999 0 0 0 1,17 v 0.999999 A 2.9999999,2.9999999 0 0 1 3.9999998,15 H 16 l 4.999999,-3 H 45 c 1.108002,0 2.000001,0.892001 2.000001,2 v -1 c 0,-1.107999 -0.891999,-2 -2.000001,-2 z" />
  <path
     id="path2554"
     style="fill:#e4a729;fill-opacity:1;stroke-width:2.64576;stroke-linecap:round;stroke-linejoin:round;stroke-dasharray:31.749, 2.64576"
     d="M 1,40.000001 V 41 c 0,1.107999 0.8920009,2 1.9999999,2 H 45 c 1.107999,0 1.999997,-0.892001 1.999997,-2 v -0.999999 c 0,1.107999 -0.891998,2.000001 -1.999997,2.000001 H 2.9999999 C 1.8920011,42.000002 1,41.108 1,40.000001 Z"
     sodipodi:nodetypes="csssscssc" />
  <path
     style="color:#000000;fill:url(#linearGradient7923);fill-opacity:1;stroke:none;stroke-width:3.77953;stroke-linecap:round;stroke-linejoin:round;-inkscape-stroke:none"
     d="m 23.961646,17.502509 a 1.50015,1.50015 0 0 0 -1.395177,1.048228 L 17.797768,33.654084 15.38389,27.918355 A 1.50015,1.50015 0 0 0 14.003476,27.003001 H 9.5005237 A 1.5,1.5 0 0 0 8.002,28.501525 1.5,1.5 0 0 0 9.5005237,30.000048 h 3.5063983 l 3.609744,8.585137 a 1.50015,1.50015 0 0 0 2.8125,-0.132873 l 4.680118,-14.822835 1.985729,5.38878 a 1.50015,1.50015 0 0 0 2.8125,0 l 1.985728,-5.38878 1.675689,5.322343 a 1.50015,1.50015 0 0 0 1.432087,1.048228 h 4.495571 a 1.5,1.5 0 0 0 1.505904,-1.498523 1.5,1.5 0 0 0 -1.505904,-1.498524 h -3.39567 l -2.672244,-8.452264 a 1.50015,1.50015 0 0 0 -2.834646,-0.06644 l -2.089075,5.684054 -2.096456,-5.684055 a 1.50015,1.50015 0 0 0 -1.446851,-0.981791 z"
     id="path724" />
</svg>
