<?xml version="1.0" encoding="UTF-8" standalone="no"?>
<!-- Created with Inkscape (http://www.inkscape.org/) -->

<svg
   width="48"
   height="48"
   viewBox="0 0 48 48"
   version="1.1"
   id="svg5"
   inkscape:version="1.2.1 (9c6d41e410, 2022-07-14, custom)"
   sodipodi:docname="folder-onedrive.svg"
   xmlns:inkscape="http://www.inkscape.org/namespaces/inkscape"
   xmlns:sodipodi="http://sodipodi.sourceforge.net/DTD/sodipodi-0.dtd"
   xmlns:xlink="http://www.w3.org/1999/xlink"
   xmlns="http://www.w3.org/2000/svg"
   xmlns:svg="http://www.w3.org/2000/svg">
  <sodipodi:namedview
     id="namedview7"
     pagecolor="#ffffff"
     bordercolor="#666666"
     borderopacity="1.0"
     inkscape:pageshadow="2"
     inkscape:pageopacity="0.0"
     inkscape:pagecheckerboard="0"
     inkscape:document-units="px"
     showgrid="false"
     units="px"
     height="64px"
     inkscape:zoom="16.708333"
     inkscape:cx="23.970075"
     inkscape:cy="24"
     inkscape:window-width="1920"
     inkscape:window-height="1011"
     inkscape:window-x="0"
     inkscape:window-y="0"
     inkscape:window-maximized="1"
     inkscape:current-layer="svg5"
     showguides="true"
     inkscape:showpageshadow="2"
     inkscape:deskcolor="#d1d1d1" />
  <defs
     id="defs2">
    <linearGradient
       inkscape:collect="always"
       xlink:href="#linearGradient3553"
       id="linearGradient6679"
       x1="17"
       y1="17.5"
       x2="39"
       y2="39.5"
       gradientUnits="userSpaceOnUse" />
    <linearGradient
       inkscape:collect="always"
       xlink:href="#linearGradient3673"
       id="linearGradient7109"
       x1="24.272949"
       y1="7.7161407"
       x2="24.264668"
       y2="14.865067"
       gradientUnits="userSpaceOnUse" />
    <linearGradient
       inkscape:collect="always"
       id="linearGradient2350">
      <stop
         style="stop-color:#ffffff;stop-opacity:1;"
         offset="0"
         id="stop2346" />
      <stop
         style="stop-color:#ffffff;stop-opacity:0;"
         offset="1"
         id="stop2348" />
    </linearGradient>
    <linearGradient
       inkscape:collect="always"
       xlink:href="#linearGradient2350"
       id="linearGradient7578"
       x1="0.26458332"
       y1="4.1010418"
       x2="12.435417"
       y2="4.1010418"
       gradientUnits="userSpaceOnUse"
       gradientTransform="scale(3.7795274)" />
    <linearGradient
       inkscape:collect="always"
       id="linearGradient3673">
      <stop
         style="stop-color:#0272cb;stop-opacity:1;"
         offset="0"
         id="stop3669" />
      <stop
         style="stop-color:#0768ba;stop-opacity:1"
         offset="1"
         id="stop3671" />
    </linearGradient>
    <linearGradient
       inkscape:collect="always"
       id="linearGradient3553">
      <stop
         style="stop-color:#27aee9;stop-opacity:1;"
         offset="0"
         id="stop3549" />
      <stop
         style="stop-color:#0669bc;stop-opacity:1"
         offset="1"
         id="stop3551" />
    </linearGradient>
    <linearGradient
       inkscape:collect="always"
       id="linearGradient3613">
      <stop
         style="stop-color:#0a5ba8;stop-opacity:1;"
         offset="0"
         id="stop3609" />
      <stop
         style="stop-color:#104a5c;stop-opacity:1"
         offset="1"
         id="stop3611" />
    </linearGradient>
    <linearGradient
       inkscape:collect="always"
       xlink:href="#linearGradient3613"
       id="linearGradient2623"
       x1="1"
       y1="41.5"
       x2="46.999996"
       y2="41.5"
       gradientUnits="userSpaceOnUse" />
  </defs>
  <path
     id="rect846"
     style="fill:url(#linearGradient7109);fill-opacity:1.0;stroke-width:2;stroke-linecap:round;stroke-linejoin:round;stroke-dasharray:24, 2"
     d="M 3.9999999,5 A 3.0000002,3.0000002 0 0 0 1,7.9999995 V 35.999998 H 46.999997 V 13 c 0,-1.108 -0.891998,-2.000001 -1.999997,-2.000001 H 22.999999 l -4,-3.9999993 C 17.634742,5.6637682 16.661999,5 14.999999,5 Z" />
  <path
     id="rect1170"
     style="fill:url(#linearGradient6679);fill-opacity:1.0;stroke-width:2.64576;stroke-linecap:round;stroke-linejoin:round;stroke-dasharray:31.749, 2.64576"
     d="M 20.999999,12 16,15 H 4.9999997 3.9999999 A 2.9999999,2.9999999 0 0 0 1,17.999999 v 1 V 41 c 0,1.107999 0.8919997,1.999996 1.9999999,1.999996 H 45 c 1.107999,0 1.999997,-0.891997 1.999997,-1.999996 V 13.999999 C 46.999997,12.892 46.108002,12 45,12 Z" />
  <path
     id="path2484"
     style="opacity:0.3;fill:url(#linearGradient7578);fill-opacity:1;stroke-width:2.03729;stroke-linecap:round;stroke-linejoin:round;stroke-dasharray:24.4474, 2.03729"
     d="M 20.999999,12 16,15 H 3.9999998 A 2.9999999,2.9999999 0 0 0 1,17.999999 v 1 a 2.9999999,2.9999999 0 0 1 2.9999998,-3 H 16 L 20.999999,13 H 45 c 1.108006,0 2.000001,0.892001 2.000001,2 v -1 c 0,-1.107999 -0.891995,-2 -2.000001,-2 z" />
  <path
     id="path6358"
     style="opacity:0.1;fill:#ffffff;stroke-linecap:round;stroke-linejoin:round"
     d="M 2.7226562 15.324219 A 2.9999999 2.9999999 0 0 0 1 18 L 1 19 L 1 41 C 1 42.107997 1.892002 43 3 43 L 45 43 C 46.107997 43 47 42.107997 47 41 L 47 39.75 L 2.7226562 15.324219 z " />
  <path
     id="path6391"
     style="opacity:0.1;fill:#ffffff;stroke-linecap:round;stroke-linejoin:round"
     d="M 47 19.5 L 1 38.375 L 1 41 C 1 42.107998 1.8920011 43 3 43 L 45 43 C 46.107998 43 47 42.107998 47 41 L 47 19.5 z " />
  <path
     id="path2554"
     style="fill:url(#linearGradient2623);fill-opacity:1.0;stroke-width:2.64576;stroke-linecap:round;stroke-linejoin:round;stroke-dasharray:31.749, 2.64576"
     d="M 1,40.000001 V 41 c 0,1.107999 0.8920009,2 1.9999999,2 H 45 c 1.107999,0 1.999997,-0.892001 1.999997,-2 v -0.999999 c 0,1.107999 -0.891998,2.000001 -1.999997,2.000001 H 2.9999999 C 1.8920011,42.000002 1,41.108 1,40.000001 Z"
     sodipodi:nodetypes="csssscssc" />
  <ellipse
     style="opacity:1;fill:#5fb4e4;fill-opacity:1;stroke-width:1.07143;stroke-linecap:round;stroke-linejoin:round"
     id="path470"
     cx="24.5"
     cy="28.499994"
     rx="7.5"
     ry="7.4999943" />
  <path
     d="m 31.090917,26.181853 c -0.694591,0.03441 -1.297946,0.163216 -1.865407,0.370743 l -0.0011,0.0011 c -1.81831,0.758267 -3.707678,1.547595 -5.349045,2.232911 l -10.865396,4.536199 c 1.005019,1.509442 2.638801,2.483365 4.444596,2.64949 V 36 h 0.545454 13.090889 C 33.802128,35.999985 36,33.802121 36,31.090918 36,28.379716 33.802128,26.181852 31.090917,26.181853 Z"
     style="opacity:1;fill:#a0cee8;fill-opacity:1;stroke-width:1.09091"
     id="path825" />
  <path
     d="m 18.000023,24.000045 c -2.198243,0.0026 -4.219047,1.207195 -5.267037,3.139544 l -0.01069,0.0033 C 12.26159,27.992153 12,28.965838 12,30.000015 c 0.0015,3.101246 2.36612,5.69034 5.454537,5.97227 v 0.0277 h 0.545454 13.090889 c 1.814514,-0.0013 3.480328,-1.003419 4.331669,-2.605811 l -8.418311,-5.017731 -6.046865,-3.604029 -0.01918,0.0053 C 20.041805,24.270598 19.029938,24.002765 18.000021,24 Z"
     style="opacity:1;fill:#90d0f0;fill-opacity:1;stroke-width:1.09091"
     id="path393" />
  <path
     d="m 26.12004,27.849103 c -0.752605,0.31426 -1.55584,0.649891 -2.244671,0.937495 L 13.012105,33.32173 c 0.0081,0.01212 0.01633,0.02417 0.0245,0.03623 0.109177,0.161379 0.226367,0.315883 0.349432,0.464486 0.0197,0.02376 0.03853,0.04793 0.05859,0.07138 0.125493,0.146864 0.257115,0.286508 0.395241,0.419742 0.01627,0.01569 0.03149,0.03243 0.04795,0.04794 0.315071,0.297106 0.660905,0.558286 1.030184,0.779826 0.01675,0.01008 0.03429,0.01888 0.05113,0.02876 0.163219,0.09576 0.331101,0.184194 0.50284,0.264203 0.03686,0.01715 0.07458,0.03259 0.111861,0.04899 0.154705,0.06827 0.312557,0.130247 0.47301,0.185369 0.04607,0.01576 0.09191,0.03218 0.138494,0.04688 0.161437,0.05109 0.326054,0.09255 0.492187,0.129972 0.04434,0.0099 0.08738,0.02302 0.132103,0.03196 0.208923,0.04209 0.420396,0.07508 0.634942,0.09481 v 0.02771 h 0.545453 13.090889 c 0.207398,-1.49e-4 0.412183,-0.01692 0.614701,-0.04262 0.04798,-0.006 0.09522,-0.01499 0.142755,-0.02237 0.16902,-0.02655 0.3357,-0.05971 0.499645,-0.103342 0.03234,-0.0084 0.06488,-0.01636 0.09695,-0.02556 0.396369,-0.114221 0.775306,-0.277348 1.128194,-0.484728 0.0312,-0.01836 0.06193,-0.03744 0.09268,-0.05647 0.164357,-0.101543 0.323601,-0.210904 0.475141,-0.331319 0.0048,-0.0038 0.01015,-0.0069 0.01491,-0.01069 0.0016,-0.0012 0.0026,-0.0029 0.0043,-0.0043 0.16251,-0.130453 0.316946,-0.271967 0.462358,-0.422938 0.01814,-0.01881 0.03435,-0.03948 0.0522,-0.05858 0.12826,-0.137501 0.249611,-0.282901 0.362216,-0.435722 0.01478,-0.02 0.03026,-0.03945 0.04475,-0.05965 0.124076,-0.17389 0.239022,-0.355812 0.340908,-0.547582 l -8.418301,-5.017765 z"
     style="fill:#ffffff;stroke-width:1.09091"
     id="path360" />
</svg>
