<?xml version="1.0" encoding="UTF-8" standalone="no"?>
<!-- Created with Inkscape (http://www.inkscape.org/) -->

<svg
   width="48"
   height="48"
   viewBox="0 0 48 48"
   version="1.1"
   id="svg5"
   inkscape:version="1.2.1 (9c6d41e410, 2022-07-14, custom)"
   sodipodi:docname="folder-documents.svg"
   xmlns:inkscape="http://www.inkscape.org/namespaces/inkscape"
   xmlns:sodipodi="http://sodipodi.sourceforge.net/DTD/sodipodi-0.dtd"
   xmlns:xlink="http://www.w3.org/1999/xlink"
   xmlns="http://www.w3.org/2000/svg"
   xmlns:svg="http://www.w3.org/2000/svg">
  <sodipodi:namedview
     id="namedview7"
     pagecolor="#ffffff"
     bordercolor="#666666"
     borderopacity="1.0"
     inkscape:pageshadow="2"
     inkscape:pageopacity="0.0"
     inkscape:pagecheckerboard="0"
     inkscape:document-units="px"
     showgrid="false"
     units="px"
     height="64px"
     inkscape:zoom="16.833333"
     inkscape:cx="23.970297"
     inkscape:cy="24"
     inkscape:window-width="1920"
     inkscape:window-height="1010"
     inkscape:window-x="0"
     inkscape:window-y="0"
     inkscape:window-maximized="1"
     inkscape:current-layer="svg5"
     showguides="true"
     inkscape:showpageshadow="2"
     inkscape:deskcolor="#d1d1d1" />
  <defs
     id="defs2">
    <linearGradient
       inkscape:collect="always"
       xlink:href="#linearGradient1290"
       id="linearGradient6679"
       x1="17"
       y1="17.5"
       x2="39"
       y2="39.5"
       gradientUnits="userSpaceOnUse" />
    <linearGradient
       inkscape:collect="always"
       xlink:href="#linearGradient873"
       id="linearGradient7109"
       x1="24.272949"
       y1="7.7161407"
       x2="24.264668"
       y2="14.865067"
       gradientUnits="userSpaceOnUse" />
    <linearGradient
       inkscape:collect="always"
       id="linearGradient2350">
      <stop
         style="stop-color:#ffffff;stop-opacity:1;"
         offset="0"
         id="stop2346" />
      <stop
         style="stop-color:#ffffff;stop-opacity:0;"
         offset="1"
         id="stop2348" />
    </linearGradient>
    <linearGradient
       inkscape:collect="always"
       xlink:href="#linearGradient2350"
       id="linearGradient7578"
       x1="0.26458332"
       y1="4.1010418"
       x2="12.435417"
       y2="4.1010418"
       gradientUnits="userSpaceOnUse"
       gradientTransform="scale(3.7795274)" />
    <linearGradient
       inkscape:collect="always"
       id="linearGradient883">
      <stop
         style="stop-color:#445865;stop-opacity:1;"
         offset="0"
         id="stop879" />
      <stop
         style="stop-color:#303f4c;stop-opacity:1;"
         offset="1"
         id="stop881" />
    </linearGradient>
    <linearGradient
       inkscape:collect="always"
       id="linearGradient873">
      <stop
         style="stop-color:#637e8d;stop-opacity:1;"
         offset="0"
         id="stop869" />
      <stop
         style="stop-color:#516775;stop-opacity:1;"
         offset="1"
         id="stop871" />
    </linearGradient>
    <linearGradient
       inkscape:collect="always"
       id="linearGradient1290">
      <stop
         style="stop-color:#b3c4d5;stop-opacity:1;"
         offset="0"
         id="stop1286" />
      <stop
         style="stop-color:#6986a3;stop-opacity:1"
         offset="1"
         id="stop1288" />
    </linearGradient>
    <linearGradient
       inkscape:collect="always"
       xlink:href="#linearGradient883"
       id="linearGradient13277"
       x1="1"
       y1="41.5"
       x2="46.999996"
       y2="41.5"
       gradientUnits="userSpaceOnUse" />
  </defs>
  <path
     id="rect846"
     style="fill:url(#linearGradient7109);fill-opacity:1.0;stroke-width:2;stroke-linecap:round;stroke-linejoin:round;stroke-dasharray:24, 2"
     d="M 3.9999999,5 A 3.0000002,3.0000002 0 0 0 1,7.9999995 V 35.999998 H 46.999997 V 13 c 0,-1.108 -0.891998,-2.000001 -1.999997,-2.000001 H 22.999999 l -4,-3.9999993 C 17.634742,5.6637682 16.661999,5 14.999999,5 Z" />
  <path
     id="rect1170"
     style="fill:url(#linearGradient6679);fill-opacity:1.0;stroke-width:2.64576;stroke-linecap:round;stroke-linejoin:round;stroke-dasharray:31.749, 2.64576"
     d="M 20.999999,12 16,15 H 4.9999997 3.9999999 A 2.9999999,2.9999999 0 0 0 1,17.999999 v 1 V 41 c 0,1.107999 0.8919997,1.999996 1.9999999,1.999996 H 45 c 1.107999,0 1.999997,-0.891997 1.999997,-1.999996 V 13.999999 C 46.999997,12.892 46.108002,12 45,12 Z" />
  <path
     id="path2484"
     style="opacity:0.3;fill:url(#linearGradient7578);fill-opacity:1;stroke-width:2.03729;stroke-linecap:round;stroke-linejoin:round;stroke-dasharray:24.4474, 2.03729"
     d="M 20.999999,12 16,15 H 3.9999998 A 2.9999999,2.9999999 0 0 0 1,17.999999 v 1 a 2.9999999,2.9999999 0 0 1 2.9999998,-3 H 16 L 20.999999,13 H 45 c 1.108006,0 2.000001,0.892001 2.000001,2 v -1 c 0,-1.107999 -0.891995,-2 -2.000001,-2 z" />
  <path
     id="path2554"
     style="fill:url(#linearGradient13277);fill-opacity:1.0;stroke-width:2.64576;stroke-linecap:round;stroke-linejoin:round;stroke-dasharray:31.749, 2.64576"
     d="M 1,40.000001 V 41 c 0,1.107999 0.8920009,2 1.9999999,2 H 45 c 1.107999,0 1.999997,-0.892001 1.999997,-2 v -0.999999 c 0,1.107999 -0.891998,2.000001 -1.999997,2.000001 H 2.9999999 C 1.8920011,42.000002 1,41.108 1,40.000001 Z"
     sodipodi:nodetypes="csssscssc" />
  <path
     id="rect1519"
     style="opacity:0.2;fill:#000000"
     d="M 13 21 C 12.446002 21 12 21.446002 12 22 C 12 22.553998 12.446002 23 13 23 L 25 23 C 25.553998 23 26 22.553998 26 22 C 26 21.446002 25.553998 21 25 21 L 13 21 z M 30 21 C 29.446001 21 29 21.446001 29 22 L 29 27 C 29 27.553999 29.446001 28 30 28 L 35 28 C 35.553999 28 36 27.553999 36 27 L 36 22 C 36 21.446001 35.553999 21 35 21 L 30 21 z M 13 26 C 12.446002 26 12 26.446002 12 27 C 12 27.553998 12.446002 28 13 28 L 25 28 C 25.553998 28 26 27.553998 26 27 C 26 26.446002 25.553998 26 25 26 L 13 26 z M 13 31 C 12.446002 31 12 31.446002 12 32 C 12 32.553998 12.446002 33 13 33 L 35 33 C 35.553998 33 36 32.553998 36 32 C 36 31.446002 35.553998 31 35 31 L 13 31 z M 13 36 C 12.446002 36 12 36.446002 12 37 C 12 37.553998 12.446002 38 13 38 L 35 38 C 35.553998 38 36 37.553998 36 37 C 36 36.446002 35.553998 36 35 36 L 13 36 z " />
  <path
     id="rect870"
     style="fill:#ffffff;fill-opacity:1;stroke-width:3;stroke-linecap:round;stroke-linejoin:round"
     d="M 13 20 C 12.446001 20 12 20.446001 12 21 C 12 21.553999 12.446001 22 13 22 L 25 22 C 25.553999 22 26 21.553999 26 21 C 26 20.446001 25.553999 20 25 20 L 13 20 z M 30 20 C 29.446001 20 29 20.446001 29 21 L 29 26 C 29 26.553999 29.446001 27 30 27 L 35 27 C 35.553999 27 36 26.553999 36 26 L 36 21 C 36 20.446001 35.553999 20 35 20 L 30 20 z M 13 25 C 12.446001 25 12 25.446001 12 26 C 12 26.553999 12.446001 27 13 27 L 25 27 C 25.553999 27 26 26.553999 26 26 C 26 25.446001 25.553999 25 25 25 L 13 25 z M 13 30 C 12.446001 30 12 30.446001 12 31 C 12 31.553999 12.446001 32 13 32 L 35 32 C 35.553999 32 36 31.553999 36 31 C 36 30.446001 35.553999 30 35 30 L 13 30 z M 13 35 C 12.446001 35 12 35.446001 12 36 C 12 36.553999 12.446001 37 13 37 L 35 37 C 35.553999 37 36 36.553999 36 36 C 36 35.446001 35.553999 35 35 35 L 13 35 z " />
</svg>
