<?xml version="1.0" encoding="UTF-8" standalone="no"?>
<!-- Created with Inkscape (http://www.inkscape.org/) -->

<svg
   width="48"
   height="48"
   viewBox="0 0 48 48"
   version="1.1"
   id="svg5"
   inkscape:version="1.2.1 (9c6d41e410, 2022-07-14, custom)"
   sodipodi:docname="folder-games.svg"
   xmlns:inkscape="http://www.inkscape.org/namespaces/inkscape"
   xmlns:sodipodi="http://sodipodi.sourceforge.net/DTD/sodipodi-0.dtd"
   xmlns:xlink="http://www.w3.org/1999/xlink"
   xmlns="http://www.w3.org/2000/svg"
   xmlns:svg="http://www.w3.org/2000/svg">
  <sodipodi:namedview
     id="namedview7"
     pagecolor="#ffffff"
     bordercolor="#666666"
     borderopacity="1.0"
     inkscape:pageshadow="2"
     inkscape:pageopacity="0.0"
     inkscape:pagecheckerboard="0"
     inkscape:document-units="px"
     showgrid="false"
     units="px"
     height="64px"
     inkscape:zoom="16.833333"
     inkscape:cx="24"
     inkscape:cy="24"
     inkscape:window-width="1920"
     inkscape:window-height="1010"
     inkscape:window-x="0"
     inkscape:window-y="0"
     inkscape:window-maximized="1"
     inkscape:current-layer="svg5"
     showguides="false"
     inkscape:showpageshadow="2"
     inkscape:deskcolor="#d1d1d1" />
  <defs
     id="defs2">
    <linearGradient
       inkscape:collect="always"
       xlink:href="#linearGradient2290"
       id="linearGradient6679"
       x1="17"
       y1="17.5"
       x2="39"
       y2="39.5"
       gradientUnits="userSpaceOnUse" />
    <linearGradient
       inkscape:collect="always"
       xlink:href="#linearGradient2474"
       id="linearGradient7109"
       x1="24.272949"
       y1="7.7161407"
       x2="24.264668"
       y2="14.865067"
       gradientUnits="userSpaceOnUse" />
    <linearGradient
       inkscape:collect="always"
       xlink:href="#linearGradient2412"
       id="linearGradient2543"
       gradientUnits="userSpaceOnUse"
       gradientTransform="translate(-7.5541798,-5.2849)"
       x1="8.5541801"
       y1="17.284901"
       x2="54.554184"
       y2="17.284901" />
    <linearGradient
       inkscape:collect="always"
       id="linearGradient2412">
      <stop
         style="stop-color:#e4a729;stop-opacity:1;"
         offset="0"
         id="stop2408" />
      <stop
         style="stop-color:#e4a729;stop-opacity:0;"
         offset="1"
         id="stop2410" />
    </linearGradient>
    <linearGradient
       inkscape:collect="always"
       id="linearGradient2350">
      <stop
         style="stop-color:#ffffff;stop-opacity:1;"
         offset="0"
         id="stop2346" />
      <stop
         style="stop-color:#ffffff;stop-opacity:0;"
         offset="1"
         id="stop2348" />
    </linearGradient>
    <linearGradient
       inkscape:collect="always"
       xlink:href="#linearGradient2350"
       id="linearGradient7578"
       x1="0.26458332"
       y1="4.1010418"
       x2="12.435417"
       y2="4.1010418"
       gradientUnits="userSpaceOnUse"
       gradientTransform="scale(3.7795274)" />
    <linearGradient
       inkscape:collect="always"
       id="linearGradient2474">
      <stop
         style="stop-color:#fcbc19;stop-opacity:1;"
         offset="0"
         id="stop2470" />
      <stop
         style="stop-color:#f4b61f;stop-opacity:1;"
         offset="1"
         id="stop2472" />
    </linearGradient>
    <linearGradient
       inkscape:collect="always"
       id="linearGradient2290">
      <stop
         style="stop-color:#fce798;stop-opacity:1;"
         offset="0"
         id="stop2286" />
      <stop
         style="stop-color:#ffc937;stop-opacity:1"
         offset="1"
         id="stop2288" />
    </linearGradient>
    <linearGradient
       inkscape:collect="always"
       xlink:href="#linearGradient2083"
       id="linearGradient3375"
       x1="8.4666662"
       y1="7.9375"
       x2="8.4666662"
       y2="12.170833"
       gradientUnits="userSpaceOnUse"
       gradientTransform="matrix(3.7795276,0,0,3.7795276,-8.9999991,-10)" />
    <linearGradient
       inkscape:collect="always"
       id="linearGradient2083">
      <stop
         style="stop-color:#bf910d;stop-opacity:1;"
         offset="0"
         id="stop2079" />
      <stop
         style="stop-color:#a87704;stop-opacity:1"
         offset="1"
         id="stop2081" />
    </linearGradient>
  </defs>
  <path
     id="rect846"
     style="fill:url(#linearGradient7109);fill-opacity:1;stroke-width:2;stroke-linecap:round;stroke-linejoin:round;stroke-dasharray:24, 2"
     d="M 3.9999999,5 A 3.0000002,3.0000002 0 0 0 1,7.9999995 V 35.999998 H 46.999997 V 13 c 0,-1.108 -0.891998,-2.000001 -1.999997,-2.000001 H 22.999999 l -4,-3.9999993 C 17.634742,5.6637682 16.661999,5 14.999999,5 Z" />
  <path
     id="rect1170"
     style="fill:url(#linearGradient6679);fill-opacity:1;stroke-width:2.64576;stroke-linecap:round;stroke-linejoin:round;stroke-dasharray:31.749, 2.64576"
     d="M 20.999999,12 16,15 H 4.9999997 3.9999999 A 2.9999999,2.9999999 0 0 0 1,17.999999 v 1 V 41 c 0,1.107999 0.8919997,1.999996 1.9999999,1.999996 H 45 c 1.107999,0 1.999997,-0.891997 1.999997,-1.999996 V 13.999999 C 46.999997,12.892 46.108002,12 45,12 Z" />
  <path
     id="path2484"
     style="opacity:0.3;fill:url(#linearGradient7578);fill-opacity:1;stroke-width:2.03729;stroke-linecap:round;stroke-linejoin:round;stroke-dasharray:24.4474, 2.03729"
     d="M 20.999999,12 16,15 H 3.9999998 A 2.9999999,2.9999999 0 0 0 1,17.999999 v 1 a 2.9999999,2.9999999 0 0 1 2.9999998,-3 H 16 L 20.999999,13 H 45 c 1.108006,0 2.000001,0.892001 2.000001,2 v -1 c 0,-1.107999 -0.891995,-2 -2.000001,-2 z" />
  <path
     id="path2519"
     style="fill:url(#linearGradient2543);fill-opacity:1;stroke-width:2.64576;stroke-linecap:round;stroke-linejoin:round;stroke-dasharray:31.749, 2.64576"
     d="M 20.999999,11 16,14 H 3.9999998 A 2.9999999,2.9999999 0 0 0 1,17 v 0.999999 A 2.9999999,2.9999999 0 0 1 3.9999998,15 H 16 l 4.999999,-3 H 45 c 1.108002,0 2.000001,0.892001 2.000001,2 v -1 c 0,-1.107999 -0.891999,-2 -2.000001,-2 z" />
  <path
     id="path2554"
     style="fill:#e4a729;fill-opacity:1;stroke-width:2.64576;stroke-linecap:round;stroke-linejoin:round;stroke-dasharray:31.749, 2.64576"
     d="M 1,40.000001 V 41 c 0,1.107999 0.8920009,2 1.9999999,2 H 45 c 1.107999,0 1.999997,-0.892001 1.999997,-2 v -0.999999 c 0,1.107999 -0.891998,2.000001 -1.999997,2.000001 H 2.9999999 C 1.8920011,42.000002 1,41.108 1,40.000001 Z"
     sodipodi:nodetypes="csssscssc" />
  <path
     id="rect434"
     style="fill:url(#linearGradient3375);fill-opacity:1;stroke-width:2;stroke-linecap:round;stroke-linejoin:round"
     d="M 17.000001,20 C 12.568006,20 9,23.568003 9,28.000002 c 0,4.431995 3.568006,7.999997 8.000001,7.999997 H 31 c 4.431998,0 8,-3.568002 8,-7.999997 C 39,23.568003 35.431998,20 31,20 Z m -0.999999,3.999999 H 18 v 3 h 3 V 29 h -3 v 3 h -1.999998 v -3 h -2.999999 v -2.000001 h 2.999999 z m 16,0 C 33.104571,24 34,24.895431 34,26 c 0,1.104569 -0.895429,2 -1.999998,2.000002 -1.104569,0 -2.000001,-0.895431 -2,-2.000002 -2e-6,-1.10457 0.89543,-2.000002 2,-2.000001 z m -4.000001,4.000003 c 1.104569,0 1.999998,0.895429 2,1.999997 10e-7,1.10457 -0.89543,2.000001 -2,2.000001 -1.10457,0 -2,-0.895431 -2,-2.000001 2e-6,-1.104568 0.895432,-1.999997 2,-1.999997 z"
     sodipodi:nodetypes="ssssssscccccccccccccssssssssss" />
</svg>
