<?xml version="1.0" encoding="UTF-8" standalone="no"?>
<!-- Created with Inkscape (http://www.inkscape.org/) -->

<svg
   width="48"
   height="48"
   viewBox="0 0 48 48"
   version="1.1"
   id="svg5"
   inkscape:version="1.4.2 (ebf0e940d0, 2025-05-08)"
   sodipodi:docname="folder-steam.svg"
   xmlns:inkscape="http://www.inkscape.org/namespaces/inkscape"
   xmlns:sodipodi="http://sodipodi.sourceforge.net/DTD/sodipodi-0.dtd"
   xmlns:xlink="http://www.w3.org/1999/xlink"
   xmlns="http://www.w3.org/2000/svg"
   xmlns:svg="http://www.w3.org/2000/svg">
  <sodipodi:namedview
     id="namedview7"
     pagecolor="#ffffff"
     bordercolor="#666666"
     borderopacity="1.0"
     inkscape:pageshadow="2"
     inkscape:pageopacity="0.0"
     inkscape:pagecheckerboard="0"
     inkscape:document-units="px"
     showgrid="false"
     units="px"
     height="64px"
     inkscape:zoom="16.604167"
     inkscape:cx="24"
     inkscape:cy="24"
     inkscape:window-width="1920"
     inkscape:window-height="1011"
     inkscape:window-x="0"
     inkscape:window-y="0"
     inkscape:window-maximized="1"
     inkscape:current-layer="svg5"
     showguides="false"
     inkscape:showpageshadow="2"
     inkscape:deskcolor="#d1d1d1" />
  <defs
     id="defs2">
    <linearGradient
       inkscape:collect="always"
       xlink:href="#linearGradient4"
       id="linearGradient6679"
       x1="17"
       y1="17.5"
       x2="39"
       y2="39.5"
       gradientUnits="userSpaceOnUse" />
    <linearGradient
       inkscape:collect="always"
       xlink:href="#linearGradient3"
       id="linearGradient7109"
       x1="24.272949"
       y1="7.7161407"
       x2="24.264668"
       y2="14.865067"
       gradientUnits="userSpaceOnUse" />
    <linearGradient
       inkscape:collect="always"
       xlink:href="#linearGradient6"
       id="linearGradient2543"
       gradientUnits="userSpaceOnUse"
       gradientTransform="translate(-7.5541798,-5.2849)"
       x1="8.5541801"
       y1="17.284901"
       x2="54.554184"
       y2="17.284901" />
    <linearGradient
       inkscape:collect="always"
       id="linearGradient2350">
      <stop
         style="stop-color:#ffffff;stop-opacity:1;"
         offset="0"
         id="stop2346" />
      <stop
         style="stop-color:#ffffff;stop-opacity:0;"
         offset="1"
         id="stop2348" />
    </linearGradient>
    <linearGradient
       inkscape:collect="always"
       xlink:href="#linearGradient2350"
       id="linearGradient7578"
       x1="0.26458332"
       y1="4.1010418"
       x2="12.435417"
       y2="4.1010418"
       gradientUnits="userSpaceOnUse"
       gradientTransform="scale(3.7795274)" />
    <linearGradient
       inkscape:collect="always"
       id="linearGradient3">
      <stop
         style="stop-color:#2374c9;stop-opacity:1;"
         offset="0"
         id="stop1" />
      <stop
         style="stop-color:#1b549f;stop-opacity:1;"
         offset="1"
         id="stop2" />
    </linearGradient>
    <linearGradient
       inkscape:collect="always"
       id="linearGradient4">
      <stop
         style="stop-color:#2672ca;stop-opacity:1;"
         offset="0"
         id="stop3" />
      <stop
         style="stop-color:#133e68;stop-opacity:1;"
         offset="1"
         id="stop4" />
    </linearGradient>
    <linearGradient
       inkscape:collect="always"
       id="linearGradient6">
      <stop
         style="stop-color:#174377;stop-opacity:1;"
         offset="0"
         id="stop5" />
      <stop
         style="stop-color:#14406c;stop-opacity:0;"
         offset="1"
         id="stop6" />
    </linearGradient>
  </defs>
  <path
     id="rect846"
     style="fill:url(#linearGradient7109);fill-opacity:1;stroke-width:2;stroke-linecap:round;stroke-linejoin:round;stroke-dasharray:24, 2"
     d="M 3.9999999,5 A 3.0000002,3.0000002 0 0 0 1,7.9999995 V 35.999998 H 46.999997 V 13 c 0,-1.108 -0.891998,-2.000001 -1.999997,-2.000001 H 22.999999 l -4,-3.9999993 C 17.634742,5.6637682 16.661999,5 14.999999,5 Z" />
  <path
     id="rect1170"
     style="fill:url(#linearGradient6679);fill-opacity:1;stroke-width:2.64576;stroke-linecap:round;stroke-linejoin:round;stroke-dasharray:31.749, 2.64576"
     d="M 20.999999,12 16,15 H 4.9999997 3.9999999 A 2.9999999,2.9999999 0 0 0 1,17.999999 v 1 V 41 c 0,1.107999 0.8919997,1.999996 1.9999999,1.999996 H 45 c 1.107999,0 1.999997,-0.891997 1.999997,-1.999996 V 13.999999 C 46.999997,12.892 46.108002,12 45,12 Z" />
  <path
     id="path2484"
     style="opacity:0.3;fill:url(#linearGradient7578);fill-opacity:1;stroke-width:2.03729;stroke-linecap:round;stroke-linejoin:round;stroke-dasharray:24.4474, 2.03729"
     d="M 20.999999,12 16,15 H 3.9999998 A 2.9999999,2.9999999 0 0 0 1,17.999999 v 1 a 2.9999999,2.9999999 0 0 1 2.9999998,-3 H 16 L 20.999999,13 H 45 c 1.108006,0 2.000001,0.892001 2.000001,2 v -1 c 0,-1.107999 -0.891995,-2 -2.000001,-2 z" />
  <path
     id="path2519"
     style="fill:url(#linearGradient2543);fill-opacity:1;stroke-width:2.64576;stroke-linecap:round;stroke-linejoin:round;stroke-dasharray:31.749, 2.64576"
     d="M 20.999999,11 16,14 H 3.9999998 A 2.9999999,2.9999999 0 0 0 1,17 v 0.999999 A 2.9999999,2.9999999 0 0 1 3.9999998,15 H 16 l 4.999999,-3 H 45 c 1.108002,0 2.000001,0.892001 2.000001,2 v -1 c 0,-1.107999 -0.891999,-2 -2.000001,-2 z" />
  <path
     id="path2554"
     style="fill:#1a3453;fill-opacity:1;stroke-width:2.64576;stroke-linecap:round;stroke-linejoin:round;stroke-dasharray:31.749, 2.64576"
     d="M 1,40.000001 V 41 c 0,1.107999 0.8920009,2 1.9999999,2 H 45 c 1.107999,0 1.999997,-0.892001 1.999997,-2 v -0.999999 c 0,1.107999 -0.891998,2.000001 -1.999997,2.000001 H 2.9999999 C 1.8920011,42.000002 1,41.108 1,40.000001 Z"
     sodipodi:nodetypes="csssscssc" />
  <path
     d="m 31.500142,20 c -2.97081,0.005 -5.400722,2.36837 -5.488281,5.33789 l -3.357422,4.6875 c -0.704034,0.0612 -1.379291,0.30787 -1.957031,0.71484 l -7.66211,-3.23242 C 10.57955,26.29971 8.84848,30.06114 11.36342,31.14062 l 2.298831,1.06055 5.365235,2.17188 c 0.192191,2.05183 1.911847,3.62184 3.972656,3.62695 2.177444,-0.003 3.952678,-1.74678 3.994141,-3.92383 l 5.226562,-3.1289 C 34.954037,30.586 36.997479,28.25696 37.000142,25.5 c 0,-3.03756 -2.462444,-5.5 -5.5,-5.5 z m 0,2 c 1.932991,0 3.5,1.56701 3.5,3.5 0,1.93299 -1.567009,3.5 -3.5,3.5 -1.932991,0 -3.5,-1.56701 -3.5,-3.5 0,-1.93299 1.567009,-3.5 3.5,-3.5 z m 0,1 c -1.380709,0 -2.5,1.11929 -2.5,2.5 0,1.38071 1.119291,2.5 2.5,2.5 1.380709,0 2.5,-1.11929 2.5,-2.5 0,-1.38071 -1.119291,-2.5 -2.5,-2.5 z m -8.5,8 c 1.305257,2.4e-4 2.460576,0.84442 2.857422,2.08789 l 0.103516,0.44336 c 0.02527,0.15499 0.03833,0.31172 0.03906,0.46875 0,1.65685 -1.343153,3 -3,3 -1.315362,-0.002 -2.476211,-0.86007 -2.863281,-2.11719 l 2.027343,0.9336 c 2.45575,1.2081 4.186814,-2.55333 1.671876,-3.63282 L 21.814595,31.25391 C 22.188378,31.08947 22.591798,31.00307 23.000142,31 Z"
     style="opacity:0.1;fill:#000000;fill-opacity:1"
     id="path1" />
  <path
     d="m 31.500142,19 c -2.97081,0.005 -5.400722,2.36837 -5.488281,5.33789 l -3.357422,4.6875 c -0.704034,0.0612 -1.379291,0.30787 -1.957031,0.71484 l -7.66211,-3.23242 C 10.57955,25.29971 8.84848,29.06114 11.36342,30.14062 l 2.298831,1.06055 5.365235,2.17188 c 0.192191,2.05183 1.911847,3.62184 3.972656,3.62695 2.177444,-0.003 3.952678,-1.74678 3.994141,-3.92383 l 5.226562,-3.1289 C 34.954037,29.586 36.997479,27.25696 37.000142,24.5 c 0,-3.03756 -2.462444,-5.5 -5.5,-5.5 z m 0,2 c 1.932991,0 3.5,1.56701 3.5,3.5 0,1.93299 -1.567009,3.5 -3.5,3.5 -1.932991,0 -3.5,-1.56701 -3.5,-3.5 0,-1.93299 1.567009,-3.5 3.5,-3.5 z m 0,1 c -1.380709,0 -2.5,1.11929 -2.5,2.5 0,1.38071 1.119291,2.5 2.5,2.5 1.380709,0 2.5,-1.11929 2.5,-2.5 0,-1.38071 -1.119291,-2.5 -2.5,-2.5 z m -8.5,8 c 1.305257,2.4e-4 2.460576,0.84442 2.857422,2.08789 l 0.103516,0.44336 c 0.02527,0.15499 0.03833,0.31172 0.03906,0.46875 0,1.65685 -1.343153,3 -3,3 -1.315362,-0.002 -2.476211,-0.86007 -2.863281,-2.11719 l 2.027343,0.9336 c 2.45575,1.2081 4.186814,-2.55333 1.671876,-3.63282 L 21.814595,30.25391 C 22.188378,30.08947 22.591798,30.00307 23.000142,30 Z"
     style="fill:#ffffff;fill-opacity:1"
     id="path1-6" />
</svg>
