<?xml version="1.0" encoding="UTF-8" standalone="no"?>
<!-- Created with Inkscape (http://www.inkscape.org/) -->

<svg
   width="48"
   height="48"
   viewBox="0 0 48 48"
   version="1.1"
   id="svg5"
   inkscape:version="1.2.1 (9c6d41e410, 2022-07-14, custom)"
   sodipodi:docname="folder-template.svg"
   xmlns:inkscape="http://www.inkscape.org/namespaces/inkscape"
   xmlns:sodipodi="http://sodipodi.sourceforge.net/DTD/sodipodi-0.dtd"
   xmlns:xlink="http://www.w3.org/1999/xlink"
   xmlns="http://www.w3.org/2000/svg"
   xmlns:svg="http://www.w3.org/2000/svg">
  <sodipodi:namedview
     id="namedview7"
     pagecolor="#ffffff"
     bordercolor="#666666"
     borderopacity="1.0"
     inkscape:pageshadow="2"
     inkscape:pageopacity="0.0"
     inkscape:pagecheckerboard="0"
     inkscape:document-units="px"
     showgrid="false"
     units="px"
     height="64px"
     inkscape:zoom="16.833333"
     inkscape:cx="24"
     inkscape:cy="24"
     inkscape:window-width="1920"
     inkscape:window-height="1010"
     inkscape:window-x="0"
     inkscape:window-y="0"
     inkscape:window-maximized="1"
     inkscape:current-layer="svg5"
     showguides="true"
     inkscape:showpageshadow="2"
     inkscape:deskcolor="#d1d1d1" />
  <defs
     id="defs2">
    <linearGradient
       inkscape:collect="always"
       xlink:href="#linearGradient908"
       id="linearGradient6679"
       x1="17"
       y1="17.5"
       x2="39"
       y2="39.5"
       gradientUnits="userSpaceOnUse" />
    <linearGradient
       inkscape:collect="always"
       xlink:href="#linearGradient892"
       id="linearGradient7109"
       x1="24.272949"
       y1="7.7161407"
       x2="24.264668"
       y2="14.865067"
       gradientUnits="userSpaceOnUse" />
    <linearGradient
       inkscape:collect="always"
       id="linearGradient2350">
      <stop
         style="stop-color:#ffffff;stop-opacity:1;"
         offset="0"
         id="stop2346" />
      <stop
         style="stop-color:#ffffff;stop-opacity:0;"
         offset="1"
         id="stop2348" />
    </linearGradient>
    <linearGradient
       inkscape:collect="always"
       xlink:href="#linearGradient2350"
       id="linearGradient7578"
       x1="0.26458332"
       y1="4.1010418"
       x2="12.435417"
       y2="4.1010418"
       gradientUnits="userSpaceOnUse"
       gradientTransform="scale(3.7795274)" />
    <linearGradient
       inkscape:collect="always"
       xlink:href="#linearGradient4263"
       id="linearGradient4265"
       x1="8.4584417"
       y1="6.3224587"
       x2="8.4666672"
       y2="9.5250006"
       gradientUnits="userSpaceOnUse"
       gradientTransform="matrix(2.6165955,0,0,2.6596662,1.8461559,2.1111196)" />
    <linearGradient
       inkscape:collect="always"
       id="linearGradient4263">
      <stop
         style="stop-color:#b0e2f9;stop-opacity:1;"
         offset="0"
         id="stop4259" />
      <stop
         style="stop-color:#c2dbf0;stop-opacity:1"
         offset="1"
         id="stop4261" />
    </linearGradient>
    <linearGradient
       inkscape:collect="always"
       xlink:href="#linearGradient5001"
       id="linearGradient5003"
       x1="19"
       y1="44.711914"
       x2="32"
       y2="36"
       gradientUnits="userSpaceOnUse"
       gradientTransform="matrix(0.69230752,0,0,0.70370333,1.8461559,2.1111196)" />
    <linearGradient
       inkscape:collect="always"
       id="linearGradient5001">
      <stop
         style="stop-color:#bedcfe;stop-opacity:1;"
         offset="0"
         id="stop4997" />
      <stop
         style="stop-color:#e3f5ff;stop-opacity:1"
         offset="1"
         id="stop4999" />
    </linearGradient>
    <linearGradient
       inkscape:collect="always"
       xlink:href="#linearGradient5539"
       id="linearGradient5541"
       x1="11.808536"
       y1="12.205922"
       x2="8.4666672"
       y2="9.5250006"
       gradientUnits="userSpaceOnUse"
       gradientTransform="matrix(2.6165955,0,0,2.6596662,1.8461559,2.1111196)" />
    <linearGradient
       inkscape:collect="always"
       id="linearGradient5539">
      <stop
         style="stop-color:#baaaef;stop-opacity:1;"
         offset="0"
         id="stop5535" />
      <stop
         style="stop-color:#85bbe8;stop-opacity:1"
         offset="1"
         id="stop5537" />
    </linearGradient>
    <linearGradient
       inkscape:collect="always"
       id="linearGradient892">
      <stop
         style="stop-color:#09759f;stop-opacity:1;"
         offset="0"
         id="stop888" />
      <stop
         style="stop-color:#1f5e90;stop-opacity:1;"
         offset="1"
         id="stop890" />
    </linearGradient>
    <linearGradient
       inkscape:collect="always"
       id="linearGradient908">
      <stop
         style="stop-color:#4ad2e3;stop-opacity:1;"
         offset="0"
         id="stop904" />
      <stop
         style="stop-color:#8660c5;stop-opacity:1;"
         offset="1"
         id="stop906" />
    </linearGradient>
    <linearGradient
       inkscape:collect="always"
       id="linearGradient900">
      <stop
         style="stop-color:#29548a;stop-opacity:1;"
         offset="0"
         id="stop896" />
      <stop
         style="stop-color:#463675;stop-opacity:1;"
         offset="1"
         id="stop898" />
    </linearGradient>
    <linearGradient
       inkscape:collect="always"
       xlink:href="#linearGradient900"
       id="linearGradient4752"
       x1="1"
       y1="41.5"
       x2="46.999996"
       y2="41.5"
       gradientUnits="userSpaceOnUse" />
  </defs>
  <path
     id="rect846"
     style="fill:url(#linearGradient7109);fill-opacity:1.0;stroke-width:2;stroke-linecap:round;stroke-linejoin:round;stroke-dasharray:24, 2"
     d="M 3.9999999,5 A 3.0000002,3.0000002 0 0 0 1,7.9999995 V 35.999998 H 46.999997 V 13 c 0,-1.108 -0.891998,-2.000001 -1.999997,-2.000001 H 22.999999 l -4,-3.9999993 C 17.634742,5.6637682 16.661999,5 14.999999,5 Z" />
  <path
     id="rect1170"
     style="fill:url(#linearGradient6679);fill-opacity:1.0;stroke-width:2.64576;stroke-linecap:round;stroke-linejoin:round;stroke-dasharray:31.749, 2.64576"
     d="M 20.999999,12 16,15 H 4.9999997 3.9999999 A 2.9999999,2.9999999 0 0 0 1,17.999999 v 1 V 41 c 0,1.107999 0.8919997,1.999996 1.9999999,1.999996 H 45 c 1.107999,0 1.999997,-0.891997 1.999997,-1.999996 V 13.999999 C 46.999997,12.892 46.108002,12 45,12 Z" />
  <path
     id="path2484"
     style="opacity:0.3;fill:url(#linearGradient7578);fill-opacity:1;stroke-width:2.03729;stroke-linecap:round;stroke-linejoin:round;stroke-dasharray:24.4474, 2.03729"
     d="M 20.999999,12 16,15 H 3.9999998 A 2.9999999,2.9999999 0 0 0 1,17.999999 v 1 a 2.9999999,2.9999999 0 0 1 2.9999998,-3 H 16 L 20.999999,13 H 45 c 1.108006,0 2.000001,0.892001 2.000001,2 v -1 c 0,-1.107999 -0.891995,-2 -2.000001,-2 z" />
  <path
     id="path2554"
     style="fill:url(#linearGradient4752);fill-opacity:1.0;stroke-width:2.64576;stroke-linecap:round;stroke-linejoin:round;stroke-dasharray:31.749, 2.64576"
     d="M 1,40.000001 V 41 c 0,1.107999 0.8920009,2 1.9999999,2 H 45 c 1.107999,0 1.999997,-0.892001 1.999997,-2 v -0.999999 c 0,1.107999 -0.891998,2.000001 -1.999997,2.000001 H 2.9999999 C 1.8920011,42.000002 1,41.108 1,40.000001 Z"
     sodipodi:nodetypes="csssscssc" />
  <path
     style="color:#000000;fill:url(#linearGradient4265);fill-opacity:1;stroke:none;stroke-width:2.63854;stroke-linecap:round;stroke-linejoin:round;stroke-miterlimit:4;stroke-dasharray:none"
     d="m 22.875638,19.242428 -6.229982,2.815713 C 15.645485,22.509567 15.000588,23.517302 15,24.629688 v 7.740615 c 5.88e-4,1.112385 0.645485,2.120121 1.645656,2.571548 l 6.229982,2.815715 c 0.715849,0.323263 1.532873,0.323263 2.248722,0 l 6.229983,-2.815715 c 1.000172,-0.451427 1.645066,-1.459163 1.645654,-2.571548 v -7.740615 c -5.88e-4,-1.112386 -0.645482,-2.120121 -1.645654,-2.571547 L 25.12436,19.242428 c -0.715849,-0.323237 -1.532873,-0.323237 -2.248722,0 z"
     id="path3182"
     sodipodi:nodetypes="ccccccccccccc" />
  <path
     id="rect3501"
     style="fill:url(#linearGradient5003);fill-opacity:1;stroke-width:2.63839;stroke-linecap:round;stroke-linejoin:round"
     d="M 15.225812,23.52047 C 15.080243,23.864698 15.000204,24.240429 15,24.629628 v 7.740737 c 5.88e-4,1.112385 0.645412,2.120115 1.645583,2.571541 l 6.229416,2.81619 C 23.232924,37.919708 23.616781,37.999985 24,37.999985 V 27.444441 Z" />
  <path
     id="rect3501-7"
     style="fill:url(#linearGradient5541);fill-opacity:1;stroke-width:2.63839;stroke-linecap:round;stroke-linejoin:round"
     d="m 32.774184,23.52047 c 0.145568,0.344228 0.225592,0.719959 0.225815,1.109158 v 7.740737 c -5.87e-4,1.112385 -0.645411,2.120115 -1.645582,2.571541 L 25.125,37.758096 c -0.357925,0.16165 -0.741782,0.241889 -1.124997,0.241889 V 27.444441 Z" />
</svg>
