<?xml version="1.0" encoding="UTF-8" standalone="no"?>
<!-- Created with Inkscape (http://www.inkscape.org/) -->

<svg
   width="48"
   height="48"
   viewBox="0 0 48 48"
   version="1.1"
   id="svg2112"
   inkscape:version="1.2.1 (9c6d41e410, 2022-07-14, custom)"
   sodipodi:docname="network-workgroup.svg"
   xmlns:inkscape="http://www.inkscape.org/namespaces/inkscape"
   xmlns:sodipodi="http://sodipodi.sourceforge.net/DTD/sodipodi-0.dtd"
   xmlns:xlink="http://www.w3.org/1999/xlink"
   xmlns="http://www.w3.org/2000/svg"
   xmlns:svg="http://www.w3.org/2000/svg">
  <sodipodi:namedview
     id="namedview2114"
     pagecolor="#ffffff"
     bordercolor="#000000"
     borderopacity="0.25"
     inkscape:showpageshadow="2"
     inkscape:pageopacity="0.0"
     inkscape:pagecheckerboard="0"
     inkscape:deskcolor="#d1d1d1"
     inkscape:document-units="px"
     showgrid="false"
     inkscape:zoom="16.833333"
     inkscape:cx="24"
     inkscape:cy="24"
     inkscape:window-width="1920"
     inkscape:window-height="1010"
     inkscape:window-x="0"
     inkscape:window-y="0"
     inkscape:window-maximized="1"
     inkscape:current-layer="svg2112"
     showguides="false" />
  <defs
     id="defs2109">
    <linearGradient
       inkscape:collect="always"
       xlink:href="#linearGradient2986"
       id="linearGradient2988"
       x1="0.092813492"
       y1="10.202362"
       x2="0.092813492"
       y2="13.470933"
       gradientUnits="userSpaceOnUse"
       gradientTransform="matrix(1.7738908,0,0,1.8356647,26.835359,18.271891)" />
    <linearGradient
       inkscape:collect="always"
       id="linearGradient2986">
      <stop
         style="stop-color:#818990;stop-opacity:1;"
         offset="0"
         id="stop2982" />
      <stop
         style="stop-color:#9fa8b0;stop-opacity:1"
         offset="1"
         id="stop2984" />
    </linearGradient>
    <linearGradient
       inkscape:collect="always"
       xlink:href="#linearGradient1116"
       id="linearGradient1908"
       x1="4"
       y1="32"
       x2="60"
       y2="32"
       gradientUnits="userSpaceOnUse"
       gradientTransform="matrix(0.75,0,0,0.78947368,-3e-7,-2.2631579)" />
    <linearGradient
       inkscape:collect="always"
       id="linearGradient1116">
      <stop
         style="stop-color:#555a5f;stop-opacity:1;"
         offset="0"
         id="stop1112" />
      <stop
         style="stop-color:#4b4f53;stop-opacity:1"
         offset="1"
         id="stop1114" />
    </linearGradient>
    <linearGradient
       inkscape:collect="always"
       xlink:href="#linearGradient2301"
       id="linearGradient3240"
       x1="5.0000005"
       y1="14"
       x2="59"
       y2="50"
       gradientUnits="userSpaceOnUse"
       gradientTransform="matrix(0.74074074,0,0,0.77777777,0.296296,-1.8888888)" />
    <linearGradient
       inkscape:collect="always"
       id="linearGradient2301">
      <stop
         style="stop-color:#3fe3e7;stop-opacity:1;"
         offset="0"
         id="stop2297" />
      <stop
         style="stop-color:#066bbc;stop-opacity:1"
         offset="1"
         id="stop2299" />
    </linearGradient>
    <linearGradient
       inkscape:collect="always"
       xlink:href="#linearGradient1339"
       id="linearGradient1341"
       x1="-16.257299"
       y1="3.3388042"
       x2="-8.2772894"
       y2="3.3388042"
       gradientUnits="userSpaceOnUse"
       gradientTransform="matrix(2.6249721,0,0,2.6249721,43.674959,3.4954584)" />
    <linearGradient
       inkscape:collect="always"
       id="linearGradient1339">
      <stop
         style="stop-color:#b0d6df;stop-opacity:1;"
         offset="0"
         id="stop1335" />
      <stop
         style="stop-color:#e1f8fc;stop-opacity:1;"
         offset="0.5"
         id="stop1343" />
      <stop
         style="stop-color:#96c3ce;stop-opacity:1;"
         offset="1"
         id="stop1337" />
    </linearGradient>
    <radialGradient
       inkscape:collect="always"
       xlink:href="#linearGradient1819"
       id="radialGradient1821"
       cx="-8.4892759"
       cy="6.6485348"
       fx="-8.4892759"
       fy="6.6485348"
       r="4"
       gradientTransform="matrix(2.8108702,1.4455547,-1.3632746,2.6510467,41.800954,4.9976526)"
       gradientUnits="userSpaceOnUse" />
    <linearGradient
       inkscape:collect="always"
       id="linearGradient1819">
      <stop
         style="stop-color:#5ab5e2;stop-opacity:1;"
         offset="0"
         id="stop1815" />
      <stop
         style="stop-color:#4189ac;stop-opacity:1;"
         offset="0.5"
         id="stop1823" />
      <stop
         style="stop-color:#295e76;stop-opacity:1;"
         offset="1"
         id="stop1817" />
    </linearGradient>
  </defs>
  <path
     id="rect958"
     style="fill:#bcc5cf;stroke-width:2.11289;stroke-linecap:round;stroke-linejoin:round"
     d="m 15.000001,43.000008 h 18 l 1,1 h -20 z"
     sodipodi:nodetypes="ccccc" />
  <rect
     style="fill:url(#linearGradient2988);fill-opacity:1;stroke-width:2.38723;stroke-linecap:round;stroke-linejoin:round"
     id="rect2848"
     width="6"
     height="6"
     x="21.000002"
     y="36.999996" />
  <path
     id="rect1418"
     style="fill:#b8c2cc;stroke-width:2.50001;stroke-linecap:round;stroke-linejoin:round"
     d="m 6,7 h 36 c 2,0 2.882606,1.915344 2.882606,1.915344 L 44.999996,9.5 H 3 L 3.456812,8.420253 C 3.456812,8.420253 4.723951,7 6,7 Z"
     sodipodi:nodetypes="ssccccs" />
  <rect
     style="fill:url(#linearGradient1908);fill-opacity:1;stroke-width:0.769483;stroke-linecap:round"
     id="rect1537"
     width="42"
     height="30"
     x="3"
     y="8"
     ry="2" />
  <rect
     style="fill:url(#linearGradient3240);fill-opacity:1;stroke-width:0.759033;stroke-linecap:round"
     id="rect1910"
     width="40"
     height="28"
     x="4"
     y="9"
     ry="1" />
  <rect
     style="fill:#44484c;fill-opacity:1;stroke-width:3.77965;stroke-linecap:round;stroke-linejoin:round"
     id="rect1839"
     width="20.000002"
     height="2"
     x="14.000002"
     y="43.999989" />
  <ellipse
     style="fill:url(#radialGradient1821);fill-opacity:1;stroke-width:2.62502"
     id="path1449"
     cx="11.500112"
     cy="12.5"
     rx="10.499888"
     ry="10.5" />
  <path
     d="M 11.554363,2.5249825 C 10.744598,2.5824167 9.9524285,2.731069 9.1798993,2.9814704 8.9042878,2.9922329 8.3053085,3.347213 8.7885785,3.5138043 9.0134863,3.754068 9.5504038,3.8305281 9.4851913,4.2231268 9.5718943,4.5682162 8.6830865,4.5525582 8.9789338,4.865111 9.1886953,5.141174 9.3984703,5.4172526 9.6082445,5.6933261 9.9955753,5.5689288 10.12339,5.1722275 10.338281,4.8668959 10.936449,4.6030495 11.783034,4.5233554 12.178347,4.0156201 L 12.549964,2.9381794 C 12.218092,2.8004444 11.886208,2.6627122 11.554352,2.5249457 Z M 8.6751433,2.6172502 C 8.304122,2.5772197 8.0667875,2.8052507 7.7898477,2.9547272 7.448953,2.9964639 7.0637965,3.1233554 6.848974,3.3975337 7.231372,3.5710707 7.4722,3.3862462 7.8022745,3.2550765 8.1087372,3.0980769 9.1510955,3.0325576 8.6751455,2.617224 Z M 6.2809404,3.7184891 C 6.0901839,4.0096509 6.4149189,4.4310692 5.9785802,4.5838715 5.7632012,4.8565326 5.5749699,5.3040798 6.1133199,5.1416833 6.2450147,4.7376581 6.6541225,4.1709187 7.1197135,4.4075469 7.5886622,4.5335455 8.022683,5.3215779 8.4055715,4.6974041 8.405417,4.5350758 7.8099942,4.4401044 7.8232977,4.0429592 7.5583465,3.929298 6.991972,4.135857 7.0117457,3.7227678 6.6289645,3.5528008 6.518716,4.3997166 6.3830597,3.9263606 6.3490172,3.8570876 6.3149672,3.7878146 6.2809479,3.7184891 Z M 16.671756,4.0855677 c -0.453057,0.090614 -0.900552,0.1940905 -1.258105,0.5054884 0.103792,0.4149476 -0.43153,0.4847693 -0.669628,0.7150948 -0.172749,0.097491 0.0031,0.8505094 0.15448,0.7336144 0.321832,-0.424608 0.488311,-0.058327 0.787471,0.151329 0.269272,0.2501078 0.440252,-0.464436 0.297228,-0.6658552 -0.08392,-0.3246225 0.324344,-0.5647734 0.471266,-0.8306253 0.44917,-0.2881274 0.06964,0.3675932 0.05526,0.5965223 -0.226719,0.6765265 1.005693,0.020475 0.193329,0.5259632 -0.217899,0.2176103 -0.297695,0.5399963 -0.632534,0.7008151 -0.180782,0.2206815 -0.870809,0.117231 -0.777887,-0.2270078 -0.251971,-0.3949298 -0.189786,0.4753193 -0.275394,0.4711508 -0.417599,-0.1244235 -0.541884,0.3416902 -0.803782,0.564708 -0.200417,0.230262 -0.907973,0.087385 -0.379731,0.444066 0.385267,0.4445583 -0.07678,0.3623441 -0.395486,0.4807436 -0.450401,0.077542 -0.375119,0.4698277 -0.363462,0.8240152 0.0068,0.1951928 0.4392,0.4847693 0.65812,0.348633 0.437273,-0.04683 0.32694,-0.5834655 0.650003,-0.7471192 0.268428,-0.229764 0.456801,-0.4416863 0.859857,-0.44718 0.186084,0.177579 0.562194,0.444555 0.714709,0.5897287 -0.420935,0.458625 0.19333,0.4212503 0.252103,0.00345 0.207635,-0.230079 -0.683915,-0.771516 -0.09594,-0.533628 0.389147,0.1283873 0.299659,0.5259293 0.472802,0.794301 0.307765,0.5202586 0.340725,0.132036 0.369376,-0.2704245 0.511326,-0.1606485 0.649925,0.8904113 1.339121,0.6439163 0.516516,0.135711 0.271751,0.4697175 -0.05436,0.6853805 -0.297842,0.217242 -0.741974,0.06832 -1.068864,-0.04961 -0.323392,-0.1660297 -0.713135,-0.07085 -0.883372,0.259373 -0.377915,-0.326153 -0.64545,-0.8442778 -1.194475,-0.8729765 -0.519839,-0.026933 -1.044647,0.111273 -1.546322,0.2526278 -0.55585,0.6523447 -1.157237,1.2876797 -1.41623,2.1214577 -0.268841,0.330379 0.307012,0.528307 -0.130697,0.828982 -0.304738,0.284529 0.103792,0.635965 0.166843,0.955012 0.327943,0.388908 0.830728,1.668151 1.337203,1.173338 0.285025,-0.450332 0.474023,0.294984 0.809168,-0.172749 0.282099,-0.257483 0.510563,0.258717 0.906159,0.0751 0.351775,0.175348 0.382362,0.519064 0.196479,0.847989 -0.119383,0.333946 0.517141,0.471264 0.336039,0.861117 -0.08542,0.381241 0.08185,0.704879 0.271254,1.023471 -0.420964,0.439408 -0.370218,1.090319 -0.265133,1.640923 0.205955,0.75485 0.50094,1.511881 0.471474,2.306704 0.368848,0.09673 0.640937,-0.147523 0.945951,-0.275808 0.582174,0.08235 0.898887,-0.538839 1.260386,-0.895126 -0.271572,-0.365068 0.223096,-0.522605 0.427582,-0.75878 -0.30586,-0.264558 -0.508529,-0.521406 -0.03502,-0.727725 0.218424,-0.221863 0.627631,-0.347282 0.699382,-0.656753 -0.188105,-0.560545 -0.08095,-1.156117 -0.108647,-1.735663 0.231915,-0.467416 0.478149,-0.92488 0.863358,-1.28579 0.153613,-0.506851 0.522844,-0.971429 0.48704,-1.515486 -0.897864,0.268606 -0.626759,-0.114107 -0.129175,-0.477941 0.345294,-0.253258 0.836264,-0.489461 0.94126,-0.921237 0.07539,-0.426149 -0.257667,-1.087802 -0.54742,-0.461706 -0.140751,-0.199524 -0.636561,-0.384567 -0.629696,-0.697776 -0.106181,-0.631623 0.170806,-0.25226 0.417045,0.04604 0.572758,-0.424571 1.320229,1.171801 1.07849,0.03274 C 21.573159,8.597184 20.32316,6.2682191 18.450755,4.6320214 18.279527,4.8143519 17.993807,5.4941148 17.786474,5.1017417 17.492947,4.7903596 17.262579,4.5092435 17.860469,4.6248447 18.446423,4.4658238 17.862719,4.3733461 17.555563,4.3371005 17.24752,4.3011388 16.961881,4.1883171 16.671766,4.0854969 Z M 5.2029744,4.1007927 C 4.8153264,4.250101 5.3960147,4.8193918 4.7010196,4.6370823 3.9390609,4.9823501 3.4314728,5.8202546 2.9018689,6.4727381 1.666515,8.2185555 0.99488433,10.352015 1.0000293,12.490448 c 0.2027004,0.418373 0.7019386,0.560156 1.0754458,0.791114 0.3795999,0.129857 0.8576494,0.110249 1.0465712,0.529601 0.2113103,0.221259 0.4948151,0.517986 0.7966816,0.541994 0.4638746,-0.148652 0.5292863,0.27195 0.2952621,0.583074 -0.025462,0.340793 -0.4046551,0.615669 -0.36238,0.915396 0.084498,0.335842 -0.4225023,0.705753 -0.080954,1.013006 0.3593324,0.642407 0.7439014,1.26626 1.2298628,1.821098 0.3022575,0.264816 0.2664187,0.629418 0.2319157,0.993621 -0.119961,0.38492 0.2438603,0.607581 0.4391318,0.88677 -0.4758473,0.872446 0.8130218,1.046815 1.3524593,1.428303 0.2712015,-0.248008 0.292758,-0.649408 0.742678,-0.660598 0.272832,-0.191151 0.331077,-0.622634 0.518469,-0.909514 -0.00607,-0.304728 -0.2011523,-0.589485 0.115656,-0.921378 0.2387145,-0.201466 0.7312988,-0.06717 0.8201618,-0.487744 0.3242632,-0.334004 0.061897,-0.796926 0.061897,-1.202174 0.2518927,-0.345037 0.686436,-0.609891 0.6382095,-1.086647 0.05457,-0.711068 -1.225662,-0.679111 -1.6767608,-1.110231 -0.5544873,-0.01601 -0.442356,-0.77148 -0.8739933,-0.871854 -0.4285267,0.02153 -0.5843422,-0.314201 -0.736239,-0.655071 -0.2360378,-0.16099 -0.680238,0.16616 -0.9272243,-0.03562 C 5.427134,13.906224 5.1761915,13.35648 4.8613055,13.700031 4.446885,14.000511 4.0393214,14.305756 3.6461793,13.802667 3.3912161,13.572932 3.7115678,12.920736 3.3505685,12.96182 2.5799292,13.240576 3.5948221,11.842453 2.8733958,12.027941 2.7025364,12.295754 2.3748007,12.70899 2.056137,12.392069 1.7361188,12.241501 1.8939662,11.751904 1.908246,11.458682 1.9221586,11.115716 2.3561267,10.944725 2.605562,10.78828 3.0893522,11.004656 2.99006,10.359855 3.3944029,10.575395 3.7866341,10.491868 3.9637305,11.12106 4.1229744,11.144512 4.2165547,10.834539 4.0476114,10.381501 4.3352821,10.17728 4.6714019,9.8943585 5.1150219,9.693144 5.1979689,9.2177872 5.2047939,8.7099892 5.8210554,9.1379362 5.9740337,8.79213 6.1150734,8.3959065 6.5264222,8.4206542 6.8738927,8.345898 7.0639405,8.169552 7.5416357,7.6263874 6.9515132,7.7856341 6.7365805,7.7565791 5.8712717,7.8717596 6.4588322,7.6647011 6.7482617,7.4456216 7.0990682,7.4759659 7.4239637,7.4329429 7.6798457,7.2163301 8.127125,7.1437466 8.1467945,6.7493449 7.9344342,6.4605138 7.4845795,6.5154859 7.6755385,6.1012338 7.6571635,5.5593453 7.1798147,5.9072223 7.0230197,5.8660098 7.2776687,5.5116446 6.691903,5.2885268 6.4953062,5.2835578 6.3616952,5.6175041 5.9860382,5.9056263 6.1186119,6.2899856 5.7269402,6.3535856 5.5434384,6.6370879 5.4257402,6.9900341 5.3082992,7.0309316 5.3464922,6.2978231 4.8970441,6.3653718 4.5795804,6.3577593 4.1871287,5.8839993 4.5213664,5.6974556 4.9796079,5.4075221 5.5493552,5.1805907 5.8391102,4.7174852 6.0057437,4.3027134 5.6984379,4.0481331 5.2892417,4.1070348 l -0.057067,-0.00394 z m 7.7099026,0.4775611 c -0.252916,0.1967416 -0.763462,0.060847 -0.871265,0.2505536 -0.04533,0.382608 0.548748,0.3766257 0.786003,0.1653994 0.387788,-0.1433759 0.370497,-0.1172049 0.08523,-0.4159609 z M 7.2948565,4.7744654 C 6.757381,4.93262 7.1966042,5.2846419 7.547458,5.2799537 7.9660782,5.24617 7.5765955,4.7774763 7.2948565,4.7744654 Z m 6.4093475,1.0561234 c -0.03848,0.3423728 0.290432,0.5561633 0.154611,0.9291481 -0.213883,0.4698622 0.08909,0.610944 0.454597,0.3221392 0.488161,-0.2986875 -0.365813,-0.9529905 -0.479589,-1.2512873 z m -0.16099,0.5505908 c -0.438682,-0.1078343 -0.299897,0.8102603 0.0015,0.4941825 0.324602,-0.05667 0.01286,-0.3067777 -0.0015,-0.4941825 z M 7.9447917,7.2086569 c 0.064388,0.3481717 0.087596,0.9001376 0.3424598,0.307248 C 8.2868997,7.4006689 8.0354112,7.3105271 7.9447917,7.2086569 Z M 18.537904,10.788343 c 0.515602,0.449563 0.724471,1.100647 1.015105,1.69801 0.432444,0.22706 0.176451,0.574294 0.236694,0.866076 0.602124,0.52717 -0.609744,0.246405 -0.462675,-0.328728 -0.09823,-0.66798 -0.527289,-1.113873 -0.877704,-1.596963 -0.02759,-0.255724 -0.301861,-0.54738 0.08859,-0.638377 z"
     style="fill:url(#linearGradient1341);fill-opacity:1;stroke-width:0.37498"
     id="path1308" />
</svg>
