<?xml version="1.0" encoding="UTF-8" standalone="no"?>
<!-- Created with Inkscape (http://www.inkscape.org/) -->

<svg
   width="22"
   height="22"
   viewBox="0 0 22 22"
   version="1.1"
   id="svg433"
   inkscape:version="1.2.2 (1:1.2.2+202305151914+b0a8486541)"
   sodipodi:docname="configure.svg"
   xmlns:inkscape="http://www.inkscape.org/namespaces/inkscape"
   xmlns:sodipodi="http://sodipodi.sourceforge.net/DTD/sodipodi-0.dtd"
   xmlns="http://www.w3.org/2000/svg"
   xmlns:svg="http://www.w3.org/2000/svg">
  <sodipodi:namedview
     id="namedview435"
     pagecolor="#ffffff"
     bordercolor="#000000"
     borderopacity="0.25"
     inkscape:showpageshadow="2"
     inkscape:pageopacity="0.0"
     inkscape:pagecheckerboard="0"
     inkscape:deskcolor="#d1d1d1"
     inkscape:document-units="px"
     showgrid="false"
     inkscape:zoom="37.727273"
     inkscape:cx="9.926506"
     inkscape:cy="11"
     inkscape:window-width="1920"
     inkscape:window-height="1008"
     inkscape:window-x="0"
     inkscape:window-y="0"
     inkscape:window-maximized="1"
     inkscape:current-layer="svg433" />
  <defs
     id="defs430">
    <style
       id="current-color-scheme"
       type="text/css">
         .ColorScheme-Text {
         color:#363636;}
      </style>
  </defs>
  <path
     id="path1255"
     style="clip-rule:evenodd;fill:currentColor;fill-opacity:1;fill-rule:evenodd;stroke-width:2;stroke-linecap:round;stroke-linejoin:round;-inkscape-stroke:none"
     class="ColorScheme-Text"
     d="M 10.447266 2 C 9.8531687 1.9999882 9.2823397 2.2351323 8.8632812 2.65625 C 8.4467538 3.0747577 8.2129806 3.6442614 8.2128906 4.234375 C 8.2040031 4.850611 7.7156654 5.3348462 7.0996094 5.3359375 C 6.9163823 5.3336537 6.7376782 5.281035 6.5800781 5.1875 C 6.5771481 5.186 6.5751856 5.1850335 6.5722656 5.1835938 C 5.5054887 4.5723203 4.1294198 4.9444224 3.515625 6.0097656 L 2.9355469 6.9628906 C 2.9332969 6.9665206 2.9299844 6.9709204 2.9277344 6.9746094 C 2.3146572 8.0386361 2.6826111 9.4138557 3.7441406 10.03125 L 3.7460938 10.033203 C 4.0924363 10.23309 4.3046875 10.600143 4.3046875 11 C 4.3046875 11.399981 4.0924894 11.766784 3.7460938 11.966797 C 2.684744 12.580771 2.3149071 13.953634 2.9277344 15.015625 C 2.9277332 15.016376 2.9277332 15.018731 2.9277344 15.019531 L 3.4785156 15.964844 L 3.4804688 15.96875 C 3.7696925 16.488888 4.2535966 16.872481 4.8261719 17.035156 C 5.3997594 17.198246 6.0150734 17.125576 6.5351562 16.833984 C 6.5374062 16.832484 6.5407188 16.831578 6.5429688 16.830078 C 6.7967552 16.681973 7.0990225 16.640804 7.3828125 16.716797 L 7.3847656 16.716797 C 7.6686119 16.792737 7.9087987 16.979373 8.0546875 17.234375 L 8.0585938 17.242188 C 8.1525537 17.400539 8.205119 17.579623 8.2070312 17.763672 C 8.2099564 18.992744 9.2174478 20 10.447266 20 L 11.548828 20 C 12.776306 20 13.783215 18.995033 13.789062 17.767578 C 13.789067 17.766078 13.789067 17.765172 13.789062 17.763672 C 13.787563 17.467551 13.90582 17.184094 14.115234 16.974609 C 14.323437 16.76641 14.604151 16.652243 14.898438 16.652344 C 15.084599 16.658444 15.269732 16.708764 15.431641 16.800781 C 16.49532 17.411742 17.869385 17.045039 18.486328 15.984375 L 19.060547 15.025391 C 19.062047 15.023091 19.062953 15.021731 19.064453 15.019531 C 19.363667 14.506031 19.446171 13.894722 19.292969 13.320312 C 19.139796 12.746085 18.765143 12.255341 18.25 11.958984 C 17.993962 11.811703 17.80662 11.56866 17.730469 11.283203 C 17.654349 10.997871 17.695059 10.694658 17.84375 10.439453 C 17.844506 10.437953 17.844903 10.437047 17.845703 10.435547 C 17.941593 10.268148 18.080524 10.129165 18.248047 10.033203 C 18.249547 10.032479 18.250453 10.03195 18.251953 10.03125 C 19.26342 9.4394027 19.631355 8.1613721 19.126953 7.1210938 C 19.114243 7.0694648 19.093036 7.0206315 19.066406 6.9746094 L 18.519531 6.0253906 C 17.905715 4.9601261 16.52972 4.5879891 15.462891 5.1992188 C 15.460591 5.2006687 15.459231 5.201635 15.457031 5.203125 C 15.203196 5.3526888 14.9006 5.3963465 14.615234 5.3222656 C 14.329961 5.2481959 14.086652 5.0628864 13.9375 4.8085938 L 13.9375 4.8066406 C 13.84362 4.6484302 13.791008 4.4692049 13.789062 4.2851562 C 13.800486 3.6873317 13.573413 3.1088545 13.15625 2.6796875 C 12.734063 2.2454074 12.154491 1.9997525 11.548828 2 L 10.447266 2 z M 10.447266 3 L 11.548828 3 C 11.884638 2.9998628 12.205659 3.1345095 12.439453 3.375 C 12.672527 3.6147808 12.798732 3.9432189 12.789062 4.2792969 L 12.794922 4.2792969 C 12.792922 4.2812469 12.791062 4.2831963 12.789062 4.2851562 L 12.789062 4.2949219 L 12.789062 4.3066406 C 12.790362 4.3079506 12.791669 4.3092469 12.792969 4.3105469 C 12.798769 4.6208655 12.902284 4.9132002 13.039062 5.1835938 C 13.047762 5.2279587 13.059559 5.2716789 13.074219 5.3144531 L 13.076172 5.3164062 C 13.359226 5.7975172 13.819764 6.1498948 14.363281 6.2910156 L 14.365234 6.2910156 C 14.906875 6.431625 15.483147 6.3477054 15.962891 6.0664062 L 15.964844 6.0644531 C 16.557426 5.7277256 17.313626 5.9341655 17.654297 6.5253906 L 18.189453 7.453125 C 18.199843 7.488946 18.212233 7.524157 18.226562 7.5585938 C 18.507096 8.1373675 18.309391 8.8369216 17.75 9.1660156 L 17.748047 9.1679688 C 17.42736 9.3521849 17.162188 9.6168517 16.978516 9.9375 C 16.69599 10.423488 16.621996 11.002628 16.765625 11.541016 C 16.910256 12.083173 17.267638 12.545618 17.751953 12.824219 C 18.034747 12.986907 18.243168 13.259622 18.328125 13.578125 C 18.412815 13.895668 18.367025 14.230983 18.201172 14.515625 L 17.628906 15.470703 C 17.626906 15.474003 17.624947 15.477169 17.623047 15.480469 C 17.280462 16.069445 16.520188 16.272766 15.929688 15.933594 C 15.928388 15.932924 15.927081 15.932341 15.925781 15.931641 C 15.62021 15.757967 15.279662 15.663747 14.931641 15.652344 C 14.920571 15.65216 14.909497 15.65216 14.898438 15.652344 C 14.343651 15.652153 13.805507 15.870279 13.408203 16.267578 C 13.012604 16.663309 12.78672 17.202944 12.789062 17.765625 C 12.784871 18.447425 12.229835 19 11.548828 19 L 10.447266 19 C 9.7637421 19 9.2086546 18.445057 9.2070312 17.761719 C 9.2070472 17.758419 9.2070472 17.755253 9.2070312 17.751953 C 9.2032631 17.389378 9.097892 17.038243 8.9179688 16.734375 C 8.640431 16.251651 8.1813675 15.8961 7.6425781 15.751953 L 7.640625 15.751953 C 7.1017942 15.607666 6.5248796 15.683093 6.0410156 15.964844 C 5.7532661 16.124059 5.4136941 16.163524 5.0996094 16.074219 C 4.7832336 15.984333 4.5137844 15.77065 4.3535156 15.482422 C 4.3140647 15.41179 4.2661882 15.346207 4.2109375 15.287109 L 4.2871094 15.367188 L 3.8046875 14.537109 C 3.8014975 14.530609 3.7982519 14.524048 3.7949219 14.517578 C 3.4555143 13.929389 3.6574669 13.172544 4.2460938 12.832031 C 4.8981829 12.45551 5.3046875 11.75283 5.3046875 11 C 5.3046875 10.25419 4.9052908 9.5588053 4.2636719 9.1796875 C 4.2578619 9.1750675 4.2520037 9.1705076 4.2460938 9.1660156 C 3.6558027 8.8226978 3.4540108 8.0662803 3.7949219 7.4746094 L 4.3691406 6.5292969 C 4.3731206 6.5228269 4.3770304 6.5163206 4.3808594 6.5097656 C 4.7222507 5.9172231 5.4811354 5.7109391 6.0742188 6.0507812 C 6.3764633 6.2293072 6.725277 6.3314421 7.0859375 6.3359375 C 7.0904975 6.3359687 7.0950474 6.3359687 7.0996094 6.3359375 C 8.2379412 6.3339207 9.1964838 5.3876054 9.2128906 4.25 C 9.2129313 4.24479 9.2129313 4.239583 9.2128906 4.234375 C 9.2129404 3.9082494 9.3434418 3.593193 9.5722656 3.3632812 C 9.8026117 3.1318035 10.117858 2.9999935 10.447266 3 z M 8.9179688 16.734375 L 8.9492188 16.787109 C 8.9405988 16.769919 8.931476 16.752988 8.921875 16.736328 C 8.9211386 16.735028 8.9187087 16.735754 8.9179688 16.734375 z M 11 7 C 8.7908653 7 7 8.7908654 7 11 C 7 13.209135 8.7908653 15 11 15 C 13.209135 15 15 13.209135 15 11 C 15 8.7908654 13.209135 7 11 7 z M 11 8 C 12.65685 8 14 9.3431487 14 11 C 14 12.65685 12.65685 14 11 14 C 9.3431494 14 8 12.65685 8 11 C 8 9.3431487 9.3431494 8 11 8 z " />
</svg>
