<?xml version="1.0" encoding="UTF-8" standalone="no"?>
<!-- Created with Inkscape (http://www.inkscape.org/) -->

<svg
   width="22"
   height="22"
   viewBox="0 0 22 22.000002"
   version="1.1"
   id="svg5"
   inkscape:version="1.2.2 (1:1.2.2+202305151914+b0a8486541)"
   sodipodi:docname="document-open-remote.svg"
   xmlns:inkscape="http://www.inkscape.org/namespaces/inkscape"
   xmlns:sodipodi="http://sodipodi.sourceforge.net/DTD/sodipodi-0.dtd"
   xmlns="http://www.w3.org/2000/svg"
   xmlns:svg="http://www.w3.org/2000/svg">
  <sodipodi:namedview
     id="namedview7"
     pagecolor="#ffffff"
     bordercolor="#000000"
     borderopacity="0.25"
     inkscape:showpageshadow="2"
     inkscape:pageopacity="0.0"
     inkscape:pagecheckerboard="0"
     inkscape:deskcolor="#d1d1d1"
     inkscape:document-units="px"
     showgrid="false"
     inkscape:zoom="36.636364"
     inkscape:cx="10.986352"
     inkscape:cy="11"
     inkscape:window-width="1920"
     inkscape:window-height="1008"
     inkscape:window-x="0"
     inkscape:window-y="0"
     inkscape:window-maximized="1"
     inkscape:current-layer="svg5" />
  <defs
     id="defs2">
    <style
       id="current-color-scheme"
       type="text/css">
         .ColorScheme-Text {
         color:#363636;}
      </style>
  </defs>
  <path
     id="path347"
     style="fill:currentColor;stroke-width:1.5;stroke-linecap:round;stroke-linejoin:round;paint-order:stroke fill markers"
     class="ColorScheme-Text"
     d="M 4 2 C 2.8920011 2 2 2.8920011 2 4 L 2 16 C 2 17.107999 2.8920011 18 4 18 L 10 18 L 10 19 L 2.5 19 C 2.2230003 19 2 19.223 2 19.5 C 2 19.777 2.2230003 20 2.5 20 L 19.5 20 C 19.777 20 20 19.777 20 19.5 C 20 19.223 19.777 19 19.5 19 L 11 19 L 11 18 L 18 18 C 19.107999 18 20 17.107999 20 16 L 20 6 C 20 4.8920011 19.107999 4 18 4 L 11 4 L 9 2 L 4 2 z M 4 3 L 8.5859375 3 L 10.082031 4.5039062 L 8.5859375 6 L 3 6 L 3 4 C 3 3.4460006 3.4460006 3 4 3 z M 11 5 L 18 5 C 18.553999 5 19 5.4460006 19 6 L 19 16 C 19 16.553999 18.553999 17 18 17 L 4 17 C 3.4460006 17 3 16.553999 3 16 L 3 7 L 9 7 L 11 5 z " />
</svg>
