<?xml version="1.0" encoding="UTF-8" standalone="no"?>
<!-- Created with Inkscape (http://www.inkscape.org/) -->

<svg
   width="16"
   height="16"
   viewBox="0 0 16 16"
   version="1.1"
   id="svg2112"
   inkscape:version="1.2.1 (9c6d41e410, 2022-07-14, custom)"
   sodipodi:docname="accessories-character-map.svg"
   xmlns:inkscape="http://www.inkscape.org/namespaces/inkscape"
   xmlns:sodipodi="http://sodipodi.sourceforge.net/DTD/sodipodi-0.dtd"
   xmlns:xlink="http://www.w3.org/1999/xlink"
   xmlns="http://www.w3.org/2000/svg"
   xmlns:svg="http://www.w3.org/2000/svg">
  <sodipodi:namedview
     id="namedview2114"
     pagecolor="#ffffff"
     bordercolor="#000000"
     borderopacity="0.25"
     inkscape:showpageshadow="2"
     inkscape:pageopacity="0.0"
     inkscape:pagecheckerboard="0"
     inkscape:deskcolor="#d1d1d1"
     inkscape:document-units="px"
     showgrid="false"
     inkscape:zoom="50.125"
     inkscape:cx="8"
     inkscape:cy="8"
     inkscape:window-width="1920"
     inkscape:window-height="1011"
     inkscape:window-x="0"
     inkscape:window-y="0"
     inkscape:window-maximized="1"
     inkscape:current-layer="svg2112" />
  <defs
     id="defs2109">
    <linearGradient
       inkscape:collect="always"
       xlink:href="#linearGradient23571"
       id="linearGradient23573"
       x1="0.5291667"
       y1="5.0270834"
       x2="16.404167"
       y2="19.138195"
       gradientUnits="userSpaceOnUse"
       gradientTransform="matrix(1.007874,0,0,1.1338582,-0.53333328,-5.7)" />
    <linearGradient
       inkscape:collect="always"
       id="linearGradient23571">
      <stop
         style="stop-color:#b6bec5;stop-opacity:1;"
         offset="0"
         id="stop23567" />
      <stop
         style="stop-color:#9ba3aa;stop-opacity:1"
         offset="1"
         id="stop23569" />
    </linearGradient>
  </defs>
  <rect
     style="fill:url(#linearGradient23573);fill-opacity:1;stroke-width:0.282842;stroke-linejoin:round"
     id="rect858"
     width="16"
     height="16"
     x="0"
     y="0"
     ry="2" />
  <rect
     style="opacity:0.2;fill:#000000;fill-opacity:1;stroke-width:0.375;stroke-linecap:round;stroke-linejoin:round"
     id="rect883"
     width="14"
     height="14"
     x="1"
     y="2"
     ry="1" />
  <rect
     style="fill:#edeef0;fill-opacity:1;stroke-width:0.375;stroke-linecap:round;stroke-linejoin:round"
     id="rect415"
     width="14"
     height="14"
     x="1"
     y="1"
     ry="1" />
  <path
     id="path1523-0"
     style="fill:#666666;fill-opacity:1;stroke-width:2;stroke-linecap:round;stroke-linejoin:round"
     d="M 8,2 7,4 H 8 L 10,2 Z M 7.5,5 C 5.8358687,5 4.6931748,5.449484 4.2304688,6.615234 L 5.1308594,7.064453 C 5.4255831,6.206087 6.219257,6 7.5,6 9.156848,6 10,6.343151 10,8 V 9.267578 C 9.705815,9.097389 9.364308,9 9,9 H 6.5 C 5.1150054,9 4,10.115004 4,11.5 4,12.884996 5.1150054,14 6.5,14 H 8 c 0.684583,0 1.425837,-0.272059 2,-0.714844 V 14 h 1 V 11.5 11 8 C 11,5.7908676 9.709133,5 7.5,5 Z m -1,5 H 9 c 0.552283,0 1,0.447717 1,1 v 0.5 C 10,12.330996 8.830996,13 8,13 H 6.5 C 5.6690028,13 5,12.330996 5,11.5 5,10.669004 5.6690028,10 6.5,10 Z" />
</svg>
