<?xml version="1.0" encoding="UTF-8" standalone="no"?>
<!-- Created with Inkscape (http://www.inkscape.org/) -->

<svg
   width="16"
   height="16"
   viewBox="0 0 16 16"
   version="1.1"
   id="svg5"
   inkscape:version="1.2.1 (9c6d41e410, 2022-07-14, custom)"
   sodipodi:docname="calligrasheets.svg"
   xmlns:inkscape="http://www.inkscape.org/namespaces/inkscape"
   xmlns:sodipodi="http://sodipodi.sourceforge.net/DTD/sodipodi-0.dtd"
   xmlns="http://www.w3.org/2000/svg"
   xmlns:svg="http://www.w3.org/2000/svg">
  <sodipodi:namedview
     id="namedview7"
     pagecolor="#ffffff"
     bordercolor="#000000"
     borderopacity="0.25"
     inkscape:showpageshadow="2"
     inkscape:pageopacity="0.0"
     inkscape:pagecheckerboard="0"
     inkscape:deskcolor="#d1d1d1"
     inkscape:document-units="px"
     showgrid="false"
     inkscape:zoom="50.625"
     inkscape:cx="8"
     inkscape:cy="8"
     inkscape:window-width="1920"
     inkscape:window-height="1012"
     inkscape:window-x="0"
     inkscape:window-y="0"
     inkscape:window-maximized="1"
     inkscape:current-layer="svg5" />
  <defs
     id="defs2" />
  <rect
     style="fill:#26c55c;stroke-linecap:round;stroke-linejoin:round"
     id="rect439"
     width="15"
     height="10"
     x="0"
     y="4"
     ry="1" />
  <path
     id="rect234"
     style="fill:#248c43;fill-opacity:1;stroke-linecap:round;stroke-linejoin:round"
     d="m 0,5 v 5 H 5 V 5 Z m 5,5 v 5 h 5 v -5 z" />
  <path
     id="rect396"
     style="fill:#32ae58;fill-opacity:1;stroke-linecap:round;stroke-linejoin:round"
     d="m 5,5 v 5 h 5 V 5 Z m 5,5 v 5 h 4 c 0.553998,0 1,-0.446002 1,-1 v -4 z" />
  <path
     id="rect400"
     style="fill:#27733e;fill-opacity:1;stroke-linecap:round;stroke-linejoin:round"
     d="m 0,10 v 4 c 0,0.553999 0.44600055,1 1,1 h 4 v -5 z" />
  <path
     id="rect441"
     style="fill:#0faf3d;fill-opacity:1;stroke-linecap:round;stroke-linejoin:round"
     d="m 1,2 h 13 c 0.554,0 1,0.446 1,1 V 5 H 0 V 3 C 0,2.446 0.446,2 1,2 Z"
     sodipodi:nodetypes="sssccss" />
</svg>
