<?xml version="1.0" encoding="UTF-8" standalone="no"?>
<!-- Created with Inkscape (http://www.inkscape.org/) -->

<svg
   width="16"
   height="16"
   viewBox="0 0 16 16"
   version="1.1"
   id="svg5"
   inkscape:version="1.4.2 (ebf0e940d0, 2025-05-08)"
   sodipodi:docname="cities-skylines-2.svg"
   xmlns:inkscape="http://www.inkscape.org/namespaces/inkscape"
   xmlns:sodipodi="http://sodipodi.sourceforge.net/DTD/sodipodi-0.dtd"
   xmlns:xlink="http://www.w3.org/1999/xlink"
   xmlns="http://www.w3.org/2000/svg"
   xmlns:svg="http://www.w3.org/2000/svg">
  <sodipodi:namedview
     id="namedview7"
     pagecolor="#ffffff"
     bordercolor="#000000"
     borderopacity="0.25"
     inkscape:showpageshadow="2"
     inkscape:pageopacity="0.0"
     inkscape:pagecheckerboard="0"
     inkscape:deskcolor="#d1d1d1"
     inkscape:document-units="px"
     showgrid="false"
     inkscape:zoom="49.9375"
     inkscape:cx="7.9899875"
     inkscape:cy="8"
     inkscape:window-width="1920"
     inkscape:window-height="1011"
     inkscape:window-x="0"
     inkscape:window-y="0"
     inkscape:window-maximized="1"
     inkscape:current-layer="svg5" />
  <defs
     id="defs2">
    <linearGradient
       id="linearGradient1"
       inkscape:collect="always">
      <stop
         style="stop-color:#185eee;stop-opacity:1;"
         offset="0"
         id="stop1" />
      <stop
         style="stop-color:#18c8ee;stop-opacity:1;"
         offset="1"
         id="stop2" />
    </linearGradient>
    <linearGradient
       inkscape:collect="always"
       xlink:href="#linearGradient1"
       id="linearGradient4"
       x1="8"
       y1="0"
       x2="8"
       y2="16"
       gradientUnits="userSpaceOnUse" />
  </defs>
  <rect
     style="fill:url(#linearGradient4)"
     id="rect1"
     width="16"
     height="16"
     x="0"
     y="0"
     ry="2" />
  <path
     id="path1"
     style="fill:#ffffff"
     d="m 7.2481368,3.0000002 c -0.048437,0.026998 -0.096296,0.055033 -0.1445312,0.082031 -1.2303983,0.7071435 -2.4590553,1.4159034 -3.6894533,2.1230469 -0.04238,0.023998 -0.08531,0.048127 -0.123047,0.078125 -0.167006,0.1301896 -0.275642,0.3325856 -0.289063,0.5429688 v 0.1523437 1.484375 c 5.05e-4,0.053996 -3.25e-4,0.1081137 0.0098,0.1621094 0.01816,0.1234901 0.08049,0.2401255 0.173828,0.3242188 0.05348,0.051996 0.122277,0.08475 0.185547,0.1230468 0.439262,0.2555796 0.877144,0.5100454 1.316407,0.765625 0.06559,0.036997 0.130665,0.078084 0.197265,0.1132813 5.05e-4,-0.090993 -2.02e-4,-0.1808917 0,-0.2714844 -4.03e-4,-0.4903608 -7.06e-4,-0.9803424 0,-1.4707031 4e-4,-0.2308816 6.37e-4,-0.4605248 0.0019,-0.6914063 0.06458,-0.038997 0.130023,-0.075984 0.195312,-0.1132812 0.723929,-0.4136669 1.447844,-0.8288206 2.1718749,-1.2421875 0,-0.7208423 5.045e-4,-1.4413671 0,-2.1621094 z m 0.5019531,0.00195 c -6.026e-4,0.720295 -0.00175,1.4418209 -0.00195,2.1621125 1.3828728,0.787437 2.7674171,1.5737911 4.1503911,2.3613281 0.0333,0.017999 0.06429,0.039689 0.09961,0.054687 V 5.8828127 c 8.07e-4,-0.050996 3.91e-4,-0.1038009 -0.01172,-0.1542969 C 11.957156,5.5549294 11.864129,5.393088 11.728606,5.2792971 11.655951,5.2163022 11.56866,5.1753495 11.486418,5.1269533 10.536147,4.5857966 9.5851266,4.0449632 8.6348556,3.5039064 8.3402627,3.3366577 8.0450796,3.1687122 7.7500899,3.0019533 Z m 2.3652351,4.044925 c 0.0012,7.191e-4 0.0027,0.00123 0.0039,0.00195 v -0.00195 z m 0.0039,0.00195 c -4.78e-4,0.065289 10e-5,0.1296412 0,0.1953125 5.04e-4,0.4917607 -0.0012,0.9848018 -0.002,1.4765625 -1.01e-4,0.2541796 1.01e-4,0.5074391 0,0.7617188 -0.7895694,0.451267 -1.579466,0.902154 -2.3690882,1.353519 3.027e-4,0.720741 8.43e-4,1.44332 0.00195,2.164062 0.081737,-0.046 0.1640538,-0.09558 0.2460938,-0.142578 1.178429,-0.677445 2.3566274,-1.353804 3.5351564,-2.03125 0.06156,-0.036 0.124591,-0.06848 0.179688,-0.113281 0.140063,-0.110791 0.237679,-0.27288 0.271484,-0.447266 0.02018,-0.09499 0.01462,-0.191017 0.01563,-0.2871092 -1.01e-4,-0.4801616 -1.01e-4,-0.9613446 0,-1.4414062 -5.04e-4,-0.054996 -0.0016,-0.1109201 -0.01172,-0.1660156 C 11.963205,8.2125066 11.865203,8.0668686 11.726653,7.9843752 11.190645,7.6724209 10.655637,7.3600898 10.119231,7.0488283 Z M 3.0000893,8.4199221 c -2.01e-4,0.5552423 0,1.1108732 0,1.6660159 5.05e-4,0.032 0,0.06467 0,0.09766 0.01009,0.139089 0.05474,0.276134 0.134766,0.390625 0.06357,0.09199 0.148211,0.168513 0.246094,0.224609 1.288421,0.733341 2.576914,1.467831 3.8652344,2.201172 8.073e-4,-0.721042 -4.036e-4,-1.443021 0,-2.164062 C 6.9154003,10.646854 6.5850823,10.460069 6.2539963,10.271484 5.1993833,9.6709329 4.1445453,9.0711553 3.0899333,8.4707033 c -0.02967,-0.015681 -0.05831,-0.03683 -0.08984,-0.050781 z" />
</svg>
