<?xml version="1.0" encoding="UTF-8" standalone="no"?>
<!-- Created with Inkscape (http://www.inkscape.org/) -->

<svg
   width="16"
   height="16"
   viewBox="0 0 16 16.000001"
   version="1.1"
   id="svg5"
   inkscape:version="1.2.1 (9c6d41e410, 2022-07-14, custom)"
   sodipodi:docname="code-oss.svg"
   xmlns:inkscape="http://www.inkscape.org/namespaces/inkscape"
   xmlns:sodipodi="http://sodipodi.sourceforge.net/DTD/sodipodi-0.dtd"
   xmlns:xlink="http://www.w3.org/1999/xlink"
   xmlns="http://www.w3.org/2000/svg"
   xmlns:svg="http://www.w3.org/2000/svg">
  <sodipodi:namedview
     id="namedview7"
     pagecolor="#ffffff"
     bordercolor="#000000"
     borderopacity="0.25"
     inkscape:showpageshadow="2"
     inkscape:pageopacity="0.0"
     inkscape:pagecheckerboard="0"
     inkscape:deskcolor="#d1d1d1"
     inkscape:document-units="px"
     showgrid="false"
     inkscape:zoom="50.125"
     inkscape:cx="7.9900249"
     inkscape:cy="8"
     inkscape:window-width="1920"
     inkscape:window-height="1011"
     inkscape:window-x="0"
     inkscape:window-y="0"
     inkscape:window-maximized="1"
     inkscape:current-layer="svg5" />
  <defs
     id="defs2">
    <linearGradient
       inkscape:collect="always"
       id="linearGradient2687">
      <stop
         style="stop-color:#2861ad;stop-opacity:1;"
         offset="0"
         id="stop2683" />
      <stop
         style="stop-color:#548bbf;stop-opacity:1;"
         offset="1"
         id="stop2685" />
    </linearGradient>
    <linearGradient
       inkscape:collect="always"
       xlink:href="#linearGradient2687"
       id="linearGradient2689"
       x1="16"
       y1="13.5188"
       x2="8"
       y2="2.385673"
       gradientUnits="userSpaceOnUse"
       gradientTransform="matrix(1,0,0,1.2575084,0,-2.0000039)" />
    <linearGradient
       inkscape:collect="always"
       id="linearGradient3143">
      <stop
         style="stop-color:#d2d2d2;stop-opacity:1;"
         offset="0"
         id="stop3139" />
      <stop
         style="stop-color:#ffffff;stop-opacity:1"
         offset="1"
         id="stop3141" />
    </linearGradient>
    <linearGradient
       inkscape:collect="always"
       xlink:href="#linearGradient3143"
       id="linearGradient10004"
       x1="5"
       y1="15"
       x2="4"
       y2="1"
       gradientUnits="userSpaceOnUse" />
    <linearGradient
       inkscape:collect="always"
       xlink:href="#linearGradient3143"
       id="linearGradient10013"
       x1="13"
       y1="13"
       x2="7"
       y2="3"
       gradientUnits="userSpaceOnUse" />
  </defs>
  <rect
     style="fill:url(#linearGradient2689);fill-opacity:1;stroke-width:1.12139;stroke-linecap:round;stroke-linejoin:round"
     id="rect234"
     width="16"
     height="14"
     x="0"
     y="1"
     ry="1" />
  <path
     id="rect5831"
     style="fill:url(#linearGradient10013);fill-opacity:1;stroke-linecap:round;stroke-linejoin:round"
     d="M 7.5 3 C 7.2230003 3 7 3.2230003 7 3.5 C 7 3.7769997 7.2230003 4 7.5 4 L 10.5 4 C 10.777 4 11 3.7769997 11 3.5 C 11 3.2230003 10.777 3 10.5 3 L 7.5 3 z M 8.5 6 C 8.2230003 6 8 6.2230003 8 6.5 C 8 6.7769997 8.2230003 7 8.5 7 L 12.5 7 C 12.777 7 13 6.7769997 13 6.5 C 13 6.2230003 12.777 6 12.5 6 L 8.5 6 z M 8.5 9 C 8.2230003 9 8 9.2230003 8 9.5 C 8 9.7769997 8.2230003 10 8.5 10 L 12.5 10 C 12.777 10 13 9.7769997 13 9.5 C 13 9.2230003 12.777 9 12.5 9 L 8.5 9 z M 7.5 12 C 7.2230003 12 7 12.223 7 12.5 C 7 12.777 7.2230003 13 7.5 13 L 10.5 13 C 10.777 13 11 12.777 11 12.5 C 11 12.223 10.777 12 10.5 12 L 7.5 12 z " />
  <rect
     style="opacity:0.2;fill:#000000;fill-opacity:1;stroke-linecap:round;stroke-linejoin:round"
     id="rect9469"
     width="5"
     height="14"
     x="0"
     y="1"
     ry="1" />
  <rect
     style="fill:url(#linearGradient10004);fill-opacity:1;stroke-width:1.08012;stroke-linecap:round;stroke-linejoin:round"
     id="rect5829"
     width="1"
     height="14"
     x="4"
     y="1" />
</svg>
