<?xml version="1.0" encoding="UTF-8" standalone="no"?>
<svg
   width="16"
   height="16"
   version="1.1"
   viewBox="0 0 16 16"
   id="svg6"
   sodipodi:docname="disk-utility.svg"
   inkscape:version="1.2.1 (9c6d41e410, 2022-07-14, custom)"
   xmlns:inkscape="http://www.inkscape.org/namespaces/inkscape"
   xmlns:sodipodi="http://sodipodi.sourceforge.net/DTD/sodipodi-0.dtd"
   xmlns:xlink="http://www.w3.org/1999/xlink"
   xmlns="http://www.w3.org/2000/svg"
   xmlns:svg="http://www.w3.org/2000/svg"
   xmlns:rdf="http://www.w3.org/1999/02/22-rdf-syntax-ns#"
   xmlns:cc="http://creativecommons.org/ns#"
   xmlns:dc="http://purl.org/dc/elements/1.1/">
  <defs
     id="defs10">
    <linearGradient
       inkscape:collect="always"
       id="linearGradient58462">
      <stop
         style="stop-color:#636363;stop-opacity:1;"
         offset="0"
         id="stop58458" />
      <stop
         style="stop-color:#ababab;stop-opacity:0.99607843"
         offset="1"
         id="stop58460" />
    </linearGradient>
    <linearGradient
       inkscape:collect="always"
       id="linearGradient50927">
      <stop
         style="stop-color:#000000;stop-opacity:1;"
         offset="0"
         id="stop50923" />
      <stop
         style="stop-color:#000000;stop-opacity:0;"
         offset="1"
         id="stop50925" />
    </linearGradient>
    <linearGradient
       inkscape:collect="always"
       id="linearGradient50337">
      <stop
         style="stop-color:#ffffff;stop-opacity:1;"
         offset="0"
         id="stop50333" />
      <stop
         style="stop-color:#ffffff;stop-opacity:0;"
         offset="1"
         id="stop50335" />
    </linearGradient>
    <linearGradient
       inkscape:collect="always"
       id="linearGradient48004">
      <stop
         style="stop-color:#ffffff;stop-opacity:0"
         offset="0"
         id="stop48000" />
      <stop
         style="stop-color:#ffffff;stop-opacity:1"
         offset="0.50032598"
         id="stop48328" />
      <stop
         style="stop-color:#ffffff;stop-opacity:0;"
         offset="1"
         id="stop48002" />
    </linearGradient>
    <linearGradient
       inkscape:collect="always"
       id="linearGradient10484">
      <stop
         style="stop-color:#2e2e2e;stop-opacity:1;"
         offset="0"
         id="stop10480" />
      <stop
         style="stop-color:#616161;stop-opacity:1"
         offset="1"
         id="stop10482" />
    </linearGradient>
    <linearGradient
       inkscape:collect="always"
       xlink:href="#linearGradient10484"
       id="linearGradient10486"
       x1="13.155968"
       y1="11.966485"
       x2="13.170794"
       y2="17.182577"
       gradientUnits="userSpaceOnUse"
       gradientTransform="matrix(0.94286806,0,0,0.95857181,2.5956583,-4.4707344)" />
    <linearGradient
       inkscape:collect="always"
       xlink:href="#linearGradient48004"
       id="linearGradient48006"
       x1="0.54178363"
       y1="10.597012"
       x2="3.0651259"
       y2="13.265047"
       gradientUnits="userSpaceOnUse"
       gradientTransform="matrix(1.0798864,0,0,1.0798864,-1.1428565,-1.3571432)" />
    <radialGradient
       inkscape:collect="always"
       xlink:href="#linearGradient50337"
       id="radialGradient50339"
       cx="3.5557096"
       cy="10.338881"
       fx="3.5557096"
       fy="10.338881"
       r="0.66144532"
       gradientUnits="userSpaceOnUse"
       gradientTransform="matrix(1.5118408,0,0,1.5118408,-2.2999998,-5.3999972)" />
    <linearGradient
       inkscape:collect="always"
       xlink:href="#linearGradient58462"
       id="linearGradient58464"
       x1="9.5248117"
       y1="8.3342104"
       x2="9.5248108"
       y2="12.56746"
       gradientUnits="userSpaceOnUse"
       gradientTransform="matrix(1.0798864,0,0,1.0798864,-1.1428565,-1.3571432)" />
    <linearGradient
       inkscape:collect="always"
       xlink:href="#linearGradient48004"
       id="linearGradient71108"
       gradientUnits="userSpaceOnUse"
       x1="0.54178363"
       y1="10.597012"
       x2="3.0651259"
       y2="13.265047"
       gradientTransform="matrix(-1.0798864,0,0,1.0798864,17.142857,-1.3571432)" />
    <filter
       inkscape:collect="always"
       style="color-interpolation-filters:sRGB"
       id="filter2559"
       x="-0.36000001"
       y="-0.36000001"
       width="1.72"
       height="1.72">
      <feGaussianBlur
         inkscape:collect="always"
         stdDeviation="0.07937344"
         id="feGaussianBlur2561" />
    </filter>
    <linearGradient
       inkscape:collect="always"
       xlink:href="#linearGradient50927"
       id="linearGradient4726"
       x1="4.7766676"
       y1="1.7313582"
       x2="3.7360072"
       y2="2.4238026"
       gradientUnits="userSpaceOnUse"
       gradientTransform="scale(3.779602)" />
    <linearGradient
       inkscape:collect="always"
       xlink:href="#linearGradient50927"
       id="linearGradient5426"
       gradientUnits="userSpaceOnUse"
       x1="4.7766676"
       y1="1.7313582"
       x2="3.7360072"
       y2="2.4238026"
       gradientTransform="matrix(-3.779602,0,0,3.779602,15.999999,0)" />
    <linearGradient
       inkscape:collect="always"
       xlink:href="#linearGradient6060"
       id="linearGradient6062"
       x1="1.0583334"
       y1="1.0583338"
       x2="15.345835"
       y2="13.229167"
       gradientUnits="userSpaceOnUse"
       gradientTransform="matrix(0.47244094,0,0,0.47244094,7.999997,8.0045136)" />
    <linearGradient
       inkscape:collect="always"
       id="linearGradient6060">
      <stop
         style="stop-color:#8a8f97;stop-opacity:1;"
         offset="0"
         id="stop6056" />
      <stop
         style="stop-color:#8a8f97;stop-opacity:1"
         offset="0.14573747"
         id="stop6576" />
      <stop
         style="stop-color:#616e7a;stop-opacity:1"
         offset="0.89999998"
         id="stop6770" />
      <stop
         style="stop-color:#616e7a;stop-opacity:1"
         offset="1"
         id="stop6058" />
    </linearGradient>
    <linearGradient
       inkscape:collect="always"
       xlink:href="#linearGradient7024"
       id="linearGradient7026"
       x1="14.634075"
       y1="13.653037"
       x2="4.0507412"
       y2="3.0697033"
       gradientUnits="userSpaceOnUse"
       gradientTransform="matrix(0.41994753,0,0,0.41994753,8.076675,8.4889079)" />
    <linearGradient
       inkscape:collect="always"
       id="linearGradient7024">
      <stop
         style="stop-color:#ffffff;stop-opacity:1;"
         offset="0"
         id="stop7020" />
      <stop
         style="stop-color:#f0f0f0;stop-opacity:1"
         offset="0.25"
         id="stop7732" />
      <stop
         style="stop-color:#cccccc;stop-opacity:1"
         offset="1"
         id="stop7022" />
    </linearGradient>
    <linearGradient
       inkscape:collect="always"
       xlink:href="#linearGradient8250"
       id="linearGradient8252"
       x1="5.458415"
       y1="4.8895097"
       x2="12.337581"
       y2="11.768677"
       gradientUnits="userSpaceOnUse"
       gradientTransform="matrix(0.31496063,0,0,0.31496063,9.1141445,9.2935713)" />
    <linearGradient
       inkscape:collect="always"
       id="linearGradient8250">
      <stop
         style="stop-color:#0568ba;stop-opacity:1;"
         offset="0"
         id="stop8246" />
      <stop
         style="stop-color:#0568ba;stop-opacity:1"
         offset="0.23999999"
         id="stop9054" />
      <stop
         style="stop-color:#0f4c8a;stop-opacity:1"
         offset="0.80000001"
         id="stop8830" />
      <stop
         style="stop-color:#0f4c8f;stop-opacity:1"
         offset="1"
         id="stop8248" />
    </linearGradient>
  </defs>
  <sodipodi:namedview
     id="namedview8"
     pagecolor="#ffffff"
     bordercolor="#666666"
     borderopacity="1.0"
     inkscape:pageshadow="2"
     inkscape:pageopacity="0.0"
     inkscape:pagecheckerboard="0"
     showgrid="false"
     inkscape:zoom="50.5625"
     inkscape:cx="7.9901112"
     inkscape:cy="8"
     inkscape:window-width="1920"
     inkscape:window-height="1012"
     inkscape:window-x="0"
     inkscape:window-y="0"
     inkscape:window-maximized="1"
     inkscape:current-layer="svg6"
     showguides="false"
     inkscape:showpageshadow="2"
     inkscape:deskcolor="#d1d1d1" />
  <metadata
     id="metadata2">
    <rdf:RDF>
      <cc:Work
         rdf:about="">
        <dc:format>image/svg+xml</dc:format>
        <dc:type
           rdf:resource="http://purl.org/dc/dcmitype/StillImage" />
      </cc:Work>
    </rdf:RDF>
  </metadata>
  <path
     id="rect4218"
     style="fill:#e1e3e6;stroke-width:1;stroke-linejoin:round"
     d="M 3.4500001,4.0000003 H 12.65 c 0.277,0 0.500513,0.2667983 0.65,0.5000001 l 2.499999,3.8999994 H 0.20000002 L 2.7,4.5000004 C 2.8494875,4.266799 3.173,4.0000003 3.4500001,4.0000003 Z"
     sodipodi:nodetypes="sssccss" />
  <path
     id="rect4218-3"
     style="opacity:0.3;fill:url(#linearGradient4726);fill-opacity:1;stroke-width:1;stroke-linejoin:round"
     d="M 3.4500001,4.0000003 H 12.65 c 0.277,0 0.500513,0.2667983 0.65,0.5000001 l 2.499999,3.8999994 H 0.19999991 L 2.7,4.5000004 C 2.8494875,4.266799 3.173,4.0000003 3.4500001,4.0000003 Z"
     sodipodi:nodetypes="sssccss" />
  <path
     id="rect4218-3-2"
     style="opacity:0.3;fill:url(#linearGradient5426);fill-opacity:1;stroke-width:1;stroke-linejoin:round"
     d="M 12.549999,3.9999999 H 3.3499989 c -0.2769995,0 -0.5005123,0.2667983 -0.6499997,0.5000002 L 0.19999991,8.3999998 H 15.799999 L 13.299999,4.5 c -0.149487,-0.2332014 -0.473,-0.5000001 -0.75,-0.5000001 z"
     sodipodi:nodetypes="sssccss" />
  <path
     id="rect849"
     style="fill:url(#linearGradient58464);fill-opacity:1;stroke-width:0.571427;stroke-linecap:round;stroke-linejoin:round;stroke-dasharray:6.85714, 0.571427"
     d="M 1,8 C 0.446,8 0,8.4460002 0,9.0000003 V 11.785156 12 c 0,0.554 0.446,1 1,1 h 14 c 0.554,0 1,-0.446 1,-1 V 11.785156 9.0000003 C 16,8.4460002 15.554,8 15,8 Z"
     sodipodi:nodetypes="sccssssccss" />
  <path
     id="rect849-5"
     style="opacity:0.4;fill:url(#linearGradient48006);fill-opacity:1;stroke-width:0.571427;stroke-linecap:round;stroke-linejoin:round;stroke-dasharray:6.85714, 0.571427"
     d="M 1,8 C 0.446,8 0,8.4460002 0,9.0000003 V 11.785156 12 c 0,0.554 0.446,1 1,1 h 14 c 0.554,0 1,-0.446 1,-1 V 11.785156 9.0000003 C 16,8.4460002 15.554,8 15,8 Z"
     sodipodi:nodetypes="sccssssccss" />
  <path
     id="rect849-5-8"
     style="opacity:0.4;fill:url(#linearGradient71108);fill-opacity:1;stroke-width:0.571427;stroke-linecap:round;stroke-linejoin:round;stroke-dasharray:6.85714, 0.571427"
     d="M 1,8 C 0.446,8 0,8.4460002 0,9.0000003 V 11.785156 12 c 0,0.554 0.446,1 1,1 h 14 c 0.554,0 1,-0.446 1,-1 V 11.785156 9.0000003 C 16,8.4460002 15.554,8 15,8 Z"
     sodipodi:nodetypes="sccssssccss" />
  <path
     id="rect1094"
     style="fill:url(#linearGradient10486);stroke-width:0.503061;stroke-linecap:round;stroke-linejoin:round;stroke-dasharray:6.03678, 0.503061"
     d="M 0.99999993,8.0000004 V 11.5 c 0,0.277 0.22300027,0.5 0.50000017,0.5 H 14.500001 C 14.777,12 15,11.777 15,11.5 V 8.0000004 Z"
     sodipodi:nodetypes="csssscc" />
  <circle
     style="opacity:1;fill:#12ff12;fill-opacity:1;stroke-width:0.229;stroke-linecap:round;stroke-linejoin:round;stroke-dasharray:2.748, 0.229;filter:url(#filter2559)"
     id="path25907"
     cx="0.92602342"
     cy="1.5874689"
     r="0.26457813"
     transform="matrix(3.779602,0,0,3.779602,0,4)" />
  <circle
     style="fill:#12ff12;fill-opacity:1;stroke-width:0.799998;stroke-linecap:round;stroke-linejoin:round;stroke-dasharray:9.6, 0.799998"
     id="path30449"
     cx="3.5"
     cy="10.000001"
     r="1" />
  <circle
     style="opacity:0.7;fill:url(#radialGradient50339);fill-opacity:1;stroke-width:0.799998;stroke-linecap:round;stroke-linejoin:round;stroke-dasharray:9.6, 0.799998"
     id="path50091"
     cx="3.5"
     cy="10.000001"
     r="1" />
  <path
     id="path5884"
     style="fill:url(#linearGradient6062);fill-opacity:1;stroke-width:0.125"
     d="M 10.756833,8.203 C 10.231541,8.3752179 9.7476474,8.6544475 9.3356895,9.0230683 9.5605525,9.4731594 9.5447845,10.006007 9.2936995,10.442013 9.0414275,10.870982 8.59283,11.146909 8.09619,11.178585 8.03552,11.449804 8.00328,11.726609 8,12.004513 c 0.0038,0.278037 0.03647,0.554924 0.09765,0.826172 0.496061,0.03209 0.9440015,0.307865 1.1960445,0.736329 0.250193,0.434183 0.26705,0.964628 0.04492,1.413818 0.4101839,0.366558 0.8915665,0.644565 1.4140615,0.816651 0.278044,-0.417081 0.74605,-0.66771 1.247314,-0.667969 0.501477,-4e-5 0.969802,0.250522 1.248047,0.667725 0.525175,-0.172818 1.008821,-0.452631 1.42041,-0.821778 -0.222383,-0.446565 -0.208199,-0.974468 0.03784,-1.408447 0.251985,-0.428559 0.699935,-0.704425 1.196045,-0.736573 0.06116,-0.271168 0.09389,-0.547973 0.09766,-0.825928 -0.0033,-0.277904 -0.03552,-0.554708 -0.09619,-0.825928 -0.49664,-0.03168 -0.945239,-0.307603 -1.197509,-0.736572 C 14.458961,10.006202 14.445588,9.4756694 14.670653,9.027951 14.257272,8.656823 13.771116,8.3758722 13.243163,8.203 12.967898,8.6221152 12.501415,8.875969 11.999999,8.8795135 11.498584,8.8759735 11.032102,8.6221152 10.756835,8.203 Z"
     sodipodi:nodetypes="ccccccccccccccccccccc" />
  <circle
     style="fill:url(#linearGradient7026);fill-opacity:1;stroke-width:0.111111"
     id="path6952"
     cx="11.999996"
     cy="12.000242"
     r="2" />
  <circle
     style="fill:url(#linearGradient8252);fill-opacity:1;stroke-width:0.0833327"
     id="path8010"
     cx="11.999996"
     cy="12.000242"
     r="1" />
</svg>
