<?xml version="1.0" encoding="UTF-8" standalone="no"?>
<!-- Created with Inkscape (http://www.inkscape.org/) -->

<svg
   width="16"
   height="16"
   viewBox="0 0 16 16"
   version="1.1"
   id="svg5"
   inkscape:version="1.4.4 (dcaf3e7d9e, 2026-05-05)"
   sodipodi:docname="forza-horizon-6.svg"
   xmlns:inkscape="http://www.inkscape.org/namespaces/inkscape"
   xmlns:sodipodi="http://sodipodi.sourceforge.net/DTD/sodipodi-0.dtd"
   xmlns:xlink="http://www.w3.org/1999/xlink"
   xmlns="http://www.w3.org/2000/svg"
   xmlns:svg="http://www.w3.org/2000/svg">
  <sodipodi:namedview
     id="namedview7"
     pagecolor="#ffffff"
     bordercolor="#000000"
     borderopacity="0.25"
     inkscape:showpageshadow="2"
     inkscape:pageopacity="0.0"
     inkscape:pagecheckerboard="0"
     inkscape:deskcolor="#d1d1d1"
     inkscape:document-units="px"
     showgrid="false"
     inkscape:zoom="36.1875"
     inkscape:cx="8"
     inkscape:cy="8"
     inkscape:window-width="1440"
     inkscape:window-height="831"
     inkscape:window-x="0"
     inkscape:window-y="0"
     inkscape:window-maximized="1"
     inkscape:current-layer="svg5" />
  <defs
     id="defs2">
    <linearGradient
       id="linearGradient5"
       inkscape:collect="always">
      <stop
         style="stop-color:#e3536d;stop-opacity:1;"
         offset="0"
         id="stop5" />
      <stop
         style="stop-color:#e9788d;stop-opacity:1;"
         offset="1"
         id="stop6" />
    </linearGradient>
    <linearGradient
       id="linearGradient3"
       inkscape:collect="always">
      <stop
         style="stop-color:#dfdfdf;stop-opacity:1;"
         offset="0"
         id="stop3" />
      <stop
         style="stop-color:#eeeeee;stop-opacity:1;"
         offset="1"
         id="stop4" />
    </linearGradient>
    <linearGradient
       inkscape:collect="always"
       xlink:href="#linearGradient3"
       id="linearGradient4"
       x1="16"
       y1="16"
       x2="0"
       y2="0"
       gradientUnits="userSpaceOnUse" />
    <linearGradient
       inkscape:collect="always"
       xlink:href="#linearGradient5"
       id="linearGradient6"
       x1="16"
       y1="16"
       x2="0"
       y2="0"
       gradientUnits="userSpaceOnUse" />
  </defs>
  <rect
     style="fill:url(#linearGradient4);fill-opacity:1"
     id="rect1"
     width="16"
     height="16"
     x="0"
     y="0"
     ry="2" />
  <path
     id="rect9720"
     style="fill:#191919;stroke-width:1.5;stroke-linecap:round;stroke-linejoin:round;fill-opacity:1"
     d="M 8,5 C 6.338006,5 5.456586,5.401953 5,7 H 8 7 12.5 C 14.161994,7 14.854161,5.907022 15,5 Z M 1,8 6.035156,9.931641 5.25,11.5 7,11 8,8 H 7 Z M 9,8 8,10.75 9,10.5 10,8 Z M 11,8 10,10.25 11,10 12,8 Z M 3.75,10.148 2,13 4,12 4.89655,10.4865 Z"
     sodipodi:nodetypes="scccscscccccccccccccccccccccc" />
  <path
     id="rect2"
     style="fill:url(#linearGradient6);fill-opacity:1"
     d="M 0 14 C 0 15.108 0.892 16 2 16 L 14 16 C 15.108 16 16 15.108 16 14 L 0 14 z " />
</svg>
