<?xml version="1.0" encoding="UTF-8" standalone="no"?>
<!-- Created with Inkscape (http://www.inkscape.org/) -->

<svg
   width="16"
   height="16"
   viewBox="0 0 16 16"
   version="1.1"
   id="svg5"
   inkscape:version="1.2.2 (1:1.2.2+202305151914+b0a8486541)"
   sodipodi:docname="github-desktop.svg"
   xmlns:inkscape="http://www.inkscape.org/namespaces/inkscape"
   xmlns:sodipodi="http://sodipodi.sourceforge.net/DTD/sodipodi-0.dtd"
   xmlns:xlink="http://www.w3.org/1999/xlink"
   xmlns="http://www.w3.org/2000/svg"
   xmlns:svg="http://www.w3.org/2000/svg">
  <sodipodi:namedview
     id="namedview7"
     pagecolor="#ffffff"
     bordercolor="#666666"
     borderopacity="1.0"
     inkscape:pageshadow="2"
     inkscape:pageopacity="0.0"
     inkscape:pagecheckerboard="0"
     inkscape:document-units="px"
     showgrid="false"
     units="px"
     height="48px"
     inkscape:zoom="51.875"
     inkscape:cx="7.9903614"
     inkscape:cy="8"
     inkscape:window-width="1920"
     inkscape:window-height="1008"
     inkscape:window-x="0"
     inkscape:window-y="0"
     inkscape:window-maximized="1"
     inkscape:current-layer="svg5"
     inkscape:lockguides="true"
     showguides="false"
     inkscape:showpageshadow="2"
     inkscape:deskcolor="#d1d1d1" />
  <defs
     id="defs2">
    <linearGradient
       inkscape:collect="always"
       id="linearGradient1736">
      <stop
         style="stop-color:#a578e1;stop-opacity:1;"
         offset="0"
         id="stop1732" />
      <stop
         style="stop-color:#5046a0;stop-opacity:1;"
         offset="1"
         id="stop1734" />
    </linearGradient>
    <linearGradient
       inkscape:collect="always"
       xlink:href="#linearGradient1736"
       id="linearGradient14331"
       x1="10.054167"
       y1="7.9375"
       x2="38.837044"
       y2="38.861431"
       gradientUnits="userSpaceOnUse"
       gradientTransform="matrix(0.38095238,0,0,0.38095238,-1.1428571,-1.1428571)" />
  </defs>
  <circle
     style="fill:url(#linearGradient14331);fill-opacity:1.0;stroke-width:0.761905;stroke-linecap:round"
     id="path14323"
     cx="8"
     cy="8"
     r="8" />
  <path
     d="M 11.661953,3.111328 C 11.426004,3.100329 10.75964,3.5516311 9.7166404,4.2695311 9.1248647,4.0928893 8.567132,3.9952999 8,3.9999999 7.497033,4.0040999 6.791544,4.0886679 6.162,4.2695311 5.1193,3.5516312 4.5864,3.1021813 4.3495,3.1132811 4.2705,3.1168911 4.232312,3.1289061 4.232312,3.1289061 3.835914,4.1470062 4.0869,5.299228 4.162002,5.486328 3.696302,6.003029 3.009768,7.0636925 3.009768,7.8710937 c 0,2.8346003 1.401078,3.8679873 3.017578,4.0546873 -0.20782,0.18483 -0.396741,0.512505 -0.462891,0.990235 -0.41475,0.18936 -1.469739,0.515085 -2.119141,-0.615235 0,0 -0.384514,-0.711482 -1.115234,-0.763672 0,0 -0.709858,-0.0074 -0.04883,0.451172 0,0 0.477404,0.227412 0.808594,1.082031 0,0 0.426122,1.337505 2.451172,0.890626 v 1.652343 C 6.31544,15.861677 7.140969,16 8,16 c 0.6920845,0 1.3603484,-0.09605 2,-0.259766 v -0.730468 c 0.0018,-0.34411 0.0039,-0.88563 0.0039,-1.71875 0,-0.68981 -0.06517,-1.142694 -0.3261716,-1.371094 C 11.29914,11.736912 13,10.712914 13,7.8710937 13,7.0636917 12.319878,6.003129 11.853359,5.486328 c 0.07464,-0.187099 0.325058,-1.341315 -0.07227,-2.359375 -10e-7,0 -0.03829,-0.011925 -0.117187,-0.015625 z"
     style="fill:#ffffff"
     id="path363" />
</svg>
