<?xml version="1.0" encoding="UTF-8" standalone="no"?>
<!-- Created with Inkscape (http://www.inkscape.org/) -->

<svg
   width="16"
   height="16"
   viewBox="0 0 16 16"
   version="1.1"
   id="svg1659"
   inkscape:version="1.2.2 (1:1.2.2+202305151914+b0a8486541)"
   sodipodi:docname="gnome-sudoku.svg"
   xmlns:inkscape="http://www.inkscape.org/namespaces/inkscape"
   xmlns:sodipodi="http://sodipodi.sourceforge.net/DTD/sodipodi-0.dtd"
   xmlns="http://www.w3.org/2000/svg"
   xmlns:svg="http://www.w3.org/2000/svg">
  <sodipodi:namedview
     id="namedview1661"
     pagecolor="#ffffff"
     bordercolor="#000000"
     borderopacity="0.25"
     inkscape:showpageshadow="2"
     inkscape:pageopacity="0.0"
     inkscape:pagecheckerboard="0"
     inkscape:deskcolor="#d1d1d1"
     inkscape:document-units="px"
     showgrid="false"
     inkscape:zoom="50.375"
     inkscape:cx="7.9900744"
     inkscape:cy="8"
     inkscape:window-width="1920"
     inkscape:window-height="1008"
     inkscape:window-x="0"
     inkscape:window-y="0"
     inkscape:window-maximized="1"
     inkscape:current-layer="svg1659"
     showguides="false" />
  <defs
     id="defs1656" />
  <rect
     style="fill:#e1d3bb;fill-opacity:1;stroke-width:0.428571;stroke-linecap:round;stroke-linejoin:round"
     id="rect2238"
     width="15"
     height="15"
     x="1"
     y="1"
     ry="1" />
  <path
     id="rect2309"
     style="fill:#efe8db;fill-opacity:1;stroke-width:0.5;stroke-linecap:round;stroke-linejoin:round"
     d="m 11,1 v 5 h 5 V 2 C 16,1.4460006 15.553999,1 15,1 Z"
     sodipodi:nodetypes="cccssc" />
  <path
     id="rect2311"
     style="fill:#d8c4a4;fill-opacity:1;stroke-width:0.5;stroke-linecap:round;stroke-linejoin:round"
     d="M 2,1 C 1.4460009,1 1,1.4460011 1,2 V 6 H 6 V 1 Z m 4,5 v 5 h 5 V 6 Z m 5,5 v 5 h 4 c 0.553999,0 1,-0.446001 1,-1 v -4 z"
     sodipodi:nodetypes="sscccscccccccsscc" />
  <path
     id="rect2520"
     style="fill:#c7af87;fill-opacity:1;stroke-width:0.833333;stroke-linecap:round;stroke-linejoin:round"
     d="m 1.0000003,6 v 5 H 6.0000006 V 6 Z m 5.0000003,5 v 5 H 11 v -5 z" />
  <path
     id="rect2550"
     style="fill:#bda070;fill-opacity:1;stroke-width:0.5;stroke-linecap:round;stroke-linejoin:round"
     d="m 1.0000006,11 v 4 c 0,0.553999 0.4460005,1 0.9999999,1 h 4.0000001 v -5 z"
     sodipodi:nodetypes="cssccc" />
</svg>
