<?xml version="1.0" encoding="UTF-8" standalone="no"?>
<!-- Created with Inkscape (http://www.inkscape.org/) -->

<svg
   width="16"
   height="16"
   viewBox="0 0 16 16"
   version="1.1"
   id="svg5"
   inkscape:version="1.2.1 (9c6d41e410, 2022-07-14, custom)"
   sodipodi:docname="hwinfo.svg"
   xmlns:inkscape="http://www.inkscape.org/namespaces/inkscape"
   xmlns:sodipodi="http://sodipodi.sourceforge.net/DTD/sodipodi-0.dtd"
   xmlns:xlink="http://www.w3.org/1999/xlink"
   xmlns="http://www.w3.org/2000/svg"
   xmlns:svg="http://www.w3.org/2000/svg">
  <sodipodi:namedview
     id="namedview7"
     pagecolor="#ffffff"
     bordercolor="#666666"
     borderopacity="1.0"
     inkscape:pageshadow="2"
     inkscape:pageopacity="0.0"
     inkscape:pagecheckerboard="0"
     inkscape:document-units="px"
     showgrid="false"
     units="px"
     height="64px"
     inkscape:zoom="50.125"
     inkscape:cx="7.9900249"
     inkscape:cy="8"
     inkscape:window-width="1920"
     inkscape:window-height="1011"
     inkscape:window-x="0"
     inkscape:window-y="0"
     inkscape:window-maximized="1"
     inkscape:current-layer="svg5"
     showguides="true"
     inkscape:showpageshadow="2"
     inkscape:deskcolor="#d1d1d1" />
  <defs
     id="defs2">
    <linearGradient
       inkscape:collect="always"
       id="linearGradient1192">
      <stop
         style="stop-color:#189ae1;stop-opacity:1;"
         offset="0"
         id="stop1188" />
      <stop
         style="stop-color:#037cd6;stop-opacity:0.99607843"
         offset="1"
         id="stop1190" />
    </linearGradient>
    <linearGradient
       inkscape:collect="always"
       id="linearGradient6911">
      <stop
         style="stop-color:#50b10e;stop-opacity:1;"
         offset="0"
         id="stop6907" />
      <stop
         style="stop-color:#18840f;stop-opacity:1"
         offset="1"
         id="stop6909" />
    </linearGradient>
    <linearGradient
       inkscape:collect="always"
       xlink:href="#linearGradient1192"
       id="linearGradient2262"
       x1="3.7041669"
       y1="0.79375005"
       x2="3.7041669"
       y2="6.6145835"
       gradientUnits="userSpaceOnUse"
       gradientTransform="matrix(2.0615604,0,0,2.0615604,0.3636363,0.3636363)" />
    <linearGradient
       inkscape:collect="always"
       xlink:href="#linearGradient6911"
       id="linearGradient885"
       x1="3"
       y1="5.1091437"
       x2="19"
       y2="21.109144"
       gradientUnits="userSpaceOnUse"
       gradientTransform="translate(-3,-5.1091437)" />
  </defs>
  <rect
     style="opacity:1;fill:url(#linearGradient885);fill-opacity:1;stroke-linecap:round"
     id="rect300"
     width="16"
     height="16"
     x="0"
     y="0"
     ry="2" />
  <rect
     style="fill:url(#linearGradient2262);fill-opacity:1;stroke-width:0.321682;stroke-linecap:round;stroke-linejoin:round"
     id="rect1776"
     width="12"
     height="12"
     x="2"
     y="2"
     ry="1" />
  <path
     id="rect2368"
     style="opacity:1;fill:#edcb33;fill-opacity:1;stroke-width:1.99999;stroke-linecap:round;stroke-linejoin:round"
     d="m 15,13 v 2.000003 h -2 z"
     sodipodi:nodetypes="cccc" />
  <path
     id="path929"
     style="fill:#ffffff;stroke-width:0.14182;stroke-linecap:round;stroke-linejoin:round"
     d="m 8,3 c -0.5522849,-10e-8 -1.0000002,0.4477153 -0.9999998,1.0000002 0,0.5522846 0.4477152,1 0.9999998,1 0.552285,4e-7 1.0000003,-0.4477151 1.0000003,-1 C 9.0000007,3.4477152 8.552285,2.9999997 8,3 Z m 0,4.0000004 c -0.5539997,0 -0.9999998,0.4460001 -0.9999998,0.9999998 V 12 c 0,0.554 0.4460001,1 0.9999998,1 0.5540002,0 1.0000003,-0.446 1.0000003,-1 V 8.0000002 C 9.0000003,7.4460005 8.5540002,7.0000004 8,7.0000004 Z"
     sodipodi:nodetypes="ssssssssssss" />
  <path
     id="rect2038"
     style="opacity:0.2;fill:#000000;stroke-width:1;stroke-linecap:round;stroke-linejoin:round"
     d="M 3,2 C 2.446001,2 2,2.4460011 2,3 v 10 c 0,0.553999 0.446001,1 1,1 h 10 c 0.553998,0 1,-0.446001 1,-1 V 3 C 14,2.4460011 13.553998,2 13,2 Z M 3,3 H 13 V 13 H 3 Z"
     sodipodi:nodetypes="sssssssssccccc" />
</svg>
