<?xml version="1.0" encoding="UTF-8" standalone="no"?>
<!-- Created with Inkscape (http://www.inkscape.org/) -->

<svg
   width="16"
   height="16"
   viewBox="0 0 16 16"
   version="1.1"
   id="svg5"
   inkscape:version="1.2.1 (9c6d41e410, 2022-07-14, custom)"
   sodipodi:docname="kdeconnect.svg"
   xmlns:inkscape="http://www.inkscape.org/namespaces/inkscape"
   xmlns:sodipodi="http://sodipodi.sourceforge.net/DTD/sodipodi-0.dtd"
   xmlns:xlink="http://www.w3.org/1999/xlink"
   xmlns="http://www.w3.org/2000/svg"
   xmlns:svg="http://www.w3.org/2000/svg">
  <sodipodi:namedview
     id="namedview7"
     pagecolor="#ffffff"
     bordercolor="#666666"
     borderopacity="1.0"
     inkscape:pageshadow="2"
     inkscape:pageopacity="0.0"
     inkscape:pagecheckerboard="0"
     inkscape:document-units="px"
     showgrid="false"
     units="px"
     inkscape:zoom="51.6875"
     inkscape:cx="6.3458283"
     inkscape:cy="8.0386941"
     inkscape:window-width="1920"
     inkscape:window-height="1029"
     inkscape:window-x="0"
     inkscape:window-y="0"
     inkscape:window-maximized="1"
     inkscape:current-layer="svg5"
     showguides="false"
     inkscape:showpageshadow="2"
     inkscape:deskcolor="#d1d1d1" />
  <defs
     id="defs2">
    <linearGradient
       inkscape:collect="always"
       id="linearGradient2301">
      <stop
         style="stop-color:#3fe3e7;stop-opacity:1;"
         offset="0"
         id="stop2297" />
      <stop
         style="stop-color:#066bbc;stop-opacity:1"
         offset="1"
         id="stop2299" />
    </linearGradient>
    <linearGradient
       inkscape:collect="always"
       id="linearGradient1116">
      <stop
         style="stop-color:#555a5f;stop-opacity:1;"
         offset="0"
         id="stop1112" />
      <stop
         style="stop-color:#4b4f53;stop-opacity:1"
         offset="1"
         id="stop1114" />
    </linearGradient>
    <linearGradient
       inkscape:collect="always"
       xlink:href="#linearGradient2301"
       id="linearGradient1715"
       x1="1.3229166"
       y1="2.6458333"
       x2="9.7895851"
       y2="17.462503"
       gradientUnits="userSpaceOnUse"
       gradientTransform="matrix(0.94488167,0,0,0.94488167,2.7499997,-1.4999995)" />
    <linearGradient
       inkscape:collect="always"
       xlink:href="#linearGradient1116"
       id="linearGradient1561"
       x1="3.9034491"
       y1="5.7253838"
       x2="10.518032"
       y2="5.7253838"
       gradientUnits="userSpaceOnUse"
       gradientTransform="matrix(1.5118109,0,0,1.5118109,-2.9012769,-0.65569745)" />
  </defs>
  <rect
     style="fill:url(#linearGradient1561);fill-opacity:1;stroke-width:0.2;stroke-linejoin:round"
     id="rect1553"
     width="9.999999"
     height="16"
     x="3"
     y="0"
     ry="1" />
  <path
     id="rect1539"
     style="opacity:1;fill:url(#linearGradient1715);stroke-width:0.749998;stroke-linecap:round;stroke-linejoin:round"
     d="M 4.4999992,0.99999989 H 11.499999 C 11.777001,0.99999989 12,1.2229999 12,1.4999998 V 14.499999 c 0,0.277002 -0.223,0.5 -0.500001,0.5 H 4.4999992 c -0.2770016,0 -0.4999998,-0.222999 -0.4999998,-0.5 V 1.4999998 c 0,-0.277 0.2229997,-0.49999991 0.4999998,-0.49999991 z"
     sodipodi:nodetypes="sssssssss" />
  <path
     id="path1218"
     style="fill:#ffffff;fill-opacity:1;stroke-width:0.64286;stroke-linecap:round;stroke-linejoin:round"
     d="m 6.4999999,4.9999998 a 0.42857141,0.42857141 0 0 0 -0.42857,0.4285701 0.42857141,0.42857141 0 0 0 0.42857,0.42857 A 0.42857141,0.42857141 0 0 0 6.92857,5.4285699 0.42857141,0.42857141 0 0 0 6.4999999,4.9999998 Z m 2.625,0 L 8.3666291,5.7583703 9.484933,6.8749995 8.3666291,7.9933038 9.1249999,8.7499996 10.243304,7.6333704 11,6.8749995 10.243304,6.1183038 Z M 5.6428568,7.1428565 A 0.64285708,0.64285708 0 0 0 5,7.7857137 0.64285708,0.64285708 0 0 0 5.6428568,8.4285712 0.64285708,0.64285708 0 0 0 6.2857143,7.7857137 0.64285708,0.64285708 0 0 0 5.6428568,7.1428565 Z M 7.3571427,9.285714 A 0.8571429,0.8571429 0 0 0 6.4999999,10.142856 0.8571429,0.8571429 0 0 0 7.3571427,10.999999 0.8571429,0.8571429 0 0 0 8.2142858,10.142856 0.8571429,0.8571429 0 0 0 7.3571427,9.285714 Z" />
</svg>
