<?xml version="1.0" encoding="UTF-8" standalone="no"?>
<!-- Created with Inkscape (http://www.inkscape.org/) -->

<svg
   width="16"
   height="16"
   viewBox="0 0 16 16"
   version="1.1"
   id="svg5"
   inkscape:version="1.3.2 (1:1.3.2+202311252150+091e20ef0f)"
   sodipodi:docname="libreoffice-base.svg"
   xmlns:inkscape="http://www.inkscape.org/namespaces/inkscape"
   xmlns:sodipodi="http://sodipodi.sourceforge.net/DTD/sodipodi-0.dtd"
   xmlns:xlink="http://www.w3.org/1999/xlink"
   xmlns="http://www.w3.org/2000/svg"
   xmlns:svg="http://www.w3.org/2000/svg">
  <sodipodi:namedview
     id="namedview7"
     pagecolor="#ffffff"
     bordercolor="#666666"
     borderopacity="1.0"
     inkscape:pageshadow="2"
     inkscape:pageopacity="0.0"
     inkscape:pagecheckerboard="0"
     inkscape:document-units="px"
     showgrid="false"
     units="px"
     height="64px"
     inkscape:zoom="50.6875"
     inkscape:cx="8"
     inkscape:cy="8"
     inkscape:window-width="1920"
     inkscape:window-height="1008"
     inkscape:window-x="0"
     inkscape:window-y="0"
     inkscape:window-maximized="1"
     inkscape:current-layer="svg5"
     inkscape:showpageshadow="2"
     inkscape:deskcolor="#d1d1d1"
     showguides="false" />
  <defs
     id="defs2">
    <linearGradient
       inkscape:collect="always"
       id="linearGradient3723">
      <stop
         style="stop-color:#541a7c;stop-opacity:1"
         offset="0"
         id="stop3719" />
      <stop
         style="stop-color:#702da1;stop-opacity:1"
         offset="1"
         id="stop3721" />
    </linearGradient>
    <linearGradient
       inkscape:collect="always"
       id="linearGradient3529">
      <stop
         style="stop-color:#b67cd7;stop-opacity:1"
         offset="0"
         id="stop3525" />
      <stop
         style="stop-color:#8536bd;stop-opacity:1"
         offset="1"
         id="stop3527" />
    </linearGradient>
    <linearGradient
       inkscape:collect="always"
       xlink:href="#linearGradient3723"
       id="linearGradient3212"
       x1="3.6990757"
       y1="1.0482963"
       x2="2.6458333"
       y2="0"
       gradientUnits="userSpaceOnUse"
       gradientTransform="scale(3.7795276)" />
    <linearGradient
       inkscape:collect="always"
       xlink:href="#linearGradient3529"
       id="linearGradient3634"
       x1="2"
       y1="-1.3228346e-07"
       x2="14"
       y2="16"
       gradientUnits="userSpaceOnUse" />
  </defs>
  <path
     id="rect857"
     style="fill:url(#linearGradient3634);fill-opacity:1;stroke-width:0.999999"
     d="M 2.9999999,0 C 2.4460001,0 2,0.44600005 2,1 v 14 c 0,0.554 0.4460001,1 0.9999999,1 H 13 c 0.554,0 1,-0.446 1,-1 V 6.9999999 C 13.993537,6.2042559 13.633517,5.670734 13.300781,5.300781 L 8.6992187,0.69921876 C 8.3292661,0.36648435 7.7957438,0.00646938 6.9999998,0 Z"
     sodipodi:nodetypes="ssssssccccs" />
  <path
     d="M 9.9999998,0 C 9.3933403,0.00499276 9.5532082,0.56714593 9.6992174,0.69921876 L 13.300781,4.3007811 C 13.432853,4.4467918 13.995011,4.6066621 14,3.9999988 V 1 C 14,0.44600005 13.554,0 13,0 Z"
     style="fill:url(#linearGradient3212);fill-opacity:1;stroke-width:0.999999"
     id="path3058" />
  <path
     id="path7673"
     style="fill:#ffffff;fill-opacity:1;stroke-width:0.070004"
     d="m 5,11.999999 v 1.5 c 0,0.552285 1.3431479,1 3,1 1.6568525,0 3,-0.447715 3,-1 2.31e-4,-0.0071 2.31e-4,-0.01433 0,-0.02148 v -1.47852 c 0,0.552284 -1.3431474,1 -3,1 -1.6568521,0 -3,-0.447716 -3,-1 z" />
  <path
     id="path4394"
     style="fill:#ffffff;fill-opacity:1;stroke-width:0.264583"
     d="m 5,9.4999992 v 1.4999998 c 0,0.552284 1.3431479,1 3,1 1.6568525,0 3,-0.447716 3,-1 2.31e-4,-0.0071 2.31e-4,-0.01433 0,-0.02148 V 9.4999992 c 0,0.5522838 -1.3431474,0.9999998 -3,0.9999998 -1.6568521,0 -3,-0.447716 -3,-0.9999998 z" />
  <path
     id="rect1449"
     style="fill:#ffffff;fill-opacity:1;stroke-width:0.999999"
     d="m 5,6.9999994 v 1.5 C 5,9.0522842 6.3431459,9.4999992 7.9999997,9.4999992 9.6568539,9.4999992 11,9.0522842 11,8.4999994 c 2.31e-4,-0.00714 2.31e-4,-0.014324 0,-0.021468 v -1.478532 z"
     sodipodi:nodetypes="csscccc" />
  <ellipse
     style="fill:#ffffff;fill-opacity:1;stroke-width:0.474342;stroke-linecap:round;stroke-linejoin:round"
     id="path9564"
     cx="7.9999995"
     cy="7"
     rx="3"
     ry="1.0000001" />
</svg>
