<?xml version="1.0" encoding="UTF-8" standalone="no"?>
<!-- Created with Inkscape (http://www.inkscape.org/) -->

<svg
   width="16"
   height="16"
   viewBox="0 0 16 16"
   version="1.1"
   id="svg5"
   inkscape:version="1.2.1 (9c6d41e410, 2022-07-14, custom)"
   sodipodi:docname="libreoffice-math.svg"
   xmlns:inkscape="http://www.inkscape.org/namespaces/inkscape"
   xmlns:sodipodi="http://sodipodi.sourceforge.net/DTD/sodipodi-0.dtd"
   xmlns:xlink="http://www.w3.org/1999/xlink"
   xmlns="http://www.w3.org/2000/svg"
   xmlns:svg="http://www.w3.org/2000/svg">
  <sodipodi:namedview
     id="namedview7"
     pagecolor="#ffffff"
     bordercolor="#666666"
     borderopacity="1.0"
     inkscape:pageshadow="2"
     inkscape:pageopacity="0.0"
     inkscape:pagecheckerboard="0"
     inkscape:document-units="px"
     showgrid="false"
     units="px"
     height="64px"
     inkscape:zoom="51.6875"
     inkscape:cx="7.9903265"
     inkscape:cy="8"
     inkscape:window-width="1920"
     inkscape:window-height="1029"
     inkscape:window-x="0"
     inkscape:window-y="0"
     inkscape:window-maximized="1"
     inkscape:current-layer="svg5"
     inkscape:showpageshadow="2"
     inkscape:deskcolor="#d1d1d1" />
  <defs
     id="defs2">
    <linearGradient
       inkscape:collect="always"
       id="linearGradient3723">
      <stop
         style="stop-color:#3d4c65;stop-opacity:1"
         offset="0"
         id="stop3719" />
      <stop
         style="stop-color:#455572;stop-opacity:1"
         offset="1"
         id="stop3721" />
    </linearGradient>
    <linearGradient
       inkscape:collect="always"
       id="linearGradient3529">
      <stop
         style="stop-color:#526587;stop-opacity:1"
         offset="0"
         id="stop3525" />
      <stop
         style="stop-color:#445471;stop-opacity:1"
         offset="1"
         id="stop3527" />
    </linearGradient>
    <linearGradient
       inkscape:collect="always"
       xlink:href="#linearGradient3723"
       id="linearGradient3212"
       x1="3.6990757"
       y1="1.0482963"
       x2="2.6458333"
       y2="0"
       gradientUnits="userSpaceOnUse"
       gradientTransform="scale(3.7795276)" />
    <linearGradient
       inkscape:collect="always"
       xlink:href="#linearGradient3529"
       id="linearGradient3634"
       x1="2"
       y1="-1.3228346e-07"
       x2="14"
       y2="16"
       gradientUnits="userSpaceOnUse" />
  </defs>
  <path
     id="rect857"
     style="fill:url(#linearGradient3634);fill-opacity:1;stroke-width:0.999999"
     d="M 2.9999999,0 C 2.4460001,0 2,0.44600005 2,1 v 14 c 0,0.554 0.4460001,1 0.9999999,1 H 13 c 0.554,0 1,-0.446 1,-1 V 6.9999999 C 13.993537,6.2042559 13.633517,5.670734 13.300781,5.300781 L 8.6992187,0.69921876 C 8.3292661,0.36648435 7.7957438,0.00646938 6.9999998,0 Z"
     sodipodi:nodetypes="ssssssccccs" />
  <path
     d="M 9.9999998,0 C 9.3933403,0.00499276 9.5532082,0.56714593 9.6992174,0.69921876 L 13.300781,4.3007811 C 13.432853,4.4467918 13.995011,4.6066621 14,3.9999988 V 1 C 14,0.44600005 13.554,0 13,0 Z"
     style="fill:url(#linearGradient3212);fill-opacity:1;stroke-width:0.999999"
     id="path3058" />
  <path
     id="rect2728"
     style="fill:#fafafa;fill-opacity:1;stroke-width:0.999999"
     d="m 2.9999999,1.0000001 h 4.5 L 12.999999,6.5000002 V 15 H 2.9999999 Z"
     sodipodi:nodetypes="cccccc" />
  <path
     style="color:#000000;fill:#526587;fill-opacity:1;stroke:none;stroke-width:3.77953;stroke-linejoin:round;-inkscape-stroke:none"
     d="M 6.5034447,7.0000045 C 6.259915,6.9989798 6.0510625,7.1735434 6.008858,7.4133903 L 5.2559054,12 4.4439998,10.270182 3.5506891,10.720477 5.0492125,13.717524 c 0.2128328,0.442828 0.869856,0.345302 0.9448819,-0.140254 L 6.9242123,8.0000002 H 12.002953 V 7.0000045 Z"
     id="path1199"
     sodipodi:nodetypes="ccccccccccc" />
  <g
     id="g14804"
     transform="matrix(2.6725296,2.6725296,-2.6725296,2.6725296,22.684893,1.5718254)">
    <rect
       style="fill:#3d4c65;fill-opacity:1;stroke:none;stroke-width:0.264583;stroke-linecap:butt;stroke-linejoin:round;stroke-miterlimit:4;stroke-dasharray:none"
       id="rect7754"
       width="0.26458335"
       height="1.3229166"
       x="-0.83577478"
       y="3.5685468" />
    <rect
       style="fill:#455572;fill-opacity:1;stroke:none;stroke-width:0.264583;stroke-linecap:butt;stroke-linejoin:round;stroke-miterlimit:4;stroke-dasharray:none"
       id="rect12575"
       width="0.26458332"
       height="1.3229165"
       x="4.0977135"
       y="0.042024866"
       transform="rotate(90)" />
  </g>
</svg>
