<?xml version="1.0" encoding="UTF-8" standalone="no"?>
<!-- Created with Inkscape (http://www.inkscape.org/) -->

<svg
   width="16"
   height="16"
   viewBox="0 0 16 16"
   version="1.1"
   id="svg1"
   inkscape:version="1.3.2 (091e20ef0f, 2023-11-25, custom)"
   sodipodi:docname="lunarclient.svg"
   xmlns:inkscape="http://www.inkscape.org/namespaces/inkscape"
   xmlns:sodipodi="http://sodipodi.sourceforge.net/DTD/sodipodi-0.dtd"
   xmlns:xlink="http://www.w3.org/1999/xlink"
   xmlns="http://www.w3.org/2000/svg"
   xmlns:svg="http://www.w3.org/2000/svg">
  <sodipodi:namedview
     id="namedview1"
     pagecolor="#ffffff"
     bordercolor="#000000"
     borderopacity="0.25"
     inkscape:showpageshadow="2"
     inkscape:pageopacity="0.0"
     inkscape:pagecheckerboard="0"
     inkscape:deskcolor="#d1d1d1"
     inkscape:document-units="px"
     inkscape:zoom="50.125"
     inkscape:cx="8"
     inkscape:cy="8"
     inkscape:window-width="1920"
     inkscape:window-height="1012"
     inkscape:window-x="0"
     inkscape:window-y="0"
     inkscape:window-maximized="1"
     inkscape:current-layer="svg1" />
  <defs
     id="defs1">
    <linearGradient
       inkscape:collect="always"
       id="linearGradient1066">
      <stop
         style="stop-color:#555556;stop-opacity:1;"
         offset="0"
         id="stop1062" />
      <stop
         style="stop-color:#2d2d2d;stop-opacity:1;"
         offset="1"
         id="stop1064" />
    </linearGradient>
    <linearGradient
       inkscape:collect="always"
       xlink:href="#linearGradient1066"
       id="linearGradient3"
       x1="0"
       y1="0"
       x2="16"
       y2="16"
       gradientUnits="userSpaceOnUse" />
  </defs>
  <path
     d="M 8.0417752,6.8794711e-6 V 7.8704395e-4 C 7.716061,-0.00740871 7.3944258,0.0763967 7.1120877,0.24302687 L 1.8879122,3.3343035 C 1.3383998,3.6593579 0.99990965,4.2602045 0.99999991,4.9104173 v 6.1825537 c 1.8269e-4,0.649933 0.33863629,1.250416 0.88791229,1.575331 l 5.2241755,3.091278 c 0.5494263,0.325142 1.2263982,0.325142 1.7758245,0 L 14.112088,12.668302 C 14.661364,12.343387 14.999817,11.742904 15,11.092971 V 4.9104173 C 15.00009,4.2602046 14.6616,3.659358 14.112088,3.3343035 L 8.8879122,0.24302687 C 8.6301917,0.0906461 8.3392355,0.00708023 8.0417752,6.8794711e-6 Z"
     style="fill:url(#linearGradient3)"
     id="path1" />
  <path
     d="m 7.9140625,1.0075991 c -0.056225,0.00961 -0.1103921,0.028764 -0.1601563,0.056641 0,0 -1.379079,0.7778379 -2.7617187,1.6074219 C 4.3008676,3.0864536 3.6095496,3.5127374 3.0800781,3.8689272 2.8153424,4.0470221 2.59279,4.2060054 2.4199219,4.3474428 2.3334878,4.4181617 2.2588538,4.4833621 2.1894531,4.5603335 2.1200526,4.6373049 2,4.688328 2,4.9997866 v 5 H 3 V 5.1697085 C 3.019565,5.1519775 3.0243154,5.1441323 3.0527344,5.1208804 3.1806472,5.0162247 3.3877836,4.8677847 3.6386719,4.6990054 4.1404483,4.3614468 4.8241351,3.93929 5.5078125,3.5290835 6.7524231,2.782317 7.7860507,2.1988758 8,2.0779116 c 0.2139493,0.1209642 1.247576,0.7044054 2.492188,1.4511719 0.683677,0.4102065 1.367364,0.8323633 1.86914,1.1699219 0.250889,0.1687793 0.458025,0.3172195 0.585938,0.421875 0.02842,0.023253 0.03317,0.031097 0.05273,0.048828 v 4.8300782 h 1 v -5 C 14.000004,4.688328 13.879948,4.6373049 13.810547,4.5603335 13.741146,4.4833621 13.666512,4.4181617 13.580078,4.3474428 13.40721,4.2060054 13.184658,4.0470221 12.919922,3.8689272 12.39045,3.5127374 11.699132,3.0864536 11.007812,2.6716616 9.625172,1.8420776 8.2460938,1.0642397 8.2460938,1.0642397 8.145297,1.0075306 8.0279594,0.98751421 7.9140625,1.0075991 Z M 7.8046875,3.4978335 7.6992188,3.693146 7.5058594,3.7986147 7.6992188,3.9040835 7.8046875,4.099396 7.9121094,3.9040835 8.1054688,3.7986147 7.9121094,3.693146 Z M 6.2597656,4.0583804 C 4.8945046,4.6060114 3.9997622,5.9291785 4,7.4001772 4.0002088,9.3881006 5.6116865,10.999578 7.5996094,10.999787 9.070608,11.000025 10.393775,10.105282 10.941406,8.740021 10.514831,8.9114947 10.059359,8.9996719 9.599609,8.9997866 7.6116865,8.9995778 6.0002088,7.3881001 6,5.4001772 6.0001146,4.9404277 6.0882919,4.4849556 6.2597656,4.0583804 Z M 7.5996094,10.999787 H 2 v 0.222656 H 3.1992188 V 11.43924 H 2 v 0.222656 H 14 V 11.43924 H 12.800781 V 11.222443 H 14 V 10.999787 Z M 10.603516,5.0779116 10.498047,5.271271 10.304688,5.3786928 10.498047,5.4841616 10.603516,5.677521 10.710938,5.4841616 10.904297,5.3786928 10.710938,5.271271 Z M 7.3964844,5.4177554 7.2558594,5.6755678 6.9960938,5.8161928 7.2558594,5.958771 7.3964844,6.2165835 7.5390625,5.958771 7.796875,5.8161928 7.5390625,5.6755678 Z M 3.859375,5.5193178 3.7539062,5.7146304 3.5605469,5.8200991 3.7539062,5.9255678 3.859375,6.1189272 3.9667969,5.9255678 4.1601562,5.8200991 3.9667969,5.7146304 Z M 8.9609375,6.3005678 8.8554688,6.4958804 8.6621094,6.6013491 8.8554688,6.7068178 8.9609375,6.9021304 9.068359,6.7068178 9.261719,6.6013491 9.068359,6.4958804 Z M 11.5,6.8005678 11.287109,7.1872866 10.900391,7.4001772 11.287109,7.6111147 11.5,7.9997866 11.712891,7.6111147 12.099609,7.4001772 11.712891,7.1872866 Z M 9.400391,7.4001772 9.257813,7.6579897 9,7.8005678 9.257813,7.9411928 9.400391,8.1990054 9.541016,7.9411928 9.800781,7.8005678 9.541016,7.6579897 Z M 3.7128906,8.8122866 3.5,9.1990056 3.1113281,9.4118956 3.5,9.6247866 3.7128906,10.011506 3.9238281,9.6247866 4.3125,9.4118956 3.9238281,9.1990056 Z M 4,11.669709 v 0.220703 H 2.4003906 v 0.220703 h 2.4003906 v 0.21875 H 3.5996094 v 0.222656 h 8.8007816 v -0.222656 h -1.201172 v -0.21875 h 2.40039 v -0.220703 h -1.199218 v -0.220703 z m 2.4003906,0.890625 v 0.21875 H 6 v 0.222656 h 4 V 12.779084 H 9.599609 v -0.21875 z"
     style="fill:#ffffff"
     id="path2" />
</svg>
