<?xml version="1.0" encoding="UTF-8" standalone="no"?>
<!-- Created with Inkscape (http://www.inkscape.org/) -->

<svg
   width="16"
   height="16"
   viewBox="0 0 16 16"
   version="1.1"
   id="svg5"
   inkscape:version="1.2.1 (9c6d41e410, 2022-07-14, custom)"
   sodipodi:docname="microsoft-edge.svg"
   xmlns:inkscape="http://www.inkscape.org/namespaces/inkscape"
   xmlns:sodipodi="http://sodipodi.sourceforge.net/DTD/sodipodi-0.dtd"
   xmlns:xlink="http://www.w3.org/1999/xlink"
   xmlns="http://www.w3.org/2000/svg"
   xmlns:svg="http://www.w3.org/2000/svg">
  <sodipodi:namedview
     id="namedview7"
     pagecolor="#ffffff"
     bordercolor="#000000"
     borderopacity="0.25"
     inkscape:showpageshadow="2"
     inkscape:pageopacity="0.0"
     inkscape:pagecheckerboard="0"
     inkscape:deskcolor="#d1d1d1"
     inkscape:document-units="px"
     showgrid="false"
     inkscape:zoom="50.3125"
     inkscape:cx="7.9900621"
     inkscape:cy="8"
     inkscape:window-width="1920"
     inkscape:window-height="1007"
     inkscape:window-x="0"
     inkscape:window-y="0"
     inkscape:window-maximized="1"
     inkscape:current-layer="svg5" />
  <defs
     id="defs2">
    <linearGradient
       inkscape:collect="always"
       xlink:href="#linearGradient2180"
       id="linearGradient6538"
       x1="52.979992"
       y1="11.062179"
       x2="64.124176"
       y2="11.062179"
       gradientUnits="userSpaceOnUse"
       gradientTransform="translate(-49.310219)" />
    <linearGradient
       inkscape:collect="always"
       id="linearGradient2180">
      <stop
         style="stop-color:#0c59a4;stop-opacity:1;"
         offset="0"
         id="stop2176" />
      <stop
         style="stop-color:#114a8b;stop-opacity:1;"
         offset="1"
         id="stop2178" />
    </linearGradient>
    <radialGradient
       inkscape:collect="always"
       xlink:href="#linearGradient27818"
       id="radialGradient22002"
       cx="58.907425"
       cy="10.507384"
       fx="58.907425"
       fy="10.507384"
       r="5.5720921"
       gradientTransform="matrix(-0.01849023,1.0884935,-1.2375515,-0.02102229,24.629481,-52.795375)"
       gradientUnits="userSpaceOnUse" />
    <linearGradient
       inkscape:collect="always"
       id="linearGradient27818">
      <stop
         style="stop-color:#000000;stop-opacity:0;"
         offset="0.72000003"
         id="stop27812" />
      <stop
         style="stop-color:#000000;stop-opacity:0.5;"
         offset="0.94999999"
         id="stop27814" />
      <stop
         style="stop-color:#000000;stop-opacity:1"
         offset="1"
         id="stop27816" />
    </linearGradient>
    <linearGradient
       inkscape:collect="always"
       xlink:href="#linearGradient1748"
       id="linearGradient5078"
       x1="58.266792"
       y1="4.0557728"
       x2="51.794773"
       y2="13.788569"
       gradientUnits="userSpaceOnUse"
       gradientTransform="translate(-49.310219)" />
    <linearGradient
       inkscape:collect="always"
       id="linearGradient1748">
      <stop
         style="stop-color:#1b9ed2;stop-opacity:1;"
         offset="0"
         id="stop1744" />
      <stop
         style="stop-color:#1595df;stop-opacity:1;"
         offset="0.15000001"
         id="stop1752" />
      <stop
         style="stop-color:#0680df;stop-opacity:1;"
         offset="0.67000002"
         id="stop1754" />
      <stop
         style="stop-color:#0078d4;stop-opacity:1;"
         offset="1"
         id="stop1746" />
    </linearGradient>
    <radialGradient
       inkscape:collect="always"
       xlink:href="#linearGradient1360"
       id="radialGradient16878"
       cx="53.329948"
       cy="11.518138"
       fx="53.329948"
       fy="11.518138"
       r="5.2651467"
       gradientTransform="matrix(1.1921054,0.26962881,-0.3947838,1.745451,-54.922453,-22.73033)"
       gradientUnits="userSpaceOnUse" />
    <linearGradient
       inkscape:collect="always"
       id="linearGradient1360">
      <stop
         style="stop-color:#000000;stop-opacity:0;"
         offset="0.75"
         id="stop1356" />
      <stop
         style="stop-color:#000000;stop-opacity:0.49803922;"
         offset="0.94999999"
         id="stop1364" />
      <stop
         style="stop-color:#000000;stop-opacity:1;"
         offset="1"
         id="stop1358" />
    </linearGradient>
    <radialGradient
       inkscape:collect="always"
       xlink:href="#linearGradient1290"
       id="radialGradient6548"
       cx="60.962425"
       cy="7.331109"
       fx="60.962425"
       fy="7.331109"
       r="8"
       gradientTransform="matrix(-2.4048945,0.02462483,-0.01385136,-1.3527445,148.73814,11.090685)"
       gradientUnits="userSpaceOnUse" />
    <linearGradient
       inkscape:collect="always"
       id="linearGradient1290">
      <stop
         style="stop-color:#35c1f1;stop-opacity:1;"
         offset="0"
         id="stop1286" />
      <stop
         style="stop-color:#34c1ed;stop-opacity:1;"
         offset="0.1"
         id="stop1294" />
      <stop
         style="stop-color:#2fc2df;stop-opacity:1;"
         offset="0.23"
         id="stop1296" />
      <stop
         style="stop-color:#2bc3d2;stop-opacity:1;"
         offset="0.30000001"
         id="stop1298" />
      <stop
         style="stop-color:#36c752;stop-opacity:1;"
         offset="1"
         id="stop1288" />
    </linearGradient>
    <radialGradient
       inkscape:collect="always"
       xlink:href="#linearGradient1280"
       id="radialGradient27857"
       gradientUnits="userSpaceOnUse"
       gradientTransform="matrix(-0.74856001,0.1825412,-0.26413609,-1.0831623,52.346948,-2.7345446)"
       cx="50.600605"
       cy="1.8082892"
       fx="50.600605"
       fy="1.8082892"
       r="8" />
    <linearGradient
       inkscape:collect="always"
       id="linearGradient1280">
      <stop
         style="stop-color:#66eb6e;stop-opacity:1;"
         offset="0"
         id="stop1276" />
      <stop
         style="stop-color:#66eb6e;stop-opacity:0;"
         offset="1"
         id="stop1278" />
    </linearGradient>
  </defs>
  <path
     style="fill:url(#linearGradient6538);fill-opacity:1;stroke-width:1"
     class="cls-1"
     d="M 14.440972,11.906386 C 13.67434,12.660661 12.485116,13.039349 11.538653,13.044 8.581339,13.044 6.0052492,10.570401 6.0052492,7.9602948 6.0129292,7.2474378 6.4058028,6.5945408 7.0320604,6.2537588 4.3572286,6.3662356 3.669771,9.1531831 3.669771,10.785984 c 0,4.616584 4.2553582,5.084616 5.172177,5.084616 0.494344,0 1.239922,-0.143728 1.687394,-0.284944 l 0.08187,-0.02751 c 1.721919,-0.5952 3.189867,-1.758821 4.162239,-3.299347 0.13888,-0.218772 -0.105947,-0.478284 -0.33248,-0.352429 z"
     id="path2965"
     sodipodi:nodetypes="scccsscccss" />
  <path
     d="M 14.440972,11.906386 C 13.67434,12.660661 12.485116,13.039349 11.538653,13.044 8.581339,13.044 6.0052492,10.570401 6.0052492,7.9602948 6.0129292,7.2474374 6.4058028,6.5945405 7.0320604,6.2537587 4.3572286,6.366236 3.669771,9.1531831 3.669771,10.785984 c 0,4.616584 4.2553582,5.084616 5.172177,5.084616 0.494344,0 1.239922,-0.143728 1.687394,-0.284944 l 0.08187,-0.02751 c 1.721919,-0.5952 3.189867,-1.758821 4.162239,-3.299347 0.13888,-0.218772 -0.105947,-0.478284 -0.33248,-0.352429 z"
     style="opacity:0.35;fill:url(#radialGradient22002);fill-opacity:1;stroke-width:1"
     id="path20518" />
  <path
     style="fill:url(#linearGradient5078);fill-opacity:1;stroke-width:1"
     class="cls-3"
     d="M 6.3677676,15.085754 C 5.810342,14.739825 5.327259,14.286545 4.9466062,13.752268 3.0995662,11.222046 4.221603,7.6380068 7.0320604,6.2537588 c 0.1949872,-0.091859 0.5280928,-0.258074 0.9711886,-0.24995 0.632837,0.00459 1.327491,0.305234 1.706013,0.812338 0.252374,0.336923 0.39152,0.745119 0.397475,1.166019 0,-0.01312 1.428167,-4.9740129 -5.1001756,-4.9740129 -2.7435776,0 -4.99968617,2.603233 -4.99968617,4.8871548 -0.01088,1.2081644 0.2477168,2.4035613 0.7568272,3.4993043 C 2.4859486,15.068768 6.6868796,16.87134 10.536841,15.588154 9.21886,16.003652 7.5450412,15.820957 6.3733932,15.088253 Z"
     id="path2967"
     sodipodi:nodetypes="ccccccsccccc" />
  <path
     d="M 6.3677676,15.085754 C 5.810342,14.739825 5.327259,14.286545 4.9466062,13.752268 3.0995662,11.222046 4.221603,7.6380068 7.0320604,6.2537588 c 0.1949872,-0.091859 0.5280928,-0.258074 0.9711886,-0.24995 0.632837,0.00459 1.327491,0.305234 1.706013,0.812338 0.252374,0.336923 0.39152,0.745119 0.397475,1.166019 0,-0.01312 1.428167,-4.9740129 -5.1001756,-4.9740129 -2.7435776,0 -4.99968617,2.603233 -4.99968617,4.8871548 -0.01088,1.2081644 0.2477168,2.4035613 0.7568272,3.4993043 C 2.4859486,15.068768 6.6868796,16.87134 10.536841,15.588154 9.21886,16.003652 7.5450412,15.820957 6.3733932,15.088253 Z"
     style="opacity:0.4;fill:url(#radialGradient16878);fill-opacity:1;stroke-width:1"
     id="path15394" />
  <path
     style="fill:url(#radialGradient6548);fill-opacity:1;stroke-width:1"
     class="cls-5"
     d="m 9.719745,8.6620711 c -0.05063,0.06561 -0.206237,0.156219 -0.206237,0.35368 0,0.163093 0.10624,0.319936 0.294982,0.451785 0.898694,0.6248759 2.393247,0.5423919 2.397622,0.5423919 0.665912,-0.0016 1.319202,-0.1817839 1.891756,-0.5217719 1.175281,-0.686149 1.898968,-1.303737 1.901757,-2.6645102 C 16.015874,5.4232988 15.499656,4.4922339 15.290917,4.079815 13.966626,1.489705 11.108056,3.9839123e-8 7.9995004,3.9839123e-8 3.625059,-4.3196016e-4 0.06151683,3.5125208 3.2380093e-8,7.8859348 0.03000003,5.6026379 2.2998558,2.998375 4.9996878,2.998375 9,2.998375 11.24344,6.5764328 9.719748,8.6620711 Z"
     id="path2969"
     sodipodi:nodetypes="sscccccccsss" />
  <path
     d="m 9.719745,8.6620711 c -0.05063,0.06561 -0.206237,0.156219 -0.206237,0.35368 0,0.163093 0.10624,0.319936 0.294982,0.451785 0.898694,0.6248759 2.393247,0.5423919 2.397622,0.5423919 0.665912,-0.0016 1.319202,-0.1817839 1.891756,-0.5217719 1.175281,-0.686149 1.898968,-1.303737 1.901757,-2.6645102 C 16.015874,5.4232988 15.499656,4.4922339 15.290917,4.079815 13.966626,1.489705 11.108056,3.9839123e-8 7.9995004,3.9839123e-8 3.625059,-4.3196016e-4 0.06151683,3.5125208 3.2380093e-8,7.8859348 0.03000003,5.6026379 2.2998558,2.998375 4.9996878,2.998375 9,2.998375 11.24344,6.5764328 9.719748,8.6620711 Z"
     style="fill:url(#radialGradient27857);fill-opacity:1;stroke-width:1"
     id="path27828" />
</svg>
