<?xml version="1.0" encoding="UTF-8" standalone="no"?>
<!-- Created with Inkscape (http://www.inkscape.org/) -->

<svg
   width="16"
   height="16"
   viewBox="0 0 16 16"
   version="1.1"
   id="svg5"
   inkscape:version="1.2.1 (9c6d41e410, 2022-07-14, custom)"
   sodipodi:docname="ms-office.svg"
   xmlns:inkscape="http://www.inkscape.org/namespaces/inkscape"
   xmlns:sodipodi="http://sodipodi.sourceforge.net/DTD/sodipodi-0.dtd"
   xmlns:xlink="http://www.w3.org/1999/xlink"
   xmlns="http://www.w3.org/2000/svg"
   xmlns:svg="http://www.w3.org/2000/svg">
  <sodipodi:namedview
     id="namedview7"
     pagecolor="#ffffff"
     bordercolor="#000000"
     borderopacity="0.25"
     inkscape:showpageshadow="2"
     inkscape:pageopacity="0.0"
     inkscape:pagecheckerboard="0"
     inkscape:deskcolor="#d1d1d1"
     inkscape:document-units="px"
     showgrid="false"
     inkscape:zoom="50.125"
     inkscape:cx="7.9900249"
     inkscape:cy="8"
     inkscape:window-width="1920"
     inkscape:window-height="1011"
     inkscape:window-x="0"
     inkscape:window-y="0"
     inkscape:window-maximized="1"
     inkscape:current-layer="svg5" />
  <defs
     id="defs2">
    <linearGradient
       inkscape:collect="always"
       xlink:href="#linearGradient1260"
       id="linearGradient2046"
       gradientUnits="userSpaceOnUse"
       x1="45.200001"
       y1="-1.42"
       x2="45.200001"
       y2="57.799999"
       gradientTransform="matrix(0.26450633,0,0,0.26450633,-0.11604731,-0.46551835)" />
    <linearGradient
       inkscape:collect="always"
       id="linearGradient1260">
      <stop
         style="stop-color:#ffb900;stop-opacity:1;"
         offset="0"
         id="stop1256" />
      <stop
         style="stop-color:#ef8400;stop-opacity:1;"
         offset="0.17"
         id="stop1264" />
      <stop
         style="stop-color:#e25c01;stop-opacity:1;"
         offset="0.30000001"
         id="stop1266" />
      <stop
         style="stop-color:#d93f01;stop-opacity:1;"
         offset="0.465"
         id="stop1268" />
      <stop
         style="stop-color:#d83b01;stop-opacity:1;"
         offset="0.5"
         id="stop1258" />
    </linearGradient>
    <linearGradient
       inkscape:collect="always"
       xlink:href="#linearGradient1336"
       id="linearGradient2106"
       gradientUnits="userSpaceOnUse"
       x1="35.16"
       y1="-0.23999999"
       x2="28.52"
       y2="9.2399998"
       gradientTransform="matrix(0.26450633,0,0,0.26450633,-0.11604731,-0.46551835)" />
    <linearGradient
       inkscape:collect="always"
       id="linearGradient1336">
      <stop
         style="stop-color:#000000;stop-opacity:0.40000001;"
         offset="0"
         id="stop1332" />
      <stop
         style="stop-color:#000000;stop-opacity:0;"
         offset="1"
         id="stop1334" />
    </linearGradient>
    <linearGradient
       inkscape:collect="always"
       xlink:href="#linearGradient1336"
       id="linearGradient2136"
       gradientUnits="userSpaceOnUse"
       x1="46.32"
       y1="56.549999"
       x2="27.99"
       y2="54.950001"
       gradientTransform="matrix(0.26450633,0,0,0.26450633,-0.11604731,-0.46551835)" />
    <linearGradient
       inkscape:collect="always"
       xlink:href="#linearGradient1876"
       id="linearGradient2016"
       gradientUnits="userSpaceOnUse"
       x1="34.52"
       y1="0.67000002"
       x2="3.1600001"
       y2="45.450001"
       gradientTransform="matrix(0.26450633,0,0,0.26450633,-0.11604731,-0.46551835)" />
    <linearGradient
       inkscape:collect="always"
       id="linearGradient1876">
      <stop
         style="stop-color:#800600;stop-opacity:1;"
         offset="0"
         id="stop1872" />
      <stop
         style="stop-color:#c72727;stop-opacity:1;"
         offset="0.73000002"
         id="stop1880" />
      <stop
         style="stop-color:#c13959;stop-opacity:1;"
         offset="0.82000005"
         id="stop1886" />
      <stop
         style="stop-color:#bc4b81;stop-opacity:1;"
         offset="0.91000003"
         id="stop1884" />
      <stop
         style="stop-color:#b95799;stop-opacity:1;"
         offset="0.97000003"
         id="stop1882" />
      <stop
         style="stop-color:#b85ba2;stop-opacity:1;"
         offset="1"
         id="stop1874" />
    </linearGradient>
    <linearGradient
       inkscape:collect="always"
       xlink:href="#linearGradient1606"
       id="linearGradient2076"
       gradientUnits="userSpaceOnUse"
       x1="18.5"
       y1="55.630001"
       x2="59.439999"
       y2="55.630001"
       gradientTransform="matrix(0.26450633,0,0,0.26450633,-0.11604731,-0.46551835)" />
    <linearGradient
       inkscape:collect="always"
       id="linearGradient1606">
      <stop
         style="stop-color:#f32b44;stop-opacity:1;"
         offset="0"
         id="stop1602" />
      <stop
         style="stop-color:#a4070a;stop-opacity:1;"
         offset="0.60000002"
         id="stop1604" />
    </linearGradient>
  </defs>
  <path
     d="M 8.9856141,0.06349415 10.199698,2.8408104 v 9.8554956 l -1.1955679,3.237567 4.5204129,-1.288146 c 0.692664,-0.199012 1.170345,-0.831967 1.171763,-1.552652 V 2.9042922 C 14.696623,2.1815881 14.217082,1.5465258 13.521897,1.3489955 Z"
     style="fill:url(#linearGradient2046);fill-opacity:1;stroke-width:0.264506"
     id="path2027"
     sodipodi:nodetypes="ccccccccc" />
  <path
     d="M 10.199698,12.696306 H 5.1555621 c -0.864178,0.0093 -1.166749,0.950018 -0.420564,1.386023 l 3.004791,1.70342 c 0.247494,0.140689 0.527348,0.214527 0.812035,0.21425 v 0 c 0.15317,-1e-4 0.305518,-0.02237 0.452306,-0.06613 0.709043,-0.201458 1.1975619,-0.849932 1.1955679,-1.587038 z"
     style="fill:url(#linearGradient2076);fill-opacity:1;stroke-width:0.264506"
     id="path2057"
     sodipodi:nodetypes="ccccssccc" />
  <path
     d="M 10.199698,12.696306 H 5.1555621 c -0.864178,0.0093 -1.166749,0.950018 -0.420564,1.386023 l 3.004791,1.70342 c 0.247494,0.140689 0.527348,0.214527 0.812035,0.21425 v 0 c 0.15317,-1e-4 0.305518,-0.02237 0.452306,-0.06613 0.709043,-0.201458 1.1975609,-0.849932 1.1955679,-1.587038 z"
     style="fill:url(#linearGradient2136);fill-opacity:1;stroke-width:0.264506"
     id="path2117"
     sodipodi:nodetypes="ccccssccc" />
  <path
     d="m 3.2537631,12.392133 1.322532,-0.714166 c 0.369443,-0.203047 0.598659,-0.591496 0.597783,-1.01306 V 5.4673583 c 4.87e-4,-0.4849451 0.303652,-0.9180185 0.759133,-1.0844762 L 10.199698,2.8408104 V 1.6690475 C 10.198736,0.92288395 9.7032801,0.26774405 8.9856141,0.06349415 8.8368571,0.02077745 8.6827871,-5.9624878e-4 8.5280181,1.2651223e-5 v 0 C 8.2369121,6.7695122e-4 7.9508811,0.07628565 7.6974691,0.21955285 L 2.814683,3.0048045 C 2.3109975,3.2918125 1.9999994,3.8269708 2.000003,4.406688 v 7.236892 c -0.00166,0.64449 0.6871883,1.055742 1.2537601,0.748553 z"
     style="fill:url(#linearGradient2016);fill-opacity:1;stroke-width:0.264506"
     id="path1997" />
  <path
     d="m 3.2537631,12.392133 1.322532,-0.714166 c 0.369443,-0.203047 0.598659,-0.591496 0.597783,-1.01306 V 5.4673583 c 4.87e-4,-0.4849451 0.303652,-0.9180185 0.759133,-1.0844762 L 10.199698,2.8408104 V 1.6690475 C 10.198736,0.92288395 9.7032801,0.26774425 8.9856141,0.06349415 8.8368571,0.02077745 8.6827871,-5.9624878e-4 8.5280181,1.2651223e-5 v 0 C 8.2369121,6.7825122e-4 7.9508811,0.07628565 7.6974691,0.21955285 L 2.814683,3.0048045 C 2.3109975,3.2918125 1.9999994,3.8269708 2.000003,4.406688 v 7.236892 c -0.0016,0.64449 0.6871883,1.055742 1.2537601,0.748553 z"
     style="fill:url(#linearGradient2106);fill-opacity:1;stroke-width:0.264506"
     id="path2087" />
</svg>
