<?xml version="1.0" encoding="UTF-8" standalone="no"?>
<!-- Created with Inkscape (http://www.inkscape.org/) -->

<svg
   width="16"
   height="16"
   viewBox="0 0 16 16"
   version="1.1"
   id="svg2535"
   inkscape:version="1.2.1 (9c6d41e410, 2022-07-14, custom)"
   sodipodi:docname="preferences-system-time.svg"
   xmlns:inkscape="http://www.inkscape.org/namespaces/inkscape"
   xmlns:sodipodi="http://sodipodi.sourceforge.net/DTD/sodipodi-0.dtd"
   xmlns:xlink="http://www.w3.org/1999/xlink"
   xmlns="http://www.w3.org/2000/svg"
   xmlns:svg="http://www.w3.org/2000/svg">
  <sodipodi:namedview
     id="namedview2537"
     pagecolor="#ffffff"
     bordercolor="#000000"
     borderopacity="0.25"
     inkscape:showpageshadow="2"
     inkscape:pageopacity="0.0"
     inkscape:pagecheckerboard="0"
     inkscape:deskcolor="#d1d1d1"
     inkscape:document-units="px"
     showgrid="false"
     inkscape:zoom="51.6875"
     inkscape:cx="7.9903265"
     inkscape:cy="8"
     inkscape:window-width="1920"
     inkscape:window-height="1029"
     inkscape:window-x="0"
     inkscape:window-y="0"
     inkscape:window-maximized="1"
     inkscape:current-layer="svg2535" />
  <defs
     id="defs2532">
    <radialGradient
       id="radialGradient875"
       cx="20.107"
       cy="28.705"
       r="28"
       gradientTransform="matrix(0.29601868,0.16716142,-0.13170717,0.23323253,3.4075191,-3.6739219)"
       gradientUnits="userSpaceOnUse">
      <stop
         stop-color="#5ab5e2"
         offset="0"
         id="stop2" />
      <stop
         stop-color="#4189ac"
         offset=".45901"
         id="stop4" />
      <stop
         stop-color="#295e76"
         offset="1"
         id="stop6" />
    </radialGradient>
    <linearGradient
       id="linearGradient883"
       x1="4"
       x2="59.861"
       y1="31.360001"
       y2="31.360001"
       gradientTransform="matrix(0.26784428,0,0,0.26784428,-0.0711559,-1.0714014)"
       gradientUnits="userSpaceOnUse">
      <stop
         stop-color="#b0d6df"
         offset="0"
         id="stop9" />
      <stop
         stop-color="#e1f8fc"
         offset=".21709"
         id="stop11" />
      <stop
         stop-color="#96c3ce"
         offset="1"
         id="stop13" />
    </linearGradient>
    <linearGradient
       inkscape:collect="always"
       xlink:href="#linearGradient1611"
       id="linearGradient1109"
       x1="1.8368058"
       y1="2.3578029"
       x2="1.8673608"
       y2="5.5564623"
       gradientUnits="userSpaceOnUse"
       gradientTransform="matrix(2.8346457,0,0,2.8346457,-0.74999994,0.25000111)" />
    <linearGradient
       inkscape:collect="always"
       id="linearGradient1611">
      <stop
         style="stop-color:#9ca3a8;stop-opacity:1;"
         offset="0"
         id="stop1607" />
      <stop
         style="stop-color:#63737d;stop-opacity:1"
         offset="1"
         id="stop1609" />
    </linearGradient>
    <linearGradient
       inkscape:collect="always"
       xlink:href="#linearGradient3161"
       id="linearGradient3163"
       x1="8.4666662"
       y1="15.345833"
       x2="8.4666662"
       y2="1.5874995"
       gradientUnits="userSpaceOnUse"
       gradientTransform="matrix(0.50878257,0,0,0.50878257,0.1923034,7.1922929)" />
    <linearGradient
       inkscape:collect="always"
       id="linearGradient3161">
      <stop
         style="stop-color:#c7ccd1;stop-opacity:1;"
         offset="0"
         id="stop3157" />
      <stop
         style="stop-color:#fdfdfd;stop-opacity:1"
         offset="1"
         id="stop3159" />
    </linearGradient>
  </defs>
  <rect
     x="1.0003197"
     y="0"
     width="14.999681"
     height="14.999681"
     rx="7.4998403"
     ry="7.4998403"
     fill="url(#radialGradient875)"
     id="rect30"
     style="fill:url(#radialGradient875);stroke-width:0.267846" />
  <path
     d="M 8.5389101,0.3749926 C 7.9604974,0.41601254 7.3946592,0.52219295 6.8428461,0.7010598 6.6459799,0.70874317 6.2181345,0.96230646 6.5633279,1.0813013 6.7239767,1.2529192 7.1074914,1.3075344 7.0609172,1.5879659 7.1228699,1.8344604 6.4879795,1.8232762 6.6992999,2.0465307 6.8491361,2.2437211 6.9989691,2.4409228 7.1488146,2.638119 7.4254844,2.5492529 7.516782,2.2659016 7.6702783,2.0478062 8.0975442,1.859342 8.7022563,1.8024166 8.9846248,1.4397442 9.073106,1.1832002 9.1615864,0.92667949 9.2500704,0.6701358 9.0130142,0.5717538 8.7759551,0.47337179 8.538911,0.37496626 Z M 6.4823036,0.44089839 C 6.2172833,0.41230923 6.0477632,0.57517839 5.8499423,0.68195664 5.6064432,0.71178002 5.3313282,0.80240936 5.1778816,0.99825077 5.4510249,1.122207 5.623047,0.99014327 5.858817,0.89648693 6.0777241,0.78433699 6.8222715,0.73754552 6.4823036,0.44087204 Z M 4.7721402,1.2275067 c -0.1362489,0.2079751 0.095704,0.5089909 -0.2159748,0.618137 -0.1538488,0.19476 -0.2882961,0.5144394 0.096243,0.3984419 0.09407,-0.2885933 0.386291,-0.6934113 0.7188592,-0.5243893 0.3349679,0.09 0.6449861,0.6528857 0.9184803,0.2070426 C 6.2896369,1.8107817 5.8643317,1.7429514 5.8738312,1.4592729 5.6845761,1.3780802 5.2800189,1.5256236 5.2941437,1.2305623 5.0207264,1.1091573 4.9419761,1.7141023 4.8450784,1.3759797 4.8207634,1.3264952 4.7964484,1.2770109 4.7721302,1.2275037 Z m 7.4220918,0.2622019 c -0.323617,0.064713 -0.643262,0.138634 -0.898656,0.3610667 0.07414,0.2963947 -0.308244,0.3462685 -0.478314,0.510789 -0.123396,0.069632 0.0023,0.6075131 0.110355,0.5240148 0.229881,-0.3032944 0.348793,-0.041669 0.562488,0.1081008 0.19234,0.1786425 0.314469,-0.3317426 0.212306,-0.475615 -0.05994,-0.2318769 0.231675,-0.4034145 0.336617,-0.5933115 0.320844,-0.2058066 0.04973,0.2625704 0.03947,0.4260918 -0.161952,0.4832382 0.71836,0.014583 0.138088,0.3756917 -0.155649,0.1554393 -0.212642,0.3857162 -0.451816,0.500588 -0.12914,0.1576252 -0.622012,0.083745 -0.555638,-0.1621417 -0.179985,-0.2820945 -0.135559,0.3395179 -0.19671,0.3365414 -0.298291,-0.088885 -0.387065,0.2440662 -0.574136,0.403366 -0.143163,0.1644692 -0.6485615,0.062422 -0.271244,0.3171947 0.275193,0.3175432 -0.05484,0.2588188 -0.282495,0.3433912 -0.3217181,0.055399 -0.2679431,0.3355933 -0.2596181,0.5885879 0.00488,0.1394236 0.3137184,0.3462681 0.4700891,0.2490268 0.312343,-0.033449 0.233531,-0.4167659 0.464291,-0.5336627 0.191735,-0.164126 0.326292,-0.3154941 0.614186,-0.3194179 0.132917,0.1268504 0.401567,0.317543 0.510514,0.4212404 -0.300667,0.327592 0.138098,0.3008943 0.180068,0.00244 0.14831,-0.1643497 -0.488513,-0.5510897 -0.06856,-0.3811669 0.27797,0.091701 0.214048,0.3756677 0.337719,0.5673625 0.219837,0.3716179 0.243376,0.094312 0.263843,-0.1931623 0.365238,-0.1147402 0.464236,0.6360155 0.956526,0.4599437 0.368941,0.096945 0.194107,0.3355165 -0.03884,0.4895635 -0.212749,0.1551779 -0.529988,0.048816 -0.763482,-0.035434 C 12.320287,5.6622014 12.041893,5.7301936 11.920296,5.9660556 11.650352,5.7330871 11.459256,5.362994 11.06709,5.3424954 10.695772,5.3232598 10.320905,5.4219869 9.9625629,5.5229407 9.5655214,5.9889061 9.1359551,6.4427206 8.9509592,7.0382839 c -0.192031,0.2359875 0.2192943,0.3773658 -0.093366,0.5921366 -0.2176725,0.203235 0.074128,0.4542638 0.1191844,0.6821588 0.2342522,0.2777925 0.5933869,1.1915503 0.9551541,0.838109 0.2035903,-0.3216675 0.3385933,0.2107051 0.5779883,-0.12339 0.201499,-0.1839271 0.364692,0.1848 0.647262,0.053662 0.251269,0.12525 0.273117,0.3707672 0.140346,0.6057132 -0.08526,0.2385384 0.369391,0.3366185 0.240031,0.6150875 -0.06098,0.272318 0.05847,0.503487 0.193755,0.731059 -0.300693,0.313867 -0.264444,0.778806 -0.189383,1.172099 0.147122,0.539188 0.357817,1.079928 0.336768,1.647665 0.263468,0.0691 0.457816,-0.10539 0.675685,-0.197008 0.415844,0.05882 0.642066,-0.384892 0.900284,-0.639385 -0.193984,-0.260767 0.159358,-0.373292 0.305418,-0.541989 -0.218474,-0.18897 -0.363241,-0.372441 -0.025,-0.519814 0.156028,-0.158477 0.448317,-0.248062 0.499565,-0.469116 -0.134362,-0.400391 -0.05784,-0.825806 -0.0776,-1.239772 C 14.322707,9.9116322 14.498593,9.5848666 14.773738,9.3270691 14.883467,8.9650291 15.147204,8.633185 15.12163,8.2445688 14.480291,8.4364338 14.673937,8.1630818 15.02935,7.9031763 15.275997,7.7222786 15.626688,7.5535502 15.701686,7.2451325 15.755519,6.9407384 15.51763,6.4681237 15.31067,6.91534 15.210136,6.7728167 14.855978,6.6406457 14.86088,6.416924 c -0.07584,-0.4511641 0.122002,-0.1801826 0.297892,0.032882 0.409116,-0.3032693 0.94303,0.8370076 0.770357,0.02337 -0.233911,-1.7608675 -1.126774,-3.4244318 -2.46422,-4.5931563 -0.1223,0.1302322 -0.326393,0.6157862 -0.47449,0.3355169 -0.209664,-0.2224176 -0.374217,-0.4232167 0.05286,-0.3406434 0.41854,-0.11359 0.0016,-0.1796344 -0.217795,-0.2055345 C 12.60546,1.6436764 12.401422,1.563079 12.194202,1.4896419 Z M 4.002157,1.5006377 C 3.7252624,1.6072865 4.1400467,2.0139316 3.6436143,1.8837099 3.0993513,2.1303325 2.736784,2.7288408 2.358492,3.1949054 1.4760861,4.4419306 0.99634614,5.9658465 1.000021,7.4933151 c 0.1447879,0.298841 0.5013892,0.4001163 0.7681834,0.5650892 0.2711453,0.092756 0.6126121,0.078741 0.7475594,0.3782915 0.1509292,0.1580503 0.3534426,0.36999 0.5690627,0.3871416 0.3313423,-0.1061766 0.3780668,0.1942519 0.210904,0.41649 -0.01811,0.2434266 -0.2890425,0.4397653 -0.2588442,0.6538622 0.060365,0.2398884 -0.301792,0.5041124 -0.057823,0.7235834 0.2566676,0.458865 0.5313634,0.90448 0.8784809,1.300796 0.2159023,0.189154 0.1903023,0.449591 0.1656567,0.709737 -0.085679,0.274945 0.174189,0.43399 0.3136694,0.633412 -0.339894,0.623184 0.5807362,0.747732 0.9660531,1.020227 C 5.4966401,14.104799 5.512038,13.81808 5.8334121,13.81008 6.028294,13.673552 6.0698981,13.36534 6.2037542,13.160419 6.1994698,12.942756 6.0600773,12.739353 6.2863723,12.502284 6.4568819,12.358366 6.8087361,12.45434 6.8722098,12.153889 7.1038287,11.915308 6.9164167,11.584652 6.9164167,11.295184 7.0963339,11.048729 7.4067307,10.859544 7.3722813,10.519 7.4112576,10.011086 6.4968,10.033911 6.1745821,9.7259665 5.7785156,9.7146284 5.8586138,9.174903 5.5502955,9.1032058 5.2442019,9.1185987 5.1329043,8.8787749 5.0244067,8.6352911 4.8558161,8.5203049 4.5385169,8.7539805 4.3620955,8.6098811 4.1622756,8.504614 3.9830287,8.1119411 3.7581085,8.3573346 3.4620898,8.5719677 3.1709711,8.7900011 2.8901522,8.4306499 2.7080347,8.2665443 2.936853,7.8006893 2.6789994,7.8300377 2.1285362,8.0291514 2.8534605,7.0304817 2.3381568,7.1629767 2.2161111,7.3542758 1.9820145,7.6494424 1.7543941,7.4230726 1.5258083,7.3155175 1.6385676,6.9658075 1.648761,6.7563617 1.658654,6.5113832 1.9686792,6.3892449 2.1468505,6.2774969 2.4924184,6.4320445 2.4214937,5.9714789 2.7103134,6.1254379 2.9904814,6.0657687 3.1169796,6.5152037 3.2307273,6.5319544 3.2975768,6.3105431 3.1768946,5.9869413 3.3823752,5.8410682 3.622464,5.6389778 3.9393384,5.4952519 3.9985871,5.1557076 4.0035194,4.7929904 4.4436529,5.0986717 4.5529254,4.8516635 4.6536659,4.5686442 4.9474917,4.5863211 5.1956867,4.5329221 5.3314435,4.4069618 5.6726513,4.0189825 5.2511267,4.1327306 5.0975938,4.1119809 4.4795178,4.1942424 4.8992088,4.0463561 5.1059453,3.8898637 5.3565244,3.9115489 5.5885943,3.8808127 5.771361,3.7260802 6.0908577,3.6742427 6.1049075,3.3925236 5.9532142,3.1862137 5.6318923,3.2254818 5.7682897,2.9295813 5.7551087,2.5425146 5.4141972,2.7910068 5.3021994,2.7615662 5.4840901,2.5084469 5.0656851,2.3490749 4.9252577,2.3455256 4.8298152,2.584061 4.5614904,2.7898644 4.6561875,3.06441 4.3764193,3.1098465 4.2453462,3.3123423 4.1612731,3.5644493 4.0773931,3.5936667 4.1046681,3.0700084 3.7836313,3.1182582 3.5568681,3.1127872 3.2765421,2.7744156 3.5152867,2.641169 3.8426044,2.4340727 4.2495707,2.2719766 4.4565415,1.9411835 4.5755655,1.6449146 4.3560646,1.4630679 4.0637745,1.5051422 L 4.0230224,1.502311 Z M 9.5092892,1.8417571 C 9.3286404,1.9822958 8.963951,1.8852281 8.8869523,2.0207241 8.8545617,2.2940186 9.2789192,2.2897445 9.448391,2.1388689 9.7253829,2.0364563 9.7130361,2.0551464 9.5092723,1.8417509 Z M 5.4963749,1.9818293 C 5.112458,2.0947898 5.4261953,2.3462449 5.6768126,2.342896 5.9758299,2.31877 5.6976315,1.9839795 5.4963749,1.9818293 Z m 4.5781531,0.7543841 c -0.02747,0.2445543 0.207454,0.3972652 0.110433,0.6636854 -0.152774,0.3356179 0.06364,0.4363918 0.32472,0.2301007 C 10.858372,3.4166483 10.248386,2.9492842 10.16711,2.7362137 h -0.09259 z M 9.9595414,3.1294969 C 9.646197,3.0524737 9.7453273,3.7082607 9.9606664,3.4824891 10.192524,3.4420134 9.9698539,3.2633583 9.9595414,3.1294969 Z M 5.960625,3.7205587 C 6.006628,3.9692547 6.02317,4.3635211 6.2052422,3.9400232 6.2049924,3.8577182 6.0253556,3.7933303 5.960625,3.7205587 Z m 7.56659,2.5569458 c 0.368291,0.3211184 0.517488,0.7861847 0.725083,1.2128755 0.308895,0.1621833 0.12604,0.4102158 0.169068,0.6186352 C 14.851455,8.4855705 13.985824,8.2850186 14.090872,7.8742089 14.02069,7.3970717 13.714229,7.0785775 13.463934,6.73351 13.444247,6.5508573 13.248317,6.3425189 13.527216,6.2775205 Z"
     fill="url(#linearGradient883)"
     id="path32"
     style="fill:url(#linearGradient883);stroke-width:0.267846" />
  <circle
     style="fill:url(#linearGradient1109);fill-opacity:1;stroke-width:0.281251;stroke-linejoin:round"
     id="path1021"
     cx="4.5"
     cy="11.5"
     r="4.5" />
  <circle
     style="fill:url(#linearGradient3163);fill-opacity:1;stroke-width:0.134615"
     id="path2899"
     cx="4.5000005"
     cy="11.500002"
     r="3.5" />
  <path
     id="rect1636"
     style="fill:#444444;fill-opacity:1;stroke-width:0.500001;stroke-linejoin:round"
     d="m 4.4748007,9.0000019 c -0.2649144,0.01334 -0.4746094,0.231656 -0.4746094,0.5 v 1.9746101 c -4.304e-4,0.0085 0,0.01674 0,0.02539 0,0.276999 0.223,0.5 0.5,0.5 h 0.025391 1.974418 c 0.277,0 0.4999995,-0.223 0.4999995,-0.5 0,-0.276999 -0.2229995,-0.5 -0.4999995,-0.5 H 5.0001917 V 9.5000019 c 0,-0.277 -0.223,-0.5 -0.5,-0.5 -0.00866,0 -0.016845,-4.3e-4 -0.025391,0 z"
     sodipodi:nodetypes="cscssccsscssc" />
</svg>
