<?xml version="1.0" encoding="UTF-8" standalone="no"?>
<!-- Created with Inkscape (http://www.inkscape.org/) -->

<svg
   width="16"
   height="16"
   viewBox="0 0 16 16"
   version="1.1"
   id="svg69118"
   inkscape:version="1.2.1 (9c6d41e410, 2022-07-14, custom)"
   sodipodi:docname="preferences-system-time.svg"
   xmlns:inkscape="http://www.inkscape.org/namespaces/inkscape"
   xmlns:sodipodi="http://sodipodi.sourceforge.net/DTD/sodipodi-0.dtd"
   xmlns:xlink="http://www.w3.org/1999/xlink"
   xmlns="http://www.w3.org/2000/svg"
   xmlns:svg="http://www.w3.org/2000/svg">
  <sodipodi:namedview
     id="namedview69120"
     pagecolor="#ffffff"
     bordercolor="#666666"
     borderopacity="1.0"
     inkscape:pageshadow="2"
     inkscape:pageopacity="0.0"
     inkscape:pagecheckerboard="0"
     inkscape:document-units="px"
     showgrid="false"
     units="px"
     inkscape:zoom="50.625"
     inkscape:cx="7.9901235"
     inkscape:cy="8"
     inkscape:window-width="1920"
     inkscape:window-height="1012"
     inkscape:window-x="0"
     inkscape:window-y="0"
     inkscape:window-maximized="1"
     inkscape:current-layer="svg69118"
     inkscape:showpageshadow="2"
     inkscape:deskcolor="#d1d1d1" />
  <defs
     id="defs69115">
    <linearGradient
       inkscape:collect="always"
       id="linearGradient1157">
      <stop
         style="stop-color:#93daee;stop-opacity:1;"
         offset="0"
         id="stop1153" />
      <stop
         style="stop-color:#afe5e3;stop-opacity:1"
         offset="1"
         id="stop1155" />
    </linearGradient>
    <linearGradient
       inkscape:collect="always"
       xlink:href="#linearGradient984"
       id="linearGradient7450"
       x1="2.9104171"
       y1="3.1750004"
       x2="14.552084"
       y2="12.700001"
       gradientUnits="userSpaceOnUse"
       gradientTransform="matrix(0.91229976,0,0,0.91229976,1.275862,-0.72413813)" />
    <linearGradient
       inkscape:collect="always"
       id="linearGradient984">
      <stop
         style="stop-color:#26b4eb;stop-opacity:1;"
         offset="0"
         id="stop980" />
      <stop
         style="stop-color:#15b393;stop-opacity:1"
         offset="1"
         id="stop982" />
    </linearGradient>
    <linearGradient
       inkscape:collect="always"
       xlink:href="#linearGradient1157"
       id="linearGradient1104"
       x1="0.62334692"
       y1="4.1123891"
       x2="12.146758"
       y2="11.744563"
       gradientUnits="userSpaceOnUse"
       gradientTransform="translate(2)" />
    <linearGradient
       inkscape:collect="always"
       xlink:href="#linearGradient3161"
       id="linearGradient3163"
       x1="8.4666662"
       y1="15.345833"
       x2="8.4666662"
       y2="1.5874995"
       gradientUnits="userSpaceOnUse"
       gradientTransform="matrix(0.65414903,0,0,0.65414903,-1.0384679,5.9615158)" />
    <linearGradient
       inkscape:collect="always"
       id="linearGradient3161">
      <stop
         style="stop-color:#c7ccd1;stop-opacity:1;"
         offset="0"
         id="stop3157" />
      <stop
         style="stop-color:#fdfdfd;stop-opacity:1"
         offset="1"
         id="stop3159" />
    </linearGradient>
  </defs>
  <circle
     style="fill:url(#linearGradient7450);fill-opacity:1;stroke-width:1.02784;stroke-linecap:round;stroke-linejoin:round"
     id="path7362"
     cx="9"
     cy="7"
     r="7" />
  <path
     id="path371"
     style="opacity:0.6;fill:url(#linearGradient1104);fill-opacity:1"
     d="M 9,0 A 7,7 0 0 0 2,7 7,7 0 0 0 9,14 7,7 0 0 0 16,7 7,7 0 0 0 9,0 Z M 9,1 A 6,6 0 0 1 9.8496094,1.0625 6,6 0 0 0 9,1 Z m 0,0 a 2,6 0 0 1 1.732422,3 H 7.2675781 A 2,6 0 0 1 9,1 Z m 0.8632812,0.064453 A 6,6 0 0 1 10.6875,1.2441406 6,6 0 0 0 9.8632812,1.0644531 Z m -1.765625,0.00781 A 6,6 0 0 0 7.8339844,1.1289062 6,6 0 0 1 8.0976562,1.0722656 Z M 10.697266,1.2480469 A 6,6 0 0 1 14.193359,4 6,6 0 0 1 14.642578,4.96875 6,6 0 0 0 14.193359,4 H 11.710938 A 3,7 0 0 0 10.697266,1.2480469 Z m -3.3945316,0.00781 A 3,7 0 0 0 6.296875,4 H 3.8222656 A 6,6 0 0 1 7.3027344,1.2558594 Z M 3.8046875,4.0292969 A 6,6 0 0 0 3.5664062,4.4902344 6,6 0 0 0 3.359375,5 H 6.1289062 A 3,7 0 0 0 6,7 3,7 0 0 0 6.1289062,9 H 3.359375 A 6,6 0 0 0 3.5664062,9.5097656 6,6 0 0 0 3.8046875,9.9707031 6,6 0 0 1 3.5664062,9.5097656 6,6 0 0 1 3,7 6,6 0 0 1 3.5664062,4.4902344 6,6 0 0 1 3.8046875,4.0292969 Z M 7.1191406,5 H 10.884766 A 2,6 0 0 1 11,7 2,6 0 0 1 10.880859,9 H 7.1191406 A 2,6 0 0 1 7,7 2,6 0 0 1 7.1191406,5 Z M 11.875,5 h 2.779297 A 6,6 0 0 1 15,7 6,6 0 0 1 14.433594,9.5097656 6,6 0 0 1 14.195312,9.9707031 6,6 0 0 0 14.433594,9.5097656 6,6 0 0 0 14.640625,9 H 11.871094 A 3,7 0 0 0 12,7 3,7 0 0 0 11.875,5 Z M 3.8222656,10 H 6.296875 A 3,7 0 0 0 7.3027344,12.744141 6,6 0 0 1 3.8222656,10 Z m 3.4453125,0 H 10.732422 A 2,6 0 0 1 9,13 2,6 0 0 1 7.2675781,10 Z m 4.4355469,0 h 2.474609 A 6,6 0 0 1 10.697266,12.744141 3,7 0 0 0 11.703125,10 Z m -3.8691406,2.871094 a 6,6 0 0 0 0.2636718,0.05664 6,6 0 0 1 -0.2636718,-0.05664 z m 2.3320316,0 a 6,6 0 0 1 -0.2636722,0.05664 6,6 0 0 0 0.2636722,-0.05664 z" />
  <circle
     style="fill:url(#linearGradient3163);fill-opacity:1;stroke-width:0.173076"
     id="path2899"
     cx="4.4999995"
     cy="11.5"
     r="4.5" />
  <path
     id="rect1636"
     style="fill:#444444;fill-opacity:1;stroke-width:0.500001;stroke-linejoin:round"
     d="m 4.4748004,9.0000019 c -0.2649144,0.01334 -0.4746094,0.231656 -0.4746094,0.5 v 1.9746101 c -4.304e-4,0.0085 0,0.01674 0,0.02539 0,0.276999 0.223,0.5 0.5,0.5 H 4.525582 6.5 c 0.277,0 0.4999995,-0.223 0.4999995,-0.5 0,-0.276999 -0.2229995,-0.5 -0.4999995,-0.5 H 5.0001914 V 9.5000019 c 0,-0.277 -0.223,-0.5 -0.5,-0.5 -0.00866,0 -0.016845,-4.3e-4 -0.025391,0 z"
     sodipodi:nodetypes="cscssccsscssc" />
  <path
     id="path2120"
     style="opacity:0.2;fill:#000000"
     d="M 4.5 7 A 4.5 4.5 0 0 0 0 11.5 A 4.5 4.5 0 0 0 4.5 16 A 4.5 4.5 0 0 0 9 11.5 A 4.5 4.5 0 0 0 4.5 7 z M 4.5 8 A 3.5 3.5 0 0 1 8 11.5 A 3.5 3.5 0 0 1 4.5 15 A 3.5 3.5 0 0 1 1 11.5 A 3.5 3.5 0 0 1 4.5 8 z " />
</svg>
