<?xml version="1.0" encoding="UTF-8" standalone="no"?>
<svg
   width="16"
   height="16"
   version="1.1"
   viewBox="0 0 16 16"
   id="svg6"
   sodipodi:docname="preferences-system-linux.svg"
   inkscape:version="1.3.2 (091e20ef0f, 2023-11-25, custom)"
   xmlns:inkscape="http://www.inkscape.org/namespaces/inkscape"
   xmlns:sodipodi="http://sodipodi.sourceforge.net/DTD/sodipodi-0.dtd"
   xmlns:xlink="http://www.w3.org/1999/xlink"
   xmlns="http://www.w3.org/2000/svg"
   xmlns:svg="http://www.w3.org/2000/svg"
   xmlns:rdf="http://www.w3.org/1999/02/22-rdf-syntax-ns#"
   xmlns:cc="http://creativecommons.org/ns#"
   xmlns:dc="http://purl.org/dc/elements/1.1/">
  <defs
     id="defs10">
    <linearGradient
       inkscape:collect="always"
       xlink:href="#linearGradient4676"
       id="linearGradient4678"
       x1="5.2915626"
       y1="7.2758985"
       x2="0.52915633"
       y2="0.92602324"
       gradientUnits="userSpaceOnUse"
       gradientTransform="matrix(2.6457224,0,0,2.707649,-0.40000048,-4.2710961)" />
    <linearGradient
       inkscape:collect="always"
       id="linearGradient4676">
      <stop
         style="stop-color:#333333;stop-opacity:1;"
         offset="0"
         id="stop4672" />
      <stop
         style="stop-color:#696969;stop-opacity:1"
         offset="1"
         id="stop4674" />
    </linearGradient>
    <linearGradient
       inkscape:collect="always"
       xlink:href="#linearGradient4970"
       id="linearGradient4972"
       x1="7"
       y1="17.5"
       x2="19"
       y2="27.5"
       gradientUnits="userSpaceOnUse"
       gradientTransform="matrix(0.84000022,0,0,0.60235282,-2.0800012,-1.5811771)" />
    <linearGradient
       inkscape:collect="always"
       id="linearGradient4970">
      <stop
         style="stop-color:#ffffff;stop-opacity:1;"
         offset="0"
         id="stop4966" />
      <stop
         style="stop-color:#cccccc;stop-opacity:1"
         offset="1"
         id="stop4968" />
    </linearGradient>
    <linearGradient
       inkscape:collect="always"
       xlink:href="#linearGradient9529"
       id="linearGradient9531"
       x1="2.6457813"
       y1="2.3812032"
       x2="3.7040937"
       y2="3.4395156"
       gradientUnits="userSpaceOnUse"
       gradientTransform="matrix(2.6457224,0,0,2.6457224,-0.40000048,-2.1000025)" />
    <linearGradient
       inkscape:collect="always"
       id="linearGradient9529">
      <stop
         style="stop-color:#f8c93b;stop-opacity:1"
         offset="0"
         id="stop9525" />
      <stop
         style="stop-color:#ea8908;stop-opacity:1"
         offset="1"
         id="stop9527" />
    </linearGradient>
    <linearGradient
       inkscape:collect="always"
       xlink:href="#linearGradient4676"
       id="linearGradient17588"
       gradientUnits="userSpaceOnUse"
       gradientTransform="matrix(2.6457224,0,0,2.4189452,-0.40000048,-1.9200016)"
       x1="5.2915626"
       y1="7.2758985"
       x2="0.52915633"
       y2="0.92602324" />
    <linearGradient
       inkscape:collect="always"
       xlink:href="#linearGradient4676"
       id="linearGradient17590"
       gradientUnits="userSpaceOnUse"
       gradientTransform="matrix(2.6457224,0,0,2.707649,-0.40000048,-4.2710961)"
       x1="5.2915626"
       y1="7.2758985"
       x2="0.52915633"
       y2="0.92602324" />
  </defs>
  <sodipodi:namedview
     id="namedview8"
     pagecolor="#ffffff"
     bordercolor="#666666"
     borderopacity="1.0"
     inkscape:pageshadow="2"
     inkscape:pageopacity="0.0"
     inkscape:pagecheckerboard="0"
     showgrid="false"
     inkscape:zoom="52.8125"
     inkscape:cx="8"
     inkscape:cy="8"
     inkscape:window-width="1880"
     inkscape:window-height="1048"
     inkscape:window-x="0"
     inkscape:window-y="0"
     inkscape:window-maximized="1"
     inkscape:current-layer="svg6"
     showguides="false"
     inkscape:showpageshadow="2"
     inkscape:deskcolor="#d1d1d1" />
  <metadata
     id="metadata2">
    <rdf:RDF>
      <cc:Work
         rdf:about="">
        <dc:format>image/svg+xml</dc:format>
        <dc:type
           rdf:resource="http://purl.org/dc/dcmitype/StillImage" />
      </cc:Work>
    </rdf:RDF>
  </metadata>
  <path
     id="path879"
     style="fill:url(#linearGradient17588);fill-opacity:1;stroke-width:0.418332;stroke-linejoin:round"
     d="m 8.0000024,-1.7e-6 c -1.9329964,0 -3.5000008,1.4326889 -3.5000008,3.2000002 4e-7,5.1200002 -2.1000009,4.8000003 -2.1000009,7.6799995 0,2.827698 2.5072065,5.12 5.6000017,5.12 3.0927956,0 5.6000026,-2.292302 5.6000026,-5.12 0,-2.8799992 -2.100001,-2.5599993 -2.100001,-7.6799997 0,-1.7673111 -1.567004,-3.2 -3.5000016,-3.2 z"
     sodipodi:nodetypes="sccsccs" />
  <path
     style="fill:#eab108;stroke-width:0.35"
     d="M 4.683999,15.999381 C 4.5363514,15.975931 4.405789,15.932076 4.1197166,15.808945 3.693803,15.625581 3.4951984,15.566116 2.7156635,15.388665 2.3268278,15.300184 2.1819153,15.260844 1.8444304,15.151961 1.7216658,15.112376 1.5580394,15.061836 1.4808171,15.039681 1.2711855,14.979516 1.2156083,14.956136 1.1388036,14.895796 1.0340275,14.813518 0.98519822,14.686567 1.0039247,14.5452 c 0.012012,-0.09062 0.043712,-0.177698 0.1312388,-0.360358 0.1169826,-0.244194 0.2115494,-0.332043 0.2293683,-0.572355 0.010472,-0.141398 0.00189,-0.300438 -0.034093,-0.631539 -0.021299,-0.195896 -0.026166,-0.268103 -0.026473,-0.392805 -3.211e-4,-0.135282 0.00141,-0.334462 0.015372,-0.38598 0.052448,-0.193756 0.092371,-0.305549 0.2780447,-0.353781 0.053745,-0.01402 0.08842,-0.01616 0.3406457,-0.02102 0.157013,-0.0035 0.2966823,-0.0091 0.3168114,-0.01372 0.1087898,-0.0245 0.187992,-0.06545 0.2618049,-0.135632 0.070311,-0.06685 0.1184332,-0.13503 0.2102053,-0.29785 0.1428608,-0.251339 0.4246896,-0.248851 0.6548328,-0.25816 0.065248,0.01372 0.086946,0.02275 0.158404,0.06374 0.07192,0.04143 0.092268,0.05775 0.154806,0.12418 0.157382,0.167194 0.2325168,0.270378 0.585517,0.803671 0.2797796,0.422803 0.3652628,0.55804 0.4780396,0.756421 0.122852,0.216123 0.3443246,0.562835 0.4264268,0.66759 0.01392,0.01782 0.099094,0.12565 0.189292,0.239713 0.090196,0.11417 0.172692,0.220955 0.183312,0.237368 0.169392,0.235687 0.2882992,0.506487 0.3305988,0.77714 0.01422,0.09429 0.01472,0.11025 0.00672,0.218224 -0.01008,0.13706 -0.01888,0.195652 -0.033754,0.225573 -0.00602,0.0119 -0.01908,0.04477 -0.029204,0.07273 -0.129514,0.359902 -0.4523344,0.629931 -0.8263226,0.691251 -0.079528,0.01296 -0.237231,0.01296 -0.321566,0 z"
     id="path12" />
  <path
     style="fill:#eab108;stroke-width:0.35"
     d="m 11.316004,15.999686 c 0.147646,-0.02343 0.278208,-0.06731 0.564282,-0.190433 0.425913,-0.183365 0.624519,-0.242832 1.404054,-0.420279 0.388836,-0.08848 0.533748,-0.12782 0.871233,-0.236707 0.122766,-0.03958 0.28639,-0.09013 0.363613,-0.11228 0.209631,-0.06017 0.265206,-0.08355 0.342012,-0.143885 0.104776,-0.08228 0.153606,-0.209227 0.134876,-0.350596 -0.01204,-0.09062 -0.04371,-0.177692 -0.131236,-0.360357 -0.116984,-0.244195 -0.211547,-0.332044 -0.229369,-0.572355 -0.0105,-0.1414 -0.002,-0.300439 0.03408,-0.63154 0.02126,-0.195896 0.02614,-0.268102 0.02646,-0.392805 3.23e-4,-0.135282 -0.0014,-0.334462 -0.01534,-0.385979 -0.05243,-0.193762 -0.09237,-0.30555 -0.278043,-0.353782 -0.05375,-0.014 -0.08842,-0.01608 -0.340647,-0.02102 -0.157012,-0.0035 -0.296681,-0.0091 -0.316809,-0.01372 -0.108802,-0.0245 -0.188002,-0.06545 -0.261813,-0.135632 -0.07031,-0.06685 -0.11844,-0.13503 -0.210201,-0.29785 -0.142855,-0.25133 -0.424688,-0.248844 -0.65483,-0.258151 -0.06525,0.01372 -0.08694,0.02275 -0.158404,0.06373 -0.07192,0.04143 -0.09227,0.05775 -0.154806,0.12418 -0.157382,0.167194 -0.232516,0.270376 -0.585516,0.80367 -0.279781,0.422802 -0.365263,0.55804 -0.47804,0.75642 -0.12285,0.216123 -0.344325,0.562835 -0.426426,0.66759 -0.01386,0.01788 -0.09909,0.12565 -0.189292,0.239718 -0.0902,0.11417 -0.172692,0.220955 -0.183312,0.237369 -0.169384,0.235687 -0.288299,0.506487 -0.330599,0.777139 -0.01422,0.09429 -0.01472,0.11025 -0.0067,0.218226 0.01008,0.13706 0.01888,0.195652 0.03375,0.225573 0.006,0.0119 0.0191,0.04477 0.0292,0.07273 0.129514,0.359902 0.452333,0.62993 0.826321,0.69125 0.07953,0.01296 0.237237,0.01296 0.321567,0 z"
     id="path12-6" />
  <path
     id="path879-3"
     style="fill:url(#linearGradient4972);fill-opacity:1;stroke-width:0.22229;stroke-linejoin:round"
     d="m 8.000001,3.8399984 c -1.159798,0 -2.0999998,0.6742064 -2.0999998,1.505882 -0.00924,2.0195369 -2.0602772,3.9254435 -2.1000006,5.7223516 0,1.663352 1.880405,3.011764 4.2000004,3.011764 2.319598,0 4.200001,-1.348412 4.200001,-3.011764 -0.01008,-1.7739467 -2.052846,-3.62261 -2.1,-5.7223516 0,-0.8316756 -0.940203,-1.505882 -2.100001,-1.505882 z"
     sodipodi:nodetypes="sccsccs" />
  <path
     id="path879-6"
     style="fill:url(#linearGradient17590);fill-opacity:1;stroke-width:0.442593;stroke-linejoin:round"
     d="m 3.7015634,10.50014 c -0.579899,0 -1.05,0.481105 -1.05,1.074577 0,0.307632 0.2203576,0.81365 0.5133922,1.229727 C 3.437235,13.191048 3.7722604,13.5 4.0515638,13.5 c 0.579899,0 0.5181648,-1.417163 0.5181648,-2.010636 0,-0.339868 -0.2882672,-0.989224 -0.8681652,-0.989224 z"
     sodipodi:nodetypes="ssssss" />
  <path
     id="path879-1"
     style="fill:url(#linearGradient4678);fill-opacity:1;stroke-width:0.442593;stroke-linejoin:round"
     d="m 12.271099,10.50014 c -0.561868,0.01975 -0.840821,0.654667 -0.840821,0.989224 0,0.593473 -0.06174,2.010636 0.518165,2.010636 0.279303,0 0.61366,-0.308791 0.885937,-0.695396 0.293036,-0.416079 0.514065,-0.922256 0.514065,-1.229887 0,-0.593473 -0.470103,-1.074577 -1.05,-1.074577 -0.0091,0 -0.0184,-3.16e-4 -0.02736,0 z" />
  <path
     id="path13003"
     style="fill:#ffffff;stroke-width:1.15931;stroke-linecap:round;stroke-linejoin:round"
     d="M 6.9500022,2.0999989 A 1.0500003,1.4000004 0 0 0 5.900002,3.4999991 1.0500003,1.4000004 0 0 0 6.9500022,4.8999997 1.0500003,1.4000004 0 0 0 8.0000024,3.4999991 1.0500003,1.4000004 0 0 0 6.9500022,2.0999989 Z m 1.0500002,1.4000002 a 1.0500003,1.4000004 0 0 0 1.0500006,1.4000006 1.0500003,1.4000004 0 0 0 1.05,-1.4000006 1.0500003,1.4000004 0 0 0 -1.05,-1.4000002 1.0500003,1.4000004 0 0 0 -1.0500006,1.4000002 z" />
  <path
     id="path10049"
     style="fill:#1a1a1a;fill-opacity:1;stroke-width:0.7;stroke-linejoin:round"
     d="m 6.9500036,2.7999995 a 0.35000018,0.70000034 0 0 0 -0.3500034,0.7 0.35000018,0.70000034 0 0 0 0.3500034,0.7000002 0.35000018,0.70000034 0 0 0 0.3500032,-0.7000002 0.35000018,0.70000034 0 0 0 -0.3500032,-0.7 z m 2.1000004,0 a 0.35000018,0.70000034 0 0 0 -0.3500026,0.7 0.35000018,0.70000034 0 0 0 0.3500026,0.7000002 0.35000018,0.70000034 0 0 0 0.350003,-0.7000002 0.35000018,0.70000034 0 0 0 -0.350003,-0.7 z" />
  <path
     id="path5299"
     style="fill:url(#linearGradient9531);fill-opacity:1;stroke-width:0.7;stroke-linejoin:round"
     d="m 9.400003,5.2500011 c 0,0.773199 -0.6268012,1.7500006 -1.4000006,1.7500006 -0.7731988,0 -1.4000002,-0.9768016 -1.4000002,-1.7500006 0,-0.7731994 0.6268014,-1.0500006 1.4000002,-1.0500006 0.7731994,0 1.4000006,0.276801 1.4000006,1.0500006 z"
     sodipodi:nodetypes="sssss" />
</svg>
