<?xml version="1.0" encoding="UTF-8" standalone="no"?>
<!-- Created with Inkscape (http://www.inkscape.org/) -->

<svg
   width="16"
   height="16"
   viewBox="0 0 16 16"
   version="1.1"
   id="svg5"
   inkscape:version="1.2.1 (9c6d41e410, 2022-07-14, custom)"
   sodipodi:docname="preferences-desktop-theme-windowdecorations.svg"
   xmlns:inkscape="http://www.inkscape.org/namespaces/inkscape"
   xmlns:sodipodi="http://sodipodi.sourceforge.net/DTD/sodipodi-0.dtd"
   xmlns:xlink="http://www.w3.org/1999/xlink"
   xmlns="http://www.w3.org/2000/svg"
   xmlns:svg="http://www.w3.org/2000/svg">
  <sodipodi:namedview
     id="namedview7"
     pagecolor="#ffffff"
     bordercolor="#666666"
     borderopacity="1.0"
     inkscape:pageshadow="2"
     inkscape:pageopacity="0.0"
     inkscape:pagecheckerboard="0"
     inkscape:document-units="px"
     showgrid="false"
     units="px"
     height="64px"
     inkscape:zoom="51.6875"
     inkscape:cx="6.95526"
     inkscape:cy="7.9903265"
     inkscape:window-width="1920"
     inkscape:window-height="1012"
     inkscape:window-x="0"
     inkscape:window-y="0"
     inkscape:window-maximized="1"
     inkscape:current-layer="svg5"
     inkscape:showpageshadow="2"
     inkscape:deskcolor="#d1d1d1" />
  <defs
     id="defs2">
    <linearGradient
       inkscape:collect="always"
       xlink:href="#linearGradient34770"
       id="linearGradient5000"
       x1="1.3890625"
       y1="-3.175"
       x2="2.7956591"
       y2="-4.1435666"
       gradientUnits="userSpaceOnUse"
       gradientTransform="matrix(1.2262116,1.2262116,1.2752453,-1.2752453,7.8206357,4.6743403)" />
    <linearGradient
       inkscape:collect="always"
       id="linearGradient34770">
      <stop
         style="stop-color:#f8a731;stop-opacity:1;"
         offset="0"
         id="stop34766" />
      <stop
         style="stop-color:#ea631d;stop-opacity:1"
         offset="1"
         id="stop34768" />
    </linearGradient>
    <linearGradient
       inkscape:collect="always"
       xlink:href="#linearGradient2353"
       id="linearGradient1623"
       x1="1.490428"
       y1="0.96836084"
       x2="3.9701264"
       y2="1.9523772"
       gradientUnits="userSpaceOnUse"
       gradientTransform="matrix(1.440726,1.440726,-1.4864516,1.4864516,8.304498,3.2036672)" />
    <linearGradient
       inkscape:collect="always"
       id="linearGradient2353">
      <stop
         style="stop-color:#c6d0d7;stop-opacity:1;"
         offset="0"
         id="stop2349" />
      <stop
         style="stop-color:#82888b;stop-opacity:1"
         offset="1"
         id="stop2351" />
    </linearGradient>
  </defs>
  <path
     id="rect261617"
     style="fill:#797774;stroke-width:0.414716;stroke-linecap:round;stroke-linejoin:round"
     d="m 2,1 h 11.999999 c 1.108,0 2,0.8919999 2,2.0000001 V 13 c 0,1.108 -0.892,2 -2,2 H 2 C 0.89200001,15 0,14.108 0,13 V 3.0000001 C 0,1.8919999 0.89200001,1 2,1 Z"
     sodipodi:nodetypes="sssssssss" />
  <path
     id="rect1043"
     style="fill:#fafafa;fill-opacity:1;stroke-width:3;stroke-linecap:round;stroke-linejoin:round"
     d="M 1.9999996,3.9999997 H 13.999999 c 0.554,0 1,0.4460001 1,0.9999998 v 7.9999995 c 0,0.553999 -0.446,0.999999 -1,0.999999 H 1.9999996 c -0.5539998,0 -0.99999979,-0.446 -0.99999979,-0.999999 V 4.9999995 c 0,-0.5539997 0.44599999,-0.9999998 0.99999979,-0.9999998 z"
     sodipodi:nodetypes="sssssssss" />
  <path
     id="rect1066"
     style="fill:#c4c4c4;fill-opacity:1;stroke-width:1.5;stroke-linecap:round;stroke-linejoin:round"
     d="M 9.9999997,1.9999999 V 2.9999997 H 10.999999 V 1.9999999 Z m 2.0000003,0 v 0.9999998 h 0.999999 V 1.9999999 Z m 1.999999,0 v 0.9999998 h 1 V 1.9999999 Z" />
  <path
     id="path6136"
     style="color:#000000;fill:url(#linearGradient5000);stroke-width:0.467906;stroke-linecap:round;stroke-linejoin:round;-inkscape-stroke:none"
     d="M 6.6548106,10.186233 C 4.6591698,9.6722586 4.541185,11.604918 4.0428211,12.261815 c -0.090936,0.131187 -0.021317,0.188885 0.062967,0.240601 1.4814848,0.168018 3.3215742,-1.147491 2.5490225,-2.316183 z"
     sodipodi:nodetypes="cccc" />
  <path
     id="path2852"
     style="color:#000000;fill:url(#linearGradient1623);fill-opacity:1;stroke-width:0.547574;stroke-linecap:round;stroke-linejoin:round;-inkscape-stroke:none"
     d="M 11.786602,5.0544429 C 11.180895,4.4487237 6.54582,9.0795565 5.7184765,9.9068856 c -0.00362,0.00327 -0.00677,0.00677 -0.01028,0.01028 -0.1122482,0.1122484 -0.1122482,0.2929804 0,0.4052264 l 0.8104542,0.810464 c 0.1122482,0.112248 0.2929777,0.112248 0.4052278,0 0.00353,-0.0035 0.00699,-0.0067 0.01028,-0.01028 0.8273298,-0.827352 5.4581435,-5.4624461 4.8524435,-6.0681331 z"
     sodipodi:nodetypes="ccsssscc" />
</svg>
