<?xml version="1.0" encoding="UTF-8" standalone="no"?>
<!-- Created with Inkscape (http://www.inkscape.org/) -->

<svg
   width="16"
   height="16"
   viewBox="0 0 16 16"
   version="1.1"
   id="svg5"
   inkscape:version="1.2.1 (9c6d41e410, 2022-07-14, custom)"
   sodipodi:docname="preferences-system-windows.svg"
   xmlns:inkscape="http://www.inkscape.org/namespaces/inkscape"
   xmlns:sodipodi="http://sodipodi.sourceforge.net/DTD/sodipodi-0.dtd"
   xmlns="http://www.w3.org/2000/svg"
   xmlns:svg="http://www.w3.org/2000/svg">
  <sodipodi:namedview
     id="namedview7"
     pagecolor="#ffffff"
     bordercolor="#666666"
     borderopacity="1.0"
     inkscape:pageshadow="2"
     inkscape:pageopacity="0.0"
     inkscape:pagecheckerboard="0"
     inkscape:document-units="px"
     showgrid="false"
     units="px"
     height="64px"
     inkscape:zoom="50.125"
     inkscape:cx="7.9900249"
     inkscape:cy="8"
     inkscape:window-width="1920"
     inkscape:window-height="1011"
     inkscape:window-x="0"
     inkscape:window-y="0"
     inkscape:window-maximized="1"
     inkscape:current-layer="svg5"
     inkscape:showpageshadow="2"
     inkscape:deskcolor="#d1d1d1" />
  <defs
     id="defs2" />
  <path
     d="m 3.9999997,0 h 9.9999993 c 1.108,0 2,0.8919999 2,2.0000001 V 10 c 0,1.108 -0.892,2 -2,2 H 3.9999997 c -1.108,0 -2,-0.892 -2,-2 V 2.0000001 c 0,-1.1080002 0.892,-2.0000001 2,-2.0000001 z"
     style="fill:#797774;stroke-width:0.414716;stroke-linecap:round;stroke-linejoin:round"
     id="path430"
     sodipodi:nodetypes="sssssssss" />
  <path
     d="m 3.9999997,3 h 9.9999993 c 0.554,0 1,0.4460001 1,0.9999998 V 10 c 0,0.553999 -0.446,1 -1,1 H 3.9999997 C 3.4459999,11 2.9999999,10.554 2.9999999,10 V 3.9999998 C 2.9999999,3.4460001 3.4459999,3 3.9999997,3 Z"
     style="fill:#fafafa;fill-opacity:1;stroke-width:3;stroke-linecap:round;stroke-linejoin:round"
     id="path397"
     sodipodi:nodetypes="sssssssss" />
  <path
     d="M 9.9999997,1.0000001 V 1.9999999 H 10.999999 V 1.0000001 Z m 2.0000003,0 v 0.9999998 h 0.999999 V 1.0000001 Z m 1.999999,0 v 0.9999998 h 1 V 1.0000001 Z"
     style="fill:#c4c4c4;fill-opacity:1;stroke-width:1.5;stroke-linecap:round;stroke-linejoin:round"
     id="path463" />
  <path
     id="rect261617"
     style="fill:#797774;stroke-width:0.414716;stroke-linecap:round;stroke-linejoin:round"
     d="m 2,4.0000002 h 9.999999 c 1.108,0 2,0.8919999 2,2.0000001 V 14 c 0,1.108 -0.892,2 -2,2 H 2 C 0.89200001,16 0,15.108 0,14 V 6.0000003 C 0,4.8920001 0.89200001,4.0000002 2,4.0000002 Z"
     sodipodi:nodetypes="sssssssss" />
  <path
     id="rect1043"
     style="fill:#fafafa;fill-opacity:1;stroke-width:3;stroke-linecap:round;stroke-linejoin:round"
     d="m 1.9999996,6.9999999 h 9.9999994 c 0.554,0 1,0.4460001 1,0.9999998 v 6.0000013 c 0,0.553999 -0.446,0.999999 -1,0.999999 H 1.9999996 C 1.4459998,15 0.99999981,14.554 0.99999981,14.000001 V 7.9999997 c 0,-0.5539997 0.44599999,-0.9999998 0.99999979,-0.9999998 z"
     sodipodi:nodetypes="sssssssss" />
  <path
     id="rect1066"
     style="fill:#c4c4c4;fill-opacity:1;stroke-width:1.5;stroke-linecap:round;stroke-linejoin:round"
     d="M 7.9999997,5.0000001 V 5.9999999 H 8.999999 V 5.0000001 Z m 2.0000003,0 v 0.9999998 h 0.999999 V 5.0000001 Z m 1.999999,0 v 0.9999998 h 1 V 5.0000001 Z"
     sodipodi:nodetypes="ccccccccccccccc" />
</svg>
