<?xml version="1.0" encoding="UTF-8" standalone="no"?>
<!-- Created with Inkscape (http://www.inkscape.org/) -->

<svg
   width="16"
   height="16"
   viewBox="0 0 16 16"
   version="1.1"
   id="svg2535"
   inkscape:version="1.2 (1:1.2.1+202207142221+cd75a1ee6d)"
   sodipodi:docname="preferences-desktop-color.svg"
   xmlns:inkscape="http://www.inkscape.org/namespaces/inkscape"
   xmlns:sodipodi="http://sodipodi.sourceforge.net/DTD/sodipodi-0.dtd"
   xmlns="http://www.w3.org/2000/svg"
   xmlns:svg="http://www.w3.org/2000/svg">
  <sodipodi:namedview
     id="namedview2537"
     pagecolor="#ffffff"
     bordercolor="#000000"
     borderopacity="0.25"
     inkscape:showpageshadow="2"
     inkscape:pageopacity="0.0"
     inkscape:pagecheckerboard="0"
     inkscape:deskcolor="#d1d1d1"
     inkscape:document-units="px"
     showgrid="false"
     inkscape:zoom="50.625"
     inkscape:cx="7.9901235"
     inkscape:cy="8"
     inkscape:window-width="1920"
     inkscape:window-height="1012"
     inkscape:window-x="0"
     inkscape:window-y="0"
     inkscape:window-maximized="1"
     inkscape:current-layer="svg2535"
     showguides="false"
     inkscape:lockguides="true" />
  <defs
     id="defs2532">
    <linearGradient
       id="linearGradient45680"
       x1="-102.06"
       x2="-102.06"
       y1="1.3231"
       y2="19.157"
       gradientTransform="matrix(0.92518514,0,0,0.89590328,103.2918,-1.1853387)"
       gradientUnits="userSpaceOnUse">
      <stop
         stop-color="#ffdc23"
         offset="0"
         id="stop22" />
      <stop
         stop-color="#e6628a"
         offset=".31552"
         id="stop24" />
      <stop
         stop-color="#7b5fc1"
         offset=".55428"
         id="stop26" />
      <stop
         stop-color="#1e9be1"
         offset=".79721"
         id="stop28" />
      <stop
         stop-color="#0082dc"
         offset="1"
         id="stop30" />
    </linearGradient>
    <linearGradient
       id="linearGradient1954"
       x1="-109.09"
       x2="-101.26"
       y1="11.122"
       y2="18.440001"
       gradientTransform="matrix(0.92518514,0,0,0.89590328,103.2918,-1.1853487)"
       gradientUnits="userSpaceOnUse">
      <stop
         stop-color="#64d2eb"
         offset="0"
         id="stop2" />
      <stop
         stop-color="#0082dc"
         offset="1"
         id="stop4" />
    </linearGradient>
    <linearGradient
       id="linearGradient1431"
       x1="-107.04"
       x2="-99.660004"
       y1="6.9531002"
       y2="17.895"
       gradientTransform="matrix(0.92518514,0,0,0.89590328,103.2918,-1.1853891)"
       gradientUnits="userSpaceOnUse">
      <stop
         stop-color="#a578e1"
         offset="0"
         id="stop7" />
      <stop
         stop-color="#5046a0"
         offset="1"
         id="stop9" />
    </linearGradient>
    <linearGradient
       id="linearGradient1439"
       x1="-105"
       x2="-97.016998"
       y1="4.2921"
       y2="13.799"
       gradientTransform="matrix(0.92518514,0,0,0.89590328,103.2918,-1.1850666)"
       gradientUnits="userSpaceOnUse">
      <stop
         stop-color="#eb82aa"
         offset="0"
         id="stop12" />
      <stop
         stop-color="#dc2850"
         offset="1"
         id="stop14" />
    </linearGradient>
    <linearGradient
       id="linearGradient1447"
       x1="-102.1"
       x2="-98.566002"
       y1="1.4752001"
       y2="7.8610001"
       gradientTransform="matrix(0.92518514,0,0,0.89590328,103.28138,-1.1851875)"
       gradientUnits="userSpaceOnUse">
      <stop
         stop-color="#ffdc23"
         offset="0"
         id="stop17" />
      <stop
         stop-color="#f0a019"
         offset="1"
         id="stop19" />
    </linearGradient>
  </defs>
  <path
     d="M 8.8707529,1.0429207e-5 C 8.6859749,-0.00139957 8.5313699,0.14063113 8.5313699,0.14063113 7.7312409,0.81570573 7.0583839,1.4572377 6.4412744,2.0802143 v 5.143e-4 C 5.6960178,2.8329275 5.1097377,3.5285634 4.5921326,4.1952826 3.3610365,5.7810959 2.7771296,7.047208 2.4342795,8.050462 h -5.342e-4 c 4.46e-5,1.64e-4 -4e-5,3.42e-4 0,5.32e-4 6.63e-5,1.73e-4 -5.82e-5,3.44e-4 0,4.96e-4 -0.4540944,1.329407 -0.4335062,2.146906 -0.4335062,2.146906 -1e-5,3.203981 2.6820157,5.801615 5.9906118,5.801515 0.525517,0 1.027593,-0.0836 1.511392,-0.207807 1.6361881,-0.420048 2.9964521,-1.485226 3.7703101,-2.909374 v -0.001 c 0.437836,-0.805839 0.709432,-1.709483 0.709432,-2.683307 h 0.01235 c 0,0 0.138703,-1.433319 -0.978892,-3.3181742 C 12.847296,6.6694072 12.552554,6.2674119 12.335052,5.9943135 12.168716,5.9601375 12.005503,5.9255935 11.844529,5.8906727 12.00515,5.9255207 12.16857,5.9596967 12.33451,5.9937991 10.945436,4.7790807 9.4327949,4.0512834 9.0950449,0.72040893 9.0382349,0.31824063 9.1625159,1.0022921e-4 8.8707569,1.0022921e-4 Z M 7.4610499,4.1723722 c 0.02731,0.021124 0.05533,0.041949 0.08391,0.063021 0.02858,0.021078 0.0578,0.042525 0.08767,0.063542 -0.02987,-0.021014 -0.05909,-0.041949 -0.08767,-0.063018 -0.02858,-0.021082 -0.0566,-0.042423 -0.08391,-0.063542 z m 1.061233,0.6432251 c 0.06908,0.033691 0.139754,0.067178 0.212985,0.100523 -0.07336,-0.033402 -0.143811,-0.066773 -0.212985,-0.100523 z m 0.486224,0.2197909 c 0.08059,0.033806 0.163807,0.067167 0.24903,0.10052 -0.08509,-0.033303 -0.168562,-0.066766 -0.24903,-0.10052 z M 4.6201518,5.2629893 c 0.013064,0.058825 0.028544,0.1179131 0.045712,0.1765623 -0.017208,-0.058815 -0.032624,-0.1175714 -0.045712,-0.1765623 z m 6.8630382,0.546357 c 0.05966,0.01376 0.119796,0.02756 0.180721,0.041144 -0.06095,-0.0136 -0.121019,-0.027384 -0.180721,-0.041144 z M 6.235315,7.3707696 c 0.077736,0.051432 0.1590083,0.10228 0.2431065,0.1526048 C 6.3943098,7.4730464 6.3130428,7.4222016 6.235315,7.3707696 Z m 0.5050434,0.3020848 c 0.090658,0.049152 0.1844541,0.097436 0.2818355,0.1453064 C 6.9248164,7.7702888 6.8310127,7.7219968 6.7403584,7.6728544 Z M 7.9935189,8.230661 c 0.118707,0.04364 0.241161,0.08656 0.36735,0.128647 -0.126189,-0.04209 -0.248643,-0.08501 -0.36735,-0.128647 z m 0.559362,0.191147 c 0.130004,0.04127 0.26352,0.08175 0.401242,0.121351 -0.137723,-0.0396 -0.27124,-0.08008 -0.401242,-0.121351 z m 0.826683,0.237499 c 0.0728,0.01892 0.14625,0.03726 0.221063,0.05573 0.07481,0.01846 0.148329,0.03781 0.220521,0.05729 -0.07218,-0.01948 -0.145728,-0.0383 -0.220521,-0.05677 -0.0748,-0.01846 -0.148257,-0.03734 -0.221063,-0.05626 z m 1.7722241,0.593224 c 0.109596,0.05218 0.214421,0.105829 0.314644,0.161453 -0.100236,-0.05563 -0.205043,-0.109276 -0.314644,-0.161453 z m 1.202682,0.80469 c 0.06944,0.06654 0.134571,0.13433 0.195782,0.203645 -0.06121,-0.06932 -0.12635,-0.137115 -0.195782,-0.203645 z m 0.444269,0.524475 c 0.04936,0.07322 0.09484,0.147775 0.136619,0.223439 -0.04178,-0.07566 -0.08725,-0.150205 -0.136619,-0.223439 z m -2.632785,4.720855 c -0.06644,0.05978 -0.135817,0.118508 -0.2070721,0.175523 0.07126,-0.05702 0.1406251,-0.115746 0.2070721,-0.175523 z m -0.3151851,0.259895 c -0.03656,0.02776 -0.07351,0.05529 -0.110796,0.0823 -0.01946,0.01408 -0.03894,0.0267 -0.05863,0.03907 0.0197,-0.01235 0.03916,-0.0255 0.05863,-0.03958 0.03728,-0.02701 0.07424,-0.05401 0.110796,-0.08177 z"
     fill="url(#linearGradient45680)"
     id="path35"
     style="fill:url(#linearGradient45680);stroke-width:0.910428" />
  <path
     d="M 2.4342483,8.050571 C 1.979769,9.380583 2.0001378,10.198687 2.0001378,10.198687 2.0001287,13.402668 4.6824668,16.000102 7.9910629,16 c 0.525516,0 1.02751,-0.08367 1.511288,-0.207865 0.07984,-0.05285 0.159779,-0.09133 0.237602,-0.147678 0.2983331,-0.216011 0.5759961,-0.457139 0.7855041,-0.715279 0.10476,-0.129059 0.192305,-0.262273 0.25721,-0.399074 0.06491,-0.136791 0.107196,-0.276786 0.120479,-0.419443 0.01328,-0.142657 -0.0025,-0.288065 -0.0526,-0.434724 C 10.80045,13.52929 10.715713,13.38119 10.59047,13.232426 10.465222,13.083661 10.299669,12.934242 10.087505,12.785204 9.8753509,12.636168 9.6166739,12.487726 9.3058289,12.340302 8.9949849,12.192868 8.6318069,12.04629 8.2104579,11.902344 7.7891699,11.758386 7.3096379,11.61687 6.7661992,11.478264 6.2226973,11.339659 5.7394282,11.177489 5.3103877,10.994931 4.8813143,10.81237 4.5064905,10.609331 4.1810841,10.389834 3.8557216,10.170346 3.579672,9.934146 3.3472855,9.684745 3.1149107,9.435331 2.9261037,9.172807 2.775964,8.900485 2.6258241,8.628162 2.5141845,8.346094 2.4355697,8.057898 c -6.464e-4,-0.0024 -7.65e-4,-0.0049 -0.00187,-0.0074 z"
     fill="url(#linearGradient1954)"
     id="path37"
     style="fill:url(#linearGradient1954);stroke-width:0.910428" />
  <path
     d="m 2.4336236,8.050571 c 6.463e-4,0.0024 7.649e-4,0.005 0.00187,0.0074 0.078644,0.288207 0.1902547,0.570275 0.3403942,0.842587 0.1501396,0.272311 0.3389366,0.534846 0.5713233,0.784258 0.2323861,0.249413 0.5084341,0.485602 0.833799,0.70509 0.325364,0.219488 0.7001782,0.422538 1.1293036,0.605097 0.4290613,0.182558 0.912288,0.344728 1.4558107,0.483333 0.5435125,0.138606 1.0230655,0.280123 1.4442595,0.424081 0.421286,0.143957 0.784464,0.290533 1.095371,0.437957 0.310845,0.147434 0.569521,0.295876 0.7816761,0.444904 0.212164,0.149036 0.377717,0.298444 0.502961,0.44722 0.125244,0.148775 0.209988,0.296864 0.260083,0.443512 0.05009,0.146649 0.06588,0.292066 0.05257,0.434724 -0.01328,0.142656 -0.05557,0.282651 -0.120477,0.419442 -0.06491,0.13679 -0.15245,0.270004 -0.25721,0.399074 -0.20952,0.258132 -0.487171,0.499269 -0.7855051,0.71528 -0.07782,0.05635 -0.15777,0.09484 -0.2376,0.147676 1.6361861,-0.420048 2.9963471,-1.485529 3.7702041,-2.909677 0.0029,-0.02395 0.01319,-0.04929 0.01579,-0.07315 0.03858,-0.359121 0.0341,-0.708868 -0.022,-1.044475 C 13.210153,11.429285 13.102563,11.107839 12.935416,10.8052 12.768278,10.502568 12.541543,10.218848 12.246978,9.958479 11.952412,9.69809 11.590004,9.461196 11.151605,9.252463 10.71327,9.043728 10.19913,8.863145 9.6007669,8.715419 9.0022889,8.56773 8.4682369,8.405298 7.9934089,8.230742 7.5186029,8.056185 7.1029669,7.869464 6.7403521,7.6728744 6.3777162,7.4762856 6.0681298,7.2700208 5.8061944,7.0562072 5.5442278,6.8424032 5.329754,6.6213232 5.1569448,6.3951023 4.9841357,6.1688911 4.8528872,5.9372583 4.7577338,5.7034375 4.6625916,5.4696171 4.603607,5.2335694 4.5746207,4.9969573 4.5456688,4.7603447 4.5470527,4.5232186 4.5727007,4.2886323 c 0.00376,-0.031425 0.014792,-0.061723 0.01916,-0.093059 C 3.3607745,5.7813871 2.7770759,7.0473984 2.4342257,8.050652 Z"
     fill="url(#linearGradient1431)"
     id="path39"
     style="fill:url(#linearGradient1431);stroke-width:0.910428" />
  <path
     d="m 4.5918935,4.1954929 c -0.00456,0.031337 -0.015728,0.061633 -0.019168,0.093059 -0.025624,0.2345967 -0.027096,0.4717231 0.00192,0.7083254 0.028952,0.2366118 0.087982,0.472659 0.1831139,0.7064798 0.095143,0.2338208 0.2264026,0.4654536 0.3992126,0.6916648 0.1728075,0.2262113 0.3872822,0.4473009 0.6492496,0.6611049 0.2619777,0.2138048 0.5715633,0.4200688 0.9341577,0.6166672 0.3626366,0.1965896 0.7782716,0.3833 1.2530576,0.557867 0.474805,0.174556 1.008909,0.336998 1.607356,0.484715 0.5984791,0.147725 1.1126491,0.328299 1.5509441,0.537044 0.438356,0.208733 0.800744,0.445629 1.095371,0.706016 0.294555,0.260389 0.521302,0.5441 0.688458,0.846758 0.167159,0.30266 0.274739,0.624147 0.330841,0.959694 0.0561,0.335576 0.06058,0.685325 0.022,1.044476 -0.0026,0.02386 -0.01283,0.04921 -0.01579,0.07315 0.437972,-0.805939 0.709484,-1.709784 0.709484,-2.68381 h 0.01244 c 0,0 0.13847,-1.433622 -0.979122,-3.3184768 C 12.847259,6.6693896 12.552568,6.2672103 12.335075,5.9941135 11.808751,5.8859671 11.302012,5.7748767 10.860625,5.6556831 10.335838,5.5139744 9.8685469,5.365371 9.4536289,5.2112449 9.0386809,5.057118 8.6759729,4.8974784 8.3598189,4.7343916 8.0435939,4.5713051 7.7737779,4.404358 7.5451499,4.2357885 7.3165099,4.067219 7.1288689,3.8971173 6.9767003,3.7265322 6.8245191,3.555947 6.707853,3.3850186 6.6209955,3.2158845 6.5341166,3.0467504 6.4772455,2.879179 6.4445856,2.7149531 6.4119217,2.5507378 6.4035937,2.3897679 6.4139696,2.2339378 6.4177297,2.1807828 6.4340496,2.1321409 6.4417217,2.080234 5.6962107,2.8326445 5.1096601,3.5285722 4.5919511,4.1954929 Z"
     fill="url(#linearGradient1439)"
     id="path41"
     style="fill:url(#linearGradient1439);stroke-width:0.910428" />
  <path
     d="m 6.4414512,2.0801338 c -0.00736,0.051918 -0.02424,0.1005353 -0.027752,0.1537036 -0.010404,0.1558288 -0.00192,0.3167998 0.030624,0.4810155 0.032664,0.1642153 0.089554,0.3317874 0.1764106,0.5009211 0.086878,0.1691353 0.2035243,0.3400622 0.355704,0.5106477 0.1521691,0.1705862 0.3398101,0.3406868 0.5684491,0.5092563 0.22863,0.1685692 0.498446,0.3355269 0.814671,0.4986034 0.316215,0.1630873 0.678925,0.3227159 1.093811,0.4768526 0.414916,0.1541376 0.8822301,0.3027296 1.4069951,0.4444395 0.441366,0.1191816 0.948126,0.2302832 1.474444,0.3384288 C 10.94571,4.7792933 9.4325499,4.0512944 9.0947979,0.72041993 9.0379869,0.31825163 9.1623409,5.0629207e-5 8.8705829,5.0629207e-5 8.6858029,-0.00135737 8.5316139,0.14079243 8.5316139,0.14079243 7.7314839,0.81586703 7.0585229,1.4571973 6.4414145,2.080174 Z"
     fill="url(#linearGradient1447)"
     id="path43"
     style="fill:url(#linearGradient1447);stroke-width:0.910428" />
</svg>
