<?xml version="1.0" encoding="UTF-8" standalone="no"?>
<!-- Created with Inkscape (http://www.inkscape.org/) -->

<svg
   width="16"
   height="16"
   viewBox="0 0 16 16"
   version="1.1"
   id="svg2112"
   inkscape:version="1.2.1 (9c6d41e410, 2022-07-14, custom)"
   sodipodi:docname="preferences-desktop-emoticons.svg"
   xmlns:inkscape="http://www.inkscape.org/namespaces/inkscape"
   xmlns:sodipodi="http://sodipodi.sourceforge.net/DTD/sodipodi-0.dtd"
   xmlns:xlink="http://www.w3.org/1999/xlink"
   xmlns="http://www.w3.org/2000/svg"
   xmlns:svg="http://www.w3.org/2000/svg">
  <sodipodi:namedview
     id="namedview2114"
     pagecolor="#ffffff"
     bordercolor="#000000"
     borderopacity="0.25"
     inkscape:showpageshadow="2"
     inkscape:pageopacity="0.0"
     inkscape:pagecheckerboard="0"
     inkscape:deskcolor="#d1d1d1"
     inkscape:document-units="px"
     showgrid="false"
     inkscape:zoom="50.125"
     inkscape:cx="8"
     inkscape:cy="8"
     inkscape:window-width="1920"
     inkscape:window-height="1011"
     inkscape:window-x="0"
     inkscape:window-y="0"
     inkscape:window-maximized="1"
     inkscape:current-layer="svg2112" />
  <defs
     id="defs2109">
    <linearGradient
       inkscape:collect="always"
       id="linearGradient1021">
      <stop
         style="stop-color:#ffdd2e;stop-opacity:1;"
         offset="0"
         id="stop1017" />
      <stop
         style="stop-color:#ffab03;stop-opacity:1;"
         offset="1"
         id="stop1019" />
    </linearGradient>
    <linearGradient
       inkscape:collect="always"
       xlink:href="#linearGradient1021"
       id="linearGradient4020"
       x1="32"
       y1="4"
       x2="60"
       y2="60"
       gradientUnits="userSpaceOnUse"
       gradientTransform="matrix(0.28571428,0,0,0.28571428,-1.1428571,-1.1428571)" />
  </defs>
  <circle
     style="fill:url(#linearGradient4020);fill-opacity:1;stroke-width:0.285714;stroke-linecap:round;stroke-linejoin:round"
     id="path368"
     cx="8"
     cy="8"
     r="8" />
  <path
     id="path375"
     style="fill:#313131;stroke-width:0.333333;stroke-linecap:round;stroke-linejoin:round;opacity:0.8;fill-opacity:1"
     d="M 5,4 C 4.4477159,4 4,4.4477159 4,5 4,5.5522841 4.4477159,6 5,6 5.5522841,6 6,5.5522841 6,5 6,4.4477159 5.5522841,4 5,4 Z m 6,0 c -0.552284,0 -1,0.4477159 -1,1 0,0.5522841 0.447716,1 1,1 0.552284,0 1,-0.4477159 1,-1 C 12,4.4477159 11.552284,4 11,4 Z M 4.7402344,9.6875 a 0.5,0.5 0 0 0 -0.2753906,0.140625 0.5,0.5 0 0 0 0,0.707031 C 5.402388,11.4727 6.6741123,12 8,12 c 1.325888,0 2.597612,-0.5273 3.535156,-1.464844 a 0.5,0.5 0 0 0 0,-0.707031 0.5,0.5 0 0 0 -0.707031,0 C 10.077845,10.578405 9.061056,11 8,11 6.9389441,11 5.9221548,10.578405 5.171875,9.828125 A 0.5,0.5 0 0 0 4.7402344,9.6875 Z" />
</svg>
