<?xml version="1.0" encoding="UTF-8" standalone="no"?>
<!-- Created with Inkscape (http://www.inkscape.org/) -->

<svg
   width="16"
   height="16"
   viewBox="0 0 16 16"
   version="1.1"
   id="svg69118"
   inkscape:version="1.2.1 (9c6d41e410, 2022-07-14, custom)"
   sodipodi:docname="preferences-desktop-locale.svg"
   xmlns:inkscape="http://www.inkscape.org/namespaces/inkscape"
   xmlns:sodipodi="http://sodipodi.sourceforge.net/DTD/sodipodi-0.dtd"
   xmlns:xlink="http://www.w3.org/1999/xlink"
   xmlns="http://www.w3.org/2000/svg"
   xmlns:svg="http://www.w3.org/2000/svg">
  <sodipodi:namedview
     id="namedview69120"
     pagecolor="#ffffff"
     bordercolor="#666666"
     borderopacity="1.0"
     inkscape:pageshadow="2"
     inkscape:pageopacity="0.0"
     inkscape:pagecheckerboard="0"
     inkscape:document-units="px"
     showgrid="false"
     units="px"
     inkscape:zoom="50.625"
     inkscape:cx="8"
     inkscape:cy="8"
     inkscape:window-width="1920"
     inkscape:window-height="1012"
     inkscape:window-x="0"
     inkscape:window-y="0"
     inkscape:window-maximized="1"
     inkscape:current-layer="svg69118"
     inkscape:showpageshadow="2"
     inkscape:deskcolor="#d1d1d1" />
  <defs
     id="defs69115">
    <linearGradient
       inkscape:collect="always"
       id="linearGradient3605">
      <stop
         style="stop-color:#0d6eaa;stop-opacity:1;"
         offset="0"
         id="stop3601" />
      <stop
         style="stop-color:#185086;stop-opacity:1"
         offset="1"
         id="stop3603" />
    </linearGradient>
    <linearGradient
       inkscape:collect="always"
       id="linearGradient1014">
      <stop
         style="stop-color:#33bff0;stop-opacity:1"
         offset="0"
         id="stop1010" />
      <stop
         style="stop-color:#1c9fe3;stop-opacity:1"
         offset="1"
         id="stop1012" />
    </linearGradient>
    <linearGradient
       inkscape:collect="always"
       xlink:href="#linearGradient3605"
       id="linearGradient1697"
       x1="12.500001"
       y1="4.0001912"
       x2="16"
       y2="13"
       gradientUnits="userSpaceOnUse" />
    <linearGradient
       inkscape:collect="always"
       xlink:href="#linearGradient1014"
       id="linearGradient1705"
       x1="7.2109375"
       y1="7.4824219"
       x2="10.197266"
       y2="15.986328"
       gradientUnits="userSpaceOnUse"
       gradientTransform="translate(0,-0.01677753)" />
    <linearGradient
       inkscape:collect="always"
       xlink:href="#linearGradient984"
       id="linearGradient7450"
       x1="13.809379"
       y1="13.973848"
       x2="2.3889806"
       y2="3.7831419"
       gradientUnits="userSpaceOnUse"
       gradientTransform="matrix(0.78197122,0,0,0.78197122,-0.62069048,-0.62068668)" />
    <linearGradient
       inkscape:collect="always"
       id="linearGradient984">
      <stop
         style="stop-color:#117bb9;stop-opacity:1;"
         offset="0"
         id="stop980" />
      <stop
         style="stop-color:#15b393;stop-opacity:1"
         offset="1"
         id="stop982" />
    </linearGradient>
  </defs>
  <circle
     style="fill:url(#linearGradient7450);fill-opacity:1;stroke-width:0.881002;stroke-linecap:round;stroke-linejoin:round"
     id="path7362"
     cx="6"
     cy="6.0000019"
     r="6" />
  <path
     id="path1250"
     style="opacity:0.3;fill:#ffffff;stroke-width:2;stroke-linecap:round"
     d="M 6.007812,3.2284287e-7 A 2,6 0 0 1 7.740234,3 H 4.275389 A 2,6 0 0 1 6.007812,3.2284287e-7 Z m 0,0 A 6,6 0 0 0 4.318359,0.24218832 3,7 0 0 0 3.3046865,3 H 0.82812352 a 6,6 0 0 0 -0.460937,1 H 3.1367175 a 3,7 0 0 0 -0.128906,2 3,7 0 0 0 0.128906,2 H 0.36718652 a 6,6 0 0 0 0.460937,1 H 3.3046865 A 3,7 0 0 0 4.318359,11.757812 6,6 0 0 0 6.007812,12 2,6 0 0 1 4.275389,9 H 7.740234 A 2,6 0 0 1 6.007812,12 6,6 0 0 0 7.697265,11.757812 3,7 0 0 0 8.710937,9 H 11.1875 A 6,6 0 0 0 11.648437,8 H 8.878906 a 3,7 0 0 0 0.128906,-2 3,7 0 0 0 -0.125,-2 h 2.78125 A 6,6 0 0 0 11.201171,3 H 8.71875 A 3,7 0 0 0 7.705078,0.24609432 6,6 0 0 0 6.007812,3.2284287e-7 Z M 4.126953,4 H 7.892578 A 2,6 0 0 1 8.007812,6 2,6 0 0 1 7.888671,8 H 4.126953 A 2,6 0 0 1 4.007811,6 2,6 0 0 1 4.126953,4 Z" />
  <path
     id="rect294"
     style="fill:url(#linearGradient1697);stroke-width:2.64575;stroke-linecap:round;stroke-linejoin:round;fill-opacity:1"
     d="M 12.474609,4.0001913 C 12.209696,4.0135333 12,4.2318481 12,4.5001913 v 0.5 H 9.525391 c -0.00855,-4.304e-4 -0.016734,0 -0.025391,0 -0.2769994,0 -0.5,0.2230006 -0.5,0.5 v 1 c 0,0.2769994 0.2230006,0.5 0.5,0.5 0.2769994,0 0.5,-0.2230006 0.5,-0.5 v -0.5 h 5 v 0.5 c 0,0.2769994 0.223001,0.5 0.5,0.5 0.276999,0 0.5,-0.2230006 0.5,-0.5 v -1 c 0,-0.268356 -0.209678,-0.4866768 -0.474609,-0.5 -0.0085,-4.304e-4 -0.01673,0 -0.02539,0 h -2.5 v -0.5 c 0,-0.2769994 -0.223001,-0.5 -0.5,-0.5 -0.0087,0 -0.01685,-4.304e-4 -0.02539,0 z m -0.974609,3 c -0.276142,0 -0.5,0.2238582 -0.5,0.5 0,0.2761418 0.223858,0.5 0.5,0.5 h 1.25 l -0.550781,1 h -1.673828 -0.02539 c -0.276142,0 -0.5,0.2238582 -0.5,0.5 0,0.276142 0.223858,0.4999997 0.5,0.4999997 h 1.5 V 12 h -0.47461 c -0.0085,-2.15e-4 -0.01693,-2.15e-4 -0.02539,0 -0.276142,0 -0.5,0.223858 -0.5,0.5 0,0.276142 0.223858,0.5 0.5,0.5 h 0.5 c 0.553997,0 1,-0.446003 1,-1 v -1.999809 h 1.5 c 0.276142,0 0.5,-0.2238577 0.5,-0.4999997 0,-0.2761418 -0.223858,-0.5 -0.5,-0.5 h -1.13672 L 14.076172,7.5451132 C 14.21199,7.2930845 14.164626,7.0001913 13.75,7.0001913 h -2.224609 c -0.0085,-2.149e-4 -0.01693,-2.149e-4 -0.02539,0 z"
     sodipodi:nodetypes="ssccsssssccsssssscsssscsscccsssccccsssscsssccscc" />
  <path
     id="rect855"
     style="fill:url(#linearGradient1705);fill-opacity:1;stroke-linecap:round;stroke-linejoin:round"
     d="M 7.2109375,7.4656444 C 7.0162976,7.4753627 6.8386328,7.5985488 6.7675781,7.7937694 L 4.03125,15.311347 c -0.094739,0.260294 0.038534,0.545886 0.2988281,0.640625 0.2602944,0.09474 0.5458856,-0.03853 0.640625,-0.298828 L 5.9414062,12.983222 H 8.578125 l 0.9785156,2.6875 c 0.09474,0.260295 0.3803303,0.393567 0.6406254,0.298828 0.260293,-0.09474 0.393567,-0.38033 0.298828,-0.640625 L 7.7597656,7.8113475 C 7.7017567,7.6519693 7.571484,7.5398012 7.4199219,7.4988475 c -0.00314,-8.495e-4 -0.0066,-0.00116 -0.00977,-0.00195 l -0.00195,-0.00195 C 7.3431292,7.4712563 7.2758174,7.4624054 7.2109375,7.4656444 Z m 0.048828,1.8964843 0.9550782,2.6210933 H 6.3066406 Z" />
</svg>
