<?xml version="1.0" encoding="UTF-8" standalone="no"?>
<svg
   width="16"
   height="16"
   version="1.1"
   viewBox="0 0 16 16"
   id="svg6"
   sodipodi:docname="preferences-system-backup.svg"
   inkscape:version="1.2.2 (1:1.2.2+202305151914+b0a8486541)"
   xmlns:inkscape="http://www.inkscape.org/namespaces/inkscape"
   xmlns:sodipodi="http://sodipodi.sourceforge.net/DTD/sodipodi-0.dtd"
   xmlns:xlink="http://www.w3.org/1999/xlink"
   xmlns="http://www.w3.org/2000/svg"
   xmlns:svg="http://www.w3.org/2000/svg"
   xmlns:rdf="http://www.w3.org/1999/02/22-rdf-syntax-ns#"
   xmlns:cc="http://creativecommons.org/ns#"
   xmlns:dc="http://purl.org/dc/elements/1.1/">
  <defs
     id="defs10">
    <linearGradient
       inkscape:collect="always"
       id="linearGradient58462">
      <stop
         style="stop-color:#636363;stop-opacity:1;"
         offset="0"
         id="stop58458" />
      <stop
         style="stop-color:#ababab;stop-opacity:0.99607843"
         offset="1"
         id="stop58460" />
    </linearGradient>
    <linearGradient
       inkscape:collect="always"
       id="linearGradient50927">
      <stop
         style="stop-color:#000000;stop-opacity:1;"
         offset="0"
         id="stop50923" />
      <stop
         style="stop-color:#000000;stop-opacity:0;"
         offset="1"
         id="stop50925" />
    </linearGradient>
    <linearGradient
       inkscape:collect="always"
       id="linearGradient50337">
      <stop
         style="stop-color:#ffffff;stop-opacity:1;"
         offset="0"
         id="stop50333" />
      <stop
         style="stop-color:#ffffff;stop-opacity:0;"
         offset="1"
         id="stop50335" />
    </linearGradient>
    <linearGradient
       inkscape:collect="always"
       id="linearGradient48004">
      <stop
         style="stop-color:#ffffff;stop-opacity:0"
         offset="0"
         id="stop48000" />
      <stop
         style="stop-color:#ffffff;stop-opacity:1"
         offset="0.50032598"
         id="stop48328" />
      <stop
         style="stop-color:#ffffff;stop-opacity:0;"
         offset="1"
         id="stop48002" />
    </linearGradient>
    <linearGradient
       inkscape:collect="always"
       id="linearGradient10484">
      <stop
         style="stop-color:#2e2e2e;stop-opacity:1;"
         offset="0"
         id="stop10480" />
      <stop
         style="stop-color:#616161;stop-opacity:1"
         offset="1"
         id="stop10482" />
    </linearGradient>
    <linearGradient
       inkscape:collect="always"
       xlink:href="#linearGradient10484"
       id="linearGradient10486"
       x1="13.155968"
       y1="11.966485"
       x2="13.170794"
       y2="17.182577"
       gradientUnits="userSpaceOnUse"
       gradientTransform="matrix(0.94286806,0,0,0.95857181,2.5956583,-4.4707344)" />
    <linearGradient
       inkscape:collect="always"
       xlink:href="#linearGradient48004"
       id="linearGradient48006"
       x1="0.54178363"
       y1="10.597012"
       x2="3.0651259"
       y2="13.265047"
       gradientUnits="userSpaceOnUse"
       gradientTransform="matrix(1.0798864,0,0,1.0798864,-1.1428565,-1.3571432)" />
    <radialGradient
       inkscape:collect="always"
       xlink:href="#linearGradient50337"
       id="radialGradient50339"
       cx="3.5557096"
       cy="10.338881"
       fx="3.5557096"
       fy="10.338881"
       r="0.66144532"
       gradientUnits="userSpaceOnUse"
       gradientTransform="matrix(1.5118408,0,0,1.5118408,-2.2999998,-5.3999972)" />
    <linearGradient
       inkscape:collect="always"
       xlink:href="#linearGradient58462"
       id="linearGradient58464"
       x1="9.5248117"
       y1="8.3342104"
       x2="9.5248108"
       y2="12.56746"
       gradientUnits="userSpaceOnUse"
       gradientTransform="matrix(1.0798864,0,0,1.0798864,-1.1428565,-1.3571432)" />
    <linearGradient
       inkscape:collect="always"
       xlink:href="#linearGradient48004"
       id="linearGradient71108"
       gradientUnits="userSpaceOnUse"
       x1="0.54178363"
       y1="10.597012"
       x2="3.0651259"
       y2="13.265047"
       gradientTransform="matrix(-1.0798864,0,0,1.0798864,17.142857,-1.3571432)" />
    <filter
       inkscape:collect="always"
       style="color-interpolation-filters:sRGB"
       id="filter2559"
       x="-0.36000001"
       y="-0.36000001"
       width="1.72"
       height="1.72">
      <feGaussianBlur
         inkscape:collect="always"
         stdDeviation="0.07937344"
         id="feGaussianBlur2561" />
    </filter>
    <linearGradient
       inkscape:collect="always"
       xlink:href="#linearGradient50927"
       id="linearGradient4726"
       x1="4.7766676"
       y1="1.7313582"
       x2="3.7360072"
       y2="2.4238026"
       gradientUnits="userSpaceOnUse"
       gradientTransform="scale(3.779602)" />
    <linearGradient
       inkscape:collect="always"
       xlink:href="#linearGradient50927"
       id="linearGradient5426"
       gradientUnits="userSpaceOnUse"
       x1="4.7766676"
       y1="1.7313582"
       x2="3.7360072"
       y2="2.4238026"
       gradientTransform="matrix(-3.779602,0,0,3.779602,15.999999,0)" />
    <linearGradient
       inkscape:collect="always"
       xlink:href="#linearGradient1611"
       id="linearGradient1109"
       x1="1.8368058"
       y1="2.3578029"
       x2="1.8673608"
       y2="5.5564623"
       gradientUnits="userSpaceOnUse"
       gradientTransform="matrix(2.8346459,0,0,2.8346459,6.2501906,-4.7498085)" />
    <linearGradient
       inkscape:collect="always"
       id="linearGradient1611">
      <stop
         style="stop-color:#9ca3a8;stop-opacity:1;"
         offset="0"
         id="stop1607" />
      <stop
         style="stop-color:#63737d;stop-opacity:1"
         offset="1"
         id="stop1609" />
    </linearGradient>
    <linearGradient
       inkscape:collect="always"
       xlink:href="#linearGradient3161"
       id="linearGradient3163"
       x1="8.4666662"
       y1="15.345833"
       x2="8.4666662"
       y2="1.5874995"
       gradientUnits="userSpaceOnUse"
       gradientTransform="matrix(0.50878254,0,0,0.50878254,7.1924938,2.1924839)" />
    <linearGradient
       inkscape:collect="always"
       id="linearGradient3161">
      <stop
         style="stop-color:#c7ccd1;stop-opacity:1;"
         offset="0"
         id="stop3157" />
      <stop
         style="stop-color:#fdfdfd;stop-opacity:1"
         offset="1"
         id="stop3159" />
    </linearGradient>
    <linearGradient
       inkscape:collect="always"
       xlink:href="#linearGradient2190"
       id="linearGradient3643"
       x1="2.9103088"
       y1="1.0582619"
       x2="5.291419"
       y2="3.4388788"
       gradientUnits="userSpaceOnUse"
       gradientTransform="matrix(3.779602,0,0,3.779602,-3.9998088,-1.9998087)" />
    <linearGradient
       inkscape:collect="always"
       id="linearGradient2190">
      <stop
         style="stop-color:#37c837;stop-opacity:1;"
         offset="0"
         id="stop2186" />
      <stop
         style="stop-color:#289028;stop-opacity:0.99993783"
         offset="1"
         id="stop2188" />
    </linearGradient>
  </defs>
  <sodipodi:namedview
     id="namedview8"
     pagecolor="#ffffff"
     bordercolor="#666666"
     borderopacity="1.0"
     inkscape:pageshadow="2"
     inkscape:pageopacity="0.0"
     inkscape:pagecheckerboard="0"
     showgrid="false"
     inkscape:zoom="50.375"
     inkscape:cx="7.9900744"
     inkscape:cy="8"
     inkscape:window-width="1920"
     inkscape:window-height="1008"
     inkscape:window-x="0"
     inkscape:window-y="0"
     inkscape:window-maximized="1"
     inkscape:current-layer="svg6"
     showguides="false"
     inkscape:showpageshadow="2"
     inkscape:deskcolor="#d1d1d1" />
  <metadata
     id="metadata2">
    <rdf:RDF>
      <cc:Work
         rdf:about="">
        <dc:format>image/svg+xml</dc:format>
        <dc:type
           rdf:resource="http://purl.org/dc/dcmitype/StillImage" />
      </cc:Work>
    </rdf:RDF>
  </metadata>
  <path
     id="rect4218"
     style="fill:#e1e3e6;stroke-width:1;stroke-linejoin:round"
     d="M 3.4500001,4.0000003 H 12.65 c 0.277,0 0.500513,0.2667983 0.65,0.5000001 l 2.499999,3.8999994 H 0.20000002 L 2.7,4.5000004 C 2.8494875,4.266799 3.173,4.0000003 3.4500001,4.0000003 Z"
     sodipodi:nodetypes="sssccss" />
  <path
     id="rect4218-3"
     style="opacity:0.3;fill:url(#linearGradient4726);fill-opacity:1;stroke-width:1;stroke-linejoin:round"
     d="M 3.4500001,4.0000003 H 12.65 c 0.277,0 0.500513,0.2667983 0.65,0.5000001 l 2.499999,3.8999994 H 0.19999991 L 2.7,4.5000004 C 2.8494875,4.266799 3.173,4.0000003 3.4500001,4.0000003 Z"
     sodipodi:nodetypes="sssccss" />
  <path
     id="rect4218-3-2"
     style="opacity:0.3;fill:url(#linearGradient5426);fill-opacity:1;stroke-width:1;stroke-linejoin:round"
     d="M 12.549999,3.9999999 H 3.3499989 c -0.2769995,0 -0.5005123,0.2667983 -0.6499997,0.5000002 L 0.19999991,8.3999998 H 15.799999 L 13.299999,4.5 c -0.149487,-0.2332014 -0.473,-0.5000001 -0.75,-0.5000001 z"
     sodipodi:nodetypes="sssccss" />
  <path
     id="rect849"
     style="fill:url(#linearGradient58464);fill-opacity:1;stroke-width:0.571427;stroke-linecap:round;stroke-linejoin:round;stroke-dasharray:6.85714, 0.571427"
     d="M 1,8 C 0.446,8 0,8.4460002 0,9.0000003 V 11.785156 12 c 0,0.554 0.446,1 1,1 h 14 c 0.554,0 1,-0.446 1,-1 V 11.785156 9.0000003 C 16,8.4460002 15.554,8 15,8 Z"
     sodipodi:nodetypes="sccssssccss" />
  <path
     id="rect849-5"
     style="opacity:0.4;fill:url(#linearGradient48006);fill-opacity:1;stroke-width:0.571427;stroke-linecap:round;stroke-linejoin:round;stroke-dasharray:6.85714, 0.571427"
     d="M 1,8 C 0.446,8 0,8.4460002 0,9.0000003 V 11.785156 12 c 0,0.554 0.446,1 1,1 h 14 c 0.554,0 1,-0.446 1,-1 V 11.785156 9.0000003 C 16,8.4460002 15.554,8 15,8 Z"
     sodipodi:nodetypes="sccssssccss" />
  <path
     id="rect849-5-8"
     style="opacity:0.4;fill:url(#linearGradient71108);fill-opacity:1;stroke-width:0.571427;stroke-linecap:round;stroke-linejoin:round;stroke-dasharray:6.85714, 0.571427"
     d="M 1,8 C 0.446,8 0,8.4460002 0,9.0000003 V 11.785156 12 c 0,0.554 0.446,1 1,1 h 14 c 0.554,0 1,-0.446 1,-1 V 11.785156 9.0000003 C 16,8.4460002 15.554,8 15,8 Z"
     sodipodi:nodetypes="sccssssccss" />
  <path
     id="rect1094"
     style="fill:url(#linearGradient10486);stroke-width:0.503061;stroke-linecap:round;stroke-linejoin:round;stroke-dasharray:6.03678, 0.503061"
     d="M 0.99999993,8.0000004 V 11.5 c 0,0.277 0.22300027,0.5 0.50000017,0.5 H 14.500001 C 14.777,12 15,11.777 15,11.5 V 8.0000004 Z"
     sodipodi:nodetypes="csssscc" />
  <circle
     style="opacity:1;fill:#12ff12;fill-opacity:1;stroke-width:0.229;stroke-linecap:round;stroke-linejoin:round;stroke-dasharray:2.748, 0.229;filter:url(#filter2559)"
     id="path25907"
     cx="0.92602342"
     cy="1.5874689"
     r="0.26457813"
     transform="matrix(3.779602,0,0,3.779602,0,4)" />
  <circle
     style="fill:#12ff12;fill-opacity:1;stroke-width:0.799998;stroke-linecap:round;stroke-linejoin:round;stroke-dasharray:9.6, 0.799998"
     id="path30449"
     cx="3.5"
     cy="10.000001"
     r="1" />
  <circle
     style="opacity:0.7;fill:url(#radialGradient50339);fill-opacity:1;stroke-width:0.799998;stroke-linecap:round;stroke-linejoin:round;stroke-dasharray:9.6, 0.799998"
     id="path50091"
     cx="3.5"
     cy="10.000001"
     r="1" />
  <g
     id="g3754">
    <circle
       style="fill:url(#linearGradient1109);fill-opacity:1;stroke-width:0.281251;stroke-linejoin:round"
       id="path1021"
       cx="11.500194"
       cy="6.5001912"
       r="4.5" />
    <circle
       style="fill:url(#linearGradient3163);fill-opacity:1;stroke-width:0.134615"
       id="path2899"
       cx="11.500191"
       cy="6.5001926"
       r="3.5" />
    <path
       id="rect1636"
       style="fill:#444444;fill-opacity:1;stroke-width:0.5;stroke-linejoin:round"
       d="m 11.474992,4.0001931 c -0.264916,0.013342 -0.47461,0.2316555 -0.47461,0.4999997 v 1.974599 c -4.3e-4,0.0085 0,0.016744 0,0.025399 0,0.2769994 0.223001,0.4999997 0.5,0.4999997 h 0.0254 1.97441 c 0.277,1.2e-6 0.500001,-0.2230003 0.500001,-0.499999 0,-0.2769994 -0.223001,-0.4999997 -0.500001,-0.4999997 h -1.49981 v -1.499999 c 0,-0.2769994 -0.223,-0.4999997 -0.5,-0.4999997 -0.0087,0 -0.01686,-4.302e-4 -0.0254,0 z"
       sodipodi:nodetypes="cscssccsscsscc" />
    <path
       id="rect3046"
       style="fill:url(#linearGradient3643);fill-opacity:1;stroke:none;stroke-width:2;stroke-linecap:round;stroke-linejoin:round"
       d="M 7.4748006,2.0001913 C 7.2098883,2.0135333 7.0001914,2.2318469 7.000191,2.5001915 v 1.9746092 c -4.297e-4,0.00854 0,0.016744 0,0.025399 0,0.2769995 0.2230003,0.5000002 0.5000002,0.5000002 h 0.025399 1.9746096 c 0.2769995,0 0.4999992,-0.2230003 0.4999992,-0.5000002 0,-0.2769994 -0.2229997,-0.5000001 -0.4999992,-0.5000001 H 9.0451129 C 9.8565764,3.2013908 11.024972,2.8345309 12.181832,3.0646444 c 1.472452,0.292889 2.595057,1.4939667 2.791016,2.982422 0.195958,1.4884549 -0.581261,2.9297426 -1.927735,3.5937498 -1.346474,0.6640068 -2.961859,0.3975158 -4.0234374,-0.6640624 a 0.49999981,0.49999981 0 0 0 -0.7011717,0 0.49999981,0.49999981 0 0 0 0,0.7011714 C 9.6823588,11.03978 11.761137,11.387175 13.488472,10.535347 15.215808,9.6835202 16.212516,7.8237307 15.961129,5.9142538 15.709741,4.004777 14.269997,2.4657703 12.381051,2.0900351 10.72315,1.7602584 9.0386884,2.3910744 8.0001913,3.6779257 V 2.5001915 c 0,-0.2769995 -0.2230003,-0.5000002 -0.5000001,-0.5000002 -0.00866,0 -0.016857,-4.305e-4 -0.025399,0 z" />
  </g>
</svg>
