<?xml version="1.0" encoding="UTF-8" standalone="no"?>
<!-- Created with Inkscape (http://www.inkscape.org/) -->

<svg
   width="16"
   height="16"
   viewBox="0 0 16 16"
   version="1.1"
   id="svg5"
   inkscape:version="1.2.1 (9c6d41e410, 2022-07-14, custom)"
   sodipodi:docname="preferences-desktop-keyboard.svg"
   xmlns:inkscape="http://www.inkscape.org/namespaces/inkscape"
   xmlns:sodipodi="http://sodipodi.sourceforge.net/DTD/sodipodi-0.dtd"
   xmlns:xlink="http://www.w3.org/1999/xlink"
   xmlns="http://www.w3.org/2000/svg"
   xmlns:svg="http://www.w3.org/2000/svg">
  <sodipodi:namedview
     id="namedview7"
     pagecolor="#ffffff"
     bordercolor="#666666"
     borderopacity="1.0"
     inkscape:pageshadow="2"
     inkscape:pageopacity="0.0"
     inkscape:pagecheckerboard="0"
     inkscape:document-units="px"
     showgrid="false"
     units="px"
     height="64px"
     inkscape:zoom="51.6875"
     inkscape:cx="7.9903265"
     inkscape:cy="8"
     inkscape:window-width="1920"
     inkscape:window-height="1029"
     inkscape:window-x="0"
     inkscape:window-y="0"
     inkscape:window-maximized="1"
     inkscape:current-layer="svg5"
     showguides="false"
     inkscape:showpageshadow="2"
     inkscape:deskcolor="#d1d1d1" />
  <defs
     id="defs2">
    <linearGradient
       inkscape:collect="always"
       id="linearGradient23571">
      <stop
         style="stop-color:#b6bec5;stop-opacity:1;"
         offset="0"
         id="stop23567" />
      <stop
         style="stop-color:#9ba3aa;stop-opacity:1"
         offset="1"
         id="stop23569" />
    </linearGradient>
    <linearGradient
       inkscape:collect="always"
       xlink:href="#linearGradient23571"
       id="linearGradient23573"
       x1="0.5291667"
       y1="5.0270834"
       x2="16.404167"
       y2="12.170834"
       gradientUnits="userSpaceOnUse"
       gradientTransform="matrix(1.0078741,0,0,1.2598424,-0.53333339,-3.3333334)" />
  </defs>
  <rect
     style="fill:url(#linearGradient23573);fill-opacity:1;stroke-width:0.298142;stroke-linejoin:round"
     id="rect858"
     width="16.000002"
     height="9"
     x="0"
     y="3"
     ry="1.0000001" />
  <path
     id="rect1155"
     style="opacity:1;fill:#edeef0;fill-opacity:1;stroke-width:0.999999;stroke-linejoin:round"
     d="m 1.0000001,4.0000002 v 1 h 1 v -1 z m 1.7500001,0 v 1 h 1 v -1 z m 1.7500001,0 v 1 h 1.0000001 v -1 z m 1.7500001,0 v 1 h 1.0000001 v -1 z m 1.7500001,0 v 1 h 1.0000001 v -1 z m 1.7500001,0 v 1 h 1.0000004 v -1 z m 1.7500004,0 v 1 h 1 v -1 z m 1.75,0 v 1 h 1.75 v -1 z M 1.7500001,6.0000003 V 7.0000004 H 2.7500002 V 6.0000003 Z m 1.7500001,0 V 7.0000004 H 4.5000003 V 6.0000003 Z m 1.7500001,0 V 7.0000004 H 6.2500004 V 6.0000003 Z m 1.7500002,0 v 1.0000001 h 1 V 6.0000003 Z m 1.7500001,0 v 1.0000001 h 1 V 6.0000003 Z m 1.7500004,0 v 1.0000001 h 1 V 6.0000003 Z m 1.75,0 v 1.0000001 h 1 V 6.0000003 Z m 1.75,0 v 1.0000001 h 1 V 6.0000003 Z M 1.0000001,8.0000004 V 9.0000005 H 3.0000002 V 8.0000004 Z m 3.0000002,0 v 1.0000001 h 1 V 8.0000004 Z m 2.0000001,0 V 9.0000005 H 7.0000005 V 8.0000004 Z m 2.0000001,0 V 9.0000005 H 9.0000006 V 8.0000004 Z m 2.0000005,0 v 1.0000001 h 1 V 8.0000004 Z m 2,0 v 1.0000001 h 3 V 8.0000004 Z M 1.0000001,10.000001 v 1 h 1 v -1 z m 2.0000001,0 v 1 h 1.0000001 v -1 z m 2.0000001,0 v 1 h 6.0000007 v -1 z m 7.0000007,0 v 1 h 1 v -1 z m 2,0 v 1 h 1 v -1 z" />
</svg>
