<?xml version="1.0" encoding="UTF-8" standalone="no"?>
<!-- Created with Inkscape (http://www.inkscape.org/) -->

<svg
   width="16"
   height="16"
   viewBox="0 0 16 16"
   version="1.1"
   id="svg5"
   inkscape:version="1.2.1 (9c6d41e410, 2022-07-14, custom)"
   sodipodi:docname="preferences-desktop-accessibility.svg"
   xmlns:inkscape="http://www.inkscape.org/namespaces/inkscape"
   xmlns:sodipodi="http://sodipodi.sourceforge.net/DTD/sodipodi-0.dtd"
   xmlns:xlink="http://www.w3.org/1999/xlink"
   xmlns="http://www.w3.org/2000/svg"
   xmlns:svg="http://www.w3.org/2000/svg">
  <sodipodi:namedview
     id="namedview7"
     pagecolor="#ffffff"
     bordercolor="#666666"
     borderopacity="1.0"
     inkscape:pageshadow="2"
     inkscape:pageopacity="0.0"
     inkscape:pagecheckerboard="0"
     inkscape:document-units="px"
     showgrid="false"
     units="px"
     height="48px"
     inkscape:zoom="50.5"
     inkscape:cx="8"
     inkscape:cy="8"
     inkscape:window-width="1920"
     inkscape:window-height="1010"
     inkscape:window-x="0"
     inkscape:window-y="0"
     inkscape:window-maximized="1"
     inkscape:current-layer="svg5"
     inkscape:lockguides="true"
     inkscape:showpageshadow="2"
     inkscape:deskcolor="#d1d1d1" />
  <defs
     id="defs2">
    <linearGradient
       inkscape:collect="always"
       id="linearGradient2779">
      <stop
         style="stop-color:#4397ff;stop-opacity:1;"
         offset="0"
         id="stop2775" />
      <stop
         style="stop-color:#2b59b2;stop-opacity:1"
         offset="1"
         id="stop2777" />
    </linearGradient>
    <linearGradient
       inkscape:collect="always"
       xlink:href="#linearGradient2779"
       id="linearGradient2781"
       x1="8.7312498"
       y1="0.5292055"
       x2="8.7313251"
       y2="16.404205"
       gradientUnits="userSpaceOnUse"
       gradientTransform="matrix(0.97888288,0,0,0.97888288,-0.23353597,-0.05814927)" />
    <linearGradient
       inkscape:collect="always"
       xlink:href="#linearGradient2779"
       id="linearGradient945"
       gradientUnits="userSpaceOnUse"
       gradientTransform="matrix(0.8157519,0,0,0.8157519,6.4277229,0.61820798)"
       x1="8.7312498"
       y1="0.5292055"
       x2="8.7313251"
       y2="16.404205" />
  </defs>
  <path
     id="rect1286"
     style="fill:url(#linearGradient2781);fill-opacity:1;stroke-width:0.880423;stroke-linecap:round;stroke-linejoin:round"
     d="M 13.457031,3.1992188 C 13.248375,3.2048487 13.035953,3.2629021 12.841797,3.375 L 9.5488281,4.5703125 C 9.0965505,4.8436706 8.5670225,5 8,5 7.4458338,5 6.927881,4.8498868 6.4824219,4.5878906 L 3.34375,3.4492188 C 3.1301778,3.3259114 2.8968776,3.2704738 2.6679688,3.2753906 2.2309612,3.2847634 1.8096216,3.5160965 1.5742188,3.9238281 1.2155097,4.545131 1.4275256,5.3346506 2.0488281,5.6933594 L 6,7.3632812 V 9.5 l -2.140625,4.761719 c -0.2453712,0.674152 0.1012371,1.414785 0.7753906,1.660156 0.6741531,0.245375 1.4128312,-0.09928 1.6582032,-0.773437 l 1.2617187,-3.464844 c 0.1409944,-0.357575 0.5730528,-0.364949 0.7382813,-0.0059 l 1.2636718,3.470704 c 0.2453712,0.674152 0.9840494,1.018809 1.6582034,0.773437 0.674152,-0.245371 1.020763,-0.986005 0.77539,-1.660156 L 10,9.5 V 7.3632812 L 14.138672,5.6171875 C 14.759974,5.2584788 14.970038,4.4689587 14.611328,3.8476562 14.364716,3.4205107 13.916072,3.1868158 13.457031,3.1992188 Z"
     sodipodi:nodetypes="cccscccccccccccccsccccsc" />
  <path
     d="M 8.0000002,0 C 6.8954309,-6.2989673e-8 6,0.89543041 6,2 6,3.1045689 6.8954309,4.0000001 8.0000002,4.0000001 9.1045692,4.0000001 10,3.1045689 10,2 10,0.89543041 9.1045692,-6.2989673e-8 8.0000002,0 Z"
     style="fill:url(#linearGradient945);fill-opacity:1;stroke-width:0.7337;stroke-linecap:round;stroke-linejoin:round"
     id="path850" />
</svg>
