<?xml version="1.0" encoding="UTF-8" standalone="no"?>
<!-- Created with Inkscape (http://www.inkscape.org/) -->

<svg
   width="16"
   height="16"
   viewBox="0 0 16 16"
   version="1.1"
   id="svg5"
   inkscape:version="1.2.1 (9c6d41e410, 2022-07-14, custom)"
   sodipodi:docname="preferences-desktop-default-applications.svg"
   xmlns:inkscape="http://www.inkscape.org/namespaces/inkscape"
   xmlns:sodipodi="http://sodipodi.sourceforge.net/DTD/sodipodi-0.dtd"
   xmlns:xlink="http://www.w3.org/1999/xlink"
   xmlns="http://www.w3.org/2000/svg"
   xmlns:svg="http://www.w3.org/2000/svg">
  <sodipodi:namedview
     id="namedview7"
     pagecolor="#ffffff"
     bordercolor="#666666"
     borderopacity="1.0"
     inkscape:pageshadow="2"
     inkscape:pageopacity="0.0"
     inkscape:pagecheckerboard="0"
     inkscape:document-units="px"
     showgrid="false"
     units="px"
     height="64px"
     inkscape:zoom="51.6875"
     inkscape:cx="7.9903265"
     inkscape:cy="8"
     inkscape:window-width="1920"
     inkscape:window-height="1029"
     inkscape:window-x="0"
     inkscape:window-y="0"
     inkscape:window-maximized="1"
     inkscape:current-layer="svg5"
     inkscape:showpageshadow="2"
     inkscape:deskcolor="#d1d1d1" />
  <defs
     id="defs2">
    <linearGradient
       inkscape:collect="always"
       xlink:href="#linearGradient1723"
       id="linearGradient1725"
       x1="4.4979162"
       y1="2.3812499"
       x2="4.4979162"
       y2="5.0270834"
       gradientUnits="userSpaceOnUse"
       gradientTransform="matrix(2.5196849,0,0,3.023622,-1.3333339,-2.1999997)" />
    <linearGradient
       inkscape:collect="always"
       id="linearGradient1723">
      <stop
         style="stop-color:#1088d6;stop-opacity:1;"
         offset="0"
         id="stop1719" />
      <stop
         style="stop-color:#076cbe;stop-opacity:1"
         offset="1"
         id="stop1721" />
    </linearGradient>
    <linearGradient
       inkscape:collect="always"
       xlink:href="#linearGradient6911"
       id="linearGradient59378"
       x1="35.875587"
       y1="-37.89032"
       x2="55.549019"
       y2="-19.004301"
       gradientUnits="userSpaceOnUse"
       gradientTransform="matrix(0.27429863,0,0,0.27511168,-0.55949885,19.865301)" />
    <linearGradient
       inkscape:collect="always"
       id="linearGradient6911">
      <stop
         style="stop-color:#50b10e;stop-opacity:1;"
         offset="0"
         id="stop6907" />
      <stop
         style="stop-color:#18840f;stop-opacity:1"
         offset="1"
         id="stop6909" />
    </linearGradient>
  </defs>
  <path
     id="rect261617"
     style="fill:#797774;stroke-width:0.414716;stroke-linecap:round;stroke-linejoin:round"
     d="m 2,1 h 11.999999 c 1.108,0 2,0.8919999 2,2.0000001 V 13 c 0,1.108 -0.892,2 -2,2 H 2 C 0.89200001,15 0,14.108 0,13 V 3.0000001 C 0,1.8919999 0.89200001,1 2,1 Z"
     sodipodi:nodetypes="sssssssss" />
  <path
     id="rect1043"
     style="fill:#fafafa;fill-opacity:1;stroke-width:3;stroke-linecap:round;stroke-linejoin:round"
     d="M 1.9999996,3.9999997 H 13.999999 c 0.554,0 1,0.4460001 1,0.9999998 v 7.9999995 c 0,0.553999 -0.446,0.999999 -1,0.999999 H 1.9999996 c -0.5539998,0 -0.99999979,-0.446 -0.99999979,-0.999999 V 4.9999995 c 0,-0.5539997 0.44599999,-0.9999998 0.99999979,-0.9999998 z"
     sodipodi:nodetypes="sssssssss" />
  <path
     id="rect1066"
     style="fill:#c4c4c4;fill-opacity:1;stroke-width:1.5;stroke-linecap:round;stroke-linejoin:round"
     d="M 9.9999997,1.9999999 V 2.9999997 H 10.999999 V 1.9999999 Z m 2.0000003,0 v 0.9999998 h 0.999999 V 1.9999999 Z m 1.999999,0 v 0.9999998 h 1 V 1.9999999 Z" />
  <rect
     style="fill:url(#linearGradient1725);fill-opacity:1;stroke:none;stroke-width:0.326138;stroke-linecap:round;stroke-linejoin:round"
     id="rect261621"
     width="4"
     height="8"
     x="5.9999995"
     y="5" />
  <path
     id="rect845"
     style="fill:#bebebe;fill-opacity:1;stroke-width:2.12132;stroke-linecap:round;stroke-linejoin:round"
     d="M 1.9999999,4.9999999 V 5.9999997 H 4.9999998 V 4.9999999 Z m 8.9999991,0 V 5.9999997 H 14 V 4.9999999 Z M 1.9999999,7.0000007 V 8.0000005 H 4.9999998 V 7.0000007 Z m 8.9999991,0 V 8.0000005 H 14 V 7.0000007 Z m -8.9999991,2 V 10.000001 H 4.9999998 V 9.0000007 Z m 8.9999991,0 V 10.000001 H 14 V 9.0000007 Z M 1.9999999,11.000001 V 12 h 2.9999999 v -0.999999 z m 8.9999991,0 V 12 h 3 v -0.999999 z"
     sodipodi:nodetypes="cccccccccccccccccccccccccccccccccccccccc" />
  <circle
     style="fill:url(#linearGradient59378);fill-opacity:1;stroke-width:0.218047;stroke-linecap:round;stroke-linejoin:round"
     id="path55509"
     cx="12"
     cy="12"
     r="4" />
  <path
     id="path69248"
     style="opacity:0.2;fill:#4d4d4d;fill-opacity:0.996078;stroke-width:0.456994;stroke-linecap:round;stroke-linejoin:round"
     d="M 11.999999,7.9999995 C 9.7908602,7.9999995 7.9999994,9.790861 7.9999994,12 c 0,2.209138 1.7908608,3.999999 3.9999996,3.999999 2.209138,0 4,-1.790861 4,-3.999999 0,-2.209139 -1.790862,-4.0000005 -4,-4.0000005 z m 0,0.9999999 c 1.656854,0 3,1.3431456 3,3.0000006 0,1.656853 -1.343146,2.999999 -3,2.999999 -1.656855,0 -2.9999997,-1.343146 -2.9999997,-2.999999 0,-1.656855 1.3431447,-3.0000006 2.9999997,-3.0000006 z" />
  <path
     id="rect1469"
     style="fill:#ffffff;stroke-width:1.99994;stroke-linecap:round;stroke-linejoin:round"
     d="M 11.376817,14.12707 9.4879047,12.23815 c -0.1958551,-0.195855 -0.1958551,-0.511223 4e-7,-0.707088 0.1958551,-0.195856 0.5112245,-0.195856 0.7070889,0 l 1.181894,1.181904 2.596075,-2.596075 c 0.195855,-0.1958554 0.511225,-0.1958554 0.707089,0 0.195855,0.195855 0.195855,0.511224 0,0.707089 z"
     sodipodi:nodetypes="cccccsccc" />
</svg>
