<?xml version="1.0" encoding="UTF-8" standalone="no"?>
<!-- Created with Inkscape (http://www.inkscape.org/) -->

<svg
   width="16"
   height="16"
   viewBox="0 0 16 16"
   version="1.1"
   id="svg5"
   inkscape:version="1.3.2 (091e20ef0f, 2023-11-25, custom)"
   sodipodi:docname="spotify-client.svg"
   xmlns:inkscape="http://www.inkscape.org/namespaces/inkscape"
   xmlns:sodipodi="http://sodipodi.sourceforge.net/DTD/sodipodi-0.dtd"
   xmlns:xlink="http://www.w3.org/1999/xlink"
   xmlns="http://www.w3.org/2000/svg"
   xmlns:svg="http://www.w3.org/2000/svg">
  <sodipodi:namedview
     id="namedview7"
     pagecolor="#ffffff"
     bordercolor="#666666"
     borderopacity="1.0"
     inkscape:pageshadow="2"
     inkscape:pageopacity="0.0"
     inkscape:pagecheckerboard="0"
     inkscape:document-units="px"
     showgrid="false"
     units="px"
     inkscape:zoom="50.5"
     inkscape:cx="8"
     inkscape:cy="8"
     inkscape:window-width="1920"
     inkscape:window-height="1012"
     inkscape:window-x="0"
     inkscape:window-y="0"
     inkscape:window-maximized="1"
     inkscape:current-layer="svg5"
     inkscape:showpageshadow="2"
     inkscape:deskcolor="#d1d1d1" />
  <defs
     id="defs2">
    <linearGradient
       inkscape:collect="always"
       xlink:href="#linearGradient13"
       id="linearGradient884"
       x1="8"
       y1="0"
       x2="8"
       y2="16"
       gradientUnits="userSpaceOnUse" />
    <linearGradient
       inkscape:collect="always"
       id="linearGradient1066">
      <stop
         style="stop-color:#555556;stop-opacity:1;"
         offset="0"
         id="stop1062" />
      <stop
         style="stop-color:#2d2d2d;stop-opacity:1;"
         offset="1"
         id="stop1064" />
    </linearGradient>
    <linearGradient
       inkscape:collect="always"
       xlink:href="#linearGradient1066"
       id="linearGradient6"
       x1="8.0546875"
       y1="4.0605469"
       x2="13.976151"
       y2="12.300339"
       gradientUnits="userSpaceOnUse" />
    <linearGradient
       inkscape:collect="always"
       id="linearGradient13">
      <stop
         style="stop-color:#64d36c;stop-opacity:1;"
         offset="0"
         id="stop12" />
      <stop
         style="stop-color:#22b04c;stop-opacity:1;"
         offset="1"
         id="stop13" />
    </linearGradient>
  </defs>
  <circle
     style="fill:url(#linearGradient884);stroke-linecap:round;fill-opacity:1"
     id="path299"
     cx="8"
     cy="8"
     r="8" />
  <path
     d="m 6.9902344,4.0195312 c -1.5322384,-0.00995 -3.0345208,0.1829965 -4.4082032,0.5 -0.4032647,0.092994 -0.654991,0.4950572 -0.5625,0.8984376 0.092994,0.4032647 0.4950572,0.654991 0.8984376,0.5625 3.118615,-0.7196804 6.9518825,-0.6981239 9.9492192,0.9335937 0.363521,0.1984304 0.819071,0.064651 1.017578,-0.2988281 C 14.082889,6.2511989 13.948184,5.7954767 13.583984,5.5976562 11.856659,4.6573186 9.9509898,4.1925707 8.0546875,4.0605469 7.6991308,4.0357924 7.3438278,4.0218269 6.9902344,4.0195312 Z M 6.8222656,7.0253906 C 5.6045718,7.0417365 4.4522883,7.2261903 3.5136719,7.5390625 3.1213491,7.6699489 2.9090251,8.093723 3.0390625,8.4863281 3.1699489,8.8786509 3.593723,9.0909749 3.9863281,8.9609375 4.984835,8.6281018 6.4775486,8.4428005 7.9375,8.5605469 c 1.4599514,0.1177463 2.882723,0.5423645 3.824219,1.2851562 0.325283,0.2559709 0.796438,0.2000269 1.052734,-0.125 C 13.070871,9.3959327 13.015809,8.924851 12.691406,8.6679688 11.406907,7.654564 9.715683,7.2002095 8.0566406,7.0664062 7.6418801,7.0329555 7.2281636,7.019942 6.8222656,7.0253906 Z m 0.4179688,2.9765624 c -0.8958074,-0.00375 -1.8078507,0.0784 -2.6484375,0.265625 -0.4037622,0.09036 -0.6580798,0.490626 -0.5683594,0.894531 0.089458,0.404556 0.4900104,0.65993 0.8945313,0.570313 1.0221237,-0.227665 2.2734532,-0.2797 3.390625,-0.179688 1.1171716,0.100013 2.1188422,0.379118 2.5546872,0.640625 0.355398,0.213221 0.816366,0.09776 1.029297,-0.257812 0.213562,-0.354889 0.09901,-0.815708 -0.255859,-1.029297 -0.814151,-0.488491 -1.9368362,-0.735169 -3.1933596,-0.847656 -0.3926636,-0.03515 -0.7959398,-0.05493 -1.203125,-0.05664 z"
     style="color:#000000;fill:url(#linearGradient6);stroke-linecap:round;-inkscape-stroke:none"
     id="path1" />
</svg>
