<?xml version="1.0" encoding="UTF-8" standalone="no"?>
<!-- Created with Inkscape (http://www.inkscape.org/) -->

<svg
   width="16"
   height="16"
   viewBox="0 0 16 16"
   version="1.1"
   id="svg532"
   inkscape:version="1.2.1 (9c6d41e410, 2022-07-14, custom)"
   sodipodi:docname="system-software-update.svg"
   xmlns:inkscape="http://www.inkscape.org/namespaces/inkscape"
   xmlns:sodipodi="http://sodipodi.sourceforge.net/DTD/sodipodi-0.dtd"
   xmlns:xlink="http://www.w3.org/1999/xlink"
   xmlns="http://www.w3.org/2000/svg"
   xmlns:svg="http://www.w3.org/2000/svg">
  <sodipodi:namedview
     id="namedview534"
     pagecolor="#ffffff"
     bordercolor="#000000"
     borderopacity="0.25"
     inkscape:showpageshadow="2"
     inkscape:pageopacity="0.0"
     inkscape:pagecheckerboard="0"
     inkscape:deskcolor="#d1d1d1"
     inkscape:document-units="px"
     showgrid="false"
     inkscape:zoom="50.625"
     inkscape:cx="8"
     inkscape:cy="8"
     inkscape:window-width="1920"
     inkscape:window-height="1012"
     inkscape:window-x="0"
     inkscape:window-y="0"
     inkscape:window-maximized="1"
     inkscape:current-layer="svg532" />
  <defs
     id="defs529">
    <linearGradient
       inkscape:collect="always"
       xlink:href="#linearGradient59376"
       id="linearGradient59378"
       x1="45.787689"
       y1="-43.129013"
       x2="45.593357"
       y2="-14.11183"
       gradientUnits="userSpaceOnUse"
       gradientTransform="matrix(0.54859728,0,0,0.55022342,-17.119002,23.730597)" />
    <linearGradient
       inkscape:collect="always"
       id="linearGradient59376">
      <stop
         style="stop-color:#189ae1;stop-opacity:1;"
         offset="0"
         id="stop59372" />
      <stop
         style="stop-color:#037cd6;stop-opacity:0.99607843"
         offset="1"
         id="stop59374" />
    </linearGradient>
  </defs>
  <ellipse
     style="fill:url(#linearGradient59378);fill-opacity:1;stroke-width:0.436093;stroke-linecap:round;stroke-linejoin:round"
     id="path55509"
     cx="8"
     cy="8"
     rx="8"
     ry="7.999999" />
  <path
     d="M 7.9023438,4.0009981 C 6.1753898,4.0351147 4.5559728,4.9643596 3.6699219,6.499045 3.5315518,6.738473 3.6138094,7.0447513 3.8535156,7.1826388 4.0925072,7.3196798 4.3973227,7.2375805 4.5351562,6.999045 5.3768107,5.5412567 7.0375769,4.7672884 8.6953125,5.0595919 10.24944,5.3336264 11.483951,6.4898686 11.873047,7.999045 H 9.5 c -0.2769994,0 -0.5,0.2230006 -0.5,0.5 0,0.2769994 0.2230006,0.5 0.5,0.5 h 3 c 0.01731,0 0.03393,-2.522e-4 0.05078,-0.00195 C 12.803521,8.971578 13,8.7587319 13,8.499045 v -3 c 0,-0.2769994 -0.223,-0.5 -0.5,-0.5 -0.277,0 -0.5,0.2230006 -0.5,0.5 V 6.0009981 C 11.254218,5.006585 10.147518,4.3006292 8.8691406,4.0752169 8.5459592,4.0182313 8.22215,3.9946802 7.9023438,4.0009981 Z M 3.5,8.999045 c -0.01731,0 -0.033931,2.051e-4 -0.050781,0.00195 C 3.196478,9.026518 3,9.2393581 3,9.499045 v 3 c 0,0.276999 0.2230003,0.5 0.5,0.5 0.2769996,0 0.5,-0.223001 0.5,-0.5 v -0.501953 c 0.7457816,0.994413 1.8524825,1.700369 3.1308594,1.925781 2.0683612,0.364708 4.1490846,-0.604942 5.1992186,-2.423828 0.13837,-0.239428 0.05611,-0.545706 -0.183594,-0.683594 -0.238992,-0.13704 -0.543807,-0.05494 -0.68164,0.183594 C 10.62319,12.456834 8.9624231,13.230802 7.3046875,12.938498 5.7499298,12.664352 4.5155199,11.509122 4.1269531,9.999045 H 6.5 c 0.2769999,0 0.5,-0.2230006 0.5,-0.5 0,-0.2769999 -0.2230002,-0.5 -0.5,-0.5 z"
     style="color:#000000;fill:#000000;stroke:none;stroke-linecap:round;-inkscape-stroke:none;opacity:0.2"
     id="path2291" />
  <path
     id="path1393"
     style="color:#000000;fill:#ffffff;stroke:none;stroke-linecap:round;-inkscape-stroke:none"
     d="M 7.9023438,3.0019531 C 6.1753898,3.0360697 4.5559728,3.9653146 3.6699219,5.5 3.5315518,5.739428 3.6138094,6.0457063 3.8535156,6.1835938 4.0925072,6.3206348 4.3973227,6.2385355 4.5351562,6 5.3768107,4.5422117 7.0375769,3.7682434 8.6953125,4.0605469 10.24944,4.3345814 11.483951,5.4908236 11.873047,7 H 9.5 C 9.2230006,7 9,7.2230006 9,7.5 9,7.7769994 9.2230006,8 9.5,8 h 3 C 12.51731,8 12.53393,7.9997478 12.55078,7.99805 12.803521,7.972533 13,7.7596869 13,7.5 v -3 C 13,4.2230006 12.777,4 12.5,4 12.223,4 12,4.2230006 12,4.5 V 5.0019531 C 11.254218,4.00754 10.147518,3.3015842 8.8691406,3.0761719 8.5459592,3.0191863 8.22215,2.9956352 7.9023438,3.0019531 Z M 3.5,8 C 3.48269,8 3.4660687,8.0002051 3.4492188,8.0019531 3.196478,8.0274731 3,8.2403131 3,8.5 v 3 C 3,11.776999 3.2230003,12 3.5,12 3.7769996,12 4,11.776999 4,11.5 V 10.998047 C 4.7457816,11.99246 5.8524825,12.698416 7.1308594,12.923828 9.1992206,13.288536 11.279944,12.318886 12.330078,10.5 12.468448,10.260572 12.38619,9.9542936 12.146484,9.8164062 11.907492,9.6793656 11.602677,9.7614648 11.464844,10 10.62319,11.457789 8.9624231,12.231757 7.3046875,11.939453 5.7499298,11.665307 4.5155199,10.510077 4.1269531,9 H 6.5 C 6.7769999,9 7,8.7769994 7,8.5 7,8.2230001 6.7769998,8 6.5,8 Z"
     sodipodi:nodetypes="scccscsssscsssscssscsssscscccscssss" />
</svg>
