<?xml version="1.0" encoding="UTF-8" standalone="no"?>
<!-- Created with Inkscape (http://www.inkscape.org/) -->

<svg
   width="16"
   height="16"
   viewBox="0 0 16 16"
   version="1.1"
   id="svg5"
   inkscape:version="1.2.1 (9c6d41e410, 2022-07-14, custom)"
   sodipodi:docname="todo-app.svg"
   xmlns:inkscape="http://www.inkscape.org/namespaces/inkscape"
   xmlns:sodipodi="http://sodipodi.sourceforge.net/DTD/sodipodi-0.dtd"
   xmlns:xlink="http://www.w3.org/1999/xlink"
   xmlns="http://www.w3.org/2000/svg"
   xmlns:svg="http://www.w3.org/2000/svg">
  <sodipodi:namedview
     id="namedview7"
     pagecolor="#ffffff"
     bordercolor="#666666"
     borderopacity="1.0"
     inkscape:pageshadow="2"
     inkscape:pageopacity="0.0"
     inkscape:pagecheckerboard="0"
     inkscape:document-units="px"
     showgrid="false"
     units="px"
     height="64px"
     inkscape:zoom="50.3125"
     inkscape:cx="8"
     inkscape:cy="8"
     inkscape:window-width="1920"
     inkscape:window-height="1007"
     inkscape:window-x="0"
     inkscape:window-y="0"
     inkscape:window-maximized="1"
     inkscape:current-layer="svg5"
     inkscape:showpageshadow="2"
     inkscape:deskcolor="#d1d1d1" />
  <defs
     id="defs2">
    <linearGradient
       inkscape:collect="always"
       xlink:href="#linearGradient401210"
       id="linearGradient401212"
       x1="49.817139"
       y1="-172.56906"
       x2="64.771065"
       y2="-172.56903"
       gradientUnits="userSpaceOnUse"
       gradientTransform="matrix(-0.65339808,0.65339808,-0.44642987,-0.44642987,-29.615844,-106.46426)" />
    <linearGradient
       inkscape:collect="always"
       id="linearGradient401210">
      <stop
         style="stop-color:#56adfd;stop-opacity:1;"
         offset="0"
         id="stop401206" />
      <stop
         style="stop-color:#4190fd;stop-opacity:1"
         offset="1"
         id="stop401208" />
    </linearGradient>
  </defs>
  <path
     id="rect384720"
     style="fill:#185abd;stroke-width:0.301257;stroke-linecap:round;stroke-linejoin:round"
     d="M 8.7728428,11.158511 2.864726,5.250765 C 2.650718,5.0367708 2.3061634,5.0367678 2.0921586,5.2507655 L 0.16050527,7.1823568 c -0.2140021,0.2140015 -0.21400883,0.558573 -1.05e-6,0.7725675 L 6.0686208,13.862671 c 0.214001,0.214001 0.558563,0.213997 0.7725675,0 l 1.931654,-1.931593 c 0.2140045,-0.213997 0.2140015,-0.558565 5e-7,-0.772567 z"
     sodipodi:nodetypes="csscscssc" />
  <path
     id="rect391649"
     style="fill:url(#linearGradient401212);stroke-width:0.404177;stroke-linecap:round;stroke-linejoin:round"
     d="M 15.8395,4.8643885 6.8411883,13.862672 c -0.214001,0.214 -0.558553,0.21399 -0.7725675,10e-7 L 4.137061,11.931347 c -0.2140142,-0.213988 -0.2140012,-0.558569 0,-0.77257 l 8.998311,-8.9982811 c 0.214002,-0.2140008 0.558555,-0.2139882 0.772569,0 l 1.931558,1.9313254 c 0.214003,0.2140007 0.214003,0.5585667 10e-7,0.7725672 z"
     sodipodi:nodetypes="ssssssscs" />
</svg>
