<?xml version="1.0" encoding="UTF-8" standalone="no"?>
<!-- Created with Inkscape (http://www.inkscape.org/) -->

<svg
   width="16"
   height="16"
   viewBox="0 0 16 16"
   version="1.1"
   id="svg5"
   inkscape:version="1.3.2 (091e20ef0f, 2023-11-25)"
   sodipodi:docname="utilities-log-viewer.svg"
   xmlns:inkscape="http://www.inkscape.org/namespaces/inkscape"
   xmlns:sodipodi="http://sodipodi.sourceforge.net/DTD/sodipodi-0.dtd"
   xmlns:xlink="http://www.w3.org/1999/xlink"
   xmlns="http://www.w3.org/2000/svg"
   xmlns:svg="http://www.w3.org/2000/svg">
  <sodipodi:namedview
     id="namedview7"
     pagecolor="#ffffff"
     bordercolor="#666666"
     borderopacity="1.0"
     inkscape:pageshadow="2"
     inkscape:pageopacity="0.0"
     inkscape:pagecheckerboard="0"
     inkscape:document-units="px"
     showgrid="false"
     units="px"
     height="64px"
     inkscape:zoom="25.96875"
     inkscape:cx="3.9470517"
     inkscape:cy="11.417569"
     inkscape:window-width="1920"
     inkscape:window-height="1028"
     inkscape:window-x="0"
     inkscape:window-y="0"
     inkscape:window-maximized="1"
     inkscape:current-layer="svg5"
     inkscape:showpageshadow="2"
     inkscape:deskcolor="#d1d1d1" />
  <defs
     id="defs2">
    <linearGradient
       inkscape:collect="always"
       id="linearGradient2818">
      <stop
         style="stop-color:#000000;stop-opacity:0.40000001"
         offset="0"
         id="stop2814" />
      <stop
         style="stop-color:#000000;stop-opacity:0;"
         offset="1"
         id="stop2816" />
    </linearGradient>
    <linearGradient
       inkscape:collect="always"
       id="linearGradient1552">
      <stop
         style="stop-color:#75d4f0;stop-opacity:1;"
         offset="0"
         id="stop1548" />
      <stop
         style="stop-color:#40b0d1;stop-opacity:1"
         offset="1"
         id="stop1550" />
    </linearGradient>
    <linearGradient
       inkscape:collect="always"
       xlink:href="#linearGradient1552"
       id="linearGradient1554"
       x1="2.1166668"
       y1="10.318751"
       x2="8.4666672"
       y2="10.318751"
       gradientUnits="userSpaceOnUse"
       gradientTransform="matrix(1.8897636,0,0,1.8897636,-2.9999999,-6.9999996)" />
    <linearGradient
       inkscape:collect="always"
       xlink:href="#linearGradient2818"
       id="linearGradient3170"
       x1="8.4666729"
       y1="14.287501"
       x2="8.4666672"
       y2="15.875"
       gradientUnits="userSpaceOnUse"
       gradientTransform="matrix(1.1023622,0,0,1.4173226,-16.333335,-9.7499975)" />
    <linearGradient
       inkscape:collect="always"
       xlink:href="#linearGradient932"
       id="linearGradient934"
       x1="5.8208332"
       y1="6.0854168"
       x2="15.875"
       y2="6.0854168"
       gradientUnits="userSpaceOnUse"
       gradientTransform="matrix(0.79569011,0,0,0.79569011,3.3684211,4.1578946)" />
    <linearGradient
       inkscape:collect="always"
       id="linearGradient932">
      <stop
         style="stop-color:#bcc6cd;stop-opacity:1"
         offset="0"
         id="stop928" />
      <stop
         style="stop-color:#bcc5cc;stop-opacity:1"
         offset="1"
         id="stop930" />
    </linearGradient>
    <linearGradient
       inkscape:collect="always"
       xlink:href="#linearGradient5013"
       id="linearGradient5015"
       x1="6.0854168"
       y1="1.3229163"
       x2="15.610416"
       y2="10.847917"
       gradientUnits="userSpaceOnUse"
       gradientTransform="matrix(0.62992128,0,0,0.62992128,5.1666649,5.1666694)" />
    <linearGradient
       inkscape:collect="always"
       id="linearGradient5013">
      <stop
         style="stop-color:#ffffff;stop-opacity:1;"
         offset="0"
         id="stop5009" />
      <stop
         style="stop-color:#cceaff;stop-opacity:1"
         offset="0.37060696"
         id="stop5145" />
      <stop
         style="stop-color:#ffffff;stop-opacity:1"
         offset="1"
         id="stop5011" />
    </linearGradient>
  </defs>
  <rect
     style="fill:#974711;fill-opacity:1;stroke-width:0.396461"
     id="rect939"
     width="12"
     height="14"
     x="1.0000002"
     y="-2.0851975e-07"
     ry="0.99999994" />
  <rect
     style="fill:url(#linearGradient3170);fill-opacity:1;stroke-width:0.330717"
     id="rect3082"
     width="14"
     height="2.25"
     x="-14.000001"
     y="10.5"
     transform="rotate(-90)" />
  <rect
     style="fill:url(#linearGradient1554);fill-opacity:1;stroke-width:0.499997"
     id="rect1392"
     width="11"
     height="14"
     x="1.0000002"
     y="5.7958641e-07"
     ry="0.99999994" />
  <path
     id="rect1581"
     style="fill:#006e8f;fill-opacity:1;stroke-width:0.499997"
     d="m 3.9999999,2.0000006 v 1 H 10 v -1 z m 0,3.0000001 V 6.0000006 H 10 V 5.0000007 Z m 0,2.9999997 V 9.0000007 H 10 V 8.0000004 Z m 0,2.9999996 v 1.000001 H 10 V 11 Z" />
  <path
     id="rect1882"
     style="opacity:1;fill:#006e8f;fill-opacity:1;stroke-width:2;stroke-linecap:round;stroke-linejoin:round"
     d="m 1,1.0000008 c -0.5540001,0 -1,0.4459999 -1,1 0,0.5540002 0.4459999,1 1,1 h 1 c 0.5540001,0 0.9999999,-0.4459998 0.9999999,-1 0,-0.00866 2.166e-4,-0.016773 0,-0.025391 C 2.9863558,1.4326696 2.5453439,1.0000006 2,1.0000006 Z m 0,2.9999997 c -0.5540001,0 -1,0.4460005 -1,1.0000002 0,0.5539998 0.4459999,0.9999999 1,0.9999999 h 1 c 0.5540001,0 0.9999999,-0.4460001 0.9999999,-0.9999999 0,-0.00866 2.166e-4,-0.016781 0,-0.025398 C 2.9863615,4.4326695 2.5453439,4.0000005 2,4.0000005 Z m 0,3 c -0.5540001,0 -1,0.4460001 -1,0.9999999 0,0.5540001 0.4459999,1.0000006 1,1.0000006 h 1 c 0.5540001,0 0.9999999,-0.4460005 0.9999999,-1.0000006 0,-0.00866 2.166e-4,-0.016781 0,-0.025398 C 2.9863615,7.4326699 2.5453439,7.0000005 2,7.0000005 Z M 0.94921879,10.000001 C 0.41938999,10.026684 0,10.463313 0,11.000001 c 0,0.554 0.4459999,1 1,1 h 1 c 0.5540002,0 0.9999999,-0.446 0.9999999,-1 0,-0.0087 2.17e-4,-0.01678 0,-0.0254 C 2.9863619,10.43267 2.5453436,10.000001 2,10.000001 H 1 c -0.017314,0 -0.0336907,-8.611e-4 -0.0507812,0 z" />
  <g
     id="g939"
     style="stroke-width:1.00013;stroke-miterlimit:4;stroke-dasharray:none"
     transform="matrix(0.94496913,0,0,0.94496913,2.0891389,2.8454518)">
    <rect
       style="fill:#7c8388;fill-opacity:1;stroke-width:1.00013;stroke-linecap:round;stroke-linejoin:round;stroke-miterlimit:4;stroke-dasharray:none"
       id="rect1454"
       height="3.1747069"
       x="11.444552"
       y="0.33682001"
       transform="rotate(45)"
       width="1.0582356" />
    <path
       id="rect1712"
       style="fill:#798b97;fill-opacity:1;stroke-width:1.63317;stroke-linecap:round;stroke-linejoin:round"
       d="M 6.6672104,9.5177663 7.4154963,10.266052 4.4744556,13.206894 3.7261696,12.458608 Z"
       sodipodi:nodetypes="ccccc" />
  </g>
  <path
     id="path846"
     style="fill:url(#linearGradient934);fill-opacity:1;stroke-width:0.631582;stroke-linecap:round;stroke-linejoin:round"
     d="m 12,5.0000007 c -2.2091387,4e-7 -3.9999998,1.7908615 -3.9999998,4.0000003 4e-7,2.20914 1.7908615,4 3.9999998,4 2.20914,0 4,-1.790861 4,-4 0,-2.2091384 -1.79086,-3.9999995 -4,-4.0000003 z"
     sodipodi:nodetypes="sssss" />
  <circle
     style="fill:url(#linearGradient5015);fill-opacity:1;stroke-width:0.500001;stroke-linecap:round;stroke-linejoin:round"
     id="path4927"
     cx="12.000001"
     cy="9.0000019"
     r="3" />
</svg>
