<?xml version="1.0" encoding="UTF-8" standalone="no"?>
<!-- Created with Inkscape (http://www.inkscape.org/) -->

<svg
   width="16"
   height="16"
   viewBox="0 0 4.2333332 4.2333335"
   version="1.1"
   id="svg5"
   inkscape:version="1.1.2 (0a00cf5339, 2022-02-04, custom)"
   sodipodi:docname="utilities-log-viewer.svg"
   xmlns:inkscape="http://www.inkscape.org/namespaces/inkscape"
   xmlns:sodipodi="http://sodipodi.sourceforge.net/DTD/sodipodi-0.dtd"
   xmlns:xlink="http://www.w3.org/1999/xlink"
   xmlns="http://www.w3.org/2000/svg"
   xmlns:svg="http://www.w3.org/2000/svg">
  <sodipodi:namedview
     id="namedview7"
     pagecolor="#ffffff"
     bordercolor="#666666"
     borderopacity="1.0"
     inkscape:pageshadow="2"
     inkscape:pageopacity="0.0"
     inkscape:pagecheckerboard="0"
     inkscape:document-units="px"
     showgrid="false"
     units="px"
     height="64px"
     inkscape:zoom="17.655572"
     inkscape:cx="13.423524"
     inkscape:cy="19.229056"
     inkscape:window-width="1920"
     inkscape:window-height="1004"
     inkscape:window-x="0"
     inkscape:window-y="24"
     inkscape:window-maximized="1"
     inkscape:current-layer="svg5" />
  <defs
     id="defs2">
    <linearGradient
       inkscape:collect="always"
       id="linearGradient2818">
      <stop
         style="stop-color:#000000;stop-opacity:0.40000001"
         offset="0"
         id="stop2814" />
      <stop
         style="stop-color:#000000;stop-opacity:0;"
         offset="1"
         id="stop2816" />
    </linearGradient>
    <linearGradient
       inkscape:collect="always"
       id="linearGradient1552">
      <stop
         style="stop-color:#75d4f0;stop-opacity:1;"
         offset="0"
         id="stop1548" />
      <stop
         style="stop-color:#40b0d1;stop-opacity:1"
         offset="1"
         id="stop1550" />
    </linearGradient>
    <linearGradient
       inkscape:collect="always"
       xlink:href="#linearGradient1552"
       id="linearGradient1554"
       x1="2.1166668"
       y1="10.318751"
       x2="8.4666672"
       y2="10.318751"
       gradientUnits="userSpaceOnUse"
       gradientTransform="matrix(0.49999996,0,0,0.49999996,-0.79374996,-1.8520832)" />
    <linearGradient
       inkscape:collect="always"
       xlink:href="#linearGradient2818"
       id="linearGradient3170"
       x1="8.4666729"
       y1="14.287501"
       x2="8.4666672"
       y2="15.875"
       gradientUnits="userSpaceOnUse"
       gradientTransform="matrix(0.29166665,0,0,0.37499994,-4.3215279,-2.5796868)" />
    <linearGradient
       inkscape:collect="always"
       xlink:href="#linearGradient932"
       id="linearGradient934"
       x1="5.8208332"
       y1="6.0854168"
       x2="15.875"
       y2="6.0854168"
       gradientUnits="userSpaceOnUse"
       gradientTransform="matrix(0.21052634,0,0,0.21052634,0.72976503,1.2784387)" />
    <linearGradient
       inkscape:collect="always"
       id="linearGradient932">
      <stop
         style="stop-color:#bcc6cd;stop-opacity:1"
         offset="0"
         id="stop928" />
      <stop
         style="stop-color:#bcc5cc;stop-opacity:1"
         offset="1"
         id="stop930" />
    </linearGradient>
    <linearGradient
       inkscape:collect="always"
       xlink:href="#linearGradient5013"
       id="linearGradient5015"
       x1="6.0854168"
       y1="1.3229163"
       x2="15.610416"
       y2="10.847917"
       gradientUnits="userSpaceOnUse"
       gradientTransform="matrix(0.16666667,0,0,0.16666667,1.2055504,1.5453437)" />
    <linearGradient
       inkscape:collect="always"
       id="linearGradient5013">
      <stop
         style="stop-color:#ffffff;stop-opacity:1;"
         offset="0"
         id="stop5009" />
      <stop
         style="stop-color:#cceaff;stop-opacity:1"
         offset="0.37060696"
         id="stop5145" />
      <stop
         style="stop-color:#ffffff;stop-opacity:1"
         offset="1"
         id="stop5011" />
    </linearGradient>
  </defs>
  <rect
     style="fill:#974711;fill-opacity:1;stroke-width:0.104897"
     id="rect939"
     width="3.175"
     height="3.7041667"
     x="0.26458338"
     y="-2.0851975e-07"
     ry="0.26458332" />
  <rect
     style="fill:url(#linearGradient3170);fill-opacity:1;stroke-width:0.0875021"
     id="rect3082"
     width="3.7041667"
     height="0.59531248"
     x="-3.7041667"
     y="2.778125"
     transform="rotate(-90)" />
  <rect
     style="fill:url(#linearGradient1554);fill-opacity:1;stroke-width:0.132291"
     id="rect1392"
     width="2.9104166"
     height="3.7041667"
     x="0.26458338"
     y="0"
     ry="0.26458332" />
  <path
     id="rect1581"
     style="fill:#006e8f;fill-opacity:1;stroke-width:0.132291"
     d="m 1.0583333,0.52916666 v 0.26458333 h 1.5875 V 0.52916666 Z m 0,0.79375004 V 1.5875 h 1.5875 V 1.3229167 Z m 0,0.7937499 V 2.38125 h 1.5875 V 2.1166666 Z m 0,0.79375 V 3.175 h 1.5875 V 2.9104166 Z" />
  <path
     id="rect1882"
     style="opacity:1;fill:#006e8f;fill-opacity:1;stroke-width:0.529167;stroke-linecap:round;stroke-linejoin:round"
     d="M 0.26458334,0.2645834 C 0.11800414,0.2645834 0,0.38258754 0,0.52916673 0,0.67574593 0.11800414,0.79375006 0.26458334,0.79375006 h 0.26458332 c 0.14657919,0 0.26458331,-0.11800413 0.26458331,-0.26458333 0,-0.00229 5.73e-5,-0.004438 0,-0.006718 -0.00361,-0.14338839 -0.1202944,-0.2578654 -0.26458331,-0.2578654 z m 0,0.7937499 C 0.11800414,1.0583333 0,1.1763376 0,1.3229167 0,1.4694958 0.11800414,1.5875 0.26458334,1.5875 h 0.26458332 c 0.14657919,0 0.26458331,-0.1180042 0.26458331,-0.2645833 0,-0.00229 5.73e-5,-0.00444 0,-0.00672 C 0.79014147,1.1728103 0.67345557,1.0583333 0.52916666,1.0583333 Z m 0,0.79375 C 0.11800414,1.8520833 0,1.9700875 0,2.1166666 0,2.2632458 0.11800414,2.3812501 0.26458334,2.3812501 h 0.26458332 c 0.14657919,0 0.26458331,-0.1180043 0.26458331,-0.2645835 0,-0.00229 5.73e-5,-0.00444 0,-0.00672 C 0.79014147,1.9665604 0.67345557,1.8520833 0.52916666,1.8520833 Z M 0.25114747,2.6458334 C 0.1109636,2.6528934 0,2.768418 0,2.9104167 0,3.0569959 0.11800414,3.1750001 0.26458334,3.1750001 h 0.26458332 c 0.14657922,0 0.26458331,-0.1180042 0.26458331,-0.2645834 0,-0.00229 5.74e-5,-0.00444 0,-0.00672 C 0.79014157,2.7603104 0.67345549,2.6458334 0.52916666,2.6458334 H 0.26458334 c -0.004581,0 -0.008914,-2.278e-4 -0.0134359,0 z" />
  <g
     id="g939"
     style="stroke-width:1.00013;stroke-miterlimit:4;stroke-dasharray:none"
     transform="matrix(0.25002308,0,0,0.25002308,0.39128827,0.93118803)">
    <rect
       style="fill:#7c8388;fill-opacity:1;stroke-width:1.00013;stroke-linecap:round;stroke-linejoin:round;stroke-miterlimit:4;stroke-dasharray:none"
       id="rect1454"
       height="3.1747069"
       x="11.444552"
       y="0.33682001"
       transform="rotate(45)"
       width="1.0582356" />
    <path
       id="rect1712"
       style="fill:#798b97;fill-opacity:1;stroke-width:1.63317;stroke-linecap:round;stroke-linejoin:round"
       d="M 6.6672104,9.5177663 7.4154963,10.266052 4.4744556,13.206894 3.7261696,12.458608 Z"
       sodipodi:nodetypes="ccccc" />
  </g>
  <path
     id="path846"
     style="fill:url(#linearGradient934);fill-opacity:1;stroke-width:0.167106;stroke-linecap:round;stroke-linejoin:round"
     d="m 3.0135371,1.5012458 c -0.5845014,1e-7 -1.0583334,0.4738321 -1.0583334,1.0583334 1e-7,0.5845015 0.4738321,1.0583332 1.0583334,1.0583332 0.5845014,0 1.0583332,-0.4738318 1.0583332,-1.0583332 0,-0.5845012 -0.4738318,-1.0583332 -1.0583332,-1.0583334 z"
     sodipodi:nodetypes="sssss" />
  <circle
     style="fill:url(#linearGradient5015);fill-opacity:1;stroke-width:0.132292;stroke-linecap:round;stroke-linejoin:round"
     id="path4927"
     cx="3.0135372"
     cy="2.5595794"
     r="0.79374999" />
</svg>
