<?xml version="1.0" encoding="UTF-8" standalone="no"?>
<!-- Created with Inkscape (http://www.inkscape.org/) -->

<svg
   width="16"
   height="16"
   viewBox="0 0 16 16"
   version="1.1"
   id="svg5"
   inkscape:version="1.2.1 (9c6d41e410, 2022-07-14, custom)"
   sodipodi:docname="visual-studio-code.svg"
   xmlns:inkscape="http://www.inkscape.org/namespaces/inkscape"
   xmlns:sodipodi="http://sodipodi.sourceforge.net/DTD/sodipodi-0.dtd"
   xmlns:xlink="http://www.w3.org/1999/xlink"
   xmlns="http://www.w3.org/2000/svg"
   xmlns:svg="http://www.w3.org/2000/svg">
  <sodipodi:namedview
     id="namedview7"
     pagecolor="#ffffff"
     bordercolor="#000000"
     borderopacity="0.25"
     inkscape:showpageshadow="2"
     inkscape:pageopacity="0.0"
     inkscape:pagecheckerboard="0"
     inkscape:deskcolor="#d1d1d1"
     inkscape:document-units="px"
     showgrid="false"
     inkscape:zoom="50.5625"
     inkscape:cx="7.9901112"
     inkscape:cy="8"
     inkscape:window-width="1920"
     inkscape:window-height="1012"
     inkscape:window-x="0"
     inkscape:window-y="0"
     inkscape:window-maximized="1"
     inkscape:current-layer="svg5" />
  <defs
     id="defs2">
    <linearGradient
       inkscape:collect="always"
       xlink:href="#linearGradient2463"
       id="linearGradient2465"
       x1="25.999876"
       y1="6.0003786"
       x2="26"
       y2="25.999962"
       gradientUnits="userSpaceOnUse"
       gradientTransform="matrix(0.7999733,0,0,0.7999733,-4.7992325,-4.7998394)" />
    <linearGradient
       inkscape:collect="always"
       id="linearGradient2463">
      <stop
         style="stop-color:#ffffff;stop-opacity:1;"
         offset="0"
         id="stop2459" />
      <stop
         style="stop-color:#ffffff;stop-opacity:0;"
         offset="1"
         id="stop2461" />
    </linearGradient>
  </defs>
  <path
     d="M 15.434167,1.694986 12.139604,0.09950729 c -0.381314,-0.1846771 -0.83709,-0.1067681 -1.136387,0.1942403 L 0.2179732,10.064466 c -0.2900963,0.266043 -0.2897603,0.725404 8e-4,0.991013 l 0.8809771,0.805499 c 0.2374722,0.21718 0.5951207,0.233145 0.850817,0.03807 L 14.938423,2.1088809 c 0.435712,-0.3324644 1.061559,-0.019872 1.061559,0.5302053 v -0.03848 c 0,-0.3861348 -0.219934,-0.7381304 -0.565815,-0.9056362 z"
     style="fill:#0072b0;stroke-width:0.799982"
     id="path3815" />
  <path
     d="m 15.434167,14.304793 -3.294563,1.595486 c -0.381314,0.184608 -0.83709,0.106733 -1.136387,-0.194239 L 0.2179732,5.5752736 c -0.2900963,-0.2660306 -0.2897603,-0.7254024 8e-4,-0.9910059 L 1.0997183,3.7787372 C 1.3372065,3.5615913 1.694855,3.5456057 1.9505513,3.7406892 L 14.938439,13.890851 C 15.374151,14.223305 16,13.910741 16,13.360639 v 0.03853 c 0,0.386103 -0.219936,0.738095 -0.565817,0.905642 z"
     style="fill:#008eda;stroke-width:0.799982"
     id="path3843" />
  <path
     d="m 12.139828,15.900376 c -0.381442,0.1845 -0.837202,0.10656 -1.136515,-0.194496 0.368753,0.370895 0.999346,0.108173 0.999346,-0.416382 V 0.70993518 c 0,-0.52456229 -0.630593,-0.78726809 -0.999346,-0.41634599 0.299297,-0.301042 0.755073,-0.379055 1.136515,-0.1945395 l 3.294003,1.59328671 c 0.346143,0.1674177 0.566251,0.519543 0.566251,0.9058442 V 13.401327 c 0,0.386293 -0.220115,0.738408 -0.566251,0.905827 z"
     style="fill:#1eacf8;stroke-width:0.799982"
     id="path3871" />
  <path
     d="M 11.691122,4.8798707e-4 C 11.590003,0.00224799 11.490307,0.01999199 11.394258,0.05205599 c -0.096,0.032048 -0.18816,0.077888 -0.271855,0.1390563 -0.01648,0.012 -0.03104,0.027456 -0.04688,0.040624 -0.02432,0.020208 -0.04928,0.039712 -0.07184,0.062496 L 4.7679466,5.9424805 1.9508553,3.7409916 C 1.695175,3.5459001 1.3368065,3.5613465 1.0993343,3.7784796 L 0.2181012,4.5847013 c -0.2905123,0.2656035 -0.2900963,0.7245625 0,0.9905915 L 2.6508401,7.8611547 0.2181012,10.064206 c -0.2900963,0.266043 -0.2905123,0.726546 0,0.992154 l 0.8812331,0.804661 c 0.2374722,0.217179 0.5958407,0.234134 0.851521,0.03905 L 4.7257706,9.8079535 11.003681,15.706194 c 0.07488,0.07525 0.159201,0.136064 0.249985,0.182806 0.272337,0.140288 0.599841,0.149312 0.885922,0.01093 l 3.293635,-1.592134 c 0.08752,-0.04235 0.166017,-0.09737 0.235936,-0.160931 0.0344,-0.03104 0.06573,-0.06317 0.09529,-0.09843 v -0.0016 c 0.02951,-0.03527 0.05843,-0.07201 0.08281,-0.110933 v -0.0016 c 0.04933,-0.07915 0.08656,-0.164102 0.112493,-0.254678 0.0128,-0.04399 0.02301,-0.08853 0.02968,-0.134369 10e-5,-10e-4 -1e-4,-0.0021 0,-0.0031 0.0065,-0.04639 0.01093,-0.09289 0.01093,-0.140624 v -0.0016 -0.03905 -10.7215172 -0.039056 c 0,-5.2e-4 2e-6,-0.00104 0,-0.00156 0,-0.047248 -0.0045,-0.094672 -0.01093,-0.1406241 -1e-4,-10e-4 10e-5,-0.00208 0,-0.00304 -0.0065,-0.045792 -0.01707,-0.090208 -0.02968,-0.1342562 C 15.908239,2.1408675 15.807246,1.9792432 15.66915,1.8536926 15.59923,1.7901248 15.52083,1.735117 15.433213,1.6927597 L 12.139588,0.09903209 c -0.04768,-0.0230561 -0.09568,-0.041312 -0.145281,-0.0562561 -0.09904,-0.029872 -0.201936,-0.043888 -0.303121,-0.0421760029 z M 12.002051,4.3222179 V 11.596975 L 7.2647175,7.8939723 Z"
     style="opacity:0.25;fill:url(#linearGradient2465);fill-opacity:1;stroke-width:0.799982"
     id="path1332" />
</svg>
