<?xml version="1.0" encoding="UTF-8" standalone="no"?>
<!-- Created with Inkscape (http://www.inkscape.org/) -->

<svg
   width="16"
   height="16"
   viewBox="0 0 16 16"
   version="1.1"
   id="svg5"
   inkscape:version="1.3.2 (091e20ef0f, 2023-11-25, custom)"
   sodipodi:docname="wayland.svg"
   xmlns:inkscape="http://www.inkscape.org/namespaces/inkscape"
   xmlns:sodipodi="http://sodipodi.sourceforge.net/DTD/sodipodi-0.dtd"
   xmlns:xlink="http://www.w3.org/1999/xlink"
   xmlns="http://www.w3.org/2000/svg"
   xmlns:svg="http://www.w3.org/2000/svg">
  <sodipodi:namedview
     id="namedview7"
     pagecolor="#ffffff"
     bordercolor="#666666"
     borderopacity="1.0"
     inkscape:pageshadow="2"
     inkscape:pageopacity="0.0"
     inkscape:pagecheckerboard="0"
     inkscape:document-units="px"
     showgrid="false"
     units="px"
     inkscape:zoom="50.5"
     inkscape:cx="8"
     inkscape:cy="8"
     inkscape:window-width="1920"
     inkscape:window-height="1012"
     inkscape:window-x="0"
     inkscape:window-y="0"
     inkscape:window-maximized="1"
     inkscape:current-layer="svg5"
     inkscape:showpageshadow="2"
     inkscape:deskcolor="#d1d1d1" />
  <defs
     id="defs2">
    <linearGradient
       inkscape:collect="always"
       xlink:href="#linearGradient1777"
       id="linearGradient2"
       x1="2.2857144"
       y1="2.3680553"
       x2="14.564292"
       y2="12.572753"
       gradientUnits="userSpaceOnUse" />
    <linearGradient
       inkscape:collect="always"
       id="linearGradient1777">
      <stop
         style="stop-color:#fedd00;stop-opacity:1;"
         offset="0"
         id="stop1773" />
      <stop
         style="stop-color:#fdcb00;stop-opacity:1"
         offset="0.63547182"
         id="stop1818" />
      <stop
         style="stop-color:#fab500;stop-opacity:1"
         offset="1"
         id="stop1775" />
    </linearGradient>
    <linearGradient
       inkscape:collect="always"
       id="linearGradient3161">
      <stop
         style="stop-color:#e6eaec;stop-opacity:1;"
         offset="0"
         id="stop3157" />
      <stop
         style="stop-color:#f6f6f6;stop-opacity:1;"
         offset="1"
         id="stop3159" />
    </linearGradient>
    <linearGradient
       inkscape:collect="always"
       xlink:href="#linearGradient3161"
       id="linearGradient6"
       x1="14.03276"
       y1="14"
       x2="8"
       y2="0"
       gradientUnits="userSpaceOnUse" />
  </defs>
  <circle
     style="fill:url(#linearGradient2);stroke-width:1"
     id="path1"
     cx="8"
     cy="8"
     r="8" />
  <path
     style="fill:url(#linearGradient6)"
     d="m 13.55924,0 c 0.282438,1.644e-5 0.44028,0.223633 0.47352,0.67085792 L 13.676013,2.777032 h 0.08723 l 0.186914,-0.1560144 h 0.04985 v 0.046804 c -0.257549,0.1976312 -0.50677,0.7384728 -0.747671,1.6225336 -0.09139,0.7592748 -0.24508,1.4613316 -0.461061,2.1061784 -0.191077,0.665662 -0.286614,1.2793104 -0.286602,1.8409536 L 12.143301,9.345178 c -8e-6,0.093612 0.237375,0.1872212 0.511527,0.2808216 C 12.604978,9.844424 12.530208,9.953634 12.43053,9.95363 v 0.062406 h 0.08723 v 0.0468 c -1.2e-5,0.114415 -0.141235,0.17162 -0.423677,0.171616 l 0.04984,0.06241 v 0.218416 h -0.08723 c 0.05814,0.218425 0.182753,0.327631 0.373834,0.327631 v 0.109206 h -0.373834 v 0.06241 c 0.124601,4e-6 0.186909,0.09361 0.186917,0.280826 l -0.523361,0.218416 0.04984,0.06241 v 0.0468 c -8e-6,0.07281 -0.06232,0.10921 -0.186917,0.10921 v 0.0624 c 0.157829,4e-6 0.236752,0.0364 0.23676,0.10921 -0.224306,0.09361 -0.619529,0.156317 -0.985046,0.988386 C 10.46105,13.63064 10.137062,13.99987 9.86293,13.99987 H 9.76324 C 9.555549,13.833455 9.385246,13.282208 9.252336,12.34613 8.720658,10.921214 8.4548228,10.484075 8.4548304,10.234452 8.4548228,9.5896044 8.28452,8.9031452 7.9439264,8.175082 7.8525384,7.8526604 7.7902344,7.4888492 7.7570096,7 H 7.532712 C 6.9678048,8.0712948 6.6728936,8.80434 6.6479744,9.4075836 6.4901332,9.7612164 6.3655208,10.187652 6.2741444,10.68689 c 0.3405976,0.114414 0.5109,0.22362 0.510904,0.327626 v 0.06241 C 6.5192052,11.035322 6.3322924,10.957314 6.224298,10.842904 6.1079944,11.12373 5.954306,11.903794 5.7632404,13.183096 5.6137048,13.775946 5.426788,14 5.202494,14 4.57113,13.73998 4.043612,13.385914 3.6199396,12.793064 3.5534788,12.793068 3.4454804,12.49664 3.2959524,11.90379 3.2045684,11.903794 3.142264,11.607366 3.1090356,11.014516 2.7933536,10.17205 2.5773648,9.2099696 2.4610612,8.1282776 V 6.50574 H 2.4112152 L 2.1869172,6.568146 V 6.50574 c 0,-0.072794 0.074766,-0.109198 0.224298,-0.109206 L 2.3613722,5.4604556 V 4.727192 L 2,1.9872811 V 0.98879724 C 2.157841,0.36476002 2.4319852,0.0527353 2.8224292,0.05271886 L 2.9719692,0.2087333 2.8224372,0.161929 C 3.428874,0.99401004 3.7860932,2.0957856 3.8940876,2.667822 H 4.317764 v 0.10921 H 3.9937772 V 2.9018436 C 4.1183856,3.380292 4.2097656,3.619514 4.2679216,3.619502 h 0.099689 l 0.2242976,-0.062406 0.049843,0.062406 0.049846,-0.062406 0.049843,0.062406 v 0.046804 c -0.16615,0.12482 -0.2782968,0.2964356 -0.3364488,0.5148436 h -0.037376 v 0.109206 h 0.087228 C 4.571143,6.027312 4.7871358,7.0425244 5.1028178,7.9369948 l 0.1869168,0.1560104 h 0.099685 C 5.5140284,8.0930136 5.7757112,7.3853982 6.174468,6.1684898 6.4319944,5.6172554 6.6189072,5.2136206 6.7352148,4.7975782 L 6.685372,4.6259622 C 6.9428944,4.220337 7.20873,4.0175226 7.482878,4.0175102 h 0.087228 c 0.1744516,1.24e-5 0.29906,0.1144188 0.373834,0.3432316 0.2325988,0.343236 0.4195156,0.7780736 0.5607464,1.4645204 L 9.202507,7.2471526 c 0.09137,0.1144188 0.137062,0.2444268 0.13707,0.390036 0.257523,0.6136528 0.490125,1.164898 0.697821,1.3625124 h 0.149532 c 0.517428,-1.2634264 0.724151,-2.4443928 1.109031,-3.0400034 v -0.062406 l -0.237072,-0.1092104 -0.186917,0.062406 h -0.23676 V 5.7256756 l 0.473519,-0.046804 h 0.374147 C 11.840086,4.3371724 12.168226,3.2970844 12.467301,2.558612 12.566979,1.0401003 12.704053,0.28083828 12.878516,0.28082596 L 13.559254,0"
     id="path2" />
</svg>
