<?xml version="1.0" encoding="UTF-8" standalone="no"?>
<!-- Created with Inkscape (http://www.inkscape.org/) -->

<svg
   width="16"
   height="16"
   viewBox="0 0 16 16"
   version="1.1"
   id="svg5"
   inkscape:version="1.2.1 (9c6d41e410, 2022-07-14, custom)"
   sodipodi:docname="Xfwm4CompositeEditor.svg"
   xmlns:inkscape="http://www.inkscape.org/namespaces/inkscape"
   xmlns:sodipodi="http://sodipodi.sourceforge.net/DTD/sodipodi-0.dtd"
   xmlns:xlink="http://www.w3.org/1999/xlink"
   xmlns="http://www.w3.org/2000/svg"
   xmlns:svg="http://www.w3.org/2000/svg">
  <sodipodi:namedview
     id="namedview7"
     pagecolor="#ffffff"
     bordercolor="#666666"
     borderopacity="1.0"
     inkscape:pageshadow="2"
     inkscape:pageopacity="0.0"
     inkscape:pagecheckerboard="0"
     inkscape:document-units="px"
     showgrid="false"
     units="px"
     height="48px"
     inkscape:zoom="50.5"
     inkscape:cx="8"
     inkscape:cy="8"
     inkscape:window-width="1920"
     inkscape:window-height="1010"
     inkscape:window-x="0"
     inkscape:window-y="0"
     inkscape:window-maximized="1"
     inkscape:current-layer="svg5"
     inkscape:lockguides="true"
     inkscape:showpageshadow="2"
     inkscape:deskcolor="#d1d1d1" />
  <defs
     id="defs2">
    <linearGradient
       inkscape:collect="always"
       id="linearGradient239772">
      <stop
         style="stop-color:#aeb7bc;stop-opacity:1;"
         offset="0"
         id="stop239768" />
      <stop
         style="stop-color:#959ea5;stop-opacity:1"
         offset="1"
         id="stop239770" />
    </linearGradient>
    <linearGradient
       inkscape:collect="always"
       xlink:href="#linearGradient239772"
       id="linearGradient1850"
       x1="32.349182"
       y1="2.0000002"
       x2="31.650818"
       y2="62"
       gradientUnits="userSpaceOnUse"
       gradientTransform="matrix(0.27586209,0,0,0.27586209,-0.82757838,-0.82758623)" />
  </defs>
  <path
     id="path1303"
     style="color:#000000;fill:url(#linearGradient1850);fill-opacity:1;stroke:none;stroke-width:1.04253;stroke-linecap:round;stroke-linejoin:round;-inkscape-stroke:none"
     d="M 6.8966801,0 C 6.3542473,2.2609395e-4 5.8918376,0.39384117 5.8068364,0.92968748 L 5.3966801,3.4921875 2.974805,2.5664062 C 2.4682461,2.3721004 1.8946553,2.5752699 1.6232425,3.0449219 L 0.51972687,4.9550782 C 0.24870564,5.4249529 0.3598899,6.0217448 0.78144555,6.3632811 L 2.7951175,7.9999998 0.77949252,9.6367189 C 0.35908811,9.9786263 0.24889689,10.575697 0.51972672,11.044922 l 1.10351578,1.910156 c 0.2709447,0.469211 0.8433036,0.673593 1.3496092,0.480469 l 2.4238284,-0.927735 0.4101563,2.564454 C 5.8927337,15.607301 6.3549041,15.999935 6.8966801,16 h 2.207031 c 0.5417752,-6.7e-5 1.0039469,-0.392699 1.0898439,-0.927734 l 0.410156,-2.564454 2.423829,0.927735 c 0.506305,0.193123 1.078665,-0.01126 1.349609,-0.480469 l 1.103516,-1.910156 c 0.27083,-0.469225 0.160639,-1.0662964 -0.259767,-1.4082031 L 13.205274,7.9999998 15.218946,6.3632811 C 15.640503,6.021744 15.751685,5.4249529 15.480666,4.9550782 L 14.377149,3.0449219 C 14.105737,2.5752703 13.532145,2.3721004 13.025587,2.5664062 L 10.603711,3.4921875 10.193555,0.92968748 C 10.108554,0.39384148 9.6461444,2.26511e-4 9.1037111,0 Z m 1.1035155,4.9999998 a 3,3 0 0 1 3.0000004,3 A 3,3 0 0 1 8.0001956,11 a 3,3 0 0 1 -3,-3.0000002 3,3 0 0 1 3,-3 z" />
  <rect
     style="fill:#797774;fill-opacity:1;stroke-width:0.999999"
     id="rect1153"
     width="10"
     height="7.9999995"
     x="6.000196"
     y="7.9999995"
     ry="0.99999994" />
  <rect
     style="fill:#fafafa;fill-opacity:1;stroke-width:0.860663"
     id="rect1359"
     width="7.9999995"
     height="5"
     x="7.0001955"
     y="10" />
  <path
     id="rect15129"
     style="fill:#106fd6;fill-opacity:1;stroke-width:1.22474"
     d="m 8.5001958,12.164213 1.414213,1.414214 0.7071072,0.707107 0.707106,-0.707107 2.121321,-2.12132 L 12.742836,10.75 10.621515,12.87132 9.2073019,11.457107 Z" />
</svg>
