<?xml version="1.0" encoding="UTF-8" standalone="no"?>
<!-- Created with Inkscape (http://www.inkscape.org/) -->

<svg
   width="16"
   height="16"
   viewBox="0 0 16 16"
   version="1.1"
   id="svg5"
   inkscape:version="1.2.1 (9c6d41e410, 2022-07-14, custom)"
   sodipodi:docname="xfwm4-default.svg"
   xmlns:inkscape="http://www.inkscape.org/namespaces/inkscape"
   xmlns:sodipodi="http://sodipodi.sourceforge.net/DTD/sodipodi-0.dtd"
   xmlns="http://www.w3.org/2000/svg"
   xmlns:svg="http://www.w3.org/2000/svg">
  <sodipodi:namedview
     id="namedview7"
     pagecolor="#ffffff"
     bordercolor="#666666"
     borderopacity="1.0"
     inkscape:pageshadow="2"
     inkscape:pageopacity="0.0"
     inkscape:pagecheckerboard="0"
     inkscape:document-units="px"
     showgrid="false"
     units="px"
     height="64px"
     inkscape:zoom="51.6875"
     inkscape:cx="7.4679565"
     inkscape:cy="7.9903265"
     inkscape:window-width="1920"
     inkscape:window-height="1010"
     inkscape:window-x="0"
     inkscape:window-y="0"
     inkscape:window-maximized="1"
     inkscape:current-layer="svg5"
     inkscape:showpageshadow="2"
     inkscape:deskcolor="#d1d1d1" />
  <defs
     id="defs2" />
  <path
     id="rect261617"
     style="fill:#797774;stroke-width:0.414716;stroke-linecap:round;stroke-linejoin:round"
     d="m 2,1 h 11.999999 c 1.108,0 2,0.8919999 2,2.0000001 V 13 c 0,1.108 -0.892,2 -2,2 H 2 C 0.89200001,15 0,14.108 0,13 V 3.0000001 C 0,1.8919999 0.89200001,1 2,1 Z"
     sodipodi:nodetypes="sssssssss" />
  <path
     id="rect1043"
     style="fill:#fafafa;fill-opacity:1;stroke-width:3;stroke-linecap:round;stroke-linejoin:round"
     d="M 1.9999996,3.9999997 H 13.999999 c 0.554,0 1,0.4460001 1,0.9999998 v 7.9999995 c 0,0.553999 -0.446,0.999999 -1,0.999999 H 1.9999996 c -0.5539998,0 -0.99999979,-0.446 -0.99999979,-0.999999 V 4.9999995 c 0,-0.5539997 0.44599999,-0.9999998 0.99999979,-0.9999998 z"
     sodipodi:nodetypes="sssssssss" />
  <path
     id="rect1066"
     style="fill:#c4c4c4;fill-opacity:1;stroke-width:1.5;stroke-linecap:round;stroke-linejoin:round"
     d="M 9.9999997,1.9999999 V 2.9999997 H 10.999999 V 1.9999999 Z m 2.0000003,0 v 0.9999998 h 0.999999 V 1.9999999 Z m 1.999999,0 v 0.9999998 h 1 V 1.9999999 Z" />
</svg>
