<?xml version="1.0" encoding="UTF-8" standalone="no"?>
<!-- Created with Inkscape (http://www.inkscape.org/) -->

<svg
   width="16"
   height="16"
   viewBox="0 0 16 16"
   version="1.1"
   id="svg364"
   inkscape:version="1.2.2 (1:1.2.2+202305151914+b0a8486541)"
   sodipodi:docname="youtube-dl.svg"
   xmlns:inkscape="http://www.inkscape.org/namespaces/inkscape"
   xmlns:sodipodi="http://sodipodi.sourceforge.net/DTD/sodipodi-0.dtd"
   xmlns:xlink="http://www.w3.org/1999/xlink"
   xmlns="http://www.w3.org/2000/svg"
   xmlns:svg="http://www.w3.org/2000/svg">
  <sodipodi:namedview
     id="namedview366"
     pagecolor="#ffffff"
     bordercolor="#000000"
     borderopacity="0.25"
     inkscape:showpageshadow="2"
     inkscape:pageopacity="0.0"
     inkscape:pagecheckerboard="0"
     inkscape:deskcolor="#d1d1d1"
     inkscape:document-units="px"
     showgrid="false"
     inkscape:zoom="50.375"
     inkscape:cx="7.9900744"
     inkscape:cy="8"
     inkscape:window-width="1920"
     inkscape:window-height="1008"
     inkscape:window-x="0"
     inkscape:window-y="0"
     inkscape:window-maximized="1"
     inkscape:current-layer="svg364" />
  <defs
     id="defs361">
    <linearGradient
       inkscape:collect="always"
       id="linearGradient1284">
      <stop
         style="stop-color:#e94f11;stop-opacity:1;"
         offset="0"
         id="stop1280" />
      <stop
         style="stop-color:#c62300;stop-opacity:1;"
         offset="1"
         id="stop1282" />
    </linearGradient>
    <linearGradient
       inkscape:collect="always"
       xlink:href="#linearGradient1284"
       id="linearGradient1297"
       x1="4"
       y1="12.000001"
       x2="60"
       y2="52"
       gradientUnits="userSpaceOnUse"
       gradientTransform="matrix(0.28571432,0,0,0.27500001,-1.1428574,-0.2999998)" />
    <linearGradient
       inkscape:collect="always"
       id="linearGradient3143">
      <stop
         style="stop-color:#d2d2d2;stop-opacity:1;"
         offset="0"
         id="stop3139" />
      <stop
         style="stop-color:#ffffff;stop-opacity:1"
         offset="1"
         id="stop3141" />
    </linearGradient>
    <linearGradient
       inkscape:collect="always"
       xlink:href="#linearGradient3143"
       id="linearGradient1030"
       gradientUnits="userSpaceOnUse"
       gradientTransform="matrix(0.75002413,0,0,0.75002413,-1.2492646,-0.500265)"
       x1="10.976068"
       y1="17.998289"
       x2="10.999742"
       y2="7.3334508" />
  </defs>
  <path
     d="M 6.6843838,13.990114 C 4.0398356,13.940748 2.9664517,13.897159 2.3100837,13.812479 1.8287436,13.750377 1.5923596,13.689836 1.3257556,13.560375 0.88542756,13.346559 0.61157956,13.048404 0.41395166,12.567637 c -0.180688,-0.439542 -0.25426,-0.788652 -0.32178,-1.526912 -0.076196,-0.833132 -0.082152,-0.983958 -0.090064,-2.28204 -0.00932,-1.5265496 0.00944,-2.0267857 0.11382,-3.0400262 0.054736,-0.5311922 0.134512,-0.8842135 0.284412,-1.2585705 0.136516,-0.3409191 0.2611519,-0.5290686 0.4878199,-0.7364077 C 1.1730396,3.463094 1.4859076,3.3046835 1.8808756,3.2210588 2.4704117,3.0962384 5.1350238,3 8.001375,3 c 2.866352,0 5.530965,0.096238 6.1205,0.2210588 0.426348,0.09027 0.73926,0.2570067 1.044564,0.5566005 0.238952,0.2344826 0.362024,0.4475482 0.508484,0.8803278 0.150912,0.4459296 0.208788,0.8405738 0.29454,2.0084135 0.04072,0.5545901 0.04071,3.1075534 0,3.6618704 -0.04765,0.648463 -0.106112,1.225938 -0.145044,1.432569 -0.100088,0.53124 -0.296664,1.028627 -0.518292,1.311424 -0.152056,0.19402 -0.452224,0.4252 -0.703228,0.5416 -0.254164,0.117868 -0.49632,0.176302 -0.886699,0.213981 -1.209684,0.116753 -4.90367,0.201999 -7.0318002,0.162269 z"
     style="fill:url(#linearGradient1297);fill-opacity:1;stroke-width:0.280306"
     id="path304" />
  <path
     id="path1011"
     style="fill:url(#linearGradient1030);fill-opacity:1;stroke:none;stroke-width:1.50005;stroke-linecap:round"
     d="M 7.0004038,5 C 6.4464058,5 6.0004042,5.4460012 6.0004042,6 V 9.000375 H 4.750029 c -0.6679976,2.63e-4 -1.0034311,0.80874 -0.53125,1.28125 l 2.7523515,2.497672 c 0.2929065,0.292785 0.7676405,0.292785 1.0605465,0 l 2.750756,-2.497672 c 0.472182,-0.47251 0.136747,-1.280987 -0.53125,-1.28125 H 9.000807 V 6 c 0,-0.5539988 -0.446002,-1 -1,-1 z"
     sodipodi:nodetypes="ssccccccccsss" />
</svg>
