<?xml version="1.0" encoding="UTF-8" standalone="no"?>
<!-- Created with Inkscape (http://www.inkscape.org/) -->

<svg
   width="16"
   height="16"
   viewBox="0 0 16 16"
   version="1.1"
   id="svg364"
   inkscape:version="1.2.2 (1:1.2.2+202305151914+b0a8486541)"
   sodipodi:docname="youtube-music.svg"
   xmlns:inkscape="http://www.inkscape.org/namespaces/inkscape"
   xmlns:sodipodi="http://sodipodi.sourceforge.net/DTD/sodipodi-0.dtd"
   xmlns:xlink="http://www.w3.org/1999/xlink"
   xmlns="http://www.w3.org/2000/svg"
   xmlns:svg="http://www.w3.org/2000/svg">
  <sodipodi:namedview
     id="namedview366"
     pagecolor="#ffffff"
     bordercolor="#000000"
     borderopacity="0.25"
     inkscape:showpageshadow="2"
     inkscape:pageopacity="0.0"
     inkscape:pagecheckerboard="0"
     inkscape:deskcolor="#d1d1d1"
     inkscape:document-units="px"
     showgrid="false"
     inkscape:zoom="51.875"
     inkscape:cx="7.9903614"
     inkscape:cy="8"
     inkscape:window-width="1920"
     inkscape:window-height="1008"
     inkscape:window-x="0"
     inkscape:window-y="0"
     inkscape:window-maximized="1"
     inkscape:current-layer="svg364" />
  <defs
     id="defs361">
    <linearGradient
       inkscape:collect="always"
       id="linearGradient1284">
      <stop
         style="stop-color:#e94f11;stop-opacity:1;"
         offset="0"
         id="stop1280" />
      <stop
         style="stop-color:#c62300;stop-opacity:1;"
         offset="1"
         id="stop1282" />
    </linearGradient>
    <linearGradient
       inkscape:collect="always"
       xlink:href="#linearGradient3143"
       id="linearGradient1070"
       x1="5.8539066"
       y1="6.3996096"
       x2="4.7955728"
       y2="4.8121095"
       gradientUnits="userSpaceOnUse"
       gradientTransform="matrix(3.149606,0,0,2.9374295,-9.104166,-7.6891221)" />
    <linearGradient
       inkscape:collect="always"
       id="linearGradient3143">
      <stop
         style="stop-color:#d2d2d2;stop-opacity:1;"
         offset="0"
         id="stop3139" />
      <stop
         style="stop-color:#ffffff;stop-opacity:1"
         offset="1"
         id="stop3141" />
    </linearGradient>
    <linearGradient
       inkscape:collect="always"
       xlink:href="#linearGradient1284"
       id="linearGradient879"
       x1="2.4440167"
       y1="2.2440422"
       x2="13.206448"
       y2="14"
       gradientUnits="userSpaceOnUse" />
    <linearGradient
       inkscape:collect="always"
       xlink:href="#linearGradient3143"
       id="linearGradient1047"
       x1="11.962613"
       y1="12.505297"
       x2="3.9256349"
       y2="3.5955081"
       gradientUnits="userSpaceOnUse" />
  </defs>
  <circle
     style="fill:url(#linearGradient879);stroke-width:2;stroke-linecap:round;stroke-linejoin:round;fill-opacity:1"
     id="path294"
     cx="8"
     cy="8"
     r="8" />
  <path
     style="color:#000000;fill:url(#linearGradient1070);fill-opacity:1;stroke:none;stroke-width:4.3307;stroke-linecap:round;stroke-linejoin:round;-inkscape-stroke:none"
     d="M 6.3678728,5.0442255 C 6.1472539,5.1287343 6.0023396,5.3282399 6.0000153,5.5506681 v 4.8920589 c -0.00364,0.49682 0.6421619,0.746053 1.0159822,0.392086 L 10.825344,8.3884098 c 0.232875,-0.2162741 0.232875,-0.5678939 0,-0.7841694 L 7.0159995,5.158583 C 6.8446791,5.0016496 6.5888207,4.956506 6.3678728,5.0442255 Z"
     id="path2850"
     sodipodi:nodetypes="cccccccc" />
  <path
     id="path1011"
     style="fill:url(#linearGradient1047);stroke-width:1.71429;stroke-linecap:round;stroke-linejoin:round;fill-opacity:1"
     d="M 8 2 A 6 6 0 0 0 2 8 A 6 6 0 0 0 8 14 A 6 6 0 0 0 14 8 A 6 6 0 0 0 8 2 z M 8 3 A 5 5 0 0 1 13 8 A 5 5 0 0 1 8 13 A 5 5 0 0 1 3 8 A 5 5 0 0 1 8 3 z " />
</svg>
