<?xml version="1.0" encoding="UTF-8" standalone="no"?>
<!-- Created with Inkscape (http://www.inkscape.org/) -->

<svg
   width="24"
   height="24"
   viewBox="0 0 24 24.000002"
   version="1.1"
   id="svg5"
   inkscape:version="1.4.2 (ebf0e940d0, 2025-05-08)"
   sodipodi:docname="user-trash-full-symbolic.svg"
   xmlns:inkscape="http://www.inkscape.org/namespaces/inkscape"
   xmlns:sodipodi="http://sodipodi.sourceforge.net/DTD/sodipodi-0.dtd"
   xmlns="http://www.w3.org/2000/svg"
   xmlns:svg="http://www.w3.org/2000/svg">
  <sodipodi:namedview
     id="namedview7"
     pagecolor="#ffffff"
     bordercolor="#000000"
     borderopacity="0.25"
     inkscape:showpageshadow="2"
     inkscape:pageopacity="0.0"
     inkscape:pagecheckerboard="0"
     inkscape:deskcolor="#d1d1d1"
     inkscape:document-units="px"
     showgrid="false"
     inkscape:zoom="33.208333"
     inkscape:cx="12"
     inkscape:cy="12"
     inkscape:window-width="1920"
     inkscape:window-height="1011"
     inkscape:window-x="0"
     inkscape:window-y="0"
     inkscape:window-maximized="1"
     inkscape:current-layer="svg5" />
  <defs
     id="defs2">
    <style
       id="current-color-scheme"
       type="text/css">
        .ColorScheme-Text { color:#363636; } .ColorScheme-Highlight { color:#4285f4; } .ColorScheme-NeutralText { color:#ff9800; } .ColorScheme-PositiveText { color:#4caf50; } .ColorScheme-NegativeText { color:#f44336; }
     </style>
  </defs>
  <path
     id="path1"
     style="fill:currentColor"
     class="ColorScheme-Text"
     d="M 12,4 C 10.730903,4.0025929 9.6007336,4.8034824 9.1777344,6 H 5 C 4.7238606,6 4.5,6.2238606 4.5,6.5 L 4.50781,6.589844 C 4.550145,6.823083 4.7545405,7 5,7 h 0.5527344 l 1.296875,11.228516 C 6.9660492,19.237714 7.8200895,20 8.8359375,20 h 6.3281245 c 1.015898,0 1.869929,-0.762266 1.986329,-1.771484 L 18.445312,7 H 19 C 19.2761,7 19.5,6.7761394 19.5,6.5 19.5,6.2238606 19.2761,6 19,6 H 14.828125 C 14.404385,4.8015024 13.271198,4.0001 12,4 Z m 0,1 c 0.713978,5.537e-4 1.373469,0.3816812 1.730469,1 H 10.275391 C 10.63132,5.3835012 11.288101,5.00265 12,5 Z M 10.5,9 C 10.776999,9 11,9.2230006 11,9.5 v 7 C 11,16.777 10.776999,17 10.5,17 10.223001,17 10,16.777 10,16.5 v -7 C 10,9.2230006 10.223001,9 10.5,9 Z m 3,0 C 13.777,9 14,9.2230006 14,9.5 v 7 C 14,16.777 13.777,17 13.5,17 13.223,17 13,16.777 13,16.5 v -7 C 13,9.2230006 13.223,9 13.5,9 Z" />
</svg>
