<?xml version="1.0" encoding="UTF-8" standalone="no"?>
<!-- Created with Inkscape (http://www.inkscape.org/) -->

<svg
   width="24"
   height="24"
   viewBox="0 0 24 24.000002"
   version="1.1"
   id="svg5"
   inkscape:version="1.4.2 (ebf0e940d0, 2025-05-08)"
   sodipodi:docname="user-trash-symbolic.svg"
   xmlns:inkscape="http://www.inkscape.org/namespaces/inkscape"
   xmlns:sodipodi="http://sodipodi.sourceforge.net/DTD/sodipodi-0.dtd"
   xmlns="http://www.w3.org/2000/svg"
   xmlns:svg="http://www.w3.org/2000/svg">
  <sodipodi:namedview
     id="namedview7"
     pagecolor="#ffffff"
     bordercolor="#000000"
     borderopacity="0.25"
     inkscape:showpageshadow="2"
     inkscape:pageopacity="0.0"
     inkscape:pagecheckerboard="0"
     inkscape:deskcolor="#d1d1d1"
     inkscape:document-units="px"
     showgrid="false"
     inkscape:zoom="33.208333"
     inkscape:cx="12"
     inkscape:cy="12"
     inkscape:window-width="1920"
     inkscape:window-height="1011"
     inkscape:window-x="0"
     inkscape:window-y="0"
     inkscape:window-maximized="1"
     inkscape:current-layer="svg5" />
  <defs
     id="defs2">
    <style
       id="current-color-scheme"
       type="text/css">
        .ColorScheme-Text { color:#363636; } .ColorScheme-Highlight { color:#4285f4; } .ColorScheme-NeutralText { color:#ff9800; } .ColorScheme-PositiveText { color:#4caf50; } .ColorScheme-NegativeText { color:#f44336; }
     </style>
  </defs>
  <path
     d="M 12,4 C 10.730901,4.0025929 9.600734,4.8034812 9.1777344,6 H 5 C 4.7238603,6 4.5,6.2238603 4.5,6.5 L 4.50781,6.589844 C 4.5501425,6.8230835 4.7545402,7 5,7 h 0.5527344 l 1.296875,11.228516 C 6.9660493,19.237715 7.8200885,20 8.8359375,20 h 6.3281245 c 1.015899,0 1.869929,-0.762265 1.986329,-1.771484 L 18.445312,7 H 19 C 19.2761,7 19.5,6.7761397 19.5,6.5 19.5,6.2238603 19.2761,6 19,6 H 14.828125 C 14.404385,4.8015012 13.271199,4.0001 12,4 Z m 0,1 c 0.713979,5.537e-4 1.373469,0.3816806 1.730469,1 H 10.275391 C 10.63132,5.3835006 11.288101,5.00265 12,5 Z M 6.5605469,7 H 17.4375 L 16.15625,18.115234 C 16.09805,18.619834 15.672062,19 15.164062,19 H 8.8359375 C 8.327998,19 7.9019699,18.619834 7.84375,18.115234 Z M 10.5,9 C 10.223,9 10,9.2230003 10,9.5 v 7 c 0,0.277 0.223,0.5 0.5,0.5 0.277,0 0.5,-0.223 0.5,-0.5 v -7 C 11,9.2230003 10.777,9 10.5,9 Z m 3,0 C 13.223,9 13,9.2230003 13,9.5 v 7 c 0,0.277 0.223,0.5 0.5,0.5 0.277,0 0.5,-0.223 0.5,-0.5 v -7 C 14,9.2230003 13.777,9 13.5,9 Z"
     id="path1"
     style="fill:currentColor"
     class="ColorScheme-Text" />
</svg>
