<?xml version="1.0" encoding="UTF-8" standalone="no"?>
<!-- Created with Inkscape (http://www.inkscape.org/) -->

<svg
   width="16"
   height="16"
   viewBox="0 0 16 16"
   version="1.1"
   id="svg423"
   inkscape:version="1.4.2 (ebf0e940d0, 2025-05-08)"
   sodipodi:docname="audio-volume-medium-symbolic.svg"
   xmlns:inkscape="http://www.inkscape.org/namespaces/inkscape"
   xmlns:sodipodi="http://sodipodi.sourceforge.net/DTD/sodipodi-0.dtd"
   xmlns="http://www.w3.org/2000/svg"
   xmlns:svg="http://www.w3.org/2000/svg">
  <sodipodi:namedview
     id="namedview425"
     pagecolor="#ffffff"
     bordercolor="#000000"
     borderopacity="0.25"
     inkscape:showpageshadow="2"
     inkscape:pageopacity="0.0"
     inkscape:pagecheckerboard="0"
     inkscape:deskcolor="#d1d1d1"
     inkscape:document-units="px"
     showgrid="false"
     inkscape:zoom="49.9375"
     inkscape:cx="7.9899875"
     inkscape:cy="8"
     inkscape:window-width="1920"
     inkscape:window-height="1011"
     inkscape:window-x="0"
     inkscape:window-y="0"
     inkscape:window-maximized="1"
     inkscape:current-layer="svg423" />
  <defs
     id="defs420">
    <style
       id="current-color-scheme"
       type="text/css">
        .ColorScheme-Text { color:#363636; } .ColorScheme-Highlight { color:#4285f4; } .ColorScheme-NeutralText { color:#ff9800; } .ColorScheme-PositiveText { color:#4caf50; } .ColorScheme-NegativeText { color:#f44336; }
     </style>
  </defs>
  <path
     id="path1"
     style="fill:currentColor"
     class="ColorScheme-Text"
     d="M 5.9863281 2.7089844 C 5.7273013 2.7127935 5.4779832 2.8165081 5.2929688 3.0019531 L 3.296875 5 L 2 5 C 0.90930109 5 0 5.9093011 0 7 L 0 9 C 0 10.090699 0.90930109 11 2 11 L 3.296875 11 L 5.2929688 12.998047 C 5.9229643 13.627548 6.9996217 13.181615 7 12.291016 L 7 3.7089844 C 6.9999742 3.3045796 6.7564023 2.9399914 6.3828125 2.7851562 C 6.2918411 2.7471433 6.195752 2.7227914 6.0976562 2.7128906 C 6.0604092 2.7092706 6.0233322 2.7084444 5.9863281 2.7089844 z M 6 3.7109375 L 6 12.289062 L 3.7109375 10 L 2 10 C 1.4460006 10 1 9.5539991 1 9 L 1 7 C 1 6.4460006 1.4460006 6 2 6 L 3.7109375 6 L 6 3.7109375 z " />
  <path
     id="path2"
     style="opacity:0.2;fill:currentColor"
     class="ColorScheme-Text"
     d="M 12.716797 0.78320312 C 12.588853 0.78320312 12.460908 0.8320821 12.363281 0.9296875 C 12.16807 1.1249407 12.16807 1.4414656 12.363281 1.6367188 C 14.05128 3.3244171 14.9997 5.6130024 15 8 C 14.9903 10.382898 14.035321 12.663252 12.345703 14.34375 C 12.148637 14.538669 12.147833 14.856706 12.34375 15.052734 C 12.538669 15.249801 12.856706 15.250604 13.052734 15.054688 C 14.930379 13.187242 15.9898 10.65005 16 8.0019531 L 16 8 C 15.999599 5.3481996 14.945611 2.8045856 13.070312 0.9296875 C 12.972687 0.8320821 12.844741 0.78320313 12.716797 0.78320312 z " />
  <path
     id="path3"
     style="fill:currentColor"
     class="ColorScheme-Text"
     d="M 10.595703 2.9042969 C 10.467759 2.9042969 10.339813 2.9531759 10.242188 3.0507812 C 10.046976 3.2460344 10.046976 3.5625593 10.242188 3.7578125 C 11.367585 4.8830114 11.9998 6.4086016 12 8 C 11.9935 9.5884981 11.356708 11.108217 10.230469 12.228516 C 10.033402 12.423435 10.032599 12.741472 10.228516 12.9375 C 10.423435 13.134567 10.741472 13.13537 10.9375 12.939453 C 12.251846 11.632107 12.9931 9.8555511 13 8.0019531 L 13 8 C 12.99972 6.1437988 12.261917 4.3631799 10.949219 3.0507812 C 10.851592 2.9531759 10.723647 2.9042969 10.595703 2.9042969 z M 8.4746094 5.0253906 C 8.342008 5.0254083 8.2148481 5.0781026 8.1210938 5.171875 C 7.9258829 5.3671282 7.9258829 5.6836531 8.1210938 5.8789062 C 8.6838631 6.4415558 8.99988 7.2042008 9 8 C 8.99673 8.7940991 8.6781838 9.5551354 8.1152344 10.115234 C 7.9200236 10.310488 7.9200236 10.627012 8.1152344 10.822266 C 8.3104875 11.017476 8.6270125 11.017476 8.8222656 10.822266 C 9.5731249 10.075116 9.9963 9.0611521 10 8.0019531 L 10 8 C 9.9998398 6.939398 9.5781942 5.9217743 8.828125 5.171875 C 8.7343706 5.0781028 8.6072107 5.0254083 8.4746094 5.0253906 z " />
</svg>
