<?xml version="1.0" encoding="UTF-8" standalone="no"?>
<!-- Created with Inkscape (http://www.inkscape.org/) -->

<svg
   width="16"
   height="16"
   viewBox="0 0 16 16"
   version="1.1"
   id="svg427"
   inkscape:version="1.4.2 (ebf0e940d0, 2025-05-08)"
   sodipodi:docname="network-wireless-signal-weak-secure-symbolic.svg"
   xmlns:inkscape="http://www.inkscape.org/namespaces/inkscape"
   xmlns:sodipodi="http://sodipodi.sourceforge.net/DTD/sodipodi-0.dtd"
   xmlns="http://www.w3.org/2000/svg"
   xmlns:svg="http://www.w3.org/2000/svg">
  <sodipodi:namedview
     id="namedview429"
     pagecolor="#ffffff"
     bordercolor="#000000"
     borderopacity="0.25"
     inkscape:showpageshadow="2"
     inkscape:pageopacity="0.0"
     inkscape:pagecheckerboard="0"
     inkscape:deskcolor="#d1d1d1"
     inkscape:document-units="px"
     showgrid="false"
     inkscape:zoom="50.125"
     inkscape:cx="7.9900249"
     inkscape:cy="7.9900249"
     inkscape:window-width="1920"
     inkscape:window-height="1007"
     inkscape:window-x="0"
     inkscape:window-y="0"
     inkscape:window-maximized="1"
     inkscape:current-layer="svg427"
     showguides="true" />
  <defs
     id="defs2">
    <style
       id="current-color-scheme"
       type="text/css">
        .ColorScheme-Text { color:#363636; } .ColorScheme-Highlight { color:#4285f4; } .ColorScheme-NeutralText { color:#ff9800; } .ColorScheme-PositiveText { color:#4caf50; } .ColorScheme-NegativeText { color:#f44336; }
     </style>
  </defs>
  <path
     id="path1"
     style="opacity:1;fill:currentColor"
     class="ColorScheme-Text"
     d="M 8 11 C 7.4477844 10.999713 7.0006097 11.447786 7 12 C 6.9997126 12.552849 7.44715 13.000288 8 13 C 8.5522153 12.99939 9.0002873 12.552214 9 12 C 8.9993911 11.44842 8.5515813 11.000609 8 11 z " />
  <path
     id="path2"
     style="opacity:0.2;fill:currentColor"
     class="ColorScheme-Text"
     d="M 8 2 C 4.7854238 2 1.812366 3.7160956 0.20507812 6.5 C 0.066708365 6.7394276 0.14896634 7.0457065 0.38867188 7.1835938 C 0.62809934 7.3219633 0.93437848 7.2397056 1.0722656 7 C 2.5017231 4.5241071 5.141085 3 8 3 C 10.858914 3 13.498279 4.5241073 14.927734 7 C 15.065621 7.239706 15.3719 7.3219635 15.611328 7.1835938 C 15.851034 7.0457066 15.933292 6.7394276 15.794922 6.5 C 14.187632 3.7160958 11.214576 2 8 2 z M 8 5 C 5.8572183 5 3.876078 6.1442971 2.8046875 8 C 2.6659903 8.2389156 2.747331 8.545037 2.9863281 8.6835938 C 3.2257555 8.8219633 3.5320347 8.7397036 3.6699219 8.5 C 4.5634821 6.9523076 6.2128792 6 8 6 C 9.787121 6 11.436518 6.9523079 12.330078 8.5 C 12.467965 8.7397056 12.774244 8.8219634 13.013672 8.6835938 C 13.252669 8.5450359 13.33401 8.2389155 13.195312 8 C 12.123926 6.1442972 10.142782 5 8 5 z M 8 8 C 6.9290111 8 5.9378379 8.5724955 5.4023438 9.5 C 5.2636464 9.738915 5.3449874 10.045036 5.5839844 10.183594 C 5.8234112 10.321964 6.1296915 10.239704 6.2675781 10 C 6.6252426 9.380505 7.2846712 9 8 9 C 8.7153279 9 9.3747568 9.380505 9.7324219 10 C 9.8703083 10.239706 10.176588 10.321964 10.416016 10.183594 C 10.65501 10.045036 10.736354 9.738915 10.597656 9.5 C 10.062164 8.5724955 9.0709887 8 8 8 z " />
  <path
     d="M 13.5,10 C 12.671573,10 12,10.671573 12,11.5 V 12 c -0.554,0 -1,0.446 -1,1 v 2 c 0,0.554 0.446,1 1,1 h 3 c 0.554,0 1,-0.446 1,-1 v -2 c 0,-0.554 -0.446,-1 -1,-1 V 11.5 C 15,10.671573 14.328427,10 13.5,10 Z m 0,1 c 0.276142,0 0.5,0.223858 0.5,0.5 V 12 H 13 V 11.5 C 13,11.223858 13.223858,11 13.5,11 Z M 12,13 h 3 v 2 h -3 z"
     style="fill:currentColor"
     class="ColorScheme-Text"
     id="path3" />
</svg>
