<?xml version="1.0" encoding="UTF-8" standalone="no"?>
<!-- Created with Inkscape (http://www.inkscape.org/) -->

<svg
   width="32"
   height="32"
   viewBox="0 0 32 32"
   version="1.1"
   id="svg5"
   inkscape:version="1.2.1 (9c6d41e410, 2022-07-14, custom)"
   sodipodi:docname="drive-removable-media.svg"
   xmlns:inkscape="http://www.inkscape.org/namespaces/inkscape"
   xmlns:sodipodi="http://sodipodi.sourceforge.net/DTD/sodipodi-0.dtd"
   xmlns:xlink="http://www.w3.org/1999/xlink"
   xmlns="http://www.w3.org/2000/svg"
   xmlns:svg="http://www.w3.org/2000/svg">
  <sodipodi:namedview
     id="namedview7"
     pagecolor="#ffffff"
     bordercolor="#000000"
     borderopacity="0.25"
     inkscape:showpageshadow="2"
     inkscape:pageopacity="0.0"
     inkscape:pagecheckerboard="0"
     inkscape:deskcolor="#d1d1d1"
     inkscape:document-units="px"
     showgrid="false"
     inkscape:zoom="25.3125"
     inkscape:cx="15.980247"
     inkscape:cy="16"
     inkscape:window-width="1920"
     inkscape:window-height="1012"
     inkscape:window-x="0"
     inkscape:window-y="0"
     inkscape:window-maximized="1"
     inkscape:current-layer="svg5" />
  <defs
     id="defs2">
    <linearGradient
       inkscape:collect="always"
       id="linearGradient8177">
      <stop
         style="stop-color:#c7c7c7;stop-opacity:1;"
         offset="0"
         id="stop8173" />
      <stop
         style="stop-color:#9c9c9c;stop-opacity:0.99993521;"
         offset="1"
         id="stop8175" />
    </linearGradient>
    <linearGradient
       inkscape:collect="always"
       id="linearGradient6593">
      <stop
         style="stop-color:#979797;stop-opacity:1;"
         offset="0"
         id="stop6589" />
      <stop
         style="stop-color:#707070;stop-opacity:1;"
         offset="1"
         id="stop6591" />
    </linearGradient>
    <linearGradient
       inkscape:collect="always"
       id="linearGradient1686">
      <stop
         style="stop-color:#aab1b4;stop-opacity:1;"
         offset="0"
         id="stop1682" />
      <stop
         style="stop-color:#6f767b;stop-opacity:1;"
         offset="0.1193407"
         id="stop4200" />
      <stop
         style="stop-color:#6f767b;stop-opacity:1;"
         offset="0.89999998"
         id="stop4202" />
      <stop
         style="stop-color:#51565a;stop-opacity:1;"
         offset="1"
         id="stop1684" />
    </linearGradient>
    <linearGradient
       inkscape:collect="always"
       xlink:href="#linearGradient1686"
       id="linearGradient3472"
       x1="16"
       y1="8"
       x2="16"
       y2="30"
       gradientUnits="userSpaceOnUse" />
    <linearGradient
       inkscape:collect="always"
       xlink:href="#linearGradient6593"
       id="linearGradient6595"
       x1="16"
       y1="2"
       x2="16"
       y2="4"
       gradientUnits="userSpaceOnUse" />
    <linearGradient
       inkscape:collect="always"
       xlink:href="#linearGradient8177"
       id="linearGradient8179"
       x1="13"
       y1="2"
       x2="13"
       y2="4"
       gradientUnits="userSpaceOnUse" />
    <linearGradient
       inkscape:collect="always"
       xlink:href="#linearGradient8177"
       id="linearGradient8187"
       x1="19"
       y1="2"
       x2="19"
       y2="4"
       gradientUnits="userSpaceOnUse" />
    <linearGradient
       inkscape:collect="always"
       id="linearGradient1116">
      <stop
         style="stop-color:#555a5f;stop-opacity:1;"
         offset="0"
         id="stop1112" />
      <stop
         style="stop-color:#4b4f53;stop-opacity:1"
         offset="1"
         id="stop1114" />
    </linearGradient>
    <linearGradient
       inkscape:collect="always"
       xlink:href="#linearGradient1116"
       id="linearGradient11308"
       x1="13"
       y1="5"
       x2="15"
       y2="7"
       gradientUnits="userSpaceOnUse" />
    <linearGradient
       inkscape:collect="always"
       xlink:href="#linearGradient1116"
       id="linearGradient11310"
       x1="17"
       y1="5"
       x2="19"
       y2="7"
       gradientUnits="userSpaceOnUse" />
  </defs>
  <path
     id="rect234"
     style="fill:url(#linearGradient8179);fill-opacity:1;stroke-width:0.284759"
     d="m 12,3 1,-1 v 7 l -1,1 z"
     sodipodi:nodetypes="ccccc" />
  <path
     id="rect236"
     style="fill:url(#linearGradient3472);fill-opacity:1;stroke-width:0.412177"
     d="M 11,8 C 10.766659,8 10.651652,8.1010658 10.5,8.25 L 9.25,9.5 C 9.08333,9.6666663 9.000421,9.8009334 9,10 v 18 c 0,1.107998 0.892002,2 2,2 h 10 c 1.107998,0 2,-0.892002 2,-2 V 10 C 22.999579,9.8009342 22.91667,9.6666668 22.75,9.5 L 21.5,8.25 C 21.348348,8.1010658 21.233341,8 21,8 Z"
     sodipodi:nodetypes="ccccsccsccccc" />
  <rect
     style="fill:url(#linearGradient6595);fill-opacity:1"
     id="rect486"
     width="6"
     height="6"
     x="13"
     y="2" />
  <path
     id="rect490"
     style="fill:url(#linearGradient8187);fill-opacity:1;stroke-width:0.791649"
     d="m 19,2 1,1 v 7 L 19,9 Z"
     sodipodi:nodetypes="ccccc" />
  <rect
     style="fill:#c2cbd3;fill-opacity:1"
     id="rect488"
     width="8"
     height="7"
     x="12"
     y="3" />
  <rect
     style="fill:url(#linearGradient11308);fill-opacity:1;stroke-width:0.311717"
     id="rect238"
     width="2"
     height="2"
     x="13"
     y="5" />
  <rect
     style="fill:url(#linearGradient11310);fill-opacity:1;stroke-width:0.243224"
     id="rect240"
     width="2"
     height="2"
     x="17"
     y="5" />
  <path
     d="m 16,28.000125 c 0.82843,0 1.5,-0.67157 1.5,-1.5 0,-0.65584 -0.41359,-1.20241 -1,-1.40625 V 23.6875 L 19.34375,20.84375 19.5,20.71875 V 20.5 19 h 1 v -3 h -3 v 3 h 1 v 1.3125 l -2,2 V 15 H 18 l -2,-3 -2,3 h 1.5 v 8.5625 l -2,-1.3125 v -1.34375 c 0.58641,-0.20384 1,-0.750409 1,-1.40625 0,-0.82843 -0.67157,-1.5 -1.5,-1.5 -0.82843,0 -1.5,0.67157 -1.5,1.5 0,0.655841 0.41359,1.20241 1,1.40625 V 22.5 22.78125 l 0.21875,0.125 L 15.5,24.75 v 0.343875 c -0.58641,0.20384 -1,0.75041 -1,1.40625 0,0.82843 0.67157,1.5 1.5,1.5 z"
     style="color:#bebebe;display:inline;overflow:visible;visibility:visible;opacity:0.4;fill:#000000;fill-opacity:1;fill-rule:nonzero;stroke:none;stroke-width:4;marker:none;enable-background:accumulate"
     id="path8511"
     sodipodi:nodetypes="sscccccccccccccccccccccsssccccccss" />
</svg>
