<?xml version="1.0" encoding="UTF-8" standalone="no"?>
<!-- Created with Inkscape (http://www.inkscape.org/) -->

<svg
   width="32"
   height="32"
   viewBox="0 0 32 32"
   version="1.1"
   id="svg2112"
   inkscape:version="1.2.1 (9c6d41e410, 2022-07-14, custom)"
   sodipodi:docname="input-keyboard.svg"
   xmlns:inkscape="http://www.inkscape.org/namespaces/inkscape"
   xmlns:sodipodi="http://sodipodi.sourceforge.net/DTD/sodipodi-0.dtd"
   xmlns:xlink="http://www.w3.org/1999/xlink"
   xmlns="http://www.w3.org/2000/svg"
   xmlns:svg="http://www.w3.org/2000/svg">
  <sodipodi:namedview
     id="namedview2114"
     pagecolor="#ffffff"
     bordercolor="#000000"
     borderopacity="0.25"
     inkscape:showpageshadow="2"
     inkscape:pageopacity="0.0"
     inkscape:pagecheckerboard="0"
     inkscape:deskcolor="#d1d1d1"
     inkscape:document-units="px"
     showgrid="false"
     inkscape:zoom="25.3125"
     inkscape:cx="14.933333"
     inkscape:cy="16.019753"
     inkscape:window-width="1920"
     inkscape:window-height="1029"
     inkscape:window-x="0"
     inkscape:window-y="0"
     inkscape:window-maximized="1"
     inkscape:current-layer="svg2112" />
  <defs
     id="defs2109">
    <linearGradient
       inkscape:collect="always"
       xlink:href="#linearGradient23571"
       id="linearGradient23573"
       x1="0.5291667"
       y1="5.0270834"
       x2="19.579166"
       y2="13.599584"
       gradientUnits="userSpaceOnUse"
       gradientTransform="matrix(1.6797898,0,0,1.7497811,-0.88888892,-0.79629475)" />
    <linearGradient
       inkscape:collect="always"
       id="linearGradient23571">
      <stop
         style="stop-color:#b6bec5;stop-opacity:1;"
         offset="0"
         id="stop23567" />
      <stop
         style="stop-color:#9ba3aa;stop-opacity:1"
         offset="1"
         id="stop23569" />
    </linearGradient>
  </defs>
  <rect
     style="fill:url(#linearGradient23573);fill-opacity:1;stroke-width:0.453611;stroke-linejoin:round"
     id="rect858"
     width="32"
     height="15"
     x="0"
     y="8"
     ry="1" />
  <path
     id="rect848"
     style="fill:#edeff0;stroke-width:0.999999"
     d="m 1,9.0000008 v 0.999999 h 4.0000001 v -0.999999 z m 4.9999999,0 v 0.999999 H 8 v -0.999999 z m 3.0000004,0 v 0.999999 H 11 v -0.999999 z m 2.9999997,0 v 0.999999 h 2 v -0.999999 z m 3,0 v 0.999999 h 2 v -0.999999 z m 3,0 v 0.999999 h 2 v -0.999999 z m 3,0 v 0.999999 h 2 v -0.999999 z m 3,0 v 0.999999 h 2 v -0.999999 z m 3,0 v 0.999999 h 4 V 9.0000008 Z M 1,11 v 2 h 4.0000001 v -2 z m 4.9999999,0 v 2 H 8 v -2 z m 3.0000004,0 v 2 H 11 V 11 Z M 12,11 v 2 h 2 v -2 z m 3,0 v 2 h 2 v -2 z m 3,0 v 2 h 2 v -2 z m 3,0 v 2 h 2 v -2 z m 3,0 v 2 h 2 v -2 z m 3,0 v 2 h 4 V 11 Z M 1,14.000001 V 16 h 4.0000001 v -1.999999 z m 4.9999999,0 V 16 H 8 v -1.999999 z m 3.0000004,0 V 16 H 11 v -1.999999 z m 2.9999997,0 V 16 h 2 v -1.999999 z m 3,0 V 16 h 2 v -1.999999 z m 3,0 V 16 h 2 v -1.999999 z m 3,0 V 16 h 2 v -1.999999 z m 3,0 V 16 h 2 v -1.999999 z m 3,0 V 16 h 4 v -1.999999 z m -26,3 v 2 h 7 v -2 z m 8.0000003,0 v 2 H 11 v -2 z m 2.9999997,0 v 2 h 2 v -2 z m 3,0 v 2 h 2 v -2 z m 3,0 v 2 h 2 v -2 z m 3,0 v 2 h 2 v -2 z m 3,0 v 2 h 7 v -2 z m -23,3 v 2 h 3.0000002 v -2 z m 4.0000001,0 v 2 h 2.0000001 v -2 z m 2.9999999,0 v 2 h 2 v -2 z m 3,0 v 2 h 10 v -2 z m 11,0 v 2 h 2 v -2 z m 3,0 v 2 h 2 v -2 z m 3,0 v 2 h 3 v -2 z" />
</svg>
