<?xml version="1.0" encoding="UTF-8" standalone="no"?>
<!-- Created with Inkscape (http://www.inkscape.org/) -->

<svg
   width="32"
   height="32"
   viewBox="0 0 32 32"
   version="1.1"
   id="svg2112"
   inkscape:version="1.2.1 (9c6d41e410, 2022-07-14, custom)"
   sodipodi:docname="media-optical-dvd-video.svg"
   xmlns:inkscape="http://www.inkscape.org/namespaces/inkscape"
   xmlns:sodipodi="http://sodipodi.sourceforge.net/DTD/sodipodi-0.dtd"
   xmlns:xlink="http://www.w3.org/1999/xlink"
   xmlns="http://www.w3.org/2000/svg"
   xmlns:svg="http://www.w3.org/2000/svg">
  <sodipodi:namedview
     id="namedview2114"
     pagecolor="#ffffff"
     bordercolor="#000000"
     borderopacity="0.25"
     inkscape:showpageshadow="2"
     inkscape:pageopacity="0.0"
     inkscape:pagecheckerboard="0"
     inkscape:deskcolor="#d1d1d1"
     inkscape:document-units="px"
     showgrid="false"
     inkscape:zoom="25.0625"
     inkscape:cx="16.01995"
     inkscape:cy="16.0399"
     inkscape:window-width="1920"
     inkscape:window-height="1011"
     inkscape:window-x="0"
     inkscape:window-y="0"
     inkscape:window-maximized="1"
     inkscape:current-layer="svg2112" />
  <defs
     id="defs2109">
    <linearGradient
       inkscape:collect="always"
       xlink:href="#linearGradient6804"
       id="linearGradient6808"
       x1="2.3812499"
       y1="8.4666672"
       x2="6.6145835"
       y2="12.700001"
       gradientUnits="userSpaceOnUse"
       gradientTransform="matrix(3.5433069,0,0,3.5433069,0.0624997,-21.499999)" />
    <linearGradient
       inkscape:collect="always"
       id="linearGradient6804">
      <stop
         style="stop-color:#ffffff;stop-opacity:1;"
         offset="0"
         id="stop6800" />
      <stop
         style="stop-color:#ffffff;stop-opacity:0;"
         offset="1"
         id="stop6802" />
    </linearGradient>
    <linearGradient
       inkscape:collect="always"
       xlink:href="#linearGradient162116"
       id="linearGradient162118"
       x1="96.408417"
       y1="238.0069"
       x2="127.77626"
       y2="238.0069"
       gradientUnits="userSpaceOnUse"
       gradientTransform="matrix(0.9563932,0,0,0.92279665,-91.204345,-203.63198)" />
    <linearGradient
       inkscape:collect="always"
       id="linearGradient162116">
      <stop
         style="stop-color:#e3edee;stop-opacity:1;"
         offset="0"
         id="stop162112" />
      <stop
         style="stop-color:#c9cdce;stop-opacity:1"
         offset="1"
         id="stop162114" />
    </linearGradient>
    <linearGradient
       inkscape:collect="always"
       xlink:href="#linearGradient219586"
       id="linearGradient1031"
       gradientUnits="userSpaceOnUse"
       gradientTransform="matrix(0.9563932,0,0,0.9227967,-91.20434,-203.63198)"
       x1="112.09232"
       y1="238.0069"
       x2="112.17286"
       y2="254.33937" />
    <linearGradient
       inkscape:collect="always"
       id="linearGradient219586">
      <stop
         style="stop-color:#b9bfbf;stop-opacity:1;"
         offset="0"
         id="stop219582" />
      <stop
         style="stop-color:#aaacab;stop-opacity:1"
         offset="1"
         id="stop219584" />
    </linearGradient>
    <linearGradient
       inkscape:collect="always"
       xlink:href="#linearGradient2496"
       id="linearGradient2498"
       x1="16.424316"
       y1="54.63533"
       x2="32.331596"
       y2="38.452602"
       gradientUnits="userSpaceOnUse"
       gradientTransform="matrix(0.93749995,0,0,0.93749995,0.0624997,-21.499999)" />
    <linearGradient
       inkscape:collect="always"
       id="linearGradient2496">
      <stop
         style="stop-color:#ffffff;stop-opacity:0.5"
         offset="0"
         id="stop2492" />
      <stop
         style="stop-color:#ffffff;stop-opacity:0"
         offset="0.44999999"
         id="stop3080" />
      <stop
         style="stop-color:#ffffff;stop-opacity:1"
         offset="0.5"
         id="stop2756" />
      <stop
         style="stop-color:#ffffff;stop-opacity:0"
         offset="0.55000001"
         id="stop3014" />
      <stop
         style="stop-color:#ffffff;stop-opacity:0.2"
         offset="1"
         id="stop2494" />
    </linearGradient>
    <linearGradient
       inkscape:collect="always"
       xlink:href="#linearGradient7820"
       id="linearGradient7822"
       x1="14.532227"
       y1="42.393677"
       x2="19.540161"
       y2="37.501221"
       gradientUnits="userSpaceOnUse"
       gradientTransform="matrix(1.2,0,0,1.2,-4.3999996,-31.999995)" />
    <linearGradient
       inkscape:collect="always"
       id="linearGradient7820">
      <stop
         style="stop-color:#858585;stop-opacity:1"
         offset="0"
         id="stop7816" />
      <stop
         style="stop-color:#ffffff;stop-opacity:1"
         offset="0.5"
         id="stop8592" />
      <stop
         style="stop-color:#868686;stop-opacity:1"
         offset="1"
         id="stop7818" />
    </linearGradient>
    <linearGradient
       inkscape:collect="always"
       xlink:href="#linearGradient11941"
       id="linearGradient11943"
       x1="5.1081543"
       y1="42.191895"
       x2="7.4692383"
       y2="33.279785"
       gradientUnits="userSpaceOnUse"
       gradientTransform="matrix(0.93749995,0,0,0.93749995,0.0624997,-21.499999)" />
    <linearGradient
       inkscape:collect="always"
       id="linearGradient11941">
      <stop
         style="stop-color:#f89af4;stop-opacity:0"
         offset="0"
         id="stop11937" />
      <stop
         style="stop-color:#f89af4;stop-opacity:0"
         offset="0.40000001"
         id="stop12523" />
      <stop
         style="stop-color:#f89af4;stop-opacity:1"
         offset="0.5"
         id="stop12201" />
      <stop
         style="stop-color:#f89af4;stop-opacity:0"
         offset="0.60000002"
         id="stop12781" />
      <stop
         style="stop-color:#f89af4;stop-opacity:0;"
         offset="1"
         id="stop11939" />
    </linearGradient>
    <linearGradient
       inkscape:collect="always"
       xlink:href="#linearGradient16450"
       id="linearGradient16452"
       x1="17.605227"
       y1="29.40974"
       x2="27.150551"
       y2="39.243584"
       gradientUnits="userSpaceOnUse"
       gradientTransform="matrix(0.93749995,0,0,0.93749995,0.0624997,-21.499999)" />
    <linearGradient
       inkscape:collect="always"
       id="linearGradient16450">
      <stop
         style="stop-color:#6fef7e;stop-opacity:0"
         offset="0"
         id="stop16446" />
      <stop
         style="stop-color:#6fef7e;stop-opacity:0"
         offset="0.44792882"
         id="stop17132" />
      <stop
         style="stop-color:#6fef7e;stop-opacity:1"
         offset="0.5"
         id="stop16680" />
      <stop
         style="stop-color:#6fef7e;stop-opacity:0"
         offset="0.55000001"
         id="stop16938" />
      <stop
         style="stop-color:#6fef7e;stop-opacity:0;"
         offset="1"
         id="stop16448" />
    </linearGradient>
    <linearGradient
       inkscape:collect="always"
       xlink:href="#linearGradient27684"
       id="linearGradient1679"
       x1="36"
       y1="28"
       x2="62"
       y2="60"
       gradientUnits="userSpaceOnUse"
       gradientTransform="matrix(0.5,0,0,0.5,1.0000001,-14)" />
    <linearGradient
       inkscape:collect="always"
       id="linearGradient27684">
      <stop
         style="stop-color:#4a4a4a;stop-opacity:1;"
         offset="0"
         id="stop27680" />
      <stop
         style="stop-color:#232323;stop-opacity:0.74901962"
         offset="1"
         id="stop27682" />
    </linearGradient>
    <linearGradient
       inkscape:collect="always"
       xlink:href="#linearGradient12418"
       id="linearGradient2216"
       x1="42"
       y1="4.9999995"
       x2="56"
       y2="33"
       gradientUnits="userSpaceOnUse"
       gradientTransform="matrix(0.5,0,0,0.5,1.0000021,-1.5)" />
    <linearGradient
       inkscape:collect="always"
       id="linearGradient12418">
      <stop
         style="stop-color:#52e4ff;stop-opacity:1;"
         offset="0"
         id="stop12414" />
      <stop
         style="stop-color:#d29eff;stop-opacity:1"
         offset="1"
         id="stop12416" />
    </linearGradient>
    <linearGradient
       inkscape:collect="always"
       xlink:href="#linearGradient1087"
       id="linearGradient1089"
       x1="7.6729169"
       y1="16.404167"
       x2="1.8520833"
       y2="14.022918"
       gradientUnits="userSpaceOnUse"
       gradientTransform="matrix(3.7795275,0,0,3.7795275,-2,-30.000002)" />
    <linearGradient
       inkscape:collect="always"
       id="linearGradient1087">
      <stop
         style="stop-color:#232223;stop-opacity:1;"
         offset="0"
         id="stop1083" />
      <stop
         style="stop-color:#48494d;stop-opacity:1"
         offset="1"
         id="stop1085" />
    </linearGradient>
  </defs>
  <path
     id="path6272"
     style="opacity:0.4;fill:url(#linearGradient6808);fill-opacity:1;stroke-width:1.875;stroke-linecap:round;stroke-linejoin:round"
     d="M 15.999999,8.5 A 7.5,7.5 0 0 0 8.5,15.999999 7.5,7.5 0 0 0 15.999999,23.5 7.5,7.5 0 0 0 23.5,15.999999 7.5,7.5 0 0 0 15.999999,8.5 Z m 0,5.624999 a 1.875,1.875 0 0 1 1.875001,1.875 1.875,1.875 0 0 1 -1.875001,1.875 1.875,1.875 0 0 1 -1.874999,-1.875 1.875,1.875 0 0 1 1.874999,-1.875 z" />
  <path
     id="path9538"
     style="fill:#d0d0d0;fill-opacity:1;stroke-width:2;stroke-linecap:round;stroke-linejoin:round"
     d="m 16,9 c -3.865988,10e-7 -7,3.134012 -7,7 0,3.86599 3.134012,7 7,7 3.865991,1e-6 7,-3.134009 7,-7 0,-3.865989 -3.134009,-7.0000008 -7,-7 z m 0,2 c 2.761422,-10e-7 5,2.23858 5,5 0,2.761422 -2.238578,5.000001 -5,5 -2.76142,0 -5,-2.238578 -5,-5 0,-2.76142 2.23858,-4.999999 5,-5 z" />
  <path
     id="path151229"
     style="fill:url(#linearGradient162118);fill-opacity:1;stroke-width:1.24282;stroke-linecap:round;stroke-linejoin:round"
     d="m 16,1 c -8.2842629,6e-7 -15.0000005,6.7157371 -15,15 6e-7,8.284262 6.7157378,14.999999 15,15 8.284263,1e-6 14.999999,-6.715737 15,-15 C 31,7.7157363 24.284264,0.9999994 16,1 Z m 0,9 c 3.313706,-10e-7 6.000001,2.686294 6,6 0,3.313706 -2.686294,6.000001 -6,6 -3.313705,0 -6,-2.686296 -6,-6 -10e-7,-3.313705 2.686295,-6 6,-6 z" />
  <path
     id="path151229-3-3"
     style="fill:url(#linearGradient1031);fill-opacity:1;stroke-width:1.24282;stroke-linecap:round;stroke-linejoin:round"
     d="M 21.986328,16.375 C 21.792467,19.513744 19.187564,22.000001 16,22 14.343148,22 12.843598,21.327973 11.757812,20.242188 L 5.4023438,26.597656 A 15,15 0 0 0 16,31 15,15 0 0 0 30.964844,16.935547 Z" />
  <path
     id="rect2336"
     style="opacity:0.5;fill:url(#linearGradient2498);fill-opacity:1;stroke-width:1.875;stroke-linecap:round;stroke-linejoin:round"
     d="M 12.365234,1.4589844 A 15,15 0 0 0 1.2675781,13.236328 l 8.8164059,1.765625 c 0.395213,-2.359403 2.166233,-4.25059 4.460938,-4.822265 z m 9.550782,15.5390626 c -0.395214,2.359404 -2.166233,4.250591 -4.460938,4.822265 l 2.179688,8.720704 A 15,15 0 0 0 30.732422,18.763672 Z" />
  <path
     id="path7246"
     style="opacity:0.5;fill:url(#linearGradient7822);fill-opacity:1;stroke-width:2.99998;stroke-linecap:round;stroke-linejoin:round"
     d="m 16,13 c -1.656852,0 -3,1.343148 -3,3 0,1.656852 1.343148,3 3,3 1.656852,0 3,-1.343148 3,-3 0,-1.656852 -1.343148,-3 -3,-3 z m 0,1 c 1.104568,0 2,0.895431 2,2 1e-6,1.104568 -0.895432,2 -2,2 -1.10457,0 -2.000001,-0.895432 -2,-2 0,-1.104569 0.895431,-2.000001 2,-2 z" />
  <path
     id="path151229-7"
     style="opacity:0.5;fill:url(#linearGradient11943);fill-opacity:1;stroke-width:1.24282;stroke-linecap:round;stroke-linejoin:round"
     d="M 2.75,8.984375 C 1.6032935,11.144931 1.0028293,13.553997 1,16 c 0.00284,2.446004 0.6032935,4.855068 1.75,7.015625 l 7.947266,-4.208984 C 10.252922,17.968941 10,17.014322 10,16 c 0,-1.014322 0.252922,-1.968941 0.697266,-2.806641 z" />
  <path
     id="path151229-1"
     style="opacity:0.5;fill:url(#linearGradient16452);fill-opacity:1;stroke-width:1.24282;stroke-linecap:round;stroke-linejoin:round"
     d="m 20.472656,1.6835938 -2.68164,8.5878902 c 1.766064,0.55133 3.181298,1.897483 3.828125,3.619141 l 8.425781,-3.15625 A 15,15 0 0 0 20.472656,1.6835938 Z" />
  <path
     id="path151229-2"
     style="fill:#d0d0d0;fill-opacity:1;stroke-width:1.24282;stroke-linecap:round;stroke-linejoin:round"
     d="m 16,1 c -8.284262,6e-7 -14.9999995,6.715738 -15,15 0,8.284262 6.7157375,14.999999 15,15 8.284263,0 15,-6.715737 15,-15 -1e-6,-8.2842625 -6.715738,-15 -15,-15 z m 0,1 c 7.731979,3e-7 13.999999,6.2680215 14,14 0,7.731979 -6.268021,13.999999 -14,14 -7.7319785,-1e-6 -14,-6.268021 -14,-14 4e-7,-7.7319785 6.2680215,-13.9999994 14,-14 z" />
  <rect
     style="fill:url(#linearGradient1679);fill-opacity:1;stroke-width:0.5"
     id="rect1117"
     width="13"
     height="16"
     x="19"
     y="0"
     ry="1" />
  <path
     id="rect2063"
     style="fill:url(#linearGradient2216);fill-opacity:1;stroke-width:1.5;stroke-linecap:round;stroke-linejoin:round"
     d="m 23.000001,1 c -0.553999,0 -1,0.446 -1,1 v 4 c 0,0.554 0.446001,1 1,1 h 5 c 0.554,0 1,-0.446 1,-1 V 2 c 0,-0.554 -0.446,-1 -1,-1 z m 0,8 c -0.553999,0 -1,0.446 -1,1 v 4 c 0,0.554 0.446001,1 1,1 h 5 c 0.554,0 1,-0.446 1,-1 v -4 c 0,-0.554 -0.446,-1 -1,-1 z"
     sodipodi:nodetypes="ssssssssssssssssss" />
  <path
     id="rect2763"
     style="fill:#ffffff"
     d="m 20,1 v 2 h 1 V 1 Z m 10,0 v 2 h 1 V 1 Z M 20,4 v 2 h 1 V 4 Z m 10,0 v 2 h 1 V 4 Z M 20,7 v 2 h 1 V 7 Z m 10,0 v 2 h 1 V 7 Z m -10,3 v 2 h 1 v -2 z m 10,0 v 2 h 1 v -2 z m -10,3 v 2 h 1 v -2 z m 10,0 v 2 h 1 v -2 z"
     sodipodi:nodetypes="cccccccccccccccccccccccccccccccccccccccccccccccccc" />
  <path
     id="rect893"
     style="fill:url(#linearGradient1089);stroke-width:3;stroke-linecap:round;stroke-linejoin:round"
     d="M 6,23 H 25.999997 C 26.554001,23 27,23.445999 27,23.999999 V 31 c 0,0.553999 -0.445999,0.999998 -1.000003,0.999998 H 6 C 5.446,31.999998 5,31.553999 5,31 V 23.999999 C 5,23.445999 5.446,23 6,23 Z"
     sodipodi:nodetypes="sssssssss" />
  <path
     d="M 19.051645,30.602 V 25 h 1.761856 c 0.989661,0 1.731907,0.227882 2.226737,0.683647 0.497434,0.453161 0.746151,1.135506 0.746151,2.047035 0,0.867255 -0.273458,1.562622 -0.820377,2.086101 C 22.4217,30.340261 21.693778,30.602 20.782249,30.602 Z m 0.953198,-4.79725 v 3.9925 h 0.734434 c 0.640673,0 1.142015,-0.179702 1.504024,-0.539105 0.362007,-0.362008 0.543009,-0.865953 0.543009,-1.511836 0,-0.627654 -0.17319,-1.108161 -0.519571,-1.441519 -0.346381,-0.33336 -0.851628,-0.50004 -1.515743,-0.50004 z M 18.239081,25 16.235019,30.602 h -1.06649 L 13.195719,25 h 1.035237 l 1.367295,4.176108 c 0.02864,0.08855 0.05208,0.177097 0.07032,0.265646 0.01823,0.08855 0.03255,0.175794 0.04297,0.261739 h 0.01953 c 0.01042,-0.08334 0.02604,-0.169284 0.04688,-0.257833 0.02084,-0.09115 0.04688,-0.18491 0.07813,-0.281272 L 17.231187,25 Z M 8,30.602 V 25 h 1.7618565 c 0.9896615,0 1.7319065,0.227882 2.2267375,0.683647 0.497434,0.453161 0.746151,1.135506 0.746151,2.047035 0,0.867255 -0.273458,1.562622 -0.820376,2.086101 C 11.370055,30.340261 10.642134,30.602 9.7306045,30.602 Z m 0.9532,-4.79725 v 3.9925 h 0.7344325 c 0.6406745,0 1.1420155,-0.179702 1.5040235,-0.539105 0.362007,-0.362008 0.54301,-0.865953 0.54301,-1.511836 0,-0.627654 -0.17319,-1.108161 -0.519572,-1.441519 -0.34638,-0.33336 -0.851629,-0.50004 -1.5157415,-0.50004 z"
     style="font-weight:600;-inkscape-font-specification:'Segoe UI Variable Static Small Semi-Bold';fill:#ffffff;stroke-width:0.750056"
     id="path959" />
</svg>
