<?xml version="1.0" encoding="UTF-8" standalone="no"?>
<!-- Created with Inkscape (http://www.inkscape.org/) -->

<svg
   width="32"
   height="32"
   viewBox="0 0 32 32"
   version="1.1"
   id="svg101634"
   inkscape:version="1.2.1 (9c6d41e410, 2022-07-14, custom)"
   sodipodi:docname="media-memory.svg"
   xmlns:inkscape="http://www.inkscape.org/namespaces/inkscape"
   xmlns:sodipodi="http://sodipodi.sourceforge.net/DTD/sodipodi-0.dtd"
   xmlns:xlink="http://www.w3.org/1999/xlink"
   xmlns="http://www.w3.org/2000/svg"
   xmlns:svg="http://www.w3.org/2000/svg">
  <sodipodi:namedview
     id="namedview101636"
     pagecolor="#ffffff"
     bordercolor="#666666"
     borderopacity="1.0"
     inkscape:pageshadow="2"
     inkscape:pageopacity="0.0"
     inkscape:pagecheckerboard="0"
     inkscape:document-units="px"
     showgrid="false"
     units="px"
     inkscape:zoom="26.65625"
     inkscape:cx="15.981243"
     inkscape:cy="16"
     inkscape:window-width="1920"
     inkscape:window-height="1029"
     inkscape:window-x="0"
     inkscape:window-y="0"
     inkscape:window-maximized="1"
     inkscape:current-layer="svg101634"
     inkscape:showpageshadow="2"
     inkscape:deskcolor="#d1d1d1"
     showguides="true" />
  <defs
     id="defs101631">
    <linearGradient
       inkscape:collect="always"
       xlink:href="#linearGradient1668"
       id="linearGradient1662"
       x1="-2"
       y1="22"
       x2="-2"
       y2="36"
       gradientUnits="userSpaceOnUse"
       gradientTransform="matrix(2,0,0,2,20,-42)" />
    <linearGradient
       inkscape:collect="always"
       id="linearGradient1668">
      <stop
         style="stop-color:#6f767b;stop-opacity:1;"
         offset="0"
         id="stop1664" />
      <stop
         style="stop-color:#505559;stop-opacity:1"
         offset="1"
         id="stop1666" />
    </linearGradient>
    <linearGradient
       inkscape:collect="always"
       xlink:href="#linearGradient2695"
       id="linearGradient2689"
       x1="-2.0000002"
       y1="26"
       x2="-2"
       y2="49"
       gradientUnits="userSpaceOnUse"
       gradientTransform="translate(18,-21)" />
    <linearGradient
       inkscape:collect="always"
       id="linearGradient2695">
      <stop
         style="stop-color:#dde1e6;stop-opacity:1;"
         offset="0"
         id="stop2691" />
      <stop
         style="stop-color:#aeb7c0;stop-opacity:1"
         offset="1"
         id="stop2693" />
    </linearGradient>
    <linearGradient
       inkscape:collect="always"
       xlink:href="#linearGradient1686"
       id="linearGradient1680"
       x1="-2"
       y1="24.12855"
       x2="-2"
       y2="36.628551"
       gradientUnits="userSpaceOnUse"
       gradientTransform="matrix(2,0,0,2,20,-44.2571)" />
    <linearGradient
       inkscape:collect="always"
       id="linearGradient1686">
      <stop
         style="stop-color:#6f767b;stop-opacity:1;"
         offset="0"
         id="stop1682" />
      <stop
         style="stop-color:#51565a;stop-opacity:1;"
         offset="1"
         id="stop1684" />
    </linearGradient>
  </defs>
  <path
     id="rect305"
     style="fill:url(#linearGradient1662);fill-opacity:1;stroke-width:1.44941;stroke-linecap:round"
     d="M 9,2 C 7.8920012,2 7,2.892002 7,4 v 24 c 0,1.107998 0.8920012,2 2,2 h 14 c 1.107998,0 2,-0.892002 2,-2 V 4 C 25,2.892002 24.107998,2 23,2 H 18 C 18,3.1045694 17.10457,4 16,4 14.89543,4 14,3.1045694 14,2 Z"
     sodipodi:nodetypes="sssssssscscs" />
  <path
     id="rect307"
     style="fill:#4d4d4d;fill-opacity:1;stroke-width:3.32176;stroke-linecap:round"
     d="M 9,2 C 7.8920035,2 7,2.8920051 7,4 V 5 C 7,3.8920051 7.8920035,3 9,3 h 5 c 0,1.1045689 0.895431,2 2,2 1.104569,0 2,-0.8954311 2,-2 h 5 c 1.107997,0 2,0.8920051 2,2 V 4 C 25,2.8920051 24.107997,2 23,2 H 18 C 18,3.1045689 17.104569,4 16,4 14.895431,4 14,3.1045689 14,2 Z"
     sodipodi:nodetypes="sscscscscsscscs" />
  <path
     id="rect2643"
     style="fill:url(#linearGradient2689);fill-opacity:1;stroke-width:0.863149;stroke-linecap:round"
     d="M 6.5,5 C 5.669004,5 5,5.4460034 5,6 5,6.5539966 5.669004,7 6.5,7 H 12 V 5 Z M 20,5 v 2 h 5.5 C 26.330995,7 27,6.5539966 27,6 27,5.4460034 26.330995,5 25.5,5 Z M 6.5,8 C 5.669004,8 5,8.4460034 5,9 5,9.5539958 5.669004,10 6.5,10 H 12 V 8 Z M 20,8 v 2 h 5.5 C 26.330995,10 27,9.5539958 27,9 27,8.4460034 26.330995,8 25.5,8 Z M 6.5,11 C 5.669004,11 5,11.446005 5,12 c 0,0.553995 0.669004,1 1.5,1 H 12 V 11 Z M 20,11 v 2 h 5.5 c 0.830995,0 1.5,-0.446005 1.5,-1 0,-0.553995 -0.669005,-1 -1.5,-1 z M 6.5,14 C 5.669004,14 5,14.446005 5,15 c 0,0.553995 0.669004,1 1.5,1 H 12 V 14 Z M 20,14 v 2 h 5.5 c 0.830995,0 1.5,-0.446005 1.5,-1 0,-0.553995 -0.669005,-1 -1.5,-1 z M 6.5,17 C 5.669004,17 5,17.446005 5,18 c 0,0.553995 0.669004,1 1.5,1 H 12 V 17 Z M 20,17 v 2 h 5.5 c 0.830995,0 1.5,-0.446005 1.5,-1 0,-0.553995 -0.669005,-1 -1.5,-1 z M 6.5,20 C 5.669004,20 5,20.446005 5,21 c 0,0.553995 0.669004,1 1.5,1 H 12 V 20 Z M 20,20 v 2 h 5.5 c 0.830995,0 1.5,-0.446005 1.5,-1 0,-0.553995 -0.669005,-1 -1.5,-1 z M 6.5,23 C 5.669004,23 5,23.446004 5,24 c 0,0.553996 0.669004,1 1.5,1 H 12 V 23 Z M 20,23 v 2 h 5.5 c 0.830995,0 1.5,-0.446004 1.5,-1 0,-0.553996 -0.669005,-1 -1.5,-1 z M 6.5,26 C 5.669004,26 5,26.446004 5,27 c 0,0.553995 0.669004,1 1.5,1 H 12 V 26 Z M 20,26 v 2 h 5.5 c 0.830995,0 1.5,-0.446005 1.5,-1 0,-0.553996 -0.669005,-1 -1.5,-1 z" />
  <path
     id="rect303"
     style="fill:url(#linearGradient1680);fill-opacity:1;stroke-width:1.24062;stroke-linecap:round"
     d="M 10,4 C 8.892001,4 8,4.892002 8,6 v 21 c 0,1.107998 0.892001,2 2,2 h 12 c 1.107998,0 2,-0.892002 2,-2 V 6 C 24,4.892002 23.107998,4 22,4 H 18 C 18,5.1045694 17.10457,6 16,6 14.89543,6 14,5.1045694 14,4 Z"
     sodipodi:nodetypes="sssssssscscs" />
  <path
     id="path1985"
     style="fill:#8b9095;fill-opacity:1;stroke-width:3.32176;stroke-linecap:round"
     d="M 10,5 C 8.892003,5 8,5.8920051 8,7 V 8 C 8,6.892005 8.892003,6 10,6 h 4 c 0,1.104569 0.895431,2 2,2 1.104569,0 2,-0.895431 2,-2 h 4 c 1.107997,0 2,0.892005 2,2 V 7 C 24,5.8920051 23.107997,5 22,5 H 18 C 18,6.104569 17.104569,7 16,7 14.895433,7 14,6.104569 14,5 Z"
     sodipodi:nodetypes="sscscscscsscscs" />
  <path
     id="rect2273"
     style="fill:#4d4d4d;fill-opacity:1;stroke-width:2;stroke-linecap:round"
     d="m 8,26 v 1 c 0,1.107997 0.892002,2 2,2 h 12 c 1.107997,0 2,-0.892003 2,-2 v -1 c 0,1.107997 -0.892003,2 -2,2 H 10 C 8.892002,28 8,27.107997 8,26 Z"
     sodipodi:nodetypes="csssscssc" />
  <path
     id="rect309"
     style="fill:#4d4d4d;fill-opacity:1;stroke-width:4.08048;stroke-linecap:round"
     d="M 10,4 C 8.892003,4 8,4.8920051 8,6 V 7 C 8,5.8920046 8.892003,5 10,5 h 4 c 0,1.1045683 0.895431,2 2,2 1.104569,0 2,-0.8954317 2,-2 h 4 c 1.107997,0 2,0.8920046 2,2 V 6 C 24,4.8920051 23.107997,4 22,4 H 18 C 18,5.1045683 17.104569,6 16,6 14.895431,6 14,5.1045683 14,4 Z"
     sodipodi:nodetypes="sscscscscsscscs" />
</svg>
