<?xml version="1.0" encoding="UTF-8" standalone="no"?>
<!-- Created with Inkscape (http://www.inkscape.org/) -->

<svg
   width="32"
   height="32"
   viewBox="0 0 32 32"
   version="1.1"
   id="svg144504"
   inkscape:version="1.2.2 (1:1.2.2+202305151914+b0a8486541)"
   sodipodi:docname="network-wireless.svg"
   xmlns:inkscape="http://www.inkscape.org/namespaces/inkscape"
   xmlns:sodipodi="http://sodipodi.sourceforge.net/DTD/sodipodi-0.dtd"
   xmlns:xlink="http://www.w3.org/1999/xlink"
   xmlns="http://www.w3.org/2000/svg"
   xmlns:svg="http://www.w3.org/2000/svg">
  <sodipodi:namedview
     id="namedview144506"
     pagecolor="#ffffff"
     bordercolor="#666666"
     borderopacity="1.0"
     inkscape:pageshadow="2"
     inkscape:pageopacity="0.0"
     inkscape:pagecheckerboard="0"
     inkscape:document-units="px"
     showgrid="false"
     units="px"
     inkscape:zoom="25.1875"
     inkscape:cx="15.980149"
     inkscape:cy="16"
     inkscape:window-width="1920"
     inkscape:window-height="1008"
     inkscape:window-x="0"
     inkscape:window-y="0"
     inkscape:window-maximized="1"
     inkscape:current-layer="svg144504"
     inkscape:showpageshadow="2"
     inkscape:deskcolor="#d1d1d1" />
  <defs
     id="defs144501">
    <linearGradient
       inkscape:collect="always"
       id="linearGradient329500">
      <stop
         style="stop-color:#000000;stop-opacity:0"
         offset="0"
         id="stop329496" />
      <stop
         style="stop-color:#000000;stop-opacity:0"
         offset="0.4698768"
         id="stop330200" />
      <stop
         style="stop-color:#000000;stop-opacity:1"
         offset="1"
         id="stop329498" />
    </linearGradient>
    <radialGradient
       inkscape:collect="always"
       xlink:href="#linearGradient329500"
       id="radialGradient329502"
       cx="8.4666672"
       cy="12.7"
       fx="8.4666672"
       fy="12.7"
       r="7.6729169"
       gradientUnits="userSpaceOnUse"
       gradientTransform="matrix(3.5840345,0,0,3.4537056,-14.344827,-17.362066)" />
    <radialGradient
       inkscape:collect="always"
       xlink:href="#linearGradient329500"
       id="radialGradient331953"
       cx="8.4666672"
       cy="12.170835"
       fx="8.4666672"
       fy="12.170835"
       r="4.2333336"
       gradientUnits="userSpaceOnUse"
       gradientTransform="matrix(3.307086,0,0,3.3070862,-11.999996,-14.749999)" />
  </defs>
  <path
     id="path332853"
     style="color:#000000;fill:#3cc2e2;stroke:none;stroke-width:1;stroke-linecap:round;stroke-linejoin:round;-inkscape-stroke:none"
     d="m 16,6.0019525 c -5.033069,0.00405 -9.888427,1.85751 -13.6416016,5.2109375 a 0.50005,0.50005 0 0 0 -0.029297,0.719727 L 15.638671,25.843748 a 0.50005,0.50005 0 0 0 0.723633,0 l 13.3125,-13.917967 a 0.50005,0.50005 0 0 0 -0.02539,-0.719727 C 25.893661,7.8537905 21.034216,6.0025775 16,6.0019525 Z" />
  <path
     id="path332859"
     style="color:#000000;fill:#1787d6;stroke-width:1;stroke-linecap:round;stroke-linejoin:round;-inkscape-stroke:none"
     d="m 16,11.500976 c -3.614308,0.0045 -7.106209,1.314077 -9.832031,3.6875 a 0.50005,0.50005 0 0 0 -0.033205,0.723633 l 9.503908,9.931639 a 0.50005,0.50005 0 0 0 0.723632,0 L 25.873045,15.90039 A 0.50005,0.50005 0 0 0 25.83984,15.180664 C 23.111019,12.80857 19.615701,11.501483 16,11.500976 Z" />
  <path
     id="path332865"
     style="color:#000000;fill:url(#radialGradient329502);stroke-width:1;stroke-linecap:round;stroke-linejoin:round;-inkscape-stroke:none"
     d="m 16,11.500976 c -3.614308,0.0045 -7.106209,1.314077 -9.832031,3.6875 a 0.50005,0.50005 0 0 0 -0.033205,0.723633 l 9.503908,9.931639 a 0.50005,0.50005 0 0 0 0.723632,0 L 25.873045,15.90039 A 0.50005,0.50005 0 0 0 25.83984,15.180664 C 23.111019,12.80857 19.615701,11.501483 16,11.500976 Z" />
  <path
     id="path332871"
     style="color:#000000;fill:#02589f;stroke-width:1;stroke-linecap:round;stroke-linejoin:round;-inkscape-stroke:none"
     d="m 16,17.000976 c -2.187175,0.005 -4.290261,0.850646 -5.868165,2.365235 a 0.50005,0.50005 0 0 0 -0.01464,0.708984 l 5.521485,5.768553 a 0.50005,0.50005 0 0 0 0.723632,0 l 5.528315,-5.779295 a 0.50005,0.50005 0 0 0 -0.01474,-0.705079 C 20.294502,17.846214 18.188748,17.001355 16,17.000976 Z" />
  <path
     id="path332877"
     style="color:#000000;opacity:0.2;fill:url(#radialGradient331953);stroke-width:1;stroke-linecap:round;stroke-linejoin:round;-inkscape-stroke:none"
     d="m 16,17.000976 c -2.18832,0.0014 -4.29147,0.844977 -5.872071,2.358398 a 0.50005,0.50005 0 0 0 -0.01856,0.708008 l 5.529297,5.776367 a 0.50005,0.50005 0 0 0 0.723633,0 l 5.528324,-5.779296 a 0.50005,0.50005 0 0 0 -0.01474,-0.705079 C 20.294351,17.846593 18.188604,17.001075 16,17.000976 Z" />
</svg>
