<?xml version="1.0" encoding="UTF-8" standalone="no"?>
<!-- Created with Inkscape (http://www.inkscape.org/) -->

<svg
   width="22"
   height="22"
   viewBox="0 0 22 22.000002"
   version="1.1"
   id="svg5"
   inkscape:version="1.2.2 (1:1.2.2+202305151914+b0a8486541)"
   sodipodi:docname="go-parent-folder.svg"
   xmlns:inkscape="http://www.inkscape.org/namespaces/inkscape"
   xmlns:sodipodi="http://sodipodi.sourceforge.net/DTD/sodipodi-0.dtd"
   xmlns="http://www.w3.org/2000/svg"
   xmlns:svg="http://www.w3.org/2000/svg">
  <sodipodi:namedview
     id="namedview7"
     pagecolor="#ffffff"
     bordercolor="#000000"
     borderopacity="0.25"
     inkscape:showpageshadow="2"
     inkscape:pageopacity="0.0"
     inkscape:pagecheckerboard="0"
     inkscape:deskcolor="#d1d1d1"
     inkscape:document-units="px"
     showgrid="false"
     inkscape:zoom="37.727273"
     inkscape:cx="10.986747"
     inkscape:cy="11"
     inkscape:window-width="1920"
     inkscape:window-height="1008"
     inkscape:window-x="0"
     inkscape:window-y="0"
     inkscape:window-maximized="1"
     inkscape:current-layer="svg5" />
  <defs
     id="defs2">
    <style
       id="current-color-scheme"
       type="text/css">
         .ColorScheme-Text {
         color:#dedede;}
      </style>
  </defs>
  <path
     id="path347"
     style="fill:currentColor;stroke-width:1.5;stroke-linecap:round;stroke-linejoin:round;paint-order:stroke fill markers"
     class="ColorScheme-Text"
     d="M 4,3 C 2.8920033,3 2,3.8920033 2,5 v 12 c 0,1.107997 0.8920033,2 2,2 h 8.267578 C 12.013806,18.691421 11.794412,18.356108 11.613281,18 H 4 C 3.4460018,18 3,17.553997 3,17 V 8 h 6 l 2,-2 h 7 c 0.553997,0 1,0.4460018 1,1 v 3.603516 c 0.356108,0.18113 0.69142,0.400525 1,0.654296 V 7 C 20,5.8920033 19.107997,5 18,5 H 11 L 9,3 Z M 4,4 H 8.5859375 L 10.082031,5.5039062 8.5859375,7 H 3 V 5 C 3,4.4460018 3.4460018,4 4,4 Z m 12.5,7 C 14.014723,11 12,13.014723 12,15.5 12,17.985278 14.014723,20 16.5,20 18.985276,20 21,17.985278 21,15.5 21,13.014723 18.985276,11 16.5,11 Z m 0,1 3.5,3.5 -0.707031,0.707031 L 17,13.914062 v 5 h -1 v -5 L 13.707031,16.207031 13,15.5 Z" />
</svg>
