<?xml version="1.0" encoding="UTF-8" standalone="no"?>
<!-- Created with Inkscape (http://www.inkscape.org/) -->

<svg
   width="22"
   height="22"
   viewBox="0 0 22 22"
   version="1.1"
   id="svg2535"
   inkscape:version="1.2.2 (1:1.2.2+202305151914+b0a8486541)"
   sodipodi:docname="security-low.svg"
   xmlns:inkscape="http://www.inkscape.org/namespaces/inkscape"
   xmlns:sodipodi="http://sodipodi.sourceforge.net/DTD/sodipodi-0.dtd"
   xmlns:xlink="http://www.w3.org/1999/xlink"
   xmlns="http://www.w3.org/2000/svg"
   xmlns:svg="http://www.w3.org/2000/svg">
  <sodipodi:namedview
     id="namedview2537"
     pagecolor="#ffffff"
     bordercolor="#000000"
     borderopacity="0.25"
     inkscape:showpageshadow="2"
     inkscape:pageopacity="0.0"
     inkscape:pagecheckerboard="0"
     inkscape:deskcolor="#d1d1d1"
     inkscape:document-units="px"
     showgrid="false"
     inkscape:zoom="36.636364"
     inkscape:cx="10.986352"
     inkscape:cy="11"
     inkscape:window-width="1920"
     inkscape:window-height="1008"
     inkscape:window-x="0"
     inkscape:window-y="0"
     inkscape:window-maximized="1"
     inkscape:current-layer="svg2535"
     showguides="false" />
  <defs
     id="defs2532">
    <linearGradient
       inkscape:collect="always"
       id="linearGradient1577">
      <stop
         style="stop-color:#e96311;stop-opacity:1"
         offset="0"
         id="stop1573" />
      <stop
         style="stop-color:#da3f04;stop-opacity:1;"
         offset="1"
         id="stop1575" />
    </linearGradient>
    <linearGradient
       inkscape:collect="always"
       xlink:href="#linearGradient1577"
       id="linearGradient4113"
       gradientUnits="userSpaceOnUse"
       gradientTransform="matrix(0.62497772,0,0,0.62711173,1.0003136,0.3508454)"
       x1="7.9997835"
       y1="3.427068"
       x2="32.000641"
       y2="32.927395" />
  </defs>
  <path
     style="color:#000000;fill:url(#linearGradient4113);fill-opacity:1;stroke:none;stroke-width:2;stroke-linecap:round;stroke-linejoin:round;-inkscape-stroke:none"
     d="M 11,1 C 8.5429904,1 7.45848,1.5299814 6.0000004,2.5 c -1.2413749,0.9428128 -2.5251901,1.5 -4,1.5 -0.5522847,0 -1,0.4477153 -1,1 v 6 c 0,2.110185 1.5111607,4.44924 3.1953125,6.101562 C 5.8249412,18.77107 9.066328,20.7551 11,21 12.933672,20.7551 16.17506,18.77107 17.804688,17.101562 19.48884,15.44924 21,13.110186 21,11 V 5 C 21,4.4477153 20.552285,4 20,4 18.52519,4 17.241375,3.4428128 16,2.5 14.54152,1.5299814 13.45701,1 11,1 Z"
     id="path414"
     sodipodi:nodetypes="scssscccssscs" />
  <path
     id="path416"
     style="color:#000000;opacity:0.2;fill:#000000;stroke:none;stroke-linecap:round;stroke-linejoin:round;-inkscape-stroke:none"
     d="M 11,1 C 8.5429929,1 7.4584781,1.5299824 6,2.5 4.7586263,3.4428119 3.4748084,4 2,4 1.4477159,4 1,4.4477159 1,5 v 6 c 0,2.110183 1.5111624,4.449242 3.1953125,6.101562 C 5.8249392,18.771069 9.06633,20.7551 11,21 12.93367,20.755099 16.175061,18.771068 17.804688,17.101562 19.488838,15.449242 21,13.110185 21,11 V 5 C 21,4.4477159 20.552284,4 20,4 18.525191,4 17.241374,3.4428119 16,2.5 14.541521,1.5299824 13.457008,1 11,1 Z m 0,1 c 2.30218,0 3.030934,0.3934623 4.425781,1.3203125 C 16.772649,4.3358419 18.286617,5 20,5 v 6 c 0,1.632765 -1.335646,3.857332 -2.896484,5.388672 a 1.0001,1.0001 0 0 0 -0.01367,0.01367 c -0.721631,0.73929 -1.890712,1.625024 -3.078125,2.320312 C 12.871565,19.390273 11.714806,19.840447 11,19.957031 10.285194,19.840447 9.128433,19.390271 7.9882812,18.722656 6.8008681,18.027368 5.631787,17.141634 4.9101562,16.402344 a 1.0001,1.0001 0 0 0 -0.013672,-0.01367 C 3.3356458,14.85733 2,12.632763 2,11 V 5 C 3.705656,5 5.2123942,4.3398172 6.5546875,3.3320312 7.9626802,2.3955911 8.6867962,2 11,2 Z" />
  <path
     id="rect368"
     style="fill:#ffffff;stroke-linecap:round"
     d="m 6.0502529,6.0502528 c -0.3917365,0.3917365 -0.3917366,1.022477 0,1.4142136 L 9.585786,11 6.0502529,14.535534 c -0.3917366,0.391736 -0.3917365,1.022477 0,1.414213 0.3917365,0.391737 1.022477,0.391737 1.4142136,0 L 11,12.414214 l 3.535534,3.535533 c 0.391736,0.391737 1.022477,0.391737 1.414213,0 0.391737,-0.391736 0.391737,-1.022477 0,-1.414213 L 12.414214,11 15.949747,7.4644664 c 0.391737,-0.3917365 0.391737,-1.0224771 0,-1.4142136 -0.391736,-0.3917364 -1.022477,-0.3917364 -1.414213,0 L 11,9.5857862 7.4644665,6.0502528 c -0.3917366,-0.3917366 -1.0224772,-0.3917364 -1.4142136,0 z" />
</svg>
