<?xml version="1.0" encoding="UTF-8" standalone="no"?>
<!-- Created with Inkscape (http://www.inkscape.org/) -->

<svg
   width="22"
   height="22"
   viewBox="0 0 22 22"
   version="1.1"
   id="svg5"
   inkscape:version="1.3.2 (091e20ef0f, 2023-11-25, custom)"
   sodipodi:docname="system-switch-user.svg"
   xmlns:inkscape="http://www.inkscape.org/namespaces/inkscape"
   xmlns:sodipodi="http://sodipodi.sourceforge.net/DTD/sodipodi-0.dtd"
   xmlns:xlink="http://www.w3.org/1999/xlink"
   xmlns="http://www.w3.org/2000/svg"
   xmlns:svg="http://www.w3.org/2000/svg">
  <sodipodi:namedview
     id="namedview7"
     pagecolor="#ffffff"
     bordercolor="#000000"
     borderopacity="0.25"
     inkscape:showpageshadow="2"
     inkscape:pageopacity="0.0"
     inkscape:pagecheckerboard="0"
     inkscape:deskcolor="#d1d1d1"
     inkscape:document-units="px"
     showgrid="false"
     inkscape:zoom="36.545455"
     inkscape:cx="10.986318"
     inkscape:cy="11"
     inkscape:window-width="1920"
     inkscape:window-height="1008"
     inkscape:window-x="0"
     inkscape:window-y="0"
     inkscape:window-maximized="1"
     inkscape:current-layer="svg5" />
  <defs
     id="defs2">
    <linearGradient
       inkscape:collect="always"
       id="linearGradient1299">
      <stop
         style="stop-color:#2cc899;stop-opacity:1;"
         offset="0"
         id="stop1295" />
      <stop
         style="stop-color:#358970;stop-opacity:1;"
         offset="1"
         id="stop1297" />
    </linearGradient>
    <linearGradient
       inkscape:collect="always"
       xlink:href="#linearGradient1299"
       id="linearGradient1301"
       x1="44.362511"
       y1="4"
       x2="44.362511"
       y2="40"
       gradientUnits="userSpaceOnUse"
       gradientTransform="matrix(0.5,0,0,0.5,-1.1823859,0)" />
  </defs>
  <path
     id="rect366"
     style="fill:url(#linearGradient1301);fill-opacity:1;stroke-width:1;stroke-linecap:round"
     d="m 5.8183594,2 c -0.03232,0 -0.064183,9.426e-4 -0.095703,0.00391 -0.029075,0.00274 -0.057658,0.00852 -0.085937,0.013672 -0.0029,5.4e-4 -0.00686,-5.621e-4 -0.00977,0 -0.022225,0.00428 -0.044741,0.00991 -0.066406,0.015625 -0.010475,0.00279 -0.02085,0.00663 -0.03125,0.00977 -0.029945,0.00896 -0.059188,0.017688 -0.087891,0.029297 -0.1378886,0.055775 -0.2603185,0.1425421 -0.359375,0.25 L 0.9296875,6.4765625 c -0.39173521,0.3917347 -0.39173511,1.0223273 0,1.4140625 0.3917354,0.3917342 1.0223273,0.3917342 1.4140625,0 L 4.8183594,5.4140625 V 19 c 0,0.553997 0.446002,1 1,1 0.5539978,0 1,-0.446003 1,-1 V 5.4140625 L 9.2910156,7.890625 c 0.3916946,0.3917741 1.0223284,0.3917342 1.4140624,0 0.391736,-0.3917352 0.391712,-1.0223041 0,-1.4140625 L 6.5527344,2.3222656 C 6.4536781,2.2148077 6.3312475,2.1299901 6.1933594,2.0742188 c -0.028705,-0.011609 -0.057918,-0.022293 -0.087891,-0.03125 -0.010345,-0.00309 -0.020765,-0.00505 -0.03125,-0.00781 -0.021665,-0.00571 -0.042229,-0.01135 -0.064453,-0.015625 h -0.00195 C 6.0049625,2.0189788 6.00288,2.0181081 6,2.0175781 5.971715,2.0124181 5.9431365,2.0066432 5.9140625,2.0039062 5.8822566,2.0008504 5.8503117,2 5.8183594,2 Z m 9.9999996,0 c -0.553997,0 -1,0.4460022 -1,1 V 16.585938 L 12.34375,14.109375 c -0.391692,-0.391779 -1.022328,-0.391735 -1.414062,0 -0.391735,0.391737 -0.39171,1.022302 0,1.414063 l 4.152343,4.154296 c 0.09906,0.107458 0.221486,0.194228 0.359375,0.25 0.02871,0.0116 0.05792,0.02035 0.08789,0.0293 0.0104,0.0032 0.02078,0.007 0.03125,0.0098 0.02166,0.0057 0.04419,0.01138 0.06641,0.01563 0.0029,6e-4 0.0069,-5.74e-4 0.0098,0 0.02828,0.0052 0.05686,0.01088 0.08594,0.01367 0.03149,0.003 0.06338,0.0039 0.0957,0.0039 0.03195,0 0.06389,-9.12e-4 0.0957,-0.0039 0.02907,-0.0027 0.05766,-0.0085 0.08594,-0.01367 0.0029,-4.98e-4 0.0049,5.74e-4 0.0078,0 h 0.002 c 0.02223,-0.0042 0.04279,-0.01185 0.06445,-0.01758 0.01048,-0.0027 0.0209,-0.0047 0.03125,-0.0078 0.02998,-0.009 0.05918,-0.01965 0.08789,-0.03125 0.137889,-0.05577 0.260319,-0.140589 0.359375,-0.248047 l 4.152344,-4.154296 c 0.391711,-0.391761 0.391735,-1.022327 0,-1.414063 -0.391734,-0.391735 -1.022372,-0.39178 -1.414062,0 l -2.472657,2.476563 V 3 c 0,-0.5539978 -0.446001,-1 -1,-1 z" />
</svg>
