<?xml version="1.0" encoding="UTF-8" standalone="no"?>
<!-- Created with Inkscape (http://www.inkscape.org/) -->

<svg
   width="22"
   height="22"
   viewBox="0 0 22 22.000002"
   version="1.1"
   id="svg5"
   inkscape:version="1.4.2 (ebf0e940d0, 2025-05-08)"
   sodipodi:docname="xapp-prefs-preview-symbolic.svg"
   xmlns:inkscape="http://www.inkscape.org/namespaces/inkscape"
   xmlns:sodipodi="http://sodipodi.sourceforge.net/DTD/sodipodi-0.dtd"
   xmlns="http://www.w3.org/2000/svg"
   xmlns:svg="http://www.w3.org/2000/svg">
  <sodipodi:namedview
     id="namedview7"
     pagecolor="#ffffff"
     bordercolor="#000000"
     borderopacity="0.25"
     inkscape:showpageshadow="2"
     inkscape:pageopacity="0.0"
     inkscape:pagecheckerboard="0"
     inkscape:deskcolor="#d1d1d1"
     inkscape:document-units="px"
     showgrid="false"
     inkscape:zoom="36.045455"
     inkscape:cx="11"
     inkscape:cy="11"
     inkscape:window-width="1920"
     inkscape:window-height="1007"
     inkscape:window-x="0"
     inkscape:window-y="0"
     inkscape:window-maximized="1"
     inkscape:current-layer="svg5" />
  <defs
     id="defs2">
    <style
       id="current-color-scheme"
       type="text/css">
        .ColorScheme-Text { color:#dedede; } .ColorScheme-Highlight { color:#4285f4; } .ColorScheme-NeutralText { color:#ff9800; } .ColorScheme-PositiveText { color:#4caf50; } .ColorScheme-NegativeText { color:#f44336; }
     </style>
  </defs>
  <path
     id="path1"
     style="fill:currentColor;fill-opacity:1"
     class="ColorScheme-Text"
     d="M 5,3 C 3.8920033,3 3,3.8920033 3,5 v 12 c 0,1.107997 0.8920033,2 2,2 h 12 c 1.107997,0 2,-0.892003 2,-2 V 5 C 19,3.8920033 18.107997,3 17,3 Z m 0,1 h 12 c 0.553997,0 1,0.4460018 1,1 V 16.171875 L 12.414063,10.587891 C 12.022327,10.196155 11.511237,10 11,10 10.488763,10 9.977673,10.196155 9.585938,10.587891 L 4,16.171875 V 5 C 4,4.4460018 4.4460018,4 5,4 Z m 10,2 c -1.104567,0 -2,0.8954327 -2,2 0,1.104567 0.895433,2 2,2 1.104567,0 2,-0.895433 2,-2 0,-1.1045673 -0.895433,-2 -2,-2 z m 0,1 c 0.552283,-3e-7 1,0.4477164 1,1 0,0.5522835 -0.447717,1 -1,1 -0.552283,0 -1,-0.4477165 -1,-1 0,-0.5522836 0.447717,-1.0000003 1,-1 z m -4,4.001953 c 0.255581,0 0.511163,0.0971 0.707031,0.292969 l 6.173828,6.169922 v 0.002 C 17.713398,17.783443 17.384479,18 17,18 H 5 C 4.6149052,18 4.2863416,17.782323 4.1191406,17.464844 L 10.292969,11.294922 C 10.488837,11.099054 10.744419,11.001953 11,11.001953 Z" />
</svg>
