<?xml version="1.0" encoding="UTF-8" standalone="no"?>
<!-- Created with Inkscape (http://www.inkscape.org/) -->

<svg
   width="24"
   height="24"
   viewBox="0 0 24 24"
   version="1.1"
   id="svg5"
   inkscape:version="1.2.1 (9c6d41e410, 2022-07-14, custom)"
   sodipodi:docname="application-x-deb.svg"
   xmlns:inkscape="http://www.inkscape.org/namespaces/inkscape"
   xmlns:sodipodi="http://sodipodi.sourceforge.net/DTD/sodipodi-0.dtd"
   xmlns:xlink="http://www.w3.org/1999/xlink"
   xmlns="http://www.w3.org/2000/svg"
   xmlns:svg="http://www.w3.org/2000/svg">
  <sodipodi:namedview
     id="namedview7"
     pagecolor="#ffffff"
     bordercolor="#000000"
     borderopacity="0.25"
     inkscape:showpageshadow="2"
     inkscape:pageopacity="0.0"
     inkscape:pagecheckerboard="0"
     inkscape:deskcolor="#d1d1d1"
     inkscape:document-units="px"
     showgrid="false"
     inkscape:zoom="33.666667"
     inkscape:cx="12"
     inkscape:cy="12"
     inkscape:window-width="1920"
     inkscape:window-height="1010"
     inkscape:window-x="0"
     inkscape:window-y="0"
     inkscape:window-maximized="1"
     inkscape:current-layer="svg5"
     showguides="false" />
  <defs
     id="defs2">
    <linearGradient
       inkscape:collect="always"
       xlink:href="#linearGradient40996"
       id="linearGradient2076"
       x1="5"
       y1="1"
       x2="3"
       y2="3"
       gradientUnits="userSpaceOnUse"
       gradientTransform="translate(2,2.0000001)" />
    <linearGradient
       inkscape:collect="always"
       id="linearGradient40996">
      <stop
         style="stop-color:#f57da7;stop-opacity:1"
         offset="0"
         id="stop40992" />
      <stop
         style="stop-color:#f775a4;stop-opacity:1"
         offset="1"
         id="stop40994" />
    </linearGradient>
    <linearGradient
       inkscape:collect="always"
       xlink:href="#linearGradient26892"
       id="linearGradient2088"
       x1="3"
       y1="5.5"
       x2="7"
       y2="2"
       gradientUnits="userSpaceOnUse"
       gradientTransform="translate(2,2.0000001)" />
    <linearGradient
       inkscape:collect="always"
       id="linearGradient26892">
      <stop
         style="stop-color:#cb6085;stop-opacity:1"
         offset="0"
         id="stop26888" />
      <stop
         style="stop-color:#832949;stop-opacity:1"
         offset="1"
         id="stop26890" />
    </linearGradient>
    <linearGradient
       inkscape:collect="always"
       xlink:href="#linearGradient26892"
       id="linearGradient2090"
       x1="13"
       y1="4"
       x2="13"
       y2="18"
       gradientUnits="userSpaceOnUse"
       gradientTransform="translate(5.9999999,3.0000001)" />
    <linearGradient
       inkscape:collect="always"
       xlink:href="#linearGradient56461"
       id="linearGradient2068"
       x1="3"
       y1="3"
       x2="13"
       y2="20"
       gradientUnits="userSpaceOnUse"
       gradientTransform="translate(2,2.0000001)" />
    <linearGradient
       inkscape:collect="always"
       id="linearGradient56461">
      <stop
         style="stop-color:#fb95b9;stop-opacity:1"
         offset="0"
         id="stop56457-9" />
      <stop
         style="stop-color:#f63479;stop-opacity:1"
         offset="1"
         id="stop56459-1" />
    </linearGradient>
    <linearGradient
       inkscape:collect="always"
       xlink:href="#linearGradient70845"
       id="linearGradient2098"
       x1="11"
       y1="0.99999899"
       x2="15"
       y2="13.999999"
       gradientUnits="userSpaceOnUse"
       gradientTransform="translate(4,7.000001)" />
    <linearGradient
       inkscape:collect="always"
       id="linearGradient70845">
      <stop
         style="stop-color:#d04d79;stop-opacity:1"
         offset="0"
         id="stop70841-7" />
      <stop
         style="stop-color:#b63664;stop-opacity:1"
         offset="1"
         id="stop70843-0" />
    </linearGradient>
    <linearGradient
       inkscape:collect="always"
       xlink:href="#linearGradient40996"
       id="linearGradient2080"
       x1="17"
       y1="5.0000014"
       x2="17"
       y2="6"
       gradientUnits="userSpaceOnUse"
       gradientTransform="translate(2,2.0000001)" />
    <linearGradient
       inkscape:collect="always"
       xlink:href="#linearGradient40996"
       id="linearGradient2078"
       x1="7"
       y1="0"
       x2="15"
       y2="5.0000014"
       gradientUnits="userSpaceOnUse"
       gradientTransform="translate(4,2)" />
  </defs>
  <path
     id="rect3961"
     style="fill:url(#linearGradient2076);fill-opacity:1;stroke-width:0.27586"
     d="m 3,4.0000001 4,-1 2,1 -2.0000002,3 -1.9999998,-2 z"
     sodipodi:nodetypes="cccccc" />
  <path
     id="rect2034"
     style="fill:url(#linearGradient2088);fill-opacity:1;stroke-width:0.27586"
     d="m 5,5.0000001 4.0000001,-1 L 11,17 9.0000001,18 5,19 Z"
     sodipodi:nodetypes="cccccc" />
  <path
     id="rect2627"
     style="fill:url(#linearGradient2090);fill-opacity:1;stroke-width:0.27586"
     d="m 9,4.0000001 10,3 V 21 L 9,18 Z"
     sodipodi:nodetypes="ccccc" />
  <path
     id="rect45418"
     style="fill:url(#linearGradient2068);fill-opacity:1;stroke-width:0.190529"
     d="M 5,5.0000001 15,8.0000011 17,9.0000002 15,22 5,19 Z"
     sodipodi:nodetypes="cccccc" />
  <path
     id="path2"
     style="opacity:0.6;fill:#ffffff;stroke-width:0.0249995"
     d="m 8.8627506,13.203905 c -0.096366,-0.02702 -0.1923299,-0.05706 -0.2871035,-0.07932 l 0.04175,0.02093 c 0.069729,-1.83e-4 0.1713845,0.04842 0.2453575,0.05845 z M 8.4415681,13.094887 C 8.2847957,13.047394 8.0673209,13.049866 8.1344442,13 7.8785748,13.02108 7.4243673,13.01596 7.1695229,13.162168 l -0.00796,-0.05647 c -0.1167804,0.09769 -0.5092195,0.233362 -0.5404937,0.403553 l -0.031246,-0.0041 c -0.060772,0.08077 -0.1000843,0.183081 -0.1482887,0.271411 -0.079505,0.106499 -0.1165492,0.0096 -0.1052155,0.03505 -0.1563228,0.260073 -0.2339726,0.498161 -0.301067,0.69216 0.047792,0.08884 0.00117,0.430552 0.019248,0.724179 -0.078519,1.389116 0.9949619,3.156339 2.1683629,3.901165 0.1719993,0.124087 0.4277768,0.21478 0.6453472,0.300321 C 8.611514,19.262528 8.5783248,19.285014 8.3283296,19.106809 8.1479603,18.956215 8.1084321,18.844851 7.9806813,18.687509 l 0.050546,0.107711 C 7.7807069,18.615355 7.8854924,18.632417 7.6816724,18.493678 l 0.053998,-0.05085 C 7.6544459,18.40712 7.5205895,18.227714 7.4839662,18.141991 l -0.088809,-0.02882 C 7.2884118,17.942592 7.2315359,17.827073 7.2356874,17.755038 l -0.028735,0.04071 c -0.032501,-0.0677 -0.3927275,-0.636917 -0.2058558,-0.466903 -0.034734,-0.0444 -0.080856,-0.0811 -0.1308988,-0.190217 l 0.038027,-0.0296 c -0.089931,-0.148392 -0.1655152,-0.324305 -0.159765,-0.371561 0.047967,0.08226 0.08125,0.106487 0.1141979,0.129594 -0.2270668,-0.64611 -0.2398361,-0.118389 -0.4118554,-0.723477 l 0.03638,0.01025 c -0.027912,-0.0522 -0.044808,-0.103974 -0.06723,-0.15694 L 6.4357999,15.84485 C 6.2722802,15.596352 6.3900786,15.024521 6.4136626,14.695957 6.43005,14.564803 6.5501215,14.46259 6.6414881,14.266976 l -0.055677,-0.02983 c 0.106358,-0.146857 0.6075008,-0.524222 0.8395448,-0.410965 0.1124779,-0.100286 -0.022354,-0.0086 -0.044338,-0.05221 0.2469443,-0.165691 0.3246046,-0.06238 0.4912496,-0.04771 0.1797449,-0.04127 -0.154217,-0.0145 -0.068992,-0.06579 0.3106679,0.03372 0.2201613,-0.100274 0.6254758,0.0069 0.04275,0.03992 -0.099218,0.0013 -0.1348554,0.02009 0.2588438,-0.03246 0.8192117,0.200301 1.183129,0.500882 0.4223655,0.35112 0.8967851,1.107197 0.9155091,1.662925 l 0.02133,0.0135 c -0.01074,0.214311 0.03337,0.482677 -0.04321,0.686603 l 0.05254,-0.09049 5e-5,1.9e-5 c 0.0062,0.169028 -0.04873,0.22992 -0.09829,0.355132 l -0.0891,0.01212 c -0.07298,0.115087 0.0071,0.09247 -0.04517,0.186148 -0.113891,0.05977 -0.3455708,0.190964 -0.4197181,0.183654 -0.054071,-0.02088 0.036736,-0.05047 0.048585,-0.07073 -0.1524217,0.04922 -0.1223392,0.1126 -0.3554138,0.09139 l -0.00671,-0.0176 c -0.5750299,0.06112 -1.3736472,-0.765565 -1.3631223,-1.493069 -0.00616,0.04418 -0.017494,0.0285 -0.030226,0.04261 -0.029636,-0.387082 0.1738189,-0.690991 0.5168834,-0.720447 0.3356675,-0.04397 0.7290417,0.167424 0.9694628,0.478979 -0.1320451,-0.22107 -0.3948367,-0.500069 -0.7063307,-0.596296 -0.305195,-0.106224 -0.59065,-0.01623 -0.6859229,0.159564 -0.1563231,0.04155 -0.1744512,0.31591 -0.2425739,0.342512 -0.091618,0.640214 0.1723884,1.027308 0.6190305,1.532165 0.070299,0.07299 0.019785,0.06182 0.029321,0.10135 -0.1483939,-0.123487 -0.2843157,-0.277863 -0.3960354,-0.446972 0.059292,0.108399 0.1232578,0.216011 0.2059533,0.312404 -0.1399271,-0.09835 -0.3268666,-0.458006 -0.3814137,-0.489735 0.2411688,0.519618 0.9785526,1.113519 1.3646691,1.092584 -0.1786445,-0.0584 -0.4056386,-0.143964 -0.6063849,-0.291253 -0.084267,-0.07403 -0.1989586,-0.205714 -0.1785115,-0.215068 0.5269639,0.38867 1.0713235,0.53907 1.5272131,0.339505 0.116021,-0.04813 0.242737,-0.155664 0.279338,-0.144471 -0.05514,0.06283 0.0094,0.04327 -0.03297,0.101036 0.115625,-0.144307 -0.05019,-0.09414 0.119477,-0.27843 l 0.06264,0.109124 c -0.0233,-0.163172 0.19221,-0.272641 0.170357,-0.52529 0.04937,-0.05687 0.05512,0.100562 0.0027,0.253644 0.0728,-0.164496 0.01922,-0.214653 0.03795,-0.365428 0.02027,0.06033 0.04667,0.126219 0.06031,0.18708 -0.04737,-0.201777 0.04866,-0.293116 0.07242,-0.391742 -0.02343,-0.01897 -0.0732,0.05495 -0.08458,-0.167208 0.0017,-0.0941 0.02638,-0.04 0.03588,-0.05985 -0.01858,-0.01752 -0.06737,-0.107774 -0.09701,-0.257813 0.02149,-0.02489 0.05752,0.105749 0.08677,0.121224 -0.01884,-0.117574 -0.05123,-0.213748 -0.05258,-0.299162 -0.08552,-0.209849 -0.03027,0.01277 -0.0996,-0.113012 -0.09103,-0.31705 0.07553,-0.03838 0.08677,-0.163287 0.138001,0.250119 0.21665,0.5885 0.252728,0.729928 -0.02756,-0.166476 -0.07208,-0.33419 -0.126462,-0.500606 0.04193,0.0329 -0.06748,-0.346447 0.0545,-0.07723 -0.13022,-0.526682 -0.557465,-1.130032 -0.9505326,-1.483242 0.0481,0.06151 0.1088316,0.138874 0.087016,0.139579 C 9.869014,13.977161 9.9033986,13.980631 9.875376,13.921261 9.7161536,13.798533 9.7056587,13.864626 9.6001874,13.821197 9.3000724,13.552774 9.2422678,13.548665 8.9660235,13.348349 l 0.0125,0.06328 C 8.7797027,13.27304 8.7468721,13.352412 8.5319509,13.249293 c -0.013092,-0.01509 0.068842,-0.01187 0.136324,0.0029 -0.1922471,-0.04462 -0.18326,-0.104574 -0.3713779,-0.128279 0.046363,-0.01563 0.095366,-0.01928 0.1448253,-0.02898 z m 0.1554674,0.09261 c 0.055021,0.02987 0.1189291,0.06077 0.1099479,0.07064 0.06017,0.0086 0.073843,0.0015 -0.1099479,-0.07064 z m 0.1099479,0.07064 -0.038929,-0.0062 0.036228,0.01 z m -2.5374458,0.297998 c -5.47e-5,0.0033 2.278e-4,0.0062 7.357e-4,0.0086 -2.087e-4,-0.0028 -4.26e-4,-0.0057 -7.357e-4,-0.0086 z m 7.357e-4,0.0086 c 0.010425,0.146281 -0.1100105,0.156151 0.027598,0.110036 0.071139,-0.134329 -0.018627,-0.06584 -0.027598,-0.110036 z m -0.1150829,0.422019 c -0.089267,0.08165 -0.041062,0.123512 -0.050486,0.197734 0.032304,-0.08741 0.038143,-0.144828 0.050486,-0.197734 z m 3.6750697,2.027103 c -0.012772,-0.0043 -0.029128,0.02214 -0.037357,0.05457 0.019172,0.01698 0.034421,0.143429 0.053028,0.0754 0.00622,-0.0906 -0.00293,-0.125665 -0.015685,-0.129981 z m 1.1275629,0.723334 c -1.6e-5,1.2e-4 -2.5e-5,2.5e-4 -5e-5,3.71e-4 l 1.52e-4,-3.35e-4 z m -5e-5,3.71e-4 -0.01498,0.03215 c -0.02778,0.187203 -0.08777,0.360603 -0.179726,0.508129 0.101437,-0.153931 0.167195,-0.338752 0.194723,-0.540247 z M 9.6635133,16.372038 c -0.013792,0.06338 -0.050885,0.108961 -0.085882,0.158536 -0.1927679,0.05118 -0.018142,-0.07869 -1.043e-4,-0.145643 -0.2072463,0.18546 -0.028463,0.146083 -0.035986,0.216193 0.06142,-0.06237 0.1061742,-0.138916 0.1219804,-0.229086 z m -0.4203005,0.245344 c -0.083841,-0.01 -0.1691244,-0.04059 -0.2551245,-0.07977 -0.1031267,-0.03606 0.019492,0.06024 0.1540989,0.12996 0.0372,-0.01549 0.070978,-0.03262 0.101028,-0.05022 z M 7.9418196,16.157083 c 0.022731,0.0919 0.069274,0.180671 0.1125992,0.26954 l -0.031756,-0.105112 c -0.035871,-0.05274 -0.057084,-0.108199 -0.080857,-0.164429 z m -0.079342,0.112374 -0.01439,0.06707 c 0.067742,0.116728 0.1215056,0.23607 0.2080511,0.339542 -0.062243,-0.144239 -0.108493,-0.211294 -0.1935995,-0.406593 z" />
  <path
     id="rect1571"
     style="fill:url(#linearGradient2098);fill-opacity:1;stroke-width:0.237575"
     d="M 15,8.0000011 19,7.0000013 V 21 l -4,1 z"
     sodipodi:nodetypes="ccccc" />
  <path
     id="rect4424"
     style="fill:url(#linearGradient2080);fill-opacity:1;stroke-width:0.27586"
     d="m 19,7.0000001 h 3 l -3,1 -4,1e-6 z"
     sodipodi:nodetypes="ccccc" />
  <path
     id="rect4774"
     style="fill:url(#linearGradient2078);fill-opacity:1;stroke-width:0.248092"
     d="m 11,2 10,3.0000013 -2,1.9999988 -10,-3 z"
     sodipodi:nodetypes="ccccc" />
</svg>
