<?xml version="1.0" encoding="UTF-8" standalone="no"?>
<!-- Created with Inkscape (http://www.inkscape.org/) -->

<svg
   width="24"
   height="24"
   viewBox="0 0 24 24.000001"
   version="1.1"
   id="svg5"
   inkscape:version="1.2.1 (9c6d41e410, 2022-07-14, custom)"
   sodipodi:docname="application-vnd.oasis.opendocument.formula-template.svg"
   xmlns:inkscape="http://www.inkscape.org/namespaces/inkscape"
   xmlns:sodipodi="http://sodipodi.sourceforge.net/DTD/sodipodi-0.dtd"
   xmlns="http://www.w3.org/2000/svg"
   xmlns:svg="http://www.w3.org/2000/svg">
  <sodipodi:namedview
     id="namedview7"
     pagecolor="#ffffff"
     bordercolor="#000000"
     borderopacity="0.25"
     inkscape:showpageshadow="2"
     inkscape:pageopacity="0.0"
     inkscape:pagecheckerboard="0"
     inkscape:deskcolor="#d1d1d1"
     inkscape:document-units="px"
     showgrid="false"
     inkscape:zoom="33.666667"
     inkscape:cx="12"
     inkscape:cy="12"
     inkscape:window-width="1920"
     inkscape:window-height="1010"
     inkscape:window-x="0"
     inkscape:window-y="0"
     inkscape:window-maximized="1"
     inkscape:current-layer="svg5" />
  <defs
     id="defs2" />
  <path
     id="rect846"
     style="fill:#7d7d7b;stroke-width:0.999999;stroke-linecap:round;stroke-linejoin:round"
     d="m 3,1 17.999997,0.9999994 4e-6,20.9999996 H 5.0000002 v -2 H 3 Z"
     sodipodi:nodetypes="ccccccc" />
  <path
     id="rect1454"
     style="fill:#fafafa;stroke-width:0.999999;stroke-linecap:round;stroke-linejoin:round"
     d="M 3.9999997,2.0000002 V 20 H 18 V 2.0000002 Z M 19,2.0000002 V 21 H 18 5.9999997 v 1 H 20 V 2.0000002 Z"
     sodipodi:nodetypes="ccccccccccccc" />
  <path
     id="rect844"
     style="fill:#808080;stroke-width:1.99999;stroke-linecap:round;stroke-linejoin:round"
     d="M 9.5,8 7.6245,16 5.75,13.5 5,14 7.9995,18 10.226562,9 H 17 V 8 h -6.5 z m 1.5,3 2,3 -2,3 h 1 L 13.5,14.75 15,17 h 1 l -2,-3 2,-3 H 15 L 13.5,13.25 12,11 Z"
     sodipodi:nodetypes="ccccccccccccccccccccccc" />
  <rect
     style="fill:#999999;fill-opacity:1;stroke-width:0.966987;stroke-linecap:round;stroke-linejoin:round"
     id="rect6964"
     width="16"
     height="4"
     x="3"
     y="1.0000002" />
  <path
     id="rect13579"
     style="fill:#666666;fill-opacity:1;stroke-width:1.41009;stroke-linecap:round;stroke-linejoin:round"
     d="m 19,1 v 0.9999999 l 2,1.0000003 V 1.9999998 Z M 3.0000005,4 V 5 H 19 V 4 Z"
     sodipodi:nodetypes="cccccccccc" />
</svg>
