<?xml version="1.0" encoding="UTF-8" standalone="no"?>
<!-- Created with Inkscape (http://www.inkscape.org/) -->

<svg
   width="24"
   height="24"
   viewBox="0 0 24 24"
   version="1.1"
   id="svg5"
   inkscape:version="1.2.1 (9c6d41e410, 2022-07-14, custom)"
   sodipodi:docname="rpm.svg"
   xmlns:inkscape="http://www.inkscape.org/namespaces/inkscape"
   xmlns:sodipodi="http://sodipodi.sourceforge.net/DTD/sodipodi-0.dtd"
   xmlns:xlink="http://www.w3.org/1999/xlink"
   xmlns="http://www.w3.org/2000/svg"
   xmlns:svg="http://www.w3.org/2000/svg">
  <sodipodi:namedview
     id="namedview7"
     pagecolor="#ffffff"
     bordercolor="#000000"
     borderopacity="0.25"
     inkscape:showpageshadow="2"
     inkscape:pageopacity="0.0"
     inkscape:pagecheckerboard="0"
     inkscape:deskcolor="#d1d1d1"
     inkscape:document-units="px"
     showgrid="false"
     inkscape:zoom="33.666667"
     inkscape:cx="12"
     inkscape:cy="12"
     inkscape:window-width="1920"
     inkscape:window-height="1010"
     inkscape:window-x="0"
     inkscape:window-y="0"
     inkscape:window-maximized="1"
     inkscape:current-layer="svg5"
     showguides="false" />
  <defs
     id="defs2">
    <linearGradient
       inkscape:collect="always"
       xlink:href="#linearGradient10541"
       id="linearGradient18985"
       x1="5"
       y1="1"
       x2="3"
       y2="3"
       gradientUnits="userSpaceOnUse"
       gradientTransform="translate(2,2)" />
    <linearGradient
       inkscape:collect="always"
       id="linearGradient10541">
      <stop
         style="stop-color:#f1764d;stop-opacity:1"
         offset="0"
         id="stop10537" />
      <stop
         style="stop-color:#f56652;stop-opacity:1"
         offset="1"
         id="stop10539" />
    </linearGradient>
    <linearGradient
       inkscape:collect="always"
       xlink:href="#linearGradient10535"
       id="linearGradient21961"
       x1="3"
       y1="3"
       x2="7"
       y2="5.0000014"
       gradientUnits="userSpaceOnUse"
       gradientTransform="translate(2,2)" />
    <linearGradient
       inkscape:collect="always"
       id="linearGradient10535">
      <stop
         style="stop-color:#a2362a;stop-opacity:1"
         offset="0"
         id="stop10531" />
      <stop
         style="stop-color:#7a2826;stop-opacity:1"
         offset="1"
         id="stop10533" />
    </linearGradient>
    <linearGradient
       inkscape:collect="always"
       xlink:href="#linearGradient10535"
       id="linearGradient21953"
       x1="17"
       y1="5.0000014"
       x2="17"
       y2="19"
       gradientUnits="userSpaceOnUse"
       gradientTransform="translate(2,2)" />
    <linearGradient
       inkscape:collect="always"
       xlink:href="#linearGradient56461"
       id="linearGradient23477"
       x1="3"
       y1="3"
       x2="13"
       y2="20"
       gradientUnits="userSpaceOnUse"
       gradientTransform="translate(2,2)" />
    <linearGradient
       inkscape:collect="always"
       id="linearGradient56461">
      <stop
         style="stop-color:#ff6843;stop-opacity:1"
         offset="0"
         id="stop56457-9" />
      <stop
         style="stop-color:#d3322b;stop-opacity:1"
         offset="1"
         id="stop56459-1" />
    </linearGradient>
    <linearGradient
       inkscape:collect="always"
       xlink:href="#linearGradient70845"
       id="linearGradient15644"
       x1="11"
       y1="1"
       x2="15"
       y2="13.999999"
       gradientUnits="userSpaceOnUse"
       gradientTransform="translate(4,7.000001)" />
    <linearGradient
       inkscape:collect="always"
       id="linearGradient70845">
      <stop
         style="stop-color:#cd4e41;stop-opacity:1"
         offset="0"
         id="stop70841-7" />
      <stop
         style="stop-color:#a72d0e;stop-opacity:1"
         offset="1"
         id="stop70843-0" />
    </linearGradient>
    <linearGradient
       inkscape:collect="always"
       xlink:href="#linearGradient10541"
       id="linearGradient18975"
       x1="20"
       y1="5"
       x2="13"
       y2="6.000001"
       gradientUnits="userSpaceOnUse"
       gradientTransform="translate(2,2)" />
    <linearGradient
       inkscape:collect="always"
       xlink:href="#linearGradient10541"
       id="linearGradient18983"
       x1="9"
       y1="0"
       x2="17"
       y2="5.0000014"
       gradientUnits="userSpaceOnUse"
       gradientTransform="translate(2,2)" />
  </defs>
  <path
     id="rect3961"
     style="fill:url(#linearGradient18985);fill-opacity:1;stroke-width:0.27586"
     d="M 3,4 7,3 9,4 7.0000001,7 5,5 Z"
     sodipodi:nodetypes="cccccc" />
  <path
     id="rect2034"
     style="fill:url(#linearGradient21961);fill-opacity:1;stroke-width:0.27586"
     d="M 5,5 9,4 v 14 l -4,1 z"
     sodipodi:nodetypes="ccccc" />
  <path
     id="rect2627"
     style="fill:url(#linearGradient21953);fill-opacity:1;stroke-width:0.27586"
     d="M 9,4 19,7.0000013 V 21 L 9,17.999999 Z"
     sodipodi:nodetypes="ccccc" />
  <path
     id="rect45418"
     style="fill:url(#linearGradient23477);fill-opacity:1;stroke-width:0.190529"
     d="M 5,5 15,8.000001 17,9 15,22 5,19 Z"
     sodipodi:nodetypes="cccccc" />
  <path
     id="path7481"
     style="opacity:0.6;fill:#ffffff;fill-opacity:1;stroke-width:0.428568;stroke-linecap:round;stroke-linejoin:round"
     d="M 6.625,14 C 5.9933272,14.0014 5.4364398,14.185551 5,14.521484 v 0.875001 c 0.6071549,-0.424377 1.5527435,-0.656472 3,-0.138672 0.2932917,0.106752 0.5777814,0.25371 0.8457031,0.429687 L 9.6230469,15.191407 C 9.1273004,14.790794 8.5774054,14.467972 8,14.257813 7.5167518,14.081925 7.0538513,13.999066 6.625,14 Z m 4.017578,1.957032 -2.3183592,1.474609 C 8.2199129,17.357631 8.1103589,17.298246 8,17.257812 7.4474465,17.0567 6.9996192,17.341842 7,17.894531 c 3.806e-4,0.552154 0.4479849,1.162365 1,1.363281 0.5521714,0.200974 0.999841,-0.08265 1,-0.634765 -2.05e-4,-0.06337 -0.00737,-0.128771 -0.019531,-0.195313 l 2.36914,-1.505859 z m 1.066406,2.15039 -0.792968,0.503906 C 10.970936,18.85832 11,19.105732 11,19.349609 l 1,0.365235 c 0,-0.530838 -0.103253,-1.075589 -0.291016,-1.607422 z" />
  <path
     id="rect1571"
     style="fill:url(#linearGradient15644);fill-opacity:1;stroke-width:0.237575"
     d="M 15,8.000001 19,7.0000013 V 21 l -4,1 z"
     sodipodi:nodetypes="ccccc" />
  <path
     id="rect4424"
     style="fill:url(#linearGradient18975);fill-opacity:1;stroke-width:0.27586"
     d="m 19,7 h 3 l -3,1 -4,10e-7 z"
     sodipodi:nodetypes="ccccc" />
  <path
     id="rect4774"
     style="fill:url(#linearGradient18983);fill-opacity:1;stroke-width:0.248092"
     d="m 11,2 10,3.0000013 -2,2 L 9,4 Z"
     sodipodi:nodetypes="ccccc" />
</svg>
