<?xml version="1.0" encoding="UTF-8" standalone="no"?>
<!-- Created with Inkscape (http://www.inkscape.org/) -->

<svg
   width="24"
   height="24"
   viewBox="0 0 24 24.000001"
   version="1.1"
   id="svg5"
   inkscape:version="1.2.1 (9c6d41e410, 2022-07-14, custom)"
   sodipodi:docname="x-office-presentation-template.svg"
   xmlns:inkscape="http://www.inkscape.org/namespaces/inkscape"
   xmlns:sodipodi="http://sodipodi.sourceforge.net/DTD/sodipodi-0.dtd"
   xmlns="http://www.w3.org/2000/svg"
   xmlns:svg="http://www.w3.org/2000/svg">
  <sodipodi:namedview
     id="namedview7"
     pagecolor="#ffffff"
     bordercolor="#000000"
     borderopacity="0.25"
     inkscape:showpageshadow="2"
     inkscape:pageopacity="0.0"
     inkscape:pagecheckerboard="0"
     inkscape:deskcolor="#d1d1d1"
     inkscape:document-units="px"
     showgrid="false"
     inkscape:zoom="35.541667"
     inkscape:cx="12"
     inkscape:cy="12"
     inkscape:window-width="1920"
     inkscape:window-height="1029"
     inkscape:window-x="0"
     inkscape:window-y="0"
     inkscape:window-maximized="1"
     inkscape:current-layer="svg5" />
  <defs
     id="defs2" />
  <path
     id="rect846"
     style="fill:#7d7d7b;stroke-width:0.999999;stroke-linecap:round;stroke-linejoin:round"
     d="m 3,1 17.999997,0.9999994 4e-6,20.9999996 H 5 v -2 H 3 Z"
     sodipodi:nodetypes="ccccccc" />
  <path
     id="rect1454"
     style="fill:#fafafa;stroke-width:0.999999;stroke-linecap:round;stroke-linejoin:round"
     d="M 4,2.0000002 V 20 H 18 V 2.0000002 Z m 15,0 V 21 H 18 6 v 1 H 20 V 2.0000002 Z"
     sodipodi:nodetypes="ccccccccccccc" />
  <path
     id="path844"
     style="fill:#c0c5cb;fill-opacity:1;stroke-width:2;stroke-linejoin:round"
     d="m 11,7 c -2.209132,0 -4,1.7908674 -4,4 0,2.209132 1.790868,4 4,4 2.209133,0 4,-1.790868 4,-4 h -4 z m -5,9 v 1 h 10 v -1 z m 0,2 v 1 h 10 v -1 z" />
  <path
     id="path1336"
     style="fill:#e8ab72;fill-opacity:1;stroke-width:1.14286;stroke-linejoin:round"
     d="m 12,6 v 4.000001 h 4 A 3.9999999,3.9999999 0 0 0 12,6 Z" />
  <rect
     style="fill:#e8ab72;fill-opacity:1;stroke-width:0.966988;stroke-linecap:round;stroke-linejoin:round"
     id="rect6964"
     width="16"
     height="4"
     x="3"
     y="1.0000002" />
  <path
     id="rect13579"
     style="fill:#e6821d;fill-opacity:1;stroke-width:1.41009;stroke-linecap:round;stroke-linejoin:round"
     d="m 19,1 v 0.9999999 l 2,1.0000003 V 1.9999998 Z M 3,4 V 5 H 19 V 4 Z"
     sodipodi:nodetypes="cccccccccc" />
</svg>
