<?xml version="1.0" encoding="UTF-8" standalone="no"?>
<!-- Created with Inkscape (http://www.inkscape.org/) -->

<svg
   width="24"
   height="24"
   viewBox="0 0 24 24.000001"
   version="1.1"
   id="svg5"
   inkscape:version="1.2.1 (9c6d41e410, 2022-07-14, custom)"
   sodipodi:docname="x-office-spreadsheet.svg"
   xmlns:inkscape="http://www.inkscape.org/namespaces/inkscape"
   xmlns:sodipodi="http://sodipodi.sourceforge.net/DTD/sodipodi-0.dtd"
   xmlns="http://www.w3.org/2000/svg"
   xmlns:svg="http://www.w3.org/2000/svg">
  <sodipodi:namedview
     id="namedview7"
     pagecolor="#ffffff"
     bordercolor="#000000"
     borderopacity="0.25"
     inkscape:showpageshadow="2"
     inkscape:pageopacity="0.0"
     inkscape:pagecheckerboard="0"
     inkscape:deskcolor="#d1d1d1"
     inkscape:document-units="px"
     showgrid="false"
     inkscape:zoom="35.541667"
     inkscape:cx="12"
     inkscape:cy="12"
     inkscape:window-width="1920"
     inkscape:window-height="1029"
     inkscape:window-x="0"
     inkscape:window-y="0"
     inkscape:window-maximized="1"
     inkscape:current-layer="svg5" />
  <defs
     id="defs2" />
  <path
     id="rect234"
     style="fill:#7d7d7b"
     d="M 4,1 H 16.5 L 20,4.5 V 23 H 4 Z"
     sodipodi:nodetypes="cccccc" />
  <path
     id="rect1746"
     style="fill:#fafafa"
     d="m 5,2 h 10 v 4 h 4 V 22 H 5 Z"
     sodipodi:nodetypes="ccccccc" />
  <path
     id="rect1800"
     style="fill:#fafafa;stroke-width:0.75"
     d="m 16,2 3,3.0000008 h -3 z"
     sodipodi:nodetypes="cccc" />
  <path
     id="rect7746"
     style="fill:#c0c5cb;fill-opacity:1;stroke-width:0.816497;stroke-linecap:round"
     d="m 7,6 v 2.000001 h 3 V 6 Z m 4,0 v 2.000001 h 3 V 6 Z M 7,9.000001 v 2.000001 h 3 V 9.000001 Z M 7,18 v 2 h 3 v -2 z"
     sodipodi:nodetypes="cccccccccccccccccccc" />
  <path
     id="rect7837"
     style="fill:#67c451;fill-opacity:1;stroke-linecap:round"
     d="M 11,9.0000005 V 11 h 3 V 9.0000005 Z m 4,0 V 11 h 3 V 9.0000005 Z M 7,12 v 2 h 3 v -2 z m 4,0 v 2 h 3 v -2 z m 4,0 v 2 h 3 v -2 z m -8,3 v 2 h 3 v -2 z m 4,0 v 2 h 3 v -2 z m 4,0 v 2 h 3 v -2 z m -4,3 v 2 h 3 v -2 z m 4,0 v 2 h 3 v -2 z" />
</svg>
