<?xml version="1.0" encoding="UTF-8" standalone="no"?>
<!-- Created with Inkscape (http://www.inkscape.org/) -->

<svg
   width="24"
   height="24"
   viewBox="0 0 24 24.000001"
   version="1.1"
   id="svg5"
   inkscape:version="1.2.1 (9c6d41e410, 2022-07-14, custom)"
   sodipodi:docname="x-office-presentation.svg"
   xmlns:inkscape="http://www.inkscape.org/namespaces/inkscape"
   xmlns:sodipodi="http://sodipodi.sourceforge.net/DTD/sodipodi-0.dtd"
   xmlns="http://www.w3.org/2000/svg"
   xmlns:svg="http://www.w3.org/2000/svg">
  <sodipodi:namedview
     id="namedview7"
     pagecolor="#ffffff"
     bordercolor="#000000"
     borderopacity="0.25"
     inkscape:showpageshadow="2"
     inkscape:pageopacity="0.0"
     inkscape:pagecheckerboard="0"
     inkscape:deskcolor="#d1d1d1"
     inkscape:document-units="px"
     showgrid="false"
     inkscape:zoom="34.458333"
     inkscape:cx="12"
     inkscape:cy="12"
     inkscape:window-width="1920"
     inkscape:window-height="1029"
     inkscape:window-x="0"
     inkscape:window-y="0"
     inkscape:window-maximized="1"
     inkscape:current-layer="svg5" />
  <defs
     id="defs2" />
  <path
     id="rect234"
     style="fill:#7d7d7b"
     d="M 4,1 H 16.5 L 20,4.5 V 23 H 4 Z"
     sodipodi:nodetypes="cccccc" />
  <path
     id="rect1746"
     style="fill:#fafafa"
     d="m 5,2 h 10 v 4 h 4 V 22 H 5 Z"
     sodipodi:nodetypes="ccccccc" />
  <path
     id="path844"
     style="fill:#c0c5cb;fill-opacity:1;stroke-width:2;stroke-linejoin:round"
     d="m 12,8 c -2.2091323,0 -4,1.7908674 -4,4 0,2.209132 1.7908677,4 4,4 2.209133,0 4,-1.790868 4,-4 h -4 z m -5,9 v 1 h 10 v -1 z m 0,2 v 1 h 10 v -1 z" />
  <path
     id="path1336"
     style="fill:#e8ab72;fill-opacity:1;stroke-width:1.14286;stroke-linejoin:round"
     d="m 13,7 v 4.000001 h 4 A 3.9999999,3.9999999 0 0 0 13,7 Z" />
  <path
     id="rect1800"
     style="fill:#fafafa"
     d="m 16,2 2.999999,3 H 16 Z"
     sodipodi:nodetypes="cccc" />
</svg>
