<?xml version="1.0" encoding="UTF-8" standalone="no"?>
<!-- Created with Inkscape (http://www.inkscape.org/) -->

<svg
   width="24"
   height="24"
   viewBox="0 0 24 24.000001"
   version="1.1"
   id="svg5"
   inkscape:version="1.2.1 (9c6d41e410, 2022-07-14, custom)"
   sodipodi:docname="x-office-document-template.svg"
   xmlns:inkscape="http://www.inkscape.org/namespaces/inkscape"
   xmlns:sodipodi="http://sodipodi.sourceforge.net/DTD/sodipodi-0.dtd"
   xmlns="http://www.w3.org/2000/svg"
   xmlns:svg="http://www.w3.org/2000/svg">
  <sodipodi:namedview
     id="namedview7"
     pagecolor="#ffffff"
     bordercolor="#000000"
     borderopacity="0.25"
     inkscape:showpageshadow="2"
     inkscape:pageopacity="0.0"
     inkscape:pagecheckerboard="0"
     inkscape:deskcolor="#d1d1d1"
     inkscape:document-units="px"
     showgrid="false"
     inkscape:zoom="35.541667"
     inkscape:cx="12"
     inkscape:cy="12"
     inkscape:window-width="1920"
     inkscape:window-height="1029"
     inkscape:window-x="0"
     inkscape:window-y="0"
     inkscape:window-maximized="1"
     inkscape:current-layer="svg5" />
  <defs
     id="defs2" />
  <path
     id="rect846"
     style="fill:#7d7d7b;stroke-width:0.999999;stroke-linecap:round;stroke-linejoin:round"
     d="m 3,1 17.999997,0.9999994 4e-6,20.9999996 H 5.0000002 v -2 H 3 Z"
     sodipodi:nodetypes="ccccccc" />
  <path
     id="rect1454"
     style="fill:#fafafa;stroke-width:0.999999;stroke-linecap:round;stroke-linejoin:round"
     d="M 3.9999997,2.0000002 V 20 H 18 V 2.0000002 Z M 19,2.0000002 V 21 H 18 5.9999997 v 1 H 20 V 2.0000002 Z"
     sodipodi:nodetypes="ccccccccccccc" />
  <path
     id="path884"
     style="fill:#c0c5cb;fill-opacity:1;stroke-width:3;stroke-linecap:round;stroke-linejoin:round"
     d="m 6,15 v 1 h 5 v -1 z m 7,0 c -0.553999,0 -1,0.446001 -1,1 v 1 c 0,0.553999 0.446001,1 1,1 h 2 c 0.553999,0 1,-0.446001 1,-1 v -1 c 0,-0.553999 -0.446001,-1 -1,-1 z m -7,2 v 1 h 5 v -1 z"
     sodipodi:nodetypes="cccccsssssssssccccc" />
  <rect
     style="fill:#88c0f0;fill-opacity:1;stroke-width:0.408247;stroke-linecap:round"
     id="rect10149"
     width="2"
     height="1"
     x="13"
     y="16" />
  <path
     id="path4039"
     style="font-size:10.5833px;line-height:1.25;font-family:'Noto Sans CJK KR';-inkscape-font-specification:'Noto Sans CJK KR';fill:#2784bd;fill-opacity:1;stroke-width:0.168819"
     d="m 6,13 v 1 h 10 v -1 z"
     sodipodi:nodetypes="ccccc" />
  <path
     id="rect1374"
     style="fill:#69b0ec;fill-opacity:1;stroke-width:3;stroke-linecap:round;stroke-linejoin:round"
     d="m 12,9.000001 v 1 h 4 v -1 z m 0,2 V 12 h 4 v -0.999999 z"
     sodipodi:nodetypes="cccccccccc" />
  <path
     id="path4039-3"
     style="font-size:10.5833px;line-height:1.25;font-family:'Noto Sans CJK KR';-inkscape-font-specification:'Noto Sans CJK KR';fill:#2784bd;fill-opacity:1;stroke-width:0.108972"
     d="M 8,7 6,12 H 7 L 7.4003906,11 H 9.5996094 L 10,12 h 1 L 9,7 Z M 8.5,8.25 9.1992188,10 H 7.8007812 Z"
     sodipodi:nodetypes="ccccccccccccc" />
  <rect
     style="fill:#69b0ec;fill-opacity:1;stroke-width:0.966987;stroke-linecap:round;stroke-linejoin:round"
     id="rect6964"
     width="16"
     height="4"
     x="3"
     y="1.0000002" />
  <path
     id="rect13579"
     style="fill:#2784bd;fill-opacity:1;stroke-width:1.41009;stroke-linecap:round;stroke-linejoin:round"
     d="m 19,1 v 0.9999999 l 2,1.0000003 V 1.9999998 Z M 3.0000005,4 V 5 H 19 V 4 Z"
     sodipodi:nodetypes="cccccccccc" />
</svg>
