<?xml version="1.0" encoding="UTF-8" standalone="no"?>
<!-- Created with Inkscape (http://www.inkscape.org/) -->

<svg
   width="24"
   height="24"
   viewBox="0 0 24 24"
   version="1.1"
   id="svg5"
   inkscape:version="1.2.1 (9c6d41e410, 2022-07-14, custom)"
   sodipodi:docname="vcs-normal.svg"
   xmlns:inkscape="http://www.inkscape.org/namespaces/inkscape"
   xmlns:sodipodi="http://sodipodi.sourceforge.net/DTD/sodipodi-0.dtd"
   xmlns:xlink="http://www.w3.org/1999/xlink"
   xmlns="http://www.w3.org/2000/svg"
   xmlns:svg="http://www.w3.org/2000/svg">
  <sodipodi:namedview
     id="namedview7"
     pagecolor="#ffffff"
     bordercolor="#666666"
     borderopacity="1.0"
     inkscape:pageshadow="2"
     inkscape:pageopacity="0.0"
     inkscape:pagecheckerboard="0"
     inkscape:document-units="px"
     showgrid="false"
     units="px"
     height="64px"
     inkscape:zoom="33.708333"
     inkscape:cx="11.985167"
     inkscape:cy="12"
     inkscape:window-width="1920"
     inkscape:window-height="1012"
     inkscape:window-x="0"
     inkscape:window-y="0"
     inkscape:window-maximized="1"
     inkscape:current-layer="svg5"
     inkscape:showpageshadow="2"
     inkscape:deskcolor="#d1d1d1"
     showguides="false" />
  <defs
     id="defs2">
    <linearGradient
       inkscape:collect="always"
       xlink:href="#linearGradient6911"
       id="linearGradient59378"
       x1="35.875587"
       y1="-37.89032"
       x2="55.549019"
       y2="-19.004301"
       gradientUnits="userSpaceOnUse"
       gradientTransform="matrix(0.68574656,0,0,0.68777918,-19.398742,31.663252)" />
    <linearGradient
       inkscape:collect="always"
       id="linearGradient6911">
      <stop
         style="stop-color:#50b10e;stop-opacity:1;"
         offset="0"
         id="stop6907" />
      <stop
         style="stop-color:#18840f;stop-opacity:1"
         offset="1"
         id="stop6909" />
    </linearGradient>
  </defs>
  <circle
     style="fill:url(#linearGradient59378);fill-opacity:1;stroke-width:0.545118;stroke-linecap:round;stroke-linejoin:round"
     id="path55509"
     cx="12"
     cy="12"
     r="10" />
  <path
     id="path69248"
     style="opacity:0.2;fill:#000000;fill-opacity:0.996078;stroke-width:1.14249;stroke-linecap:round;stroke-linejoin:round"
     d="M 12,2 C 6.4771685,2 2,6.4771705 2,12 2,17.52283 6.4771685,22 12,22 17.52283,22 22,17.52283 22,12 22,6.4771705 17.52283,2 12,2 Z m 0,1 c 4.970552,0 9,4.0294474 9,9 0,4.970552 -4.029448,9 -9,9 C 7.0294453,21 3,16.970552 3,12 3,7.0294474 7.0294453,3 12,3 Z" />
  <path
     id="rect809"
     style="fill:#ffffff;stroke-linecap:round;stroke-linejoin:round"
     d="m 6.7578025,11.17123 c -0.3917367,0.391736 -0.3917367,1.022477 0,1.414213 l 3.5355335,3.535534 c 0.391737,0.391737 1.022478,0.391737 1.414214,0 l 6.36396,-6.363961 c 0.391737,-0.391736 0.391737,-1.0224773 0,-1.4142133 -0.391736,-0.391737 -1.022477,-0.391737 -1.414213,0 L 11.000443,13.999657 8.1720159,11.17123 c -0.3917363,-0.391737 -1.0224772,-0.391737 -1.4142134,0 z"
     sodipodi:nodetypes="ssssssscss" />
</svg>
