<?xml version="1.0" encoding="UTF-8" standalone="no"?>
<!-- Created with Inkscape (http://www.inkscape.org/) -->

<svg
   width="22"
   height="22"
   viewBox="0 0 22 22"
   version="1.1"
   id="svg5"
   inkscape:version="1.2.1 (9c6d41e410, 2022-07-14, custom)"
   sodipodi:docname="folder-documents.svg"
   xmlns:inkscape="http://www.inkscape.org/namespaces/inkscape"
   xmlns:sodipodi="http://sodipodi.sourceforge.net/DTD/sodipodi-0.dtd"
   xmlns:xlink="http://www.w3.org/1999/xlink"
   xmlns="http://www.w3.org/2000/svg"
   xmlns:svg="http://www.w3.org/2000/svg">
  <sodipodi:namedview
     id="namedview7"
     pagecolor="#ffffff"
     bordercolor="#666666"
     borderopacity="1.0"
     inkscape:pageshadow="2"
     inkscape:pageopacity="0.0"
     inkscape:pagecheckerboard="0"
     inkscape:document-units="px"
     showgrid="false"
     units="px"
     height="64px"
     inkscape:zoom="36.727273"
     inkscape:cx="11"
     inkscape:cy="11"
     inkscape:window-width="1920"
     inkscape:window-height="1010"
     inkscape:window-x="0"
     inkscape:window-y="0"
     inkscape:window-maximized="1"
     inkscape:current-layer="svg5"
     showguides="false"
     inkscape:showpageshadow="2"
     inkscape:deskcolor="#d1d1d1" />
  <defs
     id="defs2">
    <linearGradient
       inkscape:collect="always"
       id="linearGradient1290">
      <stop
         style="stop-color:#b3c4d5;stop-opacity:1;"
         offset="0"
         id="stop1286" />
      <stop
         style="stop-color:#6986a3;stop-opacity:1"
         offset="1"
         id="stop1288" />
    </linearGradient>
    <linearGradient
       inkscape:collect="always"
       xlink:href="#linearGradient1290"
       id="linearGradient2984"
       x1="0.52916658"
       y1="-7.8427888e-08"
       x2="3.3404446"
       y2="3.8004949"
       gradientUnits="userSpaceOnUse"
       gradientTransform="matrix(5.0393696,0,0,4.7244091,0.33333333,1)" />
  </defs>
  <rect
     style="fill:url(#linearGradient2984);fill-opacity:1;stroke-width:1.29099"
     id="rect924"
     width="16"
     height="20"
     x="3"
     y="1"
     ry="1" />
  <path
     d="m 5.7109377,5.500287 c -0.3973716,0.020031 -0.7109374,0.347486 -0.7109374,0.75 0,0.4155001 0.3344995,0.75 0.75,0.75 H 9.7499999 C 10.1655,7.000287 10.5,6.6657874 10.5,6.250287 c 0,-0.4155001 -0.334499,-0.75 -0.7500001,-0.75 H 5.7500003 c -0.013002,0 -0.02623,-6.456e-4 -0.039063,0 z m 7.2890623,0 c -0.554,0 -1,0.4459997 -1,0.9999998 v 3.0000001 c 0,0.5540001 0.446,1.0000001 1,1.0000001 h 3 c 0.554,0 1,-0.446 1,-1.0000001 V 6.5002868 C 17,5.9462867 16.554,5.500287 16,5.500287 Z M 5.7109377,9.0002869 c -0.3973716,0.02003 -0.7109374,0.347486 -0.7109374,0.75 0,0.4155001 0.3344995,0.7500001 0.75,0.7500001 H 9.7499999 C 10.1655,10.500287 10.5,10.165787 10.5,9.7502869 c 0,-0.4155 -0.334499,-0.75 -0.7500001,-0.75 H 5.7500003 c -0.013002,0 -0.02623,-6.45e-4 -0.039063,0 z m 0,3.5000001 c -0.3973716,0.02003 -0.7109374,0.347482 -0.7109374,0.75 0,0.4155 0.3344995,0.75 0.75,0.75 H 16.25 c 0.4155,0 0.75,-0.334499 0.75,-0.75 0,-0.4155 -0.334499,-0.75 -0.75,-0.75 H 5.7500003 c -0.013002,0 -0.02623,-6.46e-4 -0.039063,0 z m 0,3.5 c -0.3973716,0.02003 -0.7109374,0.347482 -0.7109374,0.75 0,0.4155 0.3344995,0.75 0.75,0.75 H 16.25 c 0.4155,0 0.75,-0.3345 0.75,-0.75 0,-0.4155 -0.334499,-0.75 -0.75,-0.75 H 5.7500003 c -0.013002,0 -0.02623,-6.46e-4 -0.039063,0 z"
     style="opacity:0.2;fill:#000000;fill-opacity:1;stroke-width:11.3386;stroke-linecap:round;stroke-linejoin:round"
     id="path3667" />
  <path
     id="rect1641"
     style="fill:#ffffff;fill-opacity:1;stroke-width:3;stroke-linecap:round;stroke-linejoin:round"
     d="M 5.7109375,5.0002869 C 5.313566,5.0202999 5,5.3477713 5,5.7502869 c 0,0.4155 0.3345,0.75 0.75,0.75 h 3.9999999 c 0.4155001,0 0.7500001,-0.3345 0.7500001,-0.75 0,-0.4155 -0.3345,-0.75 -0.7500001,-0.75 H 5.75 c -0.012984,0 -0.026244,-6.456e-4 -0.039063,0 z m 7.2890625,0 c -0.554,0 -1,0.446 -1,1 v 3 c 0,0.554 0.446,1.0000001 1,1.0000001 h 3 c 0.554,0 1,-0.4460001 1,-1.0000001 v -3 c 0,-0.554 -0.446,-1 -1,-1 z M 5.7109375,8.500287 C 5.313566,8.5203 5,8.8477709 5,9.2502869 c 0,0.4155 0.3345,0.7500001 0.75,0.7500001 H 9.7499999 C 10.1655,10.000287 10.5,9.6657869 10.5,9.2502869 10.5,8.8347869 10.1655,8.500287 9.7499999,8.500287 H 5.75 c -0.012984,0 -0.026244,-6.457e-4 -0.039063,0 z m 0,3.5 C 5.313566,12.020297 5,12.347771 5,12.750287 c 0,0.4155 0.3345,0.75 0.75,0.75 h 10.5 c 0.4155,0 0.75,-0.3345 0.75,-0.75 0,-0.4155 -0.3345,-0.75 -0.75,-0.75 H 5.75 c -0.012984,0 -0.026244,-6.46e-4 -0.039063,0 z m 0,3.5 C 5.313566,15.520297 5,15.847771 5,16.250287 c 0,0.4155 0.3345,0.75 0.75,0.75 h 10.5 c 0.4155,0 0.75,-0.3345 0.75,-0.75 0,-0.4155 -0.3345,-0.75 -0.75,-0.75 H 5.75 c -0.012984,0 -0.026244,-6.46e-4 -0.039063,0 z"
     sodipodi:nodetypes="ssssssssssssssssssssssssscssssssccssssssc" />
</svg>
