<?xml version="1.0" encoding="UTF-8" standalone="no"?>
<!-- Created with Inkscape (http://www.inkscape.org/) -->

<svg
   width="22"
   height="22"
   viewBox="0 0 22 22"
   version="1.1"
   id="svg5"
   inkscape:version="1.2.1 (9c6d41e410, 2022-07-14, custom)"
   sodipodi:docname="folder-videos.svg"
   xmlns:inkscape="http://www.inkscape.org/namespaces/inkscape"
   xmlns:sodipodi="http://sodipodi.sourceforge.net/DTD/sodipodi-0.dtd"
   xmlns:xlink="http://www.w3.org/1999/xlink"
   xmlns="http://www.w3.org/2000/svg"
   xmlns:svg="http://www.w3.org/2000/svg">
  <sodipodi:namedview
     id="namedview7"
     pagecolor="#ffffff"
     bordercolor="#666666"
     borderopacity="1.0"
     inkscape:pageshadow="2"
     inkscape:pageopacity="0.0"
     inkscape:pagecheckerboard="0"
     inkscape:document-units="px"
     showgrid="false"
     units="px"
     height="64px"
     inkscape:zoom="36.727273"
     inkscape:cx="11"
     inkscape:cy="11"
     inkscape:window-width="1920"
     inkscape:window-height="1010"
     inkscape:window-x="0"
     inkscape:window-y="0"
     inkscape:window-maximized="1"
     inkscape:current-layer="svg5"
     inkscape:showpageshadow="2"
     inkscape:deskcolor="#d1d1d1" />
  <defs
     id="defs2">
    <linearGradient
       inkscape:collect="always"
       id="linearGradient1042">
      <stop
         style="stop-color:#b87bf7;stop-opacity:1;"
         offset="0"
         id="stop1038" />
      <stop
         style="stop-color:#8e4beb;stop-opacity:1"
         offset="1"
         id="stop1040" />
    </linearGradient>
    <linearGradient
       inkscape:collect="always"
       xlink:href="#linearGradient1042"
       id="linearGradient932"
       x1="0.5291667"
       y1="0"
       x2="3.7041667"
       y2="4.2333336"
       gradientUnits="userSpaceOnUse"
       gradientTransform="matrix(5.0393696,0,0,4.7244091,0.33333333,1)" />
  </defs>
  <rect
     style="opacity:1;fill:url(#linearGradient932);fill-opacity:1;stroke-width:1.29099"
     id="rect924"
     width="16"
     height="20"
     x="3"
     y="1"
     ry="1" />
  <path
     id="rect1512"
     style="fill:#5a428b;fill-opacity:1;stroke-width:3;stroke-linecap:round;stroke-linejoin:round"
     d="M 4,4 V 6.0000001 H 5.9999997 V 4 Z m 12,0 v 2.0000001 h 2 V 4 Z M 4,8.0000002 V 10 H 5.9999997 V 8.0000002 Z m 12,0 V 10 h 2 V 8.0000002 Z M 4,12 v 2 h 1.9999997 v -2 z m 12,0 v 2 h 2 V 12 Z M 4,16 v 2.000001 H 5.9999997 V 16 Z m 12,0 v 2.000001 h 2 V 16 Z" />
  <path
     style="color:#000000;fill:#ffffff;stroke:none;stroke-width:5.38122;stroke-linecap:round;stroke-linejoin:round"
     d="M 8.4414464,7.0569038 C 8.1767018,7.1656408 8.0028076,7.4223425 8.0000184,7.7085333 V 14.00304 c -0.00438,0.639246 0.7705938,0.95993 1.219178,0.504487 l 4.5712146,-3.147732 c 0.279451,-0.278276 0.279451,-0.730698 0,-1.008975 L 9.2191983,7.2040457 C 9.0136143,7.0021218 8.7065848,6.9440373 8.4414464,7.0569038 Z"
     id="path2850"
     sodipodi:nodetypes="cccccccc" />
</svg>
