<?xml version="1.0" encoding="UTF-8" standalone="no"?>
<!-- Created with Inkscape (http://www.inkscape.org/) -->

<svg
   width="22"
   height="22"
   viewBox="0 0 22 22"
   version="1.1"
   id="svg5"
   inkscape:version="1.2.1 (9c6d41e410, 2022-07-14, custom)"
   sodipodi:docname="folder-games.svg"
   xmlns:inkscape="http://www.inkscape.org/namespaces/inkscape"
   xmlns:sodipodi="http://sodipodi.sourceforge.net/DTD/sodipodi-0.dtd"
   xmlns:xlink="http://www.w3.org/1999/xlink"
   xmlns="http://www.w3.org/2000/svg"
   xmlns:svg="http://www.w3.org/2000/svg">
  <sodipodi:namedview
     id="namedview7"
     pagecolor="#ffffff"
     bordercolor="#666666"
     borderopacity="1.0"
     inkscape:pageshadow="2"
     inkscape:pageopacity="0.0"
     inkscape:pagecheckerboard="0"
     inkscape:document-units="px"
     showgrid="false"
     units="px"
     height="64px"
     inkscape:zoom="36.818182"
     inkscape:cx="10.98642"
     inkscape:cy="11"
     inkscape:window-width="1920"
     inkscape:window-height="1012"
     inkscape:window-x="0"
     inkscape:window-y="0"
     inkscape:window-maximized="1"
     inkscape:current-layer="svg5"
     inkscape:showpageshadow="2"
     inkscape:deskcolor="#d1d1d1" />
  <defs
     id="defs2">
    <linearGradient
       inkscape:collect="always"
       xlink:href="#linearGradient2290"
       id="linearGradient11974"
       x1="5.2916665"
       y1="5.5562496"
       x2="9.7049484"
       y2="10.200397"
       gradientUnits="userSpaceOnUse"
       gradientTransform="matrix(1.8897638,0,0,1.8897638,6.7e-7,-2.0000006)" />
    <linearGradient
       inkscape:collect="always"
       xlink:href="#linearGradient2474"
       id="linearGradient4407"
       x1="32"
       y1="10.5"
       x2="32"
       y2="18.5"
       gradientUnits="userSpaceOnUse"
       gradientTransform="matrix(0.50000004,0,0,0.50000004,6.7e-7,-2.5000007)" />
    <linearGradient
       inkscape:collect="always"
       xlink:href="#linearGradient2350"
       id="linearGradient1370"
       gradientUnits="userSpaceOnUse"
       gradientTransform="matrix(0.50000004,0,0,0.50000004,9e-7,-2.5000007)"
       x1="1.9999999"
       y1="27"
       x2="42.036999"
       y2="27.197477" />
    <linearGradient
       inkscape:collect="always"
       id="linearGradient2290">
      <stop
         style="stop-color:#fce798;stop-opacity:1;"
         offset="0"
         id="stop2286" />
      <stop
         style="stop-color:#ffc937;stop-opacity:1"
         offset="1"
         id="stop2288" />
    </linearGradient>
    <linearGradient
       inkscape:collect="always"
       id="linearGradient2474">
      <stop
         style="stop-color:#fcbc19;stop-opacity:1;"
         offset="0"
         id="stop2470" />
      <stop
         style="stop-color:#f4b61f;stop-opacity:1;"
         offset="1"
         id="stop2472" />
    </linearGradient>
    <linearGradient
       inkscape:collect="always"
       id="linearGradient2350">
      <stop
         style="stop-color:#ffffff;stop-opacity:1;"
         offset="0"
         id="stop2346" />
      <stop
         style="stop-color:#ffffff;stop-opacity:0;"
         offset="1"
         id="stop2348" />
    </linearGradient>
    <linearGradient
       inkscape:collect="always"
       xlink:href="#linearGradient2083"
       id="linearGradient3375"
       x1="8.4666662"
       y1="7.9375"
       x2="8.4666662"
       y2="12.170833"
       gradientUnits="userSpaceOnUse"
       gradientTransform="matrix(1.8897637,0,0,1.8897637,-4.9999994,-4.9999999)" />
    <linearGradient
       inkscape:collect="always"
       id="linearGradient2083">
      <stop
         style="stop-color:#bf910d;stop-opacity:1;"
         offset="0"
         id="stop2079" />
      <stop
         style="stop-color:#a87704;stop-opacity:1"
         offset="1"
         id="stop2081" />
    </linearGradient>
  </defs>
  <path
     id="rect846"
     style="fill:url(#linearGradient4407);fill-opacity:1.0;stroke-width:1;stroke-linecap:round;stroke-linejoin:round;stroke-dasharray:12, 1"
     d="M 2.5000001,2.0000001 C 1.7731731,2.0036466 1.0015558,2.6984193 1,3.5000002 V 17.999999 H 20.999999 V 6.0000002 C 20.999999,5.4459971 20.554,5 19.999999,5 H 10.500001 L 8.5000009,2.9999995 C 7.8173729,2.3318841 7.3310007,2 6.5000005,2 Z"
     sodipodi:nodetypes="ccccssccsc" />
  <path
     id="rect1170"
     style="fill:url(#linearGradient11974);fill-opacity:1.0;stroke-width:1.32288;stroke-linecap:round;stroke-linejoin:round;stroke-dasharray:15.8745, 1.32288"
     d="M 11.5,5.9999994 8.5000002,7.9999991 H 3.0000009 c -1.1080003,0 -2.0000002,0.8920002 -2.0000002,2.0000004 V 19 c 0,0.554003 0.4460001,1 1,1 H 19.999999 c 0.554004,0 1,-0.445999 1,-1 V 6.9999996 c 0,-0.5540031 -0.445999,-1.0000002 -1,-1.0000002 z"
     sodipodi:nodetypes="ccsccccccsc" />
  <path
     d="M 1,17.999999 V 19 c 0,0.554003 0.4459994,1 1.0000002,1 H 19.999999 c 0.554003,0 1,-0.445999 1,-1 v -1.000001 c 0,0.553996 -0.445999,1.000001 -1,1.000001 H 2.0000002 C 1.4459971,19 1,18.554 1,17.999999 Z"
     style="fill:#e4a729;fill-opacity:1;stroke-width:1.32288;stroke-linecap:round;stroke-linejoin:round;stroke-dasharray:15.8745, 1.32288"
     id="path1381" />
  <path
     d="M 11.5,5.9999994 8.5000002,7.9999995 H 3.0000007 c -1.1079999,0 -1.9999998,0.8920002 -1.9999998,2.0000004 V 11 c 0,-1.1080001 0.8939119,-1.9349365 1.9999998,-2.0000003 H 8.5000002 L 11.5,6.9999996 H 20 c 0.554003,0 1,0.4459998 1,0.9999999 V 6.9999989 C 21,6.4459957 20.554001,5.9999994 20,5.9999994 Z"
     style="opacity:0.3;fill:url(#linearGradient1370);fill-opacity:1.0;stroke-width:1.32288;stroke-linecap:round;stroke-linejoin:round;stroke-dasharray:15.8745, 1.32288"
     id="path1296" />
  <path
     id="rect434"
     style="fill:url(#linearGradient3375);fill-opacity:1;stroke-width:1;stroke-linecap:round;stroke-linejoin:round"
     d="m 8.0000001,10 c -2.215995,0 -4,1.784003 -4,4 0,2.215995 1.784005,4 4,4 H 14 c 2.215997,0 4,-1.784005 4,-4 0,-2.215997 -1.784003,-4 -4,-4 z m -1,2 h 1 v 1 h 1 v 1 h -1 v 1 h -1 v -1 h -1 v -1 h 1 z M 14.5,12 c 0.552283,0 1,0.447717 1,1 0,0.552283 -0.447717,0.999999 -1,1 -0.552284,0 -1,-0.447715 -1,-1 -10e-7,-0.552284 0.447716,-1.000001 1,-1 z m -2,2 c 0.552283,0 0.999998,0.447717 1,1 0,0.552284 -0.447716,1 -1,1 -0.552284,0 -1,-0.447716 -1,-1 10e-7,-0.552283 0.447717,-1 1,-1 z"
     sodipodi:nodetypes="ssssssscccccccccccccssssssssss" />
</svg>
