<?xml version="1.0" encoding="UTF-8" standalone="no"?>
<!-- Created with Inkscape (http://www.inkscape.org/) -->

<svg
   width="22"
   height="22"
   viewBox="0 0 22 22"
   version="1.1"
   id="svg69118"
   inkscape:version="1.2.1 (9c6d41e410, 2022-07-14, custom)"
   sodipodi:docname="folder-temp.svg"
   xmlns:inkscape="http://www.inkscape.org/namespaces/inkscape"
   xmlns:sodipodi="http://sodipodi.sourceforge.net/DTD/sodipodi-0.dtd"
   xmlns:xlink="http://www.w3.org/1999/xlink"
   xmlns="http://www.w3.org/2000/svg"
   xmlns:svg="http://www.w3.org/2000/svg">
  <sodipodi:namedview
     id="namedview69120"
     pagecolor="#ffffff"
     bordercolor="#666666"
     borderopacity="1.0"
     inkscape:pageshadow="2"
     inkscape:pageopacity="0.0"
     inkscape:pagecheckerboard="0"
     inkscape:document-units="px"
     showgrid="false"
     units="px"
     inkscape:zoom="36.454545"
     inkscape:cx="10.986284"
     inkscape:cy="11"
     inkscape:window-width="1920"
     inkscape:window-height="1011"
     inkscape:window-x="0"
     inkscape:window-y="0"
     inkscape:window-maximized="1"
     inkscape:current-layer="svg69118"
     inkscape:showpageshadow="2"
     inkscape:deskcolor="#d1d1d1"
     showguides="false" />
  <defs
     id="defs69115">
    <linearGradient
       inkscape:collect="always"
       xlink:href="#linearGradient3161"
       id="linearGradient3163"
       x1="8.4666662"
       y1="15.345833"
       x2="8.4666662"
       y2="1.5874995"
       gradientUnits="userSpaceOnUse"
       gradientTransform="matrix(1.3809813,0,0,1.3809813,-1.1923208,-1.1923557)" />
    <linearGradient
       inkscape:collect="always"
       id="linearGradient3161">
      <stop
         style="stop-color:#c7ccd1;stop-opacity:1;"
         offset="0"
         id="stop3157" />
      <stop
         style="stop-color:#fdfdfd;stop-opacity:1"
         offset="1"
         id="stop3159" />
    </linearGradient>
  </defs>
  <circle
     style="fill:url(#linearGradient3163);fill-opacity:1;stroke-width:0.365385"
     id="path2899"
     cx="10.5"
     cy="10.5"
     r="9.5" />
  <path
     id="rect1636"
     style="fill:#444444;fill-opacity:1;stroke-width:0.500001;stroke-linejoin:round"
     d="M 10.474609,4 C 10.209695,4.01334 9.9999996,4.231656 9.9999996,4.5 v 5.974608 c -4.304e-4,0.0085 0,0.01674 0,0.02539 0,0.277 0.2230004,0.5 0.5000004,0.5 H 10.525391 16.5 c 0.277,1e-6 0.5,-0.222999 0.5,-0.499999 0,-0.277 -0.223,-0.5 -0.5,-0.5 H 11 V 4.5 C 11,4.223 10.777,4 10.5,4 10.4913,4 10.48315,3.99957 10.47461,4 Z"
     sodipodi:nodetypes="cscssccsscssc" />
  <path
     id="path2120"
     style="opacity:0.2;fill:#000000;stroke-width:2.1111"
     d="M 10.5,1 C 5.2533001,1 1,5.2533001 1,10.5 1,15.746701 5.2533001,20 10.5,20 15.746701,20 20,15.746701 20,10.5 20,5.2533001 15.746701,1 10.5,1 Z m 0,1 c 4.694416,-1e-7 8.5,3.8055841 8.5,8.5 C 19,15.194416 15.194416,19 10.5,19 5.8055843,19 1.9999999,15.194416 2,10.5 1.9999999,5.8055841 5.8055843,1.9999999 10.5,2 Z" />
</svg>
