<?xml version="1.0" encoding="UTF-8" standalone="no"?>
<!-- Created with Inkscape (http://www.inkscape.org/) -->

<svg
   width="22"
   height="22"
   viewBox="0 0 22 22"
   version="1.1"
   id="svg5"
   inkscape:version="1.2.1 (9c6d41e410, 2022-07-14, custom)"
   sodipodi:docname="folder-text.svg"
   xmlns:inkscape="http://www.inkscape.org/namespaces/inkscape"
   xmlns:sodipodi="http://sodipodi.sourceforge.net/DTD/sodipodi-0.dtd"
   xmlns:xlink="http://www.w3.org/1999/xlink"
   xmlns="http://www.w3.org/2000/svg"
   xmlns:svg="http://www.w3.org/2000/svg">
  <sodipodi:namedview
     id="namedview7"
     pagecolor="#ffffff"
     bordercolor="#666666"
     borderopacity="1.0"
     inkscape:pageshadow="2"
     inkscape:pageopacity="0.0"
     inkscape:pagecheckerboard="0"
     inkscape:document-units="px"
     showgrid="false"
     units="px"
     height="64px"
     inkscape:zoom="36.727273"
     inkscape:cx="10.986386"
     inkscape:cy="11"
     inkscape:window-width="1920"
     inkscape:window-height="1010"
     inkscape:window-x="0"
     inkscape:window-y="0"
     inkscape:window-maximized="1"
     inkscape:current-layer="svg5"
     showguides="false"
     inkscape:showpageshadow="2"
     inkscape:deskcolor="#d1d1d1" />
  <defs
     id="defs2">
    <linearGradient
       inkscape:collect="always"
       id="linearGradient1290">
      <stop
         style="stop-color:#b3c4d5;stop-opacity:1;"
         offset="0"
         id="stop1286" />
      <stop
         style="stop-color:#6986a3;stop-opacity:1"
         offset="1"
         id="stop1288" />
    </linearGradient>
    <linearGradient
       inkscape:collect="always"
       xlink:href="#linearGradient1290"
       id="linearGradient2984"
       x1="0.52916658"
       y1="-7.8427888e-08"
       x2="3.3404446"
       y2="3.8004949"
       gradientUnits="userSpaceOnUse"
       gradientTransform="matrix(5.0393696,0,0,4.7244091,0.33333333,1)" />
  </defs>
  <rect
     style="fill:url(#linearGradient2984);fill-opacity:1;stroke-width:1.29099"
     id="rect924"
     width="16"
     height="20"
     x="3"
     y="1"
     ry="1" />
  <path
     id="rect2109"
     style="opacity:0.2;fill:#000000"
     d="M 6,5 C 5.4460006,5 5,5.4460006 5,6 5,6.5539994 5.4460006,7 6,7 H 16 C 16.553999,7 17,6.5539994 17,6 17,5.4460006 16.553999,5 16,5 Z m 0,4 c -0.5539994,0 -1,0.4460006 -1,1 0,0.553999 0.4460006,1 1,1 h 7 c 0.553999,0 1,-0.446001 1,-1 0,-0.5539994 -0.446001,-1 -1,-1 z m 0,4 c -0.5539994,0 -1,0.446001 -1,1 0,0.553999 0.4460006,1 1,1 h 10 c 0.553999,0 1,-0.446001 1,-1 0,-0.553999 -0.446001,-1 -1,-1 z m 0,4 c -0.5539994,0 -1,0.446001 -1,1 0,0.553999 0.4460006,1 1,1 h 4 c 0.553999,0 1,-0.446001 1,-1 0,-0.553999 -0.446001,-1 -1,-1 z" />
  <path
     id="rect2143"
     style="opacity:1;fill:#ffffff;stroke-width:1.09254"
     d="M 6 4 C 5.4460006 4 5 4.4460006 5 5 C 5 5.5539994 5.4460006 6 6 6 L 16 6 C 16.553999 6 17 5.5539994 17 5 C 17 4.4460006 16.553999 4 16 4 L 6 4 z M 6 8 C 5.4460006 8 5 8.4460006 5 9 C 5 9.5539994 5.4460006 10 6 10 L 13 10 C 13.553999 10 14 9.5539994 14 9 C 14 8.4460006 13.553999 8 13 8 L 6 8 z M 6 12 C 5.4460006 12 5 12.446001 5 13 C 5 13.553999 5.4460006 14 6 14 L 16 14 C 16.553999 14 17 13.553999 17 13 C 17 12.446001 16.553999 12 16 12 L 6 12 z M 6 16 C 5.4460006 16 5 16.446001 5 17 C 5 17.553999 5.4460006 18 6 18 L 10 18 C 10.553999 18 11 17.553999 11 17 C 11 16.446001 10.553999 16 10 16 L 6 16 z " />
</svg>
