<?xml version="1.0" encoding="UTF-8" standalone="no"?>
<!-- Created with Inkscape (http://www.inkscape.org/) -->

<svg
   width="22"
   height="22"
   viewBox="0 0 22 22"
   version="1.1"
   id="svg5"
   inkscape:version="1.4.2 (ebf0e940d0, 2025-05-08)"
   sodipodi:docname="folder-steam.svg"
   xmlns:inkscape="http://www.inkscape.org/namespaces/inkscape"
   xmlns:sodipodi="http://sodipodi.sourceforge.net/DTD/sodipodi-0.dtd"
   xmlns:xlink="http://www.w3.org/1999/xlink"
   xmlns="http://www.w3.org/2000/svg"
   xmlns:svg="http://www.w3.org/2000/svg">
  <sodipodi:namedview
     id="namedview7"
     pagecolor="#ffffff"
     bordercolor="#666666"
     borderopacity="1.0"
     inkscape:pageshadow="2"
     inkscape:pageopacity="0.0"
     inkscape:pagecheckerboard="0"
     inkscape:document-units="px"
     showgrid="false"
     units="px"
     height="64px"
     inkscape:zoom="36.227273"
     inkscape:cx="11"
     inkscape:cy="11"
     inkscape:window-width="1920"
     inkscape:window-height="1011"
     inkscape:window-x="0"
     inkscape:window-y="0"
     inkscape:window-maximized="1"
     inkscape:current-layer="svg5"
     inkscape:showpageshadow="2"
     inkscape:deskcolor="#d1d1d1" />
  <defs
     id="defs2">
    <linearGradient
       inkscape:collect="always"
       xlink:href="#linearGradient4"
       id="linearGradient11974"
       x1="5.2916665"
       y1="5.5562496"
       x2="10.508907"
       y2="11.1125"
       gradientUnits="userSpaceOnUse"
       gradientTransform="matrix(1.8897638,0,0,1.8897638,-0.9999993,-2.0000006)" />
    <linearGradient
       inkscape:collect="always"
       xlink:href="#linearGradient3"
       id="linearGradient4407"
       x1="32"
       y1="10.5"
       x2="32"
       y2="18.5"
       gradientUnits="userSpaceOnUse"
       gradientTransform="matrix(0.50000004,0,0,0.50000004,-0.9999993,-2.5000007)" />
    <linearGradient
       inkscape:collect="always"
       xlink:href="#linearGradient2350"
       id="linearGradient1370"
       gradientUnits="userSpaceOnUse"
       gradientTransform="matrix(0.50000004,0,0,0.50000004,-0.9999991,-2.5000007)"
       x1="1.9999999"
       y1="27"
       x2="46.036999"
       y2="27.197477" />
    <linearGradient
       inkscape:collect="always"
       id="linearGradient2350">
      <stop
         style="stop-color:#ffffff;stop-opacity:1;"
         offset="0"
         id="stop2346" />
      <stop
         style="stop-color:#ffffff;stop-opacity:0;"
         offset="1"
         id="stop2348" />
    </linearGradient>
    <linearGradient
       inkscape:collect="always"
       id="linearGradient4">
      <stop
         style="stop-color:#2672ca;stop-opacity:1;"
         offset="0"
         id="stop3" />
      <stop
         style="stop-color:#133e68;stop-opacity:1;"
         offset="1"
         id="stop4" />
    </linearGradient>
    <linearGradient
       inkscape:collect="always"
       id="linearGradient3">
      <stop
         style="stop-color:#2374c9;stop-opacity:1;"
         offset="0"
         id="stop1" />
      <stop
         style="stop-color:#1b549f;stop-opacity:1;"
         offset="1"
         id="stop2" />
    </linearGradient>
  </defs>
  <path
     id="rect846"
     style="fill:url(#linearGradient4407);stroke-width:1;stroke-linecap:round;stroke-linejoin:round;stroke-dasharray:12, 1"
     d="M 1.5000001,2.0000001 C 0.7731731,2.0036466 0.0015558,2.6984193 0,3.5000002 V 18.999999 H 21.999999 V 6.0000002 C 21.999999,5.4459971 21.554,5 20.999999,5 H 10.500001 l -2,-2.0000005 C 7.8173726,2.3318841 7.3310005,2 6.5000002,2 Z"
     sodipodi:nodetypes="ccccssccsc" />
  <path
     id="rect1170"
     style="fill:url(#linearGradient11974);stroke-width:1.32288;stroke-linecap:round;stroke-linejoin:round;stroke-dasharray:15.8745, 1.32288"
     d="m 11.5,5.9999994 -3,1.9999997 H 2.0000009 C 0.8920006,7.9999991 7e-7,8.8919993 7e-7,10 v 10 c 0,0.554003 0.4460001,1 1,1 H 20.999999 c 0.554004,0 1,-0.445999 1,-1 V 6.9999996 c 0,-0.5540031 -0.445999,-1.0000002 -1,-1.0000002 z"
     sodipodi:nodetypes="ccsccccccsc" />
  <path
     d="M 5e-7,18.999999 V 20 c 0,0.554003 0.4459994,1 1.0000002,1 H 21 c 0.554003,0 1,-0.445999 1,-1 V 18.999999 C 22,19.553995 21.554,20 21,20 H 1.0000007 C 0.4459976,20 5e-7,19.554 5e-7,18.999999 Z"
     style="fill:#1a3453;fill-opacity:1;stroke-width:1.32288;stroke-linecap:round;stroke-linejoin:round;stroke-dasharray:15.8745, 1.32288"
     id="path1381"
     sodipodi:nodetypes="csssscssc" />
  <path
     d="m 11.5,5.9999994 -3,2.0000001 H 2.0000007 C 0.8920008,7.9999995 9e-7,8.8919997 9e-7,10 v 1 C 9e-7,9.892 0.8939128,9.065064 2.0000007,8.9999997 H 8.5 l 3,-2.0000001 H 21 c 0.554003,0 1,0.4459998 1,0.9999999 V 6.9999989 C 22,6.4459957 21.554001,5.9999994 21,5.9999994 Z"
     style="opacity:0.3;fill:url(#linearGradient1370);fill-opacity:1;stroke-width:1.32288;stroke-linecap:round;stroke-linejoin:round;stroke-dasharray:15.8745, 1.32288"
     id="path1296"
     sodipodi:nodetypes="ccssccccscssc" />
  <path
     id="path897"
     style="fill:#ffffff;stroke-width:0.999999"
     d="m 15.500008,8 c -1.932994,0 -3.5,1.567007 -3.5,3.5 0.0016,0.02933 0.0035,0.05862 0.0059,0.08789 l -1.447265,2.414062 c -0.01962,-8.78e-4 -0.0391,-0.0015 -0.05864,-0.002 -0.576467,0.0016 -1.134667,0.202399 -1.5800779,0.568359 -4.0976564,-1.796875 0,0 -4.0976564,-1.796875 -0.5136598,-0.207532 -1.0952023,0.03908 -1.3027344,0.552735 -0.207532,0.51366 0.039075,1.093249 0.5527344,1.300781 3.9394534,1.724609 0,0 3.9394534,1.724609 -0.0054,0.05 -0.0093,0.100153 -0.01172,0.150391 0,1.38071 1.1192909,2.5 2.4999999,2.5 1.380709,0 2.5,-1.11929 2.5,-2.5 -1.81e-4,-0.117638 -0.0086,-0.235121 -0.02539,-0.351562 l 2.027344,-1.183594 h 0.002 c 0.164086,0.02347 0.330058,0.03523 0.496047,0.03516 1.932993,0 3.5,-1.567007 3.5,-3.5 0,-1.932993 -1.567007,-3.5 -3.5,-3.5 z m 0,1.5 c 1.104567,0 2,0.895433 2,2 0,1.104567 -0.895433,2 -2,2 -1.104568,0 -2,-0.895433 -2,-2 0,-1.104567 0.895432,-2 2,-2 z m 0,0.5 c -0.828426,0 -1.5,0.671575 -1.5,1.5 0,0.828426 0.671574,1.5 1.5,1.5 0.828425,0 1.5,-0.671574 1.5,-1.5 0,-0.828425 -0.671575,-1.5 -1.5,-1.5 z m -5,5 c 0.828426,0 1.5,0.671575 1.5,1.5 0,0.828425 -0.671574,1.5 -1.5,1.5 C 9.82217,17.9971 9.230517,17.539932 9.056649,16.884766 l 0.988281,0.505859 c 1.187635,0.607194 2.097791,-1.174056 0.910156,-1.78125 L 9.960946,15.101562 C 10.132861,15.034864 10.315606,15.00043 10.500008,15 Z"
     sodipodi:nodetypes="sccccccscccscccccsssssssssssscscccccc" />
</svg>
