<?xml version="1.0" encoding="UTF-8" standalone="no"?>
<!-- Created with Inkscape (http://www.inkscape.org/) -->

<svg
   width="22"
   height="22"
   viewBox="0 0 22 22"
   version="1.1"
   id="svg2112"
   inkscape:version="1.2.1 (9c6d41e410, 2022-07-14, custom)"
   sodipodi:docname="network-workgroup.svg"
   xmlns:inkscape="http://www.inkscape.org/namespaces/inkscape"
   xmlns:sodipodi="http://sodipodi.sourceforge.net/DTD/sodipodi-0.dtd"
   xmlns:xlink="http://www.w3.org/1999/xlink"
   xmlns="http://www.w3.org/2000/svg"
   xmlns:svg="http://www.w3.org/2000/svg">
  <sodipodi:namedview
     id="namedview2114"
     pagecolor="#ffffff"
     bordercolor="#000000"
     borderopacity="0.25"
     inkscape:showpageshadow="2"
     inkscape:pageopacity="0.0"
     inkscape:pagecheckerboard="0"
     inkscape:deskcolor="#d1d1d1"
     inkscape:document-units="px"
     showgrid="false"
     inkscape:zoom="36.727273"
     inkscape:cx="11"
     inkscape:cy="11"
     inkscape:window-width="1920"
     inkscape:window-height="1010"
     inkscape:window-x="0"
     inkscape:window-y="0"
     inkscape:window-maximized="1"
     inkscape:current-layer="svg2112" />
  <defs
     id="defs2109">
    <linearGradient
       inkscape:collect="always"
       xlink:href="#linearGradient2986"
       id="linearGradient2988"
       x1="0.092814192"
       y1="13.470937"
       x2="-3.2895818"
       y2="13.470937"
       gradientUnits="userSpaceOnUse"
       gradientTransform="matrix(2.3651875,0,0,0.3059441,15.780478,16.878647)" />
    <linearGradient
       inkscape:collect="always"
       id="linearGradient2986">
      <stop
         style="stop-color:#818990;stop-opacity:1;"
         offset="0"
         id="stop2982" />
      <stop
         style="stop-color:#bcc5cf;stop-opacity:1"
         offset="1"
         id="stop2984" />
    </linearGradient>
    <linearGradient
       inkscape:collect="always"
       xlink:href="#linearGradient1116"
       id="linearGradient988"
       x1="0"
       y1="6.5000005"
       x2="16"
       y2="6.5000005"
       gradientUnits="userSpaceOnUse"
       gradientTransform="matrix(1.25,0,0,1.2727272,2,2.7272731)" />
    <linearGradient
       inkscape:collect="always"
       id="linearGradient1116">
      <stop
         style="stop-color:#555a5f;stop-opacity:1;"
         offset="0"
         id="stop1112" />
      <stop
         style="stop-color:#4b4f53;stop-opacity:1"
         offset="1"
         id="stop1114" />
    </linearGradient>
    <linearGradient
       inkscape:collect="always"
       xlink:href="#linearGradient2301"
       id="linearGradient3955"
       x1="5.0270834"
       y1="6.8791666"
       x2="8.2020836"
       y2="8.9958334"
       gradientUnits="userSpaceOnUse"
       gradientTransform="matrix(5.6692915,0,0,5.6692911,-25.500002,-33.999998)" />
    <linearGradient
       inkscape:collect="always"
       id="linearGradient2301">
      <stop
         style="stop-color:#3fe3e7;stop-opacity:1;"
         offset="0"
         id="stop2297" />
      <stop
         style="stop-color:#066bbc;stop-opacity:1"
         offset="1"
         id="stop2299" />
    </linearGradient>
    <linearGradient
       inkscape:collect="always"
       xlink:href="#linearGradient1339"
       id="linearGradient1341"
       x1="-16.257299"
       y1="3.3388042"
       x2="-8.2772894"
       y2="3.3388042"
       gradientUnits="userSpaceOnUse"
       gradientTransform="matrix(1.3749854,0,0,1.3749854,22.35355,1.7833354)" />
    <linearGradient
       inkscape:collect="always"
       id="linearGradient1339">
      <stop
         style="stop-color:#b0d6df;stop-opacity:1;"
         offset="0"
         id="stop1335" />
      <stop
         style="stop-color:#e1f8fc;stop-opacity:1;"
         offset="0.5"
         id="stop1343" />
      <stop
         style="stop-color:#96c3ce;stop-opacity:1;"
         offset="1"
         id="stop1337" />
    </linearGradient>
    <radialGradient
       inkscape:collect="always"
       xlink:href="#linearGradient1819"
       id="radialGradient1821"
       cx="-8.4892759"
       cy="6.6485348"
       fx="-8.4892759"
       fy="6.6485348"
       r="4"
       gradientTransform="matrix(1.4723606,0.75719531,-0.71409621,1.3886435,21.371928,2.570199)"
       gradientUnits="userSpaceOnUse" />
    <linearGradient
       inkscape:collect="always"
       id="linearGradient1819">
      <stop
         style="stop-color:#5ab5e2;stop-opacity:1;"
         offset="0"
         id="stop1815" />
      <stop
         style="stop-color:#4189ac;stop-opacity:1;"
         offset="0.5"
         id="stop1823" />
      <stop
         style="stop-color:#295e76;stop-opacity:1;"
         offset="1"
         id="stop1817" />
    </linearGradient>
  </defs>
  <path
     id="rect958"
     style="fill:#bcc5cf;stroke-width:4.08249;stroke-linecap:round;stroke-linejoin:round"
     d="m 11.000001,18 h 2.000001 L 13,20 h -2 z"
     sodipodi:nodetypes="ccccc" />
  <rect
     style="fill:url(#linearGradient988);fill-opacity:1;stroke-width:1.26131"
     id="rect978"
     width="20"
     height="14"
     x="2"
     y="4"
     ry="2" />
  <rect
     style="fill:url(#linearGradient3955);fill-opacity:1;stroke-width:4.5;stroke-linecap:round;stroke-linejoin:round"
     id="rect3867"
     width="18"
     height="12"
     x="2.9999995"
     y="5.0000005"
     ry="1" />
  <path
     id="rect2848"
     style="fill:url(#linearGradient2988);stroke-width:1.12535;stroke-linecap:round;stroke-linejoin:round"
     d="m 8.0000003,20 h 8.0000007 v 1 H 8.0000003 Z" />
  <ellipse
     style="fill:url(#radialGradient1821);fill-opacity:1;stroke-width:1.37501"
     id="path1449"
     cx="5.5000587"
     cy="6.5"
     rx="5.4999413"
     ry="5.5" />
  <path
     d="M 5.5284759,1.2749909 C 5.1043133,1.3050759 4.6893674,1.382941 4.2847092,1.5141036 4.1403413,1.5197436 3.8265902,1.705683 4.0797316,1.7929452 4.1975405,1.9187976 4.478783,1.9588481 4.4446241,2.164495 4.4900401,2.3452561 4.0244739,2.3370543 4.1794416,2.5007725 4.2893166,2.6453769 4.3991988,2.7899895 4.5090805,2.9345994 4.7119681,2.8694384 4.7789186,2.661643 4.8914806,2.5017074 5.2048067,2.3635022 5.6482559,2.3217576 5.8553247,2.055801 L 6.0499812,1.4914274 C 5.8761435,1.4192804 5.7022995,1.347135 5.5284701,1.2749716 Z M 4.0203132,1.3233219 C 3.8259687,1.3023529 3.7016506,1.4217979 3.5565869,1.5000956 3.378023,1.5219576 3.1762744,1.5884246 3.0637483,1.7320419 3.264052,1.8229419 3.3902,1.7261319 3.5630962,1.6574219 3.7236243,1.5751839 4.2696215,1.5408644 4.0203144,1.3233087 Z M 2.7662069,1.9001614 C 2.6662869,2.0526747 2.8363859,2.2734176 2.6078278,2.3534569 2.4950102,2.4962794 2.3964128,2.7307089 2.6784058,2.645644 2.7473888,2.4340118 2.9616833,2.1371483 3.2055643,2.2610964 3.4512041,2.3270954 3.6785484,2.7398745 3.879109,2.4129264 3.8790281,2.3278974 3.5671399,2.2781502 3.5741084,2.0701217 3.4353245,2.0105847 3.1386521,2.1187827 3.1490098,1.9024024 2.9485053,1.8133724 2.8907561,2.2569947 2.8196981,2.0090463 2.8018661,1.9727603 2.7840311,1.9364743 2.7662111,1.9001612 Z M 8.209015,2.0924403 C 7.9716994,2.1399043 7.7372973,2.1941067 7.5500076,2.3572199 7.6043746,2.5745734 7.3239681,2.6111467 7.1992501,2.7317934 c -0.090488,0.051067 0.00162,0.4455049 0.080918,0.3842742 0.1685787,-0.2224137 0.255782,-0.030552 0.4124848,0.079268 C 7.8337002,3.3263445 7.9232611,2.9520596 7.8483438,2.8465544 7.8043858,2.676514 8.0182383,2.5507207 8.0951974,2.4114649 8.3304769,2.260541 8.1316754,2.6040137 8.1241434,2.723929 8.0053858,3.0783 8.650935,2.734654 8.225411,2.9994335 8.1112734,3.1134199 8.0694755,3.2822887 7.8940836,3.3665271 7.7993886,3.4821222 7.4379456,3.4279341 7.486619,3.2476183 7.3546342,3.0407503 7.387207,3.4965951 7.342365,3.4944116 7.1236227,3.4292376 7.058521,3.6733921 6.9213364,3.790211 6.816356,3.9108244 6.4457315,3.835984 6.7224297,4.022817 6.9242362,4.2556808 6.6822117,4.2126163 6.5152704,4.2746351 6.279346,4.3152521 6.3187795,4.5207353 6.3248855,4.7062621 6.3284455,4.8085059 6.5549427,4.9601888 6.669615,4.8888793 6.8986628,4.8643493 6.8408693,4.5832546 7.0100928,4.4975312 7.1506979,4.3771786 7.2493695,4.2661717 7.460494,4.2632941 7.557967,4.3563111 7.7549766,4.4961562 7.8348654,4.5721996 7.6143757,4.8124317 7.9361335,4.7928544 7.9669194,4.5740096 8.0756806,4.453492 7.6086782,4.1698822 7.9166654,4.2944902 8.1205043,4.3617402 8.0736296,4.569977 8.1643236,4.7105526 8.3255338,4.983069 8.3427986,4.7797146 8.3578062,4.5689017 8.6256437,4.4847527 8.6982431,5.0353075 9.059251,4.9061911 9.329807,4.9772781 9.201596,5.1522336 9.030781,5.2651999 8.8747673,5.37899 8.6421267,5.3009832 8.4708986,5.2392103 8.3014988,5.1522424 8.0973477,5.2020985 8.008176,5.3750724 7.8102205,5.2042304 7.6700831,4.9328317 7.3824986,4.917799 7.110202,4.9036912 6.8353026,4.9760849 6.5725205,5.0501278 6.2813609,5.3918322 5.9663487,5.7246267 5.8306857,6.1613676 5.6898642,6.3344233 5.9915015,6.4380998 5.7622254,6.5955963 5.6026007,6.7446353 5.8165926,6.9287208 5.8496193,7.0958407 6.021399,7.2995544 6.2847626,7.9696341 6.550059,7.7104463 6.6993577,7.4745581 6.7983567,7.8649617 6.9739088,7.6199587 7.121675,7.4850867 7.2413466,7.7554771 7.4485635,7.6592967 7.6328266,7.7511457 7.6488484,7.9311874 7.5514811,8.1034814 7.4889471,8.2784055 7.8223645,8.350334 7.7275015,8.5545427 7.6827575,8.7542403 7.7703755,8.9237649 7.869587,9.090647 7.649082,9.320813 7.6756633,9.661766 7.7307078,9.950178 c 0.1078812,0.395397 0.2623971,0.791937 0.2469626,1.208273 0.193206,0.05067 0.3357289,-0.07727 0.4954981,-0.144471 C 8.7781168,11.05712 8.9440141,10.731731 9.133371,10.545105 8.9911187,10.353879 9.25023,10.271359 9.357342,10.147649 9.19713,10.009071 9.09097,9.874531 9.339002,9.766459 9.453415,9.650245 9.667761,9.58455 9.705345,9.422446 9.606815,9.128827 9.662945,8.8168606 9.648435,8.513289 9.769914,8.2684521 9.898894,8.0288281 10.10067,7.83978 c 0.08046,-0.2654934 0.273871,-0.5088438 0.255116,-0.793826 -0.470309,0.1406984 -0.328302,-0.05977 -0.06766,-0.25035 0.180868,-0.132659 0.438043,-0.2563844 0.493041,-0.4825528 0.03949,-0.2232209 -0.134968,-0.569801 -0.286744,-0.241846 -0.07373,-0.1045126 -0.333436,-0.2014399 -0.32984,-0.3655017 -0.05562,-0.3308501 0.08947,-0.1321362 0.218452,0.024116 0.300016,-0.2223943 0.691548,0.6138005 0.564923,0.01715 C 10.776417,4.4556678 10.121655,3.2357339 9.140872,2.3786779 9.051182,2.4741839 8.9015179,2.8302506 8.7929149,2.6247219 8.6391627,2.461617 8.5184937,2.3143657 8.8316769,2.3749187 9.138605,2.2916217 8.8328769,2.2431813 8.6719643,2.2241955 8.5106084,2.2053585 8.360988,2.1462615 8.209023,2.0924032 Z m -6.007457,0.00798 C 1.9985043,2.1786293 2.3026744,2.4768293 1.9386293,2.3813339 1.5395082,2.5621884 1.2736287,3.0010908 0.99621707,3.3428678 0.34912697,4.2573436 -0.00267966,5.37487 1.5369585e-5,6.4950015 0.10619177,6.7141493 0.36769747,6.7884166 0.56334417,6.9093946 c 0.198838,0.06802 0.44924493,0.05775 0.54820393,0.2774101 0.1106864,0.1158975 0.2591889,0.271326 0.4173094,0.2839016 0.2429819,-0.077865 0.2772452,0.14245 0.1546611,0.3054197 C 1.6701814,7.9546366 1.4715564,8.0986193 1.4937005,8.2556191 1.5379615,8.4315364 1.2723898,8.6252993 1.4512965,8.7862412 1.6395182,9.12274 1.8409591,9.44952 2.0955103,9.74015 c 0.1583253,0.138713 0.1395526,0.329695 0.1214796,0.520468 -0.062837,0.201625 0.1277364,0.318256 0.2300214,0.464498 -0.2492537,0.456991 0.4258682,0.548327 0.7084307,0.748154 0.1420579,-0.129909 0.1533494,-0.340166 0.3890218,-0.346027 0.142912,-0.100127 0.1734213,-0.326142 0.271579,-0.476413 -0.00318,-0.159619 -0.1053654,-0.308777 0.060582,-0.482626 C 4.0016657,10.062674 4.259686,10.133024 4.3062333,9.912719 4.4760855,9.737764 4.3386553,9.495282 4.3386553,9.283009 4.4705991,9.102275 4.6982171,8.9635421 4.6729556,8.7138129 4.7015399,8.3413487 4.0309421,8.358088 3.7946523,8.1322633 3.5042065,8.1238771 3.562942,7.7281547 3.3368463,7.6755779 3.1123799,7.6868555 3.0307622,7.5109964 2.9511973,7.3324454 2.8275584,7.2481173 2.5948821,7.4194816 2.4655083,7.3137873 2.318975,7.2365935 2.1875289,6.9486324 2.0225886,7.1285877 1.8055112,7.285982 1.5920256,7.4458722 1.386094,7.1823494 1.2525418,7.062012 1.4203451,6.7203855 1.2312502,6.7419057 0.82758197,6.8879208 1.3591926,6.1555706 0.98130257,6.252731 c -0.089498,0.140283 -0.2611688,0.3567399 -0.4280879,0.1907337 -0.1676286,-0.078869 -0.084947,-0.3353245 -0.077467,-0.488917 0.00729,-0.1796489 0.2346042,-0.2692156 0.3652607,-0.351163 C 1.0944224,5.7167245 1.0424122,5.3789716 1.2542108,5.4918735 1.4596653,5.4481213 1.55243,5.7776981 1.6358435,5.7899824 1.6848615,5.6276156 1.5963675,5.39031 1.7470523,5.2833371 1.923115,5.1351401 2.1554874,5.0297421 2.1989358,4.7807457 2.2025158,4.5147563 2.5253145,4.738919 2.605446,4.5577824 2.679324,4.3502368 2.8947926,4.3631998 3.076801,4.3240418 3.17635,4.2316698 3.4265711,3.9471553 3.117459,4.0305703 3.0048752,4.0153513 2.5516182,4.0756833 2.859388,3.9672243 3.0109939,3.8524684 3.1947497,3.8683633 3.364933,3.8458272 3.4989668,3.7323634 3.733256,3.6943435 3.7435591,3.4877521 3.6323227,3.3364596 3.3966845,3.3652546 3.4967107,3.1482654 3.4870857,2.864419 3.2370458,3.0466403 3.1549151,3.0250528 3.2883027,2.8394329 2.981473,2.7225617 2.8784937,2.7199589 2.8085067,2.8948831 2.6117343,3.0458043 2.6811777,3.2471354 2.4760163,3.2804494 2.3798963,3.4289508 2.3182449,3.6138274 2.2567279,3.6352494 2.2767339,3.2512407 2.0413088,3.2866234 1.8750183,3.2826334 1.6694484,3.0344759 1.8445253,2.9367625 2.0845565,2.7848926 2.3829956,2.6660237 2.534772,2.4234447 2.622056,2.2061833 2.461087,2.0728317 2.2467457,2.1036849 l -0.029892,-0.00206 z m 4.0385205,0.250151 C 6.1075987,2.4536264 5.8401698,2.3824433 5.7837016,2.4818137 5.7599576,2.6822274 6.071141,2.6790938 6.1954174,2.5684517 6.3985445,2.4933497 6.3894873,2.5070587 6.2400614,2.3505674 Z M 3.2973058,2.4532964 C 3.015771,2.5361394 3.2458408,2.7205317 3.4296209,2.718076 3.6488981,2.70038 3.4448839,2.4548736 3.2973058,2.4532964 Z M 6.654583,3.0064989 C 6.634427,3.1858371 6.8067141,3.2978226 6.73557,3.4931956 6.6235358,3.7393138 6.7822359,3.8132138 6.973692,3.6619351 7.2293954,3.5054798 6.7820756,3.1627496 6.7224787,3.0064989 Z M 6.570255,3.2949036 C 6.3404692,3.2384186 6.4131661,3.7193257 6.5710407,3.5537611 6.7410703,3.5240771 6.5777807,3.3930681 6.570255,3.2949036 Z M 3.6377481,3.7283441 C 3.6714751,3.9107198 3.6836321,4.1998448 3.8171318,3.8892836 3.8169475,3.8289216 3.6852154,3.7817047 3.6377481,3.7283441 Z M 9.186521,5.6034177 C 9.456598,5.8389031 9.566006,6.1799471 9.718243,6.4928515 9.944761,6.6117877 9.810673,6.7936722 9.842225,6.9465104 10.157624,7.2226471 9.522836,7.0755797 9.599872,6.7743196 9.548422,6.4244253 9.323673,6.1908623 9.140122,5.9378151 9.125672,5.8038644 8.9820044,5.6510923 9.186522,5.6034272 Z"
     style="fill:url(#linearGradient1341);fill-opacity:1;stroke-width:0.196418"
     id="path1308" />
</svg>
