<?xml version="1.0" encoding="UTF-8" standalone="no"?>
<!-- Created with Inkscape (http://www.inkscape.org/) -->

<svg
   width="22"
   height="22"
   viewBox="0 0 22 22"
   version="1.1"
   id="svg5"
   inkscape:version="1.2.1 (9c6d41e410, 2022-07-14, custom)"
   sodipodi:docname="user-trash.svg"
   xmlns:inkscape="http://www.inkscape.org/namespaces/inkscape"
   xmlns:sodipodi="http://sodipodi.sourceforge.net/DTD/sodipodi-0.dtd"
   xmlns:xlink="http://www.w3.org/1999/xlink"
   xmlns="http://www.w3.org/2000/svg"
   xmlns:svg="http://www.w3.org/2000/svg">
  <sodipodi:namedview
     id="namedview7"
     pagecolor="#ffffff"
     bordercolor="#666666"
     borderopacity="1.0"
     inkscape:pageshadow="2"
     inkscape:pageopacity="0.0"
     inkscape:pagecheckerboard="0"
     inkscape:document-units="px"
     showgrid="false"
     units="px"
     height="64px"
     inkscape:zoom="37.590909"
     inkscape:cx="10.986699"
     inkscape:cy="11"
     inkscape:window-width="1920"
     inkscape:window-height="1029"
     inkscape:window-x="0"
     inkscape:window-y="0"
     inkscape:window-maximized="1"
     inkscape:current-layer="svg5"
     inkscape:showpageshadow="2"
     inkscape:deskcolor="#d1d1d1" />
  <defs
     id="defs2">
    <linearGradient
       inkscape:collect="always"
       xlink:href="#linearGradient60807"
       id="linearGradient43497"
       x1="5.0269842"
       y1="1.0583125"
       x2="1.4788554"
       y2="1.415241"
       gradientUnits="userSpaceOnUse"
       gradientTransform="matrix(1.3498628,0,0,1.3498628,-0.42915034,-0.42848163)" />
    <linearGradient
       inkscape:collect="always"
       id="linearGradient60807">
      <stop
         style="stop-color:#b7bfc7;stop-opacity:0.02526831"
         offset="0"
         id="stop60801" />
      <stop
         style="stop-color:#b6bfc6;stop-opacity:0"
         offset="0.36555651"
         id="stop61639" />
      <stop
         style="stop-color:#b6bfc5;stop-opacity:1"
         offset="0.48513398"
         id="stop60809" />
      <stop
         style="stop-color:#b6bfc5;stop-opacity:0"
         offset="0.73108482"
         id="stop60803" />
      <stop
         style="stop-color:#b6bfc5;stop-opacity:1"
         offset="1"
         id="stop60805" />
    </linearGradient>
    <linearGradient
       inkscape:collect="always"
       xlink:href="#linearGradient60807"
       id="linearGradient59848"
       gradientUnits="userSpaceOnUse"
       x1="5.0269852"
       y1="1.0582422"
       x2="1.8391933"
       y2="1.3265172"
       gradientTransform="matrix(-1.3498628,0,0,1.3498628,22.428079,-0.42838673)" />
    <linearGradient
       inkscape:collect="always"
       xlink:href="#linearGradient18900"
       id="linearGradient113015"
       gradientUnits="userSpaceOnUse"
       x1="9.3394947"
       y1="4.2414846"
       x2="9.3713646"
       y2="15.277747"
       gradientTransform="matrix(1.3498628,0,0,1.3498628,-0.42915034,-0.42838673)" />
    <linearGradient
       inkscape:collect="always"
       id="linearGradient18900">
      <stop
         style="stop-color:#ffffff;stop-opacity:0.80000001"
         offset="0"
         id="stop18896" />
      <stop
         style="stop-color:#ffffff;stop-opacity:0.58473009"
         offset="0.70040143"
         id="stop94701" />
      <stop
         style="stop-color:#ffffff;stop-opacity:0.08762626"
         offset="0.89186656"
         id="stop23845" />
      <stop
         style="stop-color:#fcfcfc;stop-opacity:0.49152461"
         offset="1"
         id="stop18898" />
    </linearGradient>
    <linearGradient
       inkscape:collect="always"
       xlink:href="#linearGradient91628"
       id="linearGradient91630"
       x1="3.1274393"
       y1="9.5520172"
       x2="5.8981671"
       y2="9.1497135"
       gradientUnits="userSpaceOnUse"
       gradientTransform="matrix(1.3498628,0,0,1.3498628,-0.42915034,-0.42848163)" />
    <linearGradient
       inkscape:collect="always"
       id="linearGradient91628">
      <stop
         style="stop-color:#cccccc;stop-opacity:1"
         offset="0"
         id="stop91624" />
      <stop
         style="stop-color:#cccccc;stop-opacity:0"
         offset="0.1152868"
         id="stop92528" />
      <stop
         style="stop-color:#cccccc;stop-opacity:0"
         offset="1"
         id="stop91626" />
    </linearGradient>
    <linearGradient
       inkscape:collect="always"
       xlink:href="#linearGradient91628"
       id="linearGradient94280"
       gradientUnits="userSpaceOnUse"
       x1="3.1274393"
       y1="9.5520172"
       x2="5.8981671"
       y2="9.1497135"
       gradientTransform="matrix(-1.3498628,0,0,1.3498628,22.42808,-0.42848163)" />
    <linearGradient
       inkscape:collect="always"
       id="linearGradient122406">
      <stop
         style="stop-color:#ffffff;stop-opacity:1;"
         offset="0"
         id="stop122402" />
      <stop
         style="stop-color:#ffffff;stop-opacity:0.60000002"
         offset="0.5"
         id="stop123180" />
      <stop
         style="stop-color:#ffffff;stop-opacity:1"
         offset="1"
         id="stop122404" />
    </linearGradient>
    <linearGradient
       inkscape:collect="always"
       xlink:href="#linearGradient122406"
       id="linearGradient1174"
       x1="6.1417325e-08"
       y1="5.3242188"
       x2="32"
       y2="5.3242188"
       gradientUnits="userSpaceOnUse"
       gradientTransform="matrix(0.71429192,0,0,0.71429192,-0.42916754,-0.42858373)" />
  </defs>
  <path
     style="color:#000000;fill:#c9d1d7;fill-opacity:0.501961;stroke:none;stroke-width:1.34987;stroke-linecap:round;stroke-linejoin:round;-inkscape-stroke:none"
     d="M 4.2130158,1.0000947 C 4.1188942,1.0008731 4.028881,1.0387703 3.9625503,1.1055526 L 2.5335955,2.8909035 c -0.078604,0.077999 -0.1165886,0.188044 -0.1028202,0.297919 L 4.5742109,19.619184 c 0.024302,0.176564 0.1750601,0.308186 0.3532799,0.308466 H 17.071213 c 0.179233,0.001 0.33148,-0.130908 0.355922,-0.308466 L 19.567932,3.1888225 c 0.0144,-0.1094532 -0.02256,-0.2194333 -0.100184,-0.297919 L 18.038794,1.1055531 c -0.06698,-0.067424 -0.158068,-0.105377 -0.2531,-0.1054579 z"
     id="path8844"
     sodipodi:nodetypes="ccccccccccccc" />
  <path
     id="path8844-8"
     style="color:#000000;fill:#8e8e8e;fill-opacity:0.253914;stroke:none;stroke-width:1.34987;stroke-linecap:round;stroke-linejoin:round;-inkscape-stroke:none"
     d="M 4.2130158,1.0000947 C 4.1188939,1.0008731 4.0289241,1.0386463 3.9625927,1.1054256 L 3.4608669,1.7142919 H 18.540283 L 18.038401,1.1054246 c -0.06698,-0.067424 -0.157474,-0.10525 -0.252514,-0.1053309 z"
     sodipodi:nodetypes="ccccccc" />
  <path
     style="color:#000000;opacity:0.5;fill:url(#linearGradient43497);fill-opacity:1;stroke:none;stroke-width:1.34987;stroke-linecap:round;stroke-linejoin:round;-inkscape-stroke:none"
     d="m 4.2130147,1 c -0.094122,7.783e-4 -0.184131,0.038676 -0.2504655,0.1054579 L 2.5335949,2.8908098 c -0.078604,0.077999 -0.1165886,0.188044 -0.1028201,0.297919 L 4.5742109,19.61909 5.9994445,18.143013 H 6.3565872 V 1.0000947 Z"
     id="path8844-3"
     sodipodi:nodetypes="ccccccccc" />
  <path
     style="color:#000000;opacity:0.5;fill:url(#linearGradient59848);fill-opacity:1;stroke:none;stroke-width:1.34987;stroke-linecap:round;stroke-linejoin:round;-inkscape-stroke:none"
     d="m 17.785911,1.0000947 c 0.09412,7.784e-4 0.184135,0.038676 0.250462,0.1054579 l 1.428958,1.7853526 c 0.0786,0.077999 0.116583,0.1880439 0.102822,0.2979189 l -2.14344,16.4303609 -1.425234,-1.476077 -0.357144,-9.5e-5 V 1.0000947 Z"
     id="path8844-3-9"
     sodipodi:nodetypes="ccccccccc" />
  <path
     id="rect849"
     style="fill:#9ba1a6;fill-opacity:1;stroke-width:0.357144"
     d="m 17.428058,19.571591 v 1.071267 C 17.428058,20.840712 17.268769,21 17.070911,21 H 4.9280117 C 4.7301572,21 4.570869,20.840712 4.570869,20.642858 V 19.571591 L 5.9994445,18.143013 H 15.99948 Z"
     sodipodi:nodetypes="csssscccc" />
  <path
     id="rect2730-7"
     style="opacity:0.8;fill:url(#linearGradient113015);fill-opacity:1;stroke-width:0.373534"
     d="M 2.533332,2.8911454 C 2.4651811,2.9357389 2.4368074,2.9951266 2.4280011,3.1429613 L 4.570866,19.571593 H 17.428054 L 19.570919,3.1429599 c -0.0088,-0.147832 -0.03719,-0.2072197 -0.105332,-0.2518159 0.05909,0.1204143 0.01402,0.2432281 -0.180661,0.2518159 H 2.7139971 C 2.5192903,3.1343766 2.4742489,3.0115609 2.533332,2.8911454 Z"
     sodipodi:nodetypes="ccccccccc" />
  <path
     id="rect2730-0"
     style="opacity:0.4;fill:url(#linearGradient91630);fill-opacity:1;stroke-width:0.373534"
     d="M 2.533332,2.8911454 C 2.4651811,2.9357389 2.4368074,2.9951293 2.4280011,3.1429613 L 4.5708675,19.571591 H 17.42806 L 19.570924,3.1429599 C 19.562224,2.9951279 19.533734,2.9357402 19.4656,2.891144 19.52468,3.0115583 19.47962,3.1343721 19.284931,3.1429599 H 2.7139977 C 2.5192908,3.1343766 2.4742441,3.0115609 2.533332,2.8911454 Z" />
  <path
     id="rect2730-0-1"
     style="opacity:0.4;fill:url(#linearGradient94280);fill-opacity:1;stroke-width:0.373534"
     d="M 2.5333309,2.8911454 C 2.46518,2.9357442 2.4368063,2.9951266 2.428,3.1429613 L 4.5708667,19.571591 H 17.42806 L 19.570924,3.142961 C 19.562224,2.995129 19.533734,2.9357413 19.4656,2.8911451 19.52468,3.0115537 19.47962,3.1343732 19.284931,3.142961 H 2.7139966 C 2.5192897,3.134321 2.474243,3.0115646 2.5333309,2.8911454 Z" />
  <path
     d="m 9.8950048,6.3572587 c -0.4623862,0 -0.8409342,0.2198287 -1.0723638,0.6222115 L 8.1204053,8.3895604 10.11319,9.4906947 11.124138,7.5438099 11.713751,6.3572587 Z"
     style="fill:#0068ba;fill-opacity:1;stroke-width:0.12599"
     id="path138735"
     sodipodi:nodetypes="scccccs" />
  <path
     d="m 10.285174,6.3572587 1.632717,2.9241178 -0.816595,0.4631709 2.60044,0.9464826 1.03754,-2.8724688 -0.803572,0.4752619 -0.851505,-1.618482 C 12.96181,6.4677203 12.754265,6.3572561 12.486169,6.3572561 Z"
     style="fill:#0091e6;fill-opacity:1;stroke-width:0.12599"
     id="path142126"
     sodipodi:nodetypes="cccccccsc" />
  <path
     d="m 15.8822,12.25998 -0.752293,-1.384033 -2.04501,1.00081 1.014938,1.944806 0.653507,1.42831 1.119471,-2.373291 c 0.135005,-0.287966 0.08329,-0.484988 0.0094,-0.616602 z"
     style="fill:#0068ba;fill-opacity:1;stroke-width:0.12599"
     id="path138735-0"
     sodipodi:nodetypes="ccccccc" />
  <path
     d="m 15.638765,13.371212 -2.88373,-0.0038 0.0072,-0.938779 -2.049271,2.020158 2.047141,2.093419 -0.0098,-0.933546 h 1.428577 c 0.240994,-0.0022 0.439401,-0.12729 0.574482,-0.35887 z"
     style="fill:#0091e6;fill-opacity:1;stroke-width:0.12599"
     id="path142126-6"
     sodipodi:nodetypes="ccccccccc" />
  <path
     d="m 7.3698104,15.202747 c 0.187714,0.311985 0.3836039,0.327314 0.5469713,0.347229 l 2.0112486,1.76e-4 v -2.405597 l -2.5562772,0.0023 -1.1293666,0.01421 z"
     style="fill:#0068ba;fill-opacity:1;stroke-width:0.12599"
     id="path146733"
     sodipodi:nodetypes="ccccccc" />
  <path
     d="M 7.2882588,15.053909 8.8220352,12.114667 9.651426,12.554515 8.7364107,9.8529382 5.9342605,10.70214 6.7668522,11.124509 6.1072087,12.391672 c -0.1093493,0.214776 -0.079302,0.442133 0.053076,0.67528 z"
     style="fill:#0091e6;fill-opacity:1;stroke-width:0.12599"
     id="path146730"
     sodipodi:nodetypes="cccccccsc" />
  <path
     id="rect2730-0-1-5"
     style="opacity:0.4;fill:url(#linearGradient1174);fill-opacity:1;stroke-width:0.373534"
     d="M 2.5340285,2.8917575 C 2.4658723,2.9363563 2.4368021,2.995041 2.4280011,3.1428757 l 0.064172,0.4966558 c 0.011664,-0.012601 0.026294,-0.023297 0.041845,-0.033483 -0.059085,0.1204187 -0.01474,0.2424793 0.1799663,0.2511182 H 19.285011 c 0.194702,-0.00858 0.239062,-0.1307097 0.179966,-0.2511182 0.01561,0.01022 0.0302,0.020821 0.04184,0.033483 l 0.06418,-0.4966558 c -0.0087,-0.1478321 -0.0379,-0.2065221 -0.106027,-0.2511182 0.0591,0.1204085 0.01474,0.2425307 -0.179966,0.2511182 H 2.7139966 C 2.5192897,3.1342357 2.4749449,3.012177 2.5340285,2.8917575 Z" />
</svg>
