<?xml version="1.0" encoding="UTF-8" standalone="no"?>
<!-- Created with Inkscape (http://www.inkscape.org/) -->

<svg
   width="24"
   height="24"
   viewBox="0 0 24 24"
   version="1.1"
   id="svg5"
   sodipodi:docname="battery-100-charged.svg"
   inkscape:version="1.3.2 (091e20ef0f, 2023-11-25, custom)"
   xmlns:inkscape="http://www.inkscape.org/namespaces/inkscape"
   xmlns:sodipodi="http://sodipodi.sourceforge.net/DTD/sodipodi-0.dtd"
   xmlns="http://www.w3.org/2000/svg"
   xmlns:svg="http://www.w3.org/2000/svg">
  <sodipodi:namedview
     id="namedview7"
     pagecolor="#ffffff"
     bordercolor="#666666"
     borderopacity="1.0"
     inkscape:showpageshadow="2"
     inkscape:pageopacity="0.0"
     inkscape:pagecheckerboard="0"
     inkscape:deskcolor="#d1d1d1"
     inkscape:document-units="px"
     showgrid="false"
     inkscape:zoom="13.001122"
     inkscape:cx="1.3844959"
     inkscape:cy="11.922048"
     inkscape:window-width="1920"
     inkscape:window-height="1008"
     inkscape:window-x="0"
     inkscape:window-y="0"
     inkscape:window-maximized="1"
     inkscape:current-layer="svg5"
     showguides="false" />
  <defs
     id="defs2">
    <style
       id="current-color-scheme"
       type="text/css">
   .ColorScheme-Text { color:#363636; } .ColorScheme-Highlight { color:#4285f4; } .ColorScheme-NeutralText { color:#ff9800; } .ColorScheme-PositiveText { color:#4caf50; } .ColorScheme-NegativeText { color:#f44336; }
   </style>
  </defs>
  <path
     id="path1017"
     style="fill:currentColor;fill-opacity:1"
     class="ColorScheme-Text"
     d="M 9.9980469,7.0003666 C 9.9986904,7.155465 9.9632515,7.3085875 9.8945312,7.4476322 L 9.6171875,8.0003666 H 17 c 0.553997,0 1,0.4460024 1,1 v 6.0000004 c 0,0.553996 -0.446003,1 -1,1 H 7 c -0.5539964,0 -1,-0.446004 -1,-1 v -4 -2.0000004 H 5 v 6.0000004 c 0,1.107996 0.8920041,2 2,2 h 10 c 1.107996,0 2,-0.892004 2,-2 v -0.863281 c 1.107997,0 2,-0.892004 2,-2.000001 0,-1.107996 -0.892003,-2 -2,-2 V 9.0003666 c 0,-1.1079956 -0.892004,-2 -2,-2 z m -0.8808594,2 -1.2226563,2.4472654 C 7.7234607,11.784138 7.3774914,11.995647 7,11.994507 v 3.00586 H 17 V 9.0003666 Z"
     sodipodi:nodetypes="cccsssssscccsssscscsscccccccc" />
  <path
     style="fill:currentColor;stroke:none;stroke-width:2;stroke-linecap:round;stroke-linejoin:round"
     class="ColorScheme-Text"
     d="M 7,4 V 7 H 9 L 7,11 V 8 H 5 Z"
     id="path1378" />
</svg>
