<?xml version="1.0" encoding="UTF-8" standalone="no"?>
<!-- Created with Inkscape (http://www.inkscape.org/) -->

<svg
   width="24"
   height="24"
   viewBox="0 0 24 24"
   version="1.1"
   id="svg423"
   inkscape:version="1.4.2 (ebf0e940d0, 2025-05-08)"
   sodipodi:docname="audio-volume-medium-symbolic.svg"
   xmlns:inkscape="http://www.inkscape.org/namespaces/inkscape"
   xmlns:sodipodi="http://sodipodi.sourceforge.net/DTD/sodipodi-0.dtd"
   xmlns="http://www.w3.org/2000/svg"
   xmlns:svg="http://www.w3.org/2000/svg">
  <sodipodi:namedview
     id="namedview425"
     pagecolor="#ffffff"
     bordercolor="#000000"
     borderopacity="0.25"
     inkscape:showpageshadow="2"
     inkscape:pageopacity="0.0"
     inkscape:pagecheckerboard="0"
     inkscape:deskcolor="#d1d1d1"
     inkscape:document-units="px"
     showgrid="false"
     inkscape:zoom="33.041667"
     inkscape:cx="12"
     inkscape:cy="12"
     inkscape:window-width="1920"
     inkscape:window-height="1007"
     inkscape:window-x="0"
     inkscape:window-y="0"
     inkscape:window-maximized="1"
     inkscape:current-layer="svg423" />
  <defs
     id="defs420">
    <style
       id="current-color-scheme"
       type="text/css">
        .ColorScheme-Text { color:#363636; } .ColorScheme-Highlight { color:#4285f4; } .ColorScheme-NeutralText { color:#ff9800; } .ColorScheme-PositiveText { color:#4caf50; } .ColorScheme-NegativeText { color:#f44336; }
     </style>
  </defs>
  <path
     id="path1"
     style="fill:currentColor"
     class="ColorScheme-Text"
     d="M 9.9863281,6.7089844 C 9.7273013,6.7127935 9.4779832,6.8165081 9.2929688,7.0019531 L 7.296875,9 H 6 C 4.9093011,9 4,9.9093011 4,11 v 2 c 0,1.090699 0.9093011,2 2,2 h 1.296875 l 1.9960938,1.998047 C 9.9229643,17.627548 10.999622,17.181615 11,16.291016 V 7.7089844 c -2.6e-5,-0.4044048 -0.243598,-0.768993 -0.617187,-0.9238282 -0.09097,-0.038013 -0.187061,-0.062365 -0.285157,-0.072266 -0.03725,-0.00362 -0.07432,-0.00445 -0.1113279,-0.00391 z M 10,7.7109375 V 16.289062 L 7.7109375,14 H 6 C 5.4460006,14 5,13.553999 5,13 v -2 c 0,-0.553999 0.4460006,-1 1,-1 h 1.7109375 z" />
  <path
     id="path2"
     style="opacity:0.2;fill:currentColor"
     class="ColorScheme-Text"
     d="m 16.716797,4.7832031 c -0.127944,0 -0.255889,0.048879 -0.353516,0.1464844 -0.195211,0.1952532 -0.195211,0.5117781 0,0.7070313 C 18.05128,7.3244171 18.9997,9.6130024 19,12 c -0.0097,2.382898 -0.964679,4.663252 -2.654297,6.34375 -0.197066,0.194919 -0.19787,0.512956 -0.002,0.708984 0.194919,0.197067 0.512956,0.19787 0.708984,0.002 C 18.930379,17.187242 19.9898,14.65005 20,12.001953 V 12 C 19.999599,9.3481996 18.945611,6.8045856 17.070312,4.9296875 16.972687,4.8320821 16.844741,4.7832031 16.716797,4.7832031 Z" />
  <path
     id="path3"
     style="fill:currentColor"
     class="ColorScheme-Text"
     d="m 14.595703,6.9042969 c -0.127944,0 -0.25589,0.048879 -0.353515,0.1464843 -0.195212,0.1952532 -0.195212,0.5117781 0,0.7070313 C 15.367585,8.8830114 15.9998,10.408602 16,12 c -0.0065,1.588498 -0.643292,3.108217 -1.769531,4.228516 -0.197067,0.194919 -0.19787,0.512956 -0.002,0.708984 0.194919,0.197067 0.512956,0.19787 0.708984,0.002 C 16.251846,15.632107 16.9931,13.855551 17,12.001953 V 12 C 16.99972,10.143799 16.261917,8.3631799 14.949219,7.0507812 14.851592,6.9531759 14.723647,6.9042969 14.595703,6.9042969 Z m -2.121094,2.1210937 c -0.132601,1.77e-5 -0.259761,0.052712 -0.353515,0.1464844 -0.195211,0.1952532 -0.195211,0.5117781 0,0.7070312 C 12.683863,10.441556 12.99988,11.204201 13,12 c -0.0033,0.794099 -0.321816,1.555135 -0.884766,2.115234 -0.19521,0.195254 -0.19521,0.511778 0,0.707032 0.195254,0.19521 0.511778,0.19521 0.707032,0 C 13.573125,14.075116 13.9963,13.061152 14,12.001953 V 12 C 13.99984,10.939398 13.578194,9.9217743 12.828125,9.171875 12.734371,9.0781028 12.607211,9.0254083 12.474609,9.0253906 Z" />
</svg>
