<?xml version="1.0" encoding="UTF-8" standalone="no"?>
<!-- Created with Inkscape (http://www.inkscape.org/) -->

<svg
   width="24"
   height="24"
   viewBox="0 0 24 24"
   version="1.1"
   id="svg423"
   inkscape:version="1.4.2 (ebf0e940d0, 2025-05-08)"
   sodipodi:docname="audio-volume-overamplified-symbolic.svg"
   xmlns:inkscape="http://www.inkscape.org/namespaces/inkscape"
   xmlns:sodipodi="http://sodipodi.sourceforge.net/DTD/sodipodi-0.dtd"
   xmlns="http://www.w3.org/2000/svg"
   xmlns:svg="http://www.w3.org/2000/svg">
  <sodipodi:namedview
     id="namedview425"
     pagecolor="#ffffff"
     bordercolor="#000000"
     borderopacity="0.25"
     inkscape:showpageshadow="2"
     inkscape:pageopacity="0.0"
     inkscape:pagecheckerboard="0"
     inkscape:deskcolor="#d1d1d1"
     inkscape:document-units="px"
     showgrid="false"
     inkscape:zoom="33.041667"
     inkscape:cx="12"
     inkscape:cy="12"
     inkscape:window-width="1920"
     inkscape:window-height="1007"
     inkscape:window-x="0"
     inkscape:window-y="0"
     inkscape:window-maximized="1"
     inkscape:current-layer="svg423" />
  <defs
     id="defs420">
    <style
       id="current-color-scheme"
       type="text/css">
        .ColorScheme-Text { color:#363636; } .ColorScheme-Highlight { color:#4285f4; } .ColorScheme-NeutralText { color:#ff9800; } .ColorScheme-PositiveText { color:#4caf50; } .ColorScheme-NegativeText { color:#f44336; }
     </style>
  </defs>
  <path
     id="path408"
     style="fill:currentColor"
     class="ColorScheme-Text"
     d="M 19.5,5 C 19.223,5 19,5.2230006 19,5.5 v 13 c 0,0.277 0.223,0.5 0.5,0.5 0.277,0 0.5,-0.223 0.5,-0.5 V 5.5 C 20,5.2230006 19.777,5 19.5,5 Z M 9.9863281,6.7089844 C 9.7273022,6.7127935 9.4779826,6.8165087 9.2929688,7.0019531 L 7.296875,9 H 6 C 4.9093044,9 4,9.9093044 4,11 v 2 c 0,1.090696 0.9093044,2 2,2 h 1.296875 l 1.9960938,1.998047 C 9.9229623,17.627545 10.999622,17.181612 11,16.291016 V 7.7089844 c -2.6e-5,-0.4044036 -0.243599,-0.7689933 -0.617187,-0.9238282 -0.09097,-0.038013 -0.187061,-0.062365 -0.285157,-0.072266 -0.03725,-0.00362 -0.07432,-0.00445 -0.1113279,-0.00391 z M 16.5,7 C 16.223,7 16,7.2230006 16,7.5 v 9 c 0,0.277 0.223,0.5 0.5,0.5 0.277,0 0.5,-0.223 0.5,-0.5 v -9 C 17,7.2230006 16.777,7 16.5,7 Z M 10,7.7109375 V 16.289062 L 7.7109375,14 H 6 C 5.4460024,14 5,13.553997 5,13 V 11 C 5,10.446002 5.4460024,10 6,10 H 7.7109375 Z M 13.5,9 C 13.223001,9 13,9.2230006 13,9.5 v 5 c 0,0.277 0.223001,0.5 0.5,0.5 0.276999,0 0.5,-0.223 0.5,-0.5 v -5 C 14,9.2230006 13.776999,9 13.5,9 Z" />
</svg>
