<?xml version="1.0" encoding="UTF-8" standalone="no"?>
<!-- Created with Inkscape (http://www.inkscape.org/) -->

<svg
   width="24"
   height="24"
   viewBox="0 0 24 24"
   version="1.1"
   id="svg5"
   sodipodi:docname="notification-disabled-new-symbolic.svg"
   inkscape:version="1.4.2 (ebf0e940d0, 2025-05-08)"
   xmlns:inkscape="http://www.inkscape.org/namespaces/inkscape"
   xmlns:sodipodi="http://sodipodi.sourceforge.net/DTD/sodipodi-0.dtd"
   xmlns="http://www.w3.org/2000/svg"
   xmlns:svg="http://www.w3.org/2000/svg">
  <sodipodi:namedview
     id="namedview7"
     pagecolor="#ffffff"
     bordercolor="#000000"
     borderopacity="0.25"
     inkscape:showpageshadow="2"
     inkscape:pageopacity="0.0"
     inkscape:pagecheckerboard="0"
     inkscape:deskcolor="#d1d1d1"
     inkscape:document-units="px"
     showgrid="false"
     inkscape:zoom="33.208333"
     inkscape:cx="12"
     inkscape:cy="12"
     inkscape:window-width="1920"
     inkscape:window-height="1011"
     inkscape:window-x="0"
     inkscape:window-y="0"
     inkscape:window-maximized="1"
     inkscape:current-layer="svg5"
     showguides="false" />
  <defs
     id="defs2">
    <style
       id="current-color-scheme"
       type="text/css">
        .ColorScheme-Text { color:#363636; } .ColorScheme-Highlight { color:#3daee9; } .ColorScheme-NeutralText { color:#ff9800; } .ColorScheme-PositiveText { color:#4caf50; } .ColorScheme-NegativeText { color:#f44336; }
     </style>
  </defs>
  <path
     id="path1"
     style="opacity:0.2;fill:currentColor"
     class="ColorScheme-Text"
     d="M 11.994141,5 C 8.7675601,5 6.1225995,7.4512776 6,10.568359 l -0.00391,0.22461 v 3.607422 l -0.9238282,2.216797 -0.042969,0.126953 -0.021484,0.126953 c -0.0504,0.463494 0.192738,0.881764 0.6035156,1.052734 l 0.125,0.04297 C 5.8208988,17.989594 5.9081438,18 5.9960938,18 H 9 c 0.348906,1.113461 1.122773,2.002544 3,2 1.877228,0.0025 2.651093,-0.886539 3,-2 h 2.998047 l 0.134765,-0.0098 0.115235,-0.02734 c 0.452694,-0.129 0.75,-0.514891 0.75,-0.962891 l -0.0098,-0.130859 -0.01367,-0.08594 c -0.0127,-0.0569 -0.03013,-0.11192 -0.05273,-0.166015 l -0.925781,-2.21875 V 10.867188 A 4,4 0 0 1 17,11 4,4 0 0 1 16.9961,11 v 3.599609 l 0.998047,2.388672 v 0.0059 0.002 h -0.0039 L 6,17 H 5.99805 5.9961 c 0.00154,-0.0026 0.00377,-0.0023 0.00586,-0.02148 v 0.0098 L 6.00782,16.96879 6.9961013,14.599649 V 10.800781 L 7,10.607422 C 7.1012108,8.0341426 9.2740298,6 11.994141,6 c 0.384589,0 0.75682,0.041838 1.115234,0.1191406 A 4,4 0 0 1 13.451172,5.171875 C 12.98414,5.059625 12.496719,5 11.994141,5 Z M 10,18 h 4 c -0.27502,0.473148 -0.737099,1.0019 -2,1 -1.262901,0.0019 -1.72498,-0.526852 -2,-1 z" />
  <circle
     style="fill:currentColor"
     id="path2"
     class="ColorScheme-Highlight question"
     cx="17"
     cy="7"
     r="3" />
</svg>
