<?xml version="1.0" encoding="UTF-8" standalone="no"?>
<!-- Created with Inkscape (http://www.inkscape.org/) -->

<svg
   width="22"
   height="22"
   viewBox="0 0 22 22"
   version="1.1"
   id="svg423"
   inkscape:version="1.4.2 (ebf0e940d0, 2025-05-08)"
   sodipodi:docname="audio-volume-muted-symbolic.svg"
   xmlns:inkscape="http://www.inkscape.org/namespaces/inkscape"
   xmlns:sodipodi="http://sodipodi.sourceforge.net/DTD/sodipodi-0.dtd"
   xmlns="http://www.w3.org/2000/svg"
   xmlns:svg="http://www.w3.org/2000/svg">
  <sodipodi:namedview
     id="namedview425"
     pagecolor="#ffffff"
     bordercolor="#000000"
     borderopacity="0.25"
     inkscape:showpageshadow="2"
     inkscape:pageopacity="0.0"
     inkscape:pagecheckerboard="0"
     inkscape:deskcolor="#d1d1d1"
     inkscape:document-units="px"
     showgrid="false"
     inkscape:zoom="36.045455"
     inkscape:cx="11"
     inkscape:cy="11"
     inkscape:window-width="1920"
     inkscape:window-height="1007"
     inkscape:window-x="0"
     inkscape:window-y="0"
     inkscape:window-maximized="1"
     inkscape:current-layer="svg423" />
  <defs
     id="defs420">
    <style
       id="current-color-scheme"
       type="text/css">
        .ColorScheme-Text { color:#dedede; } .ColorScheme-Highlight { color:#4285f4; } .ColorScheme-NeutralText { color:#ff9800; } .ColorScheme-PositiveText { color:#4caf50; } .ColorScheme-NegativeText { color:#f44336; }
     </style>
  </defs>
  <path
     id="path408"
     style="fill:currentColor"
     class="ColorScheme-Text"
     d="M 8.9863281,5.7091544 C 8.7273022,5.7129635 8.4779826,5.8166787 8.2929688,6.0021231 L 6.296875,8.00017 H 5 c -1.0906956,0 -2,0.9093044 -2,2 v 2 c 0,1.090696 0.9093044,2 2,2 h 1.296875 l 1.9960938,1.998047 C 8.9229623,16.627715 9.999622,16.181782 10,15.291186 V 6.7091544 C 9.999974,6.3047508 9.756401,5.9401611 9.382813,5.7853262 9.291843,5.7473132 9.195752,5.7229612 9.097656,5.7130602 9.060406,5.7094402 9.023336,5.7086102 8.9863281,5.7091502 Z M 9,6.7111075 V 15.289232 L 6.7109375,13.00017 H 5 c -0.5539976,0 -1,-0.446003 -1,-1 v -2 c 0,-0.553998 0.4460024,-1 1,-1 h 1.7109375 z m 3.878906,1.3789063 c -0.127809,0 -0.255581,0.04855 -0.353515,0.1464843 -0.195869,0.1958683 -0.195868,0.5111625 0,0.7070313 l 2.060547,2.0605466 -2.060547,2.060547 c -0.195859,0.195878 -0.195869,0.511164 0,0.707031 0.195868,0.195869 0.511172,0.195879 0.707031,0 l 2.060547,-2.060546 2.060547,2.060546 c 0.195868,0.195869 0.511162,0.195869 0.707031,0 0.195868,-0.195867 0.195868,-0.511164 0,-0.707031 L 16,11.004076 18.060547,8.9435294 c 0.195877,-0.1958585 0.195868,-0.5111629 0,-0.7070313 -0.195869,-0.1958683 -0.511155,-0.1958584 -0.707031,0 L 15.292969,10.297045 13.232422,8.2364981 C 13.134487,8.1385641 13.006716,8.0900138 12.878906,8.0900138 Z" />
</svg>
