<?xml version="1.0" encoding="UTF-8" standalone="no"?>
<!-- Created with Inkscape (http://www.inkscape.org/) -->

<svg
   width="22"
   height="22"
   viewBox="0 0 22 22"
   version="1.1"
   id="svg423"
   inkscape:version="1.4.2 (ebf0e940d0, 2025-05-08)"
   sodipodi:docname="audio-volume-medium-symbolic.svg"
   xmlns:inkscape="http://www.inkscape.org/namespaces/inkscape"
   xmlns:sodipodi="http://sodipodi.sourceforge.net/DTD/sodipodi-0.dtd"
   xmlns="http://www.w3.org/2000/svg"
   xmlns:svg="http://www.w3.org/2000/svg">
  <sodipodi:namedview
     id="namedview425"
     pagecolor="#ffffff"
     bordercolor="#000000"
     borderopacity="0.25"
     inkscape:showpageshadow="2"
     inkscape:pageopacity="0.0"
     inkscape:pagecheckerboard="0"
     inkscape:deskcolor="#d1d1d1"
     inkscape:document-units="px"
     showgrid="false"
     inkscape:zoom="36.045455"
     inkscape:cx="11"
     inkscape:cy="11"
     inkscape:window-width="1920"
     inkscape:window-height="1007"
     inkscape:window-x="0"
     inkscape:window-y="0"
     inkscape:window-maximized="1"
     inkscape:current-layer="svg423" />
  <defs
     id="defs420">
    <style
       id="current-color-scheme"
       type="text/css">
        .ColorScheme-Text { color:#dedede; } .ColorScheme-Highlight { color:#4285f4; } .ColorScheme-NeutralText { color:#ff9800; } .ColorScheme-PositiveText { color:#4caf50; } .ColorScheme-NegativeText { color:#f44336; }
     </style>
  </defs>
  <path
     id="path1"
     style="fill:currentColor"
     class="ColorScheme-Text"
     d="M 8.9863281,5.7087813 C 8.7273013,5.7125904 8.4779832,5.816305 8.2929688,6.00175 L 6.296875,7.9997969 H 5 c -1.0906989,0 -2,0.9093011 -2,2 v 2.0000001 c 0,1.090699 0.9093011,2 2,2 h 1.296875 l 1.9960938,1.998047 C 8.9229643,16.627345 9.999622,16.181412 10,15.290813 V 6.7087813 C 9.999974,6.3043765 9.756402,5.9397883 9.382813,5.7849531 9.291843,5.7469401 9.195752,5.7225881 9.097656,5.7126871 9.060406,5.7090671 9.023336,5.7082371 8.9863281,5.7087771 Z M 9,6.7107344 V 15.288859 L 6.7109375,12.999797 H 5 c -0.5539994,0 -1,-0.446001 -1,-1 V 9.9997969 c 0,-0.553999 0.4460006,-1 1,-1 h 1.7109375 z" />
  <path
     id="path2"
     style="opacity:0.2;fill:currentColor"
     class="ColorScheme-Text"
     d="m 15.716797,3.783 c -0.127944,0 -0.255889,0.048879 -0.353516,0.1464844 -0.195211,0.1952532 -0.195211,0.5117781 0,0.7070313 C 17.05128,6.324214 17.9997,8.6127993 18,10.999797 c -0.0097,2.382898 -0.964679,4.663252 -2.654297,6.34375 -0.197066,0.194919 -0.19787,0.512956 -0.002,0.708984 0.194919,0.197067 0.512956,0.19787 0.708984,0.002 C 17.930379,16.187039 18.9898,13.649847 19,11.00175 v -0.002 C 18.999599,8.3479965 17.945611,5.8043825 16.070312,3.9294844 15.972687,3.831879 15.844741,3.783 15.716797,3.783 Z" />
  <path
     id="path3"
     style="fill:currentColor"
     class="ColorScheme-Text"
     d="m 13.595703,5.9040938 c -0.127944,0 -0.25589,0.048879 -0.353515,0.1464843 -0.195212,0.1952532 -0.195212,0.5117781 0,0.7070313 C 14.367585,7.8828083 14.9998,9.4083989 15,10.999797 c -0.0065,1.588498 -0.643292,3.108217 -1.769531,4.228516 -0.197067,0.194919 -0.19787,0.512956 -0.002,0.708984 0.194919,0.197067 0.512956,0.19787 0.708984,0.002 C 15.251846,14.631904 15.9931,12.855348 16,11.00175 v -0.002 C 15.99972,9.1435959 15.261917,7.3629768 13.949219,6.0505781 13.851592,5.9529728 13.723647,5.9040938 13.595703,5.9040938 Z m -2.121094,2.1210937 c -0.132601,1.77e-5 -0.259761,0.052712 -0.353515,0.1464844 -0.195211,0.1952532 -0.195211,0.5117781 0,0.7070312 C 11.683863,9.4413529 11.99988,10.203998 12,10.999797 c -0.0033,0.794099 -0.321816,1.555135 -0.884766,2.115234 -0.19521,0.195254 -0.19521,0.511778 0,0.707032 0.195254,0.19521 0.511778,0.19521 0.707032,0 C 12.573125,13.074913 12.9963,12.060949 13,11.00175 v -0.002 C 12.99984,9.9391949 12.578194,8.9215712 11.828125,8.1716719 11.734371,8.0778997 11.607211,8.0252052 11.474609,8.0251875 Z" />
</svg>
