<?xml version="1.0" encoding="UTF-8" standalone="no"?>
<!-- Created with Inkscape (http://www.inkscape.org/) -->

<svg
   width="22"
   height="22"
   viewBox="0 0 22 22"
   version="1.1"
   id="svg2098"
   sodipodi:docname="network-unavailable-symbolic.svg"
   inkscape:version="1.4.2 (ebf0e940d0, 2025-05-08)"
   xmlns:inkscape="http://www.inkscape.org/namespaces/inkscape"
   xmlns:sodipodi="http://sodipodi.sourceforge.net/DTD/sodipodi-0.dtd"
   xmlns="http://www.w3.org/2000/svg"
   xmlns:svg="http://www.w3.org/2000/svg">
  <sodipodi:namedview
     id="namedview2100"
     pagecolor="#ffffff"
     bordercolor="#000000"
     borderopacity="0.25"
     inkscape:showpageshadow="2"
     inkscape:pageopacity="0.0"
     inkscape:pagecheckerboard="0"
     inkscape:deskcolor="#d1d1d1"
     inkscape:document-units="px"
     showgrid="false"
     inkscape:zoom="36.045455"
     inkscape:cx="11"
     inkscape:cy="11"
     inkscape:window-width="1920"
     inkscape:window-height="1007"
     inkscape:window-x="0"
     inkscape:window-y="0"
     inkscape:window-maximized="1"
     inkscape:current-layer="svg2098" />
  <defs
     id="defs2">
    <style
       id="current-color-scheme"
       type="text/css">
        .ColorScheme-Text { color:#dedede; } .ColorScheme-Highlight { color:#4285f4; } .ColorScheme-NeutralText { color:#ff9800; } .ColorScheme-PositiveText { color:#4caf50; } .ColorScheme-NegativeText { color:#f44336; }
     </style>
  </defs>
  <path
     d="M 10.999996,3 C 10.910359,3 10.822538,3.00792 10.734371,3.019531 7.5830001,3.1288764 4.7898359,5.0791964 3.6015586,7.9999998 h -0.013672 c -0.1312064,0.3257697 -0.2408185,0.6598257 -0.328125,1 h 0.00977 C 3.0956239,9.652616 3.0050598,10.324629 3,11 c 0.00506,0.675371 0.095624,1.347383 0.2695313,2 h -0.00977 c 0.087307,0.340174 0.1969186,0.67423 0.328125,1 h 0.013672 c 1.1882773,2.920804 3.9814414,4.871124 7.1328127,4.980469 0.08817,0.01161 0.175988,0.01953 0.265625,0.01953 0.08964,0 0.177457,-0.0079 0.265625,-0.01953 0.245863,-0.01472 0.490916,-0.04079 0.734375,-0.07813 V 17.595703 C 11.687062,17.855254 11.351376,18 10.999996,18 10.940696,17.9962 10.881445,17.9916 10.822261,17.98633 9.7024333,17.833521 8.7507789,16.24454 8.2929646,14.000002 h 3.7070314 v -1 H 8.1249958 c -0.080913,-0.634009 -0.125,-1.304655 -0.125,-2 0,-0.695345 0.044087,-1.365992 0.125,-2 h 5.7500002 c 0.08091,0.634008 0.125,1.304655 0.125,2 0,0.339604 -0.0091,0.67357 -0.0293,1 h 0.99805 c 0.02018,-0.327637 0.03125,-0.661472 0.03125,-1 0,-0.690355 -0.04279,-1.360964 -0.125,-2 h 2.832031 c 0.193902,0.648982 0.292587,1.32267 0.292969,2 -8.02e-4,0.334679 -0.02561,0.66887 -0.07422,1 h 1.001953 c 0.04497,-0.331494 0.06911,-0.665484 0.07227,-1 -0.0051,-0.675371 -0.09563,-1.347383 -0.269532,-2 h 0.01563 c -0.08795,-0.340221 -0.198213,-0.6742778 -0.330082,-1 h -0.01758 C 17.210156,5.0791964 14.416992,3.1288764 11.265621,3.0195312 11.177453,3.0079213 11.089632,3.0000003 10.999996,3 Z m 0,1 c 1.19598,-10e-8 2.225153,1.6374841 2.707031,4 H 8.2929649 C 8.7507793,5.7554627 9.7024343,4.1664809 10.822261,4.0136719 10.881445,4.0083619 10.940695,4.0038019 10.999996,4 Z m 2.236328,0.3671875 C 15.034447,4.9741767 16.509051,6.2852487 17.322262,8 H 14.70898 C 14.408386,6.5156418 13.891342,5.2522305 13.236324,4.3671875 Z m -4.4765623,0.00586 C 8.1067005,5.2578133 7.5909749,6.5187621 7.2910117,8 H 4.6894492 C 5.5003275,6.2906365 6.9685994,4.9822964 8.7597617,4.3730475 Z M 4.3027305,9 h 2.8222656 c -0.082208,0.639036 -0.125,1.309645 -0.125,2 0,0.690355 0.042792,1.360964 0.125,2 H 4.3027305 C 4.1055203,12.351506 4.0035444,11.677807 3.9999961,11 4.0035461,10.322192 4.1055203,9.648494 4.3027305,9 Z m 0.3867187,5 h 2.6015625 c 0.2999632,1.481239 0.8156887,2.742187 1.46875,3.626953 C 6.9685994,17.017704 5.5003276,15.709363 4.6894492,14 Z m 13.6034368,-0.656855 -2.121319,2.12132 -2.12132,-2.12132 -0.707107,0.707107 2.121319,2.12132 -2.121319,2.12132 0.707107,0.707107 2.12132,-2.12132 2.12132,2.12132 0.707107,-0.707107 -2.12132,-2.12132 2.12132,-2.12132 z"
     style="fill:currentColor"
     class="ColorScheme-Text"
     id="path1" />
</svg>
