<?xml version="1.0" encoding="UTF-8" standalone="no"?>
<!-- Created with Inkscape (http://www.inkscape.org/) -->

<svg
   width="48"
   height="48"
   viewBox="0 0 48 48"
   version="1.1"
   id="svg993"
   inkscape:version="1.2.1 (9c6d41e410, 2022-07-14, custom)"
   sodipodi:docname="bluetooth.svg"
   xmlns:inkscape="http://www.inkscape.org/namespaces/inkscape"
   xmlns:sodipodi="http://sodipodi.sourceforge.net/DTD/sodipodi-0.dtd"
   xmlns="http://www.w3.org/2000/svg"
   xmlns:svg="http://www.w3.org/2000/svg">
  <sodipodi:namedview
     id="namedview995"
     pagecolor="#ffffff"
     bordercolor="#666666"
     borderopacity="1.0"
     inkscape:pageshadow="2"
     inkscape:pageopacity="0.0"
     inkscape:pagecheckerboard="0"
     inkscape:document-units="px"
     showgrid="false"
     units="px"
     inkscape:zoom="16.833333"
     inkscape:cx="24"
     inkscape:cy="24"
     inkscape:window-width="1920"
     inkscape:window-height="1010"
     inkscape:window-x="0"
     inkscape:window-y="0"
     inkscape:window-maximized="1"
     inkscape:current-layer="svg993"
     inkscape:showpageshadow="2"
     inkscape:deskcolor="#d1d1d1" />
  <defs
     id="defs990" />
  <rect
     style="fill:#1e91fa;fill-opacity:1;stroke-width:2.25;stroke-linecap:round;stroke-linejoin:round"
     id="rect1076"
     width="30"
     height="42"
     x="9"
     y="3"
     ry="15" />
  <path
     d="m 23.6445,10.061938 c -0.388086,0.14754 -0.644628,0.519541 -0.644628,0.934721 v 10.656405 l -6.381984,-5.443085 c -0.434286,-0.3412 -1.062934,-0.26578 -1.404156,0.1685 -0.341226,0.43428 -0.265784,1.06292 0.1685,1.40414 L 22.744828,23.996104 15.382232,30.21 c -0.434284,0.3412 -0.509726,0.9698 -0.1685,1.404 0.341222,0.4344 0.96987,0.5098 1.404156,0.1686 l 6.381984,-5.443296 V 36.99598 c 0,0.4152 0.256542,0.7872 0.644628,0.9348 0.388085,0.1476 0.826971,0.04 1.102813,-0.2704 l 8.000094,-6.999876 c 0.18318,-0.206 0.273164,-0.4786 0.248622,-0.7534 -0.02454,-0.2746 -0.1614,-0.527 -0.378224,-0.6972 l -6.635678,-5.2138 6.635678,-5.213601 c 0.216824,-0.17036 0.353684,-0.4227 0.378224,-0.69734 0.02454,-0.27466 -0.06544,-0.54724 -0.248622,-0.75334 L 24.747313,10.332218 C 24.434837,10.05882 24.032585,9.9143181 23.6445,10.061858 Z m 1.355397,15.706006 5.14628,4.358 -5.14628,4.239876 z m 0,-3.5436 v -8.597605 l 5.14628,4.239604 z"
     id="path346"
     sodipodi:nodetypes="csccsccccccssccccccscscccccccccc"
     style="fill:#ffffff;stroke-width:2.00002" />
</svg>
