<?xml version="1.0" encoding="UTF-8" standalone="no"?>
<svg
   width="48"
   height="48"
   version="1.1"
   viewBox="0 0 48 48"
   id="svg6"
   sodipodi:docname="drive-multidisk.svg"
   inkscape:version="1.2.1 (9c6d41e410, 2022-07-14, custom)"
   xmlns:inkscape="http://www.inkscape.org/namespaces/inkscape"
   xmlns:sodipodi="http://sodipodi.sourceforge.net/DTD/sodipodi-0.dtd"
   xmlns:xlink="http://www.w3.org/1999/xlink"
   xmlns="http://www.w3.org/2000/svg"
   xmlns:svg="http://www.w3.org/2000/svg"
   xmlns:rdf="http://www.w3.org/1999/02/22-rdf-syntax-ns#"
   xmlns:cc="http://creativecommons.org/ns#"
   xmlns:dc="http://purl.org/dc/elements/1.1/">
  <defs
     id="defs10">
    <linearGradient
       inkscape:collect="always"
       id="linearGradient58462">
      <stop
         style="stop-color:#636363;stop-opacity:1;"
         offset="0"
         id="stop58458" />
      <stop
         style="stop-color:#ababab;stop-opacity:0.99607843"
         offset="1"
         id="stop58460" />
    </linearGradient>
    <linearGradient
       inkscape:collect="always"
       id="linearGradient50927">
      <stop
         style="stop-color:#000000;stop-opacity:1;"
         offset="0"
         id="stop50923" />
      <stop
         style="stop-color:#000000;stop-opacity:0;"
         offset="1"
         id="stop50925" />
    </linearGradient>
    <linearGradient
       inkscape:collect="always"
       id="linearGradient50337">
      <stop
         style="stop-color:#ffffff;stop-opacity:1;"
         offset="0"
         id="stop50333" />
      <stop
         style="stop-color:#ffffff;stop-opacity:0;"
         offset="1"
         id="stop50335" />
    </linearGradient>
    <linearGradient
       inkscape:collect="always"
       id="linearGradient48004">
      <stop
         style="stop-color:#ffffff;stop-opacity:0"
         offset="0"
         id="stop48000" />
      <stop
         style="stop-color:#ffffff;stop-opacity:1"
         offset="0.50032598"
         id="stop48328" />
      <stop
         style="stop-color:#ffffff;stop-opacity:0;"
         offset="1"
         id="stop48002" />
    </linearGradient>
    <linearGradient
       inkscape:collect="always"
       id="linearGradient10484">
      <stop
         style="stop-color:#2e2e2e;stop-opacity:1;"
         offset="0"
         id="stop10480" />
      <stop
         style="stop-color:#616161;stop-opacity:1"
         offset="1"
         id="stop10482" />
    </linearGradient>
    <linearGradient
       inkscape:collect="always"
       xlink:href="#linearGradient10484"
       id="linearGradient10486"
       x1="8.9135923"
       y1="13.009702"
       x2="8.9135923"
       y2="19.269016"
       gradientUnits="userSpaceOnUse"
       gradientTransform="matrix(1.8857358,0,0,1.9171434,7.1913168,3.0580799)" />
    <linearGradient
       inkscape:collect="always"
       xlink:href="#linearGradient48004"
       id="linearGradient48006"
       x1="0.54178363"
       y1="10.597012"
       x2="3.0651259"
       y2="13.265047"
       gradientUnits="userSpaceOnUse"
       gradientTransform="matrix(2.8347014,0,0,2.8347014,1.3425466e-6,4.7495463)" />
    <radialGradient
       inkscape:collect="always"
       xlink:href="#linearGradient50337"
       id="radialGradient50339"
       cx="3.5557096"
       cy="10.338881"
       fx="3.5557096"
       fy="10.338881"
       r="0.66144532"
       gradientUnits="userSpaceOnUse"
       gradientTransform="matrix(3.0236814,0,0,3.0236814,-1.5999994,3.1995474)" />
    <linearGradient
       inkscape:collect="always"
       xlink:href="#linearGradient50927"
       id="linearGradient50929"
       x1="0.81698829"
       y1="6.6935077"
       x2="2.7050784"
       y2="7.9747996"
       gradientUnits="userSpaceOnUse"
       gradientTransform="matrix(2.8263539,0,0,2.8263539,0.013252,4.8180108)" />
    <linearGradient
       inkscape:collect="always"
       xlink:href="#linearGradient50927"
       id="linearGradient51339"
       gradientUnits="userSpaceOnUse"
       x1="0.81698829"
       y1="6.6935077"
       x2="2.7050784"
       y2="7.9747996"
       gradientTransform="matrix(-2.8263539,0,0,2.8263539,47.871903,4.8180108)" />
    <linearGradient
       inkscape:collect="always"
       xlink:href="#linearGradient58462"
       id="linearGradient58464"
       x1="9.5248117"
       y1="8.3342104"
       x2="9.5248108"
       y2="12.787942"
       gradientUnits="userSpaceOnUse"
       gradientTransform="matrix(2.8347014,0,0,2.8347014,1.3425466e-6,4.7495463)" />
    <linearGradient
       inkscape:collect="always"
       xlink:href="#linearGradient48004"
       id="linearGradient71108"
       gradientUnits="userSpaceOnUse"
       x1="0.54178363"
       y1="10.597012"
       x2="3.0651259"
       y2="13.265047"
       gradientTransform="matrix(-2.8347014,0,0,2.8347014,47.999994,4.7495463)" />
    <filter
       inkscape:collect="always"
       style="color-interpolation-filters:sRGB"
       id="filter1734"
       x="-0.26507999"
       y="-0.26507999"
       width="1.53016"
       height="1.53016">
      <feGaussianBlur
         inkscape:collect="always"
         stdDeviation="0.11689062"
         id="feGaussianBlur1736" />
    </filter>
    <linearGradient
       inkscape:collect="always"
       xlink:href="#linearGradient50927"
       id="linearGradient50929-5"
       x1="0.81698829"
       y1="6.6935077"
       x2="2.7050784"
       y2="7.9747996"
       gradientUnits="userSpaceOnUse"
       gradientTransform="matrix(2.8263539,0,0,2.8263539,0.01325217,-8.1819873)" />
    <linearGradient
       inkscape:collect="always"
       xlink:href="#linearGradient50927"
       id="linearGradient51339-2"
       gradientUnits="userSpaceOnUse"
       x1="0.81698829"
       y1="6.6935077"
       x2="2.7050784"
       y2="7.9747996"
       gradientTransform="matrix(-2.8263539,0,0,2.8263539,47.871903,-8.1819873)" />
    <linearGradient
       inkscape:collect="always"
       xlink:href="#linearGradient58462"
       id="linearGradient58464-8"
       x1="9.5248117"
       y1="8.3342104"
       x2="9.5248108"
       y2="12.787942"
       gradientUnits="userSpaceOnUse"
       gradientTransform="matrix(2.8347014,0,0,2.8347014,1.5160248e-6,-8.2504516)" />
    <linearGradient
       inkscape:collect="always"
       xlink:href="#linearGradient48004"
       id="linearGradient48006-3"
       x1="0.54178363"
       y1="10.597012"
       x2="3.0651259"
       y2="13.265047"
       gradientUnits="userSpaceOnUse"
       gradientTransform="matrix(2.8347014,0,0,2.8347014,1.5160248e-6,-8.2504516)" />
    <linearGradient
       inkscape:collect="always"
       xlink:href="#linearGradient48004"
       id="linearGradient71108-9"
       gradientUnits="userSpaceOnUse"
       x1="0.54178363"
       y1="10.597012"
       x2="3.0651259"
       y2="13.265047"
       gradientTransform="matrix(-2.8347014,0,0,2.8347014,47.999994,-8.2504516)" />
    <linearGradient
       inkscape:collect="always"
       xlink:href="#linearGradient10484"
       id="linearGradient10486-3"
       x1="8.9135923"
       y1="13.009702"
       x2="8.9135923"
       y2="19.269016"
       gradientUnits="userSpaceOnUse"
       gradientTransform="matrix(1.8857358,0,0,1.9171434,7.1913168,-9.9419187)" />
    <filter
       inkscape:collect="always"
       style="color-interpolation-filters:sRGB"
       id="filter1734-4"
       x="-0.26507999"
       y="-0.26507999"
       width="1.53016"
       height="1.53016">
      <feGaussianBlur
         inkscape:collect="always"
         stdDeviation="0.11689062"
         id="feGaussianBlur1736-7" />
    </filter>
    <radialGradient
       inkscape:collect="always"
       xlink:href="#linearGradient50337"
       id="radialGradient50339-8"
       cx="3.5557096"
       cy="10.338881"
       fx="3.5557096"
       fy="10.338881"
       r="0.66144532"
       gradientUnits="userSpaceOnUse"
       gradientTransform="matrix(3.0236814,0,0,3.0236814,-1.599999,-9.8004499)" />
  </defs>
  <sodipodi:namedview
     id="namedview8"
     pagecolor="#ffffff"
     bordercolor="#666666"
     borderopacity="1.0"
     inkscape:pageshadow="2"
     inkscape:pageopacity="0.0"
     inkscape:pagecheckerboard="0"
     showgrid="false"
     inkscape:zoom="16.833333"
     inkscape:cx="24"
     inkscape:cy="24"
     inkscape:window-width="1920"
     inkscape:window-height="1010"
     inkscape:window-x="0"
     inkscape:window-y="0"
     inkscape:window-maximized="1"
     inkscape:current-layer="svg6"
     inkscape:showpageshadow="2"
     inkscape:deskcolor="#d1d1d1" />
  <metadata
     id="metadata2">
    <rdf:RDF>
      <cc:Work
         rdf:about="">
        <dc:format>image/svg+xml</dc:format>
        <dc:type
           rdf:resource="http://purl.org/dc/dcmitype/StillImage" />
      </cc:Work>
    </rdf:RDF>
  </metadata>
  <path
     id="rect31485"
     style="opacity:1;fill:#e1e3e6;fill-opacity:1;stroke-width:1.49558;stroke-linecap:round;stroke-linejoin:round;stroke-dasharray:17.9471, 1.49558"
     d="m 13.441365,19.026046 c -0.666201,-0.0037 -1.186294,0.203898 -1.431319,0.445462 l -8.5674694,8.966195 1.0574235,-0.438159 h 8.9734969 20.93816 8.973493 l 1.057423,0.438159 -8.567465,-8.966195 c -0.245027,-0.241568 -0.765115,-0.449135 -1.43132,-0.445462 z"
     sodipodi:nodetypes="ccccccccccc" />
  <path
     id="rect31485-9"
     style="opacity:0.3;fill:url(#linearGradient50929);fill-opacity:1;stroke-width:1.49558;stroke-linecap:round;stroke-linejoin:round;stroke-dasharray:17.947, 1.49558"
     d="m 13.441365,19.026046 c -0.666201,-0.0037 -1.186294,0.203899 -1.431319,0.445462 l -8.5674694,8.966195 1.0574235,-0.438159 h 8.9734969 20.938161 8.973492 l 1.057423,0.438159 -8.567465,-8.966195 c -0.245016,-0.241568 -0.765115,-0.449135 -1.43132,-0.445462 z"
     sodipodi:nodetypes="ccccccccccc" />
  <path
     id="rect31485-9-0"
     style="opacity:0.3;fill:url(#linearGradient51339);fill-opacity:1;stroke-width:1.49558;stroke-linecap:round;stroke-linejoin:round;stroke-dasharray:17.947, 1.49558"
     d="m 34.443788,19.026046 c 0.666203,-0.0037 1.186293,0.203899 1.43132,0.445462 l 8.567465,8.966195 -1.057423,-0.438159 H 34.411655 13.473496 4.5000001 l -1.0574235,0.438159 8.5674704,-8.966194 c 0.245016,-0.24157 0.765113,-0.449136 1.431318,-0.445462 z"
     sodipodi:nodetypes="ccccccccccc" />
  <path
     id="rect849"
     style="fill:url(#linearGradient58464);fill-opacity:1;stroke-width:1.49999;stroke-linecap:round;stroke-linejoin:round;stroke-dasharray:18, 1.49999"
     d="M 4.5000001,27.999544 C 3.6689994,27.999544 3,28.668543 3,29.499543 v 9.499998 a 1.9999999,2.0000017 0 0 0 1.9999997,2.000002 H 42.999997 A 1.9999999,2.0000017 0 0 0 45,38.999541 v -9.499998 c 0,-0.831 -0.669001,-1.499999 -1.500003,-1.499999 z" />
  <path
     id="rect849-5"
     style="opacity:0.4;fill:url(#linearGradient48006);fill-opacity:1;stroke-width:1.49999;stroke-linecap:round;stroke-linejoin:round;stroke-dasharray:18, 1.49999"
     d="M 4.5000001,27.999544 C 3.6689994,27.999544 3,28.668543 3,29.499543 v 9.499998 a 1.9999999,2.0000017 0 0 0 1.9999997,2.000002 H 42.999997 A 1.9999999,2.0000017 0 0 0 45,38.999541 v -9.499998 c 0,-0.831 -0.669001,-1.499999 -1.500003,-1.499999 z" />
  <path
     id="rect849-5-8"
     style="opacity:0.4;fill:url(#linearGradient71108);fill-opacity:1;stroke-width:1.49999;stroke-linecap:round;stroke-linejoin:round;stroke-dasharray:18, 1.49999"
     d="M 4.5000001,27.999544 C 3.6689997,27.999544 3,28.668543 3,29.499543 v 9.499998 a 1.9999999,2.0000017 0 0 0 1.9999997,2.000002 H 42.999997 A 1.9999999,2.0000017 0 0 0 45,38.999541 v -9.499998 c 0,-0.831 -0.669001,-1.499999 -1.500003,-1.499999 z" />
  <path
     id="rect1094"
     style="fill:url(#linearGradient10486);stroke-width:1.00613;stroke-linecap:round;stroke-linejoin:round;stroke-dasharray:12.0735, 1.00613"
     d="M 4.4726561,27.999544 A 0.5,0.5 0 0 0 4,28.4722 v 10.527341 c 0,0.554003 0.4460008,1 0.9999997,1 H 42.999997 c 0.553999,0 0.999999,-0.445997 0.999999,-1 V 28.4722 a 0.5,0.5 0 0 0 -0.472653,-0.472656 z" />
  <circle
     style="opacity:1;fill:#12ff12;fill-opacity:1;stroke-width:0.458;stroke-linecap:round;stroke-linejoin:round;stroke-dasharray:5.49599, 0.458;filter:url(#filter1734)"
     id="path25907"
     cx="1.852047"
     cy="7.4011893"
     r="0.52915627"
     transform="matrix(3.7796017,0,0,3.7796017,3,6.0260002)" />
  <circle
     style="fill:#12ff12;fill-opacity:1;stroke-width:1.6;stroke-linecap:round;stroke-linejoin:round;stroke-dasharray:19.2, 1.6"
     id="path30449"
     cx="10"
     cy="33.99955"
     r="1.9999998" />
  <circle
     style="opacity:0.7;fill:url(#radialGradient50339);fill-opacity:1;stroke-width:1.6;stroke-linecap:round;stroke-linejoin:round;stroke-dasharray:19.2, 1.6"
     id="path50091"
     cx="10"
     cy="33.99955"
     r="1.9999998" />
  <path
     id="path49923"
     style="opacity:0.2;fill:#000000;fill-opacity:1;stroke-width:1.33334;stroke-linecap:round;stroke-linejoin:round;stroke-dasharray:16, 1.33334"
     d="m 10.85788,32.786001 a 1.4999998,1.4999998 0 0 1 0.28646,0.880208 1.4999998,1.4999998 0 0 1 -1.5000003,1.499997 1.4999998,1.4999998 0 0 1 -0.8802078,-0.286456 1.4999998,1.4999998 0 0 0 1.2135418,0.61979 1.4999998,1.4999998 0 0 0 1.4999993,-1.499999 1.4999998,1.4999998 0 0 0 -0.619793,-1.21354 z" />
  <path
     id="rect31485-0"
     style="fill:#e1e3e6;fill-opacity:1;stroke-width:1.49558;stroke-linecap:round;stroke-linejoin:round;stroke-dasharray:17.9471, 1.49558"
     d="m 13.441365,6.0260482 c -0.666201,-0.00367 -1.186294,0.2038978 -1.431319,0.4454617 l -8.5674694,8.9661941 1.0574235,-0.43816 h 8.9734969 20.93816 8.973493 l 1.057423,0.43816 -8.567465,-8.9661941 C 35.630081,6.2299415 35.109993,6.0223745 34.443788,6.0260482 Z"
     sodipodi:nodetypes="ccccccccccc" />
  <path
     id="rect31485-9-3"
     style="opacity:0.3;fill:url(#linearGradient50929-5);fill-opacity:1;stroke-width:1.49558;stroke-linecap:round;stroke-linejoin:round;stroke-dasharray:17.947, 1.49558"
     d="m 13.441365,6.0260482 c -0.666201,-0.00368 -1.186294,0.2038986 -1.431319,0.4454617 L 3.4425766,15.437704 4.5000001,14.999545 h 8.9734969 20.938161 8.973492 l 1.057423,0.438159 -8.567465,-8.9661941 C 35.630092,6.229941 35.109993,6.0223748 34.443788,6.0260482 Z"
     sodipodi:nodetypes="ccccccccccc" />
  <path
     id="rect31485-9-0-6"
     style="opacity:0.3;fill:url(#linearGradient51339-2);fill-opacity:1;stroke-width:1.49558;stroke-linecap:round;stroke-linejoin:round;stroke-dasharray:17.947, 1.49558"
     d="m 34.443788,6.0260482 c 0.666203,-0.00367 1.186293,0.2038982 1.43132,0.4454617 L 44.442573,15.437704 43.38515,14.999545 H 34.411655 13.473496 4.5000001 L 3.4425766,15.437704 12.010047,6.4715102 C 12.255063,6.2299404 12.77516,6.0223748 13.441365,6.0260486 Z"
     sodipodi:nodetypes="ccccccccccc" />
  <path
     id="rect849-1"
     style="fill:url(#linearGradient58464-8);fill-opacity:1;stroke-width:1.49999;stroke-linecap:round;stroke-linejoin:round;stroke-dasharray:18, 1.49999"
     d="m 4.5000001,14.999544 c -0.8310005,0 -1.4999999,0.669 -1.4999999,1.500001 v 9.499999 a 1.9999999,2.0000017 0 0 0 1.9999995,2 H 42.999997 a 1.9999999,2.0000017 0 0 0 2.000003,-2 v -9.499999 c 0,-0.831001 -0.669001,-1.500001 -1.500003,-1.500001 z" />
  <path
     id="rect849-5-0"
     style="opacity:0.4;fill:url(#linearGradient48006-3);fill-opacity:1;stroke-width:1.49999;stroke-linecap:round;stroke-linejoin:round;stroke-dasharray:18, 1.49999"
     d="m 4.5000001,14.999544 c -0.8310005,0 -1.4999999,0.669 -1.4999999,1.500001 v 9.499999 a 1.9999999,2.0000017 0 0 0 1.9999995,2 H 42.999997 a 1.9999999,2.0000017 0 0 0 2.000003,-2 v -9.499999 c 0,-0.831001 -0.669001,-1.500001 -1.500003,-1.500001 z" />
  <path
     id="rect849-5-8-6"
     style="opacity:0.4;fill:url(#linearGradient71108-9);fill-opacity:1;stroke-width:1.49999;stroke-linecap:round;stroke-linejoin:round;stroke-dasharray:18, 1.49999"
     d="m 4.5000001,14.999544 c -0.8310001,0 -1.4999999,0.669 -1.4999999,1.500001 v 9.499999 a 1.9999999,2.0000017 0 0 0 1.9999995,2 H 42.999997 a 1.9999999,2.0000017 0 0 0 2.000003,-2 v -9.499999 c 0,-0.831001 -0.669001,-1.500001 -1.500003,-1.500001 z" />
  <path
     id="rect1094-3"
     style="fill:url(#linearGradient10486-3);stroke-width:1.00613;stroke-linecap:round;stroke-linejoin:round;stroke-dasharray:12.0735, 1.00613"
     d="M 4.4726561,14.999544 A 0.5,0.5 0 0 0 4,15.472201 v 10.527343 c 0,0.554002 0.4460008,1 0.9999997,1 H 42.999997 c 0.553999,0 0.999999,-0.445998 0.999999,-1 V 15.472201 a 0.5,0.5 0 0 0 -0.472653,-0.472657 z" />
  <circle
     style="fill:#12ff12;fill-opacity:1;stroke-width:0.458;stroke-linecap:round;stroke-linejoin:round;stroke-dasharray:5.49599, 0.458;filter:url(#filter1734-4)"
     id="path25907-2"
     cx="1.8520472"
     cy="3.9616725"
     r="0.52915627"
     transform="matrix(3.7796017,0,0,3.7796017,3,6.0260002)" />
  <circle
     style="fill:#12ff12;fill-opacity:1;stroke-width:1.6;stroke-linecap:round;stroke-linejoin:round;stroke-dasharray:19.2, 1.6"
     id="path30449-0"
     cx="10.000001"
     cy="20.999544"
     r="1.9999998" />
  <circle
     style="opacity:0.7;fill:url(#radialGradient50339-8);fill-opacity:1;stroke-width:1.6;stroke-linecap:round;stroke-linejoin:round;stroke-dasharray:19.2, 1.6"
     id="path50091-6"
     cx="10.000001"
     cy="20.999544"
     r="1.9999998" />
  <path
     id="path49923-1"
     style="opacity:0.2;fill:#000000;fill-opacity:1;stroke-width:1.33334;stroke-linecap:round;stroke-linejoin:round;stroke-dasharray:16, 1.33334"
     d="m 10.85788,19.786002 a 1.4999998,1.4999998 0 0 1 0.28646,0.880207 1.4999998,1.4999998 0 0 1 -1.5000003,1.499998 1.4999998,1.4999998 0 0 1 -0.8802078,-0.286456 1.4999998,1.4999998 0 0 0 1.2135418,0.619791 1.4999998,1.4999998 0 0 0 1.4999993,-1.5 1.4999998,1.4999998 0 0 0 -0.619793,-1.21354 z" />
</svg>
