<?xml version="1.0" encoding="UTF-8" standalone="no"?>
<!-- Created with Inkscape (http://www.inkscape.org/) -->

<svg
   width="48"
   height="48"
   viewBox="0 0 48 48"
   version="1.1"
   id="svg2112"
   inkscape:version="1.2.1 (9c6d41e410, 2022-07-14, custom)"
   sodipodi:docname="media-optical-dvd-video.svg"
   xmlns:inkscape="http://www.inkscape.org/namespaces/inkscape"
   xmlns:sodipodi="http://sodipodi.sourceforge.net/DTD/sodipodi-0.dtd"
   xmlns:xlink="http://www.w3.org/1999/xlink"
   xmlns="http://www.w3.org/2000/svg"
   xmlns:svg="http://www.w3.org/2000/svg">
  <sodipodi:namedview
     id="namedview2114"
     pagecolor="#ffffff"
     bordercolor="#000000"
     borderopacity="0.25"
     inkscape:showpageshadow="2"
     inkscape:pageopacity="0.0"
     inkscape:pagecheckerboard="0"
     inkscape:deskcolor="#d1d1d1"
     inkscape:document-units="px"
     showgrid="false"
     inkscape:zoom="16.708333"
     inkscape:cx="23.970075"
     inkscape:cy="24"
     inkscape:window-width="1920"
     inkscape:window-height="1011"
     inkscape:window-x="0"
     inkscape:window-y="0"
     inkscape:window-maximized="1"
     inkscape:current-layer="svg2112"
     showguides="false" />
  <defs
     id="defs2109">
    <linearGradient
       inkscape:collect="always"
       xlink:href="#linearGradient6804"
       id="linearGradient6808"
       x1="2.3812499"
       y1="8.4666672"
       x2="6.6145835"
       y2="12.700001"
       gradientUnits="userSpaceOnUse"
       gradientTransform="matrix(4.9606297,0,0,4.9606297,1.6874997,-28.5)" />
    <linearGradient
       inkscape:collect="always"
       id="linearGradient6804">
      <stop
         style="stop-color:#ffffff;stop-opacity:1;"
         offset="0"
         id="stop6800" />
      <stop
         style="stop-color:#ffffff;stop-opacity:0;"
         offset="1"
         id="stop6802" />
    </linearGradient>
    <linearGradient
       inkscape:collect="always"
       xlink:href="#linearGradient162116"
       id="linearGradient162118"
       x1="96.408417"
       y1="238.0069"
       x2="127.77626"
       y2="238.0069"
       gradientUnits="userSpaceOnUse"
       gradientTransform="matrix(1.3389505,0,0,1.2919153,-126.08608,-283.48477)" />
    <linearGradient
       inkscape:collect="always"
       id="linearGradient162116">
      <stop
         style="stop-color:#e3edee;stop-opacity:1;"
         offset="0"
         id="stop162112" />
      <stop
         style="stop-color:#c9cdce;stop-opacity:1"
         offset="1"
         id="stop162114" />
    </linearGradient>
    <linearGradient
       inkscape:collect="always"
       xlink:href="#linearGradient219586"
       id="linearGradient1031"
       gradientUnits="userSpaceOnUse"
       gradientTransform="matrix(1.3389505,0,0,1.2919154,-126.08608,-283.48478)"
       x1="112.09232"
       y1="238.0069"
       x2="112.17286"
       y2="254.33937" />
    <linearGradient
       inkscape:collect="always"
       id="linearGradient219586">
      <stop
         style="stop-color:#b9bfbf;stop-opacity:1;"
         offset="0"
         id="stop219582" />
      <stop
         style="stop-color:#aaacab;stop-opacity:1"
         offset="1"
         id="stop219584" />
    </linearGradient>
    <linearGradient
       inkscape:collect="always"
       xlink:href="#linearGradient11941"
       id="linearGradient11943"
       x1="5.1081543"
       y1="42.191895"
       x2="7.4692383"
       y2="33.279785"
       gradientUnits="userSpaceOnUse"
       gradientTransform="matrix(1.3124999,0,0,1.3124999,1.6874998,-28.499999)" />
    <linearGradient
       inkscape:collect="always"
       id="linearGradient11941">
      <stop
         style="stop-color:#f89af4;stop-opacity:0"
         offset="0"
         id="stop11937" />
      <stop
         style="stop-color:#f89af4;stop-opacity:0"
         offset="0.40000001"
         id="stop12523" />
      <stop
         style="stop-color:#f89af4;stop-opacity:1"
         offset="0.5"
         id="stop12201" />
      <stop
         style="stop-color:#f89af4;stop-opacity:0"
         offset="0.60000002"
         id="stop12781" />
      <stop
         style="stop-color:#f89af4;stop-opacity:0;"
         offset="1"
         id="stop11939" />
    </linearGradient>
    <linearGradient
       inkscape:collect="always"
       xlink:href="#linearGradient2496"
       id="linearGradient2498"
       x1="16.424316"
       y1="54.63533"
       x2="32.331596"
       y2="38.452602"
       gradientUnits="userSpaceOnUse"
       gradientTransform="matrix(1.3124999,0,0,1.3124999,1.6874998,-28.499999)" />
    <linearGradient
       inkscape:collect="always"
       id="linearGradient2496">
      <stop
         style="stop-color:#ffffff;stop-opacity:0.5"
         offset="0"
         id="stop2492" />
      <stop
         style="stop-color:#ffffff;stop-opacity:0"
         offset="0.44999999"
         id="stop3080" />
      <stop
         style="stop-color:#ffffff;stop-opacity:1"
         offset="0.5"
         id="stop2756" />
      <stop
         style="stop-color:#ffffff;stop-opacity:0"
         offset="0.55000001"
         id="stop3014" />
      <stop
         style="stop-color:#ffffff;stop-opacity:0.2"
         offset="1"
         id="stop2494" />
    </linearGradient>
    <linearGradient
       inkscape:collect="always"
       xlink:href="#linearGradient16450"
       id="linearGradient16452"
       x1="17.605227"
       y1="29.40974"
       x2="27.150551"
       y2="39.243584"
       gradientUnits="userSpaceOnUse"
       gradientTransform="matrix(1.3124999,0,0,1.3124999,1.6874998,-28.499999)" />
    <linearGradient
       inkscape:collect="always"
       id="linearGradient16450">
      <stop
         style="stop-color:#6fef7e;stop-opacity:0"
         offset="0"
         id="stop16446" />
      <stop
         style="stop-color:#6fef7e;stop-opacity:0"
         offset="0.44792882"
         id="stop17132" />
      <stop
         style="stop-color:#6fef7e;stop-opacity:1"
         offset="0.5"
         id="stop16680" />
      <stop
         style="stop-color:#6fef7e;stop-opacity:0"
         offset="0.55000001"
         id="stop16938" />
      <stop
         style="stop-color:#6fef7e;stop-opacity:0;"
         offset="1"
         id="stop16448" />
    </linearGradient>
    <linearGradient
       inkscape:collect="always"
       xlink:href="#linearGradient7820"
       id="linearGradient8026"
       gradientUnits="userSpaceOnUse"
       gradientTransform="matrix(6.6141728,0,0,6.6141728,-5.7499998,-45.999999)"
       x1="5.1026788"
       y1="9.9785719"
       x2="3.8931551"
       y2="11.188096" />
    <linearGradient
       inkscape:collect="always"
       id="linearGradient7820">
      <stop
         style="stop-color:#858585;stop-opacity:1"
         offset="0"
         id="stop7816" />
      <stop
         style="stop-color:#ffffff;stop-opacity:1"
         offset="0.5"
         id="stop8592" />
      <stop
         style="stop-color:#868686;stop-opacity:1"
         offset="1"
         id="stop7818" />
    </linearGradient>
    <linearGradient
       inkscape:collect="always"
       xlink:href="#linearGradient1087"
       id="linearGradient1089"
       x1="10.847918"
       y1="15.345834"
       x2="2.9104166"
       y2="12.170834"
       gradientUnits="userSpaceOnUse"
       gradientTransform="matrix(3.7795275,0,0,3.7795275,-1.9999986,-12.000002)" />
    <linearGradient
       inkscape:collect="always"
       id="linearGradient1087">
      <stop
         style="stop-color:#232223;stop-opacity:1;"
         offset="0"
         id="stop1083" />
      <stop
         style="stop-color:#48494d;stop-opacity:1"
         offset="1"
         id="stop1085" />
    </linearGradient>
    <linearGradient
       inkscape:collect="always"
       xlink:href="#linearGradient27684"
       id="linearGradient982"
       x1="5.2062192"
       y1="1"
       x2="23"
       y2="26"
       gradientUnits="userSpaceOnUse"
       gradientTransform="matrix(0.9,0,0,0.8,25.300001,1.1999999)" />
    <linearGradient
       inkscape:collect="always"
       id="linearGradient27684">
      <stop
         style="stop-color:#4a4a4a;stop-opacity:1;"
         offset="0"
         id="stop27680" />
      <stop
         style="stop-color:#232323;stop-opacity:0.74901962"
         offset="1"
         id="stop27682" />
    </linearGradient>
    <linearGradient
       inkscape:collect="always"
       xlink:href="#linearGradient12418"
       id="linearGradient2216"
       x1="42.000004"
       y1="4.000001"
       x2="52.000004"
       y2="21.999998"
       gradientUnits="userSpaceOnUse"
       gradientTransform="translate(-10.000001,-0.9999999)" />
    <linearGradient
       inkscape:collect="always"
       id="linearGradient12418">
      <stop
         style="stop-color:#52e4ff;stop-opacity:1;"
         offset="0"
         id="stop12414" />
      <stop
         style="stop-color:#d29eff;stop-opacity:1"
         offset="1"
         id="stop12416" />
    </linearGradient>
  </defs>
  <path
     id="path6272"
     style="opacity:0.4;fill:url(#linearGradient6808);fill-opacity:1;stroke-width:2.625;stroke-linecap:round;stroke-linejoin:round"
     d="m 24,13.5 c -5.798984,0 -10.5,4.701016 -10.5,10.5 0,5.798984 4.701016,10.5 10.5,10.5 5.798984,0 10.5,-4.701016 10.5,-10.5 0,-5.798984 -4.701016,-10.5 -10.5,-10.5 z m 0,7.5 c 1.656852,0 3,1.343148 3,3 0,1.656852 -1.343148,3 -3,3 -1.656852,-1e-6 -3,-1.343148 -3,-3 0,-1.656852 1.343148,-2.999999 3,-3 z"
     sodipodi:nodetypes="ssssssssss" />
  <path
     id="path5023"
     style="opacity:1;fill:#d0d0d0;fill-opacity:1;stroke-width:1.125"
     d="m 24,15 a 9,9 0 0 0 -9,9 9,9 0 0 0 9,9 9,9 0 0 0 9,-9 9,9 0 0 0 -9,-9 z m 0,2 a 7,7 0 0 1 7,7 7,7 0 0 1 -7,7 7,7 0 0 1 -7,-7 7,7 0 0 1 7,-7 z" />
  <path
     id="path151229"
     style="fill:url(#linearGradient162118);fill-opacity:1;stroke-width:1.73994;stroke-linecap:round;stroke-linejoin:round"
     d="m 24,3 c -11.597957,4e-7 -21.0000009,9.402043 -21,21 1.3e-6,11.597954 9.402045,21 21,21 C 35.597956,45 44.999998,35.597954 45,24 45,12.402043 35.597958,2.9999995 24,3 Z m 0,13 c 4.41827,-2e-6 8.000002,3.581731 8,8 0,4.41827 -3.58173,8.000002 -8,8 -4.418267,0 -8,-3.58173 -8,-8 0,-4.418268 3.581731,-8.000001 8,-8 z" />
  <path
     id="path151229-3-3"
     style="fill:url(#linearGradient1031);fill-opacity:1;stroke-width:1.73994;stroke-linecap:round;stroke-linejoin:round"
     d="M 31.964844,24.498047 A 8,8 0 0 1 24,32 8,8 0 0 1 18.357422,29.642578 L 9.1621096,38.837891 A 21.000001,21.000001 0 0 0 24,45 21.000001,21.000001 0 0 0 44.951172,25.310547 Z" />
  <path
     id="rect2336"
     style="opacity:0.5;fill:url(#linearGradient2498);fill-opacity:1;stroke-width:2.625;stroke-linecap:round;stroke-linejoin:round"
     d="M 18.912109,3.642578 A 21.000001,21.000001 0 0 0 3.3750002,20.130859 l 12.7460938,2.552735 a 8,8 0 0 1 5.943359,-6.427735 z m 12.966797,21.673828 a 8,8 0 0 1 -5.943359,6.427735 l 3.152344,12.613281 A 21.000001,21.000001 0 0 0 44.625,27.869141 Z" />
  <path
     id="path151229-7"
     style="opacity:0.5;fill:url(#linearGradient11943);fill-opacity:1;stroke-width:1.73994;stroke-linecap:round;stroke-linejoin:round"
     d="M 5.4511721,14.179688 C 3.8457831,17.204466 3.0039613,20.575596 3.0000002,24 c 0.00397,3.424406 0.8457829,6.795534 2.4511719,9.820312 L 16.945312,27.732422 A 8,8 0 0 1 16,24 8,8 0 0 1 16.945312,20.267578 Z" />
  <path
     id="path151229-1"
     style="opacity:0.5;fill:url(#linearGradient16452);fill-opacity:1;stroke-width:1.73994;stroke-linecap:round;stroke-linejoin:round"
     d="M 30.261719,3.9570311 26.384766,16.365234 a 8,8 0 0 1 5.103515,4.826172 L 43.662109,16.626953 A 21.000001,21.000001 0 0 0 30.261719,3.9570311 Z" />
  <path
     id="path1037"
     style="opacity:1;fill:#d0d0d0;fill-opacity:1"
     d="M 24,3 A 21,21 0 0 0 3,24 21,21 0 0 0 24,45 21,21 0 0 0 45,24 21,21 0 0 0 24,3 Z m 0,1 A 20,20 0 0 1 44,24 20,20 0 0 1 24,44 20,20 0 0 1 4,24 20,20 0 0 1 24,4 Z" />
  <path
     id="path8002"
     style="opacity:0.5;fill:url(#linearGradient8026);fill-opacity:1;stroke-width:3.5;stroke-linecap:round;stroke-linejoin:round"
     d="M 24 20 C 21.790866 20.000001 20 21.790866 20 24 C 20 26.209134 21.790866 27.999999 24 28 C 26.209134 28 28 26.209134 28 24 C 28 21.790866 26.209134 20 24 20 z M 24 21 C 25.65685 21 27 22.34315 27 24 C 27 25.65685 25.65685 27 24 27 C 22.34315 26.999999 21 25.65685 21 24 C 21 22.34315 22.34315 21.000001 24 21 z " />
  <rect
     style="fill:url(#linearGradient982);fill-opacity:1;stroke-width:0.848528;stroke-linecap:round"
     id="rect419"
     width="18"
     height="20"
     x="28"
     y="2"
     ry="1" />
  <path
     id="rect1388"
     style="fill:#ffffff;stroke-width:3;stroke-linecap:round;stroke-linejoin:round"
     d="m 29.47461,2.9999999 c -0.265242,0 -0.474609,0.2316553 -0.474609,0.5 v 2 c 0,0.2770017 0.222991,0.5 0.5,0.5 h 1 c 0.277001,0 0.5,-0.2229993 0.5,-0.5 v -2 c 0,-0.2770013 -0.222991,-0.5 -0.5,-0.5 h -1 z m 14,0 c -0.265242,0 -0.474609,0.2316553 -0.474609,0.5 v 2 c 0,0.2770017 0.222991,0.5 0.5,0.5 h 1 c 0.277001,0 0.5,-0.2229993 0.5,-0.5 v -2 c 0,-0.2770013 -0.222991,-0.5 -0.5,-0.5 h -1 z m -14,5 c -0.265242,0 -0.474609,0.231655 -0.474609,0.5 V 10.5 c 0,0.277001 0.222991,0.5 0.5,0.5 h 1 c 0.277001,0 0.5,-0.222999 0.5,-0.5 V 8.4999999 c 0,-0.277001 -0.222991,-0.5 -0.5,-0.5 h -1 z m 14,0 c -0.265242,0 -0.474609,0.231655 -0.474609,0.5 V 10.5 c 0,0.277001 0.222991,0.5 0.5,0.5 h 1 c 0.277001,0 0.5,-0.222999 0.5,-0.5 V 8.4999999 c 0,-0.277001 -0.222991,-0.5 -0.5,-0.5 h -1 z M 29.47461,13 c -0.265246,0 -0.474609,0.231655 -0.474609,0.5 v 2 c 0,0.277002 0.222991,0.5 0.5,0.5 h 1 c 0.277001,0 0.5,-0.222991 0.5,-0.5 v -2 c 0,-0.277002 -0.222991,-0.5 -0.5,-0.5 h -1 z m 14,0 c -0.265246,0 -0.474609,0.231655 -0.474609,0.5 v 2 c 0,0.277002 0.222991,0.5 0.5,0.5 h 1 c 0.277001,0 0.5,-0.222991 0.5,-0.5 v -2 c 0,-0.277002 -0.222991,-0.5 -0.5,-0.5 h -1 z m -14,5 c -0.265236,0 -0.474609,0.23165 -0.474609,0.5 v 2 c 0,0.277002 0.222991,0.5 0.5,0.5 h 1 c 0.277001,0 0.5,-0.222991 0.5,-0.5 v -2 c 0,-0.277002 -0.222991,-0.5 -0.5,-0.5 h -1 z m 14,0 c -0.265236,0 -0.474609,0.23165 -0.474609,0.5 v 2 c 0,0.277002 0.222991,0.5 0.5,0.5 h 1 c 0.277001,0 0.5,-0.222991 0.5,-0.5 v -2 c 0,-0.277002 -0.222991,-0.5 -0.5,-0.5 h -1 z"
     sodipodi:nodetypes="sssssssscssssssssscssssssssscssssssssscssssssssscssssssssscssssssssscssssssssscs" />
  <path
     id="rect2063"
     style="fill:url(#linearGradient2216);fill-opacity:1;stroke-width:3;stroke-linecap:round;stroke-linejoin:round"
     d="m 33.000001,2.9999999 c -0.553999,0 -1,0.4460012 -1,1 v 6 c 0,0.5539981 0.446001,1.0000001 1,1.0000001 h 8 c 0.553998,0 1,-0.446002 1,-1.0000001 v -6 c 0,-0.5539988 -0.446002,-1 -1,-1 z m 0,10.0000001 c -0.553999,0 -1,0.446002 -1,1 v 6 c 0,0.553998 0.446001,1 1,1 h 8 c 0.553998,0 1,-0.446002 1,-1 v -6 c 0,-0.553998 -0.446002,-1 -1,-1 z" />
  <path
     id="rect893"
     style="fill:url(#linearGradient1089);stroke-width:3;stroke-linecap:round;stroke-linejoin:round"
     d="m 10.000001,34 h 27.999998 c 0.554004,0 1.000003,0.445999 1.000003,0.999999 V 45 c 0,0.553999 -0.445999,0.999998 -1.000003,0.999998 H 10.000001 c -0.554,0 -1,-0.445999 -1,-0.999998 V 34.999999 c 0,-0.554 0.446,-0.999999 1,-0.999999 z"
     sodipodi:nodetypes="sssssssss" />
  <path
     d="m 12.636209,44.200999 v -8.402 h 2.378809 c 1.484314,0 2.595597,0.341783 3.333848,1.025349 0.742157,0.679659 1.113235,1.703055 1.113235,3.070187 0,1.296821 -0.412092,2.339748 -1.236277,3.128778 -0.820279,0.785124 -1.917891,1.177686 -3.292834,1.177686 z m 1.066362,-7.45282 v 6.50364 h 1.22456 c 1.074175,0 1.910078,-0.28905 2.50771,-0.867152 0.601539,-0.582007 0.902307,-1.404239 0.902307,-2.466696 0,-1.050738 -0.281239,-1.841721 -0.843716,-2.372949 -0.55857,-0.531229 -1.396427,-0.796843 -2.513569,-0.796843 z m 14.835331,7.45282 v -8.402 h 2.378808 c 1.484314,0 2.595596,0.341783 3.333848,1.025349 0.742158,0.679659 1.113236,1.703055 1.113236,3.070187 0,1.296821 -0.412093,2.339748 -1.236278,3.128778 -0.820279,0.785124 -1.91789,1.177686 -3.292833,1.177686 z m 1.066363,-7.45282 v 6.50364 h 1.224558 c 1.074175,0 1.910078,-0.28905 2.50771,-0.867152 0.601539,-0.582007 0.902306,-1.404239 0.902306,-2.466696 0,-1.050738 -0.281238,-1.841721 -0.843715,-2.372949 -0.558571,-0.531229 -1.396427,-0.796843 -2.513568,-0.796843 z m -2.37295,-0.94918 -3.093623,8.402 h -1.183545 l -3.029173,-8.402 h 1.183545 l 2.273344,6.585668 c 0.03906,0.109371 0.07226,0.228506 0.09961,0.357408 0.02734,0.124994 0.05078,0.257802 0.07031,0.39842 h 0.02344 c 0.01563,-0.121088 0.03907,-0.246083 0.07031,-0.374984 0.03516,-0.128901 0.07617,-0.259755 0.123043,-0.392562 l 2.314357,-6.57395 z"
     id="path943"
     style="fill:#ffffff;stroke-width:0.818146" />
</svg>
