<?xml version="1.0" encoding="UTF-8" standalone="no"?>
<!-- Created with Inkscape (http://www.inkscape.org/) -->

<svg
   width="48"
   height="48"
   viewBox="0 0 48 48"
   version="1.1"
   id="svg5"
   inkscape:version="1.2.1 (9c6d41e410, 2022-07-14, custom)"
   sodipodi:docname="media-memory.svg"
   xmlns:inkscape="http://www.inkscape.org/namespaces/inkscape"
   xmlns:sodipodi="http://sodipodi.sourceforge.net/DTD/sodipodi-0.dtd"
   xmlns:xlink="http://www.w3.org/1999/xlink"
   xmlns="http://www.w3.org/2000/svg"
   xmlns:svg="http://www.w3.org/2000/svg">
  <sodipodi:namedview
     id="namedview7"
     pagecolor="#ffffff"
     bordercolor="#000000"
     borderopacity="0.25"
     inkscape:showpageshadow="2"
     inkscape:pageopacity="0.0"
     inkscape:pagecheckerboard="0"
     inkscape:deskcolor="#d1d1d1"
     inkscape:document-units="px"
     showgrid="false"
     inkscape:zoom="16.833333"
     inkscape:cx="23.970297"
     inkscape:cy="24"
     inkscape:window-width="1920"
     inkscape:window-height="1010"
     inkscape:window-x="0"
     inkscape:window-y="0"
     inkscape:window-maximized="1"
     inkscape:current-layer="svg5" />
  <defs
     id="defs2">
    <linearGradient
       inkscape:collect="always"
       id="linearGradient2695">
      <stop
         style="stop-color:#dde1e6;stop-opacity:1;"
         offset="0"
         id="stop2691" />
      <stop
         style="stop-color:#aeb7c0;stop-opacity:1"
         offset="1"
         id="stop2693" />
    </linearGradient>
    <linearGradient
       inkscape:collect="always"
       xlink:href="#linearGradient2695"
       id="linearGradient2024"
       x1="24"
       y1="9"
       x2="24"
       y2="40"
       gradientUnits="userSpaceOnUse" />
    <linearGradient
       inkscape:collect="always"
       xlink:href="#linearGradient1668"
       id="linearGradient1662"
       x1="-2"
       y1="22"
       x2="-2"
       y2="43"
       gradientUnits="userSpaceOnUse"
       gradientTransform="matrix(2,0,0,2,28,-41)" />
    <linearGradient
       inkscape:collect="always"
       id="linearGradient1668">
      <stop
         style="stop-color:#6f767b;stop-opacity:1;"
         offset="0"
         id="stop1664" />
      <stop
         style="stop-color:#505559;stop-opacity:1"
         offset="1"
         id="stop1666" />
    </linearGradient>
    <linearGradient
       inkscape:collect="always"
       xlink:href="#linearGradient1686"
       id="linearGradient1680"
       x1="-2"
       y1="24.12855"
       x2="-2"
       y2="42.628551"
       gradientUnits="userSpaceOnUse"
       gradientTransform="matrix(2,0,0,2,28,-42.2571)" />
    <linearGradient
       inkscape:collect="always"
       id="linearGradient1686">
      <stop
         style="stop-color:#6f767b;stop-opacity:1;"
         offset="0"
         id="stop1682" />
      <stop
         style="stop-color:#51565a;stop-opacity:1;"
         offset="1"
         id="stop1684" />
    </linearGradient>
  </defs>
  <path
     id="rect305"
     style="fill:url(#linearGradient1662);fill-opacity:1;stroke-width:1.44941;stroke-linecap:round"
     d="m 12,3 c -1.107997,0 -2,0.8920031 -2,2 v 38 c 0,1.107997 0.892003,2 2,2 h 24 c 1.107997,0 2,-0.892003 2,-2 V 5 C 38,3.8920031 37.107997,3 36,3 H 27 A 3,3 0 0 1 24,6 3,3 0 0 1 21,3 Z" />
  <path
     id="rect788"
     style="fill:url(#linearGradient2024);fill-opacity:1"
     d="M 10,9 C 8.3380017,9 7,9.6690008 7,10.5 7,11.330999 8.3380017,12 10,12 h 28 c 1.661998,0 3,-0.669001 3,-1.5 C 41,9.6690008 39.661998,9 38,9 Z m 0,4 c -1.6619983,0 -3,0.669001 -3,1.5 0,0.830999 1.3380017,1.5 3,1.5 h 28 c 1.661998,0 3,-0.669001 3,-1.5 C 41,13.669001 39.661998,13 38,13 Z m 0,4 c -1.6619983,0 -3,0.669001 -3,1.5 0,0.830999 1.3380017,1.5 3,1.5 h 28 c 1.661998,0 3,-0.669001 3,-1.5 C 41,17.669001 39.661998,17 38,17 Z m 0,4 c -1.6619983,0 -3,0.669001 -3,1.5 0,0.830999 1.3380017,1.5 3,1.5 h 28 c 1.661998,0 3,-0.669001 3,-1.5 C 41,21.669001 39.661998,21 38,21 Z m 0,4 c -1.6619983,0 -3,0.669001 -3,1.5 0,0.830999 1.3380017,1.5 3,1.5 h 28 c 1.661998,0 3,-0.669001 3,-1.5 C 41,25.669001 39.661998,25 38,25 Z m 0,4 c -1.6619983,0 -3,0.669001 -3,1.5 0,0.830999 1.3380017,1.5 3,1.5 h 28 c 1.661998,0 3,-0.669001 3,-1.5 C 41,29.669001 39.661998,29 38,29 Z m 0,4 c -1.6619983,0 -3,0.669001 -3,1.5 0,0.830999 1.3380017,1.5 3,1.5 h 28 c 1.661998,0 3,-0.669001 3,-1.5 C 41,33.669001 39.661998,33 38,33 Z m 0,4 c -1.6619983,0 -3,0.669001 -3,1.5 0,0.830999 1.3380017,1.5 3,1.5 h 28 c 1.661998,0 3,-0.669001 3,-1.5 C 41,37.669001 39.661998,37 38,37 Z" />
  <path
     id="rect307"
     style="fill:#4d4d4d;fill-opacity:1;stroke-width:3.32176;stroke-linecap:round"
     d="m 12,3 c -1.107995,0 -2,0.8920053 -2,2 v 1 c 0,-1.1079947 0.892005,-2 2,-2 h 9 c 0,1.6568542 1.343146,3 3,3 1.656854,0 3,-1.3431458 3,-3 h 9 c 1.107995,0 2,0.8920053 2,2 V 5 C 38,3.8920053 37.107995,3 36,3 H 27 C 27,4.6568542 25.656854,6 24,6 22.343146,6 21,4.6568542 21,3 Z"
     sodipodi:nodetypes="sscscscscsscscs" />
  <path
     d="m 12,4 c -1.107995,0 -2,0.8920053 -2,1.9999999 v 1 c 0,-1.1079947 0.892005,-2 2,-2 h 9 c 0,1.6568542 1.343146,3 3,3 1.656854,0 3,-1.3431458 3,-3 h 9 c 1.107995,0 2,0.8920053 2,2 v -1 C 38,4.8920053 37.107995,4 36,4 H 27 C 27,5.6568541 25.656854,6.9999999 24,6.9999999 22.343146,6.9999999 21,5.6568541 21,4 Z"
     style="fill:#8b9095;fill-opacity:1;stroke-width:3.32176;stroke-linecap:round"
     id="path864" />
  <path
     id="rect303"
     style="fill:url(#linearGradient1680);fill-opacity:1;stroke-width:1.24062;stroke-linecap:round"
     d="m 14,6 c -1.107998,0 -2,0.8920031 -2,2 v 33 c 0,1.107997 0.892002,2 2,2 h 20 c 1.107997,0 2,-0.892003 2,-2 V 8 C 36,6.8920031 35.107997,6 34,6 H 27 A 3,3 0 0 1 24,9 3,3 0 0 1 21,6 Z" />
  <path
     id="rect309"
     style="fill:#4d4d4d;fill-opacity:1;stroke-width:4.08048;stroke-linecap:round"
     d="m 14,6 c -1.107996,0 -2,0.8920053 -2,2 v 1 c 0,-1.1079947 0.892004,-2 2,-2 h 7 a 3,3 0 0 0 3,3 3,3 0 0 0 3,-3 h 7 c 1.107995,0 2,0.8920053 2,2 V 8 C 36,6.8920053 35.107995,6 34,6 H 27 A 3,3 0 0 1 24,9 3,3 0 0 1 21,6 Z" />
  <path
     id="path1985"
     style="fill:#8b9095;fill-opacity:1;stroke-width:3.32176;stroke-linecap:round"
     d="m 14,7 c -1.107995,0 -2,0.8920061 -2,2 v 1 c 0,-1.1079939 0.892005,-2 2,-2 h 7 a 3,3 0 0 0 3,3 3,3 0 0 0 3,-3 h 7 c 1.107994,0 2,0.8920061 2,2 V 9 C 36,7.8920061 35.107994,7 34,7 h -7 a 3,3 0 0 1 -3,3 3,3 0 0 1 -3,-3 z" />
  <path
     id="rect2273"
     style="fill:#4d4d4d;fill-opacity:1;stroke-width:2;stroke-linecap:round"
     d="m 12,40 v 1 c 0,1.107997 0.892002,2 2,2 h 20 c 1.107997,0 2,-0.892003 2,-2 v -1 c 0,1.107997 -0.892003,2 -2,2 H 14 c -1.107998,0 -2,-0.892003 -2,-2 z"
     sodipodi:nodetypes="csssscssc" />
</svg>
