<?xml version="1.0" encoding="UTF-8" standalone="no"?>
<!-- Created with Inkscape (http://www.inkscape.org/) -->

<svg
   width="48"
   height="48"
   viewBox="0 0 48 48"
   version="1.1"
   id="svg144504"
   inkscape:version="1.2.2 (1:1.2.2+202305151914+b0a8486541)"
   sodipodi:docname="network-wireless.svg"
   xmlns:inkscape="http://www.inkscape.org/namespaces/inkscape"
   xmlns:sodipodi="http://sodipodi.sourceforge.net/DTD/sodipodi-0.dtd"
   xmlns:xlink="http://www.w3.org/1999/xlink"
   xmlns="http://www.w3.org/2000/svg"
   xmlns:svg="http://www.w3.org/2000/svg">
  <sodipodi:namedview
     id="namedview144506"
     pagecolor="#ffffff"
     bordercolor="#666666"
     borderopacity="1.0"
     inkscape:pageshadow="2"
     inkscape:pageopacity="0.0"
     inkscape:pagecheckerboard="0"
     inkscape:document-units="px"
     showgrid="false"
     units="px"
     inkscape:zoom="16.791667"
     inkscape:cx="23.970223"
     inkscape:cy="24"
     inkscape:window-width="1920"
     inkscape:window-height="1008"
     inkscape:window-x="0"
     inkscape:window-y="0"
     inkscape:window-maximized="1"
     inkscape:current-layer="svg144504"
     inkscape:showpageshadow="2"
     inkscape:deskcolor="#d1d1d1" />
  <defs
     id="defs144501">
    <linearGradient
       inkscape:collect="always"
       id="linearGradient329500">
      <stop
         style="stop-color:#000000;stop-opacity:0"
         offset="0"
         id="stop329496" />
      <stop
         style="stop-color:#000000;stop-opacity:0"
         offset="0.4698768"
         id="stop330200" />
      <stop
         style="stop-color:#000000;stop-opacity:1"
         offset="1"
         id="stop329498" />
    </linearGradient>
    <radialGradient
       inkscape:collect="always"
       xlink:href="#linearGradient329500"
       id="radialGradient329502"
       cx="8.4666672"
       cy="12.7"
       fx="8.4666672"
       fy="12.7"
       r="7.6729169"
       gradientUnits="userSpaceOnUse"
       gradientTransform="matrix(5.3760518,0,0,5.1805584,-21.517241,-26.043101)" />
    <radialGradient
       inkscape:collect="always"
       xlink:href="#linearGradient329500"
       id="radialGradient331953"
       cx="8.4666672"
       cy="12.170835"
       fx="8.4666672"
       fy="12.170835"
       r="4.2333336"
       gradientUnits="userSpaceOnUse"
       gradientTransform="matrix(4.9606292,0,0,4.9606296,-17.999995,-22.124998)" />
  </defs>
  <path
     id="path332853"
     style="color:#000000;fill:#3cc2e2;stroke:none;stroke-width:1.5;stroke-linecap:round;stroke-linejoin:round;-inkscape-stroke:none"
     d="M 24,9.0029293 C 16.450397,9.0090045 9.1673595,11.789194 3.5375977,16.819336 a 0.75007507,0.75007507 0 0 0 -0.043945,1.079589 l 19.9643553,20.8667 a 0.75007507,0.75007507 0 0 0 1.085448,0 L 44.512207,17.888671 a 0.75007507,0.75007507 0 0 0 -0.03809,-1.079589 C 38.840493,11.780686 31.551326,9.0038662 24,9.0029293 Z" />
  <path
     id="path332859"
     style="color:#000000;fill:#1787d6;stroke-width:1.5;stroke-linecap:round;stroke-linejoin:round;-inkscape-stroke:none"
     d="m 24,17.251465 c -5.421462,0.0067 -10.659314,1.971116 -14.7480463,5.53125 a 0.75007507,0.75007507 0 0 0 -0.049807,1.085449 L 23.458009,38.765625 a 0.75007507,0.75007507 0 0 0 1.085449,0 L 38.809569,23.850586 a 0.75007507,0.75007507 0 0 0 -0.04981,-1.07959 C 34.66653,19.212855 29.423553,17.252225 24,17.251465 Z" />
  <path
     id="path332865"
     style="color:#000000;fill:url(#radialGradient329502);stroke-width:1.5;stroke-linecap:round;stroke-linejoin:round;-inkscape-stroke:none"
     d="m 24,17.251465 c -5.421462,0.0067 -10.659314,1.971116 -14.7480463,5.53125 a 0.75007507,0.75007507 0 0 0 -0.049807,1.085449 L 23.458009,38.765625 a 0.75007507,0.75007507 0 0 0 1.085449,0 L 38.809569,23.850586 a 0.75007507,0.75007507 0 0 0 -0.04981,-1.07959 C 34.66653,19.212855 29.423553,17.252225 24,17.251465 Z" />
  <path
     id="path332871"
     style="color:#000000;fill:#02589f;stroke-width:1.5;stroke-linecap:round;stroke-linejoin:round;-inkscape-stroke:none"
     d="m 24,25.501465 c -3.280761,0.0075 -6.435392,1.275968 -8.802246,3.547852 a 0.75007507,0.75007507 0 0 0 -0.02196,1.063477 l 8.282229,8.652831 a 0.75007507,0.75007507 0 0 0 1.085448,0 l 8.292464,-8.668946 a 0.75007507,0.75007507 0 0 0 -0.02211,-1.057617 C 30.441755,26.769321 27.283123,25.502033 24,25.501465 Z" />
  <path
     id="path332877"
     style="color:#000000;opacity:0.2;fill:url(#radialGradient331953);stroke-width:1.5;stroke-linecap:round;stroke-linejoin:round;-inkscape-stroke:none"
     d="m 24,25.501465 c -3.28248,0.0022 -6.437205,1.267464 -8.808106,3.537597 a 0.75007507,0.75007507 0 0 0 -0.02785,1.062011 l 8.293946,8.664552 a 0.75007507,0.75007507 0 0 0 1.085449,0 l 8.292502,-8.668946 a 0.75007507,0.75007507 0 0 0 -0.02211,-1.057617 C 30.441528,26.76989 27.282907,25.501613 24,25.501465 Z" />
</svg>
