<?xml version="1.0" encoding="UTF-8" standalone="no"?>
<!-- Created with Inkscape (http://www.inkscape.org/) -->

<svg
   width="48"
   height="48"
   viewBox="0 0 48 48"
   version="1.1"
   id="svg5"
   inkscape:version="1.2.1 (9c6d41e410, 2022-07-14, custom)"
   sodipodi:docname="scanner.svg"
   xmlns:inkscape="http://www.inkscape.org/namespaces/inkscape"
   xmlns:sodipodi="http://sodipodi.sourceforge.net/DTD/sodipodi-0.dtd"
   xmlns:xlink="http://www.w3.org/1999/xlink"
   xmlns="http://www.w3.org/2000/svg"
   xmlns:svg="http://www.w3.org/2000/svg">
  <sodipodi:namedview
     id="namedview7"
     pagecolor="#ffffff"
     bordercolor="#666666"
     borderopacity="1.0"
     inkscape:pageshadow="2"
     inkscape:pageopacity="0.0"
     inkscape:pagecheckerboard="0"
     inkscape:document-units="px"
     showgrid="false"
     units="px"
     inkscape:zoom="16.833333"
     inkscape:cx="24"
     inkscape:cy="24"
     inkscape:window-width="1920"
     inkscape:window-height="1010"
     inkscape:window-x="0"
     inkscape:window-y="0"
     inkscape:window-maximized="1"
     inkscape:current-layer="svg5"
     showguides="false"
     inkscape:showpageshadow="2"
     inkscape:deskcolor="#d1d1d1"
     inkscape:lockguides="false" />
  <defs
     id="defs2">
    <linearGradient
       inkscape:collect="always"
       id="linearGradient2090">
      <stop
         style="stop-color:#e3e4e5;stop-opacity:1;"
         offset="0"
         id="stop2086" />
      <stop
         style="stop-color:#adb0b3;stop-opacity:1"
         offset="1"
         id="stop2088" />
    </linearGradient>
    <linearGradient
       inkscape:collect="always"
       xlink:href="#linearGradient6037"
       id="linearGradient6039"
       x1="19.654881"
       y1="26.228785"
       x2="39.464405"
       y2="26.228785"
       gradientUnits="userSpaceOnUse"
       gradientTransform="matrix(1.6153846,0,0,0.99999999,-23.750188,-2.4787731)" />
    <linearGradient
       inkscape:collect="always"
       id="linearGradient6037">
      <stop
         style="stop-color:#f5f6f6;stop-opacity:1"
         offset="0"
         id="stop6033" />
      <stop
         style="stop-color:#e0e7e8;stop-opacity:1"
         offset="1"
         id="stop6035" />
    </linearGradient>
    <linearGradient
       inkscape:collect="always"
       xlink:href="#linearGradient90436"
       id="linearGradient90438"
       x1="-1.9999971"
       y1="26.499996"
       x2="52"
       y2="26.499996"
       gradientUnits="userSpaceOnUse"
       gradientTransform="translate(-1.0000012,7.0000112)" />
    <linearGradient
       inkscape:collect="always"
       id="linearGradient90436">
      <stop
         style="stop-color:#54595e;stop-opacity:1;"
         offset="0"
         id="stop90432" />
      <stop
         style="stop-color:#54595e;stop-opacity:0"
         offset="0.13"
         id="stop91018" />
      <stop
         style="stop-color:#54595e;stop-opacity:0"
         offset="0.87"
         id="stop90760" />
      <stop
         style="stop-color:#54595e;stop-opacity:1"
         offset="1"
         id="stop90434" />
    </linearGradient>
    <radialGradient
       inkscape:collect="always"
       xlink:href="#linearGradient50337"
       id="radialGradient50339"
       cx="3.5557096"
       cy="10.338881"
       fx="3.5557096"
       fy="10.338881"
       r="0.66144532"
       gradientUnits="userSpaceOnUse"
       gradientTransform="matrix(1.5118408,0,0,1.5118408,34.699998,19.100023)" />
    <linearGradient
       inkscape:collect="always"
       id="linearGradient50337">
      <stop
         style="stop-color:#ffffff;stop-opacity:1;"
         offset="0"
         id="stop50333" />
      <stop
         style="stop-color:#ffffff;stop-opacity:0;"
         offset="1"
         id="stop50335" />
    </linearGradient>
    <filter
       inkscape:collect="always"
       style="color-interpolation-filters:sRGB"
       id="filter944"
       x="-0.3"
       y="-0.3"
       width="1.6"
       height="1.6">
      <feGaussianBlur
         inkscape:collect="always"
         stdDeviation="0.06614583"
         id="feGaussianBlur946" />
    </filter>
    <linearGradient
       inkscape:collect="always"
       xlink:href="#linearGradient2090"
       id="linearGradient2092"
       x1="2.6458335"
       y1="7.1437502"
       x2="11.641668"
       y2="7.1437502"
       gradientUnits="userSpaceOnUse"
       gradientTransform="matrix(3.7795275,0,0,3.7795275,-2.9999985,-4.99999)" />
    <linearGradient
       inkscape:collect="always"
       id="linearGradient91517">
      <stop
         style="stop-color:#595d62;stop-opacity:1"
         offset="0"
         id="stop91513" />
      <stop
         style="stop-color:#2f3234;stop-opacity:0.99607843"
         offset="1"
         id="stop91515" />
    </linearGradient>
    <linearGradient
       inkscape:collect="always"
       xlink:href="#linearGradient91517"
       id="linearGradient4787"
       x1="51.953217"
       y1="11.073556"
       x2="52"
       y2="21.000023"
       gradientUnits="userSpaceOnUse"
       gradientTransform="matrix(0.49999949,0,0,0.49999949,4.0000062,10.499995)" />
  </defs>
  <path
     id="rect31485"
     style="fill:#737a80;fill-opacity:1;stroke-width:2;stroke-linecap:round;stroke-linejoin:round;stroke-dasharray:24, 2"
     d="m 10,20.999996 -6.2284357,5.424767 1.2284394,-0.248247 h 12.0000003 14.000004 12 l 1.231993,0.24841 L 38,20.999996 Z"
     sodipodi:nodetypes="ccccccccc" />
  <path
     id="rect849-3"
     style="fill:#555a5f;fill-opacity:0.996078;stroke-width:2;stroke-linecap:round;stroke-linejoin:round;stroke-dasharray:24, 2"
     d="M 5.0000037,25.999924 H 43.000004 C 44.108003,25.999924 45,26.891925 45,27.999927 v 6.00007 c 0,1.108002 -0.891997,1.999998 -1.999996,1.999998 H 5.0000037 c -1.1080017,0 -2.0000027,-0.891996 -2.0000027,-1.999998 v -6.00007 c 0,-1.108002 0.892001,-2.000003 2.0000027,-2.000003 z"
     sodipodi:nodetypes="sssssssss" />
  <path
     id="rect31485-7"
     style="fill:url(#linearGradient4787);fill-opacity:1;stroke-width:0.999999;stroke-linecap:round;stroke-linejoin:round;stroke-dasharray:12, 0.999999"
     d="m 5.2494995,15.999989 c -0.8791824,-0.0019 -1.250496,0.403015 -1.2499988,1.249999 L 10,20.999996 h 27.999979 l 5.999969,-3.750008 c -0.0036,-0.584221 -0.468438,-1.248102 -1.249998,-1.249999 z"
     sodipodi:nodetypes="ccccccc" />
  <path
     id="rect31485-7-3"
     style="fill:#2e3133;fill-opacity:1;stroke-width:1;stroke-linecap:round;stroke-linejoin:round;stroke-dasharray:12, 1"
     d="m 5.2494694,15.000003 c -0.8791833,-0.0019 -1.2934661,0.846733 -1.2929689,1.693718 l 0.042969,0.556267 C 4.1196582,16.705017 4.5411807,15.998093 5.2494694,15.99963 l 37.5004216,3.59e-4 c 0.60315,0.0015 1.090526,0.800899 1.249998,1.249999 l 0.07422,-0.596307 c -0.0036,-0.58422 -0.542656,-1.651422 -1.324217,-1.653318 z"
     sodipodi:nodetypes="ccccccccc" />
  <path
     id="rect50762"
     style="fill:#bcc6cf;stroke-width:2;stroke-linecap:round;stroke-linejoin:round;stroke-dasharray:24, 2"
     d="M 5.0000014,26.000009 H 43.000001 c 1.108002,0 1.999999,0.892 1.999999,2 v 4.999987 H 3.0000014 v -4.999987 c 0,-1.108 0.8919998,-2 2,-2 z"
     sodipodi:nodetypes="sssccss" />
  <path
     id="rect41096"
     style="fill:url(#linearGradient90438);fill-opacity:1;stroke-width:1.96521;stroke-linecap:round;stroke-linejoin:round;stroke-dasharray:23.5826, 1.96521"
     d="M 5.0000014,26.000009 H 43.000001 C 44.108003,26.000009 45,26.892012 45,28.00001 v 5.999989 c 0,1.107995 -0.891997,1.999994 -1.999999,1.999994 H 5.0000014 c -1.1079998,0 -2,-0.891999 -2,-1.999994 V 28.00001 c 0,-1.107998 0.8920002,-2.000001 2,-2.000001 z"
     sodipodi:nodetypes="sssssssss" />
  <path
     id="rect96884"
     style="fill:url(#linearGradient2092);fill-opacity:1;stroke-width:2.07091;stroke-linecap:round;stroke-linejoin:round;stroke-dasharray:24.8509, 2.07091"
     d="m 11,21.999996 h 26 l 4.000005,3.000014 H 7.000001 Z"
     sodipodi:nodetypes="ccccc" />
  <circle
     style="opacity:0.4;mix-blend-mode:normal;fill:#12ff12;fill-opacity:1;stroke-width:0.229006;stroke-linecap:round;stroke-linejoin:round;stroke-dasharray:2.74805, 0.229006;filter:url(#filter944)"
     id="path25907"
     cx="13.229167"
     cy="8.9958372"
     r="0.26458332"
     transform="matrix(4.7244096,0,0,4.7244096,-22.081678,-8.0000121)" />
  <circle
     style="fill:#12ff12;fill-opacity:1;stroke-width:0.800002;stroke-linecap:round;stroke-linejoin:round;stroke-dasharray:9.59998, 0.800002"
     id="path30449"
     cx="40.5"
     cy="34.500008"
     r="1" />
  <circle
     style="opacity:0.7;fill:url(#radialGradient50339);fill-opacity:1;stroke-width:0.800002;stroke-linecap:round;stroke-linejoin:round;stroke-dasharray:9.59998, 0.800002"
     id="path50091"
     cx="40.5"
     cy="34.500008"
     r="1" />
  <path
     id="path49923"
     style="opacity:0.2;fill:#000000;fill-opacity:1;stroke-width:0.800002;stroke-linecap:round;stroke-linejoin:round;stroke-dasharray:9.59998, 0.800002"
     d="m 41.02813,33.771903 a 0.9,0.9 0 0 1 0.17184,0.528126 0.9,0.9 0 0 1 -0.899996,0.9 0.9,0.9 0 0 1 -0.528128,-0.17186 0.9,0.9 0 0 0 0.728126,0.371868 0.9,0.9 0 0 0 0.900014,-0.9 0.9,0.9 0 0 0 -0.371866,-0.728122 z" />
  <path
     id="rect849"
     style="fill:url(#linearGradient6039);fill-opacity:1;stroke-width:2.842;stroke-linecap:round;stroke-linejoin:round;stroke-dasharray:34.1039, 2.842"
     d="m 11,22.999996 h 26 l 3,2.000014 H 8.000001 Z"
     sodipodi:nodetypes="ccccc" />
</svg>
