<?xml version="1.0" encoding="UTF-8" standalone="no"?>
<!-- Created with Inkscape (http://www.inkscape.org/) -->

<svg
   width="16"
   height="16"
   viewBox="0 0 16 16.000001"
   version="1.1"
   id="svg5"
   inkscape:version="1.3.2 (091e20ef0f, 2023-11-25, custom)"
   sodipodi:docname="file-roller-symbolic.svg"
   xmlns:inkscape="http://www.inkscape.org/namespaces/inkscape"
   xmlns:sodipodi="http://sodipodi.sourceforge.net/DTD/sodipodi-0.dtd"
   xmlns="http://www.w3.org/2000/svg"
   xmlns:svg="http://www.w3.org/2000/svg">
  <sodipodi:namedview
     id="namedview7"
     pagecolor="#ffffff"
     bordercolor="#000000"
     borderopacity="0.25"
     inkscape:showpageshadow="2"
     inkscape:pageopacity="0.0"
     inkscape:pagecheckerboard="0"
     inkscape:deskcolor="#d1d1d1"
     inkscape:document-units="px"
     showgrid="false"
     inkscape:zoom="50.25"
     inkscape:cx="8"
     inkscape:cy="8"
     inkscape:window-width="1920"
     inkscape:window-height="1008"
     inkscape:window-x="0"
     inkscape:window-y="0"
     inkscape:window-maximized="1"
     inkscape:current-layer="svg5" />
  <defs
     id="defs2" />
  <path
     id="path347"
     style="fill:#363636;stroke-width:1.5;stroke-linecap:round;stroke-linejoin:round;paint-order:stroke fill markers"
     d="M 2 1 C 0.89200111 1 0 1.8920011 0 3 L 0 13 C 0 14.107999 0.89200111 15 2 15 L 14 15 C 15.107999 15 16 14.107999 16 13 L 16 5 C 16 3.8920011 15.107999 3 14 3 L 8 3 L 6 1 L 2 1 z M 2 2 L 5.5859375 2 L 7.0820312 3.5039062 L 5.5859375 5 L 1 5 L 1 3 C 1 2.4460006 1.4460006 2 2 2 z M 8 4 L 10 4 L 10 6.5 C 10 6.6326098 10.052689 6.7597558 10.146484 6.8535156 C 10.240284 6.9472854 10.3673 7 10.5 7 L 10.996094 7 L 10.996094 8 L 10.496094 8 C 10.233931 8 10.021047 8.2022405 10 8.4589844 L 10 8.5410156 C 10.021047 8.7977597 10.233931 9 10.496094 9 L 10.998047 9 L 10.998047 11 L 10.5 11 C 10.223801 11 10 11.2239 10 11.5 C 10 11.7761 10.223801 12 10.5 12 L 11 12 L 11 14 L 2 14 C 1.4460006 14 1 13.553999 1 13 L 1 6 L 6 6 L 8 4 z M 11 4 L 12 4 L 12 6 L 11 6 L 11 4 z M 13 4 L 14 4 C 14.553999 4 15 4.4460006 15 5 L 15 13 C 15 13.553999 14.553999 14 14 14 L 12 14 L 12 13.5 L 12.496094 13.5 C 12.772193 13.5 12.996094 13.2761 12.996094 13 C 12.996094 12.7239 12.772193 12.5 12.496094 12.5 L 12 12.5 L 11.998047 10.5 L 12.5 10.5 C 12.7761 10.5 13 10.2761 13 10 C 13 9.7239005 12.7761 9.5 12.5 9.5 L 11.998047 9.5 L 11.996094 7 L 12.5 7 C 12.7761 7 13 6.7761394 13 6.5 L 13 4 z " />
</svg>
