<?xml version="1.0" encoding="UTF-8" standalone="no"?>
<!-- Created with Inkscape (http://www.inkscape.org/) -->

<svg
   width="16"
   height="16"
   viewBox="0 0 16 16"
   version="1.1"
   id="svg5"
   inkscape:version="1.2.1 (9c6d41e410, 2022-07-14, custom)"
   sodipodi:docname="preferences-desktop-accessibility-symbolic.svg"
   xmlns:inkscape="http://www.inkscape.org/namespaces/inkscape"
   xmlns:sodipodi="http://sodipodi.sourceforge.net/DTD/sodipodi-0.dtd"
   xmlns="http://www.w3.org/2000/svg"
   xmlns:svg="http://www.w3.org/2000/svg">
  <sodipodi:namedview
     id="namedview7"
     pagecolor="#ffffff"
     bordercolor="#666666"
     borderopacity="1.0"
     inkscape:pageshadow="2"
     inkscape:pageopacity="0.0"
     inkscape:pagecheckerboard="0"
     inkscape:document-units="px"
     showgrid="false"
     units="px"
     height="48px"
     inkscape:zoom="50.625"
     inkscape:cx="7.9901235"
     inkscape:cy="8"
     inkscape:window-width="1920"
     inkscape:window-height="1012"
     inkscape:window-x="0"
     inkscape:window-y="0"
     inkscape:window-maximized="1"
     inkscape:current-layer="svg5"
     inkscape:lockguides="true"
     inkscape:showpageshadow="2"
     inkscape:deskcolor="#d1d1d1" />
  <defs
     id="defs2" />
  <path
     id="rect1286"
     style="fill:#363636;fill-opacity:1;stroke:none;stroke-width:0.88;stroke-linecap:round;stroke-linejoin:round;stroke-dasharray:none"
     d="M 8,0 C 6.3431494,-9.448432e-8 5,1.343149 5,3 5,3.4000568 5.0785808,3.7818727 5.2207031,4.1308594 L 2.3437656,3.4492188 C 2.1301938,3.3259116 1.8968926,3.2704738 1.6679844,3.2753906 1.2309776,3.2847634 0.8096366,3.5160973 0.5742344,3.9238281 0.2155259,4.5451298 0.4275424,5.3346512 1.0488437,5.6933594 L 5,7.3632812 V 9.5 l -1.7927969,4.761719 c -0.2453708,0.67415 0.1012385,1.414785 0.7753906,1.660156 0.6741519,0.245375 1.4128316,-0.09928 1.6582032,-0.773437 l 1.9138906,-3.464844 c 0.1409942,-0.357575 0.573053,-0.364907 0.7382813,-0.0059 l 1.7632342,3.470704 c 0.245371,0.67415 0.98405,1.018809 1.658204,0.773437 0.67415,-0.245371 1.020763,-0.986007 0.77539,-1.660156 L 11,9.5 V 7.3632812 l 4.13911,-1.7460937 c 0.6213,-0.3587079 0.831365,-1.14823 0.472656,-1.7695313 C 15.365154,3.4205117 14.91651,3.1868158 14.457469,3.1992188 14.248813,3.2048485 14.036391,3.2629023 13.842235,3.375 L 10.78125,4.1230469 C 10.921486,3.7760518 11,3.3972512 11,3 11,1.343149 9.6568503,-9.4484318e-8 8,0 Z m 0,1 c 1.1045669,-10e-8 2,0.8954327 2,2 C 10,4.0541099 9.1849002,4.9174374 8.1503906,4.9941406 8.1004777,4.9965964 8.0505367,5 8,5 7.9478823,5 7.89715,4.9967643 7.8457031,4.9941406 6.8130374,4.9155662 6,4.0527901 6,3 6,1.8954327 6.8954329,0.9999999 8,1 Z m 6.484813,3.1992188 c 0.102429,-0.00277 0.19872,0.039322 0.261719,0.1484374 0.0882,0.1527664 0.03944,0.301685 -0.105469,0.3925782 L 10.611328,6.4414062 C 10.240693,6.5977834 9.9998261,6.9610071 10,7.3632812 V 9.5 c 3.64e-4,0.1321573 0.02692,0.2629321 0.07813,0.3847656 l 1.472219,4.7187504 c 0.06134,0.168536 -0.0078,0.317054 -0.177734,0.378906 -0.170733,0.06214 -0.314729,-0.0048 -0.376953,-0.175781 L 9.2324219,11.335938 c -0.00937,-0.02581 -0.019792,-0.05122 -0.03125,-0.07617 C 8.979093,10.777175 8.458879,10.405819 7.9042969,10.412109 7.3497144,10.418399 6.8224993,10.815531 6.625,11.316406 c -0.00337,0.0084 -0.00663,0.01688 -0.00977,0.02539 L 4.7013393,14.80664 c -0.062226,0.170963 -0.2062215,0.237923 -0.3769531,0.175781 -0.1681665,-0.06121 -0.2337956,-0.208644 -0.1757813,-0.375 L 5.9121094,9.9101562 C 5.9700709,9.7811877 6.0000266,9.6413945 6,9.5 V 7.3632812 C 6.0001739,6.9610071 5.7593074,6.5977834 5.3886719,6.4414062 l -3.8417813,-1.625 C 1.4012188,4.7250509 1.3520274,4.5752813 1.4394687,4.4238281 c 0.058952,-0.1021082 0.1518864,-0.1463338 0.25,-0.1484375 0.052982,-0.00114 0.1014213,0.00853 0.1542969,0.039063 0.050468,0.029308 0.1034042,0.054143 0.1582031,0.074219 L 6.0742188,5.5039062 C 6.598579,5.7923665 7.1985246,5.9669661 7.8300781,5.9941406 7.8863972,5.9972897 7.9428935,6 8,6 8.0670557,6 8.1332589,5.9965193 8.1992188,5.9921875 8.8345461,5.9601518 9.4367009,5.7793214 9.9628906,5.4824219 L 14.184032,4.3144531 c 0.0548,-0.020076 0.107735,-0.044911 0.158203,-0.074219 0.05011,-0.028929 0.100909,-0.039891 0.142578,-0.041015 z"
     sodipodi:nodetypes="sscccccccccccccsccccscccsssscscsscsccccccscccscccsccccccscccccsccccc" />
</svg>
