<?xml version="1.0" encoding="UTF-8" standalone="no"?>
<!-- Created with Inkscape (http://www.inkscape.org/) -->

<svg
   width="16"
   height="16"
   viewBox="0 0 16 16"
   version="1.1"
   id="svg532"
   inkscape:version="1.2.1 (9c6d41e410, 2022-07-14, custom)"
   sodipodi:docname="system-software-update-symbolic.svg"
   xmlns:inkscape="http://www.inkscape.org/namespaces/inkscape"
   xmlns:sodipodi="http://sodipodi.sourceforge.net/DTD/sodipodi-0.dtd"
   xmlns="http://www.w3.org/2000/svg"
   xmlns:svg="http://www.w3.org/2000/svg">
  <sodipodi:namedview
     id="namedview534"
     pagecolor="#ffffff"
     bordercolor="#000000"
     borderopacity="0.25"
     inkscape:showpageshadow="2"
     inkscape:pageopacity="0.0"
     inkscape:pagecheckerboard="0"
     inkscape:deskcolor="#d1d1d1"
     inkscape:document-units="px"
     showgrid="false"
     inkscape:zoom="50.5625"
     inkscape:cx="7.9901112"
     inkscape:cy="8"
     inkscape:window-width="1920"
     inkscape:window-height="1012"
     inkscape:window-x="0"
     inkscape:window-y="0"
     inkscape:window-maximized="1"
     inkscape:current-layer="svg532" />
  <defs
     id="defs529" />
  <path
     id="path291"
     style="fill:#363636;stroke-linecap:round;stroke-linejoin:round;fill-opacity:1"
     d="M 8 0 A 8 8 0 0 0 0 8 A 8 8 0 0 0 8 16 A 8 8 0 0 0 16 8 A 8 8 0 0 0 8 0 z M 8 1 A 7 7 0 0 1 15 8 A 7 7 0 0 1 8 15 A 7 7 0 0 1 1 8 A 7 7 0 0 1 8 1 z M 7.9023438 3.0019531 C 6.1753915 3.0360697 4.5559719 3.9653161 3.6699219 5.5 C 3.5315519 5.7394278 3.6138097 6.0457064 3.8535156 6.1835938 C 4.092507 6.3206346 4.3973229 6.2385353 4.5351562 6 C 5.3768099 4.5422132 7.0375786 3.7682437 8.6953125 4.0605469 C 10.249438 4.3345811 11.483951 5.4908251 11.873047 7 L 9.5 7 C 9.2230009 7 9 7.2230009 9 7.5 C 9 7.7769991 9.2230009 8 9.5 8 L 12.5 8 C 12.51731 8 12.533931 7.9997447 12.550781 7.9980469 C 12.803522 7.9725299 13 7.7596866 13 7.5 L 13 4.5 C 13 4.2230009 12.777 4 12.5 4 C 12.223 4 12 4.2230009 12 4.5 L 12 5.0019531 C 11.254219 4.007541 10.147517 3.3015839 8.8691406 3.0761719 C 8.5459595 3.0191863 8.2221496 2.9956352 7.9023438 3.0019531 z M 3.5 8 C 3.48269 8 3.4660686 8.0002051 3.4492188 8.0019531 C 3.1964782 8.0274731 3 8.2403134 3 8.5 L 3 11.5 C 3 11.776999 3.2230006 12 3.5 12 C 3.7769993 12 4 11.776999 4 11.5 L 4 10.998047 C 4.7457809 11.992459 5.8524838 12.698416 7.1308594 12.923828 C 9.1992185 13.288536 11.279945 12.318884 12.330078 10.5 C 12.468448 10.260572 12.38619 9.9542935 12.146484 9.8164062 C 11.907493 9.6793658 11.602677 9.761465 11.464844 10 C 10.623191 11.457788 8.9624214 12.231757 7.3046875 11.939453 C 5.7499314 11.665307 4.5155195 10.510075 4.1269531 9 L 6.5 9 C 6.7769996 9 7 8.7769991 7 8.5 C 7 8.2230004 6.7769995 8 6.5 8 L 3.5 8 z " />
</svg>
