<?xml version="1.0" encoding="UTF-8" standalone="no"?>
<!-- Created with Inkscape (http://www.inkscape.org/) -->

<svg
   width="32"
   height="32"
   viewBox="0 0 32 32.000001"
   version="1.1"
   id="svg5"
   inkscape:version="1.4.2 (ebf0e940d0, 2025-05-08)"
   sodipodi:docname="system-reboot.svg"
   xmlns:inkscape="http://www.inkscape.org/namespaces/inkscape"
   xmlns:sodipodi="http://sodipodi.sourceforge.net/DTD/sodipodi-0.dtd"
   xmlns:xlink="http://www.w3.org/1999/xlink"
   xmlns="http://www.w3.org/2000/svg"
   xmlns:svg="http://www.w3.org/2000/svg">
  <sodipodi:namedview
     id="namedview7"
     pagecolor="#ffffff"
     bordercolor="#000000"
     borderopacity="0.25"
     inkscape:showpageshadow="2"
     inkscape:pageopacity="0.0"
     inkscape:pagecheckerboard="0"
     inkscape:deskcolor="#d1d1d1"
     inkscape:document-units="px"
     showgrid="false"
     inkscape:zoom="25.03125"
     inkscape:cx="15.980025"
     inkscape:cy="16"
     inkscape:window-width="1920"
     inkscape:window-height="1011"
     inkscape:window-x="0"
     inkscape:window-y="0"
     inkscape:window-maximized="1"
     inkscape:current-layer="svg5" />
  <defs
     id="defs2">
    <linearGradient
       inkscape:collect="always"
       id="linearGradient6074">
      <stop
         style="stop-color:#459b11;stop-opacity:1;"
         offset="0"
         id="stop6070" />
      <stop
         style="stop-color:#7bc630;stop-opacity:1;"
         offset="1"
         id="stop6072" />
    </linearGradient>
    <linearGradient
       inkscape:collect="always"
       xlink:href="#linearGradient6074"
       id="linearGradient2"
       x1="23.244261"
       y1="27.888126"
       x2="8.3114882"
       y2="4.408463"
       gradientUnits="userSpaceOnUse" />
  </defs>
  <path
     id="path368"
     style="color:#000000;fill:url(#linearGradient2);stroke:none;stroke-width:1.5;stroke-linecap:round"
     d="M 16.042969,2.0000747 C 10.968706,1.9831799 6.310274,4.8330857 4,9.3164807 v -2.816406 c 0,-0.830997 -0.669003,-1.5 -1.5,-1.5 -0.8309974,0 -1.5,0.669003 -1.5,1.5 v 6.0000003 c 0,0.830996 0.6690026,1.5 1.5,1.5 h 6 c 0.830996,0 1.5,-0.669004 1.5,-1.5 0,-0.830996 -0.669004,-1.5 -1.5,-1.5 H 6.513672 c 1.86425,-3.9383723 5.989209,-6.3449133 10.40039,-5.9589843 4.741483,0.414825 8.601242,3.949434 9.427735,8.6367183 0.144301,0.815292 0.920923,1.360456 1.736328,1.216797 0.815291,-0.1443 1.360456,-0.922876 1.216797,-1.738281 C 28.235165,7.1461307 23.257421,2.5847137 17.177734,2.0528087 16.797755,2.0195687 16.419165,2.0013247 16.042969,2.0000747 Z M 23.5,18.000075 c -0.830996,0 -1.5,0.669004 -1.5,1.5 0,0.830996 0.669004,1.5 1.5,1.5 h 1.986328 c -1.72429,3.640933 -5.398094,6 -9.486328,6 -4.419326,0 -8.355689,-2.755395 -9.867188,-6.908203 C 5.849459,19.313787 4.989193,18.912505 4.210938,19.195387 3.432852,19.47874 3.031569,20.339007 3.314453,21.117263 5.253778,26.445512 10.329796,30.000075 16,30.000075 c 5.095777,0 9.709445,-2.871242 12,-7.320312 v 2.820312 c 0,0.830996 0.669004,1.5 1.5,1.5 0.830996,0 1.5,-0.669004 1.5,-1.5 v -6 c 0,-0.830996 -0.669004,-1.5 -1.5,-1.5 z" />
</svg>
