<?xml version="1.0" encoding="UTF-8" standalone="no"?>
<!-- Created with Inkscape (http://www.inkscape.org/) -->

<svg
   width="64"
   height="64"
   viewBox="0 0 64 64"
   version="1.1"
   id="svg5"
   inkscape:version="1.2.1 (9c6d41e410, 2022-07-14, custom)"
   sodipodi:docname="folder-music.svg"
   xmlns:inkscape="http://www.inkscape.org/namespaces/inkscape"
   xmlns:sodipodi="http://sodipodi.sourceforge.net/DTD/sodipodi-0.dtd"
   xmlns:xlink="http://www.w3.org/1999/xlink"
   xmlns="http://www.w3.org/2000/svg"
   xmlns:svg="http://www.w3.org/2000/svg">
  <sodipodi:namedview
     id="namedview7"
     pagecolor="#ffffff"
     bordercolor="#666666"
     borderopacity="1.0"
     inkscape:pageshadow="2"
     inkscape:pageopacity="0.0"
     inkscape:pagecheckerboard="0"
     inkscape:document-units="px"
     showgrid="false"
     units="px"
     height="64px"
     inkscape:zoom="12.625"
     inkscape:cx="32"
     inkscape:cy="32"
     inkscape:window-width="1920"
     inkscape:window-height="1010"
     inkscape:window-x="0"
     inkscape:window-y="0"
     inkscape:window-maximized="1"
     inkscape:current-layer="svg5"
     inkscape:showpageshadow="2"
     inkscape:deskcolor="#d1d1d1" />
  <defs
     id="defs2">
    <linearGradient
       inkscape:collect="always"
       xlink:href="#linearGradient979"
       id="linearGradient11974"
       x1="5.2916665"
       y1="5.5562496"
       x2="13.758334"
       y2="13.493751"
       gradientUnits="userSpaceOnUse"
       gradientTransform="scale(3.7795276)" />
    <linearGradient
       inkscape:collect="always"
       xlink:href="#linearGradient4276"
       id="linearGradient4407"
       x1="32"
       y1="10.5"
       x2="32"
       y2="18.5"
       gradientUnits="userSpaceOnUse" />
    <linearGradient
       inkscape:collect="always"
       id="linearGradient2350">
      <stop
         style="stop-color:#ffffff;stop-opacity:1;"
         offset="0"
         id="stop2346" />
      <stop
         style="stop-color:#ffffff;stop-opacity:0;"
         offset="1"
         id="stop2348" />
    </linearGradient>
    <linearGradient
       inkscape:collect="always"
       xlink:href="#linearGradient2350"
       id="linearGradient2508"
       gradientUnits="userSpaceOnUse"
       gradientTransform="translate(0,-1)"
       x1="2"
       y1="22"
       x2="62"
       y2="22" />
    <linearGradient
       inkscape:collect="always"
       id="linearGradient979">
      <stop
         style="stop-color:#f09154;stop-opacity:1;"
         offset="0"
         id="stop975" />
      <stop
         style="stop-color:#9d66af;stop-opacity:1"
         offset="1"
         id="stop977" />
    </linearGradient>
    <linearGradient
       inkscape:collect="always"
       id="linearGradient4276">
      <stop
         style="stop-color:#bf6413;stop-opacity:1;"
         offset="0"
         id="stop4272" />
      <stop
         style="stop-color:#985433;stop-opacity:1"
         offset="1"
         id="stop4274" />
    </linearGradient>
    <linearGradient
       inkscape:collect="always"
       id="linearGradient4216">
      <stop
         style="stop-color:#7f4947;stop-opacity:1;"
         offset="0"
         id="stop4212" />
      <stop
         style="stop-color:#4f366f;stop-opacity:1"
         offset="1"
         id="stop4214" />
    </linearGradient>
    <linearGradient
       inkscape:collect="always"
       xlink:href="#linearGradient4216"
       id="linearGradient8364"
       x1="2"
       y1="54.5"
       x2="62"
       y2="54.5"
       gradientUnits="userSpaceOnUse" />
  </defs>
  <path
     id="rect846"
     style="fill:url(#linearGradient4407);fill-opacity:1.0;stroke-width:2;stroke-linecap:round;stroke-linejoin:round;stroke-dasharray:24, 2"
     d="M 5.0000001,9 C 3.338,9 2,10.338 2,12 2.094521,12.977241 2,40.000002 2,40.000002 H 62 V 17 c 0,-1.108 -0.891999,-2 -1.999997,-2 H 29.000001 l -4,-4 c -1.365257,-1.3362318 -2.338,-2 -4,-2 z"
     sodipodi:nodetypes="scccccccss" />
  <path
     id="rect1170"
     style="fill:url(#linearGradient11974);fill-opacity:1.0;stroke-width:2.64576;stroke-linecap:round;stroke-linejoin:round;stroke-dasharray:31.749, 2.64576"
     d="M 29.000001,16 23,20 H 6.0000003 C 3.7839999,20 2,21.784 2,24 v 30 c 0,1.108003 0.8919999,2.000001 2.0000001,2.000001 H 60.000003 C 61.108001,56.000001 62,55.108003 62,54 V 18 c 0,-1.108 -0.891995,-2 -1.999997,-2 z"
     sodipodi:nodetypes="ccsccccccsc" />
  <path
     id="path2554"
     style="fill:url(#linearGradient8364);fill-opacity:1.0;stroke-width:2.64576;stroke-linecap:round;stroke-linejoin:round;stroke-dasharray:31.749, 2.64576"
     d="M 2 53 L 2 54 C 2 55.107999 2.8920009 56 4 56 L 60 56 C 61.107999 56 62 55.107999 62 54 L 62 53 C 62 54.107999 61.107999 55 60 55 L 4 55 C 2.8920011 55 2 54.107999 2 53 z " />
  <path
     id="path2484"
     style="opacity:0.3;fill:url(#linearGradient2508);fill-opacity:1;stroke-width:2.64576;stroke-linecap:round;stroke-linejoin:round;stroke-dasharray:31.749, 2.64576"
     d="M 29 16 L 23 20 L 6 20 C 3.7840022 20 2 21.784002 2 24 L 2 25 C 2 22.784002 3.7840022 21 6 21 L 23 21 L 29 17 L 60 17 C 61.108005 17 62 17.892001 62 19 L 62 18 C 62 16.892001 61.108005 16 60 16 L 29 16 z " />
  <path
     id="rect1955"
     style="fill:#ffffff;stroke-width:1.91486;stroke-linecap:round;stroke-linejoin:round"
     d="M 35.232422,22.000424 C 34.512124,22.017864 34,22.56644 34,23.432066 v 3.999999 12.378908 a 6.5,6.5 0 0 0 -4.5,-1.810549 6.5,6.5 0 0 0 -6.5,6.500002 6.5,6.5 0 0 0 6.5,6.499997 6.5,6.5 0 0 0 6.482422,-6.041015 l 0.01758,0.04101 V 44.500426 30.160581 l 7.121093,2.589843 C 44.162275,33.129383 45,32.543972 45,31.435972 v -4.000001 c 0,-1.107999 -0.837725,-2.306588 -1.878905,-2.685547 l -7.242184,-2.634766 c -0.227758,-0.0829 -0.444801,-0.120118 -0.646484,-0.115234 z" />
</svg>
