<?xml version="1.0" encoding="UTF-8" standalone="no"?>
<!-- Created with Inkscape (http://www.inkscape.org/) -->

<svg
   width="64"
   height="64"
   viewBox="0 0 64 64"
   version="1.1"
   id="svg5"
   inkscape:version="1.2.1 (9c6d41e410, 2022-07-14, custom)"
   sodipodi:docname="folder-temp.svg"
   xmlns:inkscape="http://www.inkscape.org/namespaces/inkscape"
   xmlns:sodipodi="http://sodipodi.sourceforge.net/DTD/sodipodi-0.dtd"
   xmlns:xlink="http://www.w3.org/1999/xlink"
   xmlns="http://www.w3.org/2000/svg"
   xmlns:svg="http://www.w3.org/2000/svg">
  <sodipodi:namedview
     id="namedview7"
     pagecolor="#ffffff"
     bordercolor="#666666"
     borderopacity="1.0"
     inkscape:pageshadow="2"
     inkscape:pageopacity="0.0"
     inkscape:pagecheckerboard="0"
     inkscape:document-units="px"
     showgrid="false"
     units="px"
     height="64px"
     inkscape:zoom="12.625"
     inkscape:cx="32"
     inkscape:cy="32"
     inkscape:window-width="1920"
     inkscape:window-height="1010"
     inkscape:window-x="0"
     inkscape:window-y="0"
     inkscape:window-maximized="1"
     inkscape:current-layer="svg5"
     inkscape:showpageshadow="2"
     inkscape:deskcolor="#d1d1d1" />
  <defs
     id="defs2">
    <linearGradient
       inkscape:collect="always"
       xlink:href="#linearGradient2290"
       id="linearGradient11974"
       x1="5.2916665"
       y1="5.5562496"
       x2="13.758334"
       y2="13.493751"
       gradientUnits="userSpaceOnUse"
       gradientTransform="scale(3.7795276)" />
    <linearGradient
       inkscape:collect="always"
       xlink:href="#linearGradient2474"
       id="linearGradient4407"
       x1="32"
       y1="10.5"
       x2="32"
       y2="18.5"
       gradientUnits="userSpaceOnUse" />
    <linearGradient
       inkscape:collect="always"
       id="linearGradient2083">
      <stop
         style="stop-color:#bf910d;stop-opacity:1;"
         offset="0"
         id="stop2079" />
      <stop
         style="stop-color:#a87704;stop-opacity:1"
         offset="1"
         id="stop2081" />
    </linearGradient>
    <linearGradient
       inkscape:collect="always"
       xlink:href="#linearGradient2083"
       id="linearGradient3161"
       x1="32.311207"
       y1="22.473583"
       x2="32.173244"
       y2="49.48637"
       gradientUnits="userSpaceOnUse" />
    <linearGradient
       inkscape:collect="always"
       id="linearGradient2474">
      <stop
         style="stop-color:#fcbc19;stop-opacity:1;"
         offset="0"
         id="stop2470" />
      <stop
         style="stop-color:#f4b61f;stop-opacity:1;"
         offset="1"
         id="stop2472" />
    </linearGradient>
    <linearGradient
       inkscape:collect="always"
       id="linearGradient2290">
      <stop
         style="stop-color:#fce798;stop-opacity:1;"
         offset="0"
         id="stop2286" />
      <stop
         style="stop-color:#ffc937;stop-opacity:1"
         offset="1"
         id="stop2288" />
    </linearGradient>
    <linearGradient
       inkscape:collect="always"
       id="linearGradient2350">
      <stop
         style="stop-color:#ffffff;stop-opacity:1;"
         offset="0"
         id="stop2346" />
      <stop
         style="stop-color:#ffffff;stop-opacity:0;"
         offset="1"
         id="stop2348" />
    </linearGradient>
    <linearGradient
       inkscape:collect="always"
       xlink:href="#linearGradient2350"
       id="linearGradient7019"
       x1="0.5291667"
       y1="5.4239583"
       x2="16.404167"
       y2="5.4239583"
       gradientUnits="userSpaceOnUse"
       gradientTransform="scale(3.7795276)" />
    <linearGradient
       inkscape:collect="always"
       id="linearGradient2412">
      <stop
         style="stop-color:#e4a729;stop-opacity:1;"
         offset="0"
         id="stop2408" />
      <stop
         style="stop-color:#e4a729;stop-opacity:0;"
         offset="1"
         id="stop2410" />
    </linearGradient>
    <linearGradient
       inkscape:collect="always"
       xlink:href="#linearGradient2412"
       id="linearGradient7811"
       x1="0.5291667"
       y1="5.1593752"
       x2="16.404167"
       y2="5.1593752"
       gradientUnits="userSpaceOnUse"
       gradientTransform="scale(3.7795276)" />
  </defs>
  <path
     id="rect846"
     style="fill:url(#linearGradient4407);fill-opacity:1;stroke-width:2;stroke-linecap:round;stroke-linejoin:round;stroke-dasharray:24, 2"
     d="M 5.0000001,9 C 3.338,9 2,10.338 2,12 2.094521,12.977241 2,40.000002 2,40.000002 H 62 V 17 c 0,-1.108 -0.891999,-2 -1.999997,-2 H 29.000001 l -4,-4 c -1.365257,-1.3362318 -2.338,-2 -4,-2 z"
     sodipodi:nodetypes="scccccccss" />
  <path
     id="rect1170"
     style="fill:url(#linearGradient11974);fill-opacity:1;stroke-width:2.64576;stroke-linecap:round;stroke-linejoin:round;stroke-dasharray:31.749, 2.64576"
     d="M 29.000001,16 23,20 H 6.0000003 C 3.7839999,20 2,21.784 2,24 v 30 c 0,1.108003 0.8919999,2.000001 2.0000001,2.000001 H 60.000003 C 61.108001,56.000001 62,55.108003 62,54 V 18 c 0,-1.108 -0.891995,-2 -1.999997,-2 z"
     sodipodi:nodetypes="ccsccccccsc" />
  <path
     id="rect1170-2"
     style="fill:#e4a729;fill-opacity:1;stroke-width:2.64576;stroke-linecap:round;stroke-linejoin:round;stroke-dasharray:31.749, 2.64576"
     d="M 2,53.000001 V 54 c 0,1.107999 0.8919999,2.000001 2.0000001,2.000001 H 60.000003 C 61.108001,56.000001 62,55.107999 62,54 v -0.999999 c 0,1.107999 -0.891999,2.000002 -1.999997,2.000002 H 4.0000001 C 2.892,55.000003 2,54.108 2,53.000001 Z" />
  <path
     id="rect1170-75"
     style="opacity:0.3;fill:url(#linearGradient7019);fill-opacity:1;stroke-width:2.64576;stroke-linecap:round;stroke-linejoin:round;stroke-dasharray:31.749, 2.64576"
     d="M 29.000001,16 23,20 H 5.9999999 C 3.7839998,20 2,21.784 2,24 v 1 C 2,22.784 3.7839998,21 5.9999999,21 H 23 l 6.000001,-4 H 59.999999 C 61.108005,17 62,17.892 62,19 v -1 c 0,-1.108 -0.891995,-2 -2.000001,-2 z"
     sodipodi:nodetypes="ccsscsccscssc" />
  <path
     id="rect1170-75-2"
     style="opacity:1;fill:url(#linearGradient7811);fill-opacity:1;stroke-width:2.64576;stroke-linecap:round;stroke-linejoin:round;stroke-dasharray:31.749, 2.64576"
     d="M 29.000001,15 23,19 H 5.9999999 c -2.2160001,0 -3.9999997,1.784 -3.9999997,4 v 1 c 0,-2.216 1.7839996,-4 3.9999997,-4 H 23 l 6.000001,-4 H 60.000003 C 61.108005,16 62,16.892 62,18 v -1 c 0,-1.108 -0.891995,-2 -1.999997,-2 z"
     sodipodi:nodetypes="ccsscsccscssc" />
  <path
     id="rect1588"
     style="fill:url(#linearGradient3161);fill-opacity:1;stroke-width:2;stroke-linecap:round;stroke-linejoin:round"
     d="m 32.000001,24 a 13,13 0 0 0 -13,13.000001 13,13 0 0 0 13,13 13,13 0 0 0 13.000002,-13 A 13,13 0 0 0 32.000001,24 Z m 0,2 a 11,11 0 0 1 11,11.000001 11,11 0 0 1 -11,10.999999 11,11 0 0 1 -11,-10.999999 11,11 0 0 1 11,-11.000001 z m 0,3.000001 c -0.554,0 -1,0.445999 -1,0.999999 v 7.97461 0.02532 c -1.4e-5,0.0076 -1.66e-4,0.01587 0,0.02343 2.15e-4,0.0094 0.0015,0.01814 0.002,0.02721 8.43e-4,0.01701 0.0022,0.03402 0.0039,0.0508 8.43e-4,0.0083 8.53e-4,0.01701 0.002,0.02532 0.0014,0.01096 0.004,0.0223 0.0059,0.03326 5.38e-4,0.0033 0.0014,0.0064 0.002,0.0098 0.0025,0.01436 0.0047,0.02872 0.0078,0.04297 0.0027,0.01209 0.0047,0.02494 0.0078,0.03704 8.28e-4,0.0032 0.0011,0.0064 0.002,0.0098 0.0034,0.01285 0.0078,0.02646 0.01172,0.03904 7.82e-4,0.0025 0.0011,0.0053 0.002,0.0079 0.0041,0.01285 0.009,0.02419 0.01368,0.03704 0.0029,0.0079 0.0067,0.0155 0.0098,0.02343 0.0029,0.0076 0.0047,0.01587 0.0078,0.02343 8.81e-4,0.0021 0.003,0.0038 0.0039,0.0057 0.0055,0.01285 0.0097,0.02457 0.01561,0.03704 0.001,0.0021 0.0029,0.0037 0.0039,0.0057 0.0061,0.01247 0.01296,0.02494 0.01954,0.03704 0.0042,0.0076 0.0074,0.01587 0.01172,0.02343 0.0037,0.0064 0.0078,0.01323 0.01172,0.01965 9.31e-4,0.0015 0.003,0.0024 0.0039,0.0038 0.0075,0.01209 0.01353,0.02532 0.02147,0.03704 0.001,0.0015 0.0029,0.0024 0.0039,0.0038 0.01572,0.02305 0.03322,0.04479 0.05078,0.06641 0.0015,0.0018 0.0024,0.0042 0.0039,0.006 0.007,0.0083 0.01421,0.01701 0.02147,0.02532 0.0033,0.0038 0.0063,0.0079 0.0098,0.01172 0.0018,0.002 0.004,0.0038 0.0059,0.0057 0.0089,0.0098 0.01803,0.01814 0.02733,0.02721 0.0079,0.0079 0.01527,0.01587 0.02343,0.02343 0.0034,0.0032 0.0063,0.0064 0.0098,0.0098 0.0031,0.0028 0.0066,0.0049 0.0098,0.0079 0.0089,0.0079 0.01818,0.01587 0.02733,0.02343 0.0038,0.0032 0.0078,0.0064 0.01172,0.0098 0.02627,0.02116 0.05369,0.04029 0.08203,0.05858 0.01028,0.0064 0.02071,0.01323 0.03126,0.01965 0.0041,0.0024 0.0076,0.0053 0.01172,0.0079 l 5.330079,3.500002 c 0.479777,0.277001 1.090185,0.114557 1.367187,-0.365254 0.277002,-0.479777 0.09588,-1.063098 -0.367188,-1.367187 l -4.830408,-3.17112 V 30 c 0,-0.554 -0.446,-0.999999 -1,-0.999999 z" />
</svg>
