<?xml version="1.0" encoding="UTF-8" standalone="no"?>
<!-- Created with Inkscape (http://www.inkscape.org/) -->

<svg
   width="64"
   height="64"
   viewBox="0 0 64 64"
   version="1.1"
   id="svg5"
   inkscape:version="1.2.1 (9c6d41e410, 2022-07-14, custom)"
   sodipodi:docname="folder-network.svg"
   xmlns:inkscape="http://www.inkscape.org/namespaces/inkscape"
   xmlns:sodipodi="http://sodipodi.sourceforge.net/DTD/sodipodi-0.dtd"
   xmlns:xlink="http://www.w3.org/1999/xlink"
   xmlns="http://www.w3.org/2000/svg"
   xmlns:svg="http://www.w3.org/2000/svg">
  <sodipodi:namedview
     id="namedview7"
     pagecolor="#ffffff"
     bordercolor="#666666"
     borderopacity="1.0"
     inkscape:pageshadow="2"
     inkscape:pageopacity="0.0"
     inkscape:pagecheckerboard="0"
     inkscape:document-units="px"
     showgrid="false"
     units="px"
     height="64px"
     inkscape:zoom="12.625"
     inkscape:cx="29.90099"
     inkscape:cy="32"
     inkscape:window-width="1920"
     inkscape:window-height="1012"
     inkscape:window-x="0"
     inkscape:window-y="0"
     inkscape:window-maximized="1"
     inkscape:current-layer="svg5"
     inkscape:showpageshadow="2"
     inkscape:deskcolor="#d1d1d1" />
  <defs
     id="defs2">
    <linearGradient
       inkscape:collect="always"
       xlink:href="#linearGradient2290"
       id="linearGradient11974"
       x1="5.2916665"
       y1="5.5562496"
       x2="13.758334"
       y2="13.493751"
       gradientUnits="userSpaceOnUse"
       gradientTransform="scale(3.7795276)" />
    <linearGradient
       inkscape:collect="always"
       xlink:href="#linearGradient2474"
       id="linearGradient4407"
       x1="32"
       y1="10.5"
       x2="32"
       y2="18.5"
       gradientUnits="userSpaceOnUse" />
    <linearGradient
       inkscape:collect="always"
       id="linearGradient2474">
      <stop
         style="stop-color:#fcbc19;stop-opacity:1;"
         offset="0"
         id="stop2470" />
      <stop
         style="stop-color:#f4b61f;stop-opacity:1;"
         offset="1"
         id="stop2472" />
    </linearGradient>
    <linearGradient
       inkscape:collect="always"
       id="linearGradient2290">
      <stop
         style="stop-color:#fce798;stop-opacity:1;"
         offset="0"
         id="stop2286" />
      <stop
         style="stop-color:#ffc937;stop-opacity:1"
         offset="1"
         id="stop2288" />
    </linearGradient>
    <linearGradient
       inkscape:collect="always"
       id="linearGradient2350">
      <stop
         style="stop-color:#ffffff;stop-opacity:1;"
         offset="0"
         id="stop2346" />
      <stop
         style="stop-color:#ffffff;stop-opacity:0;"
         offset="1"
         id="stop2348" />
    </linearGradient>
    <linearGradient
       inkscape:collect="always"
       id="linearGradient2412">
      <stop
         style="stop-color:#e4a729;stop-opacity:1;"
         offset="0"
         id="stop2408" />
      <stop
         style="stop-color:#e4a729;stop-opacity:0;"
         offset="1"
         id="stop2410" />
    </linearGradient>
    <linearGradient
       inkscape:collect="always"
       xlink:href="#linearGradient2412"
       id="linearGradient2543"
       gradientUnits="userSpaceOnUse"
       gradientTransform="translate(-1e-7,-1.9999994)"
       x1="2"
       y1="22"
       x2="62"
       y2="22" />
    <linearGradient
       inkscape:collect="always"
       xlink:href="#linearGradient2350"
       id="linearGradient2508"
       gradientUnits="userSpaceOnUse"
       gradientTransform="translate(0,-1)"
       x1="2"
       y1="22"
       x2="62"
       y2="22" />
    <linearGradient
       inkscape:collect="always"
       xlink:href="#linearGradient163636"
       id="linearGradient163638"
       x1="74.466713"
       y1="105.9203"
       x2="74.466713"
       y2="114.48812"
       gradientUnits="userSpaceOnUse"
       gradientTransform="matrix(4.8467599,0,0,0.93372649,-314.92219,-46.900595)" />
    <linearGradient
       inkscape:collect="always"
       id="linearGradient163636">
      <stop
         style="stop-color:#ebebeb;stop-opacity:1;"
         offset="0"
         id="stop163632" />
      <stop
         style="stop-color:#fdfdfd;stop-opacity:0.89803922"
         offset="0.36436081"
         id="stop175885" />
      <stop
         style="stop-color:#9c9c9c;stop-opacity:1"
         offset="1"
         id="stop163634" />
    </linearGradient>
    <linearGradient
       inkscape:collect="always"
       xlink:href="#linearGradient149033"
       id="linearGradient149035"
       x1="33.53513"
       y1="69.619606"
       x2="33.53513"
       y2="80.484001"
       gradientUnits="userSpaceOnUse"
       gradientTransform="matrix(1.9901477,0,0,1.1045253,-34.739879,-26.896614)" />
    <linearGradient
       inkscape:collect="always"
       id="linearGradient149033">
      <stop
         style="stop-color:#66eb6e;stop-opacity:1;"
         offset="0"
         id="stop149029" />
      <stop
         style="stop-color:#66f575;stop-opacity:1"
         offset="0.27098432"
         id="stop156515" />
      <stop
         style="stop-color:#0b8643;stop-opacity:0.99607843"
         offset="1"
         id="stop149031" />
    </linearGradient>
  </defs>
  <path
     id="rect846"
     style="fill:url(#linearGradient4407);fill-opacity:1;stroke-width:2;stroke-linecap:round;stroke-linejoin:round;stroke-dasharray:24, 2"
     d="M 5.0000001,9 C 3.338,9 2,10.338 2,12 2.094521,12.977241 2,40.000002 2,40.000002 H 62 V 17 c 0,-1.108 -0.891999,-2 -1.999997,-2 H 29.000001 l -4,-4 c -1.365257,-1.3362318 -2.338,-2 -4,-2 z"
     sodipodi:nodetypes="scccccccss" />
  <path
     id="rect1170"
     style="fill:url(#linearGradient11974);fill-opacity:1;stroke-width:2.64576;stroke-linecap:round;stroke-linejoin:round;stroke-dasharray:31.749, 2.64576"
     d="M 29.000001,16 23,20 H 6.0000003 C 3.7839999,20 2,21.784 2,24 v 30 c 0,1.108003 0.8919999,2.000001 2.0000001,2.000001 H 60.000003 C 61.108001,56.000001 62,55.108003 62,54 V 18 c 0,-1.108 -0.891995,-2 -1.999997,-2 z"
     sodipodi:nodetypes="ccsccccccsc" />
  <path
     id="path2554"
     style="fill:#e4a729;fill-opacity:1;stroke-width:2.64576;stroke-linecap:round;stroke-linejoin:round;stroke-dasharray:31.749, 2.64576"
     d="M 2 53 L 2 54 C 2 55.107999 2.8920009 56 4 56 L 60 56 C 61.107999 56 62 55.107999 62 54 L 62 53 C 62 54.107999 61.107999 55 60 55 L 4 55 C 2.8920011 55 2 54.107999 2 53 z " />
  <path
     id="path2519"
     style="fill:url(#linearGradient2543);fill-opacity:1;stroke-width:2.64576;stroke-linecap:round;stroke-linejoin:round;stroke-dasharray:31.749, 2.64576"
     d="M 29 15 L 23 19 L 6 19 C 3.7908642 19.000002 2 20.790864 2 23 L 2 24 C 2 21.790864 3.7908642 20.000002 6 20 L 23 20 L 29 16 L 60 16 C 61.108001 16 62 16.892001 62 18 L 62 17 C 62 15.892001 61.108001 15 60 15 L 29 15 z " />
  <path
     id="path2484"
     style="opacity:0.3;fill:url(#linearGradient2508);fill-opacity:1;stroke-width:2.64576;stroke-linecap:round;stroke-linejoin:round;stroke-dasharray:31.749, 2.64576"
     d="M 29 16 L 23 20 L 6 20 C 3.7840022 20 2 21.784002 2 24 L 2 25 C 2 22.784002 3.7840022 21 6 21 L 23 21 L 29 17 L 60 17 C 61.108005 17 62 17.892001 62 19 L 62 18 C 62 16.892001 61.108005 16 60 16 L 29 16 z " />
  <rect
     style="fill:url(#linearGradient163638);fill-opacity:1;stroke-width:1.12572;stroke-linecap:round;stroke-linejoin:round"
     id="rect160861"
     width="60"
     height="8"
     x="2"
     y="52"
     ry="2" />
  <path
     id="rect160861-5"
     style="opacity:0.2;fill:#000000;fill-opacity:0.996078;stroke-width:1.12572;stroke-linecap:round;stroke-linejoin:round"
     d="m 59.000001,51.999998 c 1.107999,0 1.999997,0.892002 1.999997,2.000001 v 3.999999 c 0,1.108002 -0.891998,2.000001 -1.999997,2.000001 h 1.000006 c 1.108003,0 2.000001,-0.891999 2.000001,-2.000001 v -3.999999 c 0,-1.107999 -0.891998,-2.000001 -2.000001,-2.000001 z"
     sodipodi:nodetypes="csscssssc" />
  <rect
     style="fill:url(#linearGradient149035);fill-opacity:1;stroke-width:0.784554;stroke-linecap:round;stroke-linejoin:round"
     id="rect144869"
     width="44"
     height="12"
     x="10"
     y="50"
     ry="2" />
  <path
     id="rect1858"
     style="opacity:0.3;fill:#000000;fill-opacity:0.996078;stroke-width:3;stroke-linecap:round;stroke-linejoin:round"
     d="m 14.000001,50 v 12 h 1 V 50 Z m 34.999997,0 v 12 h 1.000003 V 50 Z"
     sodipodi:nodetypes="cccccccccc" />
  <path
     id="rect2034"
     style="opacity:0.3;fill:#ffffff;fill-opacity:0.996078;stroke-width:3;stroke-linecap:round;stroke-linejoin:round"
     d="m 15.000001,50 v 12 h 1 V 50 Z M 48,50 v 12 h 0.999998 V 50 Z"
     sodipodi:nodetypes="cccccccccc" />
</svg>
