<?xml version="1.0" encoding="UTF-8" standalone="no"?>
<!-- Created with Inkscape (http://www.inkscape.org/) -->

<svg
   width="64"
   height="64"
   viewBox="0 0 64 64"
   version="1.1"
   id="svg5"
   inkscape:version="1.2.1 (9c6d41e410, 2022-07-14, custom)"
   sodipodi:docname="folder-onedrive.svg"
   xmlns:inkscape="http://www.inkscape.org/namespaces/inkscape"
   xmlns:sodipodi="http://sodipodi.sourceforge.net/DTD/sodipodi-0.dtd"
   xmlns:xlink="http://www.w3.org/1999/xlink"
   xmlns="http://www.w3.org/2000/svg"
   xmlns:svg="http://www.w3.org/2000/svg">
  <sodipodi:namedview
     id="namedview7"
     pagecolor="#ffffff"
     bordercolor="#666666"
     borderopacity="1.0"
     inkscape:pageshadow="2"
     inkscape:pageopacity="0.0"
     inkscape:pagecheckerboard="0"
     inkscape:document-units="px"
     showgrid="false"
     units="px"
     height="64px"
     inkscape:zoom="12.53125"
     inkscape:cx="31.9601"
     inkscape:cy="32"
     inkscape:window-width="1920"
     inkscape:window-height="1011"
     inkscape:window-x="0"
     inkscape:window-y="0"
     inkscape:window-maximized="1"
     inkscape:current-layer="svg5"
     inkscape:showpageshadow="2"
     inkscape:deskcolor="#d1d1d1" />
  <defs
     id="defs2">
    <linearGradient
       inkscape:collect="always"
       xlink:href="#linearGradient3553"
       id="linearGradient11974"
       x1="5.2916665"
       y1="5.5562496"
       x2="13.758334"
       y2="13.493751"
       gradientUnits="userSpaceOnUse"
       gradientTransform="scale(3.7795276)" />
    <linearGradient
       inkscape:collect="always"
       xlink:href="#linearGradient3673"
       id="linearGradient4407"
       x1="32"
       y1="10.5"
       x2="32"
       y2="18.5"
       gradientUnits="userSpaceOnUse" />
    <linearGradient
       inkscape:collect="always"
       id="linearGradient2350">
      <stop
         style="stop-color:#ffffff;stop-opacity:1;"
         offset="0"
         id="stop2346" />
      <stop
         style="stop-color:#ffffff;stop-opacity:0;"
         offset="1"
         id="stop2348" />
    </linearGradient>
    <linearGradient
       inkscape:collect="always"
       xlink:href="#linearGradient2350"
       id="linearGradient2508"
       gradientUnits="userSpaceOnUse"
       gradientTransform="translate(0,-1)"
       x1="2"
       y1="22"
       x2="62"
       y2="22" />
    <linearGradient
       inkscape:collect="always"
       id="linearGradient3673">
      <stop
         style="stop-color:#0272cb;stop-opacity:1;"
         offset="0"
         id="stop3669" />
      <stop
         style="stop-color:#0768ba;stop-opacity:1"
         offset="1"
         id="stop3671" />
    </linearGradient>
    <linearGradient
       inkscape:collect="always"
       id="linearGradient3613">
      <stop
         style="stop-color:#0a5ba8;stop-opacity:1;"
         offset="0"
         id="stop3609" />
      <stop
         style="stop-color:#104a5c;stop-opacity:1"
         offset="1"
         id="stop3611" />
    </linearGradient>
    <linearGradient
       inkscape:collect="always"
       id="linearGradient3553">
      <stop
         style="stop-color:#27aee9;stop-opacity:1;"
         offset="0"
         id="stop3549" />
      <stop
         style="stop-color:#0669bc;stop-opacity:1"
         offset="1"
         id="stop3551" />
    </linearGradient>
    <linearGradient
       inkscape:collect="always"
       xlink:href="#linearGradient3613"
       id="linearGradient5462"
       x1="2"
       y1="54.5"
       x2="62"
       y2="54.5"
       gradientUnits="userSpaceOnUse" />
  </defs>
  <path
     id="rect846"
     style="fill:url(#linearGradient4407);fill-opacity:1.0;stroke-width:2;stroke-linecap:round;stroke-linejoin:round;stroke-dasharray:24, 2"
     d="M 5.0000001,9 C 3.338,9 2,10.338 2,12 2.094521,12.977241 2,40.000002 2,40.000002 H 62 V 17 c 0,-1.108 -0.891999,-2 -1.999997,-2 H 29.000001 l -4,-4 c -1.365257,-1.3362318 -2.338,-2 -4,-2 z"
     sodipodi:nodetypes="scccccccss" />
  <path
     id="rect1170"
     style="fill:url(#linearGradient11974);fill-opacity:1.0;stroke-width:2.64576;stroke-linecap:round;stroke-linejoin:round;stroke-dasharray:31.749, 2.64576"
     d="M 29.000001,16 23,20 H 6.0000003 C 3.7839999,20 2,21.784 2,24 v 30 c 0,1.108003 0.8919999,2.000001 2.0000001,2.000001 H 60.000003 C 61.108001,56.000001 62,55.108003 62,54 V 18 c 0,-1.108 -0.891995,-2 -1.999997,-2 z"
     sodipodi:nodetypes="ccsccccccsc" />
  <path
     id="path6358"
     style="opacity:0.1;fill:#ffffff;stroke-width:1.30435;stroke-linecap:round;stroke-linejoin:round"
     d="M 5.9960938 20 C 3.7819245 20.002116 2 21.785318 2 24 L 2 25 L 2 54 C 2 55.108002 2.8920011 56 4 56 L 60 56 C 61.107997 56 62 55.108002 62 54 L 62 52 L 5.9960938 20 z " />
  <path
     id="path6391"
     style="opacity:0.1;fill:#ffffff;stroke-width:1.30435;stroke-linecap:round;stroke-linejoin:round"
     d="M 62 25.347656 L 2 49.966797 L 2 54 C 2 55.108002 2.8920011 56 4 56 L 60 56 C 61.107997 56 62 55.108002 62 54 L 62 25.347656 z " />
  <ellipse
     style="fill:#5fb4e4;fill-opacity:1;stroke-width:1.42857;stroke-linecap:round;stroke-linejoin:round"
     id="path470"
     cx="32.66666"
     cy="36.999996"
     rx="10.000001"
     ry="9.9999952" />
  <path
     d="m 41.454555,33.909142 c -0.926121,0.04588 -1.730595,0.217622 -2.48721,0.494325 l -0.0014,0.0014 c -2.424414,1.011023 -4.943571,2.06346 -7.13206,2.977214 l -14.487231,6.048304 c 1.340025,2.012589 3.518401,3.311153 5.926128,3.532653 v 0.03693 h 0.727272 17.45452 c 3.61496,-2e-5 6.545457,-2.930506 6.545457,-6.545445 0,-3.614936 -2.930497,-6.545422 -6.545445,-6.545421 z"
     style="fill:#a0cee8;fill-opacity:1;stroke-width:1.45455"
     id="path825" />
  <path
     d="m 24.000028,31.000065 c -2.930991,0.0035 -5.625396,1.609593 -7.022717,4.186059 l -0.01425,0.0044 C 16.348786,36.322876 16,37.621123 16,39.000026 c 0.002,4.134996 3.154827,7.587122 7.272718,7.963029 v 0.03693 h 0.72727 17.454521 c 2.419352,-0.0017 4.640438,-1.337892 5.775559,-3.474416 l -11.224416,-6.690309 -8.062487,-4.805373 -0.02558,0.0071 c -1.195184,-0.676202 -2.544341,-1.033313 -3.917564,-1.037 z"
     style="fill:#90d0f0;fill-opacity:1;stroke-width:1.45455"
     id="path393" />
  <path
     d="m 34.826718,36.132143 c -1.003473,0.419013 -2.074453,0.866521 -2.992894,1.249994 L 17.34947,43.42898 c 0.0108,0.01616 0.02177,0.03223 0.03267,0.04831 0.145568,0.215171 0.301821,0.421177 0.465908,0.619314 0.02627,0.03168 0.05138,0.06391 0.07812,0.09517 0.167324,0.195819 0.34282,0.382011 0.526989,0.559657 0.02169,0.02091 0.04198,0.04324 0.06393,0.06392 0.420095,0.396142 0.881207,0.744381 1.373579,1.039769 0.02234,0.01344 0.04572,0.02518 0.06817,0.03834 0.217625,0.127679 0.441467,0.245592 0.670453,0.35227 0.04915,0.02287 0.09944,0.04345 0.149147,0.06532 0.206275,0.09103 0.416743,0.173663 0.630681,0.247159 0.06142,0.02102 0.122547,0.0429 0.184658,0.06251 0.21525,0.06812 0.434739,0.123399 0.65625,0.173296 0.05911,0.0132 0.116506,0.0307 0.176138,0.04262 0.278564,0.05612 0.560528,0.100106 0.846589,0.126414 v 0.03694 h 0.727271 17.45452 c 0.27653,-1.99e-4 0.549577,-0.02256 0.819601,-0.05683 0.06397,-0.008 0.12696,-0.01998 0.19034,-0.02983 0.22536,-0.0354 0.447601,-0.07961 0.666194,-0.137789 0.04312,-0.0112 0.08651,-0.02181 0.129267,-0.03408 0.528492,-0.152295 1.033741,-0.369799 1.504258,-0.646305 0.0416,-0.02448 0.08257,-0.04991 0.123574,-0.0753 0.219143,-0.135391 0.431467,-0.281206 0.633521,-0.441759 0.0064,-0.0051 0.01353,-0.0092 0.01988,-0.01425 0.0021,-0.0016 0.0035,-0.0039 0.0057,-0.0057 0.216679,-0.173938 0.422593,-0.362623 0.616476,-0.563918 0.02419,-0.02508 0.04581,-0.05265 0.0696,-0.07811 0.171014,-0.183334 0.332816,-0.377202 0.482956,-0.580962 0.01971,-0.02667 0.04035,-0.0526 0.05967,-0.07953 0.165435,-0.231854 0.318696,-0.474416 0.454544,-0.730109 L 36.005733,36.835142 Z"
     style="fill:#ffffff;stroke-width:1.45455"
     id="path360" />
  <path
     id="path2554"
     style="fill:url(#linearGradient5462);fill-opacity:1.0;stroke-width:2.64576;stroke-linecap:round;stroke-linejoin:round;stroke-dasharray:31.749, 2.64576"
     d="M 2 53 L 2 54 C 2 55.107999 2.8920009 56 4 56 L 60 56 C 61.107999 56 62 55.107999 62 54 L 62 53 C 62 54.107999 61.107999 55 60 55 L 4 55 C 2.8920011 55 2 54.107999 2 53 z " />
  <path
     id="path2484"
     style="opacity:0.3;fill:url(#linearGradient2508);fill-opacity:1;stroke-width:2.64576;stroke-linecap:round;stroke-linejoin:round;stroke-dasharray:31.749, 2.64576"
     d="M 29 16 L 23 20 L 6 20 C 3.7840022 20 2 21.784002 2 24 L 2 25 C 2 22.784002 3.7840022 21 6 21 L 23 21 L 29 17 L 60 17 C 61.108005 17 62 17.892001 62 19 L 62 18 C 62 16.892001 61.108005 16 60 16 L 29 16 z " />
</svg>
