<?xml version="1.0" encoding="UTF-8" standalone="no"?>
<!-- Created with Inkscape (http://www.inkscape.org/) -->

<svg
   width="64"
   height="64"
   viewBox="0 0 64 64"
   version="1.1"
   id="svg5"
   inkscape:version="1.2.1 (9c6d41e410, 2022-07-14, custom)"
   sodipodi:docname="folder-network-open.svg"
   xmlns:inkscape="http://www.inkscape.org/namespaces/inkscape"
   xmlns:sodipodi="http://sodipodi.sourceforge.net/DTD/sodipodi-0.dtd"
   xmlns:xlink="http://www.w3.org/1999/xlink"
   xmlns="http://www.w3.org/2000/svg"
   xmlns:svg="http://www.w3.org/2000/svg">
  <sodipodi:namedview
     id="namedview7"
     pagecolor="#ffffff"
     bordercolor="#666666"
     borderopacity="1.0"
     inkscape:pageshadow="2"
     inkscape:pageopacity="0.0"
     inkscape:pagecheckerboard="0"
     inkscape:document-units="px"
     showgrid="false"
     units="px"
     height="64px"
     inkscape:zoom="12.625"
     inkscape:cx="26.178218"
     inkscape:cy="32"
     inkscape:window-width="1920"
     inkscape:window-height="1012"
     inkscape:window-x="0"
     inkscape:window-y="0"
     inkscape:window-maximized="1"
     inkscape:current-layer="svg5"
     inkscape:showpageshadow="2"
     inkscape:deskcolor="#d1d1d1" />
  <defs
     id="defs2">
    <linearGradient
       inkscape:collect="always"
       id="linearGradient869">
      <stop
         style="stop-color:#ffffff;stop-opacity:1;"
         offset="0"
         id="stop865" />
      <stop
         style="stop-color:#e3e4e5;stop-opacity:1"
         offset="1"
         id="stop867" />
    </linearGradient>
    <linearGradient
       inkscape:collect="always"
       xlink:href="#linearGradient2290"
       id="linearGradient11974"
       x1="5.2916665"
       y1="5.5562496"
       x2="13.758334"
       y2="13.493751"
       gradientUnits="userSpaceOnUse"
       gradientTransform="matrix(3.7795265,0,0,3.7795265,0,2.1e-6)" />
    <linearGradient
       inkscape:collect="always"
       xlink:href="#linearGradient2474"
       id="linearGradient4407"
       x1="32"
       y1="10.5"
       x2="32"
       y2="18.5"
       gradientUnits="userSpaceOnUse"
       gradientTransform="translate(0)" />
    <linearGradient
       inkscape:collect="always"
       xlink:href="#linearGradient869"
       id="linearGradient871"
       x1="8.9209671"
       y1="4.2707906"
       x2="8.9209671"
       y2="5.8208337"
       gradientUnits="userSpaceOnUse"
       gradientTransform="matrix(3.7795265,0,0,3.7795265,-0.71701548,-0.1415683)" />
    <linearGradient
       inkscape:collect="always"
       xlink:href="#linearGradient2350"
       id="linearGradient2508"
       gradientUnits="userSpaceOnUse"
       gradientTransform="translate(-1.9999996,1.0000025)"
       x1="2"
       y1="22"
       x2="66"
       y2="22" />
    <linearGradient
       inkscape:collect="always"
       id="linearGradient2350">
      <stop
         style="stop-color:#ffffff;stop-opacity:1;"
         offset="0"
         id="stop2346" />
      <stop
         style="stop-color:#ffffff;stop-opacity:0;"
         offset="1"
         id="stop2348" />
    </linearGradient>
    <linearGradient
       inkscape:collect="always"
       id="linearGradient2290">
      <stop
         style="stop-color:#fce798;stop-opacity:1;"
         offset="0"
         id="stop2286" />
      <stop
         style="stop-color:#ffc937;stop-opacity:1"
         offset="1"
         id="stop2288" />
    </linearGradient>
    <linearGradient
       inkscape:collect="always"
       id="linearGradient2474">
      <stop
         style="stop-color:#fcbc19;stop-opacity:1;"
         offset="0"
         id="stop2470" />
      <stop
         style="stop-color:#f4b61f;stop-opacity:1;"
         offset="1"
         id="stop2472" />
    </linearGradient>
    <linearGradient
       inkscape:collect="always"
       xlink:href="#linearGradient163636"
       id="linearGradient163638"
       x1="74.466713"
       y1="105.9203"
       x2="74.466713"
       y2="114.48812"
       gradientUnits="userSpaceOnUse"
       gradientTransform="matrix(4.8467599,0,0,0.93372649,-314.92219,-46.900595)" />
    <linearGradient
       inkscape:collect="always"
       id="linearGradient163636">
      <stop
         style="stop-color:#ebebeb;stop-opacity:1;"
         offset="0"
         id="stop163632" />
      <stop
         style="stop-color:#fdfdfd;stop-opacity:0.89803922"
         offset="0.36436081"
         id="stop175885" />
      <stop
         style="stop-color:#9c9c9c;stop-opacity:1"
         offset="1"
         id="stop163634" />
    </linearGradient>
    <linearGradient
       inkscape:collect="always"
       xlink:href="#linearGradient149033"
       id="linearGradient149035"
       x1="33.53513"
       y1="69.619606"
       x2="33.53513"
       y2="80.484001"
       gradientUnits="userSpaceOnUse"
       gradientTransform="matrix(1.9901477,0,0,1.1045253,-34.73988,-26.896614)" />
    <linearGradient
       inkscape:collect="always"
       id="linearGradient149033">
      <stop
         style="stop-color:#66eb6e;stop-opacity:1;"
         offset="0"
         id="stop149029" />
      <stop
         style="stop-color:#66f575;stop-opacity:1"
         offset="0.27098432"
         id="stop156515" />
      <stop
         style="stop-color:#0b8643;stop-opacity:0.99607843"
         offset="1"
         id="stop149031" />
    </linearGradient>
  </defs>
  <path
     id="rect846"
     style="fill:url(#linearGradient4407);fill-opacity:1;stroke-width:2;stroke-linecap:round;stroke-linejoin:round;stroke-dasharray:24, 2"
     d="m 4.9999988,9 c -1.6619996,0 -2.9999992,1.338 -2.9999992,2.999999 0.094521,0.977241 0,27.999993 0,27.999993 H 61.999984 V 16.999998 c 0,-1.108 -0.891998,-2 -2.000001,-2 H 28.999993 L 24.999994,11 C 23.634737,9.6637684 22.661995,9 20.999995,9 Z"
     sodipodi:nodetypes="scccccccss" />
  <path
     id="rect863"
     style="fill:url(#linearGradient871);stroke-width:3;stroke-linecap:round;stroke-linejoin:round"
     d="M 4.9999988,15.999999 H 58.999985 c 1.107998,0 2.000001,0.891999 2.000001,1.999999 v 18.999995 c 0,1.108 -0.892003,1.999998 -2.000001,1.999998 H 4.9999988 c -1.1079999,0 -1.9999996,-0.891998 -1.9999996,-1.999998 V 17.999998 c 0,-1.108 0.8919997,-1.999999 1.9999996,-1.999999 z" />
  <path
     id="rect1170"
     style="fill:url(#linearGradient11974);fill-opacity:1;stroke-width:2.64576;stroke-linecap:round;stroke-linejoin:round;stroke-dasharray:31.749, 2.64576"
     d="m 26.999993,17.999998 -5.999998,3.999999 H 3.9999992 C 1.7839995,21.999997 5.559053e-8,23.783996 5.559053e-8,25.999996 L 1.9999996,53.999988 c 0,1.108002 0.8919996,2 1.9999996,2 H 59.999983 c 1.108003,0 2.000001,-0.891998 2.000001,-2 l 2.000001,-33.999991 c 0,-1.107999 -0.891999,-1.999999 -2.000001,-1.999999 z"
     sodipodi:nodetypes="ccsccccccsc" />
  <path
     id="path2554"
     style="fill:#e4a729;fill-opacity:1;stroke-width:2.64576;stroke-linecap:round;stroke-linejoin:round;stroke-dasharray:31.749, 2.64576"
     d="m 1.9999995,52.999989 v 1.000002 c 0,1.107999 0.8920005,1.999997 1.9999993,1.999997 H 59.999983 c 1.108003,0 2.000001,-0.891998 2.000001,-1.999997 v -1.000002 c 0,1.107999 -0.891998,2.000001 -2.000001,2.000001 H 3.9999988 c -1.1079984,0 -1.9999993,-0.892002 -1.9999993,-2.000001 z" />
  <path
     id="path2484"
     style="opacity:0.3;fill:url(#linearGradient2508);fill-opacity:1;stroke-width:2.64576;stroke-linecap:round;stroke-linejoin:round;stroke-dasharray:31.749, 2.64576"
     d="m 26.999993,17.999998 -5.999998,3.999999 H 3.9999988 C 1.7840015,21.999997 5.559053e-8,23.773144 -2e-8,25.999996 l 0.08551485,1.197206 c 0,-2.215998 1.69848667,-4.197205 3.91448397,-4.197205 H 20.999995 l 5.999998,-3.999999 h 34.999991 c 1.108006,0 1.92881,1.102227 1.92881,2.210225 L 64,19.999997 c -1.9e-5,-1.094447 -0.891995,-1.999999 -2.000001,-1.999999 z"
     sodipodi:nodetypes="ccsccsccsccsc" />
  <rect
     style="fill:url(#linearGradient163638);fill-opacity:1;stroke-width:1.12572;stroke-linecap:round;stroke-linejoin:round"
     id="rect160861"
     width="60"
     height="8"
     x="2"
     y="52"
     ry="2" />
  <path
     id="rect160861-5"
     style="opacity:0.2;fill:#000000;fill-opacity:0.996078;stroke-width:1.12572;stroke-linecap:round;stroke-linejoin:round"
     d="m 59,51.999998 c 1.107999,0 1.999998,0.892002 1.999998,2.000001 v 3.999999 c 0,1.108002 -0.891999,2.000001 -1.999998,2.000001 h 1.000007 c 1.108002,0 2.000001,-0.891999 2.000001,-2.000001 v -3.999999 c 0,-1.107999 -0.891999,-2.000001 -2.000001,-2.000001 z"
     sodipodi:nodetypes="csscssssc" />
  <rect
     style="fill:url(#linearGradient149035);fill-opacity:1;stroke-width:0.784554;stroke-linecap:round;stroke-linejoin:round"
     id="rect144869"
     width="44"
     height="12"
     x="10"
     y="50.000004"
     ry="2" />
  <path
     id="rect1858"
     style="opacity:0.3;fill:#000000;fill-opacity:0.996078;stroke-width:3;stroke-linecap:round;stroke-linejoin:round"
     d="M 14.000001,50 V 62 H 15 V 50 Z m 34.999997,0 V 62 H 50 V 50 Z"
     sodipodi:nodetypes="cccccccccc" />
  <path
     id="rect2034"
     style="opacity:0.3;fill:#ffffff;fill-opacity:0.996078;stroke-width:3;stroke-linecap:round;stroke-linejoin:round"
     d="m 15,50 v 12 h 1 V 50 Z m 32.999999,0 v 12 h 0.999999 V 50 Z"
     sodipodi:nodetypes="cccccccccc" />
</svg>
