<?xml version="1.0" encoding="UTF-8" standalone="no"?>
<!-- Created with Inkscape (http://www.inkscape.org/) -->

<svg
   width="64"
   height="64"
   viewBox="0 0 64 64"
   version="1.1"
   id="svg1015"
   inkscape:version="1.2.1 (9c6d41e410, 2022-07-14, custom)"
   sodipodi:docname="network-workgroup.svg"
   xmlns:inkscape="http://www.inkscape.org/namespaces/inkscape"
   xmlns:sodipodi="http://sodipodi.sourceforge.net/DTD/sodipodi-0.dtd"
   xmlns:xlink="http://www.w3.org/1999/xlink"
   xmlns="http://www.w3.org/2000/svg"
   xmlns:svg="http://www.w3.org/2000/svg">
  <sodipodi:namedview
     id="namedview1017"
     pagecolor="#ffffff"
     bordercolor="#000000"
     borderopacity="0.25"
     inkscape:showpageshadow="2"
     inkscape:pageopacity="0.0"
     inkscape:pagecheckerboard="0"
     inkscape:deskcolor="#d1d1d1"
     inkscape:document-units="px"
     showgrid="false"
     inkscape:zoom="12.625"
     inkscape:cx="32"
     inkscape:cy="32"
     inkscape:window-width="1920"
     inkscape:window-height="1010"
     inkscape:window-x="0"
     inkscape:window-y="0"
     inkscape:window-maximized="1"
     inkscape:current-layer="svg1015" />
  <defs
     id="defs1012">
    <linearGradient
       inkscape:collect="always"
       xlink:href="#linearGradient2986"
       id="linearGradient2988"
       x1="0.092813492"
       y1="10.202362"
       x2="0.092813492"
       y2="13.470933"
       gradientUnits="userSpaceOnUse"
       gradientTransform="matrix(2.3651878,0,0,2.447553,35.780478,23.029177)" />
    <linearGradient
       inkscape:collect="always"
       id="linearGradient2986">
      <stop
         style="stop-color:#818990;stop-opacity:1;"
         offset="0"
         id="stop2982" />
      <stop
         style="stop-color:#9fa8b0;stop-opacity:1"
         offset="1"
         id="stop2984" />
    </linearGradient>
    <linearGradient
       inkscape:collect="always"
       xlink:href="#linearGradient1116"
       id="linearGradient1908"
       x1="4"
       y1="32"
       x2="60"
       y2="32"
       gradientUnits="userSpaceOnUse" />
    <linearGradient
       inkscape:collect="always"
       id="linearGradient1116">
      <stop
         style="stop-color:#555a5f;stop-opacity:1;"
         offset="0"
         id="stop1112" />
      <stop
         style="stop-color:#4b4f53;stop-opacity:1"
         offset="1"
         id="stop1114" />
    </linearGradient>
    <linearGradient
       inkscape:collect="always"
       id="linearGradient2301">
      <stop
         style="stop-color:#3fe3e7;stop-opacity:1;"
         offset="0"
         id="stop2297" />
      <stop
         style="stop-color:#066bbc;stop-opacity:1"
         offset="1"
         id="stop2299" />
    </linearGradient>
    <linearGradient
       inkscape:collect="always"
       xlink:href="#linearGradient2301"
       id="linearGradient3041"
       x1="5"
       y1="9.999999"
       x2="59"
       y2="46"
       gradientUnits="userSpaceOnUse"
       gradientTransform="translate(0,4)" />
    <linearGradient
       inkscape:collect="always"
       xlink:href="#linearGradient1339"
       id="linearGradient1341"
       x1="-16.257299"
       y1="3.3388042"
       x2="-8.2772894"
       y2="3.3388042"
       gradientUnits="userSpaceOnUse"
       gradientTransform="matrix(3.4999627,0,0,3.4999627,57.899944,3.993945)" />
    <linearGradient
       inkscape:collect="always"
       id="linearGradient1339">
      <stop
         style="stop-color:#b0d6df;stop-opacity:1;"
         offset="0"
         id="stop1335" />
      <stop
         style="stop-color:#e1f8fc;stop-opacity:1;"
         offset="0.5"
         id="stop1343" />
      <stop
         style="stop-color:#96c3ce;stop-opacity:1;"
         offset="1"
         id="stop1337" />
    </linearGradient>
    <radialGradient
       inkscape:collect="always"
       xlink:href="#linearGradient1819"
       id="radialGradient1821"
       cx="-8.4892759"
       cy="6.6485348"
       fx="-8.4892759"
       fy="6.6485348"
       r="4"
       gradientTransform="matrix(3.7478269,1.9274062,-1.8176994,3.5347289,55.401271,5.9968705)"
       gradientUnits="userSpaceOnUse" />
    <linearGradient
       inkscape:collect="always"
       id="linearGradient1819">
      <stop
         style="stop-color:#5ab5e2;stop-opacity:1;"
         offset="0"
         id="stop1815" />
      <stop
         style="stop-color:#4189ac;stop-opacity:1;"
         offset="0.5"
         id="stop1823" />
      <stop
         style="stop-color:#295e76;stop-opacity:1;"
         offset="1"
         id="stop1817" />
    </linearGradient>
  </defs>
  <path
     id="rect958"
     style="fill:#bcc5cf;stroke-width:5.00001;stroke-linecap:round;stroke-linejoin:round"
     d="m 20.999999,55.000004 h 22 l 3,3 h -28 z"
     sodipodi:nodetypes="ccccc" />
  <rect
     style="fill:url(#linearGradient2988);fill-opacity:1;stroke-width:3.18297;stroke-linecap:round;stroke-linejoin:round"
     id="rect2848"
     width="8"
     height="8"
     x="28"
     y="47.999992" />
  <path
     id="rect1418"
     style="fill:#b8c2cc;stroke-width:5.00001;stroke-linecap:round;stroke-linejoin:round"
     d="M 8,12 H 56.000002 C 58.384124,12 60,13.53164 60,16 V 29 H 4 V 16 c 0,-2.621109 1.447902,-4 4,-4 z"
     sodipodi:nodetypes="sssccss" />
  <rect
     style="fill:url(#linearGradient1908);fill-opacity:1;stroke-width:0.999999;stroke-linecap:round"
     id="rect1537"
     width="56"
     height="38"
     x="4"
     y="12.999999"
     ry="3" />
  <rect
     style="fill:url(#linearGradient3041);fill-opacity:1;stroke-width:1;stroke-linecap:round"
     id="rect1910"
     width="54"
     height="36"
     x="5"
     y="13.999999"
     ry="2" />
  <rect
     style="fill:#44484c;fill-opacity:1;stroke-width:5.00001;stroke-linecap:round;stroke-linejoin:round"
     id="rect1839"
     width="28"
     height="2"
     x="18.000002"
     y="58.000004" />
  <ellipse
     style="fill:url(#radialGradient1821);fill-opacity:1;stroke-width:3.50002"
     id="path1449"
     cx="15.00015"
     cy="16"
     rx="13.99985"
     ry="14" />
  <path
     d="m 15.072483,2.6999771 c -1.079686,0.076579 -2.135912,0.2747821 -3.165951,0.6086505 -0.367482,0.01435 -1.166121,0.4876568 -0.521761,0.7097785 0.299877,0.3203516 1.015767,0.4222985 0.928817,0.9457634 0.115604,0.4601191 -1.069473,0.4392418 -0.67501,0.8559789 0.279682,0.368084 0.559382,0.7361891 0.839081,1.1042872 C 12.9941,6.7585723 13.16452,6.229637 13.451041,5.8225283 14.248598,5.4707331 15.377378,5.3644742 15.904462,4.6874939 l 0.49549,-1.4365876 C 15.957455,3.0672597 15.514944,2.8836167 15.072469,2.6999281 Z M 11.233524,2.8230008 C 10.738829,2.7696264 10.422383,3.0736681 10.05313,3.27297 9.5986039,3.3286194 9.0850614,3.4978076 8.7986315,3.8633787 9.3084955,4.0947613 9.6295996,3.8483289 10.069699,3.6734358 10.478316,3.464103 11.868127,3.3767439 11.233527,2.8229658 Z M 8.0412535,4.2913192 C 7.7869113,4.679535 8.2198916,5.241426 7.6381068,5.4451624 7.3509349,5.8087105 7.0999596,6.4054401 7.8177599,6.1889114 7.9933531,5.6502112 8.5388292,4.8945587 9.1596176,5.2100629 9.7848824,5.3780611 10.363577,6.4287709 10.874095,5.5965392 10.873889,5.3801015 10.079992,5.2534729 10.09773,4.723946 9.7444614,4.5723977 8.9892954,4.8478097 9.0156606,4.2970241 8.5052856,4.0704015 8.3582872,5.1996225 8.1774126,4.5684812 8.1320181,4.4761172 8.0866236,4.3837532 8.041264,4.2913192 Z M 21.895674,4.7807574 c -0.604076,0.1208188 -1.200736,0.2587873 -1.677473,0.6739844 0.138389,0.5532635 -0.575373,0.6463591 -0.892837,0.9534598 -0.230332,0.1299886 0.0042,1.1340124 0.205973,0.978152 0.429109,-0.5661434 0.651081,-0.077769 1.049961,0.2017729 0.359029,0.3334764 0.587003,-0.6192484 0.396304,-0.8878075 -0.111894,-0.4328299 0.432459,-0.753031 0.628355,-1.1075002 0.598893,-0.3841699 0.09285,0.4901242 0.07368,0.795363 -0.302292,0.9020349 1.340923,0.0273 0.257772,0.701284 -0.290532,0.2901469 -0.396927,0.7199948 -0.843379,0.93442 C 20.852987,8.3181277 19.932952,8.1801942 20.056847,7.7212091 19.720886,7.1946362 19.8038,8.3549683 19.689656,8.3494104 19.132857,8.1835121 18.967144,8.804997 18.617946,9.1023538 c -0.267222,0.3070168 -1.21063,0.1165138 -0.506308,0.5920887 0.51369,0.5927435 -0.102374,0.4831245 -0.527315,0.6409905 -0.600534,0.103389 -0.500158,0.626437 -0.484615,1.098687 0.0091,0.260257 0.5856,0.646359 0.877493,0.464844 0.583031,-0.06244 0.43592,-0.777954 0.866671,-0.996159 0.357903,-0.306352 0.609067,-0.588915 1.146476,-0.59624 0.248112,0.236772 0.749591,0.59274 0.952945,0.786305 -0.561247,0.6115 0.257773,0.561667 0.336137,0.0046 0.276847,-0.306772 -0.911887,-1.028688 -0.127924,-0.711504 0.518863,0.171183 0.399545,0.701239 0.630403,1.059068 0.410353,0.693678 0.454299,0.176048 0.492501,-0.360566 0.681768,-0.214198 0.866566,1.187215 1.785495,0.858555 0.688688,0.180948 0.362334,0.62629 -0.07248,0.91384 -0.397123,0.289657 -0.989299,0.0911 -1.425153,-0.06615 -0.431189,-0.221373 -0.950846,-0.09446 -1.177829,0.345831 -0.503886,-0.434871 -0.860599,-1.125704 -1.592633,-1.163969 -0.693119,-0.03591 -1.392863,0.148364 -2.061762,0.336837 -0.741134,0.869793 -1.542983,1.716906 -1.888307,2.82861 -0.358455,0.440505 0.409349,0.704409 -0.174263,1.105309 -0.406317,0.379372 0.138389,0.847954 0.222458,1.27335 0.437257,0.518544 1.107637,2.224201 1.782937,1.564451 0.380033,-0.600443 0.63203,0.393312 1.078891,-0.230332 0.376131,-0.343311 0.68075,0.344956 1.208212,0.100134 0.469033,0.233797 0.509815,0.692086 0.261972,1.130652 -0.159178,0.445262 0.689521,0.628352 0.448051,1.148156 -0.113888,0.508321 0.109129,0.939838 0.361672,1.364628 -0.561285,0.585877 -0.493624,1.453759 -0.35351,2.187897 0.274607,1.006467 0.667919,2.015842 0.628632,3.075606 0.491797,0.128974 0.854582,-0.196698 1.261268,-0.367744 0.776232,0.109794 1.198516,-0.718452 1.680514,-1.193502 -0.362096,-0.486757 0.297461,-0.696807 0.570109,-1.011706 -0.407813,-0.352744 -0.678038,-0.695208 -0.04669,-0.970301 0.291232,-0.295817 0.836841,-0.463042 0.932509,-0.87567 -0.250807,-0.747393 -0.107939,-1.541489 -0.144863,-2.314217 0.309221,-0.623221 0.637532,-1.233174 1.151144,-1.714387 0.204818,-0.675801 0.697126,-1.295238 0.649387,-2.020648 -1.197152,0.358141 -0.835679,-0.152143 -0.172233,-0.637255 0.460392,-0.337677 1.115018,-0.652614 1.255013,-1.228316 0.100519,-0.568198 -0.343556,-1.450402 -0.729893,-0.615608 -0.187668,-0.266032 -0.848748,-0.512755 -0.839595,-0.930367 -0.141574,-0.842165 0.227742,-0.336347 0.55606,0.06139 0.763678,-0.566094 1.760306,1.562401 1.437987,0.04365 C 28.430878,10.796245 26.764213,7.6909589 24.267672,5.5093622 24.039369,5.7524696 23.658409,6.6588199 23.381964,6.135656 22.990595,5.7204799 22.683438,5.3456584 23.480628,5.4997933 24.261901,5.2877655 23.483628,5.1644618 23.074087,5.1161344 22.663363,5.0681849 22.282511,4.9177565 21.895691,4.7806629 Z m -15.2917081,0.0203 C 6.0871019,5.0001351 6.8613531,5.7591895 5.9346925,5.5161101 4.9187478,5.9764672 4.2419636,7.0936728 3.5358251,7.9636515 1.8886867,10.291407 0.99317915,13.136019 1.0000391,15.987263 c 0.2702672,0.557831 0.9359181,0.746875 1.4339277,1.054819 0.5061332,0.173143 1.1435324,0.146999 1.3954282,0.706135 0.281747,0.295012 0.6597534,0.690648 1.0622421,0.722658 0.6184994,-0.198202 0.705715,0.3626 0.3936828,0.777433 -0.03395,0.45439 -0.5395402,0.820892 -0.4831733,1.220528 0.1126638,0.447789 -0.5633365,0.941004 -0.1079389,1.350674 0.4791099,0.856543 0.9918685,1.688347 1.6398165,2.428131 0.4030103,0.353087 0.3552253,0.839224 0.3092218,1.324827 -0.1599483,0.513227 0.3251465,0.810108 0.5855087,1.182361 -0.6344627,1.163261 1.0840294,1.395753 1.8032788,1.904403 0.3616021,-0.330677 0.3903438,-0.865877 0.9902375,-0.880797 0.363776,-0.254868 0.441436,-0.830178 0.691292,-1.212685 -0.0081,-0.406304 -0.268203,-0.78598 0.154208,-1.228504 0.318286,-0.268622 0.975065,-0.08956 1.093549,-0.650325 0.432351,-0.445339 0.08253,-1.062568 0.08253,-1.602899 0.335857,-0.460049 0.915248,-0.813188 0.850946,-1.448862 0.07276,-0.948091 -1.634216,-0.905482 -2.235681,-1.480309 C 9.919799,20.133501 10.069307,19.126212 9.4937905,18.99238 8.9224216,19.02108 8.7146674,18.573445 8.5121385,18.118951 8.1974219,17.904298 7.6051547,18.340498 7.2758397,18.071456 6.9028452,17.874968 6.5682558,17.141975 6.1484072,17.600043 5.5958471,18.000683 5.0524289,18.407677 4.5282395,17.736891 4.1882881,17.430575 4.6154236,16.560981 4.1340912,16.615759 3.1065722,16.987434 4.4597627,15.12327 3.497861,15.370587 3.2700484,15.727671 2.8330676,16.278653 2.4081826,15.856092 1.9814917,15.655334 2.1919549,15.002538 2.2109947,14.611575 2.2295445,14.154287 2.8081689,13.9263 3.1407493,13.717706 3.7858029,14.006208 3.6534133,13.146473 4.1925371,13.433859 4.715512,13.32249 4.9516405,14.161413 5.1639657,14.192682 5.2887394,13.779385 5.0634818,13.175334 5.4470427,12.90304 5.8952024,12.525811 6.4866961,12.257525 6.5972914,11.623716 6.6063913,10.946652 7.4280741,11.517248 7.6320449,11.056173 7.8200979,10.527875 8.368563,10.560872 8.8318566,10.461197 9.0852539,10.226069 9.7221806,9.5018501 8.9353505,9.7141788 8.6487736,9.6754342 7.4950284,9.8290126 8.2784425,9.5529355 8.6643484,9.2608287 9.1320904,9.3012882 9.5652843,9.2439238 9.9064606,8.9551069 10.502833,8.8583294 10.529059,8.3324601 10.245912,7.9473522 9.6461054,8.0206484 9.9007172,7.4683123 9.8762175,6.745794 9.2397528,7.20963 9.030693,7.1546806 9.3702244,6.6821927 8.5892042,6.3847028 8.3270745,6.3780774 8.1489264,6.8233392 7.6480502,7.2075021 7.8248158,7.7199806 7.3025864,7.8047847 7.057918,8.1827842 6.9009867,8.6533786 6.7443984,8.7079081 6.7953228,7.7304315 6.1960592,7.820496 5.7727737,7.8103461 5.2495048,7.1786659 5.6951551,6.929941 6.3061435,6.5433631 7.0658069,6.2407879 7.4521468,5.623314 7.6743245,5.0702849 7.2645838,4.7308445 6.7189886,4.8093801 l -0.076089,-0.00525 z m 10.2798701,0.636748 c -0.337222,0.2623222 -1.01795,0.081129 -1.161687,0.3340715 -0.06044,0.510144 0.731664,0.5021676 1.048004,0.2205326 0.51705,-0.1911679 0.493996,-0.1562733 0.113644,-0.5546146 z M 9.3931421,5.6992876 C 8.6765073,5.9101604 9.2621385,6.3795229 9.7299435,6.373272 10.288104,6.3282274 9.7687931,5.7033021 9.3931421,5.6992876 Z m 8.5457959,1.4081645 c -0.05131,0.4564967 0.387243,0.7415511 0.206148,1.2388643 -0.285177,0.6264828 0.118789,0.8145918 0.60613,0.4295189 0.650881,-0.3982502 -0.487751,-1.2706544 -0.639453,-1.6683832 z m -0.214653,0.7341207 c -0.58491,-0.1437785 -0.399863,1.0803475 0.002,0.65891 0.432802,-0.075564 0.01715,-0.4090372 -0.002,-0.65891 z m -7.464563,1.1033037 c 0.08585,0.4642281 0.116794,1.2001825 0.456613,0.4096637 C 10.715866,9.2008918 10.380548,9.0807031 10.259722,8.9448765 Z M 24.383871,13.71779 c 0.687469,0.599417 0.965961,1.46753 1.353474,2.264013 0.576591,0.302747 0.235267,0.765726 0.315591,1.154768 0.802832,0.702894 -0.812992,0.328541 -0.6169,-0.438304 -0.130968,-0.890639 -0.703051,-1.485164 -1.170272,-2.129283 -0.03678,-0.340966 -0.402481,-0.72984 0.118124,-0.85117 z"
     style="fill:url(#linearGradient1341);fill-opacity:1;stroke-width:0.499973"
     id="path1308" />
</svg>
