<?xml version="1.0" encoding="UTF-8" standalone="no"?>
<!-- Created with Inkscape (http://www.inkscape.org/) -->

<svg
   width="64"
   height="64"
   viewBox="0 0 64 64"
   version="1.1"
   id="svg5"
   inkscape:version="1.2.1 (9c6d41e410, 2022-07-14, custom)"
   sodipodi:docname="user-trash-full.svg"
   xmlns:inkscape="http://www.inkscape.org/namespaces/inkscape"
   xmlns:sodipodi="http://sodipodi.sourceforge.net/DTD/sodipodi-0.dtd"
   xmlns:xlink="http://www.w3.org/1999/xlink"
   xmlns="http://www.w3.org/2000/svg"
   xmlns:svg="http://www.w3.org/2000/svg">
  <sodipodi:namedview
     id="namedview7"
     pagecolor="#ffffff"
     bordercolor="#666666"
     borderopacity="1.0"
     inkscape:pageshadow="2"
     inkscape:pageopacity="0.0"
     inkscape:pagecheckerboard="0"
     inkscape:document-units="px"
     showgrid="false"
     units="px"
     height="64px"
     inkscape:zoom="12.921875"
     inkscape:cx="31.961306"
     inkscape:cy="32"
     inkscape:window-width="1920"
     inkscape:window-height="1029"
     inkscape:window-x="0"
     inkscape:window-y="0"
     inkscape:window-maximized="1"
     inkscape:current-layer="svg5"
     inkscape:showpageshadow="2"
     inkscape:deskcolor="#d1d1d1" />
  <defs
     id="defs2">
    <linearGradient
       inkscape:collect="always"
       xlink:href="#linearGradient60807"
       id="linearGradient43497"
       x1="5.0269842"
       y1="1.0583125"
       x2="1.4788554"
       y2="1.415241"
       gradientUnits="userSpaceOnUse"
       gradientTransform="matrix(3.7796018,0,0,3.7796018,3.7417592e-6,2.6568708e-4)" />
    <linearGradient
       inkscape:collect="always"
       id="linearGradient60807">
      <stop
         style="stop-color:#b7bfc7;stop-opacity:0.02526831"
         offset="0"
         id="stop60801" />
      <stop
         style="stop-color:#b6bfc6;stop-opacity:0"
         offset="0.36555651"
         id="stop61639" />
      <stop
         style="stop-color:#b6bfc5;stop-opacity:1"
         offset="0.48513398"
         id="stop60809" />
      <stop
         style="stop-color:#b6bfc5;stop-opacity:0"
         offset="0.73108482"
         id="stop60803" />
      <stop
         style="stop-color:#b6bfc5;stop-opacity:1"
         offset="1"
         id="stop60805" />
    </linearGradient>
    <linearGradient
       inkscape:collect="always"
       xlink:href="#linearGradient60807"
       id="linearGradient59848"
       gradientUnits="userSpaceOnUse"
       x1="5.0269852"
       y1="1.0582422"
       x2="1.8391933"
       y2="1.3265172"
       gradientTransform="matrix(-3.7796018,0,0,3.7796018,64.000006,5.3139307e-4)" />
    <linearGradient
       inkscape:collect="always"
       xlink:href="#linearGradient18900"
       id="linearGradient113015"
       gradientUnits="userSpaceOnUse"
       x1="9.3394947"
       y1="4.2414846"
       x2="9.3713646"
       y2="15.277747"
       gradientTransform="matrix(3.7796018,0,0,3.7796018,3.7417592e-6,5.3150646e-4)" />
    <linearGradient
       inkscape:collect="always"
       id="linearGradient18900">
      <stop
         style="stop-color:#ffffff;stop-opacity:0.80000001"
         offset="0"
         id="stop18896" />
      <stop
         style="stop-color:#ffffff;stop-opacity:0.58473009"
         offset="0.70040143"
         id="stop94701" />
      <stop
         style="stop-color:#ffffff;stop-opacity:0.08762626"
         offset="0.89186656"
         id="stop23845" />
      <stop
         style="stop-color:#fcfcfc;stop-opacity:0.49152461"
         offset="1"
         id="stop18898" />
    </linearGradient>
    <linearGradient
       inkscape:collect="always"
       xlink:href="#linearGradient91628"
       id="linearGradient91630"
       x1="3.1274393"
       y1="9.5520172"
       x2="5.8981671"
       y2="9.1497135"
       gradientUnits="userSpaceOnUse"
       gradientTransform="matrix(3.7796018,0,0,3.7796018,0,2.6494486e-4)" />
    <linearGradient
       inkscape:collect="always"
       id="linearGradient91628">
      <stop
         style="stop-color:#cccccc;stop-opacity:1"
         offset="0"
         id="stop91624" />
      <stop
         style="stop-color:#cccccc;stop-opacity:0"
         offset="0.1152868"
         id="stop92528" />
      <stop
         style="stop-color:#cccccc;stop-opacity:0"
         offset="1"
         id="stop91626" />
    </linearGradient>
    <linearGradient
       inkscape:collect="always"
       xlink:href="#linearGradient91628"
       id="linearGradient94280"
       gradientUnits="userSpaceOnUse"
       x1="3.1274393"
       y1="9.5520172"
       x2="5.8981671"
       y2="9.1497135"
       gradientTransform="matrix(-3.7796018,0,0,3.7796018,64.000002,2.6456691e-4)" />
    <linearGradient
       inkscape:collect="always"
       xlink:href="#linearGradient122406"
       id="linearGradient122408"
       x1="16.933001"
       y1="2.6457818"
       x2="-1.6117096e-07"
       y2="2.6457815"
       gradientUnits="userSpaceOnUse"
       gradientTransform="matrix(3.7796018,0,0,3.7796018,0.00603776,-4.085669e-4)" />
    <linearGradient
       inkscape:collect="always"
       id="linearGradient122406">
      <stop
         style="stop-color:#ffffff;stop-opacity:1;"
         offset="0"
         id="stop122402" />
      <stop
         style="stop-color:#ffffff;stop-opacity:0.60000002"
         offset="0.5"
         id="stop123180" />
      <stop
         style="stop-color:#ffffff;stop-opacity:1"
         offset="1"
         id="stop122404" />
    </linearGradient>
  </defs>
  <path
     style="color:#000000;opacity:0.5;fill:url(#linearGradient43497);fill-opacity:1;stroke:none;stroke-width:3.7796;stroke-linecap:round;stroke-linejoin:round;-inkscape-stroke:none"
     d="m 12.998019,3.9999996 c -0.263552,0.00218 -0.515568,0.1082971 -0.701294,0.2952817 L 8.2956611,9.2942474 C 8.0755755,9.5126436 7.9692158,9.8207662 8.007767,10.128417 l 6.001598,46.004843 3.990638,-4.133 h 1 V 4.0002653 Z"
     id="path8844-3"
     sodipodi:nodetypes="ccccccccc" />
  <path
     id="path8844-8"
     style="color:#000000;fill:#8e8e8e;fill-opacity:0.253914;stroke:none;stroke-width:3.7796;stroke-linecap:round;stroke-linejoin:round;-inkscape-stroke:none"
     d="m 12.998021,4.0002653 c -0.263551,0.00218 -0.515446,0.1079396 -0.701172,0.2949241 l -0.404297,0.503904 H 52.113253 L 51.708957,4.2951875 C 51.521417,4.1064001 51.268026,4.0004902 51.001924,4.0002634 Z" />
  <path
     style="color:#000000;opacity:0.5;fill:url(#linearGradient59848);fill-opacity:1;stroke:none;stroke-width:3.7796;stroke-linecap:round;stroke-linejoin:round;-inkscape-stroke:none"
     d="m 51.001989,4.0002653 c 0.263546,0.00218 0.515569,0.1082986 0.701291,0.2952832 l 4.001064,4.9989661 c 0.220082,0.2183962 0.326438,0.5265188 0.287887,0.8341704 l -6.001595,46.00484 -3.99064,-4.133 -0.999999,-2.65e-4 V 4.0002653 Z"
     id="path8844-3-9"
     sodipodi:nodetypes="ccccccccc" />
  <path
     style="color:#000000;fill:#c9d1d7;fill-opacity:0.501961;stroke:none;stroke-width:3.7796;stroke-linecap:round;stroke-linejoin:round;-inkscape-stroke:none"
     d="m 12.998021,4.0002653 c -0.263551,0.00218 -0.515568,0.1082986 -0.701294,0.2952832 L 8.295663,9.2945131 C 8.0755773,9.5129093 7.9692177,9.8210319 8.0077688,10.128683 l 6.0015972,46.004842 c 0.06807,0.494373 0.490155,0.862915 0.98919,0.863694 h 34.00229 c 0.501842,0.0029 0.928135,-0.366539 0.996578,-0.863694 l 5.99421,-46.004842 C 56.032075,9.8222164 55.928516,9.5142741 55.711117,9.2945131 L 51.710057,4.295547 C 51.522517,4.1067596 51.267482,4.0004906 51.00138,4.0002638 Z"
     id="path8844"
     sodipodi:nodetypes="ccccccccccccc" />
  <path
     id="rect849"
     style="fill:#9ba1a6;fill-opacity:1;stroke-width:0.999999"
     d="m 50.000002,56.000262 v 2.999535 c 0,0.554 -0.446003,0.999999 -1.000002,0.999999 H 15.000003 c -0.554,0 -1,-0.445999 -1,-0.999999 v -2.999535 l 4,-4.000002 H 46 Z"
     sodipodi:nodetypes="csssscccc" />
  <path
     style="clip-rule:evenodd;opacity:0.997;fill-rule:evenodd;stroke-width:0.253892;image-rendering:optimizeQuality;shape-rendering:geometricPrecision;text-rendering:geometricPrecision"
     fill="#cacdce"
     d="m 25.90241,1.3938935 c 0.05966,-0.1515062 0.18661,-0.2361373 0.380837,-0.2538936 1.366445,0.6883461 2.593503,1.5769715 3.681427,2.6658617 1.266667,0.1267691 2.536123,0.1690658 3.808376,0.1269467 -0.946764,1.28657 -1.792985,2.64065 -2.538916,4.0622651 -0.975451,0.092009 -1.991018,0.00741 -3.0467,-0.2538935 C 27.344514,7.943634 26.49804,8.112904 25.648518,8.2489632 24.794402,8.4082022 24.286619,8.0696926 24.125169,7.233397 24.899818,5.6835924 25.534521,4.0755955 26.029356,2.409457 26.223582,2.011929 26.181183,1.6734076 25.90241,1.3938935 Z"
     id="path2" />
  <path
     fill="#d7e0e4"
     d="m 42.913146,2.4094596 c -1.605354,1.8182448 -3.636487,2.833811 -6.0934,3.0466993 C 35.605131,4.8351652 34.75891,3.9042211 34.280833,2.6633513 34.647939,2.2977085 35.113342,2.128445 35.677236,2.1555684 36.977414,2.5300061 38.289019,2.868521 39.612557,3.1711345 40.72638,2.9560643 41.826491,2.7021716 42.913146,2.4094596 Z"
     id="path6"
     style="clip-rule:evenodd;fill-rule:evenodd;stroke-width:0.253892;image-rendering:optimizeQuality;shape-rendering:geometricPrecision;text-rendering:geometricPrecision" />
  <path
     style="clip-rule:evenodd;opacity:0.998;fill-rule:evenodd;stroke-width:0.253892;image-rendering:optimizeQuality;shape-rendering:geometricPrecision;text-rendering:geometricPrecision"
     fill="#c9cdce"
     d="m 42.913146,2.4094596 c 0.689919,2.8112196 0.973191,3.4749783 1.77724,5.3317229 0.304176,0.1116095 0.600453,0.1962595 0.888624,0.2538936 0.126198,0.586439 0.16834,1.1788689 0.126954,1.777241 H 34.788628 C 34.619267,9.2645342 34.450209,8.7567513 34.280845,8.2489673 35.65389,7.8063333 36.500365,6.8754141 36.819757,5.4561604 39.27667,5.243271 41.307804,4.227706 42.913158,2.4094611 Z"
     id="path10"
     sodipodi:nodetypes="cccccccc" />
  <path
     fill="#f8f6f5"
     d="m 34.280833,2.6633513 c 0.478077,1.2408698 1.324298,2.1718139 2.538913,2.7928076 -0.319408,1.4192537 -1.165867,2.3501729 -2.538913,2.7928069 -0.917057,0.2567849 -1.848079,0.299108 -2.79281,0.1269468 -0.141165,-0.097141 -0.225713,-0.2240844 -0.253908,-0.3808373 0.745931,-1.4216152 1.592152,-2.7756951 2.538916,-4.0622651 0.07514,-0.4831559 0.244498,-0.906317 0.507783,-1.2694582 z"
     id="path18"
     style="clip-rule:evenodd;fill-rule:evenodd;stroke-width:0.253892;image-rendering:optimizeQuality;shape-rendering:geometricPrecision;text-rendering:geometricPrecision" />
  <path
     fill="#eae8e7"
     d="m 49.768219,2.9172429 c -0.311018,0.1655887 -0.480363,0.4618034 -0.507784,0.8886206 -0.284598,1.9921348 -0.538503,3.9809693 -0.761673,5.9664521 -0.931022,0 -1.861787,0 -2.792809,0 0.04138,-0.5983721 -7.6e-4,-1.190802 -0.126955,-1.7772411 -0.288189,-0.05763 -0.584458,-0.1422803 -0.888623,-0.2538935 1.367969,-1.1135428 2.552881,-2.3830007 3.554483,-3.808373 0.324207,-0.418515 0.578112,-0.8839744 0.761676,-1.3964039 0.38033,-0.1484485 0.63422,-0.021505 0.761673,0.3808373 z"
     id="path22"
     style="clip-rule:evenodd;fill-rule:evenodd;stroke-width:0.253892;image-rendering:optimizeQuality;shape-rendering:geometricPrecision;text-rendering:geometricPrecision" />
  <path
     style="clip-rule:evenodd;opacity:0.998;fill-rule:evenodd;stroke-width:0.253892;image-rendering:optimizeQuality;shape-rendering:geometricPrecision;text-rendering:geometricPrecision"
     fill="#fcfcfb"
     d="m 25.90241,1.3938935 c 0.278774,0.2795187 0.321173,0.6180381 0.126947,1.0155661 -0.494835,1.6661385 -1.129538,3.2741354 -1.904187,4.82394 0.16145,0.8362942 0.669233,1.1748071 1.523349,1.0155662 C 25.139975,8.8790996 24.462998,9.1329916 23.617387,9.0106407 23.243327,8.8654162 22.904815,8.6538231 22.60182,8.3759118 21.080807,8.2490936 19.557457,8.2067704 18.031772,8.248965 c 0.383554,-1.8679814 1.229876,-3.4759783 2.538916,-4.8239396 0.212814,0.086755 0.29746,0.2560252 0.25389,0.5077833 0.42471,0.5939539 0.932493,1.1017368 1.52335,1.5233495 0.75322,-0.415824 1.430247,-0.9236069 2.031133,-1.5233495 0.608755,-0.779752 1.116615,-1.6260641 1.523349,-2.5389152 z"
     id="path26" />
  <path
     style="clip-rule:evenodd;opacity:0.639;fill-rule:evenodd;stroke-width:0.253892;image-rendering:optimizeQuality;shape-rendering:geometricPrecision;text-rendering:geometricPrecision"
     fill="#cbd3d8"
     d="m 20.824578,3.9328095 c 1.184836,0 2.369647,0 3.554483,0 -0.600886,0.5997425 -1.277913,1.1075254 -2.031133,1.5233494 -0.590857,-0.4216127 -1.09864,-0.9293956 -1.52335,-1.5233494 z"
     id="path30" />
  <path
     fill="#d7e0e4"
     d="m 31.234134,7.9950745 c 0.02835,0.1567522 0.112743,0.2836989 0.253908,0.3808373 0.944731,0.172165 1.875753,0.1298381 2.79281,-0.1269468 0.169361,0.5077841 0.338457,1.015567 0.507784,1.5233499 C 33.009363,9.814536 31.232119,9.7722128 29.456909,9.6453681 28.738906,8.990455 27.892431,8.6942391 26.917995,8.7567483 25.537079,8.5944857 25.367733,8.8907023 26.410212,9.6453681 25.313147,9.7720616 24.21306,9.8143848 23.109622,9.7723149 23.278892,9.5184213 23.448135,9.264532 23.617405,9.01064 c 0.845611,0.1223508 1.522588,-0.1315427 2.031132,-0.761675 0.849522,-0.1360592 1.695996,-0.3053291 2.538916,-0.5077832 1.055682,0.2612787 2.071249,0.3459023 3.0467,0.2538935 z"
     id="path38"
     style="clip-rule:evenodd;fill-rule:evenodd;stroke-width:0.253892;image-rendering:optimizeQuality;shape-rendering:geometricPrecision;text-rendering:geometricPrecision" />
  <path
     fill="#f0f3f5"
     d="m 9.1455653,10.026208 c 2.2020267,-0.042252 4.4024037,5e-5 6.6011817,0.126943 -0.11613,0.105112 -0.200753,0.232055 -0.253893,0.380838 0.382665,0.314521 0.678881,0.229874 0.888621,-0.253894 0.253889,0.507783 0.507783,1.015566 0.761674,1.52335 0.745223,0.53759 1.422276,1.13002 2.031132,1.777241 1.087392,-0.664003 2.10296,-1.425678 3.046699,-2.285025 0.125295,-0.414884 0.167619,-0.838045 0.126947,-1.269457 0.677053,0 1.35408,0 2.031133,0 -0.871712,0.564705 -0.956359,1.241733 -0.253893,2.031132 -0.19697,0.471198 -0.535483,0.809737 -1.015566,1.015567 2.412985,1.429003 5.036446,2.190678 7.870635,2.285024 -1.207506,1.604798 -2.815401,2.57804 -4.823937,2.919753 -0.403688,0.26552 -0.784524,0.561735 -1.142511,0.888621 -0.08462,-0.08462 -0.16927,-0.16927 -0.253894,-0.253892 -0.08782,0.596061 -0.384011,1.061546 -0.888621,1.396404 0.316093,0.20093 0.654609,0.327875 1.015567,0.380837 -0.203363,0.841273 -0.668823,1.518326 -1.3964,2.031136 -0.876637,1.323257 -0.792015,2.592715 0.253892,3.808374 1.219136,0.423999 1.346133,0.973928 0.380837,1.650295 -1.947222,0.566686 -3.893707,1.116869 -5.839507,1.650295 -0.872016,-1.719354 -1.676014,-3.496595 -2.41197,-5.331723 -0.423161,-0.423161 -0.846296,-0.846297 -1.269458,-1.269458 -0.05029,0.477748 -0.177241,0.900909 -0.380837,1.269458 0.07957,-0.697415 -0.0051,-1.374442 -0.253892,-2.031133 -0.232767,-0.159241 -0.486659,-0.243888 -0.761674,-0.253891 0.603398,-0.352225 1.280426,-0.563792 2.031132,-0.634729 1.35408,-0.16927 2.708186,-0.16927 4.062266,0 0.456598,0.786226 0.879734,1.590199 1.269458,2.41197 0.281465,-0.276639 0.535356,-0.276639 0.761675,0 -1.720802,2.765895 -0.959127,3.950553 2.285024,3.554482 -0.150355,-0.810168 -0.44657,-1.571843 -0.888621,-2.285024 -1.287941,-0.828118 -1.330265,-1.589793 -0.126946,-2.285025 0.373196,-0.704041 0.711709,-1.423392 1.015567,-2.158078 -2.100318,-1.264329 -4.385343,-2.026004 -6.855073,-2.285024 0.972202,-0.636126 2.030066,-1.10161 3.173645,-1.396404 -0.200067,-0.54051 -0.369336,-1.13294 -0.507783,-1.77724 -1.667535,0.607104 -3.233208,1.538049 -4.696995,2.792806 0.132455,-0.853202 -0.03681,-1.784147 -0.507783,-2.792806 -0.537717,-0.367103 -1.130122,-0.536372 -1.777241,-0.507783 0.09696,1.02567 -0.15693,1.956614 -0.761675,2.792807 0.08462,0.169269 0.16927,0.338513 0.253894,0.507782 -0.320083,0.495952 -0.616299,1.003735 -0.888623,1.52335 -0.741008,-2.418292 -1.2911145,-4.91491 -1.6502947,-7.489801 0.3127181,-0.514537 0.2280945,-0.85305 -0.2538935,-1.015567 0.2318551,-0.358979 0.2318551,-0.739814 1.5e-6,-1.142511 z"
     id="path42"
     style="clip-rule:evenodd;fill-rule:evenodd;stroke-width:0.253892;image-rendering:optimizeQuality;shape-rendering:geometricPrecision;text-rendering:geometricPrecision" />
  <path
     fill="#e1e4e5"
     d="m 34.788617,10.026208 c 4.063027,-0.042301 8.125293,2.5e-5 12.186796,0.126943 0.46843,0.28639 0.976214,0.413336 1.523349,0.380838 0,0.253889 0,0.507783 0,0.761674 1.040954,-0.0062 2.056521,-0.175438 3.046696,-0.507783 0.525305,-0.08231 0.60985,-0.293878 0.253909,-0.634729 0.927213,-0.126592 1.857978,-0.168915 2.792806,-0.126943 -0.172157,2.216345 -0.510576,4.416747 -1.015566,6.60118 -0.07922,1.426744 -0.375496,2.865446 -0.88862,4.316157 -0.01058,-0.825706 -0.222161,-1.62968 -0.63473,-2.41197 0.192945,-0.465815 0.277757,-0.973597 0.253908,-1.52335 -0.126954,-0.380837 -0.253908,-0.761675 -0.380836,-1.142512 -0.662657,1.791916 -1.551277,3.442211 -2.665863,4.950886 0.08455,0.08462 0.16936,0.16927 0.253908,0.253894 -0.209461,0.705336 -0.378807,1.424687 -0.507783,2.158078 -0.783001,-0.700665 -1.375332,-1.546961 -1.777243,-2.538916 -0.404958,-2.009983 -0.57405,-4.041116 -0.507784,-6.093398 -0.934828,0.04197 -1.865593,-3.55e-4 -2.792806,-0.126947 -2.034179,-0.509357 -4.065312,-0.932518 -6.093395,-1.269458 1.018866,1.10519 1.780539,2.374648 2.285023,3.808374 -0.639806,0.765483 -1.401483,1.400212 -2.285023,1.904187 -0.02835,-0.156752 -0.112744,-0.283699 -0.253909,-0.380837 -1.991528,-0.04342 -3.938114,-0.170362 -5.839507,-0.380838 -0.07313,-0.854675 -0.115275,-1.700972 -0.126954,-2.538916 1.36365,1.126162 2.929402,1.718593 4.696992,1.777242 0.04214,-1.441191 -2.53e-4,-2.879918 -0.126954,-4.316157 -0.218608,-0.728212 -0.641839,-1.320618 -1.26946,-1.777242 -0.125405,-0.414884 -0.167584,-0.838045 -0.126954,-1.269457 z"
     id="path46"
     style="clip-rule:evenodd;fill-rule:evenodd;stroke-width:0.253892;image-rendering:optimizeQuality;shape-rendering:geometricPrecision;text-rendering:geometricPrecision" />
  <path
     fill="#edf0f2"
     d="m 24.379061,10.026208 c 0.850536,-0.041889 1.696757,4.31e-4 2.538915,0.126943 0.871864,1.760637 1.802885,1.802935 2.792808,0.126946 1.041717,0.734686 1.972482,1.580983 2.792806,2.538916 0.661897,-0.161703 1.254225,-0.457893 1.777243,-0.888621 -5.520873,-1.747916 -5.351527,-2.3826445 0.507784,-1.904185 -0.04063,0.431411 0.0015,0.854573 0.126954,1.269457 0.627621,0.456624 1.05086,1.049029 1.26946,1.777241 0.12669,1.436239 0.169096,2.874966 0.126954,4.316157 -1.76759,-0.05865 -3.333342,-0.65108 -4.696992,-1.777242 0.01172,0.837944 0.05382,1.684241 0.126954,2.538916 -2.767419,-0.516948 -5.136989,0.202402 -7.108965,2.158079 0.141165,0.09714 0.225785,0.224084 0.253894,0.380837 -0.36096,-0.05296 -0.699472,-0.179906 -1.015567,-0.380837 0.50461,-0.334859 0.8008,-0.800343 0.888621,-1.396404 0.08462,0.08462 0.16927,0.16927 0.253893,0.253894 0.357954,-0.326887 0.738791,-0.623102 1.142479,-0.888622 2.008536,-0.341713 3.616432,-1.314955 4.823938,-2.919752 -2.83419,-0.09435 -5.457652,-0.856021 -7.870637,-2.285024 0.480083,-0.20583 0.818597,-0.54437 1.015566,-1.015567 -0.702467,-0.789399 -0.61782,-1.466428 0.253892,-2.031132 z"
     id="path50"
     style="clip-rule:evenodd;fill-rule:evenodd;stroke-width:0.253892;image-rendering:optimizeQuality;shape-rendering:geometricPrecision;text-rendering:geometricPrecision" />
  <path
     fill="#eaeff2"
     d="m 49.006546,23.228569 c 0.0028,0.385255 0.171893,0.68147 0.507783,0.888621 0.485185,0.379796 0.992969,0.71831 1.52335,1.015566 -1.692696,-0.104882 -3.173647,-0.739612 -4.443103,-1.904187 -0.04241,0.16927 -0.08455,0.338513 -0.126954,0.507783 0.386676,2.858566 0.640569,5.735919 0.761673,8.632314 0.804075,1.438804 1.607898,2.877354 2.411969,4.316157 0.395566,0.471985 0.86095,0.852821 1.396407,1.142512 -1.501765,-0.03326 -2.940566,-0.414097 -4.316152,-1.142512 -0.302638,-1.369491 -0.683475,-2.723495 -1.142509,-4.062265 -1.240517,-1.177296 -2.63692,-1.346641 -4.189213,-0.507783 0.04165,-0.682207 -7.6e-4,-1.359336 -0.126955,-2.031133 -0.277228,0.410543 -0.658083,0.664434 -1.142509,0.761675 0.809151,-2.308637 1.570824,-4.636061 2.285023,-6.982019 -0.08455,-0.126947 -0.169361,-0.253894 -0.253909,-0.380837 -0.654788,0.306217 -1.289518,0.644732 -1.904186,1.015566 -0.453453,-0.82172 -0.83429,-1.668017 -1.142514,-2.538916 0.193701,-0.194963 0.44761,-0.32191 0.761673,-0.380837 -0.348321,-0.315307 -0.60223,-0.696146 -0.761673,-1.142512 -0.803059,-0.209231 -1.226298,-0.717016 -1.269456,-1.52335 0.88354,-0.503975 1.645217,-1.138704 2.285023,-1.904187 -0.504484,-1.433726 -1.266157,-2.703183 -2.285023,-3.808374 2.028083,0.336942 4.059216,0.760102 6.093395,1.269459 0.927213,0.126591 1.857978,0.168914 2.792807,0.126946 -0.06626,2.052282 0.102841,4.083415 0.507783,6.093398 0.401911,0.991955 0.994242,1.838251 1.777243,2.538916 z"
     id="path54"
     style="clip-rule:evenodd;fill-rule:evenodd;stroke-width:0.253892;image-rendering:optimizeQuality;shape-rendering:geometricPrecision;text-rendering:geometricPrecision" />
  <path
     fill="#fcfbfa"
     d="m 13.207831,22.213003 c -0.279535,0.329983 -0.618049,0.456928 -1.015567,0.380837 0.592152,-1.644303 1.438449,-3.125329 2.538916,-4.443103 1.463787,-1.254757 3.02946,-2.185702 4.696995,-2.792806 0.138448,0.6443 0.307718,1.23673 0.507783,1.77724 -1.143579,0.294793 -2.201443,0.760278 -3.173645,1.396404 2.46973,0.259021 4.754755,1.020695 6.855073,2.285024 -0.303858,0.734686 -0.642371,1.454037 -1.015567,2.158078 -1.203319,0.695232 -1.160995,1.456907 0.126946,2.285025 0.442051,0.713181 0.738266,1.474856 0.888621,2.285024 -3.244151,0.396071 -4.005826,-0.788587 -2.285024,-3.554482 -0.226318,-0.276639 -0.480211,-0.276639 -0.761675,0 -0.389724,-0.821771 -0.81286,-1.625744 -1.269458,-2.41197 -1.35408,-0.16927 -2.708186,-0.16927 -4.062266,0 -0.750706,0.07094 -1.427734,0.282505 -2.031132,0.634729 z"
     id="path58"
     style="clip-rule:evenodd;fill-rule:evenodd;stroke-width:0.253892;image-rendering:optimizeQuality;shape-rendering:geometricPrecision;text-rendering:geometricPrecision" />
  <path
     style="clip-rule:evenodd;opacity:0.828;fill-rule:evenodd;stroke-width:0.253892;image-rendering:optimizeQuality;shape-rendering:geometricPrecision;text-rendering:geometricPrecision"
     fill="#e7eaed"
     d="m 8.6377824,10.026208 c 0.1692699,0 0.3385134,0 0.5077829,0 0.2318551,0.402697 0.2318551,0.783533 0,1.142511 0.481988,0.162516 0.5666101,0.50103 0.2538935,1.015567 0.3591799,2.574891 0.9092872,5.071509 1.6502952,7.489801 0.272322,-0.519615 0.56854,-1.027398 0.888621,-1.52335 -0.08462,-0.169269 -0.16927,-0.338513 -0.253894,-0.507782 0.604745,-0.836193 0.858636,-1.767137 0.761675,-2.792807 0.647119,-0.02857 1.239524,0.140681 1.777241,0.507783 0.470969,1.008659 0.640238,1.939604 0.507783,2.792806 -1.100467,1.317774 -1.946764,2.7988 -2.538916,4.443103 0.397518,0.07609 0.736032,-0.05085 1.015567,-0.380837 0.275014,0.01002 0.528907,0.09465 0.761674,0.25389 0.248814,0.656691 0.33346,1.333718 0.253894,2.031133 -0.393432,1.748552 -0.520378,3.525793 -0.380839,5.331724 1.216978,0.103842 2.35949,0.442279 3.427536,1.015567 0.486761,-0.06449 0.825275,-0.31838 1.015566,-0.761675 0.695689,0.591059 0.526419,0.929751 -0.507783,1.015566 -0.323282,0.192196 -0.323282,0.361289 0,0.507783 0.04316,0.335645 -0.04149,0.631937 -0.25389,0.888621 0.661565,0.583697 0.661565,1.13388 0,1.650295 -0.249348,-0.664434 -0.757131,-1.257017 -1.523351,-1.777241 -0.516034,2.427458 -0.769926,4.881828 -0.761675,7.362855 -0.226193,0.19321 -0.395461,0.447107 -0.507783,0.761677 0.03111,0.476806 0.03111,0.942191 0,1.396403 -0.553103,0.112214 -0.722372,0.366123 -0.507783,0.761677 -0.211162,0.17469 -0.380431,0.132284 -0.507783,-0.126954 -0.33572,-0.959705 -0.589613,-1.932869 -0.761675,-2.919746 0.02941,-0.32194 0.114025,-0.660627 0.253894,-1.015566 -0.72989,-2.269285 -1.237673,-4.596455 -1.523352,-6.982021 0.06489,-0.301877 0.149517,-0.598168 0.253892,-0.88862 C 10.826074,23.820593 9.7258603,16.923223 8.6377824,10.026208 Z"
     id="path70" />
  <path
     style="clip-rule:evenodd;opacity:0.999;fill-rule:evenodd;stroke-width:0.253892;image-rendering:optimizeQuality;shape-rendering:geometricPrecision;text-rendering:geometricPrecision"
     fill="#fcfbfa"
     d="m 18.285662,29.82975 c 0,0.08455 0,0.169345 0,0.253893 -0.190291,0.443294 -0.528805,0.697185 -1.015566,0.761674 -1.068046,-0.573288 -2.210558,-0.911725 -3.427536,-1.015567 -0.139539,-1.805931 -0.01259,-3.583172 0.380837,-5.331723 0.203596,-0.368549 0.330542,-0.79171 0.380837,-1.269458 0.423162,0.423161 0.846297,0.846297 1.269458,1.269458 0.735956,1.835128 1.539954,3.612369 2.41197,5.331723 z"
     id="path74" />
  <path
     style="clip-rule:evenodd;opacity:0.769;fill-rule:evenodd;stroke-width:0.253892;image-rendering:optimizeQuality;shape-rendering:geometricPrecision;text-rendering:geometricPrecision"
     fill="#d8dee1"
     d="m 54.592158,10.026208 c 0.169361,0 0.338457,0 0.507783,0 -0.585218,4.481084 -1.346895,8.79724 -2.285023,12.948469 0.06474,0.852975 0.149556,1.614649 0.253909,2.285025 -0.598677,3.367618 -0.937368,6.710354 -1.01557,10.028717 -0.72638,3.64436 -1.234167,7.283391 -1.523346,10.917342 -1.403259,2.370584 -2.841812,4.698009 -4.31616,6.982015 0.04369,0.251868 -0.04112,0.420953 -0.253871,0.507784 -0.385406,-1.032322 -0.596901,-2.132436 -0.63473,-3.30059 -0.105638,-2.382773 -0.190148,-4.752343 -0.253909,-7.108966 1.035368,1.102145 2.262429,1.609928 3.681426,1.52335 -0.671036,-0.37474 -1.221218,-0.882523 -1.650293,-1.52335 0.006,-1.156728 -0.0359,-2.34164 -0.126954,-3.554483 -0.647168,-0.01512 -1.154952,0.238904 -1.52335,0.761677 -0.305952,-0.273449 -0.475287,-0.611879 -0.507783,-1.015566 0.375269,0.06652 0.713688,-0.01814 1.015567,-0.253909 0.460051,-0.787824 0.713941,-1.634047 0.761673,-2.538917 1.375585,0.728415 2.814387,1.109252 4.316159,1.14251 -0.535464,-0.289672 -1.000849,-0.670508 -1.396414,-1.142493 -0.804072,-1.438803 -1.607894,-2.877353 -2.41197,-4.316157 -0.121103,-2.896395 -0.374997,-5.773748 -0.761673,-8.632314 0.04241,-0.16927 0.08455,-0.338513 0.126955,-0.507783 1.269456,1.164575 2.750407,1.799304 4.443102,1.904187 -0.530381,-0.297256 -1.038164,-0.63577 -1.523349,-1.015566 -0.335887,-0.207152 -0.504991,-0.503366 -0.507784,-0.888621 0.128958,-0.733391 0.298318,-1.452742 0.507784,-2.158078 -0.08455,-0.08462 -0.169361,-0.16927 -0.253909,-0.25389 1.114586,-1.508675 2.003206,-3.15897 2.665863,-4.950886 0.126954,0.380837 0.253909,0.761675 0.380837,1.142512 0.02381,0.549752 -0.06093,1.057535 -0.253909,1.52335 0.412577,0.78229 0.624068,1.586264 0.63473,2.41197 0.513116,-1.450711 0.809408,-2.889413 0.88862,-4.316157 0.50499,-2.184433 0.843428,-4.384835 1.015566,-6.60118 z"
     id="path78" />
  <path
     fill="#dae8f2"
     d="m 31.741917,18.150737 c 1.901393,0.210475 3.847978,0.337422 5.839507,0.380838 0.141165,0.09714 0.225713,0.224085 0.253909,0.380837 0.04316,0.806334 0.466397,1.314118 1.269456,1.52335 0.159458,0.446366 0.413337,0.827204 0.761673,1.142512 -0.314079,0.05893 -0.567953,0.185874 -0.761673,0.380837 -0.353424,-0.450048 -0.649708,-0.957831 -0.88862,-1.523349 -0.229266,-0.305026 -0.525304,-0.516619 -0.888624,-0.634729 -2.2835,-0.126895 -4.568523,-0.169194 -6.855073,-0.126946 -1.385994,-0.100719 -2.739996,0.02623 -4.062264,0.380837 -1.013027,1.56024 -1.859222,3.210535 -2.538916,4.950886 1.662229,1.234675 3.48187,2.250241 5.45867,3.046699 1.017343,-1.526142 1.905963,-3.134012 2.66586,-4.82394 0.88329,1.255976 1.644964,2.610006 2.285026,4.062265 -0.761676,0.465384 -1.523349,0.931021 -2.285026,1.396404 2.491691,0.872118 4.946064,1.760738 7.362857,2.665862 -0.759897,-0.16122 -1.52157,-0.203369 -2.285023,-0.126947 -0.18051,0.318633 -0.39201,0.614672 -0.634731,0.888621 -1.105206,-0.792903 -2.332517,-1.342832 -3.681441,-1.650295 -0.676623,-0.528602 -1.226552,-1.163331 -1.650297,-1.904187 -0.636506,0.08531 -1.313382,0.2544 -2.031133,0.507784 -0.296292,-0.0424 -0.592328,-0.08455 -0.88862,-0.126947 0.650724,-0.193719 0.650724,-0.320666 0,-0.380838 -0.437455,0.267096 -0.860692,0.267096 -1.269458,0 0.254147,1.776226 0.719783,3.553467 1.396404,5.331724 0.204381,0.811437 0.161983,1.573112 -0.126947,2.285024 -0.876179,-2.457416 -1.807199,-4.911786 -2.792806,-7.362855 -2.602922,0.838604 -5.141838,1.76937 -7.616748,2.792807 -0.323282,-0.146495 -0.323282,-0.315587 0,-0.507783 1.034202,-0.08581 1.203472,-0.424507 0.507783,-1.015566 0,-0.08455 0,-0.169346 0,-0.253894 1.9458,-0.533424 3.892285,-1.083607 5.839507,-1.650293 0.965296,-0.676367 0.838299,-1.226296 -0.380837,-1.650295 -1.045907,-1.215659 -1.130529,-2.485117 -0.253892,-3.808374 0.727577,-0.51281 1.193037,-1.189863 1.396404,-2.031133 -0.02812,-0.156752 -0.112728,-0.283698 -0.253894,-0.380837 1.971976,-1.955676 4.341546,-2.675026 7.108967,-2.158079 z"
     id="path82"
     style="clip-rule:evenodd;fill-rule:evenodd;stroke-width:0.253892;image-rendering:optimizeQuality;shape-rendering:geometricPrecision;text-rendering:geometricPrecision" />
  <path
     fill="#f3f5f7"
     d="m 39.358663,31.3531 c 0.426286,0.05459 0.680179,-0.114758 0.761677,-0.507783 0.484426,-0.09724 0.865263,-0.351133 1.14251,-0.761675 0.126198,0.671797 0.168605,1.348926 0.126954,2.031133 0.03326,0.22241 -0.05129,0.391754 -0.253871,0.507783 -0.995508,0.540535 -2.011075,1.006172 -3.046699,1.396403 -0.394042,0.747203 -0.817278,1.466732 -1.269462,2.158079 -0.748724,0.395055 -1.425853,0.310253 -2.031129,-0.253894 -0.989163,1.009219 -2.004729,1.982387 -3.0467,2.919756 -0.24068,0.122645 -0.494581,0.164787 -0.761676,0.126954 0.0579,0.470971 -0.111459,0.682462 -0.507784,0.63473 -0.630156,-1.093512 -1.391833,-2.066679 -2.285023,-2.919755 0,-0.169346 0,-0.338438 0,-0.507783 0.28893,-0.711912 0.331329,-1.473587 0.126947,-2.285024 -0.676648,-1.778265 -1.142285,-3.555506 -1.396431,-5.331732 0.408766,0.267095 0.832003,0.267095 1.269458,0 0.650724,0.06017 0.650724,0.187117 0,0.380838 0.296292,0.0424 0.592329,0.08455 0.88862,0.126947 0.717751,-0.253384 1.394627,-0.422476 2.031133,-0.507784 0.423745,0.740856 0.973674,1.375585 1.650297,1.904187 1.348924,0.307464 2.576235,0.857392 3.681425,1.650296 0.242722,-0.273948 0.454214,-0.569987 0.634732,-0.888621 0.763453,-0.07642 1.525126,-0.03428 2.285022,0.126945 z"
     id="path90"
     style="clip-rule:evenodd;fill-rule:evenodd;stroke-width:0.253892;image-rendering:optimizeQuality;shape-rendering:geometricPrecision;text-rendering:geometricPrecision" />
  <path
     fill="#cfe1ec"
     d="m 46.721519,36.684823 c -0.04774,0.90487 -0.301606,1.751092 -0.761673,2.538919 -0.301871,0.23588 -0.640316,0.32039 -1.015566,0.253909 0.01436,-0.281575 0.09902,-0.535461 0.253908,-0.761677 0.669003,-0.915028 0.880494,-1.930594 0.634726,-3.046701 -0.531647,-1.320743 -1.251178,-2.505655 -2.158076,-3.554481 -1.839446,0.898521 -3.658832,1.829541 -5.458669,2.792806 0.532664,1.238991 1.082846,2.508449 1.650293,3.808376 -0.931019,0 -1.861788,0 -2.792806,0 0.07948,-0.899286 -0.0053,-1.745507 -0.253909,-2.538918 0.452184,-0.691347 0.875419,-1.410876 1.26946,-2.158079 1.035625,-0.39023 2.051191,-0.855867 3.0467,-1.396403 0.20262,-0.116027 0.287131,-0.285373 0.253871,-0.507782 1.552293,-0.838859 2.948696,-0.669514 4.189213,0.507782 0.459035,1.338771 0.839871,2.692775 1.142509,4.062265 z"
     id="path94"
     style="clip-rule:evenodd;fill-rule:evenodd;stroke-width:0.253892;image-rendering:optimizeQuality;shape-rendering:geometricPrecision;text-rendering:geometricPrecision" />
  <path
     fill="#dbe8f0"
     d="m 17.777879,31.606991 c 0.764544,0.296799 1.441597,0.720037 2.031133,1.269458 -0.465459,0.931021 -0.930944,1.861787 -1.396404,2.792808 -0.16927,0.592329 -0.16927,1.184912 0,1.777241 1.069544,2.139039 2.127434,4.25497 3.173645,6.347293 0.197401,0.663164 0.620537,1.128548 1.269458,1.396403 2.029381,0.126955 4.060488,0.169097 6.093398,0.126955 0,-2.200479 0,-4.400704 0,-6.601183 -1.523349,0 -3.046699,0 -4.570048,0 0.371112,-1.080819 0.878972,-2.096385 1.523349,-3.046701 0.737301,0.411304 1.498976,0.749742 2.285024,1.015566 0.893189,0.853076 1.654866,1.826243 2.285023,2.919755 0.396325,0.04774 0.56567,-0.163767 0.507783,-0.63473 0.267099,0.03783 0.520985,-0.0042 0.761677,-0.126954 1.04197,-0.937369 2.057537,-1.910536 3.0467,-2.919756 0.605276,0.564147 1.282405,0.648948 2.031129,0.253894 -1.856455,1.941254 -3.718239,3.887843 -5.585612,5.839508 1.698024,1.782319 3.390723,3.559559 5.077829,5.331723 -0.338419,0 -0.677129,0 -1.015563,0 0.03987,0.348585 -0.0025,0.687284 -0.126954,1.015566 -1.281132,-1.662228 -2.762332,-3.10103 -4.443096,-4.316156 -0.275217,0.295786 -0.486712,0.63422 -0.63473,1.015567 -0.668749,-0.302627 -0.880493,-0.133531 -0.63473,0.507783 -1.386246,0.868554 -2.909595,1.206992 -4.570046,1.015559 -1.066777,-0.201328 -2.16699,-0.412823 -3.300591,-0.634723 -0.296215,-0.296292 -0.592405,-0.592327 -0.88862,-0.888619 -0.562472,-1.477901 -1.197201,-2.916454 -1.904187,-4.316156 -0.422552,-0.982307 -0.80339,-1.997874 -1.142513,-3.046703 0.0062,-1.207508 -0.03613,-2.39242 -0.126947,-3.554482 0.661565,-0.516415 0.661565,-1.066598 0,-1.650295 0.212406,-0.256683 0.297052,-0.552976 0.253893,-0.888621 z"
     id="path110"
     style="clip-rule:evenodd;fill-rule:evenodd;stroke-width:0.253892;image-rendering:optimizeQuality;shape-rendering:geometricPrecision;text-rendering:geometricPrecision" />
  <path
     fill="#eff2f3"
     d="m 17.523988,34.145907 c 0.09082,1.162062 0.133142,2.346974 0.126943,3.554482 0.339122,1.048829 0.719961,2.064392 1.142513,3.046703 -0.253179,-0.0076 -0.422449,0.119319 -0.507782,0.380836 0.523119,1.248639 0.988578,2.475696 1.396404,3.681426 -0.681039,0.723591 -1.40039,1.400466 -2.158078,2.031133 -0.449871,-0.53825 -0.957654,-0.961485 -1.52335,-1.269456 0.328588,-1.780543 0.328588,-3.642584 0,-5.585616 -0.327776,0.06017 -0.581665,-0.02457 -0.761675,-0.253909 -0.0083,-2.481029 0.245639,-4.935399 0.761675,-7.362857 0.76622,0.520224 1.274003,1.112807 1.52335,1.777239 z"
     id="path118"
     style="clip-rule:evenodd;fill-rule:evenodd;stroke-width:0.253892;image-rendering:optimizeQuality;shape-rendering:geometricPrecision;text-rendering:geometricPrecision" />
  <path
     fill="#e6ebee"
     d="m 18.793446,40.747092 c 0.706986,1.399702 1.341715,2.838255 1.904187,4.316156 0.296213,0.296277 0.592405,0.592327 0.88862,0.888619 1.133601,0.221897 2.233814,0.433395 3.300591,0.634731 -0.187601,-0.03326 -0.356871,0.0091 -0.507783,0.126954 1.367206,1.843759 2.509718,3.832747 3.427536,5.966452 1.060759,1.257525 2.03418,2.357636 2.919753,3.30059 h -1.523349 c -0.703026,-0.589028 -1.507101,-1.012267 -2.41197,-1.26946 -0.175695,0.133304 -0.302638,0.302626 -0.380838,0.507783 0.312034,0.198274 1.46924,0.265323 0.158166,0.781081 h -3.230073 c 0.5184,-0.439329 0.620381,-0.369524 1.16772,-1.034971 -0.07297,-0.988146 -0.538453,-1.199637 -1.396403,-0.63473 -0.592406,0.169361 -1.184836,0.169361 -1.777241,0 -0.223551,-0.179754 -0.392822,-0.391498 -0.507784,-0.63473 0.813368,-1.716053 1.575042,-3.493292 2.285025,-5.331722 -0.08462,-0.169361 -0.16927,-0.338419 -0.253893,-0.507784 -2.139189,0.7665 -4.25497,1.570575 -6.34729,2.41197 -0.307234,0.263811 -0.561125,0.560084 -0.761674,0.888624 -0.267096,0.03783 -0.520986,-0.0042 -0.761675,-0.126955 0.201362,-0.27549 0.370632,-0.571763 0.507783,-0.88862 -0.41755,-0.303647 -0.840711,-0.557548 -1.269458,-0.761676 0.693835,-0.113726 1.243917,-0.452179 1.650295,-1.015567 0.126591,-0.927212 0.168914,-1.857978 0.126946,-2.792806 0.565696,0.307956 1.073479,0.731206 1.52335,1.269456 0.75769,-0.630667 1.477041,-1.307542 2.15808,-2.031133 -0.407827,-1.20573 -0.873286,-2.432787 -1.396405,-3.681426 0.08533,-0.261505 0.254604,-0.388456 0.507784,-0.380836 z"
     id="path122"
     style="clip-rule:evenodd;fill-rule:evenodd;stroke-width:0.253892;image-rendering:optimizeQuality;shape-rendering:geometricPrecision;text-rendering:geometricPrecision"
     sodipodi:nodetypes="ccccccccccccccccccccccccccccc" />
  <path
     style="clip-rule:evenodd;opacity:0.753;fill-rule:evenodd;stroke-width:0.253892;image-rendering:optimizeQuality;shape-rendering:geometricPrecision;text-rendering:geometricPrecision"
     fill="#dce0e3"
     d="m 20.570687,3.4250262 c -1.30904,1.3479612 -2.155362,2.9559581 -2.538916,4.8239396 1.525685,-0.042198 3.049035,1.27e-4 4.570048,0.1269468 0.302993,0.2779086 0.641508,0.4895028 1.015567,0.6347289 -0.16927,0.2538935 -0.338513,0.5077829 -0.507783,0.7616749 h -6.34729 C 15.925029,8.5962137 14.994085,7.4960258 13.969505,6.4717251 13.780813,6.8291788 13.56922,7.1676925 13.334777,7.4872916 12.911615,6.8102388 12.488481,6.1332113 12.065319,5.4561589 c 0,0 0,0 -0.253893,-0.2538935 0.04405,-1.0259251 0.170997,-2.0414917 0.380837,-3.0466989 0.72938,0.3236825 1.491055,0.535254 2.285025,0.6347289 2.0714,0.1959042 4.102532,0.4074705 6.093399,0.6347308 z"
     id="path126"
     sodipodi:nodetypes="ccccccccccccc" />
  <path
     style="clip-rule:evenodd;opacity:0.998;fill-rule:evenodd;stroke-width:0.253892;image-rendering:optimizeQuality;shape-rendering:geometricPrecision;text-rendering:geometricPrecision"
     fill="#b8c3ca"
     d="m 16.762313,9.7723156 c -2.87743,0 -5.754884,0 -8.6323135,0 1.1600311,-1.542518 2.4717875,-2.9812458 3.9353195,-4.3161567 0.423162,0.6770524 0.846296,1.3540799 1.269458,2.0311327 0.234444,-0.3196006 0.446036,-0.6581128 0.634728,-1.0155665 1.02458,1.0243007 1.955524,2.1244886 2.792808,3.3005905 z"
     id="path130" />
  <path
     fill="#e8edf0"
     d="m 44.94428,39.477632 c 0.0325,0.403687 0.201826,0.742125 0.507783,1.015566 0.36839,-0.522761 0.876181,-0.776655 1.52335,-0.761677 0.0909,1.212843 0.133039,2.397755 0.126954,3.554483 0.429075,0.640827 0.979257,1.148606 1.650293,1.52335 -1.418997,0.08659 -2.646059,-0.421205 -3.681426,-1.52335 0.06372,2.356623 0.148271,4.726193 0.253908,7.108966 0.03783,1.168154 0.249336,2.268268 0.634731,3.30059 0.0098,0.27496 0.09471,0.528858 0.25387,0.761676 -0.841904,0.136101 -1.603577,-0.117807 -2.285022,-0.761676 -0.224958,0.209461 -0.309506,0.463355 -0.253909,0.761676 -0.07873,0.314306 -0.205644,0.314306 -0.38084,0 -0.552964,-1.452007 -1.272492,-2.806011 -2.158065,-4.062266 -1.26692,1.309572 -2.493978,2.663577 -3.68143,4.062266 -0.526061,0.881258 -0.515741,0.562232 -0.751353,1.542762 l -0.648437,-0.0098 c -0.03439,-1.867117 0.05337,-2.469346 0.257276,-4.325801 -0.488232,-0.923407 -0.488232,-1.812027 0,-2.665863 -0.08455,-0.126955 -0.169361,-0.253909 -0.253909,-0.380837 -1.052126,0.410797 -2.152493,0.622288 -3.300589,0.634726 -0.771322,1.838431 -1.575398,3.657819 -2.41197,5.45867 -0.199559,-3.118296 -0.495851,-6.164995 -0.888623,-9.140096 -0.245783,-0.641329 -0.03402,-0.810421 0.63473,-0.507783 0.148006,-0.381347 0.359508,-0.719784 0.63473,-1.015566 1.680763,1.215125 3.161964,2.653927 4.443103,4.316156 0.124422,-0.32829 0.16679,-0.666974 0.126954,-1.015567 h 1.015563 c 0.243212,0.115011 0.454975,0.284107 0.634731,0.507783 0.126425,-0.842158 0.168831,-1.688379 0.126954,-2.538916 1.638107,0.105638 3.246005,-0.02116 4.823939,-0.380837 1.047557,-1.798567 2.063123,-3.618209 3.046704,-5.458669 z"
     id="path134"
     style="clip-rule:evenodd;fill-rule:evenodd;stroke-width:0.253892;image-rendering:optimizeQuality;shape-rendering:geometricPrecision;text-rendering:geometricPrecision"
     sodipodi:nodetypes="ccccccccccccccccccccccccccccccc" />
  <path
     fill="#faf9f7"
     d="m 20.824578,53.69556 c -1.635392,-0.95768 -3.328011,-1.804154 -5.077831,-2.538913 0.200549,-0.328554 0.45444,-0.624828 0.761674,-0.888624 2.092321,-0.841394 4.208101,-1.64547 6.34729,-2.411969 0.08462,0.16936 0.16927,0.338419 0.25389,0.507783 -0.709981,1.83843 -1.471656,3.61567 -2.285023,5.331723 z"
     id="path138"
     style="clip-rule:evenodd;fill-rule:evenodd;stroke-width:0.253892;image-rendering:optimizeQuality;shape-rendering:geometricPrecision;text-rendering:geometricPrecision" />
  <path
     style="clip-rule:evenodd;opacity:0.757;fill-rule:evenodd;stroke-width:0.253892;image-rendering:optimizeQuality;shape-rendering:geometricPrecision;text-rendering:geometricPrecision"
     fill="#d1d5d8"
     d="m 15.746746,51.156689 c 1.74982,0.734762 3.442438,1.581237 5.077831,2.538912 0.114961,0.243213 0.284231,0.454976 0.507784,0.63473 0.592405,0.169361 1.184834,0.169361 1.77724,0 0.857952,-0.564907 1.323437,-0.353423 1.396405,0.63473 -0.547339,0.665428 -0.445601,0.68482 -1.16772,1.034937 h -4.780233 c 0.47003,-0.427574 0.6208,-0.02381 0.997067,-0.527195 -1.114152,-0.944731 -2.298963,-1.791205 -3.554482,-2.538916 0,0 -1.015567,-1.904187 -0.253892,-1.777198 z"
     id="path142"
     sodipodi:nodetypes="cccccccccc" />
  <path
     id="path146"
     style="clip-rule:evenodd;fill:#b7bbbb;fill-opacity:1;fill-rule:evenodd;stroke-width:0.253892;image-rendering:optimizeQuality;shape-rendering:geometricPrecision;text-rendering:geometricPrecision"
     d="m 29.45703,45.57031 c -1.386247,0.868543 -2.909861,1.207059 -4.570312,1.015626 -0.187601,-0.03326 -0.3569,0.0091 -0.507813,0.126953 1.367206,1.843759 2.509917,3.833094 3.427735,5.966797 1.060759,1.257528 2.034348,2.357826 2.919921,3.300781 -0.0026,0.0035 -0.0052,0.0063 -0.0078,0.0098 h 5.335938 c 0.01482,-1.444831 0.09986,-2.887809 0.257812,-4.326172 -0.488232,-0.923406 -0.488232,-1.812178 0,-2.666015 -0.08455,-0.126928 -0.169358,-0.253905 -0.253906,-0.380859 -1.052126,0.410789 -2.152686,0.622293 -3.300782,0.634765 -0.771322,1.83843 -1.575537,3.658134 -2.412109,5.458985 -0.199559,-3.118296 -0.495899,-6.165525 -0.888672,-9.140626 z m -0.253906,10.410157 v 0.0098 h 0.0078 c -0.0028,-0.0033 -0.005,-0.0065 -0.0078,-0.0098 z" />
  <path
     id="path150"
     style="clip-rule:evenodd;fill:#d1d9d9;fill-opacity:1;fill-rule:evenodd;stroke-width:0.253892;image-rendering:optimizeQuality;shape-rendering:geometricPrecision;text-rendering:geometricPrecision"
     d="m 41.136718,50.394529 c -1.266921,1.309573 -2.494189,2.66381 -3.681641,4.0625 -0.297366,0.498149 -0.547393,1.013065 -0.751953,1.542969 h 4.896484 c 0.78243,-0.193395 1.560003,-0.410672 2.330078,-0.654297 0.330039,-0.400894 0.245244,-0.696974 -0.253907,-0.888672 -0.0787,0.314306 -0.205678,0.314306 -0.380859,0 -0.552974,-1.452007 -1.272629,-2.806245 -2.158202,-4.0625 z" />
  <path
     id="path158"
     style="clip-rule:evenodd;fill:#b8bec3;fill-opacity:1;fill-rule:evenodd;stroke-width:0.253892;image-rendering:optimizeQuality;shape-rendering:geometricPrecision;text-rendering:geometricPrecision"
     d="m 15.999999,52.933592 c -0.09819,0.56643 -0.140522,1.158865 -0.126953,1.777344 -0.591343,0.337477 -1.076736,0.767262 -1.458985,1.289062 h 4.716797 c 0.147083,-0.170855 0.288819,-0.346694 0.423829,-0.527344 -1.114153,-0.94473 -2.299169,-1.791351 -3.554688,-2.539062 z m 10.791016,1.777344 c -0.175693,0.133307 -0.302661,0.302659 -0.38086,0.507812 0.312033,0.198285 0.650527,0.325263 1.015625,0.380859 -0.281539,0.151718 -0.56759,0.284835 -0.857422,0.400391 h 2.634766 v -0.01953 C 28.500098,55.391439 27.695883,54.968132 26.791015,54.710936 Z M 14,56.681639 c -0.01013,0.02033 -0.02136,0.04 -0.03125,0.06055 v 0.253906 c 0.01042,5.16e-4 0.02083,0.0014 0.03125,0.002 z" />
  <path
     id="rect2730-7"
     style="opacity:0.8;fill:url(#linearGradient113015);fill-opacity:1;stroke-width:1.04589"
     d="M 8.2949249,9.295187 C 8.1041041,9.4200512 8.0246471,9.5863353 8.0000046,10.000265 l 5.9999994,45.999997 h 35.999994 l 6,-45.999997 c -0.02457,-0.4139282 -0.104126,-0.5802127 -0.294917,-0.705078 0.16543,0.3371603 0.03931,0.6810345 -0.505859,0.705078 H 8.8007844 C 8.2556076,9.9762215 8.1294881,9.6323461 8.2949249,9.295187 Z"
     sodipodi:nodetypes="ccccccccc" />
  <path
     id="rect2730-0"
     style="opacity:0.4;fill:url(#linearGradient91630);fill-opacity:1;stroke-width:1.04589"
     d="M 8.2949207,9.2951866 C 8.1040886,9.4200546 8.0246429,9.5863387 7.9999966,10.000265 l 6.0000024,45.999997 h 36.000003 l 6,-45.999997 c -0.02457,-0.4139282 -0.104126,-0.5802127 -0.294917,-0.7050784 0.16543,0.3371603 0.03931,0.6810345 -0.505859,0.7050784 H 8.8007828 C 8.2556053,9.9762264 8.129484,9.6323469 8.2949207,9.2951866 Z" />
  <path
     id="rect2730-0-1"
     style="opacity:0.4;fill:url(#linearGradient94280);fill-opacity:1;stroke-width:1.04589"
     d="M 8.2949154,9.2951858 C 8.1040833,9.4200652 8.0246376,9.5863304 7.9999951,10.000267 l 5.9999989,45.999995 h 36.000004 l 6,-45.999995 c -0.02457,-0.4139306 -0.104126,-0.5802143 -0.294917,-0.7050812 0.16543,0.3371414 0.03931,0.6810353 -0.505859,0.7050812 H 8.8007776 C 8.2556,9.9760775 8.1294787,9.6323605 8.2949154,9.2951858 Z" />
  <path
     id="rect2730-0-1-9"
     style="opacity:0.8;fill:url(#linearGradient122408);fill-opacity:1;stroke-width:1.04589"
     d="m 8.3009574,9.2945131 c -0.1908322,0.124868 -0.2702778,0.2911521 -0.2949241,0.7050784 0,0 0.055155,0.6095615 1.0000021,0.5999995 H 55.006035 c 0.866963,0.008 0.999999,-0.6000003 0.999999,-0.5999995 -0.02457,-0.4139278 -0.104126,-0.5802127 -0.294917,-0.7050784 0.16543,0.3371603 0.03931,0.6810345 -0.505855,0.7050784 H 8.8068169 C 8.2616397,9.9755533 8.1355206,9.6316734 8.3009574,9.2945131 Z"
     sodipodi:nodetypes="ccccccccc" />
  <path
     d="m 28.907531,19.000267 c -1.29467,0 -2.354607,0.615521 -3.002607,1.742188 l -1.966253,3.948237 5.579779,3.083165 2.830642,-5.451258 1.65091,-3.322332 z"
     style="fill:#0068ba;fill-opacity:1;stroke-width:0.352771"
     id="path138735"
     sodipodi:nodetypes="scccccs" />
  <path
     d="m 30.000002,19.000267 4.57159,8.1875 -2.286458,1.296874 7.281203,2.650141 2.905104,-8.042881 -2.249995,1.330728 -2.384205,-4.531734 c -0.342682,-0.581339 -0.923815,-0.890631 -1.674477,-0.890631 z"
     style="fill:#0091e6;fill-opacity:1;stroke-width:0.352771"
     id="path142126"
     sodipodi:nodetypes="cccccccsc" />
  <path
     d="m 45.671616,35.527825 -2.10641,-3.875276 -5.726011,2.802257 2.841819,5.445437 1.829813,3.99925 3.134506,-6.645188 c 0.378017,-0.806296 0.233197,-1.35796 0.02646,-1.72648 z"
     style="fill:#0068ba;fill-opacity:1;stroke-width:0.352771"
     id="path138735-0"
     sodipodi:nodetypes="ccccccc" />
  <path
     d="m 44.99,38.639264 -8.074412,-0.01058 0.02011,-2.628569 -5.737939,5.65642 5.731971,5.861552 -0.02744,-2.613918 h 4.000002 c 0.674793,-0.006 1.230324,-0.356409 1.608545,-1.004825 z"
     style="fill:#0091e6;fill-opacity:1;stroke-width:0.352771"
     id="path142126-6"
     sodipodi:nodetypes="ccccccccc" />
  <path
     d="m 21.837014,43.767543 c 0.525594,0.873562 1.07409,0.916471 1.531513,0.972226 l 5.631476,4.95e-4 v -6.735639 l -7.157551,0.0064 -3.162214,0.0398 z"
     style="fill:#0068ba;fill-opacity:1;stroke-width:0.352771"
     id="path146733"
     sodipodi:nodetypes="ccccccc" />
  <path
     d="m 21.60867,43.350797 4.294557,-8.229847 2.322286,1.231572 -2.562033,-7.564387 -7.845991,2.377756 2.331248,1.18263 -1.846995,3.548042 c -0.306176,0.601366 -0.222051,1.237975 0.148547,1.890776 z"
     style="fill:#0091e6;fill-opacity:1;stroke-width:0.352771"
     id="path146730"
     sodipodi:nodetypes="cccccccsc" />
</svg>
